<?xml version="1.0" encoding="UTF-8"?>
<svg fill="none" viewBox="0 0 40 40" xmlns="http://www.w3.org/2000/svg">
    <g filter="url(#filter0_f)" opacity=".2">
        <path d="m6.4966 4.3023v2.3767h-2.408v26.937h2.408v3.1689h27.29v-3.1689h3.2106v-26.937h-3.2106v-2.3767h-27.29z" fill="#1A237E"/>
    </g>
    <path d="m34.161 4.1727h-28.323c-0.92013 0-1.666 0.74594-1.666 1.6661v28.323c0 0.9202 0.74591 1.6661 1.666 1.6661h28.323c0.9201 0 1.666-0.7459 1.666-1.6661v-28.323c0-0.92018-0.7459-1.6661-1.666-1.6661z" fill="#3F51B5"/>
    <path d="m5.8383 4.1715c-0.92299 0-1.6669 0.74384-1.6669 1.6668v0.46405c0-0.9231 0.74387-1.667 1.6669-1.667h28.322c0.923 0 1.6668 0.74387 1.6668 1.667v-0.46405c0-0.92296-0.7438-1.6668-1.6668-1.6668h-28.322z" fill="#fff" opacity=".2"/>
    <path d="m34.16 35.859c0.9229 0 1.6668-0.7438 1.6668-1.6668v-0.4639c0 0.9228-0.7439 1.6668-1.6668 1.6668h-28.322c-0.9229 0-1.6668-0.744-1.6668-1.6668v0.4639c0 0.923 0.7439 1.6668 1.6668 1.6668h28.322z" fill="#1A237E" opacity=".2"/>
    <path d="m22.773 24.92h0.0076l-0.0014-0.0014-0.0062 0.0014z" fill="#fff"/>
    <path d="m21.006 19.954 0.5059-1e-4 -0.0057-0.0014-0.5002 0.0015z" fill="#fff"/>
    <path d="m21.006 19.954c-0.9554 0.0012-2.2651 0.3187-2.7828 1.2153-0.0825 0.1277-0.1377 0.2711-0.1619 0.4212-0.0243 0.15-0.0172 0.3035 0.0209 0.4506 0.0235 0.1233 0.0714 0.2406 0.141 0.3451 0.3242 0.4492 1.3436 0.2225 1.7524-0.0282 0.6906-0.4185 0.8561-1.3872 0.9906-2.1746 0.0134-0.0785 0.0265-0.1553 0.0398-0.2294z" fill="#fff"/>
    <path d="m25.631 11-12.639 2.8618 0.468 2.0622-1.9568 0.4432-0.0028 7e-3 2.8648 12.626 12.639-2.8618-0.4708-2.0696 1.9667-0.4428-2.869-12.626zm-0.0328 8.9588c0.2092-1.0525 0.3782-2.1109 0.3782-3.117 0-1.3361-0.6891-2.0402-1.6284-2.4076l0.0014 0.0064c-0.7768-0.3071-1.7327-0.3817-2.6096-0.3916h0.0014l0.0121-0.0027c-0.0833-1e-3 -0.1659-0.0015-0.2476-0.0015-1.481 0-3.017 0.2747-4.2398 1.0171l0.0074-0.0017c-0.1171 0.0693-0.2309 0.1433-0.341 0.2218-0.0793 0.0568-0.1569 0.1158-0.2328 0.1771-0.6264 0.5077-1.1157 1.1694-1.4169 1.925l3.7799 0.3126c0.1734-0.7521 0.9868-1.169 1.7129-1.169 0.8961 0 1.2128 0.5728 1.0653 1.2935-0.0115 0.0571-0.0259 0.1152-0.0431 0.174-2.2362 0-5.1323 0.3672-6.6779 2.0856-0.2068 0.2316-0.3891 0.4877-0.542 0.7706l-0.0012-0.0055c-0.0953 0.174-0.1794 0.3583-0.2512 0.5533-0.3595 0.9858-0.2721 2.1928 0.5316 2.9462 0.1747 0.1637 0.3775 0.299 0.6053 0.4071l-0.0019-0.0085c0.3447 0.1513 0.7078 0.2537 1.0786 0.3052 0.1814 0.0226 0.371 0.0355 0.568 0.0389 0.039-1e-4 0.078-7e-4 0.1171-0.0019 0.6568 0 1.4164-0.1173 2.1102-0.3785 0.7267-0.2749 1.38-0.708 1.7669-1.3298l-0.0014 0.013c0.0033-0.0053 0.0066-0.0105 0.0099-0.0158l-0.1255 1.1478 0.062 0.3972h1.7265l-0.0123 0.0028h2.2249c-0.1621-0.6465-0.0803-1.438 0.0212-2.0872 0.0996-0.5752 0.2263-1.1704 0.3549-1.7746 0.0789-0.3706 0.1585-0.7447 0.233-1.1196l0.0039 0.0173z" clip-rule="evenodd" fill="#fff" fill-rule="evenodd"/>
    <defs>
        <filter id="filter0_f" x="3.3837" y="3.5974" width="34.319" height="33.893" color-interpolation-filters="sRGB" filterUnits="userSpaceOnUse">
            <feFlood flood-opacity="0" result="BackgroundImageFix"/>
            <feBlend in="SourceGraphic" in2="BackgroundImageFix" result="shape"/>
            <feGaussianBlur result="effect1_foregroundBlur" stdDeviation="0.352455"/>
        </filter>
    </defs>
</svg>
