<?xml version="1.0" encoding="UTF-8"?>
<svg version="1.1" viewBox="0 0 28.747 28.747" xmlns="http://www.w3.org/2000/svg">
    <defs>
        <filter id="filter6206-7" color-interpolation-filters="sRGB">
            <feGaussianBlur stdDeviation="0.658125"/>
        </filter>
    </defs>
    <g transform="translate(0 -1093.8)">
        <path transform="matrix(1.0781 0 0 1.0641 -.093733 2.7509)" d="m4.4177 1028.2v1.6051h-1.6052v18.192h1.6052v2.1402h18.192v-2.1402h2.1402v-18.192h-2.1402v-1.6051z" fill="#263238" filter="url(#filter6206-7)" opacity=".2"/>
        <rect x="2.9987" y="1096.8" width="22.749" height="22.749" rx="1.1973" ry="1.1974" fill="#03a9f4"/>
        <g transform="translate(-22.32 1056.5)">
            <path d="m0 0h51.2v51.2h-51.2z" fill="none" stroke-width="1.0667"/>
            <g transform="matrix(.33601 0 0 .33601 1.5296 73.043)">
                <path d="m0 0h51.2v51.2h-51.2z" fill="none" stroke-width="1.0667"/>
            </g>
            <g transform="matrix(.37187 0 0 .37187 38.802 63.239)">
                <path d="m0 0h51.2v51.2h-51.2z" fill="none" stroke-width="1.0667"/>
                <g transform="matrix(2.6891 0 0 2.6891 -82.906 -48.45)">
                    <path d="m0 0h51.2v51.2h-51.2z" fill="none" stroke-width="1.0667"/>
                </g>
            </g>
        </g>
        <path d="m4.1958 1096.8c-0.66332 0-1.1979 0.5346-1.1979 1.1979v0.3334c0-0.6634 0.53459-1.1979 1.1979-1.1979h20.354c0.66332 0 1.1979 0.5345 1.1979 1.1979v-0.3334c0-0.6633-0.5346-1.1979-1.1979-1.1979z" fill="#fff" opacity=".2"/>
        <rect x="128" y="546.52" width="42.667" height="42.667" fill="none" stroke-width="1.0667"/>
        <rect x="128" y="631.85" width="42.667" height="42.667" fill="none" stroke-width="1.0667"/>
        <rect x="128" y="674.52" width="42.667" height="42.667" fill="none" stroke-width="1.0667"/>
        <rect x="128" y="589.19" width="42.667" height="42.667" fill="none" stroke-width="1.0667"/>
        <rect x="128" y="717.19" width="42.667" height="42.667" fill="none" stroke-width="1.0667"/>
        <rect x="213.33" y="546.52" width="42.667" height="42.667" fill="none" stroke-width="1.0667"/>
        <rect x="213.33" y="631.85" width="42.667" height="42.667" fill="none" stroke-width="1.0667"/>
        <rect x="213.33" y="674.52" width="42.667" height="42.667" fill="none" stroke-width="1.0667"/>
        <rect x="213.33" y="589.19" width="42.667" height="42.667" fill="none" stroke-width="1.0667"/>
        <rect x="213.33" y="717.19" width="42.667" height="42.667" fill="none" stroke-width="1.0667"/>
        <rect x="298.67" y="546.52" width="42.667" height="42.667" fill="none" stroke-width="1.0667"/>
        <rect x="298.67" y="631.85" width="42.667" height="42.667" fill="none" stroke-width="1.0667"/>
        <rect x="298.67" y="674.52" width="42.667" height="42.667" fill="none" stroke-width="1.0667"/>
        <rect x="298.67" y="589.19" width="42.667" height="42.667" fill="none" stroke-width="1.0667"/>
        <rect x="298.67" y="717.19" width="42.667" height="42.667" fill="none" stroke-width="1.0667"/>
        <rect x="170.67" y="546.52" width="42.667" height="42.667" fill="none" stroke-width="1.0667"/>
        <rect x="170.67" y="631.85" width="42.667" height="42.667" fill="none" stroke-width="1.0667"/>
        <rect x="170.67" y="674.52" width="42.667" height="42.667" fill="none" stroke-width="1.0667"/>
        <rect x="170.67" y="589.19" width="42.667" height="42.667" fill="none" stroke-width="1.0667"/>
        <rect x="170.67" y="717.19" width="42.667" height="42.667" fill="none" stroke-width="1.0667"/>
        <rect x="256" y="546.52" width="42.667" height="42.667" fill="none" stroke-width="1.0667"/>
        <rect x="256" y="631.85" width="42.667" height="42.667" fill="none" stroke-width="1.0667"/>
        <rect x="256" y="674.52" width="42.667" height="42.667" fill="none" stroke-width="1.0667"/>
        <rect x="256" y="589.19" width="42.667" height="42.667" fill="none" stroke-width="1.0667"/>
        <rect x="256" y="717.19" width="42.667" height="42.667" fill="none" stroke-width="1.0667"/>
        <rect x="128" y="759.85" width="42.667" height="42.667" fill="none" stroke-width="1.0667"/>
        <rect x="213.33" y="759.85" width="42.667" height="42.667" fill="none" stroke-width="1.0667"/>
        <rect x="298.67" y="759.85" width="42.667" height="42.667" fill="none" stroke-width="1.0667"/>
        <rect x="170.67" y="759.85" width="42.667" height="42.667" fill="none" stroke-width="1.0667"/>
        <rect x="256" y="759.85" width="42.667" height="42.667" fill="none" stroke-width="1.0667"/>
        <rect x="341.33" y="589.19" width="42.667" height="42.667" fill="none" stroke-width="1.0667"/>
        <rect x="341.33" y="631.85" width="42.667" height="42.667" fill="none" stroke-width="1.0667"/>
        <rect x="341.33" y="717.19" width="42.667" height="42.667" fill="none" stroke-width="1.0667"/>
        <rect x="341.33" y="546.52" width="42.667" height="42.667" fill="none" stroke-width="1.0667"/>
        <rect x="341.33" y="674.52" width="42.667" height="42.667" fill="none" stroke-width="1.0667"/>
        <rect x="341.33" y="759.85" width="42.667" height="42.667" fill="none" stroke-width="1.0667"/>
        <rect x="160" y="578.52" width="192" height="192" fill="none" stroke-width="1.0667"/>
        <g transform="matrix(.37344 0 0 .37344 4.7333 1097.4)">
            <path d="m0 0h51.2v51.2h-51.2z" fill="none" stroke-width="1.0667"/>
        </g>
        <g transform="matrix(.36471 0 0 .36471 5.1356 1097.4)">
            <path d="m0 0h51.2v51.2h-51.2z" fill="none" stroke-width="1.0667"/>
        </g>
        <g transform="matrix(.41585 0 0 .41585 84.325 1055.9)">
            <g transform="matrix(.062269 0 0 .062269 -28.238 185.29)">
                <g transform="matrix(38.618 0 0 38.618 14724 -13542)">
                    <g transform="matrix(.71436 0 0 .71436 -400.52 188.34)">
                        <path d="m1293.2-120.67c-181.75 0.2763-511.18 0.13525-699.05 0.13998-2.3216 10.413-3.593 21.251-3.593 32.384v114c207.65 0.73695 494.72 0.38136 706.23 0.3733v-114.37c0-11.18-1.2522-22.07-3.593-32.523zm-458.69 295.56c-78.385-4e-3 -158.85 0.17892-243.95 0.55995v138.63c286.34-0.39317 421.73-0.13827 706.23-0.32664v-137.75c-163.2-0.53005-311.22-1.1113-462.28-1.1199z" opacity="0" stroke-width="1.4932"/>
                    </g>
                </g>
            </g>
        </g>
        <path d="m24.549 1119.5c0.66325 0 1.1979-0.5346 1.1979-1.1979v-0.3333c0 0.6632-0.53461 1.1978-1.1979 1.1978h-20.354c-0.66325 0-1.1979-0.5346-1.1979-1.1978v0.3333c0 0.6633 0.53461 1.1979 1.1979 1.1979z" fill="#263238" opacity=".2"/>
    </g>
    <flowRoot fill="#000000" font-family="Roboto" font-size="12.8px" letter-spacing="0px" stroke-width="1.0667px" word-spacing="0px" style="line-height:0.01%" xml:space="preserve">
            <flowRegion><rect x="11.375" y="11.984" width="4.7893" height="5.388" stroke-width="1.1378px"/></flowRegion>
            <flowPara font-size="4px" style="line-height:1.25">your</flowPara>
        </flowRoot>
    <path d="m6.7952 6.7952h15.156v15.156h-15.156z" fill="none" stroke-width=".31576"/>
    <path d="m14.369 7.2521c-3.9392 0-7.1172 3.1896-7.1172 7.1235 0 3.9298 3.178 7.1193 7.1172 7.1193s7.1255-3.1896 7.1255-7.1193c0-3.9339-3.1863-7.1235-7.1255-7.1235zm3.8934 2.5824c0.04159 0.00415 0.07904 0.020791 0.10815 0.049897 0.09151 0.099804 0.23294 0.341 0.48252 0.39921 0.31614 0.0707 0.59483 0.18297 0.82362 0.41585l0.05407-0.0083 0.01664 0.08733c0.06239 0.07901 0.12063 0.16218 0.17471 0.26614 0.05407 0.07485 0.18718 0.1705 0.18718 0.58219 0.0042 0.1497-0.0208 0.19961-0.19966 0.21624-0.12894 0.0291-0.22461-0.12892-0.32861-0.20377-0.19966-0.15386-0.26622-0.12475-0.71546-0.16634-0.11647-0.01248-0.2163-0.03327-0.30366-0.06238v0.82338l1.1689-0.19545 0.04991 0.29525-1.2188 0.20376-0.0042 1.0438 1.173-0.19545 0.04991 0.29525-1.2229 0.20377c-0.0042 0.41585-0.34525 0.74853-0.75706 0.74853-0.32861 0-0.60731-0.21208-0.7113-0.50318l-1.9634 0.32852v1.0396l4.6048-0.76516 0.04991 0.2911-4.663 0.77764c-0.03744 0.38674-0.35773 0.69031-0.7529 0.69031-0.30782 0-0.57404-0.18297-0.6905-0.44912l-2.1713 0.36179v1.0438l8.2278-1.3681 0.04991 0.29525-8.2819 1.3806c-0.03744 0.38258-0.35773 0.68615-0.7529 0.68615-0.30782 0-0.57403-0.18297-0.69051-0.44912l-1.0524 0.17466-0.04576-0.29109 1.0316-0.17466c0-0.0042-0.0042-0.01248-0.0042-0.01664 0-0.42001 0.34109-0.761 0.76122-0.761 0.09983 0 0.1955 0.02079 0.28286 0.05822v-0.49902l-2.0257 0.33683-0.04576-0.29109 2.0715-0.34931 0.0042-1.0396-2.0299 0.33684-0.04576-0.29525 2.0757-0.34931v-1.0188c0-0.0083 0.0042-0.01664 0.0042-0.02495l-2.0341 0.33684-0.04576-0.29109 5.6946-0.95229v-1.0188c0-0.0083 0.0042-0.01664 0.0042-0.02079l-5.653 0.93981-0.04576-0.29525 9.1305-1.522v-0.96477c0-0.049897 0.01664-0.095641 0.05824-0.12891 0.03328-0.029105 0.07487-0.041582 0.11647-0.03743zm-0.17887 1.4347-3.1114 0.51981c0.09152 0.11228 0.22462 0.30357 0.44508 0.34931 0.34109 0.07901 0.63643 0.19961 0.87353 0.47407l1.7928-0.29941zm0 1.3473-1.6056 0.2703c0.0042 0.0041 0.0083 0.01248 0.0083 0.01663 0.05407 0.07485 0.18302 0.1705 0.18718 0.58219 0.0042 0.1497-0.0208 0.19961-0.19966 0.2204-0.12894 0.02079-0.22462-0.13307-0.32861-0.20792-0.19966-0.15386-0.26622-0.12475-0.71546-0.16634-0.11647-0.0083-0.22046-0.03327-0.30366-0.06237v0.8816l1.9176-0.3202c0.02496-0.39506 0.35357-0.71526 0.75706-0.71526 0.09983 0 0.1955 0.01664 0.28286 0.05406zm-3.4317 0.57387-3.3028 0.54892c0.09567 0.11228 0.22878 0.30357 0.44924 0.35347 0.33693 0.07901 0.63227 0.19961 0.86937 0.46991l1.9842-0.33268zm-0.0042 1.3473-1.7928 0.29941c0.0042 0.0042 0.0083 0.01248 0.01248 0.02079 0.05407 0.07485 0.18718 0.1705 0.18718 0.58219 0.0042 0.14555-0.0208 0.19545-0.19966 0.21624-0.12895 0.02495-0.22462-0.13307-0.32861-0.20792-0.19966-0.14971-0.26622-0.12476-0.71546-0.16634-0.12063-0.0083-0.22046-0.02911-0.30782-0.06237v0.8816l2.1048-0.34931c0-0.0083-0.0042-0.01248-0.0042-0.02079 0-0.41585 0.34109-0.75684 0.76122-0.75684 0.09983 0 0.1955 0.02079 0.28286 0.05406z" fill="#fff"/>
</svg>
