<?xml version="1.0" encoding="UTF-8"?>
<svg fill="none" viewBox="0 0 40 40" xmlns="http://www.w3.org/2000/svg">
    <g filter="url(#filter0_f)" opacity=".2">
        <path d="m6.4966 4.3023v2.3767h-2.408v26.937h2.408v3.1689h27.29v-3.1689h3.2106v-26.937h-3.2106v-2.3767h-27.29z" fill="#1A237E"/>
    </g>
    <path d="m34.161 4.1727h-28.323c-0.92013 0-1.666 0.74594-1.666 1.6661v28.323c0 0.9202 0.74591 1.6661 1.666 1.6661h28.323c0.9201 0 1.6661-0.7459 1.6661-1.6661v-28.323c0-0.92018-0.746-1.6661-1.6661-1.6661z" fill="#2196F3"/>
    <path d="m5.8384 4.1715c-0.92299 0-1.6669 0.74384-1.6669 1.6668v0.46405c0-0.9231 0.74387-1.667 1.6669-1.667h28.322c0.923 0 1.6669 0.74387 1.6669 1.667v-0.46405c0-0.92296-0.7439-1.6668-1.6669-1.6668h-28.322z" fill="#fff" opacity=".2"/>
    <path d="m34.16 35.859c0.9229 0 1.6668-0.7438 1.6668-1.6668v-0.4639c0 0.9228-0.7439 1.6668-1.6668 1.6668h-28.322c-0.9229 0-1.6668-0.744-1.6668-1.6668v0.4639c0 0.923 0.7439 1.6668 1.6668 1.6668h28.322z" fill="#1A237E" opacity=".2"/>
    <path d="m16.36 11.026h7.4901c1.8639 0 2.5398 0.194 3.2212 0.5585 0.6814 0.3644 1.2161 0.8991 1.5805 1.5805 0.3645 0.6814 0.5585 1.3573 0.5585 3.2212v0.7162c-0.4242-0.7858-1.0476-1.4067-1.8357-1.8282-0.8127-0.4347-1.6085-0.6345-3.5245-0.6345h-7.4901c-1.916 0-2.7117 0.1998-3.5245 0.6345-0.7881 0.4215-1.4115 1.0424-1.8357 1.8282v-0.7162c0-1.8639 0.1941-2.5398 0.5585-3.2212s0.8992-1.2161 1.5806-1.5805c0.6814-0.3645 1.3573-0.5585 3.2211-0.5585z" fill="#fff"/>
    <path d="m28.652 17.422c0.3645 0.6814 0.5585 1.3573 0.5585 3.2212v0.4725c-0.3643-0.6099-0.8747-1.096-1.5066-1.4339-0.6996-0.3742-1.4406-0.5486-2.7549-0.5486h-9.6875c-1.3143 0-2.0553 0.1744-2.7549 0.5486-0.6319 0.3379-1.1422 0.824-1.5066 1.4339v-0.4725c0-1.8639 0.1941-2.5398 0.5585-3.2212s0.8992-1.2161 1.5806-1.5805c0.6814-0.3645 1.3573-0.5585 3.2211-0.5585h7.4901c1.8639 0 2.5398 0.194 3.2212 0.5585 0.6814 0.3644 1.2161 0.8991 1.5805 1.5805z" fill="#fff"/>
    <path d="m29.21 23.87c-0.0157 1.691-0.2084 2.3385-0.5575 2.9911-0.3644 0.6814-0.8991 1.2162-1.5805 1.5806s-1.3573 0.5585-3.2212 0.5585h-7.4901c-1.8638 0-2.5397-0.1941-3.2211-0.5585s-1.2162-0.8992-1.5806-1.5806c-0.349-0.6526-0.5418-1.3001-0.5575-2.9911 0.0144-1.1375 0.1774-1.7333 0.4716-2.2833 0.3083-0.5766 0.7608-1.0291 1.3374-1.3375 0.5766-0.3083 1.2033-0.4725 2.4515-0.4725h9.6875c1.2483 0 1.875 0.1642 2.4515 0.4725 0.5766 0.3084 1.0291 0.7609 1.3375 1.3375 0.2942 0.55 0.4571 1.1458 0.4715 2.2833z" fill="#fff"/>
    <defs>
        <filter id="filter0_f" x="3.3838" y="3.5974" width="34.319" height="33.893" color-interpolation-filters="sRGB" filterUnits="userSpaceOnUse">
            <feFlood flood-opacity="0" result="BackgroundImageFix"/>
            <feBlend in="SourceGraphic" in2="BackgroundImageFix" result="shape"/>
            <feGaussianBlur result="effect1_foregroundBlur" stdDeviation="0.352455"/>
        </filter>
    </defs>
</svg>
