<?xml version="1.0" encoding="UTF-8"?>
<svg version="1.1" viewBox="0 0 28.747 28.747" xmlns="http://www.w3.org/2000/svg" xmlns:xlink="http://www.w3.org/1999/xlink">
    <defs>
        <filter id="filter6206-7" x="-.072" y="-.072" width="1.144" height="1.144" color-interpolation-filters="sRGB">
            <feGaussianBlur stdDeviation="0.658125"/>
        </filter>
    </defs>
    <g transform="translate(0 -1093.8)">
        <path transform="matrix(1.0781 0 0 1.0641 -.093733 2.7509)" d="m4.4177 1028.2v1.6051h-1.6052v18.192h1.6052v2.1402h18.192v-2.1402h2.1402v-18.192h-2.1402v-1.6051z" fill="#3e2723" filter="url(#filter6206-7)" opacity=".2"/>
        <rect x="2.9987" y="1096.8" width="22.749" height="22.749" rx="1.1973" ry="1.1974" fill="#ff5722"/>
        <g transform="translate(-22.32 1056.5)">
            <path d="m0 0h51.2v51.2h-51.2z" fill="none" stroke-width="1.0667"/>
            <g transform="matrix(.33601 0 0 .33601 1.5296 73.043)">
                <path d="m0 0h51.2v51.2h-51.2z" fill="none" stroke-width="1.0667"/>
            </g>
            <g transform="matrix(.37187 0 0 .37187 38.802 63.239)">
                <path d="m0 0h51.2v51.2h-51.2z" fill="none" stroke-width="1.0667"/>
                <g transform="matrix(2.6891 0 0 2.6891 -82.906 -48.45)">
                    <path d="m0 0h51.2v51.2h-51.2z" fill="none" stroke-width="1.0667"/>
                </g>
            </g>
        </g>
        <path d="m4.1958 1096.8c-0.66332 0-1.1979 0.5346-1.1979 1.1979v0.3334c0-0.6634 0.53459-1.1979 1.1979-1.1979h20.354c0.66332 0 1.1979 0.5345 1.1979 1.1979v-0.3334c0-0.6633-0.5346-1.1979-1.1979-1.1979z" fill="#fff" opacity=".2"/>
        <rect x="128" y="546.52" width="42.667" height="42.667" fill="none" stroke-width="1.0667"/>
        <rect x="128" y="631.85" width="42.667" height="42.667" fill="none" stroke-width="1.0667"/>
        <rect x="128" y="674.52" width="42.667" height="42.667" fill="none" stroke-width="1.0667"/>
        <rect x="128" y="589.19" width="42.667" height="42.667" fill="none" stroke-width="1.0667"/>
        <rect x="128" y="717.19" width="42.667" height="42.667" fill="none" stroke-width="1.0667"/>
        <rect x="213.33" y="546.52" width="42.667" height="42.667" fill="none" stroke-width="1.0667"/>
        <rect x="213.33" y="631.85" width="42.667" height="42.667" fill="none" stroke-width="1.0667"/>
        <rect x="213.33" y="674.52" width="42.667" height="42.667" fill="none" stroke-width="1.0667"/>
        <rect x="213.33" y="589.19" width="42.667" height="42.667" fill="none" stroke-width="1.0667"/>
        <rect x="213.33" y="717.19" width="42.667" height="42.667" fill="none" stroke-width="1.0667"/>
        <rect x="298.67" y="546.52" width="42.667" height="42.667" fill="none" stroke-width="1.0667"/>
        <rect x="298.67" y="631.85" width="42.667" height="42.667" fill="none" stroke-width="1.0667"/>
        <rect x="298.67" y="674.52" width="42.667" height="42.667" fill="none" stroke-width="1.0667"/>
        <rect x="298.67" y="589.19" width="42.667" height="42.667" fill="none" stroke-width="1.0667"/>
        <rect x="298.67" y="717.19" width="42.667" height="42.667" fill="none" stroke-width="1.0667"/>
        <rect x="170.67" y="546.52" width="42.667" height="42.667" fill="none" stroke-width="1.0667"/>
        <rect x="170.67" y="631.85" width="42.667" height="42.667" fill="none" stroke-width="1.0667"/>
        <rect x="170.67" y="674.52" width="42.667" height="42.667" fill="none" stroke-width="1.0667"/>
        <rect x="170.67" y="589.19" width="42.667" height="42.667" fill="none" stroke-width="1.0667"/>
        <rect x="170.67" y="717.19" width="42.667" height="42.667" fill="none" stroke-width="1.0667"/>
        <rect x="256" y="546.52" width="42.667" height="42.667" fill="none" stroke-width="1.0667"/>
        <rect x="256" y="631.85" width="42.667" height="42.667" fill="none" stroke-width="1.0667"/>
        <rect x="256" y="674.52" width="42.667" height="42.667" fill="none" stroke-width="1.0667"/>
        <rect x="256" y="589.19" width="42.667" height="42.667" fill="none" stroke-width="1.0667"/>
        <rect x="256" y="717.19" width="42.667" height="42.667" fill="none" stroke-width="1.0667"/>
        <rect x="128" y="759.85" width="42.667" height="42.667" fill="none" stroke-width="1.0667"/>
        <rect x="213.33" y="759.85" width="42.667" height="42.667" fill="none" stroke-width="1.0667"/>
        <rect x="298.67" y="759.85" width="42.667" height="42.667" fill="none" stroke-width="1.0667"/>
        <rect x="170.67" y="759.85" width="42.667" height="42.667" fill="none" stroke-width="1.0667"/>
        <rect x="256" y="759.85" width="42.667" height="42.667" fill="none" stroke-width="1.0667"/>
        <rect x="341.33" y="589.19" width="42.667" height="42.667" fill="none" stroke-width="1.0667"/>
        <rect x="341.33" y="631.85" width="42.667" height="42.667" fill="none" stroke-width="1.0667"/>
        <rect x="341.33" y="717.19" width="42.667" height="42.667" fill="none" stroke-width="1.0667"/>
        <rect x="341.33" y="546.52" width="42.667" height="42.667" fill="none" stroke-width="1.0667"/>
        <rect x="341.33" y="674.52" width="42.667" height="42.667" fill="none" stroke-width="1.0667"/>
        <rect x="341.33" y="759.85" width="42.667" height="42.667" fill="none" stroke-width="1.0667"/>
        <rect x="160" y="578.52" width="192" height="192" fill="none" stroke-width="1.0667"/>
        <g transform="matrix(.37344 0 0 .37344 4.7333 1097.4)">
            <path d="m0 0h51.2v51.2h-51.2z" fill="none" stroke-width="1.0667"/>
        </g>
        <g transform="matrix(.36471 0 0 .36471 5.1356 1097.4)">
            <path d="m0 0h51.2v51.2h-51.2z" fill="none" stroke-width="1.0667"/>
        </g>
        <g transform="matrix(.41585 0 0 .41585 84.325 1055.9)">
            <g transform="matrix(.062269 0 0 .062269 -28.238 185.29)">
                <g transform="matrix(38.618 0 0 38.618 14724 -13542)">
                    <g transform="matrix(.71436 0 0 .71436 -400.52 188.34)">
                        <path d="m1293.2-120.67c-181.75 0.2763-511.18 0.13525-699.05 0.13998-2.3216 10.413-3.593 21.251-3.593 32.384v114c207.65 0.73695 494.72 0.38136 706.23 0.3733v-114.37c0-11.18-1.2522-22.07-3.593-32.523zm-458.69 295.56c-78.385-4e-3 -158.85 0.17892-243.95 0.55995v138.63c286.34-0.39317 421.73-0.13827 706.23-0.32664v-137.75c-163.2-0.53005-311.22-1.1113-462.28-1.1199z" opacity="0" stroke-width="1.4932"/>
                    </g>
                </g>
            </g>
        </g>
        <path d="m24.549 1119.5c0.66325 0 1.1979-0.5346 1.1979-1.1979v-0.3333c0 0.6632-0.53461 1.1978-1.1979 1.1978h-20.354c-0.66325 0-1.1979-0.5346-1.1979-1.1978v0.3333c0 0.6633 0.53461 1.1979 1.1979 1.1979z" fill="#3e2723" opacity=".2"/>
    </g>
    <g>
        <path d="m12.168 7.2253-1.1582 1.3203c-0.07783 0.040472-0.16511 0.056138-0.25781 0.056641-0.16812-0.038974-0.3383-0.055009-0.50586-0.048828-0.0196-0.00139-0.03896-0.00324-0.05859-0.00391-0.31392-0.015104-0.57187 0.090401-0.79883 0.25391-0.00146 0.00105-0.00244 0.00285-0.00391 0.00391-0.20077 0.12238-0.37841 0.28824-0.51953 0.49609-0.011724 0.013059-0.023476 0.025968-0.035156 0.039063-0.13575 0.12111-0.2692 0.24423-0.34961 0.37695-0.037449 0.037864-0.074887 0.078244-0.11328 0.11328l0.039062 0.09375v0.00195c-0.00714 0.10229 0.026236 0.21091 0.12109 0.33203 0.065767 0.16277 0.16435 0.32522 0.14453 0.49023l-0.048828 0.13477c-0.00582 0.01021-0.00858 0.02101-0.015625 0.03125l-0.33789 0.96875c0.37277 1.4201 0.74694 2.8395 1.1191 4.2598 0.012217 0.0385 0.021722 0.07824 0.033203 0.11719 0.035947 0.13552 0.073085 0.27083 0.10938 0.40625 0.11286 0.4582 0.20945 0.92886 0.375 1.3652 0.073683 0.24066 0.18426 0.45234 0.32422 0.64258 0.0038 0.0052 0.0078 0.01043 0.01172 0.01563 0.06856 0.09971 0.14469 0.19619 0.23047 0.28711 0.04567 0.0406 0.09397 0.07783 0.14062 0.11719 0.22056 0.2024 0.46992 0.38112 0.72266 0.55274 0.07587 0.05151 0.15054 0.10371 0.22656 0.1543 0.02547 0.01725 0.05063 0.03558 0.07617 0.05273 0.04341 0.02891 0.08787 0.05702 0.13086 0.08594 0.01007 0.0067 0.01922 0.0148 0.0293 0.02148 0.09978 0.06739 0.19986 0.13402 0.29492 0.20312 0.44544 0.29157 0.88089 0.60061 1.3281 0.89062 0.21184 0.16084 0.42642 0.31813 0.6582 0.40234 0.02798 0.01564 0.05583 0.03155 0.08398 0.04688 0.07203 0.01391 0.1408 0.01684 0.20898 0.01367 0.06836 0.0032 0.13871 2.8e-4 0.21094-0.01367 0.02815-0.01533 0.05601-0.03124 0.08399-0.04688 0.23269-0.08454 0.44751-0.24281 0.66016-0.4043 0.44624-0.2895 0.88167-0.59771 1.3262-0.88867 0.08376-0.06089 0.17025-0.12022 0.25781-0.17969 0.10646-0.07053 0.21287-0.1411 0.31836-0.21289 0.06057-0.04037 0.11929-0.08399 0.17969-0.125 0.25288-0.1717 0.50198-0.35023 0.72266-0.55274 0.04665-0.03936 0.09496-0.07658 0.14063-0.11719 0.08676-0.09196 0.16325-0.19006 0.23242-0.29102 0.0029-0.0042 0.0069-0.0075 0.0098-0.01172 0.143-0.19436 0.25653-0.41103 0.33008-0.6582 2e-3 -0.0068 0.0059-0.01272 0.0078-0.01953 4e-3 -0.01078 0.0059-0.02238 0.0098-0.0332 0.14226-0.39473 0.23414-0.81426 0.33398-1.2266 0.04406-0.16409 0.08926-0.32795 0.13281-0.49219 0.01003-0.0337 0.01871-0.0682 0.0293-0.10156 0.37221-1.4203 0.74442-2.8396 1.1172-4.2598l-0.33789-0.96875c-8e-3 -0.01163-0.01115-0.02357-0.01758-0.03516l-0.04687-0.13086c-0.01982-0.16501 0.07876-0.32746 0.14453-0.49023 0.09486-0.12112 0.12823-0.22974 0.12109-0.33203-4.5e-5 -6.434e-4 4.8e-5 -0.00131 0-0.00195l0.03906-0.09375c-0.0378-0.034432-0.07458-0.074156-0.11139-0.11133-0.08025-0.13352-0.21512-0.25717-0.35156-0.37891-0.01168-0.013094-0.02343-0.026003-0.03516-0.039063-0.14112-0.20785-0.31876-0.37371-0.51953-0.49609-0.0015-0.00106-0.0024-0.00285-0.0039-0.00391-0.22696-0.16351-0.48491-0.26901-0.79883-0.25391-0.01963 6.713e-4 -0.03899 0.00252-0.05859 0.00391-0.16756-0.00618-0.33774 0.00985-0.50586 0.048828-0.09393-5.088e-4 -0.18114-0.014915-0.25977-0.056641l-1.1562-1.3203h-4.3984zm2.2051 2.1934c0.04437 0.00172 0.08908 0.00652 0.13281 0.011719 6.45e-4 8.2e-5 0.0013-8.27e-5 2e-3 0 0.0039 4.706e-4 0.0078 0.00146 0.01172 0.00195 0.2746 0.037068 0.54203 0.13567 0.80859 0.22266 0.02218 0.00751 0.04423 0.016093 0.06641 0.023437 0.14091 0.062202 0.2838 0.093622 0.42774 0.10742 0.0052 5.011e-4 0.0104 0.0015 0.01563 0.00195 0.02259 0.00334 0.04569 0.00343 0.06836 0.00586 0.16362 0.017565 0.32844 0.00954 0.49805-0.039063 0.25499-0.042372 0.51036-0.10917 0.76367-0.1582 0.14832-0.00405 0.28712 0.017535 0.4082 0.085938 7.63e-4 4.313e-4 0.0012 0.00152 2e-3 0.00195 0.1433 0.17809 0.28398 0.35818 0.42383 0.53906 0.0981 0.13219 0.19686 0.26477 0.29883 0.39648 0.15986 0.21675 0.3165 0.43525 0.46484 0.66016 0.0066 0.0064 0.01128 0.01312 0.01758 0.01953 0.10393 0.17086 0.19367 0.34879 0.26172 0.53711 0.01034 0.13023-0.0114 0.26096-0.05859 0.38672-0.11053 0.24762-0.30124 0.45298-0.50977 0.65039-0.02075 0.0162-0.03924 0.03553-0.06055 0.05078-0.0037 0.0059-0.0079 0.01173-0.01172 0.01758-0.23792 0.22014-0.48772 0.43396-0.66016 0.6875-0.61658 0.381-0.59084 0.99367-0.29297 1.5742 0.06648 0.5057-0.31983 1.0722-0.8125 1.1953-0.39199 0.01609-0.82986-0.28768-1.168-0.47461-0.3044-0.28627-1.2833-0.78723-0.66797-1.2168 0.39383-0.41097 1.2926-0.53346 1.334-1.1484-0.13672-0.51845-0.85024-1.0567-0.48438-1.5996 0.49858-0.35054 1.117-0.4691 1.6699-0.71289 0.33567-0.09308 0.34568-0.15526 0.22852-0.19922-0.0036-2e-3 -0.01115-4e-3 -0.01563-0.0059-0.01388-0.0046-0.02633-0.0095-0.04297-0.01367-0.0021-4.81e-4 -0.0056-0.0015-0.0078-2e-3 -0.19396-0.04642-0.53409-0.06507-0.69336-0.07422-0.0052-3e-4 -0.01668-0.0017-0.02148-2e-3 -0.14564-0.01-0.2939-8e-3 -0.44336 0.0039-0.0078 6.18e-4 -0.01564 0.0013-0.02344 2e-3 -0.3016 0.02208-0.60022 0.08368-0.88867 0.19336-0.17943 0.02916-0.28955 0.09822-0.35547 0.19141-0.0049 0.0029-0.01073 0.0049-0.01563 0.0078-1.77e-4 0.0059 1.34e-4 0.01171 0 0.01758-0.22751 0.3839 0.23942 1.1515 0.19922 1.5898 0.15453 0.39101 0.14905 0.83094-0.19531 0.95898-0.01612 0.0055-0.03196 0.01087-0.04883 0.01563-0.07978 0.02104-0.17405 0.02768-0.28711 0.01563-0.09113 0.01263-0.2106 0.02432-0.33789 0.03125-0.12711-0.0069-0.24688-0.01863-0.33789-0.03125-0.11135 0.01187-0.20416 0.0047-0.2832-0.01563-0.0178-5e-3 -0.03576-0.0098-0.05273-0.01563-0.34436-0.12804-0.34789-0.56797-0.19336-0.95898-0.0402-0.43839 0.42478-1.2059 0.19727-1.5898-1.34e-4 -0.0059 1.77e-4 -0.01171 0-0.01758-0.0049-3e-3 -0.01066-0.0049-0.01563-0.0078-0.06592-0.09318-0.17604-0.16224-0.35547-0.19141-0.28839-0.10965-0.58518-0.17127-0.88672-0.19336-0.0078-6.8e-4 -0.0156-0.0013-0.02344-2e-3 -0.14947-0.01186-0.29966-0.01388-0.44531-0.0039-0.0048 2.8e-4 -0.01625 0.0017-0.02148 2e-3 -0.15917 0.0091-0.49737 0.02787-0.69141 0.07422-0.02037 0.0043-0.03362 0.01041-0.04687 0.01563-0.0059 0.0023-0.01494 0.0034-0.01953 0.0059-0.11842 0.04397-0.11019 0.10584 0.22656 0.19922 0.55294 0.2438 1.1713 0.36235 1.6699 0.71289 0.36586 0.54289-0.34766 1.0812-0.48438 1.5996 0.04141 0.61497 0.94015 0.73746 1.334 1.1484 0.61536 0.42957-0.36356 0.93052-0.66797 1.2168-0.33811 0.18693-0.77403 0.4907-1.166 0.47461-0.49305-0.12275-0.88097-0.68935-0.81445-1.1953 0.29787-0.58055 0.32556-1.1932-0.29102-1.5742-0.17334-0.25488-0.42502-0.47004-0.66406-0.69141-3e-3 -0.0047-0.0068-9e-3 -0.0098-0.01367-0.01571-0.01125-0.02951-0.02534-0.04492-0.03711-0.21175-0.19937-0.4079-0.40659-0.52148-0.65625-0.048741-0.12693-0.072297-0.25898-0.0625-0.39062 0.068638-0.19097 0.15819-0.37188 0.26367-0.54492 0.00533-0.0054 0.010122-0.01027 0.015625-0.01563 0.12832-0.19455 0.26323-0.38396 0.40039-0.57227 0.1444-0.18815 0.28905-0.37542 0.42578-0.56445 0.01083-0.01497 0.02252-0.02991 0.0332-0.04492 0.10857-0.13879 0.21769-0.27682 0.32812-0.41406 7.62e-4 -4.35e-4 0.0012-0.00152 2e-3 -0.00195 0.12163-0.06871 0.26108-0.090252 0.41016-0.085938 0.25263 0.048912 0.50742 0.11583 0.76172 0.1582 0.1694 0.048635 0.33463 0.05648 0.49805 0.039063 0.0235-0.00104 0.04687-0.00382 0.07031-0.00586 0.0046-6.857e-4 0.0091-0.00123 0.01367-0.00195 0.14394-0.0138 0.28683-0.045219 0.42773-0.10742 0.0144-0.00477 0.02857-0.01078 0.04297-0.015625 0.27162-0.087737 0.54266-0.18919 0.82227-0.22852 0.05196-0.00731 0.10366-0.013279 0.15625-0.015625zm0 6.7129c0.16708 0.04378 0.33233 0.09785 0.49414 0.16016 0.08889 0.03514 0.17864 0.06933 0.26562 0.10938 0.12225 0.05628 0.24163 0.11591 0.36133 0.17773l0.0078 0.0039c0.25394 0.1313 0.50003 0.27408 0.73828 0.42188 0.01603 0.05333 0.0053 0.1097-0.02734 0.16797-0.0012 0.0015-7.07e-4 0.0043-2e-3 0.0059-0.139 0.17043-0.31991 0.3164-0.51172 0.45508-0.03616 0.02545-0.0705 0.0527-0.10352 0.07617-0.02869 0.02024-0.05715 0.04035-0.08594 0.06055-0.19793 0.13889-0.39492 0.27679-0.55859 0.4375-0.01655 0.02548-0.03411 0.04403-0.05078 0.06641-0.17383 0.14-0.34977 0.25516-0.52539 0.2793-0.17589-0.02352-0.35323-0.13723-0.52734-0.27734-0.01698-0.02274-0.03392-0.0424-0.05078-0.06836-0.16368-0.16071-0.36262-0.29861-0.56055-0.4375-0.02365-0.01761-0.05893-0.04134-0.08594-0.06055-0.03516-0.0248-0.06884-0.0511-0.10352-0.07617-0.19181-0.13868-0.37272-0.28465-0.51172-0.45508-0.0011-0.0019-8.97e-4 -4e-3 -2e-3 -0.0059-0.03263-0.05827-0.04338-0.11464-0.02734-0.16797 0.24063-0.14927 0.48947-0.29344 0.74609-0.42578 0.0013-6.68e-4 0.0026-0.0013 0.0039-2e-3 0.11791-0.06086 0.23704-0.12032 0.35742-0.17578 0.08468-0.03762 0.17159-0.07207 0.25781-0.10547 0.16495-0.06389 0.33152-0.1194 0.50195-0.16406z" fill="#fff" stroke-width=".10859"/>
    </g>
    <g display="none" fill="none">
        <rect transform="rotate(90)" x="7.8232" y="-20.923" width="13.1" height="13.1" display="inline" stroke="#000" stroke-width=".070382"/>
        <rect x="7.2241" y="8.6528" width="14.298" height="11.441" stroke="#5261ff" stroke-linecap="round" stroke-linejoin="round" stroke-width=".06959"/>
        <rect transform="rotate(90)" x="7.2241" y="-20.094" width="14.298" height="11.441" display="inline" stroke="#0f0" stroke-linecap="round" stroke-linejoin="round" stroke-width=".06959"/>
    </g>
</svg>
