<?xml version="1.0" encoding="UTF-8"?>
<svg version="1.1" viewBox="0 0 28.747 28.747" xmlns="http://www.w3.org/2000/svg">
    <defs>
        <filter id="filter6206-7" color-interpolation-filters="sRGB">
            <feGaussianBlur stdDeviation="0.658125"/>
        </filter>
    </defs>
    <g transform="translate(0 -1093.8)">
        <path transform="matrix(1.0781 0 0 1.0641 -.093733 2.7509)" d="m4.4177 1028.2v1.6051h-1.6052v18.192h1.6052v2.1402h18.192v-2.1402h2.1402v-18.192h-2.1402v-1.6051z" fill="#263238" filter="url(#filter6206-7)" opacity=".2"/>
        <rect x="2.9987" y="1096.8" width="22.749" height="22.749" rx="1.1973" ry="1.1974" fill="#8bc34a"/>
        <g transform="translate(-22.32 1056.5)">
            <path d="m0 0h51.2v51.2h-51.2z" fill="none" stroke-width="1.0667"/>
            <g transform="matrix(.33601 0 0 .33601 1.5296 73.043)">
                <path d="m0 0h51.2v51.2h-51.2z" fill="none" stroke-width="1.0667"/>
            </g>
            <g transform="matrix(.37187 0 0 .37187 38.802 63.239)">
                <path d="m0 0h51.2v51.2h-51.2z" fill="none" stroke-width="1.0667"/>
                <g transform="matrix(2.6891 0 0 2.6891 -82.906 -48.45)">
                    <path d="m0 0h51.2v51.2h-51.2z" fill="none" stroke-width="1.0667"/>
                </g>
            </g>
        </g>
        <path d="m4.1958 1096.8c-0.66332 0-1.1979 0.5346-1.1979 1.1979v0.3334c0-0.6634 0.53459-1.1979 1.1979-1.1979h20.354c0.66332 0 1.1979 0.5345 1.1979 1.1979v-0.3334c0-0.6633-0.5346-1.1979-1.1979-1.1979z" fill="#fff" opacity=".2"/>
        <rect x="128" y="546.52" width="42.667" height="42.667" fill="none" stroke-width="1.0667"/>
        <rect x="128" y="631.85" width="42.667" height="42.667" fill="none" stroke-width="1.0667"/>
        <rect x="128" y="674.52" width="42.667" height="42.667" fill="none" stroke-width="1.0667"/>
        <rect x="128" y="589.19" width="42.667" height="42.667" fill="none" stroke-width="1.0667"/>
        <rect x="128" y="717.19" width="42.667" height="42.667" fill="none" stroke-width="1.0667"/>
        <rect x="213.33" y="546.52" width="42.667" height="42.667" fill="none" stroke-width="1.0667"/>
        <rect x="213.33" y="631.85" width="42.667" height="42.667" fill="none" stroke-width="1.0667"/>
        <rect x="213.33" y="674.52" width="42.667" height="42.667" fill="none" stroke-width="1.0667"/>
        <rect x="213.33" y="589.19" width="42.667" height="42.667" fill="none" stroke-width="1.0667"/>
        <rect x="213.33" y="717.19" width="42.667" height="42.667" fill="none" stroke-width="1.0667"/>
        <rect x="298.67" y="546.52" width="42.667" height="42.667" fill="none" stroke-width="1.0667"/>
        <rect x="298.67" y="631.85" width="42.667" height="42.667" fill="none" stroke-width="1.0667"/>
        <rect x="298.67" y="674.52" width="42.667" height="42.667" fill="none" stroke-width="1.0667"/>
        <rect x="298.67" y="589.19" width="42.667" height="42.667" fill="none" stroke-width="1.0667"/>
        <rect x="298.67" y="717.19" width="42.667" height="42.667" fill="none" stroke-width="1.0667"/>
        <rect x="170.67" y="546.52" width="42.667" height="42.667" fill="none" stroke-width="1.0667"/>
        <rect x="170.67" y="631.85" width="42.667" height="42.667" fill="none" stroke-width="1.0667"/>
        <rect x="170.67" y="674.52" width="42.667" height="42.667" fill="none" stroke-width="1.0667"/>
        <rect x="170.67" y="589.19" width="42.667" height="42.667" fill="none" stroke-width="1.0667"/>
        <rect x="170.67" y="717.19" width="42.667" height="42.667" fill="none" stroke-width="1.0667"/>
        <rect x="256" y="546.52" width="42.667" height="42.667" fill="none" stroke-width="1.0667"/>
        <rect x="256" y="631.85" width="42.667" height="42.667" fill="none" stroke-width="1.0667"/>
        <rect x="256" y="674.52" width="42.667" height="42.667" fill="none" stroke-width="1.0667"/>
        <rect x="256" y="589.19" width="42.667" height="42.667" fill="none" stroke-width="1.0667"/>
        <rect x="256" y="717.19" width="42.667" height="42.667" fill="none" stroke-width="1.0667"/>
        <rect x="128" y="759.85" width="42.667" height="42.667" fill="none" stroke-width="1.0667"/>
        <rect x="213.33" y="759.85" width="42.667" height="42.667" fill="none" stroke-width="1.0667"/>
        <rect x="298.67" y="759.85" width="42.667" height="42.667" fill="none" stroke-width="1.0667"/>
        <rect x="170.67" y="759.85" width="42.667" height="42.667" fill="none" stroke-width="1.0667"/>
        <rect x="256" y="759.85" width="42.667" height="42.667" fill="none" stroke-width="1.0667"/>
        <rect x="341.33" y="589.19" width="42.667" height="42.667" fill="none" stroke-width="1.0667"/>
        <rect x="341.33" y="631.85" width="42.667" height="42.667" fill="none" stroke-width="1.0667"/>
        <rect x="341.33" y="717.19" width="42.667" height="42.667" fill="none" stroke-width="1.0667"/>
        <rect x="341.33" y="546.52" width="42.667" height="42.667" fill="none" stroke-width="1.0667"/>
        <rect x="341.33" y="674.52" width="42.667" height="42.667" fill="none" stroke-width="1.0667"/>
        <rect x="341.33" y="759.85" width="42.667" height="42.667" fill="none" stroke-width="1.0667"/>
        <rect x="160" y="578.52" width="192" height="192" fill="none" stroke-width="1.0667"/>
        <g transform="matrix(.37344 0 0 .37344 4.7333 1097.4)">
            <path d="m0 0h51.2v51.2h-51.2z" fill="none" stroke-width="1.0667"/>
        </g>
        <g transform="matrix(.36471 0 0 .36471 5.1356 1097.4)">
            <path d="m0 0h51.2v51.2h-51.2z" fill="none" stroke-width="1.0667"/>
        </g>
        <g transform="matrix(.41585 0 0 .41585 84.325 1055.9)">
            <g transform="matrix(.062269 0 0 .062269 -28.238 185.29)">
                <g transform="matrix(38.618 0 0 38.618 14724 -13542)">
                    <g transform="matrix(.71436 0 0 .71436 -400.52 188.34)">
                        <path d="m1293.2-120.67c-181.75 0.2763-511.18 0.13525-699.05 0.13998-2.3216 10.413-3.593 21.251-3.593 32.384v114c207.65 0.73695 494.72 0.38136 706.23 0.3733v-114.37c0-11.18-1.2522-22.07-3.593-32.523zm-458.69 295.56c-78.385-4e-3 -158.85 0.17892-243.95 0.55995v138.63c286.34-0.39317 421.73-0.13827 706.23-0.32664v-137.75c-163.2-0.53005-311.22-1.1113-462.28-1.1199z" opacity="0" stroke-width="1.4932"/>
                    </g>
                </g>
            </g>
        </g>
        <path d="m24.549 1119.5c0.66325 0 1.1979-0.5346 1.1979-1.1979v-0.3333c0 0.6632-0.53461 1.1978-1.1979 1.1978h-20.354c-0.66325 0-1.1979-0.5346-1.1979-1.1978v0.3333c0 0.6633 0.53461 1.1979 1.1979 1.1979z" fill="#263238" opacity=".2"/>
    </g>
    <flowRoot transform="matrix(.041503 0 0 .041503 61.256 14.174)" fill="#ffffff" font-family="Roboto" font-size="12.8px" letter-spacing="0px" stroke-width="1.0667px" word-spacing="0px" style="line-height:0.01%" xml:space="preserve"><flowRegion><rect x="11.375" y="11.984" width="4.7893" height="5.388" fill="#fff" stroke-width="1.1378px"/></flowRegion><flowPara font-size="4px" style="line-height:1.25">your</flowPara></flowRoot>
    <g transform="translate(634.29 -.30935)">
        <path d="m-623.27 21.121c-0.24419-0.12902-0.359-0.24312-0.47667-0.47368-0.10056-0.19696-0.10456-0.35948-0.091-3.6523l0.0143-3.4462 1.2135-0.01494c0.93387-0.0115 1.2238 0.0013 1.2581 0.05533 0.0686 0.10812 0.0569 6.6151-0.0124 6.8645-0.0723 0.2601-0.3524 0.5858-0.58891 0.68462-0.25485 0.10647-1.1037 0.09527-1.3169-0.01739zm5.2789-0.06409c-0.41855-0.26806-0.4988-0.50216-0.48-1.4003l0.0154-0.74001h2.4902l0.0156 0.7153c0.0146 0.6684 6e-3 0.73372-0.12301 0.99608-0.21949 0.44468-0.42933 0.55378-1.1057 0.5748-0.53697 0.01669-0.56712 0.01128-0.81254-0.1459zm-7.8841-2.5496c-0.12414-0.05638-0.27736-0.16818-0.3405-0.24845-0.16294-0.20714-0.25456-0.64924-0.22377-1.0797 0.0358-0.50032 0.16321-0.7489 0.47897-0.93453 0.23543-0.1384 0.31159-0.15183 0.96264-0.16972 0.50128-0.01377 0.73072 2.9e-4 0.78856 0.04828 0.067 0.05559 0.0815 0.26872 0.0815 1.1908 0 0.61772-0.0151 1.1625-0.0336 1.2107-0.0529 0.13788-1.4022 0.12417-1.7139-0.01741zm4.8484-0.0022c-0.0339-0.06328-0.0572-0.54801-0.0572-1.1858 0-0.90692 0.0138-1.0926 0.087-1.1657l6.901-0.02829c0.28659 0.07958 0.56129 0.33545 0.63916 0.59532 0.0827 0.27608 0.0839 0.98815 2e-3 1.2331-0.0805 0.24062-0.30302 0.48506-0.53024 0.58228-0.14476 0.06194-0.81461 0.07619-3.5812 0.07619-3.3079 0-3.4047-3e-3 -3.4604-0.10704zm2.5815-2.7511c-0.0298-2.4468-0.1151-4.4312 0.0383-7.0077 0.0972-0.22722 0.34167-0.44982 0.58229-0.53024 0.24493-0.081859 0.957-0.080693 1.2331 0.00205 0.26289 0.07876 0.51821 0.35578 0.59675 0.64746 0.0384 0.14235 0.0532 1.3525 0.0439 3.5562l-0.0143 3.3404-2.4799-0.0082zm-7.3975-2.5976c-0.29094-0.1265-0.43634-0.29112-0.5271-0.59676-0.17-0.57247-0.0725-1.258 0.22064-1.5511 0.30806-0.30807 0.32959-0.30976 3.9442-0.30976 2.7524 0 3.3317 0.01305 3.3842 0.07619 0.0442 0.05319 0.0588 0.43315 0.0483 1.2589l-0.0149 1.1827-3.4309 0.01189c-2.9649 0.01026-3.4572 4.74e-4 -3.6242-0.07215zm10.219 0.05103c-0.0203-0.02029-0.0369-0.57792-0.0369-1.2392 0-1.0453 0.0115-1.2067 0.0875-1.2359 0.14556-0.05586 1.2536-0.03705 1.4773 0.02508 0.28659 0.07958 0.56129 0.33545 0.63916 0.59532 0.0827 0.27628 0.0838 0.98833 2e-3 1.2331-0.0847 0.25265-0.25118 0.43072-0.51805 0.55389-0.17748 0.08191-0.35937 0.1024-0.91768 0.10338-0.38299 6.83e-4 -0.71294-0.01538-0.73323-0.03567zm-8.19-2.8222c-0.0203-0.0203-0.0368-0.37296-0.0368-0.7837 0-0.70324 9e-3 -0.76105 0.14301-0.99082 0.1967-0.33567 0.48911-0.45744 1.0984-0.45744 0.25163 0 0.54217 0.027261 0.64563 0.060582 0.25466 0.082021 0.52263 0.38969 0.59714 0.6856 0.0648 0.25743 0.0847 1.2867 0.0278 1.4351-0.0292 0.0761-0.1906 0.08753-1.2359 0.08753-0.66126 0-1.2189-0.0166-1.2392-0.03689z" fill="#fff" stroke-width=".055338"/>
    </g>
    <g display="none" fill="none">
        <rect transform="rotate(90)" x="7.8232" y="-20.923" width="13.1" height="13.1" display="inline" stroke="#000" stroke-width=".070382"/>
        <rect x="7.2241" y="8.6528" width="14.298" height="11.441" stroke="#5261ff" stroke-linecap="round" stroke-linejoin="round" stroke-width=".069589"/>
        <rect transform="rotate(90)" x="7.2241" y="-20.094" width="14.298" height="11.441" display="inline" stroke="#0f0" stroke-linecap="round" stroke-linejoin="round" stroke-width=".069589"/>
    </g>
</svg>
