<?xml version="1.0" encoding="UTF-8"?>
<svg version="1.1" viewBox="0 0 28.747 28.747" xmlns="http://www.w3.org/2000/svg" xmlns:xlink="http://www.w3.org/1999/xlink">
    <defs>
        <filter id="filter6206-7" x="-.072" y="-.072" width="1.144" height="1.144" color-interpolation-filters="sRGB">
            <feGaussianBlur stdDeviation="0.658125"/>
        </filter>
    </defs>
    <g transform="translate(0 -1093.8)">
        <path transform="matrix(1.0781 0 0 1.0641 -.093733 2.7509)" d="m4.4177 1028.2v1.6051h-1.6052v18.192h1.6052v2.1402h18.192v-2.1402h2.1402v-18.192h-2.1402v-1.6051z" fill="#263238" filter="url(#filter6206-7)" opacity=".2"/>
        <rect x="2.9987" y="1096.8" width="22.749" height="22.749" rx="1.1973" ry="1.1974" fill="#4caf50"/>
        <g transform="translate(-22.32 1056.5)">
            <path d="m0 0h51.2v51.2h-51.2z" fill="none" stroke-width="1.0667"/>
            <g transform="matrix(.33601 0 0 .33601 1.5296 73.043)">
                <path d="m0 0h51.2v51.2h-51.2z" fill="none" stroke-width="1.0667"/>
            </g>
            <g transform="matrix(.37187 0 0 .37187 38.802 63.239)">
                <path d="m0 0h51.2v51.2h-51.2z" fill="none" stroke-width="1.0667"/>
                <g transform="matrix(2.6891 0 0 2.6891 -82.906 -48.45)">
                    <path d="m0 0h51.2v51.2h-51.2z" fill="none" stroke-width="1.0667"/>
                </g>
            </g>
        </g>
        <path d="m4.1958 1096.8c-0.66332 0-1.1979 0.5346-1.1979 1.1979v0.3334c0-0.6634 0.53459-1.1979 1.1979-1.1979h20.354c0.66332 0 1.1979 0.5345 1.1979 1.1979v-0.3334c0-0.6633-0.5346-1.1979-1.1979-1.1979z" fill="#fff" opacity=".2"/>
        <rect x="128" y="546.52" width="42.667" height="42.667" fill="none" stroke-width="1.0667"/>
        <rect x="128" y="631.85" width="42.667" height="42.667" fill="none" stroke-width="1.0667"/>
        <rect x="128" y="674.52" width="42.667" height="42.667" fill="none" stroke-width="1.0667"/>
        <rect x="128" y="589.19" width="42.667" height="42.667" fill="none" stroke-width="1.0667"/>
        <rect x="128" y="717.19" width="42.667" height="42.667" fill="none" stroke-width="1.0667"/>
        <rect x="213.33" y="546.52" width="42.667" height="42.667" fill="none" stroke-width="1.0667"/>
        <rect x="213.33" y="631.85" width="42.667" height="42.667" fill="none" stroke-width="1.0667"/>
        <rect x="213.33" y="674.52" width="42.667" height="42.667" fill="none" stroke-width="1.0667"/>
        <rect x="213.33" y="589.19" width="42.667" height="42.667" fill="none" stroke-width="1.0667"/>
        <rect x="213.33" y="717.19" width="42.667" height="42.667" fill="none" stroke-width="1.0667"/>
        <rect x="298.67" y="546.52" width="42.667" height="42.667" fill="none" stroke-width="1.0667"/>
        <rect x="298.67" y="631.85" width="42.667" height="42.667" fill="none" stroke-width="1.0667"/>
        <rect x="298.67" y="674.52" width="42.667" height="42.667" fill="none" stroke-width="1.0667"/>
        <rect x="298.67" y="589.19" width="42.667" height="42.667" fill="none" stroke-width="1.0667"/>
        <rect x="298.67" y="717.19" width="42.667" height="42.667" fill="none" stroke-width="1.0667"/>
        <rect x="170.67" y="546.52" width="42.667" height="42.667" fill="none" stroke-width="1.0667"/>
        <rect x="170.67" y="631.85" width="42.667" height="42.667" fill="none" stroke-width="1.0667"/>
        <rect x="170.67" y="674.52" width="42.667" height="42.667" fill="none" stroke-width="1.0667"/>
        <rect x="170.67" y="589.19" width="42.667" height="42.667" fill="none" stroke-width="1.0667"/>
        <rect x="170.67" y="717.19" width="42.667" height="42.667" fill="none" stroke-width="1.0667"/>
        <rect x="256" y="546.52" width="42.667" height="42.667" fill="none" stroke-width="1.0667"/>
        <rect x="256" y="631.85" width="42.667" height="42.667" fill="none" stroke-width="1.0667"/>
        <rect x="256" y="674.52" width="42.667" height="42.667" fill="none" stroke-width="1.0667"/>
        <rect x="256" y="589.19" width="42.667" height="42.667" fill="none" stroke-width="1.0667"/>
        <rect x="256" y="717.19" width="42.667" height="42.667" fill="none" stroke-width="1.0667"/>
        <rect x="128" y="759.85" width="42.667" height="42.667" fill="none" stroke-width="1.0667"/>
        <rect x="213.33" y="759.85" width="42.667" height="42.667" fill="none" stroke-width="1.0667"/>
        <rect x="298.67" y="759.85" width="42.667" height="42.667" fill="none" stroke-width="1.0667"/>
        <rect x="170.67" y="759.85" width="42.667" height="42.667" fill="none" stroke-width="1.0667"/>
        <rect x="256" y="759.85" width="42.667" height="42.667" fill="none" stroke-width="1.0667"/>
        <rect x="341.33" y="589.19" width="42.667" height="42.667" fill="none" stroke-width="1.0667"/>
        <rect x="341.33" y="631.85" width="42.667" height="42.667" fill="none" stroke-width="1.0667"/>
        <rect x="341.33" y="717.19" width="42.667" height="42.667" fill="none" stroke-width="1.0667"/>
        <rect x="341.33" y="546.52" width="42.667" height="42.667" fill="none" stroke-width="1.0667"/>
        <rect x="341.33" y="674.52" width="42.667" height="42.667" fill="none" stroke-width="1.0667"/>
        <rect x="341.33" y="759.85" width="42.667" height="42.667" fill="none" stroke-width="1.0667"/>
        <rect x="160" y="578.52" width="192" height="192" fill="none" stroke-width="1.0667"/>
        <g transform="matrix(.37344 0 0 .37344 4.7333 1097.4)">
            <path d="m0 0h51.2v51.2h-51.2z" fill="none" stroke-width="1.0667"/>
        </g>
        <g transform="matrix(.36471 0 0 .36471 5.1356 1097.4)">
            <path d="m0 0h51.2v51.2h-51.2z" fill="none" stroke-width="1.0667"/>
        </g>
        <g transform="matrix(.41585 0 0 .41585 84.325 1055.9)">
            <g transform="matrix(.062269 0 0 .062269 -28.238 185.29)">
                <g transform="matrix(38.618 0 0 38.618 14724 -13542)">
                    <g transform="matrix(.71436 0 0 .71436 -400.52 188.34)">
                        <path d="m1293.2-120.67c-181.75 0.2763-511.18 0.13525-699.05 0.13998-2.3216 10.413-3.593 21.251-3.593 32.384v114c207.65 0.73695 494.72 0.38136 706.23 0.3733v-114.37c0-11.18-1.2522-22.07-3.593-32.523zm-458.69 295.56c-78.385-4e-3 -158.85 0.17892-243.95 0.55995v138.63c286.34-0.39317 421.73-0.13827 706.23-0.32664v-137.75c-163.2-0.53005-311.22-1.1113-462.28-1.1199z" opacity="0" stroke-width="1.4932"/>
                    </g>
                </g>
            </g>
        </g>
        <path d="m24.549 1119.5c0.66325 0 1.1979-0.5346 1.1979-1.1979v-0.3333c0 0.6632-0.53461 1.1978-1.1979 1.1978h-20.354c-0.66325 0-1.1979-0.5346-1.1979-1.1978v0.3333c0 0.6633 0.53461 1.1979 1.1979 1.1979z" fill="#263238" opacity=".2"/>
    </g>
    <g>
        <path d="m13.635 21.103c-0.03986-0.76765-0.77677-1.0095-0.97113-0.31876-0.1026 0.36467-0.16487 0.41941-0.32544 0.28616-0.11722-0.09726-0.12594-0.09103-0.07908 0.05657 0.03389 0.10676 0.0086 0.20244-0.0709 0.26842-0.16654 0.13823-0.28748 0.01169-0.39182-0.41017-0.10311-0.4168-0.72156-0.63515-1.2325-0.43517-0.2654 0.10388-0.31124 0.09744-0.71058-0.09987l-0.42688-0.21089-0.051509-0.94157c-0.059719-1.0916-0.14781-0.87282 1.0633-2.6409 1.5867-2.3164 3.0228-4.4763 3.1728-4.7718 0.08684-0.17101 0.26647-0.4197 0.39922-0.55268 0.22069-0.22108 0.98243-1.3248 0.98243-1.4235 0-0.071525-0.93555-0.046175-0.98051 0.026668-0.02337 0.037726-0.18743 0.091782-0.36469 0.12013-0.2736 0.04375-0.33978 0.09337-0.438 0.32845-0.06364 0.15231-0.20361 0.35336-0.31108 0.44679-0.10745 0.09343-0.19537 0.23019-0.19537 0.30388 0 0.54159-0.29746 0.30449-0.36376-0.28997-0.06299-0.56477-0.22045-0.97787-0.3727-0.97787-0.06209 0-0.15596 0.11545-0.20861 0.25659-0.25653 0.6876-0.23208 0.65727-0.37063 0.45944-0.12375-0.17667-0.12375-0.17667-0.21562 0.0075-0.13526 0.2713-0.31937 0.23315-0.34882-0.0723-0.05217-0.5412-0.33055-0.33325-0.33055 0.24694 0 0.35126-0.03581 0.53325-0.11842 0.60182-0.20726 0.17203-0.33704-0.02637-0.29686-0.45403 0.03143-0.33444 0.01528-0.38352-0.14907-0.45394-0.42852-0.18357-0.52246-1.9744-0.13082-2.494 0.14437-0.19156 0.32514-0.44601 0.40171-0.56543 0.13921-0.21712 0.13921-0.21712 4.43-0.21712h4.2908l0.04893 0.29608c0.17667 1.0688 0.07983 1.5776-0.45302 2.3799-0.27702 0.41716-0.58677 0.96565-0.6883 1.2189-0.10152 0.25323-0.24793 0.4943-0.32532 0.53572-0.07739 0.04142-0.14071 0.12816-0.14071 0.19273 0 0.06458-0.1465 0.27633-0.32553 0.47057-0.40457 0.43891-0.57107 1.0344-0.57811 2.0675-0.0048 0.72091-0.08744 0.97182-0.28041 0.85256-0.0548-0.03389-0.08351-0.20625-0.07051-0.42342 0.02577-0.43251-0.07716-1.1953-0.16148-1.1953-0.07473 0-0.47778 0.73504-0.48207 0.87918-0.0018 0.05927-0.10835 0.23076-0.23687 0.3811-0.12852 0.15033-0.23366 0.32977-0.23366 0.39872 0 0.06895-0.03752 0.16289-0.08339 0.20876-0.04587 0.04587-0.09028 0.41329-0.0987 0.81651-0.01258 0.597-0.04054 0.74904-0.15129 0.81886-0.21925 0.13823-0.33201-0.05271-0.32053-0.54278 0.0057-0.23861-0.01528-0.43381-0.04657-0.43381-0.08566 0-0.89694 1.1923-0.84597 1.2433 0.02427 0.02427 1.3554 0.06149 2.9578 0.08252l2.9135 0.03823 0.05564 0.89058c0.067 1.0723 0.04566 1.1552-0.4215 1.637-0.35274 0.36383-0.36698 0.39675-0.37558 0.86849-0.01258 0.68584-0.01289 0.68771-0.18377 0.68771-0.20595 0-0.27397-0.13112-0.25293-0.48761 0.04387-0.74336-0.31386-0.94391-0.74506-0.41768-0.32616 0.39804-0.40254 0.40723-0.58823 0.07084-0.19798-0.35868-0.75606-0.38332-0.8762-0.03869-0.04629 0.13283-0.11626 0.24151-0.15542 0.24151-0.03916 0-0.09736 0.0045-0.12927 0.01019-0.03191 0.0057-0.11455-0.09205-0.18362-0.21712-0.15045-0.27244-0.4381-0.33838-0.58897-0.13505-0.09064 0.12214-0.13223 0.12924-0.26887 0.04582-0.33429-0.20409-0.55246-0.0072-0.63311 0.57138-0.07494 0.53753-0.30646 0.47365-0.33586-0.09265zm3.2661 0.19941c0.01439-0.10158 0.07944-0.18467 0.14458-0.18467 0.17125 0 0.14764 0.30802-0.02607 0.3415-0.11213 0.02157-0.13871-0.01349-0.11842-0.15683zm-5.535-8.2318c-0.08758-0.10553-0.02277-0.75758 0.12528-1.2576 0.07479-0.25287 0.19-0.02427 0.26905 0.53401 0.09969 0.70393-0.1026 1.0751-0.39435 0.72359z" fill="#fff"/>
    </g>
    <g display="none" fill="none">
        <rect transform="rotate(90)" x="7.8232" y="-20.923" width="13.1" height="13.1" display="inline" stroke="#000" stroke-width=".070382"/>
        <rect x="7.2241" y="8.6528" width="14.298" height="11.441" stroke="#5261ff" stroke-linecap="round" stroke-linejoin="round" stroke-width=".06959"/>
        <rect transform="rotate(90)" x="7.2241" y="-20.094" width="14.298" height="11.441" display="inline" stroke="#0f0" stroke-linecap="round" stroke-linejoin="round" stroke-width=".06959"/>
    </g>
</svg>
