<?xml version="1.0" encoding="UTF-8"?>
<svg version="1.1" viewBox="0 0 28.747 28.747" xmlns="http://www.w3.org/2000/svg">
    <defs>
        <filter id="filter6206-7" color-interpolation-filters="sRGB">
            <feGaussianBlur stdDeviation="0.658125"/>
        </filter>
    </defs>
    <g transform="translate(0 -1093.8)">
        <path transform="matrix(1.0781 0 0 1.0641 -.093733 2.7509)" d="m4.4177 1028.2v1.6051h-1.6052v18.192h1.6052v2.1402h18.192v-2.1402h2.1402v-18.192h-2.1402v-1.6051z" fill="#1a237e" filter="url(#filter6206-7)" opacity=".2"/>
        <rect x="2.9987" y="1096.8" width="22.749" height="22.749" rx="1.1973" ry="1.1974" fill="#2196f3"/>
        <g transform="translate(-22.32 1056.5)">
            <path d="m0 0h51.2v51.2h-51.2z" fill="none" stroke-width="1.0667"/>
            <g transform="matrix(.33601 0 0 .33601 1.5296 73.043)">
                <path d="m0 0h51.2v51.2h-51.2z" fill="none" stroke-width="1.0667"/>
            </g>
            <g transform="matrix(.37187 0 0 .37187 38.802 63.239)">
                <path d="m0 0h51.2v51.2h-51.2z" fill="none" stroke-width="1.0667"/>
                <g transform="matrix(2.6891 0 0 2.6891 -82.906 -48.45)">
                    <path d="m0 0h51.2v51.2h-51.2z" fill="none" stroke-width="1.0667"/>
                </g>
            </g>
        </g>
        <path d="m4.1958 1096.8c-0.66332 0-1.1979 0.5346-1.1979 1.1979v0.3334c0-0.6634 0.53459-1.1979 1.1979-1.1979h20.354c0.66332 0 1.1979 0.5345 1.1979 1.1979v-0.3334c0-0.6633-0.5346-1.1979-1.1979-1.1979z" fill="#fff" opacity=".2"/>
        <rect x="128" y="546.52" width="42.667" height="42.667" fill="none" stroke-width="1.0667"/>
        <rect x="128" y="631.85" width="42.667" height="42.667" fill="none" stroke-width="1.0667"/>
        <rect x="128" y="674.52" width="42.667" height="42.667" fill="none" stroke-width="1.0667"/>
        <rect x="128" y="589.19" width="42.667" height="42.667" fill="none" stroke-width="1.0667"/>
        <rect x="128" y="717.19" width="42.667" height="42.667" fill="none" stroke-width="1.0667"/>
        <rect x="213.33" y="546.52" width="42.667" height="42.667" fill="none" stroke-width="1.0667"/>
        <rect x="213.33" y="631.85" width="42.667" height="42.667" fill="none" stroke-width="1.0667"/>
        <rect x="213.33" y="674.52" width="42.667" height="42.667" fill="none" stroke-width="1.0667"/>
        <rect x="213.33" y="589.19" width="42.667" height="42.667" fill="none" stroke-width="1.0667"/>
        <rect x="213.33" y="717.19" width="42.667" height="42.667" fill="none" stroke-width="1.0667"/>
        <rect x="298.67" y="546.52" width="42.667" height="42.667" fill="none" stroke-width="1.0667"/>
        <rect x="298.67" y="631.85" width="42.667" height="42.667" fill="none" stroke-width="1.0667"/>
        <rect x="298.67" y="674.52" width="42.667" height="42.667" fill="none" stroke-width="1.0667"/>
        <rect x="298.67" y="589.19" width="42.667" height="42.667" fill="none" stroke-width="1.0667"/>
        <rect x="298.67" y="717.19" width="42.667" height="42.667" fill="none" stroke-width="1.0667"/>
        <rect x="170.67" y="546.52" width="42.667" height="42.667" fill="none" stroke-width="1.0667"/>
        <rect x="170.67" y="631.85" width="42.667" height="42.667" fill="none" stroke-width="1.0667"/>
        <rect x="170.67" y="674.52" width="42.667" height="42.667" fill="none" stroke-width="1.0667"/>
        <rect x="170.67" y="589.19" width="42.667" height="42.667" fill="none" stroke-width="1.0667"/>
        <rect x="170.67" y="717.19" width="42.667" height="42.667" fill="none" stroke-width="1.0667"/>
        <rect x="256" y="546.52" width="42.667" height="42.667" fill="none" stroke-width="1.0667"/>
        <rect x="256" y="631.85" width="42.667" height="42.667" fill="none" stroke-width="1.0667"/>
        <rect x="256" y="674.52" width="42.667" height="42.667" fill="none" stroke-width="1.0667"/>
        <rect x="256" y="589.19" width="42.667" height="42.667" fill="none" stroke-width="1.0667"/>
        <rect x="256" y="717.19" width="42.667" height="42.667" fill="none" stroke-width="1.0667"/>
        <rect x="128" y="759.85" width="42.667" height="42.667" fill="none" stroke-width="1.0667"/>
        <rect x="213.33" y="759.85" width="42.667" height="42.667" fill="none" stroke-width="1.0667"/>
        <rect x="298.67" y="759.85" width="42.667" height="42.667" fill="none" stroke-width="1.0667"/>
        <rect x="170.67" y="759.85" width="42.667" height="42.667" fill="none" stroke-width="1.0667"/>
        <rect x="256" y="759.85" width="42.667" height="42.667" fill="none" stroke-width="1.0667"/>
        <rect x="341.33" y="589.19" width="42.667" height="42.667" fill="none" stroke-width="1.0667"/>
        <rect x="341.33" y="631.85" width="42.667" height="42.667" fill="none" stroke-width="1.0667"/>
        <rect x="341.33" y="717.19" width="42.667" height="42.667" fill="none" stroke-width="1.0667"/>
        <rect x="341.33" y="546.52" width="42.667" height="42.667" fill="none" stroke-width="1.0667"/>
        <rect x="341.33" y="674.52" width="42.667" height="42.667" fill="none" stroke-width="1.0667"/>
        <rect x="341.33" y="759.85" width="42.667" height="42.667" fill="none" stroke-width="1.0667"/>
        <rect x="160" y="578.52" width="192" height="192" fill="none" stroke-width="1.0667"/>
        <g transform="matrix(.37344 0 0 .37344 4.7333 1097.4)">
            <path d="m0 0h51.2v51.2h-51.2z" fill="none" stroke-width="1.0667"/>
        </g>
        <g transform="matrix(.36471 0 0 .36471 5.1356 1097.4)">
            <path d="m0 0h51.2v51.2h-51.2z" fill="none" stroke-width="1.0667"/>
        </g>
        <g transform="matrix(.41585 0 0 .41585 84.325 1055.9)">
            <g transform="matrix(.062269 0 0 .062269 -28.238 185.29)">
                <g transform="matrix(38.618 0 0 38.618 14724 -13542)">
                    <g transform="matrix(.71436 0 0 .71436 -400.52 188.34)">
                        <path d="m1293.2-120.67c-181.75 0.2763-511.18 0.13525-699.05 0.13998-2.3216 10.413-3.593 21.251-3.593 32.384v114c207.65 0.73695 494.72 0.38136 706.23 0.3733v-114.37c0-11.18-1.2522-22.07-3.593-32.523zm-458.69 295.56c-78.385-4e-3 -158.85 0.17892-243.95 0.55995v138.63c286.34-0.39317 421.73-0.13827 706.23-0.32664v-137.75c-163.2-0.53005-311.22-1.1113-462.28-1.1199z" opacity="0" stroke-width="1.4932"/>
                    </g>
                </g>
            </g>
        </g>
        <path d="m24.549 1119.5c0.66325 0 1.1979-0.5346 1.1979-1.1979v-0.3333c0 0.6632-0.53461 1.1978-1.1979 1.1978h-20.354c-0.66325 0-1.1979-0.5346-1.1979-1.1978v0.3333c0 0.6633 0.53461 1.1979 1.1979 1.1979z" fill="#1a237e" opacity=".2"/>
    </g>
    <g transform="translate(.39244 -1.5376)" fill="#fff">
        <path d="m8.3117 22.74c8.5e-5 -0.14437 0.01376-0.51899 0.03038-0.83249 0.24402-4.6012 1.5731-8.6856 3.682-11.315 0.49196-0.61345 1.4891-1.5335 1.8963-1.7498 0.09486-0.05037 0.12324-0.03595 0.5395 0.27418 2.5035 1.8652 4.402 5.9939 4.9917 10.856 0.11369 0.93722 0.23513 2.859 0.18832 2.98-0.01792 0.04633-0.42719 0.04993-5.6739 0.04993h-5.6546l1.54e-4 -0.2625zm1.163-2.0925c0.2388-0.58088 0.58407-1.148 0.99284-1.6309l0.23782-0.28094-0.04807-0.41689c-0.05575-0.48345-0.05927-0.59622-0.01861-0.59622 0.0162 0 0.17396 0.0945 0.35057 0.21s0.33875 0.21 0.36031 0.21c0.03016 0 0.53656-0.29704 0.58016-0.34031 0.0083-0.0082 0.09926-0.97554 0.10009-1.0644 7.59e-4 -0.08116 0.08517-0.01112 0.41965 0.3482 0.25796 0.27712 0.35648 0.36426 0.39727 0.35141 0.02984-0.0094 0.18644-0.04249 0.34801-0.07354s0.30478-0.06769 0.31825-0.08142 0.10915-0.20721 0.21262-0.42996c0.2098-0.45164 0.23629-0.49516 0.27689-0.45488 0.01533 0.01521 0.11608 0.21491 0.22388 0.44377s0.20715 0.42734 0.22078 0.44107c0.02253 0.02271 0.57222 0.1397 0.65748 0.13994 0.01982 6e-5 0.19556-0.17202 0.39054-0.3824 0.34247-0.36951 0.43464-0.44618 0.43546-0.3622 0.0013 0.13278 0.09153 1.0722 0.10637 1.1072 0.02014 0.04755 0.5153 0.35745 0.57113 0.35745 0.01968 0 0.18209-0.0945 0.3609-0.21s0.33796-0.21 0.35365-0.21c0.03897 0 0.03658 0.06674-0.02064 0.57585l-0.04955 0.44085 0.16582 0.18914c0.43341 0.49436 0.77913 1.0478 1.0379 1.6615 0.17135 0.40634 0.20914 0.44971 0.18094 0.20767-0.12701-1.0902-0.48182-2.487-0.90684-3.57-0.14201-0.36186-0.50887-1.095-0.54793-1.095-0.02053 0-0.13503 0.081-0.25444 0.18-0.2088 0.17311-0.2721 0.20908-0.2721 0.15463 0-0.01395 0.03388-0.20632 0.0753-0.4275 0.04141-0.22117 0.07543-0.44102 0.07558-0.48854 1.81e-4 -0.05175-0.044-0.14802-0.11011-0.24-0.19481-0.27101-0.49822-0.61858-0.53999-0.61858-0.02228 0-0.15896 0.16875-0.30375 0.375-0.14478 0.20625-0.2742 0.375-0.2876 0.375s-0.03183-0.05737-0.04095-0.1275c-0.01663-0.12779-0.10804-1.1598-0.10804-1.2198 0-0.07585-0.55482-0.34503-0.78388-0.38031l-0.108-0.01664-0.25698 0.50463c-0.14134 0.27754-0.27059 0.50463-0.28722 0.50463s-0.14097-0.21571-0.27632-0.47936-0.26615-0.49192-0.29068-0.50728c-0.02935-0.01837-0.10026-0.01016-0.20741 0.02401-0.2031 0.06477-0.58716 0.2497-0.63341 0.305-0.01904 0.02277-0.05982 0.32855-0.09062 0.67951s-0.05657 0.64149-0.05728 0.64561c-8e-3 0.04654-0.09163-0.05053-0.30362-0.3525-0.13901-0.198-0.2704-0.36-0.29198-0.36-0.04101 0-0.41791 0.43432-0.58096 0.66948-0.11416 0.16465-0.11514 0.20111-0.01923 0.71337 0.04141 0.22117 0.07542 0.41225 0.07558 0.42463 6.6e-4 0.05163-0.06649 0.01272-0.27181-0.1575-0.11941-0.099-0.2342-0.18-0.25509-0.18-0.04087 0-0.31271 0.52845-0.48803 0.9487-0.39541 0.94783-0.70164 2.0597-0.90346 3.2802-0.11691 0.70701-0.10287 0.75224 0.088789 0.28604z" fill="#fff" stroke-width=".030116"/>
    </g>
    <g display="none" fill="none">
        <rect transform="rotate(90)" x="7.8232" y="-20.923" width="13.1" height="13.1" display="inline" stroke="#000" stroke-width=".070382"/>
        <rect x="7.2241" y="8.6528" width="14.298" height="11.441" stroke="#5261ff" stroke-linecap="round" stroke-linejoin="round" stroke-width=".069589"/>
        <rect transform="rotate(90)" x="7.2241" y="-20.094" width="14.298" height="11.441" display="inline" stroke="#0f0" stroke-linecap="round" stroke-linejoin="round" stroke-width=".069589"/>
    </g>
</svg>
