<?xml version="1.0" encoding="UTF-8"?>
<svg version="1.1" viewBox="0 0 28.747 28.747" xmlns="http://www.w3.org/2000/svg">
    <defs>
        <filter id="filter6206-7" color-interpolation-filters="sRGB">
            <feGaussianBlur stdDeviation="0.658125"/>
        </filter>
    </defs>
    <g transform="translate(0 -1093.8)">
        <path transform="matrix(1.0781 0 0 1.0641 -.093733 2.7509)" d="m4.4177 1028.2v1.6051h-1.6052v18.192h1.6052v2.1402h18.192v-2.1402h2.1402v-18.192h-2.1402v-1.6051z" fill="#3e2723" filter="url(#filter6206-7)" opacity=".2"/>
        <rect x="2.9987" y="1096.8" width="22.749" height="22.749" rx="1.1973" ry="1.1974" fill="#e91e63"/>
        <g transform="translate(-22.32 1056.5)">
            <path d="m0 0h51.2v51.2h-51.2z" fill="none" stroke-width="1.0667"/>
            <g transform="matrix(.33601 0 0 .33601 1.5296 73.043)">
                <path d="m0 0h51.2v51.2h-51.2z" fill="none" stroke-width="1.0667"/>
            </g>
            <g transform="matrix(.37187 0 0 .37187 38.802 63.239)">
                <path d="m0 0h51.2v51.2h-51.2z" fill="none" stroke-width="1.0667"/>
                <g transform="matrix(2.6891 0 0 2.6891 -82.906 -48.45)">
                    <path d="m0 0h51.2v51.2h-51.2z" fill="none" stroke-width="1.0667"/>
                </g>
            </g>
        </g>
        <path d="m4.1958 1096.8c-0.66332 0-1.1979 0.5346-1.1979 1.1979v0.3334c0-0.6634 0.53459-1.1979 1.1979-1.1979h20.354c0.66332 0 1.1979 0.5345 1.1979 1.1979v-0.3334c0-0.6633-0.5346-1.1979-1.1979-1.1979z" fill="#fff" opacity=".2"/>
        <rect x="128" y="546.52" width="42.667" height="42.667" fill="none" stroke-width="1.0667"/>
        <rect x="128" y="631.85" width="42.667" height="42.667" fill="none" stroke-width="1.0667"/>
        <rect x="128" y="674.52" width="42.667" height="42.667" fill="none" stroke-width="1.0667"/>
        <rect x="128" y="589.19" width="42.667" height="42.667" fill="none" stroke-width="1.0667"/>
        <rect x="128" y="717.19" width="42.667" height="42.667" fill="none" stroke-width="1.0667"/>
        <rect x="213.33" y="546.52" width="42.667" height="42.667" fill="none" stroke-width="1.0667"/>
        <rect x="213.33" y="631.85" width="42.667" height="42.667" fill="none" stroke-width="1.0667"/>
        <rect x="213.33" y="674.52" width="42.667" height="42.667" fill="none" stroke-width="1.0667"/>
        <rect x="213.33" y="589.19" width="42.667" height="42.667" fill="none" stroke-width="1.0667"/>
        <rect x="213.33" y="717.19" width="42.667" height="42.667" fill="none" stroke-width="1.0667"/>
        <rect x="298.67" y="546.52" width="42.667" height="42.667" fill="none" stroke-width="1.0667"/>
        <rect x="298.67" y="631.85" width="42.667" height="42.667" fill="none" stroke-width="1.0667"/>
        <rect x="298.67" y="674.52" width="42.667" height="42.667" fill="none" stroke-width="1.0667"/>
        <rect x="298.67" y="589.19" width="42.667" height="42.667" fill="none" stroke-width="1.0667"/>
        <rect x="298.67" y="717.19" width="42.667" height="42.667" fill="none" stroke-width="1.0667"/>
        <rect x="170.67" y="546.52" width="42.667" height="42.667" fill="none" stroke-width="1.0667"/>
        <rect x="170.67" y="631.85" width="42.667" height="42.667" fill="none" stroke-width="1.0667"/>
        <rect x="170.67" y="674.52" width="42.667" height="42.667" fill="none" stroke-width="1.0667"/>
        <rect x="170.67" y="589.19" width="42.667" height="42.667" fill="none" stroke-width="1.0667"/>
        <rect x="170.67" y="717.19" width="42.667" height="42.667" fill="none" stroke-width="1.0667"/>
        <rect x="256" y="546.52" width="42.667" height="42.667" fill="none" stroke-width="1.0667"/>
        <rect x="256" y="631.85" width="42.667" height="42.667" fill="none" stroke-width="1.0667"/>
        <rect x="256" y="674.52" width="42.667" height="42.667" fill="none" stroke-width="1.0667"/>
        <rect x="256" y="589.19" width="42.667" height="42.667" fill="none" stroke-width="1.0667"/>
        <rect x="256" y="717.19" width="42.667" height="42.667" fill="none" stroke-width="1.0667"/>
        <rect x="128" y="759.85" width="42.667" height="42.667" fill="none" stroke-width="1.0667"/>
        <rect x="213.33" y="759.85" width="42.667" height="42.667" fill="none" stroke-width="1.0667"/>
        <rect x="298.67" y="759.85" width="42.667" height="42.667" fill="none" stroke-width="1.0667"/>
        <rect x="170.67" y="759.85" width="42.667" height="42.667" fill="none" stroke-width="1.0667"/>
        <rect x="256" y="759.85" width="42.667" height="42.667" fill="none" stroke-width="1.0667"/>
        <rect x="341.33" y="589.19" width="42.667" height="42.667" fill="none" stroke-width="1.0667"/>
        <rect x="341.33" y="631.85" width="42.667" height="42.667" fill="none" stroke-width="1.0667"/>
        <rect x="341.33" y="717.19" width="42.667" height="42.667" fill="none" stroke-width="1.0667"/>
        <rect x="341.33" y="546.52" width="42.667" height="42.667" fill="none" stroke-width="1.0667"/>
        <rect x="341.33" y="674.52" width="42.667" height="42.667" fill="none" stroke-width="1.0667"/>
        <rect x="341.33" y="759.85" width="42.667" height="42.667" fill="none" stroke-width="1.0667"/>
        <rect x="160" y="578.52" width="192" height="192" fill="none" stroke-width="1.0667"/>
        <g transform="matrix(.37344 0 0 .37344 4.7333 1097.4)">
            <path d="m0 0h51.2v51.2h-51.2z" fill="none" stroke-width="1.0667"/>
        </g>
        <g transform="matrix(.36471 0 0 .36471 5.1356 1097.4)">
            <path d="m0 0h51.2v51.2h-51.2z" fill="none" stroke-width="1.0667"/>
        </g>
        <g transform="matrix(.41585 0 0 .41585 84.325 1055.9)">
            <g transform="matrix(.062269 0 0 .062269 -28.238 185.29)">
                <g transform="matrix(38.618 0 0 38.618 14724 -13542)">
                    <g transform="matrix(.71436 0 0 .71436 -400.52 188.34)">
                        <path d="m1293.2-120.67c-181.75 0.2763-511.18 0.13525-699.05 0.13998-2.3216 10.413-3.593 21.251-3.593 32.384v114c207.65 0.73695 494.72 0.38136 706.23 0.3733v-114.37c0-11.18-1.2522-22.07-3.593-32.523zm-458.69 295.56c-78.385-4e-3 -158.85 0.17892-243.95 0.55995v138.63c286.34-0.39317 421.73-0.13827 706.23-0.32664v-137.75c-163.2-0.53005-311.22-1.1113-462.28-1.1199z" opacity="0" stroke-width="1.4932"/>
                    </g>
                </g>
            </g>
        </g>
        <path d="m24.549 1119.5c0.66325 0 1.1979-0.5346 1.1979-1.1979v-0.3333c0 0.6632-0.53461 1.1978-1.1979 1.1978h-20.354c-0.66325 0-1.1979-0.5346-1.1979-1.1978v0.3333c0 0.6633 0.53461 1.1979 1.1979 1.1979z" fill="#3e2723" opacity=".2"/>
    </g>
    <path d="m14.539 22.041c-1.195-0.0972-2.2757-0.32666-3.1941-0.67817-3.1617-1.2101-5.054-3.7793-4.5877-6.2288 0.51144-2.6864 3.7371-4.5786 7.4805-4.3881 0.63602 0.03237 1.4896 0.15112 1.8188 0.25299 0.0381 0.01187 0.04559-0.03835 0.04837-0.32365 0.0066-0.68586 0.19291-1.1533 0.74498-1.8701 0.46108-0.59866 0.72213-0.98877 0.78421-1.1719 0.04032-0.11898 0.04689-0.20713 0.03152-0.42356-0.02248-0.31654 0.0037-0.40193 0.14752-0.47934 0.16591-0.089355 0.27204-0.045469 0.53077 0.21938 1.0937 1.1196 1.8869 2.4301 2.0553 3.3958 0.08729 0.50061 0.04116 0.83793-0.17017 1.2442-0.11852 0.2278-0.4221 0.58093-0.63679 0.74071-0.14575 0.10847-0.09556 0.20621 0.24547 0.47801 0.34561 0.27544 0.91858 0.84055 1.1534 1.1376 0.73584 0.93074 1.1161 1.9238 1.0635 2.7772-0.03132 0.50773-0.1343 0.78349-0.3832 1.0259-0.15312 0.14915-0.45752 0.33642-0.60657 0.37316-0.04678 0.01145-0.09195 0.03896-0.10038 0.06092-0.01312 0.03423 0.11115 0.76972 0.28056 1.6603 0.06285 0.3304 0.04349 0.6364-0.05267 0.83312-0.10996 0.22496-0.45298 0.54855-0.73941 0.69757-0.2963 0.15414-0.547 0.21592-0.87868 0.2165-0.59428 0.0011-1.2034-0.28752-1.4326-0.67871l-0.07755-0.13233-0.07199 0.14448c-0.0396 0.07947-0.15799 0.22983-0.26312 0.33416-0.40193 0.3989-0.85995 0.61078-1.5973 0.73887-0.33178 0.05765-1.147 0.08006-1.5926 0.04382zm1.2962-0.63212c0.61939-0.06908 1.0546-0.24069 1.3784-0.54359 0.26182-0.24493 0.26179-0.29208-4.84e-4 -0.61266-0.828-1.0121-1.079-1.464-1.1173-2.0117-0.05076-0.72499 0.47675-1.4312 1.2121-1.6228 0.09352-0.02436 0.1733-0.04788 0.17732-0.05226 0.0039-0.0043-0.02396-0.37983-0.06215-0.83432-0.06583-0.78354-0.10807-1.5081-0.1519-2.6058-0.01728-0.43165-0.02559-0.4893-0.07317-0.5044-0.11517-0.03655-0.4332-0.26521-0.57611-0.41421-0.08261-0.08613-0.19728-0.23285-0.25483-0.32604-0.11729-0.18997-0.14879-0.2039-0.73132-0.32345-2.0971-0.43036-4.3109-0.15391-5.9294 0.74044-0.91475 0.50547-1.7084 1.3253-2.0645 2.1327-0.57129 1.2952-0.36967 2.7252 0.56151 3.9826 0.87111 1.1763 2.3738 2.1288 4.1081 2.6039 1.1695 0.32038 2.6687 0.48701 3.5238 0.39166zm-4.3162-1.9021c-0.77848-0.23427-1.2606-0.83677-1.1406-1.4255 0.05053-0.24799 0.16312-0.43436 0.39387-0.65205 0.34835-0.32862 0.78603-0.4949 1.3027-0.4949 0.53691 0 0.97148 0.17182 1.3242 0.52354 0.31313 0.31225 0.42561 0.60191 0.3701 0.95308-0.0771 0.48771-0.58944 0.95871-1.2178 1.1196-0.27896 0.07141-0.75228 0.0605-1.0324-0.02378zm0.93756-0.59378c0.20784-0.0441 0.40619-0.14659 0.5255-0.27153 0.11509-0.12052 0.1596-0.22895 0.1596-0.38873 0-0.38163-0.37344-0.64832-0.95332-0.6808-0.4056-0.02271-0.74976 0.06223-0.97348 0.24026-0.12681 0.10091-0.20669 0.27-0.20669 0.4375 0 0.34408 0.24783 0.57204 0.7362 0.67718 0.12539 0.027 0.55942 0.01853 0.71219-0.01395zm-2.7892-2.668c-0.66766-0.18125-1.1735-0.66475-1.2315-1.1772-0.065122-0.57469 0.45947-1.1638 1.2201-1.3701 0.30207-0.08194 0.76133-0.06885 1.0667 0.03039 0.45279 0.14715 0.85566 0.46038 1.0255 0.79731 0.07478 0.14836 0.08544 0.20298 0.08586 0.43984 4.23e-4 0.23847-0.01 0.29176-0.08752 0.45074-0.16441 0.33686-0.55436 0.64475-1.0088 0.79649-0.28488 0.09512-0.78392 0.1103-1.0703 0.03253zm0.77774-0.60233c0.23433-0.03839 0.516-0.16938 0.62076-0.2887 0.24768-0.28209 0.18256-0.67089-0.14788-0.88302-0.22892-0.14696-0.43972-0.19051-0.8535-0.17634-0.31774 0.01087-0.38618 0.02288-0.54378 0.09533-0.27572 0.12675-0.403 0.26834-0.44651 0.49673-0.043012 0.22578 0.12591 0.50924 0.38102 0.63939 0.24645 0.12572 0.64651 0.17286 0.98989 0.11663zm2.8919-1.22c-0.50092-0.1093-0.97967-0.44378-1.1898-0.83124-0.09495-0.17513-0.10233-0.20827-0.1021-0.45919 2.1e-4 -0.23451 0.01145-0.29312 0.08384-0.44113 0.30698-0.627 1.2278-1.0194 2.0043-0.85407 0.5237 0.11146 1.0139 0.45787 1.2091 0.85446 0.08602 0.17471 0.09802 0.22865 0.09802 0.44074 0 0.21126-0.01207 0.26615-0.09615 0.43635-0.31258 0.633-1.2305 1.0236-2.0073 0.85408zm0.93264-0.67695c0.52548-0.1623 0.70379-0.6434 0.37192-1.0034-0.22298-0.2419-0.67452-0.35659-1.1468-0.29128-0.593 0.08201-0.91873 0.41975-0.80656 0.83632 0.11854 0.44027 0.9035 0.66779 1.5814 0.4584zm5.6573 7.1682c0.20226-0.06006 0.50518-0.26885 0.63292-0.43623 0.12102-0.15856 0.12127-0.15167-0.04053-1.0652-0.3599-2.0316-0.81116-4.0239-1.283-5.6643-0.33425-1.162-0.29747-1.0584-0.36826-1.0377-0.19478 0.05687-0.53181 0.10618-0.72582 0.10618h-0.22273v0.34392c0 1.4705 0.28029 4.3926 0.65676 6.8468 0.09572 0.62399 0.11018 0.65624 0.34989 0.78033 0.32409 0.16778 0.70083 0.21528 1.0008 0.1262zm-2.0692-1.3962c-0.04764-0.32228-0.12752-0.91725-0.17752-1.3222-0.05001-0.40491-0.09872-0.79454-0.10822-0.86583-0.01707-0.12762-0.01873-0.12931-0.11284-0.10901-0.1651 0.03562-0.30798 0.12529-0.44826 0.28132-0.19942 0.2218-0.27311 0.39496-0.27595 0.64845-0.0032 0.27498 0.08288 0.50155 0.32408 0.8542 0.15666 0.22905 0.86576 1.118 0.88041 1.1038 0.0027-0.0027-0.03408-0.26844-0.08172-0.59072zm3.1353-2.0616c0.31245-0.15616 0.39089-0.2971 0.42901-0.77078 0.04996-0.62081-0.20736-1.3845-0.6986-2.0732-0.16576-0.23241-0.7864-0.90814-0.81126-0.88327-0.0064 0.0064 0.03735 0.18572 0.09727 0.39843 0.18183 0.64531 0.54199 2.1567 0.75287 3.1593 0.02867 0.13634 0.05705 0.24791 0.06304 0.24791 0.0061 0 0.08144-0.03525 0.16768-0.07836zm-2.4312-5.3296c0.45642-0.11673 0.8976-0.41619 1.0871-0.73789 0.40329-0.68458 0.0021-1.8641-1.1068-3.2546l-0.27164-0.34062-0.06627 0.16289c-0.09541 0.23454-0.24112 0.45202-0.6895 1.0292-0.48053 0.61856-0.54208 0.71424-0.65036 1.0109-0.20267 0.55534-0.16612 1.2134 0.09047 1.6285 0.08036 0.13004 0.32456 0.35864 0.45653 0.42739 0.28362 0.14775 0.74622 0.17761 1.1504 0.07424z" fill="#fffcfc" stroke="#fff" stroke-width=".33"/>
</svg>
