<?xml version="1.0" encoding="UTF-8"?>
<svg version="1.1" viewBox="0 0 28.747 28.747" xmlns="http://www.w3.org/2000/svg" xmlns:xlink="http://www.w3.org/1999/xlink">
    <defs>
        <filter id="filter6206-7" x="-.072" y="-.072" width="1.144" height="1.144" color-interpolation-filters="sRGB">
            <feGaussianBlur stdDeviation="0.658125"/>
        </filter>
    </defs>
    <g transform="translate(0 -1093.8)">
        <path transform="matrix(1.0781 0 0 1.0641 -.093733 2.7509)" d="m4.4177 1028.2v1.6051h-1.6052v18.192h1.6052v2.1402h18.192v-2.1402h2.1402v-18.192h-2.1402v-1.6051z" fill="#263238" filter="url(#filter6206-7)" opacity=".2"/>
        <rect x="2.9987" y="1096.8" width="22.749" height="22.749" rx="1.1973" ry="1.1974" fill="#8bc34a"/>
        <g transform="translate(-22.32 1056.5)">
            <path d="m0 0h51.2v51.2h-51.2z" fill="none" stroke-width="1.0667"/>
            <g transform="matrix(.33601 0 0 .33601 1.5296 73.043)">
                <path d="m0 0h51.2v51.2h-51.2z" fill="none" stroke-width="1.0667"/>
            </g>
            <g transform="matrix(.37187 0 0 .37187 38.802 63.239)">
                <path d="m0 0h51.2v51.2h-51.2z" fill="none" stroke-width="1.0667"/>
                <g transform="matrix(2.6891 0 0 2.6891 -82.906 -48.45)">
                    <path d="m0 0h51.2v51.2h-51.2z" fill="none" stroke-width="1.0667"/>
                </g>
            </g>
        </g>
        <path d="m4.1958 1096.8c-0.66332 0-1.1979 0.5346-1.1979 1.1979v0.3334c0-0.6634 0.53459-1.1979 1.1979-1.1979h20.354c0.66332 0 1.1979 0.5345 1.1979 1.1979v-0.3334c0-0.6633-0.5346-1.1979-1.1979-1.1979z" fill="#fff" opacity=".2"/>
        <rect x="128" y="546.52" width="42.667" height="42.667" fill="none" stroke-width="1.0667"/>
        <rect x="128" y="631.85" width="42.667" height="42.667" fill="none" stroke-width="1.0667"/>
        <rect x="128" y="674.52" width="42.667" height="42.667" fill="none" stroke-width="1.0667"/>
        <rect x="128" y="589.19" width="42.667" height="42.667" fill="none" stroke-width="1.0667"/>
        <rect x="128" y="717.19" width="42.667" height="42.667" fill="none" stroke-width="1.0667"/>
        <rect x="213.33" y="546.52" width="42.667" height="42.667" fill="none" stroke-width="1.0667"/>
        <rect x="213.33" y="631.85" width="42.667" height="42.667" fill="none" stroke-width="1.0667"/>
        <rect x="213.33" y="674.52" width="42.667" height="42.667" fill="none" stroke-width="1.0667"/>
        <rect x="213.33" y="589.19" width="42.667" height="42.667" fill="none" stroke-width="1.0667"/>
        <rect x="213.33" y="717.19" width="42.667" height="42.667" fill="none" stroke-width="1.0667"/>
        <rect x="298.67" y="546.52" width="42.667" height="42.667" fill="none" stroke-width="1.0667"/>
        <rect x="298.67" y="631.85" width="42.667" height="42.667" fill="none" stroke-width="1.0667"/>
        <rect x="298.67" y="674.52" width="42.667" height="42.667" fill="none" stroke-width="1.0667"/>
        <rect x="298.67" y="589.19" width="42.667" height="42.667" fill="none" stroke-width="1.0667"/>
        <rect x="298.67" y="717.19" width="42.667" height="42.667" fill="none" stroke-width="1.0667"/>
        <rect x="170.67" y="546.52" width="42.667" height="42.667" fill="none" stroke-width="1.0667"/>
        <rect x="170.67" y="631.85" width="42.667" height="42.667" fill="none" stroke-width="1.0667"/>
        <rect x="170.67" y="674.52" width="42.667" height="42.667" fill="none" stroke-width="1.0667"/>
        <rect x="170.67" y="589.19" width="42.667" height="42.667" fill="none" stroke-width="1.0667"/>
        <rect x="170.67" y="717.19" width="42.667" height="42.667" fill="none" stroke-width="1.0667"/>
        <rect x="256" y="546.52" width="42.667" height="42.667" fill="none" stroke-width="1.0667"/>
        <rect x="256" y="631.85" width="42.667" height="42.667" fill="none" stroke-width="1.0667"/>
        <rect x="256" y="674.52" width="42.667" height="42.667" fill="none" stroke-width="1.0667"/>
        <rect x="256" y="589.19" width="42.667" height="42.667" fill="none" stroke-width="1.0667"/>
        <rect x="256" y="717.19" width="42.667" height="42.667" fill="none" stroke-width="1.0667"/>
        <rect x="128" y="759.85" width="42.667" height="42.667" fill="none" stroke-width="1.0667"/>
        <rect x="213.33" y="759.85" width="42.667" height="42.667" fill="none" stroke-width="1.0667"/>
        <rect x="298.67" y="759.85" width="42.667" height="42.667" fill="none" stroke-width="1.0667"/>
        <rect x="170.67" y="759.85" width="42.667" height="42.667" fill="none" stroke-width="1.0667"/>
        <rect x="256" y="759.85" width="42.667" height="42.667" fill="none" stroke-width="1.0667"/>
        <rect x="341.33" y="589.19" width="42.667" height="42.667" fill="none" stroke-width="1.0667"/>
        <rect x="341.33" y="631.85" width="42.667" height="42.667" fill="none" stroke-width="1.0667"/>
        <rect x="341.33" y="717.19" width="42.667" height="42.667" fill="none" stroke-width="1.0667"/>
        <rect x="341.33" y="546.52" width="42.667" height="42.667" fill="none" stroke-width="1.0667"/>
        <rect x="341.33" y="674.52" width="42.667" height="42.667" fill="none" stroke-width="1.0667"/>
        <rect x="341.33" y="759.85" width="42.667" height="42.667" fill="none" stroke-width="1.0667"/>
        <rect x="160" y="578.52" width="192" height="192" fill="none" stroke-width="1.0667"/>
        <g transform="matrix(.37344 0 0 .37344 4.7333 1097.4)">
            <path d="m0 0h51.2v51.2h-51.2z" fill="none" stroke-width="1.0667"/>
        </g>
        <g transform="matrix(.36471 0 0 .36471 5.1356 1097.4)">
            <path d="m0 0h51.2v51.2h-51.2z" fill="none" stroke-width="1.0667"/>
        </g>
        <g transform="matrix(.41585 0 0 .41585 84.325 1055.9)">
            <g transform="matrix(.062269 0 0 .062269 -28.238 185.29)">
                <g transform="matrix(38.618 0 0 38.618 14724 -13542)">
                    <g transform="matrix(.71436 0 0 .71436 -400.52 188.34)">
                        <path d="m1293.2-120.67c-181.75 0.2763-511.18 0.13525-699.05 0.13998-2.3216 10.413-3.593 21.251-3.593 32.384v114c207.65 0.73695 494.72 0.38136 706.23 0.3733v-114.37c0-11.18-1.2522-22.07-3.593-32.523zm-458.69 295.56c-78.385-4e-3 -158.85 0.17892-243.95 0.55995v138.63c286.34-0.39317 421.73-0.13827 706.23-0.32664v-137.75c-163.2-0.53005-311.22-1.1113-462.28-1.1199z" opacity="0" stroke-width="1.4932"/>
                    </g>
                </g>
            </g>
        </g>
        <path d="m24.549 1119.5c0.66325 0 1.1979-0.5346 1.1979-1.1979v-0.3333c0 0.6632-0.53461 1.1978-1.1979 1.1978h-20.354c-0.66325 0-1.1979-0.5346-1.1979-1.1978v0.3333c0 0.6633 0.53461 1.1979 1.1979 1.1979z" fill="#263238" opacity=".2"/>
    </g>
    <g>
        <g transform="matrix(1.1464 0 0 1.1464 -2.1029 -2.4738)" fill="#fff" stroke-width="1.5364" aria-label="^__^ (oo) (__) ">
            <path transform="matrix(.87233 0 0 .87233 1.8344 2.158)" d="m9.9238 7.2246-1.0469 1.2773h0.4082l0.83984-0.90625 0.8418 0.90625h0.4082l-1.0449-1.2773h-0.40625zm8.4824 0-1.0449 1.2773h0.4082l0.83984-0.90625 0.83984 0.90625h0.4082l-1.0449-1.2773h-0.40625zm-6.8652 3.2207v0.4707h5.6543v-0.4707h-5.6543zm-1.166 1.1465c-0.23086 0.36082-0.40249 0.71306-0.51562 1.0586-0.11314 0.34553-0.16992 0.68835-0.16992 1.0293 0 0.34247 0.056783 0.68767 0.16992 1.0332 0.11314 0.344 0.28476 0.69667 0.51562 1.0605h0.36719c-0.20334-0.35165-0.35612-0.69981-0.45703-1.0469-0.099378-0.34706-0.14844-0.69676-0.14844-1.0469 0-0.35165 0.049059-0.69939 0.14844-1.0449 0.10091-0.34706 0.25369-0.69438 0.45703-1.043h-0.36719zm7.6191 0c0.20334 0.35012 0.35375 0.69786 0.45312 1.0449 0.10091 0.34706 0.15234 0.69438 0.15234 1.043 0 0.34706-0.051435 0.69591-0.15234 1.043-0.099379 0.34706-0.24978 0.69608-0.45312 1.0508h0.36719c0.23086-0.36082 0.40249-0.71306 0.51562-1.0586 0.11314-0.34553 0.16992-0.69115 0.16992-1.0352 0-0.34095-0.056783-0.68376-0.16992-1.0293-0.11314-0.34553-0.28476-0.69777-0.51562-1.0586h-0.36719zm-5.1074 0.93359c-0.32412 0.013527-0.5737 0.12927-0.75 0.3457-0.18806 0.23086-0.2832 0.56469-0.2832 1.002 0 0.4388 0.095148 0.77304 0.2832 1.0039 0.18806 0.22934 0.46017 0.3457 0.81641 0.3457 0.35776 0 0.6303-0.11637 0.81836-0.3457 0.18806-0.23086 0.2832-0.56511 0.2832-1.0039-1e-6 -0.43727-0.095573-0.77109-0.28516-1.002-0.18806-0.23086-0.46017-0.3457-0.81641-0.3457-0.022265 0-0.044799-9.02e-4 -0.066406 0zm2.8281 0c-0.32412 0.013527-0.5737 0.12927-0.75 0.3457-0.18806 0.23086-0.2832 0.56469-0.2832 1.002 0 0.4388 0.095147 0.77304 0.2832 1.0039 0.18806 0.22934 0.46017 0.3457 0.81641 0.3457 0.35776 0 0.6303-0.11637 0.81836-0.3457 0.18806-0.23086 0.28125-0.56511 0.28125-1.0039 0-0.43727-0.093619-0.77109-0.2832-1.002-0.18806-0.23086-0.46017-0.3457-0.81641-0.3457-0.022265 0-0.044799-9.02e-4 -0.066406 0zm-2.8008 0.35742c0.012972-6.5e-4 0.025685 0 0.039063 0 0.21558 0 0.3782 0.08335 0.48828 0.25 0.11008 0.16665 0.16602 0.41305 0.16602 0.74024 0 0.32566-0.055935 0.57206-0.16602 0.74023-0.11008 0.16665-0.27271 0.25-0.48828 0.25-0.21405 0-0.37625-0.083349-0.48633-0.25-0.11008-0.16818-0.16602-0.41458-0.16602-0.74023 0-0.32719 0.055935-0.57358 0.16602-0.74024 0.1032-0.15624 0.25269-0.24024 0.44726-0.25zm2.8262 0c0.012972-6.5e-4 0.027638 0 0.041016 0 0.21558 0 0.3782 0.08335 0.48828 0.25 0.11008 0.16665 0.16406 0.41305 0.16406 0.74024 0 0.32566-0.053982 0.57206-0.16406 0.74023-0.11008 0.16665-0.27271 0.25-0.48828 0.25-0.21405 0-0.37625-0.083349-0.48633-0.25-0.11008-0.16818-0.16602-0.41458-0.16602-0.74023 0-0.32719 0.055935-0.57358 0.16602-0.74024 0.1032-0.15624 0.25074-0.24024 0.44531-0.25zm-5.3652 3.9688c-0.23086 0.36082-0.40249 0.71306-0.51562 1.0586-0.11314 0.34553-0.16992 0.68835-0.16992 1.0293 0 0.34247 0.056788 0.68767 0.16992 1.0332 0.11314 0.344 0.28476 0.69667 0.51562 1.0605h0.36719c-0.20334-0.35165-0.35612-0.69981-0.45703-1.0469-0.099373-0.34706-0.14844-0.69676-0.14844-1.0469 0-0.35165 0.049059-0.69939 0.14844-1.0449 0.10091-0.34706 0.25369-0.69438 0.45703-1.043h-0.36719zm7.6191 0c0.20334 0.35012 0.35375 0.69786 0.45312 1.0449 0.10091 0.34706 0.15234 0.69438 0.15234 1.043 0 0.34706-0.051441 0.69395-0.15234 1.041-0.099379 0.34706-0.24978 0.69803-0.45312 1.0527h0.36719c0.23086-0.36082 0.40249-0.71306 0.51562-1.0586 0.11314-0.34553 0.16992-0.69115 0.16992-1.0352 0-0.34095-0.056788-0.68376-0.16992-1.0293-0.11314-0.34553-0.28476-0.69777-0.51562-1.0586h-0.36719zm-6.4531 4.1992v0.47266h5.6543v-0.47266h-5.6543z" stroke-width="1.7613"/>
        </g>
    </g>
    <g display="none" fill="none">
        <rect transform="rotate(90)" x="7.8232" y="-20.923" width="13.1" height="13.1" display="inline" stroke="#000" stroke-width=".070382"/>
        <rect x="7.2241" y="8.6528" width="14.298" height="11.441" stroke="#5261ff" stroke-linecap="round" stroke-linejoin="round" stroke-width=".06959"/>
        <rect transform="rotate(90)" x="7.2241" y="-20.094" width="14.298" height="11.441" display="inline" stroke="#0f0" stroke-linecap="round" stroke-linejoin="round" stroke-width=".06959"/>
    </g>
</svg>
