<?xml version="1.0" encoding="UTF-8"?>
<svg fill="none" viewBox="0 0 40 40" xmlns="http://www.w3.org/2000/svg">
    <g filter="url(#filter0_f)" opacity=".2">
        <path d="m6.4966 4.3023v2.3767h-2.408v26.937h2.408v3.1689h27.29v-3.1689h3.2106v-26.937h-3.2106v-2.3767h-27.29z" fill="#1A237E"/>
    </g>
    <path d="m34.161 4.1727h-28.323c-0.92014 0-1.666 0.74594-1.666 1.6661v28.323c0 0.9202 0.74591 1.6661 1.666 1.6661h28.323c0.9201 0 1.6661-0.7459 1.6661-1.6661v-28.323c0-0.92018-0.746-1.6661-1.6661-1.6661z" fill="#3F51B5"/>
    <path d="m5.8384 4.1715c-0.92299 0-1.6669 0.74384-1.6669 1.6668v0.46405c0-0.9231 0.74387-1.667 1.6669-1.667h28.322c0.923 0 1.6669 0.74387 1.6669 1.667v-0.46405c0-0.92296-0.7439-1.6668-1.6669-1.6668h-28.322z" fill="#fff" opacity=".2"/>
    <path d="m34.16 35.859c0.9229 0 1.6668-0.7438 1.6668-1.6668v-0.4639c0 0.9228-0.7439 1.6668-1.6668 1.6668h-28.322c-0.9229 0-1.6668-0.744-1.6668-1.6668v0.4639c0 0.923 0.7439 1.6668 1.6668 1.6668h28.322z" fill="#1A237E" opacity=".2"/>
    <path d="m11.895 15.517v9.3472l8.0534 4.6742 8.0516-4.6742v-9.3472l-8.0516-4.6736-8.0534 4.6736zm0.709 8.9373v-8.5256l7.3444-4.2649 7.3449 4.2649v8.5256l-7.3449 4.2637-7.3444-4.2637z" clip-rule="evenodd" fill="#fff" fill-rule="evenodd"/>
    <path d="m23.104 14.879h-6.3277l-0.7332 3.243h7.8236l-0.7627-3.243zm-5.2047 7.7064v-2.1552l-1.8752-1.198-2.1212 1.5854 2.8913 5.0546h1.1547l1.366-1.2782v-0.6426l-1.4156-1.366z" clip-rule="evenodd" fill="#fff" fill-rule="evenodd"/>
    <path d="m22.004 18.611h-4.0985l0.6905 1.8117-0.2102 2.0305h1.5617l1.5762-0.0075-0.1963-2.023 0.6766-1.8117z" clip-rule="evenodd" fill="#fff" fill-rule="evenodd"/>
    <path d="m23.878 19.217-1.8527 1.2124v2.1552l-1.4162 1.366v0.6426l1.3654 1.2638h1.1408l2.8769-5.0402-2.1142-1.5998z" clip-rule="evenodd" fill="#fff" fill-rule="evenodd"/>
    <defs>
        <filter id="filter0_f" x="3.3838" y="3.5974" width="34.319" height="33.893" color-interpolation-filters="sRGB" filterUnits="userSpaceOnUse">
            <feFlood flood-opacity="0" result="BackgroundImageFix"/>
            <feBlend in="SourceGraphic" in2="BackgroundImageFix" result="shape"/>
            <feGaussianBlur result="effect1_foregroundBlur" stdDeviation="0.352455"/>
        </filter>
    </defs>
</svg>
