<?xml version="1.0" encoding="UTF-8"?>
<svg version="1.1" viewBox="0 0 28.747 28.747" xmlns="http://www.w3.org/2000/svg">
    <defs>
        <filter id="filter6206-7" color-interpolation-filters="sRGB">
            <feGaussianBlur stdDeviation="0.658125"/>
        </filter>
    </defs>
    <g transform="translate(0 -1093.8)">
        <path transform="matrix(1.0781 0 0 1.0641 -.093733 2.7509)" d="m4.4177 1028.2v1.6051h-1.6052v18.192h1.6052v2.1402h18.192v-2.1402h2.1402v-18.192h-2.1402v-1.6051z" fill="#bf360c" filter="url(#filter6206-7)" opacity=".2"/>
        <rect x="2.9987" y="1096.8" width="22.749" height="22.749" rx="1.1973" ry="1.1974" fill="#ff9800"/>
        <g transform="translate(-22.32 1056.5)">
            <path d="m0 0h51.2v51.2h-51.2z" fill="none" stroke-width="1.0667"/>
            <g transform="matrix(.33601 0 0 .33601 1.5296 73.043)">
                <path d="m0 0h51.2v51.2h-51.2z" fill="none" stroke-width="1.0667"/>
            </g>
            <g transform="matrix(.37187 0 0 .37187 38.802 63.239)">
                <path d="m0 0h51.2v51.2h-51.2z" fill="none" stroke-width="1.0667"/>
                <g transform="matrix(2.6891 0 0 2.6891 -82.906 -48.45)">
                    <path d="m0 0h51.2v51.2h-51.2z" fill="none" stroke-width="1.0667"/>
                </g>
            </g>
        </g>
        <path d="m4.1958 1096.8c-0.66332 0-1.1979 0.5346-1.1979 1.1979v0.3334c0-0.6634 0.53459-1.1979 1.1979-1.1979h20.354c0.66332 0 1.1979 0.5345 1.1979 1.1979v-0.3334c0-0.6633-0.5346-1.1979-1.1979-1.1979z" fill="#fff" opacity=".2"/>
        <rect x="128" y="546.52" width="42.667" height="42.667" fill="none" stroke-width="1.0667"/>
        <rect x="128" y="631.85" width="42.667" height="42.667" fill="none" stroke-width="1.0667"/>
        <rect x="128" y="674.52" width="42.667" height="42.667" fill="none" stroke-width="1.0667"/>
        <rect x="128" y="589.19" width="42.667" height="42.667" fill="none" stroke-width="1.0667"/>
        <rect x="128" y="717.19" width="42.667" height="42.667" fill="none" stroke-width="1.0667"/>
        <rect x="213.33" y="546.52" width="42.667" height="42.667" fill="none" stroke-width="1.0667"/>
        <rect x="213.33" y="631.85" width="42.667" height="42.667" fill="none" stroke-width="1.0667"/>
        <rect x="213.33" y="674.52" width="42.667" height="42.667" fill="none" stroke-width="1.0667"/>
        <rect x="213.33" y="589.19" width="42.667" height="42.667" fill="none" stroke-width="1.0667"/>
        <rect x="213.33" y="717.19" width="42.667" height="42.667" fill="none" stroke-width="1.0667"/>
        <rect x="298.67" y="546.52" width="42.667" height="42.667" fill="none" stroke-width="1.0667"/>
        <rect x="298.67" y="631.85" width="42.667" height="42.667" fill="none" stroke-width="1.0667"/>
        <rect x="298.67" y="674.52" width="42.667" height="42.667" fill="none" stroke-width="1.0667"/>
        <rect x="298.67" y="589.19" width="42.667" height="42.667" fill="none" stroke-width="1.0667"/>
        <rect x="298.67" y="717.19" width="42.667" height="42.667" fill="none" stroke-width="1.0667"/>
        <rect x="170.67" y="546.52" width="42.667" height="42.667" fill="none" stroke-width="1.0667"/>
        <rect x="170.67" y="631.85" width="42.667" height="42.667" fill="none" stroke-width="1.0667"/>
        <rect x="170.67" y="674.52" width="42.667" height="42.667" fill="none" stroke-width="1.0667"/>
        <rect x="170.67" y="589.19" width="42.667" height="42.667" fill="none" stroke-width="1.0667"/>
        <rect x="170.67" y="717.19" width="42.667" height="42.667" fill="none" stroke-width="1.0667"/>
        <rect x="256" y="546.52" width="42.667" height="42.667" fill="none" stroke-width="1.0667"/>
        <rect x="256" y="631.85" width="42.667" height="42.667" fill="none" stroke-width="1.0667"/>
        <rect x="256" y="674.52" width="42.667" height="42.667" fill="none" stroke-width="1.0667"/>
        <rect x="256" y="589.19" width="42.667" height="42.667" fill="none" stroke-width="1.0667"/>
        <rect x="256" y="717.19" width="42.667" height="42.667" fill="none" stroke-width="1.0667"/>
        <rect x="128" y="759.85" width="42.667" height="42.667" fill="none" stroke-width="1.0667"/>
        <rect x="213.33" y="759.85" width="42.667" height="42.667" fill="none" stroke-width="1.0667"/>
        <rect x="298.67" y="759.85" width="42.667" height="42.667" fill="none" stroke-width="1.0667"/>
        <rect x="170.67" y="759.85" width="42.667" height="42.667" fill="none" stroke-width="1.0667"/>
        <rect x="256" y="759.85" width="42.667" height="42.667" fill="none" stroke-width="1.0667"/>
        <rect x="341.33" y="589.19" width="42.667" height="42.667" fill="none" stroke-width="1.0667"/>
        <rect x="341.33" y="631.85" width="42.667" height="42.667" fill="none" stroke-width="1.0667"/>
        <rect x="341.33" y="717.19" width="42.667" height="42.667" fill="none" stroke-width="1.0667"/>
        <rect x="341.33" y="546.52" width="42.667" height="42.667" fill="none" stroke-width="1.0667"/>
        <rect x="341.33" y="674.52" width="42.667" height="42.667" fill="none" stroke-width="1.0667"/>
        <rect x="341.33" y="759.85" width="42.667" height="42.667" fill="none" stroke-width="1.0667"/>
        <rect x="160" y="578.52" width="192" height="192" fill="none" stroke-width="1.0667"/>
        <g transform="matrix(.37344 0 0 .37344 4.7333 1097.4)">
            <path d="m0 0h51.2v51.2h-51.2z" fill="none" stroke-width="1.0667"/>
        </g>
        <g transform="matrix(.36471 0 0 .36471 5.1356 1097.4)">
            <path d="m0 0h51.2v51.2h-51.2z" fill="none" stroke-width="1.0667"/>
        </g>
        <g transform="matrix(.41585 0 0 .41585 84.325 1055.9)">
            <g transform="matrix(.062269 0 0 .062269 -28.238 185.29)">
                <g transform="matrix(38.618 0 0 38.618 14724 -13542)">
                    <g transform="matrix(.71436 0 0 .71436 -400.52 188.34)">
                        <path d="m1293.2-120.67c-181.75 0.2763-511.18 0.13525-699.05 0.13998-2.3216 10.413-3.593 21.251-3.593 32.384v114c207.65 0.73695 494.72 0.38136 706.23 0.3733v-114.37c0-11.18-1.2522-22.07-3.593-32.523zm-458.69 295.56c-78.385-4e-3 -158.85 0.17892-243.95 0.55995v138.63c286.34-0.39317 421.73-0.13827 706.23-0.32664v-137.75c-163.2-0.53005-311.22-1.1113-462.28-1.1199z" opacity="0" stroke-width="1.4932"/>
                    </g>
                </g>
            </g>
        </g>
        <path d="m24.549 1119.5c0.66325 0 1.1979-0.5346 1.1979-1.1979v-0.3333c0 0.6632-0.53461 1.1978-1.1979 1.1978h-20.354c-0.66325 0-1.1979-0.5346-1.1979-1.1978v0.3333c0 0.6633 0.53461 1.1979 1.1979 1.1979z" fill="#bf360c" opacity=".2"/>
    </g>
    <g display="none">
        <flowRoot fill="#000000" font-family="Roboto" font-size="12.8px" letter-spacing="0px" stroke-width="1.0667px" word-spacing="0px" style="line-height:0.01%" xml:space="preserve"><flowRegion><rect x="11.375" y="11.984" width="4.7893" height="5.388" stroke-width="1.1378px"/></flowRegion><flowPara font-size="4px" style="line-height:1.25">your</flowPara></flowRoot>
        <path d="m10.407 7.764c-0.73006 2.7e-5 -1.3203 0.5922-1.3203 1.3223v10.576c4.16e-5 0.73006 0.59025 1.3203 1.3203 1.3203h7.9316c0.73006-2.6e-5 1.3222-0.59025 1.3223-1.3203v-10.576c0-0.7335-0.59518-1.3223-1.3223-1.3223h-3.9648v5.5762l-1.6523-0.99024-1.6523 0.99024v-5.5762zm2.7188 0.04492v1.4277c-0.17187-0.19792-0.38498-0.29687-0.63672-0.29687-0.34549 0-0.61393 0.12782-0.80664 0.38477-0.19271 0.25694-0.28906 0.60851-0.28906 1.0547 0 0.47396 0.09874 0.83876 0.29492 1.0957s0.46181 0.38672 0.79688 0.38672c0.27778 0 0.50694-0.11936 0.6875-0.35547l0.04297 0.30274h0.78906v-4zm-0.41211 1.8066c0.19444 0 0.33225 0.08333 0.41211 0.25v1.0742c-0.08333 0.16319-0.22352 0.24414-0.41797 0.24414-0.29167 0-0.4375-0.25-0.4375-0.75l0.0039-0.16211c0.02257-0.4375 0.16862-0.65625 0.43945-0.65625zm-0.8125 4.9297c0.34632 0 0.62102 0.08362 0.82812 0.25 0.20881 0.16639 0.31445 0.41189 0.31445 0.73438v1.0371c0 0.14939 0.0114 0.2863 0.03516 0.41016 0.02377 0.12397 0.06039 0.24939 0.11133 0.375h-0.84961c-0.02547-0.04417-0.04775-0.09378-0.06641-0.14648-0.01868-0.05264-0.03525-0.10907-0.04883-0.17188-0.08319 0.11544-0.18118 0.20718-0.29492 0.27344-0.11204 0.06444-0.25186 0.0957-0.41992 0.0957-0.26653 0-0.4813-0.07497-0.64258-0.22266-0.16128-0.14938-0.24024-0.35086-0.24024-0.60547 0-0.27844 0.10046-0.48877 0.30078-0.63477s0.51335-0.2207 0.93945-0.2207h0.3125v-0.19531c0-0.12046-0.02772-0.21233-0.08203-0.27344-0.05432-0.06105-0.14068-0.0918-0.25781-0.0918-0.10186 0-0.17512 0.02274-0.22266 0.06836-0.04583 0.04417-0.06836 0.11868-0.06836 0.21875h-0.85938c0-0.26483 0.10888-0.48211 0.32617-0.64844 0.219-0.16814 0.51468-0.25195 0.88477-0.25195zm3.9336 0.05078h2.2617v0.46484l-1.2285 1.6289h1.2539v0.66211h-2.3398v-0.47852l1.2246-1.6152h-1.1719zm-2.1758 0.82422h1.5312v0.66602h-1.5312zm-1.7832 0.75781c-0.1392 0-0.23967 0.03165-0.30078 0.09766-0.05942 0.0645-0.08984 0.15032-0.08984 0.25391 0 0.07981 0.0255 0.14184 0.07813 0.18945 0.05263 0.04719 0.1224 0.07227 0.20898 0.07227s0.16477-0.0169 0.23438-0.05078c0.0713-0.03388 0.12969-0.07848 0.17383-0.13281v-0.42969z" display="inline" fill="#fff"/>
    </g>
    <path d="m10.408 7.764c-0.73006 2.69e-5 -1.3222 0.59221-1.3223 1.3223v10.574c4.2e-5 0.73006 0.5922 1.3222 1.3223 1.3223h7.9316c0.73006-2.6e-5 1.3222-0.5922 1.3223-1.3223v-10.574c0-0.7335-0.59518-1.3223-1.3223-1.3223h-3.9668v4.627l-1.6504-0.99023-1.6543 0.99023v-4.627zm4.7109 4.207h1.543v7.0117h-1.3828l-0.07813-0.5293c-0.31643 0.4138-0.71826 0.61914-1.2051 0.61914-0.58723 0-1.0527-0.22352-1.3965-0.67383-0.34382-0.45031-0.51563-1.0912-0.51563-1.9219 0-0.78195 0.17008-1.3993 0.50781-1.8496s0.80858-0.67383 1.4141-0.67383c0.44118 0 0.81206 0.17267 1.1133 0.51953zm-0.7207 3.168c-0.47465 0-0.73193 0.38365-0.77148 1.1504l-0.0039 0.2832c0 0.87628 0.25446 1.3145 0.76562 1.3145 0.34077 0 0.58442-0.14368 0.73047-0.42969v-1.8809c-0.13996-0.29209-0.37993-0.4375-0.7207-0.4375z" fill="#fff"/>
    <g display="none" fill="none">
        <rect transform="rotate(90)" x="7.8232" y="-20.923" width="13.1" height="13.1" display="inline" stroke="#000" stroke-width=".070382"/>
        <rect x="7.2241" y="8.6528" width="14.298" height="11.441" stroke="#5261ff" stroke-linecap="round" stroke-linejoin="round" stroke-width=".069589"/>
        <rect transform="rotate(90)" x="7.2241" y="-20.094" width="14.298" height="11.441" display="inline" stroke="#0f0" stroke-linecap="round" stroke-linejoin="round" stroke-width=".069589"/>
    </g>
</svg>
