<?xml version="1.0" encoding="UTF-8"?>
<svg version="1.1" viewBox="0 0 28.747 28.747" xmlns="http://www.w3.org/2000/svg" xmlns:osb="http://www.openswatchbook.org/uri/2009/osb" xmlns:xlink="http://www.w3.org/1999/xlink">
    <defs>
        <filter id="filter6206-7" color-interpolation-filters="sRGB">
            <feGaussianBlur stdDeviation="0.658125"/>
        </filter>
    </defs>
    <g transform="translate(0 -1093.8)">
        <path transform="matrix(1.0781 0 0 1.0641 -.093733 2.7509)" d="m4.4177 1028.2v1.6051h-1.6052v18.192h1.6052v2.1402h18.192v-2.1402h2.1402v-18.192h-2.1402v-1.6051z" fill="#3e2723" filter="url(#filter6206-7)" opacity=".2"/>
        <rect x="2.9987" y="1096.8" width="22.749" height="22.749" rx="1.1973" ry="1.1974" fill="#f44336"/>
        <g transform="translate(-22.32 1056.5)">
            <path d="m0 0h51.2v51.2h-51.2z" fill="none" stroke-width="1.0667"/>
            <g transform="matrix(.33601 0 0 .33601 1.5296 73.043)">
                <path d="m0 0h51.2v51.2h-51.2z" fill="none" stroke-width="1.0667"/>
            </g>
            <g transform="matrix(.37187 0 0 .37187 38.802 63.239)">
                <path d="m0 0h51.2v51.2h-51.2z" fill="none" stroke-width="1.0667"/>
                <g transform="matrix(2.6891 0 0 2.6891 -82.906 -48.45)">
                    <path d="m0 0h51.2v51.2h-51.2z" fill="none" stroke-width="1.0667"/>
                </g>
            </g>
        </g>
        <path d="m4.1958 1096.8c-0.66332 0-1.1979 0.5346-1.1979 1.1979v0.3334c0-0.6634 0.53459-1.1979 1.1979-1.1979h20.354c0.66332 0 1.1979 0.5345 1.1979 1.1979v-0.3334c0-0.6633-0.5346-1.1979-1.1979-1.1979z" fill="#fff" opacity=".2"/>
        <rect x="128" y="546.52" width="42.667" height="42.667" fill="none" stroke-width="1.0667"/>
        <rect x="128" y="631.85" width="42.667" height="42.667" fill="none" stroke-width="1.0667"/>
        <rect x="128" y="674.52" width="42.667" height="42.667" fill="none" stroke-width="1.0667"/>
        <rect x="128" y="589.19" width="42.667" height="42.667" fill="none" stroke-width="1.0667"/>
        <rect x="128" y="717.19" width="42.667" height="42.667" fill="none" stroke-width="1.0667"/>
        <rect x="213.33" y="546.52" width="42.667" height="42.667" fill="none" stroke-width="1.0667"/>
        <rect x="213.33" y="631.85" width="42.667" height="42.667" fill="none" stroke-width="1.0667"/>
        <rect x="213.33" y="674.52" width="42.667" height="42.667" fill="none" stroke-width="1.0667"/>
        <rect x="213.33" y="589.19" width="42.667" height="42.667" fill="none" stroke-width="1.0667"/>
        <rect x="213.33" y="717.19" width="42.667" height="42.667" fill="none" stroke-width="1.0667"/>
        <rect x="298.67" y="546.52" width="42.667" height="42.667" fill="none" stroke-width="1.0667"/>
        <rect x="298.67" y="631.85" width="42.667" height="42.667" fill="none" stroke-width="1.0667"/>
        <rect x="298.67" y="674.52" width="42.667" height="42.667" fill="none" stroke-width="1.0667"/>
        <rect x="298.67" y="589.19" width="42.667" height="42.667" fill="none" stroke-width="1.0667"/>
        <rect x="298.67" y="717.19" width="42.667" height="42.667" fill="none" stroke-width="1.0667"/>
        <rect x="170.67" y="546.52" width="42.667" height="42.667" fill="none" stroke-width="1.0667"/>
        <rect x="170.67" y="631.85" width="42.667" height="42.667" fill="none" stroke-width="1.0667"/>
        <rect x="170.67" y="674.52" width="42.667" height="42.667" fill="none" stroke-width="1.0667"/>
        <rect x="170.67" y="589.19" width="42.667" height="42.667" fill="none" stroke-width="1.0667"/>
        <rect x="170.67" y="717.19" width="42.667" height="42.667" fill="none" stroke-width="1.0667"/>
        <rect x="256" y="546.52" width="42.667" height="42.667" fill="none" stroke-width="1.0667"/>
        <rect x="256" y="631.85" width="42.667" height="42.667" fill="none" stroke-width="1.0667"/>
        <rect x="256" y="674.52" width="42.667" height="42.667" fill="none" stroke-width="1.0667"/>
        <rect x="256" y="589.19" width="42.667" height="42.667" fill="none" stroke-width="1.0667"/>
        <rect x="256" y="717.19" width="42.667" height="42.667" fill="none" stroke-width="1.0667"/>
        <rect x="128" y="759.85" width="42.667" height="42.667" fill="none" stroke-width="1.0667"/>
        <rect x="213.33" y="759.85" width="42.667" height="42.667" fill="none" stroke-width="1.0667"/>
        <rect x="298.67" y="759.85" width="42.667" height="42.667" fill="none" stroke-width="1.0667"/>
        <rect x="170.67" y="759.85" width="42.667" height="42.667" fill="none" stroke-width="1.0667"/>
        <rect x="256" y="759.85" width="42.667" height="42.667" fill="none" stroke-width="1.0667"/>
        <rect x="341.33" y="589.19" width="42.667" height="42.667" fill="none" stroke-width="1.0667"/>
        <rect x="341.33" y="631.85" width="42.667" height="42.667" fill="none" stroke-width="1.0667"/>
        <rect x="341.33" y="717.19" width="42.667" height="42.667" fill="none" stroke-width="1.0667"/>
        <rect x="341.33" y="546.52" width="42.667" height="42.667" fill="none" stroke-width="1.0667"/>
        <rect x="341.33" y="674.52" width="42.667" height="42.667" fill="none" stroke-width="1.0667"/>
        <rect x="341.33" y="759.85" width="42.667" height="42.667" fill="none" stroke-width="1.0667"/>
        <rect x="160" y="578.52" width="192" height="192" fill="none" stroke-width="1.0667"/>
        <g transform="matrix(.37344 0 0 .37344 4.7333 1097.4)">
            <path d="m0 0h51.2v51.2h-51.2z" fill="none" stroke-width="1.0667"/>
        </g>
        <g transform="matrix(.36471 0 0 .36471 5.1356 1097.4)">
            <path d="m0 0h51.2v51.2h-51.2z" fill="none" stroke-width="1.0667"/>
        </g>
        <g transform="matrix(.41585 0 0 .41585 84.325 1055.9)">
            <g transform="matrix(.062269 0 0 .062269 -28.238 185.29)">
                <g transform="matrix(38.618 0 0 38.618 14724 -13542)">
                    <g transform="matrix(.71436 0 0 .71436 -400.52 188.34)">
                        <path d="m1293.2-120.67c-181.75 0.2763-511.18 0.13525-699.05 0.13998-2.3216 10.413-3.593 21.251-3.593 32.384v114c207.65 0.73695 494.72 0.38136 706.23 0.3733v-114.37c0-11.18-1.2522-22.07-3.593-32.523zm-458.69 295.56c-78.385-4e-3 -158.85 0.17892-243.95 0.55995v138.63c286.34-0.39317 421.73-0.13827 706.23-0.32664v-137.75c-163.2-0.53005-311.22-1.1113-462.28-1.1199z" opacity="0" stroke-width="1.4932"/>
                    </g>
                </g>
            </g>
        </g>
        <path d="m24.549 1119.5c0.66325 0 1.1979-0.5346 1.1979-1.1979v-0.3333c0 0.6632-0.53461 1.1978-1.1979 1.1978h-20.354c-0.66325 0-1.1979-0.5346-1.1979-1.1978v0.3333c0 0.6633 0.53461 1.1979 1.1979 1.1979z" fill="#3e2723" opacity=".2"/>
    </g>
    <g>
        <path d="m13.232 18.966c-0.05839-0.0284-0.18816-0.08241-0.2884-0.12002l-0.18225-0.06838 0.20217-0.27403c0.11119-0.15072 0.20217-0.3344 0.20217-0.40818 0-0.0738 0.0538-0.1788 0.11954-0.23337 0.06576-0.05457 0.11954-0.22371 0.11954-0.37587 0-0.20962 0.03862-0.28675 0.1594-0.31833 0.20686-0.05409 0.21111-0.0396-0.15774-0.53889-0.17442-0.23611-0.42726-0.64601-0.56186-0.91089-0.1346-0.26488-0.27986-0.50331-0.3228-0.52985-0.10922-0.0675-1.1293-1.5981-1.3385-2.0085-0.09499-0.1863-0.20214-0.33872-0.23812-0.33872-0.03598 0-0.1644-0.18186-0.28537-0.40414l-0.21996-0.40414-0.33067 0.05552c-0.18187 0.03053-0.51 0.10508-0.72917 0.16566-0.79979 0.22104-1.3109 0.29129-1.4257 0.19596-0.059517-0.0494-0.1638-0.06848-0.23175-0.0424-0.079275 0.03043-0.15785-0.01906-0.21931-0.1381-0.052672-0.10203-0.16927-0.2662-0.2591-0.36483-0.089832-0.09863-0.12122-0.17932-0.069738-0.17932 0.051476 0 0.093589-0.05763 0.093589-0.12807 0-0.07498 0.044749-0.1109 0.10794-0.08666 0.14275 0.05478 0.52965-0.30924 0.52965-0.49833 0-0.10916 0.042124-0.1377 0.15843-0.10728 0.10049 0.02628 0.17648-0.0056 0.20777-0.08716 0.027139-0.07073 0.10556-0.12859 0.17426-0.12859 0.097994 0 0.085954-0.04147-0.055868-0.19243-0.22103-0.23528-0.12568-0.31038 0.51164-0.40299 0.21917-0.03185 0.4639-0.0929 0.54383-0.13568 0.3142-0.16814 2.6036-0.32595 3.2878-0.22663 0.35404 0.051387 0.77689 0.06845 0.93965 0.037918 0.21532-0.040397 0.33306-0.022189 0.43222 0.066832 0.07496 0.067299 0.24111 0.13432 0.36924 0.14894 0.17785 0.020291 0.25112 0.083148 0.30978 0.26569 0.05122 0.11592 0.03431 0.07037 0.16061 0.08646 0.06214-0.10052 0.14804 0.01434 0.27008 0.14128 0.13718 0.14264 0.1195 0.22901-0.04683 0.17925-0.09494-0.0284-0.16695 0.01702-0.19378 0.06045-0.05731 0.09272 0.23368 0.15812 0.33802 0.09363 0.03921-0.02424 0.17297 0.03969 0.29722 0.14208 0.14273 0.11761 0.31396 0.18028 0.46502 0.17021 0.1315-0.0088 0.30428-0.02057 0.38394-0.02623 0.10859-0.0077 0.1318-0.05138 0.0927-0.17459-0.04828-0.15213-0.02948-0.16028 0.25365-0.10988 0.3273 0.05826 0.55267 0.19449 0.32174 0.19449-0.16589 0-0.16586-0.0057-0.0016 0.32348 0.07361 0.14755 0.14832 0.22479 0.16604 0.17164 0.06635-0.19908 0.49859-0.11089 0.60059 0.12254 0.06906 0.15804 0.15336 0.21917 0.30222 0.21917 0.24125 0 0.49206-0.1804 0.41781-0.30053-0.03242-0.05244 0.01206-0.0666 0.12042-0.03827 0.19666 0.05143 0.22985-0.07834 0.0538-0.2103-0.08137-0.06097-0.09478-0.12544-0.04317-0.20737 0.05964-0.09467 0.09504-0.09873 0.17385-0.01993 0.05442 0.05442 0.1752 0.09895 0.26837 0.09895 0.09318 0 0.25364 0.08966 0.3566 0.19925 0.10295 0.10959 0.23442 0.19925 0.29216 0.19925 0.05774 0 0.14977 0.07173 0.20453 0.1594 0.05476 0.08768 0.16342 0.1594 0.24148 0.1594 0.07806 0 0.18279 0.08966 0.23272 0.19925 0.04993 0.10959 0.13814 0.19925 0.19602 0.19925s0.12661 0.08516 0.15274 0.18925c0.02612 0.10409 0.13081 0.22721 0.23265 0.27361 0.10183 0.0464 0.18309 0.1316 0.18056 0.18932-0.01671 0.38187 0.02081 0.48288 0.142 0.38231 0.18947-0.15725 0.2327-0.0307 0.1161 0.33981-0.04153 0.1211-0.12241 0.37474-0.17317 0.36658-0.0865-0.01122-0.16556-0.26036-0.25329-0.26254-0.14901-0.06215-0.23862 0.04092-0.18381 0.09573 0.08487 0.14412-0.10764 0.41842-0.29364 0.41842-0.19154 0-0.33203-0.18637-0.24575-0.32599 0.07879-0.12749-0.03903-0.07777-0.20207 0.08528-0.12144 0.12144-0.1352 0.17607-0.05978 0.23723 0.61236 0.4965 0.6306 0.5235 0.45877 0.67901-0.08884 0.08039-0.16153 0.19058-0.16153 0.24485 0 0.05427-0.0538 0.11931-0.11954 0.14454-0.06576 0.02523-0.11954 0.09661-0.11954 0.15863 0 0.06202-0.07173 0.13152-0.1594 0.15444-0.08768 0.02292-0.1594 0.10096-0.1594 0.1734 0 0.07302-0.03789 0.10829-0.08504 0.07916-0.04677-0.0289-0.07838-0.0041-0.07026 0.05508 0.04394 0.32018-0.01539 0.5388-0.15858 0.58425-0.09133 0.029-0.16463 0.13568-0.17932 0.26104-0.0182 0.15533-0.11008 0.25553-0.34365 0.37476-0.17534 0.08952-0.33673 0.18068-0.35864 0.2026-0.16161 0.16161-0.3985 0.23308-0.3985 0.12022 0-0.06613-0.02049-0.12022-0.04555-0.12022-0.07821 0-0.27325 0.22349-0.27325 0.3131 0 0.04697-0.0701 0.08539-0.15578 0.08539-0.08567 0-0.24544 0.08966-0.35502 0.19925-0.16541 0.16541-0.27556 0.19925-0.64857 0.19925-0.32864 0-0.50375 0.04281-0.65196 0.1594-0.11144 0.08767-0.24297 0.1594-0.29227 0.1594-0.0493 0-0.13345 0.07016-0.18701 0.15592-0.17986 0.288-1.9938 0.52024-2.425 0.31048zm4.6199-2.7579c2.0158-0.89022 1.0756-2.4861-2.0298-3.4452-1.4524-0.44861-1.6398-0.23952-0.75014 0.83711 0.17892 0.21652 0.32532 0.41939 0.32532 0.45081 0 0.03142 0.09384 0.1576 0.20854 0.28041 0.60033 0.64276 1.0601 1.5009 1.0803 2.0164 0.01499 0.38266-0.02838 0.38785 1.1658-0.13953zm2.3554-2.4714c0.02062-0.03335-0.0086-0.12375-0.06503-0.20086-0.09352-0.12791-0.10253-0.12258-0.10253 0.06065 0 0.19277 0.08902 0.26726 0.16755 0.1402zm-0.40138-0.45825c-0.10751-0.07862-0.15819-0.08171-0.2011-0.01233-0.03296 0.05333 8.01e-4 0.11402 0.07919 0.14263 0.20537 0.07492 0.28548-0.01074 0.1219-0.13034zm-1.5728-2.0725c-0.09476-0.0717-0.18593-0.08821-0.23986-0.04346-0.12847 0.10662-0.64337-0.01973-0.64337-0.15787 0-0.1431 0.40602-0.20248 0.55261-0.08082 0.05753 0.04775 0.15834 0.06622 0.224 0.04102 0.12025-0.04614 0.37903 0.15038 0.37903 0.28785 0 0.1042-0.09433 0.08801-0.27241-0.04673z" fill="#fff"/>
    </g>
    <g display="none" fill="none">
        <rect transform="rotate(90)" x="7.8232" y="-20.923" width="13.1" height="13.1" display="inline" stroke="#000" stroke-width=".070382"/>
        <rect x="7.2241" y="8.6528" width="14.298" height="11.441" stroke="#5261ff" stroke-linecap="round" stroke-linejoin="round" stroke-width=".069589"/>
        <rect transform="rotate(90)" x="7.2241" y="-20.094" width="14.298" height="11.441" display="inline" stroke="#0f0" stroke-linecap="round" stroke-linejoin="round" stroke-width=".069589"/>
    </g>
</svg>
