<?xml version="1.0" encoding="UTF-8"?>
<svg version="1.1" viewBox="0 0 28.747 28.747" xmlns="http://www.w3.org/2000/svg">
    <defs>
        <filter id="filter6206-7" color-interpolation-filters="sRGB">
            <feGaussianBlur stdDeviation="0.658125"/>
        </filter>
    </defs>
    <g transform="translate(0 -1093.8)">
        <path transform="matrix(1.0781 0 0 1.0641 -.093733 2.7509)" d="m4.4177 1028.2v1.6051h-1.6052v18.192h1.6052v2.1402h18.192v-2.1402h2.1402v-18.192h-2.1402v-1.6051z" fill="#263238" filter="url(#filter6206-7)" opacity=".2"/>
        <rect x="2.9987" y="1096.8" width="22.749" height="22.749" rx="1.1973" ry="1.1974" fill="#00bcd4"/>
        <g transform="translate(-22.32 1056.5)">
            <path d="m0 0h51.2v51.2h-51.2z" fill="none" stroke-width="1.0667"/>
            <g transform="matrix(.33601 0 0 .33601 1.5296 73.043)">
                <path d="m0 0h51.2v51.2h-51.2z" fill="none" stroke-width="1.0667"/>
            </g>
            <g transform="matrix(.37187 0 0 .37187 38.802 63.239)">
                <path d="m0 0h51.2v51.2h-51.2z" fill="none" stroke-width="1.0667"/>
                <g transform="matrix(2.6891 0 0 2.6891 -82.906 -48.45)">
                    <path d="m0 0h51.2v51.2h-51.2z" fill="none" stroke-width="1.0667"/>
                </g>
            </g>
        </g>
        <path d="m4.1958 1096.8c-0.66332 0-1.1979 0.5346-1.1979 1.1979v0.3334c0-0.6634 0.53459-1.1979 1.1979-1.1979h20.354c0.66332 0 1.1979 0.5345 1.1979 1.1979v-0.3334c0-0.6633-0.5346-1.1979-1.1979-1.1979z" fill="#fff" opacity=".2"/>
        <rect x="128" y="546.52" width="42.667" height="42.667" fill="none" stroke-width="1.0667"/>
        <rect x="128" y="631.85" width="42.667" height="42.667" fill="none" stroke-width="1.0667"/>
        <rect x="128" y="674.52" width="42.667" height="42.667" fill="none" stroke-width="1.0667"/>
        <rect x="128" y="589.19" width="42.667" height="42.667" fill="none" stroke-width="1.0667"/>
        <rect x="128" y="717.19" width="42.667" height="42.667" fill="none" stroke-width="1.0667"/>
        <rect x="213.33" y="546.52" width="42.667" height="42.667" fill="none" stroke-width="1.0667"/>
        <rect x="213.33" y="631.85" width="42.667" height="42.667" fill="none" stroke-width="1.0667"/>
        <rect x="213.33" y="674.52" width="42.667" height="42.667" fill="none" stroke-width="1.0667"/>
        <rect x="213.33" y="589.19" width="42.667" height="42.667" fill="none" stroke-width="1.0667"/>
        <rect x="213.33" y="717.19" width="42.667" height="42.667" fill="none" stroke-width="1.0667"/>
        <rect x="298.67" y="546.52" width="42.667" height="42.667" fill="none" stroke-width="1.0667"/>
        <rect x="298.67" y="631.85" width="42.667" height="42.667" fill="none" stroke-width="1.0667"/>
        <rect x="298.67" y="674.52" width="42.667" height="42.667" fill="none" stroke-width="1.0667"/>
        <rect x="298.67" y="589.19" width="42.667" height="42.667" fill="none" stroke-width="1.0667"/>
        <rect x="298.67" y="717.19" width="42.667" height="42.667" fill="none" stroke-width="1.0667"/>
        <rect x="170.67" y="546.52" width="42.667" height="42.667" fill="none" stroke-width="1.0667"/>
        <rect x="170.67" y="631.85" width="42.667" height="42.667" fill="none" stroke-width="1.0667"/>
        <rect x="170.67" y="674.52" width="42.667" height="42.667" fill="none" stroke-width="1.0667"/>
        <rect x="170.67" y="589.19" width="42.667" height="42.667" fill="none" stroke-width="1.0667"/>
        <rect x="170.67" y="717.19" width="42.667" height="42.667" fill="none" stroke-width="1.0667"/>
        <rect x="256" y="546.52" width="42.667" height="42.667" fill="none" stroke-width="1.0667"/>
        <rect x="256" y="631.85" width="42.667" height="42.667" fill="none" stroke-width="1.0667"/>
        <rect x="256" y="674.52" width="42.667" height="42.667" fill="none" stroke-width="1.0667"/>
        <rect x="256" y="589.19" width="42.667" height="42.667" fill="none" stroke-width="1.0667"/>
        <rect x="256" y="717.19" width="42.667" height="42.667" fill="none" stroke-width="1.0667"/>
        <rect x="128" y="759.85" width="42.667" height="42.667" fill="none" stroke-width="1.0667"/>
        <rect x="213.33" y="759.85" width="42.667" height="42.667" fill="none" stroke-width="1.0667"/>
        <rect x="298.67" y="759.85" width="42.667" height="42.667" fill="none" stroke-width="1.0667"/>
        <rect x="170.67" y="759.85" width="42.667" height="42.667" fill="none" stroke-width="1.0667"/>
        <rect x="256" y="759.85" width="42.667" height="42.667" fill="none" stroke-width="1.0667"/>
        <rect x="341.33" y="589.19" width="42.667" height="42.667" fill="none" stroke-width="1.0667"/>
        <rect x="341.33" y="631.85" width="42.667" height="42.667" fill="none" stroke-width="1.0667"/>
        <rect x="341.33" y="717.19" width="42.667" height="42.667" fill="none" stroke-width="1.0667"/>
        <rect x="341.33" y="546.52" width="42.667" height="42.667" fill="none" stroke-width="1.0667"/>
        <rect x="341.33" y="674.52" width="42.667" height="42.667" fill="none" stroke-width="1.0667"/>
        <rect x="341.33" y="759.85" width="42.667" height="42.667" fill="none" stroke-width="1.0667"/>
        <rect x="160" y="578.52" width="192" height="192" fill="none" stroke-width="1.0667"/>
        <g transform="matrix(.37344 0 0 .37344 4.7333 1097.4)">
            <path d="m0 0h51.2v51.2h-51.2z" fill="none" stroke-width="1.0667"/>
        </g>
        <g transform="matrix(.36471 0 0 .36471 5.1356 1097.4)">
            <path d="m0 0h51.2v51.2h-51.2z" fill="none" stroke-width="1.0667"/>
        </g>
        <g transform="matrix(.41585 0 0 .41585 84.325 1055.9)">
            <g transform="matrix(.062269 0 0 .062269 -28.238 185.29)">
                <g transform="matrix(38.618 0 0 38.618 14724 -13542)">
                    <g transform="matrix(.71436 0 0 .71436 -400.52 188.34)">
                        <path d="m1293.2-120.67c-181.75 0.2763-511.18 0.13525-699.05 0.13998-2.3216 10.413-3.593 21.251-3.593 32.384v114c207.65 0.73695 494.72 0.38136 706.23 0.3733v-114.37c0-11.18-1.2522-22.07-3.593-32.523zm-458.69 295.56c-78.385-4e-3 -158.85 0.17892-243.95 0.55995v138.63c286.34-0.39317 421.73-0.13827 706.23-0.32664v-137.75c-163.2-0.53005-311.22-1.1113-462.28-1.1199z" opacity="0" stroke-width="1.4932"/>
                    </g>
                </g>
            </g>
        </g>
        <path d="m24.549 1119.5c0.66325 0 1.1979-0.5346 1.1979-1.1979v-0.3333c0 0.6632-0.53461 1.1978-1.1979 1.1978h-20.354c-0.66325 0-1.1979-0.5346-1.1979-1.1978v0.3333c0 0.6633 0.53461 1.1979 1.1979 1.1979z" fill="#263238" opacity=".2"/>
    </g>
    <g letter-spacing="0px" word-spacing="0px">
        <flowRoot fill="#000000" font-family="Roboto" font-size="12.8px" stroke-width="1.0667px" style="line-height:0.01%" xml:space="preserve"><flowRegion><rect x="11.375" y="11.984" width="4.7893" height="5.388" stroke-width="1.1378px"/></flowRegion><flowPara font-size="4px" style="line-height:1.25">your</flowPara></flowRoot>
        <g fill="#fff" stroke-width=".097367px" aria-label="DNS66">
            <path d="m20.292 14.385q-0.19207 0-0.28906 0.12551-0.09509 0.12361-0.09509 0.37274t0.09509 0.37464q0.09699 0.12361 0.28906 0.12361 0.19397 0 0.28906-0.12361 0.09699-0.12551 0.09699-0.37464t-0.09699-0.37274q-0.09509-0.12551-0.28906-0.12551zm0.90521-1.3635v0.52487q-0.18066-0.08558-0.34041-0.12551-0.15974-0.04184-0.31188-0.04184-0.32709 0-0.50966 0.18256-0.18256 0.18066-0.21299 0.53818 0.12551-0.09318 0.27194-0.13882 0.14643-0.04754 0.31949-0.04754 0.43549 0 0.70173 0.25483 0.26814 0.25483 0.26814 0.6675 0 0.45641-0.29857 0.73216-0.29857 0.27385-0.80062 0.27385-0.5534 0-0.85767-0.37274-0.30237-0.37464-0.30237-1.0612 0-0.70363 0.35372-1.1049 0.35562-0.40316 0.97368-0.40316 0.19588 0 0.38034 0.03043 0.18446 0.03043 0.36513 0.09128zm-3.6132 1.3635q-0.19207 0-0.28906 0.12551-0.09509 0.12361-0.09509 0.37274t0.09509 0.37464q0.09699 0.12361 0.28906 0.12361 0.19397 0 0.28906-0.12361 0.09699-0.12551 0.09699-0.37464t-0.09699-0.37274q-0.09509-0.12551-0.28906-0.12551zm0.90521-1.3635v0.52487q-0.18066-0.08558-0.34041-0.12551-0.15974-0.04184-0.31188-0.04184-0.32709 0-0.50966 0.18256-0.18256 0.18066-0.21299 0.53818 0.12551-0.09318 0.27194-0.13882 0.14643-0.04754 0.31949-0.04754 0.43549 0 0.70173 0.25483 0.26814 0.25483 0.26814 0.6675 0 0.45641-0.29857 0.73216-0.29857 0.27385-0.80062 0.27385-0.5534 0-0.85767-0.37274-0.30237-0.37464-0.30237-1.0612 0-0.70363 0.35372-1.1049 0.35562-0.40316 0.97368-0.40316 0.19588 0 0.38034 0.03043t0.36513 0.09128zm-2.7879 0.01521v0.60094q-0.23391-0.10459-0.45641-0.15784-0.2225-0.05325-0.42028-0.05325-0.26244 0-0.38795 0.07226t-0.12551 0.2244q0 0.1141 0.08368 0.17876 0.08558 0.06276 0.30808 0.1084l0.31188 0.06276q0.47353 0.09509 0.6732 0.28906 0.19968 0.19397 0.19968 0.5515 0 0.46972-0.27955 0.69983-0.27765 0.2282-0.85006 0.2282-0.27004 0-0.54199-0.05135-0.27194-0.05135-0.54389-0.15214v-0.61806q0.27194 0.14453 0.52487 0.2187 0.25483 0.07227 0.49064 0.07227 0.23962 0 0.36703-0.07987 0.12742-0.07987 0.12742-0.2282 0-0.13312-0.08748-0.20538-0.08558-0.07226-0.34421-0.12932l-0.28336-0.06276q-0.42598-0.09128-0.62376-0.29096-0.19588-0.19968-0.19588-0.53818 0-0.42408 0.27385-0.65229t0.78731-0.2282q0.23391 0 0.48113 0.03613 0.24722 0.03423 0.51156 0.10459zm-5.2392-0.08938h0.81774l1.0326 1.9474v-1.9474h0.69412v2.8393h-0.81774l-1.0326-1.9473v1.9474h-0.69412zm-2.5007 0.5534v1.7325h0.26244q0.4488 0 0.68462-0.2225 0.23771-0.2225 0.23771-0.64658 0-0.42218-0.23581-0.64278t-0.68652-0.2206zm-0.73216-0.5534h0.77209q0.64658 0 0.96226 0.09318 0.31759 0.09128 0.54389 0.31188 0.19968 0.19207 0.29667 0.4431 0.096987 0.25102 0.096987 0.56861 0 0.32139-0.096987 0.57432-0.096987 0.25102-0.29667 0.4431-0.22821 0.2206-0.54769 0.31378-0.31949 0.09128-0.95846 0.09128h-0.77209z" fill="#fff" stroke-width=".097367px"/>
        </g>
    </g>
    <g display="none" fill="none">
        <rect transform="rotate(90)" x="7.8232" y="-20.923" width="13.1" height="13.1" display="inline" stroke="#000" stroke-width=".070382"/>
        <rect x="7.2241" y="8.6528" width="14.298" height="11.441" stroke="#5261ff" stroke-linecap="round" stroke-linejoin="round" stroke-width=".069589"/>
        <rect transform="rotate(90)" x="7.2241" y="-20.094" width="14.298" height="11.441" display="inline" stroke="#0f0" stroke-linecap="round" stroke-linejoin="round" stroke-width=".069589"/>
    </g>
</svg>
