<?xml version="1.0" encoding="UTF-8"?>
<svg version="1.1" viewBox="0 0 28.747 28.747" xmlns="http://www.w3.org/2000/svg" xmlns:xlink="http://www.w3.org/1999/xlink">
    <defs>
        <filter id="filter6206-7" x="-.072" y="-.072" width="1.144" height="1.144" color-interpolation-filters="sRGB">
            <feGaussianBlur stdDeviation="0.658125"/>
        </filter>
    </defs>
    <g transform="translate(0 -1093.8)">
        <path transform="matrix(1.0781 0 0 1.0641 -.093733 2.7509)" d="m4.4177 1028.2v1.6051h-1.6052v18.192h1.6052v2.1402h18.192v-2.1402h2.1402v-18.192h-2.1402v-1.6051z" fill="#263238" filter="url(#filter6206-7)" opacity=".2"/>
        <rect x="2.9987" y="1096.8" width="22.749" height="22.749" rx="1.1973" ry="1.1974" fill="#03a9f4"/>
        <g transform="translate(-22.32 1056.5)">
            <path d="m0 0h51.2v51.2h-51.2z" fill="none" stroke-width="1.0667"/>
            <g transform="matrix(.33601 0 0 .33601 1.5296 73.043)">
                <path d="m0 0h51.2v51.2h-51.2z" fill="none" stroke-width="1.0667"/>
            </g>
            <g transform="matrix(.37187 0 0 .37187 38.802 63.239)">
                <path d="m0 0h51.2v51.2h-51.2z" fill="none" stroke-width="1.0667"/>
                <g transform="matrix(2.6891 0 0 2.6891 -82.906 -48.45)">
                    <path d="m0 0h51.2v51.2h-51.2z" fill="none" stroke-width="1.0667"/>
                </g>
            </g>
        </g>
        <path d="m4.1958 1096.8c-0.66332 0-1.1979 0.5346-1.1979 1.1979v0.3334c0-0.6634 0.53459-1.1979 1.1979-1.1979h20.354c0.66332 0 1.1979 0.5345 1.1979 1.1979v-0.3334c0-0.6633-0.5346-1.1979-1.1979-1.1979z" fill="#fff" opacity=".2"/>
        <rect x="128" y="546.52" width="42.667" height="42.667" fill="none" stroke-width="1.0667"/>
        <rect x="128" y="631.85" width="42.667" height="42.667" fill="none" stroke-width="1.0667"/>
        <rect x="128" y="674.52" width="42.667" height="42.667" fill="none" stroke-width="1.0667"/>
        <rect x="128" y="589.19" width="42.667" height="42.667" fill="none" stroke-width="1.0667"/>
        <rect x="128" y="717.19" width="42.667" height="42.667" fill="none" stroke-width="1.0667"/>
        <rect x="213.33" y="546.52" width="42.667" height="42.667" fill="none" stroke-width="1.0667"/>
        <rect x="213.33" y="631.85" width="42.667" height="42.667" fill="none" stroke-width="1.0667"/>
        <rect x="213.33" y="674.52" width="42.667" height="42.667" fill="none" stroke-width="1.0667"/>
        <rect x="213.33" y="589.19" width="42.667" height="42.667" fill="none" stroke-width="1.0667"/>
        <rect x="213.33" y="717.19" width="42.667" height="42.667" fill="none" stroke-width="1.0667"/>
        <rect x="298.67" y="546.52" width="42.667" height="42.667" fill="none" stroke-width="1.0667"/>
        <rect x="298.67" y="631.85" width="42.667" height="42.667" fill="none" stroke-width="1.0667"/>
        <rect x="298.67" y="674.52" width="42.667" height="42.667" fill="none" stroke-width="1.0667"/>
        <rect x="298.67" y="589.19" width="42.667" height="42.667" fill="none" stroke-width="1.0667"/>
        <rect x="298.67" y="717.19" width="42.667" height="42.667" fill="none" stroke-width="1.0667"/>
        <rect x="170.67" y="546.52" width="42.667" height="42.667" fill="none" stroke-width="1.0667"/>
        <rect x="170.67" y="631.85" width="42.667" height="42.667" fill="none" stroke-width="1.0667"/>
        <rect x="170.67" y="674.52" width="42.667" height="42.667" fill="none" stroke-width="1.0667"/>
        <rect x="170.67" y="589.19" width="42.667" height="42.667" fill="none" stroke-width="1.0667"/>
        <rect x="170.67" y="717.19" width="42.667" height="42.667" fill="none" stroke-width="1.0667"/>
        <rect x="256" y="546.52" width="42.667" height="42.667" fill="none" stroke-width="1.0667"/>
        <rect x="256" y="631.85" width="42.667" height="42.667" fill="none" stroke-width="1.0667"/>
        <rect x="256" y="674.52" width="42.667" height="42.667" fill="none" stroke-width="1.0667"/>
        <rect x="256" y="589.19" width="42.667" height="42.667" fill="none" stroke-width="1.0667"/>
        <rect x="256" y="717.19" width="42.667" height="42.667" fill="none" stroke-width="1.0667"/>
        <rect x="128" y="759.85" width="42.667" height="42.667" fill="none" stroke-width="1.0667"/>
        <rect x="213.33" y="759.85" width="42.667" height="42.667" fill="none" stroke-width="1.0667"/>
        <rect x="298.67" y="759.85" width="42.667" height="42.667" fill="none" stroke-width="1.0667"/>
        <rect x="170.67" y="759.85" width="42.667" height="42.667" fill="none" stroke-width="1.0667"/>
        <rect x="256" y="759.85" width="42.667" height="42.667" fill="none" stroke-width="1.0667"/>
        <rect x="341.33" y="589.19" width="42.667" height="42.667" fill="none" stroke-width="1.0667"/>
        <rect x="341.33" y="631.85" width="42.667" height="42.667" fill="none" stroke-width="1.0667"/>
        <rect x="341.33" y="717.19" width="42.667" height="42.667" fill="none" stroke-width="1.0667"/>
        <rect x="341.33" y="546.52" width="42.667" height="42.667" fill="none" stroke-width="1.0667"/>
        <rect x="341.33" y="674.52" width="42.667" height="42.667" fill="none" stroke-width="1.0667"/>
        <rect x="341.33" y="759.85" width="42.667" height="42.667" fill="none" stroke-width="1.0667"/>
        <rect x="160" y="578.52" width="192" height="192" fill="none" stroke-width="1.0667"/>
        <g transform="matrix(.37344 0 0 .37344 4.7333 1097.4)">
            <path d="m0 0h51.2v51.2h-51.2z" fill="none" stroke-width="1.0667"/>
        </g>
        <g transform="matrix(.36471 0 0 .36471 5.1356 1097.4)">
            <path d="m0 0h51.2v51.2h-51.2z" fill="none" stroke-width="1.0667"/>
        </g>
        <g transform="matrix(.41585 0 0 .41585 84.325 1055.9)">
            <g transform="matrix(.062269 0 0 .062269 -28.238 185.29)">
                <g transform="matrix(38.618 0 0 38.618 14724 -13542)">
                    <g transform="matrix(.71436 0 0 .71436 -400.52 188.34)">
                        <path d="m1293.2-120.67c-181.75 0.2763-511.18 0.13525-699.05 0.13998-2.3216 10.413-3.593 21.251-3.593 32.384v114c207.65 0.73695 494.72 0.38136 706.23 0.3733v-114.37c0-11.18-1.2522-22.07-3.593-32.523zm-458.69 295.56c-78.385-4e-3 -158.85 0.17892-243.95 0.55995v138.63c286.34-0.39317 421.73-0.13827 706.23-0.32664v-137.75c-163.2-0.53005-311.22-1.1113-462.28-1.1199z" opacity="0" stroke-width="1.4932"/>
                    </g>
                </g>
            </g>
        </g>
        <path d="m24.549 1119.5c0.66325 0 1.1979-0.5346 1.1979-1.1979v-0.3333c0 0.6632-0.53461 1.1978-1.1979 1.1978h-20.354c-0.66325 0-1.1979-0.5346-1.1979-1.1978v0.3333c0 0.6633 0.53461 1.1979 1.1979 1.1979z" fill="#263238" opacity=".2"/>
    </g>
    <g>
        <g transform="translate(.62331 2.4658)" fill="#fff">
            <a fill="#fff">
                <g transform="matrix(.0069335 0 0 .0069335 6.6499 4.8011)" fill="#fff">
                    <path d="m1926 1246.1c-94.261-173.94-175.33-298.28-310.4-424.56-43.445-40.618-84.6-76.916-127.45-109.5h0.047s-0.329-0.232-0.926-0.673c-0.801-0.607-1.602-1.214-2.403-1.818-15.987-12.352-83.345-69.109-59.382-131.77 8.031-21 27.421-38.45 50.479-52.569l124.09-1.011c-66.508-53.792-140.93-64.974-199.82-62.532-119.33 7.655-226.54 77.432-246.59 87.241-64.265-18.396-137.59-34.619-223.34-49.168-296.61-50.323-547.64 29.896-673.6 117.32-165.1 114.59-155.14 223.4-176.84 274.07-32.04 74.798-73.685 103.63-79.815 183.07l15.489 15.96 58.397-19.849 6.985-24.359c24.022-8.59 50.325-20.532 74.217-30.359 59.615-24.521 64.209-37.858 227.13-62.167 74.956-11.184 153.84-14.393 212.58-14.886 22.855 48.26 79.68 147.46 178.13 195.04 64.027 30.944 135.74 46.795 192.88 54.915l-7.493 37.679 113.67 16.846-69.618-63.223c-43.302-39.054-43.209-39.214-84.58-81.137-39.956-39.953-49.518-100.64-51.552-135.34l0.359 0.033c96.193 18.278 180.22 31.468 381.16 108.42 37.166 14.233 71.829 29.835 103.41 45.589l-5.935 3.35 90.575 73.044 108.18 89.527c-22.111-127.45-247.45-258.87-332.18-303.01-171.1-84.392-311.58-126.09-506.23-135.53-212.76-10.319-369.52 16.999-369.52 16.999s4.385-94.537 165-169.88c139.67-65.516 359.39-76.481 611.56-12.15 356.26 90.886 477.77 245.65 631.01 405.57 97.226 101.46 186.61 244.23 242.95 343.01l-9.49-4.259 29.19 75.387 41.753 89.096c-11.909-124.45-73.45-251.24-122.07-342.43z"/>
                    <path d="m1926 1292c-94.261-173.94-175.33-298.28-310.4-424.56-43.446-40.619-84.601-76.917-127.45-109.5l0.049 0.01s-0.34-0.24-0.962-0.699c-0.773-0.586-1.547-1.172-2.321-1.757-15.904-12.279-83.413-69.084-59.428-131.8 26.32-68.822 174.56-99.582 174.56-99.582s-72.661-24.686-199.81-16.53c-119.33 7.655-226.54 77.432-246.59 87.241-64.265-18.396-137.59-34.619-223.34-49.168-296.61-50.323-547.64 29.896-673.6 117.32-165.1 114.59-160.53 221.37-174.14 274.78-9.794 38.432-109.39 114.77-75.534 156.37 21.122 25.95 91.411-9.289 148.11-32.611 59.615-24.521 64.209-37.859 227.13-62.168 74.956-11.184 153.84-14.393 212.58-14.886 22.855 48.26 79.68 147.46 178.13 195.04 132.93 64.246 299 63.438 299 63.438s-95.434-39.648-154.15-98.356c-39.956-39.953-49.518-100.64-51.552-135.34l0.359 0.033c96.193 18.278 180.22 31.468 381.16 108.42 175.82 67.334 295.91 165.26 295.91 165.26s-123.48-153.98-331.86-256.76c-171.1-84.391-311.58-126.09-506.23-135.53-212.76-10.319-369.52 16.999-369.52 16.999s4.385-94.537 165-169.88c139.67-65.516 359.39-76.481 611.56-12.15 356.26 90.886 477.77 245.65 631.01 405.57 163.11 170.22 304.15 456.68 304.15 456.68s-43.489-151.36-121.81-295.89z"/>
                </g>
            </a>
        </g>
    </g>
    <g display="none" fill="none">
        <rect transform="rotate(90)" x="7.8232" y="-20.923" width="13.1" height="13.1" display="inline" stroke="#000" stroke-width=".070382"/>
        <rect x="7.2241" y="8.6528" width="14.298" height="11.441" stroke="#5261ff" stroke-linecap="round" stroke-linejoin="round" stroke-width=".06959"/>
        <rect transform="rotate(90)" x="7.2241" y="-20.094" width="14.298" height="11.441" display="inline" stroke="#0f0" stroke-linecap="round" stroke-linejoin="round" stroke-width=".06959"/>
    </g>
</svg>
