<?xml version="1.0" encoding="UTF-8"?>
<svg version="1.1" viewBox="0 0 26.95 26.95" xmlns="http://www.w3.org/2000/svg">
    <defs>
        <filter id="filter6206-7" color-interpolation-filters="sRGB">
            <feGaussianBlur stdDeviation="0.658125"/>
        </filter>
    </defs>
    <g transform="translate(0 -1025.4)">
        <path transform="matrix(1.0107 0 0 .99762 -.087875 2.579)" d="m4.4177 1028.2v1.6051h-1.6052v18.192h1.6052v2.1402h18.192v-2.1402h2.1402v-18.192h-2.1402v-1.6051h-18.192z" fill="#212121" filter="url(#filter6206-7)" opacity=".2"/>
        <rect x="2.8113" y="1028.2" width="21.327" height="21.327" rx="1.1225" ry="1.1226" fill="#9e9e9e"/>
        <g transform="translate(-20.925 990.46)">
            <path d="m0 0h48v48h-48z" fill="none"/>
            <g transform="matrix(.33601 0 0 .33601 1.434 68.477)">
                <path d="m0 0h48v48h-48z" fill="none"/>
            </g>
            <g transform="matrix(.37187 0 0 .37187 36.377 59.287)">
                <path d="m0 0h48v48h-48z" fill="none"/>
                <g transform="matrix(2.6891 0 0 2.6891 -77.724 -45.422)">
                    <path d="m0 0h48v48h-48z" fill="none"/>
                </g>
            </g>
        </g>
        <path transform="translate(0 1025.4)" d="m3.9336 2.8105c-0.62186 0-1.123 0.50115-1.123 1.123v0.3125c0-0.6219 0.50118-1.123 1.123-1.123h19.082c0.62186 0 1.123 0.50115 1.123 1.123v-0.3125c0-0.6219-0.50118-1.123-1.123-1.123h-19.082z" fill="#fff" opacity=".2"/>
        <rect x="120" y="512.36" width="40" height="40" fill="none"/>
        <rect x="120" y="592.36" width="40" height="40" fill="none"/>
        <rect x="120" y="632.36" width="40" height="40" fill="none"/>
        <rect x="120" y="552.36" width="40" height="40" fill="none"/>
        <rect x="120" y="672.36" width="40" height="40" fill="none"/>
        <rect x="200" y="512.36" width="40" height="40" fill="none"/>
        <rect x="200" y="592.36" width="40" height="40" fill="none"/>
        <rect x="200" y="632.36" width="40" height="40" fill="none"/>
        <rect x="200" y="552.36" width="40" height="40" fill="none"/>
        <rect x="200" y="672.36" width="40" height="40" fill="none"/>
        <rect x="280" y="512.36" width="40" height="40" fill="none"/>
        <rect x="280" y="592.36" width="40" height="40" fill="none"/>
        <rect x="280" y="632.36" width="40" height="40" fill="none"/>
        <rect x="280" y="552.36" width="40" height="40" fill="none"/>
        <rect x="280" y="672.36" width="40" height="40" fill="none"/>
        <rect x="160" y="512.36" width="40" height="40" fill="none"/>
        <rect x="160" y="592.36" width="40" height="40" fill="none"/>
        <rect x="160" y="632.36" width="40" height="40" fill="none"/>
        <rect x="160" y="552.36" width="40" height="40" fill="none"/>
        <rect x="160" y="672.36" width="40" height="40" fill="none"/>
        <rect x="240" y="512.36" width="40" height="40" fill="none"/>
        <rect x="240" y="592.36" width="40" height="40" fill="none"/>
        <rect x="240" y="632.36" width="40" height="40" fill="none"/>
        <rect x="240" y="552.36" width="40" height="40" fill="none"/>
        <rect x="240" y="672.36" width="40" height="40" fill="none"/>
        <rect x="120" y="712.36" width="40" height="40" fill="none"/>
        <rect x="200" y="712.36" width="40" height="40" fill="none"/>
        <rect x="280" y="712.36" width="40" height="40" fill="none"/>
        <rect x="160" y="712.36" width="40" height="40" fill="none"/>
        <rect x="240" y="712.36" width="40" height="40" fill="none"/>
        <rect x="320" y="552.36" width="40" height="40" fill="none"/>
        <rect x="320" y="592.36" width="40" height="40" fill="none"/>
        <rect x="320" y="672.36" width="40" height="40" fill="none"/>
        <rect x="320" y="512.36" width="40" height="40" fill="none"/>
        <rect x="320" y="632.36" width="40" height="40" fill="none"/>
        <rect x="320" y="712.36" width="40" height="40" fill="none"/>
        <rect x="150" y="542.36" width="180" height="180" fill="none"/>
        <g transform="matrix(.37344 0 0 .37344 4.4375 1028.8)">
            <path d="m0 0h48v48h-48z" fill="none"/>
        </g>
        <g transform="matrix(.36471 0 0 .36471 4.8146 1028.8)">
            <path d="m0 0h48v48h-48z" fill="none"/>
        </g>
        <g transform="matrix(.41585 0 0 .41585 79.055 989.88)">
            <g transform="matrix(.062269 0 0 .062269 -26.473 173.71)">
                <g transform="matrix(38.618 0 0 38.618 13804 -12696)">
                    <g transform="matrix(.71436 0 0 .71436 -375.49 176.57)">
                        <path transform="matrix(1.3999 0 0 1.3999 525.63 -247.17)" d="m490.56 95.75c-121.72 0.18504-342.34 0.090577-468.16 0.09375-1.5548 6.9739-2.4062 14.232-2.4062 21.688v76.344c139.06 0.49354 331.32 0.2554 472.97 0.25v-76.594c0-7.4875-0.8386-14.78-2.4062-21.781zm-307.19 197.94c-52.495-3e-3 -106.38 0.11982-163.38 0.375v92.844c191.76-0.26331 282.43-0.0926 472.97-0.21875v-92.25c-109.29-0.35498-208.43-0.74426-309.59-0.75z" opacity="0"/>
                    </g>
                </g>
            </g>
        </g>
        <path d="m23.015 1049.6c0.6218 0 1.123-0.5012 1.123-1.123v-0.3125c0 0.6218-0.5012 1.123-1.123 1.123h-19.082c-0.6218 0-1.123-0.5012-1.123-1.123v0.3125c0 0.6218 0.5012 1.123 1.123 1.123h19.082z" fill="#212121" opacity=".2"/>
    </g>
    <flowRoot fill="#000000" font-family="Roboto" font-size="3.75px" letter-spacing="0px" stroke-width="1px" word-spacing="0px" style="line-height:125%" xml:space="preserve"><flowRegion><rect x="10.664" y="11.235" width="4.49" height="5.0512"/></flowRegion><flowPara>your</flowPara></flowRoot>
    <g transform="matrix(.62288 0 0 .62288 -21.324 91.926)">
        <path d="m-410.92-16.87v-187.5h375v375h-375v-187.5z" fill="#fdfdfd"/>
        <path d="m58.409-115.87c0.11867-0.11868 0.16942-0.25177 0.13244-0.34733-0.1414-0.36535-0.15613-0.67174-0.0391-0.81277 0.068-0.0819 0.35448-0.30679 0.63671-0.49977 1.6741-1.1447 2.9118-3.0669 3.3996-5.2794 0.20485-0.92929 0.22844-1.2098 0.18493-2.1995-0.0551-1.2546-0.0648-1.2318 0.57105-1.3524 0.65127-0.12357 1.3213-0.82616 1.5898-1.667 0.0721-0.22574 0.0994-0.70107 0.0745-1.2967-0.0334-0.80008-0.0831-1.0415-0.3333-1.619-0.46882-1.0821-0.85631-1.5264-1.8432-2.1132-1.2611-0.74985-3.6713-1.6114-4.5002-1.6086-0.3415 1e-3 -0.35842-0.0148-0.61251-0.5777-0.30577-0.67733-0.4877-0.85754-0.9491-0.94012-0.85256-0.15258-1.4984 0.26465-1.7958 1.1602-0.17444 0.52516-0.39118 0.60705-1.2169 0.45976-2.4566-0.43822-3.5704-0.47271-4.5217-0.14001-0.50883 0.17796-1.6285 1.0391-2.0223 1.5554-0.40475 0.53067-0.52626 2.0711-0.22597 2.8648 0.0586 0.15488 0.24412 0.33402 0.45994 0.44412 0.19896 0.1015 0.38328 0.24068 0.40961 0.30929 0.0263 0.0686-0.0564 0.43142-0.18383 0.80624-0.12743 0.37481-0.3042 1.1734-0.39282 1.7747-0.15336 1.0406-0.15326 1.1698 2e-3 2.6819 0.12815 1.2475 0.23004 1.7927 0.47456 2.5392 0.35263 1.0765 0.38238 1.1398 0.93843 1.9957 0.5661 0.87144 1.2492 1.5275 2.1196 2.0355 1.4184 0.82798 2.4364 1.0918 4.53 1.1739l1.4784 0.058 0.0638 0.31299c0.0825 0.40475 0.20131 0.47114 0.84638 0.47286 0.41691 1e-3 0.57434-0.0404 0.72496-0.19098zm-5.2865-2.4368c-1.5491-0.54532-2.5532-1.3038-3.3976-2.5665-0.40708-0.60868-0.84463-1.5222-0.99902-2.0857-0.10562-0.38552-0.41901-2.4029-0.41927-2.699-3.2e-4 -0.43608 0.41076-2.1104 0.70137-2.8562 0.13702-0.35166 0.36172-0.78391 0.49933-0.96055l0.25019-0.32115 1.8909-7e-3c1.6569-6e-3 1.9769-0.032 2.5856-0.20923 0.54737-0.15935 0.94012-0.20262 1.8524-0.20409 1.0744-2e-3 1.2066 0.0181 1.8371 0.27498 0.37364 0.15226 0.81127 0.36797 0.9725 0.47935 0.68073 0.47029 1.8319 1.4956 1.9623 1.7478 0.2418 0.4676 0.44596 1.8369 0.44821 3.0062 3e-3 1.3428-0.14759 1.969-0.75516 3.1491-0.36466 0.70824-0.58985 0.99372-1.4977 1.8987-0.9519 0.94885-1.1465 1.098-1.7831 1.3661-0.69079 0.291-0.75704 0.30095-1.9913 0.299-1.2081-2e-3 -1.3241-0.0187-2.1566-0.31174zm9.3733-9.3423c-0.0531-0.064-0.12362-0.22431-0.15676-0.35634-0.09-0.35859-0.78635-1.1062-1.6944-1.8189-1.0909-0.85635-1.3465-1.0017-2.3464-1.3341-0.84423-0.28062-0.88575-0.28505-2.2538-0.24018-0.81552 0.0267-1.7012 0.11337-2.1347 0.20878-0.62718 0.13802-1.0254 0.15465-2.5933 0.10831-1.4841-0.0439-1.926-0.0283-2.2229 0.0785-0.90049 0.32375-1.2239 0.0169-0.96495-0.91568 0.13489-0.48582 0.72863-1.1043 1.3144-1.3691 0.45096-0.20389 0.58246-0.21734 1.9197-0.19632 0.78958 0.0124 2.5049 0.0203 3.8118 0.0175 3.0697-7e-3 3.4708 0.0641 5.3464 0.9421 1.4753 0.69061 1.9085 0.91994 2.1641 1.1456 0.32766 0.28923 0.77592 1.0499 1.0564 1.7926l0.22132 0.58601-0.25163 0.46233c-0.26224 0.48182-0.78004 1.0053-0.9944 1.0053-0.0684 0-0.1678-0.0523-0.22088-0.1163zm-6.342-7.0704c0-0.0509 0.08758-0.19921 0.16402-0.19921 0.0764 0 0.18283 0.12322 0.18283 0.17412s-0.096 0.20727-0.17244 0.20727c-0.0764 0-0.17441-0.13128-0.17441-0.18218z" fill="#fff"/>
    </g>
    <g display="none" fill="none">
        <rect transform="rotate(90)" x="7.3342" y="-19.616" width="12.282" height="12.282" display="inline" stroke="#000" stroke-width=".065984"/>
        <rect x="6.7726" y="8.112" width="13.405" height="10.726" stroke="#5261ff" stroke-linecap="round" stroke-linejoin="round" stroke-width=".06524"/>
        <rect transform="rotate(90)" x="6.7726" y="-18.838" width="13.405" height="10.726" display="inline" stroke="#0f0" stroke-linecap="round" stroke-linejoin="round" stroke-width=".06524"/>
    </g>
</svg>
