<?xml version="1.0" encoding="UTF-8"?>
<svg version="1.1" viewBox="0 0 28.747 28.747" xmlns="http://www.w3.org/2000/svg" xmlns:xlink="http://www.w3.org/1999/xlink">
    <defs>
        <filter id="filter6206-7" x="-.072" y="-.072" width="1.144" height="1.144" color-interpolation-filters="sRGB">
            <feGaussianBlur stdDeviation="0.658125"/>
        </filter>
    </defs>
    <g transform="translate(0 -1093.8)">
        <path transform="matrix(1.0781 0 0 1.0641 -.093733 2.7509)" d="m4.4177 1028.2v1.6051h-1.6052v18.192h1.6052v2.1402h18.192v-2.1402h2.1402v-18.192h-2.1402v-1.6051z" fill="#1a237e" filter="url(#filter6206-7)" opacity=".2"/>
        <rect x="2.9987" y="1096.8" width="22.749" height="22.749" rx="1.1973" ry="1.1974" fill="#2196f3"/>
        <g transform="translate(-22.32 1056.5)">
            <path d="m0 0h51.2v51.2h-51.2z" fill="none" stroke-width="1.0667"/>
            <g transform="matrix(.33601 0 0 .33601 1.5296 73.043)">
                <path d="m0 0h51.2v51.2h-51.2z" fill="none" stroke-width="1.0667"/>
            </g>
            <g transform="matrix(.37187 0 0 .37187 38.802 63.239)">
                <path d="m0 0h51.2v51.2h-51.2z" fill="none" stroke-width="1.0667"/>
                <g transform="matrix(2.6891 0 0 2.6891 -82.906 -48.45)">
                    <path d="m0 0h51.2v51.2h-51.2z" fill="none" stroke-width="1.0667"/>
                </g>
            </g>
        </g>
        <path d="m4.1958 1096.8c-0.66332 0-1.1979 0.5346-1.1979 1.1979v0.3334c0-0.6634 0.53459-1.1979 1.1979-1.1979h20.354c0.66332 0 1.1979 0.5345 1.1979 1.1979v-0.3334c0-0.6633-0.5346-1.1979-1.1979-1.1979z" fill="#fff" opacity=".2"/>
        <rect x="128" y="546.52" width="42.667" height="42.667" fill="none" stroke-width="1.0667"/>
        <rect x="128" y="631.85" width="42.667" height="42.667" fill="none" stroke-width="1.0667"/>
        <rect x="128" y="674.52" width="42.667" height="42.667" fill="none" stroke-width="1.0667"/>
        <rect x="128" y="589.19" width="42.667" height="42.667" fill="none" stroke-width="1.0667"/>
        <rect x="128" y="717.19" width="42.667" height="42.667" fill="none" stroke-width="1.0667"/>
        <rect x="213.33" y="546.52" width="42.667" height="42.667" fill="none" stroke-width="1.0667"/>
        <rect x="213.33" y="631.85" width="42.667" height="42.667" fill="none" stroke-width="1.0667"/>
        <rect x="213.33" y="674.52" width="42.667" height="42.667" fill="none" stroke-width="1.0667"/>
        <rect x="213.33" y="589.19" width="42.667" height="42.667" fill="none" stroke-width="1.0667"/>
        <rect x="213.33" y="717.19" width="42.667" height="42.667" fill="none" stroke-width="1.0667"/>
        <rect x="298.67" y="546.52" width="42.667" height="42.667" fill="none" stroke-width="1.0667"/>
        <rect x="298.67" y="631.85" width="42.667" height="42.667" fill="none" stroke-width="1.0667"/>
        <rect x="298.67" y="674.52" width="42.667" height="42.667" fill="none" stroke-width="1.0667"/>
        <rect x="298.67" y="589.19" width="42.667" height="42.667" fill="none" stroke-width="1.0667"/>
        <rect x="298.67" y="717.19" width="42.667" height="42.667" fill="none" stroke-width="1.0667"/>
        <rect x="170.67" y="546.52" width="42.667" height="42.667" fill="none" stroke-width="1.0667"/>
        <rect x="170.67" y="631.85" width="42.667" height="42.667" fill="none" stroke-width="1.0667"/>
        <rect x="170.67" y="674.52" width="42.667" height="42.667" fill="none" stroke-width="1.0667"/>
        <rect x="170.67" y="589.19" width="42.667" height="42.667" fill="none" stroke-width="1.0667"/>
        <rect x="170.67" y="717.19" width="42.667" height="42.667" fill="none" stroke-width="1.0667"/>
        <rect x="256" y="546.52" width="42.667" height="42.667" fill="none" stroke-width="1.0667"/>
        <rect x="256" y="631.85" width="42.667" height="42.667" fill="none" stroke-width="1.0667"/>
        <rect x="256" y="674.52" width="42.667" height="42.667" fill="none" stroke-width="1.0667"/>
        <rect x="256" y="589.19" width="42.667" height="42.667" fill="none" stroke-width="1.0667"/>
        <rect x="256" y="717.19" width="42.667" height="42.667" fill="none" stroke-width="1.0667"/>
        <rect x="128" y="759.85" width="42.667" height="42.667" fill="none" stroke-width="1.0667"/>
        <rect x="213.33" y="759.85" width="42.667" height="42.667" fill="none" stroke-width="1.0667"/>
        <rect x="298.67" y="759.85" width="42.667" height="42.667" fill="none" stroke-width="1.0667"/>
        <rect x="170.67" y="759.85" width="42.667" height="42.667" fill="none" stroke-width="1.0667"/>
        <rect x="256" y="759.85" width="42.667" height="42.667" fill="none" stroke-width="1.0667"/>
        <rect x="341.33" y="589.19" width="42.667" height="42.667" fill="none" stroke-width="1.0667"/>
        <rect x="341.33" y="631.85" width="42.667" height="42.667" fill="none" stroke-width="1.0667"/>
        <rect x="341.33" y="717.19" width="42.667" height="42.667" fill="none" stroke-width="1.0667"/>
        <rect x="341.33" y="546.52" width="42.667" height="42.667" fill="none" stroke-width="1.0667"/>
        <rect x="341.33" y="674.52" width="42.667" height="42.667" fill="none" stroke-width="1.0667"/>
        <rect x="341.33" y="759.85" width="42.667" height="42.667" fill="none" stroke-width="1.0667"/>
        <rect x="160" y="578.52" width="192" height="192" fill="none" stroke-width="1.0667"/>
        <g transform="matrix(.37344 0 0 .37344 4.7333 1097.4)">
            <path d="m0 0h51.2v51.2h-51.2z" fill="none" stroke-width="1.0667"/>
        </g>
        <g transform="matrix(.36471 0 0 .36471 5.1356 1097.4)">
            <path d="m0 0h51.2v51.2h-51.2z" fill="none" stroke-width="1.0667"/>
        </g>
        <g transform="matrix(.41585 0 0 .41585 84.325 1055.9)">
            <g transform="matrix(.062269 0 0 .062269 -28.238 185.29)">
                <g transform="matrix(38.618 0 0 38.618 14724 -13542)">
                    <g transform="matrix(.71436 0 0 .71436 -400.52 188.34)">
                        <path d="m1293.2-120.67c-181.75 0.2763-511.18 0.13525-699.05 0.13998-2.3216 10.413-3.593 21.251-3.593 32.384v114c207.65 0.73695 494.72 0.38136 706.23 0.3733v-114.37c0-11.18-1.2522-22.07-3.593-32.523zm-458.69 295.56c-78.385-4e-3 -158.85 0.17892-243.95 0.55995v138.63c286.34-0.39317 421.73-0.13827 706.23-0.32664v-137.75c-163.2-0.53005-311.22-1.1113-462.28-1.1199z" opacity="0" stroke-width="1.4932"/>
                    </g>
                </g>
            </g>
        </g>
        <path d="m24.549 1119.5c0.66325 0 1.1979-0.5346 1.1979-1.1979v-0.3333c0 0.6632-0.53461 1.1978-1.1979 1.1978h-20.354c-0.66325 0-1.1979-0.5346-1.1979-1.1978v0.3333c0 0.6633 0.53461 1.1979 1.1979 1.1979z" fill="#1a237e" opacity=".2"/>
    </g>
    <g>
        <g transform="matrix(.28986 0 0 .28986 10.417 11.639)" stroke-width="1.0898">
            <g transform="matrix(.8172 0 0 .8172 1.9034 -2.3134)" fill="none" stroke="#fff" stroke-opacity=".93953" stroke-width="4.6185">
                <g fill="none" stroke="#fff" stroke-linecap="square" stroke-opacity=".93953" stroke-width="4.6185">
                    <path transform="matrix(3.8738 0 0 3.8738 -41.307 -41.307)" d="m14.373 7.209c-0.55887 0-1.0636 0.27593-1.4648 0.68164s-0.72652 0.94734-0.99609 1.5918c-0.0507 0.12121-0.09788 0.25041-0.14453 0.37891-0.13418-0.023758-0.26852-0.047808-0.39844-0.064453-0.69291-0.088772-1.325-0.078214-1.877 0.066406-0.55197 0.14462-1.0428 0.44374-1.3223 0.92773s-0.29332 1.061-0.14258 1.6113c0.15074 0.55033 0.45753 1.1025 0.88086 1.6582 0.079585 0.10447 0.16599 0.20986 0.25391 0.31445-0.087337 0.10397-0.1748 0.20866-0.25391 0.3125-0.42333 0.55569-0.73012 1.1059-0.88086 1.6562-0.15074 0.55033-0.13686 1.1273 0.14258 1.6113 0.27944 0.484 0.7703 0.78507 1.3223 0.92969 0.55197 0.14462 1.184 0.15518 1.877 0.06641 0.12992-0.01665 0.26426-0.0407 0.39844-0.06445 0.0466 0.12834 0.09389 0.25588 0.14453 0.37695 0.26958 0.64446 0.59487 1.1861 0.99609 1.5918 0.40123 0.40571 0.90597 0.68359 1.4648 0.68359s1.0656-0.27789 1.4668-0.68359c0.40123-0.40571 0.72652-0.94734 0.99609-1.5918 0.05065-0.12108 0.09793-0.24861 0.14453-0.37695 0.13351 0.02361 0.26718 0.04789 0.39648 0.06445 0.69291 0.08877 1.325 0.07821 1.877-0.06641 0.55197-0.14462 1.0448-0.44374 1.3242-0.92774s0.29332-1.063 0.14258-1.6133-0.45753-1.1006-0.88086-1.6562c-0.0791-0.10384-0.16658-0.20854-0.25391-0.3125 0.08769-0.10435 0.1745-0.21022 0.25391-0.31445 0.42333-0.55569 0.73012-1.1079 0.88086-1.6582s0.13686-1.1273-0.14258-1.6113c-0.27944-0.484-0.77225-0.78311-1.3242-0.92773-0.55197-0.14462-1.184-0.15518-1.877-0.066406-0.12976 0.016625-0.26248 0.040736-0.39648 0.064453-0.046646-0.1285-0.093829-0.25769-0.14453-0.37891-0.26958-0.64446-0.59487-1.1861-0.99609-1.5918s-0.90792-0.68164-1.4668-0.68164zm0 1.0938c0.20551 0 0.42834 0.093396 0.68945 0.35742s0.53232 0.69301 0.76367 1.2461c0.02663 0.063667 0.0467 0.14408 0.07227 0.21094-0.49315 0.14406-1.0061 0.34043-1.5254 0.56445-0.51894-0.22386-1.0306-0.42041-1.5234-0.56445 0.02555-0.06681 0.04565-0.14731 0.07227-0.21094 0.23135-0.55308 0.50256-0.98207 0.76367-1.2461 0.26111-0.26403 0.48199-0.35742 0.6875-0.35742zm-3.9609 2.5352c0.24572-0.0077 0.52103 0.0049 0.81836 0.04297 0.0684 0.0088 0.14813 0.03169 0.21875 0.04297-0.12185 0.49944-0.2078 1.0433-0.27344 1.6055-0.45325 0.3375-0.8809 0.68234-1.252 1.0371-0.04507-0.05551-0.1047-0.11313-0.14648-0.16797-0.36331-0.4769-0.59722-0.92702-0.69531-1.2852-0.098097-0.35814-0.069553-0.59741 0.033203-0.77539 0.10276-0.17798 0.29509-0.3219 0.6543-0.41602 0.1796-0.04706 0.39686-0.07628 0.64258-0.08398zm7.9238 0c0.24572 0.0077 0.46102 0.03693 0.64062 0.08398 0.35921 0.09412 0.55154 0.23804 0.6543 0.41602 0.10276 0.17798 0.13325 0.41725 0.03516 0.77539-0.0981 0.35814-0.33396 0.80826-0.69727 1.2852-0.04183 0.05491-0.10135 0.11238-0.14648 0.16797-0.3716-0.35532-0.7979-0.70108-1.252-1.0391-0.06562-0.56127-0.14982-1.1048-0.27148-1.6035 0.07062-0.01128 0.15035-0.03421 0.21875-0.04297 0.29733-0.03809 0.57264-0.05067 0.81836-0.04297zm-5.8105 0.33594c0.16906 0.04923 0.33839 0.09986 0.51367 0.16016-0.10772 0.05907-0.21451 0.10575-0.32226 0.16797-0.10896 0.06291-0.20439 0.13279-0.31055 0.19727 0.03548-0.18235 0.07717-0.35401 0.11914-0.52539zm3.6953 0c0.04181 0.17071 0.08377 0.34185 0.11914 0.52344-0.1054-0.06399-0.20044-0.13287-0.30859-0.19531-0.1084-0.06259-0.21585-0.11051-0.32422-0.16992 0.17518-0.06028 0.3447-0.10897 0.51367-0.1582zm-1.8457 0.69727c0.36686 0.17267 0.73826 0.36386 1.1094 0.57812 0.37133 0.21438 0.72354 0.44038 1.0566 0.67188 0.03401 0.40471 0.05273 0.82263 0.05273 1.252 0 0.42933-0.01872 0.84725-0.05273 1.252-0.3331 0.23149-0.68532 0.45749-1.0566 0.67188-0.37111 0.21426-0.74252 0.40545-1.1094 0.57812-0.36732-0.17283-0.7397-0.36357-1.1113-0.57812-0.37182-0.21467-0.72507-0.44004-1.0586-0.67188-0.03401-0.40471-0.05273-0.82263-0.05273-1.252 0-0.42933 0.01872-0.84725 0.05273-1.252 0.33352-0.23184 0.68678-0.45721 1.0586-0.67188 0.37162-0.21456 0.74401-0.40529 1.1113-0.57812zm-3.3008 2.1367c-0.0027 0.12349-0.01563 0.24013-0.01563 0.36524 0 0.12493 0.0129 0.24192 0.01563 0.36523-0.1401-0.12182-0.26716-0.24328-0.39453-0.36523 0.12724-0.12181 0.2546-0.24356 0.39453-0.36524zm6.5996 0c0.1397 0.1215 0.26749 0.2436 0.39453 0.36524-0.12717 0.12178-0.25467 0.24359-0.39453 0.36523 0.0027-0.1233 0.01563-0.24031 0.01563-0.36523 0-0.1251-0.0129-0.24175-0.01563-0.36524zm1.1484 1.1719c0.04566 0.0562 0.10614 0.1144 0.14844 0.16992 0.36331 0.4769 0.59722 0.92506 0.69531 1.2832 0.0981 0.35814 0.0676 0.59741-0.03516 0.77539-0.10276 0.17798-0.29509 0.32385-0.6543 0.41797-0.35921 0.09412-0.86433 0.11525-1.459 0.03906-0.0684-0.0088-0.14813-0.03169-0.21875-0.04297 0.12176-0.49904 0.20586-1.0419 0.27148-1.6035 0.45404-0.33799 0.88038-0.68374 1.252-1.0391zm-8.8984 2e-3c0.37088 0.35455 0.79899 0.69982 1.252 1.0371 0.06564 0.56181 0.15164 1.1044 0.27344 1.6035-0.07062 0.01128-0.15035 0.03421-0.21875 0.04297-0.59466 0.07618-1.1017 0.05505-1.4609-0.03906-0.35921-0.09412-0.54959-0.23999-0.65234-0.41797-0.10276-0.17798-0.13325-0.41725-0.035156-0.77539 0.098098-0.35814 0.33201-0.80631 0.69531-1.2832 0.041779-0.05484 0.10141-0.11246 0.14648-0.16797zm6.418 1.8652c-0.03547 0.18246-0.07912 0.3539-0.12109 0.52539-0.16897-0.04923-0.33849-0.09793-0.51367-0.1582 0.10843-0.05944 0.21575-0.1073 0.32422-0.16992 0.10896-0.06291 0.2044-0.13279 0.31055-0.19727zm-3.9355 2e-3c0.10594 0.06434 0.20182 0.13254 0.31055 0.19531 0.10847 0.06263 0.21579 0.11048 0.32422 0.16992-0.176 0.06057-0.3459 0.11074-0.51562 0.16016-0.04197-0.17138-0.08366-0.34304-0.11914-0.52539zm1.9688 1.0176c0.51866 0.22365 1.0309 0.42057 1.5234 0.56445-0.02556 0.06686-0.04563 0.14727-0.07227 0.21094-0.23135 0.55308-0.50256 0.98012-0.76367 1.2441-0.26111 0.26402-0.48394 0.35742-0.68945 0.35742-0.20551 0-0.42639-0.0934-0.6875-0.35742-0.26111-0.26403-0.53232-0.69106-0.76367-1.2441-0.02661-0.06363-0.04672-0.14413-0.07227-0.21094 0.49274-0.14402 1.0065-0.34064 1.5254-0.56445z" color="#000000" fill="#fff" fill-opacity=".92419" stroke="none" style="-inkscape-stroke:none"/>
                </g>
            </g>
        </g>
    </g>
    <g display="none" fill="none">
        <rect transform="rotate(90)" x="7.8232" y="-20.923" width="13.1" height="13.1" display="inline" stroke="#000" stroke-width=".070382"/>
    </g>
</svg>
