<?xml version="1.0" encoding="UTF-8"?>
<svg fill="none" viewBox="0 0 40 40" xmlns="http://www.w3.org/2000/svg">
    <g filter="url(#filter0_f)" opacity=".2">
        <path d="m6.4966 4.3023v2.3767h-2.408v26.937h2.408v3.1689h27.29v-3.1689h3.2106v-26.937h-3.2106v-2.3767h-27.29z" fill="#263238"/>
    </g>
    <path d="m34.161 4.1727h-28.323c-0.92013 0-1.666 0.74594-1.666 1.6661v28.323c0 0.9202 0.74591 1.6661 1.666 1.6661h28.323c0.9201 0 1.666-0.7459 1.666-1.6661v-28.323c0-0.92018-0.7459-1.6661-1.666-1.6661z" fill="#607D8B"/>
    <path d="m5.8383 4.1715c-0.92299 0-1.6669 0.74384-1.6669 1.6668v0.46405c0-0.9231 0.74387-1.667 1.6669-1.667h28.322c0.923 0 1.6668 0.74387 1.6668 1.667v-0.46405c0-0.92296-0.7438-1.6668-1.6668-1.6668h-28.322z" fill="#fff" opacity=".2"/>
    <path d="m34.16 35.859c0.9229 0 1.6668-0.7438 1.6668-1.6668v-0.4639c0 0.9228-0.7439 1.6668-1.6668 1.6668h-28.322c-0.9229 0-1.6668-0.744-1.6668-1.6668v0.4639c0 0.923 0.7439 1.6668 1.6668 1.6668h28.322z" fill="#263238" opacity=".2"/>
    <path d="m14.324 18.149c0 0.088-0.0403 0.1503-0.121 0.187l-3.641 1.507 3.641 1.485c0.0807 0.0367 0.121 0.099 0.121 0.187v0.484c0 0.0513-0.022 0.0917-0.066 0.121-0.0367 0.022-0.0807 0.022-0.132 0l-4.301-1.782c-0.07333-0.0293-0.11-0.0917-0.11-0.187l0.011-0.66c0-0.0807 0.04033-0.1393 0.121-0.176l4.279-1.76c0.0147-0.0073 0.0367-0.011 0.066-0.011 0.0367 0 0.066 0.0147 0.088 0.044 0.0293 0.022 0.044 0.0513 0.044 0.088v0.473zm3.5181 4.851c-0.4767 0-0.9167-0.1173-1.32-0.352-0.396-0.2347-0.7113-0.5537-0.946-0.957s-0.352-0.8433-0.352-1.32v-1.188c0-0.4767 0.1173-0.9167 0.352-1.32s0.55-0.7223 0.946-0.957c0.4033-0.2347 0.8433-0.352 1.32-0.352s0.913 0.1173 1.309 0.352c0.4033 0.2347 0.7223 0.5537 0.957 0.957s0.352 0.8433 0.352 1.32v0.737c0 0.132-0.0477 0.2457-0.143 0.341-0.088 0.088-0.198 0.132-0.33 0.132h-3.443v0.055c0 0.3593 0.1247 0.6673 0.374 0.924 0.2567 0.2493 0.5647 0.374 0.924 0.374h1.749c0.066 0 0.121 0.022 0.165 0.066s0.066 0.099 0.066 0.165v0.792c0 0.066-0.022 0.121-0.066 0.165s-0.099 0.066-0.165 0.066h-1.749zm1.298-3.795v-0.099c0-0.3593-0.1283-0.6637-0.385-0.913-0.2493-0.2567-0.5537-0.385-0.913-0.385s-0.6673 0.1283-0.924 0.385c-0.2493 0.2493-0.374 0.5537-0.374 0.913v0.099h2.596zm1.5946 4.4c-0.0294 0-0.055-0.011-0.077-0.033-0.0147-0.022-0.0147-0.0513 0-0.088l3.564-8.701c0.0366-0.088 0.1026-0.132 0.198-0.132h0.484c0.0293 0 0.0513 0.011 0.066 0.033 0.022 0.022 0.0256 0.0513 0.011 0.088l-3.553 8.701c-0.0294 0.088-0.0954 0.132-0.198 0.132h-0.495zm9.199-3.454c0 0.0953-0.0367 0.1577-0.11 0.187l-4.301 1.782c-0.0147 0.0073-0.0367 0.011-0.066 0.011-0.0367 0-0.0697-0.011-0.099-0.033-0.022-0.0293-0.033-0.0623-0.033-0.099v-0.484c0-0.088 0.0403-0.1503 0.121-0.187l3.641-1.485-3.641-1.507c-0.0807-0.0367-0.121-0.099-0.121-0.187v-0.473c0-0.0513 0.0183-0.088 0.055-0.11 0.044-0.0293 0.0917-0.033 0.143-0.011l4.279 1.76c0.0807 0.0367 0.121 0.0953 0.121 0.176l0.011 0.66z" fill="#fff"/>
    <defs>
        <filter id="filter0_f" x="3.3837" y="3.5974" width="34.319" height="33.893" color-interpolation-filters="sRGB" filterUnits="userSpaceOnUse">
            <feFlood flood-opacity="0" result="BackgroundImageFix"/>
            <feBlend in="SourceGraphic" in2="BackgroundImageFix" result="shape"/>
            <feGaussianBlur result="effect1_foregroundBlur" stdDeviation="0.352455"/>
        </filter>
    </defs>
</svg>
