<?xml version="1.0" encoding="UTF-8"?>
<svg version="1.1" viewBox="0 0 26.95 26.95" xmlns="http://www.w3.org/2000/svg">
    <defs>
        <filter id="filter6206-7" color-interpolation-filters="sRGB">
            <feGaussianBlur stdDeviation="0.658125"/>
        </filter>
    </defs>
    <g transform="translate(0 -1025.4)">
        <path transform="matrix(1.0107 0 0 .99762 -.087875 2.579)" d="m4.4177 1028.2v1.6051h-1.6052v18.192h1.6052v2.1402h18.192v-2.1402h2.1402v-18.192h-2.1402v-1.6051h-18.192z" fill="#1a237e" filter="url(#filter6206-7)" opacity=".2"/>
        <rect x="2.8113" y="1028.2" width="21.327" height="21.327" rx="1.1225" ry="1.1226" fill="#9c27b0"/>
        <g transform="translate(-20.925 990.46)">
            <path d="m0 0h48v48h-48z" fill="none"/>
            <g transform="matrix(.33601 0 0 .33601 1.434 68.477)">
                <path d="m0 0h48v48h-48z" fill="none"/>
            </g>
            <g transform="matrix(.37187 0 0 .37187 36.377 59.287)">
                <path d="m0 0h48v48h-48z" fill="none"/>
                <g transform="matrix(2.6891 0 0 2.6891 -77.724 -45.422)">
                    <path d="m0 0h48v48h-48z" fill="none"/>
                </g>
            </g>
        </g>
        <path transform="translate(0 1025.4)" d="m3.9336 2.8105c-0.62186 0-1.123 0.50115-1.123 1.123v0.3125c0-0.6219 0.50118-1.123 1.123-1.123h19.082c0.62186 0 1.123 0.50115 1.123 1.123v-0.3125c0-0.6219-0.50118-1.123-1.123-1.123h-19.082z" fill="#fff" opacity=".2"/>
        <rect x="120" y="512.36" width="40" height="40" fill="none"/>
        <rect x="120" y="592.36" width="40" height="40" fill="none"/>
        <rect x="120" y="632.36" width="40" height="40" fill="none"/>
        <rect x="120" y="552.36" width="40" height="40" fill="none"/>
        <rect x="120" y="672.36" width="40" height="40" fill="none"/>
        <rect x="200" y="512.36" width="40" height="40" fill="none"/>
        <rect x="200" y="592.36" width="40" height="40" fill="none"/>
        <rect x="200" y="632.36" width="40" height="40" fill="none"/>
        <rect x="200" y="552.36" width="40" height="40" fill="none"/>
        <rect x="200" y="672.36" width="40" height="40" fill="none"/>
        <rect x="280" y="512.36" width="40" height="40" fill="none"/>
        <rect x="280" y="592.36" width="40" height="40" fill="none"/>
        <rect x="280" y="632.36" width="40" height="40" fill="none"/>
        <rect x="280" y="552.36" width="40" height="40" fill="none"/>
        <rect x="280" y="672.36" width="40" height="40" fill="none"/>
        <rect x="160" y="512.36" width="40" height="40" fill="none"/>
        <rect x="160" y="592.36" width="40" height="40" fill="none"/>
        <rect x="160" y="632.36" width="40" height="40" fill="none"/>
        <rect x="160" y="552.36" width="40" height="40" fill="none"/>
        <rect x="160" y="672.36" width="40" height="40" fill="none"/>
        <rect x="240" y="512.36" width="40" height="40" fill="none"/>
        <rect x="240" y="592.36" width="40" height="40" fill="none"/>
        <rect x="240" y="632.36" width="40" height="40" fill="none"/>
        <rect x="240" y="552.36" width="40" height="40" fill="none"/>
        <rect x="240" y="672.36" width="40" height="40" fill="none"/>
        <rect x="120" y="712.36" width="40" height="40" fill="none"/>
        <rect x="200" y="712.36" width="40" height="40" fill="none"/>
        <rect x="280" y="712.36" width="40" height="40" fill="none"/>
        <rect x="160" y="712.36" width="40" height="40" fill="none"/>
        <rect x="240" y="712.36" width="40" height="40" fill="none"/>
        <rect x="320" y="552.36" width="40" height="40" fill="none"/>
        <rect x="320" y="592.36" width="40" height="40" fill="none"/>
        <rect x="320" y="672.36" width="40" height="40" fill="none"/>
        <rect x="320" y="512.36" width="40" height="40" fill="none"/>
        <rect x="320" y="632.36" width="40" height="40" fill="none"/>
        <rect x="320" y="712.36" width="40" height="40" fill="none"/>
        <rect x="150" y="542.36" width="180" height="180" fill="none"/>
        <g transform="matrix(.37344 0 0 .37344 4.4375 1028.8)">
            <path d="m0 0h48v48h-48z" fill="none"/>
        </g>
        <g transform="matrix(.36471 0 0 .36471 4.8146 1028.8)">
            <path d="m0 0h48v48h-48z" fill="none"/>
        </g>
        <g transform="matrix(.41585 0 0 .41585 79.055 989.88)">
            <g transform="matrix(.062269 0 0 .062269 -26.473 173.71)">
                <g transform="matrix(38.618 0 0 38.618 13804 -12696)">
                    <g transform="matrix(.71436 0 0 .71436 -375.49 176.57)">
                        <path transform="matrix(1.3999 0 0 1.3999 525.63 -247.17)" d="m490.56 95.75c-121.72 0.18504-342.34 0.090577-468.16 0.09375-1.5548 6.9739-2.4062 14.232-2.4062 21.688v76.344c139.06 0.49354 331.32 0.2554 472.97 0.25v-76.594c0-7.4875-0.8386-14.78-2.4062-21.781zm-307.19 197.94c-52.495-3e-3 -106.38 0.11982-163.38 0.375v92.844c191.76-0.26331 282.43-0.0926 472.97-0.21875v-92.25c-109.29-0.35498-208.43-0.74426-309.59-0.75z" opacity="0"/>
                    </g>
                </g>
            </g>
        </g>
        <path d="m23.015 1049.6c0.6218 0 1.123-0.5012 1.123-1.123v-0.3125c0 0.6218-0.5012 1.123-1.123 1.123h-19.082c-0.6218 0-1.123-0.5012-1.123-1.123v0.3125c0 0.6218 0.5012 1.123 1.123 1.123h19.082z" fill="#1a237e" opacity=".2"/>
    </g>
    <g transform="matrix(.029445 0 0 .029445 5.937 5.4663)">
        <g fill="#fff">
            <path d="m85.75 67.75c3.08-2.66 7.18-3.88 11.21-3.76 40.35 0.03 80.69 0.04 121.03 0.05 7.35 0.05 14.79-0.36 22.02 1.24 16.67 3.55 33.33 7.17 50 10.76 4.61 0.98 9.12 2.47 13.38 4.5 37.62 17.75 75.24 35.48 112.86 53.23 3.46 1.77 7.31 2.96 10.31 5.54 8.83 7.67 6.11 23.59-3.63 29.27-2.54-6.99-8.03-12.98-15.21-15.26-10.1-3.7-22.05 0.66-27.9 9.56-81.18-18.09-162.36-36.19-243.55-54.28-2.08-7.46-6.37-14.76-13.67-18.1-10.45-5.46-24.3-1.54-30.68 8.28-7.1-1.71-12.67-8.42-12.49-15.8 0.39-5.53 1.81-11.57 6.32-15.23m167.52 12.48c-8.23 1.24-14.45 9.65-13.13 17.89 0.92 8.52 9.57 15.14 18.05 13.73 8.43-0.95 14.99-9.48 13.68-17.89-0.88-8.76-9.95-15.47-18.6-13.73z"/>
            <path d="m104.47 109.4c1.86-6.65 12.28-7.18 14.74-0.71 18 49.03 35.73 98.18 53.62 147.26-5.66 0.09-11.31 0.09-16.97 0.08-14.58-40.22-29.21-80.43-43.86-120.63-14.69 40.19-29.21 80.44-43.91 120.62-5.65-0.04-11.29-0.01-16.94-0.02 17.77-48.86 35.52-97.74 53.32-146.6z"/>
            <path d="m224 143.64c21.33 4.84 42.63 9.79 63.97 14.56 0.08 85.93 0 171.86 0.03 257.8 5.69 0.06 11.38-0.11 17.06 0.06 7.77 0.3 14.61 7.16 14.88 14.93 0.17 5.67 0 11.34 0.06 17.01 16.02 0.01 32.05-0.03 48.07 0.01 8.12-0.17 15.57 6.81 15.87 14.93 0.17 5.68 0 11.37 0.06 17.06h-256c0.06-5.7-0.12-11.41 0.07-17.1 0.32-8.13 7.79-15.09 15.91-14.89 16.01-0.03 32.01 0 48.02-0.01 0.06-5.71-0.12-11.42 0.07-17.12 0.32-7.73 7.13-14.51 14.86-14.82 5.69-0.17 11.38 0 17.07-0.06v-272.36z"/>
            <path d="m392.72 172.86c2.33-6.62 12.91-6.15 14.81 0.54 17.8 48.86 35.55 97.73 53.32 146.6h-16.97c-14.64-40.21-29.24-80.43-43.88-120.64-14.66 40.2-29.23 80.43-43.88 120.64h-16.96c17.85-49.05 35.59-98.14 53.56-147.14z"/>
            <path d="m45.2 272.25c2.92-0.41 5.88-0.23 8.82-0.25 40.66-0.02 81.32 0.01 121.98 0.01 8.49-0.24 16.17 7.41 15.96 15.9 0.13 6.78-5.06 12.1-10.21 15.77-10.02 6.89-21.9 10.41-33.67 12.89-20.81 4.06-42.3 4.49-63.28 1.53-12.71-1.94-25.47-4.93-36.9-10.99-6.44-3.44-13.12-8.2-15.4-15.5-2.45-8.55 4-18.05 12.7-19.36z"/>
            <path d="m333.2 336.24c13.24-0.56 26.52-0.08 39.78-0.24 30.37 0.01 60.74-0.02 91.11 0.02 9.96-0.34 18.38 10.36 15.3 19.94-3.01 8.59-11.53 13.47-19.31 17.16-19.15 8.37-40.35 10.81-61.07 10.87-20.08-0.24-40.57-2.76-59.11-10.88-7.53-3.56-15.61-8.2-18.97-16.24-3.5-8.75 3.11-19.28 12.27-20.63z"/>
        </g>
    </g>
    <g display="none" fill="none">
        <rect transform="rotate(90)" x="7.3342" y="-19.616" width="12.282" height="12.282" display="inline" stroke="#000" stroke-width=".065984"/>
        <rect x="6.7726" y="8.112" width="13.405" height="10.726" stroke="#5261ff" stroke-linecap="round" stroke-linejoin="round" stroke-width=".06524"/>
        <rect transform="rotate(90)" x="6.7726" y="-18.838" width="13.405" height="10.726" display="inline" stroke="#0f0" stroke-linecap="round" stroke-linejoin="round" stroke-width=".06524"/>
    </g>
</svg>
