<?xml version="1.0" encoding="UTF-8"?>
<svg version="1.1" viewBox="0 0 28.747 28.747" xml:space="preserve" xmlns="http://www.w3.org/2000/svg" xmlns:xlink="http://www.w3.org/1999/xlink"><defs><filter id="filter6206-7" x="-.072" y="-.072" width="1.144" height="1.144" color-interpolation-filters="sRGB"><feGaussianBlur stdDeviation="0.658125"/></filter></defs><g transform="translate(0 -1093.8)"><path transform="matrix(1.0781 0 0 1.0641 -.093733 2.7509)" d="m4.4177 1028.2v1.6051h-1.6052v18.192h1.6052v2.1402h18.192v-2.1402h2.1402v-18.192h-2.1402v-1.6051z" fill="#1a237e" filter="url(#filter6206-7)" opacity=".2"/><rect x="2.9987" y="1096.8" width="22.749" height="22.749" rx="1.1973" ry="1.1974" fill="#3f51b5"/><g transform="translate(-22.32 1056.5)"><path d="m0 0h51.2v51.2h-51.2z" fill="none" stroke-width="1.0667"/><g transform="matrix(.33601 0 0 .33601 1.5296 73.043)"><path d="m0 0h51.2v51.2h-51.2z" fill="none" stroke-width="1.0667"/></g><g transform="matrix(.37187 0 0 .37187 38.802 63.239)"><path d="m0 0h51.2v51.2h-51.2z" fill="none" stroke-width="1.0667"/><g transform="matrix(2.6891 0 0 2.6891 -82.906 -48.45)"><path d="m0 0h51.2v51.2h-51.2z" fill="none" stroke-width="1.0667"/></g></g></g><path d="m4.1958 1096.8c-0.66332 0-1.1979 0.5346-1.1979 1.1979v0.3334c0-0.6634 0.53459-1.1979 1.1979-1.1979h20.354c0.66332 0 1.1979 0.5345 1.1979 1.1979v-0.3334c0-0.6633-0.5346-1.1979-1.1979-1.1979z" fill="#fff" opacity=".2"/><rect x="128" y="546.52" width="42.667" height="42.667" fill="none" stroke-width="1.0667"/><rect x="128" y="631.85" width="42.667" height="42.667" fill="none" stroke-width="1.0667"/><rect x="128" y="674.52" width="42.667" height="42.667" fill="none" stroke-width="1.0667"/><rect x="128" y="589.19" width="42.667" height="42.667" fill="none" stroke-width="1.0667"/><rect x="128" y="717.19" width="42.667" height="42.667" fill="none" stroke-width="1.0667"/><rect x="213.33" y="546.52" width="42.667" height="42.667" fill="none" stroke-width="1.0667"/><rect x="213.33" y="631.85" width="42.667" height="42.667" fill="none" stroke-width="1.0667"/><rect x="213.33" y="674.52" width="42.667" height="42.667" fill="none" stroke-width="1.0667"/><rect x="213.33" y="589.19" width="42.667" height="42.667" fill="none" stroke-width="1.0667"/><rect x="213.33" y="717.19" width="42.667" height="42.667" fill="none" stroke-width="1.0667"/><rect x="298.67" y="546.52" width="42.667" height="42.667" fill="none" stroke-width="1.0667"/><rect x="298.67" y="631.85" width="42.667" height="42.667" fill="none" stroke-width="1.0667"/><rect x="298.67" y="674.52" width="42.667" height="42.667" fill="none" stroke-width="1.0667"/><rect x="298.67" y="589.19" width="42.667" height="42.667" fill="none" stroke-width="1.0667"/><rect x="298.67" y="717.19" width="42.667" height="42.667" fill="none" stroke-width="1.0667"/><rect x="170.67" y="546.52" width="42.667" height="42.667" fill="none" stroke-width="1.0667"/><rect x="170.67" y="631.85" width="42.667" height="42.667" fill="none" stroke-width="1.0667"/><rect x="170.67" y="674.52" width="42.667" height="42.667" fill="none" stroke-width="1.0667"/><rect x="170.67" y="589.19" width="42.667" height="42.667" fill="none" stroke-width="1.0667"/><rect x="170.67" y="717.19" width="42.667" height="42.667" fill="none" stroke-width="1.0667"/><rect x="256" y="546.52" width="42.667" height="42.667" fill="none" stroke-width="1.0667"/><rect x="256" y="631.85" width="42.667" height="42.667" fill="none" stroke-width="1.0667"/><rect x="256" y="674.52" width="42.667" height="42.667" fill="none" stroke-width="1.0667"/><rect x="256" y="589.19" width="42.667" height="42.667" fill="none" stroke-width="1.0667"/><rect x="256" y="717.19" width="42.667" height="42.667" fill="none" stroke-width="1.0667"/><rect x="128" y="759.85" width="42.667" height="42.667" fill="none" stroke-width="1.0667"/><rect x="213.33" y="759.85" width="42.667" height="42.667" fill="none" stroke-width="1.0667"/><rect x="298.67" y="759.85" width="42.667" height="42.667" fill="none" stroke-width="1.0667"/><rect x="170.67" y="759.85" width="42.667" height="42.667" fill="none" stroke-width="1.0667"/><rect x="256" y="759.85" width="42.667" height="42.667" fill="none" stroke-width="1.0667"/><rect x="341.33" y="589.19" width="42.667" height="42.667" fill="none" stroke-width="1.0667"/><rect x="341.33" y="631.85" width="42.667" height="42.667" fill="none" stroke-width="1.0667"/><rect x="341.33" y="717.19" width="42.667" height="42.667" fill="none" stroke-width="1.0667"/><rect x="341.33" y="546.52" width="42.667" height="42.667" fill="none" stroke-width="1.0667"/><rect x="341.33" y="674.52" width="42.667" height="42.667" fill="none" stroke-width="1.0667"/><rect x="341.33" y="759.85" width="42.667" height="42.667" fill="none" stroke-width="1.0667"/><rect x="160" y="578.52" width="192" height="192" fill="none" stroke-width="1.0667"/><g transform="matrix(.37344 0 0 .37344 4.7333 1097.4)"><path d="m0 0h51.2v51.2h-51.2z" fill="none" stroke-width="1.0667"/></g><g transform="matrix(.36471 0 0 .36471 5.1356 1097.4)"><path d="m0 0h51.2v51.2h-51.2z" fill="none" stroke-width="1.0667"/></g><g transform="matrix(.41585 0 0 .41585 84.325 1055.9)"><g transform="matrix(.062269 0 0 .062269 -28.238 185.29)"><g transform="matrix(38.618 0 0 38.618 14724 -13542)"><g transform="matrix(.71436 0 0 .71436 -400.52 188.34)"><path d="m1293.2-120.67c-181.75 0.2763-511.18 0.13525-699.05 0.13998-2.3216 10.413-3.593 21.251-3.593 32.384v114c207.65 0.73695 494.72 0.38136 706.23 0.3733v-114.37c0-11.18-1.2522-22.07-3.593-32.523zm-458.69 295.56c-78.385-4e-3 -158.85 0.17892-243.95 0.55995v138.63c286.34-0.39317 421.73-0.13827 706.23-0.32664v-137.75c-163.2-0.53005-311.22-1.1113-462.28-1.1199z" opacity="0" stroke-width="1.4932"/></g></g></g></g><path d="m24.549 1119.5c0.66325 0 1.1979-0.5346 1.1979-1.1979v-0.3333c0 0.6632-0.53461 1.1978-1.1979 1.1978h-20.354c-0.66325 0-1.1979-0.5346-1.1979-1.1978v0.3333c0 0.6633 0.53461 1.1979 1.1979 1.1979z" fill="#1a237e" opacity=".2"/></g><g><path d="m11.756 21.257c0.13259-0.19823 0.18459-0.29794 0.26803-0.514 0.28355-0.7342 0.31255-1.7245 0.08885-3.0338-0.10819-0.63326-0.21674-1.1346-0.53498-2.471-0.47276-1.9852-0.58674-2.9314-0.44373-3.6833 0.11126-0.58503 0.40457-1 0.86971-1.2305 0.54265-0.26889 1.232-0.32252 2.2396-0.17426 0.69015 0.10155 1.0355 0.1392 1.416 0.15436 0.42218 0.01683 1.1456-5.64e-4 1.4992-0.03605 0.2392-0.024 0.23118-0.02019 0.7126-0.33858 0.61704-0.40808 0.9303-0.687 1.4074-1.2532 0.25422-0.30169 0.42456-0.49096 0.64585-0.71765l0.20368-0.20865-0.41585 0.010147c-2.0188 0.049281-2.5286 0.069583-3.5347 0.14079-0.8676 0.061404-1.1524 0.044832-2.1286-0.1239-0.20869-0.03607-0.54186-0.093624-0.74037-0.1279-0.19851-0.034274-0.6108-0.10807-0.91621-0.16399-1.0739-0.19664-1.5602-0.23038-2.1359-0.14817-0.4042 0.057713-0.8088 0.22745-1.0257 0.43028-0.28484 0.26641-0.48486 0.70494-0.58047 1.2726-0.028908 0.17163-0.033697 0.30611-0.032891 0.92277 8.693e-4 0.65015 0.00688 0.79173 0.060566 1.4252 0.12983 1.5316 0.22382 2.4219 0.33613 3.1836 0.31314 2.1238 0.77929 3.8062 1.4171 5.1145 0.3237 0.66393 0.6252 1.1415 1.0204 1.6163 0.11527 0.13849 0.14283 0.16242 0.16546 0.14363 0.01494-0.01239 0.07735-0.09759 0.13871-0.18931zm2.8806-4.6176c0.12924-0.04938 0.36708-0.20953 0.57032-0.38403 0.22417-0.19246 1.1028-1.0776 1.4322-1.4429 0.72673-0.80581 0.91376-1.1509 0.77315-1.4266-0.05642-0.11066-0.11066-0.16275-0.28756-0.27627-0.2696-0.17301-0.79702-0.38548-1.4652-0.59028-1.1132-0.34119-1.7166-0.48069-2.0823-0.48146-0.51716-0.0011-0.67915 0.22413-0.65097 0.9051 0.01277 0.30867 0.05186 0.59798 0.16254 1.2032 0.04096 0.22396 0.08175 0.44885 0.09065 0.49975 0.06584 0.37657 0.19976 0.94081 0.28838 1.215 0.16597 0.51354 0.33762 0.71378 0.688 0.80262 0.13775 0.03492 0.35476 0.02404 0.4808-0.02412z" fill="#fff" stroke-width=".018509"/></g><g display="none" fill="none"><rect transform="rotate(90)" x="7.8232" y="-20.923" width="13.1" height="13.1" display="inline" stroke="#000" stroke-width=".070382"/><rect x="7.2241" y="8.6528" width="14.298" height="11.441" stroke="#5261ff" stroke-linecap="round" stroke-linejoin="round" stroke-width=".06959"/><rect transform="rotate(90)" x="7.2241" y="-20.094" width="14.298" height="11.441" display="inline" stroke="#0f0" stroke-linecap="round" stroke-linejoin="round" stroke-width=".06959"/></g></svg>
