<?xml version="1.0" encoding="UTF-8"?>
<svg version="1.1" viewBox="0 0 28.747 28.747" xmlns="http://www.w3.org/2000/svg">
    <defs>
        <filter id="filter6206-7" color-interpolation-filters="sRGB">
            <feGaussianBlur stdDeviation="0.658125"/>
        </filter>
    </defs>
    <g transform="translate(0 -1093.8)">
        <path transform="matrix(1.0781 0 0 1.0641 -.093733 2.7509)" d="m4.4177 1028.2v1.6051h-1.6052v18.192h1.6052v2.1402h18.192v-2.1402h2.1402v-18.192h-2.1402v-1.6051z" fill="#3e2723" filter="url(#filter6206-7)" opacity=".2"/>
        <rect x="2.9987" y="1096.8" width="22.749" height="22.749" rx="1.1973" ry="1.1974" fill="#e91e63"/>
        <g transform="translate(-22.32 1056.5)">
            <path d="m0 0h51.2v51.2h-51.2z" fill="none" stroke-width="1.0667"/>
            <g transform="matrix(.33601 0 0 .33601 1.5296 73.043)">
                <path d="m0 0h51.2v51.2h-51.2z" fill="none" stroke-width="1.0667"/>
            </g>
            <g transform="matrix(.37187 0 0 .37187 38.802 63.239)">
                <path d="m0 0h51.2v51.2h-51.2z" fill="none" stroke-width="1.0667"/>
                <g transform="matrix(2.6891 0 0 2.6891 -82.906 -48.45)">
                    <path d="m0 0h51.2v51.2h-51.2z" fill="none" stroke-width="1.0667"/>
                </g>
            </g>
        </g>
        <path d="m4.1958 1096.8c-0.66332 0-1.1979 0.5346-1.1979 1.1979v0.3334c0-0.6634 0.53459-1.1979 1.1979-1.1979h20.354c0.66332 0 1.1979 0.5345 1.1979 1.1979v-0.3334c0-0.6633-0.5346-1.1979-1.1979-1.1979z" fill="#fff" opacity=".2"/>
        <rect x="128" y="546.52" width="42.667" height="42.667" fill="none" stroke-width="1.0667"/>
        <rect x="128" y="631.85" width="42.667" height="42.667" fill="none" stroke-width="1.0667"/>
        <rect x="128" y="674.52" width="42.667" height="42.667" fill="none" stroke-width="1.0667"/>
        <rect x="128" y="589.19" width="42.667" height="42.667" fill="none" stroke-width="1.0667"/>
        <rect x="128" y="717.19" width="42.667" height="42.667" fill="none" stroke-width="1.0667"/>
        <rect x="213.33" y="546.52" width="42.667" height="42.667" fill="none" stroke-width="1.0667"/>
        <rect x="213.33" y="631.85" width="42.667" height="42.667" fill="none" stroke-width="1.0667"/>
        <rect x="213.33" y="674.52" width="42.667" height="42.667" fill="none" stroke-width="1.0667"/>
        <rect x="213.33" y="589.19" width="42.667" height="42.667" fill="none" stroke-width="1.0667"/>
        <rect x="213.33" y="717.19" width="42.667" height="42.667" fill="none" stroke-width="1.0667"/>
        <rect x="298.67" y="546.52" width="42.667" height="42.667" fill="none" stroke-width="1.0667"/>
        <rect x="298.67" y="631.85" width="42.667" height="42.667" fill="none" stroke-width="1.0667"/>
        <rect x="298.67" y="674.52" width="42.667" height="42.667" fill="none" stroke-width="1.0667"/>
        <rect x="298.67" y="589.19" width="42.667" height="42.667" fill="none" stroke-width="1.0667"/>
        <rect x="298.67" y="717.19" width="42.667" height="42.667" fill="none" stroke-width="1.0667"/>
        <rect x="170.67" y="546.52" width="42.667" height="42.667" fill="none" stroke-width="1.0667"/>
        <rect x="170.67" y="631.85" width="42.667" height="42.667" fill="none" stroke-width="1.0667"/>
        <rect x="170.67" y="674.52" width="42.667" height="42.667" fill="none" stroke-width="1.0667"/>
        <rect x="170.67" y="589.19" width="42.667" height="42.667" fill="none" stroke-width="1.0667"/>
        <rect x="170.67" y="717.19" width="42.667" height="42.667" fill="none" stroke-width="1.0667"/>
        <rect x="256" y="546.52" width="42.667" height="42.667" fill="none" stroke-width="1.0667"/>
        <rect x="256" y="631.85" width="42.667" height="42.667" fill="none" stroke-width="1.0667"/>
        <rect x="256" y="674.52" width="42.667" height="42.667" fill="none" stroke-width="1.0667"/>
        <rect x="256" y="589.19" width="42.667" height="42.667" fill="none" stroke-width="1.0667"/>
        <rect x="256" y="717.19" width="42.667" height="42.667" fill="none" stroke-width="1.0667"/>
        <rect x="128" y="759.85" width="42.667" height="42.667" fill="none" stroke-width="1.0667"/>
        <rect x="213.33" y="759.85" width="42.667" height="42.667" fill="none" stroke-width="1.0667"/>
        <rect x="298.67" y="759.85" width="42.667" height="42.667" fill="none" stroke-width="1.0667"/>
        <rect x="170.67" y="759.85" width="42.667" height="42.667" fill="none" stroke-width="1.0667"/>
        <rect x="256" y="759.85" width="42.667" height="42.667" fill="none" stroke-width="1.0667"/>
        <rect x="341.33" y="589.19" width="42.667" height="42.667" fill="none" stroke-width="1.0667"/>
        <rect x="341.33" y="631.85" width="42.667" height="42.667" fill="none" stroke-width="1.0667"/>
        <rect x="341.33" y="717.19" width="42.667" height="42.667" fill="none" stroke-width="1.0667"/>
        <rect x="341.33" y="546.52" width="42.667" height="42.667" fill="none" stroke-width="1.0667"/>
        <rect x="341.33" y="674.52" width="42.667" height="42.667" fill="none" stroke-width="1.0667"/>
        <rect x="341.33" y="759.85" width="42.667" height="42.667" fill="none" stroke-width="1.0667"/>
        <rect x="160" y="578.52" width="192" height="192" fill="none" stroke-width="1.0667"/>
        <g transform="matrix(.37344 0 0 .37344 4.7333 1097.4)">
            <path d="m0 0h51.2v51.2h-51.2z" fill="none" stroke-width="1.0667"/>
        </g>
        <g transform="matrix(.36471 0 0 .36471 5.1356 1097.4)">
            <path d="m0 0h51.2v51.2h-51.2z" fill="none" stroke-width="1.0667"/>
        </g>
        <g transform="matrix(.41585 0 0 .41585 84.325 1055.9)">
            <g transform="matrix(.062269 0 0 .062269 -28.238 185.29)">
                <g transform="matrix(38.618 0 0 38.618 14724 -13542)">
                    <g transform="matrix(.71436 0 0 .71436 -400.52 188.34)">
                        <path d="m1293.2-120.67c-181.75 0.2763-511.18 0.13525-699.05 0.13998-2.3216 10.413-3.593 21.251-3.593 32.384v114c207.65 0.73695 494.72 0.38136 706.23 0.3733v-114.37c0-11.18-1.2522-22.07-3.593-32.523zm-458.69 295.56c-78.385-4e-3 -158.85 0.17892-243.95 0.55995v138.63c286.34-0.39317 421.73-0.13827 706.23-0.32664v-137.75c-163.2-0.53005-311.22-1.1113-462.28-1.1199z" opacity="0" stroke-width="1.4932"/>
                    </g>
                </g>
            </g>
        </g>
        <path d="m24.549 1119.5c0.66325 0 1.1979-0.5346 1.1979-1.1979v-0.3333c0 0.6632-0.53461 1.1978-1.1979 1.1978h-20.354c-0.66325 0-1.1979-0.5346-1.1979-1.1978v0.3333c0 0.6633 0.53461 1.1979 1.1979 1.1979z" fill="#3e2723" opacity=".2"/>
    </g>
    <g stroke-linecap="round" stroke-linejoin="round">
        <g stroke-width=".7">
            <path d="m14.106 16.015a3.2706 3.2706 0 0 1-3.2706 3.2706 3.2706 3.2706 0 0 1-3.2706-3.2706 3.2706 3.2706 0 0 1 3.2706-3.2706 3.2706 3.2706 0 0 1 3.2706 3.2706z" color="#000000" fill="none"/>
            <path d="m16.372 9.2024c-2.1398 0-3.983 1.3151-4.7637 3.1777-0.23916-0.05-0.48647-0.07813-0.74023-0.07813-1.9955 0-3.6211 1.6256-3.6211 3.6211-3e-7 1.9955 1.6256 3.6211 3.6211 3.6211 0.96692-1e-6 1.8423-0.3873 2.4922-1.0078 0.85009 0.61601 1.8861 0.99024 3.0117 0.99024 2.8423 0 5.121-2.3198 5.121-5.1621 3.2e-5 -0.09323 0.02059-0.18553-0.01554-0.27148-0.14961-2.71-2.3593-4.8906-5.1055-4.8906zm0 1.4004c2.0857 0 3.7617 1.676 3.7617 3.7617 2e-6 2.0857-1.676 3.7617-3.7617 3.7617-0.82985 0-1.5886-0.27371-2.209-0.72461 0.10243-0.22747 0.18442-0.46555 0.23828-0.71484 0.53442 0.45359 1.2173 0.73828 1.9707 0.73828 1.6016 0 2.8414-1.2727 2.9707-2.8418 0-0.26685-0.0102-0.34822-0.01368-0.4668-0.14537-1.553-1.367-2.8145-2.957-2.8145-1.3562 0-2.4978 0.89578-2.8984 2.1211-0.17589-0.18342-0.36735-0.35274-0.57812-0.49609 0.56238-1.3664 1.9014-2.3242 3.4766-2.3242zm0 1.4004c1.3084 0 2.3613 1.0529 2.3613 2.3613s-1.0529 2.3613-2.3613 2.3613c-0.78514 0-1.4735-0.38281-1.9023-0.96875-0.02626-0.56613-0.18332-1.0947-0.44141-1.5645 0.08914-1.2259 1.0943-2.1895 2.3438-2.1895zm-5.5039 0.99805c0.17736 0 0.34909 0.0207 0.51758 0.05078-0.11117 0.42022-0.17578 0.85825-0.17578 1.3125 0 1.4639 0.6222 2.7815 1.6074 3.7227-0.51699 0.46561-1.1958 0.75586-1.9492 0.75586-1.6172 0-2.9219-1.3028-2.9219-2.9199s1.3047-2.9219 2.9219-2.9219zm1.8145 0.64648c0.24404 0.19492 0.46007 0.42086 0.63086 0.68359-1.25e-4 0.01137-0.0039 0.02181-0.0039 0.0332-1e-6 0.59448 0.17749 1.1449 0.47266 1.6152-0.0063 0.32506-0.07037 0.63352-0.17383 0.92383-0.61432-0.66889-0.99805-1.554-0.99805-2.5391 0-0.24598 0.02772-0.48429 0.07227-0.7168z" color="#000000" fill="#ecffff"/>
        </g>
        <path d="m19.051 14.457a2.7116 2.7116 0 0 1-2.7116 2.7116 2.7116 2.7116 0 0 1-2.7116-2.7116 2.7116 2.7116 0 0 1 2.7116-2.7116 2.7116 2.7116 0 0 1 2.7116 2.7116" color="#000000" fill="none" stroke-width=".7"/>
        <path d="m20.801 14.457a4.4615 4.4615 0 0 1-4.4615 4.4615 4.4615 4.4615 0 0 1-4.4615-4.4615 4.4615 4.4615 0 0 1 4.4615-4.4615 4.4615 4.4615 0 0 1 4.4615 4.4615" color="#000000" fill="none" stroke-width="1.4"/>
    </g>
    <g display="none" fill="none">
        <rect transform="rotate(90)" x="7.8232" y="-20.923" width="13.1" height="13.1" display="inline" stroke="#000" stroke-width=".070382"/>
        <rect x="7.2241" y="8.6528" width="14.298" height="11.441" stroke="#5261ff" stroke-linecap="round" stroke-linejoin="round" stroke-width=".06959"/>
        <rect transform="rotate(90)" x="7.2241" y="-20.094" width="14.298" height="11.441" display="inline" stroke="#0f0" stroke-linecap="round" stroke-linejoin="round" stroke-width=".06959"/>
    </g>
</svg>
