<?xml version="1.0" encoding="UTF-8"?>
<svg version="1.1" viewBox="0 0 26.95 26.95" xmlns="http://www.w3.org/2000/svg">
    <defs>
        <filter id="filter6206-7" color-interpolation-filters="sRGB">
            <feGaussianBlur stdDeviation="0.658125"/>
        </filter>
    </defs>
    <g transform="translate(0 -1025.4)">
        <path transform="matrix(1.0107 0 0 .99762 -.087875 2.579)" d="m4.4177 1028.2v1.6051h-1.6052v18.192h1.6052v2.1402h18.192v-2.1402h2.1402v-18.192h-2.1402v-1.6051h-18.192z" fill="#263238" filter="url(#filter6206-7)" opacity=".2"/>
        <rect x="2.8113" y="1028.2" width="21.327" height="21.327" rx="1.1225" ry="1.1226" fill="#8bc34a"/>
        <g transform="translate(-20.925 990.46)">
            <path d="m0 0h48v48h-48z" fill="none"/>
            <g transform="matrix(.33601 0 0 .33601 1.434 68.477)">
                <path d="m0 0h48v48h-48z" fill="none"/>
            </g>
            <g transform="matrix(.37187 0 0 .37187 36.377 59.287)">
                <path d="m0 0h48v48h-48z" fill="none"/>
                <g transform="matrix(2.6891 0 0 2.6891 -77.724 -45.422)">
                    <path d="m0 0h48v48h-48z" fill="none"/>
                </g>
            </g>
        </g>
        <path transform="translate(0 1025.4)" d="m3.9336 2.8105c-0.62186 0-1.123 0.50115-1.123 1.123v0.3125c0-0.6219 0.50118-1.123 1.123-1.123h19.082c0.62186 0 1.123 0.50115 1.123 1.123v-0.3125c0-0.6219-0.50118-1.123-1.123-1.123h-19.082z" fill="#fff" opacity=".2"/>
        <rect x="120" y="512.36" width="40" height="40" fill="none"/>
        <rect x="120" y="592.36" width="40" height="40" fill="none"/>
        <rect x="120" y="632.36" width="40" height="40" fill="none"/>
        <rect x="120" y="552.36" width="40" height="40" fill="none"/>
        <rect x="120" y="672.36" width="40" height="40" fill="none"/>
        <rect x="200" y="512.36" width="40" height="40" fill="none"/>
        <rect x="200" y="592.36" width="40" height="40" fill="none"/>
        <rect x="200" y="632.36" width="40" height="40" fill="none"/>
        <rect x="200" y="552.36" width="40" height="40" fill="none"/>
        <rect x="200" y="672.36" width="40" height="40" fill="none"/>
        <rect x="280" y="512.36" width="40" height="40" fill="none"/>
        <rect x="280" y="592.36" width="40" height="40" fill="none"/>
        <rect x="280" y="632.36" width="40" height="40" fill="none"/>
        <rect x="280" y="552.36" width="40" height="40" fill="none"/>
        <rect x="280" y="672.36" width="40" height="40" fill="none"/>
        <rect x="160" y="512.36" width="40" height="40" fill="none"/>
        <rect x="160" y="592.36" width="40" height="40" fill="none"/>
        <rect x="160" y="632.36" width="40" height="40" fill="none"/>
        <rect x="160" y="552.36" width="40" height="40" fill="none"/>
        <rect x="160" y="672.36" width="40" height="40" fill="none"/>
        <rect x="240" y="512.36" width="40" height="40" fill="none"/>
        <rect x="240" y="592.36" width="40" height="40" fill="none"/>
        <rect x="240" y="632.36" width="40" height="40" fill="none"/>
        <rect x="240" y="552.36" width="40" height="40" fill="none"/>
        <rect x="240" y="672.36" width="40" height="40" fill="none"/>
        <rect x="120" y="712.36" width="40" height="40" fill="none"/>
        <rect x="200" y="712.36" width="40" height="40" fill="none"/>
        <rect x="280" y="712.36" width="40" height="40" fill="none"/>
        <rect x="160" y="712.36" width="40" height="40" fill="none"/>
        <rect x="240" y="712.36" width="40" height="40" fill="none"/>
        <rect x="320" y="552.36" width="40" height="40" fill="none"/>
        <rect x="320" y="592.36" width="40" height="40" fill="none"/>
        <rect x="320" y="672.36" width="40" height="40" fill="none"/>
        <rect x="320" y="512.36" width="40" height="40" fill="none"/>
        <rect x="320" y="632.36" width="40" height="40" fill="none"/>
        <rect x="320" y="712.36" width="40" height="40" fill="none"/>
        <rect x="150" y="542.36" width="180" height="180" fill="none"/>
        <g transform="matrix(.37344 0 0 .37344 4.4375 1028.8)">
            <path d="m0 0h48v48h-48z" fill="none"/>
        </g>
        <g transform="matrix(.36471 0 0 .36471 4.8146 1028.8)">
            <path d="m0 0h48v48h-48z" fill="none"/>
        </g>
        <g transform="matrix(.41585 0 0 .41585 79.055 989.88)">
            <g transform="matrix(.062269 0 0 .062269 -26.473 173.71)">
                <g transform="matrix(38.618 0 0 38.618 13804 -12696)">
                    <g transform="matrix(.71436 0 0 .71436 -375.49 176.57)">
                        <path transform="matrix(1.3999 0 0 1.3999 525.63 -247.17)" d="m490.56 95.75c-121.72 0.18504-342.34 0.090577-468.16 0.09375-1.5548 6.9739-2.4062 14.232-2.4062 21.688v76.344c139.06 0.49354 331.32 0.2554 472.97 0.25v-76.594c0-7.4875-0.8386-14.78-2.4062-21.781zm-307.19 197.94c-52.495-3e-3 -106.38 0.11982-163.38 0.375v92.844c191.76-0.26331 282.43-0.0926 472.97-0.21875v-92.25c-109.29-0.35498-208.43-0.74426-309.59-0.75z" opacity="0"/>
                    </g>
                </g>
            </g>
        </g>
        <path d="m23.015 1049.6c0.6218 0 1.123-0.5012 1.123-1.123v-0.3125c0 0.6218-0.5012 1.123-1.123 1.123h-19.082c-0.6218 0-1.123-0.5012-1.123-1.123v0.3125c0 0.6218 0.5012 1.123 1.123 1.123h19.082z" fill="#263238" opacity=".2"/>
    </g>
    <g transform="matrix(.026068 0 0 .026068 6.6241 6.6242)" fill="#fff">
        <g fill="#fff">
            <g fill="#fff">
                <path d="m5.893 369.38c40.793 33.412 91.721 51.814 143.41 51.814h6e-3c21.414 0 42.745-3.113 63.397-9.256 36.836-10.957 80.662-36.648 108.16-72.525-4.269 18.039-11.047 36.088-19.73 52.125-28.312 52.283-84.197 88.568-145.85 94.697-10.787 1.074-16.172 10.479-15.759 18.779 0.438 8.783 6.656 14.914 15.129 14.914 0.593 0 1.208-0.029 1.842-0.092 75.074-7.463 140.99-50.881 176.33-116.14 18.299-33.797 31.126-82.947 25.196-127.76 9.733 15.77 17.705 33.326 22.904 50.809 16.949 56.99 3.094 122.16-36.163 170.09-4.373 5.338-5.215 12.256-2.253 18.508 2.91 6.146 8.997 10.275 15.147 10.275 4.449 0 8.61-2.09 11.72-5.881 47.807-58.363 63.716-135.68 42.559-206.81-10.958-36.838-36.644-80.664-72.525-108.16 18.036 4.269 36.087 11.047 52.124 19.731 52.283 28.311 88.569 84.197 94.698 145.84 1.031 10.361 9.765 15.783 17.858 15.783 4.779 0 9.188-1.844 12.099-5.057 1.983-2.191 4.227-6.041 3.642-11.936-7.463-75.072-50.879-140.99-116.14-176.33-31.337-16.968-69.483-26.702-104.65-26.702-7.956 0-15.655 0.496-23.069 1.481 15.759-9.725 33.302-17.687 50.769-22.883 15.875-4.721 32.552-7.117 49.56-7.117 43.653 0 86.457 15.37 120.53 43.28 3.188 2.61 6.961 3.99 10.915 3.99 7.387 0 14.528-4.988 16.982-11.86 2.188-6.126 0.321-12.387-4.993-16.744-40.793-33.412-91.724-51.815-143.41-51.815-21.42 0-42.751 3.115-63.403 9.257-36.839 10.958-80.665 36.646-108.16 72.525 4.269-18.036 11.046-36.083 19.731-52.127 28.311-52.283 84.196-88.569 145.85-94.698 10.786-1.074 16.172-10.478 15.759-18.779-0.438-8.782-6.655-14.915-15.129-14.915-0.593 0-1.208 0.031-1.842 0.092-75.074 7.463-140.99 50.882-176.33 116.14-18.299 33.798-31.126 82.948-25.196 127.76-9.737-15.771-17.706-33.326-22.904-50.808-16.952-56.989-3.094-122.16 36.166-170.09 4.37-5.337 5.211-12.255 2.249-18.51-2.91-6.145-8.996-10.275-15.147-10.275-4.449 0-8.611 2.09-11.72 5.881-47.797 58.37-63.706 135.68-42.549 206.81 10.958 36.839 36.644 80.665 72.522 108.16-18.036-4.27-36.083-11.047-52.124-19.73-52.283-28.312-88.568-84.197-94.698-145.85-1.031-10.361-9.764-15.784-17.858-15.784-4.78 0-9.189 1.845-12.099 5.058-1.983 2.191-4.226 6.041-3.642 11.934 7.463 75.074 50.882 140.99 116.14 176.33 31.337 16.967 69.48 26.701 104.65 26.701 7.956 0 15.658-0.496 23.069-1.48-15.759 9.725-33.302 17.686-50.771 22.883-15.875 4.721-32.549 7.117-49.56 7.117-43.651 0-86.457-15.367-120.53-43.281-3.186-2.609-6.958-3.99-10.912-3.99-7.387 0-14.529 4.988-16.986 11.861-2.193 6.128-0.326 12.386 4.992 16.743z" fill="#fff"/>
            </g>
        </g>
    </g>
    <g display="none" fill="none">
        <rect transform="rotate(90)" x="7.3342" y="-19.616" width="12.282" height="12.282" display="inline" stroke="#000" stroke-width=".065984"/>
        <rect x="6.7726" y="8.112" width="13.405" height="10.726" stroke="#5261ff" stroke-linecap="round" stroke-linejoin="round" stroke-width=".06524"/>
        <rect transform="rotate(90)" x="6.7726" y="-18.838" width="13.405" height="10.726" display="inline" stroke="#0f0" stroke-linecap="round" stroke-linejoin="round" stroke-width=".06524"/>
    </g>
</svg>
