<?xml version="1.0" encoding="UTF-8"?>
<svg version="1.1" viewBox="0 0 28.747 28.747" xmlns="http://www.w3.org/2000/svg" xmlns:osb="http://www.openswatchbook.org/uri/2009/osb" xmlns:xlink="http://www.w3.org/1999/xlink">
    <defs>
        <filter id="filter6206-7" color-interpolation-filters="sRGB">
            <feGaussianBlur stdDeviation="0.658125"/>
        </filter>
    </defs>
    <g transform="translate(0 -1093.8)">
        <path transform="matrix(1.0781 0 0 1.0641 -.093733 2.7509)" d="m4.4177 1028.2v1.6051h-1.6052v18.192h1.6052v2.1402h18.192v-2.1402h2.1402v-18.192h-2.1402v-1.6051z" fill="#1a237e" filter="url(#filter6206-7)" opacity=".2"/>
        <rect x="2.9987" y="1096.8" width="22.749" height="22.749" rx="1.1973" ry="1.1974" fill="#9c27b0"/>
        <g transform="translate(-22.32 1056.5)">
            <path d="m0 0h51.2v51.2h-51.2z" fill="none" stroke-width="1.0667"/>
            <g transform="matrix(.33601 0 0 .33601 1.5296 73.043)">
                <path d="m0 0h51.2v51.2h-51.2z" fill="none" stroke-width="1.0667"/>
            </g>
            <g transform="matrix(.37187 0 0 .37187 38.802 63.239)">
                <path d="m0 0h51.2v51.2h-51.2z" fill="none" stroke-width="1.0667"/>
                <g transform="matrix(2.6891 0 0 2.6891 -82.906 -48.45)">
                    <path d="m0 0h51.2v51.2h-51.2z" fill="none" stroke-width="1.0667"/>
                </g>
            </g>
        </g>
        <path d="m4.1958 1096.8c-0.66332 0-1.1979 0.5346-1.1979 1.1979v0.3334c0-0.6634 0.53459-1.1979 1.1979-1.1979h20.354c0.66332 0 1.1979 0.5345 1.1979 1.1979v-0.3334c0-0.6633-0.5346-1.1979-1.1979-1.1979z" fill="#fff" opacity=".2"/>
        <rect x="128" y="546.52" width="42.667" height="42.667" fill="none" stroke-width="1.0667"/>
        <rect x="128" y="631.85" width="42.667" height="42.667" fill="none" stroke-width="1.0667"/>
        <rect x="128" y="674.52" width="42.667" height="42.667" fill="none" stroke-width="1.0667"/>
        <rect x="128" y="589.19" width="42.667" height="42.667" fill="none" stroke-width="1.0667"/>
        <rect x="128" y="717.19" width="42.667" height="42.667" fill="none" stroke-width="1.0667"/>
        <rect x="213.33" y="546.52" width="42.667" height="42.667" fill="none" stroke-width="1.0667"/>
        <rect x="213.33" y="631.85" width="42.667" height="42.667" fill="none" stroke-width="1.0667"/>
        <rect x="213.33" y="674.52" width="42.667" height="42.667" fill="none" stroke-width="1.0667"/>
        <rect x="213.33" y="589.19" width="42.667" height="42.667" fill="none" stroke-width="1.0667"/>
        <rect x="213.33" y="717.19" width="42.667" height="42.667" fill="none" stroke-width="1.0667"/>
        <rect x="298.67" y="546.52" width="42.667" height="42.667" fill="none" stroke-width="1.0667"/>
        <rect x="298.67" y="631.85" width="42.667" height="42.667" fill="none" stroke-width="1.0667"/>
        <rect x="298.67" y="674.52" width="42.667" height="42.667" fill="none" stroke-width="1.0667"/>
        <rect x="298.67" y="589.19" width="42.667" height="42.667" fill="none" stroke-width="1.0667"/>
        <rect x="298.67" y="717.19" width="42.667" height="42.667" fill="none" stroke-width="1.0667"/>
        <rect x="170.67" y="546.52" width="42.667" height="42.667" fill="none" stroke-width="1.0667"/>
        <rect x="170.67" y="631.85" width="42.667" height="42.667" fill="none" stroke-width="1.0667"/>
        <rect x="170.67" y="674.52" width="42.667" height="42.667" fill="none" stroke-width="1.0667"/>
        <rect x="170.67" y="589.19" width="42.667" height="42.667" fill="none" stroke-width="1.0667"/>
        <rect x="170.67" y="717.19" width="42.667" height="42.667" fill="none" stroke-width="1.0667"/>
        <rect x="256" y="546.52" width="42.667" height="42.667" fill="none" stroke-width="1.0667"/>
        <rect x="256" y="631.85" width="42.667" height="42.667" fill="none" stroke-width="1.0667"/>
        <rect x="256" y="674.52" width="42.667" height="42.667" fill="none" stroke-width="1.0667"/>
        <rect x="256" y="589.19" width="42.667" height="42.667" fill="none" stroke-width="1.0667"/>
        <rect x="256" y="717.19" width="42.667" height="42.667" fill="none" stroke-width="1.0667"/>
        <rect x="128" y="759.85" width="42.667" height="42.667" fill="none" stroke-width="1.0667"/>
        <rect x="213.33" y="759.85" width="42.667" height="42.667" fill="none" stroke-width="1.0667"/>
        <rect x="298.67" y="759.85" width="42.667" height="42.667" fill="none" stroke-width="1.0667"/>
        <rect x="170.67" y="759.85" width="42.667" height="42.667" fill="none" stroke-width="1.0667"/>
        <rect x="256" y="759.85" width="42.667" height="42.667" fill="none" stroke-width="1.0667"/>
        <rect x="341.33" y="589.19" width="42.667" height="42.667" fill="none" stroke-width="1.0667"/>
        <rect x="341.33" y="631.85" width="42.667" height="42.667" fill="none" stroke-width="1.0667"/>
        <rect x="341.33" y="717.19" width="42.667" height="42.667" fill="none" stroke-width="1.0667"/>
        <rect x="341.33" y="546.52" width="42.667" height="42.667" fill="none" stroke-width="1.0667"/>
        <rect x="341.33" y="674.52" width="42.667" height="42.667" fill="none" stroke-width="1.0667"/>
        <rect x="341.33" y="759.85" width="42.667" height="42.667" fill="none" stroke-width="1.0667"/>
        <rect x="160" y="578.52" width="192" height="192" fill="none" stroke-width="1.0667"/>
        <g transform="matrix(.37344 0 0 .37344 4.7333 1097.4)">
            <path d="m0 0h51.2v51.2h-51.2z" fill="none" stroke-width="1.0667"/>
        </g>
        <g transform="matrix(.36471 0 0 .36471 5.1356 1097.4)">
            <path d="m0 0h51.2v51.2h-51.2z" fill="none" stroke-width="1.0667"/>
        </g>
        <g transform="matrix(.41585 0 0 .41585 84.325 1055.9)">
            <g transform="matrix(.062269 0 0 .062269 -28.238 185.29)">
                <g transform="matrix(38.618 0 0 38.618 14724 -13542)">
                    <g transform="matrix(.71436 0 0 .71436 -400.52 188.34)">
                        <path d="m1293.2-120.67c-181.75 0.2763-511.18 0.13525-699.05 0.13998-2.3216 10.413-3.593 21.251-3.593 32.384v114c207.65 0.73695 494.72 0.38136 706.23 0.3733v-114.37c0-11.18-1.2522-22.07-3.593-32.523zm-458.69 295.56c-78.385-4e-3 -158.85 0.17892-243.95 0.55995v138.63c286.34-0.39317 421.73-0.13827 706.23-0.32664v-137.75c-163.2-0.53005-311.22-1.1113-462.28-1.1199z" opacity="0" stroke-width="1.4932"/>
                    </g>
                </g>
            </g>
        </g>
        <path d="m24.549 1119.5c0.66325 0 1.1979-0.5346 1.1979-1.1979v-0.3333c0 0.6632-0.53461 1.1978-1.1979 1.1978h-20.354c-0.66325 0-1.1979-0.5346-1.1979-1.1978v0.3333c0 0.6633 0.53461 1.1979 1.1979 1.1979z" fill="#1a237e" opacity=".2"/>
    </g>
    <g>
        <path d="m19.918 9.4625c-0.71684 0.00149-1.5006 0.45489-2.0344 0.94155-0.03473-0.03376-0.07892-0.05877-0.11769-0.08911-0.39709-0.50284-1.0061-0.82722-1.7099-0.82722-0.69102 0-1.3544 0.32285-1.7873 0.82722-0.43284-0.5044-1.0962-0.82722-1.7873-0.82722-0.69198 0-1.2921 0.31377-1.6897 0.802-0.88008-0.76609-2.2201-1.2602-3.0802-0.23202-0.19176 0.22924-0.33375 0.50605-0.42874 0.79359-0.062377 0.18882-0.12995 0.45577-0.045401 0.64899 0.095513 0.21812 0.47839 0.11619 0.63891 0.07229 0.11344-0.03107 0.2257-0.07599 0.33459-0.12946-0.2122 0.39133-0.4754 1.0227-0.11265 1.2829 0.21036 0.15088 0.55076 0.03583 0.76501-0.04035 0.11417-0.04046 0.22718-0.09173 0.33627-0.14964-0.087338 0.43629-0.1645 1.1712 0.31777 1.2576 0.44123 0.0791 0.91321-0.26623 1.2644-0.59519 0.56412 0.91727 1.5895 1.8539 2.9121 3.0533l0.36653 0.3329c0.23913 0.60762 0.35093 0.97754 0.35476 1.3215 0.0031 0.27818-0.05234 0.4685-0.18495 0.64395-0.20005 0.2647-0.45174 0.35889-0.8911 0.3329-0.75319-0.04455-1.5895-0.43993-2.2816-1.0777-0.51707-0.47654-0.7619-0.88389-0.68934-1.1467 0.04726-0.17115 0.24172-0.26111 0.62882-0.29087l0.20848-0.01681 0.0185 0.0992c0.07801 0.44355 0.11056 0.52315 0.21521 0.52289 0.05505-1.32e-4 0.12739-0.04872 0.64059-0.42706 0.39262-0.28944 0.44884-0.3404 0.45564-0.40856 0.0048-0.04851-0.0074-0.0909-0.03363-0.11265-0.07183-0.05961-1.2427-0.58678-1.303-0.58678-0.03141 0-0.07898 0.02253-0.10424 0.05043-0.04372 0.04821-0.04325 0.06136-0.0034 0.26229 0.02309 0.11633 0.04204 0.21805 0.04204 0.22698-1e-5 0.0089-0.05421 0.02398-0.12106 0.03363-0.47561 0.06869-0.87342 0.29547-1.0071 0.57165-0.16256 0.3358 0.02453 0.89078 0.46237 1.3686 0.39812 0.43447 1.149 0.90336 1.8511 1.1568 0.30469 0.10995 0.43165 0.14008 0.68262 0.16477 0.58123 0.05717 1.1129-0.10761 1.4275-0.44387 0.27338-0.29225 0.38994-0.61256 0.39175-1.0761 0.0013-0.34179-0.09982-0.70995-0.28583-1.219l0.31105-0.28246c1.3357-1.2112 2.3652-2.1559 2.9255-3.0819 0.02129-0.0037 0.06032-0.01169 0.0807-0.01514 0.35767 0.35483 0.86087 0.7565 1.3535 0.612 0.44831-0.13154 0.44013-0.71391 0.36653-1.1618 0.33869 0.17427 0.74984 0.29613 1.0525 0.07903 0.34231-0.24538 0.17855-0.76709-0.01514-1.1618 0.07066 0.02868 0.1425 0.05413 0.21521 0.07398 0.19139 0.05236 0.5273 0.06672 0.66245-0.12442 0.11338-0.1603 0.04709-0.42453 0.0017-0.59687-0.08-0.30528-0.23403-0.58918-0.42038-0.83562-0.31431-0.41573-0.71987-0.57758-1.15-0.57669z" fill="#fff" stroke-width=".69962"/>
    </g>
    <g display="none" fill="none">
        <rect transform="rotate(90)" x="7.8232" y="-20.923" width="13.1" height="13.1" display="inline" stroke="#000" stroke-width=".070382"/>
        <rect x="7.2241" y="8.6528" width="14.298" height="11.441" stroke="#5261ff" stroke-linecap="round" stroke-linejoin="round" stroke-width=".06959"/>
        <rect transform="rotate(90)" x="7.2241" y="-20.094" width="14.298" height="11.441" display="inline" stroke="#0f0" stroke-linecap="round" stroke-linejoin="round" stroke-width=".06959"/>
    </g>
</svg>
