<?xml version="1.0" encoding="UTF-8"?>
<svg version="1.1" viewBox="0 0 28.747 28.747" xmlns="http://www.w3.org/2000/svg" xmlns:osb="http://www.openswatchbook.org/uri/2009/osb" xmlns:xlink="http://www.w3.org/1999/xlink">
    <defs>
        <filter id="filter6206-7" color-interpolation-filters="sRGB">
            <feGaussianBlur stdDeviation="0.658125"/>
        </filter>
    </defs>
    <g transform="translate(0 -1093.8)">
        <path transform="matrix(1.0781 0 0 1.0641 -.093733 2.7509)" d="m4.4177 1028.2v1.6051h-1.6052v18.192h1.6052v2.1402h18.192v-2.1402h2.1402v-18.192h-2.1402v-1.6051z" fill="#263238" filter="url(#filter6206-7)" opacity=".2"/>
        <rect x="2.9987" y="1096.8" width="22.749" height="22.749" rx="1.1973" ry="1.1974" fill="#03a9f4"/>
        <g transform="translate(-22.32 1056.5)">
            <path d="m0 0h51.2v51.2h-51.2z" fill="none" stroke-width="1.0667"/>
            <g transform="matrix(.33601 0 0 .33601 1.5296 73.043)">
                <path d="m0 0h51.2v51.2h-51.2z" fill="none" stroke-width="1.0667"/>
            </g>
            <g transform="matrix(.37187 0 0 .37187 38.802 63.239)">
                <path d="m0 0h51.2v51.2h-51.2z" fill="none" stroke-width="1.0667"/>
                <g transform="matrix(2.6891 0 0 2.6891 -82.906 -48.45)">
                    <path d="m0 0h51.2v51.2h-51.2z" fill="none" stroke-width="1.0667"/>
                </g>
            </g>
        </g>
        <path d="m4.1958 1096.8c-0.66332 0-1.1979 0.5346-1.1979 1.1979v0.3334c0-0.6634 0.53459-1.1979 1.1979-1.1979h20.354c0.66332 0 1.1979 0.5345 1.1979 1.1979v-0.3334c0-0.6633-0.5346-1.1979-1.1979-1.1979z" fill="#fff" opacity=".2"/>
        <rect x="128" y="546.52" width="42.667" height="42.667" fill="none" stroke-width="1.0667"/>
        <rect x="128" y="631.85" width="42.667" height="42.667" fill="none" stroke-width="1.0667"/>
        <rect x="128" y="674.52" width="42.667" height="42.667" fill="none" stroke-width="1.0667"/>
        <rect x="128" y="589.19" width="42.667" height="42.667" fill="none" stroke-width="1.0667"/>
        <rect x="128" y="717.19" width="42.667" height="42.667" fill="none" stroke-width="1.0667"/>
        <rect x="213.33" y="546.52" width="42.667" height="42.667" fill="none" stroke-width="1.0667"/>
        <rect x="213.33" y="631.85" width="42.667" height="42.667" fill="none" stroke-width="1.0667"/>
        <rect x="213.33" y="674.52" width="42.667" height="42.667" fill="none" stroke-width="1.0667"/>
        <rect x="213.33" y="589.19" width="42.667" height="42.667" fill="none" stroke-width="1.0667"/>
        <rect x="213.33" y="717.19" width="42.667" height="42.667" fill="none" stroke-width="1.0667"/>
        <rect x="298.67" y="546.52" width="42.667" height="42.667" fill="none" stroke-width="1.0667"/>
        <rect x="298.67" y="631.85" width="42.667" height="42.667" fill="none" stroke-width="1.0667"/>
        <rect x="298.67" y="674.52" width="42.667" height="42.667" fill="none" stroke-width="1.0667"/>
        <rect x="298.67" y="589.19" width="42.667" height="42.667" fill="none" stroke-width="1.0667"/>
        <rect x="298.67" y="717.19" width="42.667" height="42.667" fill="none" stroke-width="1.0667"/>
        <rect x="170.67" y="546.52" width="42.667" height="42.667" fill="none" stroke-width="1.0667"/>
        <rect x="170.67" y="631.85" width="42.667" height="42.667" fill="none" stroke-width="1.0667"/>
        <rect x="170.67" y="674.52" width="42.667" height="42.667" fill="none" stroke-width="1.0667"/>
        <rect x="170.67" y="589.19" width="42.667" height="42.667" fill="none" stroke-width="1.0667"/>
        <rect x="170.67" y="717.19" width="42.667" height="42.667" fill="none" stroke-width="1.0667"/>
        <rect x="256" y="546.52" width="42.667" height="42.667" fill="none" stroke-width="1.0667"/>
        <rect x="256" y="631.85" width="42.667" height="42.667" fill="none" stroke-width="1.0667"/>
        <rect x="256" y="674.52" width="42.667" height="42.667" fill="none" stroke-width="1.0667"/>
        <rect x="256" y="589.19" width="42.667" height="42.667" fill="none" stroke-width="1.0667"/>
        <rect x="256" y="717.19" width="42.667" height="42.667" fill="none" stroke-width="1.0667"/>
        <rect x="128" y="759.85" width="42.667" height="42.667" fill="none" stroke-width="1.0667"/>
        <rect x="213.33" y="759.85" width="42.667" height="42.667" fill="none" stroke-width="1.0667"/>
        <rect x="298.67" y="759.85" width="42.667" height="42.667" fill="none" stroke-width="1.0667"/>
        <rect x="170.67" y="759.85" width="42.667" height="42.667" fill="none" stroke-width="1.0667"/>
        <rect x="256" y="759.85" width="42.667" height="42.667" fill="none" stroke-width="1.0667"/>
        <rect x="341.33" y="589.19" width="42.667" height="42.667" fill="none" stroke-width="1.0667"/>
        <rect x="341.33" y="631.85" width="42.667" height="42.667" fill="none" stroke-width="1.0667"/>
        <rect x="341.33" y="717.19" width="42.667" height="42.667" fill="none" stroke-width="1.0667"/>
        <rect x="341.33" y="546.52" width="42.667" height="42.667" fill="none" stroke-width="1.0667"/>
        <rect x="341.33" y="674.52" width="42.667" height="42.667" fill="none" stroke-width="1.0667"/>
        <rect x="341.33" y="759.85" width="42.667" height="42.667" fill="none" stroke-width="1.0667"/>
        <rect x="160" y="578.52" width="192" height="192" fill="none" stroke-width="1.0667"/>
        <g transform="matrix(.37344 0 0 .37344 4.7333 1097.4)">
            <path d="m0 0h51.2v51.2h-51.2z" fill="none" stroke-width="1.0667"/>
        </g>
        <g transform="matrix(.36471 0 0 .36471 5.1356 1097.4)">
            <path d="m0 0h51.2v51.2h-51.2z" fill="none" stroke-width="1.0667"/>
        </g>
        <g transform="matrix(.41585 0 0 .41585 84.325 1055.9)">
            <g transform="matrix(.062269 0 0 .062269 -28.238 185.29)">
                <g transform="matrix(38.618 0 0 38.618 14724 -13542)">
                    <g transform="matrix(.71436 0 0 .71436 -400.52 188.34)">
                        <path d="m1293.2-120.67c-181.75 0.2763-511.18 0.13525-699.05 0.13998-2.3216 10.413-3.593 21.251-3.593 32.384v114c207.65 0.73695 494.72 0.38136 706.23 0.3733v-114.37c0-11.18-1.2522-22.07-3.593-32.523zm-458.69 295.56c-78.385-4e-3 -158.85 0.17892-243.95 0.55995v138.63c286.34-0.39317 421.73-0.13827 706.23-0.32664v-137.75c-163.2-0.53005-311.22-1.1113-462.28-1.1199z" opacity="0" stroke-width="1.4932"/>
                    </g>
                </g>
            </g>
        </g>
        <path d="m24.549 1119.5c0.66325 0 1.1979-0.5346 1.1979-1.1979v-0.3333c0 0.6632-0.53461 1.1978-1.1979 1.1978h-20.354c-0.66325 0-1.1979-0.5346-1.1979-1.1978v0.3333c0 0.6633 0.53461 1.1979 1.1979 1.1979z" fill="#263238" opacity=".2"/>
    </g>
    <g>
        <path d="m10.627 20.526c-1.3953-2.6939-0.83888-5.9689 0.95588-5.6258 0.12096 0.02313 0.14911 0.0066 0.1196-0.07036-0.49052-1.2783 0.19744-2.6472 1.5385-3.0614 0.38004-0.11738 0.38004-0.11738 0.42242-0.58274 0.09465-1.0393 0.46588-1.5766 1.313-1.9003 0.6284-0.24013 0.7972-0.44519 0.7972-0.9685 0-1.1401 0.99605-1.499 1.4839-0.5346 0.44236 0.87445 0.5301 1.5992 0.27005 2.2307-0.24698 0.59978-0.19246 0.76329 0.34229 1.0265 1.9352 0.9527 0.93443 6.4908-1.1729 6.4908-0.04101 0-0.25186 0.16044-0.46855 0.35653-1.0519 0.95191-2.6619 1.2415-3.7558 0.6756-0.43132-0.22315-0.61318 0.10824-0.97837 1.7828-0.13506 0.61927-0.26401 1.1477-0.28656 1.1742-0.02256 0.02655-0.28382-0.42052-0.5806-0.99349zm0.7779-2.0271c0.32049-0.64035 0.68396-0.85975 1.0449-0.63077 1.0804 0.68534 2.4746 0.45722 3.4979-0.57232 0.37424-0.37655 0.495-0.46234 0.58216-0.41356 0.42394 0.23725 1.3371-0.91047 1.6368-2.0572 0.51724-1.9793 0.04728-3.3826-1.1346-3.3881-0.15478-7.14e-4 -0.16593-0.02342-0.17097-0.34809-3e-3 -0.19103-0.0566-0.44557-0.1192-0.56566-0.11155-0.21399-0.11056-0.2222 0.04937-0.41227 0.36906-0.4386 0.38755-0.97939 0.06039-1.7662-0.27907-0.67112-0.43464-0.64163-0.48926 0.092735-0.05681 0.7639-0.3339 1.1029-1.1338 1.3872-0.73958 0.26285-1.0062 0.76359-0.97172 1.8253 0.01558 0.48004 0.01558 0.48004-0.44259 0.58655-1.758 0.40868-2.2668 2.2679-0.93299 3.4096 0.54508 0.46657 0.18224 0.70798-0.44781 0.29795-1.2749-0.82969-1.9535-0.33913-2.0111 1.4538-0.04831 1.503 0.44237 2.9281 0.6813 1.9786 0.07677-0.30506 0.21233-0.7 0.30124-0.87765zm-0.57644 0.05807c-0.2378-0.58698 0.01316-2.1126 0.40864-2.4841 0.23555-0.22129 0.2976-0.11867 0.2976 0.49214 0 0.4528 0.02381 0.58042 0.13463 0.72129 0.13463 0.17115 0.13463 0.17115-0.153 0.43628-0.1582 0.14582-0.36561 0.42302-0.46091 0.61601-0.14949 0.3027-0.18066 0.3327-0.22695 0.21842zm2.2828-0.78385c-0.72453-0.205-0.97582-0.49615-0.58163-0.67391 0.33044-0.14901 0.75838-0.6047 0.8998-0.95814 0.05865-0.14658 0.11109-0.26652 0.11653-0.26652 0.0055 0 0.46912-0.16408 1.0304-0.36461 0.94359-0.33714 1.0293-0.35663 1.1376-0.25863 0.06441 0.05829 0.23085 0.14582 0.36986 0.19451 0.30834 0.108 0.32397 0.35452 0.05916 0.93294-0.48774 1.0654-1.8996 1.7147-3.0317 1.3944zm-1.2235-1.1463c0.05128-0.54925 0.02284-0.53246 0.46461-0.2742 0.45148 0.26393 0.45044 0.25419 0.05407 0.50854-0.50383 0.3233-0.56806 0.29429-0.51869-0.23434zm4.6537-0.14608c-0.18173-0.29404 0.14894-0.96313 0.52715-1.0667 0.21743-0.05952 0.43545-0.13301 0.48449-0.16332 0.24384-0.1507-0.194 0.63898-0.57539 1.0378-0.23349 0.24414-0.36763 0.30324-0.43625 0.19222zm-3.5349-1.2196c-0.3269-0.34798-0.54624-1.1567-0.45116-1.6635 0.14096-0.75141 1.693-1.3572 2.2313-0.87094 0.42008 0.37952 0.61406 0.32031 1.6492-0.50342 0.43051-0.34259 0.43051-0.34259 0.47253-0.01798 0.02311 0.17854 0.16748 0.69717 0.32082 1.1525 0.25724 0.76386 0.41083 1.5233 0.30807 1.5233-0.02369 0-0.30355-0.17671-0.62192-0.39269-1.2351-0.83789-2.2781-0.97768-3.3031-0.44268-0.7049 0.36795-0.81068 0.58614-0.21781 0.44929 0.7479-0.17263 2.0602 0.10205 2.0028 0.4192-0.05042 0.27833-2.1666 0.5854-2.3907 0.3469zm3.1087-0.04937c-0.08526-0.03623-0.28328-0.19786-0.44006-0.35918-0.36012-0.37054-0.84752-0.61926-1.323-0.67514-0.4497-0.05285-0.44289-0.06532 0.08183-0.14983 0.80252-0.12924 1.5254 0.09429 2.3682 0.73227 0.4194 0.31749 0.44072 0.34559 0.30128 0.39718-0.25105 0.09287-0.82377 0.12457-0.98818 0.05469zm1.6945-0.70082c-0.02712-0.02712-0.04929-0.10579-0.04929-0.17484 0-0.06904-0.13412-0.53592-0.29805-1.0375-0.35602-1.0893-0.37414-1.4642-0.07076-1.4642 0.1492 0 0.49109 0.44359 0.54768 0.71058 0.10479 0.49445-6.88e-4 2.0948-0.12958 1.9659zm-2.9255-2.1131c-0.49685-0.49685-0.46131-0.82531 0.119-1.0998 0.50701-0.23986 0.6112-0.24142 0.66864-0.01006 0.05227 0.21061 0.28313 0.48019 0.41121 0.48019 0.28184 0-0.10702 0.52879-0.55468 0.75426-0.30149 0.15186-0.38361 0.13598-0.64417-0.12458zm1.1836-0.99162c-0.21905-0.21905-0.20428-0.33749 0.07719-0.61896 0.27707-0.27707 0.42323-0.19549 0.42323 0.23624 0 0.45757-0.24115 0.642-0.50042 0.38272zm-1.4584-0.45062c0.06609-0.41409 0.18529-0.5483 0.71677-0.80705 0.26418-0.12862 0.5772-0.29662 0.69559-0.37334 0.2656-0.17212 0.27009-0.098774 0.0238 0.3887-0.34743 0.68767-1.523 1.3357-1.4362 0.79169zm1.79-1.0145c0.02881-0.06972 0.1057-0.3205 0.17086-0.55728 0.11847-0.43051 0.11847-0.43051 0.12445-0.14247 0.0058 0.28319-0.14189 0.69934-0.27826 0.78362-0.04537 0.02804-0.05128-1e-3 -0.01705-0.083856z" fill="#fff"/>
    </g>
    <g display="none" fill="none">
        <rect transform="rotate(90)" x="7.8232" y="-20.923" width="13.1" height="13.1" display="inline" stroke="#000" stroke-width=".070382"/>
        <rect x="7.2241" y="8.6528" width="14.298" height="11.441" stroke="#5261ff" stroke-linecap="round" stroke-linejoin="round" stroke-width=".069589"/>
        <rect transform="rotate(90)" x="7.2241" y="-20.094" width="14.298" height="11.441" display="inline" stroke="#0f0" stroke-linecap="round" stroke-linejoin="round" stroke-width=".069589"/>
    </g>
</svg>
