<?xml version="1.0" encoding="UTF-8"?>
<svg version="1.1" viewBox="0 0 26.95 26.95" xmlns="http://www.w3.org/2000/svg">
    <defs>
        <filter id="filter6206-7" color-interpolation-filters="sRGB">
            <feGaussianBlur stdDeviation="0.658125"/>
        </filter>
    </defs>
    <g transform="translate(0 -1025.4)">
        <path transform="matrix(1.0107 0 0 .99762 -.087875 2.579)" d="m4.4177 1028.2v1.6051h-1.6052v18.192h1.6052v2.1402h18.192v-2.1402h2.1402v-18.192h-2.1402v-1.6051h-18.192z" fill="#3e2723" filter="url(#filter6206-7)" opacity=".2"/>
        <rect x="2.8113" y="1028.2" width="21.327" height="21.327" rx="1.1225" ry="1.1226" fill="#795548"/>
        <g transform="translate(-20.925 990.46)">
            <path d="m0 0h48v48h-48z" fill="none"/>
            <g transform="matrix(.33601 0 0 .33601 1.434 68.477)">
                <path d="m0 0h48v48h-48z" fill="none"/>
            </g>
            <g transform="matrix(.37187 0 0 .37187 36.377 59.287)">
                <path d="m0 0h48v48h-48z" fill="none"/>
                <g transform="matrix(2.6891 0 0 2.6891 -77.724 -45.422)">
                    <path d="m0 0h48v48h-48z" fill="none"/>
                </g>
            </g>
        </g>
        <path transform="translate(0 1025.4)" d="m3.9336 2.8105c-0.62186 0-1.123 0.50115-1.123 1.123v0.3125c0-0.6219 0.50118-1.123 1.123-1.123h19.082c0.62186 0 1.123 0.50115 1.123 1.123v-0.3125c0-0.6219-0.50118-1.123-1.123-1.123h-19.082z" fill="#fff" opacity=".2"/>
        <rect x="120" y="512.36" width="40" height="40" fill="none"/>
        <rect x="120" y="592.36" width="40" height="40" fill="none"/>
        <rect x="120" y="632.36" width="40" height="40" fill="none"/>
        <rect x="120" y="552.36" width="40" height="40" fill="none"/>
        <rect x="120" y="672.36" width="40" height="40" fill="none"/>
        <rect x="200" y="512.36" width="40" height="40" fill="none"/>
        <rect x="200" y="592.36" width="40" height="40" fill="none"/>
        <rect x="200" y="632.36" width="40" height="40" fill="none"/>
        <rect x="200" y="552.36" width="40" height="40" fill="none"/>
        <rect x="200" y="672.36" width="40" height="40" fill="none"/>
        <rect x="280" y="512.36" width="40" height="40" fill="none"/>
        <rect x="280" y="592.36" width="40" height="40" fill="none"/>
        <rect x="280" y="632.36" width="40" height="40" fill="none"/>
        <rect x="280" y="552.36" width="40" height="40" fill="none"/>
        <rect x="280" y="672.36" width="40" height="40" fill="none"/>
        <rect x="160" y="512.36" width="40" height="40" fill="none"/>
        <rect x="160" y="592.36" width="40" height="40" fill="none"/>
        <rect x="160" y="632.36" width="40" height="40" fill="none"/>
        <rect x="160" y="552.36" width="40" height="40" fill="none"/>
        <rect x="160" y="672.36" width="40" height="40" fill="none"/>
        <rect x="240" y="512.36" width="40" height="40" fill="none"/>
        <rect x="240" y="592.36" width="40" height="40" fill="none"/>
        <rect x="240" y="632.36" width="40" height="40" fill="none"/>
        <rect x="240" y="552.36" width="40" height="40" fill="none"/>
        <rect x="240" y="672.36" width="40" height="40" fill="none"/>
        <rect x="120" y="712.36" width="40" height="40" fill="none"/>
        <rect x="200" y="712.36" width="40" height="40" fill="none"/>
        <rect x="280" y="712.36" width="40" height="40" fill="none"/>
        <rect x="160" y="712.36" width="40" height="40" fill="none"/>
        <rect x="240" y="712.36" width="40" height="40" fill="none"/>
        <rect x="320" y="552.36" width="40" height="40" fill="none"/>
        <rect x="320" y="592.36" width="40" height="40" fill="none"/>
        <rect x="320" y="672.36" width="40" height="40" fill="none"/>
        <rect x="320" y="512.36" width="40" height="40" fill="none"/>
        <rect x="320" y="632.36" width="40" height="40" fill="none"/>
        <rect x="320" y="712.36" width="40" height="40" fill="none"/>
        <rect x="150" y="542.36" width="180" height="180" fill="none"/>
        <g transform="matrix(.37344 0 0 .37344 4.4375 1028.8)">
            <path d="m0 0h48v48h-48z" fill="none"/>
        </g>
        <g transform="matrix(.36471 0 0 .36471 4.8146 1028.8)">
            <path d="m0 0h48v48h-48z" fill="none"/>
        </g>
        <g transform="matrix(.41585 0 0 .41585 79.055 989.88)">
            <g transform="matrix(.062269 0 0 .062269 -26.473 173.71)">
                <g transform="matrix(38.618 0 0 38.618 13804 -12696)">
                    <g transform="matrix(.71436 0 0 .71436 -375.49 176.57)">
                        <path transform="matrix(1.3999 0 0 1.3999 525.63 -247.17)" d="m490.56 95.75c-121.72 0.18504-342.34 0.090577-468.16 0.09375-1.5548 6.9739-2.4062 14.232-2.4062 21.688v76.344c139.06 0.49354 331.32 0.2554 472.97 0.25v-76.594c0-7.4875-0.8386-14.78-2.4062-21.781zm-307.19 197.94c-52.495-3e-3 -106.38 0.11982-163.38 0.375v92.844c191.76-0.26331 282.43-0.0926 472.97-0.21875v-92.25c-109.29-0.35498-208.43-0.74426-309.59-0.75z" opacity="0"/>
                    </g>
                </g>
            </g>
        </g>
        <path d="m23.015 1049.6c0.6218 0 1.123-0.5012 1.123-1.123v-0.3125c0 0.6218-0.5012 1.123-1.123 1.123h-19.082c-0.6218 0-1.123-0.5012-1.123-1.123v0.3125c0 0.6218 0.5012 1.123 1.123 1.123h19.082z" fill="#3e2723" opacity=".2"/>
    </g>
    <g display="none" fill="none">
        <rect transform="rotate(90)" x="7.3342" y="-19.616" width="12.282" height="12.282" display="inline" stroke="#000" stroke-width=".065984"/>
        <rect x="6.7726" y="8.112" width="13.405" height="10.726" stroke="#5261ff" stroke-linecap="round" stroke-linejoin="round" stroke-width=".06524"/>
        <rect transform="rotate(90)" x="6.7726" y="-18.838" width="13.405" height="10.726" display="inline" stroke="#0f0" stroke-linecap="round" stroke-linejoin="round" stroke-width=".06524"/>
    </g>
    <path d="m13.477 6.7896c-3.6927 0-6.6874 2.9938-6.6874 6.6854 0 2.1908 1.0606 4.1399 2.6905 5.3561 0.085785 0.06627 0.17547 0.12864 0.26125 0.18711 0.077988 0.05068 0.15207 0.09746 0.23006 0.14813 0.011698 0.0078 0.027296 0.0156 0.038994 0.02339l0.0039 0.0039c1.0099 0.61202 2.1953 0.96675 3.4626 0.96675 0.80716 0 1.5831-0.14423 2.2967-0.40931 0.10138-0.03509 0.20276-0.07407 0.30025-0.11694 0.07799-0.03509 0.15987-0.07016 0.23786-0.10525 0.0195-0.0117 0.03899-0.01949 0.05849-0.02728 0.09749-0.04677 0.19107-0.09746 0.28855-0.14813 2.0861-1.1305 3.5016-3.3408 3.5016-5.8785 0-3.6916-2.9908-6.6854-6.6835-6.6854zm0 1.3371c1.0606 0 2.0472 0.30796 2.8777 0.83811h-5.7554c0.83056-0.53015 1.8171-0.83811 2.8777-0.83811zm-3.6459 1.4345h7.2918c0.5537 0.51846 0.99823 1.1461 1.2907 1.8555h-6.9135c-0.0078 0.48338-0.40163 0.87709-0.88905 0.87709-0.48742 0-0.88515-0.39372-0.89295-0.87709h-1.1776c0.29245-0.70947 0.73697-1.3371 1.2907-1.8555zm-0.11308 1.8555h1.782c0-0.0078 0.0039-0.0117 0.0039-0.0156 0-0.49507-0.40163-0.89269-0.89295-0.89269-0.49132 0-0.89295 0.39762-0.89295 0.89269 0 0.0039 0 0.0078 1e-7 0.0156zm-1.4895 1.033h10.497c0.05459 0.26508 0.08579 0.53795 0.09749 0.81472h-10.688c0.0078-0.27677 0.038993-0.54964 0.093584-0.81472zm0.081886 2.413h10.333c-0.05849 0.2144-0.12868 0.4249-0.21056 0.62371h-9.9121c-0.081886-0.19881-0.15207-0.40931-0.21056-0.62371zm6.3481 0.6393c0.86955 0.01169 1.6182 0.31575 1.6767 0.83421h1.6611c-0.28465 0.44829-0.63169 0.84591-1.0333 1.1889h-2.4254c-0.0156 0.0039-0.02729 0.0039-0.04289 0.0078-0.21056 0.0156-0.41333 0.0117-0.6005-0.0078h-3.9032c-0.40163-0.34304-0.74867-0.74066-1.0333-1.1889h3.6888c0.16767-0.44439 0.78376-0.75625 1.6299-0.82252 0.12868-0.01169 0.25346-0.0156 0.38214-0.01169zm-2.0121 0.83421c-0.03899 0.09746-0.05459 0.2027-0.04679 0.31186 0.03899 0.48338 0.5654 0.80692 1.2946 0.87709h0.64338c1.0138-0.08966 1.8483-0.57693 1.8015-1.1695 0-0.0078-0.0039-0.0117-0.0039-0.01949h-0.48352c-0.09749-0.38202-0.85005-0.45219-1.5675-0.39762-0.5654 0.04677-0.94754 0.15983-1.0879 0.39762zm-2.0199 1.6606h5.7008c-0.54591 0.34304-1.1542 0.59253-1.8054 0.72117h-2.09c-0.65119-0.12864-1.2595-0.37812-1.8054-0.72117z" fill="#fff"/>
</svg>
