<?xml version="1.0" encoding="UTF-8"?>
<svg version="1.1" viewBox="0 0 26.95 26.95" xmlns="http://www.w3.org/2000/svg">
    <defs>
        <filter id="filter6206-7" color-interpolation-filters="sRGB">
            <feGaussianBlur stdDeviation="0.658125"/>
        </filter>
    </defs>
    <g transform="translate(0 -1025.4)">
        <path transform="matrix(1.0107 0 0 .99762 -.087875 2.579)" d="m4.4177 1028.2v1.6051h-1.6052v18.192h1.6052v2.1402h18.192v-2.1402h2.1402v-18.192h-2.1402v-1.6051h-18.192z" fill="#3e2723" filter="url(#filter6206-7)" opacity=".2"/>
        <rect x="2.8113" y="1028.2" width="21.327" height="21.327" rx="1.1225" ry="1.1226" fill="#795548"/>
        <g transform="translate(-20.925 990.46)">
            <path d="m0 0h48v48h-48z" fill="none"/>
            <g transform="matrix(.33601 0 0 .33601 1.434 68.477)">
                <path d="m0 0h48v48h-48z" fill="none"/>
            </g>
            <g transform="matrix(.37187 0 0 .37187 36.377 59.287)">
                <path d="m0 0h48v48h-48z" fill="none"/>
                <g transform="matrix(2.6891 0 0 2.6891 -77.724 -45.422)">
                    <path d="m0 0h48v48h-48z" fill="none"/>
                </g>
            </g>
        </g>
        <path transform="translate(0 1025.4)" d="m3.9336 2.8105c-0.62186 0-1.123 0.50115-1.123 1.123v0.3125c0-0.6219 0.50118-1.123 1.123-1.123h19.082c0.62186 0 1.123 0.50115 1.123 1.123v-0.3125c0-0.6219-0.50118-1.123-1.123-1.123h-19.082z" fill="#fff" opacity=".2"/>
        <rect x="120" y="512.36" width="40" height="40" fill="none"/>
        <rect x="120" y="592.36" width="40" height="40" fill="none"/>
        <rect x="120" y="632.36" width="40" height="40" fill="none"/>
        <rect x="120" y="552.36" width="40" height="40" fill="none"/>
        <rect x="120" y="672.36" width="40" height="40" fill="none"/>
        <rect x="200" y="512.36" width="40" height="40" fill="none"/>
        <rect x="200" y="592.36" width="40" height="40" fill="none"/>
        <rect x="200" y="632.36" width="40" height="40" fill="none"/>
        <rect x="200" y="552.36" width="40" height="40" fill="none"/>
        <rect x="200" y="672.36" width="40" height="40" fill="none"/>
        <rect x="280" y="512.36" width="40" height="40" fill="none"/>
        <rect x="280" y="592.36" width="40" height="40" fill="none"/>
        <rect x="280" y="632.36" width="40" height="40" fill="none"/>
        <rect x="280" y="552.36" width="40" height="40" fill="none"/>
        <rect x="280" y="672.36" width="40" height="40" fill="none"/>
        <rect x="160" y="512.36" width="40" height="40" fill="none"/>
        <rect x="160" y="592.36" width="40" height="40" fill="none"/>
        <rect x="160" y="632.36" width="40" height="40" fill="none"/>
        <rect x="160" y="552.36" width="40" height="40" fill="none"/>
        <rect x="160" y="672.36" width="40" height="40" fill="none"/>
        <rect x="240" y="512.36" width="40" height="40" fill="none"/>
        <rect x="240" y="592.36" width="40" height="40" fill="none"/>
        <rect x="240" y="632.36" width="40" height="40" fill="none"/>
        <rect x="240" y="552.36" width="40" height="40" fill="none"/>
        <rect x="240" y="672.36" width="40" height="40" fill="none"/>
        <rect x="120" y="712.36" width="40" height="40" fill="none"/>
        <rect x="200" y="712.36" width="40" height="40" fill="none"/>
        <rect x="280" y="712.36" width="40" height="40" fill="none"/>
        <rect x="160" y="712.36" width="40" height="40" fill="none"/>
        <rect x="240" y="712.36" width="40" height="40" fill="none"/>
        <rect x="320" y="552.36" width="40" height="40" fill="none"/>
        <rect x="320" y="592.36" width="40" height="40" fill="none"/>
        <rect x="320" y="672.36" width="40" height="40" fill="none"/>
        <rect x="320" y="512.36" width="40" height="40" fill="none"/>
        <rect x="320" y="632.36" width="40" height="40" fill="none"/>
        <rect x="320" y="712.36" width="40" height="40" fill="none"/>
        <rect x="150" y="542.36" width="180" height="180" fill="none"/>
        <g transform="matrix(.37344 0 0 .37344 4.4375 1028.8)">
            <path d="m0 0h48v48h-48z" fill="none"/>
        </g>
        <g transform="matrix(.36471 0 0 .36471 4.8146 1028.8)">
            <path d="m0 0h48v48h-48z" fill="none"/>
        </g>
        <g transform="matrix(.41585 0 0 .41585 79.055 989.88)">
            <g transform="matrix(.062269 0 0 .062269 -26.473 173.71)">
                <g transform="matrix(38.618 0 0 38.618 13804 -12696)">
                    <g transform="matrix(.71436 0 0 .71436 -375.49 176.57)">
                        <path transform="matrix(1.3999 0 0 1.3999 525.63 -247.17)" d="m490.56 95.75c-121.72 0.18504-342.34 0.090577-468.16 0.09375-1.5548 6.9739-2.4062 14.232-2.4062 21.688v76.344c139.06 0.49354 331.32 0.2554 472.97 0.25v-76.594c0-7.4875-0.8386-14.78-2.4062-21.781zm-307.19 197.94c-52.495-3e-3 -106.38 0.11982-163.38 0.375v92.844c191.76-0.26331 282.43-0.0926 472.97-0.21875v-92.25c-109.29-0.35498-208.43-0.74426-309.59-0.75z" opacity="0"/>
                    </g>
                </g>
            </g>
        </g>
        <path d="m23.015 1049.6c0.6218 0 1.123-0.5012 1.123-1.123v-0.3125c0 0.6218-0.5012 1.123-1.123 1.123h-19.082c-0.6218 0-1.123-0.5012-1.123-1.123v0.3125c0 0.6218 0.5012 1.123 1.123 1.123h19.082z" fill="#3e2723" opacity=".2"/>
    </g>
    <flowRoot fill="#000000" font-family="Roboto" font-size="3.75px" letter-spacing="0px" stroke-width="1px" word-spacing="0px" style="line-height:125%" xml:space="preserve"><flowRegion><rect x="10.664" y="11.235" width="4.49" height="5.0512"/></flowRegion><flowPara>your</flowPara></flowRoot>
    <g transform="translate(-3.3249e-7 -1025.4)" fill="#fff" stroke-opacity="0">
        <path d="m11.502 1036.8c0 0.493-0.39967 0.8926-0.89269 0.8926s-0.8927-0.3996-0.8927-0.8926 0.39967-0.8926 0.8927-0.8926c0.49301 0 0.89269 0.3996 0.89269 0.8926zm1.9738-4.589c-2.22 0-4.1878 1.0849-5.4012 2.7522h10.8c-1.2134-1.6673-3.1786-2.7522-5.3986-2.7522zm-6.1149 4.604c-0.10488 0.4349-0.5399 1.3865-0.55493 1.8499h13.337c-0.01498-0.4634-0.44975-1.415-0.55463-1.8499zm1.2012-2.4483c-0.87253 0.9481-1.4737 2.1497-1.6814 3.4815h13.188c-0.20772-1.3318-0.80885-2.5334-1.6814-3.4815zm-0.39633 8.562c0.33861 0.4438 0.73245 0.8436 1.1699 1.19h8.2777c0.43768-0.3465 0.8311-0.746 1.1699-1.19zm7.6942-1.1349c0.03414 0.4315-0.60946 0.7671-1.3605 0.8266-0.75102 0.059-1.325-0.1798-1.3592-0.6114-0.03414-0.4315 0.39227-0.6083 1.1433-0.6678 0.75102-0.059 1.5422 0.021 1.5764 0.4526zm0.47712-0.04c0.04784 0.6037-0.81243 1.0968-1.8443 1.1785-1.0318 0.082-1.8446-0.279-1.8924-0.8827-0.04784-0.6037 0.64079-1.0553 1.6726-1.1369 1.0318-0.082 2.0162 0.2374 2.064 0.8411zm-9.3944-1.4909c0.10817 0.5152 0.2768 1.0096 0.49631 1.4736h12.071c0.21951-0.464 0.38814-0.9584 0.49631-1.4736zm0.1659 0.6264c0.29699 0.944 0.79742 1.7979 1.4509 2.5092h9.83c0.65353-0.7113 1.154-1.5652 1.4509-2.5092zm13.04-2.0037c0 3.6858-2.9882 6.6737-6.6743 6.6737s-6.6743-2.9879-6.6743-6.6737 2.9882-6.6737 6.6743-6.6737 6.6743 2.9879 6.6743 6.6737z" color="#000000"/>
        <path transform="translate(0 1025.4)" d="m12.906 6.8438c-0.86945 0.075621-1.696 0.34067-2.4375 0.71875h6c-0.90445-0.46084-1.9172-0.71875-3-0.71875-0.19485 0-0.372-0.016569-0.5625 0z" color="#000000"/>
    </g>
    <path d="m13.475 18.823a5.3483 5.3483 0 0 1-5.3484-5.3484 5.3483 5.3483 0 0 1 5.3484-5.3483 5.3483 5.3483 0 0 1 5.3483 5.3483 5.3483 5.3483 0 0 1-5.3483 5.3484m0-12.034a6.6854 6.6854 0 0 0-6.6854 6.6854 6.6854 6.6854 0 0 0 6.6854 6.6854 6.6854 6.6854 0 0 0 6.6854-6.6854 6.6854 6.6854 0 0 0-6.6854-6.6854z" fill="#fff"/>
    <g display="none" fill="none">
        <rect transform="rotate(90)" x="7.3342" y="-19.616" width="12.282" height="12.282" display="inline" stroke="#000" stroke-width=".065984"/>
        <rect x="6.7726" y="8.112" width="13.405" height="10.726" stroke="#5261ff" stroke-linecap="round" stroke-linejoin="round" stroke-width=".06524"/>
        <rect transform="rotate(90)" x="6.7726" y="-18.838" width="13.405" height="10.726" display="inline" stroke="#0f0" stroke-linecap="round" stroke-linejoin="round" stroke-width=".06524"/>
    </g>
</svg>
