<?xml version="1.0" encoding="UTF-8"?>
<svg version="1.1" viewBox="0 0 26.95 26.95" xmlns="http://www.w3.org/2000/svg">
    <defs>
        <filter id="filter6206-7" color-interpolation-filters="sRGB">
            <feGaussianBlur stdDeviation="0.658125"/>
        </filter>
    </defs>
    <g transform="translate(0 -1025.4)">
        <path transform="matrix(1.0107 0 0 .99762 -.087875 2.579)" d="m4.4177 1028.2v1.6051h-1.6052v18.192h1.6052v2.1402h18.192v-2.1402h2.1402v-18.192h-2.1402v-1.6051h-18.192z" fill="#3e2723" filter="url(#filter6206-7)" opacity=".2"/>
        <rect x="2.8113" y="1028.2" width="21.327" height="21.327" rx="1.1225" ry="1.1226" fill="#f44336"/>
        <g transform="translate(-20.925 990.46)">
            <path d="m0 0h48v48h-48z" fill="none"/>
            <g transform="matrix(.33601 0 0 .33601 1.434 68.477)">
                <path d="m0 0h48v48h-48z" fill="none"/>
            </g>
            <g transform="matrix(.37187 0 0 .37187 36.377 59.287)">
                <path d="m0 0h48v48h-48z" fill="none"/>
                <g transform="matrix(2.6891 0 0 2.6891 -77.724 -45.422)">
                    <path d="m0 0h48v48h-48z" fill="none"/>
                </g>
            </g>
        </g>
        <path transform="translate(0 1025.4)" d="m3.9336 2.8105c-0.62186 0-1.123 0.50115-1.123 1.123v0.3125c0-0.6219 0.50118-1.123 1.123-1.123h19.082c0.62186 0 1.123 0.50115 1.123 1.123v-0.3125c0-0.6219-0.50118-1.123-1.123-1.123h-19.082z" fill="#fff" opacity=".2"/>
        <rect x="120" y="512.36" width="40" height="40" fill="none"/>
        <rect x="120" y="592.36" width="40" height="40" fill="none"/>
        <rect x="120" y="632.36" width="40" height="40" fill="none"/>
        <rect x="120" y="552.36" width="40" height="40" fill="none"/>
        <rect x="120" y="672.36" width="40" height="40" fill="none"/>
        <rect x="200" y="512.36" width="40" height="40" fill="none"/>
        <rect x="200" y="592.36" width="40" height="40" fill="none"/>
        <rect x="200" y="632.36" width="40" height="40" fill="none"/>
        <rect x="200" y="552.36" width="40" height="40" fill="none"/>
        <rect x="200" y="672.36" width="40" height="40" fill="none"/>
        <rect x="280" y="512.36" width="40" height="40" fill="none"/>
        <rect x="280" y="592.36" width="40" height="40" fill="none"/>
        <rect x="280" y="632.36" width="40" height="40" fill="none"/>
        <rect x="280" y="552.36" width="40" height="40" fill="none"/>
        <rect x="280" y="672.36" width="40" height="40" fill="none"/>
        <rect x="160" y="512.36" width="40" height="40" fill="none"/>
        <rect x="160" y="592.36" width="40" height="40" fill="none"/>
        <rect x="160" y="632.36" width="40" height="40" fill="none"/>
        <rect x="160" y="552.36" width="40" height="40" fill="none"/>
        <rect x="160" y="672.36" width="40" height="40" fill="none"/>
        <rect x="240" y="512.36" width="40" height="40" fill="none"/>
        <rect x="240" y="592.36" width="40" height="40" fill="none"/>
        <rect x="240" y="632.36" width="40" height="40" fill="none"/>
        <rect x="240" y="552.36" width="40" height="40" fill="none"/>
        <rect x="240" y="672.36" width="40" height="40" fill="none"/>
        <rect x="120" y="712.36" width="40" height="40" fill="none"/>
        <rect x="200" y="712.36" width="40" height="40" fill="none"/>
        <rect x="280" y="712.36" width="40" height="40" fill="none"/>
        <rect x="160" y="712.36" width="40" height="40" fill="none"/>
        <rect x="240" y="712.36" width="40" height="40" fill="none"/>
        <rect x="320" y="552.36" width="40" height="40" fill="none"/>
        <rect x="320" y="592.36" width="40" height="40" fill="none"/>
        <rect x="320" y="672.36" width="40" height="40" fill="none"/>
        <rect x="320" y="512.36" width="40" height="40" fill="none"/>
        <rect x="320" y="632.36" width="40" height="40" fill="none"/>
        <rect x="320" y="712.36" width="40" height="40" fill="none"/>
        <rect x="150" y="542.36" width="180" height="180" fill="none"/>
        <g transform="matrix(.37344 0 0 .37344 4.4375 1028.8)">
            <path d="m0 0h48v48h-48z" fill="none"/>
        </g>
        <g transform="matrix(.36471 0 0 .36471 4.8146 1028.8)">
            <path d="m0 0h48v48h-48z" fill="none"/>
        </g>
        <g transform="matrix(.41585 0 0 .41585 79.055 989.88)">
            <g transform="matrix(.062269 0 0 .062269 -26.473 173.71)">
                <g transform="matrix(38.618 0 0 38.618 13804 -12696)">
                    <g transform="matrix(.71436 0 0 .71436 -375.49 176.57)">
                        <path transform="matrix(1.3999 0 0 1.3999 525.63 -247.17)" d="m490.56 95.75c-121.72 0.18504-342.34 0.090577-468.16 0.09375-1.5548 6.9739-2.4062 14.232-2.4062 21.688v76.344c139.06 0.49354 331.32 0.2554 472.97 0.25v-76.594c0-7.4875-0.8386-14.78-2.4062-21.781zm-307.19 197.94c-52.495-3e-3 -106.38 0.11982-163.38 0.375v92.844c191.76-0.26331 282.43-0.0926 472.97-0.21875v-92.25c-109.29-0.35498-208.43-0.74426-309.59-0.75z" opacity="0"/>
                    </g>
                </g>
            </g>
        </g>
        <path d="m23.015 1049.6c0.6218 0 1.123-0.5012 1.123-1.123v-0.3125c0 0.6218-0.5012 1.123-1.123 1.123h-19.082c-0.6218 0-1.123-0.5012-1.123-1.123v0.3125c0 0.6218 0.5012 1.123 1.123 1.123h19.082z" fill="#3e2723" opacity=".2"/>
    </g>
    <g transform="matrix(.15193 0 0 .15193 21.016 12.961)" fill="none" stroke="#0f0" stroke-width="6.5818">
        <g fill="none" stroke="#fff" stroke-width="6.5818">
            <path transform="matrix(6.582 0 0 6.582 -138.33 -85.309)" d="m11.385 7.2246c-0.072528 0.68391-0.12304 1.3654-0.17774 2.0469-0.8358 0.042018-1.6519 0.082749-2.8281 0.12109l0.033203 1c1.1234-0.036623 1.8925-0.07718 2.709-0.11719-0.049675 0.76241-0.069388 1.5197-0.087891 2.2773-0.34094 0.15442-0.67376 0.32166-0.99219 0.50586-1.2002 0.69428-2.2141 1.5748-2.7637 2.5918-0.5496 1.017-0.55868 2.2514 0.2832 3.2441 0.25346 0.29888 0.62345 0.46782 0.99609 0.50195 0.37264 0.034138 0.75295-0.043692 1.1406-0.18945 0.50817-0.19106 1.0377-0.51407 1.5723-0.92383 0.037584 0.31086 0.072425 0.62231 0.11914 0.93164l0.98828-0.15039c-0.07852-0.51993-0.1409-1.0423-0.19336-1.5684 1.2737-1.2235 2.5-2.925 3.2363-4.832 0.63852 0.059195 1.2062 0.22186 1.6289 0.52539 1.22 0.8761 1.6586 1.6561 1.7266 2.3008 0.067985 0.64466-0.22587 1.2544-0.74609 1.8203s-1.2553 1.0515-1.9219 1.3691c-0.33331 0.15881-0.65006 0.2763-0.9043 0.3457-0.25424 0.069397-0.46043 0.076964-0.47852 0.074218l-0.15039 0.98828c0.29471 0.044732 0.56661-0.008678 0.89258-0.097657 0.32597-0.088978 0.68964-0.22683 1.0703-0.4082 0.76134-0.36275 1.5874-0.89636 2.2285-1.5938s1.1103-1.5943 1.0039-2.6035c-0.10643-1.0092-0.77953-2.0318-2.1387-3.0078-0.54557-0.39177-1.194-0.60049-1.8867-0.69141 0.051586-0.1824 0.10903-0.36203 0.15039-0.54688l-0.97461-0.21875c-0.054081 0.2417-0.12459 0.4814-0.19922 0.7207-0.24643 0.008382-0.49398 0.016656-0.74414 0.048828-0.64086 0.082419-1.2911 0.24407-1.9277 0.46094 0.020911-0.6379 0.035186-1.2746 0.078125-1.918 1.0705-0.062132 1.8929-0.12968 2.5-0.20508 1.1655-0.14474 1.701-0.33931 2.1641-0.55273l-0.41797-0.90625c-0.41999 0.19358-0.76724 0.32995-1.8691 0.4668-0.55318 0.0687-1.2902 0.13189-2.2891 0.19141 0.051688-0.63123 0.098635-1.2611 0.16602-1.8965l-0.99609-0.10547zm2.9551 5.4414c-0.56647 1.3135-1.3895 2.5246-2.2656 3.498-0.058877-0.96699-0.076924-1.9441-0.066407-2.9277 0.69557-0.26669 1.4121-0.46652 2.0977-0.55469 0.08089-0.010403 0.15472-0.008145 0.23438-0.015625zm-3.332 1.0176c-9.52e-4 1.1427 0.042769 2.2793 0.13867 3.4062-0.65281 0.57213-1.2948 0.99068-1.8027 1.1816-0.29038 0.10918-0.53166 0.1439-0.69531 0.12891-0.16365-0.014993-0.245-0.056628-0.32617-0.15234-0.6029-0.7109-0.58017-1.3547-0.16602-2.1211 0.41416-0.76637 1.2962-1.5734 2.3848-2.2031 0.14936-0.086401 0.31068-0.16061 0.4668-0.24023z" color="#000000" color-rendering="auto" dominant-baseline="auto" fill="#fff" image-rendering="auto" shape-rendering="auto" solid-color="#000000" stroke="none" style="font-feature-settings:normal;font-variant-alternates:normal;font-variant-caps:normal;font-variant-ligatures:normal;font-variant-numeric:normal;font-variant-position:normal;isolation:auto;mix-blend-mode:normal;shape-padding:0;text-decoration-color:#000000;text-decoration-line:none;text-decoration-style:solid;text-indent:0;text-orientation:mixed;text-transform:none;white-space:normal"/>
        </g>
    </g>
    <g display="none" fill="none">
        <rect transform="rotate(90)" x="7.3342" y="-19.616" width="12.282" height="12.282" display="inline" stroke="#000" stroke-width=".065984"/>
        <rect x="6.7726" y="8.112" width="13.405" height="10.726" stroke="#5261ff" stroke-linecap="round" stroke-linejoin="round" stroke-width=".06524"/>
        <rect transform="rotate(90)" x="6.7726" y="-18.838" width="13.405" height="10.726" display="inline" stroke="#0f0" stroke-linecap="round" stroke-linejoin="round" stroke-width=".06524"/>
    </g>
</svg>
