<?xml version="1.0" encoding="UTF-8"?>
<svg version="1.1" viewBox="0 0 28.747 28.747" xmlns="http://www.w3.org/2000/svg" xmlns:osb="http://www.openswatchbook.org/uri/2009/osb" xmlns:xlink="http://www.w3.org/1999/xlink">
    <defs>
        <filter id="filter6206-7" color-interpolation-filters="sRGB">
            <feGaussianBlur stdDeviation="0.658125"/>
        </filter>
    </defs>
    <g transform="translate(0 -1093.8)">
        <path transform="matrix(1.0781 0 0 1.0641 -.093733 2.7509)" d="m4.4177 1028.2v1.6051h-1.6052v18.192h1.6052v2.1402h18.192v-2.1402h2.1402v-18.192h-2.1402v-1.6051z" fill="#263238" filter="url(#filter6206-7)" opacity=".2"/>
        <rect x="2.9987" y="1096.8" width="22.749" height="22.749" rx="1.1973" ry="1.1974" fill="#607d8b"/>
        <g transform="translate(-22.32 1056.5)">
            <path d="m0 0h51.2v51.2h-51.2z" fill="none" stroke-width="1.0667"/>
            <g transform="matrix(.33601 0 0 .33601 1.5296 73.043)">
                <path d="m0 0h51.2v51.2h-51.2z" fill="none" stroke-width="1.0667"/>
            </g>
            <g transform="matrix(.37187 0 0 .37187 38.802 63.239)">
                <path d="m0 0h51.2v51.2h-51.2z" fill="none" stroke-width="1.0667"/>
                <g transform="matrix(2.6891 0 0 2.6891 -82.906 -48.45)">
                    <path d="m0 0h51.2v51.2h-51.2z" fill="none" stroke-width="1.0667"/>
                </g>
            </g>
        </g>
        <path d="m4.1958 1096.8c-0.66332 0-1.1979 0.5346-1.1979 1.1979v0.3334c0-0.6634 0.53459-1.1979 1.1979-1.1979h20.354c0.66332 0 1.1979 0.5345 1.1979 1.1979v-0.3334c0-0.6633-0.5346-1.1979-1.1979-1.1979z" fill="#fff" opacity=".2"/>
        <rect x="128" y="546.52" width="42.667" height="42.667" fill="none" stroke-width="1.0667"/>
        <rect x="128" y="631.85" width="42.667" height="42.667" fill="none" stroke-width="1.0667"/>
        <rect x="128" y="674.52" width="42.667" height="42.667" fill="none" stroke-width="1.0667"/>
        <rect x="128" y="589.19" width="42.667" height="42.667" fill="none" stroke-width="1.0667"/>
        <rect x="128" y="717.19" width="42.667" height="42.667" fill="none" stroke-width="1.0667"/>
        <rect x="213.33" y="546.52" width="42.667" height="42.667" fill="none" stroke-width="1.0667"/>
        <rect x="213.33" y="631.85" width="42.667" height="42.667" fill="none" stroke-width="1.0667"/>
        <rect x="213.33" y="674.52" width="42.667" height="42.667" fill="none" stroke-width="1.0667"/>
        <rect x="213.33" y="589.19" width="42.667" height="42.667" fill="none" stroke-width="1.0667"/>
        <rect x="213.33" y="717.19" width="42.667" height="42.667" fill="none" stroke-width="1.0667"/>
        <rect x="298.67" y="546.52" width="42.667" height="42.667" fill="none" stroke-width="1.0667"/>
        <rect x="298.67" y="631.85" width="42.667" height="42.667" fill="none" stroke-width="1.0667"/>
        <rect x="298.67" y="674.52" width="42.667" height="42.667" fill="none" stroke-width="1.0667"/>
        <rect x="298.67" y="589.19" width="42.667" height="42.667" fill="none" stroke-width="1.0667"/>
        <rect x="298.67" y="717.19" width="42.667" height="42.667" fill="none" stroke-width="1.0667"/>
        <rect x="170.67" y="546.52" width="42.667" height="42.667" fill="none" stroke-width="1.0667"/>
        <rect x="170.67" y="631.85" width="42.667" height="42.667" fill="none" stroke-width="1.0667"/>
        <rect x="170.67" y="674.52" width="42.667" height="42.667" fill="none" stroke-width="1.0667"/>
        <rect x="170.67" y="589.19" width="42.667" height="42.667" fill="none" stroke-width="1.0667"/>
        <rect x="170.67" y="717.19" width="42.667" height="42.667" fill="none" stroke-width="1.0667"/>
        <rect x="256" y="546.52" width="42.667" height="42.667" fill="none" stroke-width="1.0667"/>
        <rect x="256" y="631.85" width="42.667" height="42.667" fill="none" stroke-width="1.0667"/>
        <rect x="256" y="674.52" width="42.667" height="42.667" fill="none" stroke-width="1.0667"/>
        <rect x="256" y="589.19" width="42.667" height="42.667" fill="none" stroke-width="1.0667"/>
        <rect x="256" y="717.19" width="42.667" height="42.667" fill="none" stroke-width="1.0667"/>
        <rect x="128" y="759.85" width="42.667" height="42.667" fill="none" stroke-width="1.0667"/>
        <rect x="213.33" y="759.85" width="42.667" height="42.667" fill="none" stroke-width="1.0667"/>
        <rect x="298.67" y="759.85" width="42.667" height="42.667" fill="none" stroke-width="1.0667"/>
        <rect x="170.67" y="759.85" width="42.667" height="42.667" fill="none" stroke-width="1.0667"/>
        <rect x="256" y="759.85" width="42.667" height="42.667" fill="none" stroke-width="1.0667"/>
        <rect x="341.33" y="589.19" width="42.667" height="42.667" fill="none" stroke-width="1.0667"/>
        <rect x="341.33" y="631.85" width="42.667" height="42.667" fill="none" stroke-width="1.0667"/>
        <rect x="341.33" y="717.19" width="42.667" height="42.667" fill="none" stroke-width="1.0667"/>
        <rect x="341.33" y="546.52" width="42.667" height="42.667" fill="none" stroke-width="1.0667"/>
        <rect x="341.33" y="674.52" width="42.667" height="42.667" fill="none" stroke-width="1.0667"/>
        <rect x="341.33" y="759.85" width="42.667" height="42.667" fill="none" stroke-width="1.0667"/>
        <rect x="160" y="578.52" width="192" height="192" fill="none" stroke-width="1.0667"/>
        <g transform="matrix(.37344 0 0 .37344 4.7333 1097.4)">
            <path d="m0 0h51.2v51.2h-51.2z" fill="none" stroke-width="1.0667"/>
        </g>
        <g transform="matrix(.36471 0 0 .36471 5.1356 1097.4)">
            <path d="m0 0h51.2v51.2h-51.2z" fill="none" stroke-width="1.0667"/>
        </g>
        <g transform="matrix(.41585 0 0 .41585 84.325 1055.9)">
            <g transform="matrix(.062269 0 0 .062269 -28.238 185.29)">
                <g transform="matrix(38.618 0 0 38.618 14724 -13542)">
                    <g transform="matrix(.71436 0 0 .71436 -400.52 188.34)">
                        <path d="m1293.2-120.67c-181.75 0.2763-511.18 0.13525-699.05 0.13998-2.3216 10.413-3.593 21.251-3.593 32.384v114c207.65 0.73695 494.72 0.38136 706.23 0.3733v-114.37c0-11.18-1.2522-22.07-3.593-32.523zm-458.69 295.56c-78.385-4e-3 -158.85 0.17892-243.95 0.55995v138.63c286.34-0.39317 421.73-0.13827 706.23-0.32664v-137.75c-163.2-0.53005-311.22-1.1113-462.28-1.1199z" opacity="0" stroke-width="1.4932"/>
                    </g>
                </g>
            </g>
        </g>
        <path d="m24.549 1119.5c0.66325 0 1.1979-0.5346 1.1979-1.1979v-0.3333c0 0.6632-0.53461 1.1978-1.1979 1.1978h-20.354c-0.66325 0-1.1979-0.5346-1.1979-1.1978v0.3333c0 0.6633 0.53461 1.1979 1.1979 1.1979z" fill="#263238" opacity=".2"/>
    </g>
    <g>
        <g transform="matrix(.066173 0 0 .065311 34.83 21.395)" fill="#fff">
            <g fill="#fff">
                <path d="m-207.77-194.89-0.41406 0.0254-5.2383 0.3457c-11.09 0.72837-27.015 7.2834-41.717 17.002l-7.8262 5.1738-8.8144-2.8711c-23.195-7.562-56.677-7.3851-78.266 0.45117l-6.0605 2.2012-6.6406-4.4394c-7.1387-4.7725-15.525-9.0895-23.336-12.227-7.8101-3.1368-14.999-5.1113-19.969-5.1113-0.89432 0-1.6116 8e-3 -2.2578 0.10742-0.65227 0.10083-1.2634 0.31842-1.7598 0.75-0.96821 0.84188-1.2851 2.1062-1.8359 4.1309-8.7643 32.214-5.9845 58.253 8.4863 77.416 1.3039 1.7267 2.4896 3.3425 3.3438 4.5469 0.24562 0.34632 0.39126 0.56594 0.57617 0.83594-0.32776 0.0348-0.57475 0.069-1.0078 0.10352-1.5604 0.12447-3.7365 0.24127-6.127 0.32031-3.869 0.12792-6.0689 0.23689-7.5312 0.59375-0.7329 0.17886-1.3327 0.4419-1.7793 0.89258-0.45186 0.456-0.64764 1.024-0.74805 1.5488-0.19558 1.0222-0.11612 2.0367 0.41797 2.8867 0.53146 0.84585 1.4244 1.4223 2.5664 1.8223 2.2784 0.79789 5.749 1.0449 11.037 1.0449h8.8106v2.4277c0 1.0203 0.0548 1.7586 0.0176 1.9258-0.0291 0.13056-6e-3 0.0941-0.10352 0.1875-0.0765 0.0732-0.28445 0.21748-0.66992 0.37304-1.5413 0.622-5.7411 1.3866-14.85 3.1582-2.7611 0.53704-4.676 1.1672-5.8926 2.2812-0.61645 0.5645-1.0263 1.2829-1.1465 2.0801-0.11896 0.78893 0.0312 1.599 0.34765 2.4238 0.27259 0.71036 0.83503 1.3081 1.6133 1.6367 0.75908 0.32057 1.6755 0.42854 2.8574 0.41797 2.3664-0.02117 5.8903-0.54564 11.42-1.5605 4.2586-0.7816 6.5285-1.1514 7.6445-1.1309 0.56533 0.0104 0.77791 0.0865 0.95508 0.19727 0.16628 0.10398 0.36308 0.3169 0.66406 0.72852 0.55448 0.7583 0.84984 1.3478 0.89844 1.6348 0.0292 0.17214 0.022 0.25741-0.0195 0.36914s-0.1391 0.26803-0.35742 0.49414c-0.82517 0.8547-3.45 2.2579-8.2656 4.4336-4.5463 2.054-7.5064 3.6547-9.2578 5.2266-0.87604 0.78626-1.4833 1.6009-1.7109 2.5215-0.23054 0.93226-6e-3 1.8767 0.49805 2.6914 0.44497 0.71999 1.2031 1.1896 2.0918 1.3477 0.87261 0.15521 1.8712 0.06453 3.0781-0.20508 2.4157-0.53964 5.7359-1.8347 10.438-3.9629 4.0658-1.8404 6.4441-2.8366 7.7148-3.1641 0.63258-0.16303 0.98086-0.1313 1.0352-0.11523 0.059 0.01745 0.0462 0.01369 0.0606 0.02734 0.0143 0.01365 0.0605 0.06768 0.13086 0.19336 4.6581 8.3235 14.702 18.425 26.307 27.51 11.604 9.0845 24.746 17.108 35.662 21.039 10.649 3.8344 22.759 2.2473 36.891-4.6523 18.71-9.1351 34.555-20.898 44.227-32.912 2.749-3.415 5.9225-7.3412 7.041-8.7109l1.5547-1.9062 7.3867 3.377c4.5265 2.0691 7.7286 3.2018 10.109 3.3359 1.1931 0.06723 2.2439-0.1306 3.0508-0.73828 0.81157-0.61119 1.2417-1.5634 1.3926-2.627 0.0853-0.60201 0.0765-1.2576-0.21094-1.8926-0.28483-0.62909-0.78826-1.1553-1.4824-1.6699-1.3858-1.0274-3.6616-2.1391-7.6426-3.9844-4.2249-1.9584-6.4975-3.0964-7.4316-3.834-0.4742-0.37443-0.56786-0.55474-0.61523-0.74024-0.0422-0.16528-0.0292-0.4727 0.0957-1.0039 0.22381-0.95126 0.43433-1.616 0.62891-1.9258 0.21824-0.34742 0.29129-0.41649 0.87109-0.51954 1.0932-0.19427 3.8431 0.18724 8.9902 1.1309 5.0561 0.92693 8.0124 1.3689 10.035 1.0098 1.0264-0.18224 1.879-0.65297 2.3691-1.4375 0.47936-0.76733 0.58008-1.6676 0.58008-2.6523 0-0.77173-0.20324-1.5445-0.70117-2.1934-0.49286-0.64223-1.2121-1.1222-2.1426-1.5274-1.859-0.80938-4.6766-1.3984-9.1309-2.1133-4.6927-0.75309-7.1628-1.2956-7.9414-1.7852-0.42732-0.26867-0.44177-0.31429-0.50586-0.73437-0.0573-0.37548 3e-3 -1.0937 0.1504-2.082l0.35937-2.3984h7.9531c5.0866 0 8.3787-0.28078 10.475-1.2812 1.0586-0.5053 1.8467-1.282 2.1406-2.2949 0.29046-1.0008 0.10265-2.0735-0.33008-3.2012-0.1897-0.49436-0.53834-0.93777-1.0215-1.252-0.47203-0.30694-1.0354-0.49261-1.7148-0.62695-1.3596-0.26882-3.2691-0.34375-6.1973-0.34375-2.1753 0-3.7952 0.0194-4.8438-0.0469-0.45658-0.0288-0.75468-0.0818-0.96094-0.13086 0.0809-0.17404 0.19561-0.40064 0.42969-0.74219 0.56592-0.82581 1.5501-2.0411 2.8516-3.6875 15.096-19.098 18.444-44.471 10.242-76.143zm-197.37 8.0098 1.957 1.1308c9.9632 5.7503 16.051 14.239 19.332 27.066l1.7559 6.8594-3.252 6.6055c-3.8737 7.8733-7.5098 20.735-7.5098 27.041 0 1.1824-0.0709 2.0558-0.17383 2.4648-0.0446-0.0207-0.0159-8e-3 -0.0644-0.0371-0.21944-0.13342-0.51952-0.3478-0.86914-0.65624-0.71189-0.62802-1.6668-1.6089-2.8789-2.9238-13.256-14.381-16.527-36.976-9.0644-64.691zm192.22 0.6914c0.26178-0.0208 0.27538-0.0148 0.45703 0.13867 0.28741 0.24274 0.88569 1.3847 1.3906 3.4316 0.50662 2.0538 1.039 5.0062 1.7617 8.9609 3.0137 16.491 1.437 33.106-4.0938 44.402-1.2684 2.5908-4.563 7.3473-7.1504 10.275l-3.3477 3.791-0.42382-3.7617c-0.89673-7.9717-4.0148-18.644-7.7207-26.461-5.3516-11.288 0.24692-27.493 13.166-37.037 2.1139-1.5617 3.6912-2.7322 4.7734-3.3066 0.53974-0.28649 0.95897-0.41545 1.1875-0.4336zm-92.525 15.188c20.991 0.072 37.522 5.085 49.393 14.699 14.471 11.72 22.153 30.348 22.43 55.729 0.23409 21.507-14.631 42.805-41.758 59.252-1.1455 0.6945-1.9953 1.2087-2.5684 1.4844-0.39971 0.19231-0.64077 0.21772-0.71289 0.23242-0.0419-0.05086-0.16804-0.19384-0.32227-0.56445-0.22928-0.55109-0.50139-1.4686-0.86914-2.7031-1.6903-5.6744-5.9669-11.493-11.227-15.361-1.0373-0.76286-2.0582-1.7502-2.8418-2.7031-0.78037-0.94907-1.3227-1.9313-1.4394-2.4004-0.22665-0.91089-0.8282-2.4879-1.6543-4.4883-0.8266-2.0016-1.8706-4.3722-2.9336-6.6445-1.7372-3.7136-3.4232-6.3914-5.2227-8.0449-1.8091-1.6624-3.929-2.248-5.8906-1.4102-1.9432 0.82993-3.6117 2.7947-5.2656 5.7617-1.6549 2.9688-3.2859 6.9988-4.957 12.127-1.1878 3.6452-2.4606 5.4661-5.2148 7.5039-5.5955 4.14-10.388 10.899-11.088 16.119-0.16609 1.2382-0.28813 2.1903-0.41016 2.5547-0.0197 0.05871 8e-3 0.01362-0.01 0.04297-0.23411-0.05343-1.1115-0.44966-2.3926-1.2871-1.3125-0.85794-3.1183-2.1345-5.5703-3.8457-15.508-10.822-25.608-20.604-31.387-31.113-5.7793-10.51-7.3064-21.789-5.541-35.861 2.3352-18.614 8.3075-32.253 18.529-41.732 10.222-9.4797 24.779-14.862 44.49-16.676 3.4936-0.3214 6.887-0.52751 10.176-0.61718 1.4391-0.0393 2.8586-0.0575 4.2578-0.0527zm-46.271 59.664c-5.7567 0-10.57 2.5875-14.113 6.5195-3.5422 3.9309-5.8622 9.1911-6.8262 14.684-0.96399 5.4926-0.57308 11.233 1.416 16.146 1.9896 4.915 5.6258 9.0061 11.033 10.992 4.5417 1.6681 10.762 0.26712 16.545-2.6387 5.7845-2.9064 11.162-7.383 13.777-12.457 3.4924-6.7756 1.8788-15.091-2.459-21.676-4.3376-6.5841-11.475-11.57-19.373-11.57zm85.648 0.0762c-5.546-0.0887-11.329 2.2629-16.164 7.3984-6.8354 7.2605-9.0402 15.61-6.9316 22.945 2.1084 7.3347 8.4704 13.539 18.281 16.719 8.3524 2.7069 15.424 1.5305 20.045-2.9688 4.6195-4.4976 6.6836-12.091 5.6758-21.855-1.0797-10.461-6.8122-17.916-14.102-20.855-1.8226-0.73509-3.7407-1.1858-5.6992-1.332-0.20365-0.0152-0.40877-0.0168-0.61328-0.0254v-0.0156zm-83.236 18.152c0.62569-9e-3 1.2314 0.0353 1.8164 0.12891 3.5113 0.56173 6.2917 2.8892 7.8105 5.8887 2.0253 3.9995 1.7743 9.043-2.1855 12.672-2.9123 2.6689-3.8843 3.0801-7.3496 3.0801-6.818 0-10.47-4.738-10.951-9.8633-0.48082-5.1253 2.2259-10.452 8.9258-11.709 0.6617-0.12414 1.3079-0.1879 1.9336-0.19727zm79.918 0.35937c3.1277 0.13851 6.2694 1.6158 8.5703 4.541 1.7891 2.2745 2.2544 5.4606 1.5898 8.4297-0.66457 2.9691-2.4523 5.6854-5.0625 7.0352-4.7909 2.4775-9.757 1.2452-12.988-1.7441-3.2325-2.9904-4.6666-7.617-2.2637-12.264 1.9055-3.6849 5.2676-5.6969 8.8164-5.9766 0.44325-0.0349 0.89074-0.0413 1.3379-0.0215zm-80.607 5.4258c-0.0188 9.3e-4 -0.0378 0.0106-0.0566 0.0117-1.0088 0.0622-2.0401 0.44709-2.9629 1.2129-1.3919 1.1552-1.8671 3.107-1.8066 4.9258 0.0605 1.8182 0.66141 3.7181 2.2051 4.6172 1.3515 0.78717 2.5191 1.2506 3.7285 1.0645 1.2097-0.18624 2.1834-0.9797 3.2305-2.1367 2.1921-2.4222 1.6991-5.6729-4e-3 -7.6758-0.84863-0.99816-2.0069-1.7377-3.3223-1.959-0.33091-0.0557-0.66983-0.0775-1.0117-0.0605zm80.588 0.19726c-0.64084-0.0479-1.3188 7e-3 -2.0156 0.18164-2.0744 0.52064-3.5239 2.0404-4.0273 3.8398-0.46003 1.6443-0.03 3.4669 1.123 4.9902v0.20117l0.25781 0.28516c1.2101 1.3372 2.4536 2.1944 3.8809 2.1855 1.423-0.0088 2.6966-0.85291 4.0332-2.1895 2.0308-2.0308 2.2369-4.7772 1.1074-6.7754-0.84717-1.4987-2.4355-2.5751-4.3594-2.7188zm-27.4 32.688c-0.0729 0.18599-0.19056 0.42786-0.39453 0.72266-0.44344 0.64092-1.2026 1.4933-2.2695 2.4648-1.585 1.4432-4.4487 3.8739-6.3027 5.3496l-2.6973 2.1465-2.101-1.5651c-1.6456-1.2598-3.6408-2.9133-5.0533-4.0053-1.4344-1.0684-3.4241-2.5022-4.1953-3.8496-0.16616-0.29031-0.25959-0.54944-0.32618-0.76758 0.0719 0.01319 0.0419-0.0025 0.12891 0.02539 2.7742 0.89082 6.9042 1.3138 10.891 1.3496 3.9845 0.03577 7.7354-0.27588 9.9453-1.1992 1.1182-0.46721 1.9613-0.65642 2.375-0.67188zm-12.055 16.215 3.2148 2.9062c2.2543 2.0367 5.3247 3.962 7.4453 4.4277 0.65817 0.14456 0.96819 0.28904 1.4141 0.4375-0.42647 0.04221-0.68871 0.11328-1.2891 0.11328-3.2296 0-4.2973 0.45795-7.4219-1.4156-1.207-0.72378-2.1455-1.1312-2.9943-1.3587-0.56139-0.15042-1.5144 0.09106-2.9969 0.94348-0.60697 0.35044-1.2925 0.51556-2.1289 1.0255-1.4555 0.88745-3.8383 0.53228-5.7236 0.7389-0.65782 0.07209-1.1085 0.02077-1.5781-0.01172 0.41938-0.16957 0.8326-0.34943 1.3848-0.4707 2.1255-0.46684 5.2022-2.3926 7.457-4.4297z" color="#000000" color-rendering="auto" dominant-baseline="auto" fill="#fff" image-rendering="auto" shape-rendering="auto" solid-color="#000000" stop-color="#000000" style="font-feature-settings:normal;font-variant-alternates:normal;font-variant-caps:normal;font-variant-east-asian:normal;font-variant-ligatures:normal;font-variant-numeric:normal;font-variant-position:normal;font-variation-settings:normal;inline-size:0;isolation:auto;mix-blend-mode:normal;shape-margin:0;shape-padding:0;text-decoration-color:#000000;text-decoration-line:none;text-decoration-style:solid;text-indent:0;text-orientation:mixed;text-transform:none;white-space:normal"/>
            </g>
        </g>
    </g>
    <g display="none" fill="none">
        <rect transform="rotate(90)" x="7.8232" y="-20.923" width="13.1" height="13.1" display="inline" stroke="#000" stroke-width=".070382"/>
        <rect x="7.2241" y="8.6528" width="14.298" height="11.441" stroke="#5261ff" stroke-linecap="round" stroke-linejoin="round" stroke-width=".06959"/>
        <rect transform="rotate(90)" x="7.2241" y="-20.094" width="14.298" height="11.441" display="inline" stroke="#0f0" stroke-linecap="round" stroke-linejoin="round" stroke-width=".06959"/>
    </g>
</svg>
