<?xml version="1.0" encoding="UTF-8"?>
<svg version="1.1" viewBox="0 0 26.95 26.95" xmlns="http://www.w3.org/2000/svg">
    <defs>
        <filter id="filter6206-7" color-interpolation-filters="sRGB">
            <feGaussianBlur stdDeviation="0.658125"/>
        </filter>
    </defs>
    <g transform="translate(0 -1025.4)">
        <path transform="matrix(1.0107 0 0 .99762 -.087875 2.579)" d="m4.4177 1028.2v1.6051h-1.6052v18.192h1.6052v2.1402h18.192v-2.1402h2.1402v-18.192h-2.1402v-1.6051h-18.192z" fill="#263238" filter="url(#filter6206-7)" opacity=".2"/>
        <rect x="2.8113" y="1028.2" width="21.327" height="21.327" rx="1.1225" ry="1.1226" fill="#03a9f4"/>
        <g transform="translate(-20.925 990.46)">
            <path d="m0 0h48v48h-48z" fill="none"/>
            <g transform="matrix(.33601 0 0 .33601 1.434 68.477)">
                <path d="m0 0h48v48h-48z" fill="none"/>
            </g>
            <g transform="matrix(.37187 0 0 .37187 36.377 59.287)">
                <path d="m0 0h48v48h-48z" fill="none"/>
                <g transform="matrix(2.6891 0 0 2.6891 -77.724 -45.422)">
                    <path d="m0 0h48v48h-48z" fill="none"/>
                </g>
            </g>
        </g>
        <path transform="translate(0 1025.4)" d="m3.9336 2.8105c-0.62186 0-1.123 0.50115-1.123 1.123v0.3125c0-0.6219 0.50118-1.123 1.123-1.123h19.082c0.62186 0 1.123 0.50115 1.123 1.123v-0.3125c0-0.6219-0.50118-1.123-1.123-1.123h-19.082z" fill="#fff" opacity=".2"/>
        <rect x="120" y="512.36" width="40" height="40" fill="none"/>
        <rect x="120" y="592.36" width="40" height="40" fill="none"/>
        <rect x="120" y="632.36" width="40" height="40" fill="none"/>
        <rect x="120" y="552.36" width="40" height="40" fill="none"/>
        <rect x="120" y="672.36" width="40" height="40" fill="none"/>
        <rect x="200" y="512.36" width="40" height="40" fill="none"/>
        <rect x="200" y="592.36" width="40" height="40" fill="none"/>
        <rect x="200" y="632.36" width="40" height="40" fill="none"/>
        <rect x="200" y="552.36" width="40" height="40" fill="none"/>
        <rect x="200" y="672.36" width="40" height="40" fill="none"/>
        <rect x="280" y="512.36" width="40" height="40" fill="none"/>
        <rect x="280" y="592.36" width="40" height="40" fill="none"/>
        <rect x="280" y="632.36" width="40" height="40" fill="none"/>
        <rect x="280" y="552.36" width="40" height="40" fill="none"/>
        <rect x="280" y="672.36" width="40" height="40" fill="none"/>
        <rect x="160" y="512.36" width="40" height="40" fill="none"/>
        <rect x="160" y="592.36" width="40" height="40" fill="none"/>
        <rect x="160" y="632.36" width="40" height="40" fill="none"/>
        <rect x="160" y="552.36" width="40" height="40" fill="none"/>
        <rect x="160" y="672.36" width="40" height="40" fill="none"/>
        <rect x="240" y="512.36" width="40" height="40" fill="none"/>
        <rect x="240" y="592.36" width="40" height="40" fill="none"/>
        <rect x="240" y="632.36" width="40" height="40" fill="none"/>
        <rect x="240" y="552.36" width="40" height="40" fill="none"/>
        <rect x="240" y="672.36" width="40" height="40" fill="none"/>
        <rect x="120" y="712.36" width="40" height="40" fill="none"/>
        <rect x="200" y="712.36" width="40" height="40" fill="none"/>
        <rect x="280" y="712.36" width="40" height="40" fill="none"/>
        <rect x="160" y="712.36" width="40" height="40" fill="none"/>
        <rect x="240" y="712.36" width="40" height="40" fill="none"/>
        <rect x="320" y="552.36" width="40" height="40" fill="none"/>
        <rect x="320" y="592.36" width="40" height="40" fill="none"/>
        <rect x="320" y="672.36" width="40" height="40" fill="none"/>
        <rect x="320" y="512.36" width="40" height="40" fill="none"/>
        <rect x="320" y="632.36" width="40" height="40" fill="none"/>
        <rect x="320" y="712.36" width="40" height="40" fill="none"/>
        <rect x="150" y="542.36" width="180" height="180" fill="none"/>
        <g transform="matrix(.37344 0 0 .37344 4.4375 1028.8)">
            <path d="m0 0h48v48h-48z" fill="none"/>
        </g>
        <g transform="matrix(.36471 0 0 .36471 4.8146 1028.8)">
            <path d="m0 0h48v48h-48z" fill="none"/>
        </g>
        <g transform="matrix(.41585 0 0 .41585 79.055 989.88)">
            <g transform="matrix(.062269 0 0 .062269 -26.473 173.71)">
                <g transform="matrix(38.618 0 0 38.618 13804 -12696)">
                    <g transform="matrix(.71436 0 0 .71436 -375.49 176.57)">
                        <path transform="matrix(1.3999 0 0 1.3999 525.63 -247.17)" d="m490.56 95.75c-121.72 0.18504-342.34 0.090577-468.16 0.09375-1.5548 6.9739-2.4062 14.232-2.4062 21.688v76.344c139.06 0.49354 331.32 0.2554 472.97 0.25v-76.594c0-7.4875-0.8386-14.78-2.4062-21.781zm-307.19 197.94c-52.495-3e-3 -106.38 0.11982-163.38 0.375v92.844c191.76-0.26331 282.43-0.0926 472.97-0.21875v-92.25c-109.29-0.35498-208.43-0.74426-309.59-0.75z" opacity="0"/>
                    </g>
                </g>
            </g>
        </g>
        <path d="m23.015 1049.6c0.6218 0 1.123-0.5012 1.123-1.123v-0.3125c0 0.6218-0.5012 1.123-1.123 1.123h-19.082c-0.6218 0-1.123-0.5012-1.123-1.123v0.3125c0 0.6218 0.5012 1.123 1.123 1.123h19.082z" fill="#263238" opacity=".2"/>
    </g>
    <path d="m6.8125 8.1133v3.9277h3.9277v-3.9277h-3.9277zm1.7949 0.53906h0.33789v2.8496h-0.33789v-2.8496z" fill="#fff"/>
    <path d="m16.252 8.1133v3.9277h3.9277v-3.9277h-3.9277zm1.0371 0.93945h0.39844l0.54297 0.73047 0.54492-0.73047h0.39648l-0.74219 0.99805 0.78125 1.0527h-0.39844l-0.5957-0.80664-0.59766 0.80664h-0.39648l0.79492-1.0742-0.72852-0.97656z" fill="#fff"/>
    <path d="m11.51 8.8262v3.9277h3.9297v-3.9277h-3.9297zm2.0195 0.88672c0.27588 0 0.49438 0.089356 0.6543 0.26758 0.16113 0.177 0.24219 0.41748 0.24219 0.72266v0.16602h-1.5488c0.014649 0.23193 0.084473 0.40918 0.20898 0.53125 0.12573 0.12085 0.30005 0.17969 0.52344 0.17969 0.1294 0 0.25415-0.015137 0.375-0.046875 0.12207-0.031738 0.2417-0.079101 0.36133-0.14258v0.31836c-0.12085 0.05127-0.24414 0.090332-0.37109 0.11719-0.12695 0.026855-0.2561 0.041016-0.38672 0.041016-0.32715 0-0.58569-0.09668-0.77734-0.28711-0.19043-0.19043-0.28516-0.44678-0.28516-0.77148 0-0.33569 0.088867-0.6023 0.26953-0.79883 0.18188-0.19775 0.42676-0.29688 0.73438-0.29688zm0.003906 0.28516c-0.18799 0-0.33765 0.053955-0.45117 0.16016-0.1123 0.1062-0.17822 0.25635-0.19531 0.44922l1.2012-0.001953c-0.002442-0.18433-0.052979-0.33154-0.1543-0.44141-0.1001-0.10986-0.23438-0.16602-0.40039-0.16602z" fill="#fff"/>
    <g transform="translate(2.7851)" fill="#fff">
        <path transform="translate(-2.7851)" d="m6.791 14.121v3.9297h3.9277v-3.9297h-3.9277zm1.7949 0.54102h0.33789v0.42578h-0.33789v-0.42578zm0 0.79688h0.33789v2.0508h-0.33789v-2.0508z"/>
        <path transform="translate(-2.7851)" d="m16.23 14.121v3.9297h3.9297v-3.9297h-3.9297zm1.9453 0.88867c0.29663 0 0.51953 0.07666 0.66602 0.23047 0.14648 0.15381 0.21875 0.38672 0.21875 0.69922v1.1699h-0.33594v-0.31055c-0.076904 0.12451-0.17236 0.21558-0.28711 0.27539-0.11475 0.058593-0.25586 0.08789-0.42188 0.08789-0.20996 0-0.37744-0.058593-0.50195-0.17578-0.12329-0.11841-0.18555-0.27686-0.18555-0.47461 0-0.23071 0.07666-0.4043 0.23047-0.52148 0.15503-0.11719 0.38696-0.17578 0.69336-0.17578h0.47266v-0.033203c0-0.15503-0.051757-0.27319-0.1543-0.35742-0.10132-0.085449-0.24341-0.12891-0.42773-0.12891-0.11719 0-0.23267 0.014892-0.34375 0.042969-0.11108 0.028076-0.21777 0.068847-0.32031 0.125v-0.31055c0.12329-0.047608 0.24341-0.084229 0.35938-0.10742 0.11597-0.024414 0.22803-0.035156 0.33789-0.035156zm0.21289 1.0684c-0.27222 0-0.46143 0.031494-0.56641 0.09375s-0.15625 0.16821-0.15625 0.31836c0 0.11963 0.039062 0.21436 0.11719 0.28516 0.079346 0.06958 0.18677 0.10547 0.32227 0.10547 0.18677 0 0.33691-0.065429 0.44922-0.19726 0.11352-0.13306 0.16992-0.30957 0.16992-0.5293v-0.076172h-0.33594z"/>
        <path transform="translate(-2.7851)" d="m11.49 14.834v3.9277h3.9277v-3.9277h-3.9277zm2.1836 0.88672c0.10376 0 0.20581 0.011231 0.30469 0.033203 0.098877 0.020752 0.19434 0.052979 0.28711 0.095703v0.31445c-0.095215-0.05249-0.19067-0.091552-0.28711-0.11719-0.095215-0.026855-0.19336-0.039063-0.29102-0.039063-0.21851 0-0.38696 0.069825-0.50781 0.20898-0.12085 0.13794-0.18164 0.33179-0.18164 0.58203s0.060791 0.44482 0.18164 0.58398c0.12085 0.13794 0.28931 0.20703 0.50781 0.20703 0.097656 0 0.1958-0.013428 0.29102-0.039063 0.096435-0.026855 0.19189-0.06665 0.28711-0.11914v0.31055c-0.093994 0.043945-0.19165 0.077636-0.29297 0.099609-0.1001 0.021973-0.20679 0.033203-0.32031 0.033203-0.30884 0-0.55444-0.096924-0.73633-0.29102-0.18188-0.19409-0.27344-0.45557-0.27344-0.78516 0-0.33447 0.092285-0.59741 0.27539-0.78906 0.18433-0.19165 0.43604-0.28906 0.75586-0.28906z"/>
    </g>
    <g display="none" fill="none">
        <rect transform="rotate(90)" x="7.3342" y="-19.616" width="12.282" height="12.282" display="inline" stroke="#000" stroke-width=".065984"/>
        <rect x="6.7726" y="8.112" width="13.405" height="10.726" stroke="#5261ff" stroke-linecap="round" stroke-linejoin="round" stroke-width=".06524"/>
        <rect transform="rotate(90)" x="6.7726" y="-18.838" width="13.405" height="10.726" display="inline" stroke="#0f0" stroke-linecap="round" stroke-linejoin="round" stroke-width=".06524"/>
    </g>
</svg>
