<?xml version="1.0" encoding="UTF-8"?>
<svg version="1.1" viewBox="0 0 28.747 28.747" xmlns="http://www.w3.org/2000/svg" xmlns:xlink="http://www.w3.org/1999/xlink">
    <defs>
        <filter id="filter6206-7" x="-.072" y="-.072" width="1.144" height="1.144" color-interpolation-filters="sRGB">
            <feGaussianBlur stdDeviation="0.658125"/>
        </filter>
    </defs>
    <g transform="translate(0 -1093.8)">
        <path transform="matrix(1.0781 0 0 1.0641 -.093733 2.7509)" d="m4.4177 1028.2v1.6051h-1.6052v18.192h1.6052v2.1402h18.192v-2.1402h2.1402v-18.192h-2.1402v-1.6051z" fill="#263238" filter="url(#filter6206-7)" opacity=".2"/>
        <rect x="2.9987" y="1096.8" width="22.749" height="22.749" rx="1.1973" ry="1.1974" fill="#8bc34a"/>
        <g transform="translate(-22.32 1056.5)">
            <path d="m0 0h51.2v51.2h-51.2z" fill="none" stroke-width="1.0667"/>
            <g transform="matrix(.33601 0 0 .33601 1.5296 73.043)">
                <path d="m0 0h51.2v51.2h-51.2z" fill="none" stroke-width="1.0667"/>
            </g>
            <g transform="matrix(.37187 0 0 .37187 38.802 63.239)">
                <path d="m0 0h51.2v51.2h-51.2z" fill="none" stroke-width="1.0667"/>
                <g transform="matrix(2.6891 0 0 2.6891 -82.906 -48.45)">
                    <path d="m0 0h51.2v51.2h-51.2z" fill="none" stroke-width="1.0667"/>
                </g>
            </g>
        </g>
        <path d="m4.1958 1096.8c-0.66332 0-1.1979 0.5346-1.1979 1.1979v0.3334c0-0.6634 0.53459-1.1979 1.1979-1.1979h20.354c0.66332 0 1.1979 0.5345 1.1979 1.1979v-0.3334c0-0.6633-0.5346-1.1979-1.1979-1.1979z" fill="#fff" opacity=".2"/>
        <rect x="128" y="546.52" width="42.667" height="42.667" fill="none" stroke-width="1.0667"/>
        <rect x="128" y="631.85" width="42.667" height="42.667" fill="none" stroke-width="1.0667"/>
        <rect x="128" y="674.52" width="42.667" height="42.667" fill="none" stroke-width="1.0667"/>
        <rect x="128" y="589.19" width="42.667" height="42.667" fill="none" stroke-width="1.0667"/>
        <rect x="128" y="717.19" width="42.667" height="42.667" fill="none" stroke-width="1.0667"/>
        <rect x="213.33" y="546.52" width="42.667" height="42.667" fill="none" stroke-width="1.0667"/>
        <rect x="213.33" y="631.85" width="42.667" height="42.667" fill="none" stroke-width="1.0667"/>
        <rect x="213.33" y="674.52" width="42.667" height="42.667" fill="none" stroke-width="1.0667"/>
        <rect x="213.33" y="589.19" width="42.667" height="42.667" fill="none" stroke-width="1.0667"/>
        <rect x="213.33" y="717.19" width="42.667" height="42.667" fill="none" stroke-width="1.0667"/>
        <rect x="298.67" y="546.52" width="42.667" height="42.667" fill="none" stroke-width="1.0667"/>
        <rect x="298.67" y="631.85" width="42.667" height="42.667" fill="none" stroke-width="1.0667"/>
        <rect x="298.67" y="674.52" width="42.667" height="42.667" fill="none" stroke-width="1.0667"/>
        <rect x="298.67" y="589.19" width="42.667" height="42.667" fill="none" stroke-width="1.0667"/>
        <rect x="298.67" y="717.19" width="42.667" height="42.667" fill="none" stroke-width="1.0667"/>
        <rect x="170.67" y="546.52" width="42.667" height="42.667" fill="none" stroke-width="1.0667"/>
        <rect x="170.67" y="631.85" width="42.667" height="42.667" fill="none" stroke-width="1.0667"/>
        <rect x="170.67" y="674.52" width="42.667" height="42.667" fill="none" stroke-width="1.0667"/>
        <rect x="170.67" y="589.19" width="42.667" height="42.667" fill="none" stroke-width="1.0667"/>
        <rect x="170.67" y="717.19" width="42.667" height="42.667" fill="none" stroke-width="1.0667"/>
        <rect x="256" y="546.52" width="42.667" height="42.667" fill="none" stroke-width="1.0667"/>
        <rect x="256" y="631.85" width="42.667" height="42.667" fill="none" stroke-width="1.0667"/>
        <rect x="256" y="674.52" width="42.667" height="42.667" fill="none" stroke-width="1.0667"/>
        <rect x="256" y="589.19" width="42.667" height="42.667" fill="none" stroke-width="1.0667"/>
        <rect x="256" y="717.19" width="42.667" height="42.667" fill="none" stroke-width="1.0667"/>
        <rect x="128" y="759.85" width="42.667" height="42.667" fill="none" stroke-width="1.0667"/>
        <rect x="213.33" y="759.85" width="42.667" height="42.667" fill="none" stroke-width="1.0667"/>
        <rect x="298.67" y="759.85" width="42.667" height="42.667" fill="none" stroke-width="1.0667"/>
        <rect x="170.67" y="759.85" width="42.667" height="42.667" fill="none" stroke-width="1.0667"/>
        <rect x="256" y="759.85" width="42.667" height="42.667" fill="none" stroke-width="1.0667"/>
        <rect x="341.33" y="589.19" width="42.667" height="42.667" fill="none" stroke-width="1.0667"/>
        <rect x="341.33" y="631.85" width="42.667" height="42.667" fill="none" stroke-width="1.0667"/>
        <rect x="341.33" y="717.19" width="42.667" height="42.667" fill="none" stroke-width="1.0667"/>
        <rect x="341.33" y="546.52" width="42.667" height="42.667" fill="none" stroke-width="1.0667"/>
        <rect x="341.33" y="674.52" width="42.667" height="42.667" fill="none" stroke-width="1.0667"/>
        <rect x="341.33" y="759.85" width="42.667" height="42.667" fill="none" stroke-width="1.0667"/>
        <rect x="160" y="578.52" width="192" height="192" fill="none" stroke-width="1.0667"/>
        <g transform="matrix(.37344 0 0 .37344 4.7333 1097.4)">
            <path d="m0 0h51.2v51.2h-51.2z" fill="none" stroke-width="1.0667"/>
        </g>
        <g transform="matrix(.36471 0 0 .36471 5.1356 1097.4)">
            <path d="m0 0h51.2v51.2h-51.2z" fill="none" stroke-width="1.0667"/>
        </g>
        <g transform="matrix(.41585 0 0 .41585 84.325 1055.9)">
            <g transform="matrix(.062269 0 0 .062269 -28.238 185.29)">
                <g transform="matrix(38.618 0 0 38.618 14724 -13542)">
                    <g transform="matrix(.71436 0 0 .71436 -400.52 188.34)">
                        <path d="m1293.2-120.67c-181.75 0.2763-511.18 0.13525-699.05 0.13998-2.3216 10.413-3.593 21.251-3.593 32.384v114c207.65 0.73695 494.72 0.38136 706.23 0.3733v-114.37c0-11.18-1.2522-22.07-3.593-32.523zm-458.69 295.56c-78.385-4e-3 -158.85 0.17892-243.95 0.55995v138.63c286.34-0.39317 421.73-0.13827 706.23-0.32664v-137.75c-163.2-0.53005-311.22-1.1113-462.28-1.1199z" opacity="0" stroke-width="1.4932"/>
                    </g>
                </g>
            </g>
        </g>
        <path d="m24.549 1119.5c0.66325 0 1.1979-0.5346 1.1979-1.1979v-0.3333c0 0.6632-0.53461 1.1978-1.1979 1.1978h-20.354c-0.66325 0-1.1979-0.5346-1.1979-1.1978v0.3333c0 0.6633 0.53461 1.1979 1.1979 1.1979z" fill="#263238" opacity=".2"/>
    </g>
    <g>
        <path d="m18.287 7.7988c-0.24995-0.010121-0.51639 0.15909-0.51953 0.37695 0 1e-7 0.03196 2.7487-0.20117 4.0957-0.18103 1.046-0.73868 2.7262-1.0781 3.6992l-3.1816-0.85352c-0.2871-0.07693-0.54245 0.10709-0.6582 0.38086l-0.0957 0.22656 0.34375 0.0957c-0.05092 0.27737-0.19221 0.97248-0.36719 1.3379-0.26188 0.54689-1.0781 1.4648-1.0781 1.4648l2.5039 0.67188s0.31793-0.26578 0.43164-0.43555c0.12591-0.18798 0.26172-0.625 0.26172-0.625s-0.02593 0.46668-0.10742 0.68164c-0.06424 0.16944-0.29297 0.45703-0.29297 0.45703l1.6914 0.45312s0.30901-0.34012 0.41016-0.54297c0.08689-0.17425 0.1582-0.5625 0.1582-0.5625s0.01111 0.43665-0.04492 0.64453c-0.05125 0.19013-0.25977 0.53125-0.25977 0.53125l0.89648 0.24024s0.36356-0.48155 0.49414-0.75195c0.13707-0.28386 0.29492-0.89844 0.29492-0.89844s-0.06048 0.63014-0.15234 0.93164c-0.08453 0.27746-0.36133 0.79297-0.36133 0.79297l2.7949 0.75s0.38147-1.1746 0.45312-1.7832c0.04308-0.36592 0.0088-1.0081-0.0098-1.2891l0.32227 0.13477c-0.01578-0.01267-0.03867-0.06704 0.0059-0.30274 0.06092-0.32231-0.09375-0.58128-0.38086-0.6582l-3.0352-0.81445c0.33648-0.96496 0.88619-2.6228 1.0664-3.6562 0.23728-1.3608 0.21094-4.1387 0.21094-4.1387 0.0078-0.36328-0.08803-0.55372-0.36133-0.62695l-0.04883-0.011719c-0.03416-0.00915-0.06976-0.014179-0.10547-0.015625zm-8.8418 1.584s0.12332 1.3802-0.041016 1.6465c-0.16433 0.26624-1.4531 0.77344-1.4531 0.77344s1.3802-0.12527 1.6465 0.03906c0.26624 0.16433 0.77344 1.4531 0.77344 1.4531s-0.12332-1.3783 0.04101-1.6445c0.16433-0.26624 1.4531-0.77539 1.4531-0.77539s-1.3802 0.12527-1.6465-0.03906c-0.26623-0.16433-0.77343-1.4531-0.77343-1.4531zm2.5215 3.5332s-0.47171 0.93564-0.68359 1.041c-0.2119 0.10533-1.2422-0.08398-1.2422-0.08398s0.93574 0.47162 1.041 0.68359c0.1053 0.21196-0.08398 1.2422-0.08398 1.2422s0.47171-0.93564 0.68359-1.041c0.2119-0.10533 1.2422 0.08399 1.2422 0.08399-1e-6 -1e-6 -0.93574-0.47162-1.041-0.68359-0.1053-0.21196 0.08399-1.2422 0.08399-1.2422zm-4.1719 2.8867s0.46788 0.63442 0.4668 0.8125c-0.00108 0.17808-0.47656 0.80664-0.47656 0.80664s0.63249-0.46975 0.81055-0.46875c0.17805 1e-3 0.80664 0.47852 0.80664 0.47852-9e-7 -1e-6 -0.46789-0.63442-0.4668-0.8125 0.00108-0.17808 0.47656-0.80664 0.47656-0.80664s-0.63445 0.4678-0.8125 0.4668c-0.17805-1e-3 -0.80469-0.47656-0.80469-0.47656zm3.0645 2.4727s-0.31598 0.72242-0.4707 0.81055c-0.15472 0.08813-0.93555-0.0098-0.93555-0.0098s0.72245 0.31399 0.81055 0.46875c0.0881 0.15476-0.0098 0.9375-0.0098 0.9375s0.31403-0.72242 0.46875-0.81055c0.15472-0.08813 0.9375 0.0098 0.9375 0.0098-1e-6 0-0.7244-0.31399-0.8125-0.46875-0.0881-0.15476 0.01172-0.9375 0.01172-0.9375z" fill="#fff" stroke-linecap="round" stroke-linejoin="round" stroke-width=".26231"/>
    </g>
    <g display="none" fill="none">
        <rect transform="rotate(90)" x="7.8232" y="-20.923" width="13.1" height="13.1" display="inline" stroke="#000" stroke-width=".070382"/>
        <rect x="7.2241" y="8.6528" width="14.298" height="11.441" stroke="#5261ff" stroke-linecap="round" stroke-linejoin="round" stroke-width=".06959"/>
        <rect transform="rotate(90)" x="7.2241" y="-20.094" width="14.298" height="11.441" display="inline" stroke="#0f0" stroke-linecap="round" stroke-linejoin="round" stroke-width=".06959"/>
    </g>
</svg>
