<?xml version="1.0" encoding="UTF-8"?>
<svg version="1.1" viewBox="0 0 28.747 28.747" xmlns="http://www.w3.org/2000/svg">
    <defs>
        <filter id="filter6206-7" color-interpolation-filters="sRGB">
            <feGaussianBlur stdDeviation="0.658125"/>
        </filter>
    </defs>
    <g transform="translate(0 -1093.8)">
        <path transform="matrix(1.0781 0 0 1.0641 -.093733 2.7509)" d="m4.4177 1028.2v1.6051h-1.6052v18.192h1.6052v2.1402h18.192v-2.1402h2.1402v-18.192h-2.1402v-1.6051z" fill="#1a237e" filter="url(#filter6206-7)" opacity=".2"/>
        <rect x="2.9987" y="1096.8" width="22.749" height="22.749" rx="1.1973" ry="1.1974" fill="#3f51b5"/>
        <g transform="translate(-22.32 1056.5)">
            <path d="m0 0h51.2v51.2h-51.2z" fill="none" stroke-width="1.0667"/>
            <g transform="matrix(.33601 0 0 .33601 1.5296 73.043)">
                <path d="m0 0h51.2v51.2h-51.2z" fill="none" stroke-width="1.0667"/>
            </g>
            <g transform="matrix(.37187 0 0 .37187 38.802 63.239)">
                <path d="m0 0h51.2v51.2h-51.2z" fill="none" stroke-width="1.0667"/>
                <g transform="matrix(2.6891 0 0 2.6891 -82.906 -48.45)">
                    <path d="m0 0h51.2v51.2h-51.2z" fill="none" stroke-width="1.0667"/>
                </g>
            </g>
        </g>
        <path d="m4.1958 1096.8c-0.66332 0-1.1979 0.5346-1.1979 1.1979v0.3334c0-0.6634 0.53459-1.1979 1.1979-1.1979h20.354c0.66332 0 1.1979 0.5345 1.1979 1.1979v-0.3334c0-0.6633-0.5346-1.1979-1.1979-1.1979z" fill="#fff" opacity=".2"/>
        <rect x="128" y="546.52" width="42.667" height="42.667" fill="none" stroke-width="1.0667"/>
        <rect x="128" y="631.85" width="42.667" height="42.667" fill="none" stroke-width="1.0667"/>
        <rect x="128" y="674.52" width="42.667" height="42.667" fill="none" stroke-width="1.0667"/>
        <rect x="128" y="589.19" width="42.667" height="42.667" fill="none" stroke-width="1.0667"/>
        <rect x="128" y="717.19" width="42.667" height="42.667" fill="none" stroke-width="1.0667"/>
        <rect x="213.33" y="546.52" width="42.667" height="42.667" fill="none" stroke-width="1.0667"/>
        <rect x="213.33" y="631.85" width="42.667" height="42.667" fill="none" stroke-width="1.0667"/>
        <rect x="213.33" y="674.52" width="42.667" height="42.667" fill="none" stroke-width="1.0667"/>
        <rect x="213.33" y="589.19" width="42.667" height="42.667" fill="none" stroke-width="1.0667"/>
        <rect x="213.33" y="717.19" width="42.667" height="42.667" fill="none" stroke-width="1.0667"/>
        <rect x="298.67" y="546.52" width="42.667" height="42.667" fill="none" stroke-width="1.0667"/>
        <rect x="298.67" y="631.85" width="42.667" height="42.667" fill="none" stroke-width="1.0667"/>
        <rect x="298.67" y="674.52" width="42.667" height="42.667" fill="none" stroke-width="1.0667"/>
        <rect x="298.67" y="589.19" width="42.667" height="42.667" fill="none" stroke-width="1.0667"/>
        <rect x="298.67" y="717.19" width="42.667" height="42.667" fill="none" stroke-width="1.0667"/>
        <rect x="170.67" y="546.52" width="42.667" height="42.667" fill="none" stroke-width="1.0667"/>
        <rect x="170.67" y="631.85" width="42.667" height="42.667" fill="none" stroke-width="1.0667"/>
        <rect x="170.67" y="674.52" width="42.667" height="42.667" fill="none" stroke-width="1.0667"/>
        <rect x="170.67" y="589.19" width="42.667" height="42.667" fill="none" stroke-width="1.0667"/>
        <rect x="170.67" y="717.19" width="42.667" height="42.667" fill="none" stroke-width="1.0667"/>
        <rect x="256" y="546.52" width="42.667" height="42.667" fill="none" stroke-width="1.0667"/>
        <rect x="256" y="631.85" width="42.667" height="42.667" fill="none" stroke-width="1.0667"/>
        <rect x="256" y="674.52" width="42.667" height="42.667" fill="none" stroke-width="1.0667"/>
        <rect x="256" y="589.19" width="42.667" height="42.667" fill="none" stroke-width="1.0667"/>
        <rect x="256" y="717.19" width="42.667" height="42.667" fill="none" stroke-width="1.0667"/>
        <rect x="128" y="759.85" width="42.667" height="42.667" fill="none" stroke-width="1.0667"/>
        <rect x="213.33" y="759.85" width="42.667" height="42.667" fill="none" stroke-width="1.0667"/>
        <rect x="298.67" y="759.85" width="42.667" height="42.667" fill="none" stroke-width="1.0667"/>
        <rect x="170.67" y="759.85" width="42.667" height="42.667" fill="none" stroke-width="1.0667"/>
        <rect x="256" y="759.85" width="42.667" height="42.667" fill="none" stroke-width="1.0667"/>
        <rect x="341.33" y="589.19" width="42.667" height="42.667" fill="none" stroke-width="1.0667"/>
        <rect x="341.33" y="631.85" width="42.667" height="42.667" fill="none" stroke-width="1.0667"/>
        <rect x="341.33" y="717.19" width="42.667" height="42.667" fill="none" stroke-width="1.0667"/>
        <rect x="341.33" y="546.52" width="42.667" height="42.667" fill="none" stroke-width="1.0667"/>
        <rect x="341.33" y="674.52" width="42.667" height="42.667" fill="none" stroke-width="1.0667"/>
        <rect x="341.33" y="759.85" width="42.667" height="42.667" fill="none" stroke-width="1.0667"/>
        <rect x="160" y="578.52" width="192" height="192" fill="none" stroke-width="1.0667"/>
        <g transform="matrix(.37344 0 0 .37344 4.7333 1097.4)">
            <path d="m0 0h51.2v51.2h-51.2z" fill="none" stroke-width="1.0667"/>
        </g>
        <g transform="matrix(.36471 0 0 .36471 5.1356 1097.4)">
            <path d="m0 0h51.2v51.2h-51.2z" fill="none" stroke-width="1.0667"/>
        </g>
        <g transform="matrix(.41585 0 0 .41585 84.325 1055.9)">
            <g transform="matrix(.062269 0 0 .062269 -28.238 185.29)">
                <g transform="matrix(38.618 0 0 38.618 14724 -13542)">
                    <g transform="matrix(.71436 0 0 .71436 -400.52 188.34)">
                        <path d="m1293.2-120.67c-181.75 0.2763-511.18 0.13525-699.05 0.13998-2.3216 10.413-3.593 21.251-3.593 32.384v114c207.65 0.73695 494.72 0.38136 706.23 0.3733v-114.37c0-11.18-1.2522-22.07-3.593-32.523zm-458.69 295.56c-78.385-4e-3 -158.85 0.17892-243.95 0.55995v138.63c286.34-0.39317 421.73-0.13827 706.23-0.32664v-137.75c-163.2-0.53005-311.22-1.1113-462.28-1.1199z" opacity="0" stroke-width="1.4932"/>
                    </g>
                </g>
            </g>
        </g>
        <path d="m24.549 1119.5c0.66325 0 1.1979-0.5346 1.1979-1.1979v-0.3333c0 0.6632-0.53461 1.1978-1.1979 1.1978h-20.354c-0.66325 0-1.1979-0.5346-1.1979-1.1978v0.3333c0 0.6633 0.53461 1.1979 1.1979 1.1979z" fill="#1a237e" opacity=".2"/>
    </g>
    <flowRoot fill="#000000" font-family="Roboto" font-size="12.8px" letter-spacing="0px" stroke-width="1.0667px" word-spacing="0px" style="line-height:0.01%" xml:space="preserve"><flowRegion><rect x="11.375" y="11.984" width="4.7893" height="5.388" stroke-width="1.1378px"/></flowRegion><flowPara font-size="4px" style="line-height:1.25">your</flowPara></flowRoot>
    <path d="m13.537 20.961c-0.7585-0.10762-1.3317-0.28592-2.0581-0.64015-1.6154-0.7878-2.8139-2.1409-3.3675-3.8021-0.29588-0.88778-0.38744-1.5578-0.33967-2.4857 0.087665-1.7029 0.72051-3.1292 1.9261-4.3411 2.7914-2.806 7.4034-2.5372 9.8837 0.57608 0.51194 0.6426 1.0516 1.748 1.2485 2.5574 0.19169 0.788 0.21205 2.1483 0.04361 2.9137-0.55991 2.5444-2.5927 4.587-5.0952 5.1198-0.60484 0.12876-1.7014 0.17871-2.2414 0.1021zm2.2397-1.0376c0.94296-0.24114 2.0229-0.85429 2.6511-1.5052l0.27138-0.28118-0.11161-0.26712c-0.06138-0.14691-0.25966-0.4746-0.44062-0.72818-0.48265-0.67637-0.5498-0.95835-0.38977-1.6366 0.07083-0.30015 0.11364-0.60361 0.09515-0.67434-0.04037-0.15438-0.30366-0.29751-0.9543-0.51881-0.62401-0.21224-0.87752-0.39682-0.9827-0.7155-0.09477-0.28714-0.0019-0.7406 0.19776-0.96508 0.28783-0.32371 0.99436-0.17711 1.1973 0.24843 0.10244 0.21481 0.10365 0.28214 0.01159 0.64359-0.08383 0.32914-0.08586 0.41774-0.01104 0.47985 0.14604 0.1212 0.40738 0.04545 0.51-0.14785 0.19685-0.37077-0.04306-1.5539-0.39117-1.9291-0.31031-0.33442-1.0351-0.43889-1.4194-0.20458-0.34317 0.20925-0.529 0.63906-0.57162 1.3221l-0.03622 0.58055-0.47005-0.03216c-0.25853-0.01767-0.50515-0.04276-0.54805-0.05572s-0.09905-0.2501-0.12479-0.52695c-0.06168-0.66365-0.22031-1.0486-0.4895-1.1878-0.38941-0.20137-0.79548-0.01971-1.0524 0.47076-0.1902 0.36318-0.02163 1.7348 0.23251 1.8919 0.04145 0.02562 0.13222-0.02882 0.20173-0.12096 0.12205-0.16181 0.12146-0.17097-0.01725-0.26813-0.18449-0.12922-0.34173-0.50675-0.34173-0.82049 0-0.42749 0.48107-0.67869 0.83073-0.43378 0.197 0.13799 0.38808 0.64304 0.36192 0.95666-0.01841 0.2207 3.48e-4 0.25009 0.18137 0.28415l0.2019 0.03798-0.2266 0.1671c-0.22827 0.16833-0.32029 0.14904-0.36565-0.07664-0.01945-0.09676-0.12967-0.03363-0.52192 0.29889-0.2735 0.23185-0.53766 0.51966-0.58704 0.63957-0.08845 0.21482-0.08285 0.22475 0.38238 0.67643 0.53333 0.51781 0.70229 0.5774 1.4267 0.50319 0.72333-0.07411 2.5785-0.70927 2.5785-0.88282 0-0.1214 0.236-0.16115 0.3399-0.05725 0.15799 0.15799-0.08021 0.3446-0.73702 0.57738-0.30904 0.10952-0.81762 0.31442-1.1302 0.45533-0.53373 0.24061-0.6126 0.2562-1.2965 0.2562-0.40048 0-0.72815 0.01841-0.72814 0.0409 5.2e-5 0.16869 0.69654 0.56292 0.9945 0.56292 0.24066 0 0.97947-0.27279 1.8214-0.67251 0.44989-0.2136 0.82835-0.35277 0.8772-0.32258 0.19441 0.12015 0.02266 0.3275-0.50057 0.60438-0.72741 0.38492-1.0037 0.56454-1.4358 0.93334-0.83125 0.70954-1.3443 0.55905-2.1637-0.63465-0.12618-0.18381-0.25848-0.33421-0.294-0.33421s-0.08505 0.10901-0.11004 0.24224-0.22377 0.60474-0.44173 1.0478c-0.29285 0.59531-0.40614 0.91207-0.43404 1.2136l-0.03775 0.40803 0.41829 0.18642c0.70365 0.31359 1.5189 0.45835 2.3718 0.42112 0.41024-0.0179 0.95368-0.0857 1.2076-0.15064zm-0.56269-5.9448c-0.29273-0.14925-0.26454-0.26528 0.06445-0.26528 0.2624 0 0.2925 0.01706 0.27231 0.15427-0.02846 0.19343-0.11753 0.22279-0.33676 0.11101zm-3.7361 3.5352 0.62093-0.92349-0.04423-1.1366c-0.11737-3.0157-0.1299-4.0681-0.05416-4.5464 0.11804-0.74542 0.27033-1.1916 0.54709-1.6028 0.13717-0.20383 0.24002-0.37997 0.22856-0.39142-0.01145-0.011454-0.2581 0.074504-0.54811 0.19102-1.418 0.56972-2.6612 1.8512-3.1964 3.295-0.742 2.0015-0.29049 4.2919 1.1495 5.8312 0.51629 0.55192 0.4013 0.61545 1.2969-0.7165zm8.6266-3.1257c0.0071-0.57379-0.28824-2.1097-0.38685-2.0111-0.04295 0.04296 0.09695 1.6506 0.19017 2.1853 0.09202 0.52776 0.18894 0.44191 0.19668-0.1742zm-6.4207-1.2307c-0.02547-0.11595-0.10843-0.26705-0.18436-0.33576-0.17359-0.1571-0.17257-0.12797 0.01 0.28467 0.16047 0.36277 0.24852 0.38857 0.17439 0.05109zm3.4426 0.06646c0-0.23711-0.17813-0.47229-0.40847-0.53927-0.1919-0.05579-0.21876 0.07689-0.02783 0.13749 0.0726 0.02304 0.18934 0.16905 0.25942 0.32446s0.13854 0.28256 0.15215 0.28256c0.0136 0 0.02474-0.09236 0.02474-0.20524z" fill="#fff"/>
    <g display="none" fill="none">
        <rect transform="rotate(90)" x="7.8232" y="-20.923" width="13.1" height="13.1" display="inline" stroke="#000" stroke-width=".070382"/>
        <rect x="7.2241" y="8.6528" width="14.298" height="11.441" stroke="#5261ff" stroke-linecap="round" stroke-linejoin="round" stroke-width=".069589"/>
        <rect transform="rotate(90)" x="7.2241" y="-20.094" width="14.298" height="11.441" display="inline" stroke="#0f0" stroke-linecap="round" stroke-linejoin="round" stroke-width=".069589"/>
    </g>
</svg>
