<?xml version="1.0" encoding="UTF-8"?>
<svg version="1.1" viewBox="0 0 28.747 28.747" xmlns="http://www.w3.org/2000/svg">
    <defs>
        <filter id="filter6206-7" color-interpolation-filters="sRGB">
            <feGaussianBlur stdDeviation="0.658125"/>
        </filter>
    </defs>
    <g transform="translate(0 -1093.8)">
        <path transform="matrix(1.0781 0 0 1.0641 -.093733 2.7509)" d="m4.4177 1028.2v1.6051h-1.6052v18.192h1.6052v2.1402h18.192v-2.1402h2.1402v-18.192h-2.1402v-1.6051z" fill="#212121" filter="url(#filter6206-7)" opacity=".2"/>
        <rect x="2.9987" y="1096.8" width="22.749" height="22.749" rx="1.1973" ry="1.1974" fill="#9e9e9e"/>
        <g transform="translate(-22.32 1056.5)">
            <path d="m0 0h51.2v51.2h-51.2z" fill="none" stroke-width="1.0667"/>
            <g transform="matrix(.33601 0 0 .33601 1.5296 73.043)">
                <path d="m0 0h51.2v51.2h-51.2z" fill="none" stroke-width="1.0667"/>
            </g>
            <g transform="matrix(.37187 0 0 .37187 38.802 63.239)">
                <path d="m0 0h51.2v51.2h-51.2z" fill="none" stroke-width="1.0667"/>
                <g transform="matrix(2.6891 0 0 2.6891 -82.906 -48.45)">
                    <path d="m0 0h51.2v51.2h-51.2z" fill="none" stroke-width="1.0667"/>
                </g>
            </g>
        </g>
        <path d="m4.1958 1096.8c-0.66332 0-1.1979 0.5346-1.1979 1.1979v0.3334c0-0.6634 0.53459-1.1979 1.1979-1.1979h20.354c0.66332 0 1.1979 0.5345 1.1979 1.1979v-0.3334c0-0.6633-0.5346-1.1979-1.1979-1.1979z" fill="#fff" opacity=".2"/>
        <rect x="128" y="546.52" width="42.667" height="42.667" fill="none" stroke-width="1.0667"/>
        <rect x="128" y="631.85" width="42.667" height="42.667" fill="none" stroke-width="1.0667"/>
        <rect x="128" y="674.52" width="42.667" height="42.667" fill="none" stroke-width="1.0667"/>
        <rect x="128" y="589.19" width="42.667" height="42.667" fill="none" stroke-width="1.0667"/>
        <rect x="128" y="717.19" width="42.667" height="42.667" fill="none" stroke-width="1.0667"/>
        <rect x="213.33" y="546.52" width="42.667" height="42.667" fill="none" stroke-width="1.0667"/>
        <rect x="213.33" y="631.85" width="42.667" height="42.667" fill="none" stroke-width="1.0667"/>
        <rect x="213.33" y="674.52" width="42.667" height="42.667" fill="none" stroke-width="1.0667"/>
        <rect x="213.33" y="589.19" width="42.667" height="42.667" fill="none" stroke-width="1.0667"/>
        <rect x="213.33" y="717.19" width="42.667" height="42.667" fill="none" stroke-width="1.0667"/>
        <rect x="298.67" y="546.52" width="42.667" height="42.667" fill="none" stroke-width="1.0667"/>
        <rect x="298.67" y="631.85" width="42.667" height="42.667" fill="none" stroke-width="1.0667"/>
        <rect x="298.67" y="674.52" width="42.667" height="42.667" fill="none" stroke-width="1.0667"/>
        <rect x="298.67" y="589.19" width="42.667" height="42.667" fill="none" stroke-width="1.0667"/>
        <rect x="298.67" y="717.19" width="42.667" height="42.667" fill="none" stroke-width="1.0667"/>
        <rect x="170.67" y="546.52" width="42.667" height="42.667" fill="none" stroke-width="1.0667"/>
        <rect x="170.67" y="631.85" width="42.667" height="42.667" fill="none" stroke-width="1.0667"/>
        <rect x="170.67" y="674.52" width="42.667" height="42.667" fill="none" stroke-width="1.0667"/>
        <rect x="170.67" y="589.19" width="42.667" height="42.667" fill="none" stroke-width="1.0667"/>
        <rect x="170.67" y="717.19" width="42.667" height="42.667" fill="none" stroke-width="1.0667"/>
        <rect x="256" y="546.52" width="42.667" height="42.667" fill="none" stroke-width="1.0667"/>
        <rect x="256" y="631.85" width="42.667" height="42.667" fill="none" stroke-width="1.0667"/>
        <rect x="256" y="674.52" width="42.667" height="42.667" fill="none" stroke-width="1.0667"/>
        <rect x="256" y="589.19" width="42.667" height="42.667" fill="none" stroke-width="1.0667"/>
        <rect x="256" y="717.19" width="42.667" height="42.667" fill="none" stroke-width="1.0667"/>
        <rect x="128" y="759.85" width="42.667" height="42.667" fill="none" stroke-width="1.0667"/>
        <rect x="213.33" y="759.85" width="42.667" height="42.667" fill="none" stroke-width="1.0667"/>
        <rect x="298.67" y="759.85" width="42.667" height="42.667" fill="none" stroke-width="1.0667"/>
        <rect x="170.67" y="759.85" width="42.667" height="42.667" fill="none" stroke-width="1.0667"/>
        <rect x="256" y="759.85" width="42.667" height="42.667" fill="none" stroke-width="1.0667"/>
        <rect x="341.33" y="589.19" width="42.667" height="42.667" fill="none" stroke-width="1.0667"/>
        <rect x="341.33" y="631.85" width="42.667" height="42.667" fill="none" stroke-width="1.0667"/>
        <rect x="341.33" y="717.19" width="42.667" height="42.667" fill="none" stroke-width="1.0667"/>
        <rect x="341.33" y="546.52" width="42.667" height="42.667" fill="none" stroke-width="1.0667"/>
        <rect x="341.33" y="674.52" width="42.667" height="42.667" fill="none" stroke-width="1.0667"/>
        <rect x="341.33" y="759.85" width="42.667" height="42.667" fill="none" stroke-width="1.0667"/>
        <rect x="160" y="578.52" width="192" height="192" fill="none" stroke-width="1.0667"/>
        <g transform="matrix(.37344 0 0 .37344 4.7333 1097.4)">
            <path d="m0 0h51.2v51.2h-51.2z" fill="none" stroke-width="1.0667"/>
        </g>
        <g transform="matrix(.36471 0 0 .36471 5.1356 1097.4)">
            <path d="m0 0h51.2v51.2h-51.2z" fill="none" stroke-width="1.0667"/>
        </g>
        <g transform="matrix(.41585 0 0 .41585 84.325 1055.9)">
            <g transform="matrix(.062269 0 0 .062269 -28.238 185.29)">
                <g transform="matrix(38.618 0 0 38.618 14724 -13542)">
                    <g transform="matrix(.71436 0 0 .71436 -400.52 188.34)">
                        <path d="m1293.2-120.67c-181.75 0.2763-511.18 0.13525-699.05 0.13998-2.3216 10.413-3.593 21.251-3.593 32.384v114c207.65 0.73695 494.72 0.38136 706.23 0.3733v-114.37c0-11.18-1.2522-22.07-3.593-32.523zm-458.69 295.56c-78.385-4e-3 -158.85 0.17892-243.95 0.55995v138.63c286.34-0.39317 421.73-0.13827 706.23-0.32664v-137.75c-163.2-0.53005-311.22-1.1113-462.28-1.1199z" opacity="0" stroke-width="1.4932"/>
                    </g>
                </g>
            </g>
        </g>
        <path d="m24.549 1119.5c0.66325 0 1.1979-0.5346 1.1979-1.1979v-0.3333c0 0.6632-0.53461 1.1978-1.1979 1.1978h-20.354c-0.66325 0-1.1979-0.5346-1.1979-1.1978v0.3333c0 0.6633 0.53461 1.1979 1.1979 1.1979z" fill="#212121" opacity=".2"/>
    </g>
    <path d="m17.41 7.9082-6.9512 0.28125a0.21102 0.21102 0 0 0-0.18164 0.11719l-3.1094 6.2676a0.21102 0.21102 0 0 0 0.0078124 0.20117l3.4199 5.6992a0.21102 0.21102 0 0 0 0.18945 0.10156l6.0293-0.28125a0.21102 0.21102 0 0 0 0.17969-0.11914l2.5859-5.2969h1.7227a0.21102 0.21102 0 0 0 0.18164-0.31836l-3.8848-6.5488a0.21102 0.21102 0 0 0-0.18945-0.10352zm-0.35547 0.4375-0.6875 1.2695-4.8535 0.26953-0.69922-1.2871 6.2402-0.25195zm0.37109 0.20117 3.5059 5.9102h-1.3652l-2.8262-4.6426 0.68555-1.2676zm-6.9512 0.31055 0.67969 1.252-2.0781 4.3477h-1.3789l2.7773-5.5996zm5.6562 1.1953-0.68945 1.2695-3.0078 0.26172-0.69922-1.2891 4.3965-0.24219zm0.375 0.19141 2.5684 4.2129h-1.3613l-1.8945-2.9434 0.6875-1.2695zm-5.1035 0.32422 0.67773 1.248-1.1562 2.6406h-1.3809l1.8594-3.8887zm3.7988 1.1973-0.68945 1.2695-1.1621 0.23828-0.69726-1.2852 2.5488-0.22266zm0.38672 0.16992 1.623 2.5215h-1.3613l-0.94922-1.2539 0.6875-1.2676zm-3.2539 0.35156 0.71875 1.3242 0.46094 0.84766-0.60742 0.00586-1.5234-0.00586 0.95117-2.1719zm1.916 1.2324-0.38281 0.70508-0.30664-0.56445 0.68945-0.14062zm0.42969 0.091797 0.64062 0.8457h-1.0996l0.45898-0.8457zm-6.9492 1.2676h1.3633l2.3613 3.793-0.68945 1.2656-3.0352-5.0586zm1.8594 0h1.3594l1.4258 2.0957-0.68945 1.2695-2.0957-3.3652zm4.6328 0h1.2129l-0.50977 1.2988-0.70312-1.2988zm1.666 0h1.3789l-1.4023 3.0312-0.67578-1.248 0.69922-1.7832zm1.8438 0h1.3789l-2.3164 4.7441-0.67773-1.25 1.6152-3.4941zm-6.2715 0.001953 1.4453 0.00586a0.21102 0.21102 0 0 0 0.001953 0l0.60352-0.00586-0.1543 0.2832-0.75781 1.3945-1.1387-1.6777zm2.4062 0.22852 0.75586 1.3945-1.6211 0.19922 0.72656-1.3379 0.13867-0.25586zm0.97266 1.7949 0.69922 1.2871-3.4707 0.23633 0.6875-1.2695 2.084-0.25391zm0.91992 1.6953 0.69922 1.2891-5.3184 0.24805 0.68945-1.2695 3.9297-0.26758z" color="#000000" color-rendering="auto" dominant-baseline="auto" fill="#fff" fill-opacity=".99608" image-rendering="auto" shape-rendering="auto" solid-color="#000000" style="font-feature-settings:normal;font-variant-alternates:normal;font-variant-caps:normal;font-variant-ligatures:normal;font-variant-numeric:normal;font-variant-position:normal;isolation:auto;mix-blend-mode:normal;shape-padding:0;text-decoration-color:#000000;text-decoration-line:none;text-decoration-style:solid;text-indent:0;text-orientation:mixed;text-transform:none;white-space:normal"/>
    <g display="none" fill="none">
        <rect transform="rotate(90)" x="7.8232" y="-20.923" width="13.1" height="13.1" display="inline" stroke="#000" stroke-width=".070382"/>
        <rect x="7.2241" y="8.6528" width="14.298" height="11.441" stroke="#5261ff" stroke-linecap="round" stroke-linejoin="round" stroke-width=".069589"/>
        <rect transform="rotate(90)" x="7.2241" y="-20.094" width="14.298" height="11.441" display="inline" stroke="#0f0" stroke-linecap="round" stroke-linejoin="round" stroke-width=".069589"/>
    </g>
</svg>
