<?xml version="1.0" encoding="UTF-8"?>
<svg version="1.1" viewBox="0 0 28.747 28.747" xmlns="http://www.w3.org/2000/svg">
    <defs>
        <filter id="filter6206-7" color-interpolation-filters="sRGB">
            <feGaussianBlur stdDeviation="0.658125"/>
        </filter>
    </defs>
    <g transform="translate(0 -1093.8)">
        <path transform="matrix(1.0781 0 0 1.0641 -.093733 2.7509)" d="m4.4177 1028.2v1.6051h-1.6052v18.192h1.6052v2.1402h18.192v-2.1402h2.1402v-18.192h-2.1402v-1.6051z" fill="#3e2723" filter="url(#filter6206-7)" opacity=".2"/>
        <rect x="2.9987" y="1096.8" width="22.749" height="22.749" rx="1.1973" ry="1.1974" fill="#ff5722"/>
        <g transform="translate(-22.32 1056.5)">
            <path d="m0 0h51.2v51.2h-51.2z" fill="none" stroke-width="1.0667"/>
            <g transform="matrix(.33601 0 0 .33601 1.5296 73.043)">
                <path d="m0 0h51.2v51.2h-51.2z" fill="none" stroke-width="1.0667"/>
            </g>
            <g transform="matrix(.37187 0 0 .37187 38.802 63.239)">
                <path d="m0 0h51.2v51.2h-51.2z" fill="none" stroke-width="1.0667"/>
                <g transform="matrix(2.6891 0 0 2.6891 -82.906 -48.45)">
                    <path d="m0 0h51.2v51.2h-51.2z" fill="none" stroke-width="1.0667"/>
                </g>
            </g>
        </g>
        <path d="m4.1958 1096.8c-0.66332 0-1.1979 0.5346-1.1979 1.1979v0.3334c0-0.6634 0.53459-1.1979 1.1979-1.1979h20.354c0.66332 0 1.1979 0.5345 1.1979 1.1979v-0.3334c0-0.6633-0.5346-1.1979-1.1979-1.1979z" fill="#fff" opacity=".2"/>
        <rect x="128" y="546.52" width="42.667" height="42.667" fill="none" stroke-width="1.0667"/>
        <rect x="128" y="631.85" width="42.667" height="42.667" fill="none" stroke-width="1.0667"/>
        <rect x="128" y="674.52" width="42.667" height="42.667" fill="none" stroke-width="1.0667"/>
        <rect x="128" y="589.19" width="42.667" height="42.667" fill="none" stroke-width="1.0667"/>
        <rect x="128" y="717.19" width="42.667" height="42.667" fill="none" stroke-width="1.0667"/>
        <rect x="213.33" y="546.52" width="42.667" height="42.667" fill="none" stroke-width="1.0667"/>
        <rect x="213.33" y="631.85" width="42.667" height="42.667" fill="none" stroke-width="1.0667"/>
        <rect x="213.33" y="674.52" width="42.667" height="42.667" fill="none" stroke-width="1.0667"/>
        <rect x="213.33" y="589.19" width="42.667" height="42.667" fill="none" stroke-width="1.0667"/>
        <rect x="213.33" y="717.19" width="42.667" height="42.667" fill="none" stroke-width="1.0667"/>
        <rect x="298.67" y="546.52" width="42.667" height="42.667" fill="none" stroke-width="1.0667"/>
        <rect x="298.67" y="631.85" width="42.667" height="42.667" fill="none" stroke-width="1.0667"/>
        <rect x="298.67" y="674.52" width="42.667" height="42.667" fill="none" stroke-width="1.0667"/>
        <rect x="298.67" y="589.19" width="42.667" height="42.667" fill="none" stroke-width="1.0667"/>
        <rect x="298.67" y="717.19" width="42.667" height="42.667" fill="none" stroke-width="1.0667"/>
        <rect x="170.67" y="546.52" width="42.667" height="42.667" fill="none" stroke-width="1.0667"/>
        <rect x="170.67" y="631.85" width="42.667" height="42.667" fill="none" stroke-width="1.0667"/>
        <rect x="170.67" y="674.52" width="42.667" height="42.667" fill="none" stroke-width="1.0667"/>
        <rect x="170.67" y="589.19" width="42.667" height="42.667" fill="none" stroke-width="1.0667"/>
        <rect x="170.67" y="717.19" width="42.667" height="42.667" fill="none" stroke-width="1.0667"/>
        <rect x="256" y="546.52" width="42.667" height="42.667" fill="none" stroke-width="1.0667"/>
        <rect x="256" y="631.85" width="42.667" height="42.667" fill="none" stroke-width="1.0667"/>
        <rect x="256" y="674.52" width="42.667" height="42.667" fill="none" stroke-width="1.0667"/>
        <rect x="256" y="589.19" width="42.667" height="42.667" fill="none" stroke-width="1.0667"/>
        <rect x="256" y="717.19" width="42.667" height="42.667" fill="none" stroke-width="1.0667"/>
        <rect x="128" y="759.85" width="42.667" height="42.667" fill="none" stroke-width="1.0667"/>
        <rect x="213.33" y="759.85" width="42.667" height="42.667" fill="none" stroke-width="1.0667"/>
        <rect x="298.67" y="759.85" width="42.667" height="42.667" fill="none" stroke-width="1.0667"/>
        <rect x="170.67" y="759.85" width="42.667" height="42.667" fill="none" stroke-width="1.0667"/>
        <rect x="256" y="759.85" width="42.667" height="42.667" fill="none" stroke-width="1.0667"/>
        <rect x="341.33" y="589.19" width="42.667" height="42.667" fill="none" stroke-width="1.0667"/>
        <rect x="341.33" y="631.85" width="42.667" height="42.667" fill="none" stroke-width="1.0667"/>
        <rect x="341.33" y="717.19" width="42.667" height="42.667" fill="none" stroke-width="1.0667"/>
        <rect x="341.33" y="546.52" width="42.667" height="42.667" fill="none" stroke-width="1.0667"/>
        <rect x="341.33" y="674.52" width="42.667" height="42.667" fill="none" stroke-width="1.0667"/>
        <rect x="341.33" y="759.85" width="42.667" height="42.667" fill="none" stroke-width="1.0667"/>
        <rect x="160" y="578.52" width="192" height="192" fill="none" stroke-width="1.0667"/>
        <g transform="matrix(.37344 0 0 .37344 4.7333 1097.4)">
            <path d="m0 0h51.2v51.2h-51.2z" fill="none" stroke-width="1.0667"/>
        </g>
        <g transform="matrix(.36471 0 0 .36471 5.1356 1097.4)">
            <path d="m0 0h51.2v51.2h-51.2z" fill="none" stroke-width="1.0667"/>
        </g>
        <g transform="matrix(.41585 0 0 .41585 84.325 1055.9)">
            <g transform="matrix(.062269 0 0 .062269 -28.238 185.29)">
                <g transform="matrix(38.618 0 0 38.618 14724 -13542)">
                    <g transform="matrix(.71436 0 0 .71436 -400.52 188.34)">
                        <path d="m1293.2-120.67c-181.75 0.2763-511.18 0.13525-699.05 0.13998-2.3216 10.413-3.593 21.251-3.593 32.384v114c207.65 0.73695 494.72 0.38136 706.23 0.3733v-114.37c0-11.18-1.2522-22.07-3.593-32.523zm-458.69 295.56c-78.385-4e-3 -158.85 0.17892-243.95 0.55995v138.63c286.34-0.39317 421.73-0.13827 706.23-0.32664v-137.75c-163.2-0.53005-311.22-1.1113-462.28-1.1199z" opacity="0" stroke-width="1.4932"/>
                    </g>
                </g>
            </g>
        </g>
        <path d="m24.549 1119.5c0.66325 0 1.1979-0.5346 1.1979-1.1979v-0.3333c0 0.6632-0.53461 1.1978-1.1979 1.1978h-20.354c-0.66325 0-1.1979-0.5346-1.1979-1.1978v0.3333c0 0.6633 0.53461 1.1979 1.1979 1.1979z" fill="#3e2723" opacity=".2"/>
    </g>
    <g transform="matrix(.97127 0 0 .97127 .41488 .41333)" stroke-width="1.0296">
        <path d="m7.166 9.8125c-0.00467 1.297e-4 -0.010596 0.00117-0.017578 0.00195-0.00698 7.804e-4 -0.030546 0.00564-0.03125 0.00586-3.521e-4 1.092e-4 -0.029065 0.013542-0.029297 0.013672-2.315e-4 1.303e-4 -0.046763 0.040864-0.046875 0.041016-5.58e-5 7.57e-5 -0.023413 0.044841-0.023437 0.044922-2.59e-5 8.09e-5 -0.00586 0.052648-0.00586 0.052734 3.9e-6 8.6e-5 0.00778 0.044831 0.00781 0.044922 3.37e-5 9.1e-5 0.015562 0.03115 0.015625 0.03125 1.265e-4 1.93e-4 0.027099 0.03104 0.027344 0.03125 2.443e-4 2.14e-4 0.012693 0.01051 0.017578 0.01367 0.00977 0.0063 0.016105 0.0092 0.021484 0.01172 0.010759 5e-3 0.018201 0.0073 0.025391 0.0098 0.028757 0.0097 0.061337 0.01654 0.10742 0.02734 0.092169 0.02161 0.23292 0.05128 0.41602 0.08789 0.3662 0.07322 0.89613 0.17396 1.5039 0.2832 0.60657 0.10902 1.163 0.21119 1.5684 0.28906 0.15674 0.03011 0.26711 0.05276 0.37305 0.07422-0.09723 0.07699-0.206 0.16211-0.35938 0.2793-0.37522 0.28669-0.89886 0.67896-1.4785 1.1055-0.58073 0.4273-1.1114 0.82228-1.498 1.1152-0.1933 0.14648-0.35027 0.26643-0.46094 0.35352-0.055332 0.04354-0.099172 0.07888-0.13086 0.10547-0.015844 0.01329-0.027614 0.02445-0.039063 0.03516-0.00572 0.0054-0.010657 0.0099-0.017578 0.01758-0.00346 0.0038-0.0082 0.0081-0.013672 0.01563-0.00274 0.0038-0.00957 0.01528-0.00977 0.01563-1.941e-4 3.43e-4 -0.013593 0.03099-0.013672 0.03125-5.89e-5 1.94e-4 -0.00201 0.0759-0.00195 0.07617 5.94e-5 2.72e-4 0.011542 0.03676 0.011719 0.03711 3.534e-4 7e-4 0.0147 0.02334 0.019531 0.0293 0.00966 0.01191 0.0153 0.01767 0.021484 0.02344 0.012369 0.01154 0.025644 0.02095 0.041016 0.0332 0.030744 0.0245 0.071707 0.05669 0.125 0.0957 0.10659 0.07802 0.25884 0.18488 0.44141 0.3125 0.36513 0.25524 0.85363 0.59121 1.3496 0.92773s0.99938 0.67367 1.3906 0.93164c0.19562 0.12898 0.36236 0.23859 0.48828 0.31836 0.06296 0.03988 0.1151 0.07123 0.15625 0.0957 0.04114 0.02447 0.0598 0.03847 0.10352 0.05469 0.0095 0.0035 0.0343 0.0077 0.03516 0.0078 8.54e-4 1.08e-4 0.05596-0.0018 0.05664-2e-3 6.78e-4 -1.61e-4 0.06199-0.03083 0.0625-0.03125 5.05e-4 -4.24e-4 0.03873-0.0501 0.03906-0.05078 3.35e-4 -6.81e-4 0.01158-0.03126 0.01367-0.04297 0.0021-0.01171 0.0039-0.02116 0.0039-0.0293 2.2e-5 -0.01628-2e-3 -0.0273-0.0039-0.03711-0.0076-0.03923-0.01902-0.06258-0.0332-0.09375-0.02837-0.06234-0.07188-0.14097-0.12695-0.23047-0.18709-0.30406-0.35845-0.66212-0.48242-0.99023s-0.19687-0.63197-0.19726-0.79102c-5.52e-4 -0.21926 0.08243-0.44855 0.30664-0.74414s0.58793-0.65051 1.1211-1.0957c0.10229-0.08541 0.15589-0.12975 0.23242-0.19336-0.46166 0.91961-0.60357 2.0077-0.39844 3.0078 0.2192 1.0687 0.79448 2.0043 1.6484 2.4609-0.02164 0.0085-0.05206 0.02041-0.08203 0.0625s-0.03317 0.11807-0.01563 0.1582c0.03509 0.08027 0.07029 0.08613 0.10352 0.10547 0.13289 0.07735 0.37804 0.16086 0.84375 0.32031 0.19533 0.06688 0.37952 0.12868 0.51758 0.17383 0.06903 0.02257 0.12681 0.04137 0.16992 0.05469 0.02156 0.0067 0.04 0.01149 0.05469 0.01563 0.01468 0.0041 0.0093 0.0078 0.04883 0.01172 2.27e-4 2.3e-5 0.03091 3.6e-5 0.03125 0 3.39e-4 -3.6e-5 0.01154-0.0031 0.01563-0.0039 0.0082-0.0017 0.01324-0.0026 0.01758-0.0039 0.0087-0.0027 0.01509-0.0053 0.02148-0.0078 0.01278-5e-3 0.0265-0.01018 0.04297-0.01758 0.03294-0.01481 0.07628-0.03618 0.13086-0.0625 0.10916-0.05265 0.26166-0.12677 0.44141-0.2168 0.3595-0.18005 0.83229-0.42064 1.3027-0.66211s0.93781-0.48421 1.2871-0.66797c0.17465-0.09188 0.32028-0.16907 0.42187-0.22461 0.0508-0.02777 0.0903-0.04945 0.11914-0.06641 0.01442-0.0085 0.02539-0.01551 0.03711-0.02344 0.0059-4e-3 0.01011-0.0075 0.02148-0.01758 0.0028-0.0025 0.01147-0.0095 0.01172-0.0098 2.48e-4 -2.64e-4 0.01549-0.02128 0.01563-0.02148 1.36e-4 -2.07e-4 0.02341-0.0604 0.02344-0.06055 2.3e-5 -1.5e-4 -0.04288-0.12882-0.04297-0.12891-7.1e-5 -7.1e-5 -0.04871-0.03315-0.04883-0.0332-1.23e-4 -5e-5 -0.03303-0.0097-0.0332-0.0098-3.49e-4 -5.7e-5 -0.02604-0.0023-0.0332-2e-3 -0.01432 6.68e-4 -0.01937 0.0027-0.02539 0.0039-0.01204 0.0024-0.02013 0.0051-0.0293 0.0078-0.01833 0.0054-0.04003 0.01234-0.06641 0.02148-0.05274 0.01828-0.12439 0.04469-0.21289 0.07813-0.17701 0.06687-0.41709 0.16015-0.67969 0.26562-0.80037 0.32147-1.3188 0.46389-1.832 0.56836 0.0018-0.0017 0.0021-0.0022 0.0039-0.0039 1.2793-1.1967 1.5798-3.5535 0.68164-5.1875-0.0072-0.01316-0.01062-0.02036-0.01758-0.0332 0.0047 0.0024 0.0069 0.0034 0.01172 0.0059 0.20206 0.10372 0.47149 0.24971 0.76953 0.41797 0.59609 0.33651 1.3085 0.75905 1.8379 1.0996 0.14536 0.0935 0.27865 0.18014 0.37891 0.24219 0.05013 0.03102 0.09209 0.056 0.12305 0.07422 0.01548 0.0091 0.02766 0.01532 0.03906 0.02149 0.0057 0.0031 0.01024 0.0064 0.01758 0.0098 0.0037 0.0017 0.0082 0.0032 0.01563 0.0059 0.0037 0.0013 0.01533 0.0058 0.01563 0.0059 2.92e-4 7.4e-5 0.03693 0.0039 0.03711 0.0039 1.79e-4 0 0.07403-0.01943 0.07422-0.01953 1.87e-4 -1.04e-4 0.03691-0.02714 0.03711-0.02734 1.96e-4 -2.05e-4 0.01541-0.02118 0.01563-0.02148 2.04e-4 -3.07e-4 0.0076-0.01145 0.0098-0.01563 0.0086-0.01665 0.0093-0.02333 0.01172-0.03125 0.0048-0.01583 0.0069-0.02828 0.0098-0.04297 0.0057-0.02938 0.01158-0.06676 0.01758-0.11133 0.01199-0.08914 0.02514-0.20969 0.03711-0.3418 0.04559-0.50308 0.12389-0.78454 0.27539-0.95703s0.40796-0.27284 0.88086-0.36133c0.11118-0.0208 0.18331-0.02665 0.26758-0.06641 0.02107-0.0099 0.04832-0.02063 0.07813-0.0625 0.02979-0.04187 0.03475-0.13372 0.0098-0.17774-0.05002-0.08804-0.08981-0.08296-0.13477-0.10156-0.17981-0.07442-0.56331-0.16436-1.3574-0.35938-2.7952-0.68647-4.1345-0.94055-6.0861-1.1543-0.80134-0.087785-2.478-0.24883-3.9863-0.38672-0.75414-0.068944-1.4651-0.1321-2.0039-0.17773-0.26942-0.022819-0.49513-0.040198-0.66211-0.052734-0.16698-0.012537-0.25668-0.021245-0.31836-0.019531zm6.0313 2.6504c0.02326-0.0054 0.04654-3.15e-4 0.07422 0.0098 0.05536 0.02015 0.12854 0.08166 0.17969 0.19922 7e-5 1.61e-4 0.02721 0.04282 0.02734 0.04297 1.32e-4 1.44e-4 0.0291 0.02331 0.0293 0.02344 3.88e-4 2.56e-4 0.04039 0.01934 0.04102 0.01953 0.0013 3.8e-4 0.03001 0.0073 0.03906 0.0078 0.01811 1e-3 0.0292-8.13e-4 0.04101-2e-3 0.02363-0.0022 0.04881-0.0064 0.07813-0.01172 0.05861-0.01064 0.13295-0.02627 0.21484-0.04687 0.5562-0.14005 1.0511 0.17272 1.3516 0.70117 0.3005 0.52846 0.3786 1.2569 0.06836 1.8828-0.10062 0.203-0.15883 0.30188-0.17578 0.42188-0.0085 0.06 0.0047 0.12802 0.0293 0.17773 0.02462 0.04971 0.05148 0.08421 0.08203 0.12305 0.18793 0.23892 0.09941 0.59254-0.16992 0.70508-0.15234 0.06365-0.30153 0.05969-0.41406 0.01172s-0.18814-0.1321-0.21289-0.25586c-0.01794-0.08972-0.03822-0.17851-0.11914-0.24414s-0.17075-0.0677-0.26367-0.06836c-0.48486-0.0034-0.8944-0.3765-1.1172-0.91406-0.22278-0.53757-0.24108-1.2208 0.04492-1.7754 0.08556-0.16589 0.13663-0.26732 0.16016-0.36523 0.01176-0.04896 0.01667-0.10338 0-0.1582-0.01667-0.05483-0.05391-0.09842-0.08594-0.125-0.0014-0.0012-0.03519-0.06102-0.0332-0.13672 2e-3 -0.0757 0.0348-0.15199 0.05664-0.17383 0.02771-0.0277 0.05096-0.04347 0.07422-0.04883z" color="#000000" fill="#fff" stroke-width=".30887"/>
    </g>
    <g display="none" fill="none">
        <rect transform="rotate(90)" x="7.8232" y="-20.923" width="13.1" height="13.1" display="inline" stroke="#000" stroke-width=".070382"/>
        <rect x="7.2241" y="8.6528" width="14.298" height="11.441" stroke="#5261ff" stroke-linecap="round" stroke-linejoin="round" stroke-width=".06959"/>
        <rect transform="rotate(90)" x="7.2241" y="-20.094" width="14.298" height="11.441" display="inline" stroke="#0f0" stroke-linecap="round" stroke-linejoin="round" stroke-width=".06959"/>
    </g>
</svg>
