<?xml version="1.0" encoding="UTF-8"?>
<svg version="1.1" viewBox="0 0 28.747 28.747" xmlns="http://www.w3.org/2000/svg" xmlns:xlink="http://www.w3.org/1999/xlink">
    <defs>
        <filter id="filter6206-7" x="-.072" y="-.072" width="1.144" height="1.144" color-interpolation-filters="sRGB">
            <feGaussianBlur stdDeviation="0.658125"/>
        </filter>
    </defs>
    <g transform="translate(0 -1093.8)">
        <path transform="matrix(1.0781 0 0 1.0641 -.093733 2.7509)" d="m4.4177 1028.2v1.6051h-1.6052v18.192h1.6052v2.1402h18.192v-2.1402h2.1402v-18.192h-2.1402v-1.6051z" fill="#1a237e" filter="url(#filter6206-7)" opacity=".2"/>
        <rect x="2.9987" y="1096.8" width="22.749" height="22.749" rx="1.1973" ry="1.1974" fill="#3f51b5"/>
        <g transform="translate(-22.32 1056.5)">
            <path d="m0 0h51.2v51.2h-51.2z" fill="none" stroke-width="1.0667"/>
            <g transform="matrix(.33601 0 0 .33601 1.5296 73.043)">
                <path d="m0 0h51.2v51.2h-51.2z" fill="none" stroke-width="1.0667"/>
            </g>
            <g transform="matrix(.37187 0 0 .37187 38.802 63.239)">
                <path d="m0 0h51.2v51.2h-51.2z" fill="none" stroke-width="1.0667"/>
                <g transform="matrix(2.6891 0 0 2.6891 -82.906 -48.45)">
                    <path d="m0 0h51.2v51.2h-51.2z" fill="none" stroke-width="1.0667"/>
                </g>
            </g>
        </g>
        <path d="m4.1958 1096.8c-0.66332 0-1.1979 0.5346-1.1979 1.1979v0.3334c0-0.6634 0.53459-1.1979 1.1979-1.1979h20.354c0.66332 0 1.1979 0.5345 1.1979 1.1979v-0.3334c0-0.6633-0.5346-1.1979-1.1979-1.1979z" fill="#fff" opacity=".2"/>
        <rect x="128" y="546.52" width="42.667" height="42.667" fill="none" stroke-width="1.0667"/>
        <rect x="128" y="631.85" width="42.667" height="42.667" fill="none" stroke-width="1.0667"/>
        <rect x="128" y="674.52" width="42.667" height="42.667" fill="none" stroke-width="1.0667"/>
        <rect x="128" y="589.19" width="42.667" height="42.667" fill="none" stroke-width="1.0667"/>
        <rect x="128" y="717.19" width="42.667" height="42.667" fill="none" stroke-width="1.0667"/>
        <rect x="213.33" y="546.52" width="42.667" height="42.667" fill="none" stroke-width="1.0667"/>
        <rect x="213.33" y="631.85" width="42.667" height="42.667" fill="none" stroke-width="1.0667"/>
        <rect x="213.33" y="674.52" width="42.667" height="42.667" fill="none" stroke-width="1.0667"/>
        <rect x="213.33" y="589.19" width="42.667" height="42.667" fill="none" stroke-width="1.0667"/>
        <rect x="213.33" y="717.19" width="42.667" height="42.667" fill="none" stroke-width="1.0667"/>
        <rect x="298.67" y="546.52" width="42.667" height="42.667" fill="none" stroke-width="1.0667"/>
        <rect x="298.67" y="631.85" width="42.667" height="42.667" fill="none" stroke-width="1.0667"/>
        <rect x="298.67" y="674.52" width="42.667" height="42.667" fill="none" stroke-width="1.0667"/>
        <rect x="298.67" y="589.19" width="42.667" height="42.667" fill="none" stroke-width="1.0667"/>
        <rect x="298.67" y="717.19" width="42.667" height="42.667" fill="none" stroke-width="1.0667"/>
        <rect x="170.67" y="546.52" width="42.667" height="42.667" fill="none" stroke-width="1.0667"/>
        <rect x="170.67" y="631.85" width="42.667" height="42.667" fill="none" stroke-width="1.0667"/>
        <rect x="170.67" y="674.52" width="42.667" height="42.667" fill="none" stroke-width="1.0667"/>
        <rect x="170.67" y="589.19" width="42.667" height="42.667" fill="none" stroke-width="1.0667"/>
        <rect x="170.67" y="717.19" width="42.667" height="42.667" fill="none" stroke-width="1.0667"/>
        <rect x="256" y="546.52" width="42.667" height="42.667" fill="none" stroke-width="1.0667"/>
        <rect x="256" y="631.85" width="42.667" height="42.667" fill="none" stroke-width="1.0667"/>
        <rect x="256" y="674.52" width="42.667" height="42.667" fill="none" stroke-width="1.0667"/>
        <rect x="256" y="589.19" width="42.667" height="42.667" fill="none" stroke-width="1.0667"/>
        <rect x="256" y="717.19" width="42.667" height="42.667" fill="none" stroke-width="1.0667"/>
        <rect x="128" y="759.85" width="42.667" height="42.667" fill="none" stroke-width="1.0667"/>
        <rect x="213.33" y="759.85" width="42.667" height="42.667" fill="none" stroke-width="1.0667"/>
        <rect x="298.67" y="759.85" width="42.667" height="42.667" fill="none" stroke-width="1.0667"/>
        <rect x="170.67" y="759.85" width="42.667" height="42.667" fill="none" stroke-width="1.0667"/>
        <rect x="256" y="759.85" width="42.667" height="42.667" fill="none" stroke-width="1.0667"/>
        <rect x="341.33" y="589.19" width="42.667" height="42.667" fill="none" stroke-width="1.0667"/>
        <rect x="341.33" y="631.85" width="42.667" height="42.667" fill="none" stroke-width="1.0667"/>
        <rect x="341.33" y="717.19" width="42.667" height="42.667" fill="none" stroke-width="1.0667"/>
        <rect x="341.33" y="546.52" width="42.667" height="42.667" fill="none" stroke-width="1.0667"/>
        <rect x="341.33" y="674.52" width="42.667" height="42.667" fill="none" stroke-width="1.0667"/>
        <rect x="341.33" y="759.85" width="42.667" height="42.667" fill="none" stroke-width="1.0667"/>
        <rect x="160" y="578.52" width="192" height="192" fill="none" stroke-width="1.0667"/>
        <g transform="matrix(.37344 0 0 .37344 4.7333 1097.4)">
            <path d="m0 0h51.2v51.2h-51.2z" fill="none" stroke-width="1.0667"/>
        </g>
        <g transform="matrix(.36471 0 0 .36471 5.1356 1097.4)">
            <path d="m0 0h51.2v51.2h-51.2z" fill="none" stroke-width="1.0667"/>
        </g>
        <g transform="matrix(.41585 0 0 .41585 84.325 1055.9)">
            <g transform="matrix(.062269 0 0 .062269 -28.238 185.29)">
                <g transform="matrix(38.618 0 0 38.618 14724 -13542)">
                    <g transform="matrix(.71436 0 0 .71436 -400.52 188.34)">
                        <path d="m1293.2-120.67c-181.75 0.2763-511.18 0.13525-699.05 0.13998-2.3216 10.413-3.593 21.251-3.593 32.384v114c207.65 0.73695 494.72 0.38136 706.23 0.3733v-114.37c0-11.18-1.2522-22.07-3.593-32.523zm-458.69 295.56c-78.385-4e-3 -158.85 0.17892-243.95 0.55995v138.63c286.34-0.39317 421.73-0.13827 706.23-0.32664v-137.75c-163.2-0.53005-311.22-1.1113-462.28-1.1199z" opacity="0" stroke-width="1.4932"/>
                    </g>
                </g>
            </g>
        </g>
        <path d="m24.549 1119.5c0.66325 0 1.1979-0.5346 1.1979-1.1979v-0.3333c0 0.6632-0.53461 1.1978-1.1979 1.1978h-20.354c-0.66325 0-1.1979-0.5346-1.1979-1.1978v0.3333c0 0.6633 0.53461 1.1979 1.1979 1.1979z" fill="#1a237e" opacity=".2"/>
    </g>
    <g>
        <path d="m17.491 7.8866c0.04192-0.00426 0.08059-0.00305 0.10951 0.0042 0.14173 0.035569 0.28759 0.19766 0.3165 0.35176 0.02307 0.12306-0.0061 0.1954-0.37864 0.93481-0.22202 0.44076-0.40368 0.81716-0.40368 0.83646 0 0.0193 0.13646 0.13697 0.30323 0.26154 0.39511 0.2951 0.94917 0.87297 1.2034 1.255 0.11105 0.16689 0.27595 0.46971 0.36638 0.67293 0.3365 0.75614 0.44019 1.1536 0.45803 1.7557l0.0083 0.27724-0.24258 0.02168c-0.13342 0.01191-2.42 0.02361-5.0814 0.02599-4.0801 0.0037-4.8451-0.0033-4.8786-0.04359-0.059308-0.07146 0.016772-0.79533 0.12163-1.1572 0.16753-0.57814 0.47822-1.244 0.77981-1.6713 0.23893-0.33851 0.77067-0.86727 1.1312-1.1248 0.15725-0.11234 0.28591-0.22502 0.28591-0.25044 0-0.02544-0.17154-0.38904-0.38121-0.80804-0.44454-0.88839-0.46501-0.98059-0.26452-1.1932 0.09955-0.10555 0.13927-0.12373 0.26959-0.12373 0.08404 0 0.1859 0.0232 0.22641 0.051577 0.04051 0.028368 0.25651 0.39459 0.47996 0.81379 0.22346 0.41919 0.4252 0.78803 0.44828 0.81961 0.03839 0.052523 0.07399 0.046548 0.4181-0.069851 0.56152-0.18994 0.90938-0.24356 1.5758-0.24286 0.62465 5.872e-4 0.92008 0.043885 1.5217 0.22262 0.19111 0.056777 0.3772 0.10322 0.41356 0.10322 0.06431 0 0.21566-0.26468 0.77277-1.3516 0.13642-0.26614 0.16462-0.29924 0.29186-0.34324 0.04176-0.014448 0.08689-0.024168 0.12881-0.028428zm-0.80729 3.5437c-0.03764 0.0035-0.07589 0.01313-0.11432 0.02951-0.32468 0.13837-0.40748 0.55494-0.15683 0.78908 0.0884 0.08257 0.13542 0.09869 0.28794 0.09869 0.22303 0 0.34573-0.08392 0.40321-0.27575 0.05376-0.17944 0.0145-0.35962-0.10904-0.50033-0.0906-0.1032-0.19805-0.15126-0.31095-0.14119zm-4.6668 0.0046c-0.18597 0-0.34033 0.13027-0.39501 0.33336-0.0478 0.17744-0.01376 0.31558 0.11351 0.46053 0.0951 0.1083 0.12108 0.11872 0.29586 0.11872 0.17479 0 0.20182-0.01084 0.30831-0.12373 0.10168-0.1078 0.1167-0.14691 0.11648-0.30324-3.82e-4 -0.2966-0.1713-0.48565-0.43915-0.48565zm7.4685 0.63319c0.17398 0.0012 0.50698 0.0924 0.74813 0.21869 0.29678 0.15544 0.69986 0.56734 0.86306 0.88202 0.35137 0.67747 0.35843 1.5019 0.01874 2.1937-0.19552 0.3982-0.55657 0.76253-0.93745 0.94598-0.30981 0.14922-0.36721 0.15663-0.39034 0.05036-0.0094-0.04289-0.0225-0.68617-0.02924-1.4295-0.0136-1.4999-0.0313-1.6505-0.2859-2.4406-0.06403-0.19868-0.10842-0.37412-0.09869-0.38987 0.01337-0.02162 0.05369-0.0312 0.11168-0.0308zm-10.13 0.0095c0.034062 0.0012 0.056354 0.0068 0.063071 0.01779 0.011166 0.01804-0.040377 0.2108-0.11452 0.42838-0.23313 0.68416-0.28186 1.0033-0.3144 2.0591-0.015864 0.51463-0.029725 1.1484-0.030864 1.4085-0.00164 0.38382-0.011748 0.47653-0.053341 0.49248-0.028171 0.01084-0.19189-0.05084-0.36388-0.13693-0.5506-0.27565-0.9311-0.75991-1.1-1.4002-0.080123-0.30368-0.07999-0.91012 2.7e-4 -1.2129 0.083945-0.31671 0.30482-0.74766 0.49201-0.95999 0.20852-0.23653 0.62342-0.51106 0.90273-0.59733 0.20901-0.06456 0.41678-0.10238 0.51895-0.09888zm6.1011 2.7007c3.218-0.0038 3.9294 0.0035 3.9814 0.04143 0.055 0.04023 0.06119 0.08479 0.04771 0.34168-0.01829 0.34853-0.09257 0.52409-0.41126 0.97211-0.42502 0.5975-0.75655 0.91452-1.273 1.2173-0.4469 0.262-0.70867 0.33912-1.2205 0.35962-0.85999 0.03443-1.5595-0.17252-1.5595-0.46148 0-0.15633-0.17216-0.42724-0.33051-0.52003-0.19206-0.11256-0.44505-0.11477-0.6087-0.0053-0.13134 0.08788-0.34092 0.44388-0.34127 0.57966-4.98e-4 0.2031 0.21873 0.53852 0.42108 0.64423 0.11921 0.06228 0.33178 0.06077 0.44354-0.0032 0.13057-0.07463 0.26768-0.06261 0.60863 0.0534 0.32732 0.11138 0.99853 0.24157 1.2402 0.24056 0.18843-9.1e-4 0.54818-0.07822 0.96547-0.20786 0.5422-0.16845 1.1554-0.63395 1.7456-1.325 0.10291-0.1205 0.1655-0.16461 0.23352-0.16461h0.09293v2.4546l-0.16461 0.14552c-0.45738 0.40433-1.598 1.0314-2.3479 1.2907-0.41819 0.14462-0.98046 0.27966-1.4728 0.35379-0.34932 0.05259-1.4996 0.09772-1.7154 0.06729-0.05719-0.0081-0.25212-0.03152-0.43319-0.05213-0.85188-0.09682-1.6085-0.32266-2.4783-0.73972-0.63407-0.30401-1.0388-0.54343-1.3887-0.8215l-0.25748-0.20462 0.00897-2.1046 0.00897-2.1047 1.1436-0.02117c0.62899-0.01164 2.9067-0.02335 5.0617-0.02599z" color="#000000" fill="#fff" stroke-width=".034655" style="-inkscape-stroke:none"/>
    </g>
</svg>
