<?xml version="1.0" encoding="UTF-8"?>
<svg version="1.1" viewBox="0 0 26.95 26.95" xmlns="http://www.w3.org/2000/svg">
    <defs>
        <filter id="filter6206-7" color-interpolation-filters="sRGB">
            <feGaussianBlur stdDeviation="0.658125"/>
        </filter>
    </defs>
    <g transform="translate(0 -1025.4)">
        <path transform="matrix(1.0107 0 0 .99762 -.087875 2.579)" d="m4.4177 1028.2v1.6051h-1.6052v18.192h1.6052v2.1402h18.192v-2.1402h2.1402v-18.192h-2.1402v-1.6051h-18.192z" fill="#bf360c" filter="url(#filter6206-7)" opacity=".2"/>
        <rect x="2.8113" y="1028.2" width="21.327" height="21.327" rx="1.1225" ry="1.1226" fill="#ffc107"/>
        <g transform="translate(-20.925 990.46)">
            <path d="m0 0h48v48h-48z" fill="none"/>
            <g transform="matrix(.33601 0 0 .33601 1.434 68.477)">
                <path d="m0 0h48v48h-48z" fill="none"/>
            </g>
            <g transform="matrix(.37187 0 0 .37187 36.377 59.287)">
                <path d="m0 0h48v48h-48z" fill="none"/>
                <g transform="matrix(2.6891 0 0 2.6891 -77.724 -45.422)">
                    <path d="m0 0h48v48h-48z" fill="none"/>
                </g>
            </g>
        </g>
        <path transform="translate(0 1025.4)" d="m3.9336 2.8105c-0.62186 0-1.123 0.50115-1.123 1.123v0.3125c0-0.6219 0.50118-1.123 1.123-1.123h19.082c0.62186 0 1.123 0.50115 1.123 1.123v-0.3125c0-0.6219-0.50118-1.123-1.123-1.123h-19.082z" fill="#fff" opacity=".2"/>
        <rect x="120" y="512.36" width="40" height="40" fill="none"/>
        <rect x="120" y="592.36" width="40" height="40" fill="none"/>
        <rect x="120" y="632.36" width="40" height="40" fill="none"/>
        <rect x="120" y="552.36" width="40" height="40" fill="none"/>
        <rect x="120" y="672.36" width="40" height="40" fill="none"/>
        <rect x="200" y="512.36" width="40" height="40" fill="none"/>
        <rect x="200" y="592.36" width="40" height="40" fill="none"/>
        <rect x="200" y="632.36" width="40" height="40" fill="none"/>
        <rect x="200" y="552.36" width="40" height="40" fill="none"/>
        <rect x="200" y="672.36" width="40" height="40" fill="none"/>
        <rect x="280" y="512.36" width="40" height="40" fill="none"/>
        <rect x="280" y="592.36" width="40" height="40" fill="none"/>
        <rect x="280" y="632.36" width="40" height="40" fill="none"/>
        <rect x="280" y="552.36" width="40" height="40" fill="none"/>
        <rect x="280" y="672.36" width="40" height="40" fill="none"/>
        <rect x="160" y="512.36" width="40" height="40" fill="none"/>
        <rect x="160" y="592.36" width="40" height="40" fill="none"/>
        <rect x="160" y="632.36" width="40" height="40" fill="none"/>
        <rect x="160" y="552.36" width="40" height="40" fill="none"/>
        <rect x="160" y="672.36" width="40" height="40" fill="none"/>
        <rect x="240" y="512.36" width="40" height="40" fill="none"/>
        <rect x="240" y="592.36" width="40" height="40" fill="none"/>
        <rect x="240" y="632.36" width="40" height="40" fill="none"/>
        <rect x="240" y="552.36" width="40" height="40" fill="none"/>
        <rect x="240" y="672.36" width="40" height="40" fill="none"/>
        <rect x="120" y="712.36" width="40" height="40" fill="none"/>
        <rect x="200" y="712.36" width="40" height="40" fill="none"/>
        <rect x="280" y="712.36" width="40" height="40" fill="none"/>
        <rect x="160" y="712.36" width="40" height="40" fill="none"/>
        <rect x="240" y="712.36" width="40" height="40" fill="none"/>
        <rect x="320" y="552.36" width="40" height="40" fill="none"/>
        <rect x="320" y="592.36" width="40" height="40" fill="none"/>
        <rect x="320" y="672.36" width="40" height="40" fill="none"/>
        <rect x="320" y="512.36" width="40" height="40" fill="none"/>
        <rect x="320" y="632.36" width="40" height="40" fill="none"/>
        <rect x="320" y="712.36" width="40" height="40" fill="none"/>
        <rect x="150" y="542.36" width="180" height="180" fill="none"/>
        <g transform="matrix(.37344 0 0 .37344 4.4375 1028.8)">
            <path d="m0 0h48v48h-48z" fill="none"/>
        </g>
        <g transform="matrix(.36471 0 0 .36471 4.8146 1028.8)">
            <path d="m0 0h48v48h-48z" fill="none"/>
        </g>
        <g transform="matrix(.41585 0 0 .41585 79.055 989.88)">
            <g transform="matrix(.062269 0 0 .062269 -26.473 173.71)">
                <g transform="matrix(38.618 0 0 38.618 13804 -12696)">
                    <g transform="matrix(.71436 0 0 .71436 -375.49 176.57)">
                        <path transform="matrix(1.3999 0 0 1.3999 525.63 -247.17)" d="m490.56 95.75c-121.72 0.18504-342.34 0.090577-468.16 0.09375-1.5548 6.9739-2.4062 14.232-2.4062 21.688v76.344c139.06 0.49354 331.32 0.2554 472.97 0.25v-76.594c0-7.4875-0.8386-14.78-2.4062-21.781zm-307.19 197.94c-52.495-3e-3 -106.38 0.11982-163.38 0.375v92.844c191.76-0.26331 282.43-0.0926 472.97-0.21875v-92.25c-109.29-0.35498-208.43-0.74426-309.59-0.75z" opacity="0"/>
                    </g>
                </g>
            </g>
        </g>
        <path d="m23.015 1049.6c0.6218 0 1.123-0.5012 1.123-1.123v-0.3125c0 0.6218-0.5012 1.123-1.123 1.123h-19.082c-0.6218 0-1.123-0.5012-1.123-1.123v0.3125c0 0.6218 0.5012 1.123 1.123 1.123h19.082z" fill="#bf360c" opacity=".2"/>
    </g>
    <g transform="translate(-100.76 113.39)" fill="#fff">
        <path d="m-169.55 20.75v-96h192v192h-192v-96z"/>
        <path d="m119.13-93.821c0.1281-0.15436 0.25641-1.4567 0.28513-2.8941 0.0411-2.0569-0.0145-2.6556-0.26112-2.8118-0.40822-0.25839-0.58837-0.25458-0.7556 0.01602-0.0752 0.12162-0.8771 0.22113-1.7821 0.22113-1.2502 0-1.6454-0.07317-1.6454-0.30462 0-0.16754-0.15286-0.43147-0.3397-0.58653-0.28369-0.23545-0.44059-0.18523-0.95189 0.30462-0.63539 0.60874-1.8266 0.76925-2.7993 0.37719-0.83319-0.33583-0.99529 0.10946-0.99169 2.7241 5e-3 2.9436 0.11654 3.2188 1.1612 2.8411 1.1225-0.40591 6.5871-0.36401 7.1408 0.05474 0.53286 0.40302 0.64753 0.41012 0.93971 0.05807zm-8.051-1.1348c-0.0678-0.17677-0.0906-0.55252-0.0505-0.83501 0.0722-0.50968 0.0996-0.51409 3.5692-0.57459l3.4965-0.06096-0.0689 0.83491-0.069 0.83492-3.3769 0.06107c-2.7895 0.05045-3.3984 0.0052-3.5002-0.26033zm6e-3 -2.6628c-0.0745-0.29714-0.0707-0.64542 9e-3 -0.77395 0.0914-0.14785 1.3987-0.2337 3.5589-0.2337h3.4144v1.5479h-6.8466l-0.13558-0.54025zm2.6393-2.8806c0.44264-0.30039 0.8048-0.49815 0.8048-0.43947 0 0.0587 0.69656-0.2441 1.5479-0.67283 2.1727-1.0942 2.0107-1.4898-0.3094-0.75567-1.3933 0.44084-1.4865 0.35581-1.4144-1.2898l0.0654-1.4926h4.6436l0.0653 1.4884c0.0851 1.9411-0.15318 2.3813-1.2893 2.3813-0.4822 0-0.87673 0.049-0.87673 0.10889 0 0.30557 1.016 1.2179 1.3562 1.2179 0.6634 0 1.4581-0.46573 1.6998-0.99612 0.12658-0.27781 0.25517-1.5185 0.28578-2.757 0.0594-2.4035-0.12292-2.8593-0.96364-2.4094-0.23649 0.12656-1.4571 0.1757-2.8866 0.1162-1.3622-0.0567-2.5763-0.10447-2.698-0.10614-1.7643-0.0244-5.289 0.34476-5.3606 0.56136-0.0652 0.19738 0.54685 0.28549 2.3042 0.3317l2.393 0.0629 0.0671 1.4305c0.10239 2.1832-0.0129 2.4425-1.0665 2.4012-1.1452-0.0449-1.2928 0.13738-0.65821 0.81284 0.65427 0.69644 1.2701 0.698 2.2902 6e-3zm-3.3876-1.2453c1.2336-0.64202 1.7964-1.2488 0.93073-1.0033-0.21284 0.0603-0.96369 0.23317-1.6686 0.38403-1.3529 0.28958-1.5986 0.46248-1.3985 0.98396 0.18385 0.47912 0.67661 0.395 2.1363-0.36468zm0.87544-2.0658c0-0.42551-0.85876-1.0076-1.4865-1.0076-0.6281 0-0.63273 0.16575-0.0228 0.81498 0.53615 0.57071 1.5093 0.69491 1.5093 0.19264zm6.0534 0.14275c0.25447-0.41174-0.7833-1.1504-1.6163-1.1504-0.62015 0-0.57408 0.3179 0.12584 0.86846 0.59395 0.46721 1.2941 0.59963 1.4904 0.28191z"/>
    </g>
    <g display="none" fill="none">
        <rect transform="rotate(90)" x="7.3342" y="-19.616" width="12.282" height="12.282" display="inline" stroke="#000" stroke-width=".065984"/>
        <rect x="6.7726" y="8.112" width="13.405" height="10.726" stroke="#5261ff" stroke-linecap="round" stroke-linejoin="round" stroke-width=".06524"/>
        <rect transform="rotate(90)" x="6.7726" y="-18.838" width="13.405" height="10.726" display="inline" stroke="#0f0" stroke-linecap="round" stroke-linejoin="round" stroke-width=".06524"/>
    </g>
</svg>
