<?xml version="1.0" encoding="UTF-8"?>
<svg version="1.1" viewBox="0 0 28.747 28.747" xmlns="http://www.w3.org/2000/svg" xmlns:xlink="http://www.w3.org/1999/xlink">
    <defs>
        <filter id="filter6206-7" x="-.072" y="-.072" width="1.144" height="1.144" color-interpolation-filters="sRGB">
            <feGaussianBlur stdDeviation="0.658125"/>
        </filter>
    </defs>
    <g transform="translate(0 -1093.8)">
        <path transform="matrix(1.0781 0 0 1.0641 -.093733 2.7509)" d="m4.4177 1028.2v1.6051h-1.6052v18.192h1.6052v2.1402h18.192v-2.1402h2.1402v-18.192h-2.1402v-1.6051z" fill="#212121" filter="url(#filter6206-7)" opacity=".2"/>
        <rect x="2.9987" y="1096.8" width="22.749" height="22.749" rx="1.1973" ry="1.1974" fill="#9e9e9e"/>
        <g transform="translate(-22.32 1056.5)">
            <path d="m0 0h51.2v51.2h-51.2z" fill="none" stroke-width="1.0667"/>
            <g transform="matrix(.33601 0 0 .33601 1.5296 73.043)">
                <path d="m0 0h51.2v51.2h-51.2z" fill="none" stroke-width="1.0667"/>
            </g>
            <g transform="matrix(.37187 0 0 .37187 38.802 63.239)">
                <path d="m0 0h51.2v51.2h-51.2z" fill="none" stroke-width="1.0667"/>
                <g transform="matrix(2.6891 0 0 2.6891 -82.906 -48.45)">
                    <path d="m0 0h51.2v51.2h-51.2z" fill="none" stroke-width="1.0667"/>
                </g>
            </g>
        </g>
        <path d="m4.1958 1096.8c-0.66332 0-1.1979 0.5346-1.1979 1.1979v0.3334c0-0.6634 0.53459-1.1979 1.1979-1.1979h20.354c0.66332 0 1.1979 0.5345 1.1979 1.1979v-0.3334c0-0.6633-0.5346-1.1979-1.1979-1.1979z" fill="#fff" opacity=".2"/>
        <rect x="128" y="546.52" width="42.667" height="42.667" fill="none" stroke-width="1.0667"/>
        <rect x="128" y="631.85" width="42.667" height="42.667" fill="none" stroke-width="1.0667"/>
        <rect x="128" y="674.52" width="42.667" height="42.667" fill="none" stroke-width="1.0667"/>
        <rect x="128" y="589.19" width="42.667" height="42.667" fill="none" stroke-width="1.0667"/>
        <rect x="128" y="717.19" width="42.667" height="42.667" fill="none" stroke-width="1.0667"/>
        <rect x="213.33" y="546.52" width="42.667" height="42.667" fill="none" stroke-width="1.0667"/>
        <rect x="213.33" y="631.85" width="42.667" height="42.667" fill="none" stroke-width="1.0667"/>
        <rect x="213.33" y="674.52" width="42.667" height="42.667" fill="none" stroke-width="1.0667"/>
        <rect x="213.33" y="589.19" width="42.667" height="42.667" fill="none" stroke-width="1.0667"/>
        <rect x="213.33" y="717.19" width="42.667" height="42.667" fill="none" stroke-width="1.0667"/>
        <rect x="298.67" y="546.52" width="42.667" height="42.667" fill="none" stroke-width="1.0667"/>
        <rect x="298.67" y="631.85" width="42.667" height="42.667" fill="none" stroke-width="1.0667"/>
        <rect x="298.67" y="674.52" width="42.667" height="42.667" fill="none" stroke-width="1.0667"/>
        <rect x="298.67" y="589.19" width="42.667" height="42.667" fill="none" stroke-width="1.0667"/>
        <rect x="298.67" y="717.19" width="42.667" height="42.667" fill="none" stroke-width="1.0667"/>
        <rect x="170.67" y="546.52" width="42.667" height="42.667" fill="none" stroke-width="1.0667"/>
        <rect x="170.67" y="631.85" width="42.667" height="42.667" fill="none" stroke-width="1.0667"/>
        <rect x="170.67" y="674.52" width="42.667" height="42.667" fill="none" stroke-width="1.0667"/>
        <rect x="170.67" y="589.19" width="42.667" height="42.667" fill="none" stroke-width="1.0667"/>
        <rect x="170.67" y="717.19" width="42.667" height="42.667" fill="none" stroke-width="1.0667"/>
        <rect x="256" y="546.52" width="42.667" height="42.667" fill="none" stroke-width="1.0667"/>
        <rect x="256" y="631.85" width="42.667" height="42.667" fill="none" stroke-width="1.0667"/>
        <rect x="256" y="674.52" width="42.667" height="42.667" fill="none" stroke-width="1.0667"/>
        <rect x="256" y="589.19" width="42.667" height="42.667" fill="none" stroke-width="1.0667"/>
        <rect x="256" y="717.19" width="42.667" height="42.667" fill="none" stroke-width="1.0667"/>
        <rect x="128" y="759.85" width="42.667" height="42.667" fill="none" stroke-width="1.0667"/>
        <rect x="213.33" y="759.85" width="42.667" height="42.667" fill="none" stroke-width="1.0667"/>
        <rect x="298.67" y="759.85" width="42.667" height="42.667" fill="none" stroke-width="1.0667"/>
        <rect x="170.67" y="759.85" width="42.667" height="42.667" fill="none" stroke-width="1.0667"/>
        <rect x="256" y="759.85" width="42.667" height="42.667" fill="none" stroke-width="1.0667"/>
        <rect x="341.33" y="589.19" width="42.667" height="42.667" fill="none" stroke-width="1.0667"/>
        <rect x="341.33" y="631.85" width="42.667" height="42.667" fill="none" stroke-width="1.0667"/>
        <rect x="341.33" y="717.19" width="42.667" height="42.667" fill="none" stroke-width="1.0667"/>
        <rect x="341.33" y="546.52" width="42.667" height="42.667" fill="none" stroke-width="1.0667"/>
        <rect x="341.33" y="674.52" width="42.667" height="42.667" fill="none" stroke-width="1.0667"/>
        <rect x="341.33" y="759.85" width="42.667" height="42.667" fill="none" stroke-width="1.0667"/>
        <rect x="160" y="578.52" width="192" height="192" fill="none" stroke-width="1.0667"/>
        <g transform="matrix(.37344 0 0 .37344 4.7333 1097.4)">
            <path d="m0 0h51.2v51.2h-51.2z" fill="none" stroke-width="1.0667"/>
        </g>
        <g transform="matrix(.36471 0 0 .36471 5.1356 1097.4)">
            <path d="m0 0h51.2v51.2h-51.2z" fill="none" stroke-width="1.0667"/>
        </g>
        <g transform="matrix(.41585 0 0 .41585 84.325 1055.9)">
            <g transform="matrix(.062269 0 0 .062269 -28.238 185.29)">
                <g transform="matrix(38.618 0 0 38.618 14724 -13542)">
                    <g transform="matrix(.71436 0 0 .71436 -400.52 188.34)">
                        <path d="m1293.2-120.67c-181.75 0.2763-511.18 0.13525-699.05 0.13998-2.3216 10.413-3.593 21.251-3.593 32.384v114c207.65 0.73695 494.72 0.38136 706.23 0.3733v-114.37c0-11.18-1.2522-22.07-3.593-32.523zm-458.69 295.56c-78.385-4e-3 -158.85 0.17892-243.95 0.55995v138.63c286.34-0.39317 421.73-0.13827 706.23-0.32664v-137.75c-163.2-0.53005-311.22-1.1113-462.28-1.1199z" opacity="0" stroke-width="1.4932"/>
                    </g>
                </g>
            </g>
        </g>
        <path d="m24.549 1119.5c0.66325 0 1.1979-0.5346 1.1979-1.1979v-0.3333c0 0.6632-0.53461 1.1978-1.1979 1.1978h-20.354c-0.66325 0-1.1979-0.5346-1.1979-1.1978v0.3333c0 0.6633 0.53461 1.1979 1.1979 1.1979z" fill="#212121" opacity=".2"/>
    </g>
    <g>
        <path d="m11.351 7.7988a0.50396 0.50396 0 0 0-0.50402 0.50402 0.50396 0.50396 0 0 0 0.50402 0.50402 0.50396 0.50396 0 0 0 0.50402-0.50402 0.50396 0.50396 0 0 0-0.50402-0.50402zm1.5121 0a0.50396 0.50396 0 0 0-0.50402 0.50402 0.50396 0.50396 0 0 0 0.50402 0.50402 0.50396 0.50396 0 0 0 0.50223-0.50402 0.50396 0.50396 0 0 0-0.50223-0.50402zm1.5103 0a0.50396 0.50396 0 0 0-0.50402 0.50402 0.50396 0.50396 0 0 0 0.50402 0.50402 0.50396 0.50396 0 0 0 0.50402-0.50402 0.50396 0.50396 0 0 0-0.50402-0.50402zm1.5121 0a0.50396 0.50396 0 0 0-0.50402 0.50402 0.50396 0.50396 0 0 0 0.50402 0.50402 0.50396 0.50396 0 0 0 0.50402-0.50402 0.50396 0.50396 0 0 0-0.50402-0.50402zm1.5121 0a0.50396 0.50396 0 0 0-0.50402 0.50402 0.50396 0.50396 0 0 0 0.50402 0.50402 0.50396 0.50396 0 0 0 0.50402-0.50402 0.50396 0.50396 0 0 0-0.50402-0.50402zm-8.3217 1.5121a0.50396 0.50396 0 0 0-0.50402 0.50402 0.50396 0.50396 0 0 0 0.50402 0.50402 0.50396 0.50396 0 0 0 0.50402-0.50402 0.50396 0.50396 0 0 0-0.50402-0.50402zm1.5121 0a0.50396 0.50396 0 0 0-0.50402 0.50402 0.50396 0.50396 0 0 0 0.50402 0.50402 0.50396 0.50396 0 0 0 0.50402-0.50402 0.50396 0.50396 0 0 0-0.50402-0.50402zm1.5103 0a0.50396 0.50396 0 0 0-0.50223 0.50402 0.50396 0.50396 0 0 0 0.50223 0.50402 0.50396 0.50396 0 0 0 0.50402-0.50402 0.50396 0.50396 0 0 0-0.50402-0.50402zm1.5121 0a0.50396 0.50396 0 0 0-0.50402 0.50402 0.50396 0.50396 0 0 0 0.50402 0.50402 0.50396 0.50396 0 0 0 0.50402-0.50402 0.50396 0.50396 0 0 0-0.50402-0.50402zm1.5121 0a0.50396 0.50396 0 0 0-0.50402 0.50402 0.50396 0.50396 0 0 0 0.50402 0.50402 0.50396 0.50396 0 0 0 0.50402-0.50402 0.50396 0.50396 0 0 0-0.50402-0.50402zm1.5121 0a0.50396 0.50396 0 0 0-0.50402 0.50402 0.50396 0.50396 0 0 0 0.50402 0.50402 0.50396 0.50396 0 0 0 0.50402-0.50402 0.50396 0.50396 0 0 0-0.50402-0.50402zm1.5121 0a0.50396 0.50396 0 0 0-0.50402 0.50402 0.50396 0.50396 0 0 0 0.50402 0.50402 0.50396 0.50396 0 0 0 0.50402-0.50402 0.50396 0.50396 0 0 0-0.50402-0.50402zm1.5121 0a0.50396 0.50396 0 0 0-0.50402 0.50402 0.50396 0.50396 0 0 0 0.50402 0.50402 0.50396 0.50396 0 0 0 0.50402-0.50402 0.50396 0.50396 0 0 0-0.50402-0.50402zm-11.331 1.5121a0.50396 0.50396 0 0 0-0.50402 0.50402 0.50396 0.50396 0 0 0 0.50402 0.50402 0.50396 0.50396 0 0 0 0.50402-0.50402 0.50396 0.50396 0 0 0-0.50402-0.50402zm1.5121 0a0.50396 0.50396 0 0 0-0.50402 0.50402 0.50396 0.50396 0 0 0 0.50402 0.50402 0.50396 0.50396 0 0 0 0.50402-0.50402 0.50396 0.50396 0 0 0-0.50402-0.50402zm1.5121 0a0.50396 0.50396 0 0 0-0.50402 0.50402 0.50396 0.50396 0 0 0 0.50402 0.50402 0.50396 0.50396 0 0 0 0.50402-0.50402 0.50396 0.50396 0 0 0-0.50402-0.50402zm1.5121 0a0.50396 0.50396 0 0 0-0.50402 0.50402 0.50396 0.50396 0 0 0 0.50402 0.50402 0.50396 0.50396 0 0 0 0.50223-0.50402 0.50396 0.50396 0 0 0-0.50223-0.50402zm1.5103 0a0.50396 0.50396 0 0 0-0.50402 0.50402 0.50396 0.50396 0 0 0 0.50402 0.50402 0.50396 0.50396 0 0 0 0.50402-0.50402 0.50396 0.50396 0 0 0-0.50402-0.50402zm1.5121 0a0.50396 0.50396 0 0 0-0.50402 0.50402 0.50396 0.50396 0 0 0 0.50402 0.50402 0.50396 0.50396 0 0 0 0.50402-0.50402 0.50396 0.50396 0 0 0-0.50402-0.50402zm1.5121 0a0.50396 0.50396 0 0 0-0.50402 0.50402 0.50396 0.50396 0 0 0 0.50402 0.50402 0.50396 0.50396 0 0 0 0.50402-0.50402 0.50396 0.50396 0 0 0-0.50402-0.50402zm1.5121 0a0.50396 0.50396 0 0 0-0.50402 0.50402 0.50396 0.50396 0 0 0 0.50402 0.50402 0.50396 0.50396 0 0 0 0.50402-0.50402 0.50396 0.50396 0 0 0-0.50402-0.50402zm1.5121 0a0.50396 0.50396 0 0 0-0.50402 0.50402 0.50396 0.50396 0 0 0 0.50402 0.50402 0.50396 0.50396 0 0 0 0.50402-0.50402 0.50396 0.50396 0 0 0-0.50402-0.50402zm-5.5227 1.7104c-0.35046 0-0.63207 0.1912-0.82573 0.42359-0.19366 0.23239-0.32799 0.50942-0.45934 0.77211-0.13135 0.2627-0.25849 0.51037-0.3932 0.67202-0.13471 0.16165-0.24687 0.23414-0.4218 0.23414-0.21882 0-0.30521-0.04457-0.36997-0.10009-0.06476-0.05551-0.11842-0.14747-0.18409-0.27882-0.06567-0.13135-0.14589-0.30352-0.31099-0.44504-0.1651-0.14151-0.40656-0.22699-0.71313-0.22699-0.35046 0-0.63207 0.1912-0.82573 0.42359-0.19366 0.23239-0.32799 0.50942-0.45933 0.77211-0.13135 0.2627-0.25849 0.51037-0.39321 0.67202-0.13471 0.16166-0.24687 0.23414-0.4218 0.23414-0.19688 0-0.31541-0.0616-0.4218-0.168-0.1064-0.1064-0.1893-0.26763-0.24665-0.43968-0.1147-0.34409-0.11975-0.70598-0.11975-0.70598a0.26328 0.26328 0 0 0-0.26273-0.26273 0.26328 0.26328 0 0 0-0.26273 0.26273s-0.00323 0.4282 0.14477 0.8722c0.073999 0.222 0.1862 0.45608 0.37533 0.64521 0.18914 0.18914 0.46504 0.3235 0.79356 0.3235 0.35046 0 0.63207-0.1912 0.82573-0.42359 0.19366-0.23239 0.32977-0.50942 0.46112-0.77211 0.13135-0.2627 0.25671-0.51037 0.39142-0.67202 0.13471-0.16165 0.24687-0.23592 0.4218-0.23592 0.21882 0 0.307 0.04638 0.37176 0.10188 0.06476 0.05551 0.11663 0.14747 0.1823 0.27882 0.06567 0.13135 0.14589 0.30352 0.31099 0.44504 0.1651 0.14151 0.40656 0.22699 0.71313 0.22699 0.35046 0 0.63207-0.1912 0.82573-0.42359 0.19366-0.23239 0.32799-0.50942 0.45934-0.77211 0.13135-0.2627 0.26028-0.51037 0.39499-0.67202 0.13471-0.16166 0.24508-0.23592 0.42002-0.23592 0.06553 0 0.11421 0.02115 0.18052 0.07685 0.0663 0.05569 0.14203 0.152 0.21448 0.28239 0.14488 0.26079 0.27437 0.64438 0.40572 1.0384 0.13135 0.39404 0.26513 0.79751 0.44861 1.1278 0.09174 0.16514 0.19709 0.31583 0.33601 0.43253 0.13892 0.1167 0.31936 0.1966 0.51653 0.1966 0.19717 0 0.37939-0.07991 0.51832-0.1966 0.13892-0.1167 0.24427-0.26739 0.33601-0.43253 0.18348-0.33027 0.31548-0.73374 0.44682-1.1278 0.13135-0.39404 0.26083-0.77763 0.40572-1.0384 0.07245-0.1304 0.14817-0.2267 0.21448-0.28239 0.0663-0.05569 0.11499-0.07685 0.18052-0.07685 0.39375 0 0.72313 0.31168 0.96335 0.67202 0.24023 0.36034 0.36282 0.72564 0.36282 0.72564a0.26328 0.26328 0 0 0 0.33244 0.16622 0.26328 0.26328 0 0 0 0.16622-0.33244s-0.13843-0.4248-0.42359-0.85254c-0.28516-0.42774-0.74421-0.90437-1.4012-0.90437-0.19717 0-0.37939 0.07991-0.51832 0.1966-0.13892 0.1167-0.24427 0.26739-0.33601 0.43253-0.18348 0.33027-0.31548 0.73374-0.44682 1.1278-0.13135 0.39404-0.26083 0.77763-0.40572 1.0384-0.07245 0.1304-0.14817 0.2267-0.21448 0.28239-0.0663 0.05569-0.11499 0.07507-0.18052 0.07507-0.06553 0-0.11242-0.01937-0.17873-0.07507-0.06631-0.05569-0.14203-0.152-0.21448-0.28239-0.14488-0.26079-0.27616-0.64438-0.4075-1.0384-0.13135-0.39404-0.26334-0.79751-0.44682-1.1278-0.09174-0.16514-0.19709-0.31583-0.33601-0.43253-0.13892-0.1167-0.32115-0.1966-0.51832-0.1966zm-6.5719 4.3825a0.50396 0.50396 0 0 0-0.50402 0.50402 0.50396 0.50396 0 0 0 0.50402 0.50402 0.50396 0.50396 0 0 0 0.50402-0.50402 0.50396 0.50396 0 0 0-0.50402-0.50402zm1.5121 0a0.50396 0.50396 0 0 0-0.50402 0.50402 0.50396 0.50396 0 0 0 0.50402 0.50402 0.50396 0.50396 0 0 0 0.50402-0.50402 0.50396 0.50396 0 0 0-0.50402-0.50402zm1.5121 0a0.50396 0.50396 0 0 0-0.50402 0.50402 0.50396 0.50396 0 0 0 0.50402 0.50402 0.50396 0.50396 0 0 0 0.50402-0.50402 0.50396 0.50396 0 0 0-0.50402-0.50402zm1.5121 0a0.50396 0.50396 0 0 0-0.50402 0.50402 0.50396 0.50396 0 0 0 0.50402 0.50402 0.50396 0.50396 0 0 0 0.50223-0.50402 0.50396 0.50396 0 0 0-0.50223-0.50402zm1.5103 0a0.50396 0.50396 0 0 0-0.50402 0.50402 0.50396 0.50396 0 0 0 0.50402 0.50402 0.50396 0.50396 0 0 0 0.50402-0.50402 0.50396 0.50396 0 0 0-0.50402-0.50402zm1.5121 0a0.50396 0.50396 0 0 0-0.50402 0.50402 0.50396 0.50396 0 0 0 0.50402 0.50402 0.50396 0.50396 0 0 0 0.50402-0.50402 0.50396 0.50396 0 0 0-0.50402-0.50402zm1.5121 0a0.50396 0.50396 0 0 0-0.50402 0.50402 0.50396 0.50396 0 0 0 0.50402 0.50402 0.50396 0.50396 0 0 0 0.50402-0.50402 0.50396 0.50396 0 0 0-0.50402-0.50402zm1.5121 0a0.50396 0.50396 0 0 0-0.50402 0.50402 0.50396 0.50396 0 0 0 0.50402 0.50402 0.50396 0.50396 0 0 0 0.50402-0.50402 0.50396 0.50396 0 0 0-0.50402-0.50402zm1.5121 0a0.50396 0.50396 0 0 0-0.50402 0.50402 0.50396 0.50396 0 0 0 0.50402 0.50402 0.50396 0.50396 0 0 0 0.50402-0.50402 0.50396 0.50396 0 0 0-0.50402-0.50402zm-11.331 1.5121a0.50396 0.50396 0 0 0-0.50402 0.50402 0.50396 0.50396 0 0 0 0.50402 0.50402 0.50396 0.50396 0 0 0 0.50402-0.50402 0.50396 0.50396 0 0 0-0.50402-0.50402zm1.5121 0a0.50396 0.50396 0 0 0-0.50402 0.50402 0.50396 0.50396 0 0 0 0.50402 0.50402 0.50396 0.50396 0 0 0 0.50402-0.50402 0.50396 0.50396 0 0 0-0.50402-0.50402zm1.5121 0a0.50396 0.50396 0 0 0-0.50402 0.50402 0.50396 0.50396 0 0 0 0.50402 0.50402 0.50396 0.50396 0 0 0 0.50402-0.50402 0.50396 0.50396 0 0 0-0.50402-0.50402zm1.5121 0a0.50396 0.50396 0 0 0-0.50402 0.50402 0.50396 0.50396 0 0 0 0.50402 0.50402 0.50396 0.50396 0 0 0 0.50402-0.50402 0.50396 0.50396 0 0 0-0.50402-0.50402zm1.5103 0a0.50396 0.50396 0 0 0-0.50402 0.50402 0.50396 0.50396 0 0 0 0.50402 0.50402 0.50396 0.50396 0 0 0 0.50402-0.50402 0.50396 0.50396 0 0 0-0.50402-0.50402zm1.5121 0a0.50396 0.50396 0 0 0-0.50402 0.50402 0.50396 0.50396 0 0 0 0.50402 0.50402 0.50396 0.50396 0 0 0 0.50402-0.50402 0.50396 0.50396 0 0 0-0.50402-0.50402zm1.5121 0a0.50396 0.50396 0 0 0-0.50402 0.50402 0.50396 0.50396 0 0 0 0.50402 0.50402 0.50396 0.50396 0 0 0 0.50402-0.50402 0.50396 0.50396 0 0 0-0.50402-0.50402zm1.5121 0a0.50396 0.50396 0 0 0-0.50402 0.50402 0.50396 0.50396 0 0 0 0.50402 0.50402 0.50396 0.50396 0 0 0 0.50402-0.50402 0.50396 0.50396 0 0 0-0.50402-0.50402zm-8.3217 1.5121a0.50396 0.50396 0 0 0-0.50402 0.50402 0.50396 0.50396 0 0 0 0.50402 0.50402 0.50396 0.50396 0 0 0 0.50402-0.50402 0.50396 0.50396 0 0 0-0.50402-0.50402zm1.5121 0a0.50396 0.50396 0 0 0-0.50402 0.50402 0.50396 0.50396 0 0 0 0.50402 0.50402 0.50396 0.50396 0 0 0 0.50223-0.50402 0.50396 0.50396 0 0 0-0.50223-0.50402zm1.5103 0a0.50396 0.50396 0 0 0-0.50402 0.50402 0.50396 0.50396 0 0 0 0.50402 0.50402 0.50396 0.50396 0 0 0 0.50402-0.50402 0.50396 0.50396 0 0 0-0.50402-0.50402zm1.5121 0a0.50396 0.50396 0 0 0-0.50402 0.50402 0.50396 0.50396 0 0 0 0.50402 0.50402 0.50396 0.50396 0 0 0 0.50402-0.50402 0.50396 0.50396 0 0 0-0.50402-0.50402zm1.5121 0a0.50396 0.50396 0 0 0-0.50402 0.50402 0.50396 0.50396 0 0 0 0.50402 0.50402 0.50396 0.50396 0 0 0 0.50402-0.50402 0.50396 0.50396 0 0 0-0.50402-0.50402z" fill="#fff" stroke-linecap="round" stroke-linejoin="round" stroke-opacity=".49492" stroke-width=".46087"/>
    </g>
    <g display="none" fill="none">
        <rect transform="rotate(90)" x="7.8232" y="-20.923" width="13.1" height="13.1" display="inline" stroke="#000" stroke-width=".070382"/>
        <rect x="7.2241" y="8.6528" width="14.298" height="11.441" stroke="#5261ff" stroke-linecap="round" stroke-linejoin="round" stroke-width=".06959"/>
        <rect transform="rotate(90)" x="7.2241" y="-20.094" width="14.298" height="11.441" display="inline" stroke="#0f0" stroke-linecap="round" stroke-linejoin="round" stroke-width=".06959"/>
    </g>
</svg>
