<?xml version="1.0" encoding="UTF-8"?>
<svg version="1.1" viewBox="0 0 28.747 28.747" xml:space="preserve" xmlns="http://www.w3.org/2000/svg" xmlns:xlink="http://www.w3.org/1999/xlink"><defs><filter id="filter6206-7" x="-.072" y="-.072" width="1.144" height="1.144" color-interpolation-filters="sRGB"><feGaussianBlur stdDeviation="0.658125"/></filter></defs><g transform="translate(0 -1093.8)"><path transform="matrix(1.0781 0 0 1.0641 -.093733 2.7509)" d="m4.4177 1028.2v1.6051h-1.6052v18.192h1.6052v2.1402h18.192v-2.1402h2.1402v-18.192h-2.1402v-1.6051z" fill="#3e2723" filter="url(#filter6206-7)" opacity=".2"/><rect x="2.9987" y="1096.8" width="22.749" height="22.749" rx="1.1973" ry="1.1974" fill="#e91e63"/><g transform="translate(-22.32 1056.5)"><path d="m0 0h51.2v51.2h-51.2z" fill="none" stroke-width="1.0667"/><g transform="matrix(.33601 0 0 .33601 1.5296 73.043)"><path d="m0 0h51.2v51.2h-51.2z" fill="none" stroke-width="1.0667"/></g><g transform="matrix(.37187 0 0 .37187 38.802 63.239)"><path d="m0 0h51.2v51.2h-51.2z" fill="none" stroke-width="1.0667"/><g transform="matrix(2.6891 0 0 2.6891 -82.906 -48.45)"><path d="m0 0h51.2v51.2h-51.2z" fill="none" stroke-width="1.0667"/></g></g></g><path d="m4.1958 1096.8c-0.66332 0-1.1979 0.5346-1.1979 1.1979v0.3334c0-0.6634 0.53459-1.1979 1.1979-1.1979h20.354c0.66332 0 1.1979 0.5345 1.1979 1.1979v-0.3334c0-0.6633-0.5346-1.1979-1.1979-1.1979z" fill="#fff" opacity=".2"/><rect x="128" y="546.52" width="42.667" height="42.667" fill="none" stroke-width="1.0667"/><rect x="128" y="631.85" width="42.667" height="42.667" fill="none" stroke-width="1.0667"/><rect x="128" y="674.52" width="42.667" height="42.667" fill="none" stroke-width="1.0667"/><rect x="128" y="589.19" width="42.667" height="42.667" fill="none" stroke-width="1.0667"/><rect x="128" y="717.19" width="42.667" height="42.667" fill="none" stroke-width="1.0667"/><rect x="213.33" y="546.52" width="42.667" height="42.667" fill="none" stroke-width="1.0667"/><rect x="213.33" y="631.85" width="42.667" height="42.667" fill="none" stroke-width="1.0667"/><rect x="213.33" y="674.52" width="42.667" height="42.667" fill="none" stroke-width="1.0667"/><rect x="213.33" y="589.19" width="42.667" height="42.667" fill="none" stroke-width="1.0667"/><rect x="213.33" y="717.19" width="42.667" height="42.667" fill="none" stroke-width="1.0667"/><rect x="298.67" y="546.52" width="42.667" height="42.667" fill="none" stroke-width="1.0667"/><rect x="298.67" y="631.85" width="42.667" height="42.667" fill="none" stroke-width="1.0667"/><rect x="298.67" y="674.52" width="42.667" height="42.667" fill="none" stroke-width="1.0667"/><rect x="298.67" y="589.19" width="42.667" height="42.667" fill="none" stroke-width="1.0667"/><rect x="298.67" y="717.19" width="42.667" height="42.667" fill="none" stroke-width="1.0667"/><rect x="170.67" y="546.52" width="42.667" height="42.667" fill="none" stroke-width="1.0667"/><rect x="170.67" y="631.85" width="42.667" height="42.667" fill="none" stroke-width="1.0667"/><rect x="170.67" y="674.52" width="42.667" height="42.667" fill="none" stroke-width="1.0667"/><rect x="170.67" y="589.19" width="42.667" height="42.667" fill="none" stroke-width="1.0667"/><rect x="170.67" y="717.19" width="42.667" height="42.667" fill="none" stroke-width="1.0667"/><rect x="256" y="546.52" width="42.667" height="42.667" fill="none" stroke-width="1.0667"/><rect x="256" y="631.85" width="42.667" height="42.667" fill="none" stroke-width="1.0667"/><rect x="256" y="674.52" width="42.667" height="42.667" fill="none" stroke-width="1.0667"/><rect x="256" y="589.19" width="42.667" height="42.667" fill="none" stroke-width="1.0667"/><rect x="256" y="717.19" width="42.667" height="42.667" fill="none" stroke-width="1.0667"/><rect x="128" y="759.85" width="42.667" height="42.667" fill="none" stroke-width="1.0667"/><rect x="213.33" y="759.85" width="42.667" height="42.667" fill="none" stroke-width="1.0667"/><rect x="298.67" y="759.85" width="42.667" height="42.667" fill="none" stroke-width="1.0667"/><rect x="170.67" y="759.85" width="42.667" height="42.667" fill="none" stroke-width="1.0667"/><rect x="256" y="759.85" width="42.667" height="42.667" fill="none" stroke-width="1.0667"/><rect x="341.33" y="589.19" width="42.667" height="42.667" fill="none" stroke-width="1.0667"/><rect x="341.33" y="631.85" width="42.667" height="42.667" fill="none" stroke-width="1.0667"/><rect x="341.33" y="717.19" width="42.667" height="42.667" fill="none" stroke-width="1.0667"/><rect x="341.33" y="546.52" width="42.667" height="42.667" fill="none" stroke-width="1.0667"/><rect x="341.33" y="674.52" width="42.667" height="42.667" fill="none" stroke-width="1.0667"/><rect x="341.33" y="759.85" width="42.667" height="42.667" fill="none" stroke-width="1.0667"/><rect x="160" y="578.52" width="192" height="192" fill="none" stroke-width="1.0667"/><g transform="matrix(.37344 0 0 .37344 4.7333 1097.4)"><path d="m0 0h51.2v51.2h-51.2z" fill="none" stroke-width="1.0667"/></g><g transform="matrix(.36471 0 0 .36471 5.1356 1097.4)"><path d="m0 0h51.2v51.2h-51.2z" fill="none" stroke-width="1.0667"/></g><g transform="matrix(.41585 0 0 .41585 84.325 1055.9)"><g transform="matrix(.062269 0 0 .062269 -28.238 185.29)"><g transform="matrix(38.618 0 0 38.618 14724 -13542)"><g transform="matrix(.71436 0 0 .71436 -400.52 188.34)"><path d="m1293.2-120.67c-181.75 0.2763-511.18 0.13525-699.05 0.13998-2.3216 10.413-3.593 21.251-3.593 32.384v114c207.65 0.73695 494.72 0.38136 706.23 0.3733v-114.37c0-11.18-1.2522-22.07-3.593-32.523zm-458.69 295.56c-78.385-4e-3 -158.85 0.17892-243.95 0.55995v138.63c286.34-0.39317 421.73-0.13827 706.23-0.32664v-137.75c-163.2-0.53005-311.22-1.1113-462.28-1.1199z" opacity="0" stroke-width="1.4932"/></g></g></g></g><path d="m24.549 1119.5c0.66325 0 1.1979-0.5346 1.1979-1.1979v-0.3333c0 0.6632-0.53461 1.1978-1.1979 1.1978h-20.354c-0.66325 0-1.1979-0.5346-1.1979-1.1978v0.3333c0 0.6633 0.53461 1.1979 1.1979 1.1979z" fill="#3e2723" opacity=".2"/></g><g><path d="m19.936 17.029c-0.06167-0.148-0.12334-0.30834-0.185-0.44401-0.09867-0.22201-0.19734-0.43168-0.28368-0.62902l-0.01233-0.01234c-0.85103-1.8501-1.7637-3.7248-2.7258-5.5748l-0.03701-0.074c-0.09866-0.185-0.19733-0.38234-0.296-0.57968-0.12334-0.22201-0.24667-0.45635-0.44401-0.67836-0.39468-0.49335-0.96203-0.76469-1.5664-0.76469-0.61669 0-1.1717 0.27134-1.5787 0.74002-0.18501 0.22201-0.32068 0.45635-0.44402 0.67835-0.09867 0.19734-0.19734 0.39468-0.29601 0.57969l-0.03701 0.074c-0.9497 1.8501-1.8747 3.7248-2.7257 5.5748l-0.012333 0.02466c-0.086335 0.19734-0.18501 0.40701-0.28367 0.62902-0.061672 0.13567-0.12334 0.28368-0.18501 0.44401-0.16034 0.45635-0.20967 0.88803-0.148 1.332 0.13567 0.92503 0.75236 1.702 1.6034 2.0474 0.32068 0.13567 0.65368 0.19734 0.99903 0.19734 0.09867 0 0.22201-0.01233 0.32068-0.02466 0.40701-0.04934 0.82636-0.18501 1.2334-0.41935 0.50568-0.28367 0.9867-0.69069 1.5294-1.2827 0.54268 0.59202 1.036 0.99903 1.5294 1.2827 0.40701 0.23434 0.82636 0.37001 1.2334 0.41935 0.09867 0.01234 0.22201 0.02466 0.32068 0.02466 0.34534 0 0.69069-0.06166 0.99903-0.19734 0.86336-0.34534 1.4677-1.1347 1.6034-2.0474 0.09867-0.43168 0.04934-0.86336-0.111-1.3197zm-5.5625 0.64135c-0.66602-0.83869-1.0977-1.628-1.2457-2.2941-0.06166-0.28368-0.074-0.53035-0.03701-0.75236 0.02466-0.19734 0.09867-0.37001 0.19734-0.51802 0.23434-0.33301 0.62902-0.54268 1.0854-0.54268 0.45635 0 0.86336 0.19734 1.0854 0.54268 0.09867 0.148 0.17267 0.32068 0.19734 0.51802 0.03701 0.22201 0.02466 0.48101-0.03701 0.75236-0.148 0.65368-0.57968 1.443-1.2457 2.2941zm4.9211 0.57968c-0.08633 0.64135-0.51802 1.1964-1.1224 1.443-0.29601 0.12334-0.61668 0.16034-0.93736 0.12334-0.30834-0.03701-0.61668-0.13567-0.93736-0.32068-0.44401-0.24667-0.88803-0.62902-1.406-1.1964 0.81402-0.99903 1.3074-1.9117 1.4924-2.7257 0.08633-0.38234 0.09867-0.72769 0.06167-1.0484-0.04933-0.30834-0.16034-0.59202-0.33301-0.83869-0.38234-0.55502-1.0237-0.87569-1.7391-0.87569-0.71535 0-1.3567 0.33301-1.7391 0.87569-0.17267 0.24667-0.28367 0.53035-0.33301 0.83869-0.04934 0.32068-0.03701 0.67835 0.06167 1.0484 0.18501 0.81402 0.69069 1.7391 1.4924 2.7381-0.50568 0.56735-0.96203 0.9497-1.406 1.1964-0.32068 0.18501-0.62902 0.28368-0.93736 0.32068-0.33301 0.03701-0.65369-0.01233-0.93736-0.12334-0.60436-0.24667-1.036-0.80169-1.1224-1.443-0.036998-0.30834-0.012333-0.61668 0.111-0.96203 0.036998-0.12334 0.098669-0.24667 0.16034-0.39468 0.086334-0.19734 0.185-0.40701 0.28368-0.61669l0.01233-0.02466c0.85102-1.8377 1.7637-3.7124 2.7134-5.5378l0.03701-0.074c0.09867-0.18501 0.19734-0.38234 0.29601-0.56735 0.09867-0.19734 0.20967-0.38234 0.34534-0.54268 0.25901-0.29601 0.60435-0.45635 0.9867-0.45635s0.72769 0.16034 0.9867 0.45635c0.13567 0.16034 0.24667 0.34534 0.34534 0.54268 0.09867 0.18501 0.19734 0.38234 0.29601 0.56735l0.03701 0.074c0.93736 1.8377 1.8501 3.7124 2.7011 5.5502v0.01233c0.09867 0.19734 0.185 0.41935 0.28368 0.61669 0.06166 0.148 0.12334 0.27134 0.16034 0.39468 0.09867 0.32068 0.13567 0.62902 0.08633 0.9497z" fill="#fff" stroke-width=".12334"/></g><g display="none" fill="none"><rect transform="rotate(90)" x="7.8232" y="-20.923" width="13.1" height="13.1" display="inline" stroke="#000" stroke-width=".070382"/><rect x="7.2241" y="8.6528" width="14.298" height="11.441" stroke="#5261ff" stroke-linecap="round" stroke-linejoin="round" stroke-width=".06959"/><rect transform="rotate(90)" x="7.2241" y="-20.094" width="14.298" height="11.441" display="inline" stroke="#0f0" stroke-linecap="round" stroke-linejoin="round" stroke-width=".06959"/></g></svg>
