<?xml version="1.0" encoding="UTF-8"?>
<svg version="1.1" viewBox="0 0 28.747 28.747" xmlns="http://www.w3.org/2000/svg">
    <defs>
        <filter id="filter6206-7" color-interpolation-filters="sRGB">
            <feGaussianBlur stdDeviation="0.658125"/>
        </filter>
    </defs>
    <g transform="translate(0 -1093.8)">
        <path transform="matrix(1.0781 0 0 1.0641 -.093733 2.7509)" d="m4.4177 1028.2v1.6051h-1.6052v18.192h1.6052v2.1402h18.192v-2.1402h2.1402v-18.192h-2.1402v-1.6051z" fill="#3e2723" filter="url(#filter6206-7)" opacity=".2"/>
        <rect x="2.9987" y="1096.8" width="22.749" height="22.749" rx="1.1973" ry="1.1974" fill="#f44336"/>
        <g transform="translate(-22.32 1056.5)">
            <path d="m0 0h51.2v51.2h-51.2z" fill="none" stroke-width="1.0667"/>
            <g transform="matrix(.33601 0 0 .33601 1.5296 73.043)">
                <path d="m0 0h51.2v51.2h-51.2z" fill="none" stroke-width="1.0667"/>
            </g>
            <g transform="matrix(.37187 0 0 .37187 38.802 63.239)">
                <path d="m0 0h51.2v51.2h-51.2z" fill="none" stroke-width="1.0667"/>
                <g transform="matrix(2.6891 0 0 2.6891 -82.906 -48.45)">
                    <path d="m0 0h51.2v51.2h-51.2z" fill="none" stroke-width="1.0667"/>
                </g>
            </g>
        </g>
        <path d="m4.1958 1096.8c-0.66332 0-1.1979 0.5346-1.1979 1.1979v0.3334c0-0.6634 0.53459-1.1979 1.1979-1.1979h20.354c0.66332 0 1.1979 0.5345 1.1979 1.1979v-0.3334c0-0.6633-0.5346-1.1979-1.1979-1.1979z" fill="#fff" opacity=".2"/>
        <rect x="128" y="546.52" width="42.667" height="42.667" fill="none" stroke-width="1.0667"/>
        <rect x="128" y="631.85" width="42.667" height="42.667" fill="none" stroke-width="1.0667"/>
        <rect x="128" y="674.52" width="42.667" height="42.667" fill="none" stroke-width="1.0667"/>
        <rect x="128" y="589.19" width="42.667" height="42.667" fill="none" stroke-width="1.0667"/>
        <rect x="128" y="717.19" width="42.667" height="42.667" fill="none" stroke-width="1.0667"/>
        <rect x="213.33" y="546.52" width="42.667" height="42.667" fill="none" stroke-width="1.0667"/>
        <rect x="213.33" y="631.85" width="42.667" height="42.667" fill="none" stroke-width="1.0667"/>
        <rect x="213.33" y="674.52" width="42.667" height="42.667" fill="none" stroke-width="1.0667"/>
        <rect x="213.33" y="589.19" width="42.667" height="42.667" fill="none" stroke-width="1.0667"/>
        <rect x="213.33" y="717.19" width="42.667" height="42.667" fill="none" stroke-width="1.0667"/>
        <rect x="298.67" y="546.52" width="42.667" height="42.667" fill="none" stroke-width="1.0667"/>
        <rect x="298.67" y="631.85" width="42.667" height="42.667" fill="none" stroke-width="1.0667"/>
        <rect x="298.67" y="674.52" width="42.667" height="42.667" fill="none" stroke-width="1.0667"/>
        <rect x="298.67" y="589.19" width="42.667" height="42.667" fill="none" stroke-width="1.0667"/>
        <rect x="298.67" y="717.19" width="42.667" height="42.667" fill="none" stroke-width="1.0667"/>
        <rect x="170.67" y="546.52" width="42.667" height="42.667" fill="none" stroke-width="1.0667"/>
        <rect x="170.67" y="631.85" width="42.667" height="42.667" fill="none" stroke-width="1.0667"/>
        <rect x="170.67" y="674.52" width="42.667" height="42.667" fill="none" stroke-width="1.0667"/>
        <rect x="170.67" y="589.19" width="42.667" height="42.667" fill="none" stroke-width="1.0667"/>
        <rect x="170.67" y="717.19" width="42.667" height="42.667" fill="none" stroke-width="1.0667"/>
        <rect x="256" y="546.52" width="42.667" height="42.667" fill="none" stroke-width="1.0667"/>
        <rect x="256" y="631.85" width="42.667" height="42.667" fill="none" stroke-width="1.0667"/>
        <rect x="256" y="674.52" width="42.667" height="42.667" fill="none" stroke-width="1.0667"/>
        <rect x="256" y="589.19" width="42.667" height="42.667" fill="none" stroke-width="1.0667"/>
        <rect x="256" y="717.19" width="42.667" height="42.667" fill="none" stroke-width="1.0667"/>
        <rect x="128" y="759.85" width="42.667" height="42.667" fill="none" stroke-width="1.0667"/>
        <rect x="213.33" y="759.85" width="42.667" height="42.667" fill="none" stroke-width="1.0667"/>
        <rect x="298.67" y="759.85" width="42.667" height="42.667" fill="none" stroke-width="1.0667"/>
        <rect x="170.67" y="759.85" width="42.667" height="42.667" fill="none" stroke-width="1.0667"/>
        <rect x="256" y="759.85" width="42.667" height="42.667" fill="none" stroke-width="1.0667"/>
        <rect x="341.33" y="589.19" width="42.667" height="42.667" fill="none" stroke-width="1.0667"/>
        <rect x="341.33" y="631.85" width="42.667" height="42.667" fill="none" stroke-width="1.0667"/>
        <rect x="341.33" y="717.19" width="42.667" height="42.667" fill="none" stroke-width="1.0667"/>
        <rect x="341.33" y="546.52" width="42.667" height="42.667" fill="none" stroke-width="1.0667"/>
        <rect x="341.33" y="674.52" width="42.667" height="42.667" fill="none" stroke-width="1.0667"/>
        <rect x="341.33" y="759.85" width="42.667" height="42.667" fill="none" stroke-width="1.0667"/>
        <rect x="160" y="578.52" width="192" height="192" fill="none" stroke-width="1.0667"/>
        <g transform="matrix(.37344 0 0 .37344 4.7333 1097.4)">
            <path d="m0 0h51.2v51.2h-51.2z" fill="none" stroke-width="1.0667"/>
        </g>
        <g transform="matrix(.36471 0 0 .36471 5.1356 1097.4)">
            <path d="m0 0h51.2v51.2h-51.2z" fill="none" stroke-width="1.0667"/>
        </g>
        <g transform="matrix(.41585 0 0 .41585 84.325 1055.9)">
            <g transform="matrix(.062269 0 0 .062269 -28.238 185.29)">
                <g transform="matrix(38.618 0 0 38.618 14724 -13542)">
                    <g transform="matrix(.71436 0 0 .71436 -400.52 188.34)">
                        <path d="m1293.2-120.67c-181.75 0.2763-511.18 0.13525-699.05 0.13998-2.3216 10.413-3.593 21.251-3.593 32.384v114c207.65 0.73695 494.72 0.38136 706.23 0.3733v-114.37c0-11.18-1.2522-22.07-3.593-32.523zm-458.69 295.56c-78.385-4e-3 -158.85 0.17892-243.95 0.55995v138.63c286.34-0.39317 421.73-0.13827 706.23-0.32664v-137.75c-163.2-0.53005-311.22-1.1113-462.28-1.1199z" opacity="0" stroke-width="1.4932"/>
                    </g>
                </g>
            </g>
        </g>
        <path d="m24.549 1119.5c0.66325 0 1.1979-0.5346 1.1979-1.1979v-0.3333c0 0.6632-0.53461 1.1978-1.1979 1.1978h-20.354c-0.66325 0-1.1979-0.5346-1.1979-1.1978v0.3333c0 0.6633 0.53461 1.1979 1.1979 1.1979z" fill="#3e2723" opacity=".2"/>
    </g>
    <path d="m7.5176 20.834c0-0.14688 0.97402-3.0222 1.0591-3.1265 0.07755-0.09505 3.0928-0.11229 3.1511-0.01801 0.02 0.03237-0.19221 0.77942-0.47159 1.6601l-0.50796 1.6013h-1.6153c-1.5463 0-1.6153-5e-3 -1.6153-0.11689zm3.5596-1.4356c0.24921-0.78625 0.46579-1.4646 0.48129-1.5075 0.02237-0.06188-0.27394-0.07458-1.4352-0.06149l-1.4633 0.0165-1.0156 2.9821h2.9797zm6.9309 1.5026c-0.07475-0.12094-1.0217-2.8615-1.0217-2.9569 0-0.06222 0.09547-0.15156 0.23057-0.21578 0.67132-0.31913 1.3606-0.96661 1.7463-1.6403 0.11588-0.20243 0.24952-0.36053 0.30562-0.36156 0.07381-0.0013 0.23144 0.34548 0.60696 1.3355 0.61392 1.6185 1.3531 3.6995 1.3531 3.8092 0 0.06338-0.32844 0.07981-1.595 0.07981-0.87725 0-1.6089-0.02246-1.6259-0.04991zm3.0364-0.10945c0-0.16139-1.7268-4.821-1.7866-4.821-0.01942 0-0.09685 0.1095-0.17208 0.24334-0.35033 0.62333-0.98026 1.2221-1.65 1.5683l-0.3192 0.16502 0.3101 0.87161c0.17056 0.47939 0.38839 1.0994 0.48406 1.3779 0.09567 0.27846 0.19133 0.5344 0.21256 0.56875 0.04112 0.06653 2.9212 0.09222 2.9212 0.02605zm-11.129-6.9756c0-0.13971 1.8904-4.4262 2.5546-5.7924l0.11209-0.23057h3.6122l0.38862 0.81981c0.55465 1.1701 0.55857 1.0377-0.03924 1.3256-0.28071 0.13522-0.75724 0.44103-1.059 0.67958-0.30172 0.23855-0.58092 0.43372-0.62046 0.43372s-0.15043-0.19513-0.24644-0.43362c-0.096-0.23849-0.19408-0.44568-0.21794-0.46042-0.03467-0.02143-0.64845 1.4485-0.8226 1.97-0.02258 0.06763-0.48267 0.48958-1.0224 0.93766l-0.98135 0.81469h-0.82904c-0.53439 0-0.82904-0.02279-0.82904-0.06412zm1.8906-0.35091c1.5938-1.2875 1.5809-1.2741 1.7975-1.851 0.43079-1.1469 0.69409-1.7306 0.7807-1.7306 0.08156 0 0.16158 0.14694 0.41189 0.75632l0.09599 0.23369 0.57058-0.436c0.31382-0.2398 0.75043-0.52169 0.97024-0.62641 0.21981-0.10473 0.40777-0.19703 0.41768-0.20512 0.0099-0.00804-0.16109-0.39165-0.38001-0.85236l-0.39803-0.83766h-3.326l-0.09903 0.15114c-0.19659 0.30002-1.9731 4.2462-2.43 5.398l-0.11588 0.29206h1.3428z" fill="none" stroke="#fffffc" stroke-width=".4"/>
    <path d="m15.235 20.892c-0.06514-0.1054-1.2618-3.5094-1.2607-3.5862 5.53e-4 -0.04087 0.24872-0.19369 0.55145-0.33962 0.60063-0.28954 1.2714-0.85676 1.6585-1.4024 0.21063-0.29693 0.20809-0.29555-0.2655 0.14406-0.77593 0.72028-1.4422 1.0625-2.5065 1.2875-0.43065 0.09103-0.84208 0.10922-2.5123 0.11104-2.339 0.0025-2.2877 0.0202-1.6909-0.58293l0.35108-0.35478-0.25439-0.04298c-0.65441-0.11056-1.3593-0.66164-1.5777-1.2334-0.18321-0.47972-0.27164-0.45838 1.8988-0.45838 1.8846 0 1.9349-0.0032 2.182-0.13834 0.1391-0.07609 0.99745-0.76526 1.9074-1.5315 2.0577-1.7326 2.6142-2.1633 3.0665-2.3731 0.31829-0.14764 0.43028-0.16576 1.0333-0.16722 0.60525-0.0015 0.7129 0.01551 1.0241 0.16139 0.19125 0.08967 0.45778 0.27642 0.59229 0.41503l0.24457 0.25201h0.54827c0.51556 0 0.69584 0.05155 0.69584 0.19897 0 0.04167-0.83328 0.47845-1.0516 0.55123-0.03191 0.01059-0.12773 0.36289-0.21293 0.78278-0.41445 2.0426-1.1496 3.5915-2.0145 4.2441-0.62796 0.47381-1.652 0.86205-2.2799 0.8644-0.13831 4.92e-4 -0.28148 0.02127-0.31815 0.04612-0.04455 0.03018 0.11308 0.5449 0.4752 1.5516 0.29803 0.82852 0.54247 1.541 0.54319 1.5833 0.0016 0.09331-0.7705 0.10962-0.82744 0.01748zm0.60961-0.20193c-0.02364-0.07609-0.2741-0.78496-0.55659-1.5753-0.28248-0.79031-0.50108-1.4572-0.48578-1.482 0.01531-0.02477 0.21754-0.06093 0.44941-0.08038 1.2875-0.10793 2.3217-0.66562 3.0018-1.6187 0.48085-0.67385 0.94783-1.9382 1.2539-3.3948 0.09463-0.45038 0.18168-0.82506 0.19347-0.83262 0.01179-0.0075 0.24278-0.11631 0.51332-0.24166l0.49189-0.22792-1.095-1.24e-4 -0.20831-0.24336c-0.43944-0.51339-1.3437-0.78472-2.0558-0.6169-0.69732 0.16432-1.0138 0.39115-3.6811 2.6383-0.89616 0.75501-1.7184 1.4109-1.8272 1.4575-0.1539 0.0659-0.62175 0.08472-2.1059 0.08472-2.1238 0-2.0174-0.02498-1.7903 0.42024 0.14912 0.29231 0.60256 0.71295 0.90795 0.84227 0.1291 0.05467 0.39382 0.12794 0.58827 0.16284 0.19445 0.03489 0.35354 0.09433 0.35354 0.13207 0 0.03776-0.17213 0.24231-0.38251 0.45458l-0.38251 0.38588 1.9043-8.05e-4c1.6187-6.89e-4 1.9879-0.01805 2.4616-0.11584 0.65202-0.13457 1.2822-0.38629 1.7584-0.70236 0.44926-0.2982 1.099-0.95738 1.4171-1.4377 0.2376-0.35879 0.4183-0.49329 0.41687-0.3103-0.0011 0.13516-0.29054 0.7052-0.56079 1.1043-0.51822 0.76524-1.22 1.3685-1.9749 1.6975-0.16063 0.07002-0.29241 0.1496-0.29284 0.17687-4.31e-4 0.02726 0.26934 0.81704 0.59949 1.7551l0.60026 1.7055 0.26546 7.56e-4c0.24716 7.01e-4 0.2625-0.0088 0.22248-0.13759zm1.8362-8.4391c-0.30822-0.21589-0.30822-0.82899 0-1.0449 0.17853-0.12505 0.65796-0.12518 0.65796-1.9e-4 0 0.05073-0.03812 0.09223-0.08471 0.09223-0.13 0-0.2373 0.16466-0.19473 0.2988 0.06467 0.20376 0.21273 0.20639 0.39484 7e-3 0.19891-0.21778 0.25351-0.18771 0.25351 0.13958 0 0.34941-0.26188 0.59988-0.62719 0.59988-0.14725 0-0.32711-0.04159-0.39968-0.09241zm0.6438-0.12593c0.0749-0.05246 0.16615-0.1514 0.20279-0.21986 0.06014-0.11237 0.0546-0.11804-0.05696-0.05833-0.32028 0.17141-0.60203-0.0327-0.54345-0.39372 0.03226-0.19884 0.02546-0.2115-0.08255-0.1537-0.27566 0.14753-0.32282 0.53982-0.09259 0.77006 0.17316 0.17316 0.37665 0.19289 0.57276 0.05554zm-1.7075 8.8042c0-0.0122-0.20752-0.59985-0.46114-1.3059-0.25363-0.70606-0.46114-1.3148-0.46114-1.3529 0-0.06456 0.71664-0.25496 0.76129-0.20226 0.05723 0.06756 0.96032 2.6719 0.96032 2.7693 0 0.09914-0.05166 0.11386-0.39966 0.11386-0.21981 0-0.39966-0.0099-0.39966-0.02217zm0.57634-0.36212c-0.052-0.14372-0.23332-0.64868-0.40293-1.1221-0.16961-0.47344-0.33689-0.93931-0.37175-1.0353-0.05826-0.16039-0.08133-0.1711-0.28606-0.13286-0.12248 0.02288-0.23167 0.05041-0.24264 0.06118-0.01099 0.01072 0.15186 0.49943 0.36185 1.0859s0.40844 1.1424 0.441 1.2354c0.05235 0.14954 0.09018 0.16909 0.32714 0.16909h0.26794z" fill="none" stroke="#fff" stroke-width=".4"/>
</svg>
