<?xml version="1.0" encoding="UTF-8"?>
<svg version="1.1" viewBox="0 0 28.747 28.747" xmlns="http://www.w3.org/2000/svg" xmlns:xlink="http://www.w3.org/1999/xlink">
    <defs>
        <filter id="filter6206-7" x="-.072" y="-.072" width="1.144" height="1.144" color-interpolation-filters="sRGB">
            <feGaussianBlur stdDeviation="0.658125"/>
        </filter>
    </defs>
    <g transform="translate(0 -1093.8)">
        <path transform="matrix(1.0781 0 0 1.0641 -.093733 2.7509)" d="m4.4177 1028.2v1.6051h-1.6052v18.192h1.6052v2.1402h18.192v-2.1402h2.1402v-18.192h-2.1402v-1.6051z" fill="#1a237e" filter="url(#filter6206-7)" opacity=".2"/>
        <rect x="2.9987" y="1096.8" width="22.749" height="22.749" rx="1.1973" ry="1.1974" fill="#2196f3"/>
        <g transform="translate(-22.32 1056.5)">
            <path d="m0 0h51.2v51.2h-51.2z" fill="none" stroke-width="1.0667"/>
            <g transform="matrix(.33601 0 0 .33601 1.5296 73.043)">
                <path d="m0 0h51.2v51.2h-51.2z" fill="none" stroke-width="1.0667"/>
            </g>
            <g transform="matrix(.37187 0 0 .37187 38.802 63.239)">
                <path d="m0 0h51.2v51.2h-51.2z" fill="none" stroke-width="1.0667"/>
                <g transform="matrix(2.6891 0 0 2.6891 -82.906 -48.45)">
                    <path d="m0 0h51.2v51.2h-51.2z" fill="none" stroke-width="1.0667"/>
                </g>
            </g>
        </g>
        <path d="m4.1958 1096.8c-0.66332 0-1.1979 0.5346-1.1979 1.1979v0.3334c0-0.6634 0.53459-1.1979 1.1979-1.1979h20.354c0.66332 0 1.1979 0.5345 1.1979 1.1979v-0.3334c0-0.6633-0.5346-1.1979-1.1979-1.1979z" fill="#fff" opacity=".2"/>
        <rect x="128" y="546.52" width="42.667" height="42.667" fill="none" stroke-width="1.0667"/>
        <rect x="128" y="631.85" width="42.667" height="42.667" fill="none" stroke-width="1.0667"/>
        <rect x="128" y="674.52" width="42.667" height="42.667" fill="none" stroke-width="1.0667"/>
        <rect x="128" y="589.19" width="42.667" height="42.667" fill="none" stroke-width="1.0667"/>
        <rect x="128" y="717.19" width="42.667" height="42.667" fill="none" stroke-width="1.0667"/>
        <rect x="213.33" y="546.52" width="42.667" height="42.667" fill="none" stroke-width="1.0667"/>
        <rect x="213.33" y="631.85" width="42.667" height="42.667" fill="none" stroke-width="1.0667"/>
        <rect x="213.33" y="674.52" width="42.667" height="42.667" fill="none" stroke-width="1.0667"/>
        <rect x="213.33" y="589.19" width="42.667" height="42.667" fill="none" stroke-width="1.0667"/>
        <rect x="213.33" y="717.19" width="42.667" height="42.667" fill="none" stroke-width="1.0667"/>
        <rect x="298.67" y="546.52" width="42.667" height="42.667" fill="none" stroke-width="1.0667"/>
        <rect x="298.67" y="631.85" width="42.667" height="42.667" fill="none" stroke-width="1.0667"/>
        <rect x="298.67" y="674.52" width="42.667" height="42.667" fill="none" stroke-width="1.0667"/>
        <rect x="298.67" y="589.19" width="42.667" height="42.667" fill="none" stroke-width="1.0667"/>
        <rect x="298.67" y="717.19" width="42.667" height="42.667" fill="none" stroke-width="1.0667"/>
        <rect x="170.67" y="546.52" width="42.667" height="42.667" fill="none" stroke-width="1.0667"/>
        <rect x="170.67" y="631.85" width="42.667" height="42.667" fill="none" stroke-width="1.0667"/>
        <rect x="170.67" y="674.52" width="42.667" height="42.667" fill="none" stroke-width="1.0667"/>
        <rect x="170.67" y="589.19" width="42.667" height="42.667" fill="none" stroke-width="1.0667"/>
        <rect x="170.67" y="717.19" width="42.667" height="42.667" fill="none" stroke-width="1.0667"/>
        <rect x="256" y="546.52" width="42.667" height="42.667" fill="none" stroke-width="1.0667"/>
        <rect x="256" y="631.85" width="42.667" height="42.667" fill="none" stroke-width="1.0667"/>
        <rect x="256" y="674.52" width="42.667" height="42.667" fill="none" stroke-width="1.0667"/>
        <rect x="256" y="589.19" width="42.667" height="42.667" fill="none" stroke-width="1.0667"/>
        <rect x="256" y="717.19" width="42.667" height="42.667" fill="none" stroke-width="1.0667"/>
        <rect x="128" y="759.85" width="42.667" height="42.667" fill="none" stroke-width="1.0667"/>
        <rect x="213.33" y="759.85" width="42.667" height="42.667" fill="none" stroke-width="1.0667"/>
        <rect x="298.67" y="759.85" width="42.667" height="42.667" fill="none" stroke-width="1.0667"/>
        <rect x="170.67" y="759.85" width="42.667" height="42.667" fill="none" stroke-width="1.0667"/>
        <rect x="256" y="759.85" width="42.667" height="42.667" fill="none" stroke-width="1.0667"/>
        <rect x="341.33" y="589.19" width="42.667" height="42.667" fill="none" stroke-width="1.0667"/>
        <rect x="341.33" y="631.85" width="42.667" height="42.667" fill="none" stroke-width="1.0667"/>
        <rect x="341.33" y="717.19" width="42.667" height="42.667" fill="none" stroke-width="1.0667"/>
        <rect x="341.33" y="546.52" width="42.667" height="42.667" fill="none" stroke-width="1.0667"/>
        <rect x="341.33" y="674.52" width="42.667" height="42.667" fill="none" stroke-width="1.0667"/>
        <rect x="341.33" y="759.85" width="42.667" height="42.667" fill="none" stroke-width="1.0667"/>
        <rect x="160" y="578.52" width="192" height="192" fill="none" stroke-width="1.0667"/>
        <g transform="matrix(.37344 0 0 .37344 4.7333 1097.4)">
            <path d="m0 0h51.2v51.2h-51.2z" fill="none" stroke-width="1.0667"/>
        </g>
        <g transform="matrix(.36471 0 0 .36471 5.1356 1097.4)">
            <path d="m0 0h51.2v51.2h-51.2z" fill="none" stroke-width="1.0667"/>
        </g>
        <g transform="matrix(.41585 0 0 .41585 84.325 1055.9)">
            <g transform="matrix(.062269 0 0 .062269 -28.238 185.29)">
                <g transform="matrix(38.618 0 0 38.618 14724 -13542)">
                    <g transform="matrix(.71436 0 0 .71436 -400.52 188.34)">
                        <path d="m1293.2-120.67c-181.75 0.2763-511.18 0.13525-699.05 0.13998-2.3216 10.413-3.593 21.251-3.593 32.384v114c207.65 0.73695 494.72 0.38136 706.23 0.3733v-114.37c0-11.18-1.2522-22.07-3.593-32.523zm-458.69 295.56c-78.385-4e-3 -158.85 0.17892-243.95 0.55995v138.63c286.34-0.39317 421.73-0.13827 706.23-0.32664v-137.75c-163.2-0.53005-311.22-1.1113-462.28-1.1199z" opacity="0" stroke-width="1.4932"/>
                    </g>
                </g>
            </g>
        </g>
        <path d="m24.549 1119.5c0.66325 0 1.1979-0.5346 1.1979-1.1979v-0.3333c0 0.6632-0.53461 1.1978-1.1979 1.1978h-20.354c-0.66325 0-1.1979-0.5346-1.1979-1.1978v0.3333c0 0.6633 0.53461 1.1979 1.1979 1.1979z" fill="#1a237e" opacity=".2"/>
    </g>
    <g>
        <g transform="translate(-42.584 8.9993)" display="none" fill="none">
            <rect transform="rotate(90)" x="7.3342" y="-19.616" width="12.282" height="12.282" display="inline" stroke="#000" stroke-width=".065984"/>
            <rect x="6.7726" y="8.112" width="13.405" height="10.726" stroke="#5261ff" stroke-linecap="round" stroke-linejoin="round" stroke-width=".06524"/>
            <rect transform="rotate(90)" x="6.7726" y="-18.838" width="13.405" height="10.726" display="inline" stroke="#0f0" stroke-linecap="round" stroke-linejoin="round" stroke-width=".06524"/>
        </g>
        <g transform="matrix(.85507 0 0 .88721 2.8908 2.4127)">
            <g transform="matrix(.38746 0 0 .38746 6.9978 7.5164)" fill="#fff">
                <path d="m10.444-5.2576-0.23904 0.42141s-1.5502 2.6772-3.7895 3.7814c-2.3015 1.135-6.2556 0.93834-6.2556 0.93834l-0.86284-0.067426v18.666s0.22417 2.6814 1.8656 5.7817c1.6461 3.1091 3.807 5.2423 3.807 5.2423l0.00597 0.01697 0.011641 0.01122s2.0209 1.8619 5.1537 3.7253c2.5123 1.4943 6.3722 2.7083 6.3722 2.7083l0.23322 0.07865 0.24486-0.07865s2.6271-0.77855 5.935-2.5341c2.607-1.3835 5.2295-3.7983 5.2295-3.7983v-0.0058l6e-3 -0.0058s2.5132-2.3405 3.8362-5.2704c1.7077-3.7819 1.9006-6.4448 1.9006-6.4448v-18.222l-0.90948 0.11238s-3.5469 0.36241-6.069-0.78101c-2.2537-1.021-3.8189-3.843-3.8189-3.843l-0.23322-0.43265zm0.89199 1.6238h10.616c0.34426 0.62364 1.6941 2.9473 4.3026 4.1298 2.5094 1.1376 4.9502 1.0286 6.0166 0.94396v16.373c-7.55e-4 0.01179-0.14761 2.3121-1.7548 5.8716-1.1342 2.5118-3.4689 4.7591-3.4689 4.7591-0.01164 0.01064-2.5761 2.3316-4.8739 3.5511-3.0392 1.613-5.2166 2.2618-5.4103 2.3206-0.28939-0.09491-3.6806-1.1922-5.795-2.4498-2.985-1.7754-4.8695-3.5189-4.8739-3.523l-0.00597-0.0058c-0.021193-0.020955-1.9785-1.984-3.4864-4.8321-1.4873-2.8091-1.6836-5.1275-1.6847-5.1411v-16.868c1.072 0.050537 3.7752 0.10739 6.2148-1.0957 2.5184-1.2419 3.857-3.4391 4.2034-4.0343zm3.0083 5.7817c-2.6949 0-2.6818 5.203-2.6818 5.203s-0.76355-1.4721-1.7199-1.4721c-1.3974 0-1.8539 2.1101-1.8539 4.3995-2.7601 0-5.0802 0.61492-5.2878 0.67426-0.20768 0.05935-0.86219 0.5323-0.56551 0.47198 0.60325-0.19283 3.4411-0.63138 5.9233-0.41579 0.13647 2.1767 1.405 5.012 1.405 5.012s-2.7284 3.9466-2.7284 6.765c0 0.7417 0.32727 2.1014 2.2854 2.1014 1.6397 0 3.4774-0.98481 3.8245-1.1856-0.30262 0.43216-0.5247 1.2527-0.5247 1.6294 0 0.30954 0.18199 1.1856 1.4458 1.1856 1.6248 0 3.4397-1.2418 3.4397-1.2418s1.7127 2.8423 3.1774 4.1467c0.39459 0.35107 0.77539 0.41579 0.77539 0.41579s-1.459-1.4007-3.3756-5.0063c1.7811-1.0997 3.6379-3.6915 3.6379-3.6915 0 0 0.22116 0.0058 1.9122 0.0058 2.6504 0 6.413-0.55885 6.413-2.6633 2e-3 -2.1727-3.3814-4.1354-3.3814-4.1354s2.2795 0.12074 2.2795-1.2193c0-1.7494-3.0374-3.3319-3.0374-3.3319s0.47871-1.0049 0.77539-1.5676c0.29668-0.5627 1.1326-2.7621 1.2068-3.2645 0.09394-0.63094-0.05248-0.82596-0.05248-0.82596-0.2057 1.3519-2.4077 5.2437-2.5827 5.3772-2.15-1.0067-5.1013-1.2867-5.1013-1.2867 0 0-2.8899-6.0795-5.6085-6.0795zm1.3234 3.0622c1.2461 0 3.0258 2.9386 3.0258 2.9386s-2.777-0.25095-5.0605 1.09c0.0623-2.1153 0.77477-4.0287 2.0347-4.0287zm-4.9322 2.3824c0.39558 0 0.77843 0.47934 0.93863 0.88777 0 0.26898 0.14576 1.843 0.14576 1.843l-2.2912-0.084291c-9.88e-4 -2.0619 0.81124-2.6465 1.2068-2.6465zm6.5529 1.4047c3.8875 0 7.0135 1.6744 7.0135 1.6744l-1.2243 1.7025s-1.0857-1.9695-2.6235-2.3206c0.81093 0.60424 1.7194 1.4018 2.1921 2.5509-3.221-1.2579-7.1122-1.9223-8.3602-2.0677-0.10877 0.45986-0.09328 1.1181-0.09328 1.1181s5.2138 0.96092 9.0074 3.1297c-0.02657 4.742-5.1966 8.3824-5.9116 8.8046-0.53304-0.93158-0.92697-1.9048-0.92697-1.9048s2.1929 0.1422 3.3698-1.0732c-0.73379 0.3303-1.903 0.74366-3.2648 0.61807 2.8462-2.504 4.5073-4.3169 5.9116-6.1919-0.12164-0.14537-0.76291-0.59348-0.92114-0.66864-0.84752 1.0196-4.1424 4.5393-7.1942 6.2818-3.8628-2.1054-4.6752-8.2991-4.7573-9.5857l2.1105 0.20227s-0.79288 1.4041-0.79288 2.4386c0 1.0344 0.12244 1.09 0.12244 1.09s-0.02418-1.8057 1.0902-3.1971c0.84752 4.5125 1.7302 6.8249 2.4195 8.2034 0.35107-0.14536 1.0086-0.43265 1.0086-0.43265s-1.9521-5.613-1.8423-9.4115c0.88411-0.47172 2.1896-0.96081 3.6671-0.96081zm7.7131 2.0733c0.17701 0.10187 1.7607 1.093 1.7607 1.9722 0 0.76742-0.73458 0.75854-0.73458 0.75853l-0.55385 0.03372s-1.0577-0.55562-1.6965-0.81472c0 0 0.99289-1.5235 1.2243-1.9497zm-1.1777 4.0399s2.6118 1.6187 2.6118 3.1971c0 1.7633-4.2093 1.7362-4.2093 1.7362s1.6231-2.1217 1.5974-4.9333zm-13.701 2.0677s1.2692 2.6663 3.4864 3.7927c-1.0997 0.64479-2.0096 0.93272-3.1132 0.93272-1.25 0-1.51-0.70004-1.51-1.326 0-1.4181 1.1369-3.3994 1.1369-3.3994zm5.3345 4.8265 1.0902 2.034s-1.1177 0.6574-1.9939 0.6574-0.97944-0.56983-0.97944-0.70235c0-0.40744 0.31482-0.88777 0.31482-0.88777s1.4753-0.99547 1.5683-1.1013z" fill="#fff"/>
            </g>
        </g>
    </g>
    <g display="none" fill="none">
        <rect transform="rotate(90)" x="7.8232" y="-20.923" width="13.1" height="13.1" display="inline" stroke="#000" stroke-width=".070382"/>
        <rect x="7.2241" y="8.6528" width="14.298" height="11.441" stroke="#5261ff" stroke-linecap="round" stroke-linejoin="round" stroke-width=".06959"/>
        <rect transform="rotate(90)" x="7.2241" y="-20.094" width="14.298" height="11.441" display="inline" stroke="#0f0" stroke-linecap="round" stroke-linejoin="round" stroke-width=".06959"/>
    </g>
</svg>
