<?xml version="1.0" encoding="UTF-8"?>
<svg version="1.1" viewBox="0 0 28.747 28.747" xmlns="http://www.w3.org/2000/svg">
    <defs>
        <filter id="filter6206-7" color-interpolation-filters="sRGB">
            <feGaussianBlur stdDeviation="0.658125"/>
        </filter>
    </defs>
    <g transform="translate(0 -1093.8)">
        <path transform="matrix(1.0781 0 0 1.0641 -.093733 2.7509)" d="m4.4177 1028.2v1.6051h-1.6052v18.192h1.6052v2.1402h18.192v-2.1402h2.1402v-18.192h-2.1402v-1.6051z" fill="#263238" filter="url(#filter6206-7)" opacity=".2"/>
        <rect x="2.9987" y="1096.8" width="22.749" height="22.749" rx="1.1973" ry="1.1974" fill="#00bcd4"/>
        <g transform="translate(-22.32 1056.5)">
            <path d="m0 0h51.2v51.2h-51.2z" fill="none" stroke-width="1.0667"/>
            <g transform="matrix(.33601 0 0 .33601 1.5296 73.043)">
                <path d="m0 0h51.2v51.2h-51.2z" fill="none" stroke-width="1.0667"/>
            </g>
            <g transform="matrix(.37187 0 0 .37187 38.802 63.239)">
                <path d="m0 0h51.2v51.2h-51.2z" fill="none" stroke-width="1.0667"/>
                <g transform="matrix(2.6891 0 0 2.6891 -82.906 -48.45)">
                    <path d="m0 0h51.2v51.2h-51.2z" fill="none" stroke-width="1.0667"/>
                </g>
            </g>
        </g>
        <path d="m4.1958 1096.8c-0.66332 0-1.1979 0.5346-1.1979 1.1979v0.3334c0-0.6634 0.53459-1.1979 1.1979-1.1979h20.354c0.66332 0 1.1979 0.5345 1.1979 1.1979v-0.3334c0-0.6633-0.5346-1.1979-1.1979-1.1979z" fill="#fff" opacity=".2"/>
        <rect x="128" y="546.52" width="42.667" height="42.667" fill="none" stroke-width="1.0667"/>
        <rect x="128" y="631.85" width="42.667" height="42.667" fill="none" stroke-width="1.0667"/>
        <rect x="128" y="674.52" width="42.667" height="42.667" fill="none" stroke-width="1.0667"/>
        <rect x="128" y="589.19" width="42.667" height="42.667" fill="none" stroke-width="1.0667"/>
        <rect x="128" y="717.19" width="42.667" height="42.667" fill="none" stroke-width="1.0667"/>
        <rect x="213.33" y="546.52" width="42.667" height="42.667" fill="none" stroke-width="1.0667"/>
        <rect x="213.33" y="631.85" width="42.667" height="42.667" fill="none" stroke-width="1.0667"/>
        <rect x="213.33" y="674.52" width="42.667" height="42.667" fill="none" stroke-width="1.0667"/>
        <rect x="213.33" y="589.19" width="42.667" height="42.667" fill="none" stroke-width="1.0667"/>
        <rect x="213.33" y="717.19" width="42.667" height="42.667" fill="none" stroke-width="1.0667"/>
        <rect x="298.67" y="546.52" width="42.667" height="42.667" fill="none" stroke-width="1.0667"/>
        <rect x="298.67" y="631.85" width="42.667" height="42.667" fill="none" stroke-width="1.0667"/>
        <rect x="298.67" y="674.52" width="42.667" height="42.667" fill="none" stroke-width="1.0667"/>
        <rect x="298.67" y="589.19" width="42.667" height="42.667" fill="none" stroke-width="1.0667"/>
        <rect x="298.67" y="717.19" width="42.667" height="42.667" fill="none" stroke-width="1.0667"/>
        <rect x="170.67" y="546.52" width="42.667" height="42.667" fill="none" stroke-width="1.0667"/>
        <rect x="170.67" y="631.85" width="42.667" height="42.667" fill="none" stroke-width="1.0667"/>
        <rect x="170.67" y="674.52" width="42.667" height="42.667" fill="none" stroke-width="1.0667"/>
        <rect x="170.67" y="589.19" width="42.667" height="42.667" fill="none" stroke-width="1.0667"/>
        <rect x="170.67" y="717.19" width="42.667" height="42.667" fill="none" stroke-width="1.0667"/>
        <rect x="256" y="546.52" width="42.667" height="42.667" fill="none" stroke-width="1.0667"/>
        <rect x="256" y="631.85" width="42.667" height="42.667" fill="none" stroke-width="1.0667"/>
        <rect x="256" y="674.52" width="42.667" height="42.667" fill="none" stroke-width="1.0667"/>
        <rect x="256" y="589.19" width="42.667" height="42.667" fill="none" stroke-width="1.0667"/>
        <rect x="256" y="717.19" width="42.667" height="42.667" fill="none" stroke-width="1.0667"/>
        <rect x="128" y="759.85" width="42.667" height="42.667" fill="none" stroke-width="1.0667"/>
        <rect x="213.33" y="759.85" width="42.667" height="42.667" fill="none" stroke-width="1.0667"/>
        <rect x="298.67" y="759.85" width="42.667" height="42.667" fill="none" stroke-width="1.0667"/>
        <rect x="170.67" y="759.85" width="42.667" height="42.667" fill="none" stroke-width="1.0667"/>
        <rect x="256" y="759.85" width="42.667" height="42.667" fill="none" stroke-width="1.0667"/>
        <rect x="341.33" y="589.19" width="42.667" height="42.667" fill="none" stroke-width="1.0667"/>
        <rect x="341.33" y="631.85" width="42.667" height="42.667" fill="none" stroke-width="1.0667"/>
        <rect x="341.33" y="717.19" width="42.667" height="42.667" fill="none" stroke-width="1.0667"/>
        <rect x="341.33" y="546.52" width="42.667" height="42.667" fill="none" stroke-width="1.0667"/>
        <rect x="341.33" y="674.52" width="42.667" height="42.667" fill="none" stroke-width="1.0667"/>
        <rect x="341.33" y="759.85" width="42.667" height="42.667" fill="none" stroke-width="1.0667"/>
        <rect x="160" y="578.52" width="192" height="192" fill="none" stroke-width="1.0667"/>
        <g transform="matrix(.37344 0 0 .37344 4.7333 1097.4)">
            <path d="m0 0h51.2v51.2h-51.2z" fill="none" stroke-width="1.0667"/>
        </g>
        <g transform="matrix(.36471 0 0 .36471 5.1356 1097.4)">
            <path d="m0 0h51.2v51.2h-51.2z" fill="none" stroke-width="1.0667"/>
        </g>
        <g transform="matrix(.41585 0 0 .41585 84.325 1055.9)">
            <g transform="matrix(.062269 0 0 .062269 -28.238 185.29)">
                <g transform="matrix(38.618 0 0 38.618 14724 -13542)">
                    <g transform="matrix(.71436 0 0 .71436 -400.52 188.34)">
                        <path d="m1293.2-120.67c-181.75 0.2763-511.18 0.13525-699.05 0.13998-2.3216 10.413-3.593 21.251-3.593 32.384v114c207.65 0.73695 494.72 0.38136 706.23 0.3733v-114.37c0-11.18-1.2522-22.07-3.593-32.523zm-458.69 295.56c-78.385-4e-3 -158.85 0.17892-243.95 0.55995v138.63c286.34-0.39317 421.73-0.13827 706.23-0.32664v-137.75c-163.2-0.53005-311.22-1.1113-462.28-1.1199z" opacity="0" stroke-width="1.4932"/>
                    </g>
                </g>
            </g>
        </g>
        <path d="m24.549 1119.5c0.66325 0 1.1979-0.5346 1.1979-1.1979v-0.3333c0 0.6632-0.53461 1.1978-1.1979 1.1978h-20.354c-0.66325 0-1.1979-0.5346-1.1979-1.1978v0.3333c0 0.6633 0.53461 1.1979 1.1979 1.1979z" fill="#263238" opacity=".2"/>
    </g>
    <g transform="matrix(.10334 0 0 .10334 4.0722 3.6259)">
        <path d="m169.04 141.79c-11.354-3.07-12.689-11.256-12.408-16.205 1.83-5.199 2.979-10.721 3.315-16.461 0.856 0.279 1.758 0.473 2.712 0.473 4.798 0 8.686-3.886 8.686-8.683 0-4.793-3.887-8.685-8.686-8.685-1.252 0-2.436 0.277-3.511 0.756-4.936-33.284-29.673-50.851-59.464-50.851-9.505 0-18.489 1.8-26.486 5.316-0.098 0.023-0.218 0.071-0.365 0.146-0.091 0.047-0.178 0.084-0.269 0.13-0.507 0.23-1.006 0.473-1.505 0.717-7.618 3.384-12.864 2.164-13.994 1.692-8.68-3.628-6.275-9.17-8.191-7.834-2.028 1.413-4.942 12.236 4.41 20.063-6.023 7.252-10.395 16.4-12.514 27.39-1.219-0.649-2.586-1.052-4.063-1.052-4.793 0-8.686 3.886-8.686 8.68 0 4.798 3.893 8.685 8.686 8.685 0.914 0 1.775-0.18 2.604-0.443 0.051 33.309 27.06 60.288 60.374 60.288 17.225 0 32.757-7.22 43.754-18.79 2.585 1.309 5.544 1.946 8.399 1.946 1.039 0 2.081-0.079 3.099-0.236 8.237-1.268 14.139-5.136 14.386-5.3 0.315-0.211 0.48-0.588 0.419-0.964-0.061-0.377-0.335-0.68-0.702-0.778zm-36.285-23.673c-0.629 5.632-8.827 29.059-36.152 26.074-22.644-2.476-25.97-21.072-26.087-21.377-1.349-3.486 0.603-5.784 3.001-5.574 31.377 2.748 52.291-3.194 54.644-3.671 3.549-0.712 4.844 2.31 4.594 4.548zm-63.132-25.34c0-2.671 2.164-4.834 4.838-4.834 2.67 0 4.835 2.164 4.835 4.834 0 2.667-2.165 4.832-4.835 4.832-2.675 0-4.838-2.165-4.838-4.832zm21.608 9.86c0.064-2.585 2.651-4.628 5.784-4.559 3.134 0.079 5.624 2.242 5.559 4.834zm25.843-9.655c0-2.673 2.165-4.84 4.838-4.84 2.669 0 4.834 2.167 4.834 4.84s-2.165 4.832-4.834 4.832c-2.673 0-4.838-2.159-4.838-4.832zm16.612-11.316c-10.629-4.048-16.845-12.633-19.568-17.294-20.419 13.495-48.091 8.808-49.311 8.589-1.579-0.276-2.63-1.78-2.35-3.357 0.275-1.576 1.774-2.627 3.358-2.354 0.288 0.05 29.025 4.887 47.549-9.467 0.708-0.551 1.63-0.742 2.505-0.515 0.867 0.221 1.583 0.835 1.94 1.659 0.051 0.121 5.605 12.615 17.944 17.321 1.497 0.569 2.248 2.249 1.676 3.745-0.44 1.158-1.542 1.867-2.708 1.867-0.345 0-0.697-0.059-1.035-0.194z" fill="#fff"/>
        <path d="m132.81 118.08c-0.632 5.635-8.829 29.058-36.153 26.073-22.643-2.476-25.969-21.075-26.088-21.37-1.346-3.493 0.603-5.785 3.003-5.58 31.377 2.748 52.289-3.199 54.644-3.671 3.547-0.712 4.845 2.307 4.594 4.548" fill="#00a2ce"/>
        <path d="m69.674 92.742c0-2.673 2.164-4.835 4.836-4.835s4.835 2.162 4.835 4.835c0 2.667-2.164 4.831-4.835 4.831-2.672 0-4.836-2.164-4.836-4.831" fill="#00a2ce"/>
        <path d="m117.12 92.946c0-2.668 2.166-4.837 4.837-4.837s4.835 2.169 4.835 4.837c0 2.671-2.164 4.832-4.835 4.832s-4.837-2.16-4.837-4.832" fill="#00a2ce"/>
    </g>
</svg>
