<?xml version="1.0" encoding="UTF-8"?>
<svg version="1.1" viewBox="0 0 28.747 28.747" xmlns="http://www.w3.org/2000/svg">
    <defs>
        <filter id="filter6206-7" color-interpolation-filters="sRGB">
            <feGaussianBlur stdDeviation="0.658125"/>
        </filter>
    </defs>
    <g transform="translate(0 -1093.8)">
        <path transform="matrix(1.0781 0 0 1.0641 -.093733 2.7509)" d="m4.4177 1028.2v1.6051h-1.6052v18.192h1.6052v2.1402h18.192v-2.1402h2.1402v-18.192h-2.1402v-1.6051z" fill="#3e2723" filter="url(#filter6206-7)" opacity=".2"/>
        <rect x="2.9987" y="1096.8" width="22.749" height="22.749" rx="1.1973" ry="1.1974" fill="#f44336"/>
        <g transform="translate(-22.32 1056.5)">
            <path d="m0 0h51.2v51.2h-51.2z" fill="none" stroke-width="1.0667"/>
            <g transform="matrix(.33601 0 0 .33601 1.5296 73.043)">
                <path d="m0 0h51.2v51.2h-51.2z" fill="none" stroke-width="1.0667"/>
            </g>
            <g transform="matrix(.37187 0 0 .37187 38.802 63.239)">
                <path d="m0 0h51.2v51.2h-51.2z" fill="none" stroke-width="1.0667"/>
                <g transform="matrix(2.6891 0 0 2.6891 -82.906 -48.45)">
                    <path d="m0 0h51.2v51.2h-51.2z" fill="none" stroke-width="1.0667"/>
                </g>
            </g>
        </g>
        <path d="m4.1958 1096.8c-0.66332 0-1.1979 0.5346-1.1979 1.1979v0.3334c0-0.6634 0.53459-1.1979 1.1979-1.1979h20.354c0.66332 0 1.1979 0.5345 1.1979 1.1979v-0.3334c0-0.6633-0.5346-1.1979-1.1979-1.1979z" fill="#fff" opacity=".2"/>
        <rect x="128" y="546.52" width="42.667" height="42.667" fill="none" stroke-width="1.0667"/>
        <rect x="128" y="631.85" width="42.667" height="42.667" fill="none" stroke-width="1.0667"/>
        <rect x="128" y="674.52" width="42.667" height="42.667" fill="none" stroke-width="1.0667"/>
        <rect x="128" y="589.19" width="42.667" height="42.667" fill="none" stroke-width="1.0667"/>
        <rect x="128" y="717.19" width="42.667" height="42.667" fill="none" stroke-width="1.0667"/>
        <rect x="213.33" y="546.52" width="42.667" height="42.667" fill="none" stroke-width="1.0667"/>
        <rect x="213.33" y="631.85" width="42.667" height="42.667" fill="none" stroke-width="1.0667"/>
        <rect x="213.33" y="674.52" width="42.667" height="42.667" fill="none" stroke-width="1.0667"/>
        <rect x="213.33" y="589.19" width="42.667" height="42.667" fill="none" stroke-width="1.0667"/>
        <rect x="213.33" y="717.19" width="42.667" height="42.667" fill="none" stroke-width="1.0667"/>
        <rect x="298.67" y="546.52" width="42.667" height="42.667" fill="none" stroke-width="1.0667"/>
        <rect x="298.67" y="631.85" width="42.667" height="42.667" fill="none" stroke-width="1.0667"/>
        <rect x="298.67" y="674.52" width="42.667" height="42.667" fill="none" stroke-width="1.0667"/>
        <rect x="298.67" y="589.19" width="42.667" height="42.667" fill="none" stroke-width="1.0667"/>
        <rect x="298.67" y="717.19" width="42.667" height="42.667" fill="none" stroke-width="1.0667"/>
        <rect x="170.67" y="546.52" width="42.667" height="42.667" fill="none" stroke-width="1.0667"/>
        <rect x="170.67" y="631.85" width="42.667" height="42.667" fill="none" stroke-width="1.0667"/>
        <rect x="170.67" y="674.52" width="42.667" height="42.667" fill="none" stroke-width="1.0667"/>
        <rect x="170.67" y="589.19" width="42.667" height="42.667" fill="none" stroke-width="1.0667"/>
        <rect x="170.67" y="717.19" width="42.667" height="42.667" fill="none" stroke-width="1.0667"/>
        <rect x="256" y="546.52" width="42.667" height="42.667" fill="none" stroke-width="1.0667"/>
        <rect x="256" y="631.85" width="42.667" height="42.667" fill="none" stroke-width="1.0667"/>
        <rect x="256" y="674.52" width="42.667" height="42.667" fill="none" stroke-width="1.0667"/>
        <rect x="256" y="589.19" width="42.667" height="42.667" fill="none" stroke-width="1.0667"/>
        <rect x="256" y="717.19" width="42.667" height="42.667" fill="none" stroke-width="1.0667"/>
        <rect x="128" y="759.85" width="42.667" height="42.667" fill="none" stroke-width="1.0667"/>
        <rect x="213.33" y="759.85" width="42.667" height="42.667" fill="none" stroke-width="1.0667"/>
        <rect x="298.67" y="759.85" width="42.667" height="42.667" fill="none" stroke-width="1.0667"/>
        <rect x="170.67" y="759.85" width="42.667" height="42.667" fill="none" stroke-width="1.0667"/>
        <rect x="256" y="759.85" width="42.667" height="42.667" fill="none" stroke-width="1.0667"/>
        <rect x="341.33" y="589.19" width="42.667" height="42.667" fill="none" stroke-width="1.0667"/>
        <rect x="341.33" y="631.85" width="42.667" height="42.667" fill="none" stroke-width="1.0667"/>
        <rect x="341.33" y="717.19" width="42.667" height="42.667" fill="none" stroke-width="1.0667"/>
        <rect x="341.33" y="546.52" width="42.667" height="42.667" fill="none" stroke-width="1.0667"/>
        <rect x="341.33" y="674.52" width="42.667" height="42.667" fill="none" stroke-width="1.0667"/>
        <rect x="341.33" y="759.85" width="42.667" height="42.667" fill="none" stroke-width="1.0667"/>
        <rect x="160" y="578.52" width="192" height="192" fill="none" stroke-width="1.0667"/>
        <g transform="matrix(.37344 0 0 .37344 4.7333 1097.4)">
            <path d="m0 0h51.2v51.2h-51.2z" fill="none" stroke-width="1.0667"/>
        </g>
        <g transform="matrix(.36471 0 0 .36471 5.1356 1097.4)">
            <path d="m0 0h51.2v51.2h-51.2z" fill="none" stroke-width="1.0667"/>
        </g>
        <g transform="matrix(.41585 0 0 .41585 84.325 1055.9)">
            <g transform="matrix(.062269 0 0 .062269 -28.238 185.29)">
                <g transform="matrix(38.618 0 0 38.618 14724 -13542)">
                    <g transform="matrix(.71436 0 0 .71436 -400.52 188.34)">
                        <path d="m1293.2-120.67c-181.75 0.2763-511.18 0.13525-699.05 0.13998-2.3216 10.413-3.593 21.251-3.593 32.384v114c207.65 0.73695 494.72 0.38136 706.23 0.3733v-114.37c0-11.18-1.2522-22.07-3.593-32.523zm-458.69 295.56c-78.385-4e-3 -158.85 0.17892-243.95 0.55995v138.63c286.34-0.39317 421.73-0.13827 706.23-0.32664v-137.75c-163.2-0.53005-311.22-1.1113-462.28-1.1199z" opacity="0" stroke-width="1.4932"/>
                    </g>
                </g>
            </g>
        </g>
        <path d="m24.549 1119.5c0.66325 0 1.1979-0.5346 1.1979-1.1979v-0.3333c0 0.6632-0.53461 1.1978-1.1979 1.1978h-20.354c-0.66325 0-1.1979-0.5346-1.1979-1.1978v0.3333c0 0.6633 0.53461 1.1979 1.1979 1.1979z" fill="#3e2723" opacity=".2"/>
    </g>
    <path d="m8.286 20.132c-0.20945-0.044574-0.38175-0.1858-0.63039-0.51672-0.19142-0.25476-0.1948-0.58683-0.0095495-0.93933 0.1361-0.259-0.029721-0.11364 3.7802-3.3136 0.81934-0.68816 1.0179-0.85554 1.0814-0.91178l0.06435-0.05697-0.05198-0.04407c-0.12342-0.10466-0.78685-0.6811-0.87266-0.75825-0.051773-0.046543-0.55725-0.48588-1.1233-0.9763-0.56604-0.49043-1.2016-1.0418-1.4123-1.2252-0.21071-0.18344-0.45919-0.39902-0.55217-0.47907-0.64187-0.55257-0.74561-0.66208-0.86538-0.91346-0.078776-0.16535-0.10847-0.32122-0.09717-0.51004 0.012194-0.20251 0.059002-0.29269 0.29017-0.55821 0.23648-0.27162 0.3328-0.32294 0.62551-0.33326 0.23203-0.00823 0.41968 0.036347 0.61831 0.1467 0.14333 0.079629 0.1946 0.12013 0.62075 0.49032 0.57961 0.5035 0.8942 0.77648 1.0831 0.93987 0.09915 0.08577 0.49249 0.42726 0.87407 0.75888s0.75993 0.66004 0.84077 0.72982c0.28217 0.24356 0.8568 0.74232 1.2385 1.075 1.1497 1.002 1.1275 0.97988 1.2799 1.2759 0.07264 0.14116 0.08279 0.17906 0.08933 0.33367 0.01072 0.25217-0.0075 0.33286-0.11623 0.5155-0.1706 0.28668-0.11122 0.23332-2.3951 2.1515-0.22465 0.18868-0.63264 0.53152-0.90664 0.76188s-0.68531 0.57588-0.91401 0.76784-0.52809 0.44386-0.66532 0.55977c-1.001 0.84557-1.06 0.88952-1.3139 0.9778-0.1597 0.05553-0.42679 0.08025-0.5603 0.05183zm0.44908-0.07272c0.15459-0.04114 0.35177-0.14097 0.48376-0.24489 0.10599-0.08346 2.6021-2.1786 4.5902-3.8528 0.72462-0.61021 0.9916-0.84742 1.0658-0.94698 0.29238-0.39213 0.3194-0.69016 0.09629-1.0619-0.15392-0.25646-0.03201-0.14292-1.8177-1.693-0.44636-0.38746-0.98433-0.8546-1.1955-1.0381-2.6329-2.2879-2.6739-2.323-2.8084-2.4046-0.20569-0.12492-0.37137-0.17251-0.60066-0.17251-0.27995 0-0.37797 0.050642-0.61743 0.319-0.098537 0.11042-0.20143 0.24918-0.22866 0.30833-0.096788 0.21028-0.083037 0.42739 0.044545 0.70331 0.12873 0.27836 0.030911 0.18594 2.0583 1.9448 1.9859 1.7228 2.6427 2.2929 2.73 2.3697 0.0486 0.04274 0.08836 0.09144 0.08836 0.1082 0 0.01678-0.42766 0.38983-0.95035 0.82902-1.3792 1.1589-1.9063 1.602-2.9814 2.5065-0.3843 0.32332-0.7495 0.64269-0.81154 0.7097-0.14252 0.15394-0.26068 0.37749-0.30052 0.56857-0.055079 0.26418-0.00558 0.42508 0.21062 0.68426 0.18199 0.21819 0.29912 0.31827 0.41947 0.35839 0.12576 0.04191 0.37725 0.04435 0.52484 0.0051zm5.8569-0.56871c-0.03087-0.03411-0.03441-0.1279-0.03441-0.91159 0-0.81989 0.0024-0.87568 0.03802-0.90797 0.03504-0.0317 0.29405-0.03441 3.3026-0.03441 3.1362 0 3.2659 0.0015 3.299 0.03802 0.03087 0.03411 0.03441 0.12791 0.03441 0.91159 0 0.81989-0.0024 0.87568-0.03802 0.90798-0.03504 0.0317-0.29405 0.03441-3.3026 0.03441-3.1362 0-3.2659-0.0015-3.299-0.03802zm6.5653-0.03623c0.02862-0.02862 0.03267-0.13619 0.03267-0.86639 0-0.74661-0.0035-0.83769-0.03441-0.87174-0.03306-0.03652-0.1616-0.03802-3.263-0.03802h-3.2286l-0.03237 0.04621c-0.02794 0.0399-0.03237 0.15693-0.03237 0.8582s0.0044 0.8183 0.03237 0.8582l0.03237 0.04621h3.2304c2.909 0 3.2336-0.0032 3.263-0.03267z" fill="#fff" stroke="#f8ffff" stroke-linejoin="round" stroke-width=".708" style="paint-order:stroke markers fill"/>
</svg>
