<?xml version="1.0" encoding="UTF-8"?>
<svg version="1.1" viewBox="0 0 28.747 28.747" xmlns="http://www.w3.org/2000/svg">
    <defs>
        <filter id="filter6206-7" color-interpolation-filters="sRGB">
            <feGaussianBlur stdDeviation="0.658125"/>
        </filter>
    </defs>
    <g transform="translate(0 -1093.8)">
        <path transform="matrix(1.0781 0 0 1.0641 -.093733 2.7509)" d="m4.4177 1028.2v1.6051h-1.6052v18.192h1.6052v2.1402h18.192v-2.1402h2.1402v-18.192h-2.1402v-1.6051z" fill="#1a237e" filter="url(#filter6206-7)" opacity=".2"/>
        <rect x="2.9987" y="1096.8" width="22.749" height="22.749" rx="1.1973" ry="1.1974" fill="#9c27b0"/>
        <g transform="translate(-22.32 1056.5)">
            <path d="m0 0h51.2v51.2h-51.2z" fill="none" stroke-width="1.0667"/>
            <g transform="matrix(.33601 0 0 .33601 1.5296 73.043)">
                <path d="m0 0h51.2v51.2h-51.2z" fill="none" stroke-width="1.0667"/>
            </g>
            <g transform="matrix(.37187 0 0 .37187 38.802 63.239)">
                <path d="m0 0h51.2v51.2h-51.2z" fill="none" stroke-width="1.0667"/>
                <g transform="matrix(2.6891 0 0 2.6891 -82.906 -48.45)">
                    <path d="m0 0h51.2v51.2h-51.2z" fill="none" stroke-width="1.0667"/>
                </g>
            </g>
        </g>
        <path d="m4.1958 1096.8c-0.66332 0-1.1979 0.5346-1.1979 1.1979v0.3334c0-0.6634 0.53459-1.1979 1.1979-1.1979h20.354c0.66332 0 1.1979 0.5345 1.1979 1.1979v-0.3334c0-0.6633-0.5346-1.1979-1.1979-1.1979z" fill="#fff" opacity=".2"/>
        <rect x="128" y="546.52" width="42.667" height="42.667" fill="none" stroke-width="1.0667"/>
        <rect x="128" y="631.85" width="42.667" height="42.667" fill="none" stroke-width="1.0667"/>
        <rect x="128" y="674.52" width="42.667" height="42.667" fill="none" stroke-width="1.0667"/>
        <rect x="128" y="589.19" width="42.667" height="42.667" fill="none" stroke-width="1.0667"/>
        <rect x="128" y="717.19" width="42.667" height="42.667" fill="none" stroke-width="1.0667"/>
        <rect x="213.33" y="546.52" width="42.667" height="42.667" fill="none" stroke-width="1.0667"/>
        <rect x="213.33" y="631.85" width="42.667" height="42.667" fill="none" stroke-width="1.0667"/>
        <rect x="213.33" y="674.52" width="42.667" height="42.667" fill="none" stroke-width="1.0667"/>
        <rect x="213.33" y="589.19" width="42.667" height="42.667" fill="none" stroke-width="1.0667"/>
        <rect x="213.33" y="717.19" width="42.667" height="42.667" fill="none" stroke-width="1.0667"/>
        <rect x="298.67" y="546.52" width="42.667" height="42.667" fill="none" stroke-width="1.0667"/>
        <rect x="298.67" y="631.85" width="42.667" height="42.667" fill="none" stroke-width="1.0667"/>
        <rect x="298.67" y="674.52" width="42.667" height="42.667" fill="none" stroke-width="1.0667"/>
        <rect x="298.67" y="589.19" width="42.667" height="42.667" fill="none" stroke-width="1.0667"/>
        <rect x="298.67" y="717.19" width="42.667" height="42.667" fill="none" stroke-width="1.0667"/>
        <rect x="170.67" y="546.52" width="42.667" height="42.667" fill="none" stroke-width="1.0667"/>
        <rect x="170.67" y="631.85" width="42.667" height="42.667" fill="none" stroke-width="1.0667"/>
        <rect x="170.67" y="674.52" width="42.667" height="42.667" fill="none" stroke-width="1.0667"/>
        <rect x="170.67" y="589.19" width="42.667" height="42.667" fill="none" stroke-width="1.0667"/>
        <rect x="170.67" y="717.19" width="42.667" height="42.667" fill="none" stroke-width="1.0667"/>
        <rect x="256" y="546.52" width="42.667" height="42.667" fill="none" stroke-width="1.0667"/>
        <rect x="256" y="631.85" width="42.667" height="42.667" fill="none" stroke-width="1.0667"/>
        <rect x="256" y="674.52" width="42.667" height="42.667" fill="none" stroke-width="1.0667"/>
        <rect x="256" y="589.19" width="42.667" height="42.667" fill="none" stroke-width="1.0667"/>
        <rect x="256" y="717.19" width="42.667" height="42.667" fill="none" stroke-width="1.0667"/>
        <rect x="128" y="759.85" width="42.667" height="42.667" fill="none" stroke-width="1.0667"/>
        <rect x="213.33" y="759.85" width="42.667" height="42.667" fill="none" stroke-width="1.0667"/>
        <rect x="298.67" y="759.85" width="42.667" height="42.667" fill="none" stroke-width="1.0667"/>
        <rect x="170.67" y="759.85" width="42.667" height="42.667" fill="none" stroke-width="1.0667"/>
        <rect x="256" y="759.85" width="42.667" height="42.667" fill="none" stroke-width="1.0667"/>
        <rect x="341.33" y="589.19" width="42.667" height="42.667" fill="none" stroke-width="1.0667"/>
        <rect x="341.33" y="631.85" width="42.667" height="42.667" fill="none" stroke-width="1.0667"/>
        <rect x="341.33" y="717.19" width="42.667" height="42.667" fill="none" stroke-width="1.0667"/>
        <rect x="341.33" y="546.52" width="42.667" height="42.667" fill="none" stroke-width="1.0667"/>
        <rect x="341.33" y="674.52" width="42.667" height="42.667" fill="none" stroke-width="1.0667"/>
        <rect x="341.33" y="759.85" width="42.667" height="42.667" fill="none" stroke-width="1.0667"/>
        <rect x="160" y="578.52" width="192" height="192" fill="none" stroke-width="1.0667"/>
        <g transform="matrix(.37344 0 0 .37344 4.7333 1097.4)">
            <path d="m0 0h51.2v51.2h-51.2z" fill="none" stroke-width="1.0667"/>
        </g>
        <g transform="matrix(.36471 0 0 .36471 5.1356 1097.4)">
            <path d="m0 0h51.2v51.2h-51.2z" fill="none" stroke-width="1.0667"/>
        </g>
        <g transform="matrix(.41585 0 0 .41585 84.325 1055.9)">
            <g transform="matrix(.062269 0 0 .062269 -28.238 185.29)">
                <g transform="matrix(38.618 0 0 38.618 14724 -13542)">
                    <g transform="matrix(.71436 0 0 .71436 -400.52 188.34)">
                        <path d="m1293.2-120.67c-181.75 0.2763-511.18 0.13525-699.05 0.13998-2.3216 10.413-3.593 21.251-3.593 32.384v114c207.65 0.73695 494.72 0.38136 706.23 0.3733v-114.37c0-11.18-1.2522-22.07-3.593-32.523zm-458.69 295.56c-78.385-4e-3 -158.85 0.17892-243.95 0.55995v138.63c286.34-0.39317 421.73-0.13827 706.23-0.32664v-137.75c-163.2-0.53005-311.22-1.1113-462.28-1.1199z" opacity="0" stroke-width="1.4932"/>
                    </g>
                </g>
            </g>
        </g>
        <path d="m24.549 1119.5c0.66325 0 1.1979-0.5346 1.1979-1.1979v-0.3333c0 0.6632-0.53461 1.1978-1.1979 1.1978h-20.354c-0.66325 0-1.1979-0.5346-1.1979-1.1978v0.3333c0 0.6633 0.53461 1.1979 1.1979 1.1979z" fill="#1a237e" opacity=".2"/>
    </g>
    <g transform="matrix(1.1791 0 0 1.1791 -12.145 -15.403)" stroke="#fff" stroke-width=".067001">
        <path d="m24.868 26.992c0.1847-0.11415 0.15856-0.46225-0.04048-0.53914-0.11177-0.04318-0.23182 0.01088-0.29297 0.13192-0.06643 0.1315-0.03988 0.29106 0.06407 0.38496 0.05244 0.04738 0.07492 0.05658 0.13824 0.05658 0.04832 0 0.09566-0.01239 0.13114-0.03432zm-3.0945-0.11482c0.24395-0.0676 0.43332-0.20923 0.51544-0.38551 0.06403-0.13744 0.07126-0.34131 0.0158-0.44546-0.0439-0.08243-0.1153-0.13773-0.21479-0.16635-0.03792-0.01091-0.23639-0.02329-0.45767-0.02855-0.30261-0.0072-0.39233-0.01415-0.39787-0.03084-0.0039-0.01185 0.02684-0.05412 0.06838-0.09393l0.07553-0.07237h0.13513c0.15673 0 0.29471-0.03182 0.39642-0.09143 0.10128-0.05935 0.2117-0.18859 0.25109-0.29385 0.04059-0.10847 0.04496-0.29086 9e-3 -0.37683-0.01348-0.03225-0.0245-0.06142-0.0245-0.06481 0-0.0034 0.05881-0.0062 0.13068-0.0062h0.13068v-0.303l-0.27858 0.0064c-0.22126 0.0051-0.29786 9.82e-4 -0.37228-0.0199-0.20722-0.05814-0.42123-0.04125-0.60225 0.04755-0.1906 0.09349-0.29073 0.24891-0.31023 0.48153-0.0156 0.18609 0.06759 0.39166 0.20486 0.50622l0.05984 0.04994-0.04742 0.03627c-0.18538 0.14179-0.20351 0.15992-0.23038 0.23029-0.02682 0.07022-0.02671 0.07623 0.0024 0.13561 0.02614 0.05339 0.09921 0.1117 0.17743 0.1416 9e-3 0.0034-0.02283 0.04542-0.07071 0.09329-0.11087 0.11088-0.14982 0.18707-0.14982 0.29308 0 0.11043 0.04717 0.19885 0.14333 0.26866 0.07996 0.05805 0.2413 0.11672 0.35489 0.12906 0.12074 0.01311 0.36601-0.0073 0.48558-0.04046zm-0.41751-0.299c-0.0961-0.02583-0.16102-0.07188-0.1812-0.12852-0.01225-0.03438-0.0047-0.06295 0.03981-0.15064l0.05493-0.10822 0.31695 0.0053c0.31148 0.0052 0.31749 6e-3 0.34853 0.04432 0.07812 0.09656-0.08798 0.28056-0.3034 0.33608-0.11555 0.02979-0.1698 0.03011-0.27561 0.0017zm0.0381-1.2698c-0.08589-0.0576-0.13498-0.16441-0.12479-0.27152 0.02581-0.27129 0.29983-0.35886 0.4574-0.14617 0.05152 0.06954 0.05736 0.23566 0.01114 0.31699-0.04979 0.0876-0.10677 0.12463-0.20376 0.13241-0.06686 0.0054-0.09383-7.64e-4 -0.13999-0.0317zm3.5695 0.27506c-0.0051-0.30699-0.0091-0.68129-0.0089-0.83178l4e-4 -0.27361h-0.44102l-6.55e-4 0.23278c-0.0023 0.80914 0.0034 1.41 0.01348 1.42 0.01516 0.01506 0.17583 0.023 0.32684 0.01616l0.11914-0.0054zm-1.7277 0.53799c0.10112-0.01298 0.22888-0.08126 0.34408-0.18388l0.10098-0.08995v0.26397h0.44105v-1.6825h-0.44105v1.0049l-0.11962 0.1142c-0.06579 0.06281-0.13713 0.12828-0.15853 0.14549-0.14226 0.11442-0.2658 0.09656-0.28717-0.04152-0.0047-0.03031-0.0099-0.31607-0.01156-0.63501l-3e-3 -0.5799-0.44922-9e-3 -3.45e-4 0.11072c-0.0038 1.2025 9.1e-4 1.2966 0.06965 1.4074 0.02017 0.03252 0.0347 0.06519 0.03229 0.0726-0.0024 0.0074 0.0031 0.0088 0.01235 0.0031 0.0092-0.0057 0.01674-0.0034 0.01674 0.0052 0 0.04105 0.25595 0.11926 0.35121 0.10732 0.01797-0.0023 0.06394-0.0081 0.10216-0.01302zm3.0338-9.1e-4c0.30319-0.07897 0.46912-0.30363 0.41564-0.56278-0.02361-0.11445-0.06309-0.1931-0.12952-0.25804-0.05546-0.05423-0.26331-0.16227-0.43911-0.22827-0.23364-0.0877-0.29588-0.13006-0.29588-0.20133 0-0.09799 0.1306-0.15411 0.32348-0.13899 0.08854 0.0069 0.14019 0.02405 0.27086 0.08973 0.15634 0.07859 0.18975 0.08621 0.18975 0.04331 0-0.0112 0.02573-0.08417 0.05717-0.16215 0.03145-0.07798 0.05717-0.14605 0.05717-0.15125 0-0.0213-0.24544-0.11954-0.3625-0.14508-0.16894-0.03686-0.45942-0.03285-0.57088 0.0079-0.17814 0.06511-0.29739 0.1649-0.35889 0.3003-0.04351 0.0958-0.04171 0.28058 0.0037 0.37713 0.06049 0.12868 0.2288 0.25194 0.4555 0.33356 0.03145 0.01132 0.07187 0.02643 0.08984 0.03359 0.24517 0.09756 0.24858 0.09966 0.27867 0.17123 0.02933 0.06976-0.0057 0.13214-0.08676 0.15466-0.1588 0.0441-0.34949 0.0059-0.57152-0.11456-0.08734-0.04738-0.12786-0.06156-0.14031-0.04911-0.0096 0.0096-0.01272 0.0175-0.0069 0.0175 0.0059 0-0.01877 0.07069-0.05473 0.15708s-0.06317 0.15904-0.06047 0.16144c0.02984 0.02647 0.25407 0.12284 0.32344 0.139 0.04941 0.01151 0.1119 0.02656 0.13885 0.03343 0.08577 0.02187 0.37716 0.01678 0.47336-0.0083zm-8.4093-0.02937c0.0125-0.01685 0.01425-0.11924 0.0062-0.35937-9.1e-4 -0.02656-0.03516-0.02858-0.48272-0.02858h-0.48176l-0.0084-1.9684h-0.45738l-0.0044 1.1516c-0.0024 0.6334-4.36e-4 1.1682 0.0044 1.1884l0.0088 0.03675h0.7001c0.54111 0 0.70354-0.0046 0.71525-0.02042zm0.68733-0.82539 0.0042-0.83764-0.44951 9e-3 -0.0043 0.81676c-0.0023 0.44922-6.55e-4 0.82616 0.0038 0.83765 0.0061 0.01585 0.0604 0.01979 0.22478 0.01634l0.21677-0.0046zm0.91002 0.33577 5.09e-4 -0.50186 0.11435-0.11614c0.18633-0.18926 0.30425-0.25406 0.38432-0.21121 0.01926 0.01031 0.03107 0.0227 0.02624 0.02753-0.0048 0.0048 0.0019 0.01947 0.01494 0.03251 0.01992 0.01992 0.02372 0.1244 0.02372 0.65146l1e-6 0.62774h0.45738l-1.94e-4 -0.65749c-2.12e-4 -0.71919-0.0062-0.77701-0.09384-0.90212-0.02747-0.03922-0.07875-0.08219-0.1271-0.1065-0.06937-0.03488-0.10345-0.04077-0.23625-0.04084-0.14165-8.1e-5 -0.16508 0.0046-0.26861 0.05363-0.06238 0.02954-0.15199 0.09019-0.19913 0.13477s-0.08874 0.08105-0.09246 0.08105c-0.0037 0-0.0057-0.05513-0.0043-0.12251l0.0024-0.12251h-0.45069v1.6834l0.44819-9e-3 5.1e-4 -0.50186zm8.0702-0.0019 8.1e-5 -0.50373 0.1433-0.13854c0.20912-0.20219 0.33106-0.24519 0.39946-0.14088 0.026 0.03965 0.02928 0.10464 0.03377 0.66948l5e-3 0.62557h0.44116l-0.0054-0.7065c-0.0059-0.77785-0.0039-0.76189-0.11158-0.88451-0.07267-0.08276-0.17368-0.11609-0.35048-0.11563-0.17203 4.37e-4 -0.26835 0.03678-0.41459 0.15642-0.04834 0.03954-0.0998 0.08076-0.11435 0.0916-0.02426 0.01807-0.02637-0.028-0.02543-0.5554 5.46e-4 -0.3163-0.0021-0.58428-0.0058-0.59552-0.0088-0.0263-0.42065-0.02932-0.43679-0.0032-0.01428 0.0231-0.01427 2.5724 9e-6 2.5955 0.0075 0.01219 0.08174 0.01664 0.2264 0.01358l0.21519-0.0045 8.1e-5 -0.50373zm-9.1123-1.48c0.20751-0.09422 0.21019-0.44232 0.0042-0.54882-0.18771-0.09707-0.38192 0.10885-0.33559 0.35581 0.01372 0.07311 0.11264 0.18761 0.17858 0.20669 0.07311 0.02116 0.07679 0.02083 0.15279-0.01368z" fill="#fff" stroke="#fff" stroke-width=".067001"/>
    </g>
</svg>
