<?xml version="1.0" encoding="UTF-8"?>
<svg version="1.1" viewBox="0 0 26.95 26.95" xmlns="http://www.w3.org/2000/svg">
    <defs>
        <filter id="filter6206-7" color-interpolation-filters="sRGB">
            <feGaussianBlur stdDeviation="0.658125"/>
        </filter>
    </defs>
    <g transform="translate(0 -1025.4)">
        <path transform="matrix(1.0107 0 0 .99762 -.087875 2.579)" d="m4.4177 1028.2v1.6051h-1.6052v18.192h1.6052v2.1402h18.192v-2.1402h2.1402v-18.192h-2.1402v-1.6051h-18.192z" fill="#263238" filter="url(#filter6206-7)" opacity=".2"/>
        <rect x="2.8113" y="1028.2" width="21.327" height="21.327" rx="1.1225" ry="1.1226" fill="#cddc39"/>
        <g transform="translate(-20.925 990.46)">
            <path d="m0 0h48v48h-48z" fill="none"/>
            <g transform="matrix(.33601 0 0 .33601 1.434 68.477)">
                <path d="m0 0h48v48h-48z" fill="none"/>
            </g>
            <g transform="matrix(.37187 0 0 .37187 36.377 59.287)">
                <path d="m0 0h48v48h-48z" fill="none"/>
                <g transform="matrix(2.6891 0 0 2.6891 -77.724 -45.422)">
                    <path d="m0 0h48v48h-48z" fill="none"/>
                </g>
            </g>
        </g>
        <path transform="translate(0 1025.4)" d="m3.9336 2.8105c-0.62186 0-1.123 0.50115-1.123 1.123v0.3125c0-0.6219 0.50118-1.123 1.123-1.123h19.082c0.62186 0 1.123 0.50115 1.123 1.123v-0.3125c0-0.6219-0.50118-1.123-1.123-1.123h-19.082z" fill="#fff" opacity=".2"/>
        <rect x="120" y="512.36" width="40" height="40" fill="none"/>
        <rect x="120" y="592.36" width="40" height="40" fill="none"/>
        <rect x="120" y="632.36" width="40" height="40" fill="none"/>
        <rect x="120" y="552.36" width="40" height="40" fill="none"/>
        <rect x="120" y="672.36" width="40" height="40" fill="none"/>
        <rect x="200" y="512.36" width="40" height="40" fill="none"/>
        <rect x="200" y="592.36" width="40" height="40" fill="none"/>
        <rect x="200" y="632.36" width="40" height="40" fill="none"/>
        <rect x="200" y="552.36" width="40" height="40" fill="none"/>
        <rect x="200" y="672.36" width="40" height="40" fill="none"/>
        <rect x="280" y="512.36" width="40" height="40" fill="none"/>
        <rect x="280" y="592.36" width="40" height="40" fill="none"/>
        <rect x="280" y="632.36" width="40" height="40" fill="none"/>
        <rect x="280" y="552.36" width="40" height="40" fill="none"/>
        <rect x="280" y="672.36" width="40" height="40" fill="none"/>
        <rect x="160" y="512.36" width="40" height="40" fill="none"/>
        <rect x="160" y="592.36" width="40" height="40" fill="none"/>
        <rect x="160" y="632.36" width="40" height="40" fill="none"/>
        <rect x="160" y="552.36" width="40" height="40" fill="none"/>
        <rect x="160" y="672.36" width="40" height="40" fill="none"/>
        <rect x="240" y="512.36" width="40" height="40" fill="none"/>
        <rect x="240" y="592.36" width="40" height="40" fill="none"/>
        <rect x="240" y="632.36" width="40" height="40" fill="none"/>
        <rect x="240" y="552.36" width="40" height="40" fill="none"/>
        <rect x="240" y="672.36" width="40" height="40" fill="none"/>
        <rect x="120" y="712.36" width="40" height="40" fill="none"/>
        <rect x="200" y="712.36" width="40" height="40" fill="none"/>
        <rect x="280" y="712.36" width="40" height="40" fill="none"/>
        <rect x="160" y="712.36" width="40" height="40" fill="none"/>
        <rect x="240" y="712.36" width="40" height="40" fill="none"/>
        <rect x="320" y="552.36" width="40" height="40" fill="none"/>
        <rect x="320" y="592.36" width="40" height="40" fill="none"/>
        <rect x="320" y="672.36" width="40" height="40" fill="none"/>
        <rect x="320" y="512.36" width="40" height="40" fill="none"/>
        <rect x="320" y="632.36" width="40" height="40" fill="none"/>
        <rect x="320" y="712.36" width="40" height="40" fill="none"/>
        <rect x="150" y="542.36" width="180" height="180" fill="none"/>
        <g transform="matrix(.37344 0 0 .37344 4.4375 1028.8)">
            <path d="m0 0h48v48h-48z" fill="none"/>
        </g>
        <g transform="matrix(.36471 0 0 .36471 4.8146 1028.8)">
            <path d="m0 0h48v48h-48z" fill="none"/>
        </g>
        <g transform="matrix(.41585 0 0 .41585 79.055 989.88)">
            <g transform="matrix(.062269 0 0 .062269 -26.473 173.71)">
                <g transform="matrix(38.618 0 0 38.618 13804 -12696)">
                    <g transform="matrix(.71436 0 0 .71436 -375.49 176.57)">
                        <path transform="matrix(1.3999 0 0 1.3999 525.63 -247.17)" d="m490.56 95.75c-121.72 0.18504-342.34 0.090577-468.16 0.09375-1.5548 6.9739-2.4062 14.232-2.4062 21.688v76.344c139.06 0.49354 331.32 0.2554 472.97 0.25v-76.594c0-7.4875-0.8386-14.78-2.4062-21.781zm-307.19 197.94c-52.495-3e-3 -106.38 0.11982-163.38 0.375v92.844c191.76-0.26331 282.43-0.0926 472.97-0.21875v-92.25c-109.29-0.35498-208.43-0.74426-309.59-0.75z" opacity="0"/>
                    </g>
                </g>
            </g>
        </g>
        <path d="m23.015 1049.6c0.6218 0 1.123-0.5012 1.123-1.123v-0.3125c0 0.6218-0.5012 1.123-1.123 1.123h-19.082c-0.6218 0-1.123-0.5012-1.123-1.123v0.3125c0 0.6218 0.5012 1.123 1.123 1.123h19.082z" fill="#263238" opacity=".2"/>
    </g>
    <g transform="translate(-.00017188 -1025.4)" fill="none" stroke="#fff" stroke-width=".5375">
        <path transform="translate(1.7188e-4,1025.4)" d="m13.533 7.4805-0.14453 0.09375c-1.6069 1.053-3.0157 2.2014-3.9922 3.5859-0.97651 1.3846-1.5122 3.0124-1.3652 4.9609l0.0019531 0.023437 0.0058594 0.023438c0.3804 1.4825 1.2953 2.3506 2.3262 2.8105 1.0309 0.4599 2.1706 0.53553 3.0781 0.51953 1.7998 0.01 3.1336-0.32624 4.0488-0.99414 0.91634-0.6687 1.3803-1.6715 1.4512-2.8672v-0.009766-0.009765c-0.02468-2.1722-0.64906-3.7667-1.6191-5.0176-0.97008-1.251-2.2724-2.1599-3.6465-3.0293l-0.14453-0.089844zm-0.005859 0.66016c1.2981 0.8288 2.504 1.6704 3.373 2.791 0.90234 1.1636 1.478 2.6152 1.5039 4.6816-0.06554 1.075-0.44906 1.8868-1.2305 2.457-0.78356 0.5718-1.9984 0.90143-3.7324 0.89063h-0.003906-0.003906c-0.86828 0.015-1.9351-0.065057-2.8496-0.47266-0.9088-0.4055-1.67-1.1164-2.0156-2.4355-0.13043-1.8162 0.35596-3.2895 1.2676-4.582 0.88386-1.2532 2.1864-2.3279 3.6914-3.3301zm-0.007813 0.74023-0.14453 0.09375c-1.2684 0.8312-2.3829 1.7387-3.1582 2.8379-0.77526 1.0992-1.2026 2.3966-1.0859 3.9434l0.0019531 0.025391 0.0058594 0.021484c0.30355 1.183 1.0392 1.8843 1.8633 2.252 0.82406 0.3676 1.7305 0.42676 2.4492 0.41406 1.4238 0.01 2.4862-0.25882 3.2207-0.79492 0.73564-0.5369 1.1095-1.345 1.166-2.2988v-0.009766-0.009765c-0.01955-1.7209-0.51628-2.9905-1.2871-3.9844-0.77083-0.994-1.8013-1.7128-2.8848-2.3984l-0.14648-0.091797zm0.009766 0.66992c1.0004 0.6414 1.9312 1.291 2.5977 2.1504 0.70308 0.9066 1.1511 2.0334 1.1719 3.6484-0.05117 0.8331-0.3446 1.4522-0.94531 1.8906-0.60286 0.44-1.5463 0.69825-2.9043 0.68945h-0.003907-0.003906c-0.67948 0.011999-1.513-0.050988-2.2207-0.36719-0.70202-0.3132-1.2821-0.8557-1.5508-1.875-0.1002-1.4145 0.27596-2.5573 0.98633-3.5645 0.68187-0.9667 1.7087-1.793 2.873-2.5723zm-0.023438 0.83008-0.14453 0.09375c-0.90834 0.5952-1.7103 1.2474-2.2715 2.043s-0.87343 1.7418-0.78906 2.8613l0.001953 0.023438 0.00586 0.021484c0.22178 0.8644 0.76899 1.3868 1.373 1.6562 0.60277 0.2689 1.256 0.31164 1.7734 0.30273 1.0259 0.01 1.8008-0.18368 2.3438-0.58008 0.54339-0.3966 0.82003-1.0008 0.86133-1.6973l0.001953-0.009766v-0.009765c-0.01409-1.2407-0.37474-2.1642-0.93359-2.8848-0.55885-0.7206-1.302-1.2386-2.0762-1.7285l-0.14648-0.091797zm0.009766 0.66992c0.68973 0.4451 1.3324 0.89212 1.7871 1.4785 0.49143 0.6336 0.80342 1.4168 0.81836 2.5527-0.03617 0.5748-0.2325 0.98726-0.64062 1.2852-0.41061 0.2997-1.0674 0.48482-2.0254 0.47852h-0.001953-0.003906c-0.47867 0.01-1.0612-0.037959-1.5488-0.25586-0.48245-0.2152-0.87211-0.58346-1.0586-1.2852-0.06632-0.9839 0.19235-1.7746 0.6875-2.4766 0.468-0.6635 1.1828-1.2345 1.9863-1.7773z" color="#000000" color-rendering="auto" dominant-baseline="auto" fill="#fff" image-rendering="auto" shape-rendering="auto" solid-color="#000000" stroke="none" style="font-feature-settings:normal;font-variant-alternates:normal;font-variant-caps:normal;font-variant-ligatures:normal;font-variant-numeric:normal;font-variant-position:normal;isolation:auto;mix-blend-mode:normal;shape-padding:0;text-decoration-color:#000000;text-decoration-line:none;text-decoration-style:solid;text-indent:0;text-orientation:mixed;text-transform:none;white-space:normal"/>
    </g>
    <g display="none" fill="none">
        <rect transform="rotate(90)" x="7.3342" y="-19.616" width="12.282" height="12.282" display="inline" stroke="#000" stroke-width=".065984"/>
        <rect x="6.7726" y="8.112" width="13.405" height="10.726" stroke="#5261ff" stroke-linecap="round" stroke-linejoin="round" stroke-width=".06524"/>
        <rect transform="rotate(90)" x="6.7726" y="-18.838" width="13.405" height="10.726" display="inline" stroke="#0f0" stroke-linecap="round" stroke-linejoin="round" stroke-width=".06524"/>
    </g>
</svg>
