<?xml version="1.0" encoding="UTF-8"?>
<svg version="1.1" viewBox="0 0 26.95 26.95" xmlns="http://www.w3.org/2000/svg">
    <defs>
        <filter id="filter6206-7" color-interpolation-filters="sRGB">
            <feGaussianBlur stdDeviation="0.658125"/>
        </filter>
    </defs>
    <g transform="translate(0 -1025.4)">
        <path transform="matrix(1.0107 0 0 .99762 -.087875 2.579)" d="m4.4177 1028.2v1.6051h-1.6052v18.192h1.6052v2.1402h18.192v-2.1402h2.1402v-18.192h-2.1402v-1.6051h-18.192z" fill="#3e2723" filter="url(#filter6206-7)" opacity=".2"/>
        <rect x="2.8113" y="1028.2" width="21.327" height="21.327" rx="1.1225" ry="1.1226" fill="#f44336"/>
        <g transform="translate(-20.925 990.46)">
            <path d="m0 0h48v48h-48z" fill="none"/>
            <g transform="matrix(.33601 0 0 .33601 1.434 68.477)">
                <path d="m0 0h48v48h-48z" fill="none"/>
            </g>
            <g transform="matrix(.37187 0 0 .37187 36.377 59.287)">
                <path d="m0 0h48v48h-48z" fill="none"/>
                <g transform="matrix(2.6891 0 0 2.6891 -77.724 -45.422)">
                    <path d="m0 0h48v48h-48z" fill="none"/>
                </g>
            </g>
        </g>
        <path transform="translate(0 1025.4)" d="m3.9336 2.8105c-0.62186 0-1.123 0.50115-1.123 1.123v0.3125c0-0.6219 0.50118-1.123 1.123-1.123h19.082c0.62186 0 1.123 0.50115 1.123 1.123v-0.3125c0-0.6219-0.50118-1.123-1.123-1.123h-19.082z" fill="#fff" opacity=".2"/>
        <rect x="120" y="512.36" width="40" height="40" fill="none"/>
        <rect x="120" y="592.36" width="40" height="40" fill="none"/>
        <rect x="120" y="632.36" width="40" height="40" fill="none"/>
        <rect x="120" y="552.36" width="40" height="40" fill="none"/>
        <rect x="120" y="672.36" width="40" height="40" fill="none"/>
        <rect x="200" y="512.36" width="40" height="40" fill="none"/>
        <rect x="200" y="592.36" width="40" height="40" fill="none"/>
        <rect x="200" y="632.36" width="40" height="40" fill="none"/>
        <rect x="200" y="552.36" width="40" height="40" fill="none"/>
        <rect x="200" y="672.36" width="40" height="40" fill="none"/>
        <rect x="280" y="512.36" width="40" height="40" fill="none"/>
        <rect x="280" y="592.36" width="40" height="40" fill="none"/>
        <rect x="280" y="632.36" width="40" height="40" fill="none"/>
        <rect x="280" y="552.36" width="40" height="40" fill="none"/>
        <rect x="280" y="672.36" width="40" height="40" fill="none"/>
        <rect x="160" y="512.36" width="40" height="40" fill="none"/>
        <rect x="160" y="592.36" width="40" height="40" fill="none"/>
        <rect x="160" y="632.36" width="40" height="40" fill="none"/>
        <rect x="160" y="552.36" width="40" height="40" fill="none"/>
        <rect x="160" y="672.36" width="40" height="40" fill="none"/>
        <rect x="240" y="512.36" width="40" height="40" fill="none"/>
        <rect x="240" y="592.36" width="40" height="40" fill="none"/>
        <rect x="240" y="632.36" width="40" height="40" fill="none"/>
        <rect x="240" y="552.36" width="40" height="40" fill="none"/>
        <rect x="240" y="672.36" width="40" height="40" fill="none"/>
        <rect x="120" y="712.36" width="40" height="40" fill="none"/>
        <rect x="200" y="712.36" width="40" height="40" fill="none"/>
        <rect x="280" y="712.36" width="40" height="40" fill="none"/>
        <rect x="160" y="712.36" width="40" height="40" fill="none"/>
        <rect x="240" y="712.36" width="40" height="40" fill="none"/>
        <rect x="320" y="552.36" width="40" height="40" fill="none"/>
        <rect x="320" y="592.36" width="40" height="40" fill="none"/>
        <rect x="320" y="672.36" width="40" height="40" fill="none"/>
        <rect x="320" y="512.36" width="40" height="40" fill="none"/>
        <rect x="320" y="632.36" width="40" height="40" fill="none"/>
        <rect x="320" y="712.36" width="40" height="40" fill="none"/>
        <rect x="150" y="542.36" width="180" height="180" fill="none"/>
        <g transform="matrix(.37344 0 0 .37344 4.4375 1028.8)">
            <path d="m0 0h48v48h-48z" fill="none"/>
        </g>
        <g transform="matrix(.36471 0 0 .36471 4.8146 1028.8)">
            <path d="m0 0h48v48h-48z" fill="none"/>
        </g>
        <g transform="matrix(.41585 0 0 .41585 79.055 989.88)">
            <g transform="matrix(.062269 0 0 .062269 -26.473 173.71)">
                <g transform="matrix(38.618 0 0 38.618 13804 -12696)">
                    <g transform="matrix(.71436 0 0 .71436 -375.49 176.57)">
                        <path transform="matrix(1.3999 0 0 1.3999 525.63 -247.17)" d="m490.56 95.75c-121.72 0.18504-342.34 0.090577-468.16 0.09375-1.5548 6.9739-2.4062 14.232-2.4062 21.688v76.344c139.06 0.49354 331.32 0.2554 472.97 0.25v-76.594c0-7.4875-0.8386-14.78-2.4062-21.781zm-307.19 197.94c-52.495-3e-3 -106.38 0.11982-163.38 0.375v92.844c191.76-0.26331 282.43-0.0926 472.97-0.21875v-92.25c-109.29-0.35498-208.43-0.74426-309.59-0.75z" opacity="0"/>
                    </g>
                </g>
            </g>
        </g>
        <path d="m23.015 1049.6c0.6218 0 1.123-0.5012 1.123-1.123v-0.3125c0 0.6218-0.5012 1.123-1.123 1.123h-19.082c-0.6218 0-1.123-0.5012-1.123-1.123v0.3125c0 0.6218 0.5012 1.123 1.123 1.123h19.082z" fill="#3e2723" opacity=".2"/>
    </g>
    <g transform="matrix(-.70711 -.70711 .70711 -.70711 -23.025 61.894)">
        <g transform="matrix(1.3881 0 0 1.3881 -3.2706 -23.303)">
            <g fill="#fff">
                <path d="m6.0863 64.01a3.3114 3.3114 0 0 1-3.6e-5 -4.683c0.57997-0.57997 1.3257-0.90053 2.0858-0.96178l1.4e-5 -0.19451-0.28461-0.28461 7e-6 -3.6023 1.0807-7e-6 -8e-6 3.6023-0.28458 0.28458 3.7e-5 0.19456c0.76006 0.06122 1.5058 0.38184 2.0857 0.96181a3.3114 3.3114 0 0 1-1.5e-5 4.683 3.3114 3.3114 0 0 1-4.683 1.5e-5m0.72046-0.72046c0.90055 0.90055 2.3415 0.90055 3.242-2.2e-5 0.90058-0.90058 0.90057-2.3415 2.2e-5 -3.242-0.9006-0.9006-2.3415-0.9006-3.2421-3e-5 -0.90058 0.90058-0.90057 2.3415 2.9e-5 3.2421z"/>
                <path d="m7.2078 62.696q-0.03617-0.03617-0.03628-0.08924-1e-5 -0.05297 0.03623-0.08921l0.31219-0.31219q-0.2383-0.2383-0.31079-0.49755l-0.58118-0.0014q-0.05297-1e-5 -0.08924-0.03628-0.03617-0.03617-0.03618-0.08914-0.0014-0.05158 0.03623-0.08921t0.08921-0.03623l0.55048-0.0014q3.46e-4 -0.01359 0.0026-0.03925 0.0027-0.02515 0.0188-0.09827 0.01607-0.07313 0.03965-0.14153t0.07404-0.15453q0.04995-0.08663 0.11685-0.15353l1.2487 1.2487 0.1784-0.1784-1.2487-1.2487q0.07108-0.07108 0.16031-0.12261 0.08923-0.05154 0.1671-0.07541t0.14634-0.03763q0.06811-0.01412 0.10596-0.01529l0.04026-0.0015-0.03348-0.54358q-0.0017-0.05742 0.03735-0.09645 0.03345-0.03345 0.08234-0.03751 0.05144-0.0015 0.09062 0.03347 0.03877 0.03459 0.04319 0.0864l0.03482 0.59788q0.23977 0.0781 0.46274 0.30107l0.31219-0.31219q0.03623-0.03623 0.08921-0.03623 0.05297 1.1e-5 0.08919 0.03623 0.03617 0.03617 0.03623 0.08919 1e-5 0.05297-0.03623 0.08921l-0.31219 0.31219 0.40972 0.40972 0.48222-7e-6q0.05297 1e-5 0.08919 0.03623 0.03617 0.03617 0.03628 0.08924 1e-5 0.05297-0.03623 0.08921-0.03624 0.03623-0.08921 0.03623l-0.48227-4.4e-5 -1.1763 1.1763 4.5e-5 0.48227q1e-5 0.05297-0.03623 0.08921-0.03623 0.03623-0.08921 0.03623-0.05297-1.1e-5 -0.08924-0.03628-0.03617-0.03617-0.03623-0.08919l7e-6 -0.48222-0.40972-0.40972-0.31219 0.31219q-0.03623 0.03623-0.08921 0.03623-0.05297-1e-5 -0.08919-0.03623zm1.4717 0.13375 0.89198-0.89198q0.18538 0.18538 0.18537 0.446-4e-6 0.26062-0.18537 0.44598-0.18536 0.18536-0.44598 0.18537-0.26062 4e-6 -0.446-0.18537z"/>
            </g>
        </g>
    </g>
    <g display="none" fill="none">
        <rect transform="rotate(90)" x="7.3342" y="-19.616" width="12.282" height="12.282" display="inline" stroke="#000" stroke-width=".065984"/>
        <rect x="6.7726" y="8.112" width="13.405" height="10.726" stroke="#5261ff" stroke-linecap="round" stroke-linejoin="round" stroke-width=".06524"/>
        <rect transform="rotate(90)" x="6.7726" y="-18.838" width="13.405" height="10.726" display="inline" stroke="#0f0" stroke-linecap="round" stroke-linejoin="round" stroke-width=".06524"/>
    </g>
</svg>
