<?xml version="1.0" encoding="UTF-8"?>
<svg version="1.1" viewBox="0 0 28.747 28.747" xmlns="http://www.w3.org/2000/svg" xmlns:osb="http://www.openswatchbook.org/uri/2009/osb" xmlns:xlink="http://www.w3.org/1999/xlink">
    <defs>
        <filter id="filter6206-7" color-interpolation-filters="sRGB">
            <feGaussianBlur stdDeviation="0.658125"/>
        </filter>
    </defs>
    <g transform="translate(0 -1093.8)">
        <path transform="matrix(1.0781 0 0 1.0641 -.093733 2.7509)" d="m4.4177 1028.2v1.6051h-1.6052v18.192h1.6052v2.1402h18.192v-2.1402h2.1402v-18.192h-2.1402v-1.6051z" fill="#1a237e" filter="url(#filter6206-7)" opacity=".2"/>
        <rect x="2.9987" y="1096.8" width="22.749" height="22.749" rx="1.1973" ry="1.1974" fill="#3f51b5"/>
        <g transform="translate(-22.32 1056.5)">
            <path d="m0 0h51.2v51.2h-51.2z" fill="none" stroke-width="1.0667"/>
            <g transform="matrix(.33601 0 0 .33601 1.5296 73.043)">
                <path d="m0 0h51.2v51.2h-51.2z" fill="none" stroke-width="1.0667"/>
            </g>
            <g transform="matrix(.37187 0 0 .37187 38.802 63.239)">
                <path d="m0 0h51.2v51.2h-51.2z" fill="none" stroke-width="1.0667"/>
                <g transform="matrix(2.6891 0 0 2.6891 -82.906 -48.45)">
                    <path d="m0 0h51.2v51.2h-51.2z" fill="none" stroke-width="1.0667"/>
                </g>
            </g>
        </g>
        <path d="m4.1958 1096.8c-0.66332 0-1.1979 0.5346-1.1979 1.1979v0.3334c0-0.6634 0.53459-1.1979 1.1979-1.1979h20.354c0.66332 0 1.1979 0.5345 1.1979 1.1979v-0.3334c0-0.6633-0.5346-1.1979-1.1979-1.1979z" fill="#fff" opacity=".2"/>
        <rect x="128" y="546.52" width="42.667" height="42.667" fill="none" stroke-width="1.0667"/>
        <rect x="128" y="631.85" width="42.667" height="42.667" fill="none" stroke-width="1.0667"/>
        <rect x="128" y="674.52" width="42.667" height="42.667" fill="none" stroke-width="1.0667"/>
        <rect x="128" y="589.19" width="42.667" height="42.667" fill="none" stroke-width="1.0667"/>
        <rect x="128" y="717.19" width="42.667" height="42.667" fill="none" stroke-width="1.0667"/>
        <rect x="213.33" y="546.52" width="42.667" height="42.667" fill="none" stroke-width="1.0667"/>
        <rect x="213.33" y="631.85" width="42.667" height="42.667" fill="none" stroke-width="1.0667"/>
        <rect x="213.33" y="674.52" width="42.667" height="42.667" fill="none" stroke-width="1.0667"/>
        <rect x="213.33" y="589.19" width="42.667" height="42.667" fill="none" stroke-width="1.0667"/>
        <rect x="213.33" y="717.19" width="42.667" height="42.667" fill="none" stroke-width="1.0667"/>
        <rect x="298.67" y="546.52" width="42.667" height="42.667" fill="none" stroke-width="1.0667"/>
        <rect x="298.67" y="631.85" width="42.667" height="42.667" fill="none" stroke-width="1.0667"/>
        <rect x="298.67" y="674.52" width="42.667" height="42.667" fill="none" stroke-width="1.0667"/>
        <rect x="298.67" y="589.19" width="42.667" height="42.667" fill="none" stroke-width="1.0667"/>
        <rect x="298.67" y="717.19" width="42.667" height="42.667" fill="none" stroke-width="1.0667"/>
        <rect x="170.67" y="546.52" width="42.667" height="42.667" fill="none" stroke-width="1.0667"/>
        <rect x="170.67" y="631.85" width="42.667" height="42.667" fill="none" stroke-width="1.0667"/>
        <rect x="170.67" y="674.52" width="42.667" height="42.667" fill="none" stroke-width="1.0667"/>
        <rect x="170.67" y="589.19" width="42.667" height="42.667" fill="none" stroke-width="1.0667"/>
        <rect x="170.67" y="717.19" width="42.667" height="42.667" fill="none" stroke-width="1.0667"/>
        <rect x="256" y="546.52" width="42.667" height="42.667" fill="none" stroke-width="1.0667"/>
        <rect x="256" y="631.85" width="42.667" height="42.667" fill="none" stroke-width="1.0667"/>
        <rect x="256" y="674.52" width="42.667" height="42.667" fill="none" stroke-width="1.0667"/>
        <rect x="256" y="589.19" width="42.667" height="42.667" fill="none" stroke-width="1.0667"/>
        <rect x="256" y="717.19" width="42.667" height="42.667" fill="none" stroke-width="1.0667"/>
        <rect x="128" y="759.85" width="42.667" height="42.667" fill="none" stroke-width="1.0667"/>
        <rect x="213.33" y="759.85" width="42.667" height="42.667" fill="none" stroke-width="1.0667"/>
        <rect x="298.67" y="759.85" width="42.667" height="42.667" fill="none" stroke-width="1.0667"/>
        <rect x="170.67" y="759.85" width="42.667" height="42.667" fill="none" stroke-width="1.0667"/>
        <rect x="256" y="759.85" width="42.667" height="42.667" fill="none" stroke-width="1.0667"/>
        <rect x="341.33" y="589.19" width="42.667" height="42.667" fill="none" stroke-width="1.0667"/>
        <rect x="341.33" y="631.85" width="42.667" height="42.667" fill="none" stroke-width="1.0667"/>
        <rect x="341.33" y="717.19" width="42.667" height="42.667" fill="none" stroke-width="1.0667"/>
        <rect x="341.33" y="546.52" width="42.667" height="42.667" fill="none" stroke-width="1.0667"/>
        <rect x="341.33" y="674.52" width="42.667" height="42.667" fill="none" stroke-width="1.0667"/>
        <rect x="341.33" y="759.85" width="42.667" height="42.667" fill="none" stroke-width="1.0667"/>
        <rect x="160" y="578.52" width="192" height="192" fill="none" stroke-width="1.0667"/>
        <g transform="matrix(.37344 0 0 .37344 4.7333 1097.4)">
            <path d="m0 0h51.2v51.2h-51.2z" fill="none" stroke-width="1.0667"/>
        </g>
        <g transform="matrix(.36471 0 0 .36471 5.1356 1097.4)">
            <path d="m0 0h51.2v51.2h-51.2z" fill="none" stroke-width="1.0667"/>
        </g>
        <g transform="matrix(.41585 0 0 .41585 84.325 1055.9)">
            <g transform="matrix(.062269 0 0 .062269 -28.238 185.29)">
                <g transform="matrix(38.618 0 0 38.618 14724 -13542)">
                    <g transform="matrix(.71436 0 0 .71436 -400.52 188.34)">
                        <path d="m1293.2-120.67c-181.75 0.2763-511.18 0.13525-699.05 0.13998-2.3216 10.413-3.593 21.251-3.593 32.384v114c207.65 0.73695 494.72 0.38136 706.23 0.3733v-114.37c0-11.18-1.2522-22.07-3.593-32.523zm-458.69 295.56c-78.385-4e-3 -158.85 0.17892-243.95 0.55995v138.63c286.34-0.39317 421.73-0.13827 706.23-0.32664v-137.75c-163.2-0.53005-311.22-1.1113-462.28-1.1199z" opacity="0" stroke-width="1.4932"/>
                    </g>
                </g>
            </g>
        </g>
        <path d="m24.549 1119.5c0.66325 0 1.1979-0.5346 1.1979-1.1979v-0.3333c0 0.6632-0.53461 1.1978-1.1979 1.1978h-20.354c-0.66325 0-1.1979-0.5346-1.1979-1.1978v0.3333c0 0.6633 0.53461 1.1979 1.1979 1.1979z" fill="#1a237e" opacity=".2"/>
    </g>
    <g fill="#fff">
        <path d="m10.073 7.169c-0.16137-3e-3 -0.32161 0.05586-0.44295 0.17721-0.24269 0.24269-0.2352 0.64088 0.01673 0.8928l1.1135 1.1135c-0.99829 0.92069-1.5667 2.2155-1.5684 3.5725h-0.0047c0 0.54097 0.43559 0.97643 0.97656 0.97643h7.8118c0.54097 0 0.97656-0.43546 0.97656-0.97643h-0.0046c-0.0017-1.357-0.57017-2.6518-1.5685-3.5725l1.1136-1.1135c0.25192-0.25192 0.25941-0.65012 0.01673-0.8928-0.12138-0.12134-0.28161-0.18022-0.44298-0.17721-0.16137 3e-3 -0.32389 0.06784-0.44985 0.1938l-1.2639 1.2639c-1.4283-0.75742-3.1398-0.75866-4.5692-0.0033l-1.2606-1.2606c-0.12596-0.12596-0.28848-0.19079-0.44985-0.1938zm1.8702 3.5784c0.46434 2.2e-5 0.84075 0.37644 0.84077 0.84077-2.2e-5 0.46434-0.37644 0.84075-0.84077 0.84077-0.46434-2.2e-5 -0.84075-0.37644-0.84077-0.84077 2.2e-5 -0.46434 0.37644-0.84075 0.84077-0.84077zm4.253 0c0.46439-5e-5 0.84088 0.37638 0.8409 0.84077-2.2e-5 0.46439-0.37651 0.84082-0.8409 0.84077-0.46434-2.2e-5 -0.84075-0.37644-0.84077-0.84077 2.2e-5 -0.46434 0.37644-0.84075 0.84077-0.84077z" opacity=".99"/>
        <path d="m10.178 14.496c-0.55609 0-1.0039 0.44782-1.0039 1.0039v5c0 0.55609 0.44782 1.0039 1.0039 1.0039h7.7871c0.55609 0 1.0039-0.44782 1.0039-1.0039v-5c0-0.55609-0.44782-1.0039-1.0039-1.0039zm3.5996 1.4277h0.61523c0.08509-8.1e-4 0.15808 0.06055 0.17188 0.14453l0.08984 0.5293c0.12842 0.05255 0.24634 0.12257 0.35547 0.20703l0.5-0.19922c0.07907-0.03179 0.16952-0.0011 0.21289 0.07227l0.3125 0.5293c0.0435 0.0727 0.02777 0.16622-0.03711 0.2207l-0.40625 0.34375c0.01202 0.07365 0.02539 0.14504 0.02539 0.22461 0 0.07843-0.01368 0.14997-0.02539 0.22266l0.40039 0.31445c0.06688 0.05285 0.08514 0.14662 0.04297 0.2207l-0.30469 0.53516c-0.04164 0.07197-0.12868 0.10398-0.20703 0.07617l-0.50977-0.18164c-0.11319 0.08802-0.23713 0.15743-0.37109 0.21094l-0.08008 0.53516c-0.01282 0.08401-0.08493 0.14618-0.16992 0.14648h-0.61719c-0.08436-1.51e-4 -0.15624-0.06129-0.16992-0.14453l-0.0918-0.53906c-0.13113-0.05337-0.25225-0.12263-0.36328-0.20898l-0.50586 0.20312c-0.07955 0.03146-0.17014-1.19e-4 -0.21289-0.07422l-0.3125-0.53125c-0.04193-0.07271-0.02544-0.16504 0.03906-0.21875l0.41211-0.34766c-0.01077-0.07193-0.02539-0.14314-0.02539-0.21875 0-0.07819 0.01568-0.14816 0.02734-0.2207l-0.42383-0.33203c-0.06688-0.05285-0.08514-0.14662-0.04297-0.2207l0.3047-0.53516c0.04164-0.07197 0.12868-0.10398 0.20703-0.07617l0.53906 0.19141c0.11258-0.08679 0.23792-0.15404 0.37109-0.20703l0.08008-0.52344c0.01195-0.0848 0.08429-0.14799 0.16992-0.14844zm0.30469 1.3496c-0.40493 0-0.72266 0.31772-0.72266 0.72266 0 0.40493 0.31733 0.72266 0.72266 0.72266 0.40533 0 0.72266-0.31733 0.72266-0.72266 0-0.40533-0.31773-0.72266-0.72266-0.72266z"/>
    </g>
    <g display="none" fill="none">
        <rect transform="rotate(90)" x="7.8232" y="-20.923" width="13.1" height="13.1" display="inline" stroke="#000" stroke-width=".070382"/>
        <rect x="7.2241" y="8.6528" width="14.298" height="11.441" stroke="#5261ff" stroke-linecap="round" stroke-linejoin="round" stroke-width=".06959"/>
        <rect transform="rotate(90)" x="7.2241" y="-20.094" width="14.298" height="11.441" display="inline" stroke="#0f0" stroke-linecap="round" stroke-linejoin="round" stroke-width=".06959"/>
    </g>
</svg>
