<?xml version="1.0" encoding="UTF-8"?>
<svg version="1.1" viewBox="0 0 26.95 26.95" xmlns="http://www.w3.org/2000/svg">
    <defs>
        <filter id="filter6206-7" color-interpolation-filters="sRGB">
            <feGaussianBlur stdDeviation="0.658125"/>
        </filter>
    </defs>
    <g transform="translate(0 -1025.4)">
        <path transform="matrix(1.0107 0 0 .99762 -.087875 2.579)" d="m4.4177 1028.2v1.6051h-1.6052v18.192h1.6052v2.1402h18.192v-2.1402h2.1402v-18.192h-2.1402v-1.6051h-18.192z" fill="#263238" filter="url(#filter6206-7)" opacity=".2"/>
        <rect x="2.8113" y="1028.2" width="21.327" height="21.327" rx="1.1225" ry="1.1226" fill="#607d8b"/>
        <g transform="translate(-20.925 990.46)">
            <path d="m0 0h48v48h-48z" fill="none"/>
            <g transform="matrix(.33601 0 0 .33601 1.434 68.477)">
                <path d="m0 0h48v48h-48z" fill="none"/>
            </g>
            <g transform="matrix(.37187 0 0 .37187 36.377 59.287)">
                <path d="m0 0h48v48h-48z" fill="none"/>
                <g transform="matrix(2.6891 0 0 2.6891 -77.724 -45.422)">
                    <path d="m0 0h48v48h-48z" fill="none"/>
                </g>
            </g>
        </g>
        <path transform="translate(0 1025.4)" d="m3.9336 2.8105c-0.62186 0-1.123 0.50115-1.123 1.123v0.3125c0-0.6219 0.50118-1.123 1.123-1.123h19.082c0.62186 0 1.123 0.50115 1.123 1.123v-0.3125c0-0.6219-0.50118-1.123-1.123-1.123h-19.082z" fill="#fff" opacity=".2"/>
        <rect x="120" y="512.36" width="40" height="40" fill="none"/>
        <rect x="120" y="592.36" width="40" height="40" fill="none"/>
        <rect x="120" y="632.36" width="40" height="40" fill="none"/>
        <rect x="120" y="552.36" width="40" height="40" fill="none"/>
        <rect x="120" y="672.36" width="40" height="40" fill="none"/>
        <rect x="200" y="512.36" width="40" height="40" fill="none"/>
        <rect x="200" y="592.36" width="40" height="40" fill="none"/>
        <rect x="200" y="632.36" width="40" height="40" fill="none"/>
        <rect x="200" y="552.36" width="40" height="40" fill="none"/>
        <rect x="200" y="672.36" width="40" height="40" fill="none"/>
        <rect x="280" y="512.36" width="40" height="40" fill="none"/>
        <rect x="280" y="592.36" width="40" height="40" fill="none"/>
        <rect x="280" y="632.36" width="40" height="40" fill="none"/>
        <rect x="280" y="552.36" width="40" height="40" fill="none"/>
        <rect x="280" y="672.36" width="40" height="40" fill="none"/>
        <rect x="160" y="512.36" width="40" height="40" fill="none"/>
        <rect x="160" y="592.36" width="40" height="40" fill="none"/>
        <rect x="160" y="632.36" width="40" height="40" fill="none"/>
        <rect x="160" y="552.36" width="40" height="40" fill="none"/>
        <rect x="160" y="672.36" width="40" height="40" fill="none"/>
        <rect x="240" y="512.36" width="40" height="40" fill="none"/>
        <rect x="240" y="592.36" width="40" height="40" fill="none"/>
        <rect x="240" y="632.36" width="40" height="40" fill="none"/>
        <rect x="240" y="552.36" width="40" height="40" fill="none"/>
        <rect x="240" y="672.36" width="40" height="40" fill="none"/>
        <rect x="120" y="712.36" width="40" height="40" fill="none"/>
        <rect x="200" y="712.36" width="40" height="40" fill="none"/>
        <rect x="280" y="712.36" width="40" height="40" fill="none"/>
        <rect x="160" y="712.36" width="40" height="40" fill="none"/>
        <rect x="240" y="712.36" width="40" height="40" fill="none"/>
        <rect x="320" y="552.36" width="40" height="40" fill="none"/>
        <rect x="320" y="592.36" width="40" height="40" fill="none"/>
        <rect x="320" y="672.36" width="40" height="40" fill="none"/>
        <rect x="320" y="512.36" width="40" height="40" fill="none"/>
        <rect x="320" y="632.36" width="40" height="40" fill="none"/>
        <rect x="320" y="712.36" width="40" height="40" fill="none"/>
        <rect x="150" y="542.36" width="180" height="180" fill="none"/>
        <g transform="matrix(.37344 0 0 .37344 4.4375 1028.8)">
            <path d="m0 0h48v48h-48z" fill="none"/>
        </g>
        <g transform="matrix(.36471 0 0 .36471 4.8146 1028.8)">
            <path d="m0 0h48v48h-48z" fill="none"/>
        </g>
        <g transform="matrix(.41585 0 0 .41585 79.055 989.88)">
            <g transform="matrix(.062269 0 0 .062269 -26.473 173.71)">
                <g transform="matrix(38.618 0 0 38.618 13804 -12696)">
                    <g transform="matrix(.71436 0 0 .71436 -375.49 176.57)">
                        <path transform="matrix(1.3999 0 0 1.3999 525.63 -247.17)" d="m490.56 95.75c-121.72 0.18504-342.34 0.090577-468.16 0.09375-1.5548 6.9739-2.4062 14.232-2.4062 21.688v76.344c139.06 0.49354 331.32 0.2554 472.97 0.25v-76.594c0-7.4875-0.8386-14.78-2.4062-21.781zm-307.19 197.94c-52.495-3e-3 -106.38 0.11982-163.38 0.375v92.844c191.76-0.26331 282.43-0.0926 472.97-0.21875v-92.25c-109.29-0.35498-208.43-0.74426-309.59-0.75z" opacity="0"/>
                    </g>
                </g>
            </g>
        </g>
        <path d="m23.015 1049.6c0.6218 0 1.123-0.5012 1.123-1.123v-0.3125c0 0.6218-0.5012 1.123-1.123 1.123h-19.082c-0.6218 0-1.123-0.5012-1.123-1.123v0.3125c0 0.6218 0.5012 1.123 1.123 1.123h19.082z" fill="#263238" opacity=".2"/>
    </g>
    <flowRoot fill="#000000" font-family="Roboto" font-size="3.75px" letter-spacing="0px" stroke-width="1px" word-spacing="0px" style="line-height:125%" xml:space="preserve"><flowRegion><rect x="10.664" y="11.235" width="4.49" height="5.0512"/></flowRegion><flowPara>your</flowPara></flowRoot>
    <g transform="translate(5.0512 -1023.5)">
        <g transform="matrix(.99017 0 0 .99017 -4.9188 9.6488)">
            <g transform="translate(-19.227 -1.6991)">
                <g transform="matrix(.056585 0 0 .056585 28.623 1035.1)" fill="#fff">
                    <path transform="matrix(17.848 0 0 17.848 -168.42 -168.23)" d="m12.25 7.3418c-0.15333 0-0.28211 0.11071-0.30664 0.25781l-0.22656 1.625c-0.38639 0.15327-0.71818 0.36235-1.0371 0.60156l-1.5273-0.61328c-0.13493-0.055607-0.29945-3.08e-4 -0.37305 0.13477l-1.2285 2.1211c-0.079732 0.13497-0.042311 0.30068 0.074219 0.39258l1.2949 1c-0.024534 0.20858-0.042969 0.41087-0.042969 0.61328 0 0.20221 0.018436 0.39946 0.042969 0.5957l-1.2949 1.0176c-0.11653 0.093015-0.15395 0.2575-0.074219 0.39258l1.2285 2.1211c0.073599 0.13508 0.23812 0.18586 0.37305 0.13672l1.5273-0.62109c0.31893 0.24538 0.65072 0.45415 1.0371 0.60742l0.22656 1.627c0.024528 0.147 0.15331 0.25586 0.30664 0.25586h2.4531c0.15333 0 0.28211-0.10886 0.30664-0.25586l0.14648-1.0469-0.93945-0.98438a3.9202 3.9202 0 0 1-0.74219 0.074219 3.9202 3.9202 0 0 1-3.9199-3.9199 3.9202 3.9202 0 0 1 3.9199-3.9199 3.9202 3.9202 0 0 1 3.9199 3.9199 3.9202 3.9202 0 0 1-0.089843 0.82617l1.7285 1.8145 0.36719-0.63476c0.073602-0.13507 0.044255-0.30058-0.072266-0.39258l-1.2949-1.0176c0.024528-0.19624 0.042969-0.3935 0.042969-0.5957 0-0.20241-0.018431-0.4047-0.042969-0.61328l1.2949-1c0.11653-0.093015 0.14588-0.25761 0.072266-0.39258l-1.2266-2.1211c-0.073603-0.13507-0.23812-0.18977-0.37305-0.13477l-1.5273 0.61328c-0.31892-0.23921-0.65072-0.44829-1.0371-0.60156l-0.22656-1.625c-0.024528-0.1471-0.15331-0.25781-0.30664-0.25781h-2.4531z"/>
                    <path d="m68.298 28.174c9.14-0.66 18.23 2.53 25.68 7.7 11.48 8.15 18.06 22.44 17.19 36.44-0.17 2.89-1.16 5.67-1.22 8.57 1.88 2.73 4.5 4.83 6.8 7.2 16.53 16.48 32.99 33.03 49.53 49.5 4.52 4.3 7.25 10.44 7.1 16.7-0.1 7.12-3.98 14.08-10.13 17.72-8.11 5.19-19.56 3.74-26.3-3.09-18.66-18.69-37.37-37.34-55.99-56.07-1.15-1.02-2.32-2.5-4.05-2.17-4.64 0.19-9.32 0.71-13.94-0.02-9.97-1.86-19.37-7.12-25.67-15.13-11.53-14.07-12.33-36.32-0.72-50.56 4.25 6.72 7.58 13.98 11.28 21.01 1.66 2.98 2.76 6.33 5.03 8.92 6.21 0.39 12.44 0.87 18.67 0.7 2.33 0.06 2.99-2.61 4.17-4.12 2.38-4.48 5.86-8.4 7.65-13.17-4.34-10.36-10.92-19.69-15.08-30.13z"/>
                </g>
            </g>
        </g>
    </g>
    <g display="none" fill="none">
        <rect transform="rotate(90)" x="7.3342" y="-19.616" width="12.282" height="12.282" display="inline" stroke="#000" stroke-width=".065984"/>
        <rect x="6.7726" y="8.112" width="13.405" height="10.726" stroke="#5261ff" stroke-linecap="round" stroke-linejoin="round" stroke-width=".06524"/>
        <rect transform="rotate(90)" x="6.7726" y="-18.838" width="13.405" height="10.726" display="inline" stroke="#0f0" stroke-linecap="round" stroke-linejoin="round" stroke-width=".06524"/>
    </g>
</svg>
