<?xml version="1.0" encoding="UTF-8"?>
<svg version="1.1" viewBox="0 0 28.747 28.747" xmlns="http://www.w3.org/2000/svg">
    <defs>
        <filter id="filter6206-7" color-interpolation-filters="sRGB">
            <feGaussianBlur stdDeviation="0.658125"/>
        </filter>
    </defs>
    <g transform="translate(0 -1093.8)">
        <path transform="matrix(1.0781 0 0 1.0641 -.093733 2.7509)" d="m4.4177 1028.2v1.6051h-1.6052v18.192h1.6052v2.1402h18.192v-2.1402h2.1402v-18.192h-2.1402v-1.6051z" fill="#bf360c" filter="url(#filter6206-7)" opacity=".2"/>
        <rect x="2.9987" y="1096.8" width="22.749" height="22.749" rx="1.1973" ry="1.1974" fill="#ff9800"/>
        <g transform="translate(-22.32 1056.5)">
            <path d="m0 0h51.2v51.2h-51.2z" fill="none" stroke-width="1.0667"/>
            <g transform="matrix(.33601 0 0 .33601 1.5296 73.043)">
                <path d="m0 0h51.2v51.2h-51.2z" fill="none" stroke-width="1.0667"/>
            </g>
            <g transform="matrix(.37187 0 0 .37187 38.802 63.239)">
                <path d="m0 0h51.2v51.2h-51.2z" fill="none" stroke-width="1.0667"/>
                <g transform="matrix(2.6891 0 0 2.6891 -82.906 -48.45)">
                    <path d="m0 0h51.2v51.2h-51.2z" fill="none" stroke-width="1.0667"/>
                </g>
            </g>
        </g>
        <path d="m4.1958 1096.8c-0.66332 0-1.1979 0.5346-1.1979 1.1979v0.3334c0-0.6634 0.53459-1.1979 1.1979-1.1979h20.354c0.66332 0 1.1979 0.5345 1.1979 1.1979v-0.3334c0-0.6633-0.5346-1.1979-1.1979-1.1979z" fill="#fff" opacity=".2"/>
        <rect x="128" y="546.52" width="42.667" height="42.667" fill="none" stroke-width="1.0667"/>
        <rect x="128" y="631.85" width="42.667" height="42.667" fill="none" stroke-width="1.0667"/>
        <rect x="128" y="674.52" width="42.667" height="42.667" fill="none" stroke-width="1.0667"/>
        <rect x="128" y="589.19" width="42.667" height="42.667" fill="none" stroke-width="1.0667"/>
        <rect x="128" y="717.19" width="42.667" height="42.667" fill="none" stroke-width="1.0667"/>
        <rect x="213.33" y="546.52" width="42.667" height="42.667" fill="none" stroke-width="1.0667"/>
        <rect x="213.33" y="631.85" width="42.667" height="42.667" fill="none" stroke-width="1.0667"/>
        <rect x="213.33" y="674.52" width="42.667" height="42.667" fill="none" stroke-width="1.0667"/>
        <rect x="213.33" y="589.19" width="42.667" height="42.667" fill="none" stroke-width="1.0667"/>
        <rect x="213.33" y="717.19" width="42.667" height="42.667" fill="none" stroke-width="1.0667"/>
        <rect x="298.67" y="546.52" width="42.667" height="42.667" fill="none" stroke-width="1.0667"/>
        <rect x="298.67" y="631.85" width="42.667" height="42.667" fill="none" stroke-width="1.0667"/>
        <rect x="298.67" y="674.52" width="42.667" height="42.667" fill="none" stroke-width="1.0667"/>
        <rect x="298.67" y="589.19" width="42.667" height="42.667" fill="none" stroke-width="1.0667"/>
        <rect x="298.67" y="717.19" width="42.667" height="42.667" fill="none" stroke-width="1.0667"/>
        <rect x="170.67" y="546.52" width="42.667" height="42.667" fill="none" stroke-width="1.0667"/>
        <rect x="170.67" y="631.85" width="42.667" height="42.667" fill="none" stroke-width="1.0667"/>
        <rect x="170.67" y="674.52" width="42.667" height="42.667" fill="none" stroke-width="1.0667"/>
        <rect x="170.67" y="589.19" width="42.667" height="42.667" fill="none" stroke-width="1.0667"/>
        <rect x="170.67" y="717.19" width="42.667" height="42.667" fill="none" stroke-width="1.0667"/>
        <rect x="256" y="546.52" width="42.667" height="42.667" fill="none" stroke-width="1.0667"/>
        <rect x="256" y="631.85" width="42.667" height="42.667" fill="none" stroke-width="1.0667"/>
        <rect x="256" y="674.52" width="42.667" height="42.667" fill="none" stroke-width="1.0667"/>
        <rect x="256" y="589.19" width="42.667" height="42.667" fill="none" stroke-width="1.0667"/>
        <rect x="256" y="717.19" width="42.667" height="42.667" fill="none" stroke-width="1.0667"/>
        <rect x="128" y="759.85" width="42.667" height="42.667" fill="none" stroke-width="1.0667"/>
        <rect x="213.33" y="759.85" width="42.667" height="42.667" fill="none" stroke-width="1.0667"/>
        <rect x="298.67" y="759.85" width="42.667" height="42.667" fill="none" stroke-width="1.0667"/>
        <rect x="170.67" y="759.85" width="42.667" height="42.667" fill="none" stroke-width="1.0667"/>
        <rect x="256" y="759.85" width="42.667" height="42.667" fill="none" stroke-width="1.0667"/>
        <rect x="341.33" y="589.19" width="42.667" height="42.667" fill="none" stroke-width="1.0667"/>
        <rect x="341.33" y="631.85" width="42.667" height="42.667" fill="none" stroke-width="1.0667"/>
        <rect x="341.33" y="717.19" width="42.667" height="42.667" fill="none" stroke-width="1.0667"/>
        <rect x="341.33" y="546.52" width="42.667" height="42.667" fill="none" stroke-width="1.0667"/>
        <rect x="341.33" y="674.52" width="42.667" height="42.667" fill="none" stroke-width="1.0667"/>
        <rect x="341.33" y="759.85" width="42.667" height="42.667" fill="none" stroke-width="1.0667"/>
        <rect x="160" y="578.52" width="192" height="192" fill="none" stroke-width="1.0667"/>
        <g transform="matrix(.37344 0 0 .37344 4.7333 1097.4)">
            <path d="m0 0h51.2v51.2h-51.2z" fill="none" stroke-width="1.0667"/>
        </g>
        <g transform="matrix(.36471 0 0 .36471 5.1356 1097.4)">
            <path d="m0 0h51.2v51.2h-51.2z" fill="none" stroke-width="1.0667"/>
        </g>
        <g transform="matrix(.41585 0 0 .41585 84.325 1055.9)">
            <g transform="matrix(.062269 0 0 .062269 -28.238 185.29)">
                <g transform="matrix(38.618 0 0 38.618 14724 -13542)">
                    <g transform="matrix(.71436 0 0 .71436 -400.52 188.34)">
                        <path d="m1293.2-120.67c-181.75 0.2763-511.18 0.13525-699.05 0.13998-2.3216 10.413-3.593 21.251-3.593 32.384v114c207.65 0.73695 494.72 0.38136 706.23 0.3733v-114.37c0-11.18-1.2522-22.07-3.593-32.523zm-458.69 295.56c-78.385-4e-3 -158.85 0.17892-243.95 0.55995v138.63c286.34-0.39317 421.73-0.13827 706.23-0.32664v-137.75c-163.2-0.53005-311.22-1.1113-462.28-1.1199z" opacity="0" stroke-width="1.4932"/>
                    </g>
                </g>
            </g>
        </g>
        <path d="m24.549 1119.5c0.66325 0 1.1979-0.5346 1.1979-1.1979v-0.3333c0 0.6632-0.53461 1.1978-1.1979 1.1978h-20.354c-0.66325 0-1.1979-0.5346-1.1979-1.1978v0.3333c0 0.6633 0.53461 1.1979 1.1979 1.1979z" fill="#bf360c" opacity=".2"/>
    </g>
    <path d="m12.296 7.251c-1.1638 0-2.1136 0.94978-2.1136 2.1136v10.017c0 1.1638 0.94978 2.1136 2.1136 2.1136h4.0213c1.1638 0 2.1136-0.94978 2.1136-2.1136v-6.3197c0.02136-0.01998 0.05801-0.02434 0.07242-0.04765 0.04113-0.06653 0.06099-0.14364 0.06099-0.22679v-2.8092c0-0.083145-0.01986-0.16028-0.06099-0.22679-0.01441-0.023308-0.05107-0.027666-0.07242-0.047645v-0.33924c0-1.1638-0.94978-2.1136-2.1136-2.1136zm4.1147 0.95863c0.61688 0.053358 1.0997 0.52164 1.0997 1.1549v10.017c0 0.67021-0.52284 1.193-1.193 1.193h-4.0213c-0.67021 0-1.193-0.52284-1.193-1.193v-10.017c0-0.5994 0.4389-1.0424 1.0063-1.1378 0.0309 0.17024 0.14754 0.3259 0.3259 0.3259h3.6325c0.18774 0 0.3241-0.15983 0.34305-0.34305zm-2.8625 2.9674c-0.01952 0.0026-0.03832 0.0091-0.05527 0.01906-0.13947 0.02373-0.24806 0.09339-0.30303 0.15437-0.0628 0.06964-0.10267 0.14286-0.13531 0.20964-0.06717 0.13742-0.11759 0.29309-0.16962 0.47264-0.10442 0.36036-0.20495 0.81616-0.30303 1.2674-0.09809 0.45124-0.19385 0.89828-0.28206 1.2159-0.03364 0.1211-0.06318 0.1978-0.08958 0.26682-0.12377-4.35e-4 -0.23442 0.05049-0.30493 0.1296s-0.10291 0.1785-0.10291 0.27634 0.0324 0.19724 0.10291 0.27634c0.07051 0.07911 0.18116 0.13194 0.30493 0.1315h0.21155c0.19177 0 0.31896-0.11676 0.37735-0.18677 0.05822-0.06982 0.09387-0.14028 0.12388-0.20583 0.06191-0.13519 0.1105-0.29026 0.16009-0.46883 0.09947-0.35816 0.19757-0.81346 0.2954-1.2636 0.03802-0.17488 0.07465-0.30507 0.11244-0.47074 0.06117 0.44141 0.12188 0.89856 0.18296 1.4198 0.08175 0.69765 0.16375 1.3973 0.25157 1.9363 0.04387 0.26923 0.08714 0.49831 0.14103 0.68228 0.02644 0.09029 0.05617 0.1747 0.10482 0.2611 0.02307 0.04097 0.05849 0.0965 0.11626 0.14866 0.06519 0.05887 0.17026 0.12197 0.30874 0.12197 0.17481 0 0.29946-0.09464 0.36782-0.16771 0.06455-0.06898 0.10472-0.14036 0.13722-0.20583 0.067-0.13496 0.11685-0.28676 0.1658-0.4593 0.09833-0.34654 0.1869-0.78284 0.27444-1.214 0.04551-0.22414 0.08801-0.3988 0.1315-0.60414 0.01615 0.05791 0.02643 0.11824 0.04573 0.17343 0.02951 0.08434 0.06453 0.17453 0.12769 0.26491 0.06846 0.09796 0.21118 0.23823 0.4269 0.23823h0.19638c0.12377 4.34e-4 0.23442-0.0524 0.30493-0.1315 0.07051-0.07911 0.10291-0.1785 0.10291-0.27634s-0.03241-0.19724-0.10291-0.27634c-0.07051-0.07911-0.18116-0.13003-0.30493-0.1296h0.0056c-0.03281-0.10271-0.06922-0.25196-0.10863-0.41928-0.04334-0.18398-0.08969-0.37855-0.15818-0.5565-0.03345-0.08691-0.07475-0.18128-0.14675-0.27253-0.07896-0.10006-0.22142-0.21726-0.42309-0.21726-0.19816 0-0.32562 0.12751-0.37926 0.1963-0.05404 0.0693-0.08774 0.13751-0.11435 0.20011-0.05517 0.12981-0.09748 0.27772-0.14103 0.44787-0.08738 0.34144-0.17219 0.77215-0.25919 1.2007-0.02725 0.13426-0.05445 0.23361-0.08195 0.3621-0.06061-0.43704-0.12088-0.88535-0.18105-1.3989-0.08173-0.69751-0.16446-1.3976-0.25157-1.9363-0.04352-0.26913-0.08595-0.49681-0.13912-0.68038-0.02608-0.09004-0.05495-0.17486-0.10291-0.2611-0.02269-0.04082-0.05707-0.09622-0.11435-0.14865-0.06474-0.05925-0.17063-0.12197-0.31065-0.12197-0.0051-2.65e-4 -0.01017-2.65e-4 -0.01525 0z" color="#000000" color-rendering="auto" dominant-baseline="auto" fill="#fff" image-rendering="auto" shape-rendering="auto" solid-color="#000000" style="font-feature-settings:normal;font-variant-alternates:normal;font-variant-caps:normal;font-variant-ligatures:normal;font-variant-numeric:normal;font-variant-position:normal;isolation:auto;mix-blend-mode:normal;paint-order:normal;shape-padding:0;text-decoration-color:#000000;text-decoration-line:none;text-decoration-style:solid;text-indent:0;text-orientation:mixed;text-transform:none;white-space:normal"/>
    <g display="none" fill="none">
        <rect transform="rotate(90)" x="7.8232" y="-20.923" width="13.1" height="13.1" display="inline" stroke="#000" stroke-width=".070382"/>
        <rect x="7.2241" y="8.6528" width="14.298" height="11.441" stroke="#5261ff" stroke-linecap="round" stroke-linejoin="round" stroke-width=".069589"/>
        <rect transform="rotate(90)" x="7.2241" y="-20.094" width="14.298" height="11.441" display="inline" stroke="#0f0" stroke-linecap="round" stroke-linejoin="round" stroke-width=".069589"/>
    </g>
</svg>
