<?xml version="1.0" encoding="UTF-8"?>
<svg version="1.1" viewBox="0 0 28.747 28.747" xmlns="http://www.w3.org/2000/svg">
    <defs>
        <filter id="filter6206-7" color-interpolation-filters="sRGB">
            <feGaussianBlur stdDeviation="0.658125"/>
        </filter>
    </defs>
    <g transform="translate(0 -1093.8)">
        <path transform="matrix(1.0781 0 0 1.0641 -.093733 2.7509)" d="m4.4177 1028.2v1.6051h-1.6052v18.192h1.6052v2.1402h18.192v-2.1402h2.1402v-18.192h-2.1402v-1.6051z" fill="#1a237e" filter="url(#filter6206-7)" opacity=".2"/>
        <rect x="2.9987" y="1096.8" width="22.749" height="22.749" rx="1.1973" ry="1.1974" fill="#3f51b5"/>
        <g transform="translate(-22.32 1056.5)">
            <path d="m0 0h51.2v51.2h-51.2z" fill="none" stroke-width="1.0667"/>
            <g transform="matrix(.33601 0 0 .33601 1.5296 73.043)">
                <path d="m0 0h51.2v51.2h-51.2z" fill="none" stroke-width="1.0667"/>
            </g>
            <g transform="matrix(.37187 0 0 .37187 38.802 63.239)">
                <path d="m0 0h51.2v51.2h-51.2z" fill="none" stroke-width="1.0667"/>
                <g transform="matrix(2.6891 0 0 2.6891 -82.906 -48.45)">
                    <path d="m0 0h51.2v51.2h-51.2z" fill="none" stroke-width="1.0667"/>
                </g>
            </g>
        </g>
        <path d="m4.1958 1096.8c-0.66332 0-1.1979 0.5346-1.1979 1.1979v0.3334c0-0.6634 0.53459-1.1979 1.1979-1.1979h20.354c0.66332 0 1.1979 0.5345 1.1979 1.1979v-0.3334c0-0.6633-0.5346-1.1979-1.1979-1.1979z" fill="#fff" opacity=".2"/>
        <rect x="128" y="546.52" width="42.667" height="42.667" fill="none" stroke-width="1.0667"/>
        <rect x="128" y="631.85" width="42.667" height="42.667" fill="none" stroke-width="1.0667"/>
        <rect x="128" y="674.52" width="42.667" height="42.667" fill="none" stroke-width="1.0667"/>
        <rect x="128" y="589.19" width="42.667" height="42.667" fill="none" stroke-width="1.0667"/>
        <rect x="128" y="717.19" width="42.667" height="42.667" fill="none" stroke-width="1.0667"/>
        <rect x="213.33" y="546.52" width="42.667" height="42.667" fill="none" stroke-width="1.0667"/>
        <rect x="213.33" y="631.85" width="42.667" height="42.667" fill="none" stroke-width="1.0667"/>
        <rect x="213.33" y="674.52" width="42.667" height="42.667" fill="none" stroke-width="1.0667"/>
        <rect x="213.33" y="589.19" width="42.667" height="42.667" fill="none" stroke-width="1.0667"/>
        <rect x="213.33" y="717.19" width="42.667" height="42.667" fill="none" stroke-width="1.0667"/>
        <rect x="298.67" y="546.52" width="42.667" height="42.667" fill="none" stroke-width="1.0667"/>
        <rect x="298.67" y="631.85" width="42.667" height="42.667" fill="none" stroke-width="1.0667"/>
        <rect x="298.67" y="674.52" width="42.667" height="42.667" fill="none" stroke-width="1.0667"/>
        <rect x="298.67" y="589.19" width="42.667" height="42.667" fill="none" stroke-width="1.0667"/>
        <rect x="298.67" y="717.19" width="42.667" height="42.667" fill="none" stroke-width="1.0667"/>
        <rect x="170.67" y="546.52" width="42.667" height="42.667" fill="none" stroke-width="1.0667"/>
        <rect x="170.67" y="631.85" width="42.667" height="42.667" fill="none" stroke-width="1.0667"/>
        <rect x="170.67" y="674.52" width="42.667" height="42.667" fill="none" stroke-width="1.0667"/>
        <rect x="170.67" y="589.19" width="42.667" height="42.667" fill="none" stroke-width="1.0667"/>
        <rect x="170.67" y="717.19" width="42.667" height="42.667" fill="none" stroke-width="1.0667"/>
        <rect x="256" y="546.52" width="42.667" height="42.667" fill="none" stroke-width="1.0667"/>
        <rect x="256" y="631.85" width="42.667" height="42.667" fill="none" stroke-width="1.0667"/>
        <rect x="256" y="674.52" width="42.667" height="42.667" fill="none" stroke-width="1.0667"/>
        <rect x="256" y="589.19" width="42.667" height="42.667" fill="none" stroke-width="1.0667"/>
        <rect x="256" y="717.19" width="42.667" height="42.667" fill="none" stroke-width="1.0667"/>
        <rect x="128" y="759.85" width="42.667" height="42.667" fill="none" stroke-width="1.0667"/>
        <rect x="213.33" y="759.85" width="42.667" height="42.667" fill="none" stroke-width="1.0667"/>
        <rect x="298.67" y="759.85" width="42.667" height="42.667" fill="none" stroke-width="1.0667"/>
        <rect x="170.67" y="759.85" width="42.667" height="42.667" fill="none" stroke-width="1.0667"/>
        <rect x="256" y="759.85" width="42.667" height="42.667" fill="none" stroke-width="1.0667"/>
        <rect x="341.33" y="589.19" width="42.667" height="42.667" fill="none" stroke-width="1.0667"/>
        <rect x="341.33" y="631.85" width="42.667" height="42.667" fill="none" stroke-width="1.0667"/>
        <rect x="341.33" y="717.19" width="42.667" height="42.667" fill="none" stroke-width="1.0667"/>
        <rect x="341.33" y="546.52" width="42.667" height="42.667" fill="none" stroke-width="1.0667"/>
        <rect x="341.33" y="674.52" width="42.667" height="42.667" fill="none" stroke-width="1.0667"/>
        <rect x="341.33" y="759.85" width="42.667" height="42.667" fill="none" stroke-width="1.0667"/>
        <rect x="160" y="578.52" width="192" height="192" fill="none" stroke-width="1.0667"/>
        <g transform="matrix(.37344 0 0 .37344 4.7333 1097.4)">
            <path d="m0 0h51.2v51.2h-51.2z" fill="none" stroke-width="1.0667"/>
        </g>
        <g transform="matrix(.36471 0 0 .36471 5.1356 1097.4)">
            <path d="m0 0h51.2v51.2h-51.2z" fill="none" stroke-width="1.0667"/>
        </g>
        <g transform="matrix(.41585 0 0 .41585 84.325 1055.9)">
            <g transform="matrix(.062269 0 0 .062269 -28.238 185.29)">
                <g transform="matrix(38.618 0 0 38.618 14724 -13542)">
                    <g transform="matrix(.71436 0 0 .71436 -400.52 188.34)">
                        <path d="m1293.2-120.67c-181.75 0.2763-511.18 0.13525-699.05 0.13998-2.3216 10.413-3.593 21.251-3.593 32.384v114c207.65 0.73695 494.72 0.38136 706.23 0.3733v-114.37c0-11.18-1.2522-22.07-3.593-32.523zm-458.69 295.56c-78.385-4e-3 -158.85 0.17892-243.95 0.55995v138.63c286.34-0.39317 421.73-0.13827 706.23-0.32664v-137.75c-163.2-0.53005-311.22-1.1113-462.28-1.1199z" opacity="0" stroke-width="1.4932"/>
                    </g>
                </g>
            </g>
        </g>
        <path d="m24.549 1119.5c0.66325 0 1.1979-0.5346 1.1979-1.1979v-0.3333c0 0.6632-0.53461 1.1978-1.1979 1.1978h-20.354c-0.66325 0-1.1979-0.5346-1.1979-1.1978v0.3333c0 0.6633 0.53461 1.1979 1.1979 1.1979z" fill="#1a237e" opacity=".2"/>
    </g>
    <path d="m21.332 16.306c0.07112-0.03097 0.11653-0.09526 0.13801-0.19537 0.0614-0.2863 0.15554-1.0567 0.14019-1.1474-0.01282-0.07552-0.10212-0.19653-0.20546-0.27822-0.22145-0.17505-1.1137-0.52012-2.0082-0.77665-0.16748-0.04804-0.8954-0.28558-1.6176-0.52788l-1.3131-0.44055-0.02772 0.06931c-0.12304 0.30761-0.3361 0.54004-0.62166 0.67819-0.20819 0.10072-0.35771 0.13006-0.60709 0.11914-0.21269-0.0094-0.32805-0.03841-0.50353-0.12699-0.30119-0.15204-0.54474-0.45409-0.63768-0.79082-0.02187-0.07919-0.02935-0.16618-0.02924-0.33956l1.48e-4 -0.23309-0.05775-0.0092c-0.45323-0.07236-0.91121-0.04262-1.1359 0.07377-0.16775 0.0869-0.22853 0.16342-0.29572 0.37233-0.09279 0.28852-0.23736 0.52185-0.44718 0.72169-0.25925 0.24693-0.56561 0.38624-0.95802 0.43563-0.20047 0.02523-0.59665 0.0121-0.76811-0.02548-0.34213-0.07496-0.60698-0.24435-0.799-0.51098-0.039513-0.05488-0.14566-0.25171-0.23586-0.43741-0.22928-0.472-0.25211-0.48885-0.57785-0.42653-0.78003 0.14924-1.4448 0.4968-1.8009 0.94156-0.40763 0.50912-0.48082 1.2289-0.17696 1.7403 0.06234 0.10492 0.30201 0.38051 0.33092 0.38051 0.00686 0 0.017156-0.04629 0.023043-0.10288 0.017698-0.17255 0.089013-0.40621 0.18234-0.59753 0.28642-0.58719 0.83034-0.99755 1.4741-1.1121 0.15296-0.02721 0.5315-0.02729 0.67487-1.32e-4 0.43051 0.08157 0.77423 0.26297 1.0781 0.56896 0.18812 0.18941 0.28863 0.33215 0.40333 0.57278 0.18849 0.39542 0.23896 0.89354 0.13262 1.3088l-0.03056 0.11933h5.1857l-0.0098-0.04526c-0.0052-0.0249-0.02214-0.10082-0.03736-0.16871-0.03828-0.17071-0.03863-0.55206-6.85e-4 -0.74523 0.08078-0.41127 0.26247-0.74695 0.56804-1.0495 0.24189-0.23948 0.44289-0.36716 0.7467-0.47431 0.22358-0.07886 0.40109-0.1077 0.66293-0.1077 0.42554 0 0.77515 0.10546 1.1275 0.34016 0.17369 0.11569 0.46451 0.41614 0.5735 0.59251 0.2888 0.46733 0.38113 1.033 0.25176 1.5425l-0.02935 0.11556 0.59376-6.44e-4c0.45964-4.99e-4 0.60523-0.0056 0.64454-0.02275zm-10.248-2.4275c0.04074-0.0054 0.07222-0.01535 0.06996-0.02221-0.0023-0.0069-0.0042-0.02532-0.0042-0.04116-1.1e-5 -0.02646-0.02631-0.02881-0.32167-0.02881h-0.32166l0.0047 0.04116c0.0043 0.03677 0.01445 0.04229 0.09535 0.05187 0.11048 0.013 0.37641 0.01264 0.47734-8.45e-4zm0.05761-0.13414c0.17199-0.02301 0.36762-0.08885 0.4802-0.16161 0.18754-0.12121 0.28232-0.29678 0.29765-0.55134l0.0088-0.14588-0.03834 0.02051c-0.10798 0.05779-1.0068-0.0888-1.2631-0.20598-0.17896-0.08186-0.22522-0.17331-0.15863-0.31366 0.08896-0.18746 0.53957-0.30346 1.1795-0.30365 0.13869-4.2e-5 0.19341-0.0056 0.19341-0.01968 0-0.01084-0.0292-0.06877-0.06489-0.12885-0.19472-0.32777-0.51029-0.51835-0.89188-0.53864-0.20082-0.01065-0.36073 0.02294-0.54582 0.11471-0.18368 0.09109-0.3887 0.29488-0.47649 0.47363-0.10312 0.20996-0.1144 0.29218-0.10839 0.78986l0.00524 0.43725 0.053364 0.1083c0.096291 0.19546 0.28066 0.32715 0.5516 0.39398 0.158 0.03897 0.58959 0.0562 0.77769 0.03102zm4.8714-0.67817c0.04851-0.15505 0.06431-0.20475 0.07038-0.22122 0.01373-0.03711-1.0122-0.33136-1.5297-0.43875l-0.11032-0.0229-0.03372 0.09985c-0.01855 0.05492-0.02815 0.10445-0.02135 0.11009 0.0069 0.0056 0.16421 0.05699 0.3498 0.11415 0.67316 0.20731 1.2425 0.37936 1.2553 0.37936 0.0072 0 0.01607-0.0092 0.01956-0.02057zm-4.1554-0.18834c-7.9051 10.58-3.9525 5.2898 0 0zm-1.2027-0.31837c-0.06167-0.03301-0.03007-0.13111 0.04224-0.13111 0.06931 0 0.09792 0.07256 0.04822 0.12228-0.03034 0.03034-0.04719 0.03196-0.09044 0.0088z" fill="#fff" stroke-width=".01646"/>
    <path d="m9.3206 17.004c0.25642-0.03695 0.51895-0.17072 0.71001-0.36178 0.61238-0.61238 0.44819-1.6391-0.32557-2.0359-0.1722-0.08831-0.36392-0.13225-0.57702-0.13225-0.35062 0-0.65231 0.12612-0.89963 0.37609-0.18926 0.19129-0.30084 0.40369-0.35043 0.66707-0.024993 0.13276-0.016602 0.41144 0.016107 0.53418 0.15412 0.57844 0.6649 0.97088 1.254 0.96346 0.058582-7.35e-4 0.13621-0.0057 0.17253-0.01086zm-0.28603-1.0977c-0.099091-0.05787-0.12204-0.19806-0.046497-0.28409 0.13365-0.15222 0.37496-0.02796 0.32569 0.16769-0.030788 0.12228-0.16986 0.18026-0.2792 0.1164z" fill="#fff" stroke-width=".011005"/>
    <path d="m18.357 17.008c0.25642-0.03695 0.51895-0.17072 0.71001-0.36178 0.61238-0.61238 0.44819-1.6391-0.32557-2.0359-0.1722-0.08831-0.36392-0.13225-0.57702-0.13225-0.35062 0-0.65231 0.12612-0.89962 0.37609-0.18926 0.19129-0.30084 0.40369-0.35043 0.66707-0.02499 0.13276-0.0166 0.41144 0.01611 0.53418 0.15412 0.57844 0.6649 0.97088 1.254 0.96346 0.05858-7.35e-4 0.13622-0.0057 0.17253-0.01086zm-0.28603-1.0977c-0.09909-0.05787-0.12204-0.19806-0.0465-0.28409 0.13365-0.15222 0.37496-0.02796 0.32569 0.16769-0.03079 0.12228-0.16986 0.18026-0.2792 0.1164z" fill="#fff" stroke-width=".011005"/>
</svg>
