<?xml version="1.0" encoding="UTF-8"?>
<svg version="1.1" viewBox="0 0 28.747 28.747" xmlns="http://www.w3.org/2000/svg" xmlns:xlink="http://www.w3.org/1999/xlink">
    <defs>
        <filter id="filter6206-7" x="-.072" y="-.072" width="1.144" height="1.144" color-interpolation-filters="sRGB">
            <feGaussianBlur stdDeviation="0.658125"/>
        </filter>
    </defs>
    <g transform="translate(0 -1093.8)">
        <path transform="matrix(1.0781 0 0 1.0641 -.093733 2.7509)" d="m4.4177 1028.2v1.6051h-1.6052v18.192h1.6052v2.1402h18.192v-2.1402h2.1402v-18.192h-2.1402v-1.6051z" fill="#263238" filter="url(#filter6206-7)" opacity=".2"/>
        <rect x="2.9987" y="1096.8" width="22.749" height="22.749" rx="1.1973" ry="1.1974" fill="#4caf50"/>
        <g transform="translate(-22.32 1056.5)">
            <path d="m0 0h51.2v51.2h-51.2z" fill="none" stroke-width="1.0667"/>
            <g transform="matrix(.33601 0 0 .33601 1.5296 73.043)">
                <path d="m0 0h51.2v51.2h-51.2z" fill="none" stroke-width="1.0667"/>
            </g>
            <g transform="matrix(.37187 0 0 .37187 38.802 63.239)">
                <path d="m0 0h51.2v51.2h-51.2z" fill="none" stroke-width="1.0667"/>
                <g transform="matrix(2.6891 0 0 2.6891 -82.906 -48.45)">
                    <path d="m0 0h51.2v51.2h-51.2z" fill="none" stroke-width="1.0667"/>
                </g>
            </g>
        </g>
        <path d="m4.1958 1096.8c-0.66332 0-1.1979 0.5346-1.1979 1.1979v0.3334c0-0.6634 0.53459-1.1979 1.1979-1.1979h20.354c0.66332 0 1.1979 0.5345 1.1979 1.1979v-0.3334c0-0.6633-0.5346-1.1979-1.1979-1.1979z" fill="#fff" opacity=".2"/>
        <rect x="128" y="546.52" width="42.667" height="42.667" fill="none" stroke-width="1.0667"/>
        <rect x="128" y="631.85" width="42.667" height="42.667" fill="none" stroke-width="1.0667"/>
        <rect x="128" y="674.52" width="42.667" height="42.667" fill="none" stroke-width="1.0667"/>
        <rect x="128" y="589.19" width="42.667" height="42.667" fill="none" stroke-width="1.0667"/>
        <rect x="128" y="717.19" width="42.667" height="42.667" fill="none" stroke-width="1.0667"/>
        <rect x="213.33" y="546.52" width="42.667" height="42.667" fill="none" stroke-width="1.0667"/>
        <rect x="213.33" y="631.85" width="42.667" height="42.667" fill="none" stroke-width="1.0667"/>
        <rect x="213.33" y="674.52" width="42.667" height="42.667" fill="none" stroke-width="1.0667"/>
        <rect x="213.33" y="589.19" width="42.667" height="42.667" fill="none" stroke-width="1.0667"/>
        <rect x="213.33" y="717.19" width="42.667" height="42.667" fill="none" stroke-width="1.0667"/>
        <rect x="298.67" y="546.52" width="42.667" height="42.667" fill="none" stroke-width="1.0667"/>
        <rect x="298.67" y="631.85" width="42.667" height="42.667" fill="none" stroke-width="1.0667"/>
        <rect x="298.67" y="674.52" width="42.667" height="42.667" fill="none" stroke-width="1.0667"/>
        <rect x="298.67" y="589.19" width="42.667" height="42.667" fill="none" stroke-width="1.0667"/>
        <rect x="298.67" y="717.19" width="42.667" height="42.667" fill="none" stroke-width="1.0667"/>
        <rect x="170.67" y="546.52" width="42.667" height="42.667" fill="none" stroke-width="1.0667"/>
        <rect x="170.67" y="631.85" width="42.667" height="42.667" fill="none" stroke-width="1.0667"/>
        <rect x="170.67" y="674.52" width="42.667" height="42.667" fill="none" stroke-width="1.0667"/>
        <rect x="170.67" y="589.19" width="42.667" height="42.667" fill="none" stroke-width="1.0667"/>
        <rect x="170.67" y="717.19" width="42.667" height="42.667" fill="none" stroke-width="1.0667"/>
        <rect x="256" y="546.52" width="42.667" height="42.667" fill="none" stroke-width="1.0667"/>
        <rect x="256" y="631.85" width="42.667" height="42.667" fill="none" stroke-width="1.0667"/>
        <rect x="256" y="674.52" width="42.667" height="42.667" fill="none" stroke-width="1.0667"/>
        <rect x="256" y="589.19" width="42.667" height="42.667" fill="none" stroke-width="1.0667"/>
        <rect x="256" y="717.19" width="42.667" height="42.667" fill="none" stroke-width="1.0667"/>
        <rect x="128" y="759.85" width="42.667" height="42.667" fill="none" stroke-width="1.0667"/>
        <rect x="213.33" y="759.85" width="42.667" height="42.667" fill="none" stroke-width="1.0667"/>
        <rect x="298.67" y="759.85" width="42.667" height="42.667" fill="none" stroke-width="1.0667"/>
        <rect x="170.67" y="759.85" width="42.667" height="42.667" fill="none" stroke-width="1.0667"/>
        <rect x="256" y="759.85" width="42.667" height="42.667" fill="none" stroke-width="1.0667"/>
        <rect x="341.33" y="589.19" width="42.667" height="42.667" fill="none" stroke-width="1.0667"/>
        <rect x="341.33" y="631.85" width="42.667" height="42.667" fill="none" stroke-width="1.0667"/>
        <rect x="341.33" y="717.19" width="42.667" height="42.667" fill="none" stroke-width="1.0667"/>
        <rect x="341.33" y="546.52" width="42.667" height="42.667" fill="none" stroke-width="1.0667"/>
        <rect x="341.33" y="674.52" width="42.667" height="42.667" fill="none" stroke-width="1.0667"/>
        <rect x="341.33" y="759.85" width="42.667" height="42.667" fill="none" stroke-width="1.0667"/>
        <rect x="160" y="578.52" width="192" height="192" fill="none" stroke-width="1.0667"/>
        <g transform="matrix(.37344 0 0 .37344 4.7333 1097.4)">
            <path d="m0 0h51.2v51.2h-51.2z" fill="none" stroke-width="1.0667"/>
        </g>
        <g transform="matrix(.36471 0 0 .36471 5.1356 1097.4)">
            <path d="m0 0h51.2v51.2h-51.2z" fill="none" stroke-width="1.0667"/>
        </g>
        <g transform="matrix(.41585 0 0 .41585 84.325 1055.9)">
            <g transform="matrix(.062269 0 0 .062269 -28.238 185.29)">
                <g transform="matrix(38.618 0 0 38.618 14724 -13542)">
                    <g transform="matrix(.71436 0 0 .71436 -400.52 188.34)">
                        <path d="m1293.2-120.67c-181.75 0.2763-511.18 0.13525-699.05 0.13998-2.3216 10.413-3.593 21.251-3.593 32.384v114c207.65 0.73695 494.72 0.38136 706.23 0.3733v-114.37c0-11.18-1.2522-22.07-3.593-32.523zm-458.69 295.56c-78.385-4e-3 -158.85 0.17892-243.95 0.55995v138.63c286.34-0.39317 421.73-0.13827 706.23-0.32664v-137.75c-163.2-0.53005-311.22-1.1113-462.28-1.1199z" opacity="0" stroke-width="1.4932"/>
                    </g>
                </g>
            </g>
        </g>
        <path d="m24.549 1119.5c0.66325 0 1.1979-0.5346 1.1979-1.1979v-0.3333c0 0.6632-0.53461 1.1978-1.1979 1.1978h-20.354c-0.66325 0-1.1979-0.5346-1.1979-1.1978v0.3333c0 0.6633 0.53461 1.1979 1.1979 1.1979z" fill="#263238" opacity=".2"/>
    </g>
    <g>
        <path d="m9.9537 18.958-2.6995-0.01458 0.028254-0.37728c0.040112-0.53564 0.14406-0.89021 0.42761-1.4585 0.28068-0.56257 0.72469-1.1179 1.1707-1.4643 0.15841-0.12301 0.28618-0.24756 0.28394-0.27676-0.0022439-0.029206-0.24386-0.2701-0.53693-0.53532-0.31262-0.28291-0.54567-0.5333-0.56387-0.60581-0.063888-0.25455 0.20851-0.5007 0.47666-0.43073 0.064073 0.01672 0.39678 0.28547 0.73935 0.59722 0.68447 0.6229 0.61821 0.59844 1.1211 0.4138 0.98613-0.36205 2.3531-0.35992 3.3488 0.0052 0.45109 0.16542 0.43651 0.16799 0.77215-0.13575 0.30713-0.27794 0.30823-0.27988 0.19479-0.34323-0.41161-0.22986-1.2236-0.44433-1.8509-0.48885l-0.43021-0.03054-0.02757-0.15115c-0.01517-0.08313-0.02103-0.42528-0.01303-0.76034l0.01455-0.60919 0.53608 0.01531c1.5364 0.0439 2.9789 0.67759 4.1193 1.8096 0.56465 0.56053 0.88725 0.98904 1.2113 1.609 0.42231 0.80785 0.64725 1.563 0.73839 2.4787 0.03021 0.30349 0.04291 0.58311 0.02824 0.62137-0.02147 0.05596-0.16892 0.06957-0.75403 0.06957-0.81187 0-0.7862 0.01166-0.78687-0.35731-0.0015-0.82413-0.40871-1.9294-1.009-2.7387-0.2834-0.38207-0.85732-0.94906-0.96047-0.94889-0.02893 4.8e-5 -0.18175 0.11566-0.33958 0.25691l-0.28697 0.25682 0.27562 0.21264c0.96536 0.74477 1.6191 1.9319 1.7 3.087l0.01963 0.28023h-1.9839c-1.0911 0-2.0469 0.0063-2.124 0.01416-0.07706 0.0078-1.3549 0.0076-2.8396-4.37e-4zm0.088484-1.6994c0.11969-0.10071 0.14994-0.16408 0.14994-0.31406 0-0.43008-0.45529-0.61528-0.73712-0.29986-0.15869 0.17761-0.17326 0.29093-0.064457 0.50135 0.13368 0.25852 0.4195 0.30789 0.65163 0.11257zm4.5239-0.04547c0.15053-0.17324 0.14396-0.41366-0.01651-0.60438-0.3462-0.41144-0.99354 0.05472-0.73178 0.52698 0.15132 0.27302 0.54311 0.31354 0.7483 0.0774zm5.4234 1.5649c-0.02771-0.07288-0.05039-0.23717-0.05039-0.36508 0-0.49705-0.19928-1.4959-0.42926-2.1515-0.54118-1.5429-1.7408-3.0103-3.1528-3.8566-1.0412-0.62402-1.976-0.92045-3.2409-1.0277l-0.70666-0.05991-0.01342-0.76758-0.01342-0.76757 0.37893 3.901e-4c1.72 0.00176 3.5962 0.64271 5.0575 1.7277 1.6822 1.249 2.8873 3.0638 3.4075 5.1316 0.18826 0.74826 0.33403 2.1122 0.23244 2.175-0.02811 0.01737-0.35892 0.04557-0.73516 0.06269l-0.68407 0.03111-0.05039-0.13252z" fill="#fff" stroke-width=".048735"/>
    </g>
</svg>
