<?xml version="1.0" encoding="UTF-8"?>
<svg version="1.1" viewBox="0 0 26.95 26.95" xmlns="http://www.w3.org/2000/svg">
    <defs>
        <filter id="filter6206-7" color-interpolation-filters="sRGB">
            <feGaussianBlur stdDeviation="0.658125"/>
        </filter>
    </defs>
    <g transform="translate(0 -1025.4)">
        <path transform="matrix(1.0107 0 0 .99762 -.087875 2.579)" d="m4.4177 1028.2v1.6051h-1.6052v18.192h1.6052v2.1402h18.192v-2.1402h2.1402v-18.192h-2.1402v-1.6051h-18.192z" fill="#263238" filter="url(#filter6206-7)" opacity=".2"/>
        <rect x="2.8113" y="1028.2" width="21.327" height="21.327" rx="1.1225" ry="1.1226" fill="#4caf50"/>
        <g transform="translate(-20.925 990.46)">
            <path d="m0 0h48v48h-48z" fill="none"/>
            <g transform="matrix(.33601 0 0 .33601 1.434 68.477)">
                <path d="m0 0h48v48h-48z" fill="none"/>
            </g>
            <g transform="matrix(.37187 0 0 .37187 36.377 59.287)">
                <path d="m0 0h48v48h-48z" fill="none"/>
                <g transform="matrix(2.6891 0 0 2.6891 -77.724 -45.422)">
                    <path d="m0 0h48v48h-48z" fill="none"/>
                </g>
            </g>
        </g>
        <path transform="translate(0 1025.4)" d="m3.9336 2.8105c-0.62186 0-1.123 0.50115-1.123 1.123v0.3125c0-0.6219 0.50118-1.123 1.123-1.123h19.082c0.62186 0 1.123 0.50115 1.123 1.123v-0.3125c0-0.6219-0.50118-1.123-1.123-1.123h-19.082z" fill="#fff" opacity=".2"/>
        <rect x="120" y="512.36" width="40" height="40" fill="none"/>
        <rect x="120" y="592.36" width="40" height="40" fill="none"/>
        <rect x="120" y="632.36" width="40" height="40" fill="none"/>
        <rect x="120" y="552.36" width="40" height="40" fill="none"/>
        <rect x="120" y="672.36" width="40" height="40" fill="none"/>
        <rect x="200" y="512.36" width="40" height="40" fill="none"/>
        <rect x="200" y="592.36" width="40" height="40" fill="none"/>
        <rect x="200" y="632.36" width="40" height="40" fill="none"/>
        <rect x="200" y="552.36" width="40" height="40" fill="none"/>
        <rect x="200" y="672.36" width="40" height="40" fill="none"/>
        <rect x="280" y="512.36" width="40" height="40" fill="none"/>
        <rect x="280" y="592.36" width="40" height="40" fill="none"/>
        <rect x="280" y="632.36" width="40" height="40" fill="none"/>
        <rect x="280" y="552.36" width="40" height="40" fill="none"/>
        <rect x="280" y="672.36" width="40" height="40" fill="none"/>
        <rect x="160" y="512.36" width="40" height="40" fill="none"/>
        <rect x="160" y="592.36" width="40" height="40" fill="none"/>
        <rect x="160" y="632.36" width="40" height="40" fill="none"/>
        <rect x="160" y="552.36" width="40" height="40" fill="none"/>
        <rect x="160" y="672.36" width="40" height="40" fill="none"/>
        <rect x="240" y="512.36" width="40" height="40" fill="none"/>
        <rect x="240" y="592.36" width="40" height="40" fill="none"/>
        <rect x="240" y="632.36" width="40" height="40" fill="none"/>
        <rect x="240" y="552.36" width="40" height="40" fill="none"/>
        <rect x="240" y="672.36" width="40" height="40" fill="none"/>
        <rect x="120" y="712.36" width="40" height="40" fill="none"/>
        <rect x="200" y="712.36" width="40" height="40" fill="none"/>
        <rect x="280" y="712.36" width="40" height="40" fill="none"/>
        <rect x="160" y="712.36" width="40" height="40" fill="none"/>
        <rect x="240" y="712.36" width="40" height="40" fill="none"/>
        <rect x="320" y="552.36" width="40" height="40" fill="none"/>
        <rect x="320" y="592.36" width="40" height="40" fill="none"/>
        <rect x="320" y="672.36" width="40" height="40" fill="none"/>
        <rect x="320" y="512.36" width="40" height="40" fill="none"/>
        <rect x="320" y="632.36" width="40" height="40" fill="none"/>
        <rect x="320" y="712.36" width="40" height="40" fill="none"/>
        <rect x="150" y="542.36" width="180" height="180" fill="none"/>
        <g transform="matrix(.37344 0 0 .37344 4.4375 1028.8)">
            <path d="m0 0h48v48h-48z" fill="none"/>
        </g>
        <g transform="matrix(.36471 0 0 .36471 4.8146 1028.8)">
            <path d="m0 0h48v48h-48z" fill="none"/>
        </g>
        <g transform="matrix(.41585 0 0 .41585 79.055 989.88)">
            <g transform="matrix(.062269 0 0 .062269 -26.473 173.71)">
                <g transform="matrix(38.618 0 0 38.618 13804 -12696)">
                    <g transform="matrix(.71436 0 0 .71436 -375.49 176.57)">
                        <path transform="matrix(1.3999 0 0 1.3999 525.63 -247.17)" d="m490.56 95.75c-121.72 0.18504-342.34 0.090577-468.16 0.09375-1.5548 6.9739-2.4062 14.232-2.4062 21.688v76.344c139.06 0.49354 331.32 0.2554 472.97 0.25v-76.594c0-7.4875-0.8386-14.78-2.4062-21.781zm-307.19 197.94c-52.495-3e-3 -106.38 0.11982-163.38 0.375v92.844c191.76-0.26331 282.43-0.0926 472.97-0.21875v-92.25c-109.29-0.35498-208.43-0.74426-309.59-0.75z" opacity="0"/>
                    </g>
                </g>
            </g>
        </g>
        <path d="m23.015 1049.6c0.6218 0 1.123-0.5012 1.123-1.123v-0.3125c0 0.6218-0.5012 1.123-1.123 1.123h-19.082c-0.6218 0-1.123-0.5012-1.123-1.123v0.3125c0 0.6218 0.5012 1.123 1.123 1.123h19.082z" fill="#263238" opacity=".2"/>
    </g>
    <flowRoot fill="#000000" font-family="Roboto" font-size="3.75px" letter-spacing="0px" stroke-width="1px" word-spacing="0px" style="line-height:125%" xml:space="preserve"><flowRegion><rect x="10.664" y="11.235" width="4.49" height="5.0512"/></flowRegion><flowPara>your</flowPara></flowRoot>
    <path d="m14.391 10.782c-0.11029-0.23286-0.27711-0.42399-0.46757-0.59402-0.28636-0.221-0.63076-0.35022-0.96993-0.46668-0.29371-0.096494-0.602-0.11857-0.90862-0.13065-0.41852-0.00745-0.74766 0.12636-1.1156 0.30887-0.08085 0.045291-0.32401 0.18005-0.24254 0.13587 0.15302-0.082971 0.29251-0.19595 0.45721-0.25227 0.11572-0.039578-0.20515 0.13323-0.30702 0.20091-0.34588 0.22978-0.6872 0.46597-1.0271 0.70439-0.65103 0.47646-1.2855 0.97935-1.8626 1.5438-0.27856 0.30006-0.54622 0.62026-0.71957 0.99484-0.097602 0.2109-0.10928 0.28776-0.17075 0.50953-0.12576 0.54728-0.094453 1.1088 0.094791 1.6387 0.047613 0.13331 0.11121 0.26037 0.16681 0.39055 0.080317 0.13118 0.15349 0.267 0.24095 0.39352 0.41391 0.59876 0.98352 1.1462 1.5717 1.572 0.16686 0.12081 0.34516 0.22497 0.51774 0.33745 0.54096 0.31109 1.1158 0.55813 1.71 0.74766 0.51946 0.16569 1.0557 0.27966 1.5863 0.40256 0.64517 0.14608 1.3009 0.2377 1.9609 0.27573 0.3044 0.01176 0.59802-0.04096 0.87938-0.15451 0.04727-0.02345 0.09553-0.045 0.14181-0.07036 0.04863-0.02665 0.19129-0.11227 0.1427-0.08554-0.2075 0.11417-0.40866 0.24005-0.61952 0.34788-0.05196 0.02657 0.09549-0.0672 0.14132-0.10334 0.11413-0.09 0.16715-0.14423 0.27316-0.24391 0.20006-0.20329 0.38661-0.42338 0.51946-0.6769 0.07429-0.1737 0.09172-0.36374 0.14449-0.54407 0.03749-0.11188 0.01744-0.05557 0.06032-0.16884l0.82904-0.38442c-0.0438 0.1098-0.02285 0.05493-0.0629 0.16459-0.06626 0.18163-0.0788 0.37464-0.14094 0.55751-0.13003 0.26823-0.32556 0.49621-0.52727 0.71353-0.08118 0.0796-0.17975 0.17923-0.26684 0.2528-0.39767 0.33592-0.87465 0.57152-1.3425 0.79473-0.28966 0.09852-0.5857 0.14463-0.8925 0.1159-0.64087-0.06547-1.2756-0.18198-1.9016-0.33348-1.1491-0.28353-2.2575-0.57646-3.287-1.1889-0.17524-0.11376-0.35592-0.21956-0.52572-0.34129-0.59153-0.42408-1.1893-0.98475-1.6162-1.5765-0.092394-0.12808-0.17037-0.26596-0.25556-0.39894-0.059529-0.13187-0.12669-0.26055-0.17859-0.39561-0.20521-0.5341-0.2619-1.1045-0.14629-1.6652 0.057073-0.21986 0.073333-0.31862 0.166-0.52842 0.17121-0.38764 0.44529-0.71768 0.72865-1.0276 0.57916-0.57244 1.22-1.0786 1.8738-1.5629 0.82845-0.58784 1.6646-1.1683 2.5692-1.6359 0.37959-0.17908 0.73656-0.30634 1.163-0.28965 0.31068 0.016259 0.62197 0.050755 0.91643 0.15761 0.34634 0.12846 0.70125 0.2607 0.99303 0.49315 0.1942 0.17585 0.36347 0.37085 0.50438 0.59247l-0.79782 0.47347z" fill="none" stroke-width="0"/>
    <g fill="#fff" stroke-width="1px">
        <path d="m10.595 18.52q-0.85766 0-1.5111-0.27227-0.63984-0.27227-1.0891-0.76237-0.43564-0.49009-0.65346-1.1572-0.21782-0.68068-0.21782-1.4975t0.23143-1.4975q0.24505-0.68069 0.68068-1.1708 0.43564-0.50371 1.0619-0.77598 0.63984-0.28589 1.4158-0.28589 0.47648 0 0.95296 0.08168t0.91212 0.25866l-0.28589 1.0755q-0.28589-0.13614-0.66707-0.21782-0.36757-0.08168-0.78959-0.08168-1.0619 0-1.6336 0.66707-0.55816 0.66707-0.55816 1.9468 0 0.57178 0.12252 1.0483 0.13614 0.47648 0.40841 0.81682 0.28589 0.34034 0.72153 0.53093 0.43564 0.17698 1.0619 0.17698 0.50371 0 0.91212-0.0953t0.63984-0.2042l0.17698 1.0619q-0.10891 0.06807-0.31312 0.13614-0.2042 0.05446-0.46286 0.0953-0.25866 0.05446-0.55816 0.08168-0.28589 0.04084-0.55816 0.04084zm-0.25866-10.632 1.8515 1.9468-0.53093 0.599-1.3205-1.198-1.3205 1.198-0.53093-0.599 1.8515-1.9468z"/>
        <path d="m19.621 18.144q-0.44616 0.11154-1.1851 0.23702-0.72502 0.12548-1.6871 0.12548-0.83656 0-1.4082-0.23702-0.57165-0.25097-0.92021-0.69713-0.34857-0.44616-0.50194-1.0457-0.15337-0.61348-0.15337-1.3524v-4.0712h1.2967v3.7924q0 1.3245 0.41828 1.8962 0.41828 0.57165 1.4082 0.57165 0.20914 0 0.43222-0.01394t0.41828-0.02789q0.1952-0.02789 0.34857-0.04183 0.16731-0.02789 0.23702-0.05578v-6.1208h1.2967v7.041zm-2.928-8.2959q-0.39039 0-0.73896-0.12548-0.33462-0.13943-0.59953-0.37645-0.25097-0.25097-0.39039-0.61348t-0.12548-0.82262h0.83656q0.01394 0.15337 0.05577 0.33462 0.05578 0.18125 0.16731 0.33462 0.11154 0.13943 0.30674 0.23702 0.1952 0.097599 0.48799 0.097599 0.2928 0 0.48799-0.097599t0.30674-0.23702q0.11154-0.15337 0.15337-0.33462 0.05578-0.18125 0.06971-0.33462h0.83656q0.013939 0.46011-0.12548 0.82262-0.13943 0.36251-0.40434 0.61348-0.25097 0.23702-0.59953 0.37645-0.33462 0.12548-0.72502 0.12548z"/>
    </g>
    <g display="none" fill="none">
        <rect transform="rotate(90)" x="7.3342" y="-19.616" width="12.282" height="12.282" display="inline" stroke="#000" stroke-width=".065984"/>
        <rect x="6.7726" y="8.112" width="13.405" height="10.726" stroke="#5261ff" stroke-linecap="round" stroke-linejoin="round" stroke-width=".06524"/>
        <rect transform="rotate(90)" x="6.7726" y="-18.838" width="13.405" height="10.726" display="inline" stroke="#0f0" stroke-linecap="round" stroke-linejoin="round" stroke-width=".06524"/>
    </g>
</svg>
