<?xml version="1.0" encoding="UTF-8"?>
<svg version="1.1" viewBox="0 0 26.95 26.95" xmlns="http://www.w3.org/2000/svg">
    <defs>
        <filter id="filter6206-7" color-interpolation-filters="sRGB">
            <feGaussianBlur stdDeviation="0.658125"/>
        </filter>
    </defs>
    <g transform="translate(0 -1025.4)">
        <path transform="matrix(1.0107 0 0 .99762 -.087875 2.579)" d="m4.4177 1028.2v1.6051h-1.6052v18.192h1.6052v2.1402h18.192v-2.1402h2.1402v-18.192h-2.1402v-1.6051h-18.192z" fill="#1a237e" filter="url(#filter6206-7)" opacity=".2"/>
        <rect x="2.8113" y="1028.2" width="21.327" height="21.327" rx="1.1225" ry="1.1226" fill="#9c27b0"/>
        <g transform="translate(-20.925 990.46)">
            <path d="m0 0h48v48h-48z" fill="none"/>
            <g transform="matrix(.33601 0 0 .33601 1.434 68.477)">
                <path d="m0 0h48v48h-48z" fill="none"/>
            </g>
            <g transform="matrix(.37187 0 0 .37187 36.377 59.287)">
                <path d="m0 0h48v48h-48z" fill="none"/>
                <g transform="matrix(2.6891 0 0 2.6891 -77.724 -45.422)">
                    <path d="m0 0h48v48h-48z" fill="none"/>
                </g>
            </g>
        </g>
        <path transform="translate(0 1025.4)" d="m3.9336 2.8105c-0.62186 0-1.123 0.50115-1.123 1.123v0.3125c0-0.6219 0.50118-1.123 1.123-1.123h19.082c0.62186 0 1.123 0.50115 1.123 1.123v-0.3125c0-0.6219-0.50118-1.123-1.123-1.123h-19.082z" fill="#fff" opacity=".2"/>
        <rect x="120" y="512.36" width="40" height="40" fill="none"/>
        <rect x="120" y="592.36" width="40" height="40" fill="none"/>
        <rect x="120" y="632.36" width="40" height="40" fill="none"/>
        <rect x="120" y="552.36" width="40" height="40" fill="none"/>
        <rect x="120" y="672.36" width="40" height="40" fill="none"/>
        <rect x="200" y="512.36" width="40" height="40" fill="none"/>
        <rect x="200" y="592.36" width="40" height="40" fill="none"/>
        <rect x="200" y="632.36" width="40" height="40" fill="none"/>
        <rect x="200" y="552.36" width="40" height="40" fill="none"/>
        <rect x="200" y="672.36" width="40" height="40" fill="none"/>
        <rect x="280" y="512.36" width="40" height="40" fill="none"/>
        <rect x="280" y="592.36" width="40" height="40" fill="none"/>
        <rect x="280" y="632.36" width="40" height="40" fill="none"/>
        <rect x="280" y="552.36" width="40" height="40" fill="none"/>
        <rect x="280" y="672.36" width="40" height="40" fill="none"/>
        <rect x="160" y="512.36" width="40" height="40" fill="none"/>
        <rect x="160" y="592.36" width="40" height="40" fill="none"/>
        <rect x="160" y="632.36" width="40" height="40" fill="none"/>
        <rect x="160" y="552.36" width="40" height="40" fill="none"/>
        <rect x="160" y="672.36" width="40" height="40" fill="none"/>
        <rect x="240" y="512.36" width="40" height="40" fill="none"/>
        <rect x="240" y="592.36" width="40" height="40" fill="none"/>
        <rect x="240" y="632.36" width="40" height="40" fill="none"/>
        <rect x="240" y="552.36" width="40" height="40" fill="none"/>
        <rect x="240" y="672.36" width="40" height="40" fill="none"/>
        <rect x="120" y="712.36" width="40" height="40" fill="none"/>
        <rect x="200" y="712.36" width="40" height="40" fill="none"/>
        <rect x="280" y="712.36" width="40" height="40" fill="none"/>
        <rect x="160" y="712.36" width="40" height="40" fill="none"/>
        <rect x="240" y="712.36" width="40" height="40" fill="none"/>
        <rect x="320" y="552.36" width="40" height="40" fill="none"/>
        <rect x="320" y="592.36" width="40" height="40" fill="none"/>
        <rect x="320" y="672.36" width="40" height="40" fill="none"/>
        <rect x="320" y="512.36" width="40" height="40" fill="none"/>
        <rect x="320" y="632.36" width="40" height="40" fill="none"/>
        <rect x="320" y="712.36" width="40" height="40" fill="none"/>
        <rect x="150" y="542.36" width="180" height="180" fill="none"/>
        <g transform="matrix(.37344 0 0 .37344 4.4375 1028.8)">
            <path d="m0 0h48v48h-48z" fill="none"/>
        </g>
        <g transform="matrix(.36471 0 0 .36471 4.8146 1028.8)">
            <path d="m0 0h48v48h-48z" fill="none"/>
        </g>
        <g transform="matrix(.41585 0 0 .41585 79.055 989.88)">
            <g transform="matrix(.062269 0 0 .062269 -26.473 173.71)">
                <g transform="matrix(38.618 0 0 38.618 13804 -12696)">
                    <g transform="matrix(.71436 0 0 .71436 -375.49 176.57)">
                        <path transform="matrix(1.3999 0 0 1.3999 525.63 -247.17)" d="m490.56 95.75c-121.72 0.18504-342.34 0.090577-468.16 0.09375-1.5548 6.9739-2.4062 14.232-2.4062 21.688v76.344c139.06 0.49354 331.32 0.2554 472.97 0.25v-76.594c0-7.4875-0.8386-14.78-2.4062-21.781zm-307.19 197.94c-52.495-3e-3 -106.38 0.11982-163.38 0.375v92.844c191.76-0.26331 282.43-0.0926 472.97-0.21875v-92.25c-109.29-0.35498-208.43-0.74426-309.59-0.75z" opacity="0"/>
                    </g>
                </g>
            </g>
        </g>
        <path d="m23.015 1049.6c0.6218 0 1.123-0.5012 1.123-1.123v-0.3125c0 0.6218-0.5012 1.123-1.123 1.123h-19.082c-0.6218 0-1.123-0.5012-1.123-1.123v0.3125c0 0.6218 0.5012 1.123 1.123 1.123h19.082z" fill="#1a237e" opacity=".2"/>
    </g>
    <g transform="matrix(.0006114 0 0 .0006114 27.907 -19.387)" fill-rule="evenodd">
        <g transform="translate(-34201 42003)" fill="#fff">
            <g transform="translate(62.924 -3272)" stroke-width="25">
                <path d="m533 5019h2e4"/>
                <path d="m20533 5019v2e4"/>
                <path d="m20533 25019h-2e4"/>
                <path d="m533 25019v-2e4"/>
                <path d="m3533 5019 8e3 8e3"/>
                <path d="m9533 17019 8e3 8e3"/>
                <path d="m8533 14019-8e3 8e3"/>
                <path d="m12533 16019 8e3 -8e3"/>
                <path d="m533 8019 1e3 -1e3"/>
                <path d="m2533 24019 1e3 1e3"/>
                <path d="m19533 23019 1e3 -1e3"/>
                <path d="m17533 5019 1e3 1e3"/>
                <path d="m9533 7019 1e3 1e3"/>
                <path d="m12533 6019 1e3 -1e3"/>
                <path d="m18533 14019-1e3 1e3"/>
                <path d="m19533 17019 1e3 1e3"/>
                <path d="m11533 23019-1e3 -1e3"/>
                <path d="m10533 22019-1e3 1e3"/>
                <path d="m533 18019 1e3 -1e3"/>
                <path d="m1533 13019-1e3 -1e3"/>
                <path d="m2533 16019v8e3"/>
                <path d="m11533 23019h8e3"/>
                <path d="m18533 24019v-8e3"/>
                <path d="m19533 7019h-8e3"/>
                <path d="m8533 16019v8e3"/>
                <path d="m12533 16019v8e3"/>
                <path d="m1533 13019h8e3"/>
                <path d="m1533 17019h8e3m2e3 0h8e3"/>
                <path d="m2533 6019 1e3 -1e3"/>
                <path d="m19533 7019 1e3 1e3"/>
                <path d="m17533 25019 1e3 -1e3"/>
                <path d="m533 22019 1e3 1e3"/>
                <path d="m3533 15019-1e3 -1e3"/>
                <path d="m2533 6019v8e3"/>
                <path d="m2533 16019 1e3 -1e3"/>
                <path d="m7533 5019 1e3 1e3"/>
                <path d="m9533 7019h-8e3"/>
                <path d="m10533 8019 1e3 -1e3"/>
                <path d="m8533 24019-1e3 1e3"/>
                <path d="m1533 23019h8e3"/>
                <path d="m13533 25019-1e3 -1e3"/>
                <path d="m17533 15019 1e3 1e3"/>
                <path d="m18533 14019v-8e3"/>
                <path d="m20533 12019-1e3 1e3"/>
                <path d="m11533 13019h8e3"/>
                <path d="m17533 5019-8e3 8e3"/>
                <path d="m8533 6019v8e3"/>
                <path d="m533 8019 8e3 8e3"/>
                <path d="m3533 25019 8e3 -8e3"/>
                <path d="m12533 6019v8e3"/>
                <path d="m12533 14019 8e3 8e3"/>
                <path d="m2533 10019-2e3 -2e3v4e3l1e3 1e3h1e3z"/>
                <path d="m8533 7019v-1e3l-1e3 -1e3h-4e3l2e3 2e3z"/>
                <path d="m5533 7019h-3e3v3e3l3e3 3e3h3e3v-3e3z"/>
                <path d="m17533 5019h-4e3l-1e3 1e3v1e3h3e3z"/>
                <path d="m20533 8019-2e3 2e3v3e3h1e3l1e3 -1e3z"/>
                <path d="m18533 7019h-3e3l-3e3 3e3v3e3h3e3l3e3 -3e3z"/>
                <path d="m12533 17019v3e3l3e3 3e3h3e3v-3e3l-3e3 -3e3z"/>
                <path d="m5533 17019-3e3 3e3v3e3h3e3l3e3 -3e3v-3e3z"/>
                <path d="m2533 17019h-1e3l-1e3 1e3v4e3l2e3 -2e3z"/>
                <path d="m8533 23019h-3e3l-2e3 2e3h4e3l1e3 -1e3z"/>
                <path d="m15533 23019h-3e3v1e3l1e3 1e3h4e3z"/>
                <path d="m20533 18019-1e3 -1e3h-1e3v3e3l2e3 2e3z"/>
                <path d="m12533 7019h-1e3l-1e3 1e3 -1e3 -1e3h-1e3v3e3l2e3 2e3 2e3 -2e3z"/>
                <path d="m533 5019v3e3l1e3 -1e3h1e3v-1e3l1e3 -1e3z"/>
                <path d="m17533 5019 1e3 1e3v1e3h1e3l1e3 1e3v-3e3z"/>
                <path d="m5533 13019h-3e3v1e3l1e3 1e3 -1e3 1e3v1e3h3e3l2e3 -2e3z"/>
                <path d="m18533 13019h-3e3l-2e3 2e3 2e3 2e3h3e3v-1e3l-1e3 -1e3 1e3 -1e3z"/>
                <path d="m8533 20019v3e3h1e3l1e3 -1e3 1e3 1e3h1e3v-3e3l-2e3 -2e3z"/>
                <path d="m1533 23019-1e3 -1e3v3e3h3e3l-1e3 -1e3v-1e3z"/>
                <path d="m19533 23019h-1e3v1e3l-1e3 1e3h3e3v-3e3z"/>
            </g>
            <polygon transform="translate(62.924 -3272)" points="9533 13019 8533 13019 8533 14019 7533 15019 8533 16019 8533 17019 9533 17019 10533 18019 11533 17019 12533 17019 12533 16019 13533 15019 12533 14019 12533 13019 11533 13019 10533 12019"/>
        </g>
    </g>
    <g display="none" fill="none">
        <rect transform="rotate(90)" x="7.3342" y="-19.616" width="12.282" height="12.282" display="inline" stroke="#000" stroke-width=".065984"/>
        <rect x="6.7726" y="8.112" width="13.405" height="10.726" stroke="#5261ff" stroke-linecap="round" stroke-linejoin="round" stroke-width=".06524"/>
        <rect transform="rotate(90)" x="6.7726" y="-18.838" width="13.405" height="10.726" display="inline" stroke="#0f0" stroke-linecap="round" stroke-linejoin="round" stroke-width=".06524"/>
    </g>
</svg>
