<?xml version="1.0" encoding="UTF-8"?>
<svg version="1.1" viewBox="0 0 28.747 28.747" xmlns="http://www.w3.org/2000/svg" xmlns:xlink="http://www.w3.org/1999/xlink">
    <defs>
        <filter id="filter6206-7" x="-.072" y="-.072" width="1.144" height="1.144" color-interpolation-filters="sRGB">
            <feGaussianBlur stdDeviation="0.658125"/>
        </filter>
    </defs>
    <g transform="translate(0 -1093.8)">
        <path transform="matrix(1.0781 0 0 1.0641 -.093733 2.7509)" d="m4.4177 1028.2v1.6051h-1.6052v18.192h1.6052v2.1402h18.192v-2.1402h2.1402v-18.192h-2.1402v-1.6051z" fill="#263238" filter="url(#filter6206-7)" opacity=".2"/>
        <rect x="2.9987" y="1096.8" width="22.749" height="22.749" rx="1.1973" ry="1.1974" fill="#00bcd4"/>
        <g transform="translate(-22.32 1056.5)">
            <path d="m0 0h51.2v51.2h-51.2z" fill="none" stroke-width="1.0667"/>
            <g transform="matrix(.33601 0 0 .33601 1.5296 73.043)">
                <path d="m0 0h51.2v51.2h-51.2z" fill="none" stroke-width="1.0667"/>
            </g>
            <g transform="matrix(.37187 0 0 .37187 38.802 63.239)">
                <path d="m0 0h51.2v51.2h-51.2z" fill="none" stroke-width="1.0667"/>
                <g transform="matrix(2.6891 0 0 2.6891 -82.906 -48.45)">
                    <path d="m0 0h51.2v51.2h-51.2z" fill="none" stroke-width="1.0667"/>
                </g>
            </g>
        </g>
        <path d="m4.1958 1096.8c-0.66332 0-1.1979 0.5346-1.1979 1.1979v0.3334c0-0.6634 0.53459-1.1979 1.1979-1.1979h20.354c0.66332 0 1.1979 0.5345 1.1979 1.1979v-0.3334c0-0.6633-0.5346-1.1979-1.1979-1.1979z" fill="#fff" opacity=".2"/>
        <rect x="128" y="546.52" width="42.667" height="42.667" fill="none" stroke-width="1.0667"/>
        <rect x="128" y="631.85" width="42.667" height="42.667" fill="none" stroke-width="1.0667"/>
        <rect x="128" y="674.52" width="42.667" height="42.667" fill="none" stroke-width="1.0667"/>
        <rect x="128" y="589.19" width="42.667" height="42.667" fill="none" stroke-width="1.0667"/>
        <rect x="128" y="717.19" width="42.667" height="42.667" fill="none" stroke-width="1.0667"/>
        <rect x="213.33" y="546.52" width="42.667" height="42.667" fill="none" stroke-width="1.0667"/>
        <rect x="213.33" y="631.85" width="42.667" height="42.667" fill="none" stroke-width="1.0667"/>
        <rect x="213.33" y="674.52" width="42.667" height="42.667" fill="none" stroke-width="1.0667"/>
        <rect x="213.33" y="589.19" width="42.667" height="42.667" fill="none" stroke-width="1.0667"/>
        <rect x="213.33" y="717.19" width="42.667" height="42.667" fill="none" stroke-width="1.0667"/>
        <rect x="298.67" y="546.52" width="42.667" height="42.667" fill="none" stroke-width="1.0667"/>
        <rect x="298.67" y="631.85" width="42.667" height="42.667" fill="none" stroke-width="1.0667"/>
        <rect x="298.67" y="674.52" width="42.667" height="42.667" fill="none" stroke-width="1.0667"/>
        <rect x="298.67" y="589.19" width="42.667" height="42.667" fill="none" stroke-width="1.0667"/>
        <rect x="298.67" y="717.19" width="42.667" height="42.667" fill="none" stroke-width="1.0667"/>
        <rect x="170.67" y="546.52" width="42.667" height="42.667" fill="none" stroke-width="1.0667"/>
        <rect x="170.67" y="631.85" width="42.667" height="42.667" fill="none" stroke-width="1.0667"/>
        <rect x="170.67" y="674.52" width="42.667" height="42.667" fill="none" stroke-width="1.0667"/>
        <rect x="170.67" y="589.19" width="42.667" height="42.667" fill="none" stroke-width="1.0667"/>
        <rect x="170.67" y="717.19" width="42.667" height="42.667" fill="none" stroke-width="1.0667"/>
        <rect x="256" y="546.52" width="42.667" height="42.667" fill="none" stroke-width="1.0667"/>
        <rect x="256" y="631.85" width="42.667" height="42.667" fill="none" stroke-width="1.0667"/>
        <rect x="256" y="674.52" width="42.667" height="42.667" fill="none" stroke-width="1.0667"/>
        <rect x="256" y="589.19" width="42.667" height="42.667" fill="none" stroke-width="1.0667"/>
        <rect x="256" y="717.19" width="42.667" height="42.667" fill="none" stroke-width="1.0667"/>
        <rect x="128" y="759.85" width="42.667" height="42.667" fill="none" stroke-width="1.0667"/>
        <rect x="213.33" y="759.85" width="42.667" height="42.667" fill="none" stroke-width="1.0667"/>
        <rect x="298.67" y="759.85" width="42.667" height="42.667" fill="none" stroke-width="1.0667"/>
        <rect x="170.67" y="759.85" width="42.667" height="42.667" fill="none" stroke-width="1.0667"/>
        <rect x="256" y="759.85" width="42.667" height="42.667" fill="none" stroke-width="1.0667"/>
        <rect x="341.33" y="589.19" width="42.667" height="42.667" fill="none" stroke-width="1.0667"/>
        <rect x="341.33" y="631.85" width="42.667" height="42.667" fill="none" stroke-width="1.0667"/>
        <rect x="341.33" y="717.19" width="42.667" height="42.667" fill="none" stroke-width="1.0667"/>
        <rect x="341.33" y="546.52" width="42.667" height="42.667" fill="none" stroke-width="1.0667"/>
        <rect x="341.33" y="674.52" width="42.667" height="42.667" fill="none" stroke-width="1.0667"/>
        <rect x="341.33" y="759.85" width="42.667" height="42.667" fill="none" stroke-width="1.0667"/>
        <rect x="160" y="578.52" width="192" height="192" fill="none" stroke-width="1.0667"/>
        <g transform="matrix(.37344 0 0 .37344 4.7333 1097.4)">
            <path d="m0 0h51.2v51.2h-51.2z" fill="none" stroke-width="1.0667"/>
        </g>
        <g transform="matrix(.36471 0 0 .36471 5.1356 1097.4)">
            <path d="m0 0h51.2v51.2h-51.2z" fill="none" stroke-width="1.0667"/>
        </g>
        <g transform="matrix(.41585 0 0 .41585 84.325 1055.9)">
            <g transform="matrix(.062269 0 0 .062269 -28.238 185.29)">
                <g transform="matrix(38.618 0 0 38.618 14724 -13542)">
                    <g transform="matrix(.71436 0 0 .71436 -400.52 188.34)">
                        <path d="m1293.2-120.67c-181.75 0.2763-511.18 0.13525-699.05 0.13998-2.3216 10.413-3.593 21.251-3.593 32.384v114c207.65 0.73695 494.72 0.38136 706.23 0.3733v-114.37c0-11.18-1.2522-22.07-3.593-32.523zm-458.69 295.56c-78.385-4e-3 -158.85 0.17892-243.95 0.55995v138.63c286.34-0.39317 421.73-0.13827 706.23-0.32664v-137.75c-163.2-0.53005-311.22-1.1113-462.28-1.1199z" opacity="0" stroke-width="1.4932"/>
                    </g>
                </g>
            </g>
        </g>
        <path d="m24.549 1119.5c0.66325 0 1.1979-0.5346 1.1979-1.1979v-0.3333c0 0.6632-0.53461 1.1978-1.1979 1.1978h-20.354c-0.66325 0-1.1979-0.5346-1.1979-1.1978v0.3333c0 0.6633 0.53461 1.1979 1.1979 1.1979z" fill="#263238" opacity=".2"/>
    </g>
    <g>
        <path d="m14.373 7.8418c-0.59799 3.42e-5 -1.0979 0.441-1.1931 1.0132-2.1569 0.4656-3.8588 2.1675-4.3244 4.3244-0.57223 0.09527-1.0132 0.59516-1.0132 1.1931 3.42e-5 0.59804 0.44092 1.0979 1.0132 1.1931 0.4656 2.1571 2.1675 3.8585 4.3244 4.3244 0.09463 0.57298 0.59462 1.0148 1.1931 1.0148 0.59857-3.3e-5 1.0986-0.44176 1.1931-1.0148 2.1571-0.46586 3.8585-2.1672 4.3244-4.3244 0.57306-0.09445 1.0148-0.59449 1.0148-1.1931-3.3e-5 -0.59861-0.44182-1.0986-1.0148-1.1931-0.46586-2.1569-2.1672-3.8588-4.3244-4.3244-0.095209-0.5723-0.5951-1.0132-1.1931-1.0132zm1.0716 1.7676c0.0066 0.00461 0.01407 0.00791 0.02052 0.012626 0.30556 0.22371 0.53115 0.564 0.60604 0.92958 0.05846 0.28538 0.03117 0.59616-0.05524 0.89328-0.0867 0.29813-0.23134 0.58661-0.39929 0.86961-0.20284 0.34177-0.43722 0.66668-0.68495 0.98639-0.09858-0.05193-0.20366-0.09211-0.31565-0.11521v-1.7155h-0.48452v1.7155c-0.19586 0.04014-0.37449 0.12813-0.52397 0.25094-0.33281-0.25806-0.67663-0.50433-1.0448-0.72283-0.30227-0.1794-0.62628-0.34487-0.98166-0.44822-0.35638-0.10364-0.7455-0.14283-1.1269-0.06471-0.25985 0.05324-0.50371 0.16029-0.71967 0.30776 0.51874-1.2935 1.5614-2.3173 2.8676-2.8108-0.17284 0.21779-0.30826 0.46516-0.39456 0.73072a0.24242 0.24242 0 0 0 0.15625 0.3046 0.24242 0.24242 0 0 0 0.3046-0.15467c0.11698-0.35997 0.35059-0.68669 0.65339-0.9138 0.0021-0.00157 0.0042-0.00317 0.0063-0.00473 0.21071 0.35913 0.6009 0.60286 1.0448 0.60288 0.46416-2.6e-5 0.86873-0.26701 1.0716-0.65339zm0.79227 0.12468c1.2937 0.51869 2.317 1.5616 2.8108 2.8676-0.21755-0.17247-0.46398-0.30838-0.72914-0.39456a0.24242 0.24242 0 0 0-0.30618 0.15625 0.24242 0.24242 0 0 0 0.15624 0.3046c0.35997 0.11698 0.68512 0.35059 0.91222 0.65339 0.0019 0.0024 0.0029 0.0054 0.0048 0.0079-0.35853 0.21084-0.60128 0.59971-0.6013 1.0432 2.6e-5 0.46497 0.266 0.87066 0.65339 1.0732-0.0044 0.0062-0.0081 0.01283-0.01263 0.01894-0.22371 0.30557-0.564 0.53115-0.92958 0.60604-0.28538 0.05846-0.59616 0.03117-0.89328-0.05524-0.29813-0.0867-0.58661-0.23134-0.86961-0.39929-0.34177-0.20284-0.66826-0.43722-0.98797-0.68495 0.0519-0.09856 0.09054-0.20369 0.11363-0.31565h1.7187v-0.48452h-1.7187c-0.04008-0.19554-0.12687-0.37464-0.24936-0.52397 0.25806-0.33281 0.50591-0.67664 0.72441-1.0448 0.17937-0.3023 0.34484-0.62631 0.44819-0.98169 0.10365-0.35639 0.14283-0.7455 0.06471-1.1269-0.05325-0.25984-0.16147-0.50369-0.30935-0.71966zm-5.3549 2.9103c0.18683 0.0012 0.37772 0.0328 0.56343 0.08681 0.29813 0.0867 0.58661 0.23134 0.86961 0.39929 0.34154 0.20271 0.66688 0.43582 0.98639 0.68338-0.05182 0.09869-0.09225 0.20515-0.11521 0.31722h-1.7155v0.48452h1.7155c0.04037 0.1957 0.12802 0.37468 0.25094 0.52397-0.25795 0.33269-0.50441 0.67678-0.72283 1.0448-0.1794 0.30227-0.34487 0.62628-0.44822 0.98166-0.10364 0.35638-0.14284 0.74392-0.06471 1.1253 0.05321 0.25976 0.16037 0.50335 0.30775 0.71968-1.2928-0.51882-2.3155-1.5605-2.8093-2.8661 0.21755 0.17247 0.46398 0.30838 0.72914 0.39456a0.24242 0.24242 0 0 0 0.3046-0.15624 0.24242 0.24242 0 0 0-0.15467-0.30618c-0.35997-0.11698-0.68669-0.34901-0.9138-0.65181-2e-3 -0.0027-0.00433-0.0052-0.00632-0.0079 0.35989-0.21051 0.60444-0.60034 0.60446-1.0448-2.7e-5 -0.46412-0.26707-0.86871-0.65339-1.0716 0.00438-0.0062 0.00815-0.01282 0.012626-0.01895 0.22371-0.30557 0.564-0.53115 0.92958-0.60604 0.10702-0.02192 0.21775-0.03236 0.32985-0.03157zm4.2565 2.6625c0.33323 0.25845 0.67771 0.50719 1.0464 0.72599 0.30227 0.1794 0.62628 0.34487 0.98166 0.44822 0.35638 0.10364 0.74393 0.14283 1.1253 0.06471 0.25976-0.05322 0.50335-0.16154 0.71968-0.30933-0.51884 1.2931-1.5604 2.3168-2.8661 2.8108 0.17247-0.21755 0.30838-0.46398 0.39456-0.72914a0.24242 0.24242 0 0 0-0.15624-0.30618 0.24242 0.24242 0 0 0-0.30618 0.15624c-0.11698 0.35997-0.34901 0.68512-0.65181 0.91222-0.0031 0.0023-0.0063 0.0041-0.0095 0.0063-0.21066-0.3593-0.5992-0.60286-1.0432-0.60288-0.46436 2.6e-5 -0.8704 0.26515-1.0732 0.65181-0.0056-4e-3 -0.01181-7e-3 -0.01736-0.01105-0.30557-0.22371-0.53115-0.564-0.60604-0.92958-0.05847-0.28538-0.03116-0.59616 0.05524-0.89328 0.0867-0.29813 0.23133-0.58661 0.39929-0.8696 0.20271-0.34155 0.43582-0.66846 0.68337-0.98797 0.09866 0.0518 0.2052 0.09068 0.31722 0.11363v1.7187h0.48452v-1.7187c0.19527-0.04029 0.3733-0.12845 0.52239-0.25094z" color="#000000" fill="#fff" stroke-linecap="round" stroke-linejoin="round" style="-inkscape-stroke:none"/>
    </g>
    <g display="none" fill="none">
        <rect transform="rotate(90)" x="7.8232" y="-20.923" width="13.1" height="13.1" display="inline" stroke="#000" stroke-width=".070382"/>
        <rect x="7.2241" y="8.6528" width="14.298" height="11.441" stroke="#5261ff" stroke-linecap="round" stroke-linejoin="round" stroke-width=".06959"/>
        <rect transform="rotate(90)" x="7.2241" y="-20.094" width="14.298" height="11.441" display="inline" stroke="#0f0" stroke-linecap="round" stroke-linejoin="round" stroke-width=".06959"/>
    </g>
</svg>
