<?xml version="1.0" encoding="UTF-8"?>
<svg version="1.1" viewBox="0 0 28.747 28.747" xml:space="preserve" xmlns="http://www.w3.org/2000/svg" xmlns:xlink="http://www.w3.org/1999/xlink"><defs><filter id="filter6206-7" x="-.072" y="-.072" width="1.144" height="1.144" color-interpolation-filters="sRGB"><feGaussianBlur stdDeviation="0.658125"/></filter></defs><g transform="translate(0 -1093.8)"><path transform="matrix(1.0781 0 0 1.0641 -.093733 2.7509)" d="m4.4177 1028.2v1.6051h-1.6052v18.192h1.6052v2.1402h18.192v-2.1402h2.1402v-18.192h-2.1402v-1.6051z" fill="#263238" filter="url(#filter6206-7)" opacity=".2"/><rect x="2.9987" y="1096.8" width="22.749" height="22.749" rx="1.1973" ry="1.1974" fill="#4caf50"/><g transform="translate(-22.32 1056.5)"><path d="m0 0h51.2v51.2h-51.2z" fill="none" stroke-width="1.0667"/><g transform="matrix(.33601 0 0 .33601 1.5296 73.043)"><path d="m0 0h51.2v51.2h-51.2z" fill="none" stroke-width="1.0667"/></g><g transform="matrix(.37187 0 0 .37187 38.802 63.239)"><path d="m0 0h51.2v51.2h-51.2z" fill="none" stroke-width="1.0667"/><g transform="matrix(2.6891 0 0 2.6891 -82.906 -48.45)"><path d="m0 0h51.2v51.2h-51.2z" fill="none" stroke-width="1.0667"/></g></g></g><path d="m4.1958 1096.8c-0.66332 0-1.1979 0.5346-1.1979 1.1979v0.3334c0-0.6634 0.53459-1.1979 1.1979-1.1979h20.354c0.66332 0 1.1979 0.5345 1.1979 1.1979v-0.3334c0-0.6633-0.5346-1.1979-1.1979-1.1979z" fill="#fff" opacity=".2"/><rect x="128" y="546.52" width="42.667" height="42.667" fill="none" stroke-width="1.0667"/><rect x="128" y="631.85" width="42.667" height="42.667" fill="none" stroke-width="1.0667"/><rect x="128" y="674.52" width="42.667" height="42.667" fill="none" stroke-width="1.0667"/><rect x="128" y="589.19" width="42.667" height="42.667" fill="none" stroke-width="1.0667"/><rect x="128" y="717.19" width="42.667" height="42.667" fill="none" stroke-width="1.0667"/><rect x="213.33" y="546.52" width="42.667" height="42.667" fill="none" stroke-width="1.0667"/><rect x="213.33" y="631.85" width="42.667" height="42.667" fill="none" stroke-width="1.0667"/><rect x="213.33" y="674.52" width="42.667" height="42.667" fill="none" stroke-width="1.0667"/><rect x="213.33" y="589.19" width="42.667" height="42.667" fill="none" stroke-width="1.0667"/><rect x="213.33" y="717.19" width="42.667" height="42.667" fill="none" stroke-width="1.0667"/><rect x="298.67" y="546.52" width="42.667" height="42.667" fill="none" stroke-width="1.0667"/><rect x="298.67" y="631.85" width="42.667" height="42.667" fill="none" stroke-width="1.0667"/><rect x="298.67" y="674.52" width="42.667" height="42.667" fill="none" stroke-width="1.0667"/><rect x="298.67" y="589.19" width="42.667" height="42.667" fill="none" stroke-width="1.0667"/><rect x="298.67" y="717.19" width="42.667" height="42.667" fill="none" stroke-width="1.0667"/><rect x="170.67" y="546.52" width="42.667" height="42.667" fill="none" stroke-width="1.0667"/><rect x="170.67" y="631.85" width="42.667" height="42.667" fill="none" stroke-width="1.0667"/><rect x="170.67" y="674.52" width="42.667" height="42.667" fill="none" stroke-width="1.0667"/><rect x="170.67" y="589.19" width="42.667" height="42.667" fill="none" stroke-width="1.0667"/><rect x="170.67" y="717.19" width="42.667" height="42.667" fill="none" stroke-width="1.0667"/><rect x="256" y="546.52" width="42.667" height="42.667" fill="none" stroke-width="1.0667"/><rect x="256" y="631.85" width="42.667" height="42.667" fill="none" stroke-width="1.0667"/><rect x="256" y="674.52" width="42.667" height="42.667" fill="none" stroke-width="1.0667"/><rect x="256" y="589.19" width="42.667" height="42.667" fill="none" stroke-width="1.0667"/><rect x="256" y="717.19" width="42.667" height="42.667" fill="none" stroke-width="1.0667"/><rect x="128" y="759.85" width="42.667" height="42.667" fill="none" stroke-width="1.0667"/><rect x="213.33" y="759.85" width="42.667" height="42.667" fill="none" stroke-width="1.0667"/><rect x="298.67" y="759.85" width="42.667" height="42.667" fill="none" stroke-width="1.0667"/><rect x="170.67" y="759.85" width="42.667" height="42.667" fill="none" stroke-width="1.0667"/><rect x="256" y="759.85" width="42.667" height="42.667" fill="none" stroke-width="1.0667"/><rect x="341.33" y="589.19" width="42.667" height="42.667" fill="none" stroke-width="1.0667"/><rect x="341.33" y="631.85" width="42.667" height="42.667" fill="none" stroke-width="1.0667"/><rect x="341.33" y="717.19" width="42.667" height="42.667" fill="none" stroke-width="1.0667"/><rect x="341.33" y="546.52" width="42.667" height="42.667" fill="none" stroke-width="1.0667"/><rect x="341.33" y="674.52" width="42.667" height="42.667" fill="none" stroke-width="1.0667"/><rect x="341.33" y="759.85" width="42.667" height="42.667" fill="none" stroke-width="1.0667"/><rect x="160" y="578.52" width="192" height="192" fill="none" stroke-width="1.0667"/><g transform="matrix(.37344 0 0 .37344 4.7333 1097.4)"><path d="m0 0h51.2v51.2h-51.2z" fill="none" stroke-width="1.0667"/></g><g transform="matrix(.36471 0 0 .36471 5.1356 1097.4)"><path d="m0 0h51.2v51.2h-51.2z" fill="none" stroke-width="1.0667"/></g><g transform="matrix(.41585 0 0 .41585 84.325 1055.9)"><g transform="matrix(.062269 0 0 .062269 -28.238 185.29)"><g transform="matrix(38.618 0 0 38.618 14724 -13542)"><g transform="matrix(.71436 0 0 .71436 -400.52 188.34)"><path d="m1293.2-120.67c-181.75 0.2763-511.18 0.13525-699.05 0.13998-2.3216 10.413-3.593 21.251-3.593 32.384v114c207.65 0.73695 494.72 0.38136 706.23 0.3733v-114.37c0-11.18-1.2522-22.07-3.593-32.523zm-458.69 295.56c-78.385-4e-3 -158.85 0.17892-243.95 0.55995v138.63c286.34-0.39317 421.73-0.13827 706.23-0.32664v-137.75c-163.2-0.53005-311.22-1.1113-462.28-1.1199z" opacity="0" stroke-width="1.4932"/></g></g></g></g><path d="m24.549 1119.5c0.66325 0 1.1979-0.5346 1.1979-1.1979v-0.3333c0 0.6632-0.53461 1.1978-1.1979 1.1978h-20.354c-0.66325 0-1.1979-0.5346-1.1979-1.1978v0.3333c0 0.6633 0.53461 1.1979 1.1979 1.1979z" fill="#263238" opacity=".2"/></g><g><path d="m17.73 7.9108c-0.0703 0-0.13984 0.00288-0.20844 0.00852-0.03427 0.00283-0.0684 0.00633-0.10218 0.010543-0.03377 0.0042-0.06727 0.00913-0.10049 0.01473-0.03322 0.0056-0.06621 0.011905-0.09882 0.018867-0.26091 0.055667-0.50146 0.15469-0.70816 0.29337-0.02583 0.017328-0.05118 0.035287-0.07592 0.053851-0.08662 0.06495-0.16647 0.13744-0.23838 0.2171v5.04e-5c-0.05138 0.056904-0.09875 0.11741-0.14163 0.18153v5.05e-5c-0.0343 0.051278-0.06581 0.10483-0.09421 0.1606v5.05e-5c-0.03549 0.069716-0.06624 0.14291-0.09176 0.21942v5.04e-5c-0.0012 0.00368-0.0023 0.00744-0.0036 0.011148-0.0088 0.027039-0.01708 0.054406-0.02459 0.082277-0.0085 0.03168-0.0162 0.063865-0.02301 0.096604v5.05e-5c-0.03395 0.16362-0.0459 0.34028-0.03251 0.52903v5.04e-5c0.0014 0.018866 0.0029 0.03786 0.0047 0.056954v5.05e-5c0.01109 0.11469 0.01634 0.22257 0.01587 0.32396v5.1e-5c-9.69e-4 0.20277-0.02499 0.37953-0.07105 0.53289v5e-5c-0.0077 0.02553-0.01597 0.05042-0.02487 0.07466v5.1e-5c-0.0089 0.02427-0.01841 0.04787-0.02853 0.07085v5.1e-5c-0.01011 0.02298-0.02086 0.04535-0.03216 0.0671v5.1e-5c-0.2265 0.43512-0.69366 0.62397-1.3689 0.66127-0.59085 0.03264-1.4074 0.32414-2.0044 0.98675v5.1e-5c-0.0341 0.03786-0.0675 0.07691-0.10008 0.11719v5e-5c-0.01629 0.02015-0.03241 0.04058-0.04827 0.06134v5e-5c-0.04767 0.0623-0.09343 0.1274-0.13701 0.19538v5.1e-5c-0.02906 0.0453-0.05716 0.09189-0.08419 0.13976v5e-5c-0.01351 0.02393-0.02683 0.04818-0.03981 0.07276v5.1e-5c-0.01298 0.02457-0.0257 0.04948-0.03813 0.07474v5e-5c-0.01241 0.02523-0.02454 0.0508-0.0364 0.07671v2.6e-5c-0.01185 0.0259-0.02343 0.05211-0.03468 0.07869v5e-5c-0.01125 0.02656-0.02222 0.05345-0.03286 0.08069v5.2e-5c-0.02126 0.05448-0.04129 0.11032-0.05996 0.16753v5.1e-5c-0.0093 0.02861-0.01834 0.05753-0.02699 0.08682v5.1e-5c-0.0086 0.02929-0.01697 0.0589-0.02492 0.08886v5.1e-5c-0.02389 0.08995-0.04456 0.18304-0.06175 0.27932v5e-5c-0.0057 0.03209-0.01107 0.0645-0.01599 0.09731v5.1e-5c-0.0049 0.03279-0.0095 0.06593-0.01365 0.09945v5e-5c-0.0042 0.03352-0.0078 0.0674-0.01115 0.10162v5.1e-5c-0.0033 0.03425-0.0062 0.06883-0.0087 0.10379v5e-5c-0.0049 0.06997-0.0081 0.14135-0.0096 0.21424v5.1e-5c-0.0015 0.0729-9.69e-4 0.1473 0.0012 0.22317v5.1e-5c0.0012 0.03794 0.0028 0.07625 0.0048 0.11494v5.1e-5c0 2.02e-4 -2.6e-5 3.71e-4 0 5.94e-4 0.0016 0.03054 0.0027 0.06046 0.0033 0.09 1.77e-4 0.0094 1.51e-4 0.01846 2.27e-4 0.0277 2.27e-4 0.02026 2.84e-4 0.04034 0 0.0601-1.26e-4 0.01077-4.07e-4 0.02139-6.67e-4 0.03201-4.82e-4 0.01806-0.0012 0.03592-0.0021 0.05355-5.19e-4 0.01029-9.69e-4 0.02059-0.0016 0.03069-0.0012 0.01907-0.0028 0.03784-0.0045 0.05642-7.42e-4 0.0082-0.0014 0.01665-0.0022 0.02482-0.0027 0.02598-0.0057 0.05153-0.0092 0.07655-6.31e-4 0.0042-0.0014 0.0081-0.0019 0.0123-0.0031 0.02078-0.0065 0.04132-0.01019 0.06145-0.0016 0.0091-0.0035 0.01793-0.0053 0.02688-0.0032 0.01582-0.0065 0.03148-0.01004 0.04687-0.0018 0.0081-0.0038 0.01617-0.0058 0.02419-4e-3 0.01596-0.0081 0.03176-0.01246 0.0473-2e-3 0.0073-0.0041 0.01445-0.0061 0.02156-0.0048 0.01645-0.01004 0.03251-0.01536 0.04843-0.0019 0.0059-0.0038 0.01196-0.0059 0.01779-0.0074 0.02114-0.01511 0.0419-0.02331 0.06213-0.0013 0.0032-0.0027 0.0063-0.0041 0.0095-7e-3 0.01692-0.01422 0.03355-0.02177 0.04981-0.0031 0.0067-0.0064 0.01329-0.0097 0.01996-0.0061 0.01261-0.01236 0.0251-0.01882 0.03733-0.0036 0.0068-0.0073 0.0135-0.0109 0.02016-0.0065 0.01181-0.01317 0.02341-0.02 0.03484-0.0039 0.0066-0.0077 0.01309-0.0117 0.0195-0.0079 0.01278-0.0162 0.02525-0.02454 0.03756-0.0028 0.0041-0.0054 0.0083-0.0083 0.01247-0.0115 0.01649-0.02333 0.03259-0.03552 0.04822-0.0022 0.0029-0.0046 0.0056-0.0069 0.0084-0.01009 0.01269-0.02041 0.02517-0.03092 0.03729-0.0041 0.0047-0.0082 0.0092-0.01233 0.01375-0.0088 0.0098-0.01773 0.01952-0.02684 0.02899-0.0052 0.0053-0.01044 0.01069-0.01571 0.01596-0.0086 0.0085-0.01733 0.01685-0.02616 0.02506-0.0052 0.0048-0.01035 0.0097-0.01562 0.01442-0.01087 0.0097-0.02194 0.01919-0.03317 0.02848-0.0034 0.0028-0.0067 0.0057-0.01004 0.0084-0.0148 0.01195-0.0299 0.02351-0.04522 0.03469-0.0038 0.0027-0.0077 0.0053-0.01148 8e-3 -0.01181 0.0083-0.02371 0.01662-0.03582 0.02455-0.0053 0.0035-0.0108 0.0069-0.01622 0.01024-0.0109 0.0069-0.02191 0.01367-0.03304 0.0202-0.0058 0.0034-0.01161 0.0068-0.01746 0.01004-0.0113 0.0063-0.02276 0.01254-0.03428 0.01859-0.0056 0.0029-0.01123 6e-3 -0.0169 0.0088-0.01241 0.0063-0.02494 0.01223-0.03758 0.01808-5e-3 0.0023-0.01 0.0047-0.01503 7e-3 -0.01735 0.0078-0.03493 0.01521-0.05272 0.02227-0.0041 0.0016-0.0081 0.0031-0.01221 0.0047-0.01375 0.0053-0.02757 0.01047-0.04154 0.01535-7e-3 0.0024-0.01408 0.0047-0.02114 0.0072-0.01181 4e-3 -0.02368 0.0077-0.03566 0.0114-0.0067 2e-3 -0.01327 0.0041-0.01996 6e-3 -0.01302 0.0038-0.02613 0.0074-0.0393 0.01085-0.0063 0.0016-0.01246 0.0033-0.01872 0.0048-0.01874 0.0046-0.03758 0.0091-0.05662 0.01309-1.77e-4 5.1e-5 -3.6e-4 7.6e-5 -5.57e-4 1.01e-4 -0.02 0.0043-0.04017 8e-3 -0.06051 0.01159-0.0047 8.21e-4 -0.0096 0.0016-0.01442 0.0023-0.01468 0.0024-0.02943 0.0047-0.04429 0.0068-0.0082 0.0012-0.01656 0.0021-0.02488 0.0032-0.01161 0.0015-0.02323 0.0028-0.03493 0.0041-0.0087 8.96e-4 -0.01756 0.0018-0.02636 0.0026-0.01291 0.0012-0.0259 0.0022-0.03891 0.0031-0.0073 5.56e-4 -0.0146 0.0012-0.02197 0.0016-0.01592 9.69e-4 -0.03193 0.0017-0.04797 0.0023-5e-3 2.02e-4 -0.01007 5.56e-4 -0.01513 7.04e-4 -0.0202 6.31e-4 -0.0405 9.69e-4 -0.06089 0.0011-0.0078 2.4e-5 -0.01571-1.01e-4 -0.02358-1.52e-4 -0.01279-7.6e-5 -0.02556-2.02e-4 -0.03839-5.18e-4 -9e-3 -2.02e-4 -0.01801-5.2e-4 -0.02704-8.22e-4 -0.01294-4.44e-4 -0.02588-9.69e-4 -0.03887-0.0016-0.0086-4.45e-4 -0.01713-8.96e-4 -0.02573-0.0015-0.01307-8.2e-4 -0.02619-0.0017-0.0393-0.0028-0.0083-6.31e-4 -0.01658-0.0012-0.02487-0.0018-0.01625-0.0015-0.03248-0.0031-0.04879-0.0048-0.0087-8.95e-4 -0.01746-0.0018-0.0262-0.0028-0.01647-0.0018-0.03296-4e-3 -0.04946-0.0061-0.03498-0.0047-0.06999-0.01027-0.10503-0.01637-0.0057-9.69e-4 -0.0114-0.0019-0.0171-3e-3 -0.0346-0.0063-0.06924-0.01299-0.10379-0.02049-4e-3 -8.21e-4 -0.0079-0.0018-0.01188-0.0027-0.03301-0.0073-0.06598-0.01521-0.09887-0.02364-4e-3 -0.0011-0.0079-0.0019-0.01195-3e-3 -0.03484-0.0091-0.06946-0.01883-0.104-0.02913-0.0048-0.0015-0.0097-0.0029-0.01461-0.0044-0.034933-0.0106-0.069745-0.02164-0.10427-0.03342-0.00194-6.31e-4 -0.00388-0.0014-0.0059-0.0021-0.034402-0.01178-0.068603-0.02419-0.10251-0.03708-0.00246-9.68e-4 -0.00508-0.0018-0.00754-0.0028-0.033447-0.01282-0.066536-0.02628-0.099354-0.04015-0.0056-0.0023-0.011149-0.0047-0.016724-0.0071-0.032209-0.01383-0.064368-0.02813-0.096073-0.04298-0.23246-0.10892-0.44453-0.24282-0.61713-0.3922-0.14102-0.12203-0.35401 6e-3 -0.3171 0.18973 0.12463 0.62104 0.50605 1.491 1.6529 1.7347 1.8413 0.39126 2.659-0.75483 2.659-0.75483s0.49924 0.93414 0.85355 1.2421v0.0011h-5.1e-5v1.5918c0 0.01362 4.08e-4 0.02714 0.0011 0.04058 1.75e-4 0.0037 4.44e-4 0.0073 6.3e-4 0.01099 6.3e-4 0.01019 0.0014 0.02035 0.0023 0.03044 3.35e-4 0.0034 6.3e-4 0.0068 9.68e-4 0.01014 0.0013 0.01173 0.0028 0.02336 0.0045 0.03493 2.26e-4 0.0016 4.06e-4 0.0032 6.3e-4 0.0048 0.0021 0.01369 0.0046 0.02729 0.0073 0.04077 1.26e-4 6.68e-4 3.09e-4 0.0014 4.45e-4 0.0021 0.0024 0.01194 0.0052 0.02376 0.0081 0.03552 8.22e-4 0.0034 0.0017 0.0068 0.0026 0.01014 0.0026 0.0099 0.0053 0.01975 0.0083 0.02951 8.21e-4 0.0028 0.0016 0.0056 0.0025 0.0083 0.0016 0.0053 0.0036 0.01068 0.0053 0.01601 5e-3 0.01503 0.01044 0.02984 0.01625 0.04449 0.0015 0.0039 0.0029 0.0078 0.0046 0.01168 7e-3 0.01692 0.0146 0.03358 0.02265 0.04994 0.0022 0.0046 0.0046 9e-3 7e-3 0.01354 0.0078 0.01516 0.01584 0.03007 0.02446 0.04469 0.0012 0.0018 0.0021 0.0039 0.0033 0.0057 0.0096 0.01592 0.0198 0.03143 0.03034 0.04666 0.0028 0.0041 0.0057 8e-3 0.0086 0.01206 0.01074 0.01493 0.02177 0.02961 0.03339 0.04381 0.0016 0.0019 0.0034 0.0039 5e-3 0.0059 0.01062 0.01272 0.02162 0.02506 0.03294 0.03715 0.0034 0.0036 0.0068 0.0073 0.01024 0.01077 0.01261 0.01296 0.02556 0.02556 0.03892 0.0377 0.0028 0.0025 0.0057 0.0049 0.0085 0.0074 0.0121 0.01069 0.02446 0.02101 0.03715 0.031 0.0032 0.0024 0.0063 5e-3 0.0095 0.0076 0.01433 0.01095 0.029 0.02147 0.04404 0.03153 0.0041 0.0027 0.0082 0.0053 0.01241 8e-3 0.01351 0.0087 0.02727 0.01705 0.04129 0.02497 0.0028 0.0016 0.0056 0.0034 0.0084 0.0049 0.01604 0.0088 0.03251 0.01705 0.04916 0.02487 0.0045 0.0021 0.0089 0.0042 0.01339 0.0061 0.01727 0.0078 0.03474 0.01509 0.05256 0.02169 1.01e-4 2.5e-5 2.02e-4 1.01e-4 3.1e-4 1.25e-4v-2.4e-5c0.09123 0.03362 0.18975 0.052 0.29254 0.052h1.5841c0.23659 0 0.38622-0.25516 0.27319-0.46476-0.10546-0.19555-0.29153-0.41121-0.61966-0.55765-0.74529-0.33259-0.78979-0.60364-0.78979-1.6507 0 0 1.2348-0.52007 1.4069-1.8423 2.27e-4 -1.52e-4 4.45e-4 -3.35e-4 6.68e-4 -4.45e-4 0.02152-0.01263 0.04245-0.02568 0.06351-0.03862 0.01074-0.0067 0.02177-0.01304 0.03242-0.01972 1e-4 -5e-5 2.01e-4 -1.26e-4 3.09e-4 -1.76e-4 0.03082-0.01938 0.06107-0.03912 0.09098-0.05912 5.94e-4 -3.71e-4 0.0012-7.42e-4 0.0017-0.0012 2.5e-5 -2.6e-5 7.6e-5 -7.6e-5 1.26e-4 -1.01e-4 0.03053-0.02041 0.06046-0.04122 0.09003-0.06227 0.02961-0.02109 0.0587-0.04253 0.0874-0.06425 0.5797-0.43858 0.97134-0.99878 1.2357-1.5627 0.01266 0.0046 0.02587 0.0091 0.03822 0.01385 0.06271 0.02427 0.12112 0.0507 0.17406 0.08193 0.01321 0.0078 0.02611 0.01594 0.03862 0.02438 0.01253 0.0084 0.02466 0.01722 0.03644 0.02641 0.01178 0.0092 0.02312 0.01872 0.0341 0.02867h5.1e-5c0.14261 0.12955 0.21649 0.32999 0.17686 0.68973-1.76e-4 0.0015-2.02e-4 0.0029-3.6e-4 0.0044-0.0017 0.01672-0.0031 0.03306-0.0041 0.0492-3.09e-4 5e-3 -6.31e-4 0.01-8.21e-4 0.01488-7.46e-4 0.01675-0.0012 0.03317-0.0011 0.04926 0 0.0035 1.27e-4 7e-3 1.76e-4 0.01049 2.53e-4 0.01529 8.21e-4 0.03029 0.0017 0.045 1.51e-4 0.0022 2.26e-4 0.0046 3.71e-4 0.0067 0.0012 0.01629 0.0029 0.03211 5e-3 0.04765 3.71e-4 0.0029 8.21e-4 0.0058 0.0012 0.0087 0.0022 0.01544 0.0047 0.03059 0.0078 0.04522 3.09e-4 0.0015 7.04e-4 0.0029 0.0011 0.0044 0.0029 0.01362 0.0062 0.02684 0.0099 0.03976 6.69e-4 0.0025 0.0014 5e-3 0.0021 0.0076 4e-3 0.01345 0.0082 0.02651 0.01289 0.03917 9.69e-4 0.0025 0.0019 5e-3 0.0029 0.0077 0.0047 0.01241 0.0097 0.02451 0.01511 0.03614 1.51e-4 3.35e-4 3.09e-4 6.67e-4 4.82e-4 9.69e-4 0.0056 0.01195 0.01155 0.02336 0.01779 0.03446 0.0014 0.0024 0.0028 0.0049 0.0042 0.0074 0.0062 0.01068 0.01276 0.02101 0.01955 0.03087 8.21e-4 0.0012 0.0016 0.0022 0.0024 0.0034 0.0064 0.0091 0.01311 0.01781 0.02001 0.0262 0.0014 0.0016 0.0026 0.0034 4e-3 0.0049 0.0075 0.0088 0.01516 0.01718 0.02311 0.02512 0.0016 0.0015 0.0032 0.0031 0.0047 0.0046 0.0082 8e-3 0.01665 0.01569 0.02535 0.02276 5e-5 2.5e-5 7.6e-5 2.5e-5 1.01e-4 5.1e-5 0.0092 0.0075 0.01869 0.0143 0.02833 0.02071 8.95e-4 6.3e-4 0.0018 0.0012 0.0027 0.0017 0.0095 0.0062 0.01927 0.01191 0.02921 0.0171 9.68e-4 5.19e-4 2e-3 9.69e-4 0.0031 0.0015 0.0097 5e-3 0.01962 0.0095 0.02971 0.0134 4.45e-4 1.76e-4 8.95e-4 4.44e-4 0.0014 6.31e-4 0.01035 0.0041 0.02092 0.0074 0.03158 0.01035 0.0014 3.71e-4 0.0027 7.05e-4 0.0041 0.0011 0.03364 0.0088 0.06865 0.01243 0.10427 0.01039h1.01e-4c0.02396-0.0014 0.04815-0.0053 0.07241-0.01188 5.57e-4 -1.27e-4 0.0011-2.84e-4 0.0016-4.45e-4 0.09817-0.02679 0.19714-0.0961 0.28222-0.21311 2.01e-4 -2.52e-4 3.71e-4 -5.56e-4 5.56e-4 -8.2e-4 0.10215-0.14085 0.18423-0.35035 0.22055-0.63782 0.13396-1.0605-0.53319-1.2679-1.1527-1.5765 0.23548-0.88122 0.21435-1.5917 0.21435-1.5917s0.85408 0.31721 1.3186 0.46829c0.25886 0.08419 0.48053-0.04739 0.62604-0.18045 0.11229-0.10268 0.11277-0.28076 0.0037-0.38687l-1.2821-1.2469 1.8024 0.83668c0.1383 0.06419 0.30096-0.01458 0.33638-0.1639 0.08245-0.34775 0.16584-0.95-0.08152-1.4189-0.18077-0.34268-0.6162-0.82409-1.1452-1.2271 5.93e-4 3.269e-4 0.0012 6.563e-4 0.0017 9.881e-4 -0.0053-0.00408-0.01093-0.00804-0.01632-0.012106-0.02084-0.015764-0.04182-0.031327-0.06291-0.046814-0.01315-0.00966-0.02625-0.019321-0.0395-0.028855-0.02273-0.01637-0.04566-0.032412-0.06864-0.048428-0.01259-0.00878-0.02512-0.017555-0.03778-0.026207-0.02225-0.015165-0.04454-0.030047-0.06697-0.044852-0.01438-0.00948-0.02873-0.019019-0.04318-0.028377-0.02164-0.013948-0.04343-0.027594-0.06523-0.041164-0.01463-0.00911-0.02919-0.018286-0.04387-0.027215-0.02212-0.013443-0.04437-0.026484-0.06664-0.039499-0.01513-0.00885-0.03024-0.017808-0.04543-0.02646-0.02121-0.012057-0.04253-0.023634-0.06384-0.035263-0.01626-0.00888-0.03246-0.017883-0.04879-0.026509-0.02122-0.011199-0.04248-0.021919-0.06373-0.032663-0.0162-0.00818-0.03236-0.016521-0.04858-0.024442-0.02172-0.010568-0.04346-0.020557-0.06523-0.030646-0.01606-0.00742-0.03211-0.015058-0.04818-0.022197-0.02243-0.00996-0.04487-0.019245-0.0673-0.028628-0.01639-0.00686-0.03277-0.014025-0.04916-0.020557-0.0057-0.00227-0.01148-0.00444-0.01721-0.00668-0.03218-0.012611-0.06437-0.024643-0.09651-0.035918-0.0112-0.00393-0.02237-0.00777-0.03355-0.011526-6e-3 -2e-3 -0.01191-0.00401-0.01783-0.00596-0.01173-0.00386-0.02343-0.00754-0.03514-0.011199-0.0081-0.00255-0.01634-0.00517-0.02452-0.00764-0.0098-0.00295-0.01962-0.00573-0.02941-0.00855-0.0085-0.00247-0.01707-0.00505-0.02557-0.00739-0.01197-0.00333-0.02391-0.0064-0.03586-0.00951-0.0067-0.00171-0.01324-0.00349-0.01985-0.00511-0.01254-0.00315-0.02499-0.00608-0.03748-0.00898-0.0061-0.00141-0.0123-0.00293-0.01844-0.00429-0.01019-0.00227-0.02035-0.00434-0.03055-0.00645-0.0093-0.00192-0.01853-0.00393-0.02777-0.00571-0.0095-0.00184-0.01886-0.0034-0.0283-0.00507-0.0083-0.00148-0.0167-0.00307-0.02502-0.00444-0.01128-0.00187-0.0225-0.00349-0.03374-0.00511-0.0074-0.00108-0.01486-0.00227-0.02224-0.00326-0.01107-0.00148-0.0221-0.00267-0.03312-0.00393-0.0072-8.284e-4 -0.0143-0.00179-0.02144-0.00252-0.01783-0.00181-0.03566-0.00338-0.0534-0.00464-2.03e-4 0-4.45e-4 -2.52e-5 -6.31e-4 -5.04e-5 -0.01809-0.00126-0.03609-0.00219-0.05405-0.00285h-4.45e-4c-0.01799-6.303e-4 -0.03592-9.881e-4 -0.05376-9.881e-4zm1.1312 1.2884c0.19977 0 0.35042 0.19326 0.35042 0.44948 0 0.25622-0.15066 0.44945-0.35042 0.44945s-0.3504-0.19323-0.3504-0.44945c0-0.25622 0.15063-0.44948 0.3504-0.44948z" fill="#fff" stroke-width=".025223"/></g><g display="none" fill="none"><rect transform="rotate(90)" x="7.8232" y="-20.923" width="13.1" height="13.1" display="inline" stroke="#000" stroke-width=".070382"/><rect x="7.2241" y="8.6528" width="14.298" height="11.441" stroke="#5261ff" stroke-linecap="round" stroke-linejoin="round" stroke-width=".06959"/><rect transform="rotate(90)" x="7.2241" y="-20.094" width="14.298" height="11.441" display="inline" stroke="#0f0" stroke-linecap="round" stroke-linejoin="round" stroke-width=".06959"/></g></svg>
