<?xml version="1.0" encoding="UTF-8"?>
<svg version="1.1" viewBox="0 0 28.747 28.747" xmlns="http://www.w3.org/2000/svg" xmlns:xlink="http://www.w3.org/1999/xlink">
    <defs>
        <filter id="filter6206-7" x="-.072" y="-.072" width="1.144" height="1.144" color-interpolation-filters="sRGB">
            <feGaussianBlur stdDeviation="0.658125"/>
        </filter>
    </defs>
    <g transform="translate(0 -1093.8)">
        <path transform="matrix(1.0781 0 0 1.0641 -.093733 2.7509)" d="m4.4177 1028.2v1.6051h-1.6052v18.192h1.6052v2.1402h18.192v-2.1402h2.1402v-18.192h-2.1402v-1.6051z" fill="#263238" filter="url(#filter6206-7)" opacity=".2"/>
        <rect x="2.9987" y="1096.8" width="22.749" height="22.749" rx="1.1973" ry="1.1974" fill="#607d8b"/>
        <g transform="translate(-22.32 1056.5)">
            <path d="m0 0h51.2v51.2h-51.2z" fill="none" stroke-width="1.0667"/>
            <g transform="matrix(.33601 0 0 .33601 1.5296 73.043)">
                <path d="m0 0h51.2v51.2h-51.2z" fill="none" stroke-width="1.0667"/>
            </g>
            <g transform="matrix(.37187 0 0 .37187 38.802 63.239)">
                <path d="m0 0h51.2v51.2h-51.2z" fill="none" stroke-width="1.0667"/>
                <g transform="matrix(2.6891 0 0 2.6891 -82.906 -48.45)">
                    <path d="m0 0h51.2v51.2h-51.2z" fill="none" stroke-width="1.0667"/>
                </g>
            </g>
        </g>
        <path d="m4.1958 1096.8c-0.66332 0-1.1979 0.5346-1.1979 1.1979v0.3334c0-0.6634 0.53459-1.1979 1.1979-1.1979h20.354c0.66332 0 1.1979 0.5345 1.1979 1.1979v-0.3334c0-0.6633-0.5346-1.1979-1.1979-1.1979z" fill="#fff" opacity=".2"/>
        <rect x="128" y="546.52" width="42.667" height="42.667" fill="none" stroke-width="1.0667"/>
        <rect x="128" y="631.85" width="42.667" height="42.667" fill="none" stroke-width="1.0667"/>
        <rect x="128" y="674.52" width="42.667" height="42.667" fill="none" stroke-width="1.0667"/>
        <rect x="128" y="589.19" width="42.667" height="42.667" fill="none" stroke-width="1.0667"/>
        <rect x="128" y="717.19" width="42.667" height="42.667" fill="none" stroke-width="1.0667"/>
        <rect x="213.33" y="546.52" width="42.667" height="42.667" fill="none" stroke-width="1.0667"/>
        <rect x="213.33" y="631.85" width="42.667" height="42.667" fill="none" stroke-width="1.0667"/>
        <rect x="213.33" y="674.52" width="42.667" height="42.667" fill="none" stroke-width="1.0667"/>
        <rect x="213.33" y="589.19" width="42.667" height="42.667" fill="none" stroke-width="1.0667"/>
        <rect x="213.33" y="717.19" width="42.667" height="42.667" fill="none" stroke-width="1.0667"/>
        <rect x="298.67" y="546.52" width="42.667" height="42.667" fill="none" stroke-width="1.0667"/>
        <rect x="298.67" y="631.85" width="42.667" height="42.667" fill="none" stroke-width="1.0667"/>
        <rect x="298.67" y="674.52" width="42.667" height="42.667" fill="none" stroke-width="1.0667"/>
        <rect x="298.67" y="589.19" width="42.667" height="42.667" fill="none" stroke-width="1.0667"/>
        <rect x="298.67" y="717.19" width="42.667" height="42.667" fill="none" stroke-width="1.0667"/>
        <rect x="170.67" y="546.52" width="42.667" height="42.667" fill="none" stroke-width="1.0667"/>
        <rect x="170.67" y="631.85" width="42.667" height="42.667" fill="none" stroke-width="1.0667"/>
        <rect x="170.67" y="674.52" width="42.667" height="42.667" fill="none" stroke-width="1.0667"/>
        <rect x="170.67" y="589.19" width="42.667" height="42.667" fill="none" stroke-width="1.0667"/>
        <rect x="170.67" y="717.19" width="42.667" height="42.667" fill="none" stroke-width="1.0667"/>
        <rect x="256" y="546.52" width="42.667" height="42.667" fill="none" stroke-width="1.0667"/>
        <rect x="256" y="631.85" width="42.667" height="42.667" fill="none" stroke-width="1.0667"/>
        <rect x="256" y="674.52" width="42.667" height="42.667" fill="none" stroke-width="1.0667"/>
        <rect x="256" y="589.19" width="42.667" height="42.667" fill="none" stroke-width="1.0667"/>
        <rect x="256" y="717.19" width="42.667" height="42.667" fill="none" stroke-width="1.0667"/>
        <rect x="128" y="759.85" width="42.667" height="42.667" fill="none" stroke-width="1.0667"/>
        <rect x="213.33" y="759.85" width="42.667" height="42.667" fill="none" stroke-width="1.0667"/>
        <rect x="298.67" y="759.85" width="42.667" height="42.667" fill="none" stroke-width="1.0667"/>
        <rect x="170.67" y="759.85" width="42.667" height="42.667" fill="none" stroke-width="1.0667"/>
        <rect x="256" y="759.85" width="42.667" height="42.667" fill="none" stroke-width="1.0667"/>
        <rect x="341.33" y="589.19" width="42.667" height="42.667" fill="none" stroke-width="1.0667"/>
        <rect x="341.33" y="631.85" width="42.667" height="42.667" fill="none" stroke-width="1.0667"/>
        <rect x="341.33" y="717.19" width="42.667" height="42.667" fill="none" stroke-width="1.0667"/>
        <rect x="341.33" y="546.52" width="42.667" height="42.667" fill="none" stroke-width="1.0667"/>
        <rect x="341.33" y="674.52" width="42.667" height="42.667" fill="none" stroke-width="1.0667"/>
        <rect x="341.33" y="759.85" width="42.667" height="42.667" fill="none" stroke-width="1.0667"/>
        <rect x="160" y="578.52" width="192" height="192" fill="none" stroke-width="1.0667"/>
        <g transform="matrix(.37344 0 0 .37344 4.7333 1097.4)">
            <path d="m0 0h51.2v51.2h-51.2z" fill="none" stroke-width="1.0667"/>
        </g>
        <g transform="matrix(.36471 0 0 .36471 5.1356 1097.4)">
            <path d="m0 0h51.2v51.2h-51.2z" fill="none" stroke-width="1.0667"/>
        </g>
        <g transform="matrix(.41585 0 0 .41585 84.325 1055.9)">
            <g transform="matrix(.062269 0 0 .062269 -28.238 185.29)">
                <g transform="matrix(38.618 0 0 38.618 14724 -13542)">
                    <g transform="matrix(.71436 0 0 .71436 -400.52 188.34)">
                        <path d="m1293.2-120.67c-181.75 0.2763-511.18 0.13525-699.05 0.13998-2.3216 10.413-3.593 21.251-3.593 32.384v114c207.65 0.73695 494.72 0.38136 706.23 0.3733v-114.37c0-11.18-1.2522-22.07-3.593-32.523zm-458.69 295.56c-78.385-4e-3 -158.85 0.17892-243.95 0.55995v138.63c286.34-0.39317 421.73-0.13827 706.23-0.32664v-137.75c-163.2-0.53005-311.22-1.1113-462.28-1.1199z" opacity="0" stroke-width="1.4932"/>
                    </g>
                </g>
            </g>
        </g>
        <path d="m24.549 1119.5c0.66325 0 1.1979-0.5346 1.1979-1.1979v-0.3333c0 0.6632-0.53461 1.1978-1.1979 1.1978h-20.354c-0.66325 0-1.1979-0.5346-1.1979-1.1978v0.3333c0 0.6633 0.53461 1.1979 1.1979 1.1979z" fill="#263238" opacity=".2"/>
    </g>
    <g fill="#fff">
        <path d="m9.7603 16.169q0.31028 1.4628 0.89919 1.4628 0.22796 0 0.43693-0.16464 0.20897-0.17097 0.38627-0.4116 0.18364-0.24696 0.32295-0.51925t0.22796-0.47492q0.06332-0.15198 0.22163-0.15198 0.10132 0 0.17097 0.07599 0.06966 0.07599 0.06966 0.16464 0 0.05066-0.019 0.08865-0.04433 0.10765-0.13298 0.29129-0.08232 0.1773-0.20897 0.38627-0.12031 0.20263-0.27229 0.41793t-0.33561 0.38627-0.3926 0.28496q-0.20263 0.10765-0.4306 0.10765-0.42427 0-0.72822-0.29129-0.30395-0.29762-0.52558-0.97518-0.30395 0.6459-0.61424 0.93718t-0.67123 0.29129q-0.18997 0-0.36727-0.06332-0.17731-0.05699-0.31028-0.1963-0.13298-0.13931-0.2153-0.35461-0.08232-0.22163-0.08232-0.53825 0-0.43693 0.15198-0.8042t0.3926-0.6269q0.24063-0.26596 0.53192-0.4116 0.29762-0.14564 0.58891-0.14564 0.094985 0 0.16464 0.06966 0.069656 0.06332 0.069656 0.16464 0 0.08865-0.056991 0.15831-0.056991 0.06966-0.15198 0.08232-0.18997 0.02533-0.40527 0.12031-0.2153 0.09498-0.39894 0.27862-0.17731 0.1773-0.29762 0.45593-0.11398 0.27862-0.11398 0.66489 0 0.31662 0.12665 0.49392 0.13298 0.1773 0.37994 0.1773 0.10132 0 0.2153-0.05066 0.11398-0.05699 0.24063-0.2153 0.13298-0.15831 0.28495-0.4496 0.15831-0.29129 0.34828-0.76621-0.10765-0.55724-0.1963-1.2855-0.088653-0.72822-0.088653-1.6274 0-0.3926 0.025329-0.81687 0.025329-0.4306 0.08232-0.83587 0.056991-0.4116 0.15198-0.77888 0.094985-0.36728 0.22796-0.6459 0.13931-0.27863 0.32295-0.43694 0.18364-0.16464 0.41793-0.16464 0.20897 0 0.35461 0.11398 0.14564 0.11398 0.2343 0.31662 0.09498 0.20263 0.13931 0.48759 0.04433 0.28496 0.04433 0.6269 0 0.73455-0.12665 1.4691-0.12665 0.73455-0.31662 1.4058-0.18364 0.67123-0.3926 1.2411-0.20897 0.56991-0.37994 0.98151zm0.74088-5.1039q0-0.15831-0.01267-0.34194-0.0063-0.18364-0.04433-0.34195-0.03166-0.16464-0.08865-0.27229-0.05699-0.10765-0.15198-0.10765-0.15831 0-0.29762 0.27862-0.13298 0.27862-0.2343 0.73455-0.10132 0.4496-0.16464 1.0258-0.056991 0.56991-0.056991 1.1525 0 0.55724 0.044326 1.1145 0.044326 0.55724 0.10132 0.99418 0.18364-0.48759 0.34828-1.0005 0.16464-0.51925 0.28496-1.0575 0.12665-0.53825 0.1963-1.0828 0.07599-0.55091 0.07599-1.0955z"/>
        <path d="m13.446 17.442q0.10132-0.20897 0.2343-0.45593 0.13298-0.25329 0.28496-0.50659 0.15198-0.25962 0.31662-0.51292 0.17097-0.25329 0.35461-0.48126 0.18364-0.22163 0.36728-0.31662 0.18997-0.10132 0.35461-0.10132 0.32928 0 0.48759 0.24063 0.15831 0.24063 0.15831 0.59524 0 0.08232-0.01266 0.20263-0.0063 0.11398-0.019 0.24696-0.0063 0.13298-0.019 0.27229-0.0063 0.13298-0.0063 0.25329 0 0.15198 0.01267 0.29129 0.019 0.13931 0.06332 0.24696 0.04433 0.10132 0.12665 0.16464 0.08232 0.05699 0.2153 0.05699 0.24063 0 0.46859-0.18364 0.22796-0.18997 0.41793-0.44326 0.1963-0.25963 0.33561-0.52558 0.14564-0.26596 0.2153-0.4306 0.03166-0.06966 0.08865-0.10765 0.06332-0.03799 0.13298-0.03799 0.10765 0 0.17097 0.08232 0.06966 0.07599 0.06966 0.16464 0 0.04433-0.019 0.08865-0.02533 0.05066-0.10132 0.20897-0.07599 0.15831-0.20264 0.36728-0.12031 0.20263-0.28495 0.43693-0.16464 0.22796-0.36728 0.41793-0.1963 0.18997-0.4306 0.31662-0.22796 0.12665-0.48126 0.12665-0.28495 0-0.46226-0.10765-0.1773-0.11398-0.27862-0.29129-0.10132-0.18364-0.13931-0.39894-0.03166-0.22163-0.03166-0.44326 0-0.09499 0.0063-0.2153 0.01267-0.12031 0.02533-0.25329 0.019-0.13298 0.02533-0.26596 0.01266-0.13298 0.01266-0.25329 0-0.20263-0.06332-0.27229-0.06332-0.07599-0.11398-0.07599-0.10132 0-0.2343 0.12032-0.12665 0.11398-0.27229 0.30395-0.13931 0.18997-0.29129 0.4306-0.14564 0.2343-0.27862 0.46859-0.12665 0.2343-0.24063 0.4496-0.10765 0.20897-0.17097 0.34828-0.12665 0.26596-0.25329 0.35461-0.12665 0.09499-0.25962 0.09499-0.18364 0-0.29762-0.10765-0.10765-0.11398-0.10765-0.31662 0-0.04433 0.01267-0.17097 0.01266-0.13298 0.03166-0.31028 0.019-0.18364 0.03799-0.3926 0.019-0.20897 0.03799-0.4116 0.019-0.20897 0.03166-0.38627t0.01266-0.29762q0-0.15831-0.01266-0.30395-0.01267-0.14564-0.05066-0.1773-0.05699 0.019-0.20263 0.24063-0.14564 0.2153-0.37361 0.76621-0.03166 0.06966-0.09498 0.10765t-0.13298 0.03799q-0.10765 0-0.17097-0.06966-0.06332-0.07599-0.06332-0.17097 0-0.04433 0.019-0.09499 0.28495-0.67756 0.53192-0.99418 0.25329-0.32295 0.50025-0.32295 0.14564 0 0.24696 0.07599 0.10132 0.06966 0.15831 0.18997 0.06332 0.12031 0.08865 0.26596 0.03166 0.14564 0.03166 0.29762 0 0.11398-0.019 0.35461-0.01267 0.24063-0.03799 0.51925-0.02533 0.27229-0.05066 0.54458-0.019 0.27229-0.03799 0.45593z"/>
        <path d="m18.512 15.669q-0.03799 0.10132-0.09499 0.22796-0.05066 0.12665-0.12031 0.26596-0.05699 0.10765-0.12031 0.17097-0.05699 0.05699-0.15198 0.05699-0.10765 0-0.17097-0.06332-0.06332-0.06966-0.06332-0.15831 0-0.03166 0.0063-0.05066 0.0063-0.02533 0.03166-0.07599 0.16464-0.31662 0.24063-0.55091 0.08232-0.24063 0.13298-0.50025-0.04433-0.14564-0.06332-0.24696-0.019-0.10132-0.019-0.20897 0-0.20897 0.08865-0.33561 0.08865-0.13298 0.24696-0.13298 0.14564 0 0.22796 0.12665 0.08865 0.12665 0.08865 0.31028 0 0.10132-0.019 0.20264-0.019 0.10132-0.05066 0.25329 0.14564 0.36094 0.29129 0.63956 0.14564 0.27862 0.25962 0.51292 0.11398 0.22796 0.18364 0.4306 0.07599 0.20263 0.07599 0.40527 0 0.26596-0.10765 0.50659-0.10765 0.24063-0.35461 0.40527 0.03166 0.0063 0.06332 0.0063t0.06332 0q0.36094 0 0.66489-0.16464 0.30395-0.16464 0.54458-0.42427 0.24696-0.26596 0.43693-0.58257 0.18997-0.32295 0.32928-0.63956 0.06332-0.14564 0.1773-0.14564 0.10765 0 0.16464 0.07599 0.06332 0.07599 0.06332 0.16464 0 0.05066-0.019 0.09498-0.06966 0.17097-0.18364 0.3926-0.10765 0.2153-0.26596 0.4496-0.15198 0.22796-0.35461 0.4496-0.20263 0.22163-0.45593 0.39894-0.24696 0.17097-0.54458 0.27229-0.29762 0.10765-0.65223 0.10765-0.42426 0-0.79154-0.15198-0.36094-0.14564-0.58891-0.48759-0.03799-0.05699-0.03799-0.12031 0-0.09499 0.06965-0.16464 0.07599-0.07599 0.17097-0.07599 0.10132 0 0.17097 0.06966 0.0063 0.01266 0.04433 0.04433 0.03799 0.02533 0.08865 0.06332 0.05699 0.03166 0.12665 0.05699 0.07599 0.02533 0.15198 0.02533 0.15198 0 0.25329-0.06332 0.10765-0.06332 0.17097-0.15198 0.06332-0.09498 0.08865-0.1963 0.03166-0.10765 0.03166-0.18364 0-0.15831-0.05066-0.31662t-0.13298-0.31662q-0.07599-0.15831-0.17097-0.32295-0.08865-0.17097-0.16464-0.35461z"/>
    </g>
    <g display="none" fill="none">
        <rect transform="rotate(90)" x="7.8232" y="-20.923" width="13.1" height="13.1" display="inline" stroke="#000" stroke-width=".070382"/>
        <rect x="7.2241" y="8.6528" width="14.298" height="11.441" stroke="#5261ff" stroke-linecap="round" stroke-linejoin="round" stroke-width=".06959"/>
        <rect transform="rotate(90)" x="7.2241" y="-20.094" width="14.298" height="11.441" display="inline" stroke="#0f0" stroke-linecap="round" stroke-linejoin="round" stroke-width=".06959"/>
    </g>
</svg>
