<?xml version="1.0" encoding="UTF-8"?>
<svg version="1.1" viewBox="0 0 28.747 28.747" xmlns="http://www.w3.org/2000/svg">
    <defs>
        <filter id="filter6206-7" color-interpolation-filters="sRGB">
            <feGaussianBlur stdDeviation="0.658125"/>
        </filter>
    </defs>
    <g transform="translate(0 -1093.8)">
        <path transform="matrix(1.0781 0 0 1.0641 -.093733 2.7509)" d="m4.4177 1028.2v1.6051h-1.6052v18.192h1.6052v2.1402h18.192v-2.1402h2.1402v-18.192h-2.1402v-1.6051z" fill="#1a237e" filter="url(#filter6206-7)" opacity=".2"/>
        <rect x="2.9987" y="1096.8" width="22.749" height="22.749" rx="1.1973" ry="1.1974" fill="#3f51b5"/>
        <g transform="translate(-22.32 1056.5)">
            <path d="m0 0h51.2v51.2h-51.2z" fill="none" stroke-width="1.0667"/>
            <g transform="matrix(.33601 0 0 .33601 1.5296 73.043)">
                <path d="m0 0h51.2v51.2h-51.2z" fill="none" stroke-width="1.0667"/>
            </g>
            <g transform="matrix(.37187 0 0 .37187 38.802 63.239)">
                <path d="m0 0h51.2v51.2h-51.2z" fill="none" stroke-width="1.0667"/>
                <g transform="matrix(2.6891 0 0 2.6891 -82.906 -48.45)">
                    <path d="m0 0h51.2v51.2h-51.2z" fill="none" stroke-width="1.0667"/>
                </g>
            </g>
        </g>
        <path d="m4.1958 1096.8c-0.66332 0-1.1979 0.5346-1.1979 1.1979v0.3334c0-0.6634 0.53459-1.1979 1.1979-1.1979h20.354c0.66332 0 1.1979 0.5345 1.1979 1.1979v-0.3334c0-0.6633-0.5346-1.1979-1.1979-1.1979z" fill="#fff" opacity=".2"/>
        <rect x="128" y="546.52" width="42.667" height="42.667" fill="none" stroke-width="1.0667"/>
        <rect x="128" y="631.85" width="42.667" height="42.667" fill="none" stroke-width="1.0667"/>
        <rect x="128" y="674.52" width="42.667" height="42.667" fill="none" stroke-width="1.0667"/>
        <rect x="128" y="589.19" width="42.667" height="42.667" fill="none" stroke-width="1.0667"/>
        <rect x="128" y="717.19" width="42.667" height="42.667" fill="none" stroke-width="1.0667"/>
        <rect x="213.33" y="546.52" width="42.667" height="42.667" fill="none" stroke-width="1.0667"/>
        <rect x="213.33" y="631.85" width="42.667" height="42.667" fill="none" stroke-width="1.0667"/>
        <rect x="213.33" y="674.52" width="42.667" height="42.667" fill="none" stroke-width="1.0667"/>
        <rect x="213.33" y="589.19" width="42.667" height="42.667" fill="none" stroke-width="1.0667"/>
        <rect x="213.33" y="717.19" width="42.667" height="42.667" fill="none" stroke-width="1.0667"/>
        <rect x="298.67" y="546.52" width="42.667" height="42.667" fill="none" stroke-width="1.0667"/>
        <rect x="298.67" y="631.85" width="42.667" height="42.667" fill="none" stroke-width="1.0667"/>
        <rect x="298.67" y="674.52" width="42.667" height="42.667" fill="none" stroke-width="1.0667"/>
        <rect x="298.67" y="589.19" width="42.667" height="42.667" fill="none" stroke-width="1.0667"/>
        <rect x="298.67" y="717.19" width="42.667" height="42.667" fill="none" stroke-width="1.0667"/>
        <rect x="170.67" y="546.52" width="42.667" height="42.667" fill="none" stroke-width="1.0667"/>
        <rect x="170.67" y="631.85" width="42.667" height="42.667" fill="none" stroke-width="1.0667"/>
        <rect x="170.67" y="674.52" width="42.667" height="42.667" fill="none" stroke-width="1.0667"/>
        <rect x="170.67" y="589.19" width="42.667" height="42.667" fill="none" stroke-width="1.0667"/>
        <rect x="170.67" y="717.19" width="42.667" height="42.667" fill="none" stroke-width="1.0667"/>
        <rect x="256" y="546.52" width="42.667" height="42.667" fill="none" stroke-width="1.0667"/>
        <rect x="256" y="631.85" width="42.667" height="42.667" fill="none" stroke-width="1.0667"/>
        <rect x="256" y="674.52" width="42.667" height="42.667" fill="none" stroke-width="1.0667"/>
        <rect x="256" y="589.19" width="42.667" height="42.667" fill="none" stroke-width="1.0667"/>
        <rect x="256" y="717.19" width="42.667" height="42.667" fill="none" stroke-width="1.0667"/>
        <rect x="128" y="759.85" width="42.667" height="42.667" fill="none" stroke-width="1.0667"/>
        <rect x="213.33" y="759.85" width="42.667" height="42.667" fill="none" stroke-width="1.0667"/>
        <rect x="298.67" y="759.85" width="42.667" height="42.667" fill="none" stroke-width="1.0667"/>
        <rect x="170.67" y="759.85" width="42.667" height="42.667" fill="none" stroke-width="1.0667"/>
        <rect x="256" y="759.85" width="42.667" height="42.667" fill="none" stroke-width="1.0667"/>
        <rect x="341.33" y="589.19" width="42.667" height="42.667" fill="none" stroke-width="1.0667"/>
        <rect x="341.33" y="631.85" width="42.667" height="42.667" fill="none" stroke-width="1.0667"/>
        <rect x="341.33" y="717.19" width="42.667" height="42.667" fill="none" stroke-width="1.0667"/>
        <rect x="341.33" y="546.52" width="42.667" height="42.667" fill="none" stroke-width="1.0667"/>
        <rect x="341.33" y="674.52" width="42.667" height="42.667" fill="none" stroke-width="1.0667"/>
        <rect x="341.33" y="759.85" width="42.667" height="42.667" fill="none" stroke-width="1.0667"/>
        <rect x="160" y="578.52" width="192" height="192" fill="none" stroke-width="1.0667"/>
        <g transform="matrix(.37344 0 0 .37344 4.7333 1097.4)">
            <path d="m0 0h51.2v51.2h-51.2z" fill="none" stroke-width="1.0667"/>
        </g>
        <g transform="matrix(.36471 0 0 .36471 5.1356 1097.4)">
            <path d="m0 0h51.2v51.2h-51.2z" fill="none" stroke-width="1.0667"/>
        </g>
        <g transform="matrix(.41585 0 0 .41585 84.325 1055.9)">
            <g transform="matrix(.062269 0 0 .062269 -28.238 185.29)">
                <g transform="matrix(38.618 0 0 38.618 14724 -13542)">
                    <g transform="matrix(.71436 0 0 .71436 -400.52 188.34)">
                        <path d="m1293.2-120.67c-181.75 0.2763-511.18 0.13525-699.05 0.13998-2.3216 10.413-3.593 21.251-3.593 32.384v114c207.65 0.73695 494.72 0.38136 706.23 0.3733v-114.37c0-11.18-1.2522-22.07-3.593-32.523zm-458.69 295.56c-78.385-4e-3 -158.85 0.17892-243.95 0.55995v138.63c286.34-0.39317 421.73-0.13827 706.23-0.32664v-137.75c-163.2-0.53005-311.22-1.1113-462.28-1.1199z" opacity="0" stroke-width="1.4932"/>
                    </g>
                </g>
            </g>
        </g>
        <path d="m24.549 1119.5c0.66325 0 1.1979-0.5346 1.1979-1.1979v-0.3333c0 0.6632-0.53461 1.1978-1.1979 1.1978h-20.354c-0.66325 0-1.1979-0.5346-1.1979-1.1978v0.3333c0 0.6633 0.53461 1.1979 1.1979 1.1979z" fill="#1a237e" opacity=".2"/>
    </g>
    <flowRoot fill="#000000" font-family="Roboto" font-size="12.8px" letter-spacing="0px" stroke-width="1.0667px" word-spacing="0px" style="line-height:0.01%" xml:space="preserve"><flowRegion><rect x="11.375" y="11.984" width="4.7893" height="5.388" stroke-width="1.1378px"/></flowRegion><flowPara font-size="4px" style="line-height:1.25">your</flowPara></flowRoot>
    <path d="m14.35 8.6838c-0.88428 0-1.7687 0.042119-1.8972 0.12634-0.21391 0.14016-0.46736 0.53471-1.1357 1.7673l-0.14565 0.26864h-1.492c-1.5444 0-1.6162 0.01167-1.9805 0.32236-0.45467 0.38777-0.47199 0.61128-0.3905 5.0273 0.054722 2.9652 0.063111 3.1012 0.2047 3.2908 0.21687 0.29032 0.48781 0.47133 0.79681 0.53224 0.1503 0.02963 2.949 0.04911 6.2192 0.04323l5.9458-0.01064 0.33328-0.19602c0.23355-0.1373 0.37633-0.28747 0.47655-0.50145 0.13519-0.28865 0.14498-0.49767 0.17811-3.7987 0.02545-2.535 0.01223-3.5706-0.04813-3.775-0.10229-0.34646-0.2892-0.58317-0.61744-0.78183-0.2343-0.14181-0.34956-0.15173-1.7597-0.15195l-1.509-2.88e-4 -0.14579-0.26864c-0.66833-1.2325-0.92178-1.6271-1.1357-1.7673-0.12854-0.084228-1.0128-0.12634-1.8971-0.12634zm-0.21337 3.5777c0.06382-5.93e-4 0.13438-3.59e-4 0.21337 1.44e-4 0.68528 0.0045 0.90852 0.0583 1.4743 0.35552 0.35447 0.18622 1.0303 0.90035 1.2097 1.2784 0.43449 0.91561 0.42605 1.9979-0.02223 2.8747-0.36886 0.72145-1.2522 1.369-2.0805 1.5249-0.67262 0.12662-1.2138 0.05016-1.8576-0.26248-0.84062-0.40817-1.4801-1.3113-1.6549-2.3374-0.22118-1.298 0.48768-2.6166 1.7135-3.1877 0.4365-0.20334 0.55764-0.24228 1.0044-0.24611zm0.23548 1.6366c-0.2116 4.34e-4 -0.42631 0.0082-0.5216 0.02308-0.63993 0.10015-1.196 0.33479-1.7187 0.7249-0.18306 0.13662-0.2289 0.20155-0.2289 0.3246 0 0.15756 0.07025 0.26199 0.20036 0.29788 0.08174 0.02254 0.20951-0.0083 0.29298-0.07065 0.18046-0.13489 0.38448-0.2667 0.52496-0.33929 0.87872-0.45409 1.921-0.47162 2.7923-0.04687 0.26422 0.12882 0.35854 0.18669 0.57603 0.35356 0.12642 0.097 0.14306 0.10368 0.25786 0.10368 0.10982 0 0.1301-0.0071 0.19266-0.06771 0.16484-0.15978 0.14008-0.32881-0.07332-0.50104-0.1855-0.14971-0.22543-0.17791-0.39792-0.28165-0.42447-0.25529-0.83242-0.4015-1.3934-0.49949-0.0832-0.01453-0.29168-0.02144-0.50327-0.02099zm-3e-3 1.1126c-0.17063-2.16e-4 -0.33975 0.0068-0.40464 0.02099-0.05419 0.01188-0.1457 0.03165-0.20344 0.04393-0.09634 0.02083-0.20933 0.06136-0.32054 0.10241-0.09825 0-0.63972 0.32869-0.70461 0.42772-0.04783 0.073-0.04625 0.25993 0.0026 0.32348 0.02025 0.02631 0.06485 0.0658 0.0992 0.08773 0.11152 0.0712 0.21583 0.05572 0.3905-0.05778 0.37463-0.24342 0.74699-0.36126 1.1417-0.36126 0.36141 0 0.81495 0.13994 1.1127 0.34335 0.03465 0.02365 0.06767 0.04825 0.07346 0.05457 0.03323 0.03643 0.11537 0.06408 0.1907 0.06408 0.18482 0 0.33937-0.19571 0.28766-0.3642-0.0296-0.09644-0.08503-0.15682-0.23702-0.25828-0.28698-0.19159-0.62114-0.32488-1.0145-0.40464-0.07103-0.0144-0.24324-0.02188-0.41387-0.02211zm4e-3 1.0923c-0.06519 2.15e-4 -0.13233 0.0078-0.21183 0.0228-0.41449 0.07811-0.66264 0.23734-0.66264 0.4252 0 0.12466 0.06304 0.218 0.18902 0.28011 0.0712 0.03509 0.17662 0.021 0.31495-0.04226 0.26508-0.12123 0.46511-0.11881 0.75344 0.0092 0.07376 0.03275 0.15792 0.05961 0.18706 0.05961 0.07127 0 0.2205-0.08989 0.25003-0.15055 0.13479-0.27691-0.07246-0.47157-0.6201-0.5826-0.07153-0.0145-0.13475-0.02176-0.19994-0.02155z" fill="#fff"/>
    <g display="none" fill="none">
        <rect transform="rotate(90)" x="7.8232" y="-20.923" width="13.1" height="13.1" display="inline" stroke="#000" stroke-width=".070382"/>
        <rect x="7.2241" y="8.6528" width="14.298" height="11.441" stroke="#5261ff" stroke-linecap="round" stroke-linejoin="round" stroke-width=".069589"/>
        <rect transform="rotate(90)" x="7.2241" y="-20.094" width="14.298" height="11.441" display="inline" stroke="#0f0" stroke-linecap="round" stroke-linejoin="round" stroke-width=".069589"/>
    </g>
</svg>
