<?xml version="1.0" encoding="UTF-8"?>
<svg version="1.1" viewBox="0 0 28.747 28.747" xmlns="http://www.w3.org/2000/svg" xmlns:xlink="http://www.w3.org/1999/xlink">
    <defs>
        <filter id="filter6206-7" x="-.072" y="-.072" width="1.144" height="1.144" color-interpolation-filters="sRGB">
            <feGaussianBlur stdDeviation="0.658125"/>
        </filter>
    </defs>
    <g transform="translate(0 -1093.8)">
        <path transform="matrix(1.0781 0 0 1.0641 -.093733 2.7509)" d="m4.4177 1028.2v1.6051h-1.6052v18.192h1.6052v2.1402h18.192v-2.1402h2.1402v-18.192h-2.1402v-1.6051z" fill="#1a237e" filter="url(#filter6206-7)" opacity=".2"/>
        <rect x="2.9987" y="1096.8" width="22.749" height="22.749" rx="1.1973" ry="1.1974" fill="#2196f3"/>
        <g transform="translate(-22.32 1056.5)">
            <path d="m0 0h51.2v51.2h-51.2z" fill="none" stroke-width="1.0667"/>
            <g transform="matrix(.33601 0 0 .33601 1.5296 73.043)">
                <path d="m0 0h51.2v51.2h-51.2z" fill="none" stroke-width="1.0667"/>
            </g>
            <g transform="matrix(.37187 0 0 .37187 38.802 63.239)">
                <path d="m0 0h51.2v51.2h-51.2z" fill="none" stroke-width="1.0667"/>
                <g transform="matrix(2.6891 0 0 2.6891 -82.906 -48.45)">
                    <path d="m0 0h51.2v51.2h-51.2z" fill="none" stroke-width="1.0667"/>
                </g>
            </g>
        </g>
        <path d="m4.1958 1096.8c-0.66332 0-1.1979 0.5346-1.1979 1.1979v0.3334c0-0.6634 0.53459-1.1979 1.1979-1.1979h20.354c0.66332 0 1.1979 0.5345 1.1979 1.1979v-0.3334c0-0.6633-0.5346-1.1979-1.1979-1.1979z" fill="#fff" opacity=".2"/>
        <rect x="128" y="546.52" width="42.667" height="42.667" fill="none" stroke-width="1.0667"/>
        <rect x="128" y="631.85" width="42.667" height="42.667" fill="none" stroke-width="1.0667"/>
        <rect x="128" y="674.52" width="42.667" height="42.667" fill="none" stroke-width="1.0667"/>
        <rect x="128" y="589.19" width="42.667" height="42.667" fill="none" stroke-width="1.0667"/>
        <rect x="128" y="717.19" width="42.667" height="42.667" fill="none" stroke-width="1.0667"/>
        <rect x="213.33" y="546.52" width="42.667" height="42.667" fill="none" stroke-width="1.0667"/>
        <rect x="213.33" y="631.85" width="42.667" height="42.667" fill="none" stroke-width="1.0667"/>
        <rect x="213.33" y="674.52" width="42.667" height="42.667" fill="none" stroke-width="1.0667"/>
        <rect x="213.33" y="589.19" width="42.667" height="42.667" fill="none" stroke-width="1.0667"/>
        <rect x="213.33" y="717.19" width="42.667" height="42.667" fill="none" stroke-width="1.0667"/>
        <rect x="298.67" y="546.52" width="42.667" height="42.667" fill="none" stroke-width="1.0667"/>
        <rect x="298.67" y="631.85" width="42.667" height="42.667" fill="none" stroke-width="1.0667"/>
        <rect x="298.67" y="674.52" width="42.667" height="42.667" fill="none" stroke-width="1.0667"/>
        <rect x="298.67" y="589.19" width="42.667" height="42.667" fill="none" stroke-width="1.0667"/>
        <rect x="298.67" y="717.19" width="42.667" height="42.667" fill="none" stroke-width="1.0667"/>
        <rect x="170.67" y="546.52" width="42.667" height="42.667" fill="none" stroke-width="1.0667"/>
        <rect x="170.67" y="631.85" width="42.667" height="42.667" fill="none" stroke-width="1.0667"/>
        <rect x="170.67" y="674.52" width="42.667" height="42.667" fill="none" stroke-width="1.0667"/>
        <rect x="170.67" y="589.19" width="42.667" height="42.667" fill="none" stroke-width="1.0667"/>
        <rect x="170.67" y="717.19" width="42.667" height="42.667" fill="none" stroke-width="1.0667"/>
        <rect x="256" y="546.52" width="42.667" height="42.667" fill="none" stroke-width="1.0667"/>
        <rect x="256" y="631.85" width="42.667" height="42.667" fill="none" stroke-width="1.0667"/>
        <rect x="256" y="674.52" width="42.667" height="42.667" fill="none" stroke-width="1.0667"/>
        <rect x="256" y="589.19" width="42.667" height="42.667" fill="none" stroke-width="1.0667"/>
        <rect x="256" y="717.19" width="42.667" height="42.667" fill="none" stroke-width="1.0667"/>
        <rect x="128" y="759.85" width="42.667" height="42.667" fill="none" stroke-width="1.0667"/>
        <rect x="213.33" y="759.85" width="42.667" height="42.667" fill="none" stroke-width="1.0667"/>
        <rect x="298.67" y="759.85" width="42.667" height="42.667" fill="none" stroke-width="1.0667"/>
        <rect x="170.67" y="759.85" width="42.667" height="42.667" fill="none" stroke-width="1.0667"/>
        <rect x="256" y="759.85" width="42.667" height="42.667" fill="none" stroke-width="1.0667"/>
        <rect x="341.33" y="589.19" width="42.667" height="42.667" fill="none" stroke-width="1.0667"/>
        <rect x="341.33" y="631.85" width="42.667" height="42.667" fill="none" stroke-width="1.0667"/>
        <rect x="341.33" y="717.19" width="42.667" height="42.667" fill="none" stroke-width="1.0667"/>
        <rect x="341.33" y="546.52" width="42.667" height="42.667" fill="none" stroke-width="1.0667"/>
        <rect x="341.33" y="674.52" width="42.667" height="42.667" fill="none" stroke-width="1.0667"/>
        <rect x="341.33" y="759.85" width="42.667" height="42.667" fill="none" stroke-width="1.0667"/>
        <rect x="160" y="578.52" width="192" height="192" fill="none" stroke-width="1.0667"/>
        <g transform="matrix(.37344 0 0 .37344 4.7333 1097.4)">
            <path d="m0 0h51.2v51.2h-51.2z" fill="none" stroke-width="1.0667"/>
        </g>
        <g transform="matrix(.36471 0 0 .36471 5.1356 1097.4)">
            <path d="m0 0h51.2v51.2h-51.2z" fill="none" stroke-width="1.0667"/>
        </g>
        <g transform="matrix(.41585 0 0 .41585 84.325 1055.9)">
            <g transform="matrix(.062269 0 0 .062269 -28.238 185.29)">
                <g transform="matrix(38.618 0 0 38.618 14724 -13542)">
                    <g transform="matrix(.71436 0 0 .71436 -400.52 188.34)">
                        <path d="m1293.2-120.67c-181.75 0.2763-511.18 0.13525-699.05 0.13998-2.3216 10.413-3.593 21.251-3.593 32.384v114c207.65 0.73695 494.72 0.38136 706.23 0.3733v-114.37c0-11.18-1.2522-22.07-3.593-32.523zm-458.69 295.56c-78.385-4e-3 -158.85 0.17892-243.95 0.55995v138.63c286.34-0.39317 421.73-0.13827 706.23-0.32664v-137.75c-163.2-0.53005-311.22-1.1113-462.28-1.1199z" opacity="0" stroke-width="1.4932"/>
                    </g>
                </g>
            </g>
        </g>
        <path d="m24.549 1119.5c0.66325 0 1.1979-0.5346 1.1979-1.1979v-0.3333c0 0.6632-0.53461 1.1978-1.1979 1.1978h-20.354c-0.66325 0-1.1979-0.5346-1.1979-1.1978v0.3333c0 0.6633 0.53461 1.1979 1.1979 1.1979z" fill="#1a237e" opacity=".2"/>
    </g>
    <g>
        <g transform="matrix(.69628 0 0 .69628 30.857 -126.92)" fill="#fff" fill-rule="evenodd" stroke-width=".0625">
            <path d="m-25.106 193.63c-0.35712 0.0844-0.49181 0.1125-0.5425 0.11288-0.0302 2.5e-4 -0.15962 0.0333-0.2875 0.0734-0.12787 0.0401-0.345 0.10425-0.4825 0.14243-0.1375 0.0382-0.3625 0.11863-0.5 0.17875-0.1375 0.0601-0.32875 0.14375-0.425 0.18575-1.3588 0.59344-2.7389 1.6118-3.417 2.5212-0.0774 0.10382-0.1605 0.20507-0.18475 0.225-0.0242 0.02-0.0759 0.0802-0.11494 0.13382l-0.0708 0.0975v0.56037c0 0.61819-1e-3 0.62506-0.15587 0.7135-0.0586 0.0337-0.191 0.10919-0.29413 0.16794-0.38181 0.2175-0.62356 0.38181-0.63962 0.43469-9e-3 0.0294-0.0926 0.2335-0.18588 0.4535-0.0933 0.22-0.18356 0.46187-0.2005 0.5375-0.017 0.0756-0.0503 0.18812-0.0741 0.25-0.0238 0.0619-0.0514 0.16875-0.0614 0.2375-0.01 0.0688-0.0393 0.18687-0.0654 0.2625-0.0259 0.0756-0.0708 0.33437-0.0996 0.575-0.029 0.24062-0.0649 0.52187-0.0801 0.625-0.0379 0.258-0.0361 1.8414 2e-3 2.0375 0.0162 0.0825 0.0473 0.31875 0.0692 0.525s0.0569 0.42 0.0778 0.475 0.0578 0.19 0.0821 0.3c0.12937 0.58618 0.35875 1.2068 0.46762 1.2651 0.0317 0.017 0.0577 0.0409 0.0577 0.0531s0.0591 0.0504 0.13125 0.0849c0.0722 0.0345 0.21 0.10606 0.30625 0.15894 0.247 0.13562 0.26144 0.13281 0.73969-0.14532 0.0631-0.0367 0.15312-0.0879 0.2-0.11375 0.047-0.0258 0.19218-0.11118 0.32281-0.18968 0.13062-0.0784 0.32187-0.19125 0.425-0.25063 0.10312-0.0594 0.22687-0.13175 0.275-0.16087 0.0482-0.0291 0.12125-0.0715 0.1625-0.0943 0.10987-0.0606 0.51106-0.28975 0.6125-0.34975 0.0481-0.0285 0.20562-0.12187 0.35-0.2075 0.14437-0.0857 0.34687-0.20325 0.45-0.26137 0.341-0.19213 0.7315-0.41781 1.5375-0.88875 0.15125-0.0884 0.32-0.18513 0.375-0.21506 0.055-0.0299 0.12581-0.0746 0.15744-0.0992 0.0315-0.0247 0.09-0.052 0.12981-0.0608 0.17275-0.0379 0.223-0.63525 0.159-1.8898l-0.016-0.31469-0.12125 0.0584c-0.0666 0.0322-0.12969 0.0588-0.14006 0.0592-0.0104 2.5e-4 -0.0631 0.0342-0.11707 0.075-0.054 0.0409-0.11225 0.0743-0.12937 0.0743-0.0171 0-0.0629 0.026-0.10175 0.0579-0.0389 0.0318-0.10688 0.0724-0.15113 0.0902-0.0442 0.0177-0.0934 0.0479-0.10931 0.0671-0.0632 0.0762-0.19731 0.0309-0.63525-0.21418-0.0688-0.0385-0.186-0.10275-0.26056-0.14282-0.23394-0.12562-0.23813-0.13737-0.24775-0.69118-0.0121-0.7-0.0726-0.61157 0.72556-1.0604 0.32281-0.18144 0.25975-0.1955 0.97025 0.21588 0.35694 0.20662 0.35 0.19068 0.35 0.80443 0 0.55407 0.0127 0.59069 0.17144 0.49488 0.0501-0.0302 0.13606-0.0797 0.19106-0.10994 0.055-0.0302 0.15625-0.0902 0.225-0.13344 0.0687-0.0433 0.18125-0.10762 0.25-0.14312 0.17644-0.0911 0.29719-0.15838 0.5125-0.28556 0.10313-0.0609 0.22844-0.13138 0.2785-0.1565 0.20306-0.10207 0.18319 0.25543 0.1905-3.4327l7e-3 -3.2842-0.0691-0.0751c-0.0789-0.0857-0.73088-0.45238-0.799-0.44919-0.0247 1e-3 -0.10688 0.0167-0.1825 0.0345m2.2125 2.5e-4c-0.0412 0.0206-0.1425 0.0767-0.225 0.12475-0.0825 0.048-0.20063 0.11082-0.2625 0.1395-0.14331 0.0665-0.19544 0.11432-0.23956 0.21994-0.0448 0.10719-0.0535 6.3501-9e-3 6.5101 0.0239 0.0859 0.13331 0.21863 0.18025 0.21863 0.0108 0 0.11006 0.0534 0.22068 0.11875 0.1955 0.11544 0.34144 0.19769 0.57275 0.32262 0.0619 0.0335 0.17438 0.0993 0.25 0.14632 0.0756 0.0471 0.16075 0.0961 0.18913 0.10906 0.0284 0.0129 0.10656 0.0583 0.17369 0.10087 0.2335 0.14813 0.23625 0.142 0.23725-0.53512 5e-4 -0.275 0.0105-0.51544 0.0224-0.53431 0.0446-0.0703 0.92412-0.55319 1.0076-0.55319 0.0722 0 0.2895 0.11369 0.69488 0.36356 0.0756 0.0466 0.17393 0.10406 0.21843 0.12756 0.10663 0.0564 0.11125 0.089 0.10188 0.71663l-8e-3 0.52019-0.0625 0.0499c-0.0343 0.0275-0.10906 0.0709-0.166 0.0965-0.0569 0.0256-0.11056 0.0579-0.11925 0.0719-9e-3 0.014-0.0746 0.0547-0.1465 0.0904-0.0719 0.0358-0.20388 0.10388-0.29325 0.15144-0.20181 0.10744-0.24456 0.10612-0.4625-0.0139-0.0962-0.053-0.22563-0.12031-0.2875-0.14956-0.0619-0.0292-0.12938-0.0683-0.15-0.0868-0.0711-0.0638-0.30813-0.14006-0.32969-0.10606-0.0108 0.0169-0.0197 0.47319-0.0199 1.0139l-2.5e-4 0.98319 0.0731 0.0731c0.0402 0.0402 0.0893 0.0731 0.10913 0.0731 0.0199 0 0.0637 0.0218 0.0976 0.0484s0.11694 0.0789 0.18463 0.11631c0.0677 0.0373 0.17937 0.1 0.24812 0.13919 0.0687 0.0392 0.17238 0.0941 0.23019 0.12194 0.0579 0.0278 0.11175 0.0611 0.11969 0.074 8e-3 0.0129 0.12375 0.0849 0.25731 0.16 0.13356 0.0752 0.33844 0.19369 0.45531 0.26337 0.11688 0.0697 0.22569 0.12682 0.24181 0.12682 0.0162 0 0.0613 0.0268 0.10025 0.0596 0.0389 0.0328 0.11013 0.0778 0.15813 0.0998 0.0926 0.0426 0.17012 0.0869 0.58012 0.3315 0.36994 0.22075 0.91044 0.53138 1.1964 0.68763 0.0413 0.0225 0.1195 0.0704 0.17369 0.10625 0.0542 0.0359 0.10556 0.0652 0.11425 0.0652 9e-3 0 0.14675 0.0796 0.30681 0.17675 0.29919 0.18168 0.32088 0.19437 0.491 0.28737 0.055 0.03 0.17313 0.0971 0.2625 0.14888 0.38444 0.223 0.40325 0.223 0.7875 5e-4 0.0825-0.0477 0.195-0.109 0.25-0.13625 0.16956-0.084 0.4625-0.52338 0.4625-0.69375 0-0.0121 0.022-0.0631 0.0489-0.11338 0.0558-0.10412 0.12957-0.36425 0.21138-0.74544 0.031-0.14437 0.069-0.30187 0.0844-0.35 0.0154-0.0481 0.0446-0.2 0.0649-0.3375s0.0553-0.3175 0.0779-0.4c0.11062-0.40387 0.11281-2.1052 4e-3 -2.5875-0.0328-0.14437-0.0737-0.36375-0.0909-0.4875-0.0173-0.12375-0.0425-0.25312-0.0559-0.2875-0.0135-0.0344-0.0457-0.1525-0.0714-0.2625-0.16356-0.69812-0.48868-1.4544-0.685-1.593-0.12218-0.0863-0.56787-0.35168-0.76787-0.45725-0.16863-0.089-0.16963-0.0932-0.16963-0.70568v-0.54675l-0.0715-0.11119c-0.0393-0.0611-0.10275-0.13925-0.141-0.17363-0.0383-0.0344-0.1195-0.12962-0.1805-0.21162-0.061-0.0821-0.13281-0.17206-0.15956-0.2-0.68862-0.72006-0.96169-0.95575-1.6084-1.3884-0.64457-0.43118-0.71819-0.47481-1.0766-0.63812-0.11-0.0501-0.2675-0.12238-0.35-0.16063-0.45862-0.2125-1.2639-0.50018-1.51-0.53937-0.0605-0.01-0.18425-0.0432-0.275-0.0746-0.0907-0.0314-0.23812-0.0649-0.3275-0.0744-0.0894-0.01-0.25812-0.038-0.375-0.0632-0.33012-0.0711-0.47581-0.0808-0.5625-0.0376m-2.9404 10.707c-0.0614 0.046-0.19094 0.12431-0.59125 0.35781-0.12744 0.0743-0.34119 0.19963-0.475 0.27844-0.13388 0.0788-0.294 0.16756-0.35588 0.19731-0.0619 0.0297-0.14431 0.0805-0.18318 0.11294-0.0389 0.0325-0.0821 0.0589-0.0961 0.0589s-0.12844 0.0638-0.25431 0.14181c-0.28125 0.17425-0.66238 0.39675-1.0512 0.61356-0.081 0.0452-0.16537 0.0934-0.1875 0.10732-0.0221 0.0138-0.13019 0.0769-0.24019 0.14006-0.11 0.0632-0.27312 0.16181-0.3625 0.21919-0.0894 0.0574-0.2075 0.12768-0.2625 0.15625-0.1565 0.0813-0.24537 0.13093-0.37756 0.211-0.0673 0.0408-0.15619 0.0928-0.19744 0.11556-0.54806 0.30231-0.81993 0.47562-0.85512 0.54525-0.0446 0.0881-0.043 0.81531 2e-3 0.89644 0.11275 0.20331 1.239 1.3596 1.5741 1.6161 0.10781 0.0825 0.25406 0.1985 0.325 0.25781 0.0709 0.0592 0.19088 0.1425 0.2665 0.185 0.0756 0.0425 0.17644 0.10644 0.22394 0.14219 0.14906 0.112 0.23744 0.16381 0.72606 0.4255 0.57694 0.309 1.2166 0.59687 1.5625 0.70331 0.0825 0.0254 0.20063 0.0632 0.2625 0.084 0.41506 0.13969 0.47413 0.15488 1.2762 0.32781 0.23881 0.0515 0.22119 0.0554 0.46125-0.10068 0.0962-0.0626 0.22238-0.13625 0.28019-0.16382 0.0579-0.0275 0.11062-0.0588 0.11725-0.0695 7e-3 -0.0107 0.0967-0.063 0.20012-0.11618 0.20963-0.10782 0.18175-0.11094 0.43994 0.0486 0.0756 0.0468 0.1825 0.10812 0.2375 0.13637 0.055 0.0282 0.1675 0.0911 0.25 0.13963 0.31969 0.18818 0.27081 0.17981 0.66975 0.11456 0.19538-0.032 0.4565-0.0736 0.58025-0.0926s0.2925-0.0566 0.375-0.0836c0.0825-0.0271 0.25125-0.0659 0.375-0.0865 0.21344-0.0354 0.42725-0.10606 0.65-0.21463 0.055-0.0268 0.2125-0.0929 0.35-0.14687 0.38719-0.152 1.0063-0.4475 1.2-0.57281 0.0962-0.0622 0.24813-0.16257 0.3375-0.22288 0.0894-0.0603 0.22438-0.15 0.3-0.19931 0.0756-0.0493 0.19938-0.142 0.275-0.20594 0.0756-0.0639 0.23313-0.18756 0.35-0.27475 0.32131-0.23969 0.81763-0.74587 1.1052-1.1272 0.0363-0.0481 0.11837-0.14375 0.18244-0.2125 0.20087-0.2155 0.21937-0.28112 0.19837-0.7045-0.0209-0.42093-0.0596-0.50306-0.2985-0.63306-0.25231-0.13725-0.37587-0.20869-0.4125-0.2385-0.0206-0.0168-0.124-0.076-0.22975-0.13156-0.10575-0.0556-0.23494-0.13-0.28706-0.16544-0.0521-0.0354-0.10563-0.0644-0.11888-0.0644-0.0132 0-0.0641-0.0261-0.11293-0.058-0.14832-0.0969-0.62657-0.378-0.83888-0.49318-0.11-0.0596-0.20562-0.11557-0.2125-0.12425-7e-3 -9e-3 -0.11937-0.0748-0.25-0.14682-0.33194-0.18312-0.54762-0.30787-0.8375-0.48437-0.1375-0.0838-0.30062-0.17913-0.3625-0.212-0.0619-0.0329-0.16475-0.0899-0.22862-0.12681-0.0638-0.0369-0.18194-0.104-0.2625-0.14919-0.30813-0.17294-0.39769-0.22481-0.78594-0.45538-0.5305-0.315-0.49931-0.29918-0.59138-0.29962-0.0841-2.5e-4 -0.13337 0.025-0.89406 0.46187-0.23375 0.13425-0.47156 0.26425-0.5285 0.28888-0.0569 0.0247-0.11162 0.0579-0.1215 0.0739-0.01 0.016-0.0678 0.0505-0.12862 0.0766l-0.11069 0.0474 0.0383 0.0739c0.0358 0.0692 0.344 0.27212 0.58856 0.38756 0.0481 0.0227 0.1325 0.0669 0.1875 0.0983l0.1 0.057 0.014 1.2364-0.0942 0.0389c-0.0518 0.0215-0.11106 0.0532-0.13168 0.0707-0.0206 0.0174-0.15869 0.0954-0.30688 0.17325-0.14812 0.0778-0.30562 0.16363-0.35 0.19063-0.12231 0.0746-0.11225 0.077-0.44531-0.10706-0.0882-0.0487-0.22781-0.12844-0.31031-0.17713-0.0825-0.0488-0.20344-0.11312-0.26875-0.14312l-0.11875-0.0545v-0.59382c0-0.5055 6e-3 -0.59868 0.0387-0.626 0.0213-0.0176 0.20762-0.12868 0.41412-0.24681 0.26419-0.15106 0.39007-0.23806 0.42475-0.29356l0.0493-0.0789-0.14469-0.0799c-0.37425-0.20663-0.47425-0.26475-0.9685-0.56238-0.22831-0.1375-0.44012-0.26387-0.47068-0.28087-0.0807-0.0448-0.22707-0.0385-0.29588 0.013"/>
            <path d="m-24.536 193.78c0.18838 0.1035 0.37356 0.22194 0.4115 0.26319l0.0691 0.0751-7e-3 3.2842c-7e-3 3.6881 0.0126 3.3306-0.1905 3.4327-0.0501 0.0251-0.17537 0.0956-0.2785 0.1565-0.21531 0.12718-0.33606 0.19443-0.5125 0.28556-0.0688 0.0355-0.18125 0.0999-0.25 0.14312-0.0688 0.0432-0.17 0.10325-0.225 0.13344-0.055 0.0302-0.141 0.0797-0.19106 0.10994-0.15875 0.0958-0.17144 0.0592-0.17144-0.49488 0-0.61375 7e-3 -0.59781-0.35-0.80443-0.7105-0.41138-0.64743-0.39732-0.97025-0.21588-0.79818 0.44881-0.73768 0.36038-0.72556 1.0604 0.01 0.55381 0.0139 0.56556 0.24775 0.69118 0.0746 0.04 0.19181 0.10432 0.26056 0.14282 0.43794 0.24512 0.57207 0.29037 0.63525 0.21418 0.0159-0.0191 0.0651-0.0493 0.10932-0.0671 0.0443-0.0178 0.11225-0.0583 0.15112-0.0902 0.0388-0.0318 0.0847-0.0579 0.10175-0.0579 0.0171 0 0.0754-0.0335 0.12938-0.0743 0.054-0.0409 0.10668-0.0746 0.11706-0.075 0.0103-5e-4 0.0734-0.027 0.14006-0.0592l0.12125-0.0584 0.016 0.31469c0.064 1.2546 0.0138 1.8519-0.159 1.8898-0.0398 9e-3 -0.0983 0.0361-0.12981 0.0608-0.0316 0.0246-0.10244 0.0693-0.15744 0.0992s-0.22375 0.12668-0.375 0.21506c-0.806 0.47094-1.1965 0.69662-1.5375 0.88875-0.10312 0.0581-0.30562 0.17569-0.45 0.26137-0.14437 0.0856-0.30187 0.179-0.35 0.2075-0.10144 0.06-0.50262 0.28913-0.6125 0.34975-0.0413 0.0228-0.11437 0.0653-0.1625 0.0943-0.0482 0.0291-0.17187 0.1015-0.275 0.16087-0.10312 0.0594-0.29437 0.17219-0.425 0.25063-0.13062 0.0785-0.27587 0.16387-0.32281 0.18968-0.0468 0.0258-0.13688 0.0771-0.2 0.11375-0.47825 0.27813-0.49269 0.28094-0.73969 0.14532-0.0962-0.0529-0.23406-0.12438-0.30625-0.15894-0.0722-0.0345-0.13125-0.0728-0.13125-0.0849s-0.026-0.036-0.0577-0.0531c-0.10887-0.0583-0.33825-0.67888-0.46762-1.2651-0.0242-0.11-0.0612-0.245-0.0821-0.3-0.0208-0.055-0.0558-0.26875-0.0778-0.475-0.0219-0.20625-0.053-0.4425-0.0692-0.525-0.0385-0.19607-0.0403-1.7795-2e-3 -2.0375 0.0152-0.10313 0.0512-0.38438 0.0801-0.625 0.0289-0.24063 0.0737-0.49938 0.0996-0.575 0.026-0.0756 0.0554-0.19375 0.0654-0.2625 0.01-0.0687 0.0376-0.17563 0.0614-0.2375 0.0238-0.0619 0.0571-0.17438 0.0741-0.25 0.017-0.0756 0.10719-0.3175 0.2005-0.5375 0.0933-0.22 0.17694-0.42407 0.18588-0.4535 0.0161-0.0529 0.25781-0.21719 0.63962-0.43469 0.49963-0.28469 0.45-0.1875 0.45-0.88144v-0.56037l0.0708-0.0975c0.039-0.0536 0.0907-0.11382 0.11493-0.13382 0.0242-0.0199 0.10738-0.12118 0.18475-0.225 0.67807-0.90943 2.0582-1.9278 3.417-2.5212 0.0962-0.042 0.2875-0.12562 0.425-0.18575 0.1375-0.0601 0.3625-0.14056 0.5-0.17875 0.1375-0.0382 0.35463-0.10231 0.4825-0.14243 0.12788-0.0402 0.25725-0.0732 0.2875-0.0734 0.0507-2.5e-4 0.18538-0.0284 0.5425-0.11288 0.20732-0.049 0.20313-0.0501 0.57 0.15144m2.205-0.11344c0.11688 0.0252 0.28563 0.0536 0.375 0.0632 0.0894 0.01 0.23675 0.043 0.3275 0.0744 0.0907 0.0314 0.2145 0.0649 0.275 0.0746 0.24607 0.0392 1.0514 0.32688 1.51 0.53938 0.0825 0.0383 0.24 0.1105 0.35 0.16062 0.35838 0.16331 0.432 0.20694 1.0766 0.63813 0.64668 0.43262 0.91975 0.66831 1.6084 1.3884 0.0268 0.028 0.0986 0.11794 0.15956 0.2 0.061 0.082 0.14219 0.17725 0.1805 0.21163 0.0383 0.0343 0.10169 0.1125 0.141 0.17362l0.0715 0.11119v0.54675c0 0.6125 1e-3 0.61669 0.16963 0.70569 0.2 0.10556 0.64569 0.37093 0.76787 0.45725 0.19632 0.13862 0.52144 0.89487 0.685 1.593 0.0258 0.11 0.0579 0.22812 0.0714 0.2625 0.0135 0.0344 0.0387 0.16375 0.0559 0.2875s0.0581 0.34312 0.0909 0.4875c0.1095 0.48225 0.10731 2.1836-4e-3 2.5875-0.0226 0.0825-0.0576 0.2625-0.0779 0.4s-0.0495 0.28937-0.0649 0.3375c-0.0155 0.0481-0.0534 0.20562-0.0844 0.35-0.0818 0.38118-0.15556 0.64131-0.21138 0.74543-0.0269 0.0502-0.0489 0.10125-0.0489 0.11338 0 0.17037-0.29294 0.60975-0.4625 0.69375-0.055 0.0272-0.1675 0.0886-0.25 0.13625-0.38425 0.22219-0.40306 0.22219-0.7875-1e-3 -0.0894-0.0518-0.2075-0.11881-0.2625-0.14888-0.17012-0.093-0.19181-0.10568-0.491-0.28737-0.16006-0.0972-0.29812-0.17675-0.30681-0.17675-9e-3 0-0.0601-0.0293-0.11425-0.0652-0.0542-0.0358-0.13238-0.0837-0.17369-0.10625-0.286-0.15625-0.8265-0.46687-1.1964-0.68762-0.41-0.24463-0.4875-0.28894-0.58012-0.3315-0.048-0.022-0.11919-0.067-0.15813-0.0998-0.039-0.0328-0.0841-0.0596-0.10025-0.0596-0.0161 0-0.12493-0.0571-0.24181-0.12681-0.11687-0.0697-0.32175-0.18819-0.45531-0.26338-0.13356-0.0751-0.24931-0.14712-0.25731-0.16-8e-3 -0.0128-0.0618-0.0462-0.11969-0.074-0.0578-0.0278-0.16144-0.0827-0.23019-0.12194-0.0687-0.0392-0.18037-0.10187-0.24812-0.13918-0.0677-0.0374-0.15075-0.0897-0.18463-0.11632-0.0338-0.0266-0.0777-0.0483-0.0976-0.0483-0.0198 0-0.0689-0.0329-0.10913-0.0731l-0.0731-0.0731 2.5e-4 -0.98319c1.3e-4 -0.54075 9e-3 -0.99706 0.02-1.0139 0.0215-0.034 0.25856 0.0422 0.32969 0.10607 0.0206 0.0185 0.0881 0.0576 0.15 0.0868s0.19125 0.0966 0.2875 0.14956c0.21794 0.12006 0.26069 0.12138 0.4625 0.0139 0.0894-0.0476 0.22137-0.11569 0.29325-0.15144 0.0719-0.0357 0.13787-0.0764 0.1465-0.0904 9e-3 -0.014 0.0623-0.0463 0.11925-0.0719 0.0569-0.0257 0.13162-0.069 0.166-0.0965l0.0625-0.0499 8e-3 -0.52018c9e-3 -0.62763 5e-3 -0.66019-0.10188-0.71663-0.0445-0.0235-0.14281-0.0809-0.21843-0.12756-0.40538-0.24988-0.62263-0.36356-0.69488-0.36356-0.0835 0-0.96306 0.48287-1.0076 0.55318-0.0119 0.0189-0.0221 0.25932-0.0224 0.53432-1e-3 0.67712-4e-3 0.68325-0.23725 0.53512-0.0671-0.0425-0.14525-0.0879-0.17369-0.10087-0.0283-0.0129-0.1135-0.062-0.18913-0.10907-0.0756-0.0471-0.18812-0.11287-0.25-0.14631-0.23131-0.12494-0.37725-0.20719-0.57275-0.32262-0.11062-0.0653-0.20993-0.11875-0.22068-0.11875-0.047 0-0.15638-0.13269-0.18025-0.21863-0.0444-0.15994-0.0357-6.4029 9e-3 -6.5101 0.0441-0.10563 0.0962-0.15344 0.23956-0.21994 0.0619-0.0287 0.18-0.0915 0.2625-0.1395 0.31537-0.18362 0.33131-0.18544 0.7875-0.0872m-3.207 10.657c0.0306 0.017 0.24237 0.14338 0.47069 0.28088 0.49425 0.29762 0.59425 0.35575 0.9685 0.56237l0.14468 0.0799-0.0493 0.0789c-0.0347 0.0555-0.16056 0.1425-0.42475 0.29356-0.2065 0.11813-0.39287 0.22919-0.41412 0.24682-0.0329 0.0273-0.0387 0.1205-0.0387 0.626v0.59381l0.11875 0.0545c0.0653 0.03 0.18625 0.0944 0.26875 0.14312 0.0825 0.0487 0.22212 0.12844 0.31031 0.17713 0.33306 0.18406 0.323 0.18169 0.44531 0.10706 0.0444-0.027 0.20188-0.11281 0.35-0.19062 0.14819-0.0779 0.28625-0.15582 0.30688-0.17325 0.0206-0.0175 0.0799-0.0493 0.13169-0.0707l0.0942-0.0389-0.014-1.2364-0.1-0.057c-0.055-0.0314-0.13937-0.0756-0.1875-0.0983-0.24456-0.11544-0.55281-0.31837-0.58856-0.38756l-0.0383-0.0739 0.11069-0.0475c0.0608-0.026 0.11875-0.0606 0.12862-0.0766 0.01-0.016 0.0646-0.0493 0.1215-0.0739s0.29475-0.15463 0.5285-0.28888c0.76069-0.43681 0.81-0.46225 0.89407-0.46187 0.0921 5e-4 0.0609-0.0154 0.59137 0.29962 0.38825 0.23056 0.47781 0.28244 0.78594 0.45538 0.0806 0.0452 0.19869 0.11231 0.2625 0.14918 0.0639 0.0369 0.16675 0.0939 0.22862 0.12682 0.0619 0.0329 0.225 0.12825 0.3625 0.212 0.28988 0.1765 0.50557 0.30125 0.8375 0.48437 0.13063 0.0721 0.24313 0.13813 0.25 0.14681 7e-3 9e-3 0.1025 0.0646 0.2125 0.12425 0.21232 0.11519 0.69057 0.39632 0.83888 0.49319 0.0488 0.0319 0.0997 0.058 0.11294 0.058 0.0132 0 0.0667 0.029 0.11887 0.0644 0.0521 0.0354 0.18131 0.10987 0.28706 0.16544 0.10575 0.0556 0.20913 0.11475 0.22975 0.13156 0.0367 0.0298 0.16019 0.10125 0.4125 0.2385 0.23894 0.13 0.27769 0.21212 0.2985 0.63306 0.021 0.42338 2e-3 0.489-0.19837 0.7045-0.0641 0.0687-0.14619 0.16438-0.18244 0.2125-0.28756 0.38131-0.78387 0.8875-1.1052 1.1272-0.11687 0.0872-0.27437 0.21081-0.35 0.27475-0.0756 0.0639-0.19937 0.15662-0.275 0.20594-0.0756 0.0493-0.21062 0.139-0.3 0.19931-0.0894 0.0603-0.24125 0.16062-0.3375 0.22287-0.19368 0.12532-0.81281 0.42082-1.2 0.57282-0.1375 0.0539-0.295 0.12006-0.35 0.14687-0.22275 0.10856-0.43656 0.17919-0.65 0.21463-0.12375 0.0206-0.2925 0.0594-0.375 0.0865-0.0825 0.027-0.25125 0.0646-0.375 0.0836s-0.38487 0.0607-0.58025 0.0926c-0.39893 0.0652-0.35006 0.0736-0.66975-0.11457-0.0825-0.0485-0.195-0.11143-0.25-0.13962-0.055-0.0283-0.16187-0.0896-0.2375-0.13638-0.25818-0.15956-0.23031-0.15643-0.43993-0.0487-0.10344 0.0532-0.1935 0.1055-0.20013 0.11619-7e-3 0.0107-0.0594 0.042-0.11725 0.0695-0.0578 0.0276-0.18394 0.10125-0.28019 0.16381-0.24006 0.15607-0.22243 0.15219-0.46125 0.10069-0.80212-0.17294-0.86118-0.18812-1.2762-0.32781-0.0619-0.0208-0.18-0.0586-0.2625-0.084-0.34593-0.10644-0.98556-0.39431-1.5625-0.70331-0.48862-0.26169-0.577-0.3135-0.72606-0.4255-0.0475-0.0358-0.14831-0.0998-0.22394-0.14219-0.0756-0.0425-0.19556-0.12575-0.2665-0.185-0.0709-0.0593-0.21718-0.17531-0.325-0.25781-0.33506-0.25644-1.4613-1.4128-1.5741-1.6161-0.045-0.0811-0.0467-0.80831-2e-3 -0.89643 0.0352-0.0696 0.30706-0.24294 0.85513-0.54525 0.0412-0.0228 0.13012-0.0747 0.19743-0.11557 0.13219-0.0801 0.22107-0.12975 0.37757-0.211 0.055-0.0285 0.17312-0.0989 0.2625-0.15625 0.0894-0.0574 0.2525-0.156 0.3625-0.21918 0.11-0.0632 0.21812-0.12619 0.24018-0.14007 0.0221-0.0138 0.1065-0.0621 0.1875-0.10731 0.38882-0.21681 0.76994-0.43931 1.0512-0.61356 0.12588-0.078 0.24031-0.14181 0.25431-0.14181s0.0573-0.0265 0.0961-0.0589c0.0389-0.0324 0.12131-0.0832 0.18319-0.11294 0.0619-0.0297 0.222-0.1185 0.35587-0.19731 0.13381-0.0788 0.34756-0.20413 0.475-0.27844 0.40031-0.2335 0.52981-0.31187 0.59125-0.35781 0.0688-0.0514 0.21519-0.0578 0.29588-0.0129"/>
        </g>
    </g>
</svg>
