<?xml version="1.0" encoding="UTF-8"?>
<svg version="1.1" viewBox="0 0 26.95 26.95" xmlns="http://www.w3.org/2000/svg">
    <defs>
        <filter id="filter6206-7" color-interpolation-filters="sRGB">
            <feGaussianBlur stdDeviation="0.658125"/>
        </filter>
    </defs>
    <g transform="translate(0 -1025.4)">
        <path transform="matrix(1.0107 0 0 .99762 -.087875 2.579)" d="m4.4177 1028.2v1.6051h-1.6052v18.192h1.6052v2.1402h18.192v-2.1402h2.1402v-18.192h-2.1402v-1.6051h-18.192z" fill="#1a237e" filter="url(#filter6206-7)" opacity=".2"/>
        <rect x="2.8113" y="1028.2" width="21.327" height="21.327" rx="1.1225" ry="1.1226" fill="#2196f3"/>
        <g transform="translate(-20.925 990.46)">
            <path d="m0 0h48v48h-48z" fill="none"/>
            <g transform="matrix(.33601 0 0 .33601 1.434 68.477)">
                <path d="m0 0h48v48h-48z" fill="none"/>
            </g>
            <g transform="matrix(.37187 0 0 .37187 36.377 59.287)">
                <path d="m0 0h48v48h-48z" fill="none"/>
                <g transform="matrix(2.6891 0 0 2.6891 -77.724 -45.422)">
                    <path d="m0 0h48v48h-48z" fill="none"/>
                </g>
            </g>
        </g>
        <path transform="translate(0 1025.4)" d="m3.9336 2.8105c-0.62186 0-1.123 0.50115-1.123 1.123v0.3125c0-0.6219 0.50118-1.123 1.123-1.123h19.082c0.62186 0 1.123 0.50115 1.123 1.123v-0.3125c0-0.6219-0.50118-1.123-1.123-1.123h-19.082z" fill="#fff" opacity=".2"/>
        <rect x="120" y="512.36" width="40" height="40" fill="none"/>
        <rect x="120" y="592.36" width="40" height="40" fill="none"/>
        <rect x="120" y="632.36" width="40" height="40" fill="none"/>
        <rect x="120" y="552.36" width="40" height="40" fill="none"/>
        <rect x="120" y="672.36" width="40" height="40" fill="none"/>
        <rect x="200" y="512.36" width="40" height="40" fill="none"/>
        <rect x="200" y="592.36" width="40" height="40" fill="none"/>
        <rect x="200" y="632.36" width="40" height="40" fill="none"/>
        <rect x="200" y="552.36" width="40" height="40" fill="none"/>
        <rect x="200" y="672.36" width="40" height="40" fill="none"/>
        <rect x="280" y="512.36" width="40" height="40" fill="none"/>
        <rect x="280" y="592.36" width="40" height="40" fill="none"/>
        <rect x="280" y="632.36" width="40" height="40" fill="none"/>
        <rect x="280" y="552.36" width="40" height="40" fill="none"/>
        <rect x="280" y="672.36" width="40" height="40" fill="none"/>
        <rect x="160" y="512.36" width="40" height="40" fill="none"/>
        <rect x="160" y="592.36" width="40" height="40" fill="none"/>
        <rect x="160" y="632.36" width="40" height="40" fill="none"/>
        <rect x="160" y="552.36" width="40" height="40" fill="none"/>
        <rect x="160" y="672.36" width="40" height="40" fill="none"/>
        <rect x="240" y="512.36" width="40" height="40" fill="none"/>
        <rect x="240" y="592.36" width="40" height="40" fill="none"/>
        <rect x="240" y="632.36" width="40" height="40" fill="none"/>
        <rect x="240" y="552.36" width="40" height="40" fill="none"/>
        <rect x="240" y="672.36" width="40" height="40" fill="none"/>
        <rect x="120" y="712.36" width="40" height="40" fill="none"/>
        <rect x="200" y="712.36" width="40" height="40" fill="none"/>
        <rect x="280" y="712.36" width="40" height="40" fill="none"/>
        <rect x="160" y="712.36" width="40" height="40" fill="none"/>
        <rect x="240" y="712.36" width="40" height="40" fill="none"/>
        <rect x="320" y="552.36" width="40" height="40" fill="none"/>
        <rect x="320" y="592.36" width="40" height="40" fill="none"/>
        <rect x="320" y="672.36" width="40" height="40" fill="none"/>
        <rect x="320" y="512.36" width="40" height="40" fill="none"/>
        <rect x="320" y="632.36" width="40" height="40" fill="none"/>
        <rect x="320" y="712.36" width="40" height="40" fill="none"/>
        <rect x="150" y="542.36" width="180" height="180" fill="none"/>
        <g transform="matrix(.37344 0 0 .37344 4.4375 1028.8)">
            <path d="m0 0h48v48h-48z" fill="none"/>
        </g>
        <g transform="matrix(.36471 0 0 .36471 4.8146 1028.8)">
            <path d="m0 0h48v48h-48z" fill="none"/>
        </g>
        <g transform="matrix(.41585 0 0 .41585 79.055 989.88)">
            <g transform="matrix(.062269 0 0 .062269 -26.473 173.71)">
                <g transform="matrix(38.618 0 0 38.618 13804 -12696)">
                    <g transform="matrix(.71436 0 0 .71436 -375.49 176.57)">
                        <path transform="matrix(1.3999 0 0 1.3999 525.63 -247.17)" d="m490.56 95.75c-121.72 0.18504-342.34 0.090577-468.16 0.09375-1.5548 6.9739-2.4062 14.232-2.4062 21.688v76.344c139.06 0.49354 331.32 0.2554 472.97 0.25v-76.594c0-7.4875-0.8386-14.78-2.4062-21.781zm-307.19 197.94c-52.495-3e-3 -106.38 0.11982-163.38 0.375v92.844c191.76-0.26331 282.43-0.0926 472.97-0.21875v-92.25c-109.29-0.35498-208.43-0.74426-309.59-0.75z" opacity="0"/>
                    </g>
                </g>
            </g>
        </g>
        <path d="m23.015 1049.6c0.6218 0 1.123-0.5012 1.123-1.123v-0.3125c0 0.6218-0.5012 1.123-1.123 1.123h-19.082c-0.6218 0-1.123-0.5012-1.123-1.123v0.3125c0 0.6218 0.5012 1.123 1.123 1.123h19.082z" fill="#1a237e" opacity=".2"/>
    </g>
    <g transform="translate(-6.8121e-8,-1025.5)">
        <path d="m11.877 1032.5 0.1498 0.6054a6.0172 6.0172 0 0 0-1.6728 0.6918l-0.32042-0.5347a6.633 6.633 0 0 1 1.8434-0.7625zm3.1958 0-0.1498 0.6054a6.0172 6.0172 0 0 1 1.6728 0.6918l0.3225-0.5347a6.633 6.633 0 0 0-1.8455-0.7625zm-7.2988 3.0221a6.633 6.633 0 0 0-0.76255 1.8434l0.60546 0.1498a6.0172 6.0172 0 0 1 0.69181-1.6728zm-0.3329 3.4413a6.0234 6.0234 0 0 1 0.067621-0.9041l-0.61691-0.094a6.6819 6.6819 0 0 0 0 1.9954l0.61691-0.094a6.0234 6.0234 0 0 1-0.067621-0.9041zm9.4752 5.701-0.32042-0.5347a6.0172 6.0172 0 0 1-1.6707 0.6917l0.14981 0.6054a6.633 6.633 0 0 0 1.8414-0.7624zm2.5925-5.701a6.0234 6.0234 0 0 1-0.06762 0.9041l0.61691 0.094a6.6819 6.6819 0 0 0 0-1.9954l-0.61691 0.094a6.0234 6.0234 0 0 1 0.06762 0.9041zm0.42965 1.598-0.60546-0.1499a6.0172 6.0172 0 0 1-0.69181 1.6729l0.53472 0.3225a6.633 6.633 0 0 0 0.76255-1.8455zm-5.5594 4.3693a6.0765 6.0765 0 0 1-1.8081 0l-0.09363 0.6168a6.6819 6.6819 0 0 0 1.9953 0zm3.9532-2.3875a6.0557 6.0557 0 0 1-1.2785 1.2774l0.37035 0.5026a6.6684 6.6684 0 0 0 1.4107-1.4066zm-1.2785-8.437a6.0557 6.0557 0 0 1 1.2785 1.2785l0.50247-0.3745a6.6684 6.6684 0 0 0-1.4065-1.4066zm-8.4359 1.2785a6.0557 6.0557 0 0 1 1.2785-1.2785l-0.37451-0.5026a6.6684 6.6684 0 0 0-1.4065 1.4066zm10.558 0.1374-0.53472 0.3204a6.0172 6.0172 0 0 1 0.69181 1.6707l0.60546-0.1497a6.633 6.633 0 0 0-0.76255-1.8414zm-6.605-2.5249a6.0765 6.0765 0 0 1 1.8081 0l0.09363-0.6168a6.6819 6.6819 0 0 0-1.9953 0zm-3.6328 11.491-1.2889 0.3005 0.30065-1.2888-0.60754-0.1426-0.30065 1.289a0.62419 0.62419 0 0 0 0.75007 0.75l1.2879-0.2954zm-1.4658-1.6874 0.60754 0.1415 0.20806-0.8937a6.0078 6.0078 0 0 1-0.671-1.6375l-0.60546 0.1499a6.6081 6.6081 0 0 0 0.61379 1.5822zm2.9129 1.3524-0.89363 0.208 0.14148 0.6075 0.65748-0.1529a6.6081 6.6081 0 0 0 1.5823 0.6138l0.1498-0.6055a6.0078 6.0078 0 0 1-1.6333-0.6751zm3.0897-10.6a5.4096 5.4096 0 0 0-4.5774 8.2881l-0.52016 2.219 2.219-0.5201a5.4096 5.4096 0 1 0 2.8785-9.987z" fill="#fcfdff"/>
    </g>
    <g display="none" fill="none">
        <rect transform="rotate(90)" x="7.3342" y="-19.616" width="12.282" height="12.282" display="inline" stroke="#000" stroke-width=".065984"/>
        <rect x="6.7726" y="8.112" width="13.405" height="10.726" stroke="#5261ff" stroke-linecap="round" stroke-linejoin="round" stroke-width=".06524"/>
        <rect transform="rotate(90)" x="6.7726" y="-18.838" width="13.405" height="10.726" display="inline" stroke="#0f0" stroke-linecap="round" stroke-linejoin="round" stroke-width=".06524"/>
    </g>
</svg>
