<?xml version="1.0" encoding="UTF-8"?>
<svg version="1.1" viewBox="0 0 28.747 28.747" xmlns="http://www.w3.org/2000/svg">
    <defs>
        <filter id="filter6206-7" color-interpolation-filters="sRGB">
            <feGaussianBlur stdDeviation="0.658125"/>
        </filter>
    </defs>
    <g transform="translate(0 -1093.8)">
        <path transform="matrix(1.0781 0 0 1.0641 -.093733 2.7509)" d="m4.4177 1028.2v1.6051h-1.6052v18.192h1.6052v2.1402h18.192v-2.1402h2.1402v-18.192h-2.1402v-1.6051z" fill="#1a237e" filter="url(#filter6206-7)" opacity=".2"/>
        <rect x="2.9987" y="1096.8" width="22.749" height="22.749" rx="1.1973" ry="1.1974" fill="#3f51b5"/>
        <g transform="translate(-22.32 1056.5)">
            <path d="m0 0h51.2v51.2h-51.2z" fill="none" stroke-width="1.0667"/>
            <g transform="matrix(.33601 0 0 .33601 1.5296 73.043)">
                <path d="m0 0h51.2v51.2h-51.2z" fill="none" stroke-width="1.0667"/>
            </g>
            <g transform="matrix(.37187 0 0 .37187 38.802 63.239)">
                <path d="m0 0h51.2v51.2h-51.2z" fill="none" stroke-width="1.0667"/>
                <g transform="matrix(2.6891 0 0 2.6891 -82.906 -48.45)">
                    <path d="m0 0h51.2v51.2h-51.2z" fill="none" stroke-width="1.0667"/>
                </g>
            </g>
        </g>
        <path d="m4.1958 1096.8c-0.66332 0-1.1979 0.5346-1.1979 1.1979v0.3334c0-0.6634 0.53459-1.1979 1.1979-1.1979h20.354c0.66332 0 1.1979 0.5345 1.1979 1.1979v-0.3334c0-0.6633-0.5346-1.1979-1.1979-1.1979z" fill="#fff" opacity=".2"/>
        <rect x="128" y="546.52" width="42.667" height="42.667" fill="none" stroke-width="1.0667"/>
        <rect x="128" y="631.85" width="42.667" height="42.667" fill="none" stroke-width="1.0667"/>
        <rect x="128" y="674.52" width="42.667" height="42.667" fill="none" stroke-width="1.0667"/>
        <rect x="128" y="589.19" width="42.667" height="42.667" fill="none" stroke-width="1.0667"/>
        <rect x="128" y="717.19" width="42.667" height="42.667" fill="none" stroke-width="1.0667"/>
        <rect x="213.33" y="546.52" width="42.667" height="42.667" fill="none" stroke-width="1.0667"/>
        <rect x="213.33" y="631.85" width="42.667" height="42.667" fill="none" stroke-width="1.0667"/>
        <rect x="213.33" y="674.52" width="42.667" height="42.667" fill="none" stroke-width="1.0667"/>
        <rect x="213.33" y="589.19" width="42.667" height="42.667" fill="none" stroke-width="1.0667"/>
        <rect x="213.33" y="717.19" width="42.667" height="42.667" fill="none" stroke-width="1.0667"/>
        <rect x="298.67" y="546.52" width="42.667" height="42.667" fill="none" stroke-width="1.0667"/>
        <rect x="298.67" y="631.85" width="42.667" height="42.667" fill="none" stroke-width="1.0667"/>
        <rect x="298.67" y="674.52" width="42.667" height="42.667" fill="none" stroke-width="1.0667"/>
        <rect x="298.67" y="589.19" width="42.667" height="42.667" fill="none" stroke-width="1.0667"/>
        <rect x="298.67" y="717.19" width="42.667" height="42.667" fill="none" stroke-width="1.0667"/>
        <rect x="170.67" y="546.52" width="42.667" height="42.667" fill="none" stroke-width="1.0667"/>
        <rect x="170.67" y="631.85" width="42.667" height="42.667" fill="none" stroke-width="1.0667"/>
        <rect x="170.67" y="674.52" width="42.667" height="42.667" fill="none" stroke-width="1.0667"/>
        <rect x="170.67" y="589.19" width="42.667" height="42.667" fill="none" stroke-width="1.0667"/>
        <rect x="170.67" y="717.19" width="42.667" height="42.667" fill="none" stroke-width="1.0667"/>
        <rect x="256" y="546.52" width="42.667" height="42.667" fill="none" stroke-width="1.0667"/>
        <rect x="256" y="631.85" width="42.667" height="42.667" fill="none" stroke-width="1.0667"/>
        <rect x="256" y="674.52" width="42.667" height="42.667" fill="none" stroke-width="1.0667"/>
        <rect x="256" y="589.19" width="42.667" height="42.667" fill="none" stroke-width="1.0667"/>
        <rect x="256" y="717.19" width="42.667" height="42.667" fill="none" stroke-width="1.0667"/>
        <rect x="128" y="759.85" width="42.667" height="42.667" fill="none" stroke-width="1.0667"/>
        <rect x="213.33" y="759.85" width="42.667" height="42.667" fill="none" stroke-width="1.0667"/>
        <rect x="298.67" y="759.85" width="42.667" height="42.667" fill="none" stroke-width="1.0667"/>
        <rect x="170.67" y="759.85" width="42.667" height="42.667" fill="none" stroke-width="1.0667"/>
        <rect x="256" y="759.85" width="42.667" height="42.667" fill="none" stroke-width="1.0667"/>
        <rect x="341.33" y="589.19" width="42.667" height="42.667" fill="none" stroke-width="1.0667"/>
        <rect x="341.33" y="631.85" width="42.667" height="42.667" fill="none" stroke-width="1.0667"/>
        <rect x="341.33" y="717.19" width="42.667" height="42.667" fill="none" stroke-width="1.0667"/>
        <rect x="341.33" y="546.52" width="42.667" height="42.667" fill="none" stroke-width="1.0667"/>
        <rect x="341.33" y="674.52" width="42.667" height="42.667" fill="none" stroke-width="1.0667"/>
        <rect x="341.33" y="759.85" width="42.667" height="42.667" fill="none" stroke-width="1.0667"/>
        <rect x="160" y="578.52" width="192" height="192" fill="none" stroke-width="1.0667"/>
        <g transform="matrix(.37344 0 0 .37344 4.7333 1097.4)">
            <path d="m0 0h51.2v51.2h-51.2z" fill="none" stroke-width="1.0667"/>
        </g>
        <g transform="matrix(.36471 0 0 .36471 5.1356 1097.4)">
            <path d="m0 0h51.2v51.2h-51.2z" fill="none" stroke-width="1.0667"/>
        </g>
        <g transform="matrix(.41585 0 0 .41585 84.325 1055.9)">
            <g transform="matrix(.062269 0 0 .062269 -28.238 185.29)">
                <g transform="matrix(38.618 0 0 38.618 14724 -13542)">
                    <g transform="matrix(.71436 0 0 .71436 -400.52 188.34)">
                        <path d="m1293.2-120.67c-181.75 0.2763-511.18 0.13525-699.05 0.13998-2.3216 10.413-3.593 21.251-3.593 32.384v114c207.65 0.73695 494.72 0.38136 706.23 0.3733v-114.37c0-11.18-1.2522-22.07-3.593-32.523zm-458.69 295.56c-78.385-4e-3 -158.85 0.17892-243.95 0.55995v138.63c286.34-0.39317 421.73-0.13827 706.23-0.32664v-137.75c-163.2-0.53005-311.22-1.1113-462.28-1.1199z" opacity="0" stroke-width="1.4932"/>
                    </g>
                </g>
            </g>
        </g>
        <path d="m24.549 1119.5c0.66325 0 1.1979-0.5346 1.1979-1.1979v-0.3333c0 0.6632-0.53461 1.1978-1.1979 1.1978h-20.354c-0.66325 0-1.1979-0.5346-1.1979-1.1978v0.3333c0 0.6633 0.53461 1.1979 1.1979 1.1979z" fill="#1a237e" opacity=".2"/>
    </g>
    <path d="m10.38 21.112c-0.33442-0.11026-0.58391-0.32912-0.73696-0.64645l-0.096081-0.19922-0.01734-3.726-1.0282-1.4145c-0.56551-0.77795-1.0605-1.4783-1.1001-1.5563-0.27032-0.53344-0.079021-1.2241 0.42907-1.5491 0.11556-0.07391 0.61847-0.25088 1.8516-0.65151l1.6929-0.55003 1.0086-1.3907c0.55474-0.76491 1.0673-1.4516 1.1391-1.5261 0.07218-0.07485 0.21963-0.17756 0.32998-0.22987 0.18349-0.086965 0.22532-0.094558 0.52132-0.094558 0.2884 0 0.34124 0.00891 0.50891 0.086473 0.11206 0.05179 0.24909 0.15012 0.34169 0.24519 0.08502 0.087293 0.6033 0.77776 1.1517 1.5344l0.99714 1.3757 1.7107 0.556c1.826 0.59345 1.8879 0.6195 2.1067 0.88652 0.30052 0.36675 0.36413 0.89737 0.15652 1.3057-0.03911 0.07691-0.53423 0.77755-1.1003 1.557l-1.0292 1.4171-0.0168 3.7246-0.09765 0.19922c-0.1632 0.33294-0.40649 0.54285-0.7502 0.64725-0.36744 0.11162-0.42594 0.09861-2.2775-0.50574-0.90978-0.29696-1.6756-0.53994-1.7019-0.53994-0.02627 0-0.79212 0.24318-1.7019 0.5404-1.8449 0.60272-1.9345 0.62244-2.2923 0.50449zm2.2397-1.0026 1.7549-0.57075 1.7544 0.57092c1.2299 0.40025 1.7957 0.57078 1.8924 0.57045 0.26824-8.76e-4 0.55734-0.19741 0.66359-0.45097 0.03311-0.07902 0.04134-0.46382 0.04134-1.9366 0-1.0136 0.01242-1.8704 0.02756-1.9104 0.01523-0.03984 0.50957-0.73541 1.0987-1.5457 1.1409-1.5691 1.1702-1.6185 1.1246-1.8928-0.02953-0.17742-0.11274-0.3266-0.25276-0.45309-0.12922-0.11675 0.04675-0.05524-2.7869-0.97428l-0.86543-0.28069-1.0808-1.4893c-0.69628-0.9595-1.1222-1.5194-1.1973-1.5738-0.24111-0.17489-0.59864-0.17489-0.83974 0-0.07504 0.054438-0.50098 0.61434-1.1973 1.5738l-1.0808 1.4893-0.86543 0.28069c-2.8336 0.91905-2.6576 0.85753-2.7869 0.97428-0.14002 0.1265-0.22324 0.27568-0.25277 0.45309-0.04565 0.27434-0.01617 0.32377 1.1246 1.8928 0.58912 0.81025 1.0835 1.5058 1.0987 1.5457 0.015233 0.03998 0.027559 0.89683 0.027559 1.9104 0 1.4727 0.0082 1.8575 0.04134 1.9366 0.10632 0.2537 0.39556 0.45021 0.66353 0.45079 0.0962 1.92e-4 0.66804-0.17213 1.8928-0.57044zm1.3659-2.4951c-0.47558-0.08572-0.92103-0.34819-1.2088-0.71227-0.14171-0.17927-0.15429-0.29635-0.04373-0.40691 0.10984-0.10984 0.2473-0.10126 0.34972 0.02179 0.36116 0.43393 0.77372 0.63764 1.2914 0.63764 0.51766 0 0.93023-0.20372 1.2914-0.63764 0.10243-0.12305 0.23989-0.13163 0.34972-0.02179 0.11056 0.11056 0.09798 0.22764-0.04373 0.40691-0.35922 0.45445-0.88039 0.70744-1.5026 0.72941-0.17855 0.0063-0.39604-0.0013-0.48331-0.01711zm-2.3085-2.2152c-0.15042-0.04741-0.40698-0.31307-0.45311-0.46919-0.0849-0.28738-0.02505-0.51645 0.19155-0.73306 0.31009-0.31009 0.7034-0.31009 1.0135 0 0.31009 0.31009 0.31009 0.7034 0 1.0135-0.21567 0.21567-0.46668 0.27867-0.75194 0.18876zm4.9038 0c-0.15042-0.04741-0.40698-0.31307-0.45311-0.46919-0.0849-0.28738-0.02505-0.51645 0.19155-0.73306 0.2166-0.2166 0.44568-0.27646 0.73306-0.19155 0.16835 0.04975 0.42225 0.30364 0.47199 0.47199 0.0849 0.28738 0.02505 0.51645-0.19155 0.73306-0.21567 0.21567-0.46668 0.27867-0.75194 0.18876z" fill="#fffffc" stroke="#fff" stroke-width=".631"/>
</svg>
