<?xml version="1.0" encoding="UTF-8"?>
<svg version="1.1" viewBox="0 0 26.95 26.95" xmlns="http://www.w3.org/2000/svg">
    <defs>
        <filter id="filter6206-7" color-interpolation-filters="sRGB">
            <feGaussianBlur stdDeviation="0.658125"/>
        </filter>
    </defs>
    <g transform="translate(0 -1025.4)">
        <path transform="matrix(1.0107 0 0 .99762 -.087875 2.579)" d="m4.4177 1028.2v1.6051h-1.6052v18.192h1.6052v2.1402h18.192v-2.1402h2.1402v-18.192h-2.1402v-1.6051h-18.192z" fill="#3e2723" filter="url(#filter6206-7)" opacity=".2"/>
        <rect x="2.8113" y="1028.2" width="21.327" height="21.327" rx="1.1225" ry="1.1226" fill="#e91e63"/>
        <g transform="translate(-20.925 990.46)">
            <path d="m0 0h48v48h-48z" fill="none"/>
            <g transform="matrix(.33601 0 0 .33601 1.434 68.477)">
                <path d="m0 0h48v48h-48z" fill="none"/>
            </g>
            <g transform="matrix(.37187 0 0 .37187 36.377 59.287)">
                <path d="m0 0h48v48h-48z" fill="none"/>
                <g transform="matrix(2.6891 0 0 2.6891 -77.724 -45.422)">
                    <path d="m0 0h48v48h-48z" fill="none"/>
                </g>
            </g>
        </g>
        <path transform="translate(0 1025.4)" d="m3.9336 2.8105c-0.62186 0-1.123 0.50115-1.123 1.123v0.3125c0-0.6219 0.50118-1.123 1.123-1.123h19.082c0.62186 0 1.123 0.50115 1.123 1.123v-0.3125c0-0.6219-0.50118-1.123-1.123-1.123h-19.082z" fill="#fff" opacity=".2"/>
        <rect x="120" y="512.36" width="40" height="40" fill="none"/>
        <rect x="120" y="592.36" width="40" height="40" fill="none"/>
        <rect x="120" y="632.36" width="40" height="40" fill="none"/>
        <rect x="120" y="552.36" width="40" height="40" fill="none"/>
        <rect x="120" y="672.36" width="40" height="40" fill="none"/>
        <rect x="200" y="512.36" width="40" height="40" fill="none"/>
        <rect x="200" y="592.36" width="40" height="40" fill="none"/>
        <rect x="200" y="632.36" width="40" height="40" fill="none"/>
        <rect x="200" y="552.36" width="40" height="40" fill="none"/>
        <rect x="200" y="672.36" width="40" height="40" fill="none"/>
        <rect x="280" y="512.36" width="40" height="40" fill="none"/>
        <rect x="280" y="592.36" width="40" height="40" fill="none"/>
        <rect x="280" y="632.36" width="40" height="40" fill="none"/>
        <rect x="280" y="552.36" width="40" height="40" fill="none"/>
        <rect x="280" y="672.36" width="40" height="40" fill="none"/>
        <rect x="160" y="512.36" width="40" height="40" fill="none"/>
        <rect x="160" y="592.36" width="40" height="40" fill="none"/>
        <rect x="160" y="632.36" width="40" height="40" fill="none"/>
        <rect x="160" y="552.36" width="40" height="40" fill="none"/>
        <rect x="160" y="672.36" width="40" height="40" fill="none"/>
        <rect x="240" y="512.36" width="40" height="40" fill="none"/>
        <rect x="240" y="592.36" width="40" height="40" fill="none"/>
        <rect x="240" y="632.36" width="40" height="40" fill="none"/>
        <rect x="240" y="552.36" width="40" height="40" fill="none"/>
        <rect x="240" y="672.36" width="40" height="40" fill="none"/>
        <rect x="120" y="712.36" width="40" height="40" fill="none"/>
        <rect x="200" y="712.36" width="40" height="40" fill="none"/>
        <rect x="280" y="712.36" width="40" height="40" fill="none"/>
        <rect x="160" y="712.36" width="40" height="40" fill="none"/>
        <rect x="240" y="712.36" width="40" height="40" fill="none"/>
        <rect x="320" y="552.36" width="40" height="40" fill="none"/>
        <rect x="320" y="592.36" width="40" height="40" fill="none"/>
        <rect x="320" y="672.36" width="40" height="40" fill="none"/>
        <rect x="320" y="512.36" width="40" height="40" fill="none"/>
        <rect x="320" y="632.36" width="40" height="40" fill="none"/>
        <rect x="320" y="712.36" width="40" height="40" fill="none"/>
        <rect x="150" y="542.36" width="180" height="180" fill="none"/>
        <g transform="matrix(.37344 0 0 .37344 4.4375 1028.8)">
            <path d="m0 0h48v48h-48z" fill="none"/>
        </g>
        <g transform="matrix(.36471 0 0 .36471 4.8146 1028.8)">
            <path d="m0 0h48v48h-48z" fill="none"/>
        </g>
        <g transform="matrix(.41585 0 0 .41585 79.055 989.88)">
            <g transform="matrix(.062269 0 0 .062269 -26.473 173.71)">
                <g transform="matrix(38.618 0 0 38.618 13804 -12696)">
                    <g transform="matrix(.71436 0 0 .71436 -375.49 176.57)">
                        <path transform="matrix(1.3999 0 0 1.3999 525.63 -247.17)" d="m490.56 95.75c-121.72 0.18504-342.34 0.090577-468.16 0.09375-1.5548 6.9739-2.4062 14.232-2.4062 21.688v76.344c139.06 0.49354 331.32 0.2554 472.97 0.25v-76.594c0-7.4875-0.8386-14.78-2.4062-21.781zm-307.19 197.94c-52.495-3e-3 -106.38 0.11982-163.38 0.375v92.844c191.76-0.26331 282.43-0.0926 472.97-0.21875v-92.25c-109.29-0.35498-208.43-0.74426-309.59-0.75z" opacity="0"/>
                    </g>
                </g>
            </g>
        </g>
        <path d="m23.015 1049.6c0.6218 0 1.123-0.5012 1.123-1.123v-0.3125c0 0.6218-0.5012 1.123-1.123 1.123h-19.082c-0.6218 0-1.123-0.5012-1.123-1.123v0.3125c0 0.6218 0.5012 1.123 1.123 1.123h19.082z" fill="#3e2723" opacity=".2"/>
    </g>
    <path d="m7.6152 7.125c-0.018554 9.636e-4 -0.065539 0.015293-0.066406 0.015625-8.678e-4 3.323e-4 -0.073644 0.044359-0.074219 0.044922v0.001953c-9.26e-5 9.22e-5 -0.060519 0.12087-0.060547 0.12109-2.75e-5 2.203e-4 -3.71e-5 0.04848 0 0.048828 7.43e-5 6.954e-4 0.00387 0.029895 0.00586 0.037109 0.00397 0.014429 0.00688 0.021712 0.00977 0.029297 0.00577 0.01517 0.011635 0.028915 0.019531 0.046875 0.015792 0.035919 0.039566 0.083465 0.068359 0.14453 0.057586 0.12213 0.13961 0.2959 0.24219 0.50586 0.20515 0.41993 0.48712 0.9888 0.78906 1.5938 0.60388 1.2099 1.2885 2.5609 1.6016 3.1523 0.60958 1.1515 1.0844 1.9901 1.4473 2.5488 0.18141 0.27935 0.33282 0.48833 0.4668 0.63672 0.13398 0.14838 0.23616 0.26758 0.4375 0.26758h4e-3c0.08144-0.0021 0.11637-0.03128 0.16211-0.05273 6.45e-4 0.08478 4.3e-5 0.16145 0.0332 0.24219 0.03983 0.09698 0.10232 0.15861 0.17578 0.22852h2e-3c0.26241 0.24949 0.73937 0.46317 1.2383 0.59766 0.6776 0.18283 1.3025 0.15224 1.9414-0.0957l0.06445-0.02539 0.08398 0.08203c0.02689 0.02638 0.04647 0.04829 0.06836 0.07227-0.0053 0.0058-0.0082 0.0099-0.01367 0.01563h2e-3c-0.06006 0.06191-0.11962 0.0701-0.15039 0.21875-0.01538 0.07433 0.01984 0.16511 0.04883 0.20312 0.02899 0.03801 0.05027 0.05408 0.07031 0.07227v2e-3c0.02061 0.01835 0.04196 0.03694 0.08203 0.06055s0.11354 0.04492 0.17578 0.03516c0.1232-0.01933 0.15636-0.06806 0.22266-0.11914l2e-3 -2e-3c0.0071-0.0053 0.01247-0.0086 0.01953-0.01367 0.04386 0.04084 0.09323 0.08596 0.16016 0.15039 0.16331 0.15722 0.38478 0.37542 0.625 0.61523l0.9082 0.90625 0.2793 0.10156v2e-3l0.14258 0.05273c0.10504 0.03873 0.20323 0.07526 0.2793 0.10156 0.03803 0.01315 0.06973 0.02305 0.0957 0.03125 0.01299 0.0041 0.02536 0.0085 0.03711 0.01172 0.0059 0.0016 0.01123 0.0022 0.01953 0.0039 0.0041 8.79e-4 0.0088 0.0029 0.01563 0.0039 0.0044 6.52e-4 0.01343 0.0015 0.02148 2e-3 0.0069-8.87e-4 0.07804-0.01169 0.07813-0.01172 4.5e-5 -1.5e-5 0.05465-0.02732 0.05469-0.02734 3.4e-5 -2.4e-5 0.04685-0.04879 0.04687-0.04883 4.9e-5 -6.8e-5 0.03905-0.10341 0.03906-0.10352 9e-6 -1.06e-4 -0.0039-0.0604-0.0039-0.06055-6.1e-5 -2.9e-4 -0.01736-0.04839-0.01758-0.04883-2.17e-4 -4.41e-4 -0.0086-0.01661-0.01172-0.02148-0.01232-0.0195-0.01692-0.0254-0.02344-0.0332-0.01303-0.01561-0.02697-0.02964-0.04492-0.04883-0.03591-0.03838-0.0865-0.09171-0.15039-0.15625-0.12778-0.12909-0.30717-0.30514-0.50781-0.5-0.39954-0.38816-0.93215-0.90676-1.1836-1.1523l-0.31055-0.30273 0.04492-0.04492 0.3418-0.34766-0.24023-0.2168-2e-3 -2e-3c-0.02047-0.01903-0.04056-0.04164-0.08984-0.06836-0.05048-0.02737-0.15027-0.03827-0.21289-0.01563-0.12524 0.04529-0.14851 0.09931-0.23242 0.18164-0.02541 0.02495-0.04742 0.04213-0.07031 0.0625-0.02181-0.01694-0.04138-0.03111-0.06445-0.05078-0.01819-0.0155-0.03042-0.02788-0.04687-0.04297 0.01328-0.01705 0.02391-0.03094 0.03906-0.04883l2e-3 -2e-3c0.26909-0.31514 0.39759-0.6458 0.41797-1.0723 0.01461-0.3055-0.0057-0.46716-0.0957-0.75391-0.18872-0.60154-0.64012-1.2842-1.1035-1.6504-0.0987-0.07778-0.16753-0.13833-0.27734-0.16992-0.08931-0.02569-0.1712-0.0136-0.26367-0.0039 0.02536-0.05099 0.05585-0.09554 0.05664-0.16992 0.0012-0.1085-0.04155-0.17444-0.08008-0.25-0.1125-0.22048-0.32744-0.45232-0.64844-0.74414-0.321-0.29182-0.74777-0.63439-1.2715-1.0215-1.0477-0.7742-2.4868-1.731-4.2463-2.8184-0.67056-0.41448-1.0429-0.64383-1.2539-0.76953-0.10548-0.06285-0.16994-0.098679-0.21875-0.12305-0.024406-0.012184-0.041882-0.021776-0.076172-0.03125-0.017145-0.0047369-0.039063-0.011693-0.076172-0.0097656zm0.46875 0.71289c0.091325 0.055542 0.25171 0.15256 0.38477 0.23438-0.028334-0.001494-0.049019-0.010587-0.09375 0.0097656-0.054675 0.024878-0.075163 0.092812-0.095703 0.15039-0.042823-0.087138-0.10861-0.21739-0.14648-0.29492-0.020488-0.041939-0.02995-0.060807-0.048828-0.099609zm0.80469 0.88086c0.082705 0.050301 0.11835 0.067792 0.22656 0.13672l0.54297 0.34766 0.0097657 0.29688v0.00195l0.00391 0.17969c-0.083478-0.00452-0.17943-0.00846-0.24414-0.015625h-0.00391l-0.066406-0.0058563-0.33594-0.66992c-0.05223-0.10464-0.087298-0.17935-0.13281-0.27148zm1.1836 0.39062c8e-3 0.0051 0.01351 0.00858 0.02148 0.013672-0.0074 0.00178-0.01364 0.00727-0.02148 0.00977zm0.2207 0.51562c0.03484 0.021488 0.05821 0.034465 0.09961 0.060547 0.19986 0.12591 0.46945 0.30223 0.76562 0.49805 0.59235 0.39164 1.2874 0.86508 1.7285 1.1816 0.50227 0.36056 0.92568 0.68415 1.2383 0.94531 0.3126 0.26116 0.52131 0.47923 0.56055 0.54297l0.01172 0.01758-0.16797 0.33203c-0.0609 0.12147-0.1135 0.23369-0.15234 0.31836-0.01942 0.04234-0.03487 0.07716-0.04687 0.10742-6e-3 0.01513-0.01223 0.02873-0.01758 0.04687-0.0027 0.0091-0.0051 0.01765-0.0078 0.03711-0.0014 0.0097-2e-3 0.04226-2e-3 0.04297 2e-5 3.53e-4 0.0058 0.04075 0.0059 0.04102 6.7e-5 2.63e-4 0.02918 0.06428 0.0293 0.06445l0.01367 0.01953 0.01563 0.01758c1.16e-4 1.09e-4 0.06813 0.04092 0.06836 0.04101 2.3e-4 9.1e-5 0.03286 0.0097 0.0332 0.0098 6.87e-4 1.45e-4 0.026 0.0054 0.0332 0.0059 0.01441 9.3e-4 0.02151 2.67e-4 0.0293 0 0.01558-5.34e-4 0.02849-0.0024 0.04492-0.0039 0.03286-0.0031 0.07453-7e-3 0.125-0.01367 0.10094-0.01328 0.23594-0.03424 0.38281-0.05859l0.42188-0.06836 0.10742 0.10352c0.19815 0.193 0.59816 0.79886 0.68359 1.0254 0.10738 0.2848 0.14479 0.59104 0.10938 0.80859-0.02136 0.13126-0.08907 0.29309-0.16016 0.40039-0.02221 0.03353-0.03967 0.04789-0.05859 0.06836-0.0189-0.01719-0.03236-0.02826-0.05664-0.05078-0.09795-0.09088-0.23673-0.22209-0.40625-0.38477-0.33905-0.32535-0.79858-0.77281-1.2969-1.2637-0.49915-0.49162-0.9546-0.93805-1.2871-1.2598-0.16626-0.16086-0.30306-0.291-0.39844-0.38086-0.04769-0.04493-0.08342-0.07851-0.11133-0.10352-0.01396-0.0125-0.02498-0.02339-0.03711-0.0332-0.0061-0.0049-0.01216-0.0089-0.02539-0.01758-0.0066-0.0043-0.03657-0.01931-0.03711-0.01953-2.68e-4 -1.1e-4 -0.06428-0.01561-0.06445-0.01563-8.5e-5 -6e-6 -0.07611 0.0097-0.07617 0.0098-5.5e-5 1.6e-5 -0.07802 0.05129-0.0918 0.06055-0.0088 0.01645-0.05077 0.0976-0.05078 0.09766-1.2e-5 6.1e-5 -2e-3 0.06632-2e-3 0.06641 2.3e-5 1.74e-4 0.01356 0.05441 0.01367 0.05469 2.32e-4 5.53e-4 0.01382 0.02723 0.01758 0.0332 0.0075 0.01195 0.01112 0.01554 0.01563 0.02148 9e-3 0.01189 0.0174 0.02474 0.0293 0.03906 0.0238 0.02865 0.05859 0.06586 0.10156 0.11524 0.08594 0.09875 0.20946 0.23975 0.36328 0.41211 0.30764 0.34472 0.73436 0.81625 1.2051 1.334 0.47003 0.51699 0.89562 0.99184 1.2051 1.3379 0.12913 0.1444 0.22424 0.2502 0.30664 0.34375-0.2254 0.05528-0.72535 0.09187-0.94531 0.05273-0.28662-0.05112-0.8184-0.24233-0.99414-0.34766l-0.10938-0.06445v-0.10156c1.64e-4 -0.10371 0.01459-0.33562 0.03125-0.48633l0.07422-0.66992-0.70117 0.35352c-0.09569 0.04822-0.18912 0.09242-0.25977 0.12305-0.02057 0.0089-0.03306 0.0132-0.04883 0.01953-0.0072-4e-3 0.01743 0.0064 0.0059-0.0059-0.04241-0.04483-0.1088-0.1304-0.19141-0.25195-0.16521-0.24312-0.40188-0.63436-0.72266-1.1992-0.33257-0.58555-0.85527-1.5693-1.2949-2.416-0.21982-0.42334-0.4193-0.81205-0.5625-1.1016-0.04128-0.08346-0.066566-0.13624-0.097656-0.20117 0.039958 0.0047 0.063107 0.0094 0.10547 0.01367l0.49609 0.05078v-0.65242c0-0.059417 0.0031-0.060194 0.0039-0.10352zm4.6621 3.6582c0.0065 0.03514 0.0057 0.07032 0.03125 0.10352 0.05034 0.0653 0.09731 0.05405 0.14648 0.0625l-0.11719 0.01953c-0.06413 0.01063-0.10872 0.0167-0.16602 0.02539 0.01833-0.03739 0.03042-0.06291 0.05078-0.10352zm-1.8867 2.4258c-0.0097 0.10398-0.01346 0.20237-0.01758 0.30078-0.0091-0.05018-0.01675-0.10631-0.08398-0.16211-0.04559-0.03784-0.09075-0.02094-0.14062-0.02344 0.06837-0.03087 0.13909-0.06338 0.21875-0.10352zm3.2402 0.90234c-0.0096 0.01475-0.0188 0.02914-0.02734 0.04492-0.01018 0.01879-0.02292 0.04936-0.0293 0.10352l-0.0293-0.0293-0.18555 0.07227c0.0062-0.0131 0.01354-0.0289 0.01367-0.0293 1.99e-4 -5.84e-4 0.01172-0.06783 0.01172-0.06836 0-6.2e-5 -0.0058-0.05265-0.0059-0.05273-7e-6 -2.5e-5 -9.94e-4 -5e-3 -2e-3 -0.0078 9.6e-4 5.4e-4 9.02e-4 0.0014 2e-3 2e-3 0.0049 0.0027 0.01721 0.0096 0.01758 0.0098 3.64e-4 1.55e-4 0.0388 0.01166 0.03906 0.01172 0.08537 0.01847 0.13665-0.02578 0.19531-0.05664zm0.43164 0.74609 0.02148 0.02148c-5.24e-4 -6.5e-5 -0.0039 0-0.0039 0-4.66e-4 0-0.01251 0.0011-0.02148 2e-3 6.36e-4 -9e-3 0.0039-0.0043 0.0039-0.01563 0-1.29e-4 1.15e-4 -6e-3 0-0.0078zm2.6172 2.0527c0.0052 7.6e-4 0.0079 0.0016 0.0098 2e-3l2e-3 2e-3c-0.0014-3.71e-4 -0.0072-0.0025-0.01172-0.0039z" color="#000000" color-rendering="auto" dominant-baseline="auto" fill="#fff" fill-rule="evenodd" image-rendering="auto" shape-rendering="auto" solid-color="#000000" style="font-feature-settings:normal;font-variant-alternates:normal;font-variant-caps:normal;font-variant-ligatures:normal;font-variant-numeric:normal;font-variant-position:normal;isolation:auto;mix-blend-mode:normal;shape-padding:0;text-decoration-color:#000000;text-decoration-line:none;text-decoration-style:solid;text-indent:0;text-orientation:mixed;text-transform:none;white-space:normal"/>
    <g display="none" fill="none">
        <rect transform="rotate(90)" x="7.3342" y="-19.616" width="12.282" height="12.282" display="inline" stroke="#000" stroke-width=".065984"/>
        <rect x="6.7726" y="8.112" width="13.405" height="10.726" stroke="#5261ff" stroke-linecap="round" stroke-linejoin="round" stroke-width=".06524"/>
        <rect transform="rotate(90)" x="6.7726" y="-18.838" width="13.405" height="10.726" display="inline" stroke="#0f0" stroke-linecap="round" stroke-linejoin="round" stroke-width=".06524"/>
    </g>
</svg>
