<?xml version="1.0" encoding="UTF-8"?>
<svg version="1.1" viewBox="0 0 28.747 28.747" xmlns="http://www.w3.org/2000/svg">
    <defs>
        <filter id="filter6206-7" color-interpolation-filters="sRGB">
            <feGaussianBlur stdDeviation="0.658125"/>
        </filter>
    </defs>
    <g transform="translate(0 -1093.8)">
        <path transform="matrix(1.0781 0 0 1.0641 -.093733 2.7509)" d="m4.4177 1028.2v1.6051h-1.6052v18.192h1.6052v2.1402h18.192v-2.1402h2.1402v-18.192h-2.1402v-1.6051z" fill="#1a237e" filter="url(#filter6206-7)" opacity=".2"/>
        <rect x="2.9987" y="1096.8" width="22.749" height="22.749" rx="1.1973" ry="1.1974" fill="#673ab7"/>
        <g transform="translate(-22.32 1056.5)">
            <path d="m0 0h51.2v51.2h-51.2z" fill="none" stroke-width="1.0667"/>
            <g transform="matrix(.33601 0 0 .33601 1.5296 73.043)">
                <path d="m0 0h51.2v51.2h-51.2z" fill="none" stroke-width="1.0667"/>
            </g>
            <g transform="matrix(.37187 0 0 .37187 38.802 63.239)">
                <path d="m0 0h51.2v51.2h-51.2z" fill="none" stroke-width="1.0667"/>
                <g transform="matrix(2.6891 0 0 2.6891 -82.906 -48.45)">
                    <path d="m0 0h51.2v51.2h-51.2z" fill="none" stroke-width="1.0667"/>
                </g>
            </g>
        </g>
        <path d="m4.1958 1096.8c-0.66332 0-1.1979 0.5346-1.1979 1.1979v0.3334c0-0.6634 0.53459-1.1979 1.1979-1.1979h20.354c0.66332 0 1.1979 0.5345 1.1979 1.1979v-0.3334c0-0.6633-0.5346-1.1979-1.1979-1.1979z" fill="#fff" opacity=".2"/>
        <rect x="128" y="546.52" width="42.667" height="42.667" fill="none" stroke-width="1.0667"/>
        <rect x="128" y="631.85" width="42.667" height="42.667" fill="none" stroke-width="1.0667"/>
        <rect x="128" y="674.52" width="42.667" height="42.667" fill="none" stroke-width="1.0667"/>
        <rect x="128" y="589.19" width="42.667" height="42.667" fill="none" stroke-width="1.0667"/>
        <rect x="128" y="717.19" width="42.667" height="42.667" fill="none" stroke-width="1.0667"/>
        <rect x="213.33" y="546.52" width="42.667" height="42.667" fill="none" stroke-width="1.0667"/>
        <rect x="213.33" y="631.85" width="42.667" height="42.667" fill="none" stroke-width="1.0667"/>
        <rect x="213.33" y="674.52" width="42.667" height="42.667" fill="none" stroke-width="1.0667"/>
        <rect x="213.33" y="589.19" width="42.667" height="42.667" fill="none" stroke-width="1.0667"/>
        <rect x="213.33" y="717.19" width="42.667" height="42.667" fill="none" stroke-width="1.0667"/>
        <rect x="298.67" y="546.52" width="42.667" height="42.667" fill="none" stroke-width="1.0667"/>
        <rect x="298.67" y="631.85" width="42.667" height="42.667" fill="none" stroke-width="1.0667"/>
        <rect x="298.67" y="674.52" width="42.667" height="42.667" fill="none" stroke-width="1.0667"/>
        <rect x="298.67" y="589.19" width="42.667" height="42.667" fill="none" stroke-width="1.0667"/>
        <rect x="298.67" y="717.19" width="42.667" height="42.667" fill="none" stroke-width="1.0667"/>
        <rect x="170.67" y="546.52" width="42.667" height="42.667" fill="none" stroke-width="1.0667"/>
        <rect x="170.67" y="631.85" width="42.667" height="42.667" fill="none" stroke-width="1.0667"/>
        <rect x="170.67" y="674.52" width="42.667" height="42.667" fill="none" stroke-width="1.0667"/>
        <rect x="170.67" y="589.19" width="42.667" height="42.667" fill="none" stroke-width="1.0667"/>
        <rect x="170.67" y="717.19" width="42.667" height="42.667" fill="none" stroke-width="1.0667"/>
        <rect x="256" y="546.52" width="42.667" height="42.667" fill="none" stroke-width="1.0667"/>
        <rect x="256" y="631.85" width="42.667" height="42.667" fill="none" stroke-width="1.0667"/>
        <rect x="256" y="674.52" width="42.667" height="42.667" fill="none" stroke-width="1.0667"/>
        <rect x="256" y="589.19" width="42.667" height="42.667" fill="none" stroke-width="1.0667"/>
        <rect x="256" y="717.19" width="42.667" height="42.667" fill="none" stroke-width="1.0667"/>
        <rect x="128" y="759.85" width="42.667" height="42.667" fill="none" stroke-width="1.0667"/>
        <rect x="213.33" y="759.85" width="42.667" height="42.667" fill="none" stroke-width="1.0667"/>
        <rect x="298.67" y="759.85" width="42.667" height="42.667" fill="none" stroke-width="1.0667"/>
        <rect x="170.67" y="759.85" width="42.667" height="42.667" fill="none" stroke-width="1.0667"/>
        <rect x="256" y="759.85" width="42.667" height="42.667" fill="none" stroke-width="1.0667"/>
        <rect x="341.33" y="589.19" width="42.667" height="42.667" fill="none" stroke-width="1.0667"/>
        <rect x="341.33" y="631.85" width="42.667" height="42.667" fill="none" stroke-width="1.0667"/>
        <rect x="341.33" y="717.19" width="42.667" height="42.667" fill="none" stroke-width="1.0667"/>
        <rect x="341.33" y="546.52" width="42.667" height="42.667" fill="none" stroke-width="1.0667"/>
        <rect x="341.33" y="674.52" width="42.667" height="42.667" fill="none" stroke-width="1.0667"/>
        <rect x="341.33" y="759.85" width="42.667" height="42.667" fill="none" stroke-width="1.0667"/>
        <rect x="160" y="578.52" width="192" height="192" fill="none" stroke-width="1.0667"/>
        <g transform="matrix(.37344 0 0 .37344 4.7333 1097.4)">
            <path d="m0 0h51.2v51.2h-51.2z" fill="none" stroke-width="1.0667"/>
        </g>
        <g transform="matrix(.36471 0 0 .36471 5.1356 1097.4)">
            <path d="m0 0h51.2v51.2h-51.2z" fill="none" stroke-width="1.0667"/>
        </g>
        <g transform="matrix(.41585 0 0 .41585 84.325 1055.9)">
            <g transform="matrix(.062269 0 0 .062269 -28.238 185.29)">
                <g transform="matrix(38.618 0 0 38.618 14724 -13542)">
                    <g transform="matrix(.71436 0 0 .71436 -400.52 188.34)">
                        <path d="m1293.2-120.67c-181.75 0.2763-511.18 0.13525-699.05 0.13998-2.3216 10.413-3.593 21.251-3.593 32.384v114c207.65 0.73695 494.72 0.38136 706.23 0.3733v-114.37c0-11.18-1.2522-22.07-3.593-32.523zm-458.69 295.56c-78.385-4e-3 -158.85 0.17892-243.95 0.55995v138.63c286.34-0.39317 421.73-0.13827 706.23-0.32664v-137.75c-163.2-0.53005-311.22-1.1113-462.28-1.1199z" opacity="0" stroke-width="1.4932"/>
                    </g>
                </g>
            </g>
        </g>
        <path d="m24.549 1119.5c0.66325 0 1.1979-0.5346 1.1979-1.1979v-0.3333c0 0.6632-0.53461 1.1978-1.1979 1.1978h-20.354c-0.66325 0-1.1979-0.5346-1.1979-1.1978v0.3333c0 0.6633 0.53461 1.1979 1.1979 1.1979z" fill="#1a237e" opacity=".2"/>
    </g>
    <path d="m14.373 7.7933a6.58 6.58 0 0 0-0.01359 7.329e-4v-1.886e-4a6.58 6.58 0 0 0-0.06591 0.00347 6.58 6.58 0 0 0-0.58879 0.030479 6.58 6.58 0 0 0-0.09602 0.014508 6.58 6.58 0 0 0-0.55519 0.085188 6.58 6.58 0 0 0-0.05655 0.014508 6.58 6.58 0 0 0-0.57997 0.14945 6.58 6.58 0 0 0-0.07032 0.025703 6.58 6.58 0 0 0-0.54729 0.20085 6.58 6.58 0 0 0-0.06022 0.029194 6.58 6.58 0 0 0-0.5315 0.25813 6.58 6.58 0 0 0-0.05856 0.0358 6.58 6.58 0 0 0-0.50084 0.30862 6.58 6.58 0 0 0-0.0749 0.056914 6.58 6.58 0 0 0-0.44834 0.3424 6.58 6.58 0 0 0-0.06609 0.061503 6.58 6.58 0 0 0-0.41272 0.38591 6.58 6.58 0 0 0-0.1197 0.13641 6.58 6.58 0 0 0-0.31376 0.35856 6.58 6.58 0 0 0-0.1052 0.14724 6.58 6.58 0 0 0-0.27613 0.38775 6.58 6.58 0 0 0-0.097305 0.16946 6.58 6.58 0 0 0-0.22949 0.40226 6.58 6.58 0 0 0-0.079501 0.17735 6.58 6.58 0 0 0-0.18763 0.42172 6.58 6.58 0 0 0-0.084822 0.2552 6.58 6.58 0 0 0-0.12154 0.36847 6.58 6.58 0 0 0-0.059119 0.26272 6.58 6.58 0 0 0-0.084456 0.38004 6.58 6.58 0 0 0-0.031577 0.26125 6.58 6.58 0 0 0-0.046817 0.39216 6.58 6.58 0 0 0-0.016159 0.45623 6.58 6.58 0 0 0 0.032863 0.6569 6.58 6.58 0 0 0 6.5471 5.9231 6.58 6.58 0 0 0 6.58-6.58 6.58 6.58 0 0 0-6.58-6.58zm0 0.94a5.64 5.64 0 0 1 5.64 5.64 5.64 5.64 0 0 1-5.64 5.64 5.64 5.64 0 0 1-0.01359-7.33e-4v-0.93982a4.7 4.7 0 0 0 0.01359 5.59e-4 4.7 4.7 0 0 0 4.7-4.7 4.7 4.7 0 0 0-4.7-4.7 4.7 4.7 0 0 0-0.01359 7.339e-4v-0.94019a5.64 5.64 0 0 1 0.01359-5.584e-4zm0 1.88a3.76 3.76 0 0 1 3.76 3.76 3.76 3.76 0 0 1-3.76 3.76 3.76 3.76 0 0 1-0.01359-7.33e-4v-0.93982a2.82 2.82 0 0 0 0.01359 5.58e-4 2.82 2.82 0 0 0 2.82-2.82 2.82 2.82 0 0 0-2.82-2.82 2.82 2.82 0 0 0-0.01359 7.33e-4v-0.94019a3.76 3.76 0 0 1 0.01359-5.58e-4zm0 1.88a1.88 1.88 0 0 1 1.88 1.88 1.88 1.88 0 0 1-1.88 1.88 1.88 1.88 0 0 1-0.01359-7.33e-4v-0.94a0.94 0.94 0 0 0 0.01359 7.33e-4 0.94 0.94 0 0 0 0.94-0.94 0.94 0.94 0 0 0-0.94-0.94 0.94 0.94 0 0 0-0.01359 5.59e-4v-0.94a1.88 1.88 0 0 1 0.01359-5.59e-4z" fill="#fff"/>
    <g display="none" fill="none">
        <rect transform="rotate(90)" x="7.8232" y="-20.923" width="13.1" height="13.1" display="inline" stroke="#000" stroke-width=".070382"/>
        <rect x="7.2241" y="8.6528" width="14.298" height="11.441" stroke="#5261ff" stroke-linecap="round" stroke-linejoin="round" stroke-width=".069589"/>
        <rect transform="rotate(90)" x="7.2241" y="-20.094" width="14.298" height="11.441" display="inline" stroke="#0f0" stroke-linecap="round" stroke-linejoin="round" stroke-width=".069589"/>
    </g>
</svg>
