<?xml version="1.0" encoding="UTF-8"?>
<svg version="1.1" viewBox="0 0 28.747 28.747" xmlns="http://www.w3.org/2000/svg">
    <defs>
        <filter id="filter6206-7" color-interpolation-filters="sRGB">
            <feGaussianBlur stdDeviation="0.658125"/>
        </filter>
    </defs>
    <g transform="translate(0 -1093.8)">
        <path transform="matrix(1.0781 0 0 1.0641 -.093733 2.7509)" d="m4.4177 1028.2v1.6051h-1.6052v18.192h1.6052v2.1402h18.192v-2.1402h2.1402v-18.192h-2.1402v-1.6051z" fill="#3e2723" filter="url(#filter6206-7)" opacity=".2"/>
        <rect x="2.9987" y="1096.8" width="22.749" height="22.749" rx="1.1973" ry="1.1974" fill="#f44336"/>
        <g transform="translate(-22.32 1056.5)">
            <path d="m0 0h51.2v51.2h-51.2z" fill="none" stroke-width="1.0667"/>
            <g transform="matrix(.33601 0 0 .33601 1.5296 73.043)">
                <path d="m0 0h51.2v51.2h-51.2z" fill="none" stroke-width="1.0667"/>
            </g>
            <g transform="matrix(.37187 0 0 .37187 38.802 63.239)">
                <path d="m0 0h51.2v51.2h-51.2z" fill="none" stroke-width="1.0667"/>
                <g transform="matrix(2.6891 0 0 2.6891 -82.906 -48.45)">
                    <path d="m0 0h51.2v51.2h-51.2z" fill="none" stroke-width="1.0667"/>
                </g>
            </g>
        </g>
        <path d="m4.1958 1096.8c-0.66332 0-1.1979 0.5346-1.1979 1.1979v0.3334c0-0.6634 0.53459-1.1979 1.1979-1.1979h20.354c0.66332 0 1.1979 0.5345 1.1979 1.1979v-0.3334c0-0.6633-0.5346-1.1979-1.1979-1.1979z" fill="#fff" opacity=".2"/>
        <rect x="128" y="546.52" width="42.667" height="42.667" fill="none" stroke-width="1.0667"/>
        <rect x="128" y="631.85" width="42.667" height="42.667" fill="none" stroke-width="1.0667"/>
        <rect x="128" y="674.52" width="42.667" height="42.667" fill="none" stroke-width="1.0667"/>
        <rect x="128" y="589.19" width="42.667" height="42.667" fill="none" stroke-width="1.0667"/>
        <rect x="128" y="717.19" width="42.667" height="42.667" fill="none" stroke-width="1.0667"/>
        <rect x="213.33" y="546.52" width="42.667" height="42.667" fill="none" stroke-width="1.0667"/>
        <rect x="213.33" y="631.85" width="42.667" height="42.667" fill="none" stroke-width="1.0667"/>
        <rect x="213.33" y="674.52" width="42.667" height="42.667" fill="none" stroke-width="1.0667"/>
        <rect x="213.33" y="589.19" width="42.667" height="42.667" fill="none" stroke-width="1.0667"/>
        <rect x="213.33" y="717.19" width="42.667" height="42.667" fill="none" stroke-width="1.0667"/>
        <rect x="298.67" y="546.52" width="42.667" height="42.667" fill="none" stroke-width="1.0667"/>
        <rect x="298.67" y="631.85" width="42.667" height="42.667" fill="none" stroke-width="1.0667"/>
        <rect x="298.67" y="674.52" width="42.667" height="42.667" fill="none" stroke-width="1.0667"/>
        <rect x="298.67" y="589.19" width="42.667" height="42.667" fill="none" stroke-width="1.0667"/>
        <rect x="298.67" y="717.19" width="42.667" height="42.667" fill="none" stroke-width="1.0667"/>
        <rect x="170.67" y="546.52" width="42.667" height="42.667" fill="none" stroke-width="1.0667"/>
        <rect x="170.67" y="631.85" width="42.667" height="42.667" fill="none" stroke-width="1.0667"/>
        <rect x="170.67" y="674.52" width="42.667" height="42.667" fill="none" stroke-width="1.0667"/>
        <rect x="170.67" y="589.19" width="42.667" height="42.667" fill="none" stroke-width="1.0667"/>
        <rect x="170.67" y="717.19" width="42.667" height="42.667" fill="none" stroke-width="1.0667"/>
        <rect x="256" y="546.52" width="42.667" height="42.667" fill="none" stroke-width="1.0667"/>
        <rect x="256" y="631.85" width="42.667" height="42.667" fill="none" stroke-width="1.0667"/>
        <rect x="256" y="674.52" width="42.667" height="42.667" fill="none" stroke-width="1.0667"/>
        <rect x="256" y="589.19" width="42.667" height="42.667" fill="none" stroke-width="1.0667"/>
        <rect x="256" y="717.19" width="42.667" height="42.667" fill="none" stroke-width="1.0667"/>
        <rect x="128" y="759.85" width="42.667" height="42.667" fill="none" stroke-width="1.0667"/>
        <rect x="213.33" y="759.85" width="42.667" height="42.667" fill="none" stroke-width="1.0667"/>
        <rect x="298.67" y="759.85" width="42.667" height="42.667" fill="none" stroke-width="1.0667"/>
        <rect x="170.67" y="759.85" width="42.667" height="42.667" fill="none" stroke-width="1.0667"/>
        <rect x="256" y="759.85" width="42.667" height="42.667" fill="none" stroke-width="1.0667"/>
        <rect x="341.33" y="589.19" width="42.667" height="42.667" fill="none" stroke-width="1.0667"/>
        <rect x="341.33" y="631.85" width="42.667" height="42.667" fill="none" stroke-width="1.0667"/>
        <rect x="341.33" y="717.19" width="42.667" height="42.667" fill="none" stroke-width="1.0667"/>
        <rect x="341.33" y="546.52" width="42.667" height="42.667" fill="none" stroke-width="1.0667"/>
        <rect x="341.33" y="674.52" width="42.667" height="42.667" fill="none" stroke-width="1.0667"/>
        <rect x="341.33" y="759.85" width="42.667" height="42.667" fill="none" stroke-width="1.0667"/>
        <rect x="160" y="578.52" width="192" height="192" fill="none" stroke-width="1.0667"/>
        <g transform="matrix(.37344 0 0 .37344 4.7333 1097.4)">
            <path d="m0 0h51.2v51.2h-51.2z" fill="none" stroke-width="1.0667"/>
        </g>
        <g transform="matrix(.36471 0 0 .36471 5.1356 1097.4)">
            <path d="m0 0h51.2v51.2h-51.2z" fill="none" stroke-width="1.0667"/>
        </g>
        <g transform="matrix(.41585 0 0 .41585 84.325 1055.9)">
            <g transform="matrix(.062269 0 0 .062269 -28.238 185.29)">
                <g transform="matrix(38.618 0 0 38.618 14724 -13542)">
                    <g transform="matrix(.71436 0 0 .71436 -400.52 188.34)">
                        <path d="m1293.2-120.67c-181.75 0.2763-511.18 0.13525-699.05 0.13998-2.3216 10.413-3.593 21.251-3.593 32.384v114c207.65 0.73695 494.72 0.38136 706.23 0.3733v-114.37c0-11.18-1.2522-22.07-3.593-32.523zm-458.69 295.56c-78.385-4e-3 -158.85 0.17892-243.95 0.55995v138.63c286.34-0.39317 421.73-0.13827 706.23-0.32664v-137.75c-163.2-0.53005-311.22-1.1113-462.28-1.1199z" opacity="0" stroke-width="1.4932"/>
                    </g>
                </g>
            </g>
        </g>
        <path d="m24.549 1119.5c0.66325 0 1.1979-0.5346 1.1979-1.1979v-0.3333c0 0.6632-0.53461 1.1978-1.1979 1.1978h-20.354c-0.66325 0-1.1979-0.5346-1.1979-1.1978v0.3333c0 0.6633 0.53461 1.1979 1.1979 1.1979z" fill="#3e2723" opacity=".2"/>
    </g>
    <g transform="matrix(.028094 0 0 .028094 7.1784 8.0718)" fill="#fff">
        <path d="m150.5 344.3v-32.6c-9.3-1.3-18.6-2.7-28.2-4.1-2.9 10-5.7 20-9 31.2 12.5 1.8 24.4 3.6 37.2 5.5zm86.2-58.3c5.4 9.7 10.5 18.8 15.8 28.2 9.5-5.6 18.7-10.9 28.2-16.5-4.9-9.5-9.6-18.9-14.7-28.8-10 5.9-19.4 11.4-29.3 17.1zm156.1 5c4.8-9.4 9.6-18.6 14.9-28.9-12.1-4.2-23.6-8.2-35.8-12.5-2.3 11.6-4.3 21.9-6.3 31.8 9.4 3.3 18.2 6.4 27.2 9.6zm-94.3-35.9c3.5 11.1 6.7 21.1 9.7 30.9 10-2 19.3-3.9 29.1-5.9-0.9-10.6-1.7-20.9-2.6-32.2-12.4 2.4-24.1 4.7-36.2 7.2zm-77.3 74.7c-4.3-10.8-8.3-20.6-12.1-30.1-10.1 3.1-19.5 6-29.1 9 2.2 10.4 4.3 20.4 6.6 31.6 11.7-3.5 22.8-6.9 34.6-10.5z"/>
        <path d="m0 446.4c0.7-1.5 1.5-2.9 2-4.4 30.7-92 61.4-184 92-276.1 1.4-4.1 3-5.6 7.5-5.6 21.8 0.3 43.7 0.2 65.5 0.1 3.1 0 4.8 0.8 6.2 3.6 4.5 9.2 9.3 18.3 14.3 28.1h-68.1c-1.9 5.8-3.8 11.2-5.6 16.7-8.2 24.5-16.2 49-24.7 73.3-1.8 5.3-1.1 8.4 3.8 10.8 1.3 0.6 2.4 1.7 3.9 2.8-5.3 8.5-10.4 16.8-15.8 25-0.6 1-2.8 0.9-5 1.6-10.2 30.6-20.7 62.1-31.3 94h422.8c-9.9-29.8-19.7-59.2-29.3-88-2-0.5-4.1-0.4-5-1.3-5.5-6.2-10.8-12.6-16.4-19.2 2.7-2.9 5.7-6 8.3-9.4 1-1.2 1.8-3.4 1.4-4.7-11.1-33.7-22.3-67.3-33.6-101.2h-68.3c4.6-9 9.2-17.2 13-25.8 2.2-5.1 5.2-6.4 10.6-6.3 21 0.4 42 0.3 63 0 4.1-0.1 5.7 1.3 6.9 5.1 30.6 92.1 61.3 184.1 92 276.1 0.6 1.7 1.4 3.3 2.1 4.9v2h-512c-0.2-0.7-0.2-1.4-0.2-2.1z"/>
        <path d="m150.5 344.3c-12.8-1.9-24.7-3.7-37.2-5.5 3.2-11.2 6.1-21.2 9-31.2 9.7 1.4 19 2.8 28.2 4.1v32.6z"/>
        <path d="m236.7 286c9.9-5.7 19.3-11.2 29.3-17.1 5.1 9.9 9.9 19.3 14.7 28.8-9.5 5.6-18.7 10.9-28.2 16.5-5.3-9.4-10.4-18.5-15.8-28.2z"/>
        <path d="m392.8 291c-9.1-3.2-17.8-6.3-27.1-9.6 2-9.9 4-20.3 6.3-31.8 12.2 4.3 23.7 8.3 35.8 12.5-5.4 10.3-10.1 19.5-15 28.9z"/>
        <path d="m298.5 255.1c12.1-2.4 23.7-4.8 36.1-7.3 0.9 11.3 1.8 21.6 2.6 32.2-9.7 2-19.1 3.9-29.1 5.9-2.9-9.7-6.1-19.7-9.6-30.8z"/>
        <path d="m221.2 329.8c-11.8 3.6-22.9 7-34.5 10.5-2.4-11.2-4.5-21.2-6.6-31.6 9.5-2.9 19-5.8 29.1-9 3.7 9.6 7.7 19.3 12 30.1z"/>
        <path d="m181.4 111.5c-4.1-9.6-6.3-20.2-6.3-31.2 0-44.3 36.2-80.2 80.8-80.2s80.8 35.9 80.8 80.2c0 11.2-2.3 21.8-6.4 31.4l-73.7 145.6zm74.4-77.5c-24.9 0-45 20.1-45 45s20.1 45 45 45 45-20.1 45-45-20.1-45-45-45z"/>
    </g>
</svg>
