<?xml version="1.0" encoding="UTF-8"?>
<svg version="1.1" viewBox="0 0 28.747 28.747" xmlns="http://www.w3.org/2000/svg">
    <defs>
        <filter id="filter6206-7" color-interpolation-filters="sRGB">
            <feGaussianBlur stdDeviation="0.658125"/>
        </filter>
    </defs>
    <g transform="translate(0 -1093.8)">
        <path transform="matrix(1.0781 0 0 1.0641 -.093733 2.7509)" d="m4.4177 1028.2v1.6051h-1.6052v18.192h1.6052v2.1402h18.192v-2.1402h2.1402v-18.192h-2.1402v-1.6051z" fill="#3e2723" filter="url(#filter6206-7)" opacity=".2"/>
        <rect x="2.9987" y="1096.8" width="22.749" height="22.749" rx="1.1973" ry="1.1974" fill="#795548"/>
        <g transform="translate(-22.32 1056.5)">
            <path d="m0 0h51.2v51.2h-51.2z" fill="none" stroke-width="1.0667"/>
            <g transform="matrix(.33601 0 0 .33601 1.5296 73.043)">
                <path d="m0 0h51.2v51.2h-51.2z" fill="none" stroke-width="1.0667"/>
            </g>
            <g transform="matrix(.37187 0 0 .37187 38.802 63.239)">
                <path d="m0 0h51.2v51.2h-51.2z" fill="none" stroke-width="1.0667"/>
                <g transform="matrix(2.6891 0 0 2.6891 -82.906 -48.45)">
                    <path d="m0 0h51.2v51.2h-51.2z" fill="none" stroke-width="1.0667"/>
                </g>
            </g>
        </g>
        <path d="m4.1958 1096.8c-0.66332 0-1.1979 0.5346-1.1979 1.1979v0.3334c0-0.6634 0.53459-1.1979 1.1979-1.1979h20.354c0.66332 0 1.1979 0.5345 1.1979 1.1979v-0.3334c0-0.6633-0.5346-1.1979-1.1979-1.1979z" fill="#fff" opacity=".2"/>
        <rect x="128" y="546.52" width="42.667" height="42.667" fill="none" stroke-width="1.0667"/>
        <rect x="128" y="631.85" width="42.667" height="42.667" fill="none" stroke-width="1.0667"/>
        <rect x="128" y="674.52" width="42.667" height="42.667" fill="none" stroke-width="1.0667"/>
        <rect x="128" y="589.19" width="42.667" height="42.667" fill="none" stroke-width="1.0667"/>
        <rect x="128" y="717.19" width="42.667" height="42.667" fill="none" stroke-width="1.0667"/>
        <rect x="213.33" y="546.52" width="42.667" height="42.667" fill="none" stroke-width="1.0667"/>
        <rect x="213.33" y="631.85" width="42.667" height="42.667" fill="none" stroke-width="1.0667"/>
        <rect x="213.33" y="674.52" width="42.667" height="42.667" fill="none" stroke-width="1.0667"/>
        <rect x="213.33" y="589.19" width="42.667" height="42.667" fill="none" stroke-width="1.0667"/>
        <rect x="213.33" y="717.19" width="42.667" height="42.667" fill="none" stroke-width="1.0667"/>
        <rect x="298.67" y="546.52" width="42.667" height="42.667" fill="none" stroke-width="1.0667"/>
        <rect x="298.67" y="631.85" width="42.667" height="42.667" fill="none" stroke-width="1.0667"/>
        <rect x="298.67" y="674.52" width="42.667" height="42.667" fill="none" stroke-width="1.0667"/>
        <rect x="298.67" y="589.19" width="42.667" height="42.667" fill="none" stroke-width="1.0667"/>
        <rect x="298.67" y="717.19" width="42.667" height="42.667" fill="none" stroke-width="1.0667"/>
        <rect x="170.67" y="546.52" width="42.667" height="42.667" fill="none" stroke-width="1.0667"/>
        <rect x="170.67" y="631.85" width="42.667" height="42.667" fill="none" stroke-width="1.0667"/>
        <rect x="170.67" y="674.52" width="42.667" height="42.667" fill="none" stroke-width="1.0667"/>
        <rect x="170.67" y="589.19" width="42.667" height="42.667" fill="none" stroke-width="1.0667"/>
        <rect x="170.67" y="717.19" width="42.667" height="42.667" fill="none" stroke-width="1.0667"/>
        <rect x="256" y="546.52" width="42.667" height="42.667" fill="none" stroke-width="1.0667"/>
        <rect x="256" y="631.85" width="42.667" height="42.667" fill="none" stroke-width="1.0667"/>
        <rect x="256" y="674.52" width="42.667" height="42.667" fill="none" stroke-width="1.0667"/>
        <rect x="256" y="589.19" width="42.667" height="42.667" fill="none" stroke-width="1.0667"/>
        <rect x="256" y="717.19" width="42.667" height="42.667" fill="none" stroke-width="1.0667"/>
        <rect x="128" y="759.85" width="42.667" height="42.667" fill="none" stroke-width="1.0667"/>
        <rect x="213.33" y="759.85" width="42.667" height="42.667" fill="none" stroke-width="1.0667"/>
        <rect x="298.67" y="759.85" width="42.667" height="42.667" fill="none" stroke-width="1.0667"/>
        <rect x="170.67" y="759.85" width="42.667" height="42.667" fill="none" stroke-width="1.0667"/>
        <rect x="256" y="759.85" width="42.667" height="42.667" fill="none" stroke-width="1.0667"/>
        <rect x="341.33" y="589.19" width="42.667" height="42.667" fill="none" stroke-width="1.0667"/>
        <rect x="341.33" y="631.85" width="42.667" height="42.667" fill="none" stroke-width="1.0667"/>
        <rect x="341.33" y="717.19" width="42.667" height="42.667" fill="none" stroke-width="1.0667"/>
        <rect x="341.33" y="546.52" width="42.667" height="42.667" fill="none" stroke-width="1.0667"/>
        <rect x="341.33" y="674.52" width="42.667" height="42.667" fill="none" stroke-width="1.0667"/>
        <rect x="341.33" y="759.85" width="42.667" height="42.667" fill="none" stroke-width="1.0667"/>
        <rect x="160" y="578.52" width="192" height="192" fill="none" stroke-width="1.0667"/>
        <g transform="matrix(.37344 0 0 .37344 4.7333 1097.4)">
            <path d="m0 0h51.2v51.2h-51.2z" fill="none" stroke-width="1.0667"/>
        </g>
        <g transform="matrix(.36471 0 0 .36471 5.1356 1097.4)">
            <path d="m0 0h51.2v51.2h-51.2z" fill="none" stroke-width="1.0667"/>
        </g>
        <g transform="matrix(.41585 0 0 .41585 84.325 1055.9)">
            <g transform="matrix(.062269 0 0 .062269 -28.238 185.29)">
                <g transform="matrix(38.618 0 0 38.618 14724 -13542)">
                    <g transform="matrix(.71436 0 0 .71436 -400.52 188.34)">
                        <path d="m1293.2-120.67c-181.75 0.2763-511.18 0.13525-699.05 0.13998-2.3216 10.413-3.593 21.251-3.593 32.384v114c207.65 0.73695 494.72 0.38136 706.23 0.3733v-114.37c0-11.18-1.2522-22.07-3.593-32.523zm-458.69 295.56c-78.385-4e-3 -158.85 0.17892-243.95 0.55995v138.63c286.34-0.39317 421.73-0.13827 706.23-0.32664v-137.75c-163.2-0.53005-311.22-1.1113-462.28-1.1199z" opacity="0" stroke-width="1.4932"/>
                    </g>
                </g>
            </g>
        </g>
        <path d="m24.549 1119.5c0.66325 0 1.1979-0.5346 1.1979-1.1979v-0.3333c0 0.6632-0.53461 1.1978-1.1979 1.1978h-20.354c-0.66325 0-1.1979-0.5346-1.1979-1.1978v0.3333c0 0.6633 0.53461 1.1979 1.1979 1.1979z" fill="#3e2723" opacity=".2"/>
    </g>
    <g fill="#fff">
        <path d="m8.9805 10.787c-0.23121 1.3e-5 -0.45673 0.02465-0.67578 0.06641a3.592 3.592 0 0 0-0.11719 0.02734c-0.19228 0.04345-0.37938 0.09895-0.55859 0.17188a3.592 3.592 0 0 0-0.11328 0.050782c-0.18148 0.081344-0.35551 0.17607-0.51953 0.28516a3.592 3.592 0 0 0-0.058594 0.041016c-0.16723 0.11611-0.32581 0.24458-0.4707 0.38672a3.592 3.592 0 0 0-0.072266 0.07813c-0.14028 0.14601-0.27253 0.30072-0.38672 0.46875a3.592 3.592 0 0 0-0.019531 0.03125c-0.1161 0.17466-0.21624 0.36034-0.30078 0.55468a3.592 3.592 0 0 0-0.029297 0.06836c-0.07707 0.18784-0.13707 0.38373-0.18164 0.58594a3.592 3.592 0 0 0-0.019531 0.08398c-0.043663 0.2238-0.068346 0.45483-0.068359 0.69141 1.31e-5 0.2319 0.026365 0.45612 0.068359 0.67578a3.592 3.592 0 0 0 0.023438 0.11133c0.043593 0.19408 0.10218 0.38366 0.17578 0.56445a3.592 3.592 0 0 0 0.048828 0.11328c0.081345 0.18148 0.17607 0.35551 0.28516 0.51953a3.592 3.592 0 0 0 0.041016 0.05859c0.11795 0.16986 0.24781 0.32977 0.39258 0.47656a3.592 3.592 0 0 0 0.054687 0.05273c0.15023 0.14604 0.31246 0.28224 0.48633 0.40039a3.592 3.592 0 0 0 0.029297 0.01758c0.18522 0.12331 0.38062 0.23069 0.58789 0.31836 0.20921 0.0885 0.429 0.15537 0.65625 0.20312 0.00613 0.0013 0.011439 0.0046 0.017578 0.0059a3.592 3.592 0 0 0 0.011719 2e-3c0.23027 0.04635 0.46897 0.07225 0.71289 0.07227 0.24264-2.32e-4 0.48097-0.02833 0.71484-0.07617a3.592 3.592 0 0 0 0.078125-0.01758c0.22181-0.05058 0.43912-0.12187 0.64648-0.21289a3.592 3.592 0 0 0 0.04687-0.02148c0.21544-0.09831 0.42044-0.21598 0.61328-0.35547a3.592 3.592 0 0 0 0.01172-0.0059c3e-3 -0.0022 0.0049-0.0057 0.0078-0.0078 0.1939-0.14225 0.37509-0.30515 0.53906-0.48633a3.592 3.592 0 0 0 0.93359-2.4082 3.592 3.592 0 0 0-3.5918-3.5918zm1.4863 0a3.8913 3.8913 0 0 1 2.4043 3.5918 3.8913 3.8913 0 0 1-0.82422 2.3945h4.6484a3.8913 3.8913 0 0 1-0.83008-2.3945 3.8913 3.8913 0 0 1 2.3965-3.5918zm9.2891 0a3.592 3.592 0 0 0-3.5918 3.5918 3.592 3.592 0 0 0 0.91992 2.3945c0.0012 0.0014 0.0027 0.0025 0.0039 0.0039 0.16596 0.18496 0.3499 0.34936 0.54688 0.49414 6e-3 0.0044 0.01151 0.0093 0.01758 0.01367 0.20064 0.14554 0.41557 0.27025 0.64062 0.37109 0.21888 0.09808 0.44844 0.17186 0.68359 0.22461a3.592 3.592 0 0 0 0.04102 0.01172c0.24094 0.05103 0.48788 0.07775 0.73828 0.07813 0.23121-1.3e-5 0.45672-0.02465 0.67578-0.06641a3.592 3.592 0 0 0 0.11523-0.02734c0.19783-0.04459 0.39025-0.10394 0.57422-0.17969a3.592 3.592 0 0 0 0.08008-0.03516c0.18927-0.08344 0.37056-0.17949 0.54102-0.29297a3.592 3.592 0 0 0 0.05469-0.03906c0.17343-0.12022 0.33694-0.25421 0.48633-0.40234a3.592 3.592 0 0 0 0.03125-0.0332c0.15171-0.15429 0.29203-0.32043 0.41406-0.5a3.592 3.592 0 0 0 0.01758-0.0293c0.12331-0.18522 0.23069-0.38062 0.31836-0.58789 0.08428-0.19925 0.14788-0.40929 0.19531-0.625a3.592 3.592 0 0 0 0.01953-0.08203c0.04366-0.2238 0.06835-0.45483 0.06836-0.69141-1.3e-5 -0.23121-0.02465-0.45672-0.06641-0.67578a3.592 3.592 0 0 0-0.02734-0.11523c-0.04459-0.19783-0.10394-0.39025-0.17969-0.57422a3.592 3.592 0 0 0-0.03516-0.08008c-0.08344-0.18927-0.17949-0.37056-0.29297-0.54102a3.592 3.592 0 0 0-0.03906-0.05469c-0.12022-0.17343-0.25421-0.33694-0.40234-0.48633a3.592 3.592 0 0 0-0.0332-0.03125c-0.15429-0.15171-0.32043-0.29203-0.5-0.41406a3.592 3.592 0 0 0-0.0293-0.01758c-0.18522-0.12331-0.38062-0.23069-0.58789-0.31836-0.19925-0.08428-0.40929-0.14788-0.625-0.19531a3.592 3.592 0 0 0-0.08203-0.01953c-0.2238-0.04366-0.45483-0.06835-0.69141-0.06836zm-10.775 0.79102c1.5468 7.5e-5 2.8007 1.254 2.8008 2.8008-7.4e-5 1.5468-1.254 2.8007-2.8008 2.8008-1.5468-7.5e-5 -2.8007-1.254-2.8008-2.8008 7.49e-5 -1.5468 1.254-2.8007 2.8008-2.8008zm10.775 0.08398c0.15303 0 0.30462 0.05852 0.42188 0.17578l2.1172 2.1172c0.23452 0.23452 0.23452 0.61314 0 0.84766l-2.1172 2.1152c-0.23452 0.23452-0.61118 0.23452-0.8457 0l-2.1172-2.1152c-0.23452-0.23452-0.23452-0.61314 0-0.84766l2.1172-2.1172c0.11726-0.11726 0.2708-0.17578 0.42383-0.17578z"/>
        <path d="m8.979 11.985a2.3947 2.3947 0 0 0-0.59766 0.07617v1.7188h-1.7168a2.3947 2.3947 0 0 0-0.080078 0.59961 2.3947 2.3947 0 0 0 0.078125 0.59766h1.7188v1.7188a2.3947 2.3947 0 0 0 0.59766 0.07813 2.3947 2.3947 0 0 0 0.59961-0.07813v-1.7188h1.7168a2.3947 2.3947 0 0 0 0.07813-0.59766 2.3947 2.3947 0 0 0-0.07617-0.59961h-1.7187v-1.7168a2.3947 2.3947 0 0 0-0.59961-0.07813z"/>
        <circle cx="19.756" cy="12.882" r=".59867"/>
        <circle cx="21.253" cy="14.379" r=".59867"/>
        <circle cx="19.756" cy="15.875" r=".59867"/>
        <circle cx="18.259" cy="14.379" r=".59867"/>
    </g>
    <g display="none" fill="none">
        <rect transform="rotate(90)" x="7.8232" y="-20.923" width="13.1" height="13.1" display="inline" stroke="#000" stroke-width=".070382"/>
        <rect x="7.2241" y="8.6528" width="14.298" height="11.441" stroke="#5261ff" stroke-linecap="round" stroke-linejoin="round" stroke-width=".069589"/>
        <rect transform="rotate(90)" x="7.2241" y="-20.094" width="14.298" height="11.441" display="inline" stroke="#0f0" stroke-linecap="round" stroke-linejoin="round" stroke-width=".069589"/>
    </g>
</svg>
