<?xml version="1.0" encoding="UTF-8"?>
<svg version="1.1" viewBox="0 0 28.747 28.747" xmlns="http://www.w3.org/2000/svg" xmlns:osb="http://www.openswatchbook.org/uri/2009/osb" xmlns:xlink="http://www.w3.org/1999/xlink">
    <defs>
        <filter id="filter6206-7" color-interpolation-filters="sRGB">
            <feGaussianBlur stdDeviation="0.658125"/>
        </filter>
    </defs>
    <g transform="translate(0 -1093.8)">
        <path transform="matrix(1.0781 0 0 1.0641 -.093733 2.7509)" d="m4.4177 1028.2v1.6051h-1.6052v18.192h1.6052v2.1402h18.192v-2.1402h2.1402v-18.192h-2.1402v-1.6051z" fill="#3e2723" filter="url(#filter6206-7)" opacity=".2"/>
        <rect x="2.9987" y="1096.8" width="22.749" height="22.749" rx="1.1973" ry="1.1974" fill="#f44336"/>
        <g transform="translate(-22.32 1056.5)">
            <path d="m0 0h51.2v51.2h-51.2z" fill="none" stroke-width="1.0667"/>
            <g transform="matrix(.33601 0 0 .33601 1.5296 73.043)">
                <path d="m0 0h51.2v51.2h-51.2z" fill="none" stroke-width="1.0667"/>
            </g>
            <g transform="matrix(.37187 0 0 .37187 38.802 63.239)">
                <path d="m0 0h51.2v51.2h-51.2z" fill="none" stroke-width="1.0667"/>
                <g transform="matrix(2.6891 0 0 2.6891 -82.906 -48.45)">
                    <path d="m0 0h51.2v51.2h-51.2z" fill="none" stroke-width="1.0667"/>
                </g>
            </g>
        </g>
        <path d="m4.1958 1096.8c-0.66332 0-1.1979 0.5346-1.1979 1.1979v0.3334c0-0.6634 0.53459-1.1979 1.1979-1.1979h20.354c0.66332 0 1.1979 0.5345 1.1979 1.1979v-0.3334c0-0.6633-0.5346-1.1979-1.1979-1.1979z" fill="#fff" opacity=".2"/>
        <rect x="128" y="546.52" width="42.667" height="42.667" fill="none" stroke-width="1.0667"/>
        <rect x="128" y="631.85" width="42.667" height="42.667" fill="none" stroke-width="1.0667"/>
        <rect x="128" y="674.52" width="42.667" height="42.667" fill="none" stroke-width="1.0667"/>
        <rect x="128" y="589.19" width="42.667" height="42.667" fill="none" stroke-width="1.0667"/>
        <rect x="128" y="717.19" width="42.667" height="42.667" fill="none" stroke-width="1.0667"/>
        <rect x="213.33" y="546.52" width="42.667" height="42.667" fill="none" stroke-width="1.0667"/>
        <rect x="213.33" y="631.85" width="42.667" height="42.667" fill="none" stroke-width="1.0667"/>
        <rect x="213.33" y="674.52" width="42.667" height="42.667" fill="none" stroke-width="1.0667"/>
        <rect x="213.33" y="589.19" width="42.667" height="42.667" fill="none" stroke-width="1.0667"/>
        <rect x="213.33" y="717.19" width="42.667" height="42.667" fill="none" stroke-width="1.0667"/>
        <rect x="298.67" y="546.52" width="42.667" height="42.667" fill="none" stroke-width="1.0667"/>
        <rect x="298.67" y="631.85" width="42.667" height="42.667" fill="none" stroke-width="1.0667"/>
        <rect x="298.67" y="674.52" width="42.667" height="42.667" fill="none" stroke-width="1.0667"/>
        <rect x="298.67" y="589.19" width="42.667" height="42.667" fill="none" stroke-width="1.0667"/>
        <rect x="298.67" y="717.19" width="42.667" height="42.667" fill="none" stroke-width="1.0667"/>
        <rect x="170.67" y="546.52" width="42.667" height="42.667" fill="none" stroke-width="1.0667"/>
        <rect x="170.67" y="631.85" width="42.667" height="42.667" fill="none" stroke-width="1.0667"/>
        <rect x="170.67" y="674.52" width="42.667" height="42.667" fill="none" stroke-width="1.0667"/>
        <rect x="170.67" y="589.19" width="42.667" height="42.667" fill="none" stroke-width="1.0667"/>
        <rect x="170.67" y="717.19" width="42.667" height="42.667" fill="none" stroke-width="1.0667"/>
        <rect x="256" y="546.52" width="42.667" height="42.667" fill="none" stroke-width="1.0667"/>
        <rect x="256" y="631.85" width="42.667" height="42.667" fill="none" stroke-width="1.0667"/>
        <rect x="256" y="674.52" width="42.667" height="42.667" fill="none" stroke-width="1.0667"/>
        <rect x="256" y="589.19" width="42.667" height="42.667" fill="none" stroke-width="1.0667"/>
        <rect x="256" y="717.19" width="42.667" height="42.667" fill="none" stroke-width="1.0667"/>
        <rect x="128" y="759.85" width="42.667" height="42.667" fill="none" stroke-width="1.0667"/>
        <rect x="213.33" y="759.85" width="42.667" height="42.667" fill="none" stroke-width="1.0667"/>
        <rect x="298.67" y="759.85" width="42.667" height="42.667" fill="none" stroke-width="1.0667"/>
        <rect x="170.67" y="759.85" width="42.667" height="42.667" fill="none" stroke-width="1.0667"/>
        <rect x="256" y="759.85" width="42.667" height="42.667" fill="none" stroke-width="1.0667"/>
        <rect x="341.33" y="589.19" width="42.667" height="42.667" fill="none" stroke-width="1.0667"/>
        <rect x="341.33" y="631.85" width="42.667" height="42.667" fill="none" stroke-width="1.0667"/>
        <rect x="341.33" y="717.19" width="42.667" height="42.667" fill="none" stroke-width="1.0667"/>
        <rect x="341.33" y="546.52" width="42.667" height="42.667" fill="none" stroke-width="1.0667"/>
        <rect x="341.33" y="674.52" width="42.667" height="42.667" fill="none" stroke-width="1.0667"/>
        <rect x="341.33" y="759.85" width="42.667" height="42.667" fill="none" stroke-width="1.0667"/>
        <rect x="160" y="578.52" width="192" height="192" fill="none" stroke-width="1.0667"/>
        <g transform="matrix(.37344 0 0 .37344 4.7333 1097.4)">
            <path d="m0 0h51.2v51.2h-51.2z" fill="none" stroke-width="1.0667"/>
        </g>
        <g transform="matrix(.36471 0 0 .36471 5.1356 1097.4)">
            <path d="m0 0h51.2v51.2h-51.2z" fill="none" stroke-width="1.0667"/>
        </g>
        <g transform="matrix(.41585 0 0 .41585 84.325 1055.9)">
            <g transform="matrix(.062269 0 0 .062269 -28.238 185.29)">
                <g transform="matrix(38.618 0 0 38.618 14724 -13542)">
                    <g transform="matrix(.71436 0 0 .71436 -400.52 188.34)">
                        <path d="m1293.2-120.67c-181.75 0.2763-511.18 0.13525-699.05 0.13998-2.3216 10.413-3.593 21.251-3.593 32.384v114c207.65 0.73695 494.72 0.38136 706.23 0.3733v-114.37c0-11.18-1.2522-22.07-3.593-32.523zm-458.69 295.56c-78.385-4e-3 -158.85 0.17892-243.95 0.55995v138.63c286.34-0.39317 421.73-0.13827 706.23-0.32664v-137.75c-163.2-0.53005-311.22-1.1113-462.28-1.1199z" opacity="0" stroke-width="1.4932"/>
                    </g>
                </g>
            </g>
        </g>
        <path d="m24.549 1119.5c0.66325 0 1.1979-0.5346 1.1979-1.1979v-0.3333c0 0.6632-0.53461 1.1978-1.1979 1.1978h-20.354c-0.66325 0-1.1979-0.5346-1.1979-1.1978v0.3333c0 0.6633 0.53461 1.1979 1.1979 1.1979z" fill="#3e2723" opacity=".2"/>
    </g>
    <g>
        <flowRoot fill="#000000" font-family="Roboto" font-size="12.8px" letter-spacing="0px" stroke-width="1.0667px" word-spacing="0px" style="line-height:0.01%" xml:space="preserve"><flowRegion><rect x="11.375" y="11.984" width="4.7893" height="5.388" stroke-width="1.1378px"/></flowRegion><flowPara font-size="4px" style="line-height:1.25">your</flowPara></flowRoot>
        <path d="m14.33 21.495c-0.0062-0.0038-0.02609-0.01025-0.04413-0.01429-0.07102-0.01592-0.14004-0.08027-0.17638-0.16446-0.01628-0.03773-0.01705-0.04736-0.01991-0.24971-0.0033-0.23822 0.0032-0.20984-0.07263-0.31539-0.02172-0.03024-0.07159-0.10003-0.11083-0.1551-0.06751-0.09474-0.11885-0.16674-0.28539-0.40027-0.06514-0.09134-0.13593-0.18928-0.21122-0.29219-0.04078-0.05574-0.172-0.2385-0.18476-0.25732-0.0059-0.0087-0.01721-0.02417-0.02517-0.03441-8e-3 -0.01024-0.02341-0.03147-0.03435-0.04717-0.01093-0.0157-0.03411-0.0478-0.05149-0.07135-0.01739-0.02354-0.04306-0.05886-0.05705-0.07848-0.03287-0.04609-0.10962-0.15318-0.14572-0.20334-0.01554-0.02158-0.0468-0.06546-0.06949-0.0975-0.02268-0.03205-0.07495-0.10533-0.11615-0.16286-0.0412-0.05753-0.07973-0.11172-0.08562-0.12043-0.01021-0.0151-0.10208-0.14318-0.15859-0.2211-0.01463-0.02017-0.04126-0.05754-0.05918-0.08305s-0.04671-0.06564-0.06396-0.08918c-0.01726-0.02354-0.04615-0.06368-0.0642-0.08918-0.01805-0.02551-0.03881-0.0544-0.04612-0.06421-0.05123-0.0687-0.12132-0.16569-0.1392-0.19264-0.01172-0.01766-0.02486-0.03532-0.0292-0.03924-0.0043-0.0039-0.0197-0.02479-0.03412-0.04638-0.01442-0.02158-0.0439-0.06332-0.06551-0.09275s-0.04689-0.06475-0.05618-0.07848c-0.0093-0.01373-0.04537-0.06406-0.08018-0.11184-0.0348-0.04778-0.06809-0.09383-0.07398-0.10233-0.0059-0.0085-0.02361-0.03362-0.03939-0.05582s-0.03266-0.04839-0.03752-0.0582c-0.0049-0.0098-0.01481-0.02747-0.02213-0.03924-0.09118-0.14673-0.14243-0.24721-0.2009-0.39386-0.03566-0.08945-0.07176-0.19351-0.08193-0.23618-0.01-0.04196-0.02273-0.09555-0.02829-0.11909-0.0056-0.02354-0.01668-0.0702-0.02472-0.10368-8e-3 -0.03348-0.01457-0.07843-0.01451-0.09989 6.9e-5 -0.02146-0.0054-0.09586-0.01204-0.16535-0.01144-0.1189-0.01144-0.13508-6.9e-5 -0.27469 0.01641-0.20109 0.03785-0.31895 0.08773-0.48226 0.0094-0.03062 0.017-0.05893 0.017-0.06293 0-0.02068 0.1065-0.26927 0.14983-0.34973 0.02747-0.051 0.04994-0.09394 0.04994-0.09542 0-0.01423 0.2102-0.30986 0.23835-0.33523 0.0044-0.0039 0.02927-0.03282 0.05537-0.06421 0.06779-0.08155 0.22318-0.23123 0.33414-0.32184 0.01373-0.01122 0.02657-0.02205 0.02854-0.02408 0.0082-0.0085 0.09214-0.07059 0.12842-0.09504 0.02158-0.01454 0.05851-0.04029 0.08205-0.05722 0.04357-0.03133 0.26625-0.16046 0.32463-0.18824 0.14402-0.06855 0.20242-0.09374 0.31254-0.13486 0.13357-0.04986 0.35405-0.11558 0.45254-0.13487 0.03243-0.0064 0.07761-0.01622 0.10038-0.02192 0.05499-0.01376 0.27119-0.04556 0.31175-0.04586 0.04572-3.36e-4 0.0873-0.01133 0.09795-0.02589 0.0073-0.01 0.0088-0.13536 0.0073-0.62289l-0.0018-0.61038-0.018-0.0021c-0.01098-0.0013-0.04854 0.01343-0.09632 0.03773-0.12309 0.06261-0.25371 0.10065-0.40749 0.11868-0.11441 0.01341-0.13804 0.0141-0.2309 0.0067-0.28238-0.02245-0.542-0.1364-0.74558-0.32725-0.07734-0.0725-0.08979-0.08658-0.1534-0.17351-0.01766-0.02413-0.03571-0.04763-0.04013-0.05223-0.0044-0.0046-0.01842-0.02905-0.03113-0.05435s-0.03256-0.06365-0.04412-0.08524c-0.02541-0.04744-0.03963-0.08389-0.05232-0.13416-0.0053-0.02081-0.01273-0.04168-0.01661-0.04638-0.0039-0.0047-0.0092-0.02137-0.01182-0.03707-0.0026-0.0157-0.0092-0.0404-0.01469-0.0549-0.0055-0.0145-0.01337-0.07711-0.01759-0.13913-0.0042-0.06202-0.0094-0.11856-0.01153-0.12566-0.0058-0.01953-0.03261-0.02633-0.10475-0.02657-0.16294-5.57e-4 -0.33763-0.03796-0.48998-0.10493-0.0914-0.04018-0.24292-0.13426-0.29616-0.18388-0.09891-0.0922-0.12317-0.11797-0.17298-0.18367-0.04912-0.0648-0.06764-0.09151-0.10012-0.14444-0.0048-0.0078-0.01196-0.0223-0.01587-0.03211-0.0039-0.0098-0.01012-0.02265-0.0138-0.02854-0.0278-0.04451-0.05974-0.12218-0.07502-0.18242-5e-3 -0.01989-0.01262-0.04261-0.01684-0.05049-0.0042-0.0079-0.0098-0.03174-0.01237-0.05302-0.0026-0.02128-0.0098-0.05795-0.01597-0.0815-0.01525-0.05791-0.01448-0.31233 0.0011-0.36868 0.0058-0.020897 0.01262-0.057259 0.0152-0.080803 0.0026-0.023544 0.0088-0.049229 0.01374-0.057078 5e-3 -0.00785 0.01138-0.027112 0.01422-0.042808 0.0028-0.015697 0.0099-0.035919 0.01574-0.044941 0.01318-0.020461 0.01029-0.072577-0.0045-0.080978-0.0059-0.00335-0.01873-0.00928-0.02854-0.013195-0.0098-0.00391-0.02265-0.010334-0.02854-0.01427-0.0059-0.00394-0.01873-0.010588-0.02854-0.014782-0.04888-0.020897-0.12909-0.074036-0.21069-0.13959-0.15615-0.1254-0.27851-0.28901-0.35568-0.47553-0.036665-0.088628-0.067735-0.20408-0.075782-0.2816-4e-3 -0.038223-0.01047-0.095182-0.01445-0.12658-0.0058-0.045544-0.0045-0.08303 0.0063-0.1855 0.01773-0.16763 0.05727-0.30539 0.12355-0.4304 0.02429-0.045815 0.04759-0.089767 0.05177-0.097671 0.03251-0.061408 0.14907-0.19827 0.22601-0.26537 0.07352-0.064123 0.14811-0.12203 0.15828-0.12289 0.0073-6.138e-4 0.11929-0.064209 0.13344-0.075767 0.0059-0.00481 0.02189-0.011122 0.03557-0.014036 0.01368-0.00291 0.03134-0.00933 0.03924-0.014263 0.0079-0.00493 0.02722-0.011169 0.04291-0.013861 0.0157-0.00269 0.03496-0.00899 0.04281-0.013994 0.0078-5e-3 0.027-0.011463 0.04256-0.014354 0.01556-0.00289 0.03707-0.0098 0.04781-0.015345 0.02599-0.013437 0.15826-0.013427 0.21183 0 0.02215 0.00556 0.06114 0.01226 0.08665 0.014892 0.02551 0.00263 0.06243 0.00911 0.08205 0.014388 0.01962 0.00528 0.05333 0.011791 0.07491 0.014467 0.02158 0.00268 0.04566 0.00831 0.05351 0.012523 0.0078 0.00421 0.03353 0.011672 0.05708 0.016581 0.04917 0.010252 0.10457 0.027554 0.13556 0.042338 0.01177 0.00562 0.03264 0.012344 0.04637 0.014951 0.01373 0.00261 0.03139 0.00872 0.03924 0.013594 0.0078 0.00487 0.02551 0.011134 0.03924 0.013918 0.01373 0.00278 0.02979 0.00916 0.03567 0.014175 0.0059 0.00501 0.02091 0.011283 0.0334 0.013934 0.01248 0.00265 0.02652 0.00943 0.0312 0.015063 0.0047 0.00563 0.01312 0.010243 0.01877 0.010243 0.01609 0 0.07898 0.029394 0.19667 0.091916 0.137 0.072777 0.16689 0.089547 0.19748 0.11079 0.01794 0.012456 0.06792 0.044984 0.11106 0.072286 0.04315 0.027303 0.10896 0.073833 0.14626 0.1034 0.0373 0.029568 0.09562 0.075148 0.1296 0.10129 0.03398 0.02614 0.08686 0.070976 0.1175 0.099635 0.07477 0.069933 0.26452 0.25916 0.29538 0.29457 0.04509 0.051744 0.12965 0.14953 0.1523 0.17611 0.02221 0.026066 0.02894 0.034916 0.06011 0.079032 9e-3 0.012773 0.04715 0.064591 0.08473 0.11515 0.06332 0.085196 0.13947 0.19629 0.16757 0.24447 0.05126 0.087884 0.12658 0.21205 0.14816 0.24422 0.02247 0.033497 0.25022 0.48604 0.25022 0.49718 0 0.00467 0.0048 0.012491 0.0107 0.017376 0.0059 0.00488 0.0107 0.014231 0.0107 0.020769 0 0.00654 0.0064 0.024482 0.01427 0.039876 0.0078 0.015394 0.0143 0.031322 0.01433 0.035398 0 0.00408 8e-3 0.023463 0.01762 0.043083 0.0096 0.01962 0.01765 0.039008 0.01777 0.043083 1.15e-4 0.00408 0.0066 0.020004 0.01449 0.035398 0.0078 0.015394 0.01427 0.031447 0.01427 0.035674 0 0.00423 0.0064 0.02028 0.01427 0.035673 0.0078 0.01539 0.01427 0.03334 0.01427 0.03988 0 0.0065 0.0048 0.01588 0.0107 0.02077 0.0059 0.0049 0.0107 0.0139 0.0107 0.02003 0 0.0061 0.0061 0.0242 0.01356 0.04015 0.0075 0.01595 0.01734 0.04105 0.02196 0.05576 0.0071 0.02268 0.01149 0.02675 0.02869 0.02675 0.01721 0 0.02158-0.0041 0.02869-0.02675 0.0046-0.01471 0.0145-0.03981 0.02196-0.05576 0.0075-0.01595 0.01356-0.03377 0.01356-0.0396 0-0.0058 0.0029-0.01364 0.0065-0.01737 0.0036-0.0037 0.01831-0.03728 0.03272-0.074557 0.0144-0.037279 0.02913-0.07083 0.03272-0.074558 0.0036-0.00373 0.0065-0.011879 0.0065-0.018112 0-0.00623 0.0064-0.023928 0.01427-0.039322 0.0078-0.015394 0.01427-0.031447 0.01427-0.035674 0-0.00423 0.0064-0.02028 0.01427-0.035673 0.0078-0.015394 0.01427-0.031334 0.01427-0.035423 0-0.00993 0.26074-0.5304 0.27312-0.54518 0.0081-0.00963 0.0312-0.047504 0.07998-0.13092 0.09197-0.15728 0.13586-0.22287 0.30816-0.46045 0.06386-0.088053 0.11165-0.14484 0.26187-0.31116 0.07197-0.079689 0.20633-0.2105 0.31474-0.30644 0.06141-0.054347 0.26248-0.2063 0.33269-0.25142 0.04069-0.026154 0.09486-0.061345 0.12037-0.078203 0.06388-0.042223 0.09287-0.058253 0.26856-0.14852 0.0241-0.012382 0.05621-0.027857 0.07135-0.034389 0.04675-0.020168 0.09395-0.041015 0.12563-0.055486 0.01668-0.00762 0.03996-0.016152 0.05173-0.018965 0.01177-0.00281 0.02782-0.00911 0.03567-0.013988 0.0078-0.00488 0.02551-0.011109 0.03924-0.013841 0.01374-0.00273 0.03173-0.00924 0.03998-0.014451 0.0083-0.00522 0.02752-0.011751 0.04281-0.014523 0.01529-0.00277 0.03587-0.00912 0.04573-0.014098 0.0099-0.00498 0.03394-0.01139 0.05351-0.014242 0.01957-0.00285 0.04361-0.00921 0.05342-0.014123 0.0098-0.00492 0.0355-0.011136 0.05708-0.01382 0.02158-0.00268 0.05529-0.0092 0.07491-0.014483 0.01962-0.00528 0.05654-0.011754 0.08205-0.014387 0.02551-0.00263 0.0645-0.00933 0.08665-0.014893 0.05357-0.013443 0.18584-0.013453 0.21183 0 0.01073 0.00555 0.03224 0.012456 0.04781 0.015346 0.01556 0.00289 0.03471 0.00927 0.04256 0.014181 0.0078 0.00491 0.02551 0.011085 0.03924 0.013726 0.03973 0.00764 0.09822 0.032783 0.17036 0.073236 0.0368 0.020636 0.06873 0.03752 0.07096 0.03752 0.01001 0 0.12002 0.081625 0.14038 0.10416 0.0039 0.00434 0.028 0.024941 0.05351 0.04577 0.02552 0.020837 0.08007 0.080327 0.12129 0.13226 0.14726 0.18553 0.23697 0.40601 0.25824 0.63462 0.01177 0.12658 0.01142 0.15519-0.0034 0.28182-0.03106 0.26462-0.14067 0.49935-0.32254 0.69068-0.08667 0.091183-0.24344 0.20874-0.32467 0.24347-0.0098 0.0042-0.02266 0.010846-0.02854 0.014782-0.0059 0.00394-0.01873 0.010356-0.02854 0.01427-0.0098 0.00391-0.02266 0.00985-0.02854 0.013195-0.01489 0.00846-0.01784 0.062325-0.0045 0.08265 0.0058 0.00892 0.01294 0.02872 0.01578 0.044009 0.0028 0.015289 0.0092 0.034219 0.01421 0.042067 5e-3 0.00785 0.01116 0.033533 0.01374 0.057078 0.0026 0.023545 0.0094 0.059906 0.0152 0.080803 0.01559 0.056354 0.01636 0.31077 0.0011 0.36868-0.0062 0.02355-0.01338 0.06022-0.01597 0.0815-0.0026 0.02128-0.0082 0.04514-0.01237 0.05302-0.0042 0.0079-0.0118 0.0306-0.01684 0.05049-0.01527 0.06024-0.04721 0.13791-0.07502 0.18242-0.0037 0.0059-0.0099 0.01873-0.0138 0.02854-0.0039 0.0098-0.01105 0.02426-0.01587 0.03211-0.03248 0.05292-0.051 0.07964-0.10012 0.14444-0.04981 0.06571-0.07407 0.09147-0.17298 0.18367-0.05323 0.04962-0.20476 0.14371-0.29616 0.18389-0.15235 0.06697-0.32703 0.10438-0.48998 0.10493-0.07545 2.57e-4 -0.10022 0.0074-0.10548 0.03029-2e-3 9e-3 -7e-3 0.06447-0.01093 0.12333-0.0039 0.05886-0.01183 0.12147-0.01751 0.13913-0.02714 0.0843-0.03383 0.106-0.04289 0.13913-0.0145 0.05301-0.03221 0.09851-0.04304 0.11059-0.0053 0.0059-0.01181 0.01956-0.01451 0.03039s-0.0074 0.02124-0.01048 0.02313c-3e-3 0.0019-0.01595 0.02497-0.02864 0.05128s-0.02668 0.05159-0.0311 0.05619c-0.0044 0.0046-0.02247 0.02809-0.04013 0.05223-0.06361 0.08693-0.07606 0.10101-0.1534 0.17351-0.20358 0.19085-0.46319 0.3048-0.74558 0.32725-0.21123 0.01679-0.45168-0.03044-0.63839-0.1254-0.04778-0.0243-0.08534-0.03902-0.09632-0.03773l-0.018 0.0021-0.0018 0.61518-0.0018 0.61518 0.01692 0.01109c0.01042 0.0068 0.04676 0.01371 0.09457 0.01791 0.09173 0.0081 0.25244 0.03204 0.30884 0.04609 0.02197 0.0055 0.06647 0.01515 0.0989 0.0215 0.09849 0.01929 0.31898 0.08501 0.45255 0.13487 0.11013 0.04111 0.16852 0.06631 0.31254 0.13486 0.05214 0.02482 0.2791 0.15548 0.31393 0.18073 0.01766 0.01281 0.05458 0.03854 0.08205 0.05719 0.15654 0.10628 0.3916 0.31643 0.50168 0.4485 0.02617 0.03139 0.05113 0.06029 0.05549 0.06421 0.02816 0.02537 0.23835 0.321 0.23835 0.33523 0 0.0015 0.02248 0.04442 0.04994 0.09542 0.04333 0.08046 0.14983 0.32905 0.14983 0.34973 0 4e-3 0.0077 0.03231 0.017 0.06293 0.04988 0.16331 0.07132 0.28116 0.08773 0.48226 0.01139 0.1396 0.01139 0.15578-6.9e-5 0.27468-0.0067 0.06949-0.0121 0.1439-0.01204 0.16535 6.9e-5 0.02146-0.0065 0.0664-0.01453 0.09989-8e-3 0.03348-0.02073 0.08656-0.02817 0.11795-0.0074 0.03139-0.02041 0.08559-0.02881 0.12043-0.0084 0.03485-0.04366 0.13458-0.07837 0.22164-0.05749 0.14422-0.11495 0.25687-0.20032 0.3928-0.0074 0.01177-0.01743 0.02943-0.02229 0.03924-0.0048 0.0098-0.02507 0.04031-0.0449 0.06778s-0.04153 0.05797-0.04823 0.06778c-0.0067 0.0098-0.02984 0.04192-0.05143 0.07135s-0.05106 0.07117-0.06548 0.09275-0.02977 0.04245-0.03411 0.04638c-0.0043 0.0039-0.01986 0.02479-0.0345 0.04637s-0.04104 0.0585-0.05868 0.08205c-0.01764 0.02354-0.03423 0.04738-0.03688 0.05297-0.0026 0.0056-0.0093 0.01522-0.01472 0.02141-0.01062 0.01205-0.04143 0.05321-0.05896 0.07874-0.0092 0.01335-0.07978 0.11191-0.18325 0.25574-0.01497 0.02082-0.04007 0.05523-0.05576 0.07647-0.0157 0.02125-0.0372 0.05077-0.04778 0.0656-0.01058 0.01484-0.05393 0.07517-0.09632 0.13408-0.04239 0.0589-0.08931 0.12472-0.10426 0.14626-0.01495 0.02154-0.04129 0.05843-0.05855 0.08197-0.01725 0.02354-0.04923 0.06849-0.07108 0.09989-0.02185 0.03139-0.05262 0.07474-0.06839 0.09632s-0.03408 0.04727-0.04069 0.05708c-0.0066 0.0098-0.01382 0.01944-0.01601 0.02141-0.0022 0.0019-0.01592 0.02123-0.03052 0.04281s-0.04105 0.05851-0.05878 0.08205-0.03414 0.04843-0.03647 0.05529c-0.0023 0.0069-0.0065 0.01249-0.0093 0.01249s-0.01545 0.01597-0.0281 0.0355c-0.01265 0.01952-0.0484 0.07009-0.07945 0.11237-0.03105 0.04228-0.0686 0.09381-0.08344 0.11451s-0.03983 0.05522-0.05552 0.07672c-0.0157 0.0215-0.04138 0.05682-0.05708 0.0785s-0.04138 0.05691-0.05708 0.07829c-0.03955 0.05387-0.07513 0.10325-0.12852 0.17835-0.02511 0.03532-0.05729 0.08026-0.07151 0.09989-0.01422 0.01962-0.04633 0.06457-0.07135 0.09989s-0.05712 0.08027-0.07135 0.09989c-0.01422 0.01962-0.04633 0.06457-0.07135 0.09989s-0.05708 0.08027-0.07125 0.09989-0.04613 0.06457-0.07103 0.09989-0.0519 0.07265-0.06 0.08297-0.03246 0.04511-0.05414 0.07731l-0.03941 0.05855-2.3e-4 0.17241c-2.41e-4 0.19292-0.0063 0.25744-0.02834 0.3044-0.02709 0.05759-0.04917 0.08262-0.1111 0.12593-0.042 0.02937-0.16368 0.05417-0.18917 0.03855zm0.04643-1.2604c0.0062-0.0024 0.01129-0.0095 0.01129-0.0158s0.0063-0.018 0.01394-0.02599c0.03348-0.0349 0.04204-0.04621 0.04689-0.06198 0.0028-0.0092 0.01118-0.0225 0.01854-0.02952 0.0074-7e-3 0.01338-0.01585 0.01338-0.01962 0-0.0037 4e-3 -0.0069 0.0089-0.0069s0.0183-0.01927 0.02978-0.04281c0.01148-0.02353 0.02512-0.04279 0.03032-0.04279s0.0095-0.0046 0.0095-0.0103 0.0062-0.01464 0.01377-0.01994c0.0076-0.0053 0.01601-0.01859 0.01875-0.02952 0.0027-0.01093 0.0094-0.02156 0.01477-0.02363 0.0054-2e-3 0.0098-8e-3 0.0098-0.01329 0-0.0052 0.0057-0.01373 0.01278-0.01886 7e-3 -0.0051 0.02153-0.02443 0.03222-0.0429s0.02936-0.04416 0.04147-0.05708c0.01212-0.01292 0.02633-0.0334 0.03159-0.0455 0.0053-0.01211 0.01937-0.03251 0.03136-0.04534 0.01199-0.01284 0.0218-0.02496 0.0218-0.02693 0-2e-3 0.02087-0.03202 0.04638-0.06677s0.04637-0.06639 0.04637-0.07032c0-0.0039 0.0064-0.01057 0.01427-0.01477 0.0078-0.0042 0.01427-0.01163 0.01427-0.0165 0-0.0049 0.0064-0.01436 0.01427-0.02108 0.0078-0.0067 0.01428-0.01626 0.0143-0.02121 0-0.0049 0.01203-0.02183 0.02669-0.03753 0.02694-0.02885 0.03665-0.04253 0.05315-0.07491 5e-3 -0.0098 0.01476-0.02203 0.02168-0.02716 0.0069-0.0051 0.0126-0.01358 0.0126-0.01879 0-0.0052 0.0064-0.01114 0.01427-0.0132 0.0086-0.0022 0.01427-0.0097 0.01427-0.01874 0-0.0083 0.0064-0.02051 0.01427-0.02722 0.0078-0.0067 0.01427-0.01621 0.01427-0.02109 0-0.0049 0.0064-0.0123 0.01427-0.0165 0.0078-0.0042 0.01427-0.01234 0.01427-0.01809 0-0.0057 0.0034-0.01045 0.0075-0.01045s0.01203-0.01085 0.01757-0.02411c0.0055-0.01326 0.01501-0.026 0.02104-0.02831 6e-3 -0.0023 0.01097-9e-3 0.01097-0.01488 0-0.0059 0.0064-0.01412 0.01427-0.01831 0.0078-0.0042 0.01427-0.01185 0.01427-0.017 0-0.0051 0.0064-0.01676 0.01427-0.02581 0.0078-9e-3 0.01427-0.02056 0.01427-0.02558 0-5e-3 0.0064-0.01117 0.01427-0.01366 0.0078-0.0025 0.01427-9e-3 0.01427-0.0145s0.0064-0.0134 0.01427-0.01761c0.0083-0.0044 0.01427-0.01494 0.01427-0.02497s6e-3 -0.02055 0.01427-0.02497c0.0078-0.0042 0.01427-0.01223 0.01427-0.01784 0-0.0056 0.0064-0.01364 0.01427-0.01784 0.0078-0.0042 0.01427-0.01244 0.01427-0.01831 0-0.0059 0.0046-0.01245 0.01027-0.01461 0.0056-0.0021 0.01229-0.01316 0.01476-0.02442 0.0025-0.0113 0.01067-0.02244 0.01827-0.02486 0.0076-0.0024 0.01377-0.0089 0.01377-0.01434 0-0.0055 0.0064-0.01341 0.01427-0.0176 0.0078-0.0042 0.01427-0.01398 0.01427-0.02173 0-0.0077 0.0064-0.01959 0.01427-0.02631 0.0078-0.0067 0.01427-0.01621 0.01427-0.02108 0-0.0049 0.0064-0.0123 0.01427-0.0165 0.0078-0.0042 0.01427-0.01244 0.01427-0.01831 0-0.0059 0.0048-0.01252 0.0107-0.01478 0.0059-0.0022 0.0107-0.0087 0.0107-0.01437 0-0.0056 8e-3 -0.01829 0.01783-0.0281 0.0098-0.0098 0.01783-0.021 0.01783-0.02487 0-0.0038 0.0046-0.0088 0.01036-0.01101 0.0057-0.0022 0.01388-0.01464 0.01818-0.02768s0.01249-0.0255 0.01818-0.02769c0.0057-0.0022 0.01036-0.0088 0.01036-0.01465 0-0.0059 0.0064-0.01411 0.01427-0.01831 0.0078-0.0042 0.01427-0.01244 0.01427-0.01831 0-0.0059 0.0048-0.01252 0.0107-0.01478 0.0059-0.0022 0.0107-0.0083 0.0107-0.0135s8e-3 -0.01893 0.01783-0.03059c0.0098-0.01166 0.01783-0.02475 0.01783-0.02909 0-0.0043 3e-3 -0.0079 0.0067-0.0079s0.01093-0.0074 0.01605-0.01651c0.02111-0.03744 0.04315-0.06911 0.04811-0.06911 0.0029 0 9e-3 -0.0081 0.01354-0.0181 0.0045-0.01 0.01142-0.022 0.01531-0.02676 0.03115-0.03818 0.04295-0.05419 0.04295-0.05832 0-7e-3 0.03766-0.05641 0.04812-0.06306 0.0049-0.0031 9e-3 -0.0096 9e-3 -0.01447 0-0.0048 0.0064-0.01426 0.01427-0.02098 0.0078-0.0067 0.01427-0.01626 0.01427-0.02121 0-0.0049 0.01271-0.0229 0.02824-0.03989s0.0302-0.03706 0.03259-0.04459c0.0024-0.0075 0.0071-0.01369 0.01052-0.01369 0.0034 0 0.0084-7e-3 0.0111-0.01553 0.0027-0.0085 0.01606-0.02698 0.02965-0.04099 0.0136-0.014 0.02883-0.03511 0.03385-0.0469 5e-3 -0.01179 0.01835-0.03107 0.02964-0.04284 0.0204-0.02129 0.02981-0.0347 0.04677-0.0667 0.0049-0.0092 0.02107-0.03008 0.03596-0.04637s0.02707-0.03314 0.02707-0.03745c0-0.0043 0.0056-0.01444 0.01249-0.02251 0.0069-0.0081 0.02051-0.02461 0.03032-0.03675 0.0098-0.01214 0.02345-0.02899 0.03032-0.03744 0.0069-0.0085 0.01249-0.0189 0.01249-0.02321 0-0.0043 0.01271-0.02173 0.02824-0.03873 0.01553-0.01699 0.0302-0.03706 0.03259-0.04459 0.0024-0.0075 0.0071-0.01369 0.01052-0.01369 0.0034 0 0.0081-0.0061 0.01045-0.01347 0.0023-0.0074 0.01229-0.02266 0.02209-0.03389 0.02788-0.03196 0.03473-0.04047 0.04238-0.0527 0.03195-0.05107 0.04149-0.06404 0.04708-0.06404 0.0035 0 0.0064-3e-3 0.0064-0.0068 0-0.0076 0.03335-0.05853 0.04213-0.06437 0.0058-0.0038 0.02076-0.03 0.03925-0.0685 0.0058-0.01209 0.01555-0.02612 0.02166-0.0312 0.0061-0.0051 0.01111-0.01525 0.01111-0.02262 0-0.0074 0.0044-0.01339 0.0099-0.01339 0.0057 0 0.01191-0.01067 0.01459-0.02497 0.0026-0.01416 0.0089-0.02497 0.0145-0.02497 0.0054 0 0.0121-0.01043 0.0149-0.02319 0.0028-0.01275 0.01108-0.02738 0.01841-0.03251 0.0085-0.0059 0.01331-0.01798 0.01331-0.03313 0-0.01346 0.0042-0.02542 0.0097-0.02752 0.0053-2e-3 0.01139-0.01648 0.01348-0.03208 0.0021-0.0156 0.01088-0.03544 0.01952-0.04409 0.0099-0.0099 0.01432-0.02102 0.01198-0.03001-0.0049-0.0187 0.0014-0.03433 0.01388-0.03433 0.0073 0 0.0099-0.01047 0.0099-0.03931 0-0.03048 0.0032-0.04205 0.01427-0.05153 0.01146-0.0098 0.01427-0.02105 0.01427-0.05701 0-0.03433 0.0031-0.04792 0.01342-0.05821 0.01148-0.01148 0.01382-0.02731 0.01623-0.10971 0.0018-0.06121 6e-3 -0.1001 0.01149-0.10674 0.0048-0.0057 0.0066-0.01257 4e-3 -0.01515-0.0026-0.0026-9.49e-4 -0.0047 0.0036-0.0047 6e-3 0 0.0083-0.02944 0.0083-0.10368 0-0.08555-0.0025-0.11125-0.01458-0.14697-0.0098-0.02919-0.01462-0.06204-0.01471-0.10088-9.1e-5 -0.04472-3e-3 -0.06127-0.01309-0.07408-0.0097-0.01239-0.01208-0.02439-0.0094-0.0483 0.0044-0.0389-0.0022-0.06834-0.01538-0.06834-0.01156 0-0.01846-0.01535-0.01846-0.04104 0-0.01016-0.0053-0.02434-0.0118-0.03152-0.0084-0.0093-0.01143-0.02442-0.0105-0.0529 0.0011-0.03463-5.99e-4 -0.04035-0.01317-0.04365-0.01097-0.0028-0.01447-0.0097-0.01447-0.02815 0-0.01669-0.0039-0.02581-0.01249-0.02897-0.01692-0.0062-0.02295-0.01638-0.02308-0.03877-6.9e-5 -0.01037-0.0049-0.02071-0.01081-0.02296-0.0062-0.0024-0.0107-0.01309-0.0107-0.02568 0-0.01384-0.0051-0.02476-0.01427-0.03048-0.0088-0.0055-0.01427-0.01664-0.01427-0.02927 0-0.01435-0.0042-0.02146-0.01427-0.02409-0.0079-0.0021-0.01427-0.0097-0.01427-0.01724 0-0.0074-0.0064-0.019-0.01427-0.02573-0.0078-0.0067-0.01427-0.01931-0.01427-0.02799 0-0.0095-0.0057-0.01757-0.01427-0.0203-0.0078-0.0025-0.01427-0.0079-0.01427-0.01194 0-0.0069-0.02021-0.03525-0.04611-0.06476-6e-3 -0.0069-0.01118-0.01489-0.01144-0.01783-2.65e-4 -0.0029-0.01149-0.0198-0.02494-0.03746-0.01346-0.01766-0.02761-0.03933-0.03145-0.04816-0.0038-0.0088-0.01061-0.01605-0.01503-0.01605-0.0082 0-0.07632-0.06785-0.135-0.13438-0.01766-0.02002-0.03487-0.03651-0.03824-0.03663-0.0077-2.86e-4 -0.02819-0.01833-0.09935-0.08763-0.03123-0.03041-0.06105-0.05529-0.06626-0.05529-0.0052 0-0.01205-4e-3 -0.01519-0.0089-0.0077-0.01209-0.06151-0.04814-0.07184-0.04814-0.0045 0-0.01172-0.0064-0.01592-0.01427-0.0042-0.0078-0.01234-0.01427-0.01809-0.01427-0.0057 0-0.01045-0.0034-0.01045-0.0075s-0.01085-0.01203-0.02411-0.01757c-0.01326-0.0055-0.026-0.01501-0.02831-0.02104-0.0023-6e-3 -0.01034-0.01097-0.01783-0.01097-0.0075 0-0.01789-0.0051-0.02312-0.01145-0.0052-0.0063-0.01686-0.01424-0.02585-0.01766-9e-3 -0.0034-0.01635-0.01052-0.01635-0.01577 0-0.0053-0.01043-0.01513-0.02319-0.02194-0.01275-0.0068-0.03603-0.01996-0.05173-0.02923-0.03194-0.01886-0.09062-0.04901-0.11772-0.06047-0.0098-0.0041-0.02266-0.01057-0.02854-0.01426-0.02025-0.01271-0.09188-0.04326-0.10142-0.04326-0.0053 0-0.01589-0.0044-0.02363-0.0098-0.0077-0.0054-0.02531-0.01218-0.03905-0.01509-0.01374-0.0029-0.02853-0.0082-0.03287-0.01164-0.0095-0.0077-0.0785-0.03221-0.12766-0.04546-0.01962-0.0053-0.0453-0.01296-0.05708-0.01704-0.06419-0.02226-0.09797-0.03152-0.14626-0.04011-0.02943-0.0052-0.06175-0.01269-0.07181-0.01656-0.01006-0.0039-0.03735-0.0094-0.06064-0.01226-0.02329-0.0028-0.05037-0.0083-0.06018-0.01202-0.0098-0.0037-0.06278-0.01138-0.11772-0.01697-0.05494-0.0056-0.11754-0.01309-0.13913-0.01668-0.05336-0.0089-0.36731-0.0091-0.44235-3.79e-4 -0.03335 0.0039-0.10559 0.01033-0.16053 0.01429-0.05494 0.0039-0.11433 0.01174-0.13199 0.01727-0.01766 0.0055-0.05137 0.0121-0.07491 0.01458-0.02354 0.0025-0.05886 0.0089-0.07848 0.01429-0.01962 0.0054-0.05494 0.01197-0.07848 0.01464-0.02354 0.0026-0.04923 0.0089-0.05708 0.01373-0.0078 0.0049-0.02663 0.01117-0.04174 0.01397s-0.03758 0.0095-0.04994 0.01482c-0.02993 0.01294-0.08513 0.0307-0.13191 0.04244-0.02095 0.0053-0.04166 0.01313-0.04602 0.01749-0.0043 0.0043-0.01429 0.0079-0.02208 0.0079-0.0078 0-0.02721 0.0063-0.04317 0.0139-0.01595 0.0076-0.03703 0.01727-0.04684 0.02139-0.0098 0.0041-0.02265 0.0102-0.02854 0.01352-0.01414 8e-3 -0.07028 0.03441-0.09275 0.04369-0.0098 4e-3 -0.02266 0.01022-0.02854 0.01372-0.01897 0.01127-0.08922 0.04362-0.09471 0.04362-0.0029 0-0.02131 0.01124-0.04085 0.02497s-0.03729 0.02497-0.03946 0.02497c-0.0021 0-0.01263 0.0059-0.02326 0.01322-0.01063 0.0073-0.0418 0.02767-0.06927 0.04533-0.11343 0.07292-0.15112 0.09897-0.17553 0.12129-0.01413 0.01293-0.061 0.05324-0.10414 0.08959-0.0895 0.07541-0.11356 0.0999-0.21922 0.22322-0.06438 0.07513-0.1682 0.21787-0.1682 0.23124 0 0.0022-0.01073 0.01925-0.02383 0.0379-0.03685 0.05243-0.05125 0.08635-0.041 0.09657 0.0065 0.0065 0.14069 0.0079 0.56287 0.0061l0.55433-0.0024 0.05708 0.01896c0.03139 0.01043 0.05964 0.02355 0.06278 0.02916 0.0031 0.0056 0.0098 0.01019 0.01474 0.01019 0.0097 0 0.07587 0.06314 0.07587 0.07238 0 3e-3 0.0062 0.01136 0.01387 0.01846 0.0076 0.0071 0.01702 0.02696 0.02088 0.04413 0.0038 0.01716 0.01082 0.03356 0.01547 0.03643 0.02081 0.01286 0.02015 0.13116-8.49e-4 0.15287-0.0036 0.0037-0.0066 0.01552-0.0066 0.02621s-8e-3 0.02897-0.01783 0.04062c-0.0098 0.01166-0.01783 0.0246-0.01783 0.02876 0 0.0093-0.03382 0.04389-0.04288 0.04389-0.0036 0-0.01 0.0064-0.01419 0.01427-0.0042 0.0078-0.01103 0.01427-0.01518 0.01427-0.0041 0-0.0157 0.0064-0.02568 0.01427-0.01 0.0078-0.02498 0.01427-0.03334 0.01427-0.0084 0-0.02717 0.0064-0.04182 0.01427-0.02579 0.01383-0.04026 0.01427-0.46319 0.01427h-0.43657l-0.01708-0.01605c-0.01689-0.01587-0.01935-0.01605-0.22086-0.01605h-0.20379l-0.01364 0.01825c-0.01162 0.01555-0.01423 0.0351-0.01763 0.13199-0.0023 0.06493-7.14e-4 0.13977 0.0036 0.17438 0.01682 0.13356 0.02961 0.21496 0.03562 0.22668 0.0035 0.0068 0.0085 0.02658 0.01117 0.04399 0.0027 0.01741 0.0092 0.04149 0.01456 0.05351 0.0053 0.01202 0.01169 0.03299 0.01411 0.0466 0.0043 0.02438 0.03659 0.11118 0.04649 0.12508 0.0028 0.0039 0.0088 0.02026 0.0134 0.0363 0.01539 0.05394 0.01321 0.05339 0.20536 0.05124 0.16914-0.0019 0.17058-2e-3 0.17757-0.01797l7e-3 -0.01605h0.53373c0.43999 0 0.5415 0.0018 0.578 0.0103 0.02435 0.0057 0.05251 0.012 0.06258 0.01408 0.01007 0.0021 0.02581 0.01028 0.03498 0.01824 0.0092 8e-3 0.01939 0.01446 0.02272 0.01446 0.0058 0 0.02056 0.01216 0.0542 0.04478 0.0088 0.0086 0.01605 0.01953 0.01605 0.02438 0 0.0048 0.0061 0.01206 0.01345 0.01601 0.0074 0.0039 0.01568 0.01608 0.0184 0.02694 0.0027 0.01086 0.0087 0.02205 0.01331 0.02489 0.0056 0.0034 0.0091 0.03917 0.01063 0.10721 0.0021 0.09477 0.0012 0.10328-0.01249 0.11909-0.0081 0.0094-0.01477 0.02247-0.01477 0.02912 0 0.0066-0.0064 0.01949-0.01427 0.02854-0.0078 0.0091-0.01427 0.02081-0.01427 0.02613 0 0.0053-0.0064 0.01518-0.01427 0.0219-0.0078 0.0067-0.01427 0.01632-0.01427 0.02134 0 5e-3 -3e-3 0.0091-0.0066 0.0091s-0.01087 4e-3 -0.01605 0.0089c-0.0198 0.01872-0.06775 0.04816-0.07847 0.04816-0.0062 0-0.0259 0.0065-0.04387 0.01445-0.03166 0.014-0.04432 0.01439-0.40684 0.01249-0.36271-0.0019-0.37465-0.0024-0.3899-0.01624-0.01417-0.01284-0.02869-0.01463-0.14522-0.0179-0.07121-2e-3 -0.1367-0.0013-0.14553 0.0016-0.02266 0.0074-0.02012 0.02689 0.0088 0.06724 0.01364 0.01907 0.03948 0.05554 0.0574 0.08104 0.01792 0.02551 0.05007 0.07046 0.07143 0.09989s0.05347 0.07438 0.07135 0.09989 0.05003 0.07045 0.07144 0.09989c0.02141 0.02943 0.05336 0.07438 0.071 0.09989s0.04976 0.07045 0.07139 0.09989c0.02163 0.02943 0.0448 0.06154 0.0515 0.07135 0.01911 0.028 0.12502 0.174 0.13198 0.18193 4e-3 0.0045 0.18489 0.0086 0.49998 0.01116 0.46895 0.0038 0.49554 0.0047 0.52989 0.01809 0.01989 0.0077 0.04463 0.02037 0.05499 0.02808 0.01035 0.0077 0.03001 0.02205 0.0437 0.03185 0.01368 0.0098 0.02907 0.02586 0.0342 0.03568 0.0051 0.0098 0.01494 0.02203 0.02181 0.02716 0.0069 0.0051 0.01249 0.01704 0.01249 0.02648 0 0.0094 7e-3 0.02367 0.01554 0.03163 0.01318 0.01228 0.02685 0.0602 0.02757 0.09667 4.42e-4 0.02219-0.02169 0.10429-0.03523 0.13069-0.01811 0.0353-0.08137 0.10119-0.09716 0.10119-0.0058 0-0.01061 0.0029-0.01061 0.0064 0 0.01-0.04162 0.0221-0.07598 0.0221-0.01707 0-0.03104 0.0027-0.03104 6e-3s-0.0082 0.0097-0.01817 0.01427c-0.02394 0.01091-0.39654 0.01166-0.40738 8e-4 -0.0041-0.0041-0.02979-0.0093-0.05708-0.01162-0.04091-0.0034-0.05175-2e-3 -0.06174 8e-3 -0.01388 0.01387-0.01131 0.02086 0.02541 0.06925 0.02712 0.03574 0.12866 0.17872 0.29064 0.40925 0.02943 0.04188 0.06635 0.09337 0.08205 0.11442 0.0157 0.02105 0.0478 0.06604 0.07135 0.09998 0.02354 0.03394 0.04762 0.06711 0.05351 0.0737 0.0059 0.0066 0.02032 0.02632 0.03207 0.04385 0.01175 0.01752 0.03262 0.04695 0.04637 0.06538s0.04427 0.05947 0.06782 0.09118c0.02354 0.03171 0.05806 0.07669 0.0767 0.09995 0.01864 0.02325 0.03389 0.04403 0.03389 0.04616 0 0.0049 0.01217 0.01902 0.05712 0.0664 0.01959 0.02065 0.03563 0.04232 0.03563 0.04816 0 0.01191 0.0013 0.01239 0.01725 0.0063zm-0.84629-8.2509c0.04198-0.0081 0.08485-0.01931 0.09526-0.02497 0.01041-0.0057 0.02396-0.0103 0.03011-0.0103 0.0099 0 0.03575-0.01262 0.1207-0.05883 0.03223-0.01753 0.1157-0.08914 0.14349-0.12311 0.08438-0.10312 0.12755-0.19559 0.14988-0.32106 0.01412-0.07933 0.01426-0.1183 5.5e-4 -0.16345-0.0058-0.01926-0.0107-0.04816-0.01078-0.06421-9.2e-5 -0.01605-6e-3 -0.04203-0.01309-0.05773-0.0071-0.0157-0.01516-0.04252-0.01788-0.05961-0.0027-0.01709-0.0097-0.04021-0.01544-0.05137-0.0058-0.01117-0.01064-0.02768-0.01081-0.03671-1.61e-4 -9e-3 -0.0052-0.02925-0.01127-0.04495-6e-3 -0.0157-0.01419-0.04459-0.01815-0.06421-0.0039-0.01962-0.01-0.03902-0.01335-0.04311-0.0034-0.0041-0.01089-0.02817-0.01669-0.05351-0.01522-0.06649-0.03149-0.12124-0.04372-0.14704-0.0059-0.01237-0.01065-0.02783-0.01065-0.03436 0-0.0065-0.0038-0.01889-0.0084-0.02746-0.01036-0.01922-0.03009-0.0739-0.08157-0.22606-0.02191-0.06475-0.05755-0.15786-0.07921-0.20691-0.05342-0.12098-0.05495-0.12453-0.08022-0.1855-0.01219-0.029431-0.02651-0.063142-0.03181-0.074914s-0.01846-0.042273-0.02924-0.067779c-0.01078-0.025507-0.02338-0.051191-0.028-0.057078-0.0046-0.00589-0.01899-0.031571-0.03192-0.057078-0.01294-0.025507-0.03548-0.06885-0.05009-0.096318-0.01461-0.027469-0.03834-0.07207-0.05273-0.099114-0.01439-0.027045-0.029-0.05273-0.03246-0.057077-0.0034-0.00435-0.0085-0.014972-0.01111-0.023609-0.0026-0.00864-0.04719-0.079956-0.09897-0.15849-0.05178-0.078531-0.10924-0.16618-0.12768-0.19477-0.01844-0.028593-0.05638-0.079277-0.08432-0.11263-0.02794-0.033355-0.07825-0.095961-0.11181-0.13913-0.0792-0.10188-0.36845-0.40992-0.38536-0.41041-0.0031-9.2e-5 -0.01854-0.01174-0.03424-0.025888-0.0157-0.014147-0.05101-0.042805-0.07848-0.063684s-0.05958-0.046534-0.07135-0.057012c-0.02769-0.024644-0.09449-0.074426-0.09987-0.074426-0.0023 0-0.01286-6e-3 -0.02349-0.013326-0.05741-0.039572-0.14645-0.095481-0.16702-0.10487-0.01295-0.00591-0.05084-0.025195-0.08419-0.042852-0.03336-0.017658-0.08151-0.040208-0.10702-0.050113-0.02551-0.0099-0.06163-0.024236-0.08027-0.031848-0.01864-0.00761-0.05075-0.020619-0.07135-0.028905-0.0206-0.00829-0.04709-0.019068-0.05886-0.023959-0.06166-0.025619-0.27173-0.07649-0.3727-0.090254-0.063-0.00859-0.06803-0.00825-0.11416 0.00775-0.09277 0.03218-0.16401 0.075531-0.2349 0.14295-0.04325 0.041132-0.10944 0.12095-0.10944 0.13196 0 0.00269-0.0064 0.01306-0.01427 0.023037-0.0078 0.00998-0.01427 0.023736-0.01427 0.030574 0 0.00684-0.0046 0.016259-0.01024 0.020935-0.0056 0.00467-0.01244 0.018714-0.01513 0.031196-0.0027 0.012482-0.0091 0.030858-0.01415 0.040834-0.0051 0.00998-0.01635 0.060624-0.02501 0.11255-0.0154 0.092304-0.01548 0.095958-0.0036 0.16379 0.01467 0.083859 0.02077 0.10955 0.03595 0.15143 0.0318 0.087709 0.08048 0.16199 0.15705 0.23966 0.06521 0.06614 0.12509 0.10747 0.17766 0.12262 0.02001 0.00577 0.03986 0.013254 0.04412 0.016637 0.01814 0.014408 0.14815 0.042028 0.19783 0.042028 0.06092 0 0.16063 0.020909 0.20072 0.042089 0.01548 0.00818 0.04117 0.027012 0.05708 0.041847 0.02849 0.02657 0.06817 0.080911 0.06817 0.093371 0 0.00351 0.0063 0.020707 0.01408 0.038217 0.01265 0.028594 0.01336 0.038215 7e-3 0.094478-0.0039 0.034453-0.01186 0.069408-0.01765 0.077679-0.0058 0.00827-0.01053 0.02032-0.01053 0.026778 0 0.010043-0.05645 0.090419-0.08383 0.11937-0.0049 0.00519-9e-3 0.011607-0.0091 0.014269-1.14e-4 0.00266-0.01463 0.020895-0.03228 0.040515-0.0288 0.032013-0.04349 0.057894-0.08961 0.15784-0.0075 0.016178-0.02032 0.061127-0.02856 0.099886-0.02016 0.094819-0.01547 0.23496 0.01065 0.31783 0.03636 0.11536 0.08081 0.18837 0.16853 0.2768 0.05251 0.05293 0.14574 0.12154 0.16516 0.12154 0.0054 0 0.02183 0.0064 0.03647 0.01427 0.01464 0.0078 0.03395 0.01427 0.0429 0.01427 9e-3 0 0.0228 0.0046 0.03078 0.01016 0.01534 0.01074 0.13428 0.0284 0.18844 0.02798 0.05868-4.64e-4 0.17457-0.01738 0.1906-0.02783 0.0087-0.0057 0.02136-0.0103 0.02815-0.0103 0.0068 0 0.05138-0.01909 0.09908-0.04241 0.10799-0.05282 0.15674-0.06298 0.24088-0.05022 0.03214 0.0049 0.06325 0.0126 0.06914 0.01717 0.0059 0.0046 0.0201 0.01299 0.03159 0.0187 0.03044 0.01514 0.08533 0.07328 0.10235 0.10841 0.03041 0.06276 0.03915 0.09029 0.03391 0.10675-0.0028 9e-3 -0.0078 0.03246-0.01098 0.05208-0.0078 0.04855-0.01832 0.08726-0.03075 0.11356-0.04995 0.10571-0.06698 0.16048-0.0769 0.24737-0.02074 0.18162 0.02579 0.34469 0.13984 0.49004 0.0532 0.06781 0.16164 0.15012 0.23546 0.17874 0.02354 0.0091 0.05082 0.02086 0.06063 0.02607 0.0098 0.0052 0.03326 0.01179 0.05212 0.0146 0.01886 0.0028 0.04775 0.0093 0.06421 0.01447 0.04431 0.01385 0.12432 0.01219 0.21045-0.0044zm1.913 2.35e-4c0.02917-0.0078 0.05917-0.0141 0.06668-0.0141 0.0075 0 0.02217-0.0046 0.03259-0.01017 0.01042-0.0056 0.0382-0.01763 0.06173-0.02675 0.05821-0.02256 0.1342-0.07431 0.18564-0.12641 0.05271-0.05339 0.05232-0.05292 0.08687-0.10466 0.05808-0.08697 0.08432-0.15835 0.10043-0.27326 0.01905-0.13579 0.0014-0.24459-0.06175-0.38207-0.04285-0.09319-0.05807-0.18945-0.03986-0.2521 0.02858-0.09833 0.1177-0.17815 0.21751-0.19482 0.08319-0.0139 0.13522-0.0033 0.24329 0.04956 0.04902 0.02398 0.09469 0.04359 0.10148 0.04359 0.0068 0 0.01946 0.0046 0.02815 0.0103 0.01603 0.01045 0.13192 0.02737 0.1906 0.02783 0.05416 4.28e-4 0.1731-0.01723 0.18844-0.02797 8e-3 -0.0056 0.02183-0.01016 0.03078-0.01016 9e-3 0 0.02826-0.0064 0.0429-0.01427 0.01464-0.0078 0.03106-0.01427 0.03647-0.01427 0.03417 0 0.18903-0.13301 0.24112-0.20709 0.0336-0.04778 0.07303-0.1292 0.0925-0.191 0.02619-0.08311 0.03091-0.22312 0.01072-0.31806-0.0082-0.038758-0.02109-0.083706-0.02856-0.099886-0.04452-0.096496-0.06029-0.1251-0.08306-0.15071-0.01396-0.015696-0.03568-0.04224-0.04826-0.058985-0.01258-0.016746-0.03652-0.048435-0.0532-0.070422s-0.03032-0.045296-0.03032-0.051799c0-0.0065-0.0047-0.018616-0.01057-0.026919-0.0058-0.0083-0.01357-0.041892-0.01723-0.074642-0.0059-0.05256-0.0049-0.064578 0.0081-0.10243 0.0254-0.073596 0.07011-0.12822 0.13665-0.16695 0.03805-0.02215 0.13629-0.042962 0.20446-0.043318 0.08999-4.713e-4 0.24758-0.04867 0.32068-0.098083 0.08422-0.056928 0.18095-0.1678 0.2259-0.25893 0.03267-0.066238 0.04456-0.10713 0.06352-0.21851 0.01205-0.070765 0.01198-0.074108-0.0031-0.16298-0.0085-0.049901-0.01982-0.099261-0.02515-0.10969-0.0053-0.010426-0.01188-0.029169-0.01457-0.041651-0.0027-0.012482-0.0093-0.026349-0.01467-0.030815-0.0054-0.00447-0.0118-0.017309-0.01427-0.028539-0.0024-0.01123-0.0091-0.024243-0.01473-0.02892-0.0056-0.00467-0.01024-0.011829-0.01024-0.015898 0-0.00847-0.04614-0.070973-0.07611-0.10311-0.07129-0.07642-0.17431-0.143-0.26936-0.17407-0.04926-0.016108-0.04959-0.016117-0.13199-0.00411-0.09159 0.013344-0.28838 0.061072-0.34115 0.082738-0.01869 0.00767-0.05631 0.022593-0.08359 0.03315-0.02728 0.010558-0.05939 0.023474-0.07135 0.028702-0.01196 0.00523-0.04261 0.017489-0.06811 0.027247-0.02551 0.00976-0.07367 0.032303-0.10702 0.050101s-0.07124 0.037184-0.08419 0.04308c-0.02056 0.00936-0.10946 0.065161-0.16702 0.10484-0.01063 0.00733-0.02121 0.013326-0.02349 0.013326-0.0047 0-0.0746 0.050905-0.08986 0.065461-0.01275 0.012152-0.04883 0.04097-0.07437 0.059396-0.01088 0.00785-0.03824 0.02908-0.0608 0.047182s-0.04659 0.037366-0.05341 0.042808c-0.0626 0.049962-0.31486 0.31882-0.39086 0.41657-0.03356 0.043165-0.08383 0.10577-0.11172 0.13913-0.0464 0.055497-0.08902 0.11592-0.14848 0.21047-0.02331 0.037073-0.04856 0.074779-0.09077 0.13556-0.03639 0.052395-0.06712 0.10589-0.13525 0.23544-0.02476 0.047089-0.06044 0.11451-0.07928 0.14983-0.10629 0.19925-0.25112 0.5503-0.34188 0.82868-0.0053 0.01628-0.01472 0.03939-0.02091 0.05137-0.0062 0.01198-0.01126 0.02707-0.01126 0.03354 0 0.0065-0.0048 0.02188-0.01065 0.03424-0.01223 0.0258-0.0285 0.08054-0.04372 0.14704-0.0058 0.02534-0.01346 0.04958-0.01701 0.05386-0.0035 0.0043-0.0087 0.02208-0.01152 0.03954-0.0028 0.01746-0.01088 0.0446-0.01799 0.06029-0.0071 0.0157-0.01301 0.03753-0.0131 0.04851-9.2e-5 0.01098-0.0049 0.02911-0.01065 0.04027-0.0058 0.01117-0.01273 0.03428-0.01544 0.05137-0.0027 0.01709-0.01077 0.04391-0.01788 0.05961-0.0071 0.0157-0.01301 0.04167-0.0131 0.05773-9.2e-5 0.01605-0.0049 0.04495-0.01078 0.06421-0.01333 0.04394-0.01372 0.10953-9.49e-4 0.16017 0.0054 0.02142 0.01188 0.05274 0.0144 0.06959 0.0025 0.01685 0.0075 0.03611 0.01109 0.04281 0.0036 0.0067 0.01697 0.03465 0.02975 0.06212 0.02371 0.05096 0.05448 0.0989 0.09615 0.14983 0.02842 0.03473 0.11139 0.1056 0.14557 0.12435 0.05516 0.03025 0.11245 0.05759 0.12067 0.05759 0.0048 0 0.01571 4e-3 0.02428 0.0089 0.02651 0.01509 0.15533 0.03893 0.21536 0.03985 0.03679 5.69e-4 0.07592-0.0041 0.1101-0.01322z" fill="#fff"/>
    </g>
    <g display="none" fill="none">
        <rect transform="rotate(90)" x="7.8232" y="-20.923" width="13.1" height="13.1" display="inline" stroke="#000" stroke-width=".070382"/>
        <rect x="7.2241" y="8.6528" width="14.298" height="11.441" stroke="#5261ff" stroke-linecap="round" stroke-linejoin="round" stroke-width=".069589"/>
        <rect transform="rotate(90)" x="7.2241" y="-20.094" width="14.298" height="11.441" display="inline" stroke="#0f0" stroke-linecap="round" stroke-linejoin="round" stroke-width=".069589"/>
    </g>
</svg>
