<?xml version="1.0" encoding="UTF-8"?>
<svg version="1.1" viewBox="0 0 26.95 26.95" xmlns="http://www.w3.org/2000/svg">
    <defs>
        <filter id="filter6206-7" color-interpolation-filters="sRGB">
            <feGaussianBlur stdDeviation="0.658125"/>
        </filter>
        <clipPath>
            <circle r="298"/>
        </clipPath>
    </defs>
    <g transform="translate(0 -1025.4)">
        <path transform="matrix(1.0107 0 0 .99762 -.087875 2.579)" d="m4.4177 1028.2v1.6051h-1.6052v18.192h1.6052v2.1402h18.192v-2.1402h2.1402v-18.192h-2.1402v-1.6051h-18.192z" fill="#1a237e" filter="url(#filter6206-7)" opacity=".2"/>
        <rect x="2.8113" y="1028.2" width="21.327" height="21.327" rx="1.1225" ry="1.1226" fill="#3f51b5"/>
        <g transform="translate(-20.925 990.46)">
            <path d="m0 0h48v48h-48z" fill="none"/>
            <g transform="matrix(.33601 0 0 .33601 1.434 68.477)">
                <path d="m0 0h48v48h-48z" fill="none"/>
            </g>
            <g transform="matrix(.37187 0 0 .37187 36.377 59.287)">
                <path d="m0 0h48v48h-48z" fill="none"/>
                <g transform="matrix(2.6891 0 0 2.6891 -77.724 -45.422)">
                    <path d="m0 0h48v48h-48z" fill="none"/>
                </g>
            </g>
        </g>
        <path transform="translate(0 1025.4)" d="m3.9336 2.8105c-0.62186 0-1.123 0.50115-1.123 1.123v0.3125c0-0.6219 0.50118-1.123 1.123-1.123h19.082c0.62186 0 1.123 0.50115 1.123 1.123v-0.3125c0-0.6219-0.50118-1.123-1.123-1.123h-19.082z" fill="#fff" opacity=".2"/>
        <rect x="120" y="512.36" width="40" height="40" fill="none"/>
        <rect x="120" y="592.36" width="40" height="40" fill="none"/>
        <rect x="120" y="632.36" width="40" height="40" fill="none"/>
        <rect x="120" y="552.36" width="40" height="40" fill="none"/>
        <rect x="120" y="672.36" width="40" height="40" fill="none"/>
        <rect x="200" y="512.36" width="40" height="40" fill="none"/>
        <rect x="200" y="592.36" width="40" height="40" fill="none"/>
        <rect x="200" y="632.36" width="40" height="40" fill="none"/>
        <rect x="200" y="552.36" width="40" height="40" fill="none"/>
        <rect x="200" y="672.36" width="40" height="40" fill="none"/>
        <rect x="280" y="512.36" width="40" height="40" fill="none"/>
        <rect x="280" y="592.36" width="40" height="40" fill="none"/>
        <rect x="280" y="632.36" width="40" height="40" fill="none"/>
        <rect x="280" y="552.36" width="40" height="40" fill="none"/>
        <rect x="280" y="672.36" width="40" height="40" fill="none"/>
        <rect x="160" y="512.36" width="40" height="40" fill="none"/>
        <rect x="160" y="592.36" width="40" height="40" fill="none"/>
        <rect x="160" y="632.36" width="40" height="40" fill="none"/>
        <rect x="160" y="552.36" width="40" height="40" fill="none"/>
        <rect x="160" y="672.36" width="40" height="40" fill="none"/>
        <rect x="240" y="512.36" width="40" height="40" fill="none"/>
        <rect x="240" y="592.36" width="40" height="40" fill="none"/>
        <rect x="240" y="632.36" width="40" height="40" fill="none"/>
        <rect x="240" y="552.36" width="40" height="40" fill="none"/>
        <rect x="240" y="672.36" width="40" height="40" fill="none"/>
        <rect x="120" y="712.36" width="40" height="40" fill="none"/>
        <rect x="200" y="712.36" width="40" height="40" fill="none"/>
        <rect x="280" y="712.36" width="40" height="40" fill="none"/>
        <rect x="160" y="712.36" width="40" height="40" fill="none"/>
        <rect x="240" y="712.36" width="40" height="40" fill="none"/>
        <rect x="320" y="552.36" width="40" height="40" fill="none"/>
        <rect x="320" y="592.36" width="40" height="40" fill="none"/>
        <rect x="320" y="672.36" width="40" height="40" fill="none"/>
        <rect x="320" y="512.36" width="40" height="40" fill="none"/>
        <rect x="320" y="632.36" width="40" height="40" fill="none"/>
        <rect x="320" y="712.36" width="40" height="40" fill="none"/>
        <rect x="150" y="542.36" width="180" height="180" fill="none"/>
        <g transform="matrix(.37344 0 0 .37344 4.4375 1028.8)">
            <path d="m0 0h48v48h-48z" fill="none"/>
        </g>
        <g transform="matrix(.36471 0 0 .36471 4.8146 1028.8)">
            <path d="m0 0h48v48h-48z" fill="none"/>
        </g>
        <g transform="matrix(.41585 0 0 .41585 79.055 989.88)">
            <g transform="matrix(.062269 0 0 .062269 -26.473 173.71)">
                <g transform="matrix(38.618 0 0 38.618 13804 -12696)">
                    <g transform="matrix(.71436 0 0 .71436 -375.49 176.57)">
                        <path transform="matrix(1.3999 0 0 1.3999 525.63 -247.17)" d="m490.56 95.75c-121.72 0.18504-342.34 0.090577-468.16 0.09375-1.5548 6.9739-2.4062 14.232-2.4062 21.688v76.344c139.06 0.49354 331.32 0.2554 472.97 0.25v-76.594c0-7.4875-0.8386-14.78-2.4062-21.781zm-307.19 197.94c-52.495-3e-3 -106.38 0.11982-163.38 0.375v92.844c191.76-0.26331 282.43-0.0926 472.97-0.21875v-92.25c-109.29-0.35498-208.43-0.74426-309.59-0.75z" opacity="0"/>
                    </g>
                </g>
            </g>
        </g>
        <path d="m23.015 1049.6c0.6218 0 1.123-0.5012 1.123-1.123v-0.3125c0 0.6218-0.5012 1.123-1.123 1.123h-19.082c-0.6218 0-1.123-0.5012-1.123-1.123v0.3125c0 0.6218 0.5012 1.123 1.123 1.123h19.082z" fill="#1a237e" opacity=".2"/>
    </g>
    <path d="m13.096 6.7832s-0.592 2.2217-1.3164 3.0449c-0.36586 0.41576 0.1244 0.15106 0.81445-0.091797 0.28515 1.1333 0.95093 1.7879 1.6074 2.1191 0.5458 0.27543 1.0117 0.41548 1.3867 0.63281l-0.28906 0.28906-0.17188-0.16992-0.37109 1.373 1.373-0.37305-0.18945-0.18945 0.31445-0.31445c0.3869 0.49791 0.62352 1.0827 0.70508 1.6914h-0.43945v-0.24219l-1.2344 0.70898 1.2344 0.70703v-0.26953h0.44531c-0.03876 0.30793-0.11166 0.6139-0.23438 0.91016-0.12364 0.29848-0.2902 0.56986-0.48242 0.81641l-0.24609-0.24609-0.06836-0.07031 0.19531-0.19531-1.373-0.37305 0.37109 1.375 0.16602-0.16602 0.31055 0.30859c-0.48388 0.36833-1.0568 0.61145-1.6758 0.6914v-0.44336h0.25391l-0.70703-1.2344-0.70703 1.2344h0.25586v0.44336c-0.62579-0.08049-1.2041-0.32826-1.6914-0.70312l0.31055-0.31055 0.17969 0.17969 0.37109-1.375-1.373 0.37305 0.18164 0.18164-0.3125 0.3125c-0.18655-0.24226-0.34984-0.50704-0.4707-0.79883-0.12272-0.29626-0.19562-0.60223-0.23438-0.91016h0.44531v0.26953l1.2344-0.70703-1.2344-0.70898v0.24219h-0.43945c0.08144-0.60784 0.31721-1.192 0.70312-1.6895l0.31445 0.31445-0.1875 0.1875 1.373 0.37305-0.37109-1.373-0.17188 0.17188-1.1426-1.1426-0.16016-0.1582-0.32812 0.32812c-0.065543 0.065544-0.13213 0.1248-0.19336 0.19336l-0.10938 0.12891c-1.1581 1.3901-1.4768 3.3165-0.77539 5.0098 0.75864 1.8315 2.5508 3.0293 4.5332 3.0293s3.7746-1.1978 4.5332-3.0293c0.75864-1.8315 0.33731-3.9459-1.0645-5.3477-0.7467-0.7467-1.6084-0.9122-2.1191-1.1699-0.4274-0.21568-0.69352-0.41609-0.86133-1.1211 0.23747 0.022279 0.45838 0.080527 0.61523 0.24609 0.88904 0.93843-1.4824-2.9629-1.4824-2.9629zm0.37891 6.832c-0.90935-6e-5 -1.6465 0.73713-1.6465 1.6465-6e-5 0.90935 0.73713 1.6465 1.6465 1.6465 0.90935 6e-5 1.6465-0.73713 1.6465-1.6465 6e-5 -0.90935-0.73713-1.6465-1.6465-1.6465z" fill="#fff" stroke-width=".96522"/>
    <g transform="matrix(.016464 0 0 .016464 13.475 15.261)" fill="#006499" stroke="#006499"></g>
    <g display="none" fill="none">
        <rect transform="rotate(90)" x="7.3342" y="-19.616" width="12.282" height="12.282" display="inline" stroke="#000" stroke-width=".065984"/>
        <rect x="6.7726" y="8.112" width="13.405" height="10.726" stroke="#5261ff" stroke-linecap="round" stroke-linejoin="round" stroke-width=".06524"/>
        <rect transform="rotate(90)" x="6.7726" y="-18.838" width="13.405" height="10.726" display="inline" stroke="#0f0" stroke-linecap="round" stroke-linejoin="round" stroke-width=".06524"/>
    </g>
</svg>
