<?xml version="1.0" encoding="UTF-8"?>
<svg version="1.1" viewBox="0 0 28.747 28.747" xmlns="http://www.w3.org/2000/svg">
    <defs>
        <filter id="filter6206-7" color-interpolation-filters="sRGB">
            <feGaussianBlur stdDeviation="0.658125"/>
        </filter>
    </defs>
    <g transform="translate(0 -1093.8)">
        <path transform="matrix(1.0781 0 0 1.0641 -.093733 2.7509)" d="m4.4177 1028.2v1.6051h-1.6052v18.192h1.6052v2.1402h18.192v-2.1402h2.1402v-18.192h-2.1402v-1.6051z" fill="#212121" filter="url(#filter6206-7)" opacity=".2"/>
        <rect x="2.9987" y="1096.8" width="22.749" height="22.749" rx="1.1973" ry="1.1974" fill="#9e9e9e"/>
        <g transform="translate(-22.32 1056.5)">
            <path d="m0 0h51.2v51.2h-51.2z" fill="none" stroke-width="1.0667"/>
            <g transform="matrix(.33601 0 0 .33601 1.5296 73.043)">
                <path d="m0 0h51.2v51.2h-51.2z" fill="none" stroke-width="1.0667"/>
            </g>
            <g transform="matrix(.37187 0 0 .37187 38.802 63.239)">
                <path d="m0 0h51.2v51.2h-51.2z" fill="none" stroke-width="1.0667"/>
                <g transform="matrix(2.6891 0 0 2.6891 -82.906 -48.45)">
                    <path d="m0 0h51.2v51.2h-51.2z" fill="none" stroke-width="1.0667"/>
                </g>
            </g>
        </g>
        <path d="m4.1958 1096.8c-0.66332 0-1.1979 0.5346-1.1979 1.1979v0.3334c0-0.6634 0.53459-1.1979 1.1979-1.1979h20.354c0.66332 0 1.1979 0.5345 1.1979 1.1979v-0.3334c0-0.6633-0.5346-1.1979-1.1979-1.1979z" fill="#fff" opacity=".2"/>
        <rect x="128" y="546.52" width="42.667" height="42.667" fill="none" stroke-width="1.0667"/>
        <rect x="128" y="631.85" width="42.667" height="42.667" fill="none" stroke-width="1.0667"/>
        <rect x="128" y="674.52" width="42.667" height="42.667" fill="none" stroke-width="1.0667"/>
        <rect x="128" y="589.19" width="42.667" height="42.667" fill="none" stroke-width="1.0667"/>
        <rect x="128" y="717.19" width="42.667" height="42.667" fill="none" stroke-width="1.0667"/>
        <rect x="213.33" y="546.52" width="42.667" height="42.667" fill="none" stroke-width="1.0667"/>
        <rect x="213.33" y="631.85" width="42.667" height="42.667" fill="none" stroke-width="1.0667"/>
        <rect x="213.33" y="674.52" width="42.667" height="42.667" fill="none" stroke-width="1.0667"/>
        <rect x="213.33" y="589.19" width="42.667" height="42.667" fill="none" stroke-width="1.0667"/>
        <rect x="213.33" y="717.19" width="42.667" height="42.667" fill="none" stroke-width="1.0667"/>
        <rect x="298.67" y="546.52" width="42.667" height="42.667" fill="none" stroke-width="1.0667"/>
        <rect x="298.67" y="631.85" width="42.667" height="42.667" fill="none" stroke-width="1.0667"/>
        <rect x="298.67" y="674.52" width="42.667" height="42.667" fill="none" stroke-width="1.0667"/>
        <rect x="298.67" y="589.19" width="42.667" height="42.667" fill="none" stroke-width="1.0667"/>
        <rect x="298.67" y="717.19" width="42.667" height="42.667" fill="none" stroke-width="1.0667"/>
        <rect x="170.67" y="546.52" width="42.667" height="42.667" fill="none" stroke-width="1.0667"/>
        <rect x="170.67" y="631.85" width="42.667" height="42.667" fill="none" stroke-width="1.0667"/>
        <rect x="170.67" y="674.52" width="42.667" height="42.667" fill="none" stroke-width="1.0667"/>
        <rect x="170.67" y="589.19" width="42.667" height="42.667" fill="none" stroke-width="1.0667"/>
        <rect x="170.67" y="717.19" width="42.667" height="42.667" fill="none" stroke-width="1.0667"/>
        <rect x="256" y="546.52" width="42.667" height="42.667" fill="none" stroke-width="1.0667"/>
        <rect x="256" y="631.85" width="42.667" height="42.667" fill="none" stroke-width="1.0667"/>
        <rect x="256" y="674.52" width="42.667" height="42.667" fill="none" stroke-width="1.0667"/>
        <rect x="256" y="589.19" width="42.667" height="42.667" fill="none" stroke-width="1.0667"/>
        <rect x="256" y="717.19" width="42.667" height="42.667" fill="none" stroke-width="1.0667"/>
        <rect x="128" y="759.85" width="42.667" height="42.667" fill="none" stroke-width="1.0667"/>
        <rect x="213.33" y="759.85" width="42.667" height="42.667" fill="none" stroke-width="1.0667"/>
        <rect x="298.67" y="759.85" width="42.667" height="42.667" fill="none" stroke-width="1.0667"/>
        <rect x="170.67" y="759.85" width="42.667" height="42.667" fill="none" stroke-width="1.0667"/>
        <rect x="256" y="759.85" width="42.667" height="42.667" fill="none" stroke-width="1.0667"/>
        <rect x="341.33" y="589.19" width="42.667" height="42.667" fill="none" stroke-width="1.0667"/>
        <rect x="341.33" y="631.85" width="42.667" height="42.667" fill="none" stroke-width="1.0667"/>
        <rect x="341.33" y="717.19" width="42.667" height="42.667" fill="none" stroke-width="1.0667"/>
        <rect x="341.33" y="546.52" width="42.667" height="42.667" fill="none" stroke-width="1.0667"/>
        <rect x="341.33" y="674.52" width="42.667" height="42.667" fill="none" stroke-width="1.0667"/>
        <rect x="341.33" y="759.85" width="42.667" height="42.667" fill="none" stroke-width="1.0667"/>
        <rect x="160" y="578.52" width="192" height="192" fill="none" stroke-width="1.0667"/>
        <g transform="matrix(.37344 0 0 .37344 4.7333 1097.4)">
            <path d="m0 0h51.2v51.2h-51.2z" fill="none" stroke-width="1.0667"/>
        </g>
        <g transform="matrix(.36471 0 0 .36471 5.1356 1097.4)">
            <path d="m0 0h51.2v51.2h-51.2z" fill="none" stroke-width="1.0667"/>
        </g>
        <g transform="matrix(.41585 0 0 .41585 84.325 1055.9)">
            <g transform="matrix(.062269 0 0 .062269 -28.238 185.29)">
                <g transform="matrix(38.618 0 0 38.618 14724 -13542)">
                    <g transform="matrix(.71436 0 0 .71436 -400.52 188.34)">
                        <path d="m1293.2-120.67c-181.75 0.2763-511.18 0.13525-699.05 0.13998-2.3216 10.413-3.593 21.251-3.593 32.384v114c207.65 0.73695 494.72 0.38136 706.23 0.3733v-114.37c0-11.18-1.2522-22.07-3.593-32.523zm-458.69 295.56c-78.385-4e-3 -158.85 0.17892-243.95 0.55995v138.63c286.34-0.39317 421.73-0.13827 706.23-0.32664v-137.75c-163.2-0.53005-311.22-1.1113-462.28-1.1199z" opacity="0" stroke-width="1.4932"/>
                    </g>
                </g>
            </g>
        </g>
        <path d="m24.549 1119.5c0.66325 0 1.1979-0.5346 1.1979-1.1979v-0.3333c0 0.6632-0.53461 1.1978-1.1979 1.1978h-20.354c-0.66325 0-1.1979-0.5346-1.1979-1.1978v0.3333c0 0.6633 0.53461 1.1979 1.1979 1.1979z" fill="#212121" opacity=".2"/>
    </g>
    <path d="m14.334 8.6758c-0.46225-0.0010499-0.93137 0.19502-1.2734 0.60156-0.39478 0.46917-0.39453 0.46754-0.39453 3.9805 0 3.5129 3.04e-4 3.5135 0.46094 4.4219 0.24858 0.4902 0.44449 0.88546 0.45312 0.91211-0.04539 0.03542-0.14243 0.088731-0.26562 0.14648-0.1013 0.04318-0.21012 0.087138-0.34375 0.14062-0.55473 0.22196-1.1654 0.28632-1.752 0.20703-0.92558-0.1444-1.7834-0.67819-2.3457-1.5273-0.42529-0.64231-0.42474-0.64369-0.4707-4.5488-0.04597-3.9051 0.013729-3.9102-0.26758-3.9043-0.078604 0.00163-0.14942 0.0018769-0.21484 0.0019531-0.011828-7.62e-5 -0.020424-0.0019531-0.033203-0.0019531-0.033429 0-0.064972 5.615e-4 -0.09375 0.0019531-0.052013-2.98e-5 -0.093497-5.099e-4 -0.16016 0-0.20878 0.00163-0.21489 0.55174-0.20117 1.8379-0.00476 0.52556-0.0066793 1.1791-0.0058594 2.0527 0.0011201 1.2688 0.0071586 2.1786 0.039063 2.8691 0.018992 0.6527 0.05703 1.0045 0.13672 1.2734 0.14383 0.66899 0.40729 1.0142 0.88867 1.5625 0.27728 0.3158 0.61151 0.57911 0.98242 0.78906 0.0011601 7.48e-4 0.0027563 0.001353 0.0039063 0.001953 0.1615 0.1017 0.32988 0.1942 0.50391 0.27539 0.23741 0.11077 0.55413 0.18428 0.9082 0.22656 0.66444 0.11844 1.3605 0.096695 2.0137-0.083985 0.31958-0.0655 0.61018-0.15486 0.83984-0.26953 0.30154-0.15058 0.46684-0.23291 0.63086-0.24414 0.16404 0.011179 0.32932 0.093588 0.63086 0.24414 0.22967 0.11468 0.52026 0.20402 0.83984 0.26953 0.65318 0.18065 1.3492 0.20242 2.0137 0.083985 0.35407-0.04228 0.67274-0.1158 0.91016-0.22656 0.17403-0.08119 0.34047-0.17369 0.50195-0.27539 0.0014-7.45e-4 0.002706-0.001354 0.003907-0.001953 0.37091-0.20995 0.7071-0.47326 0.98437-0.78906 0.48138-0.54827 0.7429-0.89351 0.88672-1.5625 0.0797-0.26895 0.11776-0.62074 0.13672-1.2734 0.03187-0.69053 0.037943-1.6003 0.039062-2.8691 7.69e-4 -0.87366 9.11e-4 -1.5272-0.003906-2.0527 0.01377-1.2861 0.005567-1.8363-0.20312-1.8379-0.06665-5.071e-4 -0.10816-7.34e-5 -0.16016 0-0.02877-0.00148-0.058357-0.0019531-0.091797-0.0019531-0.01264 0-0.021153 0.0018431-0.033203 0.0019531-0.06543-6.12e-5 -0.1382-3.149e-4 -0.2168-0.0019531-0.28124-0.0059901-0.22162-8.925e-4 -0.26758 3.9043-0.04598 3.9051-0.045363 3.9065-0.4707 4.5488-0.56233 0.84915-1.4181 1.3829-2.3438 1.5273h-0.001953c-0.58657 0.07927-1.1972 0.015057-1.752-0.20703-0.13362-0.05346-0.24246-0.097458-0.34375-0.14062-0.12321-0.05777-0.22025-0.11109-0.26562-0.14648 0.0086-0.02666 0.20454-0.42191 0.45312-0.91211 0.46063-0.90836 0.46094-0.90894 0.46094-4.4219 0-3.5129 2.51e-4 -3.5113-0.39453-3.9805-0.35185-0.41823-0.83743-0.61032-1.3125-0.59766-0.01333-3.563e-4 -0.025733-0.0039062-0.039063-0.0039063zm0.039063 0.94922c0.09648 0.012106 0.19497 0.042356 0.29102 0.09375 0.30154 0.16138 0.31445 0.30438 0.31445 3.5605 0 3.1425-0.02432 3.4414-0.32422 4.0293-0.13372 0.26211-0.21182 0.41331-0.28125 0.4668-0.06944-0.05348-0.14753-0.20467-0.28125-0.4668-0.2999-0.58785-0.32422-0.88675-0.32422-4.0293 0-3.2562 0.012978-3.3992 0.31445-3.5605 0.09605-0.051383 0.19455-0.081733 0.29102-0.09375z" fill="#fff" stroke="#fff" stroke-width=".1"/>
    <g display="none" fill="none">
        <rect transform="rotate(90)" x="7.8232" y="-20.923" width="13.1" height="13.1" display="inline" stroke="#000" stroke-width=".070382"/>
        <rect x="7.2241" y="8.6528" width="14.298" height="11.441" stroke="#5261ff" stroke-linecap="round" stroke-linejoin="round" stroke-width=".069589"/>
        <rect transform="rotate(90)" x="7.2241" y="-20.094" width="14.298" height="11.441" display="inline" stroke="#0f0" stroke-linecap="round" stroke-linejoin="round" stroke-width=".069589"/>
    </g>
</svg>
