<?xml version="1.0" encoding="UTF-8"?>
<svg version="1.1" viewBox="0 0 28.747 28.747" xmlns="http://www.w3.org/2000/svg">
    <defs>
        <filter id="filter6206-7" color-interpolation-filters="sRGB">
            <feGaussianBlur stdDeviation="0.658125"/>
        </filter>
    </defs>
    <g transform="translate(0 -1093.8)">
        <path transform="matrix(1.0781 0 0 1.0641 -.093733 2.7509)" d="m4.4177 1028.2v1.6051h-1.6052v18.192h1.6052v2.1402h18.192v-2.1402h2.1402v-18.192h-2.1402v-1.6051z" fill="#212121" filter="url(#filter6206-7)" opacity=".2"/>
        <rect x="2.9987" y="1096.8" width="22.749" height="22.749" rx="1.1973" ry="1.1974" fill="#9e9e9e"/>
        <g transform="translate(-22.32 1056.5)">
            <path d="m0 0h51.2v51.2h-51.2z" fill="none" stroke-width="1.0667"/>
            <g transform="matrix(.33601 0 0 .33601 1.5296 73.043)">
                <path d="m0 0h51.2v51.2h-51.2z" fill="none" stroke-width="1.0667"/>
            </g>
            <g transform="matrix(.37187 0 0 .37187 38.802 63.239)">
                <path d="m0 0h51.2v51.2h-51.2z" fill="none" stroke-width="1.0667"/>
                <g transform="matrix(2.6891 0 0 2.6891 -82.906 -48.45)">
                    <path d="m0 0h51.2v51.2h-51.2z" fill="none" stroke-width="1.0667"/>
                </g>
            </g>
        </g>
        <path d="m4.1958 1096.8c-0.66332 0-1.1979 0.5346-1.1979 1.1979v0.3334c0-0.6634 0.53459-1.1979 1.1979-1.1979h20.354c0.66332 0 1.1979 0.5345 1.1979 1.1979v-0.3334c0-0.6633-0.5346-1.1979-1.1979-1.1979z" fill="#fff" opacity=".2"/>
        <rect x="128" y="546.52" width="42.667" height="42.667" fill="none" stroke-width="1.0667"/>
        <rect x="128" y="631.85" width="42.667" height="42.667" fill="none" stroke-width="1.0667"/>
        <rect x="128" y="674.52" width="42.667" height="42.667" fill="none" stroke-width="1.0667"/>
        <rect x="128" y="589.19" width="42.667" height="42.667" fill="none" stroke-width="1.0667"/>
        <rect x="128" y="717.19" width="42.667" height="42.667" fill="none" stroke-width="1.0667"/>
        <rect x="213.33" y="546.52" width="42.667" height="42.667" fill="none" stroke-width="1.0667"/>
        <rect x="213.33" y="631.85" width="42.667" height="42.667" fill="none" stroke-width="1.0667"/>
        <rect x="213.33" y="674.52" width="42.667" height="42.667" fill="none" stroke-width="1.0667"/>
        <rect x="213.33" y="589.19" width="42.667" height="42.667" fill="none" stroke-width="1.0667"/>
        <rect x="213.33" y="717.19" width="42.667" height="42.667" fill="none" stroke-width="1.0667"/>
        <rect x="298.67" y="546.52" width="42.667" height="42.667" fill="none" stroke-width="1.0667"/>
        <rect x="298.67" y="631.85" width="42.667" height="42.667" fill="none" stroke-width="1.0667"/>
        <rect x="298.67" y="674.52" width="42.667" height="42.667" fill="none" stroke-width="1.0667"/>
        <rect x="298.67" y="589.19" width="42.667" height="42.667" fill="none" stroke-width="1.0667"/>
        <rect x="298.67" y="717.19" width="42.667" height="42.667" fill="none" stroke-width="1.0667"/>
        <rect x="170.67" y="546.52" width="42.667" height="42.667" fill="none" stroke-width="1.0667"/>
        <rect x="170.67" y="631.85" width="42.667" height="42.667" fill="none" stroke-width="1.0667"/>
        <rect x="170.67" y="674.52" width="42.667" height="42.667" fill="none" stroke-width="1.0667"/>
        <rect x="170.67" y="589.19" width="42.667" height="42.667" fill="none" stroke-width="1.0667"/>
        <rect x="170.67" y="717.19" width="42.667" height="42.667" fill="none" stroke-width="1.0667"/>
        <rect x="256" y="546.52" width="42.667" height="42.667" fill="none" stroke-width="1.0667"/>
        <rect x="256" y="631.85" width="42.667" height="42.667" fill="none" stroke-width="1.0667"/>
        <rect x="256" y="674.52" width="42.667" height="42.667" fill="none" stroke-width="1.0667"/>
        <rect x="256" y="589.19" width="42.667" height="42.667" fill="none" stroke-width="1.0667"/>
        <rect x="256" y="717.19" width="42.667" height="42.667" fill="none" stroke-width="1.0667"/>
        <rect x="128" y="759.85" width="42.667" height="42.667" fill="none" stroke-width="1.0667"/>
        <rect x="213.33" y="759.85" width="42.667" height="42.667" fill="none" stroke-width="1.0667"/>
        <rect x="298.67" y="759.85" width="42.667" height="42.667" fill="none" stroke-width="1.0667"/>
        <rect x="170.67" y="759.85" width="42.667" height="42.667" fill="none" stroke-width="1.0667"/>
        <rect x="256" y="759.85" width="42.667" height="42.667" fill="none" stroke-width="1.0667"/>
        <rect x="341.33" y="589.19" width="42.667" height="42.667" fill="none" stroke-width="1.0667"/>
        <rect x="341.33" y="631.85" width="42.667" height="42.667" fill="none" stroke-width="1.0667"/>
        <rect x="341.33" y="717.19" width="42.667" height="42.667" fill="none" stroke-width="1.0667"/>
        <rect x="341.33" y="546.52" width="42.667" height="42.667" fill="none" stroke-width="1.0667"/>
        <rect x="341.33" y="674.52" width="42.667" height="42.667" fill="none" stroke-width="1.0667"/>
        <rect x="341.33" y="759.85" width="42.667" height="42.667" fill="none" stroke-width="1.0667"/>
        <rect x="160" y="578.52" width="192" height="192" fill="none" stroke-width="1.0667"/>
        <g transform="matrix(.37344 0 0 .37344 4.7333 1097.4)">
            <path d="m0 0h51.2v51.2h-51.2z" fill="none" stroke-width="1.0667"/>
        </g>
        <g transform="matrix(.36471 0 0 .36471 5.1356 1097.4)">
            <path d="m0 0h51.2v51.2h-51.2z" fill="none" stroke-width="1.0667"/>
        </g>
        <g transform="matrix(.41585 0 0 .41585 84.325 1055.9)">
            <g transform="matrix(.062269 0 0 .062269 -28.238 185.29)">
                <g transform="matrix(38.618 0 0 38.618 14724 -13542)">
                    <g transform="matrix(.71436 0 0 .71436 -400.52 188.34)">
                        <path d="m1293.2-120.67c-181.75 0.2763-511.18 0.13525-699.05 0.13998-2.3216 10.413-3.593 21.251-3.593 32.384v114c207.65 0.73695 494.72 0.38136 706.23 0.3733v-114.37c0-11.18-1.2522-22.07-3.593-32.523zm-458.69 295.56c-78.385-4e-3 -158.85 0.17892-243.95 0.55995v138.63c286.34-0.39317 421.73-0.13827 706.23-0.32664v-137.75c-163.2-0.53005-311.22-1.1113-462.28-1.1199z" opacity="0" stroke-width="1.4932"/>
                    </g>
                </g>
            </g>
        </g>
        <path d="m24.549 1119.5c0.66325 0 1.1979-0.5346 1.1979-1.1979v-0.3333c0 0.6632-0.53461 1.1978-1.1979 1.1978h-20.354c-0.66325 0-1.1979-0.5346-1.1979-1.1978v0.3333c0 0.6633 0.53461 1.1979 1.1979 1.1979z" fill="#212121" opacity=".2"/>
    </g>
    <path d="m14.334 8.625c-0.47646-0.00108-0.96107 0.20338-1.3125 0.62109-0.19738 0.23457-0.30561 0.37189-0.35547 0.875-0.04986 0.50311-0.050782 1.3802-0.050782 3.1367 0 1.7565 3.76e-4 2.6351 0.058594 3.1934 0.05822 0.55824 0.17788 0.79775 0.4082 1.252 0.12424 0.24499 0.23537 0.46566 0.31641 0.62891 0.04052 0.08162 0.074316 0.14906 0.097656 0.19727 0.0084 0.01741 0.013761 0.028806 0.019531 0.041015-0.04542 0.030741-0.11668 0.07337-0.22266 0.12305-0.10009 0.04263-0.20722 0.08559-0.33984 0.13867-0.54547 0.21825-1.1487 0.28287-1.7266 0.20508-0.91169-0.14224-1.7578-0.66822-2.3125-1.5059-0.21263-0.32113-0.31091-0.46569-0.36914-1.0293s-0.068817-1.5396-0.091797-3.4922c-0.022982-1.9523-0.02069-2.9294-0.046875-3.4219-0.013093-0.24622-0.029372-0.37077-0.074219-0.44922-0.022423-0.039225-0.057809-0.065973-0.09375-0.076172-0.035941-0.010199-0.070248-0.0085525-0.10547-0.0078125-0.078086 0.00162-0.14755 0.0018831-0.21289 0.0019531-0.0067-4.31e-5 -0.015528-0.0019531-0.033203-0.0019531-0.033989 0-0.065813 5.108e-4 -0.095703 0.0019531-0.050856-3.99e-5 -0.091959-5.067e-4 -0.1582 0-0.037074 2.895e-4 -0.073447 0.016269-0.10156 0.041016-0.028116 0.024747-0.049642 0.057098-0.066406 0.097656-0.033528 0.081117-0.053251 0.19415-0.066406 0.3457-0.02631 0.30311-0.02444 0.76106-0.017578 1.4043-0.00476 0.52582-0.0066794 1.179-0.0058594 2.0527 0.00112 1.2689 0.0070795 2.1789 0.039062 2.8711 0.018976 0.65215 0.057347 1.0055 0.13867 1.2812 0.14572 0.6778 0.41811 1.0366 0.90039 1.5859 0.281 0.32003 0.61742 0.58652 0.99219 0.79883 5.8e-4 3.74e-4 0.0064825 0.003306 0.0078125 0.003906 0.16207 0.10186 0.33117 0.19389 0.50586 0.27539 0.24468 0.11416 0.56537 0.18776 0.92187 0.23047 0.67013 0.11945 1.3714 0.097886 2.0312-0.083984 0.3225-0.0661 0.61611-0.15588 0.85156-0.27344 0.29953-0.14958 0.46052-0.22526 0.60938-0.23633 0.14884 0.01103 0.30984 0.08677 0.60938 0.23633 0.23546 0.11757 0.52906 0.20733 0.85156 0.27344 0.65988 0.18184 1.363 0.20344 2.0332 0.083984 0.35564-0.04275 0.67758-0.1165 0.92187-0.23047 0.17482-0.08156 0.34204-0.17363 0.50391-0.27539l0.001953-0.001953h0.001953l0.001953-0.001953c0.37524-0.2124 0.71469-0.47832 0.99609-0.79883 0.48232-0.54934 0.75274-0.90823 0.89844-1.5859 0.08133-0.27583 0.11973-0.62914 0.13867-1.2812 0.03195-0.69226 0.037943-1.6022 0.039063-2.8711 7.69e-4 -0.87368 9.07e-4 -1.5268-0.003906-2.0527 0.0069-0.64323 0.007298-1.1011-0.019532-1.4043-0.01341-0.15157-0.032676-0.2646-0.066406-0.3457-0.01686-0.040552-0.038246-0.074891-0.066406-0.099609-0.02815-0.024718-0.06449-0.038778-0.10156-0.039062-0.06703-5.099e-4 -0.1084-7.3e-5 -0.16016 0l0.001953 0.0019532c-0.02998-0.0015401-0.05984-0.0039063-0.09375-0.0039063-0.0175 0-0.026043 0.0018931-0.033203 0.0019531-0.06534-6.11e-5 -0.13678-3.292e-4 -0.21484-0.0019531-0.03521-7.5e-4 -0.06953-0.0023775-0.10547 0.0078125-0.03594 0.010188-0.07133 0.036952-0.09375 0.076172-0.04485 0.07844-0.061118 0.203-0.074218 0.44922-0.02619 0.49244-0.023905 1.4695-0.046875 3.4219-0.02299 1.9526-0.033567 2.9286-0.091797 3.4922-0.05823 0.56361-0.15649 0.70817-0.36914 1.0293-0.55352 0.83585-1.3952 1.3603-2.3047 1.5039-2e-3 3.22e-4 -0.00376 0.001553-0.00586 0.001953-0.57845 0.07817-1.1824 0.01354-1.7285-0.20508-0.13261-0.05306-0.23975-0.09605-0.33984-0.13867l-0.001953-0.001953c-0.1045-0.04914-0.17576-0.09069-0.2207-0.12109 0.0058-0.012199 0.011101-0.023605 0.019531-0.041015 0.02334-0.0482 0.057136-0.11565 0.097656-0.19727 0.08104-0.16324 0.19217-0.38391 0.31641-0.62891 0.23032-0.45418 0.34998-0.69371 0.4082-1.252 0.05822-0.55824 0.058593-1.4369 0.058593-3.1934 0-1.7564-9.27e-4 -2.6336-0.050781-3.1367-0.049954-0.503-0.15809-0.64042-0.35547-0.875-0.36158-0.4298-0.86408-0.63023-1.3535-0.61719-0.0061-6.906e-4 -0.017-0.0039062-0.03711-0.0039062zm0.039063 1.0508c0.08859 0.01182 0.17882 0.040396 0.26758 0.087891 0.07281 0.038965 0.11586 0.067872 0.1543 0.14453 0.03844 0.076659 0.069614 0.20664 0.089844 0.43555 0.04047 0.45782 0.042968 1.3076 0.042968 2.9355 0.03397 1.3354 0.051042 2.8207-0.31836 4.0059-0.11806 0.2314-0.18621 0.34241-0.23633 0.39844-0.05012-0.05601-0.11827-0.16702-0.23633-0.39844-0.14864-0.29136-0.22628-0.49994-0.26953-1.0371-0.043261-0.53717-0.048829-1.3976-0.048829-2.9688 0-1.628 0.002499-2.4777 0.042969-2.9355 0.02024-0.22891 0.051414-0.3589 0.089844-0.43555 0.03844-0.076649 0.08151-0.10559 0.1543-0.14453 0.08879-0.047498 0.17906-0.076153 0.26758-0.087891z" color="#000000" color-rendering="auto" dominant-baseline="auto" fill="#fff" image-rendering="auto" shape-rendering="auto" solid-color="#000000" style="font-feature-settings:normal;font-variant-alternates:normal;font-variant-caps:normal;font-variant-ligatures:normal;font-variant-numeric:normal;font-variant-position:normal;isolation:auto;mix-blend-mode:normal;shape-padding:0;text-decoration-color:#000000;text-decoration-line:none;text-decoration-style:solid;text-indent:0;text-orientation:mixed;text-transform:none;white-space:normal"/>
    <g display="none" fill="none">
        <rect transform="rotate(90)" x="7.8232" y="-20.923" width="13.1" height="13.1" display="inline" stroke="#000" stroke-width=".070382"/>
        <rect x="7.2241" y="8.6528" width="14.298" height="11.441" stroke="#5261ff" stroke-linecap="round" stroke-linejoin="round" stroke-width=".069589"/>
        <rect transform="rotate(90)" x="7.2241" y="-20.094" width="14.298" height="11.441" display="inline" stroke="#0f0" stroke-linecap="round" stroke-linejoin="round" stroke-width=".069589"/>
    </g>
</svg>
