<?xml version="1.0" encoding="UTF-8"?>
<svg fill="none" viewBox="0 0 40 40" xmlns="http://www.w3.org/2000/svg">
    <g filter="url(#filter0_f)" opacity=".2">
        <path d="m6.4966 4.3023v2.3767h-2.408v26.937h2.408v3.1689h27.29v-3.1689h3.2106v-26.937h-3.2106v-2.3767h-27.29z" fill="#BF360C"/>
    </g>
    <path d="m34.161 4.1727h-28.323c-0.92013 0-1.666 0.74594-1.666 1.6661v28.323c0 0.9201 0.74591 1.6661 1.666 1.6661h28.323c0.9201 0 1.666-0.746 1.666-1.6661v-28.323c0-0.92018-0.7459-1.6661-1.666-1.6661z" fill="#FFC107"/>
    <path d="m5.8383 4.1715c-0.92299 0-1.6669 0.74384-1.6669 1.6668v0.46405c0-0.9231 0.74387-1.667 1.6669-1.667h28.322c0.923 0 1.6668 0.74387 1.6668 1.667v-0.46405c0-0.92296-0.7438-1.6668-1.6668-1.6668h-28.322z" fill="#fff" opacity=".2"/>
    <path d="m34.16 35.859c0.9229 0 1.6668-0.7438 1.6668-1.6668v-0.4639c0 0.9228-0.7439 1.6668-1.6668 1.6668h-28.322c-0.9229 0-1.6668-0.744-1.6668-1.6668v0.4639c0 0.923 0.7439 1.6668 1.6668 1.6668h28.322z" fill="#BF360C" opacity=".2"/>
    <path d="m18.274 11.75c-1.4445-1e-3 -2.8485 0.4775-3.9917 1.3606s-1.9608 2.1208-2.3245 3.5188l-1e-4 3e-4c-0.3623 1.3993-0.2483 2.8794 0.3241 4.2067s1.5705 2.4261 2.8368 3.123l6e-4 3e-4c0.07 0.0383 0.147 0.0621 0.2264 0.07s0.1595-2e-4 0.2357-0.0239c0.0761-0.0237 0.1468-0.0625 0.2076-0.1141 0.0605-0.0512 0.1101-0.114 0.146-0.1846 0.1507-0.2915 0.0472-0.6573-0.2442-0.8184l-7e-4 -5e-4c-1.029-0.5644-1.8406-1.4557-2.3066-2.533-0.4659-1.0772-0.5597-2.2789-0.2664-3.4154 0.605-2.3353 2.7249-3.9722 5.157-3.9722 2.4309 0 4.5506 1.6365 5.1567 3.9714 0.0323 0.1288 0.1064 0.2432 0.2107 0.3255 0.1046 0.0826 0.2338 0.128 0.3671 0.1291h0.9353c1.5987-0.0014 2.9329 1.2008 3.0921 2.7716 0.1593 1.5693-0.904 3.0091-2.4682 3.3255v-1e-4l-0.0034 8e-4c-0.1562 0.0338-0.2929 0.1278-0.3805 0.2616-0.087 0.133-0.1185 0.2947-0.0879 0.4506 0.0141 0.0773 0.0432 0.151 0.0856 0.217 0.043 0.0669 0.0989 0.1245 0.1643 0.1696 0.0655 0.0451 0.1393 0.0768 0.217 0.0931 0.0778 0.0164 0.1581 0.0171 0.2361 0.0022l0.0026-5e-4c1.0458-0.2109 1.9758-0.8033 2.6091-1.6618 0.6334-0.8586 0.9248-1.922 0.8177-2.9835l-1e-4 -2e-4c-0.108-1.0608-0.6063-2.0435-1.3981-2.7576-0.7918-0.714-1.8207-1.1084-2.8869-1.1066l-0.2496 4e-4v4e-4h-0.2387c-0.4277-1.26-1.2311-2.3605-2.3041-3.1522-1.1227-0.8284-2.4816-1.2749-3.8768-1.2739zm0 0h-2e-4l2e-4 0.25 1e-4 -0.25h-1e-4z" fill="#fff" stroke="#fff" stroke-width=".5"/>
    <path d="m21.929 19.279c0.1295 0.093 0.2178 0.2326 0.2464 0.3894 0.0286 0.1569-0.0049 0.3187-0.0933 0.4513l-2.3167 3.4779h3.2954c0.4938 0 0.7578 0.5567 0.4965 0.95l-2e-4 2e-4 -2.9492 4.427c-0.0433 0.0664-0.0994 0.1234-0.165 0.1677-0.0662 0.0447-0.1407 0.0755-0.2191 0.0907s-0.1591 0.0144-0.2372-0.0024c-0.078-0.0168-0.1519-0.0491-0.2172-0.0951l-0.0019-0.0014c-0.1297-0.0931-0.218-0.2331-0.2463-0.3903-0.0283-0.1569 0.0055-0.3188 0.0943-0.4513 0-1e-4 1e-4 -3e-4 2e-4 -4e-4l2.3156-3.4772h-3.2947c-0.494 0-0.7591-0.5563-0.4963-0.9502l3.7887-4.5859zm0 0-0.0015-0.0011c-0.0652-0.046-0.139-0.0785-0.217-0.0953-0.0781-0.0169-0.1587-0.0178-0.2371-0.0028-0.0784 0.0151-0.1529 0.0458-0.2192 0.0903-0.0658 0.0443-0.122 0.1013-0.1654 0.1676l-2.9484 4.4269 3.7886-4.5856z" fill="#fff" stroke="#fff" stroke-width=".5"/>
    <defs>
        <filter id="filter0_f" x="3.3837" y="3.5974" width="34.319" height="33.893" color-interpolation-filters="sRGB" filterUnits="userSpaceOnUse">
            <feFlood flood-opacity="0" result="BackgroundImageFix"/>
            <feBlend in="SourceGraphic" in2="BackgroundImageFix" result="shape"/>
            <feGaussianBlur result="effect1_foregroundBlur" stdDeviation="0.352455"/>
        </filter>
    </defs>
</svg>
