<?xml version="1.0" encoding="UTF-8"?>
<svg version="1.1" viewBox="0 0 28.747 28.747" xmlns="http://www.w3.org/2000/svg" xmlns:osb="http://www.openswatchbook.org/uri/2009/osb" xmlns:xlink="http://www.w3.org/1999/xlink">
    <defs>
        <filter id="filter6206-7" color-interpolation-filters="sRGB">
            <feGaussianBlur stdDeviation="0.658125"/>
        </filter>
    </defs>
    <g transform="translate(0 -1093.8)">
        <path transform="matrix(1.0781 0 0 1.0641 -.093733 2.7509)" d="m4.4177 1028.2v1.6051h-1.6052v18.192h1.6052v2.1402h18.192v-2.1402h2.1402v-18.192h-2.1402v-1.6051z" fill="#3e2723" filter="url(#filter6206-7)" opacity=".2"/>
        <rect x="2.9987" y="1096.8" width="22.749" height="22.749" rx="1.1973" ry="1.1974" fill="#e91e63"/>
        <g transform="translate(-22.32 1056.5)">
            <path d="m0 0h51.2v51.2h-51.2z" fill="none" stroke-width="1.0667"/>
            <g transform="matrix(.33601 0 0 .33601 1.5296 73.043)">
                <path d="m0 0h51.2v51.2h-51.2z" fill="none" stroke-width="1.0667"/>
            </g>
            <g transform="matrix(.37187 0 0 .37187 38.802 63.239)">
                <path d="m0 0h51.2v51.2h-51.2z" fill="none" stroke-width="1.0667"/>
                <g transform="matrix(2.6891 0 0 2.6891 -82.906 -48.45)">
                    <path d="m0 0h51.2v51.2h-51.2z" fill="none" stroke-width="1.0667"/>
                </g>
            </g>
        </g>
        <path d="m4.1958 1096.8c-0.66332 0-1.1979 0.5346-1.1979 1.1979v0.3334c0-0.6634 0.53459-1.1979 1.1979-1.1979h20.354c0.66332 0 1.1979 0.5345 1.1979 1.1979v-0.3334c0-0.6633-0.5346-1.1979-1.1979-1.1979z" fill="#fff" opacity=".2"/>
        <rect x="128" y="546.52" width="42.667" height="42.667" fill="none" stroke-width="1.0667"/>
        <rect x="128" y="631.85" width="42.667" height="42.667" fill="none" stroke-width="1.0667"/>
        <rect x="128" y="674.52" width="42.667" height="42.667" fill="none" stroke-width="1.0667"/>
        <rect x="128" y="589.19" width="42.667" height="42.667" fill="none" stroke-width="1.0667"/>
        <rect x="128" y="717.19" width="42.667" height="42.667" fill="none" stroke-width="1.0667"/>
        <rect x="213.33" y="546.52" width="42.667" height="42.667" fill="none" stroke-width="1.0667"/>
        <rect x="213.33" y="631.85" width="42.667" height="42.667" fill="none" stroke-width="1.0667"/>
        <rect x="213.33" y="674.52" width="42.667" height="42.667" fill="none" stroke-width="1.0667"/>
        <rect x="213.33" y="589.19" width="42.667" height="42.667" fill="none" stroke-width="1.0667"/>
        <rect x="213.33" y="717.19" width="42.667" height="42.667" fill="none" stroke-width="1.0667"/>
        <rect x="298.67" y="546.52" width="42.667" height="42.667" fill="none" stroke-width="1.0667"/>
        <rect x="298.67" y="631.85" width="42.667" height="42.667" fill="none" stroke-width="1.0667"/>
        <rect x="298.67" y="674.52" width="42.667" height="42.667" fill="none" stroke-width="1.0667"/>
        <rect x="298.67" y="589.19" width="42.667" height="42.667" fill="none" stroke-width="1.0667"/>
        <rect x="298.67" y="717.19" width="42.667" height="42.667" fill="none" stroke-width="1.0667"/>
        <rect x="170.67" y="546.52" width="42.667" height="42.667" fill="none" stroke-width="1.0667"/>
        <rect x="170.67" y="631.85" width="42.667" height="42.667" fill="none" stroke-width="1.0667"/>
        <rect x="170.67" y="674.52" width="42.667" height="42.667" fill="none" stroke-width="1.0667"/>
        <rect x="170.67" y="589.19" width="42.667" height="42.667" fill="none" stroke-width="1.0667"/>
        <rect x="170.67" y="717.19" width="42.667" height="42.667" fill="none" stroke-width="1.0667"/>
        <rect x="256" y="546.52" width="42.667" height="42.667" fill="none" stroke-width="1.0667"/>
        <rect x="256" y="631.85" width="42.667" height="42.667" fill="none" stroke-width="1.0667"/>
        <rect x="256" y="674.52" width="42.667" height="42.667" fill="none" stroke-width="1.0667"/>
        <rect x="256" y="589.19" width="42.667" height="42.667" fill="none" stroke-width="1.0667"/>
        <rect x="256" y="717.19" width="42.667" height="42.667" fill="none" stroke-width="1.0667"/>
        <rect x="128" y="759.85" width="42.667" height="42.667" fill="none" stroke-width="1.0667"/>
        <rect x="213.33" y="759.85" width="42.667" height="42.667" fill="none" stroke-width="1.0667"/>
        <rect x="298.67" y="759.85" width="42.667" height="42.667" fill="none" stroke-width="1.0667"/>
        <rect x="170.67" y="759.85" width="42.667" height="42.667" fill="none" stroke-width="1.0667"/>
        <rect x="256" y="759.85" width="42.667" height="42.667" fill="none" stroke-width="1.0667"/>
        <rect x="341.33" y="589.19" width="42.667" height="42.667" fill="none" stroke-width="1.0667"/>
        <rect x="341.33" y="631.85" width="42.667" height="42.667" fill="none" stroke-width="1.0667"/>
        <rect x="341.33" y="717.19" width="42.667" height="42.667" fill="none" stroke-width="1.0667"/>
        <rect x="341.33" y="546.52" width="42.667" height="42.667" fill="none" stroke-width="1.0667"/>
        <rect x="341.33" y="674.52" width="42.667" height="42.667" fill="none" stroke-width="1.0667"/>
        <rect x="341.33" y="759.85" width="42.667" height="42.667" fill="none" stroke-width="1.0667"/>
        <rect x="160" y="578.52" width="192" height="192" fill="none" stroke-width="1.0667"/>
        <g transform="matrix(.37344 0 0 .37344 4.7333 1097.4)">
            <path d="m0 0h51.2v51.2h-51.2z" fill="none" stroke-width="1.0667"/>
        </g>
        <g transform="matrix(.36471 0 0 .36471 5.1356 1097.4)">
            <path d="m0 0h51.2v51.2h-51.2z" fill="none" stroke-width="1.0667"/>
        </g>
        <g transform="matrix(.41585 0 0 .41585 84.325 1055.9)">
            <g transform="matrix(.062269 0 0 .062269 -28.238 185.29)">
                <g transform="matrix(38.618 0 0 38.618 14724 -13542)">
                    <g transform="matrix(.71436 0 0 .71436 -400.52 188.34)">
                        <path d="m1293.2-120.67c-181.75 0.2763-511.18 0.13525-699.05 0.13998-2.3216 10.413-3.593 21.251-3.593 32.384v114c207.65 0.73695 494.72 0.38136 706.23 0.3733v-114.37c0-11.18-1.2522-22.07-3.593-32.523zm-458.69 295.56c-78.385-4e-3 -158.85 0.17892-243.95 0.55995v138.63c286.34-0.39317 421.73-0.13827 706.23-0.32664v-137.75c-163.2-0.53005-311.22-1.1113-462.28-1.1199z" opacity="0" stroke-width="1.4932"/>
                    </g>
                </g>
            </g>
        </g>
        <path d="m24.549 1119.5c0.66325 0 1.1979-0.5346 1.1979-1.1979v-0.3333c0 0.6632-0.53461 1.1978-1.1979 1.1978h-20.354c-0.66325 0-1.1979-0.5346-1.1979-1.1978v0.3333c0 0.6633 0.53461 1.1979 1.1979 1.1979z" fill="#3e2723" opacity=".2"/>
    </g>
    <g>
        <flowRoot fill="#000000" font-family="Roboto" font-size="12.8px" letter-spacing="0px" stroke-width="1.0667px" word-spacing="0px" style="line-height:0.01%" xml:space="preserve"><flowRegion><rect x="11.375" y="11.984" width="4.7893" height="5.388" stroke-width="1.1378px"/></flowRegion><flowPara font-size="4px" style="line-height:1.25">your</flowPara></flowRoot>
        <path d="m14.413 8.0396c-1.521-0.00161-3.0434-5.129e-4 -4.1938 0.00438-0.5752 0.00244-1.0575 0.00672-1.4001 0.010943-0.17131 0.00211-0.3086 0.00398-0.40473 0.00656-0.048064 0.0013-0.085895 0.0029-0.11376 0.00438-0.013933 7.362e-4 -0.025301 0.00127-0.035003 0.00218-0.00485 4.595e-4 -0.00822 0.00143-0.013127 0.00218-0.00245 3.756e-4 -0.00548-7.189e-4 -0.00875 0-0.00328 7.189e-4 -0.01263 0.00419-0.013127 0.00438-0.058702 0.022528-0.10014 0.084834-0.11595 0.15314-0.015813 0.068306-0.019689 0.15385-0.019689 0.28003 0 0.091732 0.00425 0.1784 0.010943 0.24721 0.00335 0.034405 0.00584 0.064486 0.010943 0.089696 0.00241 0.011923 0.00719 0.023755 0.010943 0.035003 2.142e-4 6.439e-4 -2.22e-4 0.00155 0 0.00218l-0.00218 0.015314 0.017502 0.015314 0.010943 0.013127c7.52e-5 7.51e-5 0.023905 0.017427 0.024064 0.017502 1.595e-4 7.49e-5 0.010697 0.0043 0.010943 0.00438 4.872e-4 1.488e-4 0.00817 0.00169 0.010943 0.00218 0.00553 9.959e-4 0.00894 0.00178 0.013127 0.00218 0.00838 8.205e-4 0.018794 0.00159 0.030628 0.00218 0.023667 0.0012 0.055745 0.00113 0.098447 0.00218 0.085403 0.00211 0.21106 0.00481 0.36972 0.00656 0.31734 0.00351 0.77305 0.00678 1.3345 0.00875 1.1229 0.00394 2.6662 0.00363 4.3601 0l6.2372-0.013126 0.01969-0.41129c0.0056-0.11859 0.0054-0.20913-0.0044-0.28003-0.0097-0.070902-0.02487-0.13231-0.08532-0.17064-3.01e-4 -1.912e-4 -0.01956-0.00966-0.02406-0.010943-0.0045-0.00129-6e-3 -0.00168-0.0087-0.00218-0.0055-0.00101-0.01064-0.00168-0.01531-0.00218-0.0094-0.00101-0.01953-0.00141-0.03282-0.00218-0.02656-0.00155-0.06485-0.00298-0.11157-0.00438-0.09345-0.0028-0.22699-0.00627-0.39598-0.00875-0.33797-0.00495-0.81492-0.00946-1.387-0.013127-1.1442-0.00733-2.6641-0.011513-4.1851-0.013127zm4.3601 1.8092c-0.19244 0.051592-0.36666 0.18342-0.51411 0.38066-0.05482 0.07332-0.09067 0.15911-0.10939 0.34128-0.01872 0.18218-0.02738 0.47396-0.03938 1.0063-0.0092 0.4083-0.02211 0.70645-0.03719 0.91009-0.0075 0.10182-0.015 0.18038-0.02406 0.23627-0.0091 0.05589-0.02316 0.0903-0.02406 0.09188-0.06414 0.11245-0.24636 0.15822-0.41348 0.20346-0.2083 0.03429-0.39418 0.02499-0.57537-0.11595-0.11095-0.10532-0.17904-0.19282-0.21877-0.39379-0.04274-0.21624-0.05675-0.55352-0.05688-1.1179-9e-5 -0.402-0.0025-0.63086-0.01751-0.78539-0.01503-0.15453-0.04813-0.24344-0.09845-0.32597-0.16606-0.27239-0.43207-0.41434-0.70663-0.41348-0.27456 8.625e-4 -0.55487 0.1439-0.75476 0.41348-0.02825 0.03811-0.05604 0.08237-0.07439 0.14876-0.01834 0.0664-0.03044 0.15299-0.03938 0.29097-0.01787 0.27596-0.02465 0.76187-0.03719 1.6955-0.01419 1.057-0.02123 1.5859-0.06126 1.8596-0.02002 0.13685-0.04778 0.20373-0.08095 0.2494-0.03316 0.04567-0.0796 0.07802-0.15751 0.12908-8e-3 0.0052-0.03158 4e-3 -0.04157 0.0087-0.28617 0.12636-0.5981 0.04911-0.83133-0.19471-0.02891-0.04335-0.05734-0.08769-0.07657-0.18158-0.04671-0.22803-0.06123-0.6515-0.08094-1.4658-0.02043-0.84351-0.03051-1.274-0.09188-1.538-0.03069-0.13198-0.07715-0.22713-0.14658-0.29753-0.06942-0.0704-0.15343-0.11354-0.25378-0.16408-0.2867-0.14441-0.55216-0.1283-0.84227 0.04813-0.08522 0.05182-0.16287 0.09549-0.22315 0.18377-0.06027 0.08828-0.09519 0.20924-0.11814 0.40691-0.0459 0.39536-0.0495 1.1221-0.06126 2.6078-0.01008 1.2667-0.01695 1.9391-0.03282 2.3124-8e-3 0.18668-0.0178 0.29839-0.03062 0.36754-0.01284 0.06914-0.02548 0.09331-0.04595 0.12689-0.08939 0.14675-0.2743 0.25012-0.47255 0.28003-0.19825 0.02991-0.40204-0.01347-0.52505-0.12689-0.06954-0.0641-0.11003-0.10306-0.1422-0.16845-0.17581-0.98782-0.10926-2.0429-0.10939-2.8025-1.63e-4 -1.2152-0.0022-1.8609-0.01531-2.2227-0.0066-0.18093-0.01554-0.29003-0.03062-0.36972-0.01509-0.0797-0.03895-0.13235-0.06563-0.17283-0.34238-0.51932-1.1194-0.50805-1.4417 0.02188-0.04763 0.07834-0.076468 0.17403-0.09626 0.34785-0.019791 0.17381-0.033065 0.43237-0.04813 0.85321-0.02146 0.59938-0.042907 0.90921-0.11157 1.0698-0.034334 0.08029-0.074963 0.1268-0.14439 0.17064-0.069425 0.04384-0.16911 0.08122-0.30628 0.12908l-0.19908 0.07001v2.8178c0 1.4802 3.77e-4 2.2267 0.035003 2.6559 0.034627 0.42919 0.11707 0.55969 0.25159 0.74164 0.13272 0.17951 0.36527 0.32566 0.59068 0.4091l0.00218 0.01969 0.052505 0.01751c0.016199 0.0049 0.021798 0.0035 0.030628 0.0044 0.00883 9.26e-4 0.018594 0.0015 0.030628 0.0022 0.024069 0.0016 0.056291 3e-3 0.09626 0.0044 0.079937 0.0027 0.1913 0.0064 0.33253 0.0087 0.28246 0.0047 0.68025 0.0078 1.1661 0.01098 0.9716 0.0063 2.2933 0.0091 3.7279 0.0066l5.2374-0.0089 0.25815-0.15095c0.29036-0.1707 0.51519-0.46734 0.60381-0.79633 0.01609-0.05972 0.01918-0.14669 0.02626-0.30409 0.0071-0.1574 0.01277-0.3756 0.01751-0.65194 0.0094-0.55266 0.01521-1.3415 0.01531-2.3627v-3.1525l-0.28003-0.07439c-0.09928-0.02674-0.25876-0.1212-0.31722-0.18377-0.06101-0.06531-0.08236-0.09196-0.10283-0.17939-0.02046-0.08743-0.03251-0.23631-0.04813-0.50755-0.01856-0.32191-0.0349-0.85791-0.035-1.1857-1.44e-4 -0.36176-0.01396-0.59495-0.08313-0.77226-0.06918-0.17731-0.19851-0.28641-0.38285-0.38504-0.20017-0.10709-0.40699-0.1391-0.59944-0.087514zm-0.38066 0.47911c-13.402 13.408-6.701 6.7041 0 0zm-8.624 0.74163 3e-6 -1e-6zm-0.7657 2.0936c-0.00347 0.04972-0.00679 0.16099-0.010943 0.19908-0.00478 0.04394-0.014117 0.04568-0.019689 0.07657 0.015845-0.06305 0.021019-0.19377 0.030628-0.27565z" color="#000000" color-rendering="auto" dominant-baseline="auto" fill="#fffff6" image-rendering="auto" shape-rendering="auto" solid-color="#000000" style="font-feature-settings:normal;font-variant-alternates:normal;font-variant-caps:normal;font-variant-ligatures:normal;font-variant-numeric:normal;font-variant-position:normal;isolation:auto;mix-blend-mode:normal;shape-padding:0;text-decoration-color:#000000;text-decoration-line:none;text-decoration-style:solid;text-indent:0;text-orientation:mixed;text-transform:none;white-space:normal"/>
    </g>
</svg>
