<?xml version="1.0" encoding="UTF-8"?>
<svg version="1.1" viewBox="0 0 26.95 26.95" xmlns="http://www.w3.org/2000/svg" xmlns:osb="http://www.openswatchbook.org/uri/2009/osb" xmlns:xlink="http://www.w3.org/1999/xlink">
    <defs>
        <filter id="filter6206-7" color-interpolation-filters="sRGB">
            <feGaussianBlur stdDeviation="0.658125"/>
        </filter>
    </defs>
    <g transform="translate(0 -1025.4)">
        <path transform="matrix(1.0107 0 0 .99762 -.087875 2.579)" d="m4.4177 1028.2v1.6051h-1.6052v18.192h1.6052v2.1402h18.192v-2.1402h2.1402v-18.192h-2.1402v-1.6051h-18.192z" fill="#1a237e" filter="url(#filter6206-7)" opacity=".2"/>
        <rect x="2.8113" y="1028.2" width="21.327" height="21.327" rx="1.1225" ry="1.1226" fill="#2196f3"/>
        <g transform="translate(-20.925 990.46)">
            <path d="m0 0h48v48h-48z" fill="none"/>
            <g transform="matrix(.33601 0 0 .33601 1.434 68.477)">
                <path d="m0 0h48v48h-48z" fill="none"/>
            </g>
            <g transform="matrix(.37187 0 0 .37187 36.377 59.287)">
                <path d="m0 0h48v48h-48z" fill="none"/>
                <g transform="matrix(2.6891 0 0 2.6891 -77.724 -45.422)">
                    <path d="m0 0h48v48h-48z" fill="none"/>
                </g>
            </g>
        </g>
        <path transform="translate(0 1025.4)" d="m3.9336 2.8105c-0.62186 0-1.123 0.50115-1.123 1.123v0.3125c0-0.6219 0.50118-1.123 1.123-1.123h19.082c0.62186 0 1.123 0.50115 1.123 1.123v-0.3125c0-0.6219-0.50118-1.123-1.123-1.123h-19.082z" fill="#fff" opacity=".2"/>
        <rect x="120" y="512.36" width="40" height="40" fill="none"/>
        <rect x="120" y="592.36" width="40" height="40" fill="none"/>
        <rect x="120" y="632.36" width="40" height="40" fill="none"/>
        <rect x="120" y="552.36" width="40" height="40" fill="none"/>
        <rect x="120" y="672.36" width="40" height="40" fill="none"/>
        <rect x="200" y="512.36" width="40" height="40" fill="none"/>
        <rect x="200" y="592.36" width="40" height="40" fill="none"/>
        <rect x="200" y="632.36" width="40" height="40" fill="none"/>
        <rect x="200" y="552.36" width="40" height="40" fill="none"/>
        <rect x="200" y="672.36" width="40" height="40" fill="none"/>
        <rect x="280" y="512.36" width="40" height="40" fill="none"/>
        <rect x="280" y="592.36" width="40" height="40" fill="none"/>
        <rect x="280" y="632.36" width="40" height="40" fill="none"/>
        <rect x="280" y="552.36" width="40" height="40" fill="none"/>
        <rect x="280" y="672.36" width="40" height="40" fill="none"/>
        <rect x="160" y="512.36" width="40" height="40" fill="none"/>
        <rect x="160" y="592.36" width="40" height="40" fill="none"/>
        <rect x="160" y="632.36" width="40" height="40" fill="none"/>
        <rect x="160" y="552.36" width="40" height="40" fill="none"/>
        <rect x="160" y="672.36" width="40" height="40" fill="none"/>
        <rect x="240" y="512.36" width="40" height="40" fill="none"/>
        <rect x="240" y="592.36" width="40" height="40" fill="none"/>
        <rect x="240" y="632.36" width="40" height="40" fill="none"/>
        <rect x="240" y="552.36" width="40" height="40" fill="none"/>
        <rect x="240" y="672.36" width="40" height="40" fill="none"/>
        <rect x="120" y="712.36" width="40" height="40" fill="none"/>
        <rect x="200" y="712.36" width="40" height="40" fill="none"/>
        <rect x="280" y="712.36" width="40" height="40" fill="none"/>
        <rect x="160" y="712.36" width="40" height="40" fill="none"/>
        <rect x="240" y="712.36" width="40" height="40" fill="none"/>
        <rect x="320" y="552.36" width="40" height="40" fill="none"/>
        <rect x="320" y="592.36" width="40" height="40" fill="none"/>
        <rect x="320" y="672.36" width="40" height="40" fill="none"/>
        <rect x="320" y="512.36" width="40" height="40" fill="none"/>
        <rect x="320" y="632.36" width="40" height="40" fill="none"/>
        <rect x="320" y="712.36" width="40" height="40" fill="none"/>
        <rect x="150" y="542.36" width="180" height="180" fill="none"/>
        <g transform="matrix(.37344 0 0 .37344 4.4375 1028.8)">
            <path d="m0 0h48v48h-48z" fill="none"/>
        </g>
        <g transform="matrix(.36471 0 0 .36471 4.8146 1028.8)">
            <path d="m0 0h48v48h-48z" fill="none"/>
        </g>
        <g transform="matrix(.41585 0 0 .41585 79.055 989.88)">
            <g transform="matrix(.062269 0 0 .062269 -26.473 173.71)">
                <g transform="matrix(38.618 0 0 38.618 13804 -12696)">
                    <g transform="matrix(.71436 0 0 .71436 -375.49 176.57)">
                        <path transform="matrix(1.3999 0 0 1.3999 525.63 -247.17)" d="m490.56 95.75c-121.72 0.18504-342.34 0.090577-468.16 0.09375-1.5548 6.9739-2.4062 14.232-2.4062 21.688v76.344c139.06 0.49354 331.32 0.2554 472.97 0.25v-76.594c0-7.4875-0.8386-14.78-2.4062-21.781zm-307.19 197.94c-52.495-3e-3 -106.38 0.11982-163.38 0.375v92.844c191.76-0.26331 282.43-0.0926 472.97-0.21875v-92.25c-109.29-0.35498-208.43-0.74426-309.59-0.75z" opacity="0"/>
                    </g>
                </g>
            </g>
        </g>
        <path d="m23.015 1049.6c0.6218 0 1.123-0.5012 1.123-1.123v-0.3125c0 0.6218-0.5012 1.123-1.123 1.123h-19.082c-0.6218 0-1.123-0.5012-1.123-1.123v0.3125c0 0.6218 0.5012 1.123 1.123 1.123h19.082z" fill="#1a237e" opacity=".2"/>
    </g>
    <g>
        <flowRoot fill="#000000" font-family="Roboto" font-size="3.75px" letter-spacing="0px" stroke-width="1px" word-spacing="0px" style="line-height:125%" xml:space="preserve"><flowRegion><rect x="10.664" y="11.235" width="4.49" height="5.0512"/></flowRegion><flowPara>your</flowPara></flowRoot>
        <g transform="matrix(.024861 0 0 .022192 4.2273 1.7972)" fill="#fff">
            <path d="m509.38 222.47c-95.959 0.87389-191.98-0.88906-287.94 0.875-38.37 4.9735-68.518 43.26-64.279 81.781 0.25404 153.41-0.93164 306.85 0.5906 460.24 5.0137 38.261 43.233 68.584 81.782 64.228 93.654 0.0648 187.33 0.56679 280.97-0.28304 37.683-3.895 69.035-39.852 66.528-77.938 0.0218-148.9 0.0413-297.82 3e-3 -446.72 1.2845-21.534-5.7096-43.742-21.225-58.907-14.495-14.982-35.451-23.984-56.431-23.28zm-0.1875 59.125c8.4837-0.11897 18.335 6.8416 16.274 16.062 1.1648 47.084 1.454 94.185 1.6319 141.28-30.706 6.3424-60.666 16.068-90.156 26.656-29.391-25.502-57.462-54.783-94.375-68.938-14.964-2.0188-27.1 12.646-27.656 26.625-6.6636 34.913-5.3573 70.7-5.1562 106.09-32.784 18.914-68.219 36.203-93.219 65.375-0.0887-97.475 1.7991-194.99-0.4375-292.44 0.2011-7.3835 3.5928-18.256 12.719-17.562 60.662-3.7994 121.54-2.666 182.31-2.1085 32.69 0.25337 65.392 0.20805 98.063-1.0477zm-141 200c17.547 14.946 33.117 33.92 54.906 42.844 20.565 3.526 39.314-8.0876 58.625-12.688 6.5092-1.9824 13.942-5.1454 19.844-6.4375-8.8292 21.691-22.279 42.161-25.969 65.469 2.2172 18.737 17.472 31.634 26.423 47.228 5.0818 7.1815 10.197 14.34 15.233 21.553-24.583-1.9573-49.033-5.326-73.625-7.1875-16.09 22.033-30.8 45.237-47.281 66.875-5.5022-23.167-7.7624-47.778-17.188-69.938-12.556-13.601-32.882-12.992-49.043-19.692-9.433-2.9086-20.42-5.77-28.738-9.1834 19.927-12.116 42.805-20.885 58.844-38.25 11.198-18.264 5.7969-40.685 7.3125-60.938 0.0317-6.729-0.12492-13.46 0.0312-20.188l0.625 0.53125zm-151.22 138.91c5.6376 9.516 16.77 13.258 25.781 18.781 26.533 12.968 55.266 20.802 83.43 29.571 7.6006-0.23046 5.7001 8.4065 7.6015 13.46 6.1497 29.772 12.132 60.074 25.812 87.406-41.504-0.59453-83.078-1.0855-124.53 0.75-7.6568-0.68731-17.837-5.1649-15.99-14.652-1.6332-45.305-2.3182-90.64-2.4784-135.97l0.375 0.65625zm256.88 72.656c17.355 3.0317 35.3 3.5263 52.938 4.8125-0.7145 20.034 2.7223 40.461-0.46875 60.25-1.8828 6.1957-8.2836 10.83-14.748 9.1555-33.227 2.0804-66.529 2.6332-99.814 2.657 22.729-22.671 40.49-49.875 59.375-75.688 0.77699-0.66873 1.6677-1.0948 2.7188-1.1875z" fill="#fff"/>
        </g>
    </g>
    <g display="none" fill="none">
        <rect transform="rotate(90)" x="7.3342" y="-19.616" width="12.282" height="12.282" display="inline" stroke="#000" stroke-width=".065984"/>
        <rect x="6.7726" y="8.112" width="13.405" height="10.726" stroke="#5261ff" stroke-linecap="round" stroke-linejoin="round" stroke-width=".06524"/>
        <rect transform="rotate(90)" x="6.7726" y="-18.838" width="13.405" height="10.726" display="inline" stroke="#0f0" stroke-linecap="round" stroke-linejoin="round" stroke-width=".06524"/>
    </g>
</svg>
