<?xml version="1.0" encoding="UTF-8"?>
<svg version="1.1" viewBox="0 0 26.95 26.95" xmlns="http://www.w3.org/2000/svg">
    <defs>
        <filter id="filter6206-7" color-interpolation-filters="sRGB">
            <feGaussianBlur stdDeviation="0.658125"/>
        </filter>
    </defs>
    <g transform="translate(0 -1025.4)">
        <path transform="matrix(1.0107 0 0 .99762 -.087875 2.579)" d="m4.4177 1028.2v1.6051h-1.6052v18.192h1.6052v2.1402h18.192v-2.1402h2.1402v-18.192h-2.1402v-1.6051h-18.192z" fill="#263238" filter="url(#filter6206-7)" opacity=".2"/>
        <rect x="2.8113" y="1028.2" width="21.327" height="21.327" rx="1.1225" ry="1.1226" fill="#03a9f4"/>
        <g transform="translate(-20.925 990.46)">
            <path d="m0 0h48v48h-48z" fill="none"/>
            <g transform="matrix(.33601 0 0 .33601 1.434 68.477)">
                <path d="m0 0h48v48h-48z" fill="none"/>
            </g>
            <g transform="matrix(.37187 0 0 .37187 36.377 59.287)">
                <path d="m0 0h48v48h-48z" fill="none"/>
                <g transform="matrix(2.6891 0 0 2.6891 -77.724 -45.422)">
                    <path d="m0 0h48v48h-48z" fill="none"/>
                </g>
            </g>
        </g>
        <path transform="translate(0 1025.4)" d="m3.9336 2.8105c-0.62186 0-1.123 0.50115-1.123 1.123v0.3125c0-0.6219 0.50118-1.123 1.123-1.123h19.082c0.62186 0 1.123 0.50115 1.123 1.123v-0.3125c0-0.6219-0.50118-1.123-1.123-1.123h-19.082z" fill="#fff" opacity=".2"/>
        <rect x="120" y="512.36" width="40" height="40" fill="none"/>
        <rect x="120" y="592.36" width="40" height="40" fill="none"/>
        <rect x="120" y="632.36" width="40" height="40" fill="none"/>
        <rect x="120" y="552.36" width="40" height="40" fill="none"/>
        <rect x="120" y="672.36" width="40" height="40" fill="none"/>
        <rect x="200" y="512.36" width="40" height="40" fill="none"/>
        <rect x="200" y="592.36" width="40" height="40" fill="none"/>
        <rect x="200" y="632.36" width="40" height="40" fill="none"/>
        <rect x="200" y="552.36" width="40" height="40" fill="none"/>
        <rect x="200" y="672.36" width="40" height="40" fill="none"/>
        <rect x="280" y="512.36" width="40" height="40" fill="none"/>
        <rect x="280" y="592.36" width="40" height="40" fill="none"/>
        <rect x="280" y="632.36" width="40" height="40" fill="none"/>
        <rect x="280" y="552.36" width="40" height="40" fill="none"/>
        <rect x="280" y="672.36" width="40" height="40" fill="none"/>
        <rect x="160" y="512.36" width="40" height="40" fill="none"/>
        <rect x="160" y="592.36" width="40" height="40" fill="none"/>
        <rect x="160" y="632.36" width="40" height="40" fill="none"/>
        <rect x="160" y="552.36" width="40" height="40" fill="none"/>
        <rect x="160" y="672.36" width="40" height="40" fill="none"/>
        <rect x="240" y="512.36" width="40" height="40" fill="none"/>
        <rect x="240" y="592.36" width="40" height="40" fill="none"/>
        <rect x="240" y="632.36" width="40" height="40" fill="none"/>
        <rect x="240" y="552.36" width="40" height="40" fill="none"/>
        <rect x="240" y="672.36" width="40" height="40" fill="none"/>
        <rect x="120" y="712.36" width="40" height="40" fill="none"/>
        <rect x="200" y="712.36" width="40" height="40" fill="none"/>
        <rect x="280" y="712.36" width="40" height="40" fill="none"/>
        <rect x="160" y="712.36" width="40" height="40" fill="none"/>
        <rect x="240" y="712.36" width="40" height="40" fill="none"/>
        <rect x="320" y="552.36" width="40" height="40" fill="none"/>
        <rect x="320" y="592.36" width="40" height="40" fill="none"/>
        <rect x="320" y="672.36" width="40" height="40" fill="none"/>
        <rect x="320" y="512.36" width="40" height="40" fill="none"/>
        <rect x="320" y="632.36" width="40" height="40" fill="none"/>
        <rect x="320" y="712.36" width="40" height="40" fill="none"/>
        <rect x="150" y="542.36" width="180" height="180" fill="none"/>
        <g transform="matrix(.37344 0 0 .37344 4.4375 1028.8)">
            <path d="m0 0h48v48h-48z" fill="none"/>
        </g>
        <g transform="matrix(.36471 0 0 .36471 4.8146 1028.8)">
            <path d="m0 0h48v48h-48z" fill="none"/>
        </g>
        <g transform="matrix(.41585 0 0 .41585 79.055 989.88)">
            <g transform="matrix(.062269 0 0 .062269 -26.473 173.71)">
                <g transform="matrix(38.618 0 0 38.618 13804 -12696)">
                    <g transform="matrix(.71436 0 0 .71436 -375.49 176.57)">
                        <path transform="matrix(1.3999 0 0 1.3999 525.63 -247.17)" d="m490.56 95.75c-121.72 0.18504-342.34 0.090577-468.16 0.09375-1.5548 6.9739-2.4062 14.232-2.4062 21.688v76.344c139.06 0.49354 331.32 0.2554 472.97 0.25v-76.594c0-7.4875-0.8386-14.78-2.4062-21.781zm-307.19 197.94c-52.495-3e-3 -106.38 0.11982-163.38 0.375v92.844c191.76-0.26331 282.43-0.0926 472.97-0.21875v-92.25c-109.29-0.35498-208.43-0.74426-309.59-0.75z" opacity="0"/>
                    </g>
                </g>
            </g>
        </g>
        <path d="m23.015 1049.6c0.6218 0 1.123-0.5012 1.123-1.123v-0.3125c0 0.6218-0.5012 1.123-1.123 1.123h-19.082c-0.6218 0-1.123-0.5012-1.123-1.123v0.3125c0 0.6218 0.5012 1.123 1.123 1.123h19.082z" fill="#263238" opacity=".2"/>
    </g>
    <flowRoot fill="#000000" font-family="Roboto" font-size="3.75px" letter-spacing="0px" stroke-width="1px" word-spacing="0px" style="line-height:125%" xml:space="preserve"><flowRegion><rect x="10.664" y="11.235" width="4.49" height="5.0512"/></flowRegion><flowPara>your</flowPara></flowRoot>
    <path d="m17.163 13.13c-0.06982 0.31444-0.07576 0.82015-0.10602 0.9302 0 0-0.04043 0.51527-0.25 0.91944-0.14682 0.28316-0.35362 0.38658-0.35362 0.38658s-0.04283 0.10676-0.05675 0.2003c-0.01377 0.09261-0.02042 0.15993-0.02042 0.15993s0.17293-0.04165 0.26165-0.06929 0.27899-0.08231 0.46395 0.04565c0.23741 0.16423 0.22251 0.62304 0.22251 0.62304 0.0055 0.9123-0.48953 2.1528-0.48953 2.1528-0.21139 0.11682-0.40648-0.05225-0.51734-0.14463-0.05841-0.04867-0.14412-0.19325-0.18722-0.27186l0.18546 1.1406s0.02722 0.08787-0.09988 0.16825c-0.1271 0.08039-0.5775 0.08968-0.62756 0.08968-0.1383-5.8e-5 -0.20816-0.0208-0.25115-0.05466-0.03121-0.02457-0.11061-0.1646-0.1489-0.32938-0.05745-0.20832-0.10021-0.60588-0.10021-0.86734 0-0.26145 0.05881-0.73849 0.14781-1.0278 0.0995-0.32341 0.04467-0.18828 0.31207-0.7729-0.26107-0.09509-0.32072-0.40546-0.32072-0.40546-0.93455 0.37271-1.4964 0.07232-1.4964 0.07232-0.50065 0.90118-0.42834 1.0792-0.45059 1.5075-0.02226 0.42834 0.38383 1.4741 0.40608 1.5409 0.02225 0.06675 0.0871 0.17684 0.06523 0.23769-0.02185 0.06085-0.13756 0.19621-0.63265 0.14058s-0.4657-0.09091-0.52847-0.1852c-0.06669-0.10017-0.17408-0.44564-0.17408-0.44564-0.73985-0.10012-0.83669-0.26454-0.86531-0.36146-0.02862-0.09691 0.04808-0.32268 0.09571-0.48721 0.07437-0.25684 0.97149-2.3366 0.97149-2.3366-0.3282-0.72317-0.21695-1.3629-0.21695-1.3629s0.06826-0.41604 0.20029-0.62792c0 0-0.03897-0.08969-0.12798-0.18982-0.08901-0.10012-0.27536-0.22426-0.40934-0.25668-0.26227-0.06346-0.38193-0.0071-0.59033 0.06827-0.48252 0.18403-0.90419 0.94788-1.0095 1.1907-0.10526 0.24284-0.27056 0.61281-0.39941 0.97249-0.13716 0.38288-0.2246 0.66227-0.32686 0.8883-0.1057 0.23364-0.38151 0.63261-0.4566 0.73552-0.082762 0.11341-0.27207 0.31017-0.48621 0.46425-0.15462 0.11125-0.29623 0.16306-0.49266 0.18626-0.32823 0.03877-0.5185 0.02883-0.71848-0.05882-0.35136-0.15402-0.40088-0.48549-0.40088-0.48549s-0.011728 0.03018 0.15115 0.06817c0.12362 0.02883 0.27708-1.74e-4 0.38457-0.05922 0.20257-0.11126 0.24198-0.16138 0.35962-0.30174 0.11093-0.13236 0.24716-0.30905 0.3776-0.48811 0.11752-0.16132 0.14598-0.22298 0.14598-0.22298-0.047698 0.07131-0.10151 0.14084-0.1627 0.18812-0.12238 0.09458-0.28459 0.16676-0.56086 0.22054-0.18441 0.0359-0.24476 0.05563-0.51178-0.02782-0.26699-0.083464-0.41247-0.28845-0.48068-0.40903-0.13645-0.24122-0.14233-0.40316-0.14233-0.40316s0.10013 0.01669 0.29483 0.08344c0.1947 0.06676 0.32264 0.02782 0.50622-0.05006 0.18357-0.07788 0.32821-0.45059 0.46728-0.7176 0.13907-0.26702 0.1947-0.57853 0.41721-1.0514 0.22251-0.47284 0.53093-0.87716 0.89561-1.2294 0.37843-0.3655 0.80619-0.72406 1.3073-0.88449 0.35507-0.11368 0.84555-0.09457 1.1181-0.02782 0.27258 0.06674 0.53959 0.22251 0.80661 0.46728 0.33708 0.30899 0.51554 0.92146 0.51554 0.92146 0.11244-0.05068 0.3676-0.09816 0.61927-0.09816s0.90966 0.17383 1.1404 0.15576c0.34496-0.02702 0.48651-0.04622 0.48651-0.04622 0.01141-0.11272 0.055-0.57893 0.04986-0.91124 0 0-0.24031-0.34778-0.38062-0.57164-0.14427-0.23019-0.24476-0.55696-0.3282-0.80728-0.08344-0.25033-0.12795-0.48396-0.14463-0.84555-0.01669-0.36158 0.02226-0.62303 0.12239-0.9123 0.10012-0.28927 0.20635-0.47597 0.20635-0.47597-0.02872-0.22749 0.06312-0.64024 0.12443-0.83825 0.06132-0.198 0.228-0.46069 0.27806-0.47738 0.02504-0.00835 0.30832 0.27461 0.35803 0.48124 0.07844-0.072483 0.60185-0.31399 0.94674-0.39743 0.34489-0.083442 0.63138-0.10291 0.82608-0.10847 0.53346 0.026327 1.1012 0.33394 1.4508 0.65472 0.06475 0.059523 0.15264 0.12651 0.15314 0.12533 0.28976 0.21682 0.6434 0.77754 0.81306 1.0751 0.17583 0.30842 0.413 1.1421 0.413 1.1421s-0.54802-0.71095-1.3884-0.97935c0.1312 0.28956 0.22998 0.60489 0.2578 0.77178 0.02782 0.16688 0.06868 0.32107 0.06743 0.48306-0.0012 0.15969-0.07988 0.40974-0.07988 0.40974 0.14411 0.03706 0.17049 0.03515 0.2359 0.07982 0.03051 0.14245-0.01387 0.27742-0.04473 0.35203-0.02279 0.05508-0.13977 0.21208-0.22877 0.23712-0.13388 0.03766-0.31365 0.03055-0.42797-0.05807-0.08828-0.06841-0.29059-0.27238-0.29059-0.27238s-0.0352-0.04087-0.07414 0.25395c-0.03894 0.29483 0.28648 0.65155 0.28648 0.65155-0.50622 0.20096-0.9568 0.13837-1.2378 0.08898-0.03816 0.21268-0.05296 0.38086-0.11956 0.68078zm-0.83998 4.2194s0.54505-0.99075 0.17221-0.98557c-0.10012 0.0014-0.14246 0.02206-0.1622 0.0067 0 0-0.19608 1.0737-0.20546 1.363 0.05308-0.13649 0.19545-0.38407 0.19545-0.38407z" fill="#fff"/>
    <g display="none" fill="none">
        <rect transform="rotate(90)" x="7.3342" y="-19.616" width="12.282" height="12.282" display="inline" stroke="#000" stroke-width=".065984"/>
        <rect x="6.7726" y="8.112" width="13.405" height="10.726" stroke="#5261ff" stroke-linecap="round" stroke-linejoin="round" stroke-width=".06524"/>
        <rect transform="rotate(90)" x="6.7726" y="-18.838" width="13.405" height="10.726" display="inline" stroke="#0f0" stroke-linecap="round" stroke-linejoin="round" stroke-width=".06524"/>
    </g>
</svg>
