<?xml version="1.0" encoding="UTF-8"?>
<svg version="1.1" viewBox="0 0 26.95 26.95" xmlns="http://www.w3.org/2000/svg">
    <defs>
        <filter id="filter6206-7" color-interpolation-filters="sRGB">
            <feGaussianBlur stdDeviation="0.658125"/>
        </filter>
    </defs>
    <g transform="translate(0 -1025.4)">
        <path transform="matrix(1.0107 0 0 .99762 -.087875 2.579)" d="m4.4177 1028.2v1.6051h-1.6052v18.192h1.6052v2.1402h18.192v-2.1402h2.1402v-18.192h-2.1402v-1.6051h-18.192z" fill="#3e2723" filter="url(#filter6206-7)" opacity=".2"/>
        <rect x="2.8113" y="1028.2" width="21.327" height="21.327" rx="1.1225" ry="1.1226" fill="#795548"/>
        <g transform="translate(-20.925 990.46)">
            <path d="m0 0h48v48h-48z" fill="none"/>
            <g transform="matrix(.33601 0 0 .33601 1.434 68.477)">
                <path d="m0 0h48v48h-48z" fill="none"/>
            </g>
            <g transform="matrix(.37187 0 0 .37187 36.377 59.287)">
                <path d="m0 0h48v48h-48z" fill="none"/>
                <g transform="matrix(2.6891 0 0 2.6891 -77.724 -45.422)">
                    <path d="m0 0h48v48h-48z" fill="none"/>
                </g>
            </g>
        </g>
        <path transform="translate(0 1025.4)" d="m3.9336 2.8105c-0.62186 0-1.123 0.50115-1.123 1.123v0.3125c0-0.6219 0.50118-1.123 1.123-1.123h19.082c0.62186 0 1.123 0.50115 1.123 1.123v-0.3125c0-0.6219-0.50118-1.123-1.123-1.123h-19.082z" fill="#fff" opacity=".2"/>
        <rect x="120" y="512.36" width="40" height="40" fill="none"/>
        <rect x="120" y="592.36" width="40" height="40" fill="none"/>
        <rect x="120" y="632.36" width="40" height="40" fill="none"/>
        <rect x="120" y="552.36" width="40" height="40" fill="none"/>
        <rect x="120" y="672.36" width="40" height="40" fill="none"/>
        <rect x="200" y="512.36" width="40" height="40" fill="none"/>
        <rect x="200" y="592.36" width="40" height="40" fill="none"/>
        <rect x="200" y="632.36" width="40" height="40" fill="none"/>
        <rect x="200" y="552.36" width="40" height="40" fill="none"/>
        <rect x="200" y="672.36" width="40" height="40" fill="none"/>
        <rect x="280" y="512.36" width="40" height="40" fill="none"/>
        <rect x="280" y="592.36" width="40" height="40" fill="none"/>
        <rect x="280" y="632.36" width="40" height="40" fill="none"/>
        <rect x="280" y="552.36" width="40" height="40" fill="none"/>
        <rect x="280" y="672.36" width="40" height="40" fill="none"/>
        <rect x="160" y="512.36" width="40" height="40" fill="none"/>
        <rect x="160" y="592.36" width="40" height="40" fill="none"/>
        <rect x="160" y="632.36" width="40" height="40" fill="none"/>
        <rect x="160" y="552.36" width="40" height="40" fill="none"/>
        <rect x="160" y="672.36" width="40" height="40" fill="none"/>
        <rect x="240" y="512.36" width="40" height="40" fill="none"/>
        <rect x="240" y="592.36" width="40" height="40" fill="none"/>
        <rect x="240" y="632.36" width="40" height="40" fill="none"/>
        <rect x="240" y="552.36" width="40" height="40" fill="none"/>
        <rect x="240" y="672.36" width="40" height="40" fill="none"/>
        <rect x="120" y="712.36" width="40" height="40" fill="none"/>
        <rect x="200" y="712.36" width="40" height="40" fill="none"/>
        <rect x="280" y="712.36" width="40" height="40" fill="none"/>
        <rect x="160" y="712.36" width="40" height="40" fill="none"/>
        <rect x="240" y="712.36" width="40" height="40" fill="none"/>
        <rect x="320" y="552.36" width="40" height="40" fill="none"/>
        <rect x="320" y="592.36" width="40" height="40" fill="none"/>
        <rect x="320" y="672.36" width="40" height="40" fill="none"/>
        <rect x="320" y="512.36" width="40" height="40" fill="none"/>
        <rect x="320" y="632.36" width="40" height="40" fill="none"/>
        <rect x="320" y="712.36" width="40" height="40" fill="none"/>
        <rect x="150" y="542.36" width="180" height="180" fill="none"/>
        <g transform="matrix(.37344 0 0 .37344 4.4375 1028.8)">
            <path d="m0 0h48v48h-48z" fill="none"/>
        </g>
        <g transform="matrix(.36471 0 0 .36471 4.8146 1028.8)">
            <path d="m0 0h48v48h-48z" fill="none"/>
        </g>
        <g transform="matrix(.41585 0 0 .41585 79.055 989.88)">
            <g transform="matrix(.062269 0 0 .062269 -26.473 173.71)">
                <g transform="matrix(38.618 0 0 38.618 13804 -12696)">
                    <g transform="matrix(.71436 0 0 .71436 -375.49 176.57)">
                        <path transform="matrix(1.3999 0 0 1.3999 525.63 -247.17)" d="m490.56 95.75c-121.72 0.18504-342.34 0.090577-468.16 0.09375-1.5548 6.9739-2.4062 14.232-2.4062 21.688v76.344c139.06 0.49354 331.32 0.2554 472.97 0.25v-76.594c0-7.4875-0.8386-14.78-2.4062-21.781zm-307.19 197.94c-52.495-3e-3 -106.38 0.11982-163.38 0.375v92.844c191.76-0.26331 282.43-0.0926 472.97-0.21875v-92.25c-109.29-0.35498-208.43-0.74426-309.59-0.75z" opacity="0"/>
                    </g>
                </g>
            </g>
        </g>
        <path d="m23.015 1049.6c0.6218 0 1.123-0.5012 1.123-1.123v-0.3125c0 0.6218-0.5012 1.123-1.123 1.123h-19.082c-0.6218 0-1.123-0.5012-1.123-1.123v0.3125c0 0.6218 0.5012 1.123 1.123 1.123h19.082z" fill="#3e2723" opacity=".2"/>
    </g>
    <flowRoot fill="#000000" font-family="Roboto" font-size="3.75px" letter-spacing="0px" stroke-width="1px" word-spacing="0px" style="line-height:125%" xml:space="preserve"><flowRegion><rect x="10.664" y="11.235" width="4.49" height="5.0512"/></flowRegion><flowPara>your</flowPara></flowRoot>
    <path d="m13.206 20.116c-0.31753-0.11319-0.51672-0.40416-0.51474-0.75195 0.0017-0.32163 0.18845-0.60144 0.48332-0.72465 0.13541-0.05658 0.46312-0.05658 0.59854 0 0.28796 0.12032 0.4805 0.41642 0.4805 0.73893 0 0.53819-0.54017 0.91854-1.0476 0.73766zm2.283-0.3969c-0.49941-0.16377-0.74436-0.68914-0.53137-1.1397 0.31376-0.6637 1.2797-0.60532 1.5111 0.09134 0.12478 0.37566-0.05464 0.79987-0.41734 0.9867-0.13717 0.07067-0.43522 0.10333-0.56236 0.06163zm-4.5142-0.04623c-0.26666-0.09978-0.44868-0.27281-0.53829-0.5117-0.05936-0.15827-0.04016-0.43876 0.04216-0.61552 0.31228-0.67062 1.3051-0.59769 1.5125 0.11109 0.1124 0.3841-0.05794 0.78294-0.41241 0.96563-0.15811 0.08149-0.45486 0.1063-0.60398 0.05049zm6.3377-1.2014c-0.23643-0.07753-0.44351-0.26158-0.53164-0.47251-0.0977-0.23382-0.0409-0.57133 0.13494-0.80187 0.1996-0.26169 0.63917-0.34544 0.96386-0.18364 0.56496 0.28153 0.56214 1.105-0.0048 1.3965-0.13724 0.07056-0.43533 0.10316-0.56236 0.0615zm-8.2854-0.14179c-0.17047-0.05373-0.42679-0.32714-0.47764-0.50948-0.099632-0.35729 0.033173-0.71867 0.33202-0.90343 0.1408-0.08705 0.18292-0.09682 0.41754-0.09682s0.27674 0.0098 0.41754 0.09682c0.29708 0.18367 0.43179 0.54862 0.33508 0.90779-0.04937 0.18334-0.31532 0.45336-0.50041 0.50804-0.15773 0.0466-0.37078 0.04542-0.52413-0.0029zm4.2634-1.3172c-0.30662-0.1333-0.30635-0.61732 3e-4 -0.7629 0.1396-0.06624 0.18088-0.06651 0.34158-0.0022 0.3295 0.13184 0.34465 0.60705 0.02419 0.75911-0.13549 0.06429-0.22859 0.06583-0.3662 6e-3zm-1.1923-0.1991c-0.07461-0.02728-0.19342-0.14451-0.24297-0.23974-0.13905-0.26725 0.09083-0.63294 0.39809-0.63329 0.45624-5.1e-4 0.62386 0.582 0.24024 0.83491-0.0877 0.05782-0.28852 0.07717-0.39536 0.03812zm2.3993 0c-0.0746-0.02728-0.19342-0.14451-0.24297-0.23974-0.10028-0.19273-0.01866-0.44254 0.1867-0.5715 0.07964-0.05001 0.14153-0.06226 0.26212-0.05183 0.13524 0.01169 0.17535 0.0324 0.27992 0.1445 0.10532 0.11291 0.12206 0.15134 0.12206 0.28027 0 0.18505-0.08939 0.33932-0.23727 0.40949-0.1062 0.05039-0.27549 0.06355-0.37055 0.0288zm-6.8062-0.31689c-0.074894-0.02743-0.19939-0.1131-0.27666-0.19037-0.38176-0.38176-0.30052-1.0107 0.16599-1.2849 0.13092-0.07696 0.18471-0.08869 0.4068-0.08869 0.22045 0 0.2763 0.01197 0.40287 0.08639 0.56867 0.33431 0.53869 1.1638-0.052355 1.4486-0.16522 0.07962-0.47099 0.09332-0.64665 0.02898zm10.948-0.02938c-0.3164-0.11713-0.5269-0.4231-0.52634-0.76509 8.88e-4 -0.57758 0.54524-0.96068 1.0913-0.76812 0.16441 0.05797 0.35748 0.23439 0.45365 0.41451 0.09035 0.16924 0.09542 0.52456 0.0098 0.6878-0.08258 0.15745-0.23757 0.31422-0.38652 0.39094-0.16392 0.08444-0.47029 0.1035-0.64195 0.03997zm-3.2171-0.37534c-0.14687-0.09783-0.23071-0.27339-0.20247-0.42396 0.04601-0.24525 0.29169-0.40249 0.52453-0.33572 0.30319 0.08695 0.41486 0.45709 0.2059 0.68244-0.15362 0.16568-0.35168 0.19465-0.52797 0.07723zm-4.3756-0.04628c-0.30964-0.15254-0.30099-0.5935 0.01465-0.74629 0.15186-0.07351 0.28275-0.0654 0.42251 0.02617 0.25057 0.16418 0.20579 0.61236-0.07281 0.72877-0.14201 0.05934-0.23061 0.05723-0.36433-0.0086zm-0.70541-0.96105c-0.4172-0.21274-0.28155-0.83898 0.18312-0.84539 0.2807-4e-3 0.46644 0.1953 0.44556 0.47779-0.01399 0.18942-0.09689 0.306-0.27002 0.37977-0.13677 0.05828-0.22646 0.05523-0.35865-0.01217zm5.8527 0.0016c-0.23954-0.12406-0.32645-0.41688-0.18949-0.63849 0.2335-0.37781 0.82843-0.2134 0.82843 0.22893 0 0.33117-0.35318 0.55755-0.63894 0.40956zm-3.0626-0.4701c-0.32119-0.10482-0.58309-0.3289-0.73313-0.62726-0.07211-0.14338-0.09083-0.22924-0.10116-0.46386-0.0178-0.40432 0.05708-0.59739 0.34236-0.88267 0.28554-0.28554 0.4785-0.36031 0.88267-0.342 0.23592 0.01069 0.32129 0.02958 0.47274 0.10463 0.22694 0.11246 0.44733 0.34228 0.56119 0.58522 0.07413 0.15817 0.08573 0.22405 0.08573 0.48684 0 0.26224-0.01168 0.32881-0.08511 0.48546-0.11835 0.25247-0.31592 0.45506-0.56184 0.57613-0.17169 0.08453-0.25134 0.10354-0.46779 0.11169-0.16102 0.0061-0.31247-7e-3 -0.39568-0.03417zm5.9702-0.22325c-0.18697-0.06684-0.34185-0.20705-0.43182-0.39094-0.07217-0.14749-0.0826-0.20438-0.07196-0.39251 0.0238-0.42134 0.30481-0.70835 0.71938-0.73475 0.27794-0.0177 0.44934 0.05066 0.62952 0.25106 0.22746 0.25299 0.27396 0.5898 0.12218 0.88494-0.17579 0.34184-0.60538 0.51157-0.9673 0.3822zm-11.747-0.16027c-0.67849-0.18785-0.76519-1.1331-0.13479-1.4694 0.17609-0.09396 0.52282-0.09329 0.7038 0.0014 0.26678 0.13952 0.43047 0.41048 0.43047 0.71259 0 0.52263-0.49342 0.89559-0.99947 0.75549zm9.062-0.30322c-0.07838-0.0419-0.13002-0.10406-0.17397-0.20938-0.05728-0.13726-0.05861-0.16094-0.016-0.28327 0.12195-0.35002 0.64355-0.37657 0.78421-0.03993 0.05929 0.1419 0.0581 0.22122-0.0053 0.35488-0.10291 0.21688-0.36672 0.29647-0.58892 0.17768zm-6.3241-0.09717c-0.20246-0.1272-0.25986-0.38698-0.12855-0.58183 0.089366-0.13261 0.19295-0.18805 0.35253-0.18867 0.388-0.0015 0.56288 0.4467 0.28003 0.71769-0.12716 0.12182-0.35599 0.1458-0.504 0.05281zm6.1002-1.0865c-0.30876-0.16509-0.30791-0.62867 0.0015-0.78864 0.30999-0.1603 0.70551 0.1083 0.65525 0.44499-0.04849 0.32478-0.37369 0.49496-0.65668 0.34365zm-5.8762-0.09716c-0.332-0.2086-0.23683-0.74636 0.14549-0.82204 0.23857-0.04722 0.49089 0.12053 0.53501 0.35571 0.02911 0.15514-0.0036 0.25605-0.12594 0.38965-0.09165 0.1-0.12872 0.11704-0.27892 0.12818-0.13398 0.0099-0.19642-0.0017-0.27564-0.05151zm8.3548-0.50002c-0.31641-0.11713-0.5269-0.42309-0.52634-0.76509 0.0015-0.86611 1.1359-1.1307 1.5426-0.35981 0.09277 0.1759 0.099 0.52858 0.01225 0.694-0.08258 0.15745-0.23757 0.31422-0.38652 0.39094-0.16392 0.08444-0.47029 0.10351-0.64194 0.03996zm-10.86-0.17097c-0.1656-0.0543-0.2842-0.13415-0.40776-0.27453-0.45605-0.5181-0.080241-1.329 0.61591-1.329 0.54445 0 0.93129 0.51281 0.78392 1.0392-0.049352 0.17628-0.24862 0.41096-0.4256 0.50125-0.14103 0.07195-0.43845 0.10508-0.56646 0.0631zm3.1467-0.46186c-0.21543-0.19742-0.17006-0.54615 0.08845-0.67983 0.27022-0.13973 0.60394 0.05726 0.60394 0.3565 0 0.08112-0.02353 0.18735-0.05232 0.23606-0.07424 0.12566-0.20603 0.19322-0.37696 0.19322-0.12237 0-0.16719-0.01805-0.2631-0.10595zm4.511 0.04456c-0.13893-0.08472-0.22427-0.30829-0.17398-0.45584 0.01999-0.05863 0.05387-0.12884 0.07533-0.15604 0.20439-0.25918 0.61712-0.18954 0.72581 0.12248 0.04134 0.11867 0.04134 0.15117 0 0.26983-0.08811 0.25291-0.3958 0.36064-0.62715 0.21957zm-0.90514-0.57047c-0.31497-0.16061-0.33492-0.56842-0.03753-0.76709 0.21125-0.14113 0.51494-0.06555 0.6299 0.15675 0.20296 0.39249-0.20177 0.80951-0.59236 0.61034zm-2.53-0.03556c-0.14458-0.0773-0.2341-0.23249-0.2341-0.40582 0-0.25097 0.19366-0.42998 0.46542-0.43019 0.12263-1.02e-4 0.17163 0.01813 0.26197 0.09745 0.25582 0.22461 0.21051 0.60406-0.08911 0.74624-0.14329 0.068-0.26705 0.06564-0.40418-0.0076zm1.3422-0.22745c-0.21857-0.06421-0.3184-0.19221-0.31757-0.40716 6e-4 -0.15957 0.05606-0.26316 0.18867-0.35253 0.29522-0.19895 0.67435 0.03922 0.63389 0.39822-0.02837 0.25173-0.27577 0.42881-0.50499 0.36147zm-4.3969-0.76553c-0.15922-0.073987-0.34895-0.26906-0.41432-0.42596-0.057809-0.13876-0.063824-0.37126-0.014286-0.55287 0.045904-0.16833 0.31672-0.43491 0.49631-0.48853 0.31398-0.093753 0.60582-0.017662 0.82308 0.21461 0.37065 0.39625 0.24433 1.0291-0.25025 1.2538-0.17096 0.07766-0.47225 0.07718-0.64052-9.65e-4zm8.3049-0.02343c-0.29104-0.14503-0.4358-0.41226-0.41346-0.76323 0.051207-0.80427 1.1437-0.99268 1.4866-0.25638 0.1834 0.39383-0.0151 0.88854-0.42528 1.0599-0.17593 0.07351-0.45415 0.05619-0.64782-0.04031zm-1.6788-1.1124c-0.32582-0.12129-0.51593-0.40499-0.51593-0.7699 0-0.2588 0.05582-0.39791 0.22926-0.57136 0.31448-0.31448 0.81482-0.32382 1.1268-0.021038 0.16801 0.16305 0.23096 0.29087 0.25051 0.50875 0.03011 0.33536-0.11441 0.62621-0.39199 0.78889-0.18141 0.10631-0.50607 0.13635-0.69867 0.064659zm-4.7026-0.033946c-0.63985-0.22808-0.72083-1.1292-0.13247-1.474 0.29368-0.17211 0.67418-0.13546 0.92982 0.089563 0.21187 0.1865 0.28436 0.34344 0.28436 0.61568 0 0.27172-0.07247 0.42917-0.28278 0.61429-0.22236 0.19573-0.52116 0.25351-0.79892 0.1545zm1.7903-1.2167c-0.0021-0.34193 0.1481-0.57558 0.46096-0.7172 0.58042-0.26273 1.2203 0.26083 1.0857 0.88835-0.38164 0.92214-1.5285 0.6351-1.5467-0.17115z" fill="#fff"/>
    <g display="none" fill="none">
        <rect transform="rotate(90)" x="7.3342" y="-19.616" width="12.282" height="12.282" display="inline" stroke="#000" stroke-width=".065984"/>
        <rect x="6.7726" y="8.112" width="13.405" height="10.726" stroke="#5261ff" stroke-linecap="round" stroke-linejoin="round" stroke-width=".06524"/>
        <rect transform="rotate(90)" x="6.7726" y="-18.838" width="13.405" height="10.726" display="inline" stroke="#0f0" stroke-linecap="round" stroke-linejoin="round" stroke-width=".06524"/>
    </g>
</svg>
