<?xml version="1.0" encoding="UTF-8"?>
<svg version="1.1" viewBox="0 0 26.95 26.95" xmlns="http://www.w3.org/2000/svg" xmlns:osb="http://www.openswatchbook.org/uri/2009/osb" xmlns:xlink="http://www.w3.org/1999/xlink">
    <defs>
        <filter id="filter6206-7" color-interpolation-filters="sRGB">
            <feGaussianBlur stdDeviation="0.658125"/>
        </filter>
    </defs>
    <g transform="translate(0 -1025.4)">
        <path transform="matrix(1.0107 0 0 .99762 -.087875 2.579)" d="m4.4177 1028.2v1.6051h-1.6052v18.192h1.6052v2.1402h18.192v-2.1402h2.1402v-18.192h-2.1402v-1.6051h-18.192z" fill="#3e2723" filter="url(#filter6206-7)" opacity=".2"/>
        <rect x="2.8113" y="1028.2" width="21.327" height="21.327" rx="1.1225" ry="1.1226" fill="#ff5722"/>
        <g transform="translate(-20.925 990.46)">
            <path d="m0 0h48v48h-48z" fill="none"/>
            <g transform="matrix(.33601 0 0 .33601 1.434 68.477)">
                <path d="m0 0h48v48h-48z" fill="none"/>
            </g>
            <g transform="matrix(.37187 0 0 .37187 36.377 59.287)">
                <path d="m0 0h48v48h-48z" fill="none"/>
                <g transform="matrix(2.6891 0 0 2.6891 -77.724 -45.422)">
                    <path d="m0 0h48v48h-48z" fill="none"/>
                </g>
            </g>
        </g>
        <path transform="translate(0 1025.4)" d="m3.9336 2.8105c-0.62186 0-1.123 0.50115-1.123 1.123v0.3125c0-0.6219 0.50118-1.123 1.123-1.123h19.082c0.62186 0 1.123 0.50115 1.123 1.123v-0.3125c0-0.6219-0.50118-1.123-1.123-1.123h-19.082z" fill="#fff" opacity=".2"/>
        <rect x="120" y="512.36" width="40" height="40" fill="none"/>
        <rect x="120" y="592.36" width="40" height="40" fill="none"/>
        <rect x="120" y="632.36" width="40" height="40" fill="none"/>
        <rect x="120" y="552.36" width="40" height="40" fill="none"/>
        <rect x="120" y="672.36" width="40" height="40" fill="none"/>
        <rect x="200" y="512.36" width="40" height="40" fill="none"/>
        <rect x="200" y="592.36" width="40" height="40" fill="none"/>
        <rect x="200" y="632.36" width="40" height="40" fill="none"/>
        <rect x="200" y="552.36" width="40" height="40" fill="none"/>
        <rect x="200" y="672.36" width="40" height="40" fill="none"/>
        <rect x="280" y="512.36" width="40" height="40" fill="none"/>
        <rect x="280" y="592.36" width="40" height="40" fill="none"/>
        <rect x="280" y="632.36" width="40" height="40" fill="none"/>
        <rect x="280" y="552.36" width="40" height="40" fill="none"/>
        <rect x="280" y="672.36" width="40" height="40" fill="none"/>
        <rect x="160" y="512.36" width="40" height="40" fill="none"/>
        <rect x="160" y="592.36" width="40" height="40" fill="none"/>
        <rect x="160" y="632.36" width="40" height="40" fill="none"/>
        <rect x="160" y="552.36" width="40" height="40" fill="none"/>
        <rect x="160" y="672.36" width="40" height="40" fill="none"/>
        <rect x="240" y="512.36" width="40" height="40" fill="none"/>
        <rect x="240" y="592.36" width="40" height="40" fill="none"/>
        <rect x="240" y="632.36" width="40" height="40" fill="none"/>
        <rect x="240" y="552.36" width="40" height="40" fill="none"/>
        <rect x="240" y="672.36" width="40" height="40" fill="none"/>
        <rect x="120" y="712.36" width="40" height="40" fill="none"/>
        <rect x="200" y="712.36" width="40" height="40" fill="none"/>
        <rect x="280" y="712.36" width="40" height="40" fill="none"/>
        <rect x="160" y="712.36" width="40" height="40" fill="none"/>
        <rect x="240" y="712.36" width="40" height="40" fill="none"/>
        <rect x="320" y="552.36" width="40" height="40" fill="none"/>
        <rect x="320" y="592.36" width="40" height="40" fill="none"/>
        <rect x="320" y="672.36" width="40" height="40" fill="none"/>
        <rect x="320" y="512.36" width="40" height="40" fill="none"/>
        <rect x="320" y="632.36" width="40" height="40" fill="none"/>
        <rect x="320" y="712.36" width="40" height="40" fill="none"/>
        <rect x="150" y="542.36" width="180" height="180" fill="none"/>
        <g transform="matrix(.37344 0 0 .37344 4.4375 1028.8)">
            <path d="m0 0h48v48h-48z" fill="none"/>
        </g>
        <g transform="matrix(.36471 0 0 .36471 4.8146 1028.8)">
            <path d="m0 0h48v48h-48z" fill="none"/>
        </g>
        <g transform="matrix(.41585 0 0 .41585 79.055 989.88)">
            <g transform="matrix(.062269 0 0 .062269 -26.473 173.71)">
                <g transform="matrix(38.618 0 0 38.618 13804 -12696)">
                    <g transform="matrix(.71436 0 0 .71436 -375.49 176.57)">
                        <path transform="matrix(1.3999 0 0 1.3999 525.63 -247.17)" d="m490.56 95.75c-121.72 0.18504-342.34 0.090577-468.16 0.09375-1.5548 6.9739-2.4062 14.232-2.4062 21.688v76.344c139.06 0.49354 331.32 0.2554 472.97 0.25v-76.594c0-7.4875-0.8386-14.78-2.4062-21.781zm-307.19 197.94c-52.495-3e-3 -106.38 0.11982-163.38 0.375v92.844c191.76-0.26331 282.43-0.0926 472.97-0.21875v-92.25c-109.29-0.35498-208.43-0.74426-309.59-0.75z" opacity="0"/>
                    </g>
                </g>
            </g>
        </g>
        <path d="m23.015 1049.6c0.6218 0 1.123-0.5012 1.123-1.123v-0.3125c0 0.6218-0.5012 1.123-1.123 1.123h-19.082c-0.6218 0-1.123-0.5012-1.123-1.123v0.3125c0 0.6218 0.5012 1.123 1.123 1.123h19.082z" fill="#3e2723" opacity=".2"/>
    </g>
    <g>
        <flowRoot fill="#000000" font-family="Roboto" font-size="3.75px" letter-spacing="0px" stroke-width="1px" word-spacing="0px" style="line-height:125%" xml:space="preserve"><flowRegion><rect x="10.664" y="11.235" width="4.49" height="5.0512"/></flowRegion><flowPara>your</flowPara></flowRoot>
        <path d="m9.57 7.9884c-0.092807-0.00195-0.18182 0.010798-0.26702 0.037669-7.942e-4 -0.00115-0.0014-0.00217-0.00221-0.00332-0.025752 0.00595-0.055289 0.019906-0.082545 0.028807-0.2247 0.35657-0.42194 0.77487-0.48807 1.17-0.095465 0.57055-0.17689 1.3005-0.067032 2.1689a0.28367 0.28367 0 0 1 0 9.57e-4v5.67e-4c0.090513 0.73924 0.29548 1.5971 0.70246 2.5284a0.28367 0.28367 0 0 1 0.00554 0.01441c0.24301 0.64762 0.73151 1.4627 1.6609 2.2791 0.10541 0.07783 0.21057 0.15212 0.31522 0.2216 0.87594 0.58153 1.6519 0.83664 2.2481 0.93458a0.28367 0.28367 0 0 1 0.01606 0.0027c1.0136 0.22635 1.9233 0.27123 2.6963 0.22437 2.84e-4 -2.4e-5 8.23e-4 2e-5 0.0012 0 0.79202-0.06855 1.6815-0.12055 2.3611-0.38004 0.4307-0.16446 0.68905-0.41354 0.91574-0.6742 0.01194-0.02945 0.02595-0.05872 0.03435-0.08864 0.0044-0.03146 0.0058-0.03533 0.0088-0.05595 8.79e-4 -4e-3 0.0029-0.0083 0.0039-0.01219-5.95e-4 -2.46e-4 -9.57e-4 -3.13e-4 -0.0017-5.66e-4 0.0039-0.02451 0.0093-0.06319 0.01163-0.07422 0.0042-0.02094 6e-3 -0.02263 0.0061-0.02271-1.77e-4 -1.16e-4 -0.0021-2e-3 -0.0035-0.02327-0.0014-0.02169-0.0024-0.06341-0.0022-0.14459-0.0067-0.05382-0.01801-0.10805-0.03435-0.16232-0.03239-0.106-0.08379-0.21374-0.1529-0.32076-0.13211-0.20457-0.32944-0.41002-0.58612-0.61327-0.47208-0.37364-1.1251-0.72926-1.903-1.0802-0.71837-0.32474-1.3385-0.55764-2.0802-0.87419-0.4989-0.24337-0.88418-0.37292-1.0171-0.47976-0.01756-0.01412-0.0316-0.02792-0.04154-0.0421-0.12132-0.02356-0.32529-0.35612-0.69306-0.80211-0.31381-0.41565-0.8743-1.2288-1.1871-1.6514-0.84502-1.332-1.7045-2.0922-2.3776-2.1063zm-1.2814 0.68418c-0.24839 0.24024-0.4649 0.51255-0.5767 0.76672-0.10595 0.23033-0.19637 0.48757-0.27478 0.79885-0.14537 0.57609-0.18324 1.3465-0.068694 2.252 0.093546 0.76437 0.30536 1.6501 0.72406 2.6082 0.25999 0.69286 0.77734 1.551 1.7445 2.3988 0.11358 0.08421 0.22716 0.16376 0.34015 0.23877 0.90856 0.60318 1.7243 0.87343 2.3594 0.97779 1.0415 0.23253 1.9784 0.27946 2.776 0.23101 0.94803-0.05428 1.7345-0.23741 2.3018-0.49693 0.2388-0.12972 0.55155-0.32701 0.72351-0.48252 0.02951-0.02668 0.05485-0.05074 0.08366-0.07701-0.69158 0.18081-1.4344 0.22008-2.0714 0.27533a0.28367 0.28367 0 0 1-0.0071 5.68e-4c-0.0015 8.2e-5 -0.0029-8.1e-5 -0.0045 0-0.0039 2.37e-4 -0.0088-2.33e-4 -0.01274 0v5.67e-4a0.28367 0.28367 0 0 1-0.01441-5.67e-4c-8.5e-4 5.2e-5 -2e-3 -4.9e-5 -0.0027 0-0.81179 0.0466-1.7587-0.0023-2.8087-0.23545-0.67368-0.11112-1.5271-0.39654-2.4668-1.0204-0.1171-0.07775-0.23429-0.15998-0.35178-0.24708a0.28367 0.28367 0 0 1-0.01829-0.01495c-0.97423-0.8538-1.5058-1.7229-1.789-2.4481a0.28367 0.28367 0 0 0-5.389e-4 -5.67e-4 0.28367 0.28367 0 0 1-0.0277-0.04931c-0.00133-0.0029-0.00191-0.0059-0.00332-0.0088-5.674e-4 -0.0017-0.00221-0.0039-0.00278-0.0056l0.00111 0.0012c-0.42024-0.9655-0.63529-1.8603-0.73349-2.6382a0.28367 0.28367 0 0 1-0.00721-0.03492c-5.12e-5 -5.67e-4 5.09e-5 -8.24e-4 0-9.56e-4 -0.11901-0.94216-0.029456-1.7364 0.070357-2.333 0.026025-0.15553 0.068202-0.3067 0.118-0.45538z" fill="#fff"/>
    </g>
    <g display="none" fill="none">
        <rect transform="rotate(90)" x="7.3342" y="-19.616" width="12.282" height="12.282" display="inline" stroke="#000" stroke-width=".065984"/>
        <rect x="6.7726" y="8.112" width="13.405" height="10.726" stroke="#5261ff" stroke-linecap="round" stroke-linejoin="round" stroke-width=".06524"/>
        <rect transform="rotate(90)" x="6.7726" y="-18.838" width="13.405" height="10.726" display="inline" stroke="#0f0" stroke-linecap="round" stroke-linejoin="round" stroke-width=".06524"/>
    </g>
</svg>
