<?xml version="1.0" encoding="UTF-8"?>
<svg version="1.1" viewBox="0 0 26.95 26.95" xmlns="http://www.w3.org/2000/svg">
    <defs>
        <filter id="filter6206-7" color-interpolation-filters="sRGB">
            <feGaussianBlur stdDeviation="0.658125"/>
        </filter>
    </defs>
    <g transform="translate(0 -1025.4)">
        <path transform="matrix(1.0107 0 0 .99762 -.087875 2.579)" d="m4.4177 1028.2v1.6051h-1.6052v18.192h1.6052v2.1402h18.192v-2.1402h2.1402v-18.192h-2.1402v-1.6051h-18.192z" fill="#3e2723" filter="url(#filter6206-7)" opacity=".2"/>
        <rect x="2.8113" y="1028.2" width="21.327" height="21.327" rx="1.1225" ry="1.1226" fill="#f44336"/>
        <g transform="translate(-20.925 990.46)">
            <path d="m0 0h48v48h-48z" fill="none"/>
            <g transform="matrix(.33601 0 0 .33601 1.434 68.477)">
                <path d="m0 0h48v48h-48z" fill="none"/>
            </g>
            <g transform="matrix(.37187 0 0 .37187 36.377 59.287)">
                <path d="m0 0h48v48h-48z" fill="none"/>
                <g transform="matrix(2.6891 0 0 2.6891 -77.724 -45.422)">
                    <path d="m0 0h48v48h-48z" fill="none"/>
                </g>
            </g>
        </g>
        <path transform="translate(0 1025.4)" d="m3.9336 2.8105c-0.62186 0-1.123 0.50115-1.123 1.123v0.3125c0-0.6219 0.50118-1.123 1.123-1.123h19.082c0.62186 0 1.123 0.50115 1.123 1.123v-0.3125c0-0.6219-0.50118-1.123-1.123-1.123h-19.082z" fill="#fff" opacity=".2"/>
        <rect x="120" y="512.36" width="40" height="40" fill="none"/>
        <rect x="120" y="592.36" width="40" height="40" fill="none"/>
        <rect x="120" y="632.36" width="40" height="40" fill="none"/>
        <rect x="120" y="552.36" width="40" height="40" fill="none"/>
        <rect x="120" y="672.36" width="40" height="40" fill="none"/>
        <rect x="200" y="512.36" width="40" height="40" fill="none"/>
        <rect x="200" y="592.36" width="40" height="40" fill="none"/>
        <rect x="200" y="632.36" width="40" height="40" fill="none"/>
        <rect x="200" y="552.36" width="40" height="40" fill="none"/>
        <rect x="200" y="672.36" width="40" height="40" fill="none"/>
        <rect x="280" y="512.36" width="40" height="40" fill="none"/>
        <rect x="280" y="592.36" width="40" height="40" fill="none"/>
        <rect x="280" y="632.36" width="40" height="40" fill="none"/>
        <rect x="280" y="552.36" width="40" height="40" fill="none"/>
        <rect x="280" y="672.36" width="40" height="40" fill="none"/>
        <rect x="160" y="512.36" width="40" height="40" fill="none"/>
        <rect x="160" y="592.36" width="40" height="40" fill="none"/>
        <rect x="160" y="632.36" width="40" height="40" fill="none"/>
        <rect x="160" y="552.36" width="40" height="40" fill="none"/>
        <rect x="160" y="672.36" width="40" height="40" fill="none"/>
        <rect x="240" y="512.36" width="40" height="40" fill="none"/>
        <rect x="240" y="592.36" width="40" height="40" fill="none"/>
        <rect x="240" y="632.36" width="40" height="40" fill="none"/>
        <rect x="240" y="552.36" width="40" height="40" fill="none"/>
        <rect x="240" y="672.36" width="40" height="40" fill="none"/>
        <rect x="120" y="712.36" width="40" height="40" fill="none"/>
        <rect x="200" y="712.36" width="40" height="40" fill="none"/>
        <rect x="280" y="712.36" width="40" height="40" fill="none"/>
        <rect x="160" y="712.36" width="40" height="40" fill="none"/>
        <rect x="240" y="712.36" width="40" height="40" fill="none"/>
        <rect x="320" y="552.36" width="40" height="40" fill="none"/>
        <rect x="320" y="592.36" width="40" height="40" fill="none"/>
        <rect x="320" y="672.36" width="40" height="40" fill="none"/>
        <rect x="320" y="512.36" width="40" height="40" fill="none"/>
        <rect x="320" y="632.36" width="40" height="40" fill="none"/>
        <rect x="320" y="712.36" width="40" height="40" fill="none"/>
        <rect x="150" y="542.36" width="180" height="180" fill="none"/>
        <g transform="matrix(.37344 0 0 .37344 4.4375 1028.8)">
            <path d="m0 0h48v48h-48z" fill="none"/>
        </g>
        <g transform="matrix(.36471 0 0 .36471 4.8146 1028.8)">
            <path d="m0 0h48v48h-48z" fill="none"/>
        </g>
        <g transform="matrix(.41585 0 0 .41585 79.055 989.88)">
            <g transform="matrix(.062269 0 0 .062269 -26.473 173.71)">
                <g transform="matrix(38.618 0 0 38.618 13804 -12696)">
                    <g transform="matrix(.71436 0 0 .71436 -375.49 176.57)">
                        <path transform="matrix(1.3999 0 0 1.3999 525.63 -247.17)" d="m490.56 95.75c-121.72 0.18504-342.34 0.090577-468.16 0.09375-1.5548 6.9739-2.4062 14.232-2.4062 21.688v76.344c139.06 0.49354 331.32 0.2554 472.97 0.25v-76.594c0-7.4875-0.8386-14.78-2.4062-21.781zm-307.19 197.94c-52.495-3e-3 -106.38 0.11982-163.38 0.375v92.844c191.76-0.26331 282.43-0.0926 472.97-0.21875v-92.25c-109.29-0.35498-208.43-0.74426-309.59-0.75z" opacity="0"/>
                    </g>
                </g>
            </g>
        </g>
        <path d="m23.015 1049.6c0.6218 0 1.123-0.5012 1.123-1.123v-0.3125c0 0.6218-0.5012 1.123-1.123 1.123h-19.082c-0.6218 0-1.123-0.5012-1.123-1.123v0.3125c0 0.6218 0.5012 1.123 1.123 1.123h19.082z" fill="#3e2723" opacity=".2"/>
    </g>
    <flowRoot fill="#000000" font-family="Roboto" font-size="3.75px" letter-spacing="0px" stroke-width="1px" word-spacing="0px" style="line-height:125%" xml:space="preserve"><flowRegion><rect x="10.664" y="11.235" width="4.49" height="5.0512"/></flowRegion><flowPara>your</flowPara></flowRoot>
    <path d="m14.825 20.222c-0.09699-0.18317-0.2775-0.46335-0.54152-0.84044-0.26402-0.37729-0.44992-0.67898-0.55769-0.90518 0.6897 0.28018 1.1531 0.42022 1.3902 0.42022 0.17242 0 0.25864-0.26932 0.25864-0.80827 0-1.0021-0.0916-1.5032-0.2748-1.5032-0.26942 0-0.79208 0.29627-1.568 0.889 0-0.1508-0.08082-0.21544-0.24247-0.19402h-0.08082c-0.28019-0.74353-0.42029-1.4063-0.42029-1.9883 0-0.16165 0.01616-0.32331 0.04849-0.48486 0.99144 0.48486 1.7889 0.72744 2.3924 0.72744 0.33407 0 0.83788-0.0977 1.5114-0.29094 0.67353-0.19402 1.0103-0.40423 1.0103-0.63053 0-0.14014-0.0916-0.21011-0.2748-0.21011-0.28019 0-0.68431 0.0375-1.2124 0.1132-0.52805 0.07599-0.93217 0.1131-1.2124 0.1131-0.29097 0-0.61157-0.07599-0.96181-0.2263-0.35024-0.1509-0.52536-0.35558-0.52536-0.61414 0-0.05428 0.0081-0.09376 0.02425-0.12129 0.01616-0.02763 0.04042-0.04244 0.07274-0.04836 0.03233-0.0099 0.06466-0.0099 0.09699 0s0.07543 0.01184 0.12932 0.01579c0.05389 0.0099 0.10238 0.0099 0.14548 0.0099 0.09699 0 0.23708 0.01283 0.42029 0.04046 0.1832 0.02763 0.31791 0.04046 0.40412 0.04046 0.33407 0 1.0184-0.19669 2.0529-0.58997 1.0346-0.39338 1.5518-0.69773 1.5518-0.91337 0-0.12918-0.09968-0.22077-0.29905-0.27475-0.19936-0.05428-0.38526-0.08093-0.55768-0.08093-0.15087 0-0.37718 0.04046-0.67892 0.12119-0.30174 0.08092-0.63043 0.17784-0.98605 0.29103-0.35563 0.1131-0.59271 0.18583-0.71125 0.2182 0.0431-0.21554 0.06466-0.38805 0.06466-0.51733 0-0.50648-0.13471-1.0964-0.40412-1.77-0.26941-0.67356-0.58193-1.1719-0.93756-1.4951-0.29097-0.25866-0.67892-0.4365-1.1639-0.53352-0.30174-0.38795-0.77322-0.74096-1.4144-1.0588-0.6412-0.31788-1.2097-0.47677-1.7054-0.47677-0.09699 0-0.24517 0.01776-0.44453 0.05625-0.19937 0.0375-0.32599 0.06217-0.37987 0.07303l-0.35563 0.50114 0.09699 0.01579c0.07543 0 0.19128-0.01085 0.34754-0.03257 0.15626-0.02171 0.27211-0.03158 0.34754-0.03158 0.3664 0 0.78669 0.07599 1.2609 0.22639-0.30174 0.1508-0.56577 0.25324-0.79208 0.30712-0.02156 0.01086-0.0916 0.02467-0.21014 0.04046s-0.21822 0.03257-0.29905 0.04737c-0.08082 0.01579-0.15626 0.04934-0.22631 0.0977s-0.10507 0.11053-0.10507 0.18593c0.60349-0.06513 1.0561-0.09671 1.3578-0.09671 0.40951 0 0.7328 0.0375 0.96989 0.1131-0.82979 0.09672-1.4683 0.38252-1.9155 0.85682-0.44723 0.4741-0.67084 1.1261-0.67084 1.9558 0 0.29104 0.02156 0.56056 0.06466 0.80827 0.20475 1.2932 0.5981 3.2221 1.18 5.787 0.35563 1.6597 0.55499 2.5757 0.5981 2.7481l0.01617-0.08191zm-5.2697-9.8281c0 0.06513 0.01616 0.12958 0.04849 0.19402-0.01077-0.17251 0.08621-0.32341 0.29097-0.45269s0.39873-0.19383 0.58193-0.19383c0.08621 0 0.19398 0.02665 0.3233 0.08093-0.10777-0.14014-0.26403-0.21011-0.46878-0.21011-0.1832 0-0.35832 0.05132-0.52536 0.15356-0.16704 0.10244-0.25056 0.24515-0.25056 0.42831zm0.53344 1.2123c0-0.14004 0.05658-0.26656 0.16973-0.37976 0.11315-0.1131 0.23978-0.16975 0.37987-0.16975s0.26672 0.05625 0.37987 0.16975c0.11315 0.1132 0.16973 0.23972 0.16973 0.37976 0 0.14014-0.05658 0.26686-0.16973 0.37995-0.11315 0.1132-0.23978 0.16975-0.37987 0.16975s-0.26672-0.05724-0.37987-0.16975c-0.11315-0.1131-0.16973-0.23982-0.16973-0.37995zm0.64659-0.17774c0 0.08586 0.04849 0.12928 0.14548 0.12928s0.14548-0.04244 0.14548-0.12928c0-0.0977-0.04849-0.14557-0.14548-0.14557s-0.14548 0.04836-0.14548 0.14557zm2.7157-1.4063c0.08621-0.14014 0.28558-0.21011 0.5981-0.21011 0.1401 0 0.31791 0.05428 0.53344 0.16156-0.10777-0.23705-0.29636-0.35558-0.56577-0.35558-0.33407 0-0.52266 0.13471-0.56577 0.40413zm0.37179 1.2608c0-0.12928 0.04849-0.23982 0.14548-0.3313 0.09699-0.09079 0.20476-0.13747 0.3233-0.13747 0.12932 0 0.23978 0.0454 0.33138 0.13747 0.09161 0.09079 0.1374 0.20202 0.1374 0.3313 0 0.11862-0.0458 0.2263-0.1374 0.32331-0.0916 0.0977-0.20206 0.14557-0.33138 0.14557-0.11854 0-0.22631-0.04836-0.3233-0.14557-0.09699-0.0977-0.14548-0.20468-0.14548-0.32331zm0.56577-0.16146c0 0.08586 0.03772 0.12909 0.11315 0.12909 0.08621 0 0.12932-0.04244 0.12932-0.12909 0-0.07599-0.0431-0.11339-0.12932-0.11339-0.07543 0-0.11315 0.0375-0.11315 0.11339z" fill="#fff"/>
    <g display="none" fill="none">
        <rect transform="rotate(90)" x="7.3342" y="-19.616" width="12.282" height="12.282" display="inline" stroke="#000" stroke-width=".065984"/>
        <rect x="6.7726" y="8.112" width="13.405" height="10.726" stroke="#5261ff" stroke-linecap="round" stroke-linejoin="round" stroke-width=".06524"/>
        <rect transform="rotate(90)" x="6.7726" y="-18.838" width="13.405" height="10.726" display="inline" stroke="#0f0" stroke-linecap="round" stroke-linejoin="round" stroke-width=".06524"/>
    </g>
</svg>
