<?xml version="1.0" encoding="UTF-8"?>
<svg version="1.1" viewBox="0 0 26.95 26.95" xmlns="http://www.w3.org/2000/svg">
    <defs>
        <filter id="filter6206-7" color-interpolation-filters="sRGB">
            <feGaussianBlur stdDeviation="0.658125"/>
        </filter>
    </defs>
    <g transform="translate(0 -1025.4)">
        <path transform="matrix(1.0107 0 0 .99762 -.087875 2.579)" d="m4.4177 1028.2v1.6051h-1.6052v18.192h1.6052v2.1402h18.192v-2.1402h2.1402v-18.192h-2.1402v-1.6051h-18.192z" fill="#263238" filter="url(#filter6206-7)" opacity=".2"/>
        <rect x="2.8113" y="1028.2" width="21.327" height="21.327" rx="1.1225" ry="1.1226" fill="#4caf50"/>
        <g transform="translate(-20.925 990.46)">
            <path d="m0 0h48v48h-48z" fill="none"/>
            <g transform="matrix(.33601 0 0 .33601 1.434 68.477)">
                <path d="m0 0h48v48h-48z" fill="none"/>
            </g>
            <g transform="matrix(.37187 0 0 .37187 36.377 59.287)">
                <path d="m0 0h48v48h-48z" fill="none"/>
                <g transform="matrix(2.6891 0 0 2.6891 -77.724 -45.422)">
                    <path d="m0 0h48v48h-48z" fill="none"/>
                </g>
            </g>
        </g>
        <path transform="translate(0 1025.4)" d="m3.9336 2.8105c-0.62186 0-1.123 0.50115-1.123 1.123v0.3125c0-0.6219 0.50118-1.123 1.123-1.123h19.082c0.62186 0 1.123 0.50115 1.123 1.123v-0.3125c0-0.6219-0.50118-1.123-1.123-1.123h-19.082z" fill="#fff" opacity=".2"/>
        <rect x="120" y="512.36" width="40" height="40" fill="none"/>
        <rect x="120" y="592.36" width="40" height="40" fill="none"/>
        <rect x="120" y="632.36" width="40" height="40" fill="none"/>
        <rect x="120" y="552.36" width="40" height="40" fill="none"/>
        <rect x="120" y="672.36" width="40" height="40" fill="none"/>
        <rect x="200" y="512.36" width="40" height="40" fill="none"/>
        <rect x="200" y="592.36" width="40" height="40" fill="none"/>
        <rect x="200" y="632.36" width="40" height="40" fill="none"/>
        <rect x="200" y="552.36" width="40" height="40" fill="none"/>
        <rect x="200" y="672.36" width="40" height="40" fill="none"/>
        <rect x="280" y="512.36" width="40" height="40" fill="none"/>
        <rect x="280" y="592.36" width="40" height="40" fill="none"/>
        <rect x="280" y="632.36" width="40" height="40" fill="none"/>
        <rect x="280" y="552.36" width="40" height="40" fill="none"/>
        <rect x="280" y="672.36" width="40" height="40" fill="none"/>
        <rect x="160" y="512.36" width="40" height="40" fill="none"/>
        <rect x="160" y="592.36" width="40" height="40" fill="none"/>
        <rect x="160" y="632.36" width="40" height="40" fill="none"/>
        <rect x="160" y="552.36" width="40" height="40" fill="none"/>
        <rect x="160" y="672.36" width="40" height="40" fill="none"/>
        <rect x="240" y="512.36" width="40" height="40" fill="none"/>
        <rect x="240" y="592.36" width="40" height="40" fill="none"/>
        <rect x="240" y="632.36" width="40" height="40" fill="none"/>
        <rect x="240" y="552.36" width="40" height="40" fill="none"/>
        <rect x="240" y="672.36" width="40" height="40" fill="none"/>
        <rect x="120" y="712.36" width="40" height="40" fill="none"/>
        <rect x="200" y="712.36" width="40" height="40" fill="none"/>
        <rect x="280" y="712.36" width="40" height="40" fill="none"/>
        <rect x="160" y="712.36" width="40" height="40" fill="none"/>
        <rect x="240" y="712.36" width="40" height="40" fill="none"/>
        <rect x="320" y="552.36" width="40" height="40" fill="none"/>
        <rect x="320" y="592.36" width="40" height="40" fill="none"/>
        <rect x="320" y="672.36" width="40" height="40" fill="none"/>
        <rect x="320" y="512.36" width="40" height="40" fill="none"/>
        <rect x="320" y="632.36" width="40" height="40" fill="none"/>
        <rect x="320" y="712.36" width="40" height="40" fill="none"/>
        <rect x="150" y="542.36" width="180" height="180" fill="none"/>
        <g transform="matrix(.37344 0 0 .37344 4.4375 1028.8)">
            <path d="m0 0h48v48h-48z" fill="none"/>
        </g>
        <g transform="matrix(.36471 0 0 .36471 4.8146 1028.8)">
            <path d="m0 0h48v48h-48z" fill="none"/>
        </g>
        <g transform="matrix(.41585 0 0 .41585 79.055 989.88)">
            <g transform="matrix(.062269 0 0 .062269 -26.473 173.71)">
                <g transform="matrix(38.618 0 0 38.618 13804 -12696)">
                    <g transform="matrix(.71436 0 0 .71436 -375.49 176.57)">
                        <path transform="matrix(1.3999 0 0 1.3999 525.63 -247.17)" d="m490.56 95.75c-121.72 0.18504-342.34 0.090577-468.16 0.09375-1.5548 6.9739-2.4062 14.232-2.4062 21.688v76.344c139.06 0.49354 331.32 0.2554 472.97 0.25v-76.594c0-7.4875-0.8386-14.78-2.4062-21.781zm-307.19 197.94c-52.495-3e-3 -106.38 0.11982-163.38 0.375v92.844c191.76-0.26331 282.43-0.0926 472.97-0.21875v-92.25c-109.29-0.35498-208.43-0.74426-309.59-0.75z" opacity="0"/>
                    </g>
                </g>
            </g>
        </g>
        <path d="m23.015 1049.6c0.6218 0 1.123-0.5012 1.123-1.123v-0.3125c0 0.6218-0.5012 1.123-1.123 1.123h-19.082c-0.6218 0-1.123-0.5012-1.123-1.123v0.3125c0 0.6218 0.5012 1.123 1.123 1.123h19.082z" fill="#263238" opacity=".2"/>
    </g>
    <flowRoot fill="#000000" font-family="Roboto" font-size="3.75px" letter-spacing="0px" stroke-width="1px" word-spacing="0px" style="line-height:125%" xml:space="preserve"><flowRegion><rect x="10.664" y="11.235" width="4.49" height="5.0512"/></flowRegion><flowPara>your</flowPara></flowRoot>
    <g transform="matrix(.14662 0 0 .14662 24.175 11.667)" fill="#fff">
        <path transform="translate(-169 -7.0711)" d="m110.7-22.236c-1.563-0.05009-3.2404 0.2802-4.8164 1.0664-2.187 1.091-3.5588 1.2829-4.2461 0.5957-1.3807-1.3807-8.9427-1.2878-10.357 0.12695-0.85552 0.85552-2.0551 0.70761-4.7852-0.58789-5.4784-2.5997-11.469-0.60627-11.477 3.8184-0.0028 1.583-1.1706 2.6066-4.5586 4-5.6235 2.3128-7.8012 5.3938-7.2363 10.232 0.34461 2.9519-0.09638 4.1354-2.3906 6.4297-3.1168 3.1168-3.5743 6.4315-1.332 9.6328 1.347 1.9232 1.3032 2.1565-0.48828 2.625-3.435 0.89826-5.249 8.4536-2.6191 10.91 0.87042 0.8131 1.2001 2.5721 0.90039 4.8066-0.34031 2.5372 0.08111 4.2053 1.5059 5.9648 1.5136 1.8693 1.729 2.8412 0.91992 4.1367-1.5092 2.4166 1.4332 6.5407 5.2676 7.3828 1.6686 0.36645 3.0332 1.244 3.0332 1.9512 0 2.357 4.2946 6.7853 8.4219 8.6836 4.5091 2.0739 7.6938 1.7745 11.678-1.0938 2.5422-1.8302 2.6336-1.8276 4.2402 0.04883 1.9574 2.2861 5.3775 2.4844 7.6328 0.44336 1.4416-1.3046 2.1053-1.2376 5.7949 0.58789 3.5968 1.7796 4.6534 1.9016 7.7168 0.89062 4.4361-1.464 10.943-7.4506 10.201-9.3848-0.38447-1.0019 0.47404-1.6146 2.8926-2.0684 4.2161-0.79094 7.341-4.8531 5.7246-7.4414-0.80906-1.2955-0.59373-2.2674 0.91992-4.1367 1.4248-1.7596 1.8462-3.4277 1.5059-5.9648-0.29971-2.2345 0.03-3.9935 0.90039-4.8066 2.6298-2.4566 0.81582-10.012-2.6191-10.91-1.7915-0.46849-1.8353-0.70181-0.48828-2.625 2.2659-3.235 1.7761-6.5247-1.4551-9.7559-2.4623-2.4623-2.8452-3.4946-2.373-6.4043 0.7571-4.6655-1.4454-7.7965-7.1309-10.135-3.388-1.3934-4.5558-2.417-4.5586-4-5e-3 -2.9618-2.8857-4.9093-6.3242-5.0195zm-29.055 2.6465c4.285 0 6.375 1.75 6.375 5.3359 0 1.7956-0.53922 3.8048-1.1992 4.4648-1.3725 1.3725-2.4755 1.4133-5.3008 0.19922-1.1-0.47269-3.8-0.9036-6-0.95898-3.3085-0.08329-3.6854-0.28386-2.1855-1.1562 1.0797-0.62803 3.8105-0.77929 6.75-0.375 4.1899 0.57626 4.9355 0.42925 4.9355-0.9668 0-0.9382-1.5197-2.2793-3.5391-3.123-3.8762-1.6196-3.7903-3.4199 0.16406-3.4199zm14.223 0c2.0795 0 4.5192 2.3031 3.5098 3.3125-0.34473 0.34473 0.14328 1.8035 1.0859 3.2422 1.599 2.4404 1.6025 2.7385 0.0508 4.4531-2.6775 2.9586-2.9265 8.9044-0.5625 13.443l2.0586 3.9512-2.4941 2.6035c-1.372 1.4321-2.4961 3.3664-2.4961 4.2988s-0.45 1.6953-1 1.6953-1-0.63907-1-1.4219-1.1473-2.789-2.5508-4.457c-2.4809-2.9484-2.5031-3.1056-0.82031-5.6738 2.3673-3.6129 2.4174-11.629 0.08984-14.203-1.6155-1.7864-1.6432-2.2404-0.30078-4.8574 0.81431-1.5874 1.7141-3.6742 2-4.6367 0.28585-0.9625 1.3798-1.75 2.4297-1.75zm14.529 0c3.9544 0 4.0403 1.8003 0.16406 3.4199-2.0434 0.85379-3.541 2.1818-3.541 3.1426 0 1.4068 0.69935 1.5603 4.5137 0.98828 2.4822-0.37223 5.5197-0.32782 6.75 0.09766 1.8647 0.64486 1.4874 0.87828-2.2637 1.4043-2.475 0.34706-5.625 0.94811-7.002 1.3359-3.2442 0.91381-4.998-0.85819-4.998-5.0527 0-3.586 2.0919-5.3359 6.377-5.3359zm-42.201 9.8047 1.4688 2.0977c1.1411 1.6292 2.5294 2.0977 6.2129 2.0977 5.0212 1e-7 7.1426 1.2489 7.1426 4.2012 0 2.0751-4.1713 2.2477-12.203 0.50391-5.3773-1.1675-6.5328-2.9295-4.2305-6.4434zm55.65 0 1.6094 2.457c2.4004 3.6635 1.1475 5.2179-5.2773 6.5449-8.3399 1.7226-11.158 1.5706-11.158-0.60547 0-2.9523 2.1233-4.2012 7.1445-4.2012 3.6835 0 5.0718-0.46844 6.2129-2.0977zm-35.072 8.4199c0.12507 0.073796 0.15372 0.72938 0.18359 2.0254 0.03554 1.5419-0.87339 3.6878-2.0684 4.8828-1.9438 1.9438-2.9113 2.0862-11 1.625-6.7092-0.38254-8.8691-0.19994-8.8691 0.74805 0 1.9038 4.7078 3.2988 12.777 3.7891 8.168 0.49628 11.223 2.3045 11.223 6.6387 0 1.4424-0.69757 3.6198-1.5508 4.8379-0.85321 1.2181-2.4885 2.7166-3.6348 3.3301-1.9271 1.0314-2.034 0.90948-1.4043-1.5996 1.4577-5.808-4.9872-10.502-14.422-10.502-4.0574 0-5.5722-0.49215-7.5332-2.4531-2.1331-2.1331-2.3034-2.7842-1.3027-4.9805 1.6022-3.5164 3.8862-3.9601 12.877-2.5 7.0412 1.1435 8.0719 1.0981 10.445-0.45703 1.4484-0.94904 3.032-2.7106 3.5176-3.916 0.41606-1.0329 0.63665-1.5425 0.76172-1.4688zm14.494 0c0.12508-0.073796 0.34567 0.43585 0.76172 1.4688 0.48556 1.2054 2.0583 2.9615 3.4941 3.9023 2.3638 1.5488 3.4066 1.586 11.016 0.40234 8.9642-1.3945 10.31-1.0537 12.574 3.1777 0.76773 1.4345 0.43717 2.387-1.5078 4.332-2.003 2.003-3.4932 2.4922-7.5723 2.4922-9.347 0-15.879 4.6995-14.449 10.395 0.84478 3.3658-0.0341 3.2901-3.6406-0.31641-1.8969-1.8969-2.9238-3.9495-2.9238-5.8457 0-4.7477 2.8123-6.3702 12.318-7.1094 7.6082-0.59159 11.682-2.0282 11.682-4.1191 0-0.4136-3.9894-0.52421-8.8672-0.24609-8.0887 0.4612-9.0562 0.31876-11-1.625-1.195-1.195-2.1039-3.3409-2.0684-4.8828 0.0299-1.296 0.0585-1.9516 0.18359-2.0254zm-43.191 19.971c0.36784 0.02701 0.75306 0.214 1.125 0.58594 0.67401 0.67401 0.63296 1.6987-0.12305 3.1113-1.5166 2.8337-3.0586 2.6672-3.0586-0.33203 0-2.0911 0.95312-3.4463 2.0566-3.3652zm71.889 0c1.1035-0.08102 2.0547 1.2742 2.0547 3.3652 0 2.9992-1.5401 3.1657-3.0566 0.33203-0.756-1.4126-0.79706-2.4373-0.12305-3.1113 0.37194-0.37194 0.75716-0.55893 1.125-0.58594zm-36.205 0.30469 1.1309 3c0.62196 1.65 1.5783 3.7783 2.125 4.7285 0.71112 1.2359 0.51605 2.7302-0.68555 5.25-0.92384 1.9373-1.9643 3.5215-2.3105 3.5215-1.3578 0-4.0576-7.2234-3.123-8.3555 0.51934-0.62916 1.3764-2.7195 1.9043-4.6445zm-24.518 0.53516c2.2006-0.02311 4.5468 0.30591 5.8438 1 2.7524 1.473 2.4289 4.7844-0.60352 6.166-1.4461 0.6589-2.4107 1.8333-2.2402 2.7285 0.4217 2.2152 4.5879 2.5536 6.7988 0.55273 1.7488-1.5827 2.0556-1.5255 5.377 1.0078 6.5523 4.9977 5.7926 10.252-1.0156 7.0215-2.73-1.2955-4.4279-1.5286-6.3086-0.86719-3.944 1.387-3.1837 3.673 1.5312 4.6055 4.5817 0.90608 7.9068 3.8784 8.9238 7.9766 0.54676 2.2032 0.09641 3.304-2.3496 5.75-3.9853 3.9853-8.0331 4.02-12.412 0.10742-3.8017-3.3968-3.272-4.5877 1.6309-3.668 2.2678 0.42544 3.7155 1.3629 4.1328 2.6777 0.86843 2.7362 4.858 2.1867 5.2734-0.72656 0.54303-3.8076-3.7247-6.0072-12.881-6.6348-5.53-0.37903-8.6936-1.0744-9.7656-2.1465-1.4477-1.4477-1.2301-1.5859 2.4941-1.5859 4.3369 0 9.3477-2.9873 9.3477-5.5723 0-1.6174-3.5558-1.9555-4.5-0.42774-0.33992 0.55-2.1337 1-3.9863 1-3.8596 0-7.8142-3.9616-6.8008-6.8125 1.0796-3.0374 2.5389-4.2415 4.4199-3.6445 3.0667 0.97334 4.0084-0.36995 2.416-3.4492-1.0882-2.1042-1.1619-3.0784-0.29688-3.9434 0.71522-0.71522 2.7701-1.0921 4.9707-1.1152zm49.557 0c2.2006 0.02311 4.2555 0.40002 4.9707 1.1152 0.86501 0.86501 0.7813 1.8571-0.33594 4.0176-1.3122 2.5376-1.3113 2.9348 4e-3 3.4395 0.81789 0.31386 1.9777 0.26757 2.5781-0.10352 3.4607-2.1388 5.4367 5.8907 2.1758 8.8418-2.0055 1.815-7.6896 2.2436-8.6719 0.6543-0.94419-1.5277-4.5-1.1897-4.5 0.42774 0 2.585 5.0127 5.5723 9.3496 5.5723 3.7242 0 3.9418 0.13827 2.4941 1.5859-1.072 1.0721-4.2356 1.7674-9.7656 2.1465-9.1562 0.62758-13.424 2.8271-12.881 6.6348 0.41548 2.9133 4.405 3.4627 5.2734 0.72656 0.4173-1.3148 1.865-2.2523 4.1328-2.6777 4.6272-0.86806 5.3347 0.1028 2.291 3.1465-4.704 4.704-12.629 3.9057-14.867-1.498-2.1256-5.1316 1.6758-10.409 8.5234-11.832 4.5618-0.94779 5.246-3.2272 1.377-4.5879-1.8699-0.65761-3.5638-0.43419-6.1992 0.81641-6.4632 3.067-7.7947-0.46113-2.2617-5.9941 3.9683-3.9683 4.2404-4.0428 6.666-1.8477 1.1792 1.0671 2.6533 1.4008 4.3281 0.98047 3.2417-0.8136 3.2599-2.9485 0.0391-4.416-2.9954-1.3648-3.2995-4.6847-0.56446-6.1484 1.2969-0.69409 3.6432-1.0231 5.8438-1zm-24.584 21.186c1.5405-0.08455 2.3914 3.3301 2.1758 9.4551-0.21234 6.0327-0.47901 6.8621-2.3047 7.1445-1.7921 0.27727-2.0664-0.20235-2.0664-3.625 0-2.1695-0.2514-5.2391-0.56055-6.8203-0.35739-1.828 0.0068-3.6034 1-4.875 0.6523-0.83517 1.2424-1.2511 1.7559-1.2793z" fill="#fff"/>
    </g>
    <g display="none" fill="none">
        <rect transform="rotate(90)" x="7.3342" y="-19.616" width="12.282" height="12.282" display="inline" stroke="#000" stroke-width=".065984"/>
        <rect x="6.7726" y="8.112" width="13.405" height="10.726" stroke="#5261ff" stroke-linecap="round" stroke-linejoin="round" stroke-width=".06524"/>
        <rect transform="rotate(90)" x="6.7726" y="-18.838" width="13.405" height="10.726" display="inline" stroke="#0f0" stroke-linecap="round" stroke-linejoin="round" stroke-width=".06524"/>
    </g>
</svg>
