<?xml version="1.0" encoding="UTF-8"?>
<svg version="1.1" viewBox="0 0 26.95 26.95" xmlns="http://www.w3.org/2000/svg" xmlns:osb="http://www.openswatchbook.org/uri/2009/osb" xmlns:xlink="http://www.w3.org/1999/xlink">
    <defs>
        <filter id="filter6206-7" color-interpolation-filters="sRGB">
            <feGaussianBlur stdDeviation="0.658125"/>
        </filter>
    </defs>
    <g transform="translate(0 -1025.4)">
        <path transform="matrix(1.0107 0 0 .99762 -.087875 2.579)" d="m4.4177 1028.2v1.6051h-1.6052v18.192h1.6052v2.1402h18.192v-2.1402h2.1402v-18.192h-2.1402v-1.6051h-18.192z" fill="#263238" filter="url(#filter6206-7)" opacity=".2"/>
        <rect x="2.8113" y="1028.2" width="21.327" height="21.327" rx="1.1225" ry="1.1226" fill="#607d8b"/>
        <g transform="translate(-20.925 990.46)">
            <path d="m0 0h48v48h-48z" fill="none"/>
            <g transform="matrix(.33601 0 0 .33601 1.434 68.477)">
                <path d="m0 0h48v48h-48z" fill="none"/>
            </g>
            <g transform="matrix(.37187 0 0 .37187 36.377 59.287)">
                <path d="m0 0h48v48h-48z" fill="none"/>
                <g transform="matrix(2.6891 0 0 2.6891 -77.724 -45.422)">
                    <path d="m0 0h48v48h-48z" fill="none"/>
                </g>
            </g>
        </g>
        <path transform="translate(0 1025.4)" d="m3.9336 2.8105c-0.62186 0-1.123 0.50115-1.123 1.123v0.3125c0-0.6219 0.50118-1.123 1.123-1.123h19.082c0.62186 0 1.123 0.50115 1.123 1.123v-0.3125c0-0.6219-0.50118-1.123-1.123-1.123h-19.082z" fill="#fff" opacity=".2"/>
        <rect x="120" y="512.36" width="40" height="40" fill="none"/>
        <rect x="120" y="592.36" width="40" height="40" fill="none"/>
        <rect x="120" y="632.36" width="40" height="40" fill="none"/>
        <rect x="120" y="552.36" width="40" height="40" fill="none"/>
        <rect x="120" y="672.36" width="40" height="40" fill="none"/>
        <rect x="200" y="512.36" width="40" height="40" fill="none"/>
        <rect x="200" y="592.36" width="40" height="40" fill="none"/>
        <rect x="200" y="632.36" width="40" height="40" fill="none"/>
        <rect x="200" y="552.36" width="40" height="40" fill="none"/>
        <rect x="200" y="672.36" width="40" height="40" fill="none"/>
        <rect x="280" y="512.36" width="40" height="40" fill="none"/>
        <rect x="280" y="592.36" width="40" height="40" fill="none"/>
        <rect x="280" y="632.36" width="40" height="40" fill="none"/>
        <rect x="280" y="552.36" width="40" height="40" fill="none"/>
        <rect x="280" y="672.36" width="40" height="40" fill="none"/>
        <rect x="160" y="512.36" width="40" height="40" fill="none"/>
        <rect x="160" y="592.36" width="40" height="40" fill="none"/>
        <rect x="160" y="632.36" width="40" height="40" fill="none"/>
        <rect x="160" y="552.36" width="40" height="40" fill="none"/>
        <rect x="160" y="672.36" width="40" height="40" fill="none"/>
        <rect x="240" y="512.36" width="40" height="40" fill="none"/>
        <rect x="240" y="592.36" width="40" height="40" fill="none"/>
        <rect x="240" y="632.36" width="40" height="40" fill="none"/>
        <rect x="240" y="552.36" width="40" height="40" fill="none"/>
        <rect x="240" y="672.36" width="40" height="40" fill="none"/>
        <rect x="120" y="712.36" width="40" height="40" fill="none"/>
        <rect x="200" y="712.36" width="40" height="40" fill="none"/>
        <rect x="280" y="712.36" width="40" height="40" fill="none"/>
        <rect x="160" y="712.36" width="40" height="40" fill="none"/>
        <rect x="240" y="712.36" width="40" height="40" fill="none"/>
        <rect x="320" y="552.36" width="40" height="40" fill="none"/>
        <rect x="320" y="592.36" width="40" height="40" fill="none"/>
        <rect x="320" y="672.36" width="40" height="40" fill="none"/>
        <rect x="320" y="512.36" width="40" height="40" fill="none"/>
        <rect x="320" y="632.36" width="40" height="40" fill="none"/>
        <rect x="320" y="712.36" width="40" height="40" fill="none"/>
        <rect x="150" y="542.36" width="180" height="180" fill="none"/>
        <g transform="matrix(.37344 0 0 .37344 4.4375 1028.8)">
            <path d="m0 0h48v48h-48z" fill="none"/>
        </g>
        <g transform="matrix(.36471 0 0 .36471 4.8146 1028.8)">
            <path d="m0 0h48v48h-48z" fill="none"/>
        </g>
        <g transform="matrix(.41585 0 0 .41585 79.055 989.88)">
            <g transform="matrix(.062269 0 0 .062269 -26.473 173.71)">
                <g transform="matrix(38.618 0 0 38.618 13804 -12696)">
                    <g transform="matrix(.71436 0 0 .71436 -375.49 176.57)">
                        <path transform="matrix(1.3999 0 0 1.3999 525.63 -247.17)" d="m490.56 95.75c-121.72 0.18504-342.34 0.090577-468.16 0.09375-1.5548 6.9739-2.4062 14.232-2.4062 21.688v76.344c139.06 0.49354 331.32 0.2554 472.97 0.25v-76.594c0-7.4875-0.8386-14.78-2.4062-21.781zm-307.19 197.94c-52.495-3e-3 -106.38 0.11982-163.38 0.375v92.844c191.76-0.26331 282.43-0.0926 472.97-0.21875v-92.25c-109.29-0.35498-208.43-0.74426-309.59-0.75z" opacity="0"/>
                    </g>
                </g>
            </g>
        </g>
        <path d="m23.015 1049.6c0.6218 0 1.123-0.5012 1.123-1.123v-0.3125c0 0.6218-0.5012 1.123-1.123 1.123h-19.082c-0.6218 0-1.123-0.5012-1.123-1.123v0.3125c0 0.6218 0.5012 1.123 1.123 1.123h19.082z" fill="#263238" opacity=".2"/>
    </g>
    <g>
        <g transform="translate(21.72 -70.672)">
            <g transform="matrix(0 1 -1 0 122.55 -32.777)">
                <g transform="matrix(.15544 0 0 .15544 102.16 128.81)" fill="#fff">
                    <g transform="matrix(.93761 0 0 .93761 8.4723 6.3943)" fill="#fff">
                        <path d="m79.196 20.675-5.155-7.728c5.422 0.854 10.474 2.67 15.066 5.709 6.5145 6.3128 6.6889 6.452 12.499 16.436 0.61 2.834 0.47057 9.2354 0.46457 12.125-8.0108-14.367-12.632-22.849-22.875-26.543z"/>
                        <path d="m96.079-14.446c3.1112 0.98604 5.3347 2.7434 6.9745 5.4289 1.9457 3.1838 3.311 6.7093 4.6809 10.231 0.23291 0.5981 0.0803 1.0669-0.12957 1.5809-2.3066 5.6003-4.6233 11.195-6.8949 16.811-0.31689 0.78367-0.61969 0.91864-1.2973 0.57098-1.3045-0.6691-3.0905-0.86344-3.8475-1.9737-0.77461-1.1303-0.01253-3.0963 0.11392-4.6886 0.53675-6.6963 1.1365-13.386 1.696-20.081 0.22082-2.6522 0.1417-5.2604-1.296-7.8793z"/>
                        <path d="m60.587-38.184c1.151-0.96914 2.241-0.57989 3.289-0.14664 1.912 0.78385 3.571 2.2129 5.141 3.8312 2.779 2.8634 5.16 6.2614 7.441 9.8007 0.5 0.77585 0.659 1.621 0.688 2.5902 0.308 9.8434 0.609 19.691 0.956 29.533 0.047 1.3477-0.183 1.721-1.244 1.541-4.297-0.73452-4.304-0.68653-5.47-6.3081-2.118-10.202-4.12-20.451-6.853-30.402-1.005-3.6673-2.085-7.2866-3.948-10.439z"/>
                        <path d="m78.743-28.229c2.7845 0.13706 5.0966 1.267 6.9059 3.5196 2.7959 3.4807 5.4998 7.06 8.2665 10.572 0.46087 0.58611 0.49943 1.1342 0.37162 1.8739-1.3303 7.5525-2.6583 15.107-3.9001 22.679-0.22704 1.3808-0.64996 1.4905-1.6732 1.0386-1.3558-0.6009-3.2426-0.593-4.0203-1.6713-0.78036-1.0848-0.5101-3.1751-0.65009-4.8311-0.59166-6.9884-1.1336-13.983-1.7533-20.97-0.54041-6.0642-0.91042-7.2124-3.547-12.211z"/>
                        <path d="m110.88 0.41166c1.5949 0.91172 2.4338 2.5507 2.931 4.3443 1.2826 4.6212 2.4208 9.2961 3.6315 13.945 0.13928 0.54069 0.0569 0.92414-0.19788 1.3188-3.1098 4.8099-6.2207 9.6216-9.3109 14.449-0.32243 0.506-0.59544 0.64329-1.0123 0.15272-0.0651-0.07474-0.14042-0.13189-0.21133-0.19403-1.2253-1.1285-3.0404-1.9859-3.513-3.4619-0.48115-1.5135 0.8172-3.3685 1.324-5.0827 1.9253-6.5087 4.2133-12.811 5.764-19.53 0.43239-1.8653 0.7788-3.762 0.59504-5.9404z"/>
                        <path d="m119.7 18.475c1.7085 1.3802 2.7083 3.0608 2.9707 5.414 0.41947 3.7247 0.8328 7.4538 1.285 11.166 0.0974 0.79616-0.0523 1.378-0.56989 2.0726-3.4535 4.6245-6.8783 9.2792-10.286 13.954-0.70591 0.96737-1.2464 1.238-1.9698 0.41246-0.64586-0.74335-1.3998-1.3646-2.1702-1.9283-0.70156-0.5155-0.72553-1.0772-0.28053-2.0863 3.0982-7.0444 6.1481-14.113 9.2135-21.176 1.0634-2.4515 2.0445-4.9188 1.8072-7.8288z"/>
                    </g>
                </g>
            </g>
        </g>
    </g>
    <g display="none" fill="none">
        <rect transform="rotate(90)" x="7.3342" y="-19.616" width="12.282" height="12.282" display="inline" stroke="#000" stroke-width=".065984"/>
        <rect x="6.7726" y="8.112" width="13.405" height="10.726" stroke="#5261ff" stroke-linecap="round" stroke-linejoin="round" stroke-width=".06524"/>
        <rect transform="rotate(90)" x="6.7726" y="-18.838" width="13.405" height="10.726" display="inline" stroke="#0f0" stroke-linecap="round" stroke-linejoin="round" stroke-width=".06524"/>
    </g>
</svg>
