<?xml version="1.0" encoding="UTF-8"?>
<svg version="1.1" viewBox="0 0 26.95 26.95" xmlns="http://www.w3.org/2000/svg" xmlns:osb="http://www.openswatchbook.org/uri/2009/osb" xmlns:xlink="http://www.w3.org/1999/xlink">
    <defs>
        <filter id="filter6206-7" color-interpolation-filters="sRGB">
            <feGaussianBlur stdDeviation="0.658125"/>
        </filter>
    </defs>
    <g transform="translate(0 -1025.4)">
        <path transform="matrix(1.0107 0 0 .99762 -.087875 2.579)" d="m4.4177 1028.2v1.6051h-1.6052v18.192h1.6052v2.1402h18.192v-2.1402h2.1402v-18.192h-2.1402v-1.6051h-18.192z" fill="#263238" filter="url(#filter6206-7)" opacity=".2"/>
        <rect x="2.8113" y="1028.2" width="21.327" height="21.327" rx="1.1225" ry="1.1226" fill="#607d8b"/>
        <g transform="translate(-20.925 990.46)">
            <path d="m0 0h48v48h-48z" fill="none"/>
            <g transform="matrix(.33601 0 0 .33601 1.434 68.477)">
                <path d="m0 0h48v48h-48z" fill="none"/>
            </g>
            <g transform="matrix(.37187 0 0 .37187 36.377 59.287)">
                <path d="m0 0h48v48h-48z" fill="none"/>
                <g transform="matrix(2.6891 0 0 2.6891 -77.724 -45.422)">
                    <path d="m0 0h48v48h-48z" fill="none"/>
                </g>
            </g>
        </g>
        <path transform="translate(0 1025.4)" d="m3.9336 2.8105c-0.62186 0-1.123 0.50115-1.123 1.123v0.3125c0-0.6219 0.50118-1.123 1.123-1.123h19.082c0.62186 0 1.123 0.50115 1.123 1.123v-0.3125c0-0.6219-0.50118-1.123-1.123-1.123h-19.082z" fill="#fff" opacity=".2"/>
        <rect x="120" y="512.36" width="40" height="40" fill="none"/>
        <rect x="120" y="592.36" width="40" height="40" fill="none"/>
        <rect x="120" y="632.36" width="40" height="40" fill="none"/>
        <rect x="120" y="552.36" width="40" height="40" fill="none"/>
        <rect x="120" y="672.36" width="40" height="40" fill="none"/>
        <rect x="200" y="512.36" width="40" height="40" fill="none"/>
        <rect x="200" y="592.36" width="40" height="40" fill="none"/>
        <rect x="200" y="632.36" width="40" height="40" fill="none"/>
        <rect x="200" y="552.36" width="40" height="40" fill="none"/>
        <rect x="200" y="672.36" width="40" height="40" fill="none"/>
        <rect x="280" y="512.36" width="40" height="40" fill="none"/>
        <rect x="280" y="592.36" width="40" height="40" fill="none"/>
        <rect x="280" y="632.36" width="40" height="40" fill="none"/>
        <rect x="280" y="552.36" width="40" height="40" fill="none"/>
        <rect x="280" y="672.36" width="40" height="40" fill="none"/>
        <rect x="160" y="512.36" width="40" height="40" fill="none"/>
        <rect x="160" y="592.36" width="40" height="40" fill="none"/>
        <rect x="160" y="632.36" width="40" height="40" fill="none"/>
        <rect x="160" y="552.36" width="40" height="40" fill="none"/>
        <rect x="160" y="672.36" width="40" height="40" fill="none"/>
        <rect x="240" y="512.36" width="40" height="40" fill="none"/>
        <rect x="240" y="592.36" width="40" height="40" fill="none"/>
        <rect x="240" y="632.36" width="40" height="40" fill="none"/>
        <rect x="240" y="552.36" width="40" height="40" fill="none"/>
        <rect x="240" y="672.36" width="40" height="40" fill="none"/>
        <rect x="120" y="712.36" width="40" height="40" fill="none"/>
        <rect x="200" y="712.36" width="40" height="40" fill="none"/>
        <rect x="280" y="712.36" width="40" height="40" fill="none"/>
        <rect x="160" y="712.36" width="40" height="40" fill="none"/>
        <rect x="240" y="712.36" width="40" height="40" fill="none"/>
        <rect x="320" y="552.36" width="40" height="40" fill="none"/>
        <rect x="320" y="592.36" width="40" height="40" fill="none"/>
        <rect x="320" y="672.36" width="40" height="40" fill="none"/>
        <rect x="320" y="512.36" width="40" height="40" fill="none"/>
        <rect x="320" y="632.36" width="40" height="40" fill="none"/>
        <rect x="320" y="712.36" width="40" height="40" fill="none"/>
        <rect x="150" y="542.36" width="180" height="180" fill="none"/>
        <g transform="matrix(.37344 0 0 .37344 4.4375 1028.8)">
            <path d="m0 0h48v48h-48z" fill="none"/>
        </g>
        <g transform="matrix(.36471 0 0 .36471 4.8146 1028.8)">
            <path d="m0 0h48v48h-48z" fill="none"/>
        </g>
        <g transform="matrix(.41585 0 0 .41585 79.055 989.88)">
            <g transform="matrix(.062269 0 0 .062269 -26.473 173.71)">
                <g transform="matrix(38.618 0 0 38.618 13804 -12696)">
                    <g transform="matrix(.71436 0 0 .71436 -375.49 176.57)">
                        <path transform="matrix(1.3999 0 0 1.3999 525.63 -247.17)" d="m490.56 95.75c-121.72 0.18504-342.34 0.090577-468.16 0.09375-1.5548 6.9739-2.4062 14.232-2.4062 21.688v76.344c139.06 0.49354 331.32 0.2554 472.97 0.25v-76.594c0-7.4875-0.8386-14.78-2.4062-21.781zm-307.19 197.94c-52.495-3e-3 -106.38 0.11982-163.38 0.375v92.844c191.76-0.26331 282.43-0.0926 472.97-0.21875v-92.25c-109.29-0.35498-208.43-0.74426-309.59-0.75z" opacity="0"/>
                    </g>
                </g>
            </g>
        </g>
        <path d="m23.015 1049.6c0.6218 0 1.123-0.5012 1.123-1.123v-0.3125c0 0.6218-0.5012 1.123-1.123 1.123h-19.082c-0.6218 0-1.123-0.5012-1.123-1.123v0.3125c0 0.6218 0.5012 1.123 1.123 1.123h19.082z" fill="#263238" opacity=".2"/>
    </g>
    <g>
        <flowRoot fill="#000000" font-family="Roboto" font-size="3.75px" letter-spacing="0px" stroke-width="1px" word-spacing="0px" style="line-height:125%" xml:space="preserve"><flowRegion><rect x="10.664" y="11.235" width="4.49" height="5.0512"/></flowRegion><flowPara>your</flowPara></flowRoot>
        <g transform="matrix(.75692 0 0 .75692 77.999 178.44)" fill="#fff">
            <path d="m-85.702-210.92c0.26216-0.0997 0.51853-0.34141 0.56973-0.53719 0.11109-0.42479 0.49142-0.4511 1.1976-0.0828 0.28576 0.14902 0.67416 0.22188 0.86312 0.1619 0.25177-0.0799 0.37042-6e-3 0.44406 0.27527 0.07235 0.27667 0.18168 0.34695 0.39033 0.25093 0.15941-0.0734 1.1359-0.16564 2.17-0.20507 2.0626-0.0786 2.5078-0.27361 2.5057-1.0973-0.0015-0.62096-0.44652-1.2604-1.6683-2.3975-0.89055-0.8288-1.0164-1.03-1.0164-1.6244 0-1.3446 1.5679-2.2017 2.6461-1.4465 0.51544 0.36103 0.52836 1.0779 0.02183 1.2104-0.20747 0.0543-0.32311 0.18418-0.25786 0.28974 0.07847 0.12697 0.26542 0.0858 0.55542-0.12224 0.98013-0.70318 0.15718-1.9773-1.3782-2.1338-1.4851-0.15138-2.6461 1.1166-2.3723 2.5906 0.09086 0.48901 0.44772 0.99752 1.3653 1.9455 1.4535 1.5017 1.5287 1.9098 0.36724 1.9943-0.74519 0.0542-0.75559 0.0465-1.4749-1.0924-0.97234-1.5396-2.4588-2.9305-3.3005-3.0884-0.35903-0.0674-0.69664-0.19343-0.75025-0.28018-0.05361-0.0867 0.12858-0.45445 0.40487-0.81713 0.43496-0.57097 0.50471-0.82931 0.51998-1.926-0.65002-2.3042 1.7036-1.2618 3.0057-1.1022 0.3185 0.12387 0.15123 0.46266 0.15123 0.46266-0.13828 0.31318-0.33749 0.37468-0.20766 0.45492 0.10949 0.0677 0.76581-0.26419 1.4585-0.73747l1.2594-0.86051-0.40967-0.33173c-0.2888-0.23385-0.56164-0.29836-0.92471-0.21861-0.34029 0.0747-0.66937 0.012-0.96989-0.18491-0.45947-0.30105-0.96311-0.25834-0.96311 0.0817 0 0.10157 0.16116 0.18468 0.35813 0.18468 0.35051 0 0.50061 0.428 0.21253 0.60604-2.9942-1.388-3.8376-0.87997-3.7947 1.3108-7.54e-4 1.21-0.05875 1.4674-0.43544 1.9331-0.4027 0.49782-0.45639 0.51578-0.73249 0.24508-0.46015-0.45116-0.39244-1.4564 0.17855-2.6511 0.74719-1.6414 0.31379-2.591-0.77239-3.6691-0.05268-0.27352 0.01547-0.30956 0.40195-0.21256 0.25596 0.0642 0.46538 0.0508 0.46538-0.0299 0-0.27333-0.42792-0.57642-0.81385-0.57642-0.21125 0-0.52267-0.15312-0.69204-0.34027-0.40623-0.44888-0.99649-0.59611-1.1182-0.27891-0.15868 0.4135 0.64759 2.5889 0.95952 2.5889 0.21306 0 0.22963-0.0558 0.07272-0.24484-0.15448-0.18614-0.13878-0.29829 0.06549-0.46782 0.21766-0.18064 0.28839-0.17165 0.37242 0.0473 1.1519 1.7441 0.71294 2.4014 0.04841 3.5721-0.22908 0.5646-0.48548 1.0279-0.5698 1.0296-0.08431 2e-3 -0.4629-0.24216-0.84131-0.54186-1.2366-1.1119-2.6002-0.73687-3.4248-0.17134-0.23656 0-0.16832-0.67872 0.07706-0.76635 0.36706-0.1311 0.0126-0.35037-0.37007-0.22892-0.19376 0.0615-0.39418 0.27202-0.44539 0.46783-0.05121 0.19581-0.33547 0.4405-0.6317 0.54377-0.55115 0.19213-0.86873 0.6525-0.61795 0.8958 0.2306 0.22371 2.7366 0.41261 2.7366 0.20627 0-0.0997-0.16116-0.22345-0.35813-0.27496-0.19697-0.0515-0.35812-0.18178-0.35812-0.28948 1.6505-0.71287 2.7194-0.4426 3.3678 0.79244 0.92791 1.0542 1.115 1.8533 0.59018 2.5205-0.53905 0.6853-0.47173 1.135 0.33953 2.2679 0.87514 1.2221 0.90007 1.5876 0.1343 1.9687l-0.58196 0.28963 0.74936 0.0115c0.41215 6e-3 0.96386-0.0701 1.226-0.16977z" fill="#fff"/>
        </g>
    </g>
    <g display="none" fill="none">
        <rect transform="rotate(90)" x="7.3342" y="-19.616" width="12.282" height="12.282" display="inline" stroke="#000" stroke-width=".065984"/>
        <rect x="6.7726" y="8.112" width="13.405" height="10.726" stroke="#5261ff" stroke-linecap="round" stroke-linejoin="round" stroke-width=".06524"/>
        <rect transform="rotate(90)" x="6.7726" y="-18.838" width="13.405" height="10.726" display="inline" stroke="#0f0" stroke-linecap="round" stroke-linejoin="round" stroke-width=".06524"/>
    </g>
</svg>
