<?xml version="1.0" encoding="UTF-8"?>
<svg version="1.1" viewBox="0 0 26.95 26.95" xmlns="http://www.w3.org/2000/svg" xmlns:osb="http://www.openswatchbook.org/uri/2009/osb" xmlns:xlink="http://www.w3.org/1999/xlink">
    <defs>
        <filter id="filter6206-7" color-interpolation-filters="sRGB">
            <feGaussianBlur stdDeviation="0.658125"/>
        </filter>
    </defs>
    <g transform="translate(0 -1025.4)">
        <path transform="matrix(1.0107 0 0 .99762 -.087875 2.579)" d="m4.4177 1028.2v1.6051h-1.6052v18.192h1.6052v2.1402h18.192v-2.1402h2.1402v-18.192h-2.1402v-1.6051h-18.192z" fill="#bf360c" filter="url(#filter6206-7)" opacity=".2"/>
        <rect x="2.8113" y="1028.2" width="21.327" height="21.327" rx="1.1225" ry="1.1226" fill="#ff9800"/>
        <g transform="translate(-20.925 990.46)">
            <path d="m0 0h48v48h-48z" fill="none"/>
            <g transform="matrix(.33601 0 0 .33601 1.434 68.477)">
                <path d="m0 0h48v48h-48z" fill="none"/>
            </g>
            <g transform="matrix(.37187 0 0 .37187 36.377 59.287)">
                <path d="m0 0h48v48h-48z" fill="none"/>
                <g transform="matrix(2.6891 0 0 2.6891 -77.724 -45.422)">
                    <path d="m0 0h48v48h-48z" fill="none"/>
                </g>
            </g>
        </g>
        <path transform="translate(0 1025.4)" d="m3.9336 2.8105c-0.62186 0-1.123 0.50115-1.123 1.123v0.3125c0-0.6219 0.50118-1.123 1.123-1.123h19.082c0.62186 0 1.123 0.50115 1.123 1.123v-0.3125c0-0.6219-0.50118-1.123-1.123-1.123h-19.082z" fill="#fff" opacity=".2"/>
        <rect x="120" y="512.36" width="40" height="40" fill="none"/>
        <rect x="120" y="592.36" width="40" height="40" fill="none"/>
        <rect x="120" y="632.36" width="40" height="40" fill="none"/>
        <rect x="120" y="552.36" width="40" height="40" fill="none"/>
        <rect x="120" y="672.36" width="40" height="40" fill="none"/>
        <rect x="200" y="512.36" width="40" height="40" fill="none"/>
        <rect x="200" y="592.36" width="40" height="40" fill="none"/>
        <rect x="200" y="632.36" width="40" height="40" fill="none"/>
        <rect x="200" y="552.36" width="40" height="40" fill="none"/>
        <rect x="200" y="672.36" width="40" height="40" fill="none"/>
        <rect x="280" y="512.36" width="40" height="40" fill="none"/>
        <rect x="280" y="592.36" width="40" height="40" fill="none"/>
        <rect x="280" y="632.36" width="40" height="40" fill="none"/>
        <rect x="280" y="552.36" width="40" height="40" fill="none"/>
        <rect x="280" y="672.36" width="40" height="40" fill="none"/>
        <rect x="160" y="512.36" width="40" height="40" fill="none"/>
        <rect x="160" y="592.36" width="40" height="40" fill="none"/>
        <rect x="160" y="632.36" width="40" height="40" fill="none"/>
        <rect x="160" y="552.36" width="40" height="40" fill="none"/>
        <rect x="160" y="672.36" width="40" height="40" fill="none"/>
        <rect x="240" y="512.36" width="40" height="40" fill="none"/>
        <rect x="240" y="592.36" width="40" height="40" fill="none"/>
        <rect x="240" y="632.36" width="40" height="40" fill="none"/>
        <rect x="240" y="552.36" width="40" height="40" fill="none"/>
        <rect x="240" y="672.36" width="40" height="40" fill="none"/>
        <rect x="120" y="712.36" width="40" height="40" fill="none"/>
        <rect x="200" y="712.36" width="40" height="40" fill="none"/>
        <rect x="280" y="712.36" width="40" height="40" fill="none"/>
        <rect x="160" y="712.36" width="40" height="40" fill="none"/>
        <rect x="240" y="712.36" width="40" height="40" fill="none"/>
        <rect x="320" y="552.36" width="40" height="40" fill="none"/>
        <rect x="320" y="592.36" width="40" height="40" fill="none"/>
        <rect x="320" y="672.36" width="40" height="40" fill="none"/>
        <rect x="320" y="512.36" width="40" height="40" fill="none"/>
        <rect x="320" y="632.36" width="40" height="40" fill="none"/>
        <rect x="320" y="712.36" width="40" height="40" fill="none"/>
        <rect x="150" y="542.36" width="180" height="180" fill="none"/>
        <g transform="matrix(.37344 0 0 .37344 4.4375 1028.8)">
            <path d="m0 0h48v48h-48z" fill="none"/>
        </g>
        <g transform="matrix(.36471 0 0 .36471 4.8146 1028.8)">
            <path d="m0 0h48v48h-48z" fill="none"/>
        </g>
        <g transform="matrix(.41585 0 0 .41585 79.055 989.88)">
            <g transform="matrix(.062269 0 0 .062269 -26.473 173.71)">
                <g transform="matrix(38.618 0 0 38.618 13804 -12696)">
                    <g transform="matrix(.71436 0 0 .71436 -375.49 176.57)">
                        <path transform="matrix(1.3999 0 0 1.3999 525.63 -247.17)" d="m490.56 95.75c-121.72 0.18504-342.34 0.090577-468.16 0.09375-1.5548 6.9739-2.4062 14.232-2.4062 21.688v76.344c139.06 0.49354 331.32 0.2554 472.97 0.25v-76.594c0-7.4875-0.8386-14.78-2.4062-21.781zm-307.19 197.94c-52.495-3e-3 -106.38 0.11982-163.38 0.375v92.844c191.76-0.26331 282.43-0.0926 472.97-0.21875v-92.25c-109.29-0.35498-208.43-0.74426-309.59-0.75z" opacity="0"/>
                    </g>
                </g>
            </g>
        </g>
        <path d="m23.015 1049.6c0.6218 0 1.123-0.5012 1.123-1.123v-0.3125c0 0.6218-0.5012 1.123-1.123 1.123h-19.082c-0.6218 0-1.123-0.5012-1.123-1.123v0.3125c0 0.6218 0.5012 1.123 1.123 1.123h19.082z" fill="#bf360c" opacity=".2"/>
    </g>
    <g>
        <flowRoot fill="#000000" font-family="Roboto" font-size="3.75px" letter-spacing="0px" stroke-width="1px" word-spacing="0px" style="line-height:125%" xml:space="preserve"><flowRegion><rect x="10.664" y="11.235" width="4.49" height="5.0512"/></flowRegion><flowPara>your</flowPara></flowRoot>
        <path d="m13.471 6.8154c-0.55005 7.5e-4 -0.92949 0.04073-1.425 0.15007-1.8129 0.40006-3.3716 1.5323-4.3154 3.1357-0.5217 0.88631-0.82277 1.8684-0.9004 2.94-0.10487 1.4476 0.311 2.9679 1.1457 4.1888 0.52257 0.76433 1.2322 1.4415 1.9991 1.9091 0.08849 0.05395 0.16471 0.09829 0.16964 0.09787 0.0049-2.5e-4 0.05923-0.0883 0.12005-0.19574 0.06082-0.10744 0.18002-0.31529 0.2649-0.46194 0.2499-0.43177 0.89574-1.55 1.0596-1.8347 0.05857-0.10178 0.1057-0.19223 0.1057-0.20096 0-0.0087-0.07125-0.0632-0.1592-0.12136-0.21626-0.14302-0.31773-0.22575-0.52067-0.4241-0.20511-0.20048-0.32659-0.3444-0.47499-0.56503-0.795-1.182-0.79119-2.7428 0.0091-3.9357 0.17642-0.26295 0.46602-0.57859 0.72162-0.78687 0.34719-0.28291 0.8507-0.53447 1.3062-0.65377 0.33816-0.08856 0.50733-0.10961 0.9017-0.10961 0.39437 0 0.56354 0.02105 0.9017 0.10961 0.45653 0.11956 0.95058 0.36682 1.3062 0.65377 0.12801 0.10328 0.41742 0.3893 0.52458 0.51936 0.3201 0.3885 0.56802 0.88162 0.69031 1.3702 0.08683 0.3469 0.10178 0.4734 0.10178 0.87169s-0.01495 0.52479-0.10178 0.87169c-0.12229 0.48855-0.3702 0.98167-0.69031 1.3702-0.1136 0.13788-0.40177 0.42124-0.53502 0.52719-0.05183 0.04121-0.16651 0.12322-0.25446 0.18138-0.08795 0.05816-0.1592 0.11287-0.1592 0.12136 0 0.01435 0.69063 1.22 1.1327 1.977 0.17712 0.30332 0.40079 0.69358 0.40583 0.70858 0.0082 0.02427 0.06566-0.0082 0.35624-0.20226 0.43521-0.29069 0.64761-0.46575 1.0231-0.83907 0.56986-0.56663 0.99459-1.1669 1.3206-1.8647 0.4406-0.94313 0.6355-1.815 0.6355-2.8513 0-0.70696-0.08558-1.2943-0.28317-1.9417-0.24235-0.7941-0.6483-1.5655-1.1601-2.2066-0.9024-1.1305-2.1512-1.9436-3.5311-2.298-0.608-0.15614-1.0534-0.21096-1.6912-0.21009zm0.01566 4.4563c-0.43204 0-0.8723 0.13416-1.2397 0.37843-0.18429 0.12254-0.46598 0.40553-0.58852 0.58983-0.50205 0.75507-0.50205 1.7086 0 2.4637 0.12271 0.18456 0.40498 0.46692 0.58983 0.58983 0.07914 0.05262 0.22272 0.13302 0.31971 0.17878 0.1109 0.05231 0.1732 0.09006 0.16834 0.10309-0.0042 0.0114-0.04842 0.26128-0.09917 0.55459-0.05076 0.29331-0.12679 0.72864-0.16834 0.96695-0.04154 0.23831-0.09658 0.55603-0.12266 0.70727-0.09049 0.52468-0.18319 1.0611-0.27273 1.575-0.0495 0.28414-0.0854 0.52206-0.0796 0.5285 0.0058 0.0064 0.13001 0.04091 0.27664 0.07699 0.27033 0.06652 0.53757 0.10996 0.82471 0.13441 0.34736 0.02957 0.7149 0.01691 1.1248-0.04045 0.21179-0.02964 0.60838-0.11773 0.63028-0.13963 0.0088-0.0088-0.01571-0.20597-0.06003-0.47891-0.04146-0.25532-0.10369-0.63608-0.13702-0.8469-0.03333-0.21081-0.07388-0.47006-0.09134-0.57547-0.01746-0.1054-0.05485-0.33347-0.08221-0.50762-0.02736-0.17416-0.09193-0.57959-0.14354-0.9004-0.05161-0.32081-0.10983-0.69144-0.13049-0.82341l-0.03784-0.24011 0.05089-0.01827c0.11477-0.04103 0.38496-0.1808 0.50631-0.26229 0.16436-0.11037 0.45598-0.40261 0.56503-0.56503 0.16718-0.249 0.28914-0.54154 0.35755-0.85734 0.02879-0.13292 0.02879-0.65004 0-0.78296-0.06841-0.3158-0.19037-0.60964-0.35755-0.85864-0.10803-0.1609-0.40022-0.45309-0.56112-0.56112-0.36908-0.24781-0.81925-0.38887-1.2423-0.38887z" fill="#fff"/>
    </g>
    <g display="none" fill="none">
        <rect transform="rotate(90)" x="7.3342" y="-19.616" width="12.282" height="12.282" display="inline" stroke="#000" stroke-width=".065984"/>
        <rect x="6.7726" y="8.112" width="13.405" height="10.726" stroke="#5261ff" stroke-linecap="round" stroke-linejoin="round" stroke-width=".06524"/>
        <rect transform="rotate(90)" x="6.7726" y="-18.838" width="13.405" height="10.726" display="inline" stroke="#0f0" stroke-linecap="round" stroke-linejoin="round" stroke-width=".06524"/>
    </g>
</svg>
