<?xml version="1.0" encoding="UTF-8"?>
<svg version="1.1" viewBox="0 0 26.95 26.95" xmlns="http://www.w3.org/2000/svg" xmlns:osb="http://www.openswatchbook.org/uri/2009/osb" xmlns:xlink="http://www.w3.org/1999/xlink">
    <defs>
        <filter id="filter6206-7" color-interpolation-filters="sRGB">
            <feGaussianBlur stdDeviation="0.658125"/>
        </filter>
    </defs>
    <g transform="translate(0 -1025.4)">
        <path transform="matrix(1.0107 0 0 .99762 -.087875 2.579)" d="m4.4177 1028.2v1.6051h-1.6052v18.192h1.6052v2.1402h18.192v-2.1402h2.1402v-18.192h-2.1402v-1.6051h-18.192z" fill="#1a237e" filter="url(#filter6206-7)" opacity=".2"/>
        <rect x="2.8113" y="1028.2" width="21.327" height="21.327" rx="1.1225" ry="1.1226" fill="#9c27b0"/>
        <g transform="translate(-20.925 990.46)">
            <path d="m0 0h48v48h-48z" fill="none"/>
            <g transform="matrix(.33601 0 0 .33601 1.434 68.477)">
                <path d="m0 0h48v48h-48z" fill="none"/>
            </g>
            <g transform="matrix(.37187 0 0 .37187 36.377 59.287)">
                <path d="m0 0h48v48h-48z" fill="none"/>
                <g transform="matrix(2.6891 0 0 2.6891 -77.724 -45.422)">
                    <path d="m0 0h48v48h-48z" fill="none"/>
                </g>
            </g>
        </g>
        <path transform="translate(0 1025.4)" d="m3.9336 2.8105c-0.62186 0-1.123 0.50115-1.123 1.123v0.3125c0-0.6219 0.50118-1.123 1.123-1.123h19.082c0.62186 0 1.123 0.50115 1.123 1.123v-0.3125c0-0.6219-0.50118-1.123-1.123-1.123h-19.082z" fill="#fff" opacity=".2"/>
        <rect x="120" y="512.36" width="40" height="40" fill="none"/>
        <rect x="120" y="592.36" width="40" height="40" fill="none"/>
        <rect x="120" y="632.36" width="40" height="40" fill="none"/>
        <rect x="120" y="552.36" width="40" height="40" fill="none"/>
        <rect x="120" y="672.36" width="40" height="40" fill="none"/>
        <rect x="200" y="512.36" width="40" height="40" fill="none"/>
        <rect x="200" y="592.36" width="40" height="40" fill="none"/>
        <rect x="200" y="632.36" width="40" height="40" fill="none"/>
        <rect x="200" y="552.36" width="40" height="40" fill="none"/>
        <rect x="200" y="672.36" width="40" height="40" fill="none"/>
        <rect x="280" y="512.36" width="40" height="40" fill="none"/>
        <rect x="280" y="592.36" width="40" height="40" fill="none"/>
        <rect x="280" y="632.36" width="40" height="40" fill="none"/>
        <rect x="280" y="552.36" width="40" height="40" fill="none"/>
        <rect x="280" y="672.36" width="40" height="40" fill="none"/>
        <rect x="160" y="512.36" width="40" height="40" fill="none"/>
        <rect x="160" y="592.36" width="40" height="40" fill="none"/>
        <rect x="160" y="632.36" width="40" height="40" fill="none"/>
        <rect x="160" y="552.36" width="40" height="40" fill="none"/>
        <rect x="160" y="672.36" width="40" height="40" fill="none"/>
        <rect x="240" y="512.36" width="40" height="40" fill="none"/>
        <rect x="240" y="592.36" width="40" height="40" fill="none"/>
        <rect x="240" y="632.36" width="40" height="40" fill="none"/>
        <rect x="240" y="552.36" width="40" height="40" fill="none"/>
        <rect x="240" y="672.36" width="40" height="40" fill="none"/>
        <rect x="120" y="712.36" width="40" height="40" fill="none"/>
        <rect x="200" y="712.36" width="40" height="40" fill="none"/>
        <rect x="280" y="712.36" width="40" height="40" fill="none"/>
        <rect x="160" y="712.36" width="40" height="40" fill="none"/>
        <rect x="240" y="712.36" width="40" height="40" fill="none"/>
        <rect x="320" y="552.36" width="40" height="40" fill="none"/>
        <rect x="320" y="592.36" width="40" height="40" fill="none"/>
        <rect x="320" y="672.36" width="40" height="40" fill="none"/>
        <rect x="320" y="512.36" width="40" height="40" fill="none"/>
        <rect x="320" y="632.36" width="40" height="40" fill="none"/>
        <rect x="320" y="712.36" width="40" height="40" fill="none"/>
        <rect x="150" y="542.36" width="180" height="180" fill="none"/>
        <g transform="matrix(.37344 0 0 .37344 4.4375 1028.8)">
            <path d="m0 0h48v48h-48z" fill="none"/>
        </g>
        <g transform="matrix(.36471 0 0 .36471 4.8146 1028.8)">
            <path d="m0 0h48v48h-48z" fill="none"/>
        </g>
        <g transform="matrix(.41585 0 0 .41585 79.055 989.88)">
            <g transform="matrix(.062269 0 0 .062269 -26.473 173.71)">
                <g transform="matrix(38.618 0 0 38.618 13804 -12696)">
                    <g transform="matrix(.71436 0 0 .71436 -375.49 176.57)">
                        <path transform="matrix(1.3999 0 0 1.3999 525.63 -247.17)" d="m490.56 95.75c-121.72 0.18504-342.34 0.090577-468.16 0.09375-1.5548 6.9739-2.4062 14.232-2.4062 21.688v76.344c139.06 0.49354 331.32 0.2554 472.97 0.25v-76.594c0-7.4875-0.8386-14.78-2.4062-21.781zm-307.19 197.94c-52.495-3e-3 -106.38 0.11982-163.38 0.375v92.844c191.76-0.26331 282.43-0.0926 472.97-0.21875v-92.25c-109.29-0.35498-208.43-0.74426-309.59-0.75z" opacity="0"/>
                    </g>
                </g>
            </g>
        </g>
        <path d="m23.015 1049.6c0.6218 0 1.123-0.5012 1.123-1.123v-0.3125c0 0.6218-0.5012 1.123-1.123 1.123h-19.082c-0.6218 0-1.123-0.5012-1.123-1.123v0.3125c0 0.6218 0.5012 1.123 1.123 1.123h19.082z" fill="#1a237e" opacity=".2"/>
    </g>
    <g>
        <flowRoot fill="#000000" font-family="Roboto" font-size="3.75px" letter-spacing="0px" stroke-width="1px" word-spacing="0px" style="line-height:125%" xml:space="preserve"><flowRegion><rect x="10.664" y="11.235" width="4.49" height="5.0512"/></flowRegion><flowPara>your</flowPara></flowRoot>
        <path d="m9.4512 6.7695c-0.73757 0-1.3398 0.60423-1.3398 1.3418v10.729c0 0.73757 0.60228 1.3398 1.3398 1.3398h8.0469c0.73757 0 1.3418-0.60228 1.3418-1.3398v-10.729c0-0.73757-0.60423-1.3418-1.3418-1.3418h-8.0469zm0 1.3418h3.3535v5.3633l-1.6758-1.0059-1.6777 1.0059v-5.3633zm6.3184 1.8594c0.37621 0 0.70537 0.072954 0.98828 0.2207 0.28592 0.14775 0.49738 0.34906 0.63281 0.60352l-0.83203 0.36914c-0.17155-0.18879-0.41445-0.2832-0.73047-0.2832-0.3732 0-0.63931 0.083679-0.79883 0.25195-0.15951 0.16827-0.24024 0.36607-0.24024 0.5918 0 0.14364 0.0334 0.2718 0.09961 0.38672 0.06621 0.11902 0.17104 0.2189 0.3125 0.29688 0.08126 0.04104 0.31952 0.13545 0.7168 0.2832 0.57485 0.20931 0.97544 0.38214 1.2012 0.51758 0.22874 0.13133 0.40769 0.32367 0.53711 0.57812 0.12942 0.25446 0.19336 0.56968 0.19336 0.94727 0 0.36937-0.07877 0.71854-0.23828 1.0469-0.1565 0.32423-0.38368 0.57723-0.68164 0.75781-0.010895 0.006452-0.024159 0.007456-0.035157 0.013672 0.014991 0.025826 0.034976 0.045029 0.048828 0.072266 0.12942 0.25446 0.19531 0.56968 0.19531 0.94727 0 0.36937-0.080724 0.71854-0.24023 1.0469-0.1565 0.32423-0.38368 0.57723-0.68164 0.75781-0.29796 0.17648-0.63356 0.26367-1.0098 0.26367-0.62301 0-1.0997-0.17634-1.4277-0.5293l0.55469-0.73242c0.20767 0.23394 0.497 0.35156 0.86719 0.35156 0.3732 0 0.65145-0.10339 0.83203-0.30859 0.18058-0.20931 0.26953-0.45334 0.26953-0.73242 0-0.25035-0.07877-0.44815-0.23828-0.5918-0.11136-0.0985-0.38961-0.22315-0.83203-0.375-0.049912-0.017187-0.079596-0.03009-0.12695-0.046875-0.007963-0.002895-0.015556-0.006772-0.023438-0.009765-0.50403-0.17965-0.88115-0.3396-1.0898-0.47266-0.22874-0.15185-0.40305-0.35843-0.52344-0.62109-0.11738-0.26677-0.17773-0.56074-0.17773-0.88086 0-0.29139 0.048226-0.56039 0.14453-0.80664 0.09932-0.25035 0.2338-0.45693 0.40234-0.62109 0.11927-0.12004 0.28277-0.22118 0.48242-0.30469-0.049466-0.072552-0.1022-0.14077-0.14062-0.22461-0.11738-0.26677-0.17578-0.56074-0.17578-0.88086 0-0.29139 0.048216-0.56039 0.14453-0.80664 0.099319-0.25035 0.2338-0.45693 0.40234-0.62109 0.12641-0.12723 0.29697-0.23412 0.51367-0.32031 0.21971-0.09029 0.45527-0.13477 0.70508-0.13477zm-0.6543 3.748c-0.3732 0-0.63931 0.083679-0.79883 0.25195-0.15951 0.16827-0.23828 0.36607-0.23828 0.5918 0 0.14364 0.033399 0.2718 0.099609 0.38672 0.06621 0.11902 0.16909 0.2189 0.31055 0.29688 0.08126 0.04104 0.32147 0.13545 0.71875 0.2832 0.35712 0.13003 0.62137 0.24028 0.84375 0.3418 0.29751-0.024779 0.53815-0.11073 0.69336-0.28711 0.18058-0.20931 0.27148-0.45334 0.27148-0.73242 0-0.25035-0.080724-0.4462-0.24023-0.58984-0.11136-0.0985-0.38765-0.2251-0.83008-0.37695-0.15899-0.054749-0.27123-0.10168-0.4043-0.15234-0.13762-0.012696-0.28576-0.013672-0.42578-0.013672z" fill="#fff"/>
    </g>
    <g display="none" fill="none">
        <rect transform="rotate(90)" x="7.3342" y="-19.616" width="12.282" height="12.282" display="inline" stroke="#000" stroke-width=".065984"/>
        <rect x="6.7726" y="8.112" width="13.405" height="10.726" stroke="#5261ff" stroke-linecap="round" stroke-linejoin="round" stroke-width=".06524"/>
        <rect transform="rotate(90)" x="6.7726" y="-18.838" width="13.405" height="10.726" display="inline" stroke="#0f0" stroke-linecap="round" stroke-linejoin="round" stroke-width=".06524"/>
    </g>
</svg>
