<?xml version="1.0" encoding="UTF-8"?>
<svg version="1.1" viewBox="0 0 28.747 28.747" xmlns="http://www.w3.org/2000/svg" xmlns:osb="http://www.openswatchbook.org/uri/2009/osb" xmlns:xlink="http://www.w3.org/1999/xlink">
    <defs>
        <filter id="filter6206-7" color-interpolation-filters="sRGB">
            <feGaussianBlur stdDeviation="0.658125"/>
        </filter>
    </defs>
    <g transform="translate(0 -1093.8)">
        <path transform="matrix(1.0781 0 0 1.0641 -.093733 2.7509)" d="m4.4177 1028.2v1.6051h-1.6052v18.192h1.6052v2.1402h18.192v-2.1402h2.1402v-18.192h-2.1402v-1.6051z" fill="#263238" filter="url(#filter6206-7)" opacity=".2"/>
        <rect x="2.9987" y="1096.8" width="22.749" height="22.749" rx="1.1973" ry="1.1974" fill="#607d8b"/>
        <g transform="translate(-22.32 1056.5)">
            <path d="m0 0h51.2v51.2h-51.2z" fill="none" stroke-width="1.0667"/>
            <g transform="matrix(.33601 0 0 .33601 1.5296 73.043)">
                <path d="m0 0h51.2v51.2h-51.2z" fill="none" stroke-width="1.0667"/>
            </g>
            <g transform="matrix(.37187 0 0 .37187 38.802 63.239)">
                <path d="m0 0h51.2v51.2h-51.2z" fill="none" stroke-width="1.0667"/>
                <g transform="matrix(2.6891 0 0 2.6891 -82.906 -48.45)">
                    <path d="m0 0h51.2v51.2h-51.2z" fill="none" stroke-width="1.0667"/>
                </g>
            </g>
        </g>
        <path d="m4.1958 1096.8c-0.66332 0-1.1979 0.5346-1.1979 1.1979v0.3334c0-0.6634 0.53459-1.1979 1.1979-1.1979h20.354c0.66332 0 1.1979 0.5345 1.1979 1.1979v-0.3334c0-0.6633-0.5346-1.1979-1.1979-1.1979z" fill="#fff" opacity=".2"/>
        <rect x="128" y="546.52" width="42.667" height="42.667" fill="none" stroke-width="1.0667"/>
        <rect x="128" y="631.85" width="42.667" height="42.667" fill="none" stroke-width="1.0667"/>
        <rect x="128" y="674.52" width="42.667" height="42.667" fill="none" stroke-width="1.0667"/>
        <rect x="128" y="589.19" width="42.667" height="42.667" fill="none" stroke-width="1.0667"/>
        <rect x="128" y="717.19" width="42.667" height="42.667" fill="none" stroke-width="1.0667"/>
        <rect x="213.33" y="546.52" width="42.667" height="42.667" fill="none" stroke-width="1.0667"/>
        <rect x="213.33" y="631.85" width="42.667" height="42.667" fill="none" stroke-width="1.0667"/>
        <rect x="213.33" y="674.52" width="42.667" height="42.667" fill="none" stroke-width="1.0667"/>
        <rect x="213.33" y="589.19" width="42.667" height="42.667" fill="none" stroke-width="1.0667"/>
        <rect x="213.33" y="717.19" width="42.667" height="42.667" fill="none" stroke-width="1.0667"/>
        <rect x="298.67" y="546.52" width="42.667" height="42.667" fill="none" stroke-width="1.0667"/>
        <rect x="298.67" y="631.85" width="42.667" height="42.667" fill="none" stroke-width="1.0667"/>
        <rect x="298.67" y="674.52" width="42.667" height="42.667" fill="none" stroke-width="1.0667"/>
        <rect x="298.67" y="589.19" width="42.667" height="42.667" fill="none" stroke-width="1.0667"/>
        <rect x="298.67" y="717.19" width="42.667" height="42.667" fill="none" stroke-width="1.0667"/>
        <rect x="170.67" y="546.52" width="42.667" height="42.667" fill="none" stroke-width="1.0667"/>
        <rect x="170.67" y="631.85" width="42.667" height="42.667" fill="none" stroke-width="1.0667"/>
        <rect x="170.67" y="674.52" width="42.667" height="42.667" fill="none" stroke-width="1.0667"/>
        <rect x="170.67" y="589.19" width="42.667" height="42.667" fill="none" stroke-width="1.0667"/>
        <rect x="170.67" y="717.19" width="42.667" height="42.667" fill="none" stroke-width="1.0667"/>
        <rect x="256" y="546.52" width="42.667" height="42.667" fill="none" stroke-width="1.0667"/>
        <rect x="256" y="631.85" width="42.667" height="42.667" fill="none" stroke-width="1.0667"/>
        <rect x="256" y="674.52" width="42.667" height="42.667" fill="none" stroke-width="1.0667"/>
        <rect x="256" y="589.19" width="42.667" height="42.667" fill="none" stroke-width="1.0667"/>
        <rect x="256" y="717.19" width="42.667" height="42.667" fill="none" stroke-width="1.0667"/>
        <rect x="128" y="759.85" width="42.667" height="42.667" fill="none" stroke-width="1.0667"/>
        <rect x="213.33" y="759.85" width="42.667" height="42.667" fill="none" stroke-width="1.0667"/>
        <rect x="298.67" y="759.85" width="42.667" height="42.667" fill="none" stroke-width="1.0667"/>
        <rect x="170.67" y="759.85" width="42.667" height="42.667" fill="none" stroke-width="1.0667"/>
        <rect x="256" y="759.85" width="42.667" height="42.667" fill="none" stroke-width="1.0667"/>
        <rect x="341.33" y="589.19" width="42.667" height="42.667" fill="none" stroke-width="1.0667"/>
        <rect x="341.33" y="631.85" width="42.667" height="42.667" fill="none" stroke-width="1.0667"/>
        <rect x="341.33" y="717.19" width="42.667" height="42.667" fill="none" stroke-width="1.0667"/>
        <rect x="341.33" y="546.52" width="42.667" height="42.667" fill="none" stroke-width="1.0667"/>
        <rect x="341.33" y="674.52" width="42.667" height="42.667" fill="none" stroke-width="1.0667"/>
        <rect x="341.33" y="759.85" width="42.667" height="42.667" fill="none" stroke-width="1.0667"/>
        <rect x="160" y="578.52" width="192" height="192" fill="none" stroke-width="1.0667"/>
        <g transform="matrix(.37344 0 0 .37344 4.7333 1097.4)">
            <path d="m0 0h51.2v51.2h-51.2z" fill="none" stroke-width="1.0667"/>
        </g>
        <g transform="matrix(.36471 0 0 .36471 5.1356 1097.4)">
            <path d="m0 0h51.2v51.2h-51.2z" fill="none" stroke-width="1.0667"/>
        </g>
        <g transform="matrix(.41585 0 0 .41585 84.325 1055.9)">
            <g transform="matrix(.062269 0 0 .062269 -28.238 185.29)">
                <g transform="matrix(38.618 0 0 38.618 14724 -13542)">
                    <g transform="matrix(.71436 0 0 .71436 -400.52 188.34)">
                        <path d="m1293.2-120.67c-181.75 0.2763-511.18 0.13525-699.05 0.13998-2.3216 10.413-3.593 21.251-3.593 32.384v114c207.65 0.73695 494.72 0.38136 706.23 0.3733v-114.37c0-11.18-1.2522-22.07-3.593-32.523zm-458.69 295.56c-78.385-4e-3 -158.85 0.17892-243.95 0.55995v138.63c286.34-0.39317 421.73-0.13827 706.23-0.32664v-137.75c-163.2-0.53005-311.22-1.1113-462.28-1.1199z" opacity="0" stroke-width="1.4932"/>
                    </g>
                </g>
            </g>
        </g>
        <path d="m24.549 1119.5c0.66325 0 1.1979-0.5346 1.1979-1.1979v-0.3333c0 0.6632-0.53461 1.1978-1.1979 1.1978h-20.354c-0.66325 0-1.1979-0.5346-1.1979-1.1978v0.3333c0 0.6633 0.53461 1.1979 1.1979 1.1979z" fill="#263238" opacity=".2"/>
    </g>
    <g>
        <flowRoot fill="#000000" font-family="Roboto" font-size="12.8px" letter-spacing="0px" stroke-width="1.0667px" word-spacing="0px" style="line-height:0.01%" xml:space="preserve"><flowRegion><rect x="11.375" y="11.984" width="4.7893" height="5.388" stroke-width="1.1378px"/></flowRegion><flowPara font-size="4px" style="line-height:1.25">your</flowPara></flowRoot>
        <path d="m13.724 13.163c-0.2626 0.8449-0.63938 1.7469-1.1532 2.7402-0.22835 0.43387-0.47954 0.8449-0.57088 1.1874l0.12559-0.04567c1.45-0.55946 2.8201-0.87915 3.8135-1.0618-0.17126-0.11418-0.33111-0.23977-0.46812-0.36536-0.68505-0.5823-1.2788-1.4272-1.7469-2.4548m7.3986 4.3501c-0.1941 0.21693-0.53662 0.34253-1.039 0.34253-0.86774 0-2.2835-0.2626-3.4253-0.8449-1.9638 0.21693-3.4253 0.47954-4.6013 0.85632-0.05709 0.02284-0.12559 0.04567-0.20552 0.07992-1.4158 2.4205-2.4662 3.5052-3.391 3.5052-0.18268 0-0.36536-0.04567-0.50237-0.12559l-0.54804-0.35394-0.034253-0.05709c-0.079923-0.20552-0.10276-0.39962-0.057088-0.61655 0.12559-0.60513 0.77639-1.5642 2.1465-2.4205 0.21693-0.15985 0.55946-0.34253 1.0162-0.55946 0.34253-0.59371 0.70789-1.2902 1.0961-2.0552 0.5823-1.176 0.94766-2.3406 1.2331-3.3453v-0.01142c-0.42245-1.3815-0.67364-2.215-0.25119-3.7335 0.10276-0.43387 0.47954-0.87915 0.90199-0.87915h0.27402c0.2626 0 0.51379 0.091341 0.69647 0.27402 0.75356 0.75356 0.39962 2.5918 0.02283 4.1103-0.02283 0.06851-0.03425 0.12559-0.04567 0.15985 0.4567 1.2902 1.1075 2.3292 1.8268 2.9229 0.29686 0.22835 0.62797 0.4567 0.99333 0.66222 0.51379-0.05709 1.0047-0.07992 1.4729-0.07992 1.4158 0 2.2721 0.25119 2.6032 0.78781 0.11418 0.18268 0.17126 0.39961 0.13701 0.62797-0.01142 0.28544-0.11418 0.54804-0.31969 0.75356m-0.46812-0.81065c-0.11417-0.11418-0.57087-0.39962-2.1693-0.39962-0.07992 0-0.15985 0-0.2626 0.11418 0.83348 0.36536 1.6441 0.5823 2.1693 0.5823 0.07992 0 0.14843-0.01142 0.21693-0.02284h0.04567c0.05709-0.02284 0.09134-0.03425 0.10276-0.14843-0.02284-0.03425-0.04567-0.07992-0.10276-0.12559m-10.47 1.667c-0.23977 0.13701-0.43387 0.2626-0.54804 0.35394-0.81065 0.74214-1.3244 1.4957-1.3815 1.9296 0.51379-0.17126 1.1874-0.92482 1.9296-2.2835m3.4481-7.8895 0.05709-0.04567c0.07992-0.36536 0.11418-0.68505 0.18268-0.93624l0.03425-0.18268c0.11418-0.6508 0.09134-0.98191-0.10276-1.2559l-0.17126-0.057088c-0.02284 0.034253-0.05709 0.091341-0.07992 0.13701-0.1941 0.47954-0.18268 1.313 0.07992 2.3406z" fill="#fff" stroke-width="1.1418"/>
    </g>
    <g display="none" fill="none">
        <rect transform="rotate(90)" x="7.8232" y="-20.923" width="13.1" height="13.1" display="inline" stroke="#000" stroke-width=".070382"/>
        <rect x="7.2241" y="8.6528" width="14.298" height="11.441" stroke="#5261ff" stroke-linecap="round" stroke-linejoin="round" stroke-width=".069589"/>
        <rect transform="rotate(90)" x="7.2241" y="-20.094" width="14.298" height="11.441" display="inline" stroke="#0f0" stroke-linecap="round" stroke-linejoin="round" stroke-width=".069589"/>
    </g>
</svg>
