<?xml version="1.0" encoding="UTF-8"?>
<svg version="1.1" viewBox="0 0 26.95 26.95" xmlns="http://www.w3.org/2000/svg">
    <defs>
        <filter id="filter6206-7" color-interpolation-filters="sRGB">
            <feGaussianBlur stdDeviation="0.658125"/>
        </filter>
    </defs>
    <g transform="translate(0 -1025.4)">
        <path transform="matrix(1.0107 0 0 .99762 -.087875 2.579)" d="m4.4177 1028.2v1.6051h-1.6052v18.192h1.6052v2.1402h18.192v-2.1402h2.1402v-18.192h-2.1402v-1.6051h-18.192z" fill="#bf360c" filter="url(#filter6206-7)" opacity=".2"/>
        <rect x="2.8113" y="1028.2" width="21.327" height="21.327" rx="1.1225" ry="1.1226" fill="#ff9800"/>
        <g transform="translate(-20.925 990.46)">
            <path d="m0 0h48v48h-48z" fill="none"/>
            <g transform="matrix(.33601 0 0 .33601 1.434 68.477)">
                <path d="m0 0h48v48h-48z" fill="none"/>
            </g>
            <g transform="matrix(.37187 0 0 .37187 36.377 59.287)">
                <path d="m0 0h48v48h-48z" fill="none"/>
                <g transform="matrix(2.6891 0 0 2.6891 -77.724 -45.422)">
                    <path d="m0 0h48v48h-48z" fill="none"/>
                </g>
            </g>
        </g>
        <path transform="translate(0 1025.4)" d="m3.9336 2.8105c-0.62186 0-1.123 0.50115-1.123 1.123v0.3125c0-0.6219 0.50118-1.123 1.123-1.123h19.082c0.62186 0 1.123 0.50115 1.123 1.123v-0.3125c0-0.6219-0.50118-1.123-1.123-1.123h-19.082z" fill="#fff" opacity=".2"/>
        <rect x="120" y="512.36" width="40" height="40" fill="none"/>
        <rect x="120" y="592.36" width="40" height="40" fill="none"/>
        <rect x="120" y="632.36" width="40" height="40" fill="none"/>
        <rect x="120" y="552.36" width="40" height="40" fill="none"/>
        <rect x="120" y="672.36" width="40" height="40" fill="none"/>
        <rect x="200" y="512.36" width="40" height="40" fill="none"/>
        <rect x="200" y="592.36" width="40" height="40" fill="none"/>
        <rect x="200" y="632.36" width="40" height="40" fill="none"/>
        <rect x="200" y="552.36" width="40" height="40" fill="none"/>
        <rect x="200" y="672.36" width="40" height="40" fill="none"/>
        <rect x="280" y="512.36" width="40" height="40" fill="none"/>
        <rect x="280" y="592.36" width="40" height="40" fill="none"/>
        <rect x="280" y="632.36" width="40" height="40" fill="none"/>
        <rect x="280" y="552.36" width="40" height="40" fill="none"/>
        <rect x="280" y="672.36" width="40" height="40" fill="none"/>
        <rect x="160" y="512.36" width="40" height="40" fill="none"/>
        <rect x="160" y="592.36" width="40" height="40" fill="none"/>
        <rect x="160" y="632.36" width="40" height="40" fill="none"/>
        <rect x="160" y="552.36" width="40" height="40" fill="none"/>
        <rect x="160" y="672.36" width="40" height="40" fill="none"/>
        <rect x="240" y="512.36" width="40" height="40" fill="none"/>
        <rect x="240" y="592.36" width="40" height="40" fill="none"/>
        <rect x="240" y="632.36" width="40" height="40" fill="none"/>
        <rect x="240" y="552.36" width="40" height="40" fill="none"/>
        <rect x="240" y="672.36" width="40" height="40" fill="none"/>
        <rect x="120" y="712.36" width="40" height="40" fill="none"/>
        <rect x="200" y="712.36" width="40" height="40" fill="none"/>
        <rect x="280" y="712.36" width="40" height="40" fill="none"/>
        <rect x="160" y="712.36" width="40" height="40" fill="none"/>
        <rect x="240" y="712.36" width="40" height="40" fill="none"/>
        <rect x="320" y="552.36" width="40" height="40" fill="none"/>
        <rect x="320" y="592.36" width="40" height="40" fill="none"/>
        <rect x="320" y="672.36" width="40" height="40" fill="none"/>
        <rect x="320" y="512.36" width="40" height="40" fill="none"/>
        <rect x="320" y="632.36" width="40" height="40" fill="none"/>
        <rect x="320" y="712.36" width="40" height="40" fill="none"/>
        <rect x="150" y="542.36" width="180" height="180" fill="none"/>
        <g transform="matrix(.37344 0 0 .37344 4.4375 1028.8)">
            <path d="m0 0h48v48h-48z" fill="none"/>
        </g>
        <g transform="matrix(.36471 0 0 .36471 4.8146 1028.8)">
            <path d="m0 0h48v48h-48z" fill="none"/>
        </g>
        <g transform="matrix(.41585 0 0 .41585 79.055 989.88)">
            <g transform="matrix(.062269 0 0 .062269 -26.473 173.71)">
                <g transform="matrix(38.618 0 0 38.618 13804 -12696)">
                    <g transform="matrix(.71436 0 0 .71436 -375.49 176.57)">
                        <path transform="matrix(1.3999 0 0 1.3999 525.63 -247.17)" d="m490.56 95.75c-121.72 0.18504-342.34 0.090577-468.16 0.09375-1.5548 6.9739-2.4062 14.232-2.4062 21.688v76.344c139.06 0.49354 331.32 0.2554 472.97 0.25v-76.594c0-7.4875-0.8386-14.78-2.4062-21.781zm-307.19 197.94c-52.495-3e-3 -106.38 0.11982-163.38 0.375v92.844c191.76-0.26331 282.43-0.0926 472.97-0.21875v-92.25c-109.29-0.35498-208.43-0.74426-309.59-0.75z" opacity="0"/>
                    </g>
                </g>
            </g>
        </g>
        <path d="m23.015 1049.6c0.6218 0 1.123-0.5012 1.123-1.123v-0.3125c0 0.6218-0.5012 1.123-1.123 1.123h-19.082c-0.6218 0-1.123-0.5012-1.123-1.123v0.3125c0 0.6218 0.5012 1.123 1.123 1.123h19.082z" fill="#bf360c" opacity=".2"/>
    </g>
    <flowRoot fill="#000000" font-family="Roboto" font-size="3.75px" letter-spacing="0px" stroke-width="1px" word-spacing="0px" style="line-height:125%" xml:space="preserve"><flowRegion><rect x="10.664" y="11.235" width="4.49" height="5.0512"/></flowRegion><flowPara>your</flowPara></flowRoot>
    <g transform="matrix(.72227 0 0 .69943 -92.753 -172.55)" fill="#fff">
        <g fill="#fff">
            <path class="fil0 str0" d="m147.73 266.94c-0.40648 0.0787-0.77299 0.25473-1.1128 0.52333-0.33984 0.27326-0.50645 0.57428-0.50645 0.89847 0 0.20377 0.0999 0.43533 0.29321 0.68081 0.19325 0.25008 0.48645 0.43069 0.86628 0.54648 0.12655 0.0186 0.18658 0.0648 0.18658 0.12962 0 0.0231-0.0465 0.0464-0.15985 0.0648-0.60639-0.10651-1.1062-0.33344-1.4926-0.67155-0.3865-0.3427-0.58642-0.73173-0.59974-1.1763 0.02-0.47702 0.22656-0.92163 0.61973-1.3292 0.39981-0.41217 0.91291-0.70395 1.5393-0.8753l-0.45979-1.6441c-1.0262 0.5928-1.8592 1.2088-2.5056 1.8571-0.64638 0.64375-0.97957 1.3431-1.0062 2.098 0.0129 0.33808 0.1133 0.6669 0.29988 0.98183 0.18658 0.31956 0.46644 0.6067 0.83962 0.87068 0.75298 0.52334 1.7326 0.79658 2.9254 0.82436 0.40648-0.0186 0.83963-0.0695 1.3061-0.1529l-1.0329-3.6263zm0.47978-0.0462 1.0395 3.5614c1.0262-0.28714 1.5393-0.91236 1.5393-1.8664-0.06-0.31957-0.19325-0.60671-0.41981-0.86143-0.21989-0.25935-0.51311-0.46313-0.88627-0.61132-0.37317-0.14821-0.79299-0.2223-1.2728-0.2223zm-1.366-4.8165c0.2199-0.0926 0.47312-0.25472 0.74632-0.48165 0.27321-0.2223 0.53976-0.48628 0.79299-0.78268 0.25988-0.30104 0.46645-0.6067 0.61972-0.91699 0.15322-0.30566 0.22656-0.59744 0.22656-0.86604 0-0.11573-0.0129-0.23158-0.0465-0.33347-0.0267-0.16673-0.0999-0.2964-0.22656-0.38438-0.12655-0.0834-0.28653-0.12963-0.48644-0.12963-0.39982 0-0.75966 0.17136-1.0795 0.51406-0.24656 0.2964-0.45315 0.64839-0.59974 1.0467-0.15322 0.40291-0.2399 0.8012-0.25323 1.2041 0.0333 0.45849 0.13996 0.83362 0.30653 1.13zm-0.41982 0.26862c-0.29986-0.75027-0.46646-1.5144-0.49977-2.2925 6e-3 -0.50017 0.08-0.96793 0.2199-1.4033 0.13334-0.43533 0.32651-0.81048 0.57974-1.1347 0.24656-0.32419 0.53309-0.56964 0.85296-0.73638 0.28652-0.1482 0.49311-0.22692 0.60639-0.22692 0.0866 0 0.16001 0.0231 0.22657 0.0648 0.0666 0.0417 0.15322 0.11119 0.25987 0.20377 0.79299 0.78268 1.1928 1.7275 1.1928 2.8297 0 0.52333-0.0999 1.0328-0.29987 1.5422-0.19324 0.5048-0.47978 0.98645-0.85961 1.4357-0.38649 0.45386-0.83964 0.84753-1.3661 1.1856l0.53976 1.8247c0.2932-0.0231 0.49311-0.0417 0.60639-0.0417 0.50645 0 0.95958 0.0742 1.3794 0.22231 0.41981 0.14821 0.77966 0.34733 1.0728 0.60205 0.2932 0.25009 0.51976 0.53723 0.6797 0.86142 0.15322 0.32418 0.2399 0.66227 0.2399 1.0142 0 0.5465-0.20659 1.0467-0.61973 1.4959-0.41316 0.44923-1.0329 0.77806-1.8658 0.99109 0.0533 0.22692 0.14659 0.55575 0.28653 0.9772 0.13334 0.42607 0.23324 0.76415 0.29987 1.0142 0.0666 0.25008 0.0933 0.4909 0.0933 0.72709 0 0.36587-0.12655 0.69007-0.37983 0.97721-0.25989 0.28713-0.6064 0.50944-1.0462 0.66689-0.43313 0.15742-0.91291 0.2362-1.4327 0.2362-0.733 0-1.3727-0.14352-1.9191-0.42607-0.54643-0.28714-0.83962-0.67153-0.86628-1.1624 0.02-0.21767 0.0933-0.42145 0.22656-0.61596 0.13334-0.19451 0.3132-0.35198 0.54643-0.47238 0.22657-0.12509 0.49978-0.18989 0.81297-0.20379 0.25989 0 0.50645 0.0509 0.73967 0.14821 0.22656 0.10182 0.41314 0.23618 0.55308 0.40755 0.13334 0.17135 0.20658 0.36124 0.20658 0.56502 0 0.27324-0.13334 0.5048-0.39982 0.69469-0.26655 0.18988-0.6064 0.28712-1.0129 0.28712h-0.15322c0.25988 0.27788 0.68635 0.42145 1.2794 0.42145 0.29986 0 0.6064-0.0464 0.91293-0.12962 0.31319-0.0879 0.57307-0.20376 0.79297-0.35197 0.21991-0.1482 0.3665-0.30566 0.42648-0.47237 0.1133-0.18989 0.16659-0.45387 0.16659-0.7827 0-0.22229-0.0333-0.44459-0.0933-0.66689-0.06-0.21767-0.15322-0.50945-0.27987-0.87068-0.12655-0.35661-0.2199-0.63449-0.27321-0.82436-0.39982 0.0695-0.81298 0.10651-1.2461 0.10651-0.72634 0-1.4127-0.10183-2.0591-0.31029-0.64636-0.20841-1.2128-0.49555-1.7059-0.86606-0.48644-0.37049-0.86629-0.7873-1.1395-1.2597-0.26653-0.46776-0.40648-0.95867-0.41314-1.4681 0.0267-0.47238 0.15322-0.92625 0.39317-1.3523 0.23988-0.43071 0.54641-0.83826 0.92624-1.218 0.37984-0.37976 0.77298-0.72711 1.1795-1.0374 0.41316-0.30568 0.95291-0.69933 1.6326-1.1764z" fill="#fff"/>
        </g>
    </g>
    <g display="none" fill="none">
        <rect transform="rotate(90)" x="7.3342" y="-19.616" width="12.282" height="12.282" display="inline" stroke="#000" stroke-width=".065984"/>
        <rect x="6.7726" y="8.112" width="13.405" height="10.726" stroke="#5261ff" stroke-linecap="round" stroke-linejoin="round" stroke-width=".06524"/>
        <rect transform="rotate(90)" x="6.7726" y="-18.838" width="13.405" height="10.726" display="inline" stroke="#0f0" stroke-linecap="round" stroke-linejoin="round" stroke-width=".06524"/>
    </g>
</svg>
