<?xml version="1.0" encoding="UTF-8"?>
<svg version="1.1" viewBox="0 0 26.95 26.95" xmlns="http://www.w3.org/2000/svg" xmlns:osb="http://www.openswatchbook.org/uri/2009/osb" xmlns:xlink="http://www.w3.org/1999/xlink">
    <defs>
        <filter id="filter6206-7" color-interpolation-filters="sRGB">
            <feGaussianBlur stdDeviation="0.658125"/>
        </filter>
    </defs>
    <g transform="translate(0 -1025.4)">
        <path transform="matrix(1.0107 0 0 .99762 -.087875 2.579)" d="m4.4177 1028.2v1.6051h-1.6052v18.192h1.6052v2.1402h18.192v-2.1402h2.1402v-18.192h-2.1402v-1.6051h-18.192z" fill="#bf360c" filter="url(#filter6206-7)" opacity=".2"/>
        <rect x="2.8113" y="1028.2" width="21.327" height="21.327" rx="1.1225" ry="1.1226" fill="#ff9800"/>
        <g transform="translate(-20.925 990.46)">
            <path d="m0 0h48v48h-48z" fill="none"/>
            <g transform="matrix(.33601 0 0 .33601 1.434 68.477)">
                <path d="m0 0h48v48h-48z" fill="none"/>
            </g>
            <g transform="matrix(.37187 0 0 .37187 36.377 59.287)">
                <path d="m0 0h48v48h-48z" fill="none"/>
                <g transform="matrix(2.6891 0 0 2.6891 -77.724 -45.422)">
                    <path d="m0 0h48v48h-48z" fill="none"/>
                </g>
            </g>
        </g>
        <path transform="translate(0 1025.4)" d="m3.9336 2.8105c-0.62186 0-1.123 0.50115-1.123 1.123v0.3125c0-0.6219 0.50118-1.123 1.123-1.123h19.082c0.62186 0 1.123 0.50115 1.123 1.123v-0.3125c0-0.6219-0.50118-1.123-1.123-1.123h-19.082z" fill="#fff" opacity=".2"/>
        <rect x="120" y="512.36" width="40" height="40" fill="none"/>
        <rect x="120" y="592.36" width="40" height="40" fill="none"/>
        <rect x="120" y="632.36" width="40" height="40" fill="none"/>
        <rect x="120" y="552.36" width="40" height="40" fill="none"/>
        <rect x="120" y="672.36" width="40" height="40" fill="none"/>
        <rect x="200" y="512.36" width="40" height="40" fill="none"/>
        <rect x="200" y="592.36" width="40" height="40" fill="none"/>
        <rect x="200" y="632.36" width="40" height="40" fill="none"/>
        <rect x="200" y="552.36" width="40" height="40" fill="none"/>
        <rect x="200" y="672.36" width="40" height="40" fill="none"/>
        <rect x="280" y="512.36" width="40" height="40" fill="none"/>
        <rect x="280" y="592.36" width="40" height="40" fill="none"/>
        <rect x="280" y="632.36" width="40" height="40" fill="none"/>
        <rect x="280" y="552.36" width="40" height="40" fill="none"/>
        <rect x="280" y="672.36" width="40" height="40" fill="none"/>
        <rect x="160" y="512.36" width="40" height="40" fill="none"/>
        <rect x="160" y="592.36" width="40" height="40" fill="none"/>
        <rect x="160" y="632.36" width="40" height="40" fill="none"/>
        <rect x="160" y="552.36" width="40" height="40" fill="none"/>
        <rect x="160" y="672.36" width="40" height="40" fill="none"/>
        <rect x="240" y="512.36" width="40" height="40" fill="none"/>
        <rect x="240" y="592.36" width="40" height="40" fill="none"/>
        <rect x="240" y="632.36" width="40" height="40" fill="none"/>
        <rect x="240" y="552.36" width="40" height="40" fill="none"/>
        <rect x="240" y="672.36" width="40" height="40" fill="none"/>
        <rect x="120" y="712.36" width="40" height="40" fill="none"/>
        <rect x="200" y="712.36" width="40" height="40" fill="none"/>
        <rect x="280" y="712.36" width="40" height="40" fill="none"/>
        <rect x="160" y="712.36" width="40" height="40" fill="none"/>
        <rect x="240" y="712.36" width="40" height="40" fill="none"/>
        <rect x="320" y="552.36" width="40" height="40" fill="none"/>
        <rect x="320" y="592.36" width="40" height="40" fill="none"/>
        <rect x="320" y="672.36" width="40" height="40" fill="none"/>
        <rect x="320" y="512.36" width="40" height="40" fill="none"/>
        <rect x="320" y="632.36" width="40" height="40" fill="none"/>
        <rect x="320" y="712.36" width="40" height="40" fill="none"/>
        <rect x="150" y="542.36" width="180" height="180" fill="none"/>
        <g transform="matrix(.37344 0 0 .37344 4.4375 1028.8)">
            <path d="m0 0h48v48h-48z" fill="none"/>
        </g>
        <g transform="matrix(.36471 0 0 .36471 4.8146 1028.8)">
            <path d="m0 0h48v48h-48z" fill="none"/>
        </g>
        <g transform="matrix(.41585 0 0 .41585 79.055 989.88)">
            <g transform="matrix(.062269 0 0 .062269 -26.473 173.71)">
                <g transform="matrix(38.618 0 0 38.618 13804 -12696)">
                    <g transform="matrix(.71436 0 0 .71436 -375.49 176.57)">
                        <path transform="matrix(1.3999 0 0 1.3999 525.63 -247.17)" d="m490.56 95.75c-121.72 0.18504-342.34 0.090577-468.16 0.09375-1.5548 6.9739-2.4062 14.232-2.4062 21.688v76.344c139.06 0.49354 331.32 0.2554 472.97 0.25v-76.594c0-7.4875-0.8386-14.78-2.4062-21.781zm-307.19 197.94c-52.495-3e-3 -106.38 0.11982-163.38 0.375v92.844c191.76-0.26331 282.43-0.0926 472.97-0.21875v-92.25c-109.29-0.35498-208.43-0.74426-309.59-0.75z" opacity="0"/>
                    </g>
                </g>
            </g>
        </g>
        <path d="m23.015 1049.6c0.6218 0 1.123-0.5012 1.123-1.123v-0.3125c0 0.6218-0.5012 1.123-1.123 1.123h-19.082c-0.6218 0-1.123-0.5012-1.123-1.123v0.3125c0 0.6218 0.5012 1.123 1.123 1.123h19.082z" fill="#bf360c" opacity=".2"/>
    </g>
    <g>
        <flowRoot fill="#000000" font-family="Roboto" font-size="3.75px" letter-spacing="0px" stroke-width="1px" word-spacing="0px" style="line-height:125%" xml:space="preserve"><flowRegion><rect x="10.664" y="11.235" width="4.49" height="5.0512"/></flowRegion><flowPara>your</flowPara></flowRoot>
        <path d="m9.2402 19.146c-0.1075-0.04698-0.19545-0.11462-0.19545-0.15032 0-0.03571 0.070706-0.18084 0.15711-0.32253l0.15711-0.25762-0.56105-4.51e-4c-0.47945-3.48e-4 -0.59944-0.015285-0.82506-0.10217-0.36386-0.14024-0.6168-0.33546-0.7749-0.59805l-0.13381-0.22225 0.00119-1.3613c0.00108-1.2386 0.00997-1.3773 0.099057-1.5397 0.14525-0.26476 0.44473-0.51541 0.77744-0.65067l0.29508-0.11996 7.3739-0.02619 0.0136-1.7772 0.0136-1.7772 0.25556-0.01342c0.16916-9e-3 0.27021 0.0058 0.2989 0.04315 0.02384 0.03111 0.0437 0.83554 0.04413 1.7876l7.99e-4 1.7311 1.2379 0.01919c1.216 0.01886 1.2431 0.02126 1.5329 0.13612 0.33131 0.13128 0.63124 0.38113 0.77744 0.64763 0.08909 0.1624 0.09801 0.30113 0.09905 1.5397l0.0011 1.3613-0.13381 0.22226c-0.15809 0.2626-0.41103 0.45781-0.7749 0.59805-0.22562 0.08696-0.34561 0.1018-0.82506 0.10217l-0.56105 4.5e-4 0.15711 0.25762c0.08641 0.14169 0.15711 0.2869 0.15711 0.32268 0 0.08059-0.38234 0.24768-0.48914 0.21375-0.04301-0.01373-0.1862-0.19791-0.31819-0.40945l-0.23999-0.38462h-3.3848-3.3848l-0.20647 0.3399c-0.19643 0.32327-0.33296 0.48208-0.4109 0.47787-0.019448-1e-3 -0.12332-0.04034-0.23082-0.08731zm9.4672-1.3512c0.24322-0.0841 0.43082-0.2667 0.49677-0.48349 0.07666-0.25197 0.07388-2.1216-0.0035-2.376-0.08303-0.27292-0.32971-0.46746-0.66916-0.52772-0.18231-0.03235-1.7792-0.04729-5.0564-0.04729s-4.8741 0.01497-5.0564 0.04729c-0.33945 0.06026-0.58614 0.2548-0.66916 0.52772-0.077399 0.25442-0.080164 2.124-0.00354 2.376 0.064582 0.2123 0.25085 0.39719 0.48522 0.48163 0.24391 0.08786 10.222 0.08965 10.476 0.0018zm-9.4437-0.4664c-0.034398-0.02848-0.062183-0.11099-0.061749-0.18335 0.00167-0.27149-0.084739-0.25983 2.0244-0.2733 2.1191-0.01357 2.0923-0.01671 2.0923 0.24912 0 0.27567 0.12809 0.2593-2.0279 0.2593-1.4585 0-1.9807-0.01326-2.0271-0.05178zm6.171e-4 -0.99174c-0.085675-0.07091-0.080114-0.35794 0.00808-0.41854 0.051012-0.03505 0.62459-0.04575 2.0184-0.03764l1.9472 0.01137 0.05038 0.11865c0.03246 0.07639 0.03246 0.16089 0 0.23728l-0.05038 0.11865-1.9553 0.01123c-1.4773 0.0087-1.9707-0.0015-2.0184-0.04098zm4.2556-3.9932c-0.1888-0.16016-0.41376-0.37857-0.49989-0.48534-0.83337-1.0331-0.77925-2.4861 0.13043-3.5019 0.26869-0.30003 0.71142-0.63968 0.83381-0.63968 0.11533 0 0.32476 0.22002 0.32476 0.34119 0 0.047982-0.08342 0.13849-0.18912 0.20523-0.24764 0.15634-0.56337 0.51371-0.75798 0.85794-0.54525 0.96443-0.32264 2.0341 0.59204 2.8448 0.19529 0.17309 0.35507 0.33803 0.35507 0.36654 0 0.10433-0.21663 0.30243-0.3307 0.30243-0.07348 0-0.23931-0.10536-0.4584-0.2912zm4.1286 0.17753c-0.05943-0.06252-0.10802-0.14952-0.10802-0.19334 0-0.04381 0.14978-0.20364 0.33283-0.35516 0.39697-0.32858 0.72087-0.83556 0.83972-1.3144 0.09865-0.39742 0.09822-0.55362-0.0026-0.95707-0.12083-0.48354-0.39143-0.89902-0.84601-1.299l-0.38863-0.34194 0.13734-0.17178c0.07766-0.097136 0.17913-0.17178 0.2335-0.17178 0.1277 0 0.54145 0.3054 0.78398 0.57868 0.8798 0.99134 1.0228 2.1679 0.39446 3.2448-0.1741 0.29838-0.32624 0.47865-0.62803 0.74419-0.44029 0.3874-0.5672 0.42754-0.7485 0.23675zm-3.3243-0.91094c-0.90979-0.81477-0.89801-2.0494 0.02736-2.8683 0.28375-0.25109 0.42514-0.26581 0.57862-0.060244 0.14683 0.19665 0.13824 0.2439-0.07457 0.41004-0.24295 0.18968-0.4129 0.44141-0.52477 0.7773-0.07988 0.23985-0.08335 0.30959-0.02673 0.53654 0.08232 0.32988 0.2668 0.63248 0.52933 0.86822 0.23623 0.21213 0.24406 0.24559 0.09744 0.41604-0.16294 0.18941-0.33091 0.16736-0.60669-0.07961zm2.5946 0.09125c-0.14572-0.15334-0.13614-0.23745 0.04491-0.39427 0.75379-0.65288 0.76788-1.6176 0.03224-2.2078-0.21264-0.17059-0.22876-0.26177-0.07737-0.43774 0.15686-0.18233 0.29111-0.15952 0.58477 0.099382 0.46424 0.40929 0.66098 0.8302 0.66126 1.4147 3.53e-4 0.6197-0.1766 1.0001-0.6667 1.4338-0.26795 0.23711-0.41839 0.26098-0.57909 0.09188z" fill="#fff"/>
    </g>
    <g display="none" fill="none">
        <rect transform="rotate(90)" x="7.3342" y="-19.616" width="12.282" height="12.282" display="inline" stroke="#000" stroke-width=".065984"/>
        <rect x="6.7726" y="8.112" width="13.405" height="10.726" stroke="#5261ff" stroke-linecap="round" stroke-linejoin="round" stroke-width=".06524"/>
        <rect transform="rotate(90)" x="6.7726" y="-18.838" width="13.405" height="10.726" display="inline" stroke="#0f0" stroke-linecap="round" stroke-linejoin="round" stroke-width=".06524"/>
    </g>
</svg>
