<?xml version="1.0" encoding="UTF-8" standalone="no"?>
<svg
   xmlns:dc="http://purl.org/dc/elements/1.1/"
   xmlns:cc="http://creativecommons.org/ns#"
   xmlns:rdf="http://www.w3.org/1999/02/22-rdf-syntax-ns#"
   xmlns:svg="http://www.w3.org/2000/svg"
   xmlns="http://www.w3.org/2000/svg"
   xmlns:sodipodi="http://sodipodi.sourceforge.net/DTD/sodipodi-0.dtd"
   xmlns:inkscape="http://www.inkscape.org/namespaces/inkscape"
   version="1.1"
   viewBox="0 0 28.747 28.747"
   id="svg145"
   sodipodi:docname="slimfacebook.svg"
   inkscape:version="0.92.1 r15371">
  <metadata
     id="metadata149">
    <rdf:RDF>
      <cc:Work
         rdf:about="">
        <dc:format>image/svg+xml</dc:format>
        <dc:type
           rdf:resource="http://purl.org/dc/dcmitype/StillImage" />
      </cc:Work>
    </rdf:RDF>
  </metadata>
  <sodipodi:namedview
     pagecolor="#ffffff"
     bordercolor="#666666"
     borderopacity="1"
     objecttolerance="10"
     gridtolerance="10"
     guidetolerance="10"
     inkscape:pageopacity="0"
     inkscape:pageshadow="2"
     inkscape:window-width="1920"
     inkscape:window-height="1001"
     id="namedview147"
     showgrid="false"
     inkscape:zoom="5.8050302"
     inkscape:cx="-1.6521748"
     inkscape:cy="3.7345997"
     inkscape:window-x="-9"
     inkscape:window-y="-9"
     inkscape:window-maximized="1"
     inkscape:current-layer="g135" />
  <defs
     id="defs5">
    <filter
       id="filter6206-7"
       color-interpolation-filters="sRGB">
      <feGaussianBlur
         stdDeviation="0.658125"
         id="feGaussianBlur2" />
    </filter>
  </defs>
  <g
     transform="translate(0 -1093.8)"
     id="g123">
    <path
       transform="matrix(1.0781 0 0 1.0641 -.093733 2.7509)"
       d="m4.4177 1028.2v1.6051h-1.6052v18.192h1.6052v2.1402h18.192v-2.1402h2.1402v-18.192h-2.1402v-1.6051z"
       fill="#1a237e"
       filter="url(#filter6206-7)"
       opacity=".2"
       id="path7" />
    <rect
       x="2.9987"
       y="1096.8"
       width="22.749"
       height="22.749"
       rx="1.1973"
       ry="1.1974"
       fill="#3f51b5"
       id="rect9" />
    <g
       transform="translate(-22.32 1056.5)"
       id="g25">
      <path
         d="m0 0h51.2v51.2h-51.2z"
         fill="none"
         stroke-width="1.0667"
         id="path11" />
      <g
         transform="matrix(.33601 0 0 .33601 1.5296 73.043)"
         id="g15">
        <path
           d="m0 0h51.2v51.2h-51.2z"
           fill="none"
           stroke-width="1.0667"
           id="path13" />
      </g>
      <g
         transform="matrix(.37187 0 0 .37187 38.802 63.239)"
         id="g23">
        <path
           d="m0 0h51.2v51.2h-51.2z"
           fill="none"
           stroke-width="1.0667"
           id="path17" />
        <g
           transform="matrix(2.6891 0 0 2.6891 -82.906 -48.45)"
           id="g21">
          <path
             d="m0 0h51.2v51.2h-51.2z"
             fill="none"
             stroke-width="1.0667"
             id="path19" />
        </g>
      </g>
    </g>
    <path
       d="m4.1958 1096.8c-0.66332 0-1.1979 0.5346-1.1979 1.1979v0.3334c0-0.6634 0.53459-1.1979 1.1979-1.1979h20.354c0.66332 0 1.1979 0.5345 1.1979 1.1979v-0.3334c0-0.6633-0.5346-1.1979-1.1979-1.1979z"
       fill="#fff"
       opacity=".2"
       id="path27" />
    <rect
       x="128"
       y="546.52"
       width="42.667"
       height="42.667"
       fill="none"
       stroke-width="1.0667"
       id="rect29" />
    <rect
       x="128"
       y="631.85"
       width="42.667"
       height="42.667"
       fill="none"
       stroke-width="1.0667"
       id="rect31" />
    <rect
       x="128"
       y="674.52"
       width="42.667"
       height="42.667"
       fill="none"
       stroke-width="1.0667"
       id="rect33" />
    <rect
       x="128"
       y="589.19"
       width="42.667"
       height="42.667"
       fill="none"
       stroke-width="1.0667"
       id="rect35" />
    <rect
       x="128"
       y="717.19"
       width="42.667"
       height="42.667"
       fill="none"
       stroke-width="1.0667"
       id="rect37" />
    <rect
       x="213.33"
       y="546.52"
       width="42.667"
       height="42.667"
       fill="none"
       stroke-width="1.0667"
       id="rect39" />
    <rect
       x="213.33"
       y="631.85"
       width="42.667"
       height="42.667"
       fill="none"
       stroke-width="1.0667"
       id="rect41" />
    <rect
       x="213.33"
       y="674.52"
       width="42.667"
       height="42.667"
       fill="none"
       stroke-width="1.0667"
       id="rect43" />
    <rect
       x="213.33"
       y="589.19"
       width="42.667"
       height="42.667"
       fill="none"
       stroke-width="1.0667"
       id="rect45" />
    <rect
       x="213.33"
       y="717.19"
       width="42.667"
       height="42.667"
       fill="none"
       stroke-width="1.0667"
       id="rect47" />
    <rect
       x="298.67"
       y="546.52"
       width="42.667"
       height="42.667"
       fill="none"
       stroke-width="1.0667"
       id="rect49" />
    <rect
       x="298.67"
       y="631.85"
       width="42.667"
       height="42.667"
       fill="none"
       stroke-width="1.0667"
       id="rect51" />
    <rect
       x="298.67"
       y="674.52"
       width="42.667"
       height="42.667"
       fill="none"
       stroke-width="1.0667"
       id="rect53" />
    <rect
       x="298.67"
       y="589.19"
       width="42.667"
       height="42.667"
       fill="none"
       stroke-width="1.0667"
       id="rect55" />
    <rect
       x="298.67"
       y="717.19"
       width="42.667"
       height="42.667"
       fill="none"
       stroke-width="1.0667"
       id="rect57" />
    <rect
       x="170.67"
       y="546.52"
       width="42.667"
       height="42.667"
       fill="none"
       stroke-width="1.0667"
       id="rect59" />
    <rect
       x="170.67"
       y="631.85"
       width="42.667"
       height="42.667"
       fill="none"
       stroke-width="1.0667"
       id="rect61" />
    <rect
       x="170.67"
       y="674.52"
       width="42.667"
       height="42.667"
       fill="none"
       stroke-width="1.0667"
       id="rect63" />
    <rect
       x="170.67"
       y="589.19"
       width="42.667"
       height="42.667"
       fill="none"
       stroke-width="1.0667"
       id="rect65" />
    <rect
       x="170.67"
       y="717.19"
       width="42.667"
       height="42.667"
       fill="none"
       stroke-width="1.0667"
       id="rect67" />
    <rect
       x="256"
       y="546.52"
       width="42.667"
       height="42.667"
       fill="none"
       stroke-width="1.0667"
       id="rect69" />
    <rect
       x="256"
       y="631.85"
       width="42.667"
       height="42.667"
       fill="none"
       stroke-width="1.0667"
       id="rect71" />
    <rect
       x="256"
       y="674.52"
       width="42.667"
       height="42.667"
       fill="none"
       stroke-width="1.0667"
       id="rect73" />
    <rect
       x="256"
       y="589.19"
       width="42.667"
       height="42.667"
       fill="none"
       stroke-width="1.0667"
       id="rect75" />
    <rect
       x="256"
       y="717.19"
       width="42.667"
       height="42.667"
       fill="none"
       stroke-width="1.0667"
       id="rect77" />
    <rect
       x="128"
       y="759.85"
       width="42.667"
       height="42.667"
       fill="none"
       stroke-width="1.0667"
       id="rect79" />
    <rect
       x="213.33"
       y="759.85"
       width="42.667"
       height="42.667"
       fill="none"
       stroke-width="1.0667"
       id="rect81" />
    <rect
       x="298.67"
       y="759.85"
       width="42.667"
       height="42.667"
       fill="none"
       stroke-width="1.0667"
       id="rect83" />
    <rect
       x="170.67"
       y="759.85"
       width="42.667"
       height="42.667"
       fill="none"
       stroke-width="1.0667"
       id="rect85" />
    <rect
       x="256"
       y="759.85"
       width="42.667"
       height="42.667"
       fill="none"
       stroke-width="1.0667"
       id="rect87" />
    <rect
       x="341.33"
       y="589.19"
       width="42.667"
       height="42.667"
       fill="none"
       stroke-width="1.0667"
       id="rect89" />
    <rect
       x="341.33"
       y="631.85"
       width="42.667"
       height="42.667"
       fill="none"
       stroke-width="1.0667"
       id="rect91" />
    <rect
       x="341.33"
       y="717.19"
       width="42.667"
       height="42.667"
       fill="none"
       stroke-width="1.0667"
       id="rect93" />
    <rect
       x="341.33"
       y="546.52"
       width="42.667"
       height="42.667"
       fill="none"
       stroke-width="1.0667"
       id="rect95" />
    <rect
       x="341.33"
       y="674.52"
       width="42.667"
       height="42.667"
       fill="none"
       stroke-width="1.0667"
       id="rect97" />
    <rect
       x="341.33"
       y="759.85"
       width="42.667"
       height="42.667"
       fill="none"
       stroke-width="1.0667"
       id="rect99" />
    <rect
       x="160"
       y="578.52"
       width="192"
       height="192"
       fill="none"
       stroke-width="1.0667"
       id="rect101" />
    <g
       transform="matrix(.37344 0 0 .37344 4.7333 1097.4)"
       id="g105">
      <path
         d="m0 0h51.2v51.2h-51.2z"
         fill="none"
         stroke-width="1.0667"
         id="path103" />
    </g>
    <g
       transform="matrix(.36471 0 0 .36471 5.1356 1097.4)"
       id="g109">
      <path
         d="m0 0h51.2v51.2h-51.2z"
         fill="none"
         stroke-width="1.0667"
         id="path107" />
    </g>
    <g
       transform="matrix(.41585 0 0 .41585 84.325 1055.9)"
       id="g119">
      <g
         transform="matrix(.062269 0 0 .062269 -28.238 185.29)"
         id="g117">
        <g
           transform="matrix(38.618 0 0 38.618 14724 -13542)"
           id="g115">
          <g
             transform="matrix(.71436 0 0 .71436 -400.52 188.34)"
             id="g113">
            <path
               d="m1293.2-120.67c-181.75 0.2763-511.18 0.13525-699.05 0.13998-2.3216 10.413-3.593 21.251-3.593 32.384v114c207.65 0.73695 494.72 0.38136 706.23 0.3733v-114.37c0-11.18-1.2522-22.07-3.593-32.523zm-458.69 295.56c-78.385-4e-3 -158.85 0.17892-243.95 0.55995v138.63c286.34-0.39317 421.73-0.13827 706.23-0.32664v-137.75c-163.2-0.53005-311.22-1.1113-462.28-1.1199z"
               opacity="0"
               stroke-width="1.4932"
               id="path111" />
          </g>
        </g>
      </g>
    </g>
    <path
       d="m24.549 1119.5c0.66325 0 1.1979-0.5346 1.1979-1.1979v-0.3333c0 0.6632-0.53461 1.1978-1.1979 1.1978h-20.354c-0.66325 0-1.1979-0.5346-1.1979-1.1978v0.3333c0 0.6633 0.53461 1.1979 1.1979 1.1979z"
       fill="#1a237e"
       opacity=".2"
       id="path121" />
  </g>
  <g
     id="g135">
    <flowRoot
       fill="#000000"
       font-family="Roboto"
       font-size="12.8px"
       letter-spacing="0px"
       stroke-width="1.0667px"
       word-spacing="0px"
       style="line-height:0.01%"
       xml:space="preserve"
       id="flowRoot131"><flowRegion
         id="flowRegion127"><rect
           x="11.375"
           y="11.984"
           width="4.7893"
           height="5.388"
           stroke-width="1.1378px"
           id="rect125" /></flowRegion><flowPara
         font-size="4px"
         style="line-height:1.25"
         id="flowPara129">your</flowPara></flowRoot>    <path
       d="m 9.3652,7.1953 c -0.37588,0 -0.67969,0.30185 -0.67969,0.67773 v 7.1035 1.7168 4.8691 l 5.6816,-1.7949 5.6934,1.7949 v -4.8691 -1.7168 -7.1035 c 0,-0.37588 -0.30185,-0.67773 -0.67774,-0.67773 h -10.018 z m 5.0078,4.1914 c 1.8925,0 3.4375,1.547 3.4375,3.4395 0,1.8925 -1.545,3.4375 -3.4375,3.4375 -1.8925,0 -3.4375,-1.545 -3.4375,-3.4375 -10e-7,-1.8925 1.545,-3.4395 3.4375,-3.4395 z"
       style="fill:#ffffff;paint-order:markers fill stroke"
       id="path133"
       inkscape:connector-curvature="0"
       sodipodi:nodetypes="cscccccccssccsssss" />
    <circle
       style="opacity:1;fill:#ffffff;fill-opacity:1;stroke:none;stroke-width:0.88739496;stroke-linecap:round;stroke-linejoin:miter;stroke-miterlimit:4;stroke-dasharray:none;stroke-opacity:1;paint-order:markers fill stroke"
       id="path4626-5"
       cx="14.3735"
       cy="14.804161"
       r="1.8949082" />
  </g>
  <g
     display="none"
     fill="none"
     id="g143">
    <rect
       transform="rotate(90)"
       x="7.8232"
       y="-20.923"
       width="13.1"
       height="13.1"
       display="inline"
       stroke="#000"
       stroke-width=".070382"
       id="rect137" />
    <rect
       x="7.2241"
       y="8.6528"
       width="14.298"
       height="11.441"
       stroke="#5261ff"
       stroke-linecap="round"
       stroke-linejoin="round"
       stroke-width=".069589"
       id="rect139" />
    <rect
       transform="rotate(90)"
       x="7.2241"
       y="-20.094"
       width="14.298"
       height="11.441"
       display="inline"
       stroke="#0f0"
       stroke-linecap="round"
       stroke-linejoin="round"
       stroke-width=".069589"
       id="rect141" />
  </g>
</svg>
