<?xml version="1.0" encoding="UTF-8" standalone="no"?>
<svg
   xmlns:dc="http://purl.org/dc/elements/1.1/"
   xmlns:cc="http://creativecommons.org/ns#"
   xmlns:rdf="http://www.w3.org/1999/02/22-rdf-syntax-ns#"
   xmlns:svg="http://www.w3.org/2000/svg"
   xmlns="http://www.w3.org/2000/svg"
   xmlns:sodipodi="http://sodipodi.sourceforge.net/DTD/sodipodi-0.dtd"
   xmlns:inkscape="http://www.inkscape.org/namespaces/inkscape"
   version="1.1"
   viewBox="0 0 26.95 26.95"
   id="svg151"
   sodipodi:docname="turtl.svg"
   inkscape:version="0.92.1 r15371">
  <metadata
     id="metadata155">
    <rdf:RDF>
      <cc:Work
         rdf:about="">
        <dc:format>image/svg+xml</dc:format>
        <dc:type
           rdf:resource="http://purl.org/dc/dcmitype/StillImage" />
      </cc:Work>
    </rdf:RDF>
  </metadata>
  <sodipodi:namedview
     pagecolor="#ffffff"
     bordercolor="#666666"
     borderopacity="1"
     objecttolerance="10"
     gridtolerance="10"
     guidetolerance="10"
     inkscape:pageopacity="0"
     inkscape:pageshadow="2"
     inkscape:window-width="1920"
     inkscape:window-height="1001"
     id="namedview153"
     showgrid="false"
     inkscape:zoom="35.027828"
     inkscape:cx="9.8865432"
     inkscape:cy="14.488034"
     inkscape:window-x="-9"
     inkscape:window-y="-9"
     inkscape:window-maximized="1"
     inkscape:current-layer="g139" />
  <defs
     id="defs5">
    <filter
       id="filter6206-7"
       color-interpolation-filters="sRGB">
      <feGaussianBlur
         stdDeviation="0.658125"
         id="feGaussianBlur2" />
    </filter>
  </defs>
  <g
     transform="translate(0 -1025.4)"
     id="g123">
    <path
       transform="matrix(1.0107 0 0 .99762 -.087875 2.579)"
       d="m4.4177 1028.2v1.6051h-1.6052v18.192h1.6052v2.1402h18.192v-2.1402h2.1402v-18.192h-2.1402v-1.6051h-18.192z"
       fill="#1a237e"
       filter="url(#filter6206-7)"
       opacity=".2"
       id="path7" />
    <rect
       x="2.8113"
       y="1028.2"
       width="21.327"
       height="21.327"
       rx="1.1225"
       ry="1.1226"
       fill="#3f51b5"
       id="rect9" />
    <g
       transform="translate(-20.925 990.46)"
       id="g25">
      <path
         d="m0 0h48v48h-48z"
         fill="none"
         id="path11" />
      <g
         transform="matrix(.33601 0 0 .33601 1.434 68.477)"
         id="g15">
        <path
           d="m0 0h48v48h-48z"
           fill="none"
           id="path13" />
      </g>
      <g
         transform="matrix(.37187 0 0 .37187 36.377 59.287)"
         id="g23">
        <path
           d="m0 0h48v48h-48z"
           fill="none"
           id="path17" />
        <g
           transform="matrix(2.6891 0 0 2.6891 -77.724 -45.422)"
           id="g21">
          <path
             d="m0 0h48v48h-48z"
             fill="none"
             id="path19" />
        </g>
      </g>
    </g>
    <path
       transform="translate(0 1025.4)"
       d="m3.9336 2.8105c-0.62186 0-1.123 0.50115-1.123 1.123v0.3125c0-0.6219 0.50118-1.123 1.123-1.123h19.082c0.62186 0 1.123 0.50115 1.123 1.123v-0.3125c0-0.6219-0.50118-1.123-1.123-1.123h-19.082z"
       fill="#fff"
       opacity=".2"
       id="path27" />
    <rect
       x="120"
       y="512.36"
       width="40"
       height="40"
       fill="none"
       id="rect29" />
    <rect
       x="120"
       y="592.36"
       width="40"
       height="40"
       fill="none"
       id="rect31" />
    <rect
       x="120"
       y="632.36"
       width="40"
       height="40"
       fill="none"
       id="rect33" />
    <rect
       x="120"
       y="552.36"
       width="40"
       height="40"
       fill="none"
       id="rect35" />
    <rect
       x="120"
       y="672.36"
       width="40"
       height="40"
       fill="none"
       id="rect37" />
    <rect
       x="200"
       y="512.36"
       width="40"
       height="40"
       fill="none"
       id="rect39" />
    <rect
       x="200"
       y="592.36"
       width="40"
       height="40"
       fill="none"
       id="rect41" />
    <rect
       x="200"
       y="632.36"
       width="40"
       height="40"
       fill="none"
       id="rect43" />
    <rect
       x="200"
       y="552.36"
       width="40"
       height="40"
       fill="none"
       id="rect45" />
    <rect
       x="200"
       y="672.36"
       width="40"
       height="40"
       fill="none"
       id="rect47" />
    <rect
       x="280"
       y="512.36"
       width="40"
       height="40"
       fill="none"
       id="rect49" />
    <rect
       x="280"
       y="592.36"
       width="40"
       height="40"
       fill="none"
       id="rect51" />
    <rect
       x="280"
       y="632.36"
       width="40"
       height="40"
       fill="none"
       id="rect53" />
    <rect
       x="280"
       y="552.36"
       width="40"
       height="40"
       fill="none"
       id="rect55" />
    <rect
       x="280"
       y="672.36"
       width="40"
       height="40"
       fill="none"
       id="rect57" />
    <rect
       x="160"
       y="512.36"
       width="40"
       height="40"
       fill="none"
       id="rect59" />
    <rect
       x="160"
       y="592.36"
       width="40"
       height="40"
       fill="none"
       id="rect61" />
    <rect
       x="160"
       y="632.36"
       width="40"
       height="40"
       fill="none"
       id="rect63" />
    <rect
       x="160"
       y="552.36"
       width="40"
       height="40"
       fill="none"
       id="rect65" />
    <rect
       x="160"
       y="672.36"
       width="40"
       height="40"
       fill="none"
       id="rect67" />
    <rect
       x="240"
       y="512.36"
       width="40"
       height="40"
       fill="none"
       id="rect69" />
    <rect
       x="240"
       y="592.36"
       width="40"
       height="40"
       fill="none"
       id="rect71" />
    <rect
       x="240"
       y="632.36"
       width="40"
       height="40"
       fill="none"
       id="rect73" />
    <rect
       x="240"
       y="552.36"
       width="40"
       height="40"
       fill="none"
       id="rect75" />
    <rect
       x="240"
       y="672.36"
       width="40"
       height="40"
       fill="none"
       id="rect77" />
    <rect
       x="120"
       y="712.36"
       width="40"
       height="40"
       fill="none"
       id="rect79" />
    <rect
       x="200"
       y="712.36"
       width="40"
       height="40"
       fill="none"
       id="rect81" />
    <rect
       x="280"
       y="712.36"
       width="40"
       height="40"
       fill="none"
       id="rect83" />
    <rect
       x="160"
       y="712.36"
       width="40"
       height="40"
       fill="none"
       id="rect85" />
    <rect
       x="240"
       y="712.36"
       width="40"
       height="40"
       fill="none"
       id="rect87" />
    <rect
       x="320"
       y="552.36"
       width="40"
       height="40"
       fill="none"
       id="rect89" />
    <rect
       x="320"
       y="592.36"
       width="40"
       height="40"
       fill="none"
       id="rect91" />
    <rect
       x="320"
       y="672.36"
       width="40"
       height="40"
       fill="none"
       id="rect93" />
    <rect
       x="320"
       y="512.36"
       width="40"
       height="40"
       fill="none"
       id="rect95" />
    <rect
       x="320"
       y="632.36"
       width="40"
       height="40"
       fill="none"
       id="rect97" />
    <rect
       x="320"
       y="712.36"
       width="40"
       height="40"
       fill="none"
       id="rect99" />
    <rect
       x="150"
       y="542.36"
       width="180"
       height="180"
       fill="none"
       id="rect101" />
    <g
       transform="matrix(.37344 0 0 .37344 4.4375 1028.8)"
       id="g105">
      <path
         d="m0 0h48v48h-48z"
         fill="none"
         id="path103" />
    </g>
    <g
       transform="matrix(.36471 0 0 .36471 4.8146 1028.8)"
       id="g109">
      <path
         d="m0 0h48v48h-48z"
         fill="none"
         id="path107" />
    </g>
    <g
       transform="matrix(.41585 0 0 .41585 79.055 989.88)"
       id="g119">
      <g
         transform="matrix(.062269 0 0 .062269 -26.473 173.71)"
         id="g117">
        <g
           transform="matrix(38.618 0 0 38.618 13804 -12696)"
           id="g115">
          <g
             transform="matrix(.71436 0 0 .71436 -375.49 176.57)"
             id="g113">
            <path
               transform="matrix(1.3999 0 0 1.3999 525.63 -247.17)"
               d="m490.56 95.75c-121.72 0.18504-342.34 0.090577-468.16 0.09375-1.5548 6.9739-2.4062 14.232-2.4062 21.688v76.344c139.06 0.49354 331.32 0.2554 472.97 0.25v-76.594c0-7.4875-0.8386-14.78-2.4062-21.781zm-307.19 197.94c-52.495-3e-3 -106.38 0.11982-163.38 0.375v92.844c191.76-0.26331 282.43-0.0926 472.97-0.21875v-92.25c-109.29-0.35498-208.43-0.74426-309.59-0.75z"
               opacity="0"
               id="path111" />
          </g>
        </g>
      </g>
    </g>
    <path
       d="m23.015 1049.6c0.6218 0 1.123-0.5012 1.123-1.123v-0.3125c0 0.6218-0.5012 1.123-1.123 1.123h-19.082c-0.6218 0-1.123-0.5012-1.123-1.123v0.3125c0 0.6218 0.5012 1.123 1.123 1.123h19.082z"
       fill="#1a237e"
       opacity=".2"
       id="path121" />
  </g>
  <g
     id="g141">
    <flowRoot
       fill="#000000"
       font-family="Roboto"
       font-size="3.75px"
       letter-spacing="0px"
       stroke-width="1px"
       word-spacing="0px"
       style="line-height:125%"
       xml:space="preserve"
       id="flowRoot131"><flowRegion
         id="flowRegion127"><rect
           x="10.664"
           y="11.235"
           width="4.49"
           height="5.0512"
           id="rect125" /></flowRegion><flowPara
         id="flowPara129">your</flowPara></flowRoot>    <g
       transform="matrix(.22838 0 0 .22838 5.5002 5.0339)"
       id="g139">
      <path
         style="fill:#ffffff;stroke-width:0.5189907"
         d="M 13.044922 7.0234375 L 9.4960938 9.8066406 L 11.207031 11.138672 L 13.044922 9.6972656 L 13.044922 7.0234375 z M 13.90625 7.0234375 L 13.90625 9.6972656 L 15.744141 11.138672 L 17.455078 9.8066406 L 13.90625 7.0234375 z M 13.474609 10.671875 L 11.6875 12.074219 L 11.6875 14.876953 L 13.474609 16.277344 L 15.261719 14.876953 L 15.261719 12.074219 L 13.474609 10.671875 z M 17.804688 10.873047 L 16.195312 12.125 L 16.195312 15.015625 L 17.804688 16.267578 L 17.804688 10.873047 z M 9.1464844 10.875 L 9.1464844 16.267578 L 10.755859 15.015625 L 10.755859 12.126953 L 9.1464844 10.875 z M 11.330078 15.910156 L 9.6191406 17.240234 L 13.044922 19.925781 L 13.044922 17.253906 L 11.330078 15.910156 z M 15.621094 15.910156 L 13.90625 17.253906 L 13.90625 19.923828 L 17.330078 17.240234 L 15.621094 15.910156 z "
         transform="matrix(4.3786671,0,0,4.3786671,-24.083545,-22.041772)"
         id="path133" />
    </g>
  </g>
  <g
     display="none"
     fill="none"
     id="g149">
    <rect
       transform="rotate(90)"
       x="7.3342"
       y="-19.616"
       width="12.282"
       height="12.282"
       display="inline"
       stroke="#000"
       stroke-width=".065984"
       id="rect143" />
    <rect
       x="6.7726"
       y="8.112"
       width="13.405"
       height="10.726"
       stroke="#5261ff"
       stroke-linecap="round"
       stroke-linejoin="round"
       stroke-width=".06524"
       id="rect145" />
    <rect
       transform="rotate(90)"
       x="6.7726"
       y="-18.838"
       width="13.405"
       height="10.726"
       display="inline"
       stroke="#0f0"
       stroke-linecap="round"
       stroke-linejoin="round"
       stroke-width=".06524"
       id="rect147" />
  </g>
</svg>
