<?xml version="1.0" encoding="UTF-8"?>
<svg version="1.1" viewBox="0 0 28.747 28.747" xmlns="http://www.w3.org/2000/svg" xmlns:xlink="http://www.w3.org/1999/xlink">
    <defs>
        <filter id="filter6206-7" x="-.072" y="-.072" width="1.144" height="1.144" color-interpolation-filters="sRGB">
            <feGaussianBlur stdDeviation="0.658125"/>
        </filter>
    </defs>
    <g transform="translate(0 -1093.8)">
        <path transform="matrix(1.0781 0 0 1.0641 -.093733 2.7509)" d="m4.4177 1028.2v1.6051h-1.6052v18.192h1.6052v2.1402h18.192v-2.1402h2.1402v-18.192h-2.1402v-1.6051z" fill="#263238" filter="url(#filter6206-7)" opacity=".2"/>
        <rect x="2.9987" y="1096.8" width="22.749" height="22.749" rx="1.1973" ry="1.1974" fill="#4caf50"/>
        <g transform="translate(-22.32 1056.5)">
            <path d="m0 0h51.2v51.2h-51.2z" fill="none" stroke-width="1.0667"/>
            <g transform="matrix(.33601 0 0 .33601 1.5296 73.043)">
                <path d="m0 0h51.2v51.2h-51.2z" fill="none" stroke-width="1.0667"/>
            </g>
            <g transform="matrix(.37187 0 0 .37187 38.802 63.239)">
                <path d="m0 0h51.2v51.2h-51.2z" fill="none" stroke-width="1.0667"/>
                <g transform="matrix(2.6891 0 0 2.6891 -82.906 -48.45)">
                    <path d="m0 0h51.2v51.2h-51.2z" fill="none" stroke-width="1.0667"/>
                </g>
            </g>
        </g>
        <path d="m4.1958 1096.8c-0.66332 0-1.1979 0.5346-1.1979 1.1979v0.3334c0-0.6634 0.53459-1.1979 1.1979-1.1979h20.354c0.66332 0 1.1979 0.5345 1.1979 1.1979v-0.3334c0-0.6633-0.5346-1.1979-1.1979-1.1979z" fill="#fff" opacity=".2"/>
        <rect x="128" y="546.52" width="42.667" height="42.667" fill="none" stroke-width="1.0667"/>
        <rect x="128" y="631.85" width="42.667" height="42.667" fill="none" stroke-width="1.0667"/>
        <rect x="128" y="674.52" width="42.667" height="42.667" fill="none" stroke-width="1.0667"/>
        <rect x="128" y="589.19" width="42.667" height="42.667" fill="none" stroke-width="1.0667"/>
        <rect x="128" y="717.19" width="42.667" height="42.667" fill="none" stroke-width="1.0667"/>
        <rect x="213.33" y="546.52" width="42.667" height="42.667" fill="none" stroke-width="1.0667"/>
        <rect x="213.33" y="631.85" width="42.667" height="42.667" fill="none" stroke-width="1.0667"/>
        <rect x="213.33" y="674.52" width="42.667" height="42.667" fill="none" stroke-width="1.0667"/>
        <rect x="213.33" y="589.19" width="42.667" height="42.667" fill="none" stroke-width="1.0667"/>
        <rect x="213.33" y="717.19" width="42.667" height="42.667" fill="none" stroke-width="1.0667"/>
        <rect x="298.67" y="546.52" width="42.667" height="42.667" fill="none" stroke-width="1.0667"/>
        <rect x="298.67" y="631.85" width="42.667" height="42.667" fill="none" stroke-width="1.0667"/>
        <rect x="298.67" y="674.52" width="42.667" height="42.667" fill="none" stroke-width="1.0667"/>
        <rect x="298.67" y="589.19" width="42.667" height="42.667" fill="none" stroke-width="1.0667"/>
        <rect x="298.67" y="717.19" width="42.667" height="42.667" fill="none" stroke-width="1.0667"/>
        <rect x="170.67" y="546.52" width="42.667" height="42.667" fill="none" stroke-width="1.0667"/>
        <rect x="170.67" y="631.85" width="42.667" height="42.667" fill="none" stroke-width="1.0667"/>
        <rect x="170.67" y="674.52" width="42.667" height="42.667" fill="none" stroke-width="1.0667"/>
        <rect x="170.67" y="589.19" width="42.667" height="42.667" fill="none" stroke-width="1.0667"/>
        <rect x="170.67" y="717.19" width="42.667" height="42.667" fill="none" stroke-width="1.0667"/>
        <rect x="256" y="546.52" width="42.667" height="42.667" fill="none" stroke-width="1.0667"/>
        <rect x="256" y="631.85" width="42.667" height="42.667" fill="none" stroke-width="1.0667"/>
        <rect x="256" y="674.52" width="42.667" height="42.667" fill="none" stroke-width="1.0667"/>
        <rect x="256" y="589.19" width="42.667" height="42.667" fill="none" stroke-width="1.0667"/>
        <rect x="256" y="717.19" width="42.667" height="42.667" fill="none" stroke-width="1.0667"/>
        <rect x="128" y="759.85" width="42.667" height="42.667" fill="none" stroke-width="1.0667"/>
        <rect x="213.33" y="759.85" width="42.667" height="42.667" fill="none" stroke-width="1.0667"/>
        <rect x="298.67" y="759.85" width="42.667" height="42.667" fill="none" stroke-width="1.0667"/>
        <rect x="170.67" y="759.85" width="42.667" height="42.667" fill="none" stroke-width="1.0667"/>
        <rect x="256" y="759.85" width="42.667" height="42.667" fill="none" stroke-width="1.0667"/>
        <rect x="341.33" y="589.19" width="42.667" height="42.667" fill="none" stroke-width="1.0667"/>
        <rect x="341.33" y="631.85" width="42.667" height="42.667" fill="none" stroke-width="1.0667"/>
        <rect x="341.33" y="717.19" width="42.667" height="42.667" fill="none" stroke-width="1.0667"/>
        <rect x="341.33" y="546.52" width="42.667" height="42.667" fill="none" stroke-width="1.0667"/>
        <rect x="341.33" y="674.52" width="42.667" height="42.667" fill="none" stroke-width="1.0667"/>
        <rect x="341.33" y="759.85" width="42.667" height="42.667" fill="none" stroke-width="1.0667"/>
        <rect x="160" y="578.52" width="192" height="192" fill="none" stroke-width="1.0667"/>
        <g transform="matrix(.37344 0 0 .37344 4.7333 1097.4)">
            <path d="m0 0h51.2v51.2h-51.2z" fill="none" stroke-width="1.0667"/>
        </g>
        <g transform="matrix(.36471 0 0 .36471 5.1356 1097.4)">
            <path d="m0 0h51.2v51.2h-51.2z" fill="none" stroke-width="1.0667"/>
        </g>
        <g transform="matrix(.41585 0 0 .41585 84.325 1055.9)">
            <g transform="matrix(.062269 0 0 .062269 -28.238 185.29)">
                <g transform="matrix(38.618 0 0 38.618 14724 -13542)">
                    <g transform="matrix(.71436 0 0 .71436 -400.52 188.34)">
                        <path d="m1293.2-120.67c-181.75 0.2763-511.18 0.13525-699.05 0.13998-2.3216 10.413-3.593 21.251-3.593 32.384v114c207.65 0.73695 494.72 0.38136 706.23 0.3733v-114.37c0-11.18-1.2522-22.07-3.593-32.523zm-458.69 295.56c-78.385-4e-3 -158.85 0.17892-243.95 0.55995v138.63c286.34-0.39317 421.73-0.13827 706.23-0.32664v-137.75c-163.2-0.53005-311.22-1.1113-462.28-1.1199z" opacity="0" stroke-width="1.4932"/>
                    </g>
                </g>
            </g>
        </g>
        <path d="m24.549 1119.5c0.66325 0 1.1979-0.5346 1.1979-1.1979v-0.3333c0 0.6632-0.53461 1.1978-1.1979 1.1978h-20.354c-0.66325 0-1.1979-0.5346-1.1979-1.1978v0.3333c0 0.6633 0.53461 1.1979 1.1979 1.1979z" fill="#263238" opacity=".2"/>
    </g>
    <g>
        <path d="m18.09 8.4209c-0.12469 0-0.24937 0.00768-0.37306 0.022746h-7.6453v0.00233a0.3494 0.3494 0 0 0-0.15468 0.034123c-0.46436 0.23218-0.96221 0.47236-1.3557 0.85302-0.40519 0.39195-0.6976 0.95921-0.69607 1.5536 0.00149 0.58142 0.31703 1.1618 1.0555 1.7766 0.73822 0.61458 1.8929 1.3053 2.8252 1.888 0.51092 0.31935 0.9434 0.59878 1.3489 0.8644h-3.0231v0.01141a0.3494 0.3494 0 0 0-0.05687-0.0069c-0.57394 0.09565-1.1025 0.3954-1.4786 0.83937-0.3761 0.44397-0.5846 1.015-0.5846 1.5969 0 0.58186 0.20851 1.1529 0.5846 1.5969 0.3761 0.44397 0.90463 0.74372 1.4786 0.83937 0.25715 0.04286 0.52032 0.04378 0.77796 0.0045h7.6476v-0.0024a0.3494 0.3494 0 0 0 0.15468-0.03412c0.4653-0.23265 0.96615-0.47481 1.3694-0.87804 0.40323-0.40323 0.68411-0.94335 0.68469-1.5241 5.8e-4 -0.58118-0.29284-1.1361-0.79843-1.6424-0.50579-0.50641-1.2201-0.97661-2.1542-1.5605-0.64089-0.40059-1.4007-0.85978-2.1837-1.3307h2.9276c0.65133 0.02836 1.2948-0.22116 1.7561-0.68242 0.46557-0.46557 0.71631-1.119 0.68242-1.7766-0.03255-0.63143-0.3225-1.2222-0.76885-1.6535-0.44467-0.42969-1.0251-0.68949-1.6264-0.76658-0.13038-0.016712-0.26196-0.025017-0.39353-0.025017zm-7.9342 0.72109h8.2527c0.45559 0.061192 0.89503 0.25986 1.217 0.57096 0.32346 0.31256 0.53476 0.75224 0.55731 1.1897 0.02332 0.45228-0.15973 0.92404-0.47997 1.2443-0.32024 0.32024-0.79426 0.50328-1.2465 0.47997l-0.01592 0.32529v-0.32529h-4.1855l-0.0045 0.0045a0.3494 0.3494 0 0 0-0.07962 0.0045 0.3494 0.3494 0 0 0-0.21382 0.15923 0.3494 0.3494 0 0 0-0.04777 0.17743l-0.0024 0.0021v2.1405c-0.53202-0.35276-1.0867-0.7179-1.7901-1.1576-0.94112-0.58824-2.0932-1.2842-2.7501-1.8312-0.65671-0.54672-0.80207-0.88989-0.80298-1.242-8.738e-4 -0.33911 0.21386-0.78684 0.48452-1.0486 0.26731-0.25857 0.67152-0.47454 1.1078-0.69379zm4.4494 4.4516c0.97853 0.58729 1.9383 1.1648 2.7206 1.6537 0.92522 0.57831 1.6058 1.0389 2.0291 1.4626 0.42343 0.42395 0.59405 0.79891 0.5937 1.1465-3.48e-4 0.34802-0.18437 0.73713-0.47769 1.0304-0.27771 0.27772-0.67801 0.49253-1.1146 0.71199h-8.2504c-0.39697-0.072558-0.77668-0.29063-1.0373-0.59825-0.26614-0.31416-0.41855-0.73245-0.41855-1.1442 0-0.41174 0.15241-0.83002 0.41855-1.1442 0.26118-0.30831 0.6416-0.52624 1.0396-0.59825h4.1468l0.0069-0.0069a0.3494 0.3494 0 0 0 0.28434-0.14786 0.3494 0.3494 0 0 0 0.05914-0.19335 0.3494 0.3494 0 0 0 0-0.0021z" color="#000000" fill="#fff" stroke-linejoin="bevel" style="-inkscape-stroke:none"/>
    </g>
    <g display="none" fill="none">
        <rect transform="rotate(90)" x="7.8232" y="-20.923" width="13.1" height="13.1" display="inline" stroke="#000" stroke-width=".070382"/>
        <rect x="7.2241" y="8.6528" width="14.298" height="11.441" stroke="#5261ff" stroke-linecap="round" stroke-linejoin="round" stroke-width=".06959"/>
        <rect transform="rotate(90)" x="7.2241" y="-20.094" width="14.298" height="11.441" display="inline" stroke="#0f0" stroke-linecap="round" stroke-linejoin="round" stroke-width=".06959"/>
    </g>
</svg>
