<svg width="40" height="40" viewBox="0 0 40 40" fill="none" xmlns="http://www.w3.org/2000/svg">
<g opacity="0.2" filter="url(#filter0_f)">
<path d="M6.49662 4.30231V6.67899H4.08865V33.6163H6.49662V36.7852H33.787V33.6163H36.9976V6.67899H33.787V4.30231H6.49662Z" fill="#1A237E"/>
</g>
<path d="M34.1614 4.1727H5.83856C4.91843 4.1727 4.17252 4.91864 4.17252 5.83882V34.1614C4.17252 35.0816 4.91843 35.8275 5.83856 35.8275H34.1614C35.0815 35.8275 35.8274 35.0816 35.8274 34.1614V5.83882C35.8274 4.91864 35.0815 4.1727 34.1614 4.1727Z" fill="#3F51B5"/>
<path opacity="0.2" d="M5.83834 4.17151C4.91535 4.17151 4.17148 4.91535 4.17148 5.83831V6.30236C4.17148 5.37926 4.91535 4.63539 5.83834 4.63539H34.1605C35.0835 4.63539 35.8273 5.37926 35.8273 6.30236V5.83831C35.8273 4.91535 35.0835 4.17151 34.1605 4.17151H5.83834Z" fill="white"/>
<path opacity="0.2" d="M34.1597 35.8591C35.0826 35.8591 35.8265 35.1153 35.8265 34.1923V33.7284C35.8265 34.6512 35.0826 35.3952 34.1597 35.3952H5.83745C4.91455 35.3952 4.17065 34.6512 4.17065 33.7284V34.1923C4.17065 35.1153 4.91455 35.8591 5.83745 35.8591H34.1597Z" fill="#1A237E"/>
<path d="M22.7726 24.9201H22.7802L22.7788 24.9187L22.7726 24.9201Z" fill="white"/>
<path d="M21.0055 19.9543L21.5114 19.9542L21.5057 19.9528L21.0055 19.9543Z" fill="white"/>
<path d="M21.0055 19.9543C20.0501 19.9555 18.7404 20.273 18.2227 21.1696C18.1402 21.2973 18.085 21.4407 18.0608 21.5908C18.0365 21.7408 18.0436 21.8943 18.0817 22.0414C18.1052 22.1647 18.1531 22.282 18.2227 22.3865C18.5469 22.8357 19.5663 22.609 19.9751 22.3583C20.6657 21.9398 20.8312 20.9711 20.9657 20.1837C20.9791 20.1052 20.9922 20.0284 21.0055 19.9543Z" fill="white"/>
<path fill-rule="evenodd" clip-rule="evenodd" d="M25.631 11L12.9916 13.8618L13.4596 15.924L11.5028 16.3672L11.5 16.3742L14.3648 29L27.0041 26.1382L26.5333 24.0686L28.5 23.6258L25.631 11ZM25.5982 19.9588C25.8074 18.9063 25.9764 17.8479 25.9764 16.8418C25.9764 15.5057 25.2873 14.8016 24.348 14.4342L24.3494 14.4406C23.5726 14.1335 22.6167 14.0589 21.7398 14.049H21.7412L21.7533 14.0463C21.67 14.0453 21.5874 14.0448 21.5057 14.0448C20.0247 14.0448 18.4887 14.3195 17.2659 15.0619L17.2733 15.0602C17.1562 15.1295 17.0424 15.2035 16.9323 15.282C16.853 15.3388 16.7754 15.3978 16.6995 15.4591C16.0731 15.9668 15.5838 16.6285 15.2826 17.3841L19.0625 17.6967C19.2359 16.9446 20.0493 16.5277 20.7754 16.5277C21.6715 16.5277 21.9882 17.1005 21.8407 17.8212C21.8292 17.8783 21.8148 17.9364 21.7976 17.9952C19.5614 17.9952 16.6653 18.3624 15.1197 20.0808C14.9129 20.3124 14.7306 20.5685 14.5777 20.8514L14.5765 20.8459C14.4812 21.0199 14.3971 21.2042 14.3253 21.3992C13.9658 22.385 14.0532 23.592 14.8569 24.3454C15.0316 24.5091 15.2344 24.6444 15.4622 24.7525L15.4603 24.744C15.805 24.8953 16.1681 24.9977 16.5389 25.0492C16.7203 25.0718 16.9099 25.0847 17.1069 25.0881C17.1459 25.088 17.1849 25.0874 17.224 25.0862C17.8808 25.0862 18.6404 24.9689 19.3342 24.7077C20.0609 24.4328 20.7142 23.9997 21.1011 23.3779L21.0997 23.3909C21.103 23.3856 21.1063 23.3804 21.1096 23.3751L20.9841 24.5229L21.0461 24.9201H22.7726L22.7603 24.9229H24.9852C24.8231 24.2764 24.9049 23.4849 25.0064 22.8357C25.106 22.2605 25.2327 21.6653 25.3613 21.0611C25.4402 20.6905 25.5198 20.3164 25.5943 19.9415L25.5982 19.9588Z" fill="white"/>
<defs>
<filter id="filter0_f" x="3.38374" y="3.5974" width="34.3187" height="33.8928" filterUnits="userSpaceOnUse" color-interpolation-filters="sRGB">
<feFlood flood-opacity="0" result="BackgroundImageFix"/>
<feBlend mode="normal" in="SourceGraphic" in2="BackgroundImageFix" result="shape"/>
<feGaussianBlur stdDeviation="0.352455" result="effect1_foregroundBlur"/>
</filter>
</defs>
</svg>
