<svg width="40" height="40" viewBox="0 0 40 40" fill="none" xmlns="http://www.w3.org/2000/svg">
<g opacity="0.2" filter="url(#filter0_f)">
<path d="M6.49664 4.30231V6.67899H4.08867V33.6163H6.49664V36.7852H33.787V33.6163H36.9976V6.67899H33.787V4.30231H6.49664Z" fill="#263238"/>
</g>
<path d="M34.1614 4.1727H5.83859C4.91846 4.1727 4.17255 4.91864 4.17255 5.83882V34.1614C4.17255 35.0816 4.91846 35.8275 5.83859 35.8275H34.1614C35.0815 35.8275 35.8275 35.0816 35.8275 34.1614V5.83882C35.8275 4.91864 35.0815 4.1727 34.1614 4.1727Z" fill="#607D8B"/>
<path opacity="0.2" d="M5.83837 4.17151C4.91538 4.17151 4.17151 4.91535 4.17151 5.83831V6.30236C4.17151 5.37926 4.91538 4.63539 5.83837 4.63539H34.1605C35.0835 4.63539 35.8274 5.37926 35.8274 6.30236V5.83831C35.8274 4.91535 35.0835 4.17151 34.1605 4.17151H5.83837Z" fill="white"/>
<path opacity="0.2" d="M34.1597 35.8591C35.0826 35.8591 35.8265 35.1153 35.8265 34.1923V33.7284C35.8265 34.6512 35.0826 35.3952 34.1597 35.3952H5.83748C4.91458 35.3952 4.17068 34.6512 4.17068 33.7284V34.1923C4.17068 35.1153 4.91458 35.8591 5.83748 35.8591H34.1597Z" fill="#263238"/>
<path fill-rule="evenodd" clip-rule="evenodd" d="M20.4295 10C24.1889 10 26.3871 12.2555 26.3871 15.4141C26.3871 17.5572 25.163 19.0797 23.4368 19.735C25.6919 20.2996 27 22.3275 27 24.5571C27 27.7157 24.5216 30 20.903 30H14V10H20.4295ZM20.1239 18.7354C22.3235 18.7354 23.6316 17.4104 23.6316 15.5495C23.6316 13.6598 22.268 12.4183 20.013 12.4183H16.7271V18.7354H20.1239ZM20.5134 27.5674C22.7131 27.5674 24.2103 26.3258 24.2103 24.3814C24.2103 22.4629 23.0131 21.1091 20.6201 21.1091H16.7271V27.5674H20.5134Z" fill="white"/>
<defs>
<filter id="filter0_f" x="3.38376" y="3.5974" width="34.3187" height="33.8928" filterUnits="userSpaceOnUse" color-interpolation-filters="sRGB">
<feFlood flood-opacity="0" result="BackgroundImageFix"/>
<feBlend mode="normal" in="SourceGraphic" in2="BackgroundImageFix" result="shape"/>
<feGaussianBlur stdDeviation="0.352455" result="effect1_foregroundBlur"/>
</filter>
</defs>
</svg>
