<svg width="40" height="40" viewBox="0 0 40 40" fill="none" xmlns="http://www.w3.org/2000/svg">
<g opacity="0.2" filter="url(#filter0_f)">
<path d="M6.49664 4.30231V6.67899H4.08867V33.6163H6.49664V36.7852H33.787V33.6163H36.9976V6.67899H33.787V4.30231H6.49664Z" fill="#1A237E"/>
</g>
<path d="M34.1614 4.1727H5.83859C4.91846 4.1727 4.17255 4.91864 4.17255 5.83882V34.1614C4.17255 35.0816 4.91846 35.8275 5.83859 35.8275H34.1614C35.0815 35.8275 35.8275 35.0816 35.8275 34.1614V5.83882C35.8275 4.91864 35.0815 4.1727 34.1614 4.1727Z" fill="#2196F3"/>
<path opacity="0.2" d="M5.83837 4.17151C4.91538 4.17151 4.17151 4.91535 4.17151 5.83831V6.30236C4.17151 5.37926 4.91538 4.63539 5.83837 4.63539H34.1605C35.0835 4.63539 35.8274 5.37926 35.8274 6.30236V5.83831C35.8274 4.91535 35.0835 4.17151 34.1605 4.17151H5.83837Z" fill="white"/>
<path opacity="0.2" d="M34.1597 35.8591C35.0826 35.8591 35.8265 35.1153 35.8265 34.1923V33.7284C35.8265 34.6512 35.0826 35.3952 34.1597 35.3952H5.83748C4.91458 35.3952 4.17068 34.6512 4.17068 33.7284V34.1923C4.17068 35.1153 4.91458 35.8591 5.83748 35.8591H34.1597Z" fill="#1A237E"/>
<path d="M16.3602 11.026H23.8503C25.7142 11.026 26.3901 11.22 27.0715 11.5845C27.7529 11.9489 28.2876 12.4836 28.652 13.165C29.0165 13.8464 29.2105 14.5223 29.2105 16.3862V17.1024C28.7863 16.3166 28.1629 15.6957 27.3748 15.2742C26.5621 14.8395 25.7663 14.6397 23.8503 14.6397H16.3602C14.4442 14.6397 13.6485 14.8395 12.8357 15.2742C12.0476 15.6957 11.4242 16.3166 11 17.1024V16.3862C11 14.5223 11.1941 13.8464 11.5585 13.165C11.9229 12.4836 12.4577 11.9489 13.1391 11.5845C13.8205 11.22 14.4964 11.026 16.3602 11.026Z" fill="white"/>
<path d="M28.652 17.422C29.0165 18.1034 29.2105 18.7793 29.2105 20.6432V21.1157C28.8462 20.5058 28.3358 20.0197 27.7039 19.6818C27.0043 19.3076 26.2633 19.1332 24.949 19.1332H15.2615C13.9472 19.1332 13.2062 19.3076 12.5066 19.6818C11.8747 20.0197 11.3644 20.5058 11 21.1157V20.6432C11 18.7793 11.1941 18.1034 11.5585 17.422C11.9229 16.7406 12.4577 16.2059 13.1391 15.8415C13.8205 15.477 14.4964 15.283 16.3602 15.283H23.8503C25.7142 15.283 26.3901 15.477 27.0715 15.8415C27.7529 16.2059 28.2876 16.7406 28.652 17.422Z" fill="white"/>
<path d="M29.2095 23.8698C29.1938 25.5608 29.0011 26.2083 28.652 26.8609C28.2876 27.5423 27.7529 28.0771 27.0715 28.4415C26.3901 28.8059 25.7142 29 23.8503 29H16.3602C14.4964 29 13.8205 28.8059 13.1391 28.4415C12.4577 28.0771 11.9229 27.5423 11.5585 26.8609C11.2095 26.2083 11.0167 25.5608 11.001 23.8698C11.0154 22.7323 11.1784 22.1365 11.4726 21.5865C11.7809 21.0099 12.2334 20.5574 12.81 20.249C13.3866 19.9407 14.0133 19.7765 15.2615 19.7765H24.949C26.1973 19.7765 26.824 19.9407 27.4005 20.249C27.9771 20.5574 28.4296 21.0099 28.738 21.5865C29.0322 22.1365 29.1951 22.7323 29.2095 23.8698Z" fill="white"/>
<defs>
<filter id="filter0_f" x="3.38376" y="3.5974" width="34.3187" height="33.8928" filterUnits="userSpaceOnUse" color-interpolation-filters="sRGB">
<feFlood flood-opacity="0" result="BackgroundImageFix"/>
<feBlend mode="normal" in="SourceGraphic" in2="BackgroundImageFix" result="shape"/>
<feGaussianBlur stdDeviation="0.352455" result="effect1_foregroundBlur"/>
</filter>
</defs>
</svg>
