<svg width="40" height="40" viewBox="0 0 40 40" fill="none" xmlns="http://www.w3.org/2000/svg">
<g opacity="0.2" filter="url(#filter0_f)">
<path d="M6.49664 4.30231V6.67899H4.08867V33.6163H6.49664V36.7852H33.787V33.6163H36.9976V6.67899H33.787V4.30231H6.49664Z" fill="#1A237E"/>
</g>
<path d="M34.1614 4.1727H5.83859C4.91846 4.1727 4.17255 4.91864 4.17255 5.83882V34.1614C4.17255 35.0816 4.91846 35.8275 5.83859 35.8275H34.1614C35.0815 35.8275 35.8275 35.0816 35.8275 34.1614V5.83882C35.8275 4.91864 35.0815 4.1727 34.1614 4.1727Z" fill="#673AB7"/>
<path opacity="0.2" d="M5.83837 4.17151C4.91538 4.17151 4.17151 4.91535 4.17151 5.83831V6.30236C4.17151 5.37926 4.91538 4.63539 5.83837 4.63539H34.1605C35.0835 4.63539 35.8274 5.37926 35.8274 6.30236V5.83831C35.8274 4.91535 35.0835 4.17151 34.1605 4.17151H5.83837Z" fill="white"/>
<path opacity="0.2" d="M34.1597 35.8591C35.0826 35.8591 35.8265 35.1153 35.8265 34.1923V33.7284C35.8265 34.6512 35.0826 35.3952 34.1597 35.3952H5.83748C4.91458 35.3952 4.17068 34.6512 4.17068 33.7284V34.1923C4.17068 35.1153 4.91458 35.8591 5.83748 35.8591H34.1597Z" fill="#1A237E"/>
<path fill-rule="evenodd" clip-rule="evenodd" d="M17.157 13.2673C17.915 13.6501 18.2549 13.9843 18.6283 14.7138C18.8993 15.2437 18.9468 15.6086 18.8998 16.8024C18.8536 17.9798 18.7749 18.3405 18.4772 18.742L18.1114 19.2353L18.4998 19.489C18.7134 19.6287 19.064 20.0249 19.2788 20.3696C19.6304 20.9337 19.6694 21.1859 19.6694 22.8923C19.6694 24.5699 19.6256 24.8647 19.2888 25.4507C19.0793 25.815 18.6388 26.2973 18.3098 26.5223C17.7441 26.9094 17.5678 26.9345 15.0707 26.9846C13.6183 27.0136 12.2564 26.994 12.0445 26.9409C11.541 26.815 10.5431 25.9349 10.2395 25.3491C10.0709 25.024 10 24.3233 10 22.983V21.0787H10.7438H11.4876V22.6533C11.4876 24.4057 11.6936 25.0159 12.3921 25.3333C12.6512 25.4512 13.6233 25.5303 14.8094 25.5303C17.0023 25.5303 17.6626 25.3351 17.941 24.6049C18.0279 24.3767 18.0992 23.5583 18.0992 22.7865C18.0992 21.4553 18.0744 21.3584 17.616 20.9012C17.143 20.4293 17.0965 20.4193 15.3846 20.4193H13.6364V19.5949V18.7705H14.9696C15.7028 18.7705 16.4458 18.6942 16.6207 18.6007C17.3484 18.2123 17.6669 16.6722 17.2603 15.5085C16.9426 14.5993 16.5628 14.4839 13.8901 14.4839H11.4876V15.2258V15.9677H10.7438H10V14.4839V13H13.314C16.0415 13 16.7217 13.0473 17.157 13.2673ZM28.5041 13.3449C28.8426 13.5347 29.3175 13.9947 29.5597 14.3671C29.9734 15.0034 30 15.1623 30 16.9899V18.9354H29.2707H28.5417L28.4856 17.1071C28.4316 15.3392 28.4145 15.2658 27.9659 14.8814C27.5347 14.5117 27.3707 14.4839 25.6233 14.4839C23.843 14.4839 23.7177 14.5063 23.2359 14.9107L22.7273 15.3376V20.0292V24.7209L23.1331 25.1255C23.5117 25.5034 23.6531 25.5303 25.257 25.5303C26.2021 25.5303 27.2119 25.448 27.501 25.3476C28.3337 25.0581 28.5124 24.5091 28.5124 22.2411V20.2544H29.2562H30V22.5708C30 24.271 29.9364 25.0101 29.7605 25.3491C29.4074 26.0302 28.4334 26.8183 27.7975 26.9371C27.4912 26.9945 26.2749 27.0166 25.0945 26.9866C23.0369 26.934 22.923 26.9126 22.3403 26.4687C22.0059 26.2142 21.5845 25.7163 21.4035 25.3624C21.0977 24.7646 21.0744 24.3864 21.0744 20.0244C21.0744 17.0991 21.1408 15.1547 21.2507 14.8655C21.4668 14.2967 21.9864 13.7162 22.6446 13.3085C23.0681 13.046 23.4869 13.0012 25.5147 13.0007C27.6182 13 27.959 13.0394 28.5041 13.3449Z" fill="white"/>
<defs>
<filter id="filter0_f" x="3.38376" y="3.5974" width="34.3187" height="33.8928" filterUnits="userSpaceOnUse" color-interpolation-filters="sRGB">
<feFlood flood-opacity="0" result="BackgroundImageFix"/>
<feBlend mode="normal" in="SourceGraphic" in2="BackgroundImageFix" result="shape"/>
<feGaussianBlur stdDeviation="0.352455" result="effect1_foregroundBlur"/>
</filter>
</defs>
</svg>
