<svg width="40" height="40" viewBox="0 0 40 40" fill="none" xmlns="http://www.w3.org/2000/svg">
<g opacity="0.2" filter="url(#filter0_f)">
<path d="M6.49664 4.30231V6.67899H4.08867V33.6163H6.49664V36.7852H33.787V33.6163H36.9976V6.67899H33.787V4.30231H6.49664Z" fill="#263238"/>
</g>
<path d="M34.1614 4.1727H5.83859C4.91846 4.1727 4.17255 4.91864 4.17255 5.83882V34.1614C4.17255 35.0816 4.91846 35.8275 5.83859 35.8275H34.1614C35.0815 35.8275 35.8275 35.0816 35.8275 34.1614V5.83882C35.8275 4.91864 35.0815 4.1727 34.1614 4.1727Z" fill="#03A9F4"/>
<path opacity="0.2" d="M5.83837 4.17151C4.91538 4.17151 4.17151 4.91535 4.17151 5.83831V6.30236C4.17151 5.37926 4.91538 4.63539 5.83837 4.63539H34.1605C35.0835 4.63539 35.8274 5.37926 35.8274 6.30236V5.83831C35.8274 4.91535 35.0835 4.17151 34.1605 4.17151H5.83837Z" fill="white"/>
<path opacity="0.2" d="M34.1597 35.8591C35.0826 35.8591 35.8265 35.1153 35.8265 34.1923V33.7284C35.8265 34.6512 35.0826 35.3952 34.1597 35.3952H5.83748C4.91458 35.3952 4.17068 34.6512 4.17068 33.7284V34.1923C4.17068 35.1153 4.91458 35.8591 5.83748 35.8591H34.1597Z" fill="#263238"/>
<path d="M14.5232 23.8983C14.5232 25.1724 15.5686 25.3916 16.3321 25.5512C16.7442 25.6378 17.07 25.7061 17.07 25.9018C17.07 26.1066 16.6741 26.1795 16.3032 26.1795C15.7403 26.1795 15.1427 26.0616 14.6635 25.8558L14.5717 25.816V27.2633L14.6223 27.2756C15.3257 27.4423 15.9279 27.5135 16.6364 27.5135C17.3656 27.5135 19.0618 27.3441 19.0618 25.7731C19.0618 24.5023 18.0098 24.2942 17.2417 24.142C16.8356 24.0615 16.5149 23.9982 16.5149 23.8127C16.5149 23.5806 16.885 23.5496 17.2471 23.5496C17.7255 23.5496 18.2144 23.6345 18.6614 23.7961L18.7498 23.8277V22.3993L18.6976 22.3883C18.1701 22.277 17.596 22.2151 17.0806 22.2151C15.3837 22.2151 14.5232 22.7815 14.5232 23.8983ZM19.2146 24.8641C19.2146 26.5725 20.1917 27.5133 21.9664 27.5133C23.7543 27.5133 24.7389 26.5725 24.7389 24.8641C24.7389 23.1806 23.7285 22.2149 21.9664 22.2149C20.2175 22.2151 19.2146 23.1808 19.2146 24.8641ZM21.2895 24.8641C21.2895 23.9917 21.5172 23.5494 21.9662 23.5494C22.5738 23.5494 22.6554 24.3002 22.6638 24.8654C22.6556 25.5 22.5942 26.1795 21.9662 26.1795C21.511 26.1795 21.2895 25.7492 21.2895 24.8641ZM25.1314 22.3013H25.0657V27.4276H27.9422C29.0111 27.4276 30 27.2515 30 25.9734C30 25.5127 29.653 24.9936 29.0639 24.8192C29.6378 24.6077 29.9099 24.2163 29.9099 23.5979C29.9099 22.7615 29.2948 22.3013 28.1782 22.3013H25.1314V22.3013ZM27.3802 25.3741C27.8202 25.3741 28.0084 25.5063 28.0084 25.816C28.0084 26.2327 27.5169 26.2652 27.3662 26.2652C27.3662 26.2652 27.045 26.2652 26.9464 26.2652C26.9464 26.1578 26.9464 25.4813 26.9464 25.3741C27.0459 25.3741 27.3802 25.3741 27.3802 25.3741ZM27.387 23.3775C27.7669 23.3775 27.9597 23.519 27.9597 23.7982C27.9597 24.1397 27.6258 24.2115 27.3454 24.2115C27.3454 24.2115 27.0436 24.2115 26.9464 24.2115C26.9464 24.1054 26.9464 23.4834 26.9464 23.3773C27.0463 23.3775 27.387 23.3775 27.387 23.3775ZM11.5183 21.3877L10.9388 21.92L10.9819 21.9566C10.9969 21.9697 11.3214 22.2407 11.8503 22.3852C10.688 22.7295 10 23.6162 10 24.7927C10 26.4613 11.1309 27.4979 12.9514 27.4979C13.5507 27.4979 14.1336 27.343 14.298 27.2954L14.3344 27.2848V25.8516L14.2672 25.8755C13.9042 26.0056 13.5899 26.0658 13.2776 26.0658C12.4791 26.0658 12.0025 25.6008 12.0025 24.821C12.0025 24.0798 12.5151 23.6193 13.3403 23.6193C13.6525 23.6193 13.9641 23.7076 14.2545 23.8031L14.3205 23.8248V22.3971L14.1806 22.3706C13.9308 22.3238 13.7208 22.2853 13.4981 22.2605C13.9002 22.0821 14.1666 21.839 14.298 21.6979L14.3361 21.6569L14.1136 21.488L14.0826 21.5218C14.0784 21.5266 13.6627 21.9722 12.8917 21.9645C12.0734 21.9564 11.5961 21.3985 11.5916 21.3929L11.5576 21.3523L11.5183 21.3877Z" fill="white"/>
<path d="M16.7143 15.2705C16.7143 13.4106 18.2221 11.9027 20.0822 11.9027C21.9423 11.9027 23.4502 13.4106 23.4502 15.2705C23.4502 17.1303 21.9423 18.6382 20.0822 18.6382C18.2221 18.6382 16.7143 17.1303 16.7143 15.2705ZM22.5661 17.995C21.9244 18.6907 20.7929 19.3865 19.3412 19.3865C18.2148 19.3865 17.2451 18.9486 16.6281 18.4621C12.9512 18.848 10.2169 19.3949 10.2169 19.3949V20.8838L29.7036 20.8817L29.7054 17.8118C29.7054 17.8118 26.3804 17.7912 22.5661 17.995Z" fill="white"/>
<defs>
<filter id="filter0_f" x="3.38376" y="3.5974" width="34.3187" height="33.8928" filterUnits="userSpaceOnUse" color-interpolation-filters="sRGB">
<feFlood flood-opacity="0" result="BackgroundImageFix"/>
<feBlend mode="normal" in="SourceGraphic" in2="BackgroundImageFix" result="shape"/>
<feGaussianBlur stdDeviation="0.352455" result="effect1_foregroundBlur"/>
</filter>
</defs>
</svg>
