<svg width="40" height="40" viewBox="0 0 40 40" fill="none" xmlns="http://www.w3.org/2000/svg">
<g opacity="0.2" filter="url(#filter0_f)">
<path d="M6.49662 4.30231V6.67899H4.08865V33.6163H6.49662V36.7852H33.787V33.6163H36.9976V6.67899H33.787V4.30231H6.49662Z" fill="#263238"/>
</g>
<path d="M34.1614 4.1727H5.83856C4.91843 4.1727 4.17252 4.91864 4.17252 5.83882V34.1614C4.17252 35.0816 4.91843 35.8275 5.83856 35.8275H34.1614C35.0815 35.8275 35.8274 35.0816 35.8274 34.1614V5.83882C35.8274 4.91864 35.0815 4.1727 34.1614 4.1727Z" fill="#03A9F4"/>
<path opacity="0.2" d="M5.83834 4.17151C4.91535 4.17151 4.17148 4.91535 4.17148 5.83831V6.30236C4.17148 5.37926 4.91535 4.63539 5.83834 4.63539H34.1605C35.0835 4.63539 35.8273 5.37926 35.8273 6.30236V5.83831C35.8273 4.91535 35.0835 4.17151 34.1605 4.17151H5.83834Z" fill="white"/>
<path opacity="0.2" d="M34.1597 35.8591C35.0826 35.8591 35.8265 35.1153 35.8265 34.1923V33.7284C35.8265 34.6512 35.0826 35.3952 34.1597 35.3952H5.83745C4.91455 35.3952 4.17065 34.6512 4.17065 33.7284V34.1923C4.17065 35.1153 4.91455 35.8591 5.83745 35.8591H34.1597Z" fill="#263238"/>
<path fill-rule="evenodd" clip-rule="evenodd" d="M18.1916 13.0787C17.5393 13.1481 16.0626 13.2823 14.9101 13.3772C13.7575 13.4719 12.6189 13.6218 12.3798 13.7102C12.1407 13.7986 11.7871 14.0152 11.5939 14.1918C10.9971 14.737 10.8843 15.3551 11.0608 17.1156C11.1487 17.992 11.2635 19.1674 11.3162 19.7275C11.4082 20.7086 11.4302 20.7512 11.9178 20.8971L12.4236 21.0486L12.3093 19.8789C12.2465 19.2356 12.1464 17.9064 12.087 16.9252L11.9788 15.1415L12.3877 14.8277C12.6996 14.5885 13.1455 14.4882 14.2685 14.4051C15.078 14.3451 16.7012 14.2044 17.8753 14.0926C19.6631 13.9223 20.0787 13.9232 20.4309 14.0978C20.6621 14.2126 20.8762 14.379 20.9064 14.4676C20.9393 14.5635 21.167 14.5887 21.4687 14.5297C21.9642 14.4332 21.9707 14.4213 21.7523 14.0093C21.2701 13.1 20.3227 12.8523 18.1916 13.0787ZM21.2692 15.8341C20.9122 16.0463 20.6186 16.4932 20.1291 17.5688C19.7665 18.3656 19.1095 19.8084 18.6689 20.775C18.2283 21.7415 17.891 22.5549 17.9195 22.5826C17.9479 22.6104 18.2005 22.6525 18.4807 22.6762L18.9904 22.7196L20.2662 19.866C20.9679 18.2965 21.6557 16.9257 21.7947 16.8196C21.9337 16.7136 22.1802 16.6268 22.3423 16.6268C22.604 16.6268 24.3924 17.3372 26.8545 18.4193C27.3136 18.621 27.7488 18.7862 27.8215 18.7862C27.8941 18.7862 28.1411 18.9302 28.3703 19.106C28.6083 19.2885 28.7869 19.5803 28.7869 19.7864C28.7869 19.9848 28.3532 21.1299 27.8228 22.331C27.2925 23.5323 26.8886 24.5442 26.925 24.5798C26.9615 24.6153 27.1999 24.6852 27.4545 24.7349L27.9177 24.8252L28.9057 22.5692C30.05 19.9568 30.1345 19.3563 29.459 18.6355C28.8905 18.0287 23.1513 15.5467 22.3189 15.5476C22.0059 15.5479 21.5334 15.6769 21.2692 15.8341ZM14.6374 15.9703C13.5107 16.0551 13.3926 16.1972 13.5219 17.3132C13.5814 17.8248 13.697 18.3221 13.7789 18.4184C13.8679 18.5231 14.2286 18.5666 14.676 18.5265C16.1878 18.3914 16.1358 18.4341 16.1358 17.3289C16.1358 16.6359 16.0615 16.2678 15.8874 16.0978C15.7506 15.9646 15.5905 15.868 15.5316 15.8833C15.4724 15.8985 15.0701 15.9377 14.6374 15.9703ZM10 22.2447C10 22.7545 10.0356 22.7853 11.0516 23.152C12.8315 23.7942 16.2946 24.6815 19.2986 25.2647C23.2671 26.0352 27.3039 27.0413 29.0482 27.6947L29.8628 28L29.9567 27.542C30.0084 27.2901 30.0147 27.0272 29.9706 26.9577C29.8871 26.8259 27.5951 26.0679 26.0986 25.6772C25.1108 25.4194 22.8132 24.9161 18.9032 24.1014C15.9386 23.4836 13.0236 22.7221 11.2934 22.1132C10.674 21.8953 10.1297 21.717 10.0837 21.717C10.0376 21.717 10 21.9545 10 22.2447Z" fill="white"/>
<defs>
<filter id="filter0_f" x="3.38374" y="3.5974" width="34.3187" height="33.8928" filterUnits="userSpaceOnUse" color-interpolation-filters="sRGB">
<feFlood flood-opacity="0" result="BackgroundImageFix"/>
<feBlend mode="normal" in="SourceGraphic" in2="BackgroundImageFix" result="shape"/>
<feGaussianBlur stdDeviation="0.352455" result="effect1_foregroundBlur"/>
</filter>
</defs>
</svg>
