<svg width="40" height="40" viewBox="0 0 40 40" fill="none" xmlns="http://www.w3.org/2000/svg">
<g opacity="0.2" filter="url(#filter0_f)">
<path d="M6.49662 4.30231V6.67899H4.08865V33.6163H6.49662V36.7852H33.787V33.6163H36.9976V6.67899H33.787V4.30231H6.49662Z" fill="#263238"/>
</g>
<path d="M34.1614 4.1727H5.83856C4.91843 4.1727 4.17252 4.91864 4.17252 5.83882V34.1614C4.17252 35.0816 4.91843 35.8275 5.83856 35.8275H34.1614C35.0815 35.8275 35.8274 35.0816 35.8274 34.1614V5.83882C35.8274 4.91864 35.0815 4.1727 34.1614 4.1727Z" fill="#607D8B"/>
<path opacity="0.2" d="M5.83834 4.17151C4.91535 4.17151 4.17148 4.91535 4.17148 5.83831V6.30236C4.17148 5.37926 4.91535 4.63539 5.83834 4.63539H34.1605C35.0835 4.63539 35.8273 5.37926 35.8273 6.30236V5.83831C35.8273 4.91535 35.0835 4.17151 34.1605 4.17151H5.83834Z" fill="white"/>
<path opacity="0.2" d="M34.1597 35.8591C35.0826 35.8591 35.8265 35.1153 35.8265 34.1923V33.7284C35.8265 34.6512 35.0826 35.3952 34.1597 35.3952H5.83745C4.91455 35.3952 4.17065 34.6512 4.17065 33.7284V34.1923C4.17065 35.1153 4.91455 35.8591 5.83745 35.8591H34.1597Z" fill="#263238"/>
<path d="M14.324 18.149C14.324 18.237 14.2837 18.2993 14.203 18.336L10.562 19.843L14.203 21.328C14.2837 21.3647 14.324 21.427 14.324 21.515V21.999C14.324 22.0503 14.302 22.0907 14.258 22.12C14.2213 22.142 14.1773 22.142 14.126 22.12L9.825 20.338C9.75167 20.3087 9.715 20.2463 9.715 20.151L9.726 19.491C9.726 19.4103 9.76633 19.3517 9.847 19.315L14.126 17.555C14.1407 17.5477 14.1627 17.544 14.192 17.544C14.2287 17.544 14.258 17.5587 14.28 17.588C14.3093 17.61 14.324 17.6393 14.324 17.676V18.149ZM17.8421 23C17.3654 23 16.9254 22.8827 16.5221 22.648C16.1261 22.4133 15.8108 22.0943 15.5761 21.691C15.3414 21.2877 15.2241 20.8477 15.2241 20.371V19.183C15.2241 18.7063 15.3414 18.2663 15.5761 17.863C15.8108 17.4597 16.1261 17.1407 16.5221 16.906C16.9254 16.6713 17.3654 16.554 17.8421 16.554C18.3188 16.554 18.7551 16.6713 19.1511 16.906C19.5544 17.1407 19.8734 17.4597 20.1081 17.863C20.3428 18.2663 20.4601 18.7063 20.4601 19.183V19.92C20.4601 20.052 20.4124 20.1657 20.3171 20.261C20.2291 20.349 20.1191 20.393 19.9871 20.393H16.5441V20.448C16.5441 20.8073 16.6688 21.1153 16.9181 21.372C17.1748 21.6213 17.4828 21.746 17.8421 21.746H19.5911C19.6571 21.746 19.7121 21.768 19.7561 21.812C19.8001 21.856 19.8221 21.911 19.8221 21.977V22.769C19.8221 22.835 19.8001 22.89 19.7561 22.934C19.7121 22.978 19.6571 23 19.5911 23H17.8421ZM19.1401 19.205V19.106C19.1401 18.7467 19.0118 18.4423 18.7551 18.193C18.5058 17.9363 18.2014 17.808 17.8421 17.808C17.4828 17.808 17.1748 17.9363 16.9181 18.193C16.6688 18.4423 16.5441 18.7467 16.5441 19.106V19.205H19.1401ZM20.7347 23.605C20.7053 23.605 20.6797 23.594 20.6577 23.572C20.643 23.55 20.643 23.5207 20.6577 23.484L24.2217 14.783C24.2583 14.695 24.3243 14.651 24.4197 14.651H24.9037C24.933 14.651 24.955 14.662 24.9697 14.684C24.9917 14.706 24.9953 14.7353 24.9807 14.772L21.4277 23.473C21.3983 23.561 21.3323 23.605 21.2297 23.605H20.7347ZM29.9337 20.151C29.9337 20.2463 29.897 20.3087 29.8237 20.338L25.5227 22.12C25.508 22.1273 25.486 22.131 25.4567 22.131C25.42 22.131 25.387 22.12 25.3577 22.098C25.3357 22.0687 25.3247 22.0357 25.3247 21.999V21.515C25.3247 21.427 25.365 21.3647 25.4457 21.328L29.0867 19.843L25.4457 18.336C25.365 18.2993 25.3247 18.237 25.3247 18.149V17.676C25.3247 17.6247 25.343 17.588 25.3797 17.566C25.4237 17.5367 25.4714 17.533 25.5227 17.555L29.8017 19.315C29.8824 19.3517 29.9227 19.4103 29.9227 19.491L29.9337 20.151Z" fill="white"/>
<defs>
<filter id="filter0_f" x="3.38374" y="3.5974" width="34.3187" height="33.8928" filterUnits="userSpaceOnUse" color-interpolation-filters="sRGB">
<feFlood flood-opacity="0" result="BackgroundImageFix"/>
<feBlend mode="normal" in="SourceGraphic" in2="BackgroundImageFix" result="shape"/>
<feGaussianBlur stdDeviation="0.352455" result="effect1_foregroundBlur"/>
</filter>
</defs>
</svg>
