<?xml version="1.0" encoding="UTF-8" standalone="no"?>
<svg
   xmlns:dc="http://purl.org/dc/elements/1.1/"
   xmlns:cc="http://creativecommons.org/ns#"
   xmlns:rdf="http://www.w3.org/1999/02/22-rdf-syntax-ns#"
   xmlns:svg="http://www.w3.org/2000/svg"
   xmlns="http://www.w3.org/2000/svg"
   xmlns:sodipodi="http://sodipodi.sourceforge.net/DTD/sodipodi-0.dtd"
   xmlns:inkscape="http://www.inkscape.org/namespaces/inkscape"
   version="1.1"
   viewBox="0 0 28.747 28.747"
   id="svg137"
   sodipodi:docname="etchdroid.svg"
   inkscape:version="0.92.4 5da689c313, 2019-01-14">
  <metadata
     id="metadata141">
    <rdf:RDF>
      <cc:Work
         rdf:about="">
        <dc:format>image/svg+xml</dc:format>
        <dc:type
           rdf:resource="http://purl.org/dc/dcmitype/StillImage" />
      </cc:Work>
    </rdf:RDF>
  </metadata>
  <sodipodi:namedview
     pagecolor="#ffffff"
     bordercolor="#666666"
     borderopacity="1"
     objecttolerance="10"
     gridtolerance="10"
     guidetolerance="10"
     inkscape:pageopacity="0"
     inkscape:pageshadow="2"
     inkscape:window-width="1920"
     inkscape:window-height="1174"
     id="namedview139"
     showgrid="false"
     inkscape:zoom="32.838209"
     inkscape:cx="10.520036"
     inkscape:cy="17.32035"
     inkscape:window-x="1920"
     inkscape:window-y="0"
     inkscape:window-maximized="1"
     inkscape:current-layer="svg137" />
  <defs
     id="defs5">
    <filter
       id="filter6206-7"
       color-interpolation-filters="sRGB">
      <feGaussianBlur
         stdDeviation="0.658125"
         id="feGaussianBlur2" />
    </filter>
  </defs>
  <g
     transform="translate(0,-1093.687)"
     id="g123">
    <path
       transform="matrix(1.0781,0,0,1.0641,-0.093733,2.7509)"
       d="m 4.4177,1028.2 v 1.6051 H 2.8125 v 18.192 h 1.6052 v 2.1402 h 18.192 v -2.1402 h 2.1402 v -18.192 H 22.6097 V 1028.2 Z"
       id="path7"
       inkscape:connector-curvature="0"
       style="opacity:0.2;fill:#263238;filter:url(#filter6206-7)" />
    <rect
       x="2.9986999"
       y="1096.8"
       width="22.749001"
       height="22.749001"
       rx="1.1973"
       ry="1.1974"
       id="rect9"
       style="fill:#cddc39" />
    <g
       transform="translate(-22.32,1056.5)"
       id="g25">
      <path
         d="M 0,0 H 51.2 V 51.2 H 0 Z"
         id="path11"
         inkscape:connector-curvature="0"
         style="fill:none;stroke-width:1.06669998" />
      <g
         transform="matrix(0.33601,0,0,0.33601,1.5296,73.043)"
         id="g15">
        <path
           d="M 0,0 H 51.2 V 51.2 H 0 Z"
           id="path13"
           inkscape:connector-curvature="0"
           style="fill:none;stroke-width:1.06669998" />
      </g>
      <g
         transform="matrix(0.37187,0,0,0.37187,38.802,63.239)"
         id="g23">
        <path
           d="M 0,0 H 51.2 V 51.2 H 0 Z"
           id="path17"
           inkscape:connector-curvature="0"
           style="fill:none;stroke-width:1.06669998" />
        <g
           transform="matrix(2.6891,0,0,2.6891,-82.906,-48.45)"
           id="g21">
          <path
             d="M 0,0 H 51.2 V 51.2 H 0 Z"
             id="path19"
             inkscape:connector-curvature="0"
             style="fill:none;stroke-width:1.06669998" />
        </g>
      </g>
    </g>
    <path
       d="m 4.1958,1096.8 c -0.66332,0 -1.1979,0.5346 -1.1979,1.1979 v 0.3334 c 0,-0.6634 0.53459,-1.1979 1.1979,-1.1979 h 20.354 c 0.66332,0 1.1979,0.5345 1.1979,1.1979 v -0.3334 c 0,-0.6633 -0.5346,-1.1979 -1.1979,-1.1979 z"
       id="path27"
       inkscape:connector-curvature="0"
       style="opacity:0.2;fill:#ffffff" />
    <rect
       x="128"
       y="546.52002"
       width="42.667"
       height="42.667"
       id="rect29"
       style="fill:none;stroke-width:1.06669998" />
    <rect
       x="128"
       y="631.84998"
       width="42.667"
       height="42.667"
       id="rect31"
       style="fill:none;stroke-width:1.06669998" />
    <rect
       x="128"
       y="674.52002"
       width="42.667"
       height="42.667"
       id="rect33"
       style="fill:none;stroke-width:1.06669998" />
    <rect
       x="128"
       y="589.19"
       width="42.667"
       height="42.667"
       id="rect35"
       style="fill:none;stroke-width:1.06669998" />
    <rect
       x="128"
       y="717.19"
       width="42.667"
       height="42.667"
       id="rect37"
       style="fill:none;stroke-width:1.06669998" />
    <rect
       x="213.33"
       y="546.52002"
       width="42.667"
       height="42.667"
       id="rect39"
       style="fill:none;stroke-width:1.06669998" />
    <rect
       x="213.33"
       y="631.84998"
       width="42.667"
       height="42.667"
       id="rect41"
       style="fill:none;stroke-width:1.06669998" />
    <rect
       x="213.33"
       y="674.52002"
       width="42.667"
       height="42.667"
       id="rect43"
       style="fill:none;stroke-width:1.06669998" />
    <rect
       x="213.33"
       y="589.19"
       width="42.667"
       height="42.667"
       id="rect45"
       style="fill:none;stroke-width:1.06669998" />
    <rect
       x="213.33"
       y="717.19"
       width="42.667"
       height="42.667"
       id="rect47"
       style="fill:none;stroke-width:1.06669998" />
    <rect
       x="298.67001"
       y="546.52002"
       width="42.667"
       height="42.667"
       id="rect49"
       style="fill:none;stroke-width:1.06669998" />
    <rect
       x="298.67001"
       y="631.84998"
       width="42.667"
       height="42.667"
       id="rect51"
       style="fill:none;stroke-width:1.06669998" />
    <rect
       x="298.67001"
       y="674.52002"
       width="42.667"
       height="42.667"
       id="rect53"
       style="fill:none;stroke-width:1.06669998" />
    <rect
       x="298.67001"
       y="589.19"
       width="42.667"
       height="42.667"
       id="rect55"
       style="fill:none;stroke-width:1.06669998" />
    <rect
       x="298.67001"
       y="717.19"
       width="42.667"
       height="42.667"
       id="rect57"
       style="fill:none;stroke-width:1.06669998" />
    <rect
       x="170.67"
       y="546.52002"
       width="42.667"
       height="42.667"
       id="rect59"
       style="fill:none;stroke-width:1.06669998" />
    <rect
       x="170.67"
       y="631.84998"
       width="42.667"
       height="42.667"
       id="rect61"
       style="fill:none;stroke-width:1.06669998" />
    <rect
       x="170.67"
       y="674.52002"
       width="42.667"
       height="42.667"
       id="rect63"
       style="fill:none;stroke-width:1.06669998" />
    <rect
       x="170.67"
       y="589.19"
       width="42.667"
       height="42.667"
       id="rect65"
       style="fill:none;stroke-width:1.06669998" />
    <rect
       x="170.67"
       y="717.19"
       width="42.667"
       height="42.667"
       id="rect67"
       style="fill:none;stroke-width:1.06669998" />
    <rect
       x="256"
       y="546.52002"
       width="42.667"
       height="42.667"
       id="rect69"
       style="fill:none;stroke-width:1.06669998" />
    <rect
       x="256"
       y="631.84998"
       width="42.667"
       height="42.667"
       id="rect71"
       style="fill:none;stroke-width:1.06669998" />
    <rect
       x="256"
       y="674.52002"
       width="42.667"
       height="42.667"
       id="rect73"
       style="fill:none;stroke-width:1.06669998" />
    <rect
       x="256"
       y="589.19"
       width="42.667"
       height="42.667"
       id="rect75"
       style="fill:none;stroke-width:1.06669998" />
    <rect
       x="256"
       y="717.19"
       width="42.667"
       height="42.667"
       id="rect77"
       style="fill:none;stroke-width:1.06669998" />
    <rect
       x="128"
       y="759.84998"
       width="42.667"
       height="42.667"
       id="rect79"
       style="fill:none;stroke-width:1.06669998" />
    <rect
       x="213.33"
       y="759.84998"
       width="42.667"
       height="42.667"
       id="rect81"
       style="fill:none;stroke-width:1.06669998" />
    <rect
       x="298.67001"
       y="759.84998"
       width="42.667"
       height="42.667"
       id="rect83"
       style="fill:none;stroke-width:1.06669998" />
    <rect
       x="170.67"
       y="759.84998"
       width="42.667"
       height="42.667"
       id="rect85"
       style="fill:none;stroke-width:1.06669998" />
    <rect
       x="256"
       y="759.84998"
       width="42.667"
       height="42.667"
       id="rect87"
       style="fill:none;stroke-width:1.06669998" />
    <rect
       x="341.32999"
       y="589.19"
       width="42.667"
       height="42.667"
       id="rect89"
       style="fill:none;stroke-width:1.06669998" />
    <rect
       x="341.32999"
       y="631.84998"
       width="42.667"
       height="42.667"
       id="rect91"
       style="fill:none;stroke-width:1.06669998" />
    <rect
       x="341.32999"
       y="717.19"
       width="42.667"
       height="42.667"
       id="rect93"
       style="fill:none;stroke-width:1.06669998" />
    <rect
       x="341.32999"
       y="546.52002"
       width="42.667"
       height="42.667"
       id="rect95"
       style="fill:none;stroke-width:1.06669998" />
    <rect
       x="341.32999"
       y="674.52002"
       width="42.667"
       height="42.667"
       id="rect97"
       style="fill:none;stroke-width:1.06669998" />
    <rect
       x="341.32999"
       y="759.84998"
       width="42.667"
       height="42.667"
       id="rect99"
       style="fill:none;stroke-width:1.06669998" />
    <rect
       x="160"
       y="578.52002"
       width="192"
       height="192"
       id="rect101"
       style="fill:none;stroke-width:1.06669998" />
    <g
       transform="matrix(0.37344,0,0,0.37344,4.7333,1097.4)"
       id="g105">
      <path
         d="M 0,0 H 51.2 V 51.2 H 0 Z"
         id="path103"
         inkscape:connector-curvature="0"
         style="fill:none;stroke-width:1.06669998" />
    </g>
    <g
       transform="matrix(0.36471,0,0,0.36471,5.1356,1097.4)"
       id="g109">
      <path
         d="M 0,0 H 51.2 V 51.2 H 0 Z"
         id="path107"
         inkscape:connector-curvature="0"
         style="fill:none;stroke-width:1.06669998" />
    </g>
    <g
       transform="matrix(0.41585,0,0,0.41585,84.325,1055.9)"
       id="g119">
      <g
         transform="matrix(0.062269,0,0,0.062269,-28.238,185.29)"
         id="g117">
        <g
           transform="matrix(38.618,0,0,38.618,14724,-13542)"
           id="g115">
          <g
             transform="matrix(0.71436,0,0,0.71436,-400.52,188.34)"
             id="g113">
            <path
               d="m 1293.2,-120.67 c -181.75,0.2763 -511.18,0.13525 -699.05,0.13998 -2.3216,10.413 -3.593,21.251 -3.593,32.384 v 114 c 207.65,0.73695 494.72,0.38136 706.23,0.3733 v -114.37 c 0,-11.18 -1.2522,-22.07 -3.593,-32.523 z M 834.51,174.89 c -78.385,-0.004 -158.85,0.17892 -243.95,0.55995 v 138.63 c 286.34,-0.39317 421.73,-0.13827 706.23,-0.32664 v -137.75 c -163.2,-0.53005 -311.22,-1.1113 -462.28,-1.1199 z"
               id="path111"
               inkscape:connector-curvature="0"
               style="opacity:0;stroke-width:1.49319994" />
          </g>
        </g>
      </g>
    </g>
    <path
       d="m 24.549,1119.5 c 0.66325,0 1.1979,-0.5346 1.1979,-1.1979 v -0.3333 c 0,0.6632 -0.53461,1.1978 -1.1979,1.1978 H 4.195 c -0.66325,0 -1.1979,-0.5346 -1.1979,-1.1978 v 0.3333 c 0,0.6633 0.53461,1.1979 1.1979,1.1979 z"
       id="path121"
       inkscape:connector-curvature="0"
       style="opacity:0.2;fill:#263238" />
  </g>
  <g
     transform="matrix(1.3427,0,0,1.3427,-4.9196356,-4.8247)"
     id="g127">
    <path
       style="fill:#ffffff;stroke-width:1.3427"
       d="M 14.373047 6.4433594 C 12.835655 6.4433594 11.445899 7.0009913 10.341797 7.8945312 L 9.2226562 6.7734375 A 0.67141713 0.67141713 0 0 0 8.7382812 6.5703125 A 0.67141713 0.67141713 0 0 0 8.2714844 7.7226562 L 9.3925781 8.84375 C 8.499065 9.9477314 7.9414063 11.335521 7.9414062 12.873047 L 7.9414062 14.482422 L 9.5488281 14.482422 L 9.5488281 21.716797 L 19.197266 21.716797 L 19.197266 14.482422 L 20.804688 14.482422 L 20.804688 12.873047 C 20.804688 11.335655 20.249573 9.9478522 19.355469 8.84375 L 20.474609 7.7226562 A 0.67141713 0.67141713 0 0 0 19.986328 6.5703125 A 0.67141713 0.67141713 0 0 0 19.525391 6.7734375 L 18.40625 7.8945312 C 17.301584 7.0006019 15.910841 6.4433594 14.373047 6.4433594 z M 11.564453 9.3945312 A 0.67290777 0.67290777 0 0 1 12.236328 10.066406 A 0.67290777 0.67290777 0 0 1 11.564453 10.740234 A 0.67290777 0.67290777 0 0 1 10.890625 10.066406 A 0.67290777 0.67290777 0 0 1 11.564453 9.3945312 z M 17.183594 9.3945312 A 0.67290777 0.67290777 0 0 1 17.857422 10.066406 A 0.67290777 0.67290777 0 0 1 17.183594 10.740234 A 0.67290777 0.67290777 0 0 1 16.511719 10.066406 A 0.67290777 0.67290777 0 0 1 17.183594 9.3945312 z M 11.15625 17.697266 L 13.570312 17.697266 L 13.570312 19.304688 L 11.15625 19.304688 L 11.15625 17.697266 z M 15.177734 17.697266 L 17.587891 17.697266 L 17.587891 19.304688 L 15.177734 19.304688 L 15.177734 17.697266 z "
       transform="matrix(0.744768,0,0,0.744768,3.6639872,3.5932822)"
       id="path125" />
  </g>
  <g
     display="none"
     fill="none"
     id="g135">
    <rect
       transform="rotate(90)"
       x="7.8232"
       y="-20.923"
       width="13.1"
       height="13.1"
       display="inline"
       stroke="#000"
       stroke-width=".070382"
       id="rect129" />
    <rect
       x="7.2241"
       y="8.6528"
       width="14.298"
       height="11.441"
       stroke="#5261ff"
       stroke-linecap="round"
       stroke-linejoin="round"
       stroke-width=".069589"
       id="rect131" />
    <rect
       transform="rotate(90)"
       x="7.2241"
       y="-20.094"
       width="14.298"
       height="11.441"
       display="inline"
       stroke="#0f0"
       stroke-linecap="round"
       stroke-linejoin="round"
       stroke-width=".069589"
       id="rect133" />
  </g>
</svg>
