<svg width="40" height="40" viewBox="0 0 40 40" fill="none" xmlns="http://www.w3.org/2000/svg">
<g opacity="0.2" filter="url(#filter0_f)">
<path d="M6.49662 4.30231V6.67899H4.08865V33.6163H6.49662V36.7852H33.787V33.6163H36.9976V6.67899H33.787V4.30231H6.49662Z" fill="#1A237E"/>
</g>
<path d="M34.1614 4.1727H5.83856C4.91843 4.1727 4.17252 4.91864 4.17252 5.83882V34.1614C4.17252 35.0816 4.91843 35.8275 5.83856 35.8275H34.1614C35.0815 35.8275 35.8274 35.0816 35.8274 34.1614V5.83882C35.8274 4.91864 35.0815 4.1727 34.1614 4.1727Z" fill="#3F51B5"/>
<path opacity="0.2" d="M5.83834 4.17151C4.91535 4.17151 4.17148 4.91535 4.17148 5.83831V6.30236C4.17148 5.37926 4.91535 4.63539 5.83834 4.63539H34.1605C35.0835 4.63539 35.8273 5.37926 35.8273 6.30236V5.83831C35.8273 4.91535 35.0835 4.17151 34.1605 4.17151H5.83834Z" fill="white"/>
<path opacity="0.2" d="M34.1597 35.8591C35.0826 35.8591 35.8265 35.1153 35.8265 34.1923V33.7284C35.8265 34.6512 35.0826 35.3952 34.1597 35.3952H5.83745C4.91455 35.3952 4.17065 34.6512 4.17065 33.7284V34.1923C4.17065 35.1153 4.91455 35.8591 5.83745 35.8591H34.1597Z" fill="#1A237E"/>
<path fill-rule="evenodd" clip-rule="evenodd" d="M10.8265 15.4928C11.2681 15.4168 11.5618 15.4168 11.7832 15.4928C11.8935 15.5303 12.0768 15.7213 12.0768 15.9118C12.0768 16.0263 12.1507 16.3307 12.1507 16.5973V25.0897C12.1507 25.3187 12.2977 26.4987 10.9 27.3367V27.8702L15.3148 26.4227V25.7752C14.6159 25.7752 14.2113 25.4707 14.2113 25.0527V20.2917C14.6894 20.1772 14.9831 20.1007 15.2408 20.1007C15.4617 20.1007 15.7189 20.2152 15.8663 20.3292C15.9767 20.4057 16.1241 20.5958 16.161 20.7488C16.197 20.8628 16.3078 21.1667 16.3449 21.3958L16.4917 22.1197H16.8224V17.0548H16.3818C16.3449 17.4348 16.3078 17.7783 16.3078 17.8543C16.2709 18.1212 16.1241 18.4253 16.05 18.6157C15.9398 18.8442 15.6825 19.1108 15.4617 19.2248C15.0205 19.4537 14.6159 19.5297 14.1744 19.6818V15.4168C14.1744 14.9599 14.1744 14.6553 14.6159 14.3883L14.7624 14.3123C15.4986 13.8553 16.3078 14.1219 16.7126 14.3503C17.1541 14.5413 17.5587 15.4927 17.7061 16.2548L17.7795 16.5593H18.1472V12.4844L10.8265 15.0353V15.4928ZM20.9066 16.8258C21.4216 16.8258 21.8262 16.3687 21.8262 15.8358C21.8262 15.3023 21.4216 14.8454 20.9066 14.8454C20.3546 14.8454 19.9504 15.3023 19.9504 15.8358C19.9504 16.3687 20.3546 16.8258 20.9066 16.8258ZM19.1284 18.9484C19.111 18.8992 19.0776 18.7436 19.1284 18.9484ZM20.8697 24.5177C21.1639 24.4801 21.6054 24.1757 21.7898 23.9852C22.0835 23.6427 22.4146 22.9953 22.599 22.2333C22.2308 22.1197 22.7089 22.2718 22.3043 22.1573C22.2308 22.4617 22.0471 22.8052 21.9736 22.9573C21.9001 23.0718 21.7158 23.3382 21.6054 23.3762L21.458 23.4142C21.3481 23.3762 21.3481 22.7667 21.3847 22.5762V17.7398C20.3546 18.1968 20.1708 18.2348 19.1038 18.7297C19.1444 18.9654 19.1407 18.9834 19.1284 18.9484C19.1402 18.9952 19.1557 19.0594 19.1772 19.1493L19.3615 19.1113C19.5084 19.0723 19.7292 19.0353 19.7656 19.0353C19.987 18.9963 19.987 19.3013 19.987 19.6818V23.1857C19.987 23.6047 19.913 24.3282 20.2442 24.4427C20.2442 24.4427 20.5384 24.5952 20.8697 24.5177ZM26.4989 22.5002C26.6088 22.4617 26.6821 22.4617 26.7556 22.4243C28.0434 21.8912 28.9631 20.4057 29 18.9207V18.6922C29 18.3108 28.927 17.9682 28.7792 17.6258C28.4116 16.6733 27.418 16.3307 26.4989 16.5213C26.3885 16.5593 26.2775 16.5973 26.1671 16.6353C25.0637 17.0922 24.2909 18.2728 24.107 19.4917C23.9602 20.4057 24.0337 21.7008 24.8793 22.3098C25.3584 22.6527 25.9464 22.6527 26.4989 22.5002ZM26.4249 16.8258H26.4989C27.5654 16.6733 27.7862 18.7297 27.7862 19.4152C27.7862 20.4437 27.6752 21.8527 26.5722 22.1953C26.5722 22.1953 26.5348 22.1953 26.4989 22.2333C25.2475 22.5002 25.2475 19.9483 25.2475 19.1868C25.2475 18.2343 25.4678 17.0922 26.4249 16.8258Z" fill="white"/>
<defs>
<filter id="filter0_f" x="3.38374" y="3.5974" width="34.3187" height="33.8928" filterUnits="userSpaceOnUse" color-interpolation-filters="sRGB">
<feFlood flood-opacity="0" result="BackgroundImageFix"/>
<feBlend mode="normal" in="SourceGraphic" in2="BackgroundImageFix" result="shape"/>
<feGaussianBlur stdDeviation="0.352455" result="effect1_foregroundBlur"/>
</filter>
</defs>
</svg>
