<svg width="40" height="40" viewBox="0 0 40 40" fill="none" xmlns="http://www.w3.org/2000/svg">
<g opacity="0.2" filter="url(#filter0_f)">
<path d="M6.49664 4.30231V6.67899H4.08867V33.6163H6.49664V36.7852H33.787V33.6163H36.9976V6.67899H33.787V4.30231H6.49664Z" fill="#3E2723"/>
</g>
<path d="M34.1614 4.17267H5.83859C4.91846 4.17267 4.17255 4.91861 4.17255 5.83879V34.1614C4.17255 35.0815 4.91846 35.8275 5.83859 35.8275H34.1614C35.0815 35.8275 35.8275 35.0815 35.8275 34.1614V5.83879C35.8275 4.91861 35.0815 4.17267 34.1614 4.17267Z" fill="#F44336"/>
<path opacity="0.2" d="M5.83837 4.17151C4.91538 4.17151 4.17151 4.91535 4.17151 5.83831V6.30236C4.17151 5.37926 4.91538 4.63539 5.83837 4.63539H34.1605C35.0835 4.63539 35.8274 5.37926 35.8274 6.30236V5.83831C35.8274 4.91535 35.0835 4.17151 34.1605 4.17151H5.83837Z" fill="white"/>
<path opacity="0.2" d="M34.1597 35.8591C35.0826 35.8591 35.8265 35.1153 35.8265 34.1923V33.7284C35.8265 34.6512 35.0826 35.3952 34.1597 35.3952H5.83748C4.91458 35.3952 4.17068 34.6512 4.17068 33.7284V34.1923C4.17068 35.1153 4.91458 35.8591 5.83748 35.8591H34.1597Z" fill="#3E2723"/>
<path fill-rule="evenodd" clip-rule="evenodd" d="M27 17.9406C27 19.5746 26.4305 21.0767 25.4776 22.2625C25.4403 22.3146 25.3989 22.3708 25.3529 22.4316C24.7353 23.2481 23.5 24.8812 22.4706 26.5143C21.9215 27.3853 21.2553 28.6048 20.7532 29.5532C20.4377 30.1489 19.5623 30.1489 19.2468 29.5532C18.7447 28.6048 18.0785 27.3853 17.5294 26.5143C16.5 24.8812 15.2647 23.2481 14.6471 22.4316C14.6011 22.3708 14.5597 22.3146 14.5224 22.2625C13.5695 21.0767 13 19.5746 13 17.9406C13 14.1074 16.134 11 20 11C23.866 11 27 14.1074 27 17.9406ZM20 20.3902C21.3645 20.3902 22.4706 19.2935 22.4706 17.9406C22.4706 16.5877 21.3645 15.491 20 15.491C18.6355 15.491 17.5294 16.5877 17.5294 17.9406C17.5294 19.2935 18.6355 20.3902 20 20.3902Z" fill="white"/>
<defs>
<filter id="filter0_f" x="3.38376" y="3.5974" width="34.3187" height="33.8928" filterUnits="userSpaceOnUse" color-interpolation-filters="sRGB">
<feFlood flood-opacity="0" result="BackgroundImageFix"/>
<feBlend mode="normal" in="SourceGraphic" in2="BackgroundImageFix" result="shape"/>
<feGaussianBlur stdDeviation="0.352455" result="effect1_foregroundBlur"/>
</filter>
</defs>
</svg>
