<svg width="40" height="40" viewBox="0 0 40 40" fill="none" xmlns="http://www.w3.org/2000/svg">
<g opacity="0.2" filter="url(#filter0_f)">
<path d="M6.49664 4.30231V6.67899H4.08867V33.6163H6.49664V36.7852H33.787V33.6163H36.9976V6.67899H33.787V4.30231H6.49664Z" fill="#263238"/>
</g>
<path d="M34.1614 4.17267H5.83859C4.91846 4.17267 4.17255 4.91861 4.17255 5.83879V34.1614C4.17255 35.0815 4.91846 35.8275 5.83859 35.8275H34.1614C35.0815 35.8275 35.8275 35.0815 35.8275 34.1614V5.83879C35.8275 4.91861 35.0815 4.17267 34.1614 4.17267Z" fill="#8BC34A"/>
<path opacity="0.2" d="M5.83837 4.17151C4.91538 4.17151 4.17151 4.91535 4.17151 5.83831V6.30236C4.17151 5.37926 4.91538 4.63539 5.83837 4.63539H34.1605C35.0835 4.63539 35.8274 5.37926 35.8274 6.30236V5.83831C35.8274 4.91535 35.0835 4.17151 34.1605 4.17151H5.83837Z" fill="white"/>
<path opacity="0.2" d="M34.1597 35.8591C35.0826 35.8591 35.8265 35.1153 35.8265 34.1923V33.7284C35.8265 34.6512 35.0826 35.3952 34.1597 35.3952H5.83748C4.91458 35.3952 4.17068 34.6512 4.17068 33.7284V34.1923C4.17068 35.1153 4.91458 35.8591 5.83748 35.8591H34.1597Z" fill="#263238"/>
<path fill-rule="evenodd" clip-rule="evenodd" d="M25.5123 13.0312C26.4949 13.5455 27.4091 13.9469 27.8745 15.0842C28.3319 16.202 27.3908 20.902 27.4017 24.0405C27.4022 24.1897 27.4013 24.3396 27.3986 24.4892C27.4407 25.6124 27.0035 27.8038 26.0695 27.2901C25.7665 27.1237 25.324 26.1867 24.9723 25.1258C24.402 23.4058 24.8735 19.1618 24.3997 19.0714C23.6595 19.9711 21.6759 21.5703 20.9222 22.0642C19.6331 22.9087 19.221 21.7425 18.9933 20.9838C18.7151 20.0566 17.6445 17.996 17.4301 17.8272C17.2673 17.6991 17.254 17.8813 17.2222 17.9906C17.1445 18.2593 16.7349 21.1203 16.2929 22.6818C15.8182 24.3583 14.6919 27.1218 14.1677 27.7726C13.6436 28.4236 11.4675 28.9791 11.0301 28.9991C10.7456 29.0673 12.562 25.2937 12.9924 23.6993C13.6046 22.0601 14.5396 18.2796 14.6586 15.7469C14.7585 14.0786 14.6138 12.5206 14.5936 12.0684C14.5938 11.4641 15.2013 11.1328 15.5429 11.062C15.9348 10.9806 16.7928 10.8211 17.6699 11.8116C18.1869 12.3953 18.9847 14.3359 19.2045 14.8168C19.4798 15.4186 20.6364 18.1345 20.8103 18.7715C21.3907 18.3487 22.2457 17.5026 23.1149 16.5439C24.048 15.5146 25.0875 13.7893 25.2027 12.9348C25.312 12.896 25.4141 12.9768 25.5123 13.0312C25.4141 12.9768 25.5123 13.0312 25.5123 13.0312Z" fill="white"/>
<defs>
<filter id="filter0_f" x="3.38376" y="3.5974" width="34.3187" height="33.8928" filterUnits="userSpaceOnUse" color-interpolation-filters="sRGB">
<feFlood flood-opacity="0" result="BackgroundImageFix"/>
<feBlend mode="normal" in="SourceGraphic" in2="BackgroundImageFix" result="shape"/>
<feGaussianBlur stdDeviation="0.352455" result="effect1_foregroundBlur"/>
</filter>
</defs>
</svg>
