<svg width="40" height="40" viewBox="0 0 40 40" fill="none" xmlns="http://www.w3.org/2000/svg">
<g opacity="0.2" filter="url(#filter0_f)">
<path d="M6.49664 4.30231V6.67899H4.08867V33.6163H6.49664V36.7852H33.787V33.6163H36.9976V6.67899H33.787V4.30231H6.49664Z" fill="#3E2723"/>
</g>
<path d="M34.1614 4.1727H5.83859C4.91846 4.1727 4.17255 4.91864 4.17255 5.83882V34.1614C4.17255 35.0816 4.91846 35.8275 5.83859 35.8275H34.1614C35.0815 35.8275 35.8275 35.0816 35.8275 34.1614V5.83882C35.8275 4.91864 35.0815 4.1727 34.1614 4.1727Z" fill="#795548"/>
<path opacity="0.2" d="M5.83837 4.17151C4.91538 4.17151 4.17151 4.91535 4.17151 5.83831V6.30236C4.17151 5.37926 4.91538 4.63539 5.83837 4.63539H34.1605C35.0835 4.63539 35.8274 5.37926 35.8274 6.30236V5.83831C35.8274 4.91535 35.0835 4.17151 34.1605 4.17151H5.83837Z" fill="white"/>
<path opacity="0.2" d="M34.1597 35.8591C35.0826 35.8591 35.8265 35.1153 35.8265 34.1923V33.7284C35.8265 34.6512 35.0826 35.3952 34.1597 35.3952H5.83748C4.91458 35.3952 4.17068 34.6512 4.17068 33.7284V34.1923C4.17068 35.1153 4.91458 35.8591 5.83748 35.8591H34.1597Z" fill="#3E2723"/>
<path fill-rule="evenodd" clip-rule="evenodd" d="M11.01 18.5298L11.9662 17.1949C11.9662 17.2049 11.9065 19.1175 11.9065 19.1175L12.1754 17.6731C12.9723 19.2868 14.9247 21.5181 16.7078 22.7135C16.8971 22.843 17.0564 22.9824 17.166 23.1219C17.3951 23.2115 17.6242 23.2614 17.8533 23.3012C17.9729 23.3211 18.1024 23.3311 18.2219 23.341C18.3414 23.351 18.4709 23.351 18.5905 23.351C18.71 23.351 18.8295 23.341 18.9491 23.3311C19.0686 23.3211 19.1882 23.3012 19.3077 23.2813C19.4272 23.2614 19.5468 23.2414 19.6563 23.2016C19.7759 23.1717 19.8854 23.1418 20.005 23.102C20.1146 23.0721 20.2341 23.0223 20.3437 22.9824C20.4532 22.9326 20.5628 22.8928 20.6724 22.833C20.782 22.7733 20.8915 22.7234 20.9911 22.6637C21.1007 22.6139 21.2003 22.5441 21.3099 22.4844C21.4195 22.4246 21.5191 22.3549 21.6287 22.2951C21.7382 22.2353 21.8379 22.1656 21.9375 22.1059C22.0371 22.0361 22.1467 21.9764 22.2463 21.9066C22.3459 21.8369 22.4554 21.7771 22.565 21.7074L22.6646 21.6476L22.7144 21.6775L23.4317 22.1557L22.7045 21.9664C22.6348 22.0461 22.565 22.1258 22.4853 22.2055C22.3957 22.2951 22.2961 22.3848 22.2064 22.4744C22.1068 22.5541 22.0072 22.6438 21.8976 22.7135C21.788 22.7932 21.6884 22.8629 21.5689 22.9326C21.3497 23.0721 21.1107 23.1916 20.8616 23.2912C20.7421 23.341 20.6126 23.3909 20.4931 23.4307C20.3636 23.4705 20.2441 23.5104 20.1146 23.5403C19.9851 23.5702 19.8556 23.6 19.7261 23.62C19.5966 23.6399 19.4671 23.6498 19.3376 23.6698C19.0786 23.6797 18.8096 23.6797 18.5506 23.6399C18.4211 23.62 18.2916 23.6 18.1621 23.5702C18.0327 23.5403 17.9131 23.5004 17.7936 23.4606C17.5844 23.3809 17.3752 23.2813 17.1859 23.1617C17.1859 23.1617 16.4986 23.2614 16.7775 23.7793C17.0564 24.2973 17.4748 24.2475 17.2756 24.8552C17.1361 25.1839 16.9369 25.5026 16.7178 25.8015C16.2595 26.4191 15.5423 26.9669 15.6121 27.2957C18.8694 31.3101 26.2108 30.7522 29 27.1662C28.9602 26.6482 28.1433 26.3992 27.5755 25.1341C27.7349 25.1839 27.974 25.2536 27.974 25.2436C27.974 25.2337 27.2966 24.1379 27.2667 24.0284L27.705 24.0583C27.705 24.0583 27.1273 23.341 27.1074 23.2713L27.6951 23.1916C27.6951 23.1916 26.9579 22.3449 26.948 22.2752L27.6951 22.3947L26.8783 21.4086H27.2667L26.8085 20.7412C26.7288 20.7113 26.6491 20.6913 26.5694 20.6714C26.4698 20.6415 26.3702 20.6117 26.2706 20.5818C25.155 20.2331 24.0991 19.9144 23.083 19.2769C21.6585 18.3903 20.3835 17.3045 19.4272 16.4578L17.5047 15.5215C15.6619 15.382 13.9286 15.4318 12.8727 15.641L13.5501 14.4855L12.5141 15.7306C12.4444 15.7107 12.4245 15.6709 12.4245 15.6709L12.4942 14.1368L12.1655 15.5215C12.0659 15.4716 11.9463 15.4517 11.8268 15.4517C11.3686 15.4517 11 15.8203 11 16.2785C11 16.6969 11.3088 17.0455 11.7172 17.0953L11.01 18.5298Z" fill="white"/>
<path fill-rule="evenodd" clip-rule="evenodd" d="M12.1754 15.5016C12.0758 15.4617 11.9563 15.4318 11.8467 15.4318C11.3885 15.4318 11.0199 15.8004 11.0199 16.2586C11.0199 16.6571 11.3088 16.9957 11.6873 17.0754C11.6973 17.0754 11.6973 17.0754 11.7072 17.0754C11.9563 16.9957 12.4543 16.3283 12.3746 15.91C12.3348 15.7605 12.275 15.6211 12.1754 15.5016Z" fill="white"/>
<path fill-rule="evenodd" clip-rule="evenodd" d="M19.5268 13.0013C19.3177 13.4993 19.2778 14.0273 19.4272 14.4357C18.8645 14.5583 17.7948 14.4824 17.0736 14.4312C16.7991 14.4117 16.5751 14.3958 16.4488 14.3958C16.4787 14.4158 16.5185 14.4357 16.5584 14.4556L19.756 15.9697L19.7858 15.9996C20.7322 16.8363 21.9972 17.9122 23.4018 18.7888C24.2784 19.3466 27.4261 20.3228 27.5755 20.3626C27.312 19.7108 27.7243 18.9141 28.0933 18.2012C28.2544 17.89 28.4072 17.5947 28.492 17.3344C28.8307 16.2885 28.9502 15.1429 28.5517 14.097C27.725 11.9354 24.5075 10.3715 22.306 11.2481C21.9076 11.4075 21.549 11.6366 21.2402 11.9155C21.1406 11.8756 21.041 11.8557 20.9314 11.8557C20.3935 11.8557 19.8257 12.3139 19.5268 13.0013ZM21.2003 12.3338C21.1406 12.304 21.0808 12.294 21.021 12.294C20.6624 12.294 20.2341 12.6626 20.0149 13.1706C19.8456 13.569 19.8157 14.0073 19.9353 14.3062C19.9751 14.4158 20.0548 14.5552 20.2042 14.615C20.254 14.6349 20.3138 14.6449 20.3735 14.6449C20.7321 14.6449 21.1605 14.2763 21.3796 13.7683C21.5291 13.4495 21.5689 13.1108 21.5191 12.822C21.4792 12.5829 21.3597 12.4036 21.2003 12.3338ZM19.736 13.061C20.0149 12.4335 20.5429 11.9952 21.021 11.9952C21.1206 11.9952 21.2203 12.0151 21.3099 12.0649C21.5689 12.1745 21.7482 12.4235 21.808 12.7721C21.8677 13.1208 21.8179 13.5192 21.6486 13.8978C21.3796 14.5253 20.8517 14.9636 20.3735 14.9636C20.264 14.9636 20.1644 14.9437 20.0747 14.9039C19.8854 14.8142 19.736 14.6548 19.6464 14.4257C19.497 14.0372 19.5268 13.5292 19.736 13.061Z" fill="white"/>
<defs>
<filter id="filter0_f" x="3.38376" y="3.5974" width="34.3187" height="33.8928" filterUnits="userSpaceOnUse" color-interpolation-filters="sRGB">
<feFlood flood-opacity="0" result="BackgroundImageFix"/>
<feBlend mode="normal" in="SourceGraphic" in2="BackgroundImageFix" result="shape"/>
<feGaussianBlur stdDeviation="0.352455" result="effect1_foregroundBlur"/>
</filter>
</defs>
</svg>
