<svg width="40" height="40" viewBox="0 0 40 40" fill="none" xmlns="http://www.w3.org/2000/svg">
<g opacity="0.2" filter="url(#filter0_f)">
<path d="M6.49662 4.30231V6.67899H4.08865V33.6163H6.49662V36.7852H33.787V33.6163H36.9976V6.67899H33.787V4.30231H6.49662Z" fill="#263238"/>
</g>
<path d="M34.1614 4.1727H5.83856C4.91843 4.1727 4.17252 4.91864 4.17252 5.83882V34.1614C4.17252 35.0816 4.91843 35.8275 5.83856 35.8275H34.1614C35.0815 35.8275 35.8274 35.0816 35.8274 34.1614V5.83882C35.8274 4.91864 35.0815 4.1727 34.1614 4.1727Z" fill="#8BC34A"/>
<path opacity="0.2" d="M5.83834 4.17151C4.91535 4.17151 4.17148 4.91535 4.17148 5.83831V6.30236C4.17148 5.37926 4.91535 4.63539 5.83834 4.63539H34.1605C35.0835 4.63539 35.8273 5.37926 35.8273 6.30236V5.83831C35.8273 4.91535 35.0835 4.17151 34.1605 4.17151H5.83834Z" fill="white"/>
<path opacity="0.2" d="M34.1597 35.8591C35.0826 35.8591 35.8265 35.1153 35.8265 34.1923V33.7284C35.8265 34.6512 35.0826 35.3952 34.1597 35.3952H5.83745C4.91455 35.3952 4.17065 34.6512 4.17065 33.7284V34.1923C4.17065 35.1153 4.91455 35.8591 5.83745 35.8591H34.1597Z" fill="#263238"/>
<path d="M23.355 24.8735C23.3055 24.5682 23.3092 24.3436 23.3092 24.1956C22.7587 24.9913 22.1001 24.9913 21.8251 24.9913C21.1073 24.9913 20.7833 24.7855 20.5862 24.598C20.2915 24.3028 20.1531 23.9004 20.1531 23.5063C20.1531 23.1125 20.2915 22.3875 21.2054 21.963C21.8164 21.6876 22.6904 21.6876 23.1721 21.6876C23.1721 21.3635 23.163 21.2063 23.1034 21.0299C22.975 20.665 22.5923 20.6165 22.4553 20.6165C22.2477 20.6165 22.0318 20.7049 21.9035 20.8905C21.7953 21.0587 21.7953 21.2164 21.7953 21.3337H20.3712C20.38 21.0688 20.4097 20.5372 20.9318 20.165C21.3828 19.8409 21.963 19.7617 22.4351 19.7617C22.8485 19.7617 23.7125 19.8295 24.2043 20.4001C24.5403 20.8025 24.549 21.3933 24.549 21.6202L24.559 23.6144C24.559 24.037 24.5682 24.4605 24.6558 24.8735H23.355V24.8735ZM21.5702 23.3394C21.5702 23.6731 21.7953 24.048 22.2775 24.048C22.3951 24.0471 22.5112 24.0211 22.618 23.9719C22.7248 23.9227 22.82 23.8513 22.8971 23.7625C23.152 23.4485 23.1721 23.0644 23.1721 22.5332C22.2385 22.4553 21.5702 22.7495 21.5702 23.3394ZM25.4872 24.8634V19.8794H26.9438V24.8634H25.4872ZM29.3092 20.847C29.4953 20.4244 29.8203 19.8244 31 19.8836V21.1907C29.5246 21.0532 29.4357 21.8109 29.4357 22.431V24.8776H27.9814V21.1325C27.9814 20.8951 27.942 20.1783 27.9122 19.8941H29.2794L29.3092 20.847V20.847Z" fill="white"/>
<path d="M19.4362 19.2153C19.4188 19.2657 19.4449 19.1626 19.4284 19.2318C19.89 18.7845 20.5133 18.4164 20.643 18.4256C20.643 18.5915 20.3346 18.8047 20.0041 19.07C19.5375 19.4445 19.2836 19.7956 19.2836 19.7956C18.5457 22.585 18.2386 24.8006 17.0359 24.7163C16.5043 24.6778 16.2306 24.1851 16.2228 23.767C16.1972 22.4136 17.3962 21.0381 18.6383 19.675C18.7244 19.3395 18.7849 19.213 18.8789 18.8702C18.2954 19.7204 17.6189 20.391 17.129 20.4217C16.6124 20.4537 16.546 20.2484 16.546 19.907C16.546 19.7786 16.5551 19.6375 16.5712 19.4912C16.2279 19.8689 15.6664 20.3364 15.1568 20.3208C14.2364 20.2947 14.4619 19.2291 14.5055 18.9119C14.5926 18.2702 14.6856 17.9357 14.7466 17.5323C14.7722 17.3838 14.7896 17.3054 14.7988 17.2074C14.4418 17.5108 13.6777 18.3899 12.756 20.2342L12.7523 20.2429C12.7523 20.2429 12.6483 20.5628 12.3169 20.5225C11.8128 20.4858 11.7683 20.1911 11.7683 20.0399C11.8989 19.225 12.2505 18.0214 12.4595 17.1753C11.4837 17.8871 10.759 19.1791 10.1403 20.0568C9.80066 20.539 9.58983 20.8695 9.47799 20.8823C9.33866 20.897 8.96466 20.7067 9.0027 20.534C9.48212 19.4413 9.8795 17.7624 10.0624 16.8975C10.0271 16.9397 9.97529 16.9631 9.94 16.9599C9.74016 16.9461 9.66179 16.8256 9.66179 16.6656C9.66179 16.3732 10.001 15.9772 10.3314 16.001C10.6018 16.0194 10.9135 16.1715 10.8883 16.3828C10.7752 17.0928 10.5976 17.791 10.3575 18.4687C11.3842 17.1588 12.1194 16.238 12.6501 16.0725C12.9205 16.0024 13.2336 16.2197 13.1543 16.7646C13.103 17.1056 13.059 17.3682 12.9985 17.6125C12.9118 17.9792 12.8513 18.2244 12.6598 18.9298C13.0729 18.3472 13.4743 17.7565 13.8638 17.1579C14.3244 16.4364 14.5101 16.1229 14.7708 16.0441C15.0321 16.001 15.4762 16.0767 15.4762 16.6697C15.4762 17.0167 15.3992 17.4879 15.3571 17.9531C15.2649 18.9545 15.1471 19.6292 15.4001 19.6462C15.6206 19.6617 16.243 19.4867 16.6097 19.2039C16.7165 18.5155 16.9333 17.7624 17.0533 17.3284C17.1047 17.1661 17.1377 17.0282 17.1991 16.9104C17.0428 16.8714 16.9301 16.6972 16.9273 16.5478C16.92 16.2453 17.2151 15.9832 17.541 16.0056C17.7468 16.0207 18.091 16.1188 18.091 16.4685C18.091 16.4864 18.0819 16.5556 18.0562 16.6665C17.9613 17.1753 17.4984 18.8913 17.4732 19.5366C17.9622 19.4743 19.0086 17.8623 19.5581 16.9663C19.8671 16.4804 20.0903 16.1216 20.2021 16.1284C20.2617 16.133 20.3969 16.1514 20.3969 16.2728C20.1485 16.8595 19.7204 18.1602 19.4358 19.2153H19.4362ZM16.9548 24.2061C17.4787 24.2428 17.6171 23.3307 18.3986 20.5193C17.6551 21.413 16.964 22.7404 16.964 23.7253C16.9548 23.8207 16.9548 23.9595 16.9548 24.0645V24.2061Z" fill="white"/>
<defs>
<filter id="filter0_f" x="3.38374" y="3.5974" width="34.3187" height="33.8928" filterUnits="userSpaceOnUse" color-interpolation-filters="sRGB">
<feFlood flood-opacity="0" result="BackgroundImageFix"/>
<feBlend mode="normal" in="SourceGraphic" in2="BackgroundImageFix" result="shape"/>
<feGaussianBlur stdDeviation="0.352455" result="effect1_foregroundBlur"/>
</filter>
</defs>
</svg>
