<svg width="40" height="40" viewBox="0 0 40 40" fill="none" xmlns="http://www.w3.org/2000/svg">
<g opacity="0.2" filter="url(#filter0_f)">
<path d="M6.49664 4.30231V6.67899H4.08867V33.6163H6.49664V36.7852H33.787V33.6163H36.9976V6.67899H33.787V4.30231H6.49664Z" fill="#3E2723"/>
</g>
<path d="M34.1614 4.1727H5.83859C4.91845 4.1727 4.17254 4.91864 4.17254 5.83882V34.1614C4.17254 35.0816 4.91845 35.8275 5.83859 35.8275H34.1614C35.0815 35.8275 35.8275 35.0816 35.8275 34.1614V5.83882C35.8275 4.91864 35.0815 4.1727 34.1614 4.1727Z" fill="#FF5722"/>
<path opacity="0.2" d="M5.83837 4.17151C4.91538 4.17151 4.17151 4.91535 4.17151 5.83831V6.30236C4.17151 5.37926 4.91538 4.63539 5.83837 4.63539H34.1605C35.0835 4.63539 35.8274 5.37926 35.8274 6.30236V5.83831C35.8274 4.91535 35.0835 4.17151 34.1605 4.17151H5.83837Z" fill="white"/>
<path opacity="0.2" d="M34.1597 35.8591C35.0826 35.8591 35.8265 35.1153 35.8265 34.1923V33.7284C35.8265 34.6512 35.0826 35.3952 34.1597 35.3952H5.83748C4.91458 35.3952 4.17068 34.6512 4.17068 33.7284V34.1923C4.17068 35.1153 4.91458 35.8591 5.83748 35.8591H34.1597Z" fill="#3E2723"/>
<path d="M11.9299 22.8534L9.99775 23.9977L20 29.9217L30.0023 23.9977L28.0701 22.8534L20 27.633L11.9299 22.8534Z" fill="white"/>
<path d="M11.9299 19.17L9.99775 20.3143L20 26.2383L30.0023 20.3143L28.0701 19.17L20 23.9496L11.9299 19.17Z" fill="white"/>
<path d="M9.99775 16.6309L20 10.7069L30.0023 16.6309L20 22.5549L9.99775 16.6309Z" fill="white"/>
<defs>
<filter id="filter0_f" x="3.38376" y="3.5974" width="34.3187" height="33.8928" filterUnits="userSpaceOnUse" color-interpolation-filters="sRGB">
<feFlood flood-opacity="0" result="BackgroundImageFix"/>
<feBlend mode="normal" in="SourceGraphic" in2="BackgroundImageFix" result="shape"/>
<feGaussianBlur stdDeviation="0.352455" result="effect1_foregroundBlur"/>
</filter>
</defs>
</svg>
