<?xml version="1.0" encoding="UTF-8" standalone="no"?>
<svg
   xmlns:dc="http://purl.org/dc/elements/1.1/"
   xmlns:cc="http://creativecommons.org/ns#"
   xmlns:rdf="http://www.w3.org/1999/02/22-rdf-syntax-ns#"
   xmlns:svg="http://www.w3.org/2000/svg"
   xmlns="http://www.w3.org/2000/svg"
   xmlns:sodipodi="http://sodipodi.sourceforge.net/DTD/sodipodi-0.dtd"
   xmlns:inkscape="http://www.inkscape.org/namespaces/inkscape"
   version="1.1"
   viewBox="0 0 26.95 26.95"
   id="svg135"
   sodipodi:docname="otpplus.svg"
   inkscape:version="0.92.4 5da689c313, 2019-01-14">
  <metadata
     id="metadata139">
    <rdf:RDF>
      <cc:Work
         rdf:about="">
        <dc:format>image/svg+xml</dc:format>
        <dc:type
           rdf:resource="http://purl.org/dc/dcmitype/StillImage" />
      </cc:Work>
    </rdf:RDF>
  </metadata>
  <sodipodi:namedview
     pagecolor="#ffffff"
     bordercolor="#666666"
     borderopacity="1"
     objecttolerance="10"
     gridtolerance="10"
     guidetolerance="10"
     inkscape:pageopacity="0"
     inkscape:pageshadow="2"
     inkscape:window-width="1920"
     inkscape:window-height="1054"
     id="namedview137"
     showgrid="false"
     inkscape:zoom="45.254834"
     inkscape:cx="12.16537"
     inkscape:cy="10.981722"
     inkscape:window-x="1920"
     inkscape:window-y="0"
     inkscape:window-maximized="1"
     inkscape:current-layer="svg135" />
  <defs
     id="defs5">
    <filter
       id="filter6206-7"
       color-interpolation-filters="sRGB">
      <feGaussianBlur
         stdDeviation="0.658125"
         id="feGaussianBlur2" />
    </filter>
  </defs>
  <g
     transform="translate(0,-1026.0298)"
     id="g123">
    <path
       transform="matrix(1.0107,0,0,0.99762,-0.087875,2.579)"
       d="m 4.4177,1028.2 v 1.6051 H 2.8125 v 18.192 h 1.6052 v 2.1402 h 18.192 v -2.1402 h 2.1402 v -18.192 H 22.6097 V 1028.2 Z"
       id="path7"
       inkscape:connector-curvature="0"
       style="opacity:0.2;fill:#263238;filter:url(#filter6206-7)" />
    <rect
       x="2.8113"
       y="1028.2"
       width="21.327"
       height="21.327"
       rx="1.1224999"
       ry="1.1226"
       id="rect9"
       style="fill:#03a9f4" />
    <g
       transform="translate(-20.925,990.46)"
       id="g25">
      <path
         d="M 0,0 H 48 V 48 H 0 Z"
         id="path11"
         inkscape:connector-curvature="0"
         style="fill:none" />
      <g
         transform="matrix(0.33601,0,0,0.33601,1.434,68.477)"
         id="g15">
        <path
           d="M 0,0 H 48 V 48 H 0 Z"
           id="path13"
           inkscape:connector-curvature="0"
           style="fill:none" />
      </g>
      <g
         transform="matrix(0.37187,0,0,0.37187,36.377,59.287)"
         id="g23">
        <path
           d="M 0,0 H 48 V 48 H 0 Z"
           id="path17"
           inkscape:connector-curvature="0"
           style="fill:none" />
        <g
           transform="matrix(2.6891,0,0,2.6891,-77.724,-45.422)"
           id="g21">
          <path
             d="M 0,0 H 48 V 48 H 0 Z"
             id="path19"
             inkscape:connector-curvature="0"
             style="fill:none" />
        </g>
      </g>
    </g>
    <path
       transform="translate(0,1025.4)"
       d="m 3.9336,2.8105 c -0.62186,0 -1.123,0.50115 -1.123,1.123 V 4.246 c 0,-0.6219 0.50118,-1.123 1.123,-1.123 h 19.082 c 0.62186,0 1.123,0.50115 1.123,1.123 V 3.9335 c 0,-0.6219 -0.50118,-1.123 -1.123,-1.123 z"
       id="path27"
       inkscape:connector-curvature="0"
       style="opacity:0.2;fill:#ffffff" />
    <rect
       x="120"
       y="512.35999"
       width="40"
       height="40"
       id="rect29"
       style="fill:none" />
    <rect
       x="120"
       y="592.35999"
       width="40"
       height="40"
       id="rect31"
       style="fill:none" />
    <rect
       x="120"
       y="632.35999"
       width="40"
       height="40"
       id="rect33"
       style="fill:none" />
    <rect
       x="120"
       y="552.35999"
       width="40"
       height="40"
       id="rect35"
       style="fill:none" />
    <rect
       x="120"
       y="672.35999"
       width="40"
       height="40"
       id="rect37"
       style="fill:none" />
    <rect
       x="200"
       y="512.35999"
       width="40"
       height="40"
       id="rect39"
       style="fill:none" />
    <rect
       x="200"
       y="592.35999"
       width="40"
       height="40"
       id="rect41"
       style="fill:none" />
    <rect
       x="200"
       y="632.35999"
       width="40"
       height="40"
       id="rect43"
       style="fill:none" />
    <rect
       x="200"
       y="552.35999"
       width="40"
       height="40"
       id="rect45"
       style="fill:none" />
    <rect
       x="200"
       y="672.35999"
       width="40"
       height="40"
       id="rect47"
       style="fill:none" />
    <rect
       x="280"
       y="512.35999"
       width="40"
       height="40"
       id="rect49"
       style="fill:none" />
    <rect
       x="280"
       y="592.35999"
       width="40"
       height="40"
       id="rect51"
       style="fill:none" />
    <rect
       x="280"
       y="632.35999"
       width="40"
       height="40"
       id="rect53"
       style="fill:none" />
    <rect
       x="280"
       y="552.35999"
       width="40"
       height="40"
       id="rect55"
       style="fill:none" />
    <rect
       x="280"
       y="672.35999"
       width="40"
       height="40"
       id="rect57"
       style="fill:none" />
    <rect
       x="160"
       y="512.35999"
       width="40"
       height="40"
       id="rect59"
       style="fill:none" />
    <rect
       x="160"
       y="592.35999"
       width="40"
       height="40"
       id="rect61"
       style="fill:none" />
    <rect
       x="160"
       y="632.35999"
       width="40"
       height="40"
       id="rect63"
       style="fill:none" />
    <rect
       x="160"
       y="552.35999"
       width="40"
       height="40"
       id="rect65"
       style="fill:none" />
    <rect
       x="160"
       y="672.35999"
       width="40"
       height="40"
       id="rect67"
       style="fill:none" />
    <rect
       x="240"
       y="512.35999"
       width="40"
       height="40"
       id="rect69"
       style="fill:none" />
    <rect
       x="240"
       y="592.35999"
       width="40"
       height="40"
       id="rect71"
       style="fill:none" />
    <rect
       x="240"
       y="632.35999"
       width="40"
       height="40"
       id="rect73"
       style="fill:none" />
    <rect
       x="240"
       y="552.35999"
       width="40"
       height="40"
       id="rect75"
       style="fill:none" />
    <rect
       x="240"
       y="672.35999"
       width="40"
       height="40"
       id="rect77"
       style="fill:none" />
    <rect
       x="120"
       y="712.35999"
       width="40"
       height="40"
       id="rect79"
       style="fill:none" />
    <rect
       x="200"
       y="712.35999"
       width="40"
       height="40"
       id="rect81"
       style="fill:none" />
    <rect
       x="280"
       y="712.35999"
       width="40"
       height="40"
       id="rect83"
       style="fill:none" />
    <rect
       x="160"
       y="712.35999"
       width="40"
       height="40"
       id="rect85"
       style="fill:none" />
    <rect
       x="240"
       y="712.35999"
       width="40"
       height="40"
       id="rect87"
       style="fill:none" />
    <rect
       x="320"
       y="552.35999"
       width="40"
       height="40"
       id="rect89"
       style="fill:none" />
    <rect
       x="320"
       y="592.35999"
       width="40"
       height="40"
       id="rect91"
       style="fill:none" />
    <rect
       x="320"
       y="672.35999"
       width="40"
       height="40"
       id="rect93"
       style="fill:none" />
    <rect
       x="320"
       y="512.35999"
       width="40"
       height="40"
       id="rect95"
       style="fill:none" />
    <rect
       x="320"
       y="632.35999"
       width="40"
       height="40"
       id="rect97"
       style="fill:none" />
    <rect
       x="320"
       y="712.35999"
       width="40"
       height="40"
       id="rect99"
       style="fill:none" />
    <rect
       x="150"
       y="542.35999"
       width="180"
       height="180"
       id="rect101"
       style="fill:none" />
    <g
       transform="matrix(0.37344,0,0,0.37344,4.4375,1028.8)"
       id="g105">
      <path
         d="M 0,0 H 48 V 48 H 0 Z"
         id="path103"
         inkscape:connector-curvature="0"
         style="fill:none" />
    </g>
    <g
       transform="matrix(0.36471,0,0,0.36471,4.8146,1028.8)"
       id="g109">
      <path
         d="M 0,0 H 48 V 48 H 0 Z"
         id="path107"
         inkscape:connector-curvature="0"
         style="fill:none" />
    </g>
    <g
       transform="matrix(0.41585,0,0,0.41585,79.055,989.88)"
       id="g119">
      <g
         transform="matrix(0.062269,0,0,0.062269,-26.473,173.71)"
         id="g117">
        <g
           transform="matrix(38.618,0,0,38.618,13804,-12696)"
           id="g115">
          <g
             transform="matrix(0.71436,0,0,0.71436,-375.49,176.57)"
             id="g113">
            <path
               transform="matrix(1.3999,0,0,1.3999,525.63,-247.17)"
               d="m 490.56,95.75 c -121.72,0.18504 -342.34,0.09058 -468.16,0.09375 -1.5548,6.9739 -2.4062,14.232 -2.4062,21.688 v 76.344 c 139.06,0.49354 331.32,0.2554 472.97,0.25 v -76.594 c 0,-7.4875 -0.8386,-14.78 -2.4062,-21.781 z M 183.37,293.69 c -52.495,-0.003 -106.38,0.11982 -163.38,0.375 v 92.844 c 191.76,-0.26331 282.43,-0.0926 472.97,-0.21875 v -92.25 c -109.29,-0.35498 -208.43,-0.74426 -309.59,-0.75 z"
               id="path111"
               inkscape:connector-curvature="0"
               style="opacity:0" />
          </g>
        </g>
      </g>
    </g>
    <path
       d="m 23.015,1049.6 c 0.6218,0 1.123,-0.5012 1.123,-1.123 v -0.3125 c 0,0.6218 -0.5012,1.123 -1.123,1.123 H 3.933 c -0.6218,0 -1.123,-0.5012 -1.123,-1.123 v 0.3125 c 0,0.6218 0.5012,1.123 1.123,1.123 z"
       id="path121"
       inkscape:connector-curvature="0"
       style="opacity:0.2;fill:#263238" />
  </g>
  <path
     d="m19.391 16.433c0 0.24984-0.13805 0.46674-0.34841 0.57845l-5.1933 2.9187c-0.10519 0.07994-0.23666 0.11842-0.3747 0.11842-0.13805 0-0.26952-0.04157-0.3747-0.11842l-5.1933-2.9187c-0.21036-0.11117-0.34841-0.32861-0.34841-0.57845v-5.9163c0-0.24984 0.13805-0.46674 0.34841-0.57855l5.1933-2.9188c0.10519-0.078874 0.23665-0.11831 0.3747-0.11831s0.26952 0.040503 0.3747 0.11831l5.1933 2.9188c0.21036 0.11213 0.34841 0.32871 0.34841 0.57855v5.9163m-5.9164-8.1185-3.918 2.2022 3.918 2.2021 3.918-2.2021-3.918-2.2022m-4.6016 7.7304 3.9443 2.222v-4.4109l-3.9443-2.2154v4.4043m9.2033 0v-4.4043l-3.9443 2.2154v4.4109l3.9443-2.222z"
     fill="#fff"
     id="path125" />
  <g
     display="none"
     fill="none"
     id="g133">
    <rect
       transform="rotate(90)"
       x="7.3342"
       y="-19.616"
       width="12.282"
       height="12.282"
       display="inline"
       stroke="#000"
       stroke-width=".065984"
       id="rect127" />
    <rect
       x="6.7726"
       y="8.112"
       width="13.405"
       height="10.726"
       stroke="#5261ff"
       stroke-linecap="round"
       stroke-linejoin="round"
       stroke-width=".06524"
       id="rect129" />
    <rect
       transform="rotate(90)"
       x="6.7726"
       y="-18.838"
       width="13.405"
       height="10.726"
       display="inline"
       stroke="#0f0"
       stroke-linecap="round"
       stroke-linejoin="round"
       stroke-width=".06524"
       id="rect131" />
  </g>
  <g
     id="g960"
     transform="translate(-0.5049017,0.1796875)"
     style="stroke:#ffffff;stroke-opacity:1">
    <path
       style="fill:none;stroke:#ffffff;stroke-width:1.29999995;stroke-linecap:round;stroke-linejoin:miter;stroke-miterlimit:4;stroke-dasharray:none;stroke-opacity:1"
       d="m 16.603408,12.369106 -6e-6,5.05515"
       id="path948"
       inkscape:connector-curvature="0" />
    <path
       inkscape:connector-curvature="0"
       id="path954"
       d="m 18.837555,13.580237 -4.468296,2.527572"
       style="fill:none;stroke:#ffffff;stroke-width:1.29999995;stroke-linecap:round;stroke-linejoin:miter;stroke-miterlimit:4;stroke-dasharray:none;stroke-opacity:1" />
  </g>
</svg>
