<svg width="40" height="40" viewBox="0 0 40 40" fill="none" xmlns="http://www.w3.org/2000/svg">
<g opacity="0.2" filter="url(#filter0_f)">
<path d="M6.49664 4.30231V6.67899H4.08867V33.6163H6.49664V36.7852H33.787V33.6163H36.9976V6.67899H33.787V4.30231H6.49664Z" fill="#263238"/>
</g>
<path d="M34.1614 4.1727H5.83858C4.91845 4.1727 4.17254 4.91864 4.17254 5.83882V34.1614C4.17254 35.0816 4.91845 35.8275 5.83858 35.8275H34.1614C35.0815 35.8275 35.8275 35.0816 35.8275 34.1614V5.83882C35.8275 4.91864 35.0815 4.1727 34.1614 4.1727Z" fill="#607D8B"/>
<path opacity="0.2" d="M5.83836 4.17151C4.91537 4.17151 4.1715 4.91535 4.1715 5.83831V6.30236C4.1715 5.37926 4.91537 4.63539 5.83836 4.63539H34.1605C35.0835 4.63539 35.8273 5.37926 35.8273 6.30236V5.83831C35.8273 4.91535 35.0835 4.17151 34.1605 4.17151H5.83836Z" fill="white"/>
<path opacity="0.2" d="M34.1597 35.8591C35.0826 35.8591 35.8265 35.1153 35.8265 34.1923V33.7284C35.8265 34.6512 35.0826 35.3952 34.1597 35.3952H5.83747C4.91458 35.3952 4.17068 34.6512 4.17068 33.7284V34.1923C4.17068 35.1153 4.91458 35.8591 5.83747 35.8591H34.1597Z" fill="#263238"/>
<path d="M15.9006 11.7747H24.0959V10H15.9006V11.7747Z" fill="white"/>
<path d="M19.9999 13.5493C15.481 13.5493 11.8046 17.2392 11.8046 21.7746C11.8046 26.3102 15.481 30 19.9999 30C24.519 30 28.1954 26.3102 28.1954 21.7746C28.1954 17.2392 24.519 13.5493 19.9999 13.5493ZM19.9999 28.2254C16.4559 28.2254 13.5726 25.3315 13.5726 21.7746C13.5726 18.2177 16.456 15.3239 20 15.3239C23.544 15.3239 26.4275 18.2177 26.4275 21.7746C26.4275 25.3315 23.5439 28.2254 19.9999 28.2254Z" fill="white"/>
<defs>
<filter id="filter0_f" x="3.38376" y="3.5974" width="34.3187" height="33.8928" filterUnits="userSpaceOnUse" color-interpolation-filters="sRGB">
<feFlood flood-opacity="0" result="BackgroundImageFix"/>
<feBlend mode="normal" in="SourceGraphic" in2="BackgroundImageFix" result="shape"/>
<feGaussianBlur stdDeviation="0.352455" result="effect1_foregroundBlur"/>
</filter>
</defs>
</svg>
