<svg width="40" height="40" viewBox="0 0 40 40" fill="none" xmlns="http://www.w3.org/2000/svg">
<g opacity="0.2" filter="url(#filter0_f)">
<path d="M6.49664 4.30231V6.67899H4.08867V33.6163H6.49664V36.7852H33.787V33.6163H36.9976V6.67899H33.787V4.30231H6.49664Z" fill="#263238"/>
</g>
<path d="M34.1614 4.1727H5.83858C4.91845 4.1727 4.17254 4.91864 4.17254 5.83882V34.1614C4.17254 35.0816 4.91845 35.8275 5.83858 35.8275H34.1614C35.0815 35.8275 35.8275 35.0816 35.8275 34.1614V5.83882C35.8275 4.91864 35.0815 4.1727 34.1614 4.1727Z" fill="#8BC34A"/>
<path opacity="0.2" d="M5.83836 4.17151C4.91537 4.17151 4.1715 4.91535 4.1715 5.83831V6.30236C4.1715 5.37926 4.91537 4.63539 5.83836 4.63539H34.1605C35.0835 4.63539 35.8273 5.37926 35.8273 6.30236V5.83831C35.8273 4.91535 35.0835 4.17151 34.1605 4.17151H5.83836Z" fill="white"/>
<path opacity="0.2" d="M34.1597 35.8591C35.0826 35.8591 35.8265 35.1153 35.8265 34.1923V33.7284C35.8265 34.6512 35.0826 35.3952 34.1597 35.3952H5.83747C4.91458 35.3952 4.17068 34.6512 4.17068 33.7284V34.1923C4.17068 35.1153 4.91458 35.8591 5.83747 35.8591H34.1597Z" fill="#263238"/>
<path d="M18.2287 29.6839L18.041 29.6484L17.8534 29.6129L17.6539 29.5656L17.4663 29.5301L17.2903 29.4828L17.1378 29.4473L17.1965 29.258L17.2434 29.0924L17.2903 28.9268L17.3372 28.7849L17.3724 28.6429L17.4076 28.5128L17.4428 28.3945L17.478 28.2762L17.7126 28.3354L17.9355 28.3827L18.1701 28.43L18.4047 28.4773L18.6276 28.5128L18.8504 28.5365L19.085 28.5601L19.3079 28.5838L19.5308 28.5956H19.7537L19.9765 28.6074L20.1877 28.5956H20.4106L20.6217 28.5838L20.8446 28.5601L21.0557 28.5365L21.2669 28.5128L21.478 28.4773L21.6892 28.4418L21.9003 28.3945L22.0997 28.3472L22.3109 28.2999L22.5103 28.2407L22.7097 28.1816L22.9208 28.1106L23.1203 28.0396L23.3197 27.9687L23.5074 27.8858L23.7068 27.803L23.8945 27.7084L24.0939 27.6138L24.2816 27.5191L24.4927 27.3772L24.6921 27.2471L24.8798 27.1051L25.0792 26.9632L25.2669 26.8094L25.4429 26.6674L25.6188 26.5136L25.7948 26.348L25.959 26.1943L26.1232 26.0287L26.2874 25.8512L26.4399 25.6856L26.5807 25.5082L26.7215 25.3307L26.8622 25.1415L26.9912 24.9522L27.1203 24.7629L27.2259 24.5618L27.3432 24.3726L27.4487 24.1596L27.5426 23.9585L27.6364 23.7456L27.7303 23.5327L27.8006 23.3197L27.871 23.095L27.9414 22.8702L28.0001 22.6337L28.047 22.4089L28.0939 22.1605L28.1291 21.9239L28.1525 21.6755L28.176 21.4271V21.2851V21.1432V21.0012V20.8711L28.1643 20.7291V20.599L28.1525 20.4689L28.1291 20.3269L28.1174 20.1968L28.1056 20.0667L28.0822 19.9366L28.0587 19.8065L28.0352 19.6763L28.0001 19.5462L27.9766 19.4161L27.9414 19.286L27.9062 19.1559L27.871 19.0376L27.8241 18.9074L27.7772 18.7891L27.7303 18.659L27.6833 18.5407L27.6364 18.4106L27.5778 18.2805L27.5308 18.1622L27.4605 18.0439L27.4018 17.9138L27.3314 17.7955L27.2728 17.6772L27.2024 17.5471L27.1203 17.4288L27.0499 17.3105L26.8974 17.0976L26.7332 16.8965L26.5807 16.6954L26.4047 16.4943L26.2405 16.305L26.0646 16.1276L25.8886 15.9501L25.7009 15.7845L25.5132 15.6189L25.3255 15.4533L25.1261 15.2995L24.9384 15.1576L24.7273 15.0156L24.5279 14.8855L24.3167 14.7554L24.1056 14.6371L23.8827 14.5188L23.6716 14.4123L23.437 14.3059L23.2141 14.2112L22.9795 14.1166L22.7566 14.0338L22.522 13.9628L22.2757 13.8918L22.0411 13.8327L21.7947 13.7735L21.5484 13.7144L21.3021 13.6789L21.044 13.6434L20.7859 13.6079L20.5279 13.5843L20.2698 13.5724H19.8944L19.5308 13.5843L19.1554 13.6079L18.7918 13.6434L18.4399 13.6907L18.088 13.7617L17.7361 13.8445L17.3959 13.9392L17.0674 14.0456L16.739 14.1639L16.4105 14.294L16.0938 14.436L15.7888 14.5898L15.4956 14.7672L15.2023 14.9446L14.9208 15.1457L14.651 15.3468L14.3812 15.5598L14.1231 15.7963L13.8768 16.0329L13.6422 16.2813L13.4193 16.5534L13.2082 16.8255L13.0088 17.1094L12.8211 17.4051L12.6451 17.7127L12.4809 18.0202L12.3284 18.3515L12.1876 18.6827L12.0586 19.0257L11.953 19.3806L11.8592 19.7473L11.8357 19.6054L11.824 19.4752L11.8123 19.3451L11.8005 19.215L11.7888 19.0731L11.7771 18.9429V18.801V18.6709V18.5407V18.3988V18.2687L11.7888 18.1267L11.8005 17.9966L11.8123 17.8546L11.8357 17.7245L11.8475 17.5826L11.8709 17.4524L11.8944 17.3223L11.9178 17.1804L11.9413 17.0502L11.9765 16.9201L12.0117 16.79L12.0469 16.6599L12.0821 16.5298L12.129 16.4115L12.1759 16.2813L12.2228 16.163L12.2697 16.0329L12.3284 15.9146L12.3753 15.7963L12.434 15.6781L12.5044 15.5598L12.5982 15.4415L12.7038 15.3232L12.8211 15.1931L12.9384 15.0748L13.0791 14.9446L13.2082 14.8145L13.3607 14.6844L13.5132 14.5543L13.6891 14.4123L13.8651 14.2822L14.0528 14.1521L14.2522 14.022L14.4633 13.8918L14.6862 13.7617L14.9208 13.6198L15.1789 13.4896L15.4604 13.3477L15.7419 13.2176L16.0352 13.0993L16.3284 12.981L16.6334 12.8745L16.9267 12.7799L17.2317 12.6971L17.5366 12.6261L17.8416 12.5551L18.1583 12.496L18.4633 12.4487L18.7801 12.4132L19.085 12.3895L19.4018 12.3659L19.7185 12.354L20.0352 12.3659L20.3519 12.3777L20.6686 12.3895L20.9853 12.425L21.3021 12.4605L21.607 12.5078L21.9238 12.567L22.2288 12.6379L22.5337 12.7089L22.8505 12.8035L23.1554 12.8982L23.4487 13.0046L23.7537 13.1229L24.0469 13.2412L24.3402 13.3832L24.6217 13.5251L24.915 13.6789L25.2082 13.8682L25.5015 14.0574L25.783 14.2585L26.0528 14.4715L26.3226 14.6844L26.5807 14.9092L26.8153 15.1339L27.0616 15.3705L27.2845 15.6189L27.5074 15.8673L27.7185 16.1276L27.9062 16.3878L28.0939 16.6481L28.2698 16.9201L28.4341 17.204L28.5866 17.4879L28.7273 17.7837L28.8564 18.0794L28.9854 18.3751L29.091 18.6827L29.1848 19.0021L29.2669 19.3215L29.3373 19.6409L29.3842 19.9602L29.4311 20.2915L29.4546 20.6345L29.4781 20.9657V21.3088L29.4546 21.6637L29.4311 22.0185L29.3842 22.3734L29.3256 22.7283L29.2669 22.953L29.2083 23.1778L29.1379 23.4026L29.0675 23.6155L28.9854 23.8284L28.9033 24.0413L28.8212 24.2543L28.7273 24.4554L28.6335 24.6565L28.5279 24.8576L28.4223 25.0468L28.3168 25.2361L28.1995 25.4254L28.0822 25.6146L27.9531 25.7921L27.8241 25.9695L27.6951 26.1469L27.5543 26.3244L27.4135 26.5018L27.261 26.6674L27.1203 26.8212L26.9561 26.9868L26.8036 27.1406L26.6276 27.2944L26.4634 27.4482L26.2874 27.6019L26.1115 27.7439L25.9355 27.8858L25.7478 28.0278L25.5602 28.1697L25.3607 28.2999L25.1613 28.43L24.9854 28.5365L24.7977 28.6429L24.61 28.7376L24.4223 28.8322L24.2346 28.9268L24.0352 29.0096L23.8475 29.0924L23.6481 29.1752L23.437 29.2462L23.2376 29.3172L23.0381 29.3763L22.827 29.4355L22.6159 29.4946L22.4047 29.5419L22.1936 29.5893L21.9824 29.6247L21.7713 29.6721L21.5601 29.7075L21.3373 29.7312L21.1261 29.7549L20.9032 29.7785L20.6921 29.7904L20.4692 29.8022L20.2581 29.814L20.0352 29.8258H19.8123L19.6012 29.814L19.3783 29.8022L19.1672 29.7904L18.9443 29.7785L18.7331 29.7549L18.5103 29.7312L18.3812 29.7075L18.2287 29.6839Z" fill="white"/>
<path d="M28.1056 20.0431L28.1174 20.1613L28.1408 20.2796L28.1525 20.3979L28.1643 20.5162L28.176 20.6345V20.7528L28.1877 20.8711V20.9894V21.1077V21.226V21.3561L28.176 21.4744V21.6045L28.1643 21.7228L28.1525 21.8411L28.1408 21.9712L28.1174 22.0895L28.1056 22.2196L28.0704 22.3379L28.0587 22.4681L28.0235 22.5863L28.0001 22.7165L27.9649 22.8348L27.9297 22.9531L27.8945 23.0832L27.8593 23.2015L27.8124 23.3198L27.7654 23.438L27.7185 23.5682L27.6599 23.6865L27.5426 23.8284L27.4253 23.9822L27.2962 24.1242L27.1672 24.2779L27.0382 24.4199L26.9091 24.5618L26.7684 24.7038L26.6276 24.8457L26.4986 24.9759L26.3578 25.106L26.2171 25.2361L26.0646 25.3544L25.9238 25.4727L25.7713 25.591L25.6305 25.6974L25.478 25.8039L25.3138 25.8985L25.1613 25.9932L24.9971 26.0878L24.8329 26.1824L24.6687 26.2652L24.5162 26.3481L24.3519 26.4309L24.1877 26.5018L24.0352 26.5728L23.871 26.6438L23.7068 26.7148L23.5425 26.7739L23.3783 26.833L23.2141 26.8922L23.0499 26.9513L22.8856 26.9987L22.7214 27.046L22.5455 27.0933L22.3812 27.1288L22.2053 27.1761L22.0293 27.2116L21.8534 27.2471L21.6774 27.2707L21.4897 27.2944L21.3138 27.3299L21.1261 27.3417L20.9384 27.3654L20.7507 27.3772L20.5513 27.4008L20.3519 27.4127H20.1525L19.9531 27.4245L19.7537 27.4127H19.566H19.3783L19.1789 27.4008L18.9912 27.3772L18.8035 27.3654L18.6158 27.3417L18.4281 27.3181L18.2287 27.2944L18.041 27.2589L17.8651 27.2352L17.6774 27.1998L17.4897 27.1524L17.302 27.1051L17.1144 27.0696L16.9384 27.0223L16.7507 26.9632L16.5748 26.904L16.3871 26.8449L16.2111 26.7857L16.0352 26.7148L15.8592 26.6438L15.6833 26.5728L15.5073 26.5018L15.3431 26.419L15.1671 26.3362L15.0029 26.2416L14.8387 26.147L14.6745 26.0523L14.5102 25.9577L14.346 25.8512L14.1818 25.7448L14.2287 25.591L14.2756 25.4254L14.3225 25.2716L14.3695 25.106L14.4164 24.9522L14.4633 24.7866L14.5102 24.621L14.5572 24.4672L14.6627 24.55L14.7683 24.6328L14.8739 24.7156L14.9912 24.7866L15.0967 24.8694L15.2023 24.9404L15.3196 25.0113L15.4252 25.0823L15.5425 25.1415L15.6481 25.2006L15.7654 25.2716L15.8709 25.3189L15.9882 25.378L16.1055 25.4372L16.2111 25.4845L16.3284 25.5318L16.4457 25.591L16.563 25.6383L16.6803 25.6738L16.7976 25.7211L17.0322 25.8039L17.2668 25.8749L17.5132 25.9459L17.7478 26.005L17.9941 26.0641L18.2405 26.1115L18.4516 26.147L18.6627 26.1824L18.8739 26.2061L19.0968 26.2298L19.3196 26.2416L19.5425 26.2534L19.7654 26.2652H19.9883L20.2111 26.2534L20.434 26.2416L20.6569 26.2298L20.8915 26.2061L21.1144 26.1706L21.349 26.147L21.5719 26.0996L21.7947 26.0523L22.0293 26.005L22.2522 25.9459L22.4751 25.8749L22.7097 25.8039L22.9208 25.7329L23.1437 25.6501L23.3666 25.5555L23.5895 25.449L23.8006 25.3544L24.0235 25.2361L24.2346 25.1178L24.4458 24.9995L24.6569 24.8576L24.8563 24.7274L25.0558 24.5737L25.2552 24.4199L25.4546 24.2543L25.6423 24.0887L25.8182 23.9231L25.9942 23.7574L26.1584 23.5918L26.3226 23.4144L26.393 23.3316L26.4751 23.237L26.5455 23.1423L26.6159 23.0595L26.6863 22.9649L26.7566 22.8702L26.827 22.7756L26.8974 22.681L26.9678 22.5863L27.0264 22.4917L27.0851 22.3852L27.1555 22.2906L27.2141 22.1841L27.2728 22.0777L27.3314 21.9712L27.3783 21.8648L27.437 21.7583L27.4839 21.6518L27.5426 21.5335L27.5895 21.4271L27.6716 21.226L27.742 21.0249L27.8124 20.8356L27.871 20.6345L27.9297 20.4334L27.9766 20.2323L28.0235 20.0312L28.0587 19.8183L28.0822 19.9366L28.1056 20.0431Z" fill="white"/>
<path d="M13.3255 19.4634H13.4897H13.6539H13.8181H13.9706H14.1349H14.2991H14.4633H14.6275H14.78H14.9443H15.1085H15.2727H15.4369H15.6011H15.6481H15.695L15.7419 19.4516L15.7771 19.4279L15.824 19.4161L15.8592 19.3925L15.8944 19.3688L15.9296 19.3333L15.9531 19.3096L15.9882 19.2742L16.0117 19.2505L16.0352 19.2032L16.0586 19.1677L16.0704 19.1322L16.0821 19.0967L16.0938 19.0612L16.1055 19.0257L16.1173 18.9903V18.9429V18.9074L16.1055 18.872L16.0938 18.8365L16.0821 18.801L16.0704 18.7773L16.0469 18.7537L16.0352 18.7182L16 18.7063L15.9765 18.6827L15.9413 18.6709L15.8944 18.659L15.8592 18.6472L15.8123 18.6354H15.6481H15.4838H15.3313H15.1671H15.0029H14.8387H14.6862H14.522H14.3695H14.2052H14.041H13.8885H13.7243H13.5601H13.3959H13.2434L13.2903 18.4343L13.3489 18.245L13.4076 18.0439L13.4662 17.8428L13.5132 17.6536L13.5718 17.4525L13.6305 17.2632L13.6891 17.0739H13.8768H14.0645H14.2522H14.4398H14.6275H14.8152H15.0029H15.2023H15.39H15.5777H15.7654H15.9531H16.1407H16.3402H16.5278H16.7155H16.8328L16.9501 17.0857L17.0792 17.0976L17.1847 17.1094L17.302 17.1331L17.4076 17.1567L17.4545 17.1685L17.5132 17.1922L17.5601 17.204L17.607 17.2277L17.6539 17.2514L17.7009 17.275L17.7361 17.3105L17.783 17.3342L17.8299 17.3578L17.8651 17.3933L17.9003 17.4288L17.9355 17.4643L17.9707 17.5116L17.9941 17.5471L18.0293 17.5944L18.0528 17.6417L18.0762 17.689L18.0997 17.7364L18.1232 17.7955L18.1349 17.8546L18.1701 17.9374L18.1818 18.0321L18.1935 18.1267L18.2053 18.2214V18.3278V18.4225L18.1935 18.5171L18.1818 18.6117L18.1701 18.7182L18.1583 18.8128L18.1232 18.9074L18.0997 19.0021L18.0762 19.1085L18.041 19.2032L17.9941 19.2978L17.9589 19.3925L17.912 19.4871L17.8651 19.5817L17.8182 19.6645L17.7595 19.7592L17.7009 19.842L17.6539 19.9248L17.5836 20.0076L17.5249 20.0785L17.4663 20.1614L17.3959 20.2323L17.3255 20.3033L17.2551 20.3743L17.1847 20.4334L17.1144 20.4926L17.044 20.5517L16.9619 20.599L16.8563 20.6582L16.7507 20.7055L16.6451 20.7646L16.5278 20.8001L16.4223 20.8474L16.305 20.8711L16.1994 20.9066L16.0821 20.9303L15.9648 20.9539L15.8592 20.9776L15.7419 20.9894L15.6363 21.0012L15.519 21.0131H15.4017H15.2962H15.1906H15.1437H15.0498H14.9443H14.8152H14.6979H14.5806H14.4985H14.4516L14.3812 21.2733L14.3108 21.5335L14.2404 21.782L14.1583 22.0304L14.0879 22.2906L14.0176 22.539L13.9472 22.7874L13.8768 23.0359L13.8064 23.2843L13.736 23.5445L13.6657 23.7929L13.5953 24.0413L13.5132 24.3016L13.4428 24.5618L13.3724 24.8103L13.302 25.0705L13.2199 24.9995L13.1378 24.9167L13.0439 24.8339L12.9384 24.7393L12.8445 24.6328L12.739 24.5263L12.6451 24.4199L12.5395 24.3016L12.4457 24.1833L12.3401 24.065L12.2463 23.9467L12.1642 23.8284L12.0703 23.722L12 23.6155L11.9296 23.509L11.8709 23.4262L11.953 23.1423L12.0351 22.8702L12.1055 22.5982L12.1876 22.3379L12.258 22.0895L12.3284 21.8411L12.3988 21.6045L12.4692 21.3561L12.5278 21.1195L12.5982 20.8829L12.6686 20.6464L12.7272 20.4216L12.7976 20.185L12.868 19.9484L12.9384 19.7118L12.997 19.4634H13.1612H13.3255Z" fill="white"/>
<path d="M18.6627 23.4499H18.4281H18.1818H17.9472H17.7009H17.4663H17.2199L17.302 23.2015L17.3724 22.9412L17.4428 22.6928L17.5132 22.4444L17.5836 22.196L17.6539 21.9476L17.7243 21.6992L17.7947 21.4389L17.8651 21.1905L17.9355 20.9421L18.0059 20.6937L18.088 20.4453L18.1583 20.1968L18.217 19.9484L18.2991 19.7L18.3695 19.4516H18.6041H18.8504H19.085H19.3196H19.566H19.8006H20.0469H20.2815L20.2111 19.7L20.1408 19.9484L20.0704 20.1968L20 20.4453L19.9296 20.6937L19.8592 20.9421L19.7889 21.1905L19.7067 21.4389L19.6364 21.6992L19.566 21.9476L19.4956 22.196L19.4252 22.4444L19.3548 22.6928L19.2845 22.9412L19.2141 23.2015L19.1437 23.4499H18.8974H18.6627Z" fill="white"/>
<path d="M22.4282 23.438H22.2757H22.1115H21.959H21.7947H21.6422H21.478H21.3255H21.1613H21.0088H20.8446H20.6921H20.5279H20.3754H20.2229L20.2933 23.2015L20.3636 22.9412L20.434 22.6928L20.5044 22.4444L20.5748 22.196L20.6452 21.9476L20.7155 21.6991L20.7977 21.4507L20.868 21.1905L20.9384 20.9421L21.0088 20.6937L21.0792 20.4452L21.1496 20.1968L21.22 19.9484L21.2903 19.7L21.3607 19.4516H21.5953H21.8417H22.0763H22.3109H22.5572H22.7918H23.0264H23.2728L23.1789 19.7473L23.0968 20.0549L23.003 20.3743L22.9091 20.6937L22.827 21.0012L22.7332 21.3088L22.651 21.6163L22.5689 21.9121L22.7449 21.9002H22.9091L23.0733 21.8766L23.2258 21.8647L23.3079 21.8529L23.3783 21.8411L23.4604 21.8293L23.5308 21.8056L23.6012 21.7938L23.6716 21.7701L23.742 21.7465L23.8123 21.7228L23.8827 21.6873L23.9414 21.6636L24.0118 21.6282L24.0821 21.5927L24.1525 21.5572L24.2112 21.5099L24.2816 21.4744L24.3402 21.4271L24.3989 21.3679L24.4575 21.3206L24.5279 21.2615L24.5865 21.2023L24.6452 21.1432L24.7156 21.0722L24.7742 21.0012L24.8329 20.9184L24.9033 20.8119L24.9736 20.6937L25.0558 20.5754L25.1144 20.4334L25.1496 20.3743L25.1848 20.3033L25.2082 20.2323L25.2317 20.1613L25.2552 20.0785L25.2786 20.0076L25.3021 19.9366L25.3138 19.8656L25.3255 19.7828L25.3373 19.7118V19.6408V19.5699V19.4989L25.3255 19.4279L25.3138 19.3569L25.3021 19.286L25.2786 19.215L25.2434 19.1559L25.22 19.0849L25.1731 19.0257L25.1379 18.9666L25.0792 18.9074L25.0206 18.8601L24.9619 18.801L24.9267 18.7773L24.8915 18.7655L24.8446 18.7418L24.8094 18.73L24.7625 18.7182L24.7273 18.7063L24.6804 18.6945L24.6335 18.6827L24.5514 18.6708L24.4692 18.659H24.3989H24.3285H24.1525H23.9766H23.8123H23.6364H23.4604H23.2962H23.1203H22.956H22.7801H22.6159H22.4399H22.2757H22.0997H21.9238H21.7595H21.5836L21.6422 18.4579L21.7009 18.2568L21.7595 18.0557L21.8182 17.8665L21.8651 17.6654L21.9238 17.4643L21.9824 17.275L22.0411 17.0739H22.217H22.393H22.5807H22.7566H22.9326L23.1085 17.0621H23.2962H23.4722H23.6481H23.8358H24.0118H24.1877H24.3637H24.5514H24.7273H24.9033L25.1027 17.0739L25.2786 17.0976L25.4546 17.1212L25.6305 17.1567L25.783 17.204L25.9355 17.2632L26.0763 17.3223L26.2053 17.4051L26.3344 17.4879L26.4517 17.5707L26.5572 17.6654L26.6628 17.7718L26.7449 17.8901L26.827 18.0084L26.8974 18.1267L26.9678 18.2568L27.0264 18.3988L27.0734 18.5289L27.1086 18.6827L27.1437 18.8246L27.1555 18.9784L27.1789 19.1322V19.2978V19.4634L27.1672 19.6172L27.1437 19.7828L27.1203 19.9602L27.0851 20.1258L27.0382 20.3033L26.9795 20.4689L26.9209 20.6463L26.8505 20.8119L26.7918 20.9539L26.7215 21.084L26.6511 21.2141L26.5807 21.3324L26.4986 21.4507L26.4282 21.569L26.3461 21.6873L26.264 21.7938L26.1701 21.9002L26.088 22.0067L25.9942 22.1013L25.9003 22.196L25.8065 22.2788L25.7009 22.3734L25.5953 22.4562L25.5015 22.539L25.3842 22.61L25.2786 22.6928L25.1613 22.7638L25.0558 22.8229L24.9384 22.8939L24.8094 22.953L24.6804 23.0004L24.5631 23.0595L24.434 23.1068L24.305 23.1541L24.1643 23.2015L24.0235 23.2488L23.8945 23.2843L23.7537 23.3197L23.6012 23.3552L23.4604 23.3789L23.3666 23.3907L23.2728 23.4026L23.1906 23.4144L23.0968 23.4262L23.0147 23.438H22.9208H22.827L22.7449 23.4499L22.5807 23.438H22.4282Z" fill="white"/>
<path d="M19.6481 10.0237L19.2845 10.0473L18.9325 10.0828L18.5689 10.1301L18.217 10.2011L17.8651 10.2721L17.5132 10.3549L17.173 10.4495L16.8211 10.556L16.4809 10.6743L16.1525 10.7926L15.824 10.9345L15.5073 11.0765L15.1906 11.2302L14.8856 11.3959L14.5806 11.5733L14.2874 11.7507L14.0058 11.9518L13.7243 12.1529L13.4662 12.3659L13.2082 12.5788L12.9618 12.8035L12.7272 13.0401L12.5044 13.2885L12.2932 13.537L12.0938 13.7972L11.9061 14.0693L11.7302 14.3413L11.5659 14.6252L11.4604 14.8263L11.3548 15.0393L11.2609 15.2522L11.1671 15.4651L11.085 15.678L11.0029 15.891L10.9325 16.1157L10.8621 16.3287L10.8035 16.5416L10.7448 16.7663L10.6979 16.9793L10.651 17.204L10.6158 17.4288L10.5923 17.6417L10.5571 17.8665L10.5454 18.0912L10.5337 18.316L10.5219 18.5407V18.7655V18.9902L10.5337 19.215L10.5454 19.4397L10.5689 19.6645L10.604 19.8893L10.6392 20.114L10.6744 20.3388L10.7214 20.5635L10.78 20.8001L10.8387 21.0249L10.8973 21.2496L10.9794 21.4744L11.0498 21.6991L11.085 21.7819L11.1202 21.8766L11.1554 21.9594L11.2023 22.0422L11.2844 21.7583L11.3665 21.4626L11.4486 21.1786L11.5307 20.8947L11.6129 20.599L11.695 20.3151L11.7771 20.0312L11.8592 19.7473L11.8357 19.5817L11.8123 19.4161L11.8005 19.2505L11.7888 19.0849V18.9193L11.7771 18.7537L11.7888 18.588V18.4106L11.8005 18.245L11.8123 18.0794L11.824 17.9138L11.8475 17.7482L11.8592 17.5826L11.8944 17.4169L11.9178 17.2513L11.953 17.0976L12 16.9319L12.0351 16.7663L12.0821 16.6126L12.129 16.4469L12.1876 16.2932L12.2463 16.1394L12.3049 15.9856L12.3753 15.8318L12.4457 15.678L12.5161 15.5243L12.5865 15.3823L12.6803 15.2404L12.7624 15.0984L12.8445 14.9565L12.9501 14.8145L13.0439 14.6844L13.2082 14.4596L13.3724 14.2467L13.5366 14.0456L13.7243 13.8445L13.9003 13.6552L14.0879 13.4778L14.2874 13.3004L14.475 13.1348L14.6862 12.9691L14.8856 12.8154L15.0967 12.6734L15.3196 12.5315L15.5425 12.4013L15.7654 12.2712L15.9882 12.1529L16.2228 12.0346L16.4575 11.9282L16.6921 11.8335L16.9384 11.7389L17.1847 11.6561L17.4311 11.5851L17.6774 11.5141L17.9355 11.4432L18.1818 11.384L18.4399 11.3367L18.6979 11.3012L18.9677 11.2539L19.2258 11.2302L19.4839 11.2066L19.7537 11.1829H20.0235L20.2933 11.1711H20.4457L20.5865 11.1829H20.7273L20.8563 11.1948L20.9853 11.2066L21.1144 11.2184L21.2317 11.2302L21.349 11.2421L21.4546 11.2657L21.5719 11.2894L21.6774 11.313L21.7947 11.3367L21.912 11.3604L22.0293 11.3959L22.1466 11.4313L22.2757 11.4668L22.3343 11.2657L22.3695 11.1001L22.4047 10.97L22.4399 10.8635L22.4751 10.7571L22.5103 10.6388L22.5455 10.4968L22.6041 10.3076L22.4282 10.2484L22.2522 10.2129L22.088 10.1656L21.912 10.142L21.7361 10.1065L21.5367 10.0828L21.3255 10.0591L21.0909 10.0237L20.7273 10.0118L20.3636 10H20.0117L19.6481 10.0237Z" fill="white"/>
<path d="M19.5191 17.0739H19.7654H20H20.2463H20.4809H20.7155H20.9619L20.9032 17.2632L20.8446 17.4643L20.7977 17.6654L20.739 17.8665L20.6804 18.0676L20.6217 18.2687L20.5631 18.4579L20.5044 18.659H20.2698H20.0235H19.7889H19.5543H19.3079H19.0733H18.827H18.5924L18.6393 18.4816L18.6979 18.2805L18.7683 18.0557L18.827 17.8192L18.8974 17.5944L18.956 17.3815L19.0029 17.204L19.0498 17.0739H19.2845H19.5191Z" fill="white"/>
<defs>
<filter id="filter0_f" x="3.38376" y="3.5974" width="34.3187" height="33.8928" filterUnits="userSpaceOnUse" color-interpolation-filters="sRGB">
<feFlood flood-opacity="0" result="BackgroundImageFix"/>
<feBlend mode="normal" in="SourceGraphic" in2="BackgroundImageFix" result="shape"/>
<feGaussianBlur stdDeviation="0.352455" result="effect1_foregroundBlur"/>
</filter>
</defs>
</svg>
