<svg width="40" height="40" viewBox="0 0 40 40" fill="none" xmlns="http://www.w3.org/2000/svg">
<g opacity="0.2" filter="url(#filter0_f)">
<path d="M6.49664 4.30231V6.67899H4.08867V33.6163H6.49664V36.7852H33.787V33.6163H36.9976V6.67899H33.787V4.30231H6.49664Z" fill="#BF360C"/>
</g>
<path d="M34.1614 4.1727H5.83858C4.91845 4.1727 4.17254 4.91864 4.17254 5.83882V34.1614C4.17254 35.0816 4.91845 35.8275 5.83858 35.8275H34.1614C35.0815 35.8275 35.8275 35.0816 35.8275 34.1614V5.83882C35.8275 4.91864 35.0815 4.1727 34.1614 4.1727Z" fill="#FFC107"/>
<path opacity="0.2" d="M5.83836 4.17151C4.91537 4.17151 4.1715 4.91535 4.1715 5.83831V6.30236C4.1715 5.37926 4.91537 4.63539 5.83836 4.63539H34.1605C35.0835 4.63539 35.8273 5.37926 35.8273 6.30236V5.83831C35.8273 4.91535 35.0835 4.17151 34.1605 4.17151H5.83836Z" fill="white"/>
<path opacity="0.2" d="M34.1597 35.8591C35.0826 35.8591 35.8265 35.1153 35.8265 34.1923V33.7284C35.8265 34.6512 35.0826 35.3952 34.1597 35.3952H5.83747C4.91458 35.3952 4.17068 34.6512 4.17068 33.7284V34.1923C4.17068 35.1153 4.91458 35.8591 5.83747 35.8591H34.1597Z" fill="#BF360C"/>
<path fill-rule="evenodd" clip-rule="evenodd" d="M10.3839 14.5332C10.1724 14.5332 10 14.7047 10 14.9153C10.1933 20.3996 14.5356 24.831 19.9977 25.193C20.2367 25.2088 20.4775 25.1985 20.7205 25.1985C21.4969 25.1985 22.3037 25.0625 23.0323 24.903C25.3914 24.3869 27.1387 22.3015 27.1387 19.78C27.1387 19.6065 27.13 19.4349 27.1135 19.2656C27.0826 18.9515 27.0237 18.6455 26.9401 18.3499C26.3149 16.1473 24.2819 14.5332 21.87 14.5332C19.458 14.5332 17.4251 16.1473 16.7999 18.3499C17.2319 19.8692 18.3337 21.1078 19.7675 21.73C19.2891 21.2189 18.9961 20.5336 18.9961 19.78C18.9961 18.1995 20.2829 16.9181 21.87 16.9181C23.4571 16.9181 24.7438 18.1995 24.7438 19.78C24.7438 20.5336 24.4507 21.2189 23.9726 21.73C23.4479 22.291 22.7003 22.642 21.87 22.642C19.5357 22.642 17.5265 21.256 16.6265 19.2656C16.494 18.9723 16.3853 18.6661 16.3034 18.3489C16.1853 17.8917 16.1223 17.4123 16.1223 16.9181C16.1223 16.2304 16.2444 15.5711 16.4678 14.9604C16.478 14.9324 16.4888 14.9045 16.4994 14.8767C16.5033 14.8582 16.5056 14.839 16.5056 14.8192C16.5056 14.6612 16.3768 14.5332 16.2181 14.5332H10.3847" fill="white"/>
<path fill-rule="evenodd" clip-rule="evenodd" d="M29.7373 14.8217C29.9166 15.4905 30.0125 16.1931 30.0125 16.9181C30.0125 19.3703 28.9193 21.5682 27.1919 23.055C26.7604 23.3805 26.392 23.7027 25.6713 24.0842C26.978 22.8557 27.6178 21.4151 27.6178 19.7801C27.6178 19.2859 27.5548 18.8064 27.4366 18.349C27.5548 17.8916 27.6178 17.4123 27.6178 16.9181C27.6178 16.2132 27.4896 15.5384 27.2554 14.9147C27.2448 14.8847 27.2401 14.8528 27.2401 14.8193C27.2401 14.6613 27.3688 14.5332 27.5274 14.5331H29.3662C29.5423 14.5332 29.6926 14.6607 29.7373 14.8217Z" fill="white"/>
<defs>
<filter id="filter0_f" x="3.38376" y="3.5974" width="34.3187" height="33.8928" filterUnits="userSpaceOnUse" color-interpolation-filters="sRGB">
<feFlood flood-opacity="0" result="BackgroundImageFix"/>
<feBlend mode="normal" in="SourceGraphic" in2="BackgroundImageFix" result="shape"/>
<feGaussianBlur stdDeviation="0.352455" result="effect1_foregroundBlur"/>
</filter>
</defs>
</svg>
