<svg width="40" height="40" viewBox="0 0 40 40" fill="none" xmlns="http://www.w3.org/2000/svg">
<g opacity="0.2" filter="url(#filter0_f)">
<path d="M6.49662 4.30231V6.67899H4.08865V33.6163H6.49662V36.7852H33.787V33.6163H36.9976V6.67899H33.787V4.30231H6.49662Z" fill="#263238"/>
</g>
<path d="M34.1614 4.17267H5.83856C4.91843 4.17267 4.17252 4.91861 4.17252 5.83879V34.1614C4.17252 35.0815 4.91843 35.8275 5.83856 35.8275H34.1614C35.0815 35.8275 35.8274 35.0815 35.8274 34.1614V5.83879C35.8274 4.91861 35.0815 4.17267 34.1614 4.17267Z" fill="#4CAF50"/>
<path opacity="0.2" d="M5.83834 4.17151C4.91535 4.17151 4.17148 4.91535 4.17148 5.83831V6.30236C4.17148 5.37926 4.91535 4.63539 5.83834 4.63539H34.1605C35.0835 4.63539 35.8273 5.37926 35.8273 6.30236V5.83831C35.8273 4.91535 35.0835 4.17151 34.1605 4.17151H5.83834Z" fill="white"/>
<path opacity="0.2" d="M34.1597 35.8591C35.0826 35.8591 35.8265 35.1153 35.8265 34.1923V33.7284C35.8265 34.6512 35.0826 35.3952 34.1597 35.3952H5.83745C4.91455 35.3952 4.17065 34.6512 4.17065 33.7284V34.1923C4.17065 35.1153 4.91455 35.8591 5.83745 35.8591H34.1597Z" fill="#263238"/>
<path fill-rule="evenodd" clip-rule="evenodd" d="M11.9184 16.8571H11.7347C11.3289 16.8571 11 16.516 11 16.0952V14.381C11 13.9602 11.3289 13.619 11.7347 13.619H11.982C12.3298 11.5627 14.0603 10 16.1429 10H23.8571C25.9397 10 27.6702 11.5627 28.018 13.619H28.2653C28.6711 13.619 29 13.9602 29 14.381V16.0952C29 16.516 28.6711 16.8571 28.2653 16.8571H28.0816V24.8571C28.0816 25.7287 27.7288 26.5148 27.1633 27.0703V29.0476C27.1633 29.5736 26.7521 30 26.2449 30H24.9592C24.452 30 24.0408 29.5736 24.0408 29.0476V27.9048H15.9592V29.0476C15.9592 29.5736 15.548 30 15.0408 30H13.7551C13.2479 30 12.8367 29.5736 12.8367 29.0476L12.8367 27.0703C12.2712 26.5148 11.9184 25.7287 11.9184 24.8571V16.8571ZM25.8776 14.381H13.9388V19.5238H25.8776V14.381ZM15.4082 25.8095C16.2197 25.8095 16.8776 25.1273 16.8776 24.2857C16.8776 23.4441 16.2197 22.7619 15.4082 22.7619C14.5966 22.7619 13.9388 23.4441 13.9388 24.2857C13.9388 25.1273 14.5966 25.8095 15.4082 25.8095ZM26.0612 24.2857C26.0612 25.1273 25.4034 25.8095 24.5918 25.8095C23.7803 25.8095 23.1224 25.1273 23.1224 24.2857C23.1224 23.4441 23.7803 22.7619 24.5918 22.7619C25.4034 22.7619 26.0612 23.4441 26.0612 24.2857Z" fill="white"/>
<defs>
<filter id="filter0_f" x="3.38374" y="3.5974" width="34.3187" height="33.8928" filterUnits="userSpaceOnUse" color-interpolation-filters="sRGB">
<feFlood flood-opacity="0" result="BackgroundImageFix"/>
<feBlend mode="normal" in="SourceGraphic" in2="BackgroundImageFix" result="shape"/>
<feGaussianBlur stdDeviation="0.352455" result="effect1_foregroundBlur"/>
</filter>
</defs>
</svg>
