<svg width="40" height="40" viewBox="0 0 40 40" fill="none" xmlns="http://www.w3.org/2000/svg">
<g opacity="0.2" filter="url(#filter0_f)">
<path d="M6.49664 4.1308V6.50748H4.08867V33.4448H6.49664V36.6137H33.787V33.4448H36.9976V6.50748H33.787V4.1308H6.49664Z" fill="#3E2723"/>
</g>
<path d="M34.1614 4.00119H5.83859C4.91845 4.00119 4.17254 4.74713 4.17254 5.66731V33.9899C4.17254 34.9101 4.91845 35.656 5.83859 35.656H34.1614C35.0815 35.656 35.8275 34.9101 35.8275 33.9899V5.66731C35.8275 4.74713 35.0815 4.00119 34.1614 4.00119Z" fill="#E91E63"/>
<path opacity="0.2" d="M5.83837 4C4.91538 4 4.17151 4.74384 4.17151 5.6668V6.13085C4.17151 5.20775 4.91538 4.46388 5.83837 4.46388H34.1605C35.0835 4.46388 35.8274 5.20775 35.8274 6.13085V5.6668C35.8274 4.74384 35.0835 4 34.1605 4H5.83837Z" fill="white"/>
<path opacity="0.2" d="M34.1597 35.6876C35.0826 35.6876 35.8265 34.9438 35.8265 34.0208V33.5569C35.8265 34.4797 35.0826 35.2237 34.1597 35.2237H5.83748C4.91458 35.2237 4.17068 34.4797 4.17068 33.5569V34.0208C4.17068 34.9438 4.91458 35.6876 5.83748 35.6876H34.1597Z" fill="#3E2723"/>
<path d="M20.6504 22.6982C20.582 22.5335 19.1218 19.1632 16.351 18.2545C16.1193 18.1786 15.8784 18.1198 15.6285 18.0816C15.4109 18.0483 15.1864 18.0305 14.9551 18.0305C12.5045 18.0305 10.4671 19.8056 10.0683 22.1304L10.733 22.7593L11.4409 22.0909C11.6391 21.3092 12.0923 20.6159 12.7288 20.1206C13.3652 19.6254 14.1486 19.3565 14.9551 19.3564C15.0779 19.3564 15.1985 19.3639 15.3169 19.3781C15.5677 19.4081 15.8084 19.4686 16.0388 19.5532C17.787 20.1956 18.9346 22.2316 19.2957 22.9569C18.8645 23.8193 17.3123 26.5537 14.9551 26.5537C13.0399 26.5537 11.4732 25.0697 11.3439 23.2012L10.733 23.7797L10 23.0862C10.0683 25.7416 12.2637 27.8796 14.9551 27.8796C18.631 27.8796 20.5713 23.4024 20.6504 23.212L20.654 22.9569L20.6504 22.6982ZM29.2598 23.2839L28.5052 23.9989C28.0561 25.4757 26.6727 26.5537 25.0413 26.5537C22.6806 26.5537 21.1283 23.8193 20.6971 22.9569C21.1283 22.0909 22.6806 19.3564 25.0413 19.3564C26.9996 19.3564 28.595 20.9087 28.6561 22.8383L29.2598 22.2634L30 22.9677V22.9569C30 20.2404 27.7758 18.0305 25.0413 18.0305C21.3618 18.0305 19.4215 22.5077 19.3424 22.6982L19.3568 22.9569L19.3424 23.212C19.4215 23.4024 21.3618 27.8796 25.0413 27.8796C27.4488 27.8796 29.461 26.1656 29.9066 23.8983L29.2598 23.2839ZM25.0844 23.2982C24.9515 23.2982 24.8221 23.2264 24.7539 23.1006C24.7251 23.0467 21.8469 17.6892 16.2199 17.6892L16.1193 17.6928C15.9181 17.6928 15.7528 17.5275 15.7492 17.3263C15.7456 17.1215 15.9109 16.9562 16.1157 16.9526H16.2235C22.3069 16.9526 25.3827 22.7018 25.415 22.7593C25.5084 22.9425 25.4366 23.1617 25.2569 23.2587C25.203 23.2839 25.1419 23.2982 25.0844 23.2982ZM14.8509 23.2839L14.7646 23.2731C14.5634 23.2264 14.4413 23.0251 14.488 22.8275L15.3169 19.3781L15.6285 18.0816L16.6727 13.7366H15.1419C14.8976 13.7366 14.6964 13.9378 14.6964 14.1822C14.6964 14.4265 14.8976 14.6241 15.1419 14.6241C15.2401 14.6241 15.3342 14.6631 15.4036 14.7325C15.473 14.802 15.512 14.8961 15.512 14.9943C15.512 15.0924 15.473 15.1865 15.4036 15.256C15.3342 15.3254 15.2401 15.3644 15.1419 15.3644C14.488 15.3644 13.9526 14.8326 13.9526 14.1822C13.9526 13.5318 14.488 13 15.1419 13H17.6141L16.351 18.2545L16.0388 19.5532L15.2102 23C15.1707 23.1689 15.0162 23.2839 14.8509 23.2839Z" fill="white"/>
<path d="M16.4678 16.2519H21.8675L22.2493 15.5153H16.4678V16.2519ZM21.4409 18.6881L20.7797 18.3503L23.3669 13.3593L24.028 13.6971L21.4409 18.6881ZM24.4125 14.0313H22.0194C21.7319 14.0313 21.4984 13.8013 21.4984 13.5174C21.4984 13.23 21.7319 13 22.0194 13H24.4125C24.6964 13 24.9299 13.23 24.9299 13.5174C24.9299 13.8013 24.6964 14.0313 24.4125 14.0313Z" fill="white"/>
<defs>
<filter id="filter0_f" x="3.38376" y="3.42589" width="34.3187" height="33.8928" filterUnits="userSpaceOnUse" color-interpolation-filters="sRGB">
<feFlood flood-opacity="0" result="BackgroundImageFix"/>
<feBlend mode="normal" in="SourceGraphic" in2="BackgroundImageFix" result="shape"/>
<feGaussianBlur stdDeviation="0.352455" result="effect1_foregroundBlur"/>
</filter>
</defs>
</svg>
