<svg width="40" height="40" viewBox="0 0 40 40" fill="none" xmlns="http://www.w3.org/2000/svg">
<g opacity="0.2" filter="url(#filter0_f)">
<path d="M6.49664 4.30231V6.67899H4.08867V33.6163H6.49664V36.7852H33.787V33.6163H36.9976V6.67899H33.787V4.30231H6.49664Z" fill="#212121"/>
</g>
<path d="M34.1614 4.1727H5.83859C4.91845 4.1727 4.17254 4.91864 4.17254 5.83882V34.1614C4.17254 35.0816 4.91845 35.8275 5.83859 35.8275H34.1614C35.0815 35.8275 35.8275 35.0816 35.8275 34.1614V5.83882C35.8275 4.91864 35.0815 4.1727 34.1614 4.1727Z" fill="#9E9E9E"/>
<path opacity="0.2" d="M5.83837 4.17151C4.91538 4.17151 4.17151 4.91535 4.17151 5.83831V6.30236C4.17151 5.37926 4.91538 4.63539 5.83837 4.63539H34.1605C35.0835 4.63539 35.8274 5.37926 35.8274 6.30236V5.83831C35.8274 4.91535 35.0835 4.17151 34.1605 4.17151H5.83837Z" fill="white"/>
<path opacity="0.2" d="M34.1597 35.8591C35.0826 35.8591 35.8265 35.1153 35.8265 34.1923V33.7284C35.8265 34.6512 35.0826 35.3952 34.1597 35.3952H5.83748C4.91458 35.3952 4.17068 34.6512 4.17068 33.7284V34.1923C4.17068 35.1153 4.91458 35.8591 5.83748 35.8591H34.1597Z" fill="#212121"/>
<path fill-rule="evenodd" clip-rule="evenodd" d="M19.5335 14.7285C19.2944 16.4119 19.1032 17.8291 18.7588 20.0363C19.6893 20.0161 21.8013 20.3866 22.2662 17.3702C22.651 14.8607 20.9356 14.6283 19.5335 14.7285V14.7285Z" fill="white"/>
<path fill-rule="evenodd" clip-rule="evenodd" d="M27.5925 26.9237C27.9546 27.7142 27.5899 28.7138 26.8346 29.1161C26.4009 29.3474 25.9057 29.5622 25.4114 29.6828C24.5953 29.874 23.761 29.9803 22.9222 30C21.5807 30 20.2359 29.2466 19.6565 28.3297C19.5066 28.646 18.966 29.2821 18.0186 29.5812C17.4199 29.7712 16.6982 30 15.1917 29.9983C13.8418 29.9975 13.0721 29.397 12.6654 28.893C12.0169 28.0917 11.9218 27.074 12.0481 26.3884L12.0548 26.3553C12.5643 23.8481 13.2607 19.2898 13.5816 17.0057L13.5849 16.9834C13.6725 16.3498 13.7618 15.7162 13.8148 15.0784C13.8409 14.7571 13.8586 14.4341 13.862 14.1119C13.8653 13.8071 13.8367 13.5031 13.8392 13.1982C13.8426 12.9108 13.8898 12.62 14.027 12.3655C14.2502 11.955 14.6586 11.6312 15.0906 11.4899C15.5647 11.3346 16.0599 11.2726 16.5525 11.2165C17.0562 11.1573 17.561 11.1077 18.0666 11.0678C18.6831 11.0233 19.3011 11.0007 19.9192 11C20.9769 10.9992 22.0413 11.0165 23.0838 11.2272C24.1457 11.442 25.2186 11.8525 26.0565 12.5721C26.6308 13.0652 27.0864 13.6873 27.4291 14.368C27.7289 14.9677 27.851 15.5988 27.9234 16.0813C28.0523 16.9471 28.0183 17.8288 27.8232 18.6826C27.6691 19.3052 27.4092 19.8978 27.0544 20.4356C26.6552 21.0436 26.1432 21.5954 25.4906 22.1208C25.888 23.2525 26.9238 25.4631 27.5925 26.9237ZM15.7138 13.3131C15.739 13.7327 15.7424 14.1557 15.7239 14.577C15.7053 15.0074 15.6674 15.4361 15.6186 15.864C15.5706 16.2903 15.5125 16.7149 15.4536 17.1395L15.4342 17.2783C15.2489 18.6058 15.0536 19.9317 14.8489 21.2551C14.6333 22.6462 14.3917 24.0299 14.15 25.4152C14.038 26.0612 13.7862 26.889 14.1306 27.5052C14.4371 28.0554 15.2237 28.1223 15.7719 28.067C17.7685 27.867 18.086 27.4317 18.086 27.4317C17.6877 26.9988 18.0338 25.0261 18.4346 22.3744H19.8535L21.339 26.7816C21.339 26.7816 21.7769 28.1471 22.9937 28.081C24.5525 27.9967 25.6994 27.6473 25.8645 27.4532C25.3845 27.1905 24.0118 23.8234 23.2641 21.3509C23.6262 21.1344 23.9773 20.899 24.3083 20.6355C24.7605 20.2737 25.1798 19.8565 25.5007 19.3666C25.7314 19.0147 25.9074 18.6273 26.0085 18.2159C26.0615 17.9986 26.091 17.7715 26.1095 17.5492C26.1432 17.1577 26.1306 16.7611 26.0725 16.3729C26.0169 15.9995 25.9335 15.584 25.7634 15.2469C25.4476 14.6166 25.0005 14.0665 24.3908 13.7145C23.3617 13.1214 22.1761 13.0082 21.0199 12.9463C19.7659 12.8779 18.5083 12.9182 17.2615 13.0669C17.1218 13.0834 15.7079 13.2057 15.7138 13.3131V13.3131Z" fill="white"/>
<defs>
<filter id="filter0_f" x="3.38376" y="3.5974" width="34.3187" height="33.8928" filterUnits="userSpaceOnUse" color-interpolation-filters="sRGB">
<feFlood flood-opacity="0" result="BackgroundImageFix"/>
<feBlend mode="normal" in="SourceGraphic" in2="BackgroundImageFix" result="shape"/>
<feGaussianBlur stdDeviation="0.352455" result="effect1_foregroundBlur"/>
</filter>
</defs>
</svg>
