<svg width="40" height="40" viewBox="0 0 40 40" fill="none" xmlns="http://www.w3.org/2000/svg">
<g opacity="0.2" filter="url(#filter0_f)">
<path d="M6.49664 4.30231V6.67899H4.08867V33.6163H6.49664V36.7852H33.787V33.6163H36.9976V6.67899H33.787V4.30231H6.49664Z" fill="#1A237E"/>
</g>
<path d="M34.1614 4.1727H5.83858C4.91845 4.1727 4.17254 4.91864 4.17254 5.83882V34.1614C4.17254 35.0816 4.91845 35.8275 5.83858 35.8275H34.1614C35.0815 35.8275 35.8275 35.0816 35.8275 34.1614V5.83882C35.8275 4.91864 35.0815 4.1727 34.1614 4.1727Z" fill="#673AB7"/>
<path opacity="0.2" d="M5.83836 4.17151C4.91537 4.17151 4.1715 4.91535 4.1715 5.83831V6.30236C4.1715 5.37926 4.91537 4.63539 5.83836 4.63539H34.1605C35.0835 4.63539 35.8273 5.37926 35.8273 6.30236V5.83831C35.8273 4.91535 35.0835 4.17151 34.1605 4.17151H5.83836Z" fill="white"/>
<path opacity="0.2" d="M34.1597 35.8591C35.0826 35.8591 35.8265 35.1153 35.8265 34.1923V33.7284C35.8265 34.6512 35.0826 35.3952 34.1597 35.3952H5.83747C4.91458 35.3952 4.17068 34.6512 4.17068 33.7284V34.1923C4.17068 35.1153 4.91458 35.8591 5.83747 35.8591H34.1597Z" fill="#1A237E"/>
<path fill-rule="evenodd" clip-rule="evenodd" d="M20 29C24.9705 29 29 24.9705 29 20C29 15.0294 24.9705 11 20 11C15.0294 11 11 15.0294 11 20C11 24.9705 15.0294 29 20 29ZM20.0001 26.75C23.728 26.75 26.7501 23.7279 26.7501 20C26.7501 16.2721 23.728 13.25 20.0001 13.25C16.2722 13.25 13.2501 16.2721 13.2501 20C13.2501 23.7279 16.2722 26.75 20.0001 26.75Z" fill="white"/>
<path d="M20 24C22.2091 24 24 22.2091 24 20C24 17.7909 22.2091 16 20 16C17.7909 16 16 17.7909 16 20C16 22.2091 17.7909 24 20 24Z" fill="white"/>
<defs>
<filter id="filter0_f" x="3.38376" y="3.5974" width="34.3187" height="33.8928" filterUnits="userSpaceOnUse" color-interpolation-filters="sRGB">
<feFlood flood-opacity="0" result="BackgroundImageFix"/>
<feBlend mode="normal" in="SourceGraphic" in2="BackgroundImageFix" result="shape"/>
<feGaussianBlur stdDeviation="0.352455" result="effect1_foregroundBlur"/>
</filter>
</defs>
</svg>
