<?xml version="1.0" encoding="UTF-8" standalone="no"?>
<svg
   version="1.1"
   viewBox="0 0 26.95 26.95"
   id="svg145"
   sodipodi:docname="sms2.svg"
   inkscape:version="1.1.2 (0a00cf5339, 2022-02-04)"
   xmlns:inkscape="http://www.inkscape.org/namespaces/inkscape"
   xmlns:sodipodi="http://sodipodi.sourceforge.net/DTD/sodipodi-0.dtd"
   xmlns="http://www.w3.org/2000/svg"
   xmlns:svg="http://www.w3.org/2000/svg">
  <sodipodi:namedview
     id="namedview147"
     pagecolor="#ffffff"
     bordercolor="#666666"
     borderopacity="1.0"
     inkscape:pageshadow="2"
     inkscape:pageopacity="0.0"
     inkscape:pagecheckerboard="0"
     showgrid="false"
     inkscape:snap-bbox="true"
     inkscape:bbox-nodes="true"
     inkscape:snap-bbox-midpoints="true"
     showguides="true"
     inkscape:guide-bbox="true"
     inkscape:zoom="13.339517"
     inkscape:cx="26.312796"
     inkscape:cy="15.667733"
     inkscape:window-width="1920"
     inkscape:window-height="1015"
     inkscape:window-x="0"
     inkscape:window-y="0"
     inkscape:window-maximized="1"
     inkscape:current-layer="g135" />
  <defs
     id="defs5">
    <filter
       id="filter6206-7"
       color-interpolation-filters="sRGB"
       x="-0.072000326"
       y="-0.072000655"
       width="1.1440007"
       height="1.1440013">
      <feGaussianBlur
         stdDeviation="0.658125"
         id="feGaussianBlur2" />
    </filter>
  </defs>
  <g
     transform="translate(0,-1025.4)"
     id="g123">
    <path
       transform="matrix(1.0107,0,0,0.99762,-0.087875,2.579)"
       d="m 4.4177,1028.2 v 1.6051 H 2.8125 v 18.192 h 1.6052 v 2.1402 h 18.192 v -2.1402 h 2.1402 v -18.192 H 22.6097 V 1028.2 Z"
       fill="#3e2723"
       filter="url(#filter6206-7)"
       opacity="0.2"
       id="path7" />
    <rect
       x="2.8113"
       y="1028.2"
       width="21.327"
       height="21.327"
       rx="1.1224999"
       ry="1.1226"
       fill="#f44336"
       id="rect9" />
    <g
       transform="translate(-20.925,990.46)"
       id="g25">
      <path
         d="M 0,0 H 48 V 48 H 0 Z"
         fill="none"
         id="path11" />
      <g
         transform="matrix(0.33601,0,0,0.33601,1.434,68.477)"
         id="g15">
        <path
           d="M 0,0 H 48 V 48 H 0 Z"
           fill="none"
           id="path13" />
      </g>
      <g
         transform="matrix(0.37187,0,0,0.37187,36.377,59.287)"
         id="g23">
        <path
           d="M 0,0 H 48 V 48 H 0 Z"
           fill="none"
           id="path17" />
        <g
           transform="matrix(2.6891,0,0,2.6891,-77.724,-45.422)"
           id="g21">
          <path
             d="M 0,0 H 48 V 48 H 0 Z"
             fill="none"
             id="path19" />
        </g>
      </g>
    </g>
    <path
       transform="translate(0,1025.4)"
       d="m 3.9336,2.8105 c -0.62186,0 -1.123,0.50115 -1.123,1.123 V 4.246 c 0,-0.6219 0.50118,-1.123 1.123,-1.123 h 19.082 c 0.62186,0 1.123,0.50115 1.123,1.123 V 3.9335 c 0,-0.6219 -0.50118,-1.123 -1.123,-1.123 z"
       fill="#ffffff"
       opacity="0.2"
       id="path27" />
    <rect
       x="120"
       y="512.35999"
       width="40"
       height="40"
       fill="none"
       id="rect29" />
    <rect
       x="120"
       y="592.35999"
       width="40"
       height="40"
       fill="none"
       id="rect31" />
    <rect
       x="120"
       y="632.35999"
       width="40"
       height="40"
       fill="none"
       id="rect33" />
    <rect
       x="120"
       y="552.35999"
       width="40"
       height="40"
       fill="none"
       id="rect35" />
    <rect
       x="120"
       y="672.35999"
       width="40"
       height="40"
       fill="none"
       id="rect37" />
    <rect
       x="200"
       y="512.35999"
       width="40"
       height="40"
       fill="none"
       id="rect39" />
    <rect
       x="200"
       y="592.35999"
       width="40"
       height="40"
       fill="none"
       id="rect41" />
    <rect
       x="200"
       y="632.35999"
       width="40"
       height="40"
       fill="none"
       id="rect43" />
    <rect
       x="200"
       y="552.35999"
       width="40"
       height="40"
       fill="none"
       id="rect45" />
    <rect
       x="200"
       y="672.35999"
       width="40"
       height="40"
       fill="none"
       id="rect47" />
    <rect
       x="280"
       y="512.35999"
       width="40"
       height="40"
       fill="none"
       id="rect49" />
    <rect
       x="280"
       y="592.35999"
       width="40"
       height="40"
       fill="none"
       id="rect51" />
    <rect
       x="280"
       y="632.35999"
       width="40"
       height="40"
       fill="none"
       id="rect53" />
    <rect
       x="280"
       y="552.35999"
       width="40"
       height="40"
       fill="none"
       id="rect55" />
    <rect
       x="280"
       y="672.35999"
       width="40"
       height="40"
       fill="none"
       id="rect57" />
    <rect
       x="160"
       y="512.35999"
       width="40"
       height="40"
       fill="none"
       id="rect59" />
    <rect
       x="160"
       y="592.35999"
       width="40"
       height="40"
       fill="none"
       id="rect61" />
    <rect
       x="160"
       y="632.35999"
       width="40"
       height="40"
       fill="none"
       id="rect63" />
    <rect
       x="160"
       y="552.35999"
       width="40"
       height="40"
       fill="none"
       id="rect65" />
    <rect
       x="160"
       y="672.35999"
       width="40"
       height="40"
       fill="none"
       id="rect67" />
    <rect
       x="240"
       y="512.35999"
       width="40"
       height="40"
       fill="none"
       id="rect69" />
    <rect
       x="240"
       y="592.35999"
       width="40"
       height="40"
       fill="none"
       id="rect71" />
    <rect
       x="240"
       y="632.35999"
       width="40"
       height="40"
       fill="none"
       id="rect73" />
    <rect
       x="240"
       y="552.35999"
       width="40"
       height="40"
       fill="none"
       id="rect75" />
    <rect
       x="240"
       y="672.35999"
       width="40"
       height="40"
       fill="none"
       id="rect77" />
    <rect
       x="120"
       y="712.35999"
       width="40"
       height="40"
       fill="none"
       id="rect79" />
    <rect
       x="200"
       y="712.35999"
       width="40"
       height="40"
       fill="none"
       id="rect81" />
    <rect
       x="280"
       y="712.35999"
       width="40"
       height="40"
       fill="none"
       id="rect83" />
    <rect
       x="160"
       y="712.35999"
       width="40"
       height="40"
       fill="none"
       id="rect85" />
    <rect
       x="240"
       y="712.35999"
       width="40"
       height="40"
       fill="none"
       id="rect87" />
    <rect
       x="320"
       y="552.35999"
       width="40"
       height="40"
       fill="none"
       id="rect89" />
    <rect
       x="320"
       y="592.35999"
       width="40"
       height="40"
       fill="none"
       id="rect91" />
    <rect
       x="320"
       y="672.35999"
       width="40"
       height="40"
       fill="none"
       id="rect93" />
    <rect
       x="320"
       y="512.35999"
       width="40"
       height="40"
       fill="none"
       id="rect95" />
    <rect
       x="320"
       y="632.35999"
       width="40"
       height="40"
       fill="none"
       id="rect97" />
    <rect
       x="320"
       y="712.35999"
       width="40"
       height="40"
       fill="none"
       id="rect99" />
    <rect
       x="150"
       y="542.35999"
       width="180"
       height="180"
       fill="none"
       id="rect101" />
    <g
       transform="matrix(0.37344,0,0,0.37344,4.4375,1028.8)"
       id="g105">
      <path
         d="M 0,0 H 48 V 48 H 0 Z"
         fill="none"
         id="path103" />
    </g>
    <g
       transform="matrix(0.36471,0,0,0.36471,4.8146,1028.8)"
       id="g109">
      <path
         d="M 0,0 H 48 V 48 H 0 Z"
         fill="none"
         id="path107" />
    </g>
    <g
       transform="matrix(0.41585,0,0,0.41585,79.055,989.88)"
       id="g119">
      <g
         transform="matrix(0.062269,0,0,0.062269,-26.473,173.71)"
         id="g117">
        <g
           transform="matrix(38.618,0,0,38.618,13804,-12696)"
           id="g115">
          <g
             transform="matrix(0.71436,0,0,0.71436,-375.49,176.57)"
             id="g113">
            <path
               transform="matrix(1.3999,0,0,1.3999,525.63,-247.17)"
               d="m 490.56,95.75 c -121.72,0.18504 -342.34,0.09058 -468.16,0.09375 -1.5548,6.9739 -2.4062,14.232 -2.4062,21.688 v 76.344 c 139.06,0.49354 331.32,0.2554 472.97,0.25 v -76.594 c 0,-7.4875 -0.8386,-14.78 -2.4062,-21.781 z M 183.37,293.69 c -52.495,-0.003 -106.38,0.11982 -163.38,0.375 v 92.844 c 191.76,-0.26331 282.43,-0.0926 472.97,-0.21875 v -92.25 c -109.29,-0.35498 -208.43,-0.74426 -309.59,-0.75 z"
               opacity="0"
               id="path111" />
          </g>
        </g>
      </g>
    </g>
    <path
       d="m 23.015,1049.6 c 0.6218,0 1.123,-0.5012 1.123,-1.123 v -0.3125 c 0,0.6218 -0.5012,1.123 -1.123,1.123 H 3.933 c -0.6218,0 -1.123,-0.5012 -1.123,-1.123 v 0.3125 c 0,0.6218 0.5012,1.123 1.123,1.123 z"
       fill="#3e2723"
       opacity="0.2"
       id="path121" />
  </g>
  <g
     transform="matrix(0.96427,0,0,0.96427,0.67242,-988.3)"
     id="g135">
    <path
       id="path127"
       style="stroke-width:0.0404451;fill:#ffffff;fill-opacity:1;stroke-miterlimit:4;stroke-dasharray:none"
       d="m 15.771187,1035.8587 c -0.05709,0 -0.110175,0.01 -0.16153,0.026 -0.01284,0.01 -0.0264,0.01 -0.03876,0.013 l -4.897574,1.7187 -0.04523,0.013 c -0.212423,0.069 -0.361818,0.2788 -0.361818,0.5297 0,0.2121 0.108897,0.391 0.271368,0.4846 v 0.01 c 0.01292,0.01 0.02523,0.013 0.03877,0.019 l 1.847899,0.9628 1.085474,2.0869 c 0.0074,0.019 0.01652,0.034 0.02585,0.052 0.08852,0.1695 0.258579,0.2843 0.452288,0.2843 0.229839,0 0.423862,-0.1582 0.491055,-0.3812 l 1.770365,-5.0462 c 0.0016,-0.01 0.0048,-0.01 0.0065,-0.013 0.02299,-0.063 0.0323,-0.1285 0.0323,-0.2002 -3e-6,-0.307 -0.23143,-0.5557 -0.516906,-0.5557 z M 11.192,1047.3 c -0.38394,0 -0.695178,-0.3113 -0.69515,-0.6952 v -2.0855 h -2.7806 c -0.7678415,0 -1.3903,-0.6225 -1.3903,-1.3903 v -8.3417 c 0,-0.7717 0.62564,-1.3904 1.3903,-1.3904 h 11.122 c 0.767881,0 1.390355,0.6225 1.3903,1.3904 v 8.3417 c 0,0.7678 -0.622459,1.3903 -1.3903,1.3903 h -4.2404 l -2.5721,2.5791 c -0.13903,0.1324 -0.31282,0.2016 -0.48661,0.2016 h -0.34758 m 0.69515,-4.171 v 2.1411 l 2.1411,-2.1411 h 4.8104 v -8.3417 h -11.122 v 8.3417 h 4.1709" />
  </g>
  <g
     display="none"
     fill="none"
     id="g143">
    <rect
       transform="rotate(90)"
       x="7.3342"
       y="-19.616"
       width="12.282"
       height="12.282"
       display="inline"
       stroke="#000"
       stroke-width=".065984"
       id="rect137" />
    <rect
       x="6.7726"
       y="8.112"
       width="13.405"
       height="10.726"
       stroke="#5261ff"
       stroke-linecap="round"
       stroke-linejoin="round"
       stroke-width=".06524"
       id="rect139" />
    <rect
       transform="rotate(90)"
       x="6.7726"
       y="-18.838"
       width="13.405"
       height="10.726"
       display="inline"
       stroke="#0f0"
       stroke-linecap="round"
       stroke-linejoin="round"
       stroke-width=".06524"
       id="rect141" />
  </g>
</svg>
