<?xml version="1.0" encoding="UTF-8" standalone="no"?>
<svg
   xmlns:dc="http://purl.org/dc/elements/1.1/"
   xmlns:cc="http://creativecommons.org/ns#"
   xmlns:rdf="http://www.w3.org/1999/02/22-rdf-syntax-ns#"
   xmlns:svg="http://www.w3.org/2000/svg"
   xmlns="http://www.w3.org/2000/svg"
   xmlns:sodipodi="http://sodipodi.sourceforge.net/DTD/sodipodi-0.dtd"
   xmlns:inkscape="http://www.inkscape.org/namespaces/inkscape"
   version="1.1"
   viewBox="0 0 28.747 28.747"
   id="svg137"
   sodipodi:docname="spotify.svg"
   inkscape:version="1.0.2 (e86c870879, 2021-01-15)">
  <metadata
     id="metadata141">
    <rdf:RDF>
      <cc:Work
         rdf:about="">
        <dc:format>image/svg+xml</dc:format>
        <dc:type
           rdf:resource="http://purl.org/dc/dcmitype/StillImage" />
      </cc:Work>
    </rdf:RDF>
  </metadata>
  <sodipodi:namedview
     pagecolor="#ffffff"
     bordercolor="#666666"
     borderopacity="1"
     objecttolerance="10"
     gridtolerance="10"
     guidetolerance="10"
     inkscape:pageopacity="0"
     inkscape:pageshadow="2"
     inkscape:window-width="1920"
     inkscape:window-height="1163"
     id="namedview139"
     showgrid="false"
     inkscape:zoom="9.9005281"
     inkscape:cx="11.751224"
     inkscape:cy="14.887085"
     inkscape:window-x="0"
     inkscape:window-y="0"
     inkscape:window-maximized="1"
     inkscape:current-layer="svg137" />
  <defs
     id="defs5">
    <filter
       id="filter6206-7"
       color-interpolation-filters="sRGB">
      <feGaussianBlur
         stdDeviation="0.658125"
         id="feGaussianBlur2" />
    </filter>
  </defs>
  <g
     transform="translate(0 -1093.8)"
     id="g123">
    <path
       transform="matrix(1.0781 0 0 1.0641 -.093733 2.7509)"
       d="m4.4177 1028.2v1.6051h-1.6052v18.192h1.6052v2.1402h18.192v-2.1402h2.1402v-18.192h-2.1402v-1.6051z"
       fill="#263238"
       filter="url(#filter6206-7)"
       opacity=".2"
       id="path7" />
    <rect
       x="2.9987"
       y="1096.8"
       width="22.749"
       height="22.749"
       rx="1.1973"
       ry="1.1974"
       fill="#4caf50"
       id="rect9" />
    <g
       transform="translate(-22.32 1056.5)"
       id="g25">
      <path
         d="m0 0h51.2v51.2h-51.2z"
         fill="none"
         stroke-width="1.0667"
         id="path11" />
      <g
         transform="matrix(.33601 0 0 .33601 1.5296 73.043)"
         id="g15">
        <path
           d="m0 0h51.2v51.2h-51.2z"
           fill="none"
           stroke-width="1.0667"
           id="path13" />
      </g>
      <g
         transform="matrix(.37187 0 0 .37187 38.802 63.239)"
         id="g23">
        <path
           d="m0 0h51.2v51.2h-51.2z"
           fill="none"
           stroke-width="1.0667"
           id="path17" />
        <g
           transform="matrix(2.6891 0 0 2.6891 -82.906 -48.45)"
           id="g21">
          <path
             d="m0 0h51.2v51.2h-51.2z"
             fill="none"
             stroke-width="1.0667"
             id="path19" />
        </g>
      </g>
    </g>
    <path
       d="m4.1958 1096.8c-0.66332 0-1.1979 0.5346-1.1979 1.1979v0.3334c0-0.6634 0.53459-1.1979 1.1979-1.1979h20.354c0.66332 0 1.1979 0.5345 1.1979 1.1979v-0.3334c0-0.6633-0.5346-1.1979-1.1979-1.1979z"
       fill="#fff"
       opacity=".2"
       id="path27" />
    <rect
       x="128"
       y="546.52"
       width="42.667"
       height="42.667"
       fill="none"
       stroke-width="1.0667"
       id="rect29" />
    <rect
       x="128"
       y="631.85"
       width="42.667"
       height="42.667"
       fill="none"
       stroke-width="1.0667"
       id="rect31" />
    <rect
       x="128"
       y="674.52"
       width="42.667"
       height="42.667"
       fill="none"
       stroke-width="1.0667"
       id="rect33" />
    <rect
       x="128"
       y="589.19"
       width="42.667"
       height="42.667"
       fill="none"
       stroke-width="1.0667"
       id="rect35" />
    <rect
       x="128"
       y="717.19"
       width="42.667"
       height="42.667"
       fill="none"
       stroke-width="1.0667"
       id="rect37" />
    <rect
       x="213.33"
       y="546.52"
       width="42.667"
       height="42.667"
       fill="none"
       stroke-width="1.0667"
       id="rect39" />
    <rect
       x="213.33"
       y="631.85"
       width="42.667"
       height="42.667"
       fill="none"
       stroke-width="1.0667"
       id="rect41" />
    <rect
       x="213.33"
       y="674.52"
       width="42.667"
       height="42.667"
       fill="none"
       stroke-width="1.0667"
       id="rect43" />
    <rect
       x="213.33"
       y="589.19"
       width="42.667"
       height="42.667"
       fill="none"
       stroke-width="1.0667"
       id="rect45" />
    <rect
       x="213.33"
       y="717.19"
       width="42.667"
       height="42.667"
       fill="none"
       stroke-width="1.0667"
       id="rect47" />
    <rect
       x="298.67"
       y="546.52"
       width="42.667"
       height="42.667"
       fill="none"
       stroke-width="1.0667"
       id="rect49" />
    <rect
       x="298.67"
       y="631.85"
       width="42.667"
       height="42.667"
       fill="none"
       stroke-width="1.0667"
       id="rect51" />
    <rect
       x="298.67"
       y="674.52"
       width="42.667"
       height="42.667"
       fill="none"
       stroke-width="1.0667"
       id="rect53" />
    <rect
       x="298.67"
       y="589.19"
       width="42.667"
       height="42.667"
       fill="none"
       stroke-width="1.0667"
       id="rect55" />
    <rect
       x="298.67"
       y="717.19"
       width="42.667"
       height="42.667"
       fill="none"
       stroke-width="1.0667"
       id="rect57" />
    <rect
       x="170.67"
       y="546.52"
       width="42.667"
       height="42.667"
       fill="none"
       stroke-width="1.0667"
       id="rect59" />
    <rect
       x="170.67"
       y="631.85"
       width="42.667"
       height="42.667"
       fill="none"
       stroke-width="1.0667"
       id="rect61" />
    <rect
       x="170.67"
       y="674.52"
       width="42.667"
       height="42.667"
       fill="none"
       stroke-width="1.0667"
       id="rect63" />
    <rect
       x="170.67"
       y="589.19"
       width="42.667"
       height="42.667"
       fill="none"
       stroke-width="1.0667"
       id="rect65" />
    <rect
       x="170.67"
       y="717.19"
       width="42.667"
       height="42.667"
       fill="none"
       stroke-width="1.0667"
       id="rect67" />
    <rect
       x="256"
       y="546.52"
       width="42.667"
       height="42.667"
       fill="none"
       stroke-width="1.0667"
       id="rect69" />
    <rect
       x="256"
       y="631.85"
       width="42.667"
       height="42.667"
       fill="none"
       stroke-width="1.0667"
       id="rect71" />
    <rect
       x="256"
       y="674.52"
       width="42.667"
       height="42.667"
       fill="none"
       stroke-width="1.0667"
       id="rect73" />
    <rect
       x="256"
       y="589.19"
       width="42.667"
       height="42.667"
       fill="none"
       stroke-width="1.0667"
       id="rect75" />
    <rect
       x="256"
       y="717.19"
       width="42.667"
       height="42.667"
       fill="none"
       stroke-width="1.0667"
       id="rect77" />
    <rect
       x="128"
       y="759.85"
       width="42.667"
       height="42.667"
       fill="none"
       stroke-width="1.0667"
       id="rect79" />
    <rect
       x="213.33"
       y="759.85"
       width="42.667"
       height="42.667"
       fill="none"
       stroke-width="1.0667"
       id="rect81" />
    <rect
       x="298.67"
       y="759.85"
       width="42.667"
       height="42.667"
       fill="none"
       stroke-width="1.0667"
       id="rect83" />
    <rect
       x="170.67"
       y="759.85"
       width="42.667"
       height="42.667"
       fill="none"
       stroke-width="1.0667"
       id="rect85" />
    <rect
       x="256"
       y="759.85"
       width="42.667"
       height="42.667"
       fill="none"
       stroke-width="1.0667"
       id="rect87" />
    <rect
       x="341.33"
       y="589.19"
       width="42.667"
       height="42.667"
       fill="none"
       stroke-width="1.0667"
       id="rect89" />
    <rect
       x="341.33"
       y="631.85"
       width="42.667"
       height="42.667"
       fill="none"
       stroke-width="1.0667"
       id="rect91" />
    <rect
       x="341.33"
       y="717.19"
       width="42.667"
       height="42.667"
       fill="none"
       stroke-width="1.0667"
       id="rect93" />
    <rect
       x="341.33"
       y="546.52"
       width="42.667"
       height="42.667"
       fill="none"
       stroke-width="1.0667"
       id="rect95" />
    <rect
       x="341.33"
       y="674.52"
       width="42.667"
       height="42.667"
       fill="none"
       stroke-width="1.0667"
       id="rect97" />
    <rect
       x="341.33"
       y="759.85"
       width="42.667"
       height="42.667"
       fill="none"
       stroke-width="1.0667"
       id="rect99" />
    <rect
       x="160"
       y="578.52"
       width="192"
       height="192"
       fill="none"
       stroke-width="1.0667"
       id="rect101" />
    <g
       transform="matrix(.37344 0 0 .37344 4.7333 1097.4)"
       id="g105">
      <path
         d="m0 0h51.2v51.2h-51.2z"
         fill="none"
         stroke-width="1.0667"
         id="path103" />
    </g>
    <g
       transform="matrix(.36471 0 0 .36471 5.1356 1097.4)"
       id="g109">
      <path
         d="m0 0h51.2v51.2h-51.2z"
         fill="none"
         stroke-width="1.0667"
         id="path107" />
    </g>
    <g
       transform="matrix(.41585 0 0 .41585 84.325 1055.9)"
       id="g119">
      <g
         transform="matrix(.062269 0 0 .062269 -28.238 185.29)"
         id="g117">
        <g
           transform="matrix(38.618 0 0 38.618 14724 -13542)"
           id="g115">
          <g
             transform="matrix(.71436 0 0 .71436 -400.52 188.34)"
             id="g113">
            <path
               d="m1293.2-120.67c-181.75 0.2763-511.18 0.13525-699.05 0.13998-2.3216 10.413-3.593 21.251-3.593 32.384v114c207.65 0.73695 494.72 0.38136 706.23 0.3733v-114.37c0-11.18-1.2522-22.07-3.593-32.523zm-458.69 295.56c-78.385-4e-3 -158.85 0.17892-243.95 0.55995v138.63c286.34-0.39317 421.73-0.13827 706.23-0.32664v-137.75c-163.2-0.53005-311.22-1.1113-462.28-1.1199z"
               opacity="0"
               stroke-width="1.4932"
               id="path111" />
          </g>
        </g>
      </g>
    </g>
    <path
       d="m24.549 1119.5c0.66325 0 1.1979-0.5346 1.1979-1.1979v-0.3333c0 0.6632-0.53461 1.1978-1.1979 1.1978h-20.354c-0.66325 0-1.1979-0.5346-1.1979-1.1978v0.3333c0 0.6633 0.53461 1.1979 1.1979 1.1979z"
       fill="#263238"
       opacity=".2"
       id="path121" />
  </g>
  <g
     id="g127"
     style="fill:#ffffff;fill-opacity:1">
    <path
       d="m12.996 9.6785c-1.734 0.00188-3.481 0.22399-5.1462 0.63481a0.87765 0.87765 0 0 0-0.64167 1.0625 0.87765 0.87765 0 0 0 1.0622 0.64195c4.0741-1.0051 8.708-0.72118 11.979 1.1551a0.87765 0.87765 0 0 0 1.1979-0.32454 0.87765 0.87765 0 0 0-0.32454-1.1979c-2.3818-1.3663-5.2364-1.975-8.1265-1.9719zm-0.10172 3.4397c-1.5577-0.02232-3.1153 0.18247-4.4874 0.62053a0.73137 0.73137 0 0 0-0.47425 0.91936 0.73137 0.73137 0 0 0 0.91936 0.47425c3.1385-1.002 7.9631-0.42653 10.112 1.1428a0.73137 0.73137 0 0 0 1.0219-0.15913 0.73137 0.73137 0 0 0-0.15913-1.0219c-1.7393-1.2705-4.3359-1.9387-6.932-1.9758zm-0.63881 3.3083c-1.1161 0.01728-2.2599 0.16166-3.4026 0.42597a0.5851 0.5851 0 0 0-0.43825 0.70195 0.5851 0.5851 0 0 0 0.70195 0.43825c3.2502-0.75178 6.4362-0.43709 8.795 0.99078a0.5851 0.5851 0 0 0 0.80365-0.19742 0.5851 0.5851 0 0 0-0.19769-0.80365c-1.6811-1.0176-3.6758-1.5191-5.7856-1.5556-0.15825-0.0027-0.31709-0.0027-0.47654-2.93e-4z"
       color="#000000"
       color-rendering="auto"
       dominant-baseline="auto"
       fill="#ffffd3"
       image-rendering="auto"
       shape-rendering="auto"
       solid-color="#000000"
       stop-color="#000000"
       style="font-feature-settings:normal;font-variant-alternates:normal;font-variant-caps:normal;font-variant-east-asian:normal;font-variant-ligatures:normal;font-variant-numeric:normal;font-variant-position:normal;font-variation-settings:normal;inline-size:0;isolation:auto;mix-blend-mode:normal;shape-margin:0;shape-padding:0;text-decoration-color:#000000;text-decoration-line:none;text-decoration-style:solid;text-indent:0;text-orientation:mixed;text-transform:none;white-space:normal;fill:#ffffff;fill-opacity:1"
       id="path125" />
  </g>
  <g
     display="none"
     fill="none"
     id="g135">
    <rect
       transform="rotate(90)"
       x="7.8232"
       y="-20.923"
       width="13.1"
       height="13.1"
       display="inline"
       stroke="#000"
       stroke-width=".070382"
       id="rect129" />
    <rect
       x="7.2241"
       y="8.6528"
       width="14.298"
       height="11.441"
       stroke="#5261ff"
       stroke-linecap="round"
       stroke-linejoin="round"
       stroke-width=".06959"
       id="rect131" />
    <rect
       transform="rotate(90)"
       x="7.2241"
       y="-20.094"
       width="14.298"
       height="11.441"
       display="inline"
       stroke="#0f0"
       stroke-linecap="round"
       stroke-linejoin="round"
       stroke-width=".06959"
       id="rect133" />
  </g>
</svg>
