<svg width="40" height="40" viewBox="0 0 40 40" fill="none" xmlns="http://www.w3.org/2000/svg">
<g opacity="0.2" filter="url(#filter0_f)">
<path d="M6.49662 4.30231V6.67899H4.08865V33.6163H6.49662V36.7852H33.787V33.6163H36.9976V6.67899H33.787V4.30231H6.49662Z" fill="#1A237E"/>
</g>
<path d="M34.1614 4.1727H5.83856C4.91843 4.1727 4.17252 4.91864 4.17252 5.83882V34.1614C4.17252 35.0816 4.91843 35.8275 5.83856 35.8275H34.1614C35.0815 35.8275 35.8274 35.0816 35.8274 34.1614V5.83882C35.8274 4.91864 35.0815 4.1727 34.1614 4.1727Z" fill="#2196F3"/>
<path opacity="0.2" d="M5.83834 4.17151C4.91535 4.17151 4.17148 4.91535 4.17148 5.83831V6.30236C4.17148 5.37926 4.91535 4.63539 5.83834 4.63539H34.1605C35.0835 4.63539 35.8273 5.37926 35.8273 6.30236V5.83831C35.8273 4.91535 35.0835 4.17151 34.1605 4.17151H5.83834Z" fill="white"/>
<path opacity="0.2" d="M34.1597 35.8591C35.0826 35.8591 35.8265 35.1153 35.8265 34.1923V33.7284C35.8265 34.6512 35.0826 35.3952 34.1597 35.3952H5.83745C4.91455 35.3952 4.17065 34.6512 4.17065 33.7284V34.1923C4.17065 35.1153 4.91455 35.8591 5.83745 35.8591H34.1597Z" fill="#1A237E"/>
<path fill-rule="evenodd" clip-rule="evenodd" d="M13 11C11.8954 11 11 11.8954 11 13V27C11 28.1046 11.8954 29 13 29H27C28.1046 29 29 28.1046 29 27V13C29 11.8954 28.1046 11 27 11H13ZM18.3846 19.5385C18.3846 18.9044 18.5627 18.5312 18.7777 18.3162C18.9927 18.1012 19.3659 17.9231 20 17.9231C20.6341 17.9231 21.0073 18.1012 21.2223 18.3162C21.4373 18.5312 21.6154 18.9044 21.6154 19.5385V24.1538H23.4615V19.5385C23.4615 18.5572 23.1781 17.6611 22.5277 17.0107C21.8773 16.3604 20.9813 16.0769 20 16.0769C19.0187 16.0769 18.1227 16.3604 17.4723 17.0107C16.8219 17.6611 16.5385 18.5572 16.5385 19.5385V24.1538H18.3846V19.5385Z" fill="white"/>
<defs>
<filter id="filter0_f" x="3.38374" y="3.5974" width="34.3187" height="33.8928" filterUnits="userSpaceOnUse" color-interpolation-filters="sRGB">
<feFlood flood-opacity="0" result="BackgroundImageFix"/>
<feBlend mode="normal" in="SourceGraphic" in2="BackgroundImageFix" result="shape"/>
<feGaussianBlur stdDeviation="0.352455" result="effect1_foregroundBlur"/>
</filter>
</defs>
</svg>
