<?xml version="1.0" encoding="UTF-8" standalone="no"?>
<svg
   xmlns:dc="http://purl.org/dc/elements/1.1/"
   xmlns:cc="http://creativecommons.org/ns#"
   xmlns:rdf="http://www.w3.org/1999/02/22-rdf-syntax-ns#"
   xmlns:svg="http://www.w3.org/2000/svg"
   xmlns="http://www.w3.org/2000/svg"
   xmlns:sodipodi="http://sodipodi.sourceforge.net/DTD/sodipodi-0.dtd"
   xmlns:inkscape="http://www.inkscape.org/namespaces/inkscape"
   version="1.1"
   viewBox="0 0 26.95 26.95"
   id="svg161"
   sodipodi:docname="syncthing.svg"
   inkscape:version="1.0.1 (3bc2e813f5, 2020-09-07)">
  <metadata
     id="metadata165">
    <rdf:RDF>
      <cc:Work
         rdf:about="">
        <dc:format>image/svg+xml</dc:format>
        <dc:type
           rdf:resource="http://purl.org/dc/dcmitype/StillImage" />
      </cc:Work>
    </rdf:RDF>
  </metadata>
  <sodipodi:namedview
     pagecolor="#ffffff"
     bordercolor="#666666"
     borderopacity="1"
     objecttolerance="10"
     gridtolerance="10"
     guidetolerance="10"
     inkscape:pageopacity="0"
     inkscape:pageshadow="2"
     inkscape:window-width="1920"
     inkscape:window-height="1168"
     id="namedview163"
     showgrid="false"
     inkscape:zoom="19.783247"
     inkscape:cx="4.4741657"
     inkscape:cy="21.370508"
     inkscape:window-x="0"
     inkscape:window-y="0"
     inkscape:window-maximized="1"
     inkscape:current-layer="svg161"
     inkscape:document-rotation="0" />
  <defs
     id="defs5">
    <filter
       id="filter6206-7"
       color-interpolation-filters="sRGB">
      <feGaussianBlur
         stdDeviation="0.658125"
         id="feGaussianBlur2" />
    </filter>
  </defs>
  <g
     transform="translate(0 -1025.4)"
     id="g123">
    <path
       transform="matrix(1.0107 0 0 .99762 -.087875 2.579)"
       d="m4.4177 1028.2v1.6051h-1.6052v18.192h1.6052v2.1402h18.192v-2.1402h2.1402v-18.192h-2.1402v-1.6051h-18.192z"
       fill="#263238"
       filter="url(#filter6206-7)"
       opacity=".2"
       id="path7" />
    <rect
       x="2.8113"
       y="1028.2"
       width="21.327"
       height="21.327"
       rx="1.1225"
       ry="1.1226"
       fill="#03a9f4"
       id="rect9" />
    <g
       transform="translate(-20.925 990.46)"
       id="g25">
      <path
         d="m0 0h48v48h-48z"
         fill="none"
         id="path11" />
      <g
         transform="matrix(.33601 0 0 .33601 1.434 68.477)"
         id="g15">
        <path
           d="m0 0h48v48h-48z"
           fill="none"
           id="path13" />
      </g>
      <g
         transform="matrix(.37187 0 0 .37187 36.377 59.287)"
         id="g23">
        <path
           d="m0 0h48v48h-48z"
           fill="none"
           id="path17" />
        <g
           transform="matrix(2.6891 0 0 2.6891 -77.724 -45.422)"
           id="g21">
          <path
             d="m0 0h48v48h-48z"
             fill="none"
             id="path19" />
        </g>
      </g>
    </g>
    <path
       transform="translate(0 1025.4)"
       d="m3.9336 2.8105c-0.62186 0-1.123 0.50115-1.123 1.123v0.3125c0-0.6219 0.50118-1.123 1.123-1.123h19.082c0.62186 0 1.123 0.50115 1.123 1.123v-0.3125c0-0.6219-0.50118-1.123-1.123-1.123h-19.082z"
       fill="#fff"
       opacity=".2"
       id="path27" />
    <rect
       x="120"
       y="512.36"
       width="40"
       height="40"
       fill="none"
       id="rect29" />
    <rect
       x="120"
       y="592.36"
       width="40"
       height="40"
       fill="none"
       id="rect31" />
    <rect
       x="120"
       y="632.36"
       width="40"
       height="40"
       fill="none"
       id="rect33" />
    <rect
       x="120"
       y="552.36"
       width="40"
       height="40"
       fill="none"
       id="rect35" />
    <rect
       x="120"
       y="672.36"
       width="40"
       height="40"
       fill="none"
       id="rect37" />
    <rect
       x="200"
       y="512.36"
       width="40"
       height="40"
       fill="none"
       id="rect39" />
    <rect
       x="200"
       y="592.36"
       width="40"
       height="40"
       fill="none"
       id="rect41" />
    <rect
       x="200"
       y="632.36"
       width="40"
       height="40"
       fill="none"
       id="rect43" />
    <rect
       x="200"
       y="552.36"
       width="40"
       height="40"
       fill="none"
       id="rect45" />
    <rect
       x="200"
       y="672.36"
       width="40"
       height="40"
       fill="none"
       id="rect47" />
    <rect
       x="280"
       y="512.36"
       width="40"
       height="40"
       fill="none"
       id="rect49" />
    <rect
       x="280"
       y="592.36"
       width="40"
       height="40"
       fill="none"
       id="rect51" />
    <rect
       x="280"
       y="632.36"
       width="40"
       height="40"
       fill="none"
       id="rect53" />
    <rect
       x="280"
       y="552.36"
       width="40"
       height="40"
       fill="none"
       id="rect55" />
    <rect
       x="280"
       y="672.36"
       width="40"
       height="40"
       fill="none"
       id="rect57" />
    <rect
       x="160"
       y="512.36"
       width="40"
       height="40"
       fill="none"
       id="rect59" />
    <rect
       x="160"
       y="592.36"
       width="40"
       height="40"
       fill="none"
       id="rect61" />
    <rect
       x="160"
       y="632.36"
       width="40"
       height="40"
       fill="none"
       id="rect63" />
    <rect
       x="160"
       y="552.36"
       width="40"
       height="40"
       fill="none"
       id="rect65" />
    <rect
       x="160"
       y="672.36"
       width="40"
       height="40"
       fill="none"
       id="rect67" />
    <rect
       x="240"
       y="512.36"
       width="40"
       height="40"
       fill="none"
       id="rect69" />
    <rect
       x="240"
       y="592.36"
       width="40"
       height="40"
       fill="none"
       id="rect71" />
    <rect
       x="240"
       y="632.36"
       width="40"
       height="40"
       fill="none"
       id="rect73" />
    <rect
       x="240"
       y="552.36"
       width="40"
       height="40"
       fill="none"
       id="rect75" />
    <rect
       x="240"
       y="672.36"
       width="40"
       height="40"
       fill="none"
       id="rect77" />
    <rect
       x="120"
       y="712.36"
       width="40"
       height="40"
       fill="none"
       id="rect79" />
    <rect
       x="200"
       y="712.36"
       width="40"
       height="40"
       fill="none"
       id="rect81" />
    <rect
       x="280"
       y="712.36"
       width="40"
       height="40"
       fill="none"
       id="rect83" />
    <rect
       x="160"
       y="712.36"
       width="40"
       height="40"
       fill="none"
       id="rect85" />
    <rect
       x="240"
       y="712.36"
       width="40"
       height="40"
       fill="none"
       id="rect87" />
    <rect
       x="320"
       y="552.36"
       width="40"
       height="40"
       fill="none"
       id="rect89" />
    <rect
       x="320"
       y="592.36"
       width="40"
       height="40"
       fill="none"
       id="rect91" />
    <rect
       x="320"
       y="672.36"
       width="40"
       height="40"
       fill="none"
       id="rect93" />
    <rect
       x="320"
       y="512.36"
       width="40"
       height="40"
       fill="none"
       id="rect95" />
    <rect
       x="320"
       y="632.36"
       width="40"
       height="40"
       fill="none"
       id="rect97" />
    <rect
       x="320"
       y="712.36"
       width="40"
       height="40"
       fill="none"
       id="rect99" />
    <rect
       x="150"
       y="542.36"
       width="180"
       height="180"
       fill="none"
       id="rect101" />
    <g
       transform="matrix(.37344 0 0 .37344 4.4375 1028.8)"
       id="g105">
      <path
         d="m0 0h48v48h-48z"
         fill="none"
         id="path103" />
    </g>
    <g
       transform="matrix(.36471 0 0 .36471 4.8146 1028.8)"
       id="g109">
      <path
         d="m0 0h48v48h-48z"
         fill="none"
         id="path107" />
    </g>
    <g
       transform="matrix(.41585 0 0 .41585 79.055 989.88)"
       id="g119">
      <g
         transform="matrix(.062269 0 0 .062269 -26.473 173.71)"
         id="g117">
        <g
           transform="matrix(38.618 0 0 38.618 13804 -12696)"
           id="g115">
          <g
             transform="matrix(.71436 0 0 .71436 -375.49 176.57)"
             id="g113">
            <path
               transform="matrix(1.3999 0 0 1.3999 525.63 -247.17)"
               d="m490.56 95.75c-121.72 0.18504-342.34 0.090577-468.16 0.09375-1.5548 6.9739-2.4062 14.232-2.4062 21.688v76.344c139.06 0.49354 331.32 0.2554 472.97 0.25v-76.594c0-7.4875-0.8386-14.78-2.4062-21.781zm-307.19 197.94c-52.495-3e-3 -106.38 0.11982-163.38 0.375v92.844c191.76-0.26331 282.43-0.0926 472.97-0.21875v-92.25c-109.29-0.35498-208.43-0.74426-309.59-0.75z"
               opacity="0"
               id="path111" />
          </g>
        </g>
      </g>
    </g>
    <path
       d="m23.015 1049.6c0.6218 0 1.123-0.5012 1.123-1.123v-0.3125c0 0.6218-0.5012 1.123-1.123 1.123h-19.082c-0.6218 0-1.123-0.5012-1.123-1.123v0.3125c0 0.6218 0.5012 1.123 1.123 1.123h19.082z"
       fill="#263238"
       opacity=".2"
       id="path121" />
  </g>
  <flowRoot
     transform="matrix(1.1131 0 0 1.1131 -.9146 -2.1642)"
     fill="#000000"
     font-family="Roboto"
     font-size="3.75px"
     letter-spacing="0px"
     stroke-width="1px"
     word-spacing="0px"
     style="line-height:125%"
     xml:space="preserve"
     id="flowRoot131"><flowRegion
       id="flowRegion127"><rect
         x="10.664"
         y="11.235"
         width="4.49"
         height="5.0512"
         id="rect125" /></flowRegion><flowPara
       id="flowPara129">your</flowPara></flowRoot>
  <g
     transform="matrix(.96427 0 0 .96427 .67242 -988.3)"
     id="g151">
    <g
       transform="matrix(1.0217 0 0 1.0217 -.46502 -22.573)"
       id="g149">
      <path
         id="ellipse133"
         style="fill:#ffffff;stroke-width:1.65911"
         d="m 13.463599,1032.1605 c -3.7040072,0 -6.7166294,3.0146 -6.7166294,6.7186 -1e-7,0.054 0.00668,0.1054 0.00793,0.1586 a 1.6035027,1.6035432 0 0 0 -0.7652358,1.366 1.6035027,1.6035432 0 0 0 1.5344367,1.6018 c 1.1275455,2.1314 3.3649585,3.5903 5.9394985,3.5903 1.073723,0 2.08663,-0.26 2.987592,-0.7098 a 1.6035027,1.6035432 0 0 0 0.9615,0.3212 1.6035027,1.6035432 0 0 0 1.603823,-1.6038 1.6035027,1.6035432 0 0 0 -0.170492,-0.7216 c 0.834638,-1.1194 1.334206,-2.502 1.334206,-4.0027 0,-0.5043 -0.06068,-0.9941 -0.166528,-1.467 a 1.6035027,1.6035432 0 0 0 0.551128,-1.2073 1.6035027,1.6035432 0 0 0 -1.603823,-1.6039 1.6035027,1.6035432 0 0 0 -0.05154,0 1.6035027,1.6035432 0 0 0 -0.24781,0.028 c -1.232623,-1.5057 -3.104884,-2.4682 -5.198052,-2.4682 z m 0,1.0051 c 1.72258,0 3.261857,0.7595 4.307921,1.9607 0,0 0,0 0,0 a 1.6035027,1.6035432 0 0 0 -0.414338,1.0765 1.6035027,1.6035432 0 0 0 0.101106,0.5551 l -1.893264,1.5741 a 1.6035027,1.6035432 0 0 0 -0.830658,-0.234 1.6035027,1.6035432 0 0 0 -1.556244,1.2212 l -4.1413925,0.3886 a 1.6035027,1.6035432 0 0 0 -1.2826621,-0.902 c 0.038536,-3.1281 2.5721696,-5.6422 5.7095316,-5.6422 z m 4.621152,4.3793 a 1.6035027,1.6035432 0 0 0 0.876254,0.2617 1.6035027,1.6035432 0 0 0 0.111019,0 c 0.06617,0.3488 0.105072,0.7082 0.105072,1.0765 0,1.2284 -0.388508,2.3605 -1.044765,3.2909 a 1.6035027,1.6035432 0 0 0 -0.71964,-0.1705 1.6035027,1.6035432 0 0 0 -0.420284,0.056 l -0.969431,-1.3977 a 1.6035027,1.6035432 0 0 0 0.31323,-0.9536 1.6035027,1.6035432 0 0 0 -0.118948,-0.6046 z m -4.829312,2.7775 a 1.6035027,1.6035432 0 0 0 1.478927,0.9853 1.6035027,1.6035432 0 0 0 0.469847,-0.071 l 0.951588,1.3739 a 1.6035027,1.6035432 0 0 0 -0.344951,0.9932 1.6035027,1.6035432 0 0 0 0.06542,0.452 c -0.733165,0.3416 -1.548639,0.5372 -2.412673,0.5372 -2.12586,0 -3.9699831,-1.1572 -4.9542081,-2.8746 a 1.6035027,1.6035432 0 0 0 0.6561995,-1.009 z" />
      <g
         id="g1003"
         transform="translate(0 1025.4)"
         style="opacity:1" />
    </g>
  </g>
  <g
     display="none"
     fill="none"
     id="g159">
    <rect
       transform="rotate(90)"
       x="7.3342"
       y="-19.616"
       width="12.282"
       height="12.282"
       display="inline"
       stroke="#000"
       stroke-width=".065984"
       id="rect153" />
    <rect
       x="6.7726"
       y="8.112"
       width="13.405"
       height="10.726"
       stroke="#5261ff"
       stroke-linecap="round"
       stroke-linejoin="round"
       stroke-width=".06524"
       id="rect155" />
    <rect
       transform="rotate(90)"
       x="6.7726"
       y="-18.838"
       width="13.405"
       height="10.726"
       display="inline"
       stroke="#0f0"
       stroke-linecap="round"
       stroke-linejoin="round"
       stroke-width=".06524"
       id="rect157" />
  </g>
</svg>
