<svg width="40" height="40" viewBox="0 0 40 40" fill="none" xmlns="http://www.w3.org/2000/svg">
<g opacity="0.2" filter="url(#filter0_f)">
<path d="M6.49664 4.30231V6.67899H4.08867V33.6163H6.49664V36.7852H33.787V33.6163H36.9976V6.67899H33.787V4.30231H6.49664Z" fill="#263238"/>
</g>
<path d="M34.1614 4.1727H5.83858C4.91845 4.1727 4.17254 4.91864 4.17254 5.83882V34.1614C4.17254 35.0816 4.91845 35.8275 5.83858 35.8275H34.1614C35.0815 35.8275 35.8275 35.0816 35.8275 34.1614V5.83882C35.8275 4.91864 35.0815 4.1727 34.1614 4.1727Z" fill="#8BC34A"/>
<path opacity="0.2" d="M5.83836 4.17151C4.91537 4.17151 4.1715 4.91535 4.1715 5.83831V6.30236C4.1715 5.37926 4.91537 4.63539 5.83836 4.63539H34.1605C35.0835 4.63539 35.8273 5.37926 35.8273 6.30236V5.83831C35.8273 4.91535 35.0835 4.17151 34.1605 4.17151H5.83836Z" fill="white"/>
<path opacity="0.2" d="M34.1597 35.8591C35.0826 35.8591 35.8265 35.1153 35.8265 34.1923V33.7284C35.8265 34.6512 35.0826 35.3952 34.1597 35.3952H5.83747C4.91458 35.3952 4.17068 34.6512 4.17068 33.7284V34.1923C4.17068 35.1153 4.91458 35.8591 5.83747 35.8591H34.1597Z" fill="#263238"/>
<path d="M25.5128 14.4872L24.7717 14.372L24.6142 15.3858L25.628 15.2283L25.5128 14.4872ZM21.2308 18.7692H20.4808V19.5192H21.2308V18.7692ZM26.2539 14.6023C26.2767 14.4557 26.2885 14.3059 26.2885 14.1538H24.7885C24.7885 14.2285 24.7827 14.3014 24.7717 14.372L26.2539 14.6023ZM25.8462 13.7115C25.6941 13.7115 25.5443 13.7233 25.3977 13.7461L25.628 15.2283C25.6987 15.2173 25.7715 15.2115 25.8462 15.2115V13.7115ZM28.75 16.6154C28.75 15.0116 27.4499 13.7115 25.8462 13.7115V15.2115C26.6215 15.2115 27.25 15.8401 27.25 16.6154H28.75ZM25.8462 19.5192C27.4499 19.5192 28.75 18.2191 28.75 16.6154H27.25C27.25 17.3907 26.6215 18.0192 25.8462 18.0192V19.5192ZM25.8462 18.0192H21.2308V19.5192H25.8462V18.0192ZM21.9808 18.7692V14.1538H20.4808V18.7692H21.9808ZM23.3846 11.25C21.7809 11.25 20.4808 12.5501 20.4808 14.1538H21.9808C21.9808 13.3785 22.6093 12.75 23.3846 12.75V11.25ZM26.2885 14.1538C26.2885 12.5501 24.9884 11.25 23.3846 11.25V12.75C24.1599 12.75 24.7885 13.3785 24.7885 14.1538H26.2885Z" fill="white"/>
<path d="M14.4872 14.4872L15.2283 14.372L15.3858 15.3858L14.372 15.2283L14.4872 14.4872ZM18.7692 18.7692H19.5192V19.5192H18.7692V18.7692ZM13.7461 14.6023C13.7233 14.4557 13.7115 14.3059 13.7115 14.1538H15.2115C15.2115 14.2285 15.2173 14.3014 15.2283 14.372L13.7461 14.6023ZM14.1538 13.7115C14.3059 13.7115 14.4557 13.7233 14.6023 13.7461L14.372 15.2283C14.3013 15.2173 14.2285 15.2115 14.1538 15.2115V13.7115ZM11.25 16.6154C11.25 15.0116 12.5501 13.7115 14.1538 13.7115V15.2115C13.3785 15.2115 12.75 15.8401 12.75 16.6154H11.25ZM14.1538 19.5192C12.5501 19.5192 11.25 18.2191 11.25 16.6154H12.75C12.75 17.3907 13.3785 18.0192 14.1538 18.0192V19.5192ZM14.1538 18.0192H18.7692V19.5192H14.1538V18.0192ZM18.0192 18.7692V14.1538H19.5192V18.7692H18.0192ZM16.6154 11.25C18.2191 11.25 19.5192 12.5501 19.5192 14.1538H18.0192C18.0192 13.3785 17.3907 12.75 16.6154 12.75V11.25ZM13.7115 14.1538C13.7115 12.5501 15.0116 11.25 16.6154 11.25V12.75C15.8401 12.75 15.2115 13.3785 15.2115 14.1538H13.7115Z" fill="white"/>
<path d="M25.5128 25.5128L24.7717 25.628L24.6142 24.6142L25.628 24.7717L25.5128 25.5128ZM21.2308 21.2308H20.4808V20.4808H21.2308V21.2308ZM26.2539 25.3977C26.2767 25.5443 26.2885 25.6941 26.2885 25.8462H24.7885C24.7885 25.7715 24.7827 25.6986 24.7717 25.628L26.2539 25.3977ZM25.8462 26.2885C25.6941 26.2885 25.5443 26.2767 25.3977 26.2539L25.628 24.7717C25.6987 24.7827 25.7715 24.7885 25.8462 24.7885V26.2885ZM28.75 23.3846C28.75 24.9884 27.4499 26.2885 25.8462 26.2885V24.7885C26.6215 24.7885 27.25 24.1599 27.25 23.3846H28.75ZM25.8462 20.4808C27.4499 20.4808 28.75 21.7809 28.75 23.3846H27.25C27.25 22.6093 26.6215 21.9808 25.8462 21.9808V20.4808ZM25.8462 21.9808H21.2308V20.4808H25.8462V21.9808ZM21.9808 21.2308V25.8462H20.4808V21.2308H21.9808ZM23.3846 28.75C21.7809 28.75 20.4808 27.4499 20.4808 25.8462H21.9808C21.9808 26.6215 22.6093 27.25 23.3846 27.25V28.75ZM26.2885 25.8462C26.2885 27.4499 24.9884 28.75 23.3846 28.75V27.25C24.1599 27.25 24.7885 26.6215 24.7885 25.8462H26.2885Z" fill="white"/>
<path d="M14.4872 25.5128L15.2283 25.628L15.3858 24.6142L14.372 24.7717L14.4872 25.5128ZM18.7692 21.2308H19.5192V20.4808H18.7692V21.2308ZM13.7461 25.3977C13.7233 25.5443 13.7115 25.6941 13.7115 25.8462H15.2115C15.2115 25.7715 15.2173 25.6986 15.2283 25.628L13.7461 25.3977ZM14.1538 26.2885C14.3059 26.2885 14.4557 26.2767 14.6023 26.2539L14.372 24.7717C14.3013 24.7827 14.2285 24.7885 14.1538 24.7885V26.2885ZM11.25 23.3846C11.25 24.9884 12.5501 26.2885 14.1538 26.2885V24.7885C13.3785 24.7885 12.75 24.1599 12.75 23.3846H11.25ZM14.1538 20.4808C12.5501 20.4808 11.25 21.7809 11.25 23.3846H12.75C12.75 22.6093 13.3785 21.9808 14.1538 21.9808V20.4808ZM14.1538 21.9808H18.7692V20.4808H14.1538V21.9808ZM18.0192 21.2308V25.8462H19.5192V21.2308H18.0192ZM16.6154 28.75C18.2191 28.75 19.5192 27.4499 19.5192 25.8462H18.0192C18.0192 26.6215 17.3907 27.25 16.6154 27.25V28.75ZM13.7115 25.8462C13.7115 27.4499 15.0116 28.75 16.6154 28.75V27.25C15.8401 27.25 15.2115 26.6215 15.2115 25.8462H13.7115Z" fill="white"/>
<path d="M25.5385 14.4615L21.2308 18.7692" stroke="white"/>
<path d="M14.4615 14.4615L18.7692 18.7692" stroke="white"/>
<path d="M25.5385 25.5385L21.2308 21.2308" stroke="white"/>
<path d="M14.4615 25.5385L18.7692 21.2308" stroke="white"/>
<defs>
<filter id="filter0_f" x="3.38376" y="3.5974" width="34.3187" height="33.8928" filterUnits="userSpaceOnUse" color-interpolation-filters="sRGB">
<feFlood flood-opacity="0" result="BackgroundImageFix"/>
<feBlend mode="normal" in="SourceGraphic" in2="BackgroundImageFix" result="shape"/>
<feGaussianBlur stdDeviation="0.352455" result="effect1_foregroundBlur"/>
</filter>
</defs>
</svg>
