<svg width="40" height="40" viewBox="0 0 40 40" fill="none" xmlns="http://www.w3.org/2000/svg">
<g opacity="0.2" filter="url(#filter0_f)">
<path d="M6.49664 4.30231V6.67899H4.08867V33.6163H6.49664V36.7852H33.787V33.6163H36.9976V6.67899H33.787V4.30231H6.49664Z" fill="#263238"/>
</g>
<path d="M34.1614 4.1727H5.83859C4.91846 4.1727 4.17255 4.91864 4.17255 5.83882V34.1614C4.17255 35.0816 4.91846 35.8275 5.83859 35.8275H34.1614C35.0815 35.8275 35.8275 35.0816 35.8275 34.1614V5.83882C35.8275 4.91864 35.0815 4.1727 34.1614 4.1727Z" fill="#607D8B"/>
<path opacity="0.2" d="M5.83837 4.17151C4.91538 4.17151 4.17151 4.91535 4.17151 5.83831V6.30236C4.17151 5.37926 4.91538 4.63539 5.83837 4.63539H34.1605C35.0835 4.63539 35.8274 5.37926 35.8274 6.30236V5.83831C35.8274 4.91535 35.0835 4.17151 34.1605 4.17151H5.83837Z" fill="white"/>
<path opacity="0.2" d="M34.1597 35.8591C35.0826 35.8591 35.8265 35.1153 35.8265 34.1923V33.7284C35.8265 34.6512 35.0826 35.3952 34.1597 35.3952H5.83748C4.91458 35.3952 4.17068 34.6512 4.17068 33.7284V34.1923C4.17068 35.1153 4.91458 35.8591 5.83748 35.8591H34.1597Z" fill="#263238"/>
<path d="M27.4342 11.4163C27.2638 11.4163 27.1053 11.4386 26.952 11.4935C26.9137 11.5072 26.8732 11.5153 26.8363 11.5321L12.2152 16.6629L12.0802 16.7015C11.446 16.9076 11 17.5342 11 18.2832C11 18.9162 11.3251 19.4502 11.8101 19.7299V19.7491C11.8487 19.771 11.8855 19.7886 11.9259 19.8069L17.4425 22.681L20.6831 28.9113C20.7054 28.968 20.7324 29.0123 20.7602 29.0656C21.0245 29.5717 21.5322 29.9143 22.1105 29.9143C22.7966 29.9143 23.3759 29.4421 23.5765 28.7763L28.8617 13.7116C28.8666 13.6986 28.8761 13.6863 28.8809 13.6731C28.9496 13.4853 28.9774 13.2891 28.9774 13.0751C28.9774 12.159 28.2865 11.4163 27.4342 11.4163Z" fill="white"/>
<defs>
<filter id="filter0_f" x="3.38376" y="3.5974" width="34.3187" height="33.8928" filterUnits="userSpaceOnUse" color-interpolation-filters="sRGB">
<feFlood flood-opacity="0" result="BackgroundImageFix"/>
<feBlend mode="normal" in="SourceGraphic" in2="BackgroundImageFix" result="shape"/>
<feGaussianBlur stdDeviation="0.352455" result="effect1_foregroundBlur"/>
</filter>
</defs>
</svg>
