<svg width="40" height="40" viewBox="0 0 40 40" fill="none" xmlns="http://www.w3.org/2000/svg">
<g opacity="0.2" filter="url(#filter0_f)">
<path d="M6.49664 4.30231V6.67899H4.08867V33.6163H6.49664V36.7852H33.787V33.6163H36.9976V6.67899H33.787V4.30231H6.49664Z" fill="#263238"/>
</g>
<path d="M34.1614 4.1727H5.83859C4.91846 4.1727 4.17255 4.91864 4.17255 5.83882V34.1614C4.17255 35.0816 4.91846 35.8275 5.83859 35.8275H34.1614C35.0815 35.8275 35.8275 35.0816 35.8275 34.1614V5.83882C35.8275 4.91864 35.0815 4.1727 34.1614 4.1727Z" fill="#4CAF50"/>
<path opacity="0.2" d="M5.83837 4.17151C4.91538 4.17151 4.17151 4.91535 4.17151 5.83831V6.30236C4.17151 5.37926 4.91538 4.63539 5.83837 4.63539H34.1605C35.0835 4.63539 35.8274 5.37926 35.8274 6.30236V5.83831C35.8274 4.91535 35.0835 4.17151 34.1605 4.17151H5.83837Z" fill="white"/>
<path opacity="0.2" d="M34.1597 35.8591C35.0826 35.8591 35.8265 35.1153 35.8265 34.1923V33.7284C35.8265 34.6512 35.0826 35.3952 34.1597 35.3952H5.83748C4.91458 35.3952 4.17068 34.6512 4.17068 33.7284V34.1923C4.17068 35.1153 4.91458 35.8591 5.83748 35.8591H34.1597Z" fill="#263238"/>
<path fill-rule="evenodd" clip-rule="evenodd" d="M16.4922 24.3631L12.4861 25.3646L13.3423 21.9399C12.4944 20.823 12 19.4805 12 18.0365C12 14.1503 15.5802 11 19.9965 11C24.4129 11 27.9931 14.1503 27.9931 18.0365C27.9931 21.9226 24.4129 25.0729 19.9965 25.0729C18.7396 25.0729 17.5504 24.8177 16.4922 24.3631ZM17.728 17.4523H17.6389C17.4375 17.4523 17.2743 17.6156 17.2743 17.8169V21.0139C17.2743 21.2152 17.4375 21.3785 17.6389 21.3785H22.3542C22.5555 21.3785 22.7188 21.2152 22.7188 21.0139V17.8169C22.7188 17.6156 22.5555 17.4523 22.3542 17.4523H22.265V16.5463C22.265 15.2965 21.2501 14.2812 19.9955 14.2812C18.7429 14.2812 17.728 15.2965 17.728 16.5463V17.4523ZM21.3576 17.4523H18.6354V16.5465C18.6354 15.7966 19.2444 15.1873 19.9959 15.1873C20.7487 15.1873 21.3576 15.7966 21.3576 16.5465C21.3576 17.0474 21.3576 17.3493 21.3576 17.4523Z" fill="white"/>
<path fill-rule="evenodd" clip-rule="evenodd" d="M21.3565 28.2324C21.3565 28.9846 20.7478 29.5937 19.9953 29.5937C19.2441 29.5937 18.6354 28.9846 18.6354 28.2324C18.6354 27.4816 19.2441 26.8715 19.9953 26.8715C20.7478 26.8715 21.3565 27.4816 21.3565 28.2324ZM16.4479 28.2324C16.4479 28.9846 15.8392 29.5937 15.0868 29.5937C14.3356 29.5937 13.7269 28.9846 13.7269 28.2324C13.7269 27.4816 14.3356 26.8715 15.0868 26.8715C15.8392 26.8715 16.4479 27.4816 16.4479 28.2324ZM26.265 28.2324C26.265 28.9846 25.6563 29.5937 24.9038 29.5937C24.1527 29.5937 23.544 28.9846 23.544 28.2324C23.544 27.4816 24.1527 26.8715 24.9038 26.8715C25.6563 26.8715 26.265 27.4816 26.265 28.2324Z" fill="white"/>
<defs>
<filter id="filter0_f" x="3.38376" y="3.5974" width="34.3187" height="33.8928" filterUnits="userSpaceOnUse" color-interpolation-filters="sRGB">
<feFlood flood-opacity="0" result="BackgroundImageFix"/>
<feBlend mode="normal" in="SourceGraphic" in2="BackgroundImageFix" result="shape"/>
<feGaussianBlur stdDeviation="0.352455" result="effect1_foregroundBlur"/>
</filter>
</defs>
</svg>
