<svg width="40" height="40" viewBox="0 0 40 40" fill="none" xmlns="http://www.w3.org/2000/svg">
<g opacity="0.2" filter="url(#filter0_f)">
<path d="M6.49664 4.30231V6.67899H4.08867V33.6163H6.49664V36.7852H33.787V33.6163H36.9976V6.67899H33.787V4.30231H6.49664Z" fill="#263238"/>
</g>
<path d="M34.1614 4.1727H5.83859C4.91846 4.1727 4.17255 4.91864 4.17255 5.83882V34.1614C4.17255 35.0816 4.91846 35.8275 5.83859 35.8275H34.1614C35.0815 35.8275 35.8275 35.0816 35.8275 34.1614V5.83882C35.8275 4.91864 35.0815 4.1727 34.1614 4.1727Z" fill="#00BCD4"/>
<path opacity="0.2" d="M5.83837 4.17151C4.91538 4.17151 4.17151 4.91535 4.17151 5.83831V6.30236C4.17151 5.37926 4.91538 4.63539 5.83837 4.63539H34.1605C35.0835 4.63539 35.8274 5.37926 35.8274 6.30236V5.83831C35.8274 4.91535 35.0835 4.17151 34.1605 4.17151H5.83837Z" fill="white"/>
<path opacity="0.2" d="M34.1597 35.8591C35.0826 35.8591 35.8265 35.1153 35.8265 34.1923V33.7284C35.8265 34.6512 35.0826 35.3952 34.1597 35.3952H5.83748C4.91458 35.3952 4.17068 34.6512 4.17068 33.7284V34.1923C4.17068 35.1153 4.91458 35.8591 5.83748 35.8591H34.1597Z" fill="#263238"/>
<path fill-rule="evenodd" clip-rule="evenodd" d="M13.3173 13.4342H26.8352C27.4751 13.4342 27.9939 13.9529 27.9939 14.5929V17.2965H24.3247C22.7249 17.2965 21.4281 18.5933 21.4281 20.1931C21.4281 21.7929 22.7249 23.0898 24.3247 23.0898H27.9939V25.4071C27.9939 26.0471 27.4751 26.5658 26.8352 26.5658H13.3173C12.6774 26.5658 12.1587 26.0471 12.1587 25.4071V14.5929C12.1587 13.9529 12.6774 13.4342 13.3173 13.4342ZM29.1525 23.0898L29.1525 25.4071C29.1525 26.687 28.115 27.7245 26.8352 27.7245H13.3173C12.0375 27.7245 11 26.687 11 25.4071V14.5929C11 13.313 12.0375 12.2755 13.3173 12.2755H26.8352C28.115 12.2755 29.1525 13.313 29.1525 14.5929L29.1525 17.2965C29.5792 17.2965 29.925 17.6423 29.925 18.0689V22.3174C29.925 22.744 29.5792 23.0898 29.1525 23.0898ZM25.6765 20.1931C25.6765 20.9397 25.0713 21.5449 24.3247 21.5449C23.5782 21.5449 22.973 20.9397 22.973 20.1931C22.973 19.4466 23.5782 18.8414 24.3247 18.8414C25.0713 18.8414 25.6765 19.4466 25.6765 20.1931Z" fill="white"/>
<defs>
<filter id="filter0_f" x="3.38376" y="3.5974" width="34.3187" height="33.8928" filterUnits="userSpaceOnUse" color-interpolation-filters="sRGB">
<feFlood flood-opacity="0" result="BackgroundImageFix"/>
<feBlend mode="normal" in="SourceGraphic" in2="BackgroundImageFix" result="shape"/>
<feGaussianBlur stdDeviation="0.352455" result="effect1_foregroundBlur"/>
</filter>
</defs>
</svg>
