<svg width="40" height="40" viewBox="0 0 40 40" fill="none" xmlns="http://www.w3.org/2000/svg">
<g opacity="0.2" filter="url(#filter0_f)">
<path d="M6.49662 4.30231V6.67899H4.08865V33.6163H6.49662V36.7852H33.787V33.6163H36.9976V6.67899H33.787V4.30231H6.49662Z" fill="#BF360C"/>
</g>
<path d="M34.1614 4.17267H5.83856C4.91843 4.17267 4.17252 4.91861 4.17252 5.83879V34.1614C4.17252 35.0815 4.91843 35.8275 5.83856 35.8275H34.1614C35.0815 35.8275 35.8274 35.0815 35.8274 34.1614V5.83879C35.8274 4.91861 35.0815 4.17267 34.1614 4.17267Z" fill="#FFC107"/>
<path opacity="0.2" d="M5.83834 4.17151C4.91535 4.17151 4.17148 4.91535 4.17148 5.83831V6.30236C4.17148 5.37926 4.91535 4.63539 5.83834 4.63539H34.1605C35.0835 4.63539 35.8273 5.37926 35.8273 6.30236V5.83831C35.8273 4.91535 35.0835 4.17151 34.1605 4.17151H5.83834Z" fill="white"/>
<path opacity="0.2" d="M34.1597 35.8591C35.0826 35.8591 35.8265 35.1153 35.8265 34.1923V33.7284C35.8265 34.6512 35.0826 35.3952 34.1597 35.3952H5.83745C4.91455 35.3952 4.17065 34.6512 4.17065 33.7284V34.1923C4.17065 35.1153 4.91455 35.8591 5.83745 35.8591H34.1597Z" fill="#BF360C"/>
<path d="M18.274 11.75C16.8295 11.749 15.4255 12.2275 14.2823 13.1106C13.1391 13.9937 12.3215 15.2314 11.9578 16.6294L11.9577 16.6297C11.5954 18.029 11.7094 19.5091 12.2818 20.8364C12.8542 22.1637 13.8523 23.2625 15.1186 23.9594L15.1192 23.9597C15.1892 23.998 15.2662 24.0218 15.3456 24.0297C15.425 24.0376 15.5051 24.0295 15.5813 24.0058C15.6574 23.9821 15.7281 23.9433 15.7889 23.8917C15.8494 23.8405 15.899 23.7777 15.9349 23.7071C16.0856 23.4156 15.9821 23.0498 15.6907 22.8887L15.69 22.8882C14.661 22.3238 13.8494 21.4325 13.3834 20.3552C12.9175 19.278 12.8237 18.0763 13.117 16.9398C13.722 14.6045 15.8419 12.9676 18.274 12.9676C20.7049 12.9676 22.8246 14.6041 23.4307 16.939C23.463 17.0678 23.5371 17.1822 23.6414 17.2645C23.746 17.3471 23.8752 17.3925 24.0085 17.3936V17.3936H24.0106H24.9436H24.9438C26.5425 17.3922 27.8767 18.5944 28.0359 20.1652C28.1952 21.7345 27.1319 23.1743 25.5677 23.4907L25.5677 23.4906L25.5643 23.4914C25.4081 23.5252 25.2714 23.6192 25.1838 23.753C25.0968 23.886 25.0653 24.0477 25.0959 24.2036C25.11 24.2809 25.1391 24.3546 25.1815 24.4206C25.2245 24.4875 25.2804 24.5451 25.3458 24.5902C25.4113 24.6353 25.4851 24.667 25.5628 24.6833C25.6406 24.6997 25.7209 24.7004 25.7989 24.6855L25.7989 24.6855L25.8015 24.685C26.8473 24.4741 27.7773 23.8817 28.4106 23.0232C29.044 22.1646 29.3354 21.1012 29.2283 20.0397L29.2282 20.0395C29.1202 18.9787 28.6219 17.996 27.8301 17.2819C27.0383 16.5679 26.0094 16.1735 24.9432 16.1753L24.6936 16.1757V16.1761H24.4549C24.0272 14.9161 23.2238 13.8156 22.1508 13.0239C21.0281 12.1955 19.6692 11.749 18.274 11.75ZM18.274 11.75C18.2739 11.75 18.2738 11.75 18.2738 11.75L18.274 12L18.2741 11.75C18.2741 11.75 18.274 11.75 18.274 11.75Z" fill="white" stroke="white" stroke-width="0.5"/>
<path d="M21.9292 19.2789L21.9292 19.2789C22.0587 19.3719 22.147 19.5115 22.1756 19.6683C22.2042 19.8252 22.1707 19.987 22.0823 20.1196L19.7656 23.5975H23.061C23.5548 23.5975 23.8188 24.1542 23.5575 24.5475L23.5573 24.5477L20.6081 28.9747C20.5648 29.0411 20.5087 29.0981 20.4431 29.1424C20.3769 29.1871 20.3024 29.2179 20.224 29.2331C20.1456 29.2483 20.0649 29.2475 19.9868 29.2307C19.9088 29.2139 19.8349 29.1816 19.7696 29.1356L19.7677 29.1342C19.638 29.0411 19.5497 28.9011 19.5214 28.7439C19.4931 28.587 19.5269 28.4251 19.6157 28.2926C19.6157 28.2925 19.6158 28.2923 19.6159 28.2922L21.9315 24.815H18.6368C18.1428 24.815 17.8777 24.2587 18.1405 23.8648L21.9292 19.2789ZM21.9292 19.2789L21.9277 19.2778C21.8625 19.2318 21.7887 19.1993 21.7107 19.1825C21.6326 19.1656 21.552 19.1647 21.4736 19.1797C21.3952 19.1948 21.3207 19.2255 21.2544 19.27C21.1886 19.3143 21.1324 19.3713 21.089 19.4376L18.1406 23.8645L21.9292 19.2789Z" fill="white" stroke="white" stroke-width="0.5"/>
<defs>
<filter id="filter0_f" x="3.38374" y="3.5974" width="34.3187" height="33.8928" filterUnits="userSpaceOnUse" color-interpolation-filters="sRGB">
<feFlood flood-opacity="0" result="BackgroundImageFix"/>
<feBlend mode="normal" in="SourceGraphic" in2="BackgroundImageFix" result="shape"/>
<feGaussianBlur stdDeviation="0.352455" result="effect1_foregroundBlur"/>
</filter>
</defs>
</svg>
