<?xml version="1.0" encoding="UTF-8"?>
<svg version="1.1" viewBox="0 0 28.747 28.747" xmlns="http://www.w3.org/2000/svg" xmlns:xlink="http://www.w3.org/1999/xlink">
    <defs>
        <filter id="filter6206-7" color-interpolation-filters="sRGB">
            <feGaussianBlur stdDeviation="0.658125"/>
        </filter>
    </defs>
    <g transform="translate(0 -1093.8)">
        <path transform="matrix(1.0781 0 0 1.0641 -.093733 2.7509)" d="m4.4177 1028.2v1.6051h-1.6052v18.192h1.6052v2.1402h18.192v-2.1402h2.1402v-18.192h-2.1402v-1.6051z" fill="#232323" filter="url(#filter6206-7)" opacity=".2"/>
        <rect x="2.9987" y="1096.8" width="22.749" height="22.749" rx="1.1973" ry="1.1974" fill="#232323"/>
        <g transform="translate(-22.32 1056.5)">
            <path d="m0 0h51.2v51.2h-51.2z" fill="none" stroke-width="1.0667"/>
            <g transform="matrix(.33601 0 0 .33601 1.5296 73.043)">
                <path d="m0 0h51.2v51.2h-51.2z" fill="none" stroke-width="1.0667"/>
            </g>
            <g transform="matrix(.37187 0 0 .37187 38.802 63.239)">
                <path d="m0 0h51.2v51.2h-51.2z" fill="none" stroke-width="1.0667"/>
                <g transform="matrix(2.6891 0 0 2.6891 -82.906 -48.45)">
                    <path d="m0 0h51.2v51.2h-51.2z" fill="none" stroke-width="1.0667"/>
                </g>
            </g>
        </g>
        <path d="m4.1958 1096.8c-0.66332 0-1.1979 0.5346-1.1979 1.1979v0.3334c0-0.6634 0.53459-1.1979 1.1979-1.1979h20.354c0.66332 0 1.1979 0.5345 1.1979 1.1979v-0.3334c0-0.6633-0.5346-1.1979-1.1979-1.1979z" fill="#fff" opacity=".2"/>
        <rect x="128" y="546.52" width="42.667" height="42.667" fill="none" stroke-width="1.0667"/>
        <rect x="128" y="631.85" width="42.667" height="42.667" fill="none" stroke-width="1.0667"/>
        <rect x="128" y="674.52" width="42.667" height="42.667" fill="none" stroke-width="1.0667"/>
        <rect x="128" y="589.19" width="42.667" height="42.667" fill="none" stroke-width="1.0667"/>
        <rect x="128" y="717.19" width="42.667" height="42.667" fill="none" stroke-width="1.0667"/>
        <rect x="213.33" y="546.52" width="42.667" height="42.667" fill="none" stroke-width="1.0667"/>
        <rect x="213.33" y="631.85" width="42.667" height="42.667" fill="none" stroke-width="1.0667"/>
        <rect x="213.33" y="674.52" width="42.667" height="42.667" fill="none" stroke-width="1.0667"/>
        <rect x="213.33" y="589.19" width="42.667" height="42.667" fill="none" stroke-width="1.0667"/>
        <rect x="213.33" y="717.19" width="42.667" height="42.667" fill="none" stroke-width="1.0667"/>
        <rect x="298.67" y="546.52" width="42.667" height="42.667" fill="none" stroke-width="1.0667"/>
        <rect x="298.67" y="631.85" width="42.667" height="42.667" fill="none" stroke-width="1.0667"/>
        <rect x="298.67" y="674.52" width="42.667" height="42.667" fill="none" stroke-width="1.0667"/>
        <rect x="298.67" y="589.19" width="42.667" height="42.667" fill="none" stroke-width="1.0667"/>
        <rect x="298.67" y="717.19" width="42.667" height="42.667" fill="none" stroke-width="1.0667"/>
        <rect x="170.67" y="546.52" width="42.667" height="42.667" fill="none" stroke-width="1.0667"/>
        <rect x="170.67" y="631.85" width="42.667" height="42.667" fill="none" stroke-width="1.0667"/>
        <rect x="170.67" y="674.52" width="42.667" height="42.667" fill="none" stroke-width="1.0667"/>
        <rect x="170.67" y="589.19" width="42.667" height="42.667" fill="none" stroke-width="1.0667"/>
        <rect x="170.67" y="717.19" width="42.667" height="42.667" fill="none" stroke-width="1.0667"/>
        <rect x="256" y="546.52" width="42.667" height="42.667" fill="none" stroke-width="1.0667"/>
        <rect x="256" y="631.85" width="42.667" height="42.667" fill="none" stroke-width="1.0667"/>
        <rect x="256" y="674.52" width="42.667" height="42.667" fill="none" stroke-width="1.0667"/>
        <rect x="256" y="589.19" width="42.667" height="42.667" fill="none" stroke-width="1.0667"/>
        <rect x="256" y="717.19" width="42.667" height="42.667" fill="none" stroke-width="1.0667"/>
        <rect x="128" y="759.85" width="42.667" height="42.667" fill="none" stroke-width="1.0667"/>
        <rect x="213.33" y="759.85" width="42.667" height="42.667" fill="none" stroke-width="1.0667"/>
        <rect x="298.67" y="759.85" width="42.667" height="42.667" fill="none" stroke-width="1.0667"/>
        <rect x="170.67" y="759.85" width="42.667" height="42.667" fill="none" stroke-width="1.0667"/>
        <rect x="256" y="759.85" width="42.667" height="42.667" fill="none" stroke-width="1.0667"/>
        <rect x="341.33" y="589.19" width="42.667" height="42.667" fill="none" stroke-width="1.0667"/>
        <rect x="341.33" y="631.85" width="42.667" height="42.667" fill="none" stroke-width="1.0667"/>
        <rect x="341.33" y="717.19" width="42.667" height="42.667" fill="none" stroke-width="1.0667"/>
        <rect x="341.33" y="546.52" width="42.667" height="42.667" fill="none" stroke-width="1.0667"/>
        <rect x="341.33" y="674.52" width="42.667" height="42.667" fill="none" stroke-width="1.0667"/>
        <rect x="341.33" y="759.85" width="42.667" height="42.667" fill="none" stroke-width="1.0667"/>
        <rect x="160" y="578.52" width="192" height="192" fill="none" stroke-width="1.0667"/>
        <g transform="matrix(.37344 0 0 .37344 4.7333 1097.4)">
            <path d="m0 0h51.2v51.2h-51.2z" fill="none" stroke-width="1.0667"/>
        </g>
        <g transform="matrix(.36471 0 0 .36471 5.1356 1097.4)">
            <path d="m0 0h51.2v51.2h-51.2z" fill="none" stroke-width="1.0667"/>
        </g>
        <g transform="matrix(.41585 0 0 .41585 84.325 1055.9)">
            <g transform="matrix(.062269 0 0 .062269 -28.238 185.29)">
                <g transform="matrix(38.618 0 0 38.618 14724 -13542)">
                    <g transform="matrix(.71436 0 0 .71436 -400.52 188.34)">
                        <path d="m1293.2-120.67c-181.75 0.2763-511.18 0.13525-699.05 0.13998-2.3216 10.413-3.593 21.251-3.593 32.384v114c207.65 0.73695 494.72 0.38136 706.23 0.3733v-114.37c0-11.18-1.2522-22.07-3.593-32.523zm-458.69 295.56c-78.385-4e-3 -158.85 0.17892-243.95 0.55995v138.63c286.34-0.39317 421.73-0.13827 706.23-0.32664v-137.75c-163.2-0.53005-311.22-1.1113-462.28-1.1199z" opacity="0" stroke-width="1.4932"/>
                    </g>
                </g>
            </g>
        </g>
        <path d="m24.549 1119.5c0.66325 0 1.1979-0.5346 1.1979-1.1979v-0.3333c0 0.6632-0.53461 1.1978-1.1979 1.1978h-20.354c-0.66325 0-1.1979-0.5346-1.1979-1.1978v0.3333c0 0.6633 0.53461 1.1979 1.1979 1.1979z" fill="#232323" opacity=".2"/>
    </g>
    <g display="none" opacity=".595">
        <image x="5.1538" y="5.134" width="18.512" height="18.512" display="inline" image-rendering="optimizeSpeed" preserveAspectRatio="none" xlink:href="file:///home/germe/Descargas/8vim.png"/>
    </g>
    <path d="m14.658 8.7956c-0.47296-0.021669-0.7641-0.060662-1.3121 0.011442-0.88876 0.11694-1.1052 0.2353-1.5443 0.42065-0.50484 0.21313-0.85868 0.39943-1.3065 0.78722-0.47108 0.40796-0.71212 0.71115-0.90927 1.6335-0.055412 0.25925 0.035784 0.57636 0.09961 0.78906 0.11051 0.36827 0.31189 0.62804 0.56055 0.91406 0.24276 0.27924 0.31836 0.41384 0.59766 0.74219-0.27143 0.33107-0.39702 0.44365-0.49219 0.83203-0.0031 0.01252-0.72568-0.03015-0.72848-0.01758 0 0-0.44451-2.09e-4 -0.66602 0.01562-0.25115 0.01795-0.51648-0.0043-0.75 0.08985-0.3164 0.12758-0.6462 0.32153-0.81641 0.61719-0.14234 0.24725-0.14205 0.56692-0.10352 0.84961 0.052915 0.38814 0.24203 0.75349 0.44922 1.0859 0.23592 0.37855 0.54662 0.71301 0.88477 1.0039 0.52844 0.4546 1.0504 0.92831 1.7578 1.1328 0.71349 0.20626 1.4051 0.37072 2.4258-0.08203 0.43079-0.19109 0.70879-0.51371 0.95898-0.7832 0.47227 0.15098 0.70829 0.19749 1.2012 0.25 0.04848 0.1253 0.11672 0.22437 0.19336 0.33594 0.12112 0.17632 0.28444 0.30344 0.47266 0.4082 0.18835 0.10484 0.38867 0.11533 0.60547 0.10547 0.18084-0.0082 0.38234-0.05751 0.54492-0.125 0.43582-0.1809 0.86928-0.50977 1.2148-0.82226 0.15444-0.13966 0.33627-0.25904 0.47852-0.41211 0.21449-0.09228 0.34644-0.15504 0.54688-0.27734 0.82062-0.50074 1.4066-1.1368 1.9238-1.9414 0.18598-0.2893 0.39328-0.726 0.48633-1.0703 0.17841-0.66019 0.03504-1.145-0.40625-1.5254-0.38448-0.33141-0.85734-0.36438-1.498-0.27344-0.22252-1.1403-0.5438-2.0623-1.436-3.0414-0.51048-0.56479-0.92963-0.89023-1.5213-1.1628-0.63383-0.29199-1.1559-0.45587-1.9121-0.49051zm1.7208 0.69074c0.55328 0.24703 1.0469 0.59001 1.4744 1.0632 0.37423 0.41411 0.8521 1.1118 1.095 1.7416 0.2506 0.64962 0.35434 1.2363 0.35434 1.2363l-0.02148 2e-3s-0.60496 0.15431-0.91406 0.28516c-0.58801 0.24889-1.1945 0.606-1.6875 1.0098-0.64228 0.52598-1.1371 1.0601-1.6328 1.7227-0.07097 0.09487-0.1282 0.19298-0.19726 0.28906 0.0011-0.6833 0.0061-1.3095-0.1211-1.9473-0.07424-0.37228-0.20195-0.73677-0.37072-1.0768-0.12214-0.24609-0.28539-0.46339-0.45845-0.68493 0.13532 0.273 0.32313 0.52686 0.43562 0.81299 0.13246 0.33691 0.22272 0.69228 0.27635 1.0503 0.10106 0.67466 0.08235 1.3191 0.08203 2.0449-0.17718 0.2497-0.32769 0.47932-0.5 0.71289-0.20247 0.27446-0.40012 0.55908-0.62695 0.8086-0.64643-0.22099-1.1782-0.43555-1.6894-0.78906-0.42942-0.29694-0.76693-0.63956-1.1211-1.0938-0.24917-0.4329-0.36336-0.78563-0.32812-1.3184 0.28836-0.0041 0.44689-0.04748 0.61523-0.12301 0.25708-0.08042 0.4782-0.34028 0.45513-0.63477-0.02413-0.308-0.06433-0.32383-0.11133-0.4043-0.02686-0.04599-0.14658-0.17429-0.17641-0.21783 0.06434-0.05927 0.10087-0.09223 0.1543-0.13476 0.37468-0.2983 0.80818-0.45 1.2916-0.60248 0.76314-0.24069 1.0256-0.33663 1.4222-0.40175 0.48742-0.08004 1.2425-0.1269 1.6012-0.15684-0.30478-0.02118-1.0894-0.01254-1.5891 0.06465-0.55863 0.08628-0.9334 0.2062-1.4709 0.36811-0.48554 0.16239-0.76895 0.25931-1.1213 0.45588-0.14734 0.08219-0.34271 0.23848-0.4085 0.29884-0.21313-0.28678-0.45286-0.57666-0.68164-0.83982-0.24286-0.27936-0.22136-0.26985-0.41211-0.63476-0.10346-0.35784-0.11759-0.5394-0.085937-0.80859 0.029351-0.24964 0.10406-0.47252 0.25145-0.71094 0.14747-0.23856 0.44492-0.51408 0.6577-0.70106 0.40352-0.35459 0.94714-0.58938 1.3087-0.73098 0.61033-0.23902 1.6105-0.39208 2.3628-0.3673 0.79739 0.026266 1.2998 0.14991 1.8881 0.41254zm3.9375 4.2227c0.18722 0.03624 0.43319 0.1318 0.59766 0.27734 0.14124 0.12499 0.24703 0.29912 0.29883 0.48047 0.0733 0.25666 0.05622 0.53984-4e-6 0.80078-0.06727 0.31219-0.21059 0.58692-0.39453 0.87305-0.51159 0.79579-0.82548 1.209-1.5273 1.7383-0.14298 0.08725-0.4703 0.33076-0.62109 0.40234 0.19808-0.22891 0.34639-0.51587 0.4707-0.79883 0.25533-0.58116 0.35736-0.83918 0.43625-1.272 0.1458-0.79988 0.15343-1.5419 0.0657-2.1343-0.01802-0.13307-0.03827-0.19553-0.0625-0.32812 0.29655-0.04929 0.49795-0.0852 0.73633-0.03906zm-0.95312 0.0059c0.02497 0.13537 0.11635 0.88355 0.13477 1.0195 0.03027 1.3177-0.17326 1.7831-0.50586 2.6016-0.16908 0.41604-0.49533 0.86343-0.73828 1.127-0.83248 0.3538-1.5576 0.52422-2.4688 0.49805-0.18449-0.0053-0.53505-0.03458-0.71875-0.05273-0.03452-0.09735-0.11779-0.34367-0.13867-0.44531-0.03095-0.26917-0.04121-0.35292-0.04883-0.60742-0.0066-0.22028-0.0099-0.30564-0.0098-0.52734 0.09254-0.13008 0.18186-0.26299 0.27734-0.39062 0.49243-0.65825 1.0321-1.2816 1.666-1.8008 0.48658-0.39848 0.9493-0.75533 1.5273-1 0.30388-0.12862 0.79187-0.29105 1.1133-0.36523 0.11718-0.07602-0.09764-0.05488-0.08984-0.05669zm-8.2578 0.66797c0.0446 0.0998 0.03184 0.10429 0.05273 0.18555-0.01043 0.11611-0.0061 0.12058-0.06641 0.22266-0.12891 0.09961-0.10098 0.08791-0.21484 0.11133-0.12846 0.02481-0.20529 0.03104-0.35747 0.02536 0.08917-0.36388 0.4414-0.72852 0.4414-0.72852s0.07523 0.04406 0.14458 0.18362zm-1.8047 0.89453c0.2823 0.0059 0.62893 0.03869 0.96094 0.06836-0.05992 0.76165 0.24735 1.3858 0.64899 1.7928 0.27671 0.2804 0.56345 0.55725 0.89007 0.7775 0.49005 0.33045 1.0081 0.60441 1.582 0.80078-0.18535 0.24076-0.49488 0.48268-0.82227 0.64452-0.48006 0.23732-1.2696 0.27462-1.9629 0.07422-0.68862-0.1991-1.2196-0.69671-1.7344-1.166-0.3334-0.30395-0.6131-0.6683-0.85547-1.0488-0.13828-0.21711-0.29508-0.44117-0.33594-0.69531-0.042632-0.26518-0.041859-0.57425 0.10547-0.79883 0.1408-0.21463 0.415-0.3204 0.66016-0.39648 0.27534-0.08545 0.5661-0.05597 0.86328-0.05273zm5.4434 2.3047s-0.01514 0.06872-0.0097 0.24805c0.0077 0.25652 0.03158 0.43439 0.06445 0.68945 0.01769 0.08609 0.049 0.27719 0.07618 0.36133-0.44912-0.05116-0.53969-0.06729-0.9707-0.20117 0.21232-0.24046 0.35611-0.48165 0.53906-0.71875 0.09851-0.12766 0.30074-0.37891 0.30074-0.37891zm2.8555 1.5293c-0.39225 0.30098-0.46115 0.32579-0.86914 0.55078-0.20717 0.06882-0.40024 0.11891-0.56445 0.125-0.51485-0.0066-0.67174-0.21634-0.88281-0.44726-0.05987-0.08716-0.08132-0.13066-0.12305-0.22852 0.29675 0.02711 0.71054 0.02055 0.87891 0.02539 0.91146-0.03387 1.4358-0.1519 1.8516-0.2793-0.03478 0.0381-0.17012 0.15409-0.29102 0.2539z" color="#000000" color-rendering="auto" dominant-baseline="auto" fill="#fff" image-rendering="auto" shape-rendering="auto" solid-color="#000000" style="font-feature-settings:normal;font-variant-alternates:normal;font-variant-caps:normal;font-variant-ligatures:normal;font-variant-numeric:normal;font-variant-position:normal;isolation:auto;mix-blend-mode:normal;shape-padding:0;text-decoration-color:#000000;text-decoration-line:none;text-decoration-style:solid;text-indent:0;text-orientation:mixed;text-transform:none;white-space:normal"/>
    <g display="none" fill="none">
        <rect transform="rotate(90)" x="7.8232" y="-20.923" width="13.1" height="13.1" display="inline" stroke="#000" stroke-width=".070382"/>
        <rect x="7.2241" y="8.6528" width="14.298" height="11.441" stroke="#5261ff" stroke-linecap="round" stroke-linejoin="round" stroke-width=".069589"/>
        <rect transform="rotate(90)" x="7.2241" y="-20.094" width="14.298" height="11.441" display="inline" stroke="#0f0" stroke-linecap="round" stroke-linejoin="round" stroke-width=".069589"/>
    </g>
</svg>
