<?xml version="1.0" encoding="UTF-8"?>
<svg version="1.1" viewBox="0 0 28.747 28.747" xmlns="http://www.w3.org/2000/svg">
    <defs>
        <filter id="filter6206-7" color-interpolation-filters="sRGB">
            <feGaussianBlur stdDeviation="0.658125"/>
        </filter>
    </defs>
    <g transform="translate(0 -1093.8)">
        <path transform="matrix(1.0781 0 0 1.0641 -.093733 2.7509)" d="m4.4177 1028.2v1.6051h-1.6052v18.192h1.6052v2.1402h18.192v-2.1402h2.1402v-18.192h-2.1402v-1.6051z" fill="#1a237e" filter="url(#filter6206-7)" opacity=".2"/>
        <rect x="2.9987" y="1096.8" width="22.749" height="22.749" rx="1.1973" ry="1.1974" fill="#424242"/>
        <g transform="translate(-22.32 1056.5)">
            <path d="m0 0h51.2v51.2h-51.2z" fill="none" stroke-width="1.0667"/>
            <g transform="matrix(.33601 0 0 .33601 1.5296 73.043)">
                <path d="m0 0h51.2v51.2h-51.2z" fill="none" stroke-width="1.0667"/>
            </g>
            <g transform="matrix(.37187 0 0 .37187 38.802 63.239)">
                <path d="m0 0h51.2v51.2h-51.2z" fill="none" stroke-width="1.0667"/>
                <g transform="matrix(2.6891 0 0 2.6891 -82.906 -48.45)">
                    <path d="m0 0h51.2v51.2h-51.2z" fill="none" stroke-width="1.0667"/>
                </g>
            </g>
        </g>
        <path d="m4.1958 1096.8c-0.66332 0-1.1979 0.5346-1.1979 1.1979v0.3334c0-0.6634 0.53459-1.1979 1.1979-1.1979h20.354c0.66332 0 1.1979 0.5345 1.1979 1.1979v-0.3334c0-0.6633-0.5346-1.1979-1.1979-1.1979z" fill="#fff" opacity=".2"/>
        <rect x="128" y="546.52" width="42.667" height="42.667" fill="none" stroke-width="1.0667"/>
        <rect x="128" y="631.85" width="42.667" height="42.667" fill="none" stroke-width="1.0667"/>
        <rect x="128" y="674.52" width="42.667" height="42.667" fill="none" stroke-width="1.0667"/>
        <rect x="128" y="589.19" width="42.667" height="42.667" fill="none" stroke-width="1.0667"/>
        <rect x="128" y="717.19" width="42.667" height="42.667" fill="none" stroke-width="1.0667"/>
        <rect x="213.33" y="546.52" width="42.667" height="42.667" fill="none" stroke-width="1.0667"/>
        <rect x="213.33" y="631.85" width="42.667" height="42.667" fill="none" stroke-width="1.0667"/>
        <rect x="213.33" y="674.52" width="42.667" height="42.667" fill="none" stroke-width="1.0667"/>
        <rect x="213.33" y="589.19" width="42.667" height="42.667" fill="none" stroke-width="1.0667"/>
        <rect x="213.33" y="717.19" width="42.667" height="42.667" fill="none" stroke-width="1.0667"/>
        <rect x="298.67" y="546.52" width="42.667" height="42.667" fill="none" stroke-width="1.0667"/>
        <rect x="298.67" y="631.85" width="42.667" height="42.667" fill="none" stroke-width="1.0667"/>
        <rect x="298.67" y="674.52" width="42.667" height="42.667" fill="none" stroke-width="1.0667"/>
        <rect x="298.67" y="589.19" width="42.667" height="42.667" fill="none" stroke-width="1.0667"/>
        <rect x="298.67" y="717.19" width="42.667" height="42.667" fill="none" stroke-width="1.0667"/>
        <rect x="170.67" y="546.52" width="42.667" height="42.667" fill="none" stroke-width="1.0667"/>
        <rect x="170.67" y="631.85" width="42.667" height="42.667" fill="none" stroke-width="1.0667"/>
        <rect x="170.67" y="674.52" width="42.667" height="42.667" fill="none" stroke-width="1.0667"/>
        <rect x="170.67" y="589.19" width="42.667" height="42.667" fill="none" stroke-width="1.0667"/>
        <rect x="170.67" y="717.19" width="42.667" height="42.667" fill="none" stroke-width="1.0667"/>
        <rect x="256" y="546.52" width="42.667" height="42.667" fill="none" stroke-width="1.0667"/>
        <rect x="256" y="631.85" width="42.667" height="42.667" fill="none" stroke-width="1.0667"/>
        <rect x="256" y="674.52" width="42.667" height="42.667" fill="none" stroke-width="1.0667"/>
        <rect x="256" y="589.19" width="42.667" height="42.667" fill="none" stroke-width="1.0667"/>
        <rect x="256" y="717.19" width="42.667" height="42.667" fill="none" stroke-width="1.0667"/>
        <rect x="128" y="759.85" width="42.667" height="42.667" fill="none" stroke-width="1.0667"/>
        <rect x="213.33" y="759.85" width="42.667" height="42.667" fill="none" stroke-width="1.0667"/>
        <rect x="298.67" y="759.85" width="42.667" height="42.667" fill="none" stroke-width="1.0667"/>
        <rect x="170.67" y="759.85" width="42.667" height="42.667" fill="none" stroke-width="1.0667"/>
        <rect x="256" y="759.85" width="42.667" height="42.667" fill="none" stroke-width="1.0667"/>
        <rect x="341.33" y="589.19" width="42.667" height="42.667" fill="none" stroke-width="1.0667"/>
        <rect x="341.33" y="631.85" width="42.667" height="42.667" fill="none" stroke-width="1.0667"/>
        <rect x="341.33" y="717.19" width="42.667" height="42.667" fill="none" stroke-width="1.0667"/>
        <rect x="341.33" y="546.52" width="42.667" height="42.667" fill="none" stroke-width="1.0667"/>
        <rect x="341.33" y="674.52" width="42.667" height="42.667" fill="none" stroke-width="1.0667"/>
        <rect x="341.33" y="759.85" width="42.667" height="42.667" fill="none" stroke-width="1.0667"/>
        <rect x="160" y="578.52" width="192" height="192" fill="none" stroke-width="1.0667"/>
        <g transform="matrix(.37344 0 0 .37344 4.7333 1097.4)">
            <path d="m0 0h51.2v51.2h-51.2z" fill="none" stroke-width="1.0667"/>
        </g>
        <g transform="matrix(.36471 0 0 .36471 5.1356 1097.4)">
            <path d="m0 0h51.2v51.2h-51.2z" fill="none" stroke-width="1.0667"/>
        </g>
        <g transform="matrix(.41585 0 0 .41585 84.325 1055.9)">
            <g transform="matrix(.062269 0 0 .062269 -28.238 185.29)">
                <g transform="matrix(38.618 0 0 38.618 14724 -13542)">
                    <g transform="matrix(.71436 0 0 .71436 -400.52 188.34)">
                        <path d="m1293.2-120.67c-181.75 0.2763-511.18 0.13525-699.05 0.13998-2.3216 10.413-3.593 21.251-3.593 32.384v114c207.65 0.73695 494.72 0.38136 706.23 0.3733v-114.37c0-11.18-1.2522-22.07-3.593-32.523zm-458.69 295.56c-78.385-4e-3 -158.85 0.17892-243.95 0.55995v138.63c286.34-0.39317 421.73-0.13827 706.23-0.32664v-137.75c-163.2-0.53005-311.22-1.1113-462.28-1.1199z" opacity="0" stroke-width="1.4932"/>
                    </g>
                </g>
            </g>
        </g>
        <path d="m24.549 1119.5c0.66325 0 1.1979-0.5346 1.1979-1.1979v-0.3333c0 0.6632-0.53461 1.1978-1.1979 1.1978h-20.354c-0.66325 0-1.1979-0.5346-1.1979-1.1978v0.3333c0 0.6633 0.53461 1.1979 1.1979 1.1979z" fill="#1a237e" opacity=".2"/>
    </g>
    <flowRoot fill="#000000" font-family="Roboto" font-size="12.8px" letter-spacing="0px" stroke-width="1.0667px" word-spacing="0px" style="line-height:0.01%" xml:space="preserve"><flowRegion><rect x="11.375" y="11.984" width="4.7893" height="5.388" stroke-width="1.1378px"/></flowRegion><flowPara font-size="4px" style="line-height:1.25">your</flowPara></flowRoot>
    <path d="m13.479 12.57c-0.0087-3.16e-4 -0.01826 5.92e-4 -0.02817 0.0037-0.02107 0.0068-0.03743 0.02343-0.04506 0.03568-0.01522 0.02454-0.01278 0.03702-0.01314 0.04695-0.0039 0.11423-0.03755 1.1886-0.03755 1.1886-2.62e-4 0.0095 9.62e-4 0.01927 0.0038 0.02817-0.03153 0.0467-0.0583 0.09561-0.08262 0.14646l-1.3069-0.10328-0.46005-1.2224c-0.02293-0.06093-0.10499-0.07125-0.14083-0.0169l-1.2431 1.8834c-0.02146 0.03246-0.0153 0.07485 0.01314 0.1014l1.0572 0.9877 0.62342 1.6656c0.0242 0.06453 0.11455 0.07056 0.14647 0.0094l0.55957-1.076 0.44503 1.7688c0.01735 0.06878 0.10809 0.08335 0.14459 0.02254l0.54079-0.9032 0.64031 1.9848c0.01134 0.03498 0.03834 0.05214 0.0676 0.05445 0.0031 4.28e-4 0.0062-8.8e-5 0.0094 0 0.0033-8.8e-5 0.0062 4.38e-4 0.0094 0 0.02928-0.0024 0.05821-0.01948 0.06948-0.05445l0.63844-1.9848 0.54079 0.9032c0.0365 0.06082 0.12725 0.04625 0.14459-0.02254l0.44503-1.7688 0.55957 1.076c0.03192 0.0611 0.12226 0.05509 0.14646-0.0094l0.62341-1.6656 1.0572-0.9877c0.02844-0.02655 0.03459-0.06893 0.01314-0.1014l-1.2431-1.8834c-0.03585-0.05434-0.1179-0.04402-0.14083 0.0169l-0.46005 1.2224-1.305 0.10328c-0.02434-0.05086-0.05293-0.09975-0.0845-0.14646 0.0031-0.0088 0.0042-0.01865 0.0037-0.02817 0 0-0.03184-1.0744-0.03568-1.1886-3.5e-4 -0.0099 0.0021-0.02241-0.01314-0.04695-0.0076-0.01225-0.02397-0.02879-0.04506-0.03568-0.01045-0.0034-0.02075-0.0042-0.03004-0.0037-0.0092 5.12e-4 -0.01819 0.0033-0.02441 0.0057-0.02489 9e-3 -0.03125 0.01757-0.03755 0.02441-0.0062 0.0067-0.01068 0.01265-0.01503 0.01878-0.01678 0.02445-0.03098 0.05567-0.0507 0.09577-0.03943 0.08021-0.0903 0.19383-0.14083 0.31171-0.07895 0.18416-0.14155 0.33891-0.17088 0.41123-0.12382-0.04495-0.25509-0.06713-0.38682-0.0676-0.02248 4.65e-4 -0.04516 1.47e-4 -0.0676 0.0019-0.02239-0.0018-0.04513-0.0013-0.0676-0.0019-0.13173 4.75e-4 -0.26112 0.02266-0.38494 0.0676-0.02934-0.07231-0.0938-0.22707-0.17275-0.41123-0.05053-0.11788-0.09954-0.23148-0.13895-0.31171-0.0197-0.04011-0.03581-0.07134-0.05258-0.09577-0.0041-0.0061-0.0087-0.01201-0.01503-0.01878-0.0062-0.0067-0.0127-0.01539-0.03755-0.02441-0.0057-2e-3 -0.01405-0.0048-0.02254-0.0057z" color="#000000" color-rendering="auto" dominant-baseline="auto" fill="#fff" image-rendering="auto" shape-rendering="auto" solid-color="#000000" style="font-feature-settings:normal;font-variant-alternates:normal;font-variant-caps:normal;font-variant-ligatures:normal;font-variant-numeric:normal;font-variant-position:normal;isolation:auto;mix-blend-mode:normal;shape-padding:0;text-decoration-color:#000000;text-decoration-line:none;text-decoration-style:solid;text-indent:0;text-orientation:mixed;text-transform:none;white-space:normal"/>
    <path d="m21.194 10.138-3.134-2.6293-0.87642 1.0435 3.134 2.6293zm-9.6304-1.5891-0.87642-1.0435-3.134 2.6293 0.87642 1.0435zm2.8066 0.416c-3.3931 0-6.1349 2.7486-6.1349 6.1383s2.7418 6.1383 6.1349 6.1383 6.1417-2.7486 6.1417-6.1383-2.7486-6.1383-6.1417-6.1383zm0.0035 10.913c-2.6361 0-4.7743-2.1382-4.7743-4.7743s2.1382-4.7743 4.7743-4.7743 4.7743 2.1382 4.7743 4.7743-2.1348 4.7743-4.7743 4.7743z" fill="#fff"/>
    <g display="none" fill="none">
        <rect transform="rotate(90)" x="7.8232" y="-20.923" width="13.1" height="13.1" display="inline" stroke="#000" stroke-width=".070382"/>
        <rect x="7.2241" y="8.6528" width="14.298" height="11.441" stroke="#5261ff" stroke-linecap="round" stroke-linejoin="round" stroke-width=".069589"/>
        <rect transform="rotate(90)" x="7.2241" y="-20.094" width="14.298" height="11.441" display="inline" stroke="#0f0" stroke-linecap="round" stroke-linejoin="round" stroke-width=".069589"/>
    </g>
</svg>
