<?xml version="1.0" encoding="UTF-8"?>
<svg version="1.1" viewBox="0 0 28.747 28.747" xmlns="http://www.w3.org/2000/svg">
    <defs>
        <filter id="filter6206-7" color-interpolation-filters="sRGB">
            <feGaussianBlur stdDeviation="0.658125"/>
        </filter>
    </defs>
    <g transform="translate(0 -1093.8)">
        <path transform="matrix(1.0781 0 0 1.0641 -.093733 2.7509)" d="m4.4177 1028.2v1.6051h-1.6052v18.192h1.6052v2.1402h18.192v-2.1402h2.1402v-18.192h-2.1402v-1.6051z" fill="#232323" filter="url(#filter6206-7)" opacity=".2"/>
        <rect x="2.9987" y="1096.8" width="22.749" height="22.749" rx="1.1973" ry="1.1974" fill="#232323"/>
        <g transform="translate(-22.32 1056.5)">
            <path d="m0 0h51.2v51.2h-51.2z" fill="none" stroke-width="1.0667"/>
            <g transform="matrix(.33601 0 0 .33601 1.5296 73.043)">
                <path d="m0 0h51.2v51.2h-51.2z" fill="none" stroke-width="1.0667"/>
            </g>
            <g transform="matrix(.37187 0 0 .37187 38.802 63.239)">
                <path d="m0 0h51.2v51.2h-51.2z" fill="none" stroke-width="1.0667"/>
                <g transform="matrix(2.6891 0 0 2.6891 -82.906 -48.45)">
                    <path d="m0 0h51.2v51.2h-51.2z" fill="none" stroke-width="1.0667"/>
                </g>
            </g>
        </g>
        <path d="m4.1958 1096.8c-0.66332 0-1.1979 0.5346-1.1979 1.1979v0.3334c0-0.6634 0.53459-1.1979 1.1979-1.1979h20.354c0.66332 0 1.1979 0.5345 1.1979 1.1979v-0.3334c0-0.6633-0.5346-1.1979-1.1979-1.1979z" fill="#fff" opacity=".2"/>
        <rect x="128" y="546.52" width="42.667" height="42.667" fill="none" stroke-width="1.0667"/>
        <rect x="128" y="631.85" width="42.667" height="42.667" fill="none" stroke-width="1.0667"/>
        <rect x="128" y="674.52" width="42.667" height="42.667" fill="none" stroke-width="1.0667"/>
        <rect x="128" y="589.19" width="42.667" height="42.667" fill="none" stroke-width="1.0667"/>
        <rect x="128" y="717.19" width="42.667" height="42.667" fill="none" stroke-width="1.0667"/>
        <rect x="213.33" y="546.52" width="42.667" height="42.667" fill="none" stroke-width="1.0667"/>
        <rect x="213.33" y="631.85" width="42.667" height="42.667" fill="none" stroke-width="1.0667"/>
        <rect x="213.33" y="674.52" width="42.667" height="42.667" fill="none" stroke-width="1.0667"/>
        <rect x="213.33" y="589.19" width="42.667" height="42.667" fill="none" stroke-width="1.0667"/>
        <rect x="213.33" y="717.19" width="42.667" height="42.667" fill="none" stroke-width="1.0667"/>
        <rect x="298.67" y="546.52" width="42.667" height="42.667" fill="none" stroke-width="1.0667"/>
        <rect x="298.67" y="631.85" width="42.667" height="42.667" fill="none" stroke-width="1.0667"/>
        <rect x="298.67" y="674.52" width="42.667" height="42.667" fill="none" stroke-width="1.0667"/>
        <rect x="298.67" y="589.19" width="42.667" height="42.667" fill="none" stroke-width="1.0667"/>
        <rect x="298.67" y="717.19" width="42.667" height="42.667" fill="none" stroke-width="1.0667"/>
        <rect x="170.67" y="546.52" width="42.667" height="42.667" fill="none" stroke-width="1.0667"/>
        <rect x="170.67" y="631.85" width="42.667" height="42.667" fill="none" stroke-width="1.0667"/>
        <rect x="170.67" y="674.52" width="42.667" height="42.667" fill="none" stroke-width="1.0667"/>
        <rect x="170.67" y="589.19" width="42.667" height="42.667" fill="none" stroke-width="1.0667"/>
        <rect x="170.67" y="717.19" width="42.667" height="42.667" fill="none" stroke-width="1.0667"/>
        <rect x="256" y="546.52" width="42.667" height="42.667" fill="none" stroke-width="1.0667"/>
        <rect x="256" y="631.85" width="42.667" height="42.667" fill="none" stroke-width="1.0667"/>
        <rect x="256" y="674.52" width="42.667" height="42.667" fill="none" stroke-width="1.0667"/>
        <rect x="256" y="589.19" width="42.667" height="42.667" fill="none" stroke-width="1.0667"/>
        <rect x="256" y="717.19" width="42.667" height="42.667" fill="none" stroke-width="1.0667"/>
        <rect x="128" y="759.85" width="42.667" height="42.667" fill="none" stroke-width="1.0667"/>
        <rect x="213.33" y="759.85" width="42.667" height="42.667" fill="none" stroke-width="1.0667"/>
        <rect x="298.67" y="759.85" width="42.667" height="42.667" fill="none" stroke-width="1.0667"/>
        <rect x="170.67" y="759.85" width="42.667" height="42.667" fill="none" stroke-width="1.0667"/>
        <rect x="256" y="759.85" width="42.667" height="42.667" fill="none" stroke-width="1.0667"/>
        <rect x="341.33" y="589.19" width="42.667" height="42.667" fill="none" stroke-width="1.0667"/>
        <rect x="341.33" y="631.85" width="42.667" height="42.667" fill="none" stroke-width="1.0667"/>
        <rect x="341.33" y="717.19" width="42.667" height="42.667" fill="none" stroke-width="1.0667"/>
        <rect x="341.33" y="546.52" width="42.667" height="42.667" fill="none" stroke-width="1.0667"/>
        <rect x="341.33" y="674.52" width="42.667" height="42.667" fill="none" stroke-width="1.0667"/>
        <rect x="341.33" y="759.85" width="42.667" height="42.667" fill="none" stroke-width="1.0667"/>
        <rect x="160" y="578.52" width="192" height="192" fill="none" stroke-width="1.0667"/>
        <g transform="matrix(.37344 0 0 .37344 4.7333 1097.4)">
            <path d="m0 0h51.2v51.2h-51.2z" fill="none" stroke-width="1.0667"/>
        </g>
        <g transform="matrix(.36471 0 0 .36471 5.1356 1097.4)">
            <path d="m0 0h51.2v51.2h-51.2z" fill="none" stroke-width="1.0667"/>
        </g>
        <g transform="matrix(.41585 0 0 .41585 84.325 1055.9)">
            <g transform="matrix(.062269 0 0 .062269 -28.238 185.29)">
                <g transform="matrix(38.618 0 0 38.618 14724 -13542)">
                    <g transform="matrix(.71436 0 0 .71436 -400.52 188.34)">
                        <path d="m1293.2-120.67c-181.75 0.2763-511.18 0.13525-699.05 0.13998-2.3216 10.413-3.593 21.251-3.593 32.384v114c207.65 0.73695 494.72 0.38136 706.23 0.3733v-114.37c0-11.18-1.2522-22.07-3.593-32.523zm-458.69 295.56c-78.385-4e-3 -158.85 0.17892-243.95 0.55995v138.63c286.34-0.39317 421.73-0.13827 706.23-0.32664v-137.75c-163.2-0.53005-311.22-1.1113-462.28-1.1199z" opacity="0" stroke-width="1.4932"/>
                    </g>
                </g>
            </g>
        </g>
        <path d="m24.549 1119.5c0.66325 0 1.1979-0.5346 1.1979-1.1979v-0.3333c0 0.6632-0.53461 1.1978-1.1979 1.1978h-20.354c-0.66325 0-1.1979-0.5346-1.1979-1.1978v0.3333c0 0.6633 0.53461 1.1979 1.1979 1.1979z" fill="#232323" opacity=".2"/>
    </g>
    <g fill="#fff">
        <g transform="matrix(.015086 0 0 .015086 12.429 7.783)" fill-rule="evenodd">
            <path d="m162.97 77.372c-6.1948 0-12.39-0.0011-18.584 0.0011-0.59972 0-1.203-0.02822-1.7956 0.03704-1.785 0.19614-3.0903 1.5787-2.9845 3.3743 0.0529 0.88724 0.38806 1.8172 0.81139 2.6148 4.3886 8.2956 8.8194 16.57 13.243 24.848 37.045 69.34 74.094 138.68 111.14 208.02 1.3194 2.4656 2.5894 4.9583 3.9758 7.3839 1.3194 2.3048 3.9264 3.0741 6.1983 1.9801 1.2171-0.58484 1.8768-1.6326 2.48-2.7682 6.6746-12.511 13.356-25.015 20.041-37.52 32.092-60.064 64.184-120.13 96.28-180.19 3.9511-7.3977 7.881-14.809 11.874-22.184 1.6792-3.1062-0.61383-5.6557-3.1609-5.6377-13.123 0.09349-26.243 0.04762-39.366 0.03951-1.9932-0.0011-3.4396 0.87171-4.3886 2.5979-0.41627 0.75812-0.80786 1.5293-1.21 2.2952-26.624 50.679-53.248 101.36-79.872 152.03-0.34219 0.647-0.65264 1.324-1.0936 1.8994-1.9368 2.5326-5.655 2.5075-7.5706-0.0441-0.39864-0.52775-0.6985-1.1321-1.009-1.7198-4.3074-8.1883-8.6113-16.38-12.919-24.57-22.641-43.069-45.293-86.136-67.913-129.22-1.1818-2.2574-2.8081-3.333-5.3904-3.2981-6.2618 0.08431-12.524 0.02752-18.785 0.02681"/>
            <path d="m595.73 290.02c6.1278 0 12.256 1e-3 18.387-1e-3 0.59619 0 1.203 0.0251 1.7956-0.0367 2.3566-0.2473 3.7359-2.4109 2.9386-4.6337-0.24694-0.68298-0.62088-1.324-0.96308-1.9678-16.626-31.122-33.249-62.241-49.876-93.359-25.848-48.382-51.696-96.763-77.548-145.14-0.28222-0.52846-0.54328-1.0746-0.88194-1.5649-1.8627-2.6899-5.7538-2.734-7.6694-0.08008-0.38453 0.53587-0.67028 1.1479-0.98425 1.7346-17.54 32.819-35.08 65.638-52.617 98.459-24.941 46.677-49.879 93.356-74.821 140.03-0.28223 0.52846-0.58562 1.0488-0.81845 1.5998-0.9913 2.3629 0.39511 4.6965 2.9281 4.9304 0.59619 0.0543 1.1994 0.0303 1.7992 0.0303 7.5248 1e-3 15.053 0 22.581 0 4.8613 0 9.7261-0.0949 14.587 0.0363 2.8363 0.0766 4.7308-1.0093 5.8102-3.5934 0.0282-0.061 0.0635-0.11747 0.0953-0.17639 21.636-41.194 43.272-82.39 64.908-123.58 5.2917-10.077 10.612-20.142 15.879-30.231 0.97367-1.8648 2.3319-3.1154 4.4803-3.1457 2.2401-0.0318 3.6971 1.227 4.6531 3.1863 0.70202 1.4354 1.4781 2.8332 2.2225 4.2471 26.236 49.904 52.483 99.804 78.68 149.73 1.3053 2.4846 3.0304 3.6177 5.8491 3.5659 6.1912-0.11183 12.39-0.0353 18.584-0.0353"/>
            <path d="m-246.11 113.28v-0.0226c-12.717 0-25.436 0.10407-38.151-0.0561-4.5462-0.0572-6.525 2.0708-6.4918 6.4583 0.13159 17.51 0.0536 35.022 0.0557 52.532 0 0.66569-0.0169 1.3353 0.0512 1.995 0.24235 2.3273 1.947 4.0375 4.2764 4.3088 0.46108 0.0536 0.93063 0.042 1.3966 0.042 23.703 2e-3 47.406 0.0247 71.109-0.012 6.888-0.0109 13.68-0.84137 20.199-3.2068 8.056-2.9235 14.289-7.9668 17.681-15.993 3.6089-8.539 4.1808-17.44 2.1608-26.424-1.3956-6.2054-5.0765-10.931-10.666-14.045-1.6768-0.93345-3.4466-1.7452-5.2522-2.3957-6.591-2.3745-13.471-3.108-20.415-3.1574-11.984-0.0857-23.969-0.024-35.954-0.024zm0.59337 176.84c11.187 0 22.373-0.0159 33.559 6e-3 5.7351 0.012 11.44-0.33973 17.098-1.2873 5.6684-0.94932 11.164-2.4719 16.287-5.1551 8.516-4.4595 13.997-11.298 16.098-20.725 1.8306-8.213 1.5311-16.414-0.63747-24.509-2.2701-8.4741-7.499-14.6-15.474-18.248-2.6472-1.2111-5.4349-2.1939-8.2476-2.9439-8.3548-2.2271-16.927-2.7827-25.527-2.7996-23.972-0.0462-47.942-0.0155-71.914-0.0155-0.46602 0-0.93275-0.0123-1.3981 4e-3 -2.9901 0.10371-4.839 1.8433-5.0874 4.7992-0.0445 0.52987-0.0349 1.0643-0.0349 1.597-2e-3 21.042-4e-3 42.083 6e-3 63.124 3.5e-4 0.79551 0.0265 1.6066 0.17992 2.3827 0.40605 2.0602 2.0588 3.5271 4.1437 3.731 0.6604 0.0653 1.3307 0.0385 1.9964 0.0385 12.984 1e-3 25.969 7.1e-4 38.953 7.1e-4zm86.473-97.958c0.57291 0.25259 0.9084 0.41698 1.2552 0.55245 16.975 6.6149 28.104 18.779 33.904 35.914 3.1595 9.3345 3.9603 18.977 3.3888 28.778-0.41239 7.0728-1.4305 14.035-3.5207 20.815-5.4321 17.623-16.678 30.184-33.262 38.061-7.9901 3.7946-16.426 6.1487-25.117 7.6638-9.2114 1.6069-18.501 2.153-27.839 2.1506-38.232-0.0138-76.464-6e-3 -114.7-7e-3 -0.7994 0-1.601 0.0285-2.3968-0.0244-2.5339-0.16826-4.1519-1.7576-4.4012-4.31-0.0582-0.59503-0.0507-1.1979-0.0507-1.7967-2e-3 -78.795-2e-3 -157.59-2e-3 -236.38 0-0.06668 5e-3 -0.13406-6.9e-4 -0.20002-0.31433-4.0213 1.9357-6.059 5.9888-6.0505 40.63 0.08325 81.26 0.03845 121.89 0.05821 12.885 0.0063 25.299 2.3573 36.917 8.079 16.009 7.8842 27.239 20.085 32.439 37.316 4.1959 13.904 4.0114 27.867-0.88547 41.607-4.1529 11.651-11.461 20.781-22.349 26.887-0.37712 0.21167-0.71085 0.49848-1.2612 0.89077"/>
            <path d="m11.275 113.28v-0.0229c-12.718 0-25.435 0-38.152 3.5e-4 -0.59902 0-1.1998-0.0201-1.7974 0.0141-2.6261 0.1517-4.4457 1.9717-4.5956 4.597-0.03422 0.59796-0.01482 1.1984-0.01482 1.7978-7.06e-4 17.511-0.0011 35.023-7.06e-4 52.534 0 0.59937-0.0194 1.2002 0.02222 1.797 0.16581 2.4303 1.8694 4.2298 4.2884 4.4972 0.72496 0.0808 1.4633 0.0459 2.1953 0.0459 21.773 2e-3 43.545 0.0187 65.317-0.0148 3.8559-6e-3 7.7188-0.13935 11.568-0.37042 4.7378-0.28328 9.3592-1.2555 13.815-2.9034 8.8512-3.2752 15.244-9.1059 18.38-18.15 2.5365-7.3198 2.9916-14.86 1.6792-22.456-0.99836-5.7813-3.7853-10.613-8.569-14.171-2.3671-1.7621-4.9777-3.0614-7.7576-4.0351-6.6111-2.3167-13.48-3.0829-20.422-3.1341-11.984-0.0878-23.971-0.0243-35.955-0.0243zm0.63747 176.84c10.521 0 21.041-0.0205 31.561 9e-3 5.4645 0.0141 10.915-0.133 16.334-0.87383 6.0925-0.83326 12.037-2.2193 17.621-4.8687 8.9359-4.239 14.972-10.988 17.314-20.69 2.1202-8.7849 1.7992-17.588-0.77258-26.24-2.2542-7.5928-7.0097-13.264-14.146-16.722-2.9739-1.4404-6.1278-2.6049-9.3169-3.4745-8.2127-2.238-16.658-2.7813-25.125-2.8-24.236-0.0529-48.473 0.0212-72.71-0.0639-3.3203-0.0113-6.3772 1.5727-6.0551 6.09 0.0092 0.13194 0 0.266 0 0.399 0 20.974-0.0014 41.948 0.0049 62.923 0 0.79622-0.0035 1.6062 0.12876 2.3858 0.36618 2.1604 2.0447 3.6897 4.2139 3.889 0.66111 0.06 1.3303 0.036 1.996 0.036 12.984 1e-3 25.968 1e-3 38.952 7.1e-4zm86.425-97.959c0.51506 0.22436 0.79022 0.35595 1.076 0.46602 17.491 6.8083 28.783 19.392 34.463 37.139 2.667 8.3354 3.4431 16.934 3.115 25.644-0.29633 7.7442-1.3229 15.381-3.6195 22.812-5.327 17.239-16.217 29.697-32.364 37.624-8.2515 4.0492-16.993 6.5279-26.014 8.0992-9.0805 1.5814-18.235 2.1515-27.439 2.149-38.433-0.01-76.864-3e-3 -115.3-6e-3 -0.86466 0-1.7364 0.0258-2.594-0.0663-2.1128-0.22999-3.6608-1.7596-3.9465-3.8745-0.08855-0.65652-0.0829-1.3279-0.0829-1.9932-0.0035-78.928-0.0035-157.86-0.0014-236.78 0-0.59902-0.01341-1.2026 0.04904-1.796 0.25047-2.388 1.9456-4.021 4.3212-4.1801 0.53058-0.03598 1.0654-0.01834 1.5984-0.01834 40.629-7.06e-4 81.259-0.01058 121.89 0.0049 12.263 0.0046 24.112 2.1604 35.295 7.3103 14.803 6.8167 25.83 17.439 32.149 32.629 3.5595 8.5489 4.9318 17.5 4.7237 26.736-0.17992 8.1478-1.6686 16.009-4.9248 23.491-4.445 10.207-11.328 18.269-21.128 23.723-0.37747 0.21061-0.71261 0.49601-1.27 0.88971"/>
        </g>
        <path d="m12.496 16.692c0.48878 0.48878 0.48874 1.3782 0 1.867l-0.93349-0.93349z" stroke-width="1.121"/>
        <path d="m13.74 15.447c1.1404 1.1404 1.1404 3.2159 0 4.3563l-0.62079-0.62079c0.81467-0.81468 0.8146-2.3001 0-3.1147z" stroke-width="1.121"/>
        <path d="m14.985 14.202c1.8888 1.8888 1.8919 4.9539 0 6.8458l-0.62079-0.62079c1.4664-1.4664 1.4664-4.1379 0-5.6043z" stroke-width="1.121"/>
    </g>
    <g display="none" fill="none">
        <rect transform="rotate(90)" x="7.8232" y="-20.923" width="13.1" height="13.1" display="inline" stroke="#000" stroke-width=".070382"/>
        <rect x="7.2241" y="8.6528" width="14.298" height="11.441" stroke="#5261ff" stroke-linecap="round" stroke-linejoin="round" stroke-width=".06959"/>
        <rect transform="rotate(90)" x="7.2241" y="-20.094" width="14.298" height="11.441" display="inline" stroke="#0f0" stroke-linecap="round" stroke-linejoin="round" stroke-width=".06959"/>
    </g>
</svg>
