<?xml version="1.0" encoding="UTF-8"?>
<svg fill="none" viewBox="0 0 40 40" xmlns="http://www.w3.org/2000/svg">
    <g filter="url(#filter0_f)" opacity=".2">
        <path d="m6.4966 4.3023v2.3767h-2.408v26.937h2.408v3.1689h27.29v-3.1689h3.2106v-26.937h-3.2106v-2.3767h-27.29z" fill="#232323"/>
    </g>
    <path d="m34.161 4.1727h-28.323c-0.92013 0-1.666 0.74594-1.666 1.6661v28.323c0 0.9202 0.74591 1.6661 1.666 1.6661h28.323c0.9201 0 1.6661-0.7459 1.6661-1.6661v-28.323c0-0.92018-0.746-1.6661-1.6661-1.6661z" fill="#232323"/>
    <path d="m5.8384 4.1715c-0.92299 0-1.6669 0.74384-1.6669 1.6668v0.46405c0-0.9231 0.74387-1.667 1.6669-1.667h28.322c0.923 0 1.6669 0.74387 1.6669 1.667v-0.46405c0-0.92296-0.7439-1.6668-1.6669-1.6668h-28.322z" fill="#fff" opacity=".2"/>
    <path d="m34.16 35.859c0.9229 0 1.6668-0.7438 1.6668-1.6668v-0.4639c0 0.9228-0.7439 1.6668-1.6668 1.6668h-28.322c-0.9229 0-1.6668-0.744-1.6668-1.6668v0.4639c0 0.923 0.7439 1.6668 1.6668 1.6668h28.322z" fill="#232323" opacity=".2"/>
    <path d="m20.43 10c3.7594 0 5.9576 2.2555 5.9576 5.4141 0 2.1431-1.2241 3.6656-2.9503 4.3209 2.2551 0.5646 3.5632 2.5925 3.5632 4.8221 0 3.1586-2.4784 5.4429-6.097 5.4429h-6.903v-20h6.4295zm-0.3056 8.7354c2.1996 0 3.5077-1.325 3.5077-3.1859 0-1.8897-1.3636-3.1312-3.6186-3.1312h-3.2859v6.3171h3.3968zm0.3895 8.832c2.1997 0 3.6969-1.2416 3.6969-3.186 0-1.9185-1.1972-3.2723-3.5902-3.2723h-3.893v6.4583h3.7863z" clip-rule="evenodd" fill="#fff" fill-rule="evenodd"/>
    <defs>
        <filter id="filter0_f" x="3.3838" y="3.5974" width="34.319" height="33.893" color-interpolation-filters="sRGB" filterUnits="userSpaceOnUse">
            <feFlood flood-opacity="0" result="BackgroundImageFix"/>
            <feBlend in="SourceGraphic" in2="BackgroundImageFix" result="shape"/>
            <feGaussianBlur result="effect1_foregroundBlur" stdDeviation="0.352455"/>
        </filter>
    </defs>
</svg>
