<?xml version="1.0" encoding="UTF-8"?>
<svg version="1.1" viewBox="0 0 28.747 28.747" xmlns="http://www.w3.org/2000/svg">
    <defs>
        <filter id="filter6206-7" x="-.072" y="-.072" width="1.144" height="1.144" color-interpolation-filters="sRGB">
            <feGaussianBlur stdDeviation="0.658125"/>
        </filter>
    </defs>
    <g transform="translate(0 -1093.8)">
        <path transform="matrix(1.0781 0 0 1.0641 -.093733 2.7509)" d="m4.4177 1028.2v1.6051h-1.6052v18.192h1.6052v2.1402h18.192v-2.1402h2.1402v-18.192h-2.1402v-1.6051z" fill="#232323" filter="url(#filter6206-7)" opacity=".2"/>
        <rect x="2.9987" y="1096.8" width="22.749" height="22.749" rx="1.1973" ry="1.1974" fill="#232323"/>
        <g transform="translate(-22.32 1056.5)">
            <path d="m0 0h51.2v51.2h-51.2z" fill="none" stroke-width="1.0667"/>
            <g transform="matrix(.33601 0 0 .33601 1.5296 73.043)">
                <path d="m0 0h51.2v51.2h-51.2z" fill="none" stroke-width="1.0667"/>
            </g>
            <g transform="matrix(.37187 0 0 .37187 38.802 63.239)">
                <path d="m0 0h51.2v51.2h-51.2z" fill="none" stroke-width="1.0667"/>
                <g transform="matrix(2.6891 0 0 2.6891 -82.906 -48.45)">
                    <path d="m0 0h51.2v51.2h-51.2z" fill="none" stroke-width="1.0667"/>
                </g>
            </g>
        </g>
        <path d="m4.1958 1096.8c-0.66332 0-1.1979 0.5346-1.1979 1.1979v0.3334c0-0.6634 0.53459-1.1979 1.1979-1.1979h20.354c0.66332 0 1.1979 0.5345 1.1979 1.1979v-0.3334c0-0.6633-0.5346-1.1979-1.1979-1.1979z" fill="#fff" opacity=".2"/>
        <rect x="128" y="546.52" width="42.667" height="42.667" fill="none" stroke-width="1.0667"/>
        <rect x="128" y="631.85" width="42.667" height="42.667" fill="none" stroke-width="1.0667"/>
        <rect x="128" y="674.52" width="42.667" height="42.667" fill="none" stroke-width="1.0667"/>
        <rect x="128" y="589.19" width="42.667" height="42.667" fill="none" stroke-width="1.0667"/>
        <rect x="128" y="717.19" width="42.667" height="42.667" fill="none" stroke-width="1.0667"/>
        <rect x="213.33" y="546.52" width="42.667" height="42.667" fill="none" stroke-width="1.0667"/>
        <rect x="213.33" y="631.85" width="42.667" height="42.667" fill="none" stroke-width="1.0667"/>
        <rect x="213.33" y="674.52" width="42.667" height="42.667" fill="none" stroke-width="1.0667"/>
        <rect x="213.33" y="589.19" width="42.667" height="42.667" fill="none" stroke-width="1.0667"/>
        <rect x="213.33" y="717.19" width="42.667" height="42.667" fill="none" stroke-width="1.0667"/>
        <rect x="298.67" y="546.52" width="42.667" height="42.667" fill="none" stroke-width="1.0667"/>
        <rect x="298.67" y="631.85" width="42.667" height="42.667" fill="none" stroke-width="1.0667"/>
        <rect x="298.67" y="674.52" width="42.667" height="42.667" fill="none" stroke-width="1.0667"/>
        <rect x="298.67" y="589.19" width="42.667" height="42.667" fill="none" stroke-width="1.0667"/>
        <rect x="298.67" y="717.19" width="42.667" height="42.667" fill="none" stroke-width="1.0667"/>
        <rect x="170.67" y="546.52" width="42.667" height="42.667" fill="none" stroke-width="1.0667"/>
        <rect x="170.67" y="631.85" width="42.667" height="42.667" fill="none" stroke-width="1.0667"/>
        <rect x="170.67" y="674.52" width="42.667" height="42.667" fill="none" stroke-width="1.0667"/>
        <rect x="170.67" y="589.19" width="42.667" height="42.667" fill="none" stroke-width="1.0667"/>
        <rect x="170.67" y="717.19" width="42.667" height="42.667" fill="none" stroke-width="1.0667"/>
        <rect x="256" y="546.52" width="42.667" height="42.667" fill="none" stroke-width="1.0667"/>
        <rect x="256" y="631.85" width="42.667" height="42.667" fill="none" stroke-width="1.0667"/>
        <rect x="256" y="674.52" width="42.667" height="42.667" fill="none" stroke-width="1.0667"/>
        <rect x="256" y="589.19" width="42.667" height="42.667" fill="none" stroke-width="1.0667"/>
        <rect x="256" y="717.19" width="42.667" height="42.667" fill="none" stroke-width="1.0667"/>
        <rect x="128" y="759.85" width="42.667" height="42.667" fill="none" stroke-width="1.0667"/>
        <rect x="213.33" y="759.85" width="42.667" height="42.667" fill="none" stroke-width="1.0667"/>
        <rect x="298.67" y="759.85" width="42.667" height="42.667" fill="none" stroke-width="1.0667"/>
        <rect x="170.67" y="759.85" width="42.667" height="42.667" fill="none" stroke-width="1.0667"/>
        <rect x="256" y="759.85" width="42.667" height="42.667" fill="none" stroke-width="1.0667"/>
        <rect x="341.33" y="589.19" width="42.667" height="42.667" fill="none" stroke-width="1.0667"/>
        <rect x="341.33" y="631.85" width="42.667" height="42.667" fill="none" stroke-width="1.0667"/>
        <rect x="341.33" y="717.19" width="42.667" height="42.667" fill="none" stroke-width="1.0667"/>
        <rect x="341.33" y="546.52" width="42.667" height="42.667" fill="none" stroke-width="1.0667"/>
        <rect x="341.33" y="674.52" width="42.667" height="42.667" fill="none" stroke-width="1.0667"/>
        <rect x="341.33" y="759.85" width="42.667" height="42.667" fill="none" stroke-width="1.0667"/>
        <rect x="160" y="578.52" width="192" height="192" fill="none" stroke-width="1.0667"/>
        <g transform="matrix(.37344 0 0 .37344 4.7333 1097.4)">
            <path d="m0 0h51.2v51.2h-51.2z" fill="none" stroke-width="1.0667"/>
        </g>
        <g transform="matrix(.36471 0 0 .36471 5.1356 1097.4)">
            <path d="m0 0h51.2v51.2h-51.2z" fill="none" stroke-width="1.0667"/>
        </g>
        <g transform="matrix(.41585 0 0 .41585 84.325 1055.9)">
            <g transform="matrix(.062269 0 0 .062269 -28.238 185.29)">
                <g transform="matrix(38.618 0 0 38.618 14724 -13542)">
                    <g transform="matrix(.71436 0 0 .71436 -400.52 188.34)">
                        <path d="m1293.2-120.67c-181.75 0.2763-511.18 0.13525-699.05 0.13998-2.3216 10.413-3.593 21.251-3.593 32.384v114c207.65 0.73695 494.72 0.38136 706.23 0.3733v-114.37c0-11.18-1.2522-22.07-3.593-32.523zm-458.69 295.56c-78.385-4e-3 -158.85 0.17892-243.95 0.55995v138.63c286.34-0.39317 421.73-0.13827 706.23-0.32664v-137.75c-163.2-0.53005-311.22-1.1113-462.28-1.1199z" opacity="0" stroke-width="1.4932"/>
                    </g>
                </g>
            </g>
        </g>
        <path d="m24.549 1119.5c0.66325 0 1.1979-0.5346 1.1979-1.1979v-0.3333c0 0.6632-0.53461 1.1978-1.1979 1.1978h-20.354c-0.66325 0-1.1979-0.5346-1.1979-1.1978v0.3333c0 0.6633 0.53461 1.1979 1.1979 1.1979z" fill="#232323" opacity=".2"/>
    </g>
    <path d="m17.554 7.2732c-0.23547-0.13595-0.53388-0.055996-0.66984 0.17948l-0.26819 0.46451c-0.3048-0.13781-0.7128-0.30002-1.1556-0.39783-0.5716-0.12626-1.2011-0.20386-1.7766-0.096686-0.60485 0.11265-1.2861 0.282-1.6737 0.7598-0.51114 0.63009-1.2448 2.0006-1.2448 2.0006 2e-6 -1e-6 -0.04532 0.07859-0.04998 0.08659-0.10554-0.05588-0.21649-0.10954-0.30172-0.13756-0.21866-0.07188-0.45112-0.12289-0.68254-0.10637-0.32726 0.02335-0.58747 0.06796-0.94679 0.26879-0.36139 0.20199-0.4892 0.36336-0.63202 0.61544-0.23038 0.40665-0.70306 1.2304-0.70306 1.2304-0.096479 0.1688-0.029012 0.48899 0.19604 0.61893 0.22572 0.13032 0.52817 0.07134 0.66327-0.16494l0.36461-0.63789s0.17993-0.32927 0.31919-0.55601c0.097999-0.15959 0.34324-0.32363 0.52367-0.37382 0.17581-0.0489 0.37178-0.04446 0.54797 3e-3 0.0495 0.01335 0.10835 0.03962 0.16778 0.07121-0.2407 0.41525-0.51306 0.88661-0.69703 1.2137-0.33064 0.58766-0.73701 1.2839-0.57492 1.9384 0.14673 0.59248 0.67907 0.9643 1.2793 1.3103 0.64529 0.37199 1.935 1.1172 1.935 1.1172s1.2577 0.73276 1.935 1.1172c0.54698 0.31035 1.1843 0.62765 1.7704 0.45962 0.65075-0.18655 1.0395-0.89799 1.3952-1.474 0.20772-0.33635 0.50077-0.84289 0.74936-1.2788 0.10804 0.05758 0.22189 0.11138 0.30939 0.14014 0.21866 0.07188 0.45033 0.12426 0.68174 0.10775 0.32726-0.02335 0.58964-0.06855 0.94895-0.26938 0.36139-0.20199 0.48782-0.36415 0.63064-0.61623 0.23038-0.40664 0.70227-1.229 0.70227-1.229 0.09651-0.16878 0.02902-0.48899-0.19604-0.61893-0.22573-0.13032-0.5268-0.07054-0.66189 0.16579l-0.36388 0.63648s-0.18128 0.32849-0.32055 0.55521c-0.09799 0.1596-0.34403 0.32501-0.52446 0.37519-0.17581 0.0489-0.36961 0.04388-0.5458-0.0036-0.05484-0.01479-0.12107-0.04615-0.18702-0.08232 1.16e-4 -2.1e-4 0.0081-0.01372 0.0081-0.01372 2e-6 -1e-6 0.91944-1.4259 1.1227-2.2397 0.1526-0.61114-0.03119-1.2848-0.26096-1.8713-0.19211-0.49024-0.55198-0.90344-0.90266-1.2962-0.32321-0.362-0.71078-0.65661-0.99202-0.84943l0.26105-0.45214c0.13595-0.23547 0.05598-0.53388-0.17948-0.66983zm-3.4016 2.0197a0.59459 0.59459 0 0 1 0.21861 0.81153 0.59459 0.59459 0 0 1-0.81291 0.21782 0.59459 0.59459 0 0 1-0.21644-0.81211 0.59459 0.59459 0 0 1 0.81074-0.21724zm3.4088 1.97a0.59459 0.59459 0 0 1 0.21782 0.8129 0.59459 0.59459 0 0 1-0.81291 0.21782 0.59459 0.59459 0 0 1-0.21782-0.81291 0.59459 0.59459 0 0 1 0.81291-0.21782zm-2.6205 0.46053 0.24188 0.13965c0.10083 0.05822 0.13547 0.18748 0.07726 0.28831l-1.0505 1.8196c-0.05822 0.10083-0.18669 0.13409-0.28752 0.07587l-0.24188-0.13964c-0.10083-0.05822-0.13626-0.1861-0.07804-0.28694l1.0505-1.8196c0.05822-0.10083 0.18748-0.13548 0.28831-0.07726zm-1.0805-0.12173c0.06208 0.03688 0.10375 0.10552 0.10271 0.18391l-0.0035 0.28205c-0.0013 0.10544-0.08147 0.19352-0.18653 0.20565-0.44944 0.05186-0.86363 0.30568-1.1057 0.72494-0.40478 0.69932-0.17042 1.6002 0.53844 2.0095 0.69446 0.40095 1.6034 0.17542 2.0143-0.54664 0.22454-0.39398 0.25772-0.87986 0.06962-1.3139-0.04203-0.09704-0.0048-0.20917 0.08541-0.2622l0.24255-0.14398c0.10735-0.06337 0.24637-0.02045 0.29798 0.09324 0.28066 0.61692 0.27035 1.3535-0.09427 1.985-0.59879 1.0371-1.9237 1.3931-2.9614 0.79695-1.0362-0.59518-1.3975-1.9272-0.80105-2.9638 0.36384-0.63198 0.99868-1.0125 1.673-1.0791 0.0469-0.0044 0.09115 0.0062 0.12841 0.02832zm-1.92 5.5376c-0.80443-0.46444-1.8353-0.1886-2.3 0.61628-0.44369 0.7685-0.24591 3.4606-0.24371 3.5864l0.00311 0.19783 0.17423-0.09548c0.11008-0.06101 2.5406-1.2362 2.9841-2.0043 0.4647-0.80488 0.18678-1.8363-0.61765-2.3008zm-0.33941 0.67993c0.43164 0.2492 0.58003 0.80443 0.33108 1.2356-0.24902 0.43234-0.80354 0.58054-1.2356 0.33108-0.43164-0.2492-0.58055-0.80353-0.33108-1.2356 0.2492-0.43163 0.80398-0.58029 1.2356-0.33108z" fill="#fff" fill-opacity=".98629" stop-color="#000000" stroke-linejoin="round" stroke-width="1.2538px" style="paint-order:markers stroke fill"/>
    <g display="none" fill="none">
        <rect transform="rotate(90)" x="7.8232" y="-20.923" width="13.1" height="13.1" display="inline" stroke="#000" stroke-width=".070382"/>
        <rect x="7.2241" y="8.6528" width="14.298" height="11.441" stroke="#5261ff" stroke-linecap="round" stroke-linejoin="round" stroke-width=".06959"/>
        <rect transform="rotate(90)" x="7.2241" y="-20.094" width="14.298" height="11.441" display="inline" stroke="#0f0" stroke-linecap="round" stroke-linejoin="round" stroke-width=".06959"/>
    </g>
</svg>
