<?xml version="1.0" encoding="UTF-8"?>
<svg fill="none" viewBox="0 0 40 40" xmlns="http://www.w3.org/2000/svg">
    <g filter="url(#filter0_f)" opacity=".2">
        <path d="m6.4966 4.3023v2.3767h-2.408v26.937h2.408v3.1689h27.29v-3.1689h3.2106v-26.937h-3.2106v-2.3767h-27.29z" fill="#232323"/>
    </g>
    <path d="m34.161 4.1727h-28.323c-0.92013 0-1.666 0.74594-1.666 1.6661v28.323c0 0.9202 0.74591 1.6661 1.666 1.6661h28.323c0.9201 0 1.6661-0.7459 1.6661-1.6661v-28.323c0-0.92018-0.746-1.6661-1.6661-1.6661z" fill="#232323"/>
    <path d="m5.8384 4.1715c-0.92299 0-1.6669 0.74384-1.6669 1.6668v0.46405c0-0.9231 0.74387-1.667 1.6669-1.667h28.322c0.923 0 1.6669 0.74387 1.6669 1.667v-0.46405c0-0.92296-0.7439-1.6668-1.6669-1.6668h-28.322z" fill="#fff" opacity=".2"/>
    <path d="m34.16 35.859c0.9229 0 1.6668-0.7438 1.6668-1.6668v-0.4639c0 0.9228-0.7439 1.6668-1.6668 1.6668h-28.322c-0.9229 0-1.6668-0.744-1.6668-1.6668v0.4639c0 0.923 0.7439 1.6668 1.6668 1.6668h28.322z" fill="#232323" opacity=".2"/>
    <path d="m17.157 13.267c0.758 0.3828 1.0979 0.717 1.4713 1.4465 0.271 0.5299 0.3185 0.8948 0.2715 2.0886-0.0462 1.1774-0.1249 1.5381-0.4226 1.9396l-0.3658 0.4933 0.3884 0.2537c0.2136 0.1397 0.5642 0.5359 0.779 0.8806 0.3516 0.5641 0.3906 0.8163 0.3906 2.5227 0 1.6776-0.0438 1.9724-0.3806 2.5584-0.2095 0.3643-0.65 0.8466-0.979 1.0716-0.5657 0.3871-0.742 0.4122-3.2391 0.4623-1.4524 0.029-2.8143 0.0094-3.0262-0.0437-0.5035-0.1259-1.5014-1.006-1.805-1.5918-0.1686-0.3251-0.2395-1.0258-0.2395-2.3661v-1.9043h1.4876v1.5746c0 1.7524 0.206 2.3626 0.9045 2.68 0.2591 0.1179 1.2312 0.197 2.4173 0.197 2.1929 0 2.8532-0.1952 3.1316-0.9254 0.0869-0.2282 0.1582-1.0466 0.1582-1.8184 0-1.3312-0.0248-1.4281-0.4832-1.8853-0.473-0.4719-0.5195-0.4819-2.2314-0.4819h-1.7482v-1.6488h1.3332c0.7332 0 1.4762-0.0763 1.6511-0.1698 0.7277-0.3884 1.0462-1.9285 0.6396-3.0922-0.3177-0.9092-0.6975-1.0246-3.3702-1.0246h-2.4025v1.4838h-1.4876v-2.9677h3.314c2.7275 0 3.4077 0.0473 3.843 0.2673zm11.347 0.0776c0.3385 0.1898 0.8134 0.6498 1.0556 1.0222 0.4137 0.6363 0.4403 0.7952 0.4403 2.6228v1.9455h-1.4583l-0.0561-1.8283c-0.054-1.7679-0.0711-1.8413-0.5197-2.2257-0.4312-0.3697-0.5952-0.3975-2.3426-0.3975-1.7803 0-1.9056 0.0224-2.3874 0.4268l-0.5086 0.4269v9.3833l0.4058 0.4046c0.3786 0.3779 0.52 0.4048 2.1239 0.4048 0.9451 0 1.9549-0.0823 2.244-0.1827 0.8327-0.2895 1.0114-0.8385 1.0114-3.1065v-1.9867h1.4876v2.3164c0 1.7002-0.0636 2.4393-0.2395 2.7783-0.3531 0.6811-1.3271 1.4692-1.963 1.588-0.3063 0.0574-1.5226 0.0795-2.703 0.0495-2.0576-0.0526-2.1715-0.074-2.7542-0.5179-0.3344-0.2545-0.7558-0.7524-0.9368-1.1063-0.3058-0.5978-0.3291-0.976-0.3291-5.338 0-2.9253 0.0664-4.8697 0.1763-5.1589 0.2161-0.5688 0.7357-1.1493 1.3939-1.557 0.4235-0.2625 0.8423-0.3073 2.8701-0.3078 2.1035-7e-4 2.4443 0.0387 2.9894 0.3442z" clip-rule="evenodd" fill="#fff" fill-rule="evenodd"/>
    <defs>
        <filter id="filter0_f" x="3.3838" y="3.5974" width="34.319" height="33.893" color-interpolation-filters="sRGB" filterUnits="userSpaceOnUse">
            <feFlood flood-opacity="0" result="BackgroundImageFix"/>
            <feBlend in="SourceGraphic" in2="BackgroundImageFix" result="shape"/>
            <feGaussianBlur result="effect1_foregroundBlur" stdDeviation="0.352455"/>
        </filter>
    </defs>
</svg>
