<?xml version="1.0" encoding="UTF-8"?>
<svg version="1.1" viewBox="0 0 26.95 26.95" xmlns="http://www.w3.org/2000/svg">
    <defs>
        <filter id="filter6206-7" color-interpolation-filters="sRGB">
            <feGaussianBlur stdDeviation="0.658125"/>
        </filter>
    </defs>
    <g transform="translate(0 -1025.4)">
        <path transform="matrix(1.0107 0 0 .99762 -.087875 2.579)" d="m4.4177 1028.2v1.6051h-1.6052v18.192h1.6052v2.1402h18.192v-2.1402h2.1402v-18.192h-2.1402v-1.6051h-18.192z" fill="#232323" filter="url(#filter6206-7)" opacity=".2"/>
        <rect x="2.8113" y="1028.2" width="21.327" height="21.327" rx="1.1225" ry="1.1226" fill="#232323"/>
        <g transform="translate(-20.925 990.46)">
            <path d="m0 0h48v48h-48z" fill="none"/>
            <g transform="matrix(.33601 0 0 .33601 1.434 68.477)">
                <path d="m0 0h48v48h-48z" fill="none"/>
            </g>
            <g transform="matrix(.37187 0 0 .37187 36.377 59.287)">
                <path d="m0 0h48v48h-48z" fill="none"/>
                <g transform="matrix(2.6891 0 0 2.6891 -77.724 -45.422)">
                    <path d="m0 0h48v48h-48z" fill="none"/>
                </g>
            </g>
        </g>
        <path transform="translate(0 1025.4)" d="m3.9336 2.8105c-0.62186 0-1.123 0.50115-1.123 1.123v0.3125c0-0.6219 0.50118-1.123 1.123-1.123h19.082c0.62186 0 1.123 0.50115 1.123 1.123v-0.3125c0-0.6219-0.50118-1.123-1.123-1.123h-19.082z" fill="#fff" opacity=".2"/>
        <rect x="120" y="512.36" width="40" height="40" fill="none"/>
        <rect x="120" y="592.36" width="40" height="40" fill="none"/>
        <rect x="120" y="632.36" width="40" height="40" fill="none"/>
        <rect x="120" y="552.36" width="40" height="40" fill="none"/>
        <rect x="120" y="672.36" width="40" height="40" fill="none"/>
        <rect x="200" y="512.36" width="40" height="40" fill="none"/>
        <rect x="200" y="592.36" width="40" height="40" fill="none"/>
        <rect x="200" y="632.36" width="40" height="40" fill="none"/>
        <rect x="200" y="552.36" width="40" height="40" fill="none"/>
        <rect x="200" y="672.36" width="40" height="40" fill="none"/>
        <rect x="280" y="512.36" width="40" height="40" fill="none"/>
        <rect x="280" y="592.36" width="40" height="40" fill="none"/>
        <rect x="280" y="632.36" width="40" height="40" fill="none"/>
        <rect x="280" y="552.36" width="40" height="40" fill="none"/>
        <rect x="280" y="672.36" width="40" height="40" fill="none"/>
        <rect x="160" y="512.36" width="40" height="40" fill="none"/>
        <rect x="160" y="592.36" width="40" height="40" fill="none"/>
        <rect x="160" y="632.36" width="40" height="40" fill="none"/>
        <rect x="160" y="552.36" width="40" height="40" fill="none"/>
        <rect x="160" y="672.36" width="40" height="40" fill="none"/>
        <rect x="240" y="512.36" width="40" height="40" fill="none"/>
        <rect x="240" y="592.36" width="40" height="40" fill="none"/>
        <rect x="240" y="632.36" width="40" height="40" fill="none"/>
        <rect x="240" y="552.36" width="40" height="40" fill="none"/>
        <rect x="240" y="672.36" width="40" height="40" fill="none"/>
        <rect x="120" y="712.36" width="40" height="40" fill="none"/>
        <rect x="200" y="712.36" width="40" height="40" fill="none"/>
        <rect x="280" y="712.36" width="40" height="40" fill="none"/>
        <rect x="160" y="712.36" width="40" height="40" fill="none"/>
        <rect x="240" y="712.36" width="40" height="40" fill="none"/>
        <rect x="320" y="552.36" width="40" height="40" fill="none"/>
        <rect x="320" y="592.36" width="40" height="40" fill="none"/>
        <rect x="320" y="672.36" width="40" height="40" fill="none"/>
        <rect x="320" y="512.36" width="40" height="40" fill="none"/>
        <rect x="320" y="632.36" width="40" height="40" fill="none"/>
        <rect x="320" y="712.36" width="40" height="40" fill="none"/>
        <rect x="150" y="542.36" width="180" height="180" fill="none"/>
        <g transform="matrix(.37344 0 0 .37344 4.4375 1028.8)">
            <path d="m0 0h48v48h-48z" fill="none"/>
        </g>
        <g transform="matrix(.36471 0 0 .36471 4.8146 1028.8)">
            <path d="m0 0h48v48h-48z" fill="none"/>
        </g>
        <g transform="matrix(.41585 0 0 .41585 79.055 989.88)">
            <g transform="matrix(.062269 0 0 .062269 -26.473 173.71)">
                <g transform="matrix(38.618 0 0 38.618 13804 -12696)">
                    <g transform="matrix(.71436 0 0 .71436 -375.49 176.57)">
                        <path transform="matrix(1.3999 0 0 1.3999 525.63 -247.17)" d="m490.56 95.75c-121.72 0.18504-342.34 0.090577-468.16 0.09375-1.5548 6.9739-2.4062 14.232-2.4062 21.688v76.344c139.06 0.49354 331.32 0.2554 472.97 0.25v-76.594c0-7.4875-0.8386-14.78-2.4062-21.781zm-307.19 197.94c-52.495-3e-3 -106.38 0.11982-163.38 0.375v92.844c191.76-0.26331 282.43-0.0926 472.97-0.21875v-92.25c-109.29-0.35498-208.43-0.74426-309.59-0.75z" opacity="0"/>
                    </g>
                </g>
            </g>
        </g>
        <path d="m23.015 1049.6c0.6218 0 1.123-0.5012 1.123-1.123v-0.3125c0 0.6218-0.5012 1.123-1.123 1.123h-19.082c-0.6218 0-1.123-0.5012-1.123-1.123v0.3125c0 0.6218 0.5012 1.123 1.123 1.123h19.082z" fill="#232323" opacity=".2"/>
    </g>
    <g transform="matrix(.026399 0 0 .026399 31.807 22.778)" fill="#fff">
        <path d="m-694.85-150.95c-9.8542-1.625-20.665-8.5121-25.442-16.209-7.3242-11.799-10.808-28.411-10.808-51.538 5e-4 -36.163 7.5759-55.645 24.844-63.895 7.1586-3.4199 9.512-3.8704 23.125-4.4265 23.083-0.94293 46.58 2.7272 50.422 7.8756 1.3127 1.7594 1.6809 5.2752 1.3857 13.231-0.221 5.9592-0.7687 11.201-1.217 11.648-0.4484 0.44747-4.0673 0.2124-8.0421-0.52238-3.9748-0.73479-15.155-1.336-24.844-1.336-19.966 0-21.398 0.50411-25.981 9.1451-2.5662 4.8379-2.7757 6.9163-2.7958 27.73-0.019 20.053 0.2503 23.035 2.4784 27.419 4.868 9.579 6.3922 10.045 33.902 10.358 13.391 0.1525 24.882 0.60757 25.535 1.0113 1.385 0.85599 1.5885 21.823 0.231 23.798-0.5051 0.73484-3.4296 2.3254-6.4989 3.5346-4.3981 1.7327-10.357 2.2944-28.125 2.6511-12.4 0.24891-25.076 0.0351-28.17-0.47503zm168.3-0.0125c-2.2083-0.86829-4.3684-5.3946-7.2347-15.16-2.2287-7.5929-2.8077-7.796-22.714-7.9682-9.9679-0.0863-18.458 0.17367-18.867 0.57755-0.4091 0.40387-2.1986 4.9039-3.9766 10-1.7781 5.0961-3.8134 9.9688-4.5229 10.828-0.9189 1.113-6.2809 1.5625-18.637 1.5625-20.048 0-19.342 0.61967-14.852-13.037 8.6834-26.413 25.69-78.405 31.717-96.963 3.9072-12.031 7.5527-22.592 8.1012-23.468 0.7598-1.2136 6.1846-1.5113 22.78-1.25l21.782 0.3434 5.1192 15.625c2.8155 8.5938 6.9767 21.531 9.2472 28.75 2.2704 7.2188 5.6646 17.906 7.5425 23.75s6.305 19.625 9.838 30.625c3.5329 11 7.3471 22.875 8.4759 26.39 3.3071 10.296 3.0035 10.499-15.496 10.398-8.7872-0.0484-17.023-0.49943-18.303-1.0024zm-19.104-55.766c0.3918-1.0212-0.3917-5.3133-1.7413-9.5378-1.3496-4.2241-2.4538-8.2916-2.4538-9.0385 0-2.9135-4.1652-12.065-5.4823-12.046-1.7207 0.0255-11.3 29.357-10.18 31.17 0.4452 0.72031 4.9348 1.3096 9.9769 1.3096 6.9559 0 9.3394-0.44795 9.8801-1.8568z" fill="#fff"/>
    </g>
    <g transform="matrix(.022974 0 0 .022974 36.403 16.864)" fill="#fff">
        <path d="m-1231.8-116.59 111.02-45.962-104.65 248.19 263.75-357.8-120.92 70.004 128.69-239.71-277.89 325.27" fill="#fff" fill-rule="evenodd"/>
    </g>
    <g display="none" fill="none">
        <rect transform="rotate(90)" x="7.3342" y="-19.616" width="12.282" height="12.282" display="inline" stroke="#000" stroke-width=".065984"/>
        <rect x="6.7726" y="8.112" width="13.405" height="10.726" stroke="#5261ff" stroke-linecap="round" stroke-linejoin="round" stroke-width=".06524"/>
        <rect transform="rotate(90)" x="6.7726" y="-18.838" width="13.405" height="10.726" display="inline" stroke="#0f0" stroke-linecap="round" stroke-linejoin="round" stroke-width=".06524"/>
    </g>
</svg>
