<?xml version="1.0" encoding="UTF-8"?>
<svg version="1.1" viewBox="0 0 28.747 28.747" xmlns="http://www.w3.org/2000/svg">
    <defs>
        <filter id="filter6206-7" x="-.072" y="-.072" width="1.144" height="1.144" color-interpolation-filters="sRGB">
            <feGaussianBlur stdDeviation="0.658125"/>
        </filter>
    </defs>
    <g transform="translate(0 -1093.8)">
        <path transform="matrix(1.0781 0 0 1.0641 -.093733 2.7509)" d="m4.4177 1028.2v1.6051h-1.6052v18.192h1.6052v2.1402h18.192v-2.1402h2.1402v-18.192h-2.1402v-1.6051z" fill="#232323" filter="url(#filter6206-7)" opacity=".2"/>
        <rect x="2.9987" y="1096.8" width="22.749" height="22.749" rx="1.1973" ry="1.1974" fill="#232323"/>
        <g transform="translate(-22.32 1056.5)">
            <path d="m0 0h51.2v51.2h-51.2z" fill="none" stroke-width="1.0667"/>
            <g transform="matrix(.33601 0 0 .33601 1.5296 73.043)">
                <path d="m0 0h51.2v51.2h-51.2z" fill="none" stroke-width="1.0667"/>
            </g>
            <g transform="matrix(.37187 0 0 .37187 38.802 63.239)">
                <path d="m0 0h51.2v51.2h-51.2z" fill="none" stroke-width="1.0667"/>
                <g transform="matrix(2.6891 0 0 2.6891 -82.906 -48.45)">
                    <path d="m0 0h51.2v51.2h-51.2z" fill="none" stroke-width="1.0667"/>
                </g>
            </g>
        </g>
        <path d="m4.1958 1096.8c-0.66332 0-1.1979 0.5346-1.1979 1.1979v0.3334c0-0.6634 0.53459-1.1979 1.1979-1.1979h20.354c0.66332 0 1.1979 0.5345 1.1979 1.1979v-0.3334c0-0.6633-0.5346-1.1979-1.1979-1.1979z" fill="#fff" opacity=".2"/>
        <rect x="128" y="546.52" width="42.667" height="42.667" fill="none" stroke-width="1.0667"/>
        <rect x="128" y="631.85" width="42.667" height="42.667" fill="none" stroke-width="1.0667"/>
        <rect x="128" y="674.52" width="42.667" height="42.667" fill="none" stroke-width="1.0667"/>
        <rect x="128" y="589.19" width="42.667" height="42.667" fill="none" stroke-width="1.0667"/>
        <rect x="128" y="717.19" width="42.667" height="42.667" fill="none" stroke-width="1.0667"/>
        <rect x="213.33" y="546.52" width="42.667" height="42.667" fill="none" stroke-width="1.0667"/>
        <rect x="213.33" y="631.85" width="42.667" height="42.667" fill="none" stroke-width="1.0667"/>
        <rect x="213.33" y="674.52" width="42.667" height="42.667" fill="none" stroke-width="1.0667"/>
        <rect x="213.33" y="589.19" width="42.667" height="42.667" fill="none" stroke-width="1.0667"/>
        <rect x="213.33" y="717.19" width="42.667" height="42.667" fill="none" stroke-width="1.0667"/>
        <rect x="298.67" y="546.52" width="42.667" height="42.667" fill="none" stroke-width="1.0667"/>
        <rect x="298.67" y="631.85" width="42.667" height="42.667" fill="none" stroke-width="1.0667"/>
        <rect x="298.67" y="674.52" width="42.667" height="42.667" fill="none" stroke-width="1.0667"/>
        <rect x="298.67" y="589.19" width="42.667" height="42.667" fill="none" stroke-width="1.0667"/>
        <rect x="298.67" y="717.19" width="42.667" height="42.667" fill="none" stroke-width="1.0667"/>
        <rect x="170.67" y="546.52" width="42.667" height="42.667" fill="none" stroke-width="1.0667"/>
        <rect x="170.67" y="631.85" width="42.667" height="42.667" fill="none" stroke-width="1.0667"/>
        <rect x="170.67" y="674.52" width="42.667" height="42.667" fill="none" stroke-width="1.0667"/>
        <rect x="170.67" y="589.19" width="42.667" height="42.667" fill="none" stroke-width="1.0667"/>
        <rect x="170.67" y="717.19" width="42.667" height="42.667" fill="none" stroke-width="1.0667"/>
        <rect x="256" y="546.52" width="42.667" height="42.667" fill="none" stroke-width="1.0667"/>
        <rect x="256" y="631.85" width="42.667" height="42.667" fill="none" stroke-width="1.0667"/>
        <rect x="256" y="674.52" width="42.667" height="42.667" fill="none" stroke-width="1.0667"/>
        <rect x="256" y="589.19" width="42.667" height="42.667" fill="none" stroke-width="1.0667"/>
        <rect x="256" y="717.19" width="42.667" height="42.667" fill="none" stroke-width="1.0667"/>
        <rect x="128" y="759.85" width="42.667" height="42.667" fill="none" stroke-width="1.0667"/>
        <rect x="213.33" y="759.85" width="42.667" height="42.667" fill="none" stroke-width="1.0667"/>
        <rect x="298.67" y="759.85" width="42.667" height="42.667" fill="none" stroke-width="1.0667"/>
        <rect x="170.67" y="759.85" width="42.667" height="42.667" fill="none" stroke-width="1.0667"/>
        <rect x="256" y="759.85" width="42.667" height="42.667" fill="none" stroke-width="1.0667"/>
        <rect x="341.33" y="589.19" width="42.667" height="42.667" fill="none" stroke-width="1.0667"/>
        <rect x="341.33" y="631.85" width="42.667" height="42.667" fill="none" stroke-width="1.0667"/>
        <rect x="341.33" y="717.19" width="42.667" height="42.667" fill="none" stroke-width="1.0667"/>
        <rect x="341.33" y="546.52" width="42.667" height="42.667" fill="none" stroke-width="1.0667"/>
        <rect x="341.33" y="674.52" width="42.667" height="42.667" fill="none" stroke-width="1.0667"/>
        <rect x="341.33" y="759.85" width="42.667" height="42.667" fill="none" stroke-width="1.0667"/>
        <rect x="160" y="578.52" width="192" height="192" fill="none" stroke-width="1.0667"/>
        <g transform="matrix(.37344 0 0 .37344 4.7333 1097.4)">
            <path d="m0 0h51.2v51.2h-51.2z" fill="none" stroke-width="1.0667"/>
        </g>
        <g transform="matrix(.36471 0 0 .36471 5.1356 1097.4)">
            <path d="m0 0h51.2v51.2h-51.2z" fill="none" stroke-width="1.0667"/>
        </g>
        <g transform="matrix(.41585 0 0 .41585 84.325 1055.9)">
            <g transform="matrix(.062269 0 0 .062269 -28.238 185.29)">
                <g transform="matrix(38.618 0 0 38.618 14724 -13542)">
                    <g transform="matrix(.71436 0 0 .71436 -400.52 188.34)">
                        <path d="m1293.2-120.67c-181.75 0.2763-511.18 0.13525-699.05 0.13998-2.3216 10.413-3.593 21.251-3.593 32.384v114c207.65 0.73695 494.72 0.38136 706.23 0.3733v-114.37c0-11.18-1.2522-22.07-3.593-32.523zm-458.69 295.56c-78.385-4e-3 -158.85 0.17892-243.95 0.55995v138.63c286.34-0.39317 421.73-0.13827 706.23-0.32664v-137.75c-163.2-0.53005-311.22-1.1113-462.28-1.1199z" opacity="0" stroke-width="1.4932"/>
                    </g>
                </g>
            </g>
        </g>
        <path d="m24.549 1119.5c0.66325 0 1.1979-0.5346 1.1979-1.1979v-0.3333c0 0.6632-0.53461 1.1978-1.1979 1.1978h-20.354c-0.66325 0-1.1979-0.5346-1.1979-1.1978v0.3333c0 0.6633 0.53461 1.1979 1.1979 1.1979z" fill="#232323" opacity=".2"/>
    </g>
    <path d="m11.364 8.3117c-0.3039-0.014195-0.64141 0.14069-0.82392 0.38864-0.25869 0.35146-1.7922 4.0044-1.9277 4.5918-0.062914 0.27289-0.13822 0.73078-0.16712 1.0163-0.026148 0.25838-0.058006 0.46463-0.075785 0.50329l-1.0396-0.26428-0.14574 0.57519 1.23 0.31286v0.77534l-1.1523 0.01749 0.00777 0.59268 1.2126-0.01749 0.034977 0.17683c0.043871 0.21936 0.060755 0.3463 0.025262 0.44305l-1.1718 0.69955 0.30508 0.50912 1.059-0.63348 0.1438 0.33423c0.48246 1.1255 1.3054 1.7214 2.7516 1.9918 0.88212 0.16494 5.247 0.11573 5.8976-0.06607 1.1619-0.32466 1.8506-0.86349 2.2813-1.7839 0.14997-0.32047 0.17791-0.36696 0.22347-0.45665l1.028 0.61405 0.30508-0.50912-1.1756-0.70344c0.0069-0.06861 0.01581-0.13764 0.0272-0.20209 0.03488-0.19734 0.04949-0.32004 0.05829-0.4139l1.1912 0.01749 0.0078-0.59268-1.1407-0.01749v-0.34395c0-0.18581 0.0076-0.31346 0.0136-0.43722l1.2047-0.30703-0.14574-0.57519-1.0357 0.26428c-0.02068-0.03381-0.03646-0.15661-0.03692-0.31091-0.0024-0.78272-0.28644-1.7005-1.1445-3.7057-0.46922-1.0965-0.92688-2.0733-1.0182-2.1706-0.24932-0.26539-0.6411-0.37184-0.98715-0.26816-0.36216 0.10851-0.46085 0.22181-1.0377 1.1834l-0.4722 0.787-2.5495 0.04275-0.47997-0.80837c-0.51034-0.86228-0.77914-1.15-1.1523-1.232-0.04146-0.0091-0.08484-0.015461-0.12825-0.017489zm-0.04081 0.51689c0.32375-0.022854 0.79134 0.9902 1.1329 1.5604-0.7513 0.02534-1.5448 0.20428-2.2735 0.58879 0.52341-1.3687 0.82254-2.1506 1.1096-2.1434 0.01014-0.00294 0.02065-0.00509 0.03109-0.00583zm6.0939 0c0.01039-0.00126 0.02097-7.141e-4 0.03109 0 0.01045 7.372e-4 0.02095 0.00289 0.03109 0.00583 0.28703-0.00726 0.5881 0.7746 1.1115 2.1434-0.72878-0.38451-1.5242-0.56345-2.2755-0.58879 0.33088-0.55238 0.7797-1.5212 1.1018-1.5604zm-5.4701 5.2758c0.41952 2.39e-4 0.75955 0.34027 0.75979 0.75979 8.35e-4 0.42028-0.33951 0.7615-0.75979 0.76173-0.42104 8.37e-4 -0.76257-0.34069-0.76174-0.76173 2.39e-4 -0.42028 0.34145-0.76063 0.76174-0.75979zm4.8619 0c0.41952 2.39e-4 0.75955 0.34027 0.75979 0.75979 8.35e-4 0.42028-0.33951 0.7615-0.75979 0.76173-0.42104 8.37e-4 -0.76257-0.34069-0.76174-0.76173 2.39e-4 -0.42028 0.34145-0.76063 0.76174-0.75979zm-2.8526 1.2709h0.76756c0.22093 0 0.39836 0.17937 0.39836 0.4003v0.01943c0 0.09417-0.03325 0.18065-0.08744 0.24873-0.0014 0.0018-0.0024 0.0041-0.0039 0.0059-0.01537 0.03084-0.03034 0.06184-0.04858 0.09133l-0.33034 0.53244c-0.11624 0.18787-0.43304 0.17827-0.56353 0l-0.40224-0.54798c-0.03085-0.04215-0.05625-0.08848-0.07578-0.13408-0.0014-0.0024-0.0026-0.0053-0.0039-0.0078-0.03015-0.05617-0.04858-0.12004-0.04858-0.18849v-0.01943c0-0.22093 0.17743-0.4003 0.39836-0.4003z" fill="#fff" stroke-width=".076907"/>
    <g display="none" fill="none">
        <rect transform="rotate(90)" x="7.8232" y="-20.923" width="13.1" height="13.1" display="inline" stroke="#000" stroke-width=".070382"/>
        <rect x="7.2241" y="8.6528" width="14.298" height="11.441" stroke="#5261ff" stroke-linecap="round" stroke-linejoin="round" stroke-width=".06959"/>
        <rect transform="rotate(90)" x="7.2241" y="-20.094" width="14.298" height="11.441" display="inline" stroke="#0f0" stroke-linecap="round" stroke-linejoin="round" stroke-width=".06959"/>
    </g>
</svg>
