<?xml version="1.0" encoding="UTF-8"?>
<svg version="1.1" viewBox="0 0 28.747 28.747" xmlns="http://www.w3.org/2000/svg">
    <defs>
        <filter id="filter6206-7" color-interpolation-filters="sRGB">
            <feGaussianBlur stdDeviation="0.658125"/>
        </filter>
    </defs>
    <g transform="translate(0 -1093.8)">
        <path transform="matrix(1.0781 0 0 1.0641 -.093733 2.7509)" d="m4.4177 1028.2v1.6051h-1.6052v18.192h1.6052v2.1402h18.192v-2.1402h2.1402v-18.192h-2.1402v-1.6051z" fill="#232323" filter="url(#filter6206-7)" opacity=".2"/>
        <rect x="2.9987" y="1096.8" width="22.749" height="22.749" rx="1.1973" ry="1.1974" fill="#232323"/>
        <g transform="translate(-22.32 1056.5)">
            <path d="m0 0h51.2v51.2h-51.2z" fill="none" stroke-width="1.0667"/>
            <g transform="matrix(.33601 0 0 .33601 1.5296 73.043)">
                <path d="m0 0h51.2v51.2h-51.2z" fill="none" stroke-width="1.0667"/>
            </g>
            <g transform="matrix(.37187 0 0 .37187 38.802 63.239)">
                <path d="m0 0h51.2v51.2h-51.2z" fill="none" stroke-width="1.0667"/>
                <g transform="matrix(2.6891 0 0 2.6891 -82.906 -48.45)">
                    <path d="m0 0h51.2v51.2h-51.2z" fill="none" stroke-width="1.0667"/>
                </g>
            </g>
        </g>
        <path d="m4.1958 1096.8c-0.66332 0-1.1979 0.5346-1.1979 1.1979v0.3334c0-0.6634 0.53459-1.1979 1.1979-1.1979h20.354c0.66332 0 1.1979 0.5345 1.1979 1.1979v-0.3334c0-0.6633-0.5346-1.1979-1.1979-1.1979z" fill="#fff" opacity=".2"/>
        <rect x="128" y="546.52" width="42.667" height="42.667" fill="none" stroke-width="1.0667"/>
        <rect x="128" y="631.85" width="42.667" height="42.667" fill="none" stroke-width="1.0667"/>
        <rect x="128" y="674.52" width="42.667" height="42.667" fill="none" stroke-width="1.0667"/>
        <rect x="128" y="589.19" width="42.667" height="42.667" fill="none" stroke-width="1.0667"/>
        <rect x="128" y="717.19" width="42.667" height="42.667" fill="none" stroke-width="1.0667"/>
        <rect x="213.33" y="546.52" width="42.667" height="42.667" fill="none" stroke-width="1.0667"/>
        <rect x="213.33" y="631.85" width="42.667" height="42.667" fill="none" stroke-width="1.0667"/>
        <rect x="213.33" y="674.52" width="42.667" height="42.667" fill="none" stroke-width="1.0667"/>
        <rect x="213.33" y="589.19" width="42.667" height="42.667" fill="none" stroke-width="1.0667"/>
        <rect x="213.33" y="717.19" width="42.667" height="42.667" fill="none" stroke-width="1.0667"/>
        <rect x="298.67" y="546.52" width="42.667" height="42.667" fill="none" stroke-width="1.0667"/>
        <rect x="298.67" y="631.85" width="42.667" height="42.667" fill="none" stroke-width="1.0667"/>
        <rect x="298.67" y="674.52" width="42.667" height="42.667" fill="none" stroke-width="1.0667"/>
        <rect x="298.67" y="589.19" width="42.667" height="42.667" fill="none" stroke-width="1.0667"/>
        <rect x="298.67" y="717.19" width="42.667" height="42.667" fill="none" stroke-width="1.0667"/>
        <rect x="170.67" y="546.52" width="42.667" height="42.667" fill="none" stroke-width="1.0667"/>
        <rect x="170.67" y="631.85" width="42.667" height="42.667" fill="none" stroke-width="1.0667"/>
        <rect x="170.67" y="674.52" width="42.667" height="42.667" fill="none" stroke-width="1.0667"/>
        <rect x="170.67" y="589.19" width="42.667" height="42.667" fill="none" stroke-width="1.0667"/>
        <rect x="170.67" y="717.19" width="42.667" height="42.667" fill="none" stroke-width="1.0667"/>
        <rect x="256" y="546.52" width="42.667" height="42.667" fill="none" stroke-width="1.0667"/>
        <rect x="256" y="631.85" width="42.667" height="42.667" fill="none" stroke-width="1.0667"/>
        <rect x="256" y="674.52" width="42.667" height="42.667" fill="none" stroke-width="1.0667"/>
        <rect x="256" y="589.19" width="42.667" height="42.667" fill="none" stroke-width="1.0667"/>
        <rect x="256" y="717.19" width="42.667" height="42.667" fill="none" stroke-width="1.0667"/>
        <rect x="128" y="759.85" width="42.667" height="42.667" fill="none" stroke-width="1.0667"/>
        <rect x="213.33" y="759.85" width="42.667" height="42.667" fill="none" stroke-width="1.0667"/>
        <rect x="298.67" y="759.85" width="42.667" height="42.667" fill="none" stroke-width="1.0667"/>
        <rect x="170.67" y="759.85" width="42.667" height="42.667" fill="none" stroke-width="1.0667"/>
        <rect x="256" y="759.85" width="42.667" height="42.667" fill="none" stroke-width="1.0667"/>
        <rect x="341.33" y="589.19" width="42.667" height="42.667" fill="none" stroke-width="1.0667"/>
        <rect x="341.33" y="631.85" width="42.667" height="42.667" fill="none" stroke-width="1.0667"/>
        <rect x="341.33" y="717.19" width="42.667" height="42.667" fill="none" stroke-width="1.0667"/>
        <rect x="341.33" y="546.52" width="42.667" height="42.667" fill="none" stroke-width="1.0667"/>
        <rect x="341.33" y="674.52" width="42.667" height="42.667" fill="none" stroke-width="1.0667"/>
        <rect x="341.33" y="759.85" width="42.667" height="42.667" fill="none" stroke-width="1.0667"/>
        <rect x="160" y="578.52" width="192" height="192" fill="none" stroke-width="1.0667"/>
        <g transform="matrix(.37344 0 0 .37344 4.7333 1097.4)">
            <path d="m0 0h51.2v51.2h-51.2z" fill="none" stroke-width="1.0667"/>
        </g>
        <g transform="matrix(.36471 0 0 .36471 5.1356 1097.4)">
            <path d="m0 0h51.2v51.2h-51.2z" fill="none" stroke-width="1.0667"/>
        </g>
        <g transform="matrix(.41585 0 0 .41585 84.325 1055.9)">
            <g transform="matrix(.062269 0 0 .062269 -28.238 185.29)">
                <g transform="matrix(38.618 0 0 38.618 14724 -13542)">
                    <g transform="matrix(.71436 0 0 .71436 -400.52 188.34)">
                        <path d="m1293.2-120.67c-181.75 0.2763-511.18 0.13525-699.05 0.13998-2.3216 10.413-3.593 21.251-3.593 32.384v114c207.65 0.73695 494.72 0.38136 706.23 0.3733v-114.37c0-11.18-1.2522-22.07-3.593-32.523zm-458.69 295.56c-78.385-4e-3 -158.85 0.17892-243.95 0.55995v138.63c286.34-0.39317 421.73-0.13827 706.23-0.32664v-137.75c-163.2-0.53005-311.22-1.1113-462.28-1.1199z" opacity="0" stroke-width="1.4932"/>
                    </g>
                </g>
            </g>
        </g>
        <path d="m24.549 1119.5c0.66325 0 1.1979-0.5346 1.1979-1.1979v-0.3333c0 0.6632-0.53461 1.1978-1.1979 1.1978h-20.354c-0.66325 0-1.1979-0.5346-1.1979-1.1978v0.3333c0 0.6633 0.53461 1.1979 1.1979 1.1979z" fill="#232323" opacity=".2"/>
    </g>
    <path d="m10.775 10.373c-0.39229 0.0049-0.81467 0.09424-1.2581 0.28696-0.92495 0.44338-1.6573 1.3167-1.9996 2.3844-0.49645 1.5485-0.26388 2.9651 0.62298 3.7939 0.39223 0.36655 0.84581 0.56866 1.4026 0.62491l5.11e-5 -1.02e-4c0.30397 0.03068 0.38535 0.03088 0.70137 0.0012 0.7761-0.07262 1.3946-0.38361 1.9795-0.99543 0.1744-0.18761 0.56711-0.69659 0.64662-0.80267-0.02172 0.0704-0.32706 1.7297-0.31963 1.7372l1.6415-7.85e-4 0.57137-2.6389h2.0958l-0.51127 2.6994 3.9514-6e-3 0.34743-1.6874-2.2378-0.0028 0.19021-1.029 2.2953-5e-5 0.25327-1.6624-2.239-0.0195 0.169-0.90268 2.2677-0.01356c0.10798-0.5282 0.21115-1.0434 0.33156-1.636h-7.851l-0.18945 1.0196c-0.10419 0.56075-0.19557 1.0516-0.20309 1.0906-0.0049 0.02543-0.0092 0.073-0.01772 0.08102-0.22274-1.279-1.2399-2.3392-2.6409-2.3218zm-0.02416 0.19751c0.51383-0.0016 0.72239 0.04361 1.1299 0.24521 0.57845 0.28609 0.97895 0.77034 1.231 1.4883 0.09688 0.27589 0.19625 0.74398 0.16464 0.7756l-1.1798 0.0086-0.05784-0.18245c-0.08828-0.27851-0.21879-0.50111-0.40487-0.69064-0.26537-0.27028-0.55167-0.38681-0.95028-0.38681-0.26461 0-0.64997 0.09383-0.87427 0.21284-0.33987 0.18036-0.78404 0.71684-0.96869 1.17-0.11996 0.29438-0.16262 0.46985-0.21004 0.86418-0.085333 0.70946 0.036112 1.1898 0.39761 1.573 0.44387 0.47054 1.0668 0.53636 1.795 0.18965 0.22812-0.10861 0.48112-0.33816 0.68138-0.61816l0.14043-0.19632h1.2911l-0.0178 0.05844c-0.0099 0.03214-0.08156 0.18379-0.15946 0.33699-0.50896 1.0009-1.3508 1.6748-2.281 1.8262l1.53e-4 5.5e-5c-0.28937 0.0471-0.86733 0.04586-1.1342-0.0023-0.68939-0.12477-1.3118-0.6157-1.6303-1.2859-0.22003-0.46301-0.30218-0.90746-0.28047-1.5178 0.029122-0.81842 0.23395-1.5302 0.63546-2.2082 0.46174-0.7797 1.2213-1.3739 2.0482-1.6024 0.17151-0.04738 0.27621-0.057 0.63404-0.05814zm3.2344 0.12786 3.6223 0.01934-0.24571 1.2194-2.2633-0.0068-0.24906 1.3471 2.2794 0.01572-0.22451 1.2688-2.3274 0.0056c-0.11828 0.80515-0.33745 1.6477-0.49772 2.6263l-1.3009 5e-3zm3.8125 0.01446 3.6342 0.0035-0.23947 1.2155-2.2719 0.01355-0.24566 1.3118h2.2327c0 0.41193-0.14028 0.83153-0.18285 1.2988h-2.2839l-0.27585 1.4173 2.2388-2e-3 -0.2429 1.2671-3.5696-0.0065zm-7.0317 0.06286c-0.25694-2e-3 -0.52912 0.01906-0.69076 0.0619-0.54992 0.14572-1.0548 0.48913-1.4901 1.0134-0.52511 0.63257-0.81898 1.309-0.93738 2.1579-0.11141 0.79888 0.00348 1.4715 0.35342 2.0649 0.13103 0.22236 0.51884 0.61494 0.72947 0.73846 0.18513 0.10857 0.52404 0.22676 0.74713 0.26058l5.11e-5 5.2e-5c0.27257 0.04133 0.88631 0.01561 1.1402-0.04779 0.77512-0.19351 1.5275-0.82473 1.9273-1.6167l0.07635-0.15119-0.89695 7.87e-4 -0.20182 0.23338c-0.43042 0.49781-0.88415 0.73931-1.4477 0.77067-0.55458 0.03085-1.0538-0.22182-1.3579-0.68737-0.22022-0.3371-0.30457-0.64869-0.30457-1.1251 0-0.87311 0.29454-1.6295 0.86656-2.2253 0.40667-0.42357 0.78777-0.6043 1.3155-0.62384 0.52337-0.01938 0.82362 0.09252 1.169 0.43561 0.20311 0.20178 0.33925 0.42307 0.42745 0.69487l0.04424 0.13638h0.8312l-0.01816-0.08443c-0.08483-0.39414-0.26007-0.82577-0.44693-1.1006-0.26115-0.38418-0.78772-0.72609-1.3229-0.85905-0.12225-0.03038-0.31289-0.04603-0.51273-0.04764zm7.1912 0.14348-1.155 6.0785h3.1866c0.06484-0.29908 0.11474-0.5454 0.16575-0.82993l-2.3192 0.0023 0.38488-1.8352 2.2935-0.01348 0.13389-0.8173-2.2641-0.01344c0.10446-0.51956 0.23575-1.1287 0.35855-1.7274l2.2683-0.01356 0.17453-0.80472zm-0.61614 5.2e-5 -3.197 0.0043c-0.38862 1.9807-0.71946 3.9079-1.1335 6.0326 0.28925-7.86e-4 0.57848-0.0028 0.86773-4e-3l0.54064-2.6301h2.3063l0.11944-0.83125-2.3017-0.0016 0.3415-1.7645 2.2923-0.01348zm-6.6068 1.0957c0.20879 0.0035 0.38529 0.05528 0.55834 0.1587 0.28557 0.17067 0.56183 0.57255 0.62795 0.93617l0.03446 0.18934 1.3423 0.0035c3.92e-4 0.01068-0.06039 0.35556-0.13541 0.76631l-0.13638 0.74683-1.4567 3.93e-4 -0.10213 0.15855c-0.28701 0.44545-0.65104 0.73068-1.0706 0.83892v5e-5c-0.23635 0.05642-0.49885 0.05852-0.74347 0.01294-0.23165-0.05461-0.50925-0.26908-0.66763-0.51591-0.29972-0.46704-0.29469-1.3239 0.012064-2.0558 0.11305-0.26973 0.24655-0.46394 0.50106-0.72897 0.26556-0.27654 0.47251-0.3942 0.81923-0.46575 0.15476-0.03194 0.29162-0.0472 0.41689-0.04509zm4.519 0.12506h2.0941l-0.17108 0.92216-2.0877-0.0061z" fill="#fff" stroke-width=".098179"/>
    <g display="none" fill="none">
        <rect transform="rotate(90)" x="7.8232" y="-20.923" width="13.1" height="13.1" display="inline" stroke="#000" stroke-width=".070382"/>
        <rect x="7.2241" y="8.6528" width="14.298" height="11.441" stroke="#5261ff" stroke-linecap="round" stroke-linejoin="round" stroke-width=".06959"/>
        <rect transform="rotate(90)" x="7.2241" y="-20.094" width="14.298" height="11.441" display="inline" stroke="#0f0" stroke-linecap="round" stroke-linejoin="round" stroke-width=".06959"/>
    </g>
</svg>
