<?xml version="1.0" encoding="UTF-8"?>
<svg version="1.1" viewBox="0 0 28.747 28.747" xmlns="http://www.w3.org/2000/svg">
    <defs>
        <filter id="filter6206-7" color-interpolation-filters="sRGB">
            <feGaussianBlur stdDeviation="0.658125"/>
        </filter>
    </defs>
    <g transform="translate(0 -1093.8)">
        <path transform="matrix(1.0781 0 0 1.0641 -.093733 2.7509)" d="m4.4177 1028.2v1.6051h-1.6052v18.192h1.6052v2.1402h18.192v-2.1402h2.1402v-18.192h-2.1402v-1.6051z" fill="#232323" filter="url(#filter6206-7)" opacity=".2"/>
        <rect x="2.9987" y="1096.8" width="22.749" height="22.749" rx="1.1973" ry="1.1974" fill="#232323"/>
        <g transform="translate(-22.32 1056.5)">
            <path d="m0 0h51.2v51.2h-51.2z" fill="none" stroke-width="1.0667"/>
            <g transform="matrix(.33601 0 0 .33601 1.5296 73.043)">
                <path d="m0 0h51.2v51.2h-51.2z" fill="none" stroke-width="1.0667"/>
            </g>
            <g transform="matrix(.37187 0 0 .37187 38.802 63.239)">
                <path d="m0 0h51.2v51.2h-51.2z" fill="none" stroke-width="1.0667"/>
                <g transform="matrix(2.6891 0 0 2.6891 -82.906 -48.45)">
                    <path d="m0 0h51.2v51.2h-51.2z" fill="none" stroke-width="1.0667"/>
                </g>
            </g>
        </g>
        <path d="m4.1958 1096.8c-0.66332 0-1.1979 0.5346-1.1979 1.1979v0.3334c0-0.6634 0.53459-1.1979 1.1979-1.1979h20.354c0.66332 0 1.1979 0.5345 1.1979 1.1979v-0.3334c0-0.6633-0.5346-1.1979-1.1979-1.1979z" fill="#fff" opacity=".2"/>
        <rect x="128" y="546.52" width="42.667" height="42.667" fill="none" stroke-width="1.0667"/>
        <rect x="128" y="631.85" width="42.667" height="42.667" fill="none" stroke-width="1.0667"/>
        <rect x="128" y="674.52" width="42.667" height="42.667" fill="none" stroke-width="1.0667"/>
        <rect x="128" y="589.19" width="42.667" height="42.667" fill="none" stroke-width="1.0667"/>
        <rect x="128" y="717.19" width="42.667" height="42.667" fill="none" stroke-width="1.0667"/>
        <rect x="213.33" y="546.52" width="42.667" height="42.667" fill="none" stroke-width="1.0667"/>
        <rect x="213.33" y="631.85" width="42.667" height="42.667" fill="none" stroke-width="1.0667"/>
        <rect x="213.33" y="674.52" width="42.667" height="42.667" fill="none" stroke-width="1.0667"/>
        <rect x="213.33" y="589.19" width="42.667" height="42.667" fill="none" stroke-width="1.0667"/>
        <rect x="213.33" y="717.19" width="42.667" height="42.667" fill="none" stroke-width="1.0667"/>
        <rect x="298.67" y="546.52" width="42.667" height="42.667" fill="none" stroke-width="1.0667"/>
        <rect x="298.67" y="631.85" width="42.667" height="42.667" fill="none" stroke-width="1.0667"/>
        <rect x="298.67" y="674.52" width="42.667" height="42.667" fill="none" stroke-width="1.0667"/>
        <rect x="298.67" y="589.19" width="42.667" height="42.667" fill="none" stroke-width="1.0667"/>
        <rect x="298.67" y="717.19" width="42.667" height="42.667" fill="none" stroke-width="1.0667"/>
        <rect x="170.67" y="546.52" width="42.667" height="42.667" fill="none" stroke-width="1.0667"/>
        <rect x="170.67" y="631.85" width="42.667" height="42.667" fill="none" stroke-width="1.0667"/>
        <rect x="170.67" y="674.52" width="42.667" height="42.667" fill="none" stroke-width="1.0667"/>
        <rect x="170.67" y="589.19" width="42.667" height="42.667" fill="none" stroke-width="1.0667"/>
        <rect x="170.67" y="717.19" width="42.667" height="42.667" fill="none" stroke-width="1.0667"/>
        <rect x="256" y="546.52" width="42.667" height="42.667" fill="none" stroke-width="1.0667"/>
        <rect x="256" y="631.85" width="42.667" height="42.667" fill="none" stroke-width="1.0667"/>
        <rect x="256" y="674.52" width="42.667" height="42.667" fill="none" stroke-width="1.0667"/>
        <rect x="256" y="589.19" width="42.667" height="42.667" fill="none" stroke-width="1.0667"/>
        <rect x="256" y="717.19" width="42.667" height="42.667" fill="none" stroke-width="1.0667"/>
        <rect x="128" y="759.85" width="42.667" height="42.667" fill="none" stroke-width="1.0667"/>
        <rect x="213.33" y="759.85" width="42.667" height="42.667" fill="none" stroke-width="1.0667"/>
        <rect x="298.67" y="759.85" width="42.667" height="42.667" fill="none" stroke-width="1.0667"/>
        <rect x="170.67" y="759.85" width="42.667" height="42.667" fill="none" stroke-width="1.0667"/>
        <rect x="256" y="759.85" width="42.667" height="42.667" fill="none" stroke-width="1.0667"/>
        <rect x="341.33" y="589.19" width="42.667" height="42.667" fill="none" stroke-width="1.0667"/>
        <rect x="341.33" y="631.85" width="42.667" height="42.667" fill="none" stroke-width="1.0667"/>
        <rect x="341.33" y="717.19" width="42.667" height="42.667" fill="none" stroke-width="1.0667"/>
        <rect x="341.33" y="546.52" width="42.667" height="42.667" fill="none" stroke-width="1.0667"/>
        <rect x="341.33" y="674.52" width="42.667" height="42.667" fill="none" stroke-width="1.0667"/>
        <rect x="341.33" y="759.85" width="42.667" height="42.667" fill="none" stroke-width="1.0667"/>
        <rect x="160" y="578.52" width="192" height="192" fill="none" stroke-width="1.0667"/>
        <g transform="matrix(.37344 0 0 .37344 4.7333 1097.4)">
            <path d="m0 0h51.2v51.2h-51.2z" fill="none" stroke-width="1.0667"/>
        </g>
        <g transform="matrix(.36471 0 0 .36471 5.1356 1097.4)">
            <path d="m0 0h51.2v51.2h-51.2z" fill="none" stroke-width="1.0667"/>
        </g>
        <g transform="matrix(.41585 0 0 .41585 84.325 1055.9)">
            <g transform="matrix(.062269 0 0 .062269 -28.238 185.29)">
                <g transform="matrix(38.618 0 0 38.618 14724 -13542)">
                    <g transform="matrix(.71436 0 0 .71436 -400.52 188.34)">
                        <path d="m1293.2-120.67c-181.75 0.2763-511.18 0.13525-699.05 0.13998-2.3216 10.413-3.593 21.251-3.593 32.384v114c207.65 0.73695 494.72 0.38136 706.23 0.3733v-114.37c0-11.18-1.2522-22.07-3.593-32.523zm-458.69 295.56c-78.385-4e-3 -158.85 0.17892-243.95 0.55995v138.63c286.34-0.39317 421.73-0.13827 706.23-0.32664v-137.75c-163.2-0.53005-311.22-1.1113-462.28-1.1199z" opacity="0" stroke-width="1.4932"/>
                    </g>
                </g>
            </g>
        </g>
        <path d="m24.549 1119.5c0.66325 0 1.1979-0.5346 1.1979-1.1979v-0.3333c0 0.6632-0.53461 1.1978-1.1979 1.1978h-20.354c-0.66325 0-1.1979-0.5346-1.1979-1.1978v0.3333c0 0.6633 0.53461 1.1979 1.1979 1.1979z" fill="#232323" opacity=".2"/>
    </g>
    <g transform="matrix(1.2854 0 0 1.2854 12.26 -35.167)" stroke-width=".77799">
        <path d="m0 0h24v24h-24z" fill="none" stroke-width=".77799"/>
    </g>
    <g transform="matrix(.65834 0 0 .65834 6.4733 6.4733)">
        <rect width="24" height="24" fill="none" stroke-width="2.0799"/>
        <path d="m9.5 12c0 0.55-0.45 1-1 1s-1-0.45-1-1 0.45-1 1-1 1 0.45 1 1zm4.25-2c0.55 0 1-0.45 1-1s-0.45-1-1-1-1 0.45-1 1 0.45 1 1 1zm-3.5 0c0.55 0 1-0.45 1-1s-0.45-1-1-1-1 0.45-1 1 0.45 1 1 1zm0 4c-0.55 0-1 0.45-1 1s0.45 1 1 1 1-0.45 1-1-0.45-1-1-1zm11.75-2.75v1.5c0 0.41-0.34 0.75-0.75 0.75s-0.75-0.34-0.75-0.75h-1.54c-0.15 1.37-0.69 2.63-1.52 3.65l1.09 1.09 0.01-0.01c0.29-0.29 0.77-0.29 1.06 0s0.29 0.77 0 1.06l-1.06 1.06c-0.29 0.29-0.77 0.29-1.06 0s-0.29-0.76-0.01-1.05l-1.09-1.09c-1.02 0.82-2.27 1.36-3.64 1.51v1.54h0.01c0.41 0 0.75 0.34 0.75 0.75s-0.34 0.75-0.75 0.75h-1.5c-0.41 0-0.75-0.34-0.75-0.75s0.33-0.74 0.74-0.75v-1.55c-1.37-0.15-2.62-0.69-3.63-1.51l-1.09 1.09 0.01 0.01c0.29 0.29 0.29 0.77 0 1.06s-0.77 0.29-1.06 0l-1.07-1.07c-0.29-0.29-0.29-0.77 0-1.06s0.76-0.29 1.05-0.01l1.09-1.09c-0.82-1.02-1.36-2.26-1.5-3.63h-1.54c0 0.41-0.34 0.75-0.75 0.75s-0.75-0.34-0.75-0.75v-1.5c0-0.41 0.34-0.75 0.75-0.75s0.75 0.34 0.75 0.75h1.54c0.15-1.37 0.69-2.61 1.5-3.63l-1.09-1.09c-0.29 0.28-0.76 0.28-1.05-0.01s-0.29-0.77 0-1.06l1.06-1.06c0.29-0.29 0.77-0.29 1.06 0s0.29 0.77 0 1.06l-0.01 0.01 1.09 1.09c1.02-0.82 2.26-1.36 3.63-1.51v-1.55c-0.41-0.01-0.74-0.34-0.74-0.75 0.01-0.41 0.35-0.75 0.76-0.75h1.5c0.41 0 0.75 0.34 0.75 0.75s-0.34 0.75-0.75 0.75h-0.01v1.54c1.37 0.14 2.62 0.69 3.64 1.51l1.09-1.09c-0.29-0.29-0.28-0.76 0.01-1.05s0.77-0.29 1.06 0l1.06 1.06c0.29 0.29 0.29 0.77 0 1.06s-0.77 0.29-1.06 0l-0.01-0.01-1.09 1.08c0.82 1.02 1.37 2.27 1.52 3.65h1.54c0-0.41 0.34-0.75 0.75-0.75s0.75 0.34 0.75 0.75zm-5 0.75c0-2.76-2.24-5-5-5s-5 2.24-5 5 2.24 5 5 5 5-2.24 5-5zm-5-1c-0.55 0-1 0.45-1 1s0.45 1 1 1 1-0.45 1-1-0.45-1-1-1zm3.5 0c-0.55 0-1 0.45-1 1s0.45 1 1 1 1-0.45 1-1-0.45-1-1-1zm-1.75 3c-0.55 0-1 0.45-1 1s0.45 1 1 1 1-0.45 1-1-0.45-1-1-1z" fill="#fff" stroke-width="1.519"/>
    </g>
    <g display="none" fill="none">
        <rect transform="rotate(90)" x="7.8232" y="-20.923" width="13.1" height="13.1" display="inline" stroke="#000" stroke-width=".070382"/>
        <rect x="7.2241" y="8.6528" width="14.298" height="11.441" stroke="#5261ff" stroke-linecap="round" stroke-linejoin="round" stroke-width=".06959"/>
        <rect transform="rotate(90)" x="7.2241" y="-20.094" width="14.298" height="11.441" display="inline" stroke="#0f0" stroke-linecap="round" stroke-linejoin="round" stroke-width=".06959"/>
    </g>
</svg>
