<?xml version="1.0" encoding="UTF-8"?>
<svg version="1.1" viewBox="0 0 28.747 28.747" xmlns="http://www.w3.org/2000/svg">
    <defs>
        <filter id="filter6206-7" color-interpolation-filters="sRGB">
            <feGaussianBlur stdDeviation="0.658125"/>
        </filter>
    </defs>
    <g transform="translate(0 -1093.8)">
        <path transform="matrix(1.0781 0 0 1.0641 -.093733 2.7509)" d="m4.4177 1028.2v1.6051h-1.6052v18.192h1.6052v2.1402h18.192v-2.1402h2.1402v-18.192h-2.1402v-1.6051z" fill="#232323" filter="url(#filter6206-7)" opacity=".2"/>
        <rect x="2.9987" y="1096.8" width="22.749" height="22.749" rx="1.1973" ry="1.1974" fill="#232323"/>
        <g transform="translate(-22.32 1056.5)">
            <path d="m0 0h51.2v51.2h-51.2z" fill="none" stroke-width="1.0667"/>
            <g transform="matrix(.33601 0 0 .33601 1.5296 73.043)">
                <path d="m0 0h51.2v51.2h-51.2z" fill="none" stroke-width="1.0667"/>
            </g>
            <g transform="matrix(.37187 0 0 .37187 38.802 63.239)">
                <path d="m0 0h51.2v51.2h-51.2z" fill="none" stroke-width="1.0667"/>
                <g transform="matrix(2.6891 0 0 2.6891 -82.906 -48.45)">
                    <path d="m0 0h51.2v51.2h-51.2z" fill="none" stroke-width="1.0667"/>
                </g>
            </g>
        </g>
        <path d="m4.1958 1096.8c-0.66332 0-1.1979 0.5346-1.1979 1.1979v0.3334c0-0.6634 0.53459-1.1979 1.1979-1.1979h20.354c0.66332 0 1.1979 0.5345 1.1979 1.1979v-0.3334c0-0.6633-0.5346-1.1979-1.1979-1.1979z" fill="#fff" opacity=".2"/>
        <rect x="128" y="546.52" width="42.667" height="42.667" fill="none" stroke-width="1.0667"/>
        <rect x="128" y="631.85" width="42.667" height="42.667" fill="none" stroke-width="1.0667"/>
        <rect x="128" y="674.52" width="42.667" height="42.667" fill="none" stroke-width="1.0667"/>
        <rect x="128" y="589.19" width="42.667" height="42.667" fill="none" stroke-width="1.0667"/>
        <rect x="128" y="717.19" width="42.667" height="42.667" fill="none" stroke-width="1.0667"/>
        <rect x="213.33" y="546.52" width="42.667" height="42.667" fill="none" stroke-width="1.0667"/>
        <rect x="213.33" y="631.85" width="42.667" height="42.667" fill="none" stroke-width="1.0667"/>
        <rect x="213.33" y="674.52" width="42.667" height="42.667" fill="none" stroke-width="1.0667"/>
        <rect x="213.33" y="589.19" width="42.667" height="42.667" fill="none" stroke-width="1.0667"/>
        <rect x="213.33" y="717.19" width="42.667" height="42.667" fill="none" stroke-width="1.0667"/>
        <rect x="298.67" y="546.52" width="42.667" height="42.667" fill="none" stroke-width="1.0667"/>
        <rect x="298.67" y="631.85" width="42.667" height="42.667" fill="none" stroke-width="1.0667"/>
        <rect x="298.67" y="674.52" width="42.667" height="42.667" fill="none" stroke-width="1.0667"/>
        <rect x="298.67" y="589.19" width="42.667" height="42.667" fill="none" stroke-width="1.0667"/>
        <rect x="298.67" y="717.19" width="42.667" height="42.667" fill="none" stroke-width="1.0667"/>
        <rect x="170.67" y="546.52" width="42.667" height="42.667" fill="none" stroke-width="1.0667"/>
        <rect x="170.67" y="631.85" width="42.667" height="42.667" fill="none" stroke-width="1.0667"/>
        <rect x="170.67" y="674.52" width="42.667" height="42.667" fill="none" stroke-width="1.0667"/>
        <rect x="170.67" y="589.19" width="42.667" height="42.667" fill="none" stroke-width="1.0667"/>
        <rect x="170.67" y="717.19" width="42.667" height="42.667" fill="none" stroke-width="1.0667"/>
        <rect x="256" y="546.52" width="42.667" height="42.667" fill="none" stroke-width="1.0667"/>
        <rect x="256" y="631.85" width="42.667" height="42.667" fill="none" stroke-width="1.0667"/>
        <rect x="256" y="674.52" width="42.667" height="42.667" fill="none" stroke-width="1.0667"/>
        <rect x="256" y="589.19" width="42.667" height="42.667" fill="none" stroke-width="1.0667"/>
        <rect x="256" y="717.19" width="42.667" height="42.667" fill="none" stroke-width="1.0667"/>
        <rect x="128" y="759.85" width="42.667" height="42.667" fill="none" stroke-width="1.0667"/>
        <rect x="213.33" y="759.85" width="42.667" height="42.667" fill="none" stroke-width="1.0667"/>
        <rect x="298.67" y="759.85" width="42.667" height="42.667" fill="none" stroke-width="1.0667"/>
        <rect x="170.67" y="759.85" width="42.667" height="42.667" fill="none" stroke-width="1.0667"/>
        <rect x="256" y="759.85" width="42.667" height="42.667" fill="none" stroke-width="1.0667"/>
        <rect x="341.33" y="589.19" width="42.667" height="42.667" fill="none" stroke-width="1.0667"/>
        <rect x="341.33" y="631.85" width="42.667" height="42.667" fill="none" stroke-width="1.0667"/>
        <rect x="341.33" y="717.19" width="42.667" height="42.667" fill="none" stroke-width="1.0667"/>
        <rect x="341.33" y="546.52" width="42.667" height="42.667" fill="none" stroke-width="1.0667"/>
        <rect x="341.33" y="674.52" width="42.667" height="42.667" fill="none" stroke-width="1.0667"/>
        <rect x="341.33" y="759.85" width="42.667" height="42.667" fill="none" stroke-width="1.0667"/>
        <rect x="160" y="578.52" width="192" height="192" fill="none" stroke-width="1.0667"/>
        <g transform="matrix(.37344 0 0 .37344 4.7333 1097.4)">
            <path d="m0 0h51.2v51.2h-51.2z" fill="none" stroke-width="1.0667"/>
        </g>
        <g transform="matrix(.36471 0 0 .36471 5.1356 1097.4)">
            <path d="m0 0h51.2v51.2h-51.2z" fill="none" stroke-width="1.0667"/>
        </g>
        <g transform="matrix(.41585 0 0 .41585 84.325 1055.9)">
            <g transform="matrix(.062269 0 0 .062269 -28.238 185.29)">
                <g transform="matrix(38.618 0 0 38.618 14724 -13542)">
                    <g transform="matrix(.71436 0 0 .71436 -400.52 188.34)">
                        <path d="m1293.2-120.67c-181.75 0.2763-511.18 0.13525-699.05 0.13998-2.3216 10.413-3.593 21.251-3.593 32.384v114c207.65 0.73695 494.72 0.38136 706.23 0.3733v-114.37c0-11.18-1.2522-22.07-3.593-32.523zm-458.69 295.56c-78.385-4e-3 -158.85 0.17892-243.95 0.55995v138.63c286.34-0.39317 421.73-0.13827 706.23-0.32664v-137.75c-163.2-0.53005-311.22-1.1113-462.28-1.1199z" opacity="0" stroke-width="1.4932"/>
                    </g>
                </g>
            </g>
        </g>
        <path d="m24.549 1119.5c0.66325 0 1.1979-0.5346 1.1979-1.1979v-0.3333c0 0.6632-0.53461 1.1978-1.1979 1.1978h-20.354c-0.66325 0-1.1979-0.5346-1.1979-1.1978v0.3333c0 0.6633 0.53461 1.1979 1.1979 1.1979z" fill="#232323" opacity=".2"/>
    </g>
    <g opacity=".99601">
        <g transform="matrix(.60883 0 0 .60883 115.95 92.7)" fill="#fff" opacity=".99602" stroke-width="1.6425">
            <path transform="matrix(1.0734 0 0 1.0734 -165.04 -107.27)" d="m-2.4219-29.924c-0.41 0-0.74977 0.34-0.75977 0.75 0 0.41 0.33023 0.74 0.74023 0.75v1.5508c-1.37 0.15-2.6109 0.68977-3.6309 1.5098l-1.0898-1.0898 0.00977-0.01172c0.29-0.29 0.29-0.76859 0-1.0586-0.29-0.29-0.77055-0.29-1.0605 0l-1.0586 1.0586c-0.29 0.29-0.29 0.77055 0 1.0605s0.75883 0.28977 1.0488 0.0098l1.0898 1.0898c-0.81 1.02-1.35 2.2609-1.5 3.6309h-1.5391c0-0.41-0.34-0.75-0.75-0.75s-0.75 0.34-0.75 0.75v1.5c0 0.41 0.34 0.75 0.75 0.75s0.75-0.34 0.75-0.75h1.5391c0.14 1.37 0.68 2.6109 1.5 3.6309l-1.0898 1.0898c-0.29-0.28-0.75883-0.28023-1.0488 0.0098-0.29 0.29-0.29 0.76859 0 1.0586l1.0703 1.0703c0.29 0.29 0.76859 0.29 1.0586 0s0.29-0.76859 0-1.0586l-0.00977-0.01172 1.0898-1.0898c1.01 0.82 2.2609 1.3598 3.6309 1.5098v1.5508c-0.41 0.01-0.74023 0.34-0.74023 0.75s0.34 0.75 0.75 0.75h1.5c0.41 0 0.75-0.34 0.75-0.75s-0.34-0.75-0.75-0.75h-0.009766v-1.5391c1.37-0.15 2.6206-0.69172 3.6406-1.5117l1.0898 1.0918c-0.28 0.29-0.28023 0.75883 0.00977 1.0488 0.29 0.29 0.76859 0.29 1.0586 0l1.0605-1.0605c0.29-0.29 0.29-0.76859 0-1.0586s-0.77055-0.29-1.0605 0l-0.00977 0.0098-1.0898-1.0898c0.83-1.02 1.3695-2.2804 1.5195-3.6504h1.541c0 0.41 0.34 0.75 0.75 0.75s0.75-0.34 0.75-0.75v-1.5c0-0.41-0.34-0.75-0.75-0.75s-0.75 0.34-0.75 0.75h-1.541c-0.15-1.38-0.69953-2.6304-1.5195-3.6504l1.0898-1.0801 0.00977 0.0098c0.29 0.29 0.77055 0.29 1.0605 0s0.29-0.76859 0-1.0586l-1.0605-1.0605c-0.29-0.29-0.76859-0.29-1.0586 0-0.29 0.29-0.29977 0.75883-0.00977 1.0488l-1.0898 1.0918c-1.02-0.82-2.2706-1.3717-3.6406-1.5117v-1.5391h0.009766c0.41 0 0.75-0.34 0.75-0.75s-0.34-0.75-0.75-0.75zm2.6191 5.3809c0.1993 0.08028 0.39062 0.17882 0.57617 0.2832 0.037264 0.02109 0.076619 0.03854 0.11328 0.06055 0.1764 0.10533 0.34251 0.22392 0.50391 0.34961 0.049972 0.03907 0.098061 0.08019 0.14648 0.12109 0.15607 0.13142 0.30845 0.2666 0.44727 0.41602 6.273e-4 6.75e-4 0.00133 0.0013 0.00195 2e-3 0.00566 0.0061 0.00999 0.01339 0.015625 0.01953 0.28162 0.30652 0.5185 0.65333 0.7168 1.0234 0.036095 0.06737 0.076322 0.132 0.10938 0.20117 0.079791 0.16708 0.14594 0.34079 0.20703 0.51758 0.030258 0.08746 0.05657 0.17605 0.082031 0.26562 0.12276 0.43296 0.19727 0.88669 0.19727 1.3594 0 1.2966-0.49819 2.4742-1.3086 3.3594-0.16207-0.49874-0.62884-0.86524-1.1836-0.86524h-0.625v-1.8711a0.62337 0.62337 0 0 0-0.62305-0.62305h-3.7402v-1.2461h1.248a0.62337 0.62337 0 0 0 0.62305-0.625v-1.2461h1.2461a1.2468 1.2468 0 0 0 1.2461-1.2461zm-6.7246 3.5039 2.9844 2.9844v0.625a1.2468 1.2468 0 0 0 1.248 1.2461v1.2031c-0.27817-0.03452-0.54668-0.09754-0.80859-0.17578-0.052419-0.01577-0.10457-0.0314-0.15625-0.04883-0.23574-0.07902-0.46318-0.17536-0.68164-0.28711-0.052992-0.02724-0.10438-0.05688-0.15625-0.08594-0.21049-0.11743-0.4133-0.24695-0.60352-0.39258-0.04846-0.03722-0.093589-0.07826-0.14062-0.11719-0.18491-0.15266-0.36241-0.31477-0.52344-0.49219-0.037277-0.04115-0.069559-0.08653-0.10547-0.12891-0.15922-0.18765-0.31107-0.38176-0.44141-0.5918-0.023758-0.03829-0.04171-0.08017-0.064453-0.11914-0.13028-0.2233-0.25093-0.45355-0.3457-0.69727-0.00371-0.0095-0.00611-0.01973-0.00977-0.0293-0.21072-0.55202-0.32617-1.1508-0.32617-1.7773 0-0.38656 0.0498-0.75985 0.13086-1.1152z" fill="#fff" stroke-width="1.5301"/>
        </g>
        <g transform="translate(-13.672 -31.924)">
            <path d="m0 0h24v24h-24z" fill="none"/>
        </g>
    </g>
    <g display="none" fill="none">
        <rect transform="rotate(90)" x="7.8232" y="-20.923" width="13.1" height="13.1" display="inline" stroke="#000" stroke-width=".070382"/>
        <rect x="7.2241" y="8.6528" width="14.298" height="11.441" stroke="#5261ff" stroke-linecap="round" stroke-linejoin="round" stroke-width=".06959"/>
        <rect transform="rotate(90)" x="7.2241" y="-20.094" width="14.298" height="11.441" display="inline" stroke="#0f0" stroke-linecap="round" stroke-linejoin="round" stroke-width=".06959"/>
    </g>
</svg>
