<?xml version="1.0" encoding="UTF-8"?>
<svg version="1.1" viewBox="0 0 28.747 28.747" xmlns="http://www.w3.org/2000/svg">
    <defs>
        <filter id="filter6206-7" x="-.072" y="-.072" width="1.144" height="1.144" color-interpolation-filters="sRGB">
            <feGaussianBlur stdDeviation="0.658125"/>
        </filter>
    </defs>
    <g transform="translate(0 -1093.8)">
        <path transform="matrix(1.0781 0 0 1.0641 -.093733 2.7509)" d="m4.4177 1028.2v1.6051h-1.6052v18.192h1.6052v2.1402h18.192v-2.1402h2.1402v-18.192h-2.1402v-1.6051z" fill="#232323" filter="url(#filter6206-7)" opacity=".2"/>
        <rect x="2.9987" y="1096.8" width="22.749" height="22.749" rx="1.1973" ry="1.1974" fill="#232323"/>
        <g transform="translate(-22.32 1056.5)">
            <path d="m0 0h51.2v51.2h-51.2z" fill="none" stroke-width="1.0667"/>
            <g transform="matrix(.33601 0 0 .33601 1.5296 73.043)">
                <path d="m0 0h51.2v51.2h-51.2z" fill="none" stroke-width="1.0667"/>
            </g>
            <g transform="matrix(.37187 0 0 .37187 38.802 63.239)">
                <path d="m0 0h51.2v51.2h-51.2z" fill="none" stroke-width="1.0667"/>
                <g transform="matrix(2.6891 0 0 2.6891 -82.906 -48.45)">
                    <path d="m0 0h51.2v51.2h-51.2z" fill="none" stroke-width="1.0667"/>
                </g>
            </g>
        </g>
        <path d="m4.1958 1096.8c-0.66332 0-1.1979 0.5346-1.1979 1.1979v0.3334c0-0.6634 0.53459-1.1979 1.1979-1.1979h20.354c0.66332 0 1.1979 0.5345 1.1979 1.1979v-0.3334c0-0.6633-0.5346-1.1979-1.1979-1.1979z" fill="#fff" opacity=".2"/>
        <rect x="128" y="546.52" width="42.667" height="42.667" fill="none" stroke-width="1.0667"/>
        <rect x="128" y="631.85" width="42.667" height="42.667" fill="none" stroke-width="1.0667"/>
        <rect x="128" y="674.52" width="42.667" height="42.667" fill="none" stroke-width="1.0667"/>
        <rect x="128" y="589.19" width="42.667" height="42.667" fill="none" stroke-width="1.0667"/>
        <rect x="128" y="717.19" width="42.667" height="42.667" fill="none" stroke-width="1.0667"/>
        <rect x="213.33" y="546.52" width="42.667" height="42.667" fill="none" stroke-width="1.0667"/>
        <rect x="213.33" y="631.85" width="42.667" height="42.667" fill="none" stroke-width="1.0667"/>
        <rect x="213.33" y="674.52" width="42.667" height="42.667" fill="none" stroke-width="1.0667"/>
        <rect x="213.33" y="589.19" width="42.667" height="42.667" fill="none" stroke-width="1.0667"/>
        <rect x="213.33" y="717.19" width="42.667" height="42.667" fill="none" stroke-width="1.0667"/>
        <rect x="298.67" y="546.52" width="42.667" height="42.667" fill="none" stroke-width="1.0667"/>
        <rect x="298.67" y="631.85" width="42.667" height="42.667" fill="none" stroke-width="1.0667"/>
        <rect x="298.67" y="674.52" width="42.667" height="42.667" fill="none" stroke-width="1.0667"/>
        <rect x="298.67" y="589.19" width="42.667" height="42.667" fill="none" stroke-width="1.0667"/>
        <rect x="298.67" y="717.19" width="42.667" height="42.667" fill="none" stroke-width="1.0667"/>
        <rect x="170.67" y="546.52" width="42.667" height="42.667" fill="none" stroke-width="1.0667"/>
        <rect x="170.67" y="631.85" width="42.667" height="42.667" fill="none" stroke-width="1.0667"/>
        <rect x="170.67" y="674.52" width="42.667" height="42.667" fill="none" stroke-width="1.0667"/>
        <rect x="170.67" y="589.19" width="42.667" height="42.667" fill="none" stroke-width="1.0667"/>
        <rect x="170.67" y="717.19" width="42.667" height="42.667" fill="none" stroke-width="1.0667"/>
        <rect x="256" y="546.52" width="42.667" height="42.667" fill="none" stroke-width="1.0667"/>
        <rect x="256" y="631.85" width="42.667" height="42.667" fill="none" stroke-width="1.0667"/>
        <rect x="256" y="674.52" width="42.667" height="42.667" fill="none" stroke-width="1.0667"/>
        <rect x="256" y="589.19" width="42.667" height="42.667" fill="none" stroke-width="1.0667"/>
        <rect x="256" y="717.19" width="42.667" height="42.667" fill="none" stroke-width="1.0667"/>
        <rect x="128" y="759.85" width="42.667" height="42.667" fill="none" stroke-width="1.0667"/>
        <rect x="213.33" y="759.85" width="42.667" height="42.667" fill="none" stroke-width="1.0667"/>
        <rect x="298.67" y="759.85" width="42.667" height="42.667" fill="none" stroke-width="1.0667"/>
        <rect x="170.67" y="759.85" width="42.667" height="42.667" fill="none" stroke-width="1.0667"/>
        <rect x="256" y="759.85" width="42.667" height="42.667" fill="none" stroke-width="1.0667"/>
        <rect x="341.33" y="589.19" width="42.667" height="42.667" fill="none" stroke-width="1.0667"/>
        <rect x="341.33" y="631.85" width="42.667" height="42.667" fill="none" stroke-width="1.0667"/>
        <rect x="341.33" y="717.19" width="42.667" height="42.667" fill="none" stroke-width="1.0667"/>
        <rect x="341.33" y="546.52" width="42.667" height="42.667" fill="none" stroke-width="1.0667"/>
        <rect x="341.33" y="674.52" width="42.667" height="42.667" fill="none" stroke-width="1.0667"/>
        <rect x="341.33" y="759.85" width="42.667" height="42.667" fill="none" stroke-width="1.0667"/>
        <rect x="160" y="578.52" width="192" height="192" fill="none" stroke-width="1.0667"/>
        <g transform="matrix(.37344 0 0 .37344 4.7333 1097.4)">
            <path d="m0 0h51.2v51.2h-51.2z" fill="none" stroke-width="1.0667"/>
        </g>
        <g transform="matrix(.36471 0 0 .36471 5.1356 1097.4)">
            <path d="m0 0h51.2v51.2h-51.2z" fill="none" stroke-width="1.0667"/>
        </g>
        <g transform="matrix(.41585 0 0 .41585 84.325 1055.9)">
            <g transform="matrix(.062269 0 0 .062269 -28.238 185.29)">
                <g transform="matrix(38.618 0 0 38.618 14724 -13542)">
                    <g transform="matrix(.71436 0 0 .71436 -400.52 188.34)">
                        <path d="m1293.2-120.67c-181.75 0.2763-511.18 0.13525-699.05 0.13998-2.3216 10.413-3.593 21.251-3.593 32.384v114c207.65 0.73695 494.72 0.38136 706.23 0.3733v-114.37c0-11.18-1.2522-22.07-3.593-32.523zm-458.69 295.56c-78.385-4e-3 -158.85 0.17892-243.95 0.55995v138.63c286.34-0.39317 421.73-0.13827 706.23-0.32664v-137.75c-163.2-0.53005-311.22-1.1113-462.28-1.1199z" opacity="0" stroke-width="1.4932"/>
                    </g>
                </g>
            </g>
        </g>
        <path d="m24.549 1119.5c0.66325 0 1.1979-0.5346 1.1979-1.1979v-0.3333c0 0.6632-0.53461 1.1978-1.1979 1.1978h-20.354c-0.66325 0-1.1979-0.5346-1.1979-1.1978v0.3333c0 0.6633 0.53461 1.1979 1.1979 1.1979z" fill="#232323" opacity=".2"/>
    </g>
    <path d="m14.473 7.2693 0.01807 0.00497 5.5654 1.674c0.17098 0.051407 0.28948 0.2062 0.29593 0.38389l2.77e-4 0.015282v0.23491l-1.8237 0.46569c-0.01376 0.0035-0.02657 0.0099-0.03758 0.01874l-8e-3 7e-3 -4.0646 4.0353c-0.03665 0.03638-0.0945 0.03839-0.1335 0.0061l-7e-3 -0.0064-2.2744-2.2794c-5.1e-5 -5.4e-5 -1.13e-4 -1.16e-4 -1.73e-4 -1.74e-4 -0.03663-0.03654-0.0946-0.03862-0.13365-0.0063l-7e-3 0.0064-0.93843 0.9405c-0.03648 0.03655-0.03862 0.09442-0.0064 0.13348l0.0064 7e-3 3.3534 3.3608c0.03678 0.03669 0.09475 0.03878 0.13381 0.0064l7e-3 -0.0064 5.9338-5.9469v5.161c0 0.6453-0.21056 1.3029-0.62698 1.9609-0.15104-0.05239-0.30814-0.09168-0.46997-0.11658l0.02909-0.59687 0.02357 0.0013 0.01251 4.06e-4c0.14512 0.0013 0.25723-0.11525 0.26396-0.25297 0.0072-0.14763-0.10485-0.27392-0.25032-0.28206l-0.57392-0.03212-0.01241-4.06e-4 -0.01229 1.74e-4c-0.13455 0.0052-0.24497 0.11361-0.25177 0.25279-0.0072 0.14764 0.10485 0.27392 0.25032 0.28206l0.02357 0.0013-0.02921 0.59724c-0.32392 0.01345-0.63311 0.08405-0.91782 0.20203l-0.26355-0.52299 0.021-0.01081 0.01123-0.0061c0.12128-0.0701 0.16756-0.2256 0.10305-0.35364-0.06646-0.13193-0.22543-0.18477-0.35502-0.11799l-0.51128 0.2634-0.01123 0.0061c-0.12128 0.07011-0.16756 0.2256-0.10305 0.35365 0.06377 0.1266 0.22037 0.18736 0.35502 0.11799l0.021-0.01081 0.26722 0.53029c-0.26857 0.17953-0.50326 0.40598-0.69244 0.66768l-0.51392-0.29753 0.01179-0.0205 0.0063-0.0116c0.06384-0.12463 0.01951-0.27887-0.10285-0.34969-0.12615-0.07304-0.28748-0.0297-0.36032 0.09681l-0.28736 0.49906-0.0063 0.0116c-0.06384 0.12463-0.01951 0.27887 0.10285 0.34969 0.12616 0.07308 0.28749 0.02967 0.3603-0.0968l0.01179-0.0205 0.51127 0.29594c-0.10825 0.23572-0.18373 0.48969-0.2206 0.75604l-0.60603-0.01917 8.93e-4 -0.02365 1.75e-4 -0.01245c-0.0011-0.14043-0.11373-0.25581-0.25686-0.26034-0.14742-0.0047-0.27131 0.1099-0.27689 0.25589l-0.02199 0.57599-1.74e-4 0.01246c0.0011 0.14042 0.11373 0.25581 0.25686 0.26034 0.14216 0.0046 0.27111-0.10482 0.27689-0.25589l8.94e-4 -0.02365 0.60462 0.01914c0.0076 0.13657 0.02521 0.27045 0.05221 0.40089-0.90805 0.54684-1.6138 0.86588-1.655 0.8844-0.05402 0.02429-0.11193 0.03639-0.16985 0.03639s-0.11583-0.01213-0.16985-0.03639c-0.05843-0.02619-1.4468-0.65389-2.8566-1.6771-0.83924-0.60889-1.511-1.2327-1.9965-1.854-0.62596-0.80093-0.94811-1.6055-0.95788-2.3922l-2.285e-4 -0.03687v-6.138c0-0.17893 0.11381-0.33727 0.28169-0.39452l0.014517-0.00466 5.5655-1.674c0.07195-0.02165 0.14826-0.023317 0.22086-0.00497z" fill="#fff" fill-rule="evenodd"/>
</svg>
