<?xml version="1.0" encoding="UTF-8"?>
<svg version="1.1" viewBox="0 0 28.747 28.747" xmlns="http://www.w3.org/2000/svg">
    <defs>
        <filter id="filter6206-7" x="-.072" y="-.072" width="1.144" height="1.144" color-interpolation-filters="sRGB">
            <feGaussianBlur stdDeviation="0.658125"/>
        </filter>
    </defs>
    <g transform="translate(0 -1093.8)">
        <path transform="matrix(1.0781 0 0 1.0641 -.093733 2.7509)" d="m4.4177 1028.2v1.6051h-1.6052v18.192h1.6052v2.1402h18.192v-2.1402h2.1402v-18.192h-2.1402v-1.6051z" fill="#232323" filter="url(#filter6206-7)" opacity=".2"/>
        <rect x="2.9987" y="1096.8" width="22.749" height="22.749" rx="1.1973" ry="1.1974" fill="#232323"/>
        <g transform="translate(-22.32 1056.5)">
            <path d="m0 0h51.2v51.2h-51.2z" fill="none" stroke-width="1.0667"/>
            <g transform="matrix(.33601 0 0 .33601 1.5296 73.043)">
                <path d="m0 0h51.2v51.2h-51.2z" fill="none" stroke-width="1.0667"/>
            </g>
            <g transform="matrix(.37187 0 0 .37187 38.802 63.239)">
                <path d="m0 0h51.2v51.2h-51.2z" fill="none" stroke-width="1.0667"/>
                <g transform="matrix(2.6891 0 0 2.6891 -82.906 -48.45)">
                    <path d="m0 0h51.2v51.2h-51.2z" fill="none" stroke-width="1.0667"/>
                </g>
            </g>
        </g>
        <path d="m4.1958 1096.8c-0.66332 0-1.1979 0.5346-1.1979 1.1979v0.3334c0-0.6634 0.53459-1.1979 1.1979-1.1979h20.354c0.66332 0 1.1979 0.5345 1.1979 1.1979v-0.3334c0-0.6633-0.5346-1.1979-1.1979-1.1979z" fill="#fff" opacity=".2"/>
        <rect x="128" y="546.52" width="42.667" height="42.667" fill="none" stroke-width="1.0667"/>
        <rect x="128" y="631.85" width="42.667" height="42.667" fill="none" stroke-width="1.0667"/>
        <rect x="128" y="674.52" width="42.667" height="42.667" fill="none" stroke-width="1.0667"/>
        <rect x="128" y="589.19" width="42.667" height="42.667" fill="none" stroke-width="1.0667"/>
        <rect x="128" y="717.19" width="42.667" height="42.667" fill="none" stroke-width="1.0667"/>
        <rect x="213.33" y="546.52" width="42.667" height="42.667" fill="none" stroke-width="1.0667"/>
        <rect x="213.33" y="631.85" width="42.667" height="42.667" fill="none" stroke-width="1.0667"/>
        <rect x="213.33" y="674.52" width="42.667" height="42.667" fill="none" stroke-width="1.0667"/>
        <rect x="213.33" y="589.19" width="42.667" height="42.667" fill="none" stroke-width="1.0667"/>
        <rect x="213.33" y="717.19" width="42.667" height="42.667" fill="none" stroke-width="1.0667"/>
        <rect x="298.67" y="546.52" width="42.667" height="42.667" fill="none" stroke-width="1.0667"/>
        <rect x="298.67" y="631.85" width="42.667" height="42.667" fill="none" stroke-width="1.0667"/>
        <rect x="298.67" y="674.52" width="42.667" height="42.667" fill="none" stroke-width="1.0667"/>
        <rect x="298.67" y="589.19" width="42.667" height="42.667" fill="none" stroke-width="1.0667"/>
        <rect x="298.67" y="717.19" width="42.667" height="42.667" fill="none" stroke-width="1.0667"/>
        <rect x="170.67" y="546.52" width="42.667" height="42.667" fill="none" stroke-width="1.0667"/>
        <rect x="170.67" y="631.85" width="42.667" height="42.667" fill="none" stroke-width="1.0667"/>
        <rect x="170.67" y="674.52" width="42.667" height="42.667" fill="none" stroke-width="1.0667"/>
        <rect x="170.67" y="589.19" width="42.667" height="42.667" fill="none" stroke-width="1.0667"/>
        <rect x="170.67" y="717.19" width="42.667" height="42.667" fill="none" stroke-width="1.0667"/>
        <rect x="256" y="546.52" width="42.667" height="42.667" fill="none" stroke-width="1.0667"/>
        <rect x="256" y="631.85" width="42.667" height="42.667" fill="none" stroke-width="1.0667"/>
        <rect x="256" y="674.52" width="42.667" height="42.667" fill="none" stroke-width="1.0667"/>
        <rect x="256" y="589.19" width="42.667" height="42.667" fill="none" stroke-width="1.0667"/>
        <rect x="256" y="717.19" width="42.667" height="42.667" fill="none" stroke-width="1.0667"/>
        <rect x="128" y="759.85" width="42.667" height="42.667" fill="none" stroke-width="1.0667"/>
        <rect x="213.33" y="759.85" width="42.667" height="42.667" fill="none" stroke-width="1.0667"/>
        <rect x="298.67" y="759.85" width="42.667" height="42.667" fill="none" stroke-width="1.0667"/>
        <rect x="170.67" y="759.85" width="42.667" height="42.667" fill="none" stroke-width="1.0667"/>
        <rect x="256" y="759.85" width="42.667" height="42.667" fill="none" stroke-width="1.0667"/>
        <rect x="341.33" y="589.19" width="42.667" height="42.667" fill="none" stroke-width="1.0667"/>
        <rect x="341.33" y="631.85" width="42.667" height="42.667" fill="none" stroke-width="1.0667"/>
        <rect x="341.33" y="717.19" width="42.667" height="42.667" fill="none" stroke-width="1.0667"/>
        <rect x="341.33" y="546.52" width="42.667" height="42.667" fill="none" stroke-width="1.0667"/>
        <rect x="341.33" y="674.52" width="42.667" height="42.667" fill="none" stroke-width="1.0667"/>
        <rect x="341.33" y="759.85" width="42.667" height="42.667" fill="none" stroke-width="1.0667"/>
        <rect x="160" y="578.52" width="192" height="192" fill="none" stroke-width="1.0667"/>
        <g transform="matrix(.37344 0 0 .37344 4.7333 1097.4)">
            <path d="m0 0h51.2v51.2h-51.2z" fill="none" stroke-width="1.0667"/>
        </g>
        <g transform="matrix(.36471 0 0 .36471 5.1356 1097.4)">
            <path d="m0 0h51.2v51.2h-51.2z" fill="none" stroke-width="1.0667"/>
        </g>
        <g transform="matrix(.41585 0 0 .41585 84.325 1055.9)">
            <g transform="matrix(.062269 0 0 .062269 -28.238 185.29)">
                <g transform="matrix(38.618 0 0 38.618 14724 -13542)">
                    <g transform="matrix(.71436 0 0 .71436 -400.52 188.34)">
                        <path d="m1293.2-120.67c-181.75 0.2763-511.18 0.13525-699.05 0.13998-2.3216 10.413-3.593 21.251-3.593 32.384v114c207.65 0.73695 494.72 0.38136 706.23 0.3733v-114.37c0-11.18-1.2522-22.07-3.593-32.523zm-458.69 295.56c-78.385-4e-3 -158.85 0.17892-243.95 0.55995v138.63c286.34-0.39317 421.73-0.13827 706.23-0.32664v-137.75c-163.2-0.53005-311.22-1.1113-462.28-1.1199z" opacity="0" stroke-width="1.4932"/>
                    </g>
                </g>
            </g>
        </g>
        <path d="m24.549 1119.5c0.66325 0 1.1979-0.5346 1.1979-1.1979v-0.3333c0 0.6632-0.53461 1.1978-1.1979 1.1978h-20.354c-0.66325 0-1.1979-0.5346-1.1979-1.1978v0.3333c0 0.6633 0.53461 1.1979 1.1979 1.1979z" fill="#232323" opacity=".2"/>
    </g>
    <g transform="translate(15.46 2.3094)">
        <path d="m-1.0059 6.3849 0.014453 0.00398 4.4515 1.339c0.13676 0.041118 0.23154 0.16493 0.2367 0.30706l2.216e-4 0.012223v0.18789l-1.4587 0.37249c-0.011006 0.0028-0.021252 0.00792-0.030059 0.014989l-0.0064 0.0056-3.2511 3.2277c-0.029315 0.0291-0.075587 0.03071-0.10678 0.0049l-0.0056-0.0051-1.8192-1.8232c-4.08e-5 -4.4e-5 -9.04e-5 -9.3e-5 -1.383e-4 -1.4e-4 -0.029299-0.02923-0.075667-0.03089-0.1069-5e-3l-0.0056 0.0051-0.75061 0.75227c-0.029179 0.02923-0.030891 0.07552-0.00512 0.10676l0.00512 0.0056 2.6822 2.6882c0.029419 0.02935 0.075787 0.03102 0.10703 0.0051l0.0056-0.0051 4.7462-4.7567v4.1281c0 0.51615-0.16842 1.0421-0.5015 1.5684-0.12081-0.0419-0.24647-0.07333-0.37591-0.09325l0.023268-0.47741 0.018853 1e-3 0.010006 3.25e-4c0.11608 1e-3 0.20575-0.09218 0.21113-0.20234 0.00576-0.11808-0.083865-0.2191-0.20022-0.22561l-0.45906-0.02569-0.00993-3.25e-4 -0.00983 1.39e-4c-0.10762 0.0042-0.19594 0.09087-0.20138 0.2022-0.00576 0.11809 0.083865 0.2191 0.20022 0.22561l0.018853 1e-3 -0.023364 0.47771c-0.25909 0.01076-0.5064 0.06723-0.73413 0.1616l-0.2108-0.41832 0.016797-0.0086 0.00898-0.0049c0.097007-0.05607 0.13402-0.18045 0.082426-0.28286-0.053159-0.10552-0.18031-0.14779-0.28397-0.09437l-0.40895 0.21068-0.008982 0.0049c-0.097007 0.05608-0.13402 0.18045-0.082426 0.28287 0.051007 0.10126 0.17626 0.14986 0.28397 0.09437l0.016797-0.0086 0.21374 0.42416c-0.21482 0.1436-0.40254 0.32473-0.55385 0.53405l-0.41106-0.23798 0.00943-0.0164 0.005039-0.0093c0.051063-0.09969 0.015605-0.22306-0.082266-0.2797-0.1009-0.05842-0.22994-0.02376-0.28821 0.07743l-0.22985 0.39918-0.005039 0.0093c-0.051063 0.09969-0.015605 0.22306 0.082266 0.2797 0.10091 0.05845 0.22995 0.02373 0.28819-0.07743l0.00943-0.0164 0.40894 0.23671c-0.086585 0.18854-0.14696 0.39168-0.17645 0.60473l-0.48474-0.01533 7.1427e-4 -0.01892 1.3997e-4 -0.01c-8.7984e-4 -0.11232-0.090968-0.20461-0.20545-0.20824-0.11792-0.0038-0.21701 0.0879-0.22147 0.20468l-0.017589 0.46071-1.3917e-4 0.01c8.7984e-4 0.11232 0.090968 0.20461 0.20545 0.20824 0.11371 0.0037 0.21685-0.08384 0.22147-0.20468l7.1508e-4 -0.01892 0.48361 0.01531c0.006079 0.10924 0.020164 0.21632 0.041761 0.32066-0.72631 0.4374-1.2908 0.69258-1.3238 0.7074-0.043208 0.01943-0.089528 0.02911-0.13586 0.02911-0.046328 0-0.092648-0.0097-0.13586-0.02911-0.046736-0.02095-1.1572-0.52302-2.2849-1.3414-0.67127-0.48708-1.2086-0.98604-1.5969-1.483-0.50068-0.64063-0.75835-1.2842-0.76617-1.9134l-1.828e-4 -0.02949v-4.9095c0-0.14312 0.091032-0.26977 0.22531-0.31556l0.011611-0.00373 4.4516-1.339c0.05755-0.017317 0.11859-0.01865 0.17666-0.00398z" fill="#fff" fill-rule="evenodd"/>
    </g>
    <path d="m8.3809 7.7832c-0.33166 0-0.59766 0.266-0.59766 0.59766v2.3945h0.59766v-1.8496c0-0.30151 0.24341-0.54492 0.54492-0.54492h1.8496v-0.59766zm9.5801 0v0.59766h1.8496c0.30151 0 0.54492 0.24341 0.54492 0.54492v1.8496h0.59766v-2.3945c0-0.33166-0.266-0.59766-0.59766-0.59766zm-10.178 10.178v2.3945c0 0.33166 0.266 0.59766 0.59766 0.59766h2.3945v-0.59766h-1.8496c-0.30151 0-0.54492-0.24341-0.54492-0.54492v-1.8496zm12.572 0v1.8496c0 0.30151-0.24341 0.54492-0.54492 0.54492h-1.8496v0.59766h2.3945c0.33166 0 0.59766-0.266 0.59766-0.59766v-2.3945z" fill="#fff" stroke-linecap="round" stroke-linejoin="round" stroke-width=".6"/>
    <g display="none" fill="none">
        <rect transform="rotate(90)" x="7.8232" y="-20.923" width="13.1" height="13.1" display="inline" stroke="#000" stroke-width=".070382"/>
        <rect x="7.2241" y="8.6528" width="14.298" height="11.441" stroke="#5261ff" stroke-linecap="round" stroke-linejoin="round" stroke-width=".06959"/>
        <rect transform="rotate(90)" x="7.2241" y="-20.094" width="14.298" height="11.441" display="inline" stroke="#0f0" stroke-linecap="round" stroke-linejoin="round" stroke-width=".06959"/>
    </g>
</svg>
