<?xml version="1.0" encoding="UTF-8"?>
<svg version="1.1" viewBox="0 0 26.95 26.95" xmlns="http://www.w3.org/2000/svg">
    <defs>
        <filter id="filter6206-7" color-interpolation-filters="sRGB">
            <feGaussianBlur stdDeviation="0.658125"/>
        </filter>
    </defs>
    <g transform="translate(0 -1025.4)">
        <path transform="matrix(1.0107 0 0 .99762 -.087875 2.579)" d="m4.4177 1028.2v1.6051h-1.6052v18.192h1.6052v2.1402h18.192v-2.1402h2.1402v-18.192h-2.1402v-1.6051h-18.192z" fill="#3e2723" filter="url(#filter6206-7)" opacity=".2"/>
        <rect x="2.8113" y="1028.2" width="21.327" height="21.327" rx="1.1225" ry="1.1226" fill="#232323"/>
        <g transform="translate(-20.925 990.46)">
            <path d="m0 0h48v48h-48z" fill="none"/>
            <g transform="matrix(.33601 0 0 .33601 1.434 68.477)">
                <path d="m0 0h48v48h-48z" fill="none"/>
            </g>
            <g transform="matrix(.37187 0 0 .37187 36.377 59.287)">
                <path d="m0 0h48v48h-48z" fill="none"/>
                <g transform="matrix(2.6891 0 0 2.6891 -77.724 -45.422)">
                    <path d="m0 0h48v48h-48z" fill="none"/>
                </g>
            </g>
        </g>
        <path transform="translate(0 1025.4)" d="m3.9336 2.8105c-0.62186 0-1.123 0.50115-1.123 1.123v0.3125c0-0.6219 0.50118-1.123 1.123-1.123h19.082c0.62186 0 1.123 0.50115 1.123 1.123v-0.3125c0-0.6219-0.50118-1.123-1.123-1.123h-19.082z" fill="#fff" opacity=".2"/>
        <rect x="120" y="512.36" width="40" height="40" fill="none"/>
        <rect x="120" y="592.36" width="40" height="40" fill="none"/>
        <rect x="120" y="632.36" width="40" height="40" fill="none"/>
        <rect x="120" y="552.36" width="40" height="40" fill="none"/>
        <rect x="120" y="672.36" width="40" height="40" fill="none"/>
        <rect x="200" y="512.36" width="40" height="40" fill="none"/>
        <rect x="200" y="592.36" width="40" height="40" fill="none"/>
        <rect x="200" y="632.36" width="40" height="40" fill="none"/>
        <rect x="200" y="552.36" width="40" height="40" fill="none"/>
        <rect x="200" y="672.36" width="40" height="40" fill="none"/>
        <rect x="280" y="512.36" width="40" height="40" fill="none"/>
        <rect x="280" y="592.36" width="40" height="40" fill="none"/>
        <rect x="280" y="632.36" width="40" height="40" fill="none"/>
        <rect x="280" y="552.36" width="40" height="40" fill="none"/>
        <rect x="280" y="672.36" width="40" height="40" fill="none"/>
        <rect x="160" y="512.36" width="40" height="40" fill="none"/>
        <rect x="160" y="592.36" width="40" height="40" fill="none"/>
        <rect x="160" y="632.36" width="40" height="40" fill="none"/>
        <rect x="160" y="552.36" width="40" height="40" fill="none"/>
        <rect x="160" y="672.36" width="40" height="40" fill="none"/>
        <rect x="240" y="512.36" width="40" height="40" fill="none"/>
        <rect x="240" y="592.36" width="40" height="40" fill="none"/>
        <rect x="240" y="632.36" width="40" height="40" fill="none"/>
        <rect x="240" y="552.36" width="40" height="40" fill="none"/>
        <rect x="240" y="672.36" width="40" height="40" fill="none"/>
        <rect x="120" y="712.36" width="40" height="40" fill="none"/>
        <rect x="200" y="712.36" width="40" height="40" fill="none"/>
        <rect x="280" y="712.36" width="40" height="40" fill="none"/>
        <rect x="160" y="712.36" width="40" height="40" fill="none"/>
        <rect x="240" y="712.36" width="40" height="40" fill="none"/>
        <rect x="320" y="552.36" width="40" height="40" fill="none"/>
        <rect x="320" y="592.36" width="40" height="40" fill="none"/>
        <rect x="320" y="672.36" width="40" height="40" fill="none"/>
        <rect x="320" y="512.36" width="40" height="40" fill="none"/>
        <rect x="320" y="632.36" width="40" height="40" fill="none"/>
        <rect x="320" y="712.36" width="40" height="40" fill="none"/>
        <rect x="150" y="542.36" width="180" height="180" fill="none"/>
        <g transform="matrix(.37344 0 0 .37344 4.4375 1028.8)">
            <path d="m0 0h48v48h-48z" fill="none"/>
        </g>
        <g transform="matrix(.36471 0 0 .36471 4.8146 1028.8)">
            <path d="m0 0h48v48h-48z" fill="none"/>
        </g>
        <g transform="matrix(.41585 0 0 .41585 79.055 989.88)">
            <g transform="matrix(.062269 0 0 .062269 -26.473 173.71)">
                <g transform="matrix(38.618 0 0 38.618 13804 -12696)">
                    <g transform="matrix(.71436 0 0 .71436 -375.49 176.57)">
                        <path transform="matrix(1.3999 0 0 1.3999 525.63 -247.17)" d="m490.56 95.75c-121.72 0.18504-342.34 0.090577-468.16 0.09375-1.5548 6.9739-2.4062 14.232-2.4062 21.688v76.344c139.06 0.49354 331.32 0.2554 472.97 0.25v-76.594c0-7.4875-0.8386-14.78-2.4062-21.781zm-307.19 197.94c-52.495-3e-3 -106.38 0.11982-163.38 0.375v92.844c191.76-0.26331 282.43-0.0926 472.97-0.21875v-92.25c-109.29-0.35498-208.43-0.74426-309.59-0.75z" opacity="0"/>
                    </g>
                </g>
            </g>
        </g>
        <path d="m23.015 1049.6c0.6218 0 1.123-0.5012 1.123-1.123v-0.3125c0 0.6218-0.5012 1.123-1.123 1.123h-19.082c-0.6218 0-1.123-0.5012-1.123-1.123v0.3125c0 0.6218 0.5012 1.123 1.123 1.123h19.082z" fill="#3e2723" opacity=".2"/>
    </g>
    <g transform="translate(-324.05,-265.45)">
        <g transform="matrix(.10276 0 0 .10276 302.84 250.26)">
            <g transform="matrix(.92168 0 0 .92168 26.436 21.846)">
                <path d="m369.25 333.87c1.1482-0.6629-7.1187 7.9199-5.8938 7.4125 1.2249-0.50737-10.69-0.73073-9.409-1.0739 1.2806-0.34315-8.926 5.8076-7.6115 5.6345 1.3145-0.17305-10.136-3.4725-8.8104-3.4725s-10.125 3.2994-8.8104 3.4725c1.3145 0.17305-8.8921-5.9776-7.6115-5.6345 1.2806 0.34314-10.634 0.5665-9.409 1.0739 1.2249 0.50737-7.042-8.0754-5.8938-7.4125s-10.418-2.205-9.3663-1.398c1.0518 0.8071-4.712-9.6228-3.7745-8.6854s-9.4925-4.8263-8.6854-3.7745-2.0609-10.515-1.398-9.3663c0.66291 1.1482-7.9199-7.1187-7.4125-5.8938 0.50736 1.2249 0.73072-10.69 1.0739-9.409 0.34315 1.2806-5.8075-8.926-5.6345-7.6115s3.4725-10.136 3.4725-8.8105c0 1.3258-3.2994-10.125-3.4725-8.8104s5.9776-8.8921 5.6345-7.6115c-0.34315 1.2806-0.56651-10.634-1.0739-9.409-0.50737 1.2249 8.0754-7.042 7.4125-5.8938s2.2051-10.418 1.398-9.3663c-0.8071 1.0518 9.6229-4.712 8.6854-3.7745s4.8263-9.4925 3.7745-8.6854 10.515-2.0608 9.3663-1.398c-1.1482 0.66291 7.1187-7.9199 5.8938-7.4125-1.2249 0.50736 10.69 0.73072 9.409 1.0739-1.2806 0.34314 8.926-5.8076 7.6115-5.6345-1.3145 0.17306 10.136 3.4725 8.8105 3.4725s10.125-3.2994 8.8104-3.4725c-1.3145-0.17305 8.8921 5.9776 7.6115 5.6345-1.2806-0.34315 10.634-0.5665 9.409-1.0739-1.2249-0.50736 7.042 8.0754 5.8938 7.4125-1.1482-0.66291 10.418 2.205 9.3663 1.398-1.0518-0.80711 4.712 9.6228 3.7745 8.6854s9.4925 4.8263 8.6854 3.7745 2.0608 10.515 1.398 9.3663c-0.66291-1.1482 7.9199 7.1187 7.4125 5.8938-0.50736-1.2249-0.73072 10.69-1.0739 9.409-0.34314-1.2806 5.8076 8.926 5.6345 7.6115s-3.4725 10.136-3.4725 8.8104 3.2994 10.125 3.4725 8.8105c0.17305-1.3145-5.9776 8.8921-5.6345 7.6115 0.34315-1.2806 0.5665 10.634 1.0739 9.409s-8.0754 7.042-7.4125 5.8938-2.2051 10.418-1.398 9.3663c0.80711-1.0518-9.6228 4.712-8.6854 3.7745s-4.8263 9.4925-3.7745 8.6854-10.515 2.0609-9.3663 1.398z" fill="none" stroke="#fff" stroke-width="9.7314"/>
                <g transform="matrix(.30914 0 0 .30914 217.62 199.43)" fill="#fff">
                    <path d="m493.6 207.2c1.2-0.3 2.1-0.1 2.8 1 3.6 5.6 7.7 9.8 10.1 16.4 2.5 6.6 3.9 13.5 5 20.5 1 6.6 1.7 13.3 3.1 19.9 1.4 6.9 2.7 13 0.6 19.9-3.6 11.8-9.7 23.4-14.5 34.7-2.6 6-4.2 15.1-8.2 20.1-2.1 2.6-5.6 4.2-8.3 6-3.7 2.5-7.3 5.1-10.9 7.6-0.1 4 0.2 8-0.2 12.1 41.86 16.844-137.74 47.087-152-0.9-0.2-3.6 0-7.8 0.9-11.3-1.1-1.7-5.9-8.3-7.6-9.3-2.4 0.7-4.2-1.6-6.9-1.2-4.5-5.6-8-11.9-12.5-17.5-5.2-6.5-10.3-13-15.5-19.4-10-12.3-20.2-22.8-20.1-39.4 0-13.1 2.5-25.7 5.3-38.5 1.6-7.3 3.2-14.6 4.7-21.9 0.7-3.1 1.1-6.2 1.6-9.4 0.4-2.8 0.5-7.7 2.2-9.8 3.1-3.8 7.6-5.4 11.9-7.1 2.6-1.1 8.8-5.8 11.2-4.8 5.1 2 12 1.7 17.4 3.1 6.6 1.7 12.7 4.1 19.5 4.8 7.8 0.8 15.6 2.9 23.1 5 2.8 0.7 19.5 3.6 18 7-5.4 12.4-2.1 25.2-14.3 33.9-1.1 15.2-0.8 29.6 4.1 44.2 2.1 6.3 8 11.2 12.4 16.3 5 5.8 9.7 11.8 14.8 17.7-0.2 3.7 4.1 19.4 0.1 21.5-4.3 0.9-8.5 1-12.8 0.6-1.6-4.4-1.9-9-1.6-13.3-14.2-19.2-27.6-38.1-49-49.9-4.2-2.3-8.7 11.3-14.6 11-2-1.6-5.6-5.8-8.5-5.6-0.7-1.1-0.8-1.2-0.4-1.9 2.1-4.1 5.4-7.7 7.2-11.9 0.9-2 1.6-4.1 1-6.3-0.5-1.8-1.1-3.4-1.4-5.2 4.9-1.8 9.9-2.1 15-3.1 0.7-0.1 1.4-0.1 1.8 0.4 0.6 1.3-0.6 1.8-0.7 2.7 0.2 0.7 0.6 1.3 0.7 2 1.1 4.4 7.1 4.9 10.3 2.4 6.4-5.2 3.7-11.8 6.6-18.4-3.4 0.7-6.5 2.5-9.8 3.6-4.3 1.5-9 2.7-13.5 3.5-9.5 1.6-18.6 0.8-26.7-4.7 0-0.3-0.3-0.7-0.2-1.1 0.3-3 3-12.3 6-13.2 2.9 1 5.8 2.4 8.6 3.7 1.7 0.8 5.6 3.9 7.6 3 5.9-2.4 11.5-5.4 17.3-7.9 2.5-1.1 4.9-2.3 7.6-3 3.2-0.9 6.9-0.7 9.7-2.5 1-0.6 2.1-1.3 2.6-2.2 0.9-1.4 1.5-2.9 1.5-4.9-7.1-6-20.6-7.3-29.5-9-11.4-2.2-26.8-9.7-37.8-2.7-1.5 0.9-3 1.9-3.9 3.6 0.8 5.1-1.1 11.5-2.1 16.5l-3.6 18.6c-2.2 12.1-6.1 23.8-5.5 36.2 0.5 9.2 8.5 16.6 14.2 23.1 6.5 7.3 12.2 15.2 17.8 23.2 11.4 16.4 21.6 33.6 33.2 49.9 8.5622 13.761 48.147 13.722 63 12.9 22.2-1.6 43.6-5.9 65.3-11.3 0.2-0.7 0-1.4-0.4-2-0.1-1.8-0.3-3.7-0.3-5.5 0-0.7 0.1-1.4-0.8-1.8-4.2 4.5-10.4 7.7-15.3 11.4-0.5 0.4-1 0.7-1.6 0.3-0.7-0.3-0.7-0.9-0.5-1.5 8-8.7 15.5-17.4 24.5-25.2 4.2-3.6 5.1-8.2 6.9-13.3 2.1-6 4.7-11.8 7-17.7 2.1-5.4 4.3-10.8 6.6-16.1 2.1-5 5.2-10.4 5.3-15.9 0.3-11.1-1.1-22.2-1.9-33.2-0.7-0.3-1.1-0.5-1.5-0.7-6.6 2.8-13.2 7.4-20.7 7-1.9-0.1-3.8-0.3-5.5-1.2-2.5-5.5 0.5-16.3 1.3-22.2 0.6-0.3 1.2-0.8 1.7-0.9 4.1 0 7 0.7 10.8 2 2.8 0.9 6.8 2.7 9.1-0.3-1.4-5.3-5-9.6-7-14.5-0.4-1-0.6-1.9-0.2-3 3.8-1.3 6.8-3.2 9.3-5.7 1.2-0.3-2.5 2.5 0 0z"/>
                    <path d="m398.8 128.3c5.6 1.3 9.6 11.3 13.2 15.4 1.4-0.7 2.7-1.5 4.1-2.2 3.2-1.6 6.7-2.1 10.1-1.8 7.1 0.6 14.7 5.1 21.6 4.9 10 12 20.5 23.2 27.1 37.4 8.5 4.5 17.9 9.7 20.1 20 1 4.3-12.1 10.9-13.3 7.4-1.8-5.3-5.6-8.8-10.3-11.6-0.7-0.5-1.5-0.4-2.1 0-12.2 8-16.1 20.8-20.8 33.8-2.2 6.2-4.3 12.5-6.3 18.9-1.3 4.2-7.1 15.6-5 19.9 0.5 1 0.8 2 1.4 2.9 0.6 1 1.3 1.6 2.1 2.1 0.7 1.8 0.8 3.5-0.2 5-1.6 2.7-1.6 6.6-3.1 9.4-2.6 0-6.7-0.7-9.1-1.4-1.9-2.6-2.7-5.6-3.9-8.5-3.4 1.9-8 6-9.3 9.8-0.4 0-0.8 0.2-1.2 0.1-3.9-1.3-8.2-1.5-11.7-3.8-0.9-2.9 2.2-8.5 2.8-11.3 0.7-4 4.6-1.4 6.6-4.1 4.6-6 9.3-12.4 12.7-19.1 4-8 6.2-16.5 8.8-25 2.5-8.2 5.1-17.3 10.2-24.3 4.7-6.4 11-11.3 15.9-17.4-9-11-15.5-27.7-31-30.3-5-0.8-9.1 4.1-13.6 5.5-0.3 0.4-0.6 1-0.9 1.4 0.7 3.7-0.4 8.5-0.8 12.4-0.3 3.9-1.4 7.8-2.2 11.6-2.1 9.8-4.8 19.4-6.9 29.2-3.5 15.9-14.2 41.8-0.9 55.8 0.7 0.7 0.6 1.6 0.3 2.5-0.9 3-1.8 6.1-2.7 9.1-0.5 1.8-2.1 2.6-3.9 2-2.4-0.8-5.1-0.4-7.4-1.9-3.9-2.4-3-8.9-5-12.4-5.7 2.1-5.8 9.5-13 9.9-2.2-1.5-3.6-3.5-4.4-6s-3.6-9.8-2-12.1c1.2-0.5 1.9 0.5 2.9 0.7 8.8-1.5 12.9-16.8 15.2-23.8 3.4-10.4 5.3-21.1 7.1-31.9 1.9-11.7 5-22.8 7.6-34.3 2.1-9 4.3-18.2-2.7-26.1-2.1-2.3-4.6-3.9-7.6-4.7-3.4-0.8-8.4-0.5-10.8 2.3-5.3 6-5.1 12.5-5.8 20-0.7 7.2-2.7 14.8-4.2 22-0.1 0.5-0.7 0.9-0.9 1.3-4.4-0.9-8.4-1.8-12.7-2.8l-0.8-0.8c0-4.6 1.2-9.2 2.4-13.7 1-3.9 0.6-10 2.6-13.2-1.3-6.6-1.8-11.8-7.1-16.7-8.6 0.8-18.5 1-24.6 8.2-3.5 4.2-5.9 9.2-7.1 14.5-0.6 2.5-0.4 12.4-2.2 13.3-1 0.6-1.8-0.1-2.7-0.6-3.7-0.1-7.2-1.3-10.7-2.2-1.7-1.3-1.6-1.3-1.1-3.6 1.7-6.8 3.5-15.2 2.8-22.2 2.3-3.9 8.5-7.3 11.8-10.3 4.3-3.9 8.7-7.9 13.1-11.7 2.7-2.3 11.2-0.8 14.5-0.7 5 0.1 10.6 0.2 15.2 2.7 2.3 1.2 4 2.9 5.5 4.9 1.8 2.4 8.9-3.8 10.4-5.3 2.6-2.5 9.3 0.5 12.5 0.9 3.7 0.5 7.5 0.8 11.4 0.6 2.1 0.5-1 0 0 0z"/>
                    <path d="m443.9 275.7c4.8-0.2 7.8 0 12.1-2.6 7-4.2 7.8-13.1 11.6-19.4 3.6 0.7 7.1 1.4 10.5 2.1 0.7-0.2 1.4-0.5 2.3-0.8 0.4 0.5 0.7 1 1.2 1.6 0.7 2.6-1.8 4.3-1.1 6.7 5 0.9 10.3 1.5 15.2 3.2 1.2 0.4 2.1 1.5 1.7 2.9-0.9 3.7 1.1 8.4-1.2 12-5.2 0.6-11.3-2.3-16.7-2.3-6.1 0-11.8 1.9-16.1 6.4-0.1 0.1-0.1 0.3-0.3 0.5 3.4 5.1 7.3 9.4 11.3 14 3.5 4-7.3 9.7-9.7 11.5-10.4-5.7-12.6-18.6-25-21.5 0.1-4.5 2.6-10.1 4.2-14.3 0.8 0-0.6 1.6 0 0z"/>
                </g>
            </g>
        </g>
    </g>
    <g display="none" fill="none">
        <rect transform="rotate(90)" x="7.3342" y="-19.616" width="12.282" height="12.282" display="inline" stroke="#000" stroke-width=".065984"/>
        <rect x="6.7726" y="8.112" width="13.405" height="10.726" stroke="#5261ff" stroke-linecap="round" stroke-linejoin="round" stroke-width=".06524"/>
        <rect transform="rotate(90)" x="6.7726" y="-18.838" width="13.405" height="10.726" display="inline" stroke="#0f0" stroke-linecap="round" stroke-linejoin="round" stroke-width=".06524"/>
    </g>
</svg>
