<?xml version="1.0" encoding="UTF-8"?>
<svg version="1.1" viewBox="0 0 26.95 26.95" xmlns="http://www.w3.org/2000/svg">
    <defs>
        <filter id="filter6206-7" color-interpolation-filters="sRGB">
            <feGaussianBlur stdDeviation="0.658125"/>
        </filter>
    </defs>
    <g transform="translate(0 -1025.4)">
        <path transform="matrix(1.0107 0 0 .99762 -.087875 2.579)" d="m4.4177 1028.2v1.6051h-1.6052v18.192h1.6052v2.1402h18.192v-2.1402h2.1402v-18.192h-2.1402v-1.6051h-18.192z" fill="#232323" filter="url(#filter6206-7)" opacity=".2"/>
        <rect x="2.8113" y="1028.2" width="21.327" height="21.327" rx="1.1225" ry="1.1226" fill="#232323"/>
        <g transform="translate(-20.925 990.46)">
            <path d="m0 0h48v48h-48z" fill="none"/>
            <g transform="matrix(.33601 0 0 .33601 1.434 68.477)">
                <path d="m0 0h48v48h-48z" fill="none"/>
            </g>
            <g transform="matrix(.37187 0 0 .37187 36.377 59.287)">
                <path d="m0 0h48v48h-48z" fill="none"/>
                <g transform="matrix(2.6891 0 0 2.6891 -77.724 -45.422)">
                    <path d="m0 0h48v48h-48z" fill="none"/>
                </g>
            </g>
        </g>
        <path transform="translate(0 1025.4)" d="m3.9336 2.8105c-0.62186 0-1.123 0.50115-1.123 1.123v0.3125c0-0.6219 0.50118-1.123 1.123-1.123h19.082c0.62186 0 1.123 0.50115 1.123 1.123v-0.3125c0-0.6219-0.50118-1.123-1.123-1.123h-19.082z" fill="#fff" opacity=".2"/>
        <rect x="120" y="512.36" width="40" height="40" fill="none"/>
        <rect x="120" y="592.36" width="40" height="40" fill="none"/>
        <rect x="120" y="632.36" width="40" height="40" fill="none"/>
        <rect x="120" y="552.36" width="40" height="40" fill="none"/>
        <rect x="120" y="672.36" width="40" height="40" fill="none"/>
        <rect x="200" y="512.36" width="40" height="40" fill="none"/>
        <rect x="200" y="592.36" width="40" height="40" fill="none"/>
        <rect x="200" y="632.36" width="40" height="40" fill="none"/>
        <rect x="200" y="552.36" width="40" height="40" fill="none"/>
        <rect x="200" y="672.36" width="40" height="40" fill="none"/>
        <rect x="280" y="512.36" width="40" height="40" fill="none"/>
        <rect x="280" y="592.36" width="40" height="40" fill="none"/>
        <rect x="280" y="632.36" width="40" height="40" fill="none"/>
        <rect x="280" y="552.36" width="40" height="40" fill="none"/>
        <rect x="280" y="672.36" width="40" height="40" fill="none"/>
        <rect x="160" y="512.36" width="40" height="40" fill="none"/>
        <rect x="160" y="592.36" width="40" height="40" fill="none"/>
        <rect x="160" y="632.36" width="40" height="40" fill="none"/>
        <rect x="160" y="552.36" width="40" height="40" fill="none"/>
        <rect x="160" y="672.36" width="40" height="40" fill="none"/>
        <rect x="240" y="512.36" width="40" height="40" fill="none"/>
        <rect x="240" y="592.36" width="40" height="40" fill="none"/>
        <rect x="240" y="632.36" width="40" height="40" fill="none"/>
        <rect x="240" y="552.36" width="40" height="40" fill="none"/>
        <rect x="240" y="672.36" width="40" height="40" fill="none"/>
        <rect x="120" y="712.36" width="40" height="40" fill="none"/>
        <rect x="200" y="712.36" width="40" height="40" fill="none"/>
        <rect x="280" y="712.36" width="40" height="40" fill="none"/>
        <rect x="160" y="712.36" width="40" height="40" fill="none"/>
        <rect x="240" y="712.36" width="40" height="40" fill="none"/>
        <rect x="320" y="552.36" width="40" height="40" fill="none"/>
        <rect x="320" y="592.36" width="40" height="40" fill="none"/>
        <rect x="320" y="672.36" width="40" height="40" fill="none"/>
        <rect x="320" y="512.36" width="40" height="40" fill="none"/>
        <rect x="320" y="632.36" width="40" height="40" fill="none"/>
        <rect x="320" y="712.36" width="40" height="40" fill="none"/>
        <rect x="150" y="542.36" width="180" height="180" fill="none"/>
        <g transform="matrix(.37344 0 0 .37344 4.4375 1028.8)">
            <path d="m0 0h48v48h-48z" fill="none"/>
        </g>
        <g transform="matrix(.36471 0 0 .36471 4.8146 1028.8)">
            <path d="m0 0h48v48h-48z" fill="none"/>
        </g>
        <g transform="matrix(.41585 0 0 .41585 79.055 989.88)">
            <g transform="matrix(.062269 0 0 .062269 -26.473 173.71)">
                <g transform="matrix(38.618 0 0 38.618 13804 -12696)">
                    <g transform="matrix(.71436 0 0 .71436 -375.49 176.57)">
                        <path transform="matrix(1.3999 0 0 1.3999 525.63 -247.17)" d="m490.56 95.75c-121.72 0.18504-342.34 0.090577-468.16 0.09375-1.5548 6.9739-2.4062 14.232-2.4062 21.688v76.344c139.06 0.49354 331.32 0.2554 472.97 0.25v-76.594c0-7.4875-0.8386-14.78-2.4062-21.781zm-307.19 197.94c-52.495-3e-3 -106.38 0.11982-163.38 0.375v92.844c191.76-0.26331 282.43-0.0926 472.97-0.21875v-92.25c-109.29-0.35498-208.43-0.74426-309.59-0.75z" opacity="0"/>
                    </g>
                </g>
            </g>
        </g>
        <path d="m23.015 1049.6c0.6218 0 1.123-0.5012 1.123-1.123v-0.3125c0 0.6218-0.5012 1.123-1.123 1.123h-19.082c-0.6218 0-1.123-0.5012-1.123-1.123v0.3125c0 0.6218 0.5012 1.123 1.123 1.123h19.082z" fill="#232323" opacity=".2"/>
    </g>
    <g transform="translate(-324.05,-265.45)">
        <g transform="matrix(.10276 0 0 .10276 302.84 250.26)">
            <g transform="matrix(.92168 0 0 .92168 26.436 21.846)" fill="#fff">
                <path d="m328.08 207.18c-0.40234 0.053-0.96454 6e-3 -2.1562 0.80274-0.34494 0.23066-0.74247 0.62163-1.1191 1.1016-0.62197 0.44316-1.5555 1.0735-2.5664 1.7422-0.89905 0.59464-1.7379 1.1528-2.5078 1.6758-0.92953-0.0681-1.9374-0.13167-3.0156-0.19727-1.2113-0.0737-2.3356-0.15369-3.0957-0.22656-0.56521-0.22653-1.1042-0.36339-1.5176-0.39063-1.4306-0.0943-1.8946 0.22556-2.2695 0.38086-0.37493 0.1553-0.93004 0.25756-1.875 1.3359-0.27355 0.31217-0.55725 0.7903-0.79687 1.3516-0.48608 0.58904-1.2239 1.4401-2.0274 2.3477-0.71496 0.80759-1.3797 1.5648-1.9883 2.2695-0.91506 0.17475-1.905 0.37231-2.9629 0.58789-1.1875 0.242-2.2917 0.45754-3.0449 0.58399-0.60567-0.073-1.1633-0.0671-1.5703 0.0137-1.4064 0.27918-1.7718 0.70803-2.0938 0.95508-0.32199 0.24707-0.83122 0.489-1.4648 1.7754-0.18318 0.3719-0.33559 0.90854-0.42187 1.5117-0.3171 0.6948-0.80858 1.7087-1.3496 2.793-0.48152 0.96499-0.92859 1.867-1.334 2.7051-0.83866 0.40563-1.743 0.85395-2.709 1.3359-1.086 0.54192-2.1003 1.0366-2.7949 1.3535-0.60227 0.0864-1.1363 0.23501-1.5078 0.41796-1.2865 0.63356-1.5283 1.1428-1.7754 1.4648h-2e-3c-0.24705 0.32195-0.67589 0.68737-0.95508 2.0938-0.0808 0.407-0.0867 0.96465-0.0137 1.5703-0.12645 0.75317-0.34002 1.8594-0.58203 3.0469-0.21556 1.0577-0.41509 2.0459-0.58984 2.9609-0.70473 0.60858-1.4619 1.2752-2.2695 1.9902-0.90752 0.80343-1.7586 1.5413-2.3476 2.0273-0.56109 0.23967-1.0395 0.52336-1.3516 0.79688-1.078 0.94483-1.1807 1.5001-1.3359 1.875-0.1553 0.37492-0.47517 0.83892-0.38086 2.2695 0.0273 0.41399 0.16536 0.95347 0.39258 1.5195 0.0728 0.76021 0.15296 1.884 0.22656 3.0938 0.0655 1.0768 0.12927 2.083 0.19727 3.0117-0.52344 0.77055-1.0823 1.6095-1.6777 2.5098-0.66924 1.0118-1.301 1.9465-1.7441 2.5684-0.47835 0.37605-0.8675 0.77493-1.0977 1.1191-0.79676 1.1916-0.75171 1.752-0.80468 2.1543-0.053 0.40229-0.24236 0.93381 0.21875 2.291 0.13349 0.39294 0.4073 0.87903 0.77343 1.3672 0.26708 0.71543 0.63333 1.78 1.0176 2.9297 0.34225 1.024 0.66643 1.9794 0.97266 2.8594-0.30609 0.87957-0.63061 1.8341-0.97266 2.8574-0.38456 1.1506-0.75243 2.2163-1.0195 2.9316-0.36494 0.48712-0.63817 0.97307-0.77148 1.3652-0.46145 1.3574-0.27171 1.8886-0.21875 2.291 0.0529 0.40231 8e-3 0.96449 0.80468 2.1562 0.23028 0.34441 0.61889 0.74289 1.0977 1.1191 0.44314 0.6219 1.0752 1.5551 1.7441 2.5664 0.5955 0.90034 1.1543 1.7411 1.6777 2.5117-0.0679 0.92833-0.1318 1.9336-0.19727 3.0098-0.0736 1.2098-0.15376 2.3335-0.22656 3.0938-0.2272 0.56606-0.36531 1.1056-0.39258 1.5195-0.0942 1.4306 0.22556 1.8946 0.38086 2.2695 0.1553 0.37493 0.25756 0.93004 1.3359 1.875 0.31217 0.27355 0.79225 0.55921 1.3535 0.79883 0.58909 0.4862 1.439 1.2227 2.3457 2.0254 0.80766 0.71502 1.5648 1.3817 2.2695 1.9902 0.17474 0.91503 0.37428 1.9032 0.58984 2.9609 0.24201 1.1876 0.45558 2.2937 0.58203 3.0469-0.073 0.60565-0.0671 1.1633 0.0137 1.5703 0.27919 1.4064 0.70803 1.7718 0.95508 2.0938 0.24708 0.32198 0.48901 0.83121 1.7754 1.4648 0.37153 0.183 0.90738 0.33158 1.5098 0.41797 0.69465 0.3169 1.7089 0.81161 2.7949 1.3535 0.96592 0.48197 1.8703 0.93032 2.709 1.3359 0.4054 0.8381 0.85247 1.7401 1.334 2.7051 0.54104 1.0843 1.0325 2.0982 1.3496 2.793 0.0863 0.60328 0.23867 1.1398 0.42187 1.5117 0.63368 1.2866 1.1429 1.5283 1.4648 1.7754 0.32194 0.24705 0.6874 0.67589 2.0938 0.95508 0.40611 0.0806 0.96231 0.088 1.5664 0.0156 0.75306 0.12636 1.8599 0.33974 3.0488 0.58204 1.0572 0.21544 2.0462 0.41514 2.9609 0.58984 0.60871 0.70489 1.275 1.4616 1.9902 2.2695 0.80379 0.90792 1.5413 1.7586 2.0274 2.3477 0.23956 0.56033 0.52558 1.0398 0.79882 1.3516 0.94483 1.078 1.4982 1.1787 1.873 1.334 0.37493 0.1553 0.83892 0.47517 2.2695 0.38086 0.41402-0.0273 0.95343-0.16532 1.5195-0.39258 0.76021-0.0728 1.884-0.151 3.0938-0.2246 1.0768-0.0655 2.083-0.12928 3.0117-0.19727 0.77057 0.52345 1.6114 1.0803 2.5117 1.6758 1.0104 0.66831 1.9424 1.299 2.5644 1.7422 0.37684 0.48029 0.77598 0.8708 1.1211 1.1016 1.1916 0.79673 1.7539 0.75171 2.1562 0.80469 0.40234 0.053 0.93361 0.24063 2.291-0.2207 0.39216-0.13329 0.87612-0.40462 1.3633-0.76954 0.71528-0.26708 1.781-0.63692 2.9316-1.0215 1.0234-0.34206 1.9798-0.66461 2.8594-0.9707 0.87962 0.3061 1.836 0.62863 2.8594 0.9707 1.1506 0.38457 2.2163 0.75439 2.9316 1.0215 0.48719 0.3649 0.97112 0.63628 1.3633 0.76954 1.3574 0.46124 1.8887 0.27368 2.291 0.2207 0.40234-0.053 0.96453-8e-3 2.1562-0.80469 0.34495-0.23065 0.74247-0.62163 1.1191-1.1016 0.62197-0.44316 1.5555-1.0735 2.5664-1.7422 0.89905-0.59465 1.7379-1.1529 2.5078-1.6758 0.92953 0.0681 1.9374 0.13167 3.0156 0.19727 1.2106 0.0736 2.3336 0.15372 3.0938 0.22656 0.56581 0.227 1.1057 0.36336 1.5195 0.39062 1.4306 0.0942 1.8946-0.22556 2.2695-0.38086 0.37493-0.1553 0.93005-0.25559 1.875-1.334 0.27328-0.31187 0.55735-0.79107 0.79687-1.3516 0.48602-0.58901 1.2236-1.4397 2.0274-2.3477 0.71527-0.80794 1.3815-1.5646 1.9902-2.2695 0.9147-0.1747 1.9037-0.37439 2.9609-0.58984 1.189-0.24231 2.2958-0.45569 3.0488-0.58204 0.60409 0.0724 1.1603 0.065 1.5664-0.0156 1.4064-0.27918 1.7718-0.70803 2.0937-0.95508 0.32199-0.24707 0.83122-0.48901 1.4648-1.7754 0.18319-0.37191 0.33559-0.90853 0.42187-1.5117 0.27718-0.60734 0.71113-1.4984 1.1797-2.4414l2.7715-1.5996h-1.9863c0.25238-0.5061 0.50038-1.0056 0.71875-1.457 0.83867-0.40563 1.743-0.85396 2.709-1.3359 1.086-0.54192 2.1003-1.0366 2.7949-1.3535 0.60227-0.0864 1.1363-0.23501 1.5078-0.41797 1.2865-0.63355 1.5283-1.1428 1.7754-1.4648 0.24704-0.32194 0.67782-0.68742 0.95703-2.0938 0.0808-0.40699 0.0867-0.96466 0.0137-1.5703 0.12645-0.75317 0.34002-1.8594 0.58203-3.0469 0.21557-1.0577 0.4151-2.0459 0.58984-2.9609 0.70473-0.60858 1.4619-1.2752 2.2695-1.9902 0.90833-0.80415 1.7606-1.5434 2.3496-2.0293 0.55943-0.23946 1.0382-0.52198 1.3496-0.79492 1.078-0.94482 1.1806-1.5001 1.3359-1.875 0.15529-0.37491 0.47508-0.83915 0.38086-2.2695-0.0273-0.41398-0.16538-0.95346-0.39258-1.5195-0.0728-0.76021-0.15296-1.884-0.22656-3.0938-0.0655-1.0761-0.12932-2.0814-0.19726-3.0098 0.52347-0.77059 1.0822-1.6114 1.6777-2.5117 0.66889-1.0113 1.301-1.9445 1.7441-2.5664 0.47877-0.37617 0.86734-0.77475 1.0977-1.1191 0.79697-1.1917 0.7517-1.7539 0.80468-2.1562 0.053-0.40234 0.24259-0.93361-0.21875-2.291-0.13329-0.3922-0.4065-0.87802-0.77148-1.3652-0.26709-0.71531-0.63497-1.7811-1.0195-2.9316-0.34204-1.0234-0.66658-1.9778-0.97266-2.8574 0.30623-0.87993 0.63041-1.8354 0.97266-2.8594 0.38425-1.1496 0.7505-2.2143 1.0176-2.9297 0.36623-0.4882 0.6399-0.9742 0.77343-1.3672 0.46125-1.3574 0.27173-1.8887 0.21875-2.291-0.053-0.40236-8e-3 -0.96456-0.80468-2.1562-0.23021-0.34424-0.61922-0.74115-1.0977-1.1172-0.44314-0.62184-1.0749-1.5565-1.7441-2.5684-0.59544-0.90025-1.1543-1.7392-1.6777-2.5098 0.068-0.92873 0.13175-1.9349 0.19726-3.0117 0.0736-1.2098 0.15376-2.3335 0.22656-3.0938 0.2272-0.56607 0.36531-1.1056 0.39258-1.5195 0.0942-1.4306-0.22556-1.8946-0.38086-2.2695-0.1553-0.37494-0.25755-0.93004-1.3359-1.875-0.31148-0.27294-0.79012-0.55552-1.3496-0.79493-0.58899-0.48595-1.4413-1.2251-2.3496-2.0293-0.808-0.71533-1.5646-1.3834-2.2695-1.9922-0.17465-0.91429-0.37453-1.9024-0.58984-2.959-0.24201-1.1875-0.45558-2.2937-0.58203-3.0469 0.073-0.60566 0.0671-1.1633-0.0137-1.5703-0.27918-1.4064-0.70998-1.7718-0.95703-2.0938-0.24708-0.32199-0.48706-0.83122-1.7734-1.4648-0.37147-0.18297-0.90751-0.33155-1.5098-0.41796-0.69465-0.3169-1.7089-0.80967-2.7949-1.3516-0.9657-0.48186-1.8705-0.93037-2.709-1.3359-0.40554-0.83845-0.85219-1.7415-1.334-2.707-0.54103-1.0843-1.0325-2.0982-1.3496-2.793-0.0863-0.60328-0.23867-1.1398-0.42187-1.5117-0.63368-1.2866-1.1429-1.5283-1.4648-1.7754-0.32194-0.24705-0.68742-0.67587-2.0937-0.95508-0.4061-0.0806-0.96235-0.0879-1.5664-0.0156-0.75306-0.12635-1.8599-0.33973-3.0488-0.58203-1.0578-0.21558-2.0478-0.41314-2.9629-0.58789-0.60855-0.70468-1.2733-1.4619-1.9883-2.2695-0.80344-0.90752-1.5413-1.7586-2.0274-2.3477-0.23965-0.56108-0.52532-1.0414-0.79882-1.3535-0.94483-1.078-1.4982-1.1787-1.873-1.334-0.37493-0.1553-0.83891-0.47519-2.2695-0.38086-0.41343 0.0273-0.95238 0.16407-1.5176 0.39063-0.76003 0.0729-1.8844 0.15287-3.0957 0.22656-1.0782 0.0656-2.0861 0.12917-3.0156 0.19727-0.76988-0.52293-1.6088-1.0811-2.5078-1.6758-1.0104-0.66831-1.9424-1.299-2.5644-1.7422-0.37684-0.48028-0.77598-0.87081-1.1211-1.1016-1.1915-0.79671-1.7539-0.74976-2.1562-0.80274-0.40234-0.053-0.9336-0.24259-2.291 0.21875-0.39248 0.13339-0.87769 0.40606-1.3652 0.77149-0.71539 0.26706-1.78 0.63527-2.9297 1.0195-1.0234 0.34206-1.9798 0.6646-2.8594 0.9707-0.87962-0.3061-1.8359-0.62864-2.8594-0.9707-1.1506-0.38457-2.2163-0.7544-2.9316-1.0215-0.4872-0.36489-0.97113-0.63627-1.3633-0.76953-1.3574-0.46125-1.8887-0.27173-2.291-0.21875zm1.3809 10.498c0.70542 0.24688 1.3693 0.48895 2.1211 0.74023 1.1764 0.3932 2.2697 0.76016 3.0312 1.0293 0.45416 0.3169 0.87204 0.48655 1.168 0.59375 1.1526 0.41751 1.4504 0.30078 1.7441 0.30078s0.59157 0.11674 1.7441-0.30078c0.29593-0.1072 0.71381-0.27685 1.168-0.59375 0.76155-0.26913 1.8548-0.6361 3.0312-1.0293 0.7518-0.25128 1.4157-0.49335 2.1211-0.74023 0.61719 0.42081 1.1947 0.82663 1.8555 1.2637 1.0342 0.684 1.9942 1.3203 2.6602 1.7773 0.35719 0.42467 0.71615 0.69661 0.97461 0.87696 1.0048 0.70111 1.3237 0.66616 1.6074 0.74218 0.28372 0.076 0.54291 0.26498 1.7637 0.16016 0.31366-0.0269 0.76036-0.0828 1.2812-0.27148 0.80522-0.0629 1.9552-0.13171 3.1934-0.20704 0.79106-0.0481 1.4951-0.11014 2.2402-0.16601 0.48696 0.56588 0.94006 1.1064 1.4648 1.6992 0.82308 0.92971 1.5884 1.7944 2.1133 2.4082 0.23488 0.50107 0.51029 0.85704 0.71289 1.0977 0.78901 0.93706 1.105 0.98401 1.3594 1.1309s0.456 0.39853 1.6621 0.61328c0.30984 0.0552 0.75486 0.11565 1.3066 0.0684 0.79401 0.14766 1.9248 0.37723 3.1406 0.625 0.77703 0.15835 1.4724 0.28096 2.207 0.41992 0.32411 0.67306 0.62088 1.3126 0.97461 2.0215 0.55339 1.109 1.0678 2.1404 1.416 2.8691 0.097 0.54675 0.27251 0.96254 0.40625 1.248 0.5197 1.1094 0.81381 1.2377 1.0215 1.4453 0.20773 0.20771 0.33557 0.50191 1.4453 1.0215 0.28505 0.13345 0.69895 0.30724 1.2441 0.4043 0.72878 0.34813 1.7606 0.86384 2.8711 1.418 0.70914 0.35385 1.3502 0.65043 2.0234 0.97461 0.13889 0.73428 0.2597 1.4304 0.41796 2.207 0.24763 1.2151 0.47729 2.3446 0.625 3.1387-0.0473 0.55177 0.0152 0.99875 0.0703 1.3086 0.21476 1.2061 0.46447 1.4058 0.61133 1.6602 0.14664 0.25415 0.19544 0.57066 1.1308 1.3594 0.24092 0.20313 0.59676 0.47927 1.0996 0.71484 0.61382 0.5249 1.4773 1.289 2.4062 2.1113 0.5935 0.52543 1.1347 0.97933 1.7012 1.4668-0.0559 0.74493-0.11791 1.4475-0.16602 2.2383-0.0753 1.2382-0.14611 2.3901-0.20898 3.1953-0.1886 0.52088-0.24457 0.96762-0.27149 1.2812-0.10475 1.2207 0.0861 1.478 0.16211 1.7617 0.076 0.28361 0.0401 0.60332 0.74024 1.6074 0.18026 0.25852 0.45419 0.61722 0.8789 0.97461 0.45704 0.66593 1.0914 1.628 1.7754 2.6621 0.43736 0.66124 0.84258 1.2399 1.2637 1.8574-0.24664 0.70482-0.4892 1.3681-0.74023 2.1191-0.39318 1.1763-0.75822 2.2678-1.0273 3.0293-0.31764 0.4548-0.48645 0.8717-0.59375 1.168-0.41737 1.1524-0.30078 1.4524-0.30078 1.7461 0 0.29373-0.11658 0.5918 0.30078 1.7441 0.1073 0.29626 0.27613 0.71319 0.59375 1.168 0.26913 0.76154 0.63415 1.8548 1.0273 3.0312 0.25094 0.75081 0.49367 1.4126 0.74023 2.1172-0.42109 0.61756-0.82632 1.1962-1.2637 1.8574-0.68458 1.035-1.3203 1.9982-1.7773 2.6641-0.42371 0.35675-0.69684 0.71452-0.87695 0.97265-0.70111 1.0048-0.66422 1.3237-0.74024 1.6074-0.076 0.28373-0.26693 0.54096-0.16211 1.7617 0.0269 0.31365 0.0829 0.76038 0.27149 1.2812 0.0629 0.8052 0.13361 1.9564 0.20898 3.1953 0.0481 0.79077 0.11017 1.4934 0.16602 2.2383-0.56651 0.48747-1.1077 0.94136-1.7012 1.4668-0.92811 0.82167-1.7905 1.5844-2.4043 2.1094-0.50276 0.23517-0.85851 0.51378-1.0996 0.7168-0.93704 0.78901-0.98598 1.105-1.1328 1.3594-0.14685 0.25436-0.39658 0.45403-0.61133 1.6602-0.0552 0.30985-0.11761 0.7568-0.0703 1.3086-0.14766 0.79402-0.37723 1.9229-0.625 3.1387-0.15826 0.77659-0.27906 1.4728-0.41796 2.207-0.67326 0.32419-1.3143 0.62076-2.0234 0.97461-1.1105 0.55412-2.1424 1.0698-2.8711 1.418-0.54518 0.0972-0.95916 0.27081-1.2441 0.4043-1.1094 0.5197-1.2396 0.81381-1.4473 1.0215-0.20771 0.20773-0.49996 0.33753-1.0195 1.4473-0.13372 0.28559-0.30935 0.70125-0.40625 1.248-0.34822 0.72879-0.86265 1.7582-1.416 2.8672-0.35362 0.7087-0.65254 1.3486-0.97656 2.0215-0.73409 0.13887-1.4287 0.2617-2.2051 0.41992-1.2158 0.24778-2.3466 0.47733-3.1406 0.625-0.55179-0.0473-0.99679 0.0151-1.3066 0.0703-1.2049 0.21452-1.4062 0.46442-1.6602 0.61133-2.6e-4 1.5e-4 -2e-3 -1.5e-4 -2e-3 0l-10.404 6.0078c-0.20569-0.0141-0.5083-0.0315-0.67969-0.0449-0.52089-0.1886-0.96761-0.24457-1.2812-0.27148-1.2207-0.10473-1.48 0.0841-1.7637 0.16015-0.2836 0.076-0.60137 0.042-1.6055 0.74219-0.25829 0.1801-0.61751 0.45096-0.97461 0.875-0.66588 0.45706-1.6271 1.0947-2.6621 1.7793-0.66076 0.43704-1.2383 0.84285-1.8555 1.2637-0.70571-0.24699-1.3689-0.48883-2.1211-0.74024-1.1764-0.3932-2.2697-0.76016-3.0312-1.0293-0.45408-0.31677-0.8721-0.48659-1.168-0.59375-1.1524-0.41737-1.4504-0.29883-1.7441-0.29883s-0.5918-0.11854-1.7441 0.29883c-0.29587 0.10716-0.7139 0.27698-1.168 0.59375-0.76153 0.26913-1.8548 0.63609-3.0312 1.0293-0.75181 0.25128-1.4157 0.49336-2.1211 0.74024-0.61718-0.42081-1.1947-0.82664-1.8555-1.2637-1.0342-0.684-1.9942-1.3203-2.6602-1.7774-0.35719-0.42466-0.71615-0.69661-0.97461-0.87695-1.0048-0.70109-1.3237-0.66617-1.6074-0.74219-0.28372-0.076-0.54291-0.26498-1.7637-0.16015-0.31366 0.0269-0.76036 0.0828-1.2812 0.27148-0.80522 0.0629-1.9552 0.13366-3.1934 0.20898-0.79109 0.0481-1.4951 0.11014-2.2402 0.16602-0.48724-0.56621-0.93972-1.108-1.4648-1.7012-0.82169-0.92814-1.5864-1.7905-2.1113-2.4043-0.23516-0.50275-0.51182-0.86046-0.71484-1.1016-0.78902-0.93705-1.105-0.98402-1.3594-1.1309-0.25436-0.14685-0.456-0.39658-1.6621-0.61133-0.30985-0.0552-0.75487-0.11761-1.3066-0.0703-0.79401-0.14766-1.9248-0.37723-3.1406-0.625-0.77703-0.15835-1.4724-0.28097-2.207-0.41992-0.32411-0.67306-0.62088-1.3126-0.97461-2.0215-0.55367-1.1096-1.0678-2.1404-1.416-2.8691-0.097-0.54674-0.2725-0.96254-0.40625-1.248-0.5197-1.1094-0.81381-1.2377-1.0215-1.4453-0.20773-0.2077-0.33558-0.50191-1.4453-1.0215-0.28505-0.13346-0.69895-0.30724-1.2441-0.4043-0.72878-0.34814-1.7606-0.86385-2.8711-1.418-0.70914-0.35385-1.3502-0.65042-2.0234-0.97461-0.1389-0.73427-0.2597-1.4304-0.41796-2.207-0.24777-1.2158-0.47733-2.3446-0.625-3.1387 0.0473-0.55177-0.0152-0.99875-0.0703-1.3086-0.21475-1.2061-0.46447-1.4058-0.61132-1.6602-0.14669-0.25418-0.19536-0.57075-1.1309-1.3594-0.24094-0.20311-0.5968-0.47934-1.0996-0.71485-0.61382-0.5249-1.4773-1.289-2.4062-2.1113-0.5935-0.52542-1.1347-0.97932-1.7012-1.4668 0.0558-0.74494 0.11791-1.4475 0.16602-2.2383 0.0753-1.2382 0.14612-2.3902 0.20898-3.1953 0.18858-0.52087 0.24458-0.96763 0.27149-1.2812 0.10471-1.2206-0.0861-1.478-0.16211-1.7617-0.076-0.28361-0.0401-0.60136-0.74023-1.6055-0.18011-0.2583-0.45289-0.61751-0.87696-0.97461-0.45705-0.66589-1.0928-1.629-1.7773-2.6641-0.43735-0.66123-0.84258-1.2398-1.2637-1.8574 0.24656-0.70461 0.48928-1.3664 0.74023-2.1172 0.3932-1.1764 0.75821-2.2697 1.0274-3.0312 0.31737-0.45465 0.48651-0.8718 0.59374-1.168 0.41709-1.1519 0.30079-1.4504 0.30079-1.7441 0-0.29376 0.11674-0.59351-0.30079-1.7461-0.10741-0.29653-0.27749-0.71469-0.5957-1.1699-0.26909-0.76155-0.63252-1.8519-1.0254-3.0273-0.25103-0.75107-0.49359-1.4143-0.74023-2.1191 0.42109-0.61757 0.82632-1.1962 1.2637-1.8574 0.68366-1.0336 1.3184-1.9942 1.7754-2.6602 0.42468-0.3572 0.6966-0.7181 0.87695-0.97657 0.70111-1.0048 0.66617-1.3237 0.74219-1.6074 0.076-0.28372 0.26694-0.54092 0.16211-1.7617-0.0269-0.31365-0.0828-0.76036-0.27149-1.2812-0.0629-0.80521-0.13365-1.9571-0.20898-3.1953-0.0481-0.79077-0.11017-1.4934-0.16602-2.2383 0.56651-0.48747 1.1077-0.94137 1.7012-1.4668 0.92811-0.82166 1.7905-1.5844 2.4043-2.1094 0.50277-0.23517 0.85851-0.51183 1.0996-0.71485 0.93704-0.78901 0.98598-1.107 1.1328-1.3613 0.14685-0.25436 0.39658-0.45405 0.61132-1.6602 0.0552-0.30985 0.11761-0.75682 0.0703-1.3086 0.1477-0.79404 0.37737-1.9236 0.625-3.1387 0.15826-0.77658 0.27906-1.4728 0.41796-2.207 0.67326-0.32419 1.3143-0.62076 2.0234-0.97461 1.1105-0.55412 2.1423-1.0698 2.8711-1.418 0.5451-0.0971 0.95917-0.27083 1.2441-0.4043 1.1094-0.51961 1.2376-0.81381 1.4453-1.0215s0.50188-0.3359 1.0215-1.4453c0.13372-0.28551 0.30926-0.70137 0.40625-1.248 0.34821-0.72876 0.86263-1.7601 1.416-2.8691 0.35374-0.70891 0.6505-1.3484 0.97461-2.0215 0.73465-0.13895 1.43-0.26157 2.207-0.41992 1.2158-0.24778 2.3466-0.47732 3.1406-0.625 0.55178 0.0473 0.9968-0.0132 1.3066-0.0684 1.2044-0.21446 1.4063-0.46439 1.6602-0.61133l2e-3 -2e-3c0.25395-0.14612 0.56993-0.19495 1.3574-1.1289 0.20313-0.24092 0.47926-0.59869 0.71484-1.1016 0.5249-0.61382 1.2909-1.4773 2.1133-2.4062 0.52478-0.59277 0.97788-1.1333 1.4648-1.6992 0.74516 0.0559 1.4492 0.11789 2.2402 0.16601 1.2381 0.0753 2.3882 0.14417 3.1934 0.20704 0.52089 0.1886 0.96761 0.24457 1.2812 0.27148 1.2207 0.10475 1.48-0.0841 1.7637-0.16016 0.28361-0.076 0.60137-0.0401 1.6055-0.74023 0.25829-0.18011 0.61751-0.4529 0.97461-0.87695 0.66588-0.45706 1.6271-1.0947 2.6621-1.7793 0.66076-0.43704 1.2383-0.84286 1.8555-1.2637zm4.7441 1.332c0.0377 0.0338 0.0758 0.0878 0.11328 0.11914-0.0381-0.0287-0.0722-0.0819-0.11328-0.11914zm6.6406 0c-0.0411 0.0373-0.0752 0.0905-0.11328 0.11914 0.0375-0.0314 0.0756-0.0853 0.11328-0.11914zm-15.619 1.1758c-0.0314 0.049-0.0494 0.11327-0.0801 0.15234 0.0294-0.0419 0.0512-0.1078 0.0801-0.15234zm24.598 4e-3c0.0279 0.0429 0.0498 0.10609 0.0781 0.14648-0.0295-0.0378-0.0479-0.0995-0.0781-0.14648zm-31.021 1.7148c0.0488 0.0249 0.10263 0.0716 0.15039 0.0937-0.0473-0.0189-0.0972-0.0661-0.15039-0.0937zm37.445 0c-0.0531 0.0276-0.10319 0.0749-0.15039 0.0937 0.0478-0.0222 0.10163-0.0689 0.15039-0.0937zm-45.805 3.4707c-0.0172 0.0539-0.02 0.11749-0.0391 0.16211 0.017-0.0466 0.0231-0.11317 0.0391-0.16211zm54.166 2e-3c0.0155 0.0475 0.0186 0.11292 0.0351 0.1582-0.0184-0.0434-0.0185-0.10613-0.0351-0.1582zm5.7598 3.3144c-0.0597 0.0132-0.12044 0.0467-0.17187 0.0527 0.0526-9e-3 0.11755-0.0411 0.17187-0.0527zm-65.684 2e-3c0.053 0.0113 0.11662 0.0418 0.16797 0.0508-0.0503-6e-3 -0.10981-0.038-0.16797-0.0508zm-7.1797 5.5156c-3e-3 0.0561 0.0126 0.1183 6e-3 0.16601 4e-3 -0.0492-9e-3 -0.11487-6e-3 -0.16601zm80.039 0c3e-3 0.0511-0.0102 0.11687-6e-3 0.16601-7e-3 -0.0477 9e-3 -0.10991 6e-3 -0.16601zm-84.742 4.6953c0.0542-3e-3 0.12375 0.0105 0.17579 6e-3 -0.0504 7e-3 -0.11589-9e-3 -0.17579-6e-3zm89.445 0c-0.0599-3e-3 -0.12539 0.0132-0.17578 6e-3 0.052 5e-3 0.12161-9e-3 0.17578-6e-3zm-94.951 7.1856c0.0119 0.0545 0.041 0.11066 0.0469 0.1582-8e-3 -0.0483-0.0364-0.10846-0.0469-0.1582zm100.46 0c-0.0105 0.0497-0.0384 0.1099-0.0469 0.1582 6e-3 -0.0475 0.0351-0.10378 0.0469-0.1582zm3.1602 5.7148c0.047 0.0171 0.1147 0.0211 0.16406 0.0371-0.0543-0.0173-0.11917-0.018-0.16406-0.0371zm-106.78 2e-3c-0.0436 0.0185-0.1077 0.0184-0.16016 0.0352 0.048-0.0157 0.11435-0.0185 0.16016-0.0352zm110.41 8.3984c-0.0238 0.0468-0.0685 0.0987-0.0899 0.14453 0.0183-0.0456 0.0634-0.0935 0.0899-0.14453zm-114.03 6e-3c0.0253 0.0491 0.0682 0.0946 0.0859 0.13867-0.0205-0.0439-0.0632-0.0939-0.0859-0.13867zm115.6 6.3359c0.0415 0.0291 0.10628 0.0514 0.15039 0.0801-0.0486-0.0312-0.1116-0.0496-0.15039-0.0801zm-117.18 2e-3c-0.0375 0.0293-0.098 0.0482-0.14453 0.0781 0.0424-0.0276 0.10452-0.0501 0.14453-0.0781zm118.51 9.0547c-0.0342 0.038-0.0894 0.0755-0.1211 0.11328 0.0289-0.0384 0.0835-0.0719 0.1211-0.11328zm-119.83 4e-3c0.0352 0.0388 0.0878 0.0693 0.11524 0.10546-0.0298-0.0356-0.0832-0.0697-0.11524-0.10546zm0.11719 6.5254c-0.029 0.0386-0.0851 0.0716-0.12305 0.11328 0.0344-0.0383 0.0912-0.0752 0.12305-0.11328zm119.59 0c0.0308 0.0368 0.084 0.0743 0.11718 0.11132-0.0368-0.0406-0.0888-0.0736-0.11718-0.11132zm-118.53 9.0918c0.0476 0.0306 0.11027 0.0482 0.14844 0.0781-0.0408-0.0287-0.10506-0.0499-0.14844-0.0781zm117.47 0c-0.0434 0.0282-0.10761 0.0495-0.14844 0.0781 0.0382-0.0299 0.10082-0.0476 0.14844-0.0781zm-115.66 6.2754c-0.0183 0.0456-0.0634 0.0934-0.0899 0.14453 0.0238-0.0468 0.0685-0.0987 0.0899-0.14453zm113.86 0c0.0205 0.044 0.0632 0.0939 0.0859 0.13868-0.0253-0.0491-0.0682-0.0946-0.0859-0.13868zm-110.48 8.5078c0.0543 0.0173 0.11918 0.018 0.16406 0.0371-0.047-0.0172-0.1147-0.0211-0.16406-0.0371zm107.1 0c-0.048 0.0156-0.11435 0.0185-0.16015 0.0351 0.0436-0.0185 0.10769-0.0184 0.16015-0.0351zm-103.73 5.5938c-6e-3 0.0476-0.035 0.10368-0.0469 0.1582 0.0105-0.0497 0.0384-0.1099 0.0469-0.1582zm100.36 0c8e-3 0.0483 0.0364 0.10845 0.0469 0.1582-0.0119-0.0545-0.0411-0.11066-0.0469-0.1582zm-94.793 7.3203c0.0328 3e-3 0.0309 0.0134 0.0605 0.0176-0.0491-4e-3 -0.11493 9e-3 -0.16602 6e-3 0.0213 1e-3 0.0855-0.0251 0.10547-0.0234zm89.223 0c0.0192-2e-3 0.0811 0.0225 0.10156 0.0215-0.0493 3e-3 -0.11268-8e-3 -0.16016-4e-3 0.0288-4e-3 0.0268-0.015 0.0586-0.0176zm-84.625 4.5527c7e-3 0.0477-9e-3 0.10991-6e-3 0.16602-3e-3 -0.0511 0.0102-0.11687 6e-3 -0.16602zm80.027 0c-4e-3 0.0492 9e-3 0.1149 6e-3 0.16602 3e-3 -0.0561-0.0126-0.1183-6e-3 -0.16602zm-72.754 5.6289c0.035-6e-3 0.0364 6e-3 0.0684 2e-3 -0.0526 9e-3 -0.11756 0.0411-0.17188 0.0527 0.0227-5e-3 0.0821-0.0508 0.10352-0.0547zm5.6211 3.209c0.0188 0.0442 0.0181 0.10875 0.0352 0.16211-0.0159-0.0486-0.0183-0.11583-0.0352-0.16211zm8.5469 3.5391c-0.0478 0.0222-0.10163 0.0689-0.15039 0.0937 0.0531-0.0276 0.10319-0.0749 0.15039-0.0937zm30.951 1.6602c-0.0288 0.041-0.0517 0.10487-0.0801 0.14844 0.031-0.0483 0.0498-0.10986 0.0801-0.14844zm-24.756 2e-3c0.0295 0.0378 0.048 0.0995 0.0781 0.14648-0.0279-0.0429-0.0498-0.10609-0.0781-0.14648zm9.1719 1.2051c-0.0403 0.0337-0.0805 0.0924-0.12109 0.12891 0.0442-0.0403 0.0804-0.0985 0.12109-0.12891zm6.4121 2e-3c0.0381 0.0287 0.0722 0.0818 0.11328 0.11914-0.0377-0.0338-0.0758-0.0878-0.11328-0.11914z" color="#000000" color-rendering="auto" dominant-baseline="auto" image-rendering="auto" shape-rendering="auto" solid-color="#000000" style="font-feature-settings:normal;font-variant-alternates:normal;font-variant-caps:normal;font-variant-ligatures:normal;font-variant-numeric:normal;font-variant-position:normal;isolation:auto;mix-blend-mode:normal;shape-padding:0;text-decoration-color:#000000;text-decoration-line:none;text-decoration-style:solid;text-indent:0;text-orientation:mixed;text-transform:none;white-space:normal"/>
                <g transform="matrix(.30914 0 0 .30914 217.62 199.43)">
                    <path d="m493.6 207.2c1.2-0.3 2.1-0.1 2.8 1 3.6 5.6 7.7 9.8 10.1 16.4 2.5 6.6 3.9 13.5 5 20.5 1 6.6 1.7 13.3 3.1 19.9 1.4 6.9 2.7 13 0.6 19.9-3.6 11.8-9.7 23.4-14.5 34.7-2.6 6-4.2 15.1-8.2 20.1-2.1 2.6-5.6 4.2-8.3 6-3.7 2.5-7.3 5.1-10.9 7.6-0.1 4 0.2 8-0.2 12.1 41.86 16.844-137.74 47.087-152-0.9-0.2-3.6 0-7.8 0.9-11.3-1.1-1.7-5.9-8.3-7.6-9.3-2.4 0.7-4.2-1.6-6.9-1.2-4.5-5.6-8-11.9-12.5-17.5-5.2-6.5-10.3-13-15.5-19.4-10-12.3-20.2-22.8-20.1-39.4 0-13.1 2.5-25.7 5.3-38.5 1.6-7.3 3.2-14.6 4.7-21.9 0.7-3.1 1.1-6.2 1.6-9.4 0.4-2.8 0.5-7.7 2.2-9.8 3.1-3.8 7.6-5.4 11.9-7.1 2.6-1.1 8.8-5.8 11.2-4.8 5.1 2 12 1.7 17.4 3.1 6.6 1.7 12.7 4.1 19.5 4.8 7.8 0.8 15.6 2.9 23.1 5 2.8 0.7 19.5 3.6 18 7-5.4 12.4-2.1 25.2-14.3 33.9-1.1 15.2-0.8 29.6 4.1 44.2 2.1 6.3 8 11.2 12.4 16.3 5 5.8 9.7 11.8 14.8 17.7-0.2 3.7 4.1 19.4 0.1 21.5-4.3 0.9-8.5 1-12.8 0.6-1.6-4.4-1.9-9-1.6-13.3-14.2-19.2-27.6-38.1-49-49.9-4.2-2.3-8.7 11.3-14.6 11-2-1.6-5.6-5.8-8.5-5.6-0.7-1.1-0.8-1.2-0.4-1.9 2.1-4.1 5.4-7.7 7.2-11.9 0.9-2 1.6-4.1 1-6.3-0.5-1.8-1.1-3.4-1.4-5.2 4.9-1.8 9.9-2.1 15-3.1 0.7-0.1 1.4-0.1 1.8 0.4 0.6 1.3-0.6 1.8-0.7 2.7 0.2 0.7 0.6 1.3 0.7 2 1.1 4.4 7.1 4.9 10.3 2.4 6.4-5.2 3.7-11.8 6.6-18.4-3.4 0.7-6.5 2.5-9.8 3.6-4.3 1.5-9 2.7-13.5 3.5-9.5 1.6-18.6 0.8-26.7-4.7 0-0.3-0.3-0.7-0.2-1.1 0.3-3 3-12.3 6-13.2 2.9 1 5.8 2.4 8.6 3.7 1.7 0.8 5.6 3.9 7.6 3 5.9-2.4 11.5-5.4 17.3-7.9 2.5-1.1 4.9-2.3 7.6-3 3.2-0.9 6.9-0.7 9.7-2.5 1-0.6 2.1-1.3 2.6-2.2 0.9-1.4 1.5-2.9 1.5-4.9-7.1-6-20.6-7.3-29.5-9-11.4-2.2-26.8-9.7-37.8-2.7-1.5 0.9-3 1.9-3.9 3.6 0.8 5.1-1.1 11.5-2.1 16.5l-3.6 18.6c-2.2 12.1-6.1 23.8-5.5 36.2 0.5 9.2 8.5 16.6 14.2 23.1 6.5 7.3 12.2 15.2 17.8 23.2 11.4 16.4 21.6 33.6 33.2 49.9 8.5622 13.761 48.147 13.722 63 12.9 22.2-1.6 43.6-5.9 65.3-11.3 0.2-0.7 0-1.4-0.4-2-0.1-1.8-0.3-3.7-0.3-5.5 0-0.7 0.1-1.4-0.8-1.8-4.2 4.5-10.4 7.7-15.3 11.4-0.5 0.4-1 0.7-1.6 0.3-0.7-0.3-0.7-0.9-0.5-1.5 8-8.7 15.5-17.4 24.5-25.2 4.2-3.6 5.1-8.2 6.9-13.3 2.1-6 4.7-11.8 7-17.7 2.1-5.4 4.3-10.8 6.6-16.1 2.1-5 5.2-10.4 5.3-15.9 0.3-11.1-1.1-22.2-1.9-33.2-0.7-0.3-1.1-0.5-1.5-0.7-6.6 2.8-13.2 7.4-20.7 7-1.9-0.1-3.8-0.3-5.5-1.2-2.5-5.5 0.5-16.3 1.3-22.2 0.6-0.3 1.2-0.8 1.7-0.9 4.1 0 7 0.7 10.8 2 2.8 0.9 6.8 2.7 9.1-0.3-1.4-5.3-5-9.6-7-14.5-0.4-1-0.6-1.9-0.2-3 3.8-1.3 6.8-3.2 9.3-5.7 1.2-0.3-2.5 2.5 0 0z"/>
                    <path d="m398.8 128.3c5.6 1.3 9.6 11.3 13.2 15.4 1.4-0.7 2.7-1.5 4.1-2.2 3.2-1.6 6.7-2.1 10.1-1.8 7.1 0.6 14.7 5.1 21.6 4.9 10 12 20.5 23.2 27.1 37.4 8.5 4.5 17.9 9.7 20.1 20 1 4.3-12.1 10.9-13.3 7.4-1.8-5.3-5.6-8.8-10.3-11.6-0.7-0.5-1.5-0.4-2.1 0-12.2 8-16.1 20.8-20.8 33.8-2.2 6.2-4.3 12.5-6.3 18.9-1.3 4.2-7.1 15.6-5 19.9 0.5 1 0.8 2 1.4 2.9 0.6 1 1.3 1.6 2.1 2.1 0.7 1.8 0.8 3.5-0.2 5-1.6 2.7-1.6 6.6-3.1 9.4-2.6 0-6.7-0.7-9.1-1.4-1.9-2.6-2.7-5.6-3.9-8.5-3.4 1.9-8 6-9.3 9.8-0.4 0-0.8 0.2-1.2 0.1-3.9-1.3-8.2-1.5-11.7-3.8-0.9-2.9 2.2-8.5 2.8-11.3 0.7-4 4.6-1.4 6.6-4.1 4.6-6 9.3-12.4 12.7-19.1 4-8 6.2-16.5 8.8-25 2.5-8.2 5.1-17.3 10.2-24.3 4.7-6.4 11-11.3 15.9-17.4-9-11-15.5-27.7-31-30.3-5-0.8-9.1 4.1-13.6 5.5-0.3 0.4-0.6 1-0.9 1.4 0.7 3.7-0.4 8.5-0.8 12.4-0.3 3.9-1.4 7.8-2.2 11.6-2.1 9.8-4.8 19.4-6.9 29.2-3.5 15.9-14.2 41.8-0.9 55.8 0.7 0.7 0.6 1.6 0.3 2.5-0.9 3-1.8 6.1-2.7 9.1-0.5 1.8-2.1 2.6-3.9 2-2.4-0.8-5.1-0.4-7.4-1.9-3.9-2.4-3-8.9-5-12.4-5.7 2.1-5.8 9.5-13 9.9-2.2-1.5-3.6-3.5-4.4-6s-3.6-9.8-2-12.1c1.2-0.5 1.9 0.5 2.9 0.7 8.8-1.5 12.9-16.8 15.2-23.8 3.4-10.4 5.3-21.1 7.1-31.9 1.9-11.7 5-22.8 7.6-34.3 2.1-9 4.3-18.2-2.7-26.1-2.1-2.3-4.6-3.9-7.6-4.7-3.4-0.8-8.4-0.5-10.8 2.3-5.3 6-5.1 12.5-5.8 20-0.7 7.2-2.7 14.8-4.2 22-0.1 0.5-0.7 0.9-0.9 1.3-4.4-0.9-8.4-1.8-12.7-2.8l-0.8-0.8c0-4.6 1.2-9.2 2.4-13.7 1-3.9 0.6-10 2.6-13.2-1.3-6.6-1.8-11.8-7.1-16.7-8.6 0.8-18.5 1-24.6 8.2-3.5 4.2-5.9 9.2-7.1 14.5-0.6 2.5-0.4 12.4-2.2 13.3-1 0.6-1.8-0.1-2.7-0.6-3.7-0.1-7.2-1.3-10.7-2.2-1.7-1.3-1.6-1.3-1.1-3.6 1.7-6.8 3.5-15.2 2.8-22.2 2.3-3.9 8.5-7.3 11.8-10.3 4.3-3.9 8.7-7.9 13.1-11.7 2.7-2.3 11.2-0.8 14.5-0.7 5 0.1 10.6 0.2 15.2 2.7 2.3 1.2 4 2.9 5.5 4.9 1.8 2.4 8.9-3.8 10.4-5.3 2.6-2.5 9.3 0.5 12.5 0.9 3.7 0.5 7.5 0.8 11.4 0.6 2.1 0.5-1 0 0 0z"/>
                    <path d="m443.9 275.7c4.8-0.2 7.8 0 12.1-2.6 7-4.2 7.8-13.1 11.6-19.4 3.6 0.7 7.1 1.4 10.5 2.1 0.7-0.2 1.4-0.5 2.3-0.8 0.4 0.5 0.7 1 1.2 1.6 0.7 2.6-1.8 4.3-1.1 6.7 5 0.9 10.3 1.5 15.2 3.2 1.2 0.4 2.1 1.5 1.7 2.9-0.9 3.7 1.1 8.4-1.2 12-5.2 0.6-11.3-2.3-16.7-2.3-6.1 0-11.8 1.9-16.1 6.4-0.1 0.1-0.1 0.3-0.3 0.5 3.4 5.1 7.3 9.4 11.3 14 3.5 4-7.3 9.7-9.7 11.5-10.4-5.7-12.6-18.6-25-21.5 0.1-4.5 2.6-10.1 4.2-14.3 0.8 0-0.6 1.6 0 0z"/>
                </g>
            </g>
        </g>
    </g>
    <g display="none" fill="none">
        <rect transform="rotate(90)" x="7.3342" y="-19.616" width="12.282" height="12.282" display="inline" stroke="#000" stroke-width=".065984"/>
        <rect x="6.7726" y="8.112" width="13.405" height="10.726" stroke="#5261ff" stroke-linecap="round" stroke-linejoin="round" stroke-width=".06524"/>
        <rect transform="rotate(90)" x="6.7726" y="-18.838" width="13.405" height="10.726" display="inline" stroke="#0f0" stroke-linecap="round" stroke-linejoin="round" stroke-width=".06524"/>
    </g>
</svg>
