<?xml version="1.0" encoding="UTF-8"?>
<svg fill="none" viewBox="0 0 40 40" xmlns="http://www.w3.org/2000/svg">
    <g filter="url(#filter0_f)" opacity=".2">
        <path d="m6.4966 4.3023v2.3767h-2.408v26.937h2.408v3.1689h27.29v-3.1689h3.2106v-26.937h-3.2106v-2.3767h-27.29z" fill="#232323"/>
    </g>
    <path d="m34.161 4.1727h-28.323c-0.92013 0-1.666 0.74594-1.666 1.6661v28.323c0 0.9202 0.74591 1.6661 1.666 1.6661h28.323c0.9201 0 1.666-0.7459 1.666-1.6661v-28.323c0-0.92018-0.7459-1.6661-1.666-1.6661z" fill="#232323"/>
    <path d="m5.8383 4.1715c-0.92299 0-1.6669 0.74384-1.6669 1.6668v0.46405c0-0.9231 0.74387-1.667 1.6669-1.667h28.322c0.923 0 1.6668 0.74387 1.6668 1.667v-0.46405c0-0.92296-0.7438-1.6668-1.6668-1.6668h-28.322z" fill="#fff" opacity=".2"/>
    <path d="m34.16 35.859c0.9229 0 1.6668-0.7438 1.6668-1.6668v-0.4639c0 0.9228-0.7439 1.6668-1.6668 1.6668h-28.322c-0.9229 0-1.6668-0.744-1.6668-1.6668v0.4639c0 0.923 0.7439 1.6668 1.6668 1.6668h28.322z" fill="#232323" opacity=".2"/>
    <path d="m18.192 13.079c-0.6523 0.0694-2.129 0.2036-3.2815 0.2985-1.1526 0.0947-2.2912 0.2446-2.5303 0.333s-0.5927 0.305-0.7859 0.4816c-0.5968 0.5452-0.7096 1.1633-0.5331 2.9238 0.0879 0.8764 0.2027 2.0518 0.2554 2.6119 0.092 0.9811 0.114 1.0237 0.6016 1.1696l0.5058 0.1515-0.1143-1.1697c-0.0628-0.6433-0.1629-1.9725-0.2223-2.9537l-0.1082-1.7837 0.4089-0.3138c0.3119-0.2392 0.7578-0.3395 1.8808-0.4226 0.8095-0.06 2.4327-0.2007 3.6068-0.3125 1.7878-0.1703 2.2034-0.1694 2.5556 0.0052 0.2312 0.1148 0.4453 0.2812 0.4755 0.3698 0.0329 0.0959 0.2606 0.1211 0.5623 0.0621 0.4955-0.0965 0.502-0.1084 0.2836-0.5204-0.4822-0.9093-1.4296-1.157-3.5607-0.9306zm3.0776 2.7554c-0.357 0.2122-0.6506 0.6591-1.1401 1.7347-0.3626 0.7968-1.0196 2.2396-1.4602 3.2062-0.4406 0.9665-0.7779 1.7799-0.7494 1.8076 0.0284 0.0278 0.281 0.0699 0.5612 0.0936l0.5097 0.0434 1.2758-2.8536c0.7017-1.5695 1.3895-2.9403 1.5285-3.0464 0.139-0.106 0.3855-0.1928 0.5476-0.1928 0.2617 0 2.0501 0.7104 4.5122 1.7925 0.4591 0.2017 0.8943 0.3669 0.967 0.3669 0.0726 0 0.3196 0.144 0.5488 0.3198 0.238 0.1825 0.4166 0.4743 0.4166 0.6804 0 0.1984-0.4337 1.3435-0.9641 2.5446-0.5303 1.2013-0.9342 2.2132-0.8978 2.2488 0.0365 0.0355 0.2749 0.1054 0.5295 0.1551l0.4632 0.0903 0.988-2.256c1.1443-2.6124 1.2288-3.2129 0.5533-3.9337-0.5685-0.6068-6.3077-3.0888-7.1401-3.0879-0.313 3e-4 -0.7855 0.1293-1.0497 0.2865zm-6.6318 0.1362c-1.1267 0.0848-1.2448 0.2269-1.1155 1.3429 0.0595 0.5116 0.1751 1.0089 0.257 1.1052 0.089 0.1047 0.4497 0.1482 0.8971 0.1081 1.5118-0.1351 1.4598-0.0924 1.4598-1.1976 0-0.693-0.0743-1.0611-0.2484-1.2311-0.1368-0.1332-0.2969-0.2298-0.3558-0.2145-0.0592 0.0152-0.4615 0.0544-0.8942 0.087zm-4.6374 6.2744c0 0.5098 0.0356 0.5406 1.0516 0.9073 1.7799 0.6422 5.243 1.5295 8.247 2.1127 3.9685 0.7705 8.0053 1.7766 9.7496 2.43l0.8146 0.3053 0.0939-0.458c0.0517-0.2519 0.058-0.5148 0.0139-0.5843-0.0835-0.1318-2.3755-0.8898-3.872-1.2805-0.9878-0.2578-3.2854-0.7611-7.1954-1.5758-2.9646-0.6178-5.8796-1.3793-7.6098-1.9882-0.6194-0.2179-1.1637-0.3962-1.2097-0.3962-0.0461 0-0.0837 0.2375-0.0837 0.5277z" clip-rule="evenodd" fill="#fff" fill-rule="evenodd"/>
    <defs>
        <filter id="filter0_f" x="3.3837" y="3.5974" width="34.319" height="33.893" color-interpolation-filters="sRGB" filterUnits="userSpaceOnUse">
            <feFlood flood-opacity="0" result="BackgroundImageFix"/>
            <feBlend in="SourceGraphic" in2="BackgroundImageFix" result="shape"/>
            <feGaussianBlur result="effect1_foregroundBlur" stdDeviation="0.352455"/>
        </filter>
    </defs>
</svg>
