<?xml version="1.0" encoding="UTF-8"?>
<svg fill="none" viewBox="0 0 40 40" xmlns="http://www.w3.org/2000/svg">
    <g filter="url(#filter0_f)" opacity=".2">
        <path d="m6.4966 4.3023v2.3767h-2.408v26.937h2.408v3.1689h27.29v-3.1689h3.2106v-26.937h-3.2106v-2.3767h-27.29z" fill="#232323"/>
    </g>
    <path d="m34.161 4.1727h-28.323c-0.92013 0-1.666 0.74594-1.666 1.6661v28.323c0 0.9202 0.74591 1.6661 1.666 1.6661h28.323c0.9201 0 1.6661-0.7459 1.6661-1.6661v-28.323c0-0.92018-0.746-1.6661-1.6661-1.6661z" fill="#03A9F4"/>
    <path d="m5.8384 4.1715c-0.92299 0-1.6669 0.74384-1.6669 1.6668v0.46405c0-0.9231 0.74387-1.667 1.6669-1.667h28.322c0.923 0 1.6669 0.74387 1.6669 1.667v-0.46405c0-0.92296-0.7439-1.6668-1.6669-1.6668h-28.322z" fill="#fff" opacity=".2"/>
    <path d="m34.16 35.859c0.9229 0 1.6668-0.7438 1.6668-1.6668v-0.4639c0 0.9228-0.7439 1.6668-1.6668 1.6668h-28.322c-0.9229 0-1.6668-0.744-1.6668-1.6668v0.4639c0 0.923 0.7439 1.6668 1.6668 1.6668h28.322z" fill="#232323" opacity=".2"/>
    <path d="m14.523 23.898c0 1.2741 1.0454 1.4933 1.8089 1.6529 0.4121 0.0866 0.7379 0.1549 0.7379 0.3506 0 0.2048-0.3959 0.2777-0.7668 0.2777-0.5629 0-1.1605-0.1179-1.6397-0.3237l-0.0918-0.0398v1.4473l0.0506 0.0123c0.7034 0.1667 1.3056 0.2379 2.0141 0.2379 0.7292 0 2.4254-0.1694 2.4254-1.7404 0-1.2708-1.052-1.4789-1.8201-1.6311-0.4061-0.0805-0.7268-0.1438-0.7268-0.3293 0-0.2321 0.3701-0.2631 0.7322-0.2631 0.4784 0 0.9673 0.0849 1.4143 0.2465l0.0884 0.0316v-1.4284l-0.0522-0.011c-0.5275-0.1113-1.1016-0.1732-1.617-0.1732-1.6969 0-2.5574 0.5664-2.5574 1.6832zm4.6914 0.9658c0 1.7084 0.9771 2.6492 2.7518 2.6492 1.7879 0 2.7725-0.9408 2.7725-2.6492 0-1.6835-1.0104-2.6492-2.7725-2.6492-1.7489 2e-4 -2.7518 0.9659-2.7518 2.6492zm2.0749 0c0-0.8724 0.2277-1.3147 0.6767-1.3147 0.6076 0 0.6892 0.7508 0.6976 1.316-0.0082 0.6346-0.0696 1.3141-0.6976 1.3141-0.4552 0-0.6767-0.4303-0.6767-1.3154zm3.8419-2.5628h-0.0657v5.1263h2.8765c1.0689 0 2.0578-0.1761 2.0578-1.4542 0-0.4607-0.347-0.9798-0.9361-1.1542 0.5739-0.2115 0.846-0.6029 0.846-1.2213 0-0.8364-0.6151-1.2966-1.7317-1.2966h-3.0468zm2.2488 3.0728c0.44 0 0.6282 0.1322 0.6282 0.4419 0 0.4167-0.4915 0.4492-0.6422 0.4492h-0.4198v-0.8911h0.4338zm0.0068-1.9966c0.3799 0 0.5727 0.1415 0.5727 0.4207 0 0.3415-0.3339 0.4133-0.6143 0.4133h-0.399v-0.8342c0.0999 2e-4 0.4406 2e-4 0.4406 2e-4zm-15.869-1.9898-0.5795 0.5323 0.0431 0.0366c0.015 0.0131 0.3395 0.2841 0.8684 0.4286-1.1623 0.3443-1.8503 1.231-1.8503 2.4075 0 1.6686 1.1309 2.7052 2.9514 2.7052 0.5993 0 1.1822-0.1549 1.3466-0.2025l0.0364-0.0106v-1.4332l-0.0672 0.0239c-0.363 0.1301-0.6773 0.1903-0.9896 0.1903-0.7985 0-1.2751-0.465-1.2751-1.2448 0-0.7412 0.5126-1.2017 1.3378-1.2017 0.3122 0 0.6238 0.0883 0.9142 0.1838l0.066 0.0217v-1.4277l-0.1399-0.0265c-0.2498-0.0468-0.4598-0.0853-0.6825-0.1101 0.4021-0.1784 0.6685-0.4215 0.7999-0.5626l0.0381-0.041-0.2225-0.1689-0.031 0.0338c-0.0042 0.0048-0.4199 0.4504-1.1909 0.4427-0.8183-0.0081-1.2956-0.566-1.3001-0.5716l-0.034-0.0406-0.0393 0.0354z" fill="#fff"/>
    <path d="m16.714 15.27c0-1.8599 1.5078-3.3678 3.3679-3.3678s3.368 1.5079 3.368 3.3678c0 1.8598-1.5079 3.3677-3.368 3.3677s-3.3679-1.5079-3.3679-3.3677zm5.8518 2.7245c-0.6417 0.6957-1.7732 1.3915-3.2249 1.3915-1.1264 0-2.0961-0.4379-2.7131-0.9244-3.6769 0.3859-6.4112 0.9328-6.4112 0.9328v1.4889l19.487-0.0021 0.0018-3.0699s-3.325-0.0206-7.1393 0.1832z" fill="#fff"/>
    <defs>
        <filter id="filter0_f" x="3.3838" y="3.5974" width="34.319" height="33.893" color-interpolation-filters="sRGB" filterUnits="userSpaceOnUse">
            <feFlood flood-opacity="0" result="BackgroundImageFix"/>
            <feBlend in="SourceGraphic" in2="BackgroundImageFix" result="shape"/>
            <feGaussianBlur result="effect1_foregroundBlur" stdDeviation="0.352455"/>
        </filter>
    </defs>
</svg>
