<?xml version="1.0" encoding="UTF-8"?>
<svg version="1.1" viewBox="0 0 26.95 26.95" xmlns="http://www.w3.org/2000/svg">
    <defs>
        <filter id="filter6206-7" color-interpolation-filters="sRGB">
            <feGaussianBlur stdDeviation="0.658125"/>
        </filter>
    </defs>
    <g transform="translate(0 -1025.4)">
        <path transform="matrix(1.0107 0 0 .99762 -.087875 2.579)" d="m4.4177 1028.2v1.6051h-1.6052v18.192h1.6052v2.1402h18.192v-2.1402h2.1402v-18.192h-2.1402v-1.6051h-18.192z" fill="#232323" filter="url(#filter6206-7)" opacity=".2"/>
        <rect x="2.8113" y="1028.2" width="21.327" height="21.327" rx="1.1225" ry="1.1226" fill="#232323"/>
        <g transform="translate(-20.925 990.46)">
            <path d="m0 0h48v48h-48z" fill="none"/>
            <g transform="matrix(.33601 0 0 .33601 1.434 68.477)">
                <path d="m0 0h48v48h-48z" fill="none"/>
            </g>
            <g transform="matrix(.37187 0 0 .37187 36.377 59.287)">
                <path d="m0 0h48v48h-48z" fill="none"/>
                <g transform="matrix(2.6891 0 0 2.6891 -77.724 -45.422)">
                    <path d="m0 0h48v48h-48z" fill="none"/>
                </g>
            </g>
        </g>
        <path transform="translate(0 1025.4)" d="m3.9336 2.8105c-0.62186 0-1.123 0.50115-1.123 1.123v0.3125c0-0.6219 0.50118-1.123 1.123-1.123h19.082c0.62186 0 1.123 0.50115 1.123 1.123v-0.3125c0-0.6219-0.50118-1.123-1.123-1.123h-19.082z" fill="#fff" opacity=".2"/>
        <rect x="120" y="512.36" width="40" height="40" fill="none"/>
        <rect x="120" y="592.36" width="40" height="40" fill="none"/>
        <rect x="120" y="632.36" width="40" height="40" fill="none"/>
        <rect x="120" y="552.36" width="40" height="40" fill="none"/>
        <rect x="120" y="672.36" width="40" height="40" fill="none"/>
        <rect x="200" y="512.36" width="40" height="40" fill="none"/>
        <rect x="200" y="592.36" width="40" height="40" fill="none"/>
        <rect x="200" y="632.36" width="40" height="40" fill="none"/>
        <rect x="200" y="552.36" width="40" height="40" fill="none"/>
        <rect x="200" y="672.36" width="40" height="40" fill="none"/>
        <rect x="280" y="512.36" width="40" height="40" fill="none"/>
        <rect x="280" y="592.36" width="40" height="40" fill="none"/>
        <rect x="280" y="632.36" width="40" height="40" fill="none"/>
        <rect x="280" y="552.36" width="40" height="40" fill="none"/>
        <rect x="280" y="672.36" width="40" height="40" fill="none"/>
        <rect x="160" y="512.36" width="40" height="40" fill="none"/>
        <rect x="160" y="592.36" width="40" height="40" fill="none"/>
        <rect x="160" y="632.36" width="40" height="40" fill="none"/>
        <rect x="160" y="552.36" width="40" height="40" fill="none"/>
        <rect x="160" y="672.36" width="40" height="40" fill="none"/>
        <rect x="240" y="512.36" width="40" height="40" fill="none"/>
        <rect x="240" y="592.36" width="40" height="40" fill="none"/>
        <rect x="240" y="632.36" width="40" height="40" fill="none"/>
        <rect x="240" y="552.36" width="40" height="40" fill="none"/>
        <rect x="240" y="672.36" width="40" height="40" fill="none"/>
        <rect x="120" y="712.36" width="40" height="40" fill="none"/>
        <rect x="200" y="712.36" width="40" height="40" fill="none"/>
        <rect x="280" y="712.36" width="40" height="40" fill="none"/>
        <rect x="160" y="712.36" width="40" height="40" fill="none"/>
        <rect x="240" y="712.36" width="40" height="40" fill="none"/>
        <rect x="320" y="552.36" width="40" height="40" fill="none"/>
        <rect x="320" y="592.36" width="40" height="40" fill="none"/>
        <rect x="320" y="672.36" width="40" height="40" fill="none"/>
        <rect x="320" y="512.36" width="40" height="40" fill="none"/>
        <rect x="320" y="632.36" width="40" height="40" fill="none"/>
        <rect x="320" y="712.36" width="40" height="40" fill="none"/>
        <rect x="150" y="542.36" width="180" height="180" fill="none"/>
        <g transform="matrix(.37344 0 0 .37344 4.4375 1028.8)">
            <path d="m0 0h48v48h-48z" fill="none"/>
        </g>
        <g transform="matrix(.36471 0 0 .36471 4.8146 1028.8)">
            <path d="m0 0h48v48h-48z" fill="none"/>
        </g>
        <g transform="matrix(.41585 0 0 .41585 79.055 989.88)">
            <g transform="matrix(.062269 0 0 .062269 -26.473 173.71)">
                <g transform="matrix(38.618 0 0 38.618 13804 -12696)">
                    <g transform="matrix(.71436 0 0 .71436 -375.49 176.57)">
                        <path transform="matrix(1.3999 0 0 1.3999 525.63 -247.17)" d="m490.56 95.75c-121.72 0.18504-342.34 0.090577-468.16 0.09375-1.5548 6.9739-2.4062 14.232-2.4062 21.688v76.344c139.06 0.49354 331.32 0.2554 472.97 0.25v-76.594c0-7.4875-0.8386-14.78-2.4062-21.781zm-307.19 197.94c-52.495-3e-3 -106.38 0.11982-163.38 0.375v92.844c191.76-0.26331 282.43-0.0926 472.97-0.21875v-92.25c-109.29-0.35498-208.43-0.74426-309.59-0.75z" opacity="0"/>
                    </g>
                </g>
            </g>
        </g>
        <path d="m23.015 1049.6c0.6218 0 1.123-0.5012 1.123-1.123v-0.3125c0 0.6218-0.5012 1.123-1.123 1.123h-19.082c-0.6218 0-1.123-0.5012-1.123-1.123v0.3125c0 0.6218 0.5012 1.123 1.123 1.123h19.082z" fill="#232323" opacity=".2"/>
    </g>
    <g transform="matrix(.98689 0 0 .98689 .1766 -1010.5)">
        <g transform="translate(11.374 -9.0992)">
            <path d="m-5.1562 1039.4h14.514v14.514h-14.514z" fill="none"/>
            <path d="m3.4686 1053.5c-0.098276-0.1856-0.28118-0.4695-0.54871-0.8516-0.26753-0.3823-0.45589-0.688-0.56509-0.9172 0.69886 0.2839 1.1684 0.4258 1.4086 0.4258 0.17471 0 0.26207-0.2729 0.26207-0.819 0-1.0154-0.092813-1.5232-0.27845-1.5232-0.27299 0-0.8026 0.3002-1.5888 0.9008 0-0.1528-0.081897-0.2183-0.24569-0.1966h-0.081897c-0.28391-0.7534-0.42587-1.425-0.42587-2.0147 0-0.1638 0.016379-0.3276 0.049138-0.4913 1.0046 0.4913 1.8127 0.7371 2.4242 0.7371 0.33851 0 0.849-0.099 1.5315-0.2948 0.68248-0.1966 1.0237-0.4096 1.0237-0.6389 0-0.142-0.092813-0.2129-0.27845-0.2129-0.28391 0-0.6934 0.038-1.2285 0.1147-0.53506 0.077-0.94455 0.1146-1.2285 0.1146-0.29483 0-0.61969-0.077-0.97458-0.2293-0.35489-0.1529-0.53233-0.3603-0.53233-0.6223 0-0.055 0.0082-0.095 0.024574-0.1229 0.016379-0.028 0.040954-0.043 0.073702-0.049 0.032759-0.01 0.065517-0.01 0.098276 0s0.076433 0.012 0.13104 0.016c0.054602 0.01 0.10374 0.01 0.14742 0.01 0.098276 0 0.24023 0.013 0.42587 0.041 0.18563 0.028 0.32213 0.041 0.40949 0.041 0.33851 0 1.0319-0.1993 2.0802-0.5978 1.0483-0.3986 1.5724-0.707 1.5724-0.9255 0-0.1309-0.10101-0.2237-0.30302-0.2784-0.20201-0.055-0.39038-0.082-0.56509-0.082-0.15288 0-0.38219 0.041-0.68794 0.1228-0.30575 0.082-0.6388 0.1802-0.99915 0.2949-0.36035 0.1146-0.60058 0.1883-0.7207 0.2211 0.043675-0.2184 0.065518-0.3932 0.065518-0.5242 0-0.5132-0.1365-1.111-0.40949-1.7935s-0.58966-1.1875-0.95001-1.515c-0.29483-0.2621-0.68794-0.4423-1.1793-0.5406-0.30575-0.3931-0.78349-0.7508-1.4332-1.0729-0.64972-0.3221-1.2257-0.4831-1.728-0.4831-0.098276 0-0.24842 0.018-0.45043 0.057-0.20201 0.038-0.33032 0.063-0.38492 0.074l-0.36035 0.5078 0.098276 0.016c0.076433 0 0.19382-0.011 0.35216-0.033s0.27572-0.032 0.35216-0.032c0.37127 0 0.79713 0.077 1.2776 0.2294-0.30575 0.1528-0.57328 0.2566-0.80259 0.3112-0.021843 0.011-0.092813 0.025-0.21293 0.041-0.12012 0.016-0.22112 0.033-0.30302 0.048-0.081897 0.016-0.15834 0.05-0.22931 0.099-0.070981 0.049-0.10647 0.112-0.10647 0.1884 0.6115-0.066 1.0701-0.098 1.3759-0.098 0.41495 0 0.74254 0.038 0.98277 0.1146-0.84081 0.098-1.4878 0.3876-1.941 0.8682-0.45317 0.4804-0.67975 1.1411-0.67975 1.9818 0 0.2949 0.021843 0.568 0.065518 0.819 0.20747 1.3104 0.60604 3.2649 1.1957 5.8638 0.36035 1.6817 0.56236 2.6099 0.60604 2.7846l0.016379-0.083zm-5.3397-9.9586c0 0.066 0.016379 0.1313 0.049138 0.1966-0.010916-0.1748 0.087359-0.3277 0.29483-0.4587 0.20747-0.131 0.40403-0.1964 0.58966-0.1964 0.08736 0 0.19656 0.027 0.32759 0.082-0.1092-0.142-0.26753-0.2129-0.47501-0.2129-0.18563 0-0.36308 0.052-0.53233 0.1556-0.16925 0.1038-0.25388 0.2484-0.25388 0.434zm0.54052 1.2284c0-0.1419 0.057333-0.2701 0.17198-0.3848 0.11466-0.1146 0.24296-0.172 0.38492-0.172s0.27026 0.057 0.38492 0.172c0.11466 0.1147 0.17198 0.2429 0.17198 0.3848 0 0.142-0.057333 0.2704-0.17198 0.385-0.11466 0.1147-0.24296 0.172-0.38492 0.172-0.14195 0-0.27026-0.058-0.38492-0.172-0.11466-0.1146-0.17198-0.243-0.17198-0.385zm0.65518-0.1801c0 0.087 0.049138 0.131 0.14742 0.131 0.098276 0 0.14742-0.043 0.14742-0.131 0-0.099-0.049138-0.1475-0.14742-0.1475-0.098276 0-0.14742 0.049-0.14742 0.1475zm2.7518-1.425c0.08736-0.142 0.28937-0.2129 0.60604-0.2129 0.14196 0 0.32213 0.055 0.54052 0.1637-0.1092-0.2402-0.30029-0.3603-0.57328-0.3603-0.33851 0-0.5296 0.1365-0.57328 0.4095zm0.37673 1.2775c0-0.131 0.049138-0.243 0.14741-0.3357 0.098276-0.092 0.20748-0.1393 0.32759-0.1393 0.13104 0 0.24296 0.046 0.33578 0.1393 0.092823 0.092 0.13923 0.2047 0.13923 0.3357 0 0.1202-0.046406 0.2293-0.13923 0.3276-0.092813 0.099-0.20474 0.1475-0.33578 0.1475-0.12012 0-0.22931-0.049-0.32759-0.1475-0.098276-0.099-0.14741-0.2074-0.14741-0.3276zm0.57328-0.1636c0 0.087 0.038222 0.1308 0.11466 0.1308 0.08736 0 0.13104-0.043 0.13104-0.1308 0-0.077-0.043675-0.1149-0.13104-0.1149-0.076433 0-0.11466 0.038-0.11466 0.1149z" fill="#fff"/>
        </g>
    </g>
    <g display="none" fill="none">
        <rect transform="rotate(90)" x="7.3342" y="-19.616" width="12.282" height="12.282" display="inline" stroke="#000" stroke-width=".065984"/>
        <rect x="6.7726" y="8.112" width="13.405" height="10.726" stroke="#5261ff" stroke-linecap="round" stroke-linejoin="round" stroke-width=".06524"/>
        <rect transform="rotate(90)" x="6.7726" y="-18.838" width="13.405" height="10.726" display="inline" stroke="#0f0" stroke-linecap="round" stroke-linejoin="round" stroke-width=".06524"/>
    </g>
</svg>
