<?xml version="1.0" encoding="UTF-8"?>
<svg version="1.1" viewBox="0 0 28.747 28.747" xmlns="http://www.w3.org/2000/svg">
    <defs>
        <filter id="filter6206-7" color-interpolation-filters="sRGB">
            <feGaussianBlur stdDeviation="0.658125"/>
        </filter>
    </defs>
    <g transform="translate(0 -1093.8)">
        <path transform="matrix(1.0781 0 0 1.0641 -.093733 2.7509)" d="m4.4177 1028.2v1.6051h-1.6052v18.192h1.6052v2.1402h18.192v-2.1402h2.1402v-18.192h-2.1402v-1.6051z" fill="#232323" filter="url(#filter6206-7)" opacity=".2"/>
        <rect x="2.9987" y="1096.8" width="22.749" height="22.749" rx="1.1973" ry="1.1974" fill="#232323"/>
        <g transform="translate(-22.32 1056.5)">
            <path d="m0 0h51.2v51.2h-51.2z" fill="none" stroke-width="1.0667"/>
            <g transform="matrix(.33601 0 0 .33601 1.5296 73.043)">
                <path d="m0 0h51.2v51.2h-51.2z" fill="none" stroke-width="1.0667"/>
            </g>
            <g transform="matrix(.37187 0 0 .37187 38.802 63.239)">
                <path d="m0 0h51.2v51.2h-51.2z" fill="none" stroke-width="1.0667"/>
                <g transform="matrix(2.6891 0 0 2.6891 -82.906 -48.45)">
                    <path d="m0 0h51.2v51.2h-51.2z" fill="none" stroke-width="1.0667"/>
                </g>
            </g>
        </g>
        <path d="m4.1958 1096.8c-0.66332 0-1.1979 0.5346-1.1979 1.1979v0.3334c0-0.6634 0.53459-1.1979 1.1979-1.1979h20.354c0.66332 0 1.1979 0.5345 1.1979 1.1979v-0.3334c0-0.6633-0.5346-1.1979-1.1979-1.1979z" fill="#fff" opacity=".2"/>
        <rect x="128" y="546.52" width="42.667" height="42.667" fill="none" stroke-width="1.0667"/>
        <rect x="128" y="631.85" width="42.667" height="42.667" fill="none" stroke-width="1.0667"/>
        <rect x="128" y="674.52" width="42.667" height="42.667" fill="none" stroke-width="1.0667"/>
        <rect x="128" y="589.19" width="42.667" height="42.667" fill="none" stroke-width="1.0667"/>
        <rect x="128" y="717.19" width="42.667" height="42.667" fill="none" stroke-width="1.0667"/>
        <rect x="213.33" y="546.52" width="42.667" height="42.667" fill="none" stroke-width="1.0667"/>
        <rect x="213.33" y="631.85" width="42.667" height="42.667" fill="none" stroke-width="1.0667"/>
        <rect x="213.33" y="674.52" width="42.667" height="42.667" fill="none" stroke-width="1.0667"/>
        <rect x="213.33" y="589.19" width="42.667" height="42.667" fill="none" stroke-width="1.0667"/>
        <rect x="213.33" y="717.19" width="42.667" height="42.667" fill="none" stroke-width="1.0667"/>
        <rect x="298.67" y="546.52" width="42.667" height="42.667" fill="none" stroke-width="1.0667"/>
        <rect x="298.67" y="631.85" width="42.667" height="42.667" fill="none" stroke-width="1.0667"/>
        <rect x="298.67" y="674.52" width="42.667" height="42.667" fill="none" stroke-width="1.0667"/>
        <rect x="298.67" y="589.19" width="42.667" height="42.667" fill="none" stroke-width="1.0667"/>
        <rect x="298.67" y="717.19" width="42.667" height="42.667" fill="none" stroke-width="1.0667"/>
        <rect x="170.67" y="546.52" width="42.667" height="42.667" fill="none" stroke-width="1.0667"/>
        <rect x="170.67" y="631.85" width="42.667" height="42.667" fill="none" stroke-width="1.0667"/>
        <rect x="170.67" y="674.52" width="42.667" height="42.667" fill="none" stroke-width="1.0667"/>
        <rect x="170.67" y="589.19" width="42.667" height="42.667" fill="none" stroke-width="1.0667"/>
        <rect x="170.67" y="717.19" width="42.667" height="42.667" fill="none" stroke-width="1.0667"/>
        <rect x="256" y="546.52" width="42.667" height="42.667" fill="none" stroke-width="1.0667"/>
        <rect x="256" y="631.85" width="42.667" height="42.667" fill="none" stroke-width="1.0667"/>
        <rect x="256" y="674.52" width="42.667" height="42.667" fill="none" stroke-width="1.0667"/>
        <rect x="256" y="589.19" width="42.667" height="42.667" fill="none" stroke-width="1.0667"/>
        <rect x="256" y="717.19" width="42.667" height="42.667" fill="none" stroke-width="1.0667"/>
        <rect x="128" y="759.85" width="42.667" height="42.667" fill="none" stroke-width="1.0667"/>
        <rect x="213.33" y="759.85" width="42.667" height="42.667" fill="none" stroke-width="1.0667"/>
        <rect x="298.67" y="759.85" width="42.667" height="42.667" fill="none" stroke-width="1.0667"/>
        <rect x="170.67" y="759.85" width="42.667" height="42.667" fill="none" stroke-width="1.0667"/>
        <rect x="256" y="759.85" width="42.667" height="42.667" fill="none" stroke-width="1.0667"/>
        <rect x="341.33" y="589.19" width="42.667" height="42.667" fill="none" stroke-width="1.0667"/>
        <rect x="341.33" y="631.85" width="42.667" height="42.667" fill="none" stroke-width="1.0667"/>
        <rect x="341.33" y="717.19" width="42.667" height="42.667" fill="none" stroke-width="1.0667"/>
        <rect x="341.33" y="546.52" width="42.667" height="42.667" fill="none" stroke-width="1.0667"/>
        <rect x="341.33" y="674.52" width="42.667" height="42.667" fill="none" stroke-width="1.0667"/>
        <rect x="341.33" y="759.85" width="42.667" height="42.667" fill="none" stroke-width="1.0667"/>
        <rect x="160" y="578.52" width="192" height="192" fill="none" stroke-width="1.0667"/>
        <g transform="matrix(.37344 0 0 .37344 4.7333 1097.4)">
            <path d="m0 0h51.2v51.2h-51.2z" fill="none" stroke-width="1.0667"/>
        </g>
        <g transform="matrix(.36471 0 0 .36471 5.1356 1097.4)">
            <path d="m0 0h51.2v51.2h-51.2z" fill="none" stroke-width="1.0667"/>
        </g>
        <g transform="matrix(.41585 0 0 .41585 84.325 1055.9)">
            <g transform="matrix(.062269 0 0 .062269 -28.238 185.29)">
                <g transform="matrix(38.618 0 0 38.618 14724 -13542)">
                    <g transform="matrix(.71436 0 0 .71436 -400.52 188.34)">
                        <path d="m1293.2-120.67c-181.75 0.2763-511.18 0.13525-699.05 0.13998-2.3216 10.413-3.593 21.251-3.593 32.384v114c207.65 0.73695 494.72 0.38136 706.23 0.3733v-114.37c0-11.18-1.2522-22.07-3.593-32.523zm-458.69 295.56c-78.385-4e-3 -158.85 0.17892-243.95 0.55995v138.63c286.34-0.39317 421.73-0.13827 706.23-0.32664v-137.75c-163.2-0.53005-311.22-1.1113-462.28-1.1199z" opacity="0" stroke-width="1.4932"/>
                    </g>
                </g>
            </g>
        </g>
        <path d="m24.549 1119.5c0.66325 0 1.1979-0.5346 1.1979-1.1979v-0.3333c0 0.6632-0.53461 1.1978-1.1979 1.1978h-20.354c-0.66325 0-1.1979-0.5346-1.1979-1.1978v0.3333c0 0.6633 0.53461 1.1979 1.1979 1.1979z" fill="#232323" opacity=".2"/>
    </g>
    <g transform="matrix(.038383 0 0 .038383 -7.104 14.205)" fill="#fff">
        <path d="m685.42-12.637-39.104 76.841h-14.151l11.212-21.33-29.396-55.443h14.767l21.671 43.343 21.603-43.343h13.399zm-156.28 49.017c11.759 0 19.826-8.4771 19.826-21.261s-8.0669-21.261-19.826-21.261c-11.69 0-19.826 8.4771-19.826 21.261s8.1353 21.261 19.826 21.261zm-32.473-73.354h12.647v31.789c6.2211-7.3833 14.767-9.5026 23.175-9.5026 14.083 0 29.738 9.5026 29.738 30.012 0 17.228-12.442 29.738-30.012 29.738-9.1608 0-17.843-3.2815-23.175-9.8444 0 2.5978-0.1367 5.264-0.41018 7.7251h-12.442c0.2051-4.0335 0.4102-9.024 0.4102-13.058v-66.86zm-13.263 46.898c-0.47854-11.827-9.024-16.271-18.185-16.271-9.8444 0-17.706 4.9906-19.074 16.271zm-37.532 8.4088c0.68363 11.485 8.6138 18.253 19.484 18.253 7.52 0 14.22-3.0764 16.476-9.776h13.058c-2.5295 13.536-16.954 18.185-29.328 18.185-22.56 0-32.541-12.442-32.541-29.191 0-18.458 10.323-30.559 32.746-30.559 17.843 0 30.9 9.3659 30.9 29.738v3.3498zm146.91-1.6407c-11.485 0.34182-18.595 2.4611-18.595 9.9811 0 4.9222 3.8968 10.186 13.81 10.186 13.263 0 20.372-7.2466 20.372-19.074v-1.2989c-4.6488 0-10.391 0-15.587 0.20509zm28.234 15.655c0 3.6916 0.13671 7.3149 0.41019 10.596h-11.759c-0.34183-2.6662-0.41019-5.4008-0.41019-7.9986-6.3578 7.7935-13.946 10.049-24.406 10.049-15.587 0-23.927-8.2037-23.927-17.775 0-13.81 11.348-18.663 31.037-19.074 5.4008-0.13673 11.417-0.13673 16.407-0.13673v-1.3673c0-9.2291-5.9477-12.989-16.202-12.989-7.5884 0-13.194 3.1447-13.81 8.6139h-13.263c1.4356-13.604 15.655-17.023 28.234-17.023 15.04 0 27.687 5.3324 27.687 21.261z" stroke-width=".68364"/>
        <path d="m743.06-16.217c-2.1049-10.2 0.72669-21.595-7.2316-29.615 0.69512-7.3323-6.8669-3.3944-6.1484-10.616-0.27178 5.3853-1.9526-6.5042-5.4298-5.0021-1.1684-4.8265-6.5277-17.581-8.3336-6.1229 8.1572-3.6715-6.5466 5.4259-1.2873-4.0001-3.4118-10.015-3.1113 7.8133-4.862-3.3028-3.6501-5.6591-9.5375-1.0503-14.176-7.3047-5.7262 4.3887-4.4352-12.488-9.9907-3.9459-7.2002-2.1225-8.7546-6.6677-17.478-4.359-5.9469-4.2765 7.9294-8.0732-2.3878-5.4631-5.1317 3.2517-13.288-5.0387-17.677-3.2861-13.968-0.56105-18.25-2.306-34.114-2.8614-4.1407-2.7653-2.6658 8.939-5.5491 0.45036-14.25 2.3709-32.681-0.20081-43.46 9.1024-17.639 1.0704-33.282 10.292-49.136 17.31-6.9643 6.8864-18.12 8.1127-24.736 11.549 6.0828 0.7914-1.231 7.2927-2.2281-0.96093-3.6702 2.4065-27.114-3.0249-26.001 11.722-0.55454-19.302-23.847-4.0944-32.781 0.16821-7.4109 0.47378-5.2674 7.1458-13.762 4.3964-8.2547-0.74278-12.371 14.84-13.321 12.979-5.7801-5.1092-0.39481 9.6212-9.1863 7.0046-11.048 13.003-20.621 30.004-16.934 47.758 1.361 6.9255 9.2043 26.264 12.483 30.101 3.0895-4.9825 5.0447 12.245 10.622 8.9882 7.2922 10.168 11.743 13.698 21.239 21.157 6.6887-3.0663 4.6694 10.35 15.355 10.109 7.8736 1.9747 17.328 6.3275 27.256 5.8882 4.6914 4.5165 13.09 0.45549 18.305 6.1601 7.2903 1.4634 25.48 3.791 23.987 4.2875 2.5541-8.1614 6.3749 7.7359 6.2613-3.4386 1.8755 12.268 22.547-2.1909 31.735 8.6616-6.2142-4.2612 14.26-3.316 13.377-3.6842 11.611 7.2258 18.34-9.7238 28.53 0.37637 3.9806-9.5058 2.9273-3.8755 8.0133 0.13595 14.019-2.7041 27.958-6.9822 42.172-9.8486 10.852 2.3919 12.786-11.13 22.073-5.7907 7.0063-2.4838 5.6872-8.2085 10.033-5.9068 10.557-1.0996 4.0886-15.865 11.828-7.5971 8.8622-5.3077 19.101-14.992 29.98-22.808 2.7797-0.19264 4.5716-5.5633 6.6963-7.2041 5.7786 2.8284 2.2571-10.215 8.581-8.3634-1.2385-5.2713 5.1087-21.179 8.174-13.671 5.9085-13.298 8.4041-28.693 9.5116-43.152zm-353.68-5.5739c-1.7765 0.06594 0.84711-2.4069 0 0zm123.28 116.85c-0.60234-1.5205-0.4672-1.1793 0 0zm82.153 11.347c-1.9811 0.18693-4.2786 0.4037 0 0zm140.43-123.82c-0.16919 17.043-6.4134 34.41-19.237 45.944-11.347 10.1-20.541 23.308-34.984 28.258-12.421 6.724-26.107 12.091-36.361 21.006-2.8254-6.2525-11.099 8.3432-17.274 3.2362-10.121-0.49017-11.349 12.841-20.372 7.0868-14.705 2.7341-26.731 6.7802-41.146 6.4705-5.5532-1.2766-9.2543 1.6916-9.7228 1.7832-9.886 0.86565-13.228 2.3757-22.394-0.08001-13.293 2.1866-22.988-2.6446-36.05-4.6424-13.034-1.1416-25.32-5.4932-37.97-8.3356-10.044-1.5273-22.889-9.5878-34.261-14.529-19.641-9.8049-35.182-28.166-40.895-49.428-3.4187-15.966 0.28696-32.717 15.604-40.719 10.161-10.433 24.431-17.303 38.678-21.643 10.578-3.8765 33.161-8.1028 37.328-5.9194-5.6145 4.008-15.217 16.971-2.8687 9.0959 6.3208-1.9211 22.034-9.7781 30.507-11.469 5.6278 1.4449 24.846-5.2952 35.181-0.99482 15.655 2.1602 31.688 3.0029 46.938 7.369 5.6433 6.0169 21.939 7.9861 10.453-2.3192-8.5527-6.7545-24.858-8.0381-30.876-11.008-0.11383 9.6518-10.928-7.9261-17.669-1.5212-12.114-4.4931 2.548-11.386 7.5179-8.7675 6.2906 1.2461 19.933-17.07 14.124-5.3748 14.272-4.315 30.199-4.3257 45.69-6.0748 9.3467-4.0035 18.663 2.2755 30.526-0.77748 10.889 5.73 13.179-4.4754 20.431 5.1966 14.998 0.09806 28.128 4.2879 40.968 13.636 14.592 4.3808 23.302 20.333 27.103 34.395 0.0282 3.4499 0.65415 6.728 1.0337 10.126zm-163.65-38.819-0.59936 0.19556z" fill-rule="evenodd" stroke-width="1.4698"/>
    </g>
</svg>
