<?xml version="1.0" encoding="UTF-8"?>
<svg version="1.1" viewBox="0 0 28.747 28.747" xmlns="http://www.w3.org/2000/svg">
    <defs>
        <filter id="filter6206-7" x="-.072" y="-.072" width="1.144" height="1.144" color-interpolation-filters="sRGB">
            <feGaussianBlur stdDeviation="0.658125"/>
        </filter>
    </defs>
    <g transform="translate(0 -1093.8)">
        <path transform="matrix(1.0781 0 0 1.0641 -.093733 2.7509)" d="m4.4177 1028.2v1.6051h-1.6052v18.192h1.6052v2.1402h18.192v-2.1402h2.1402v-18.192h-2.1402v-1.6051z" fill="#232323" filter="url(#filter6206-7)" opacity=".2"/>
        <rect x="2.9987" y="1096.8" width="22.749" height="22.749" rx="1.1973" ry="1.1974" fill="#232323"/>
        <g transform="translate(-22.32 1056.5)">
            <path d="m0 0h51.2v51.2h-51.2z" fill="none" stroke-width="1.0667"/>
            <g transform="matrix(.33601 0 0 .33601 1.5296 73.043)">
                <path d="m0 0h51.2v51.2h-51.2z" fill="none" stroke-width="1.0667"/>
            </g>
            <g transform="matrix(.37187 0 0 .37187 38.802 63.239)">
                <path d="m0 0h51.2v51.2h-51.2z" fill="none" stroke-width="1.0667"/>
                <g transform="matrix(2.6891 0 0 2.6891 -82.906 -48.45)">
                    <path d="m0 0h51.2v51.2h-51.2z" fill="none" stroke-width="1.0667"/>
                </g>
            </g>
        </g>
        <path d="m4.1958 1096.8c-0.66332 0-1.1979 0.5346-1.1979 1.1979v0.3334c0-0.6634 0.53459-1.1979 1.1979-1.1979h20.354c0.66332 0 1.1979 0.5345 1.1979 1.1979v-0.3334c0-0.6633-0.5346-1.1979-1.1979-1.1979z" fill="#fff" opacity=".2"/>
        <rect x="128" y="546.52" width="42.667" height="42.667" fill="none" stroke-width="1.0667"/>
        <rect x="128" y="631.85" width="42.667" height="42.667" fill="none" stroke-width="1.0667"/>
        <rect x="128" y="674.52" width="42.667" height="42.667" fill="none" stroke-width="1.0667"/>
        <rect x="128" y="589.19" width="42.667" height="42.667" fill="none" stroke-width="1.0667"/>
        <rect x="128" y="717.19" width="42.667" height="42.667" fill="none" stroke-width="1.0667"/>
        <rect x="213.33" y="546.52" width="42.667" height="42.667" fill="none" stroke-width="1.0667"/>
        <rect x="213.33" y="631.85" width="42.667" height="42.667" fill="none" stroke-width="1.0667"/>
        <rect x="213.33" y="674.52" width="42.667" height="42.667" fill="none" stroke-width="1.0667"/>
        <rect x="213.33" y="589.19" width="42.667" height="42.667" fill="none" stroke-width="1.0667"/>
        <rect x="213.33" y="717.19" width="42.667" height="42.667" fill="none" stroke-width="1.0667"/>
        <rect x="298.67" y="546.52" width="42.667" height="42.667" fill="none" stroke-width="1.0667"/>
        <rect x="298.67" y="631.85" width="42.667" height="42.667" fill="none" stroke-width="1.0667"/>
        <rect x="298.67" y="674.52" width="42.667" height="42.667" fill="none" stroke-width="1.0667"/>
        <rect x="298.67" y="589.19" width="42.667" height="42.667" fill="none" stroke-width="1.0667"/>
        <rect x="298.67" y="717.19" width="42.667" height="42.667" fill="none" stroke-width="1.0667"/>
        <rect x="170.67" y="546.52" width="42.667" height="42.667" fill="none" stroke-width="1.0667"/>
        <rect x="170.67" y="631.85" width="42.667" height="42.667" fill="none" stroke-width="1.0667"/>
        <rect x="170.67" y="674.52" width="42.667" height="42.667" fill="none" stroke-width="1.0667"/>
        <rect x="170.67" y="589.19" width="42.667" height="42.667" fill="none" stroke-width="1.0667"/>
        <rect x="170.67" y="717.19" width="42.667" height="42.667" fill="none" stroke-width="1.0667"/>
        <rect x="256" y="546.52" width="42.667" height="42.667" fill="none" stroke-width="1.0667"/>
        <rect x="256" y="631.85" width="42.667" height="42.667" fill="none" stroke-width="1.0667"/>
        <rect x="256" y="674.52" width="42.667" height="42.667" fill="none" stroke-width="1.0667"/>
        <rect x="256" y="589.19" width="42.667" height="42.667" fill="none" stroke-width="1.0667"/>
        <rect x="256" y="717.19" width="42.667" height="42.667" fill="none" stroke-width="1.0667"/>
        <rect x="128" y="759.85" width="42.667" height="42.667" fill="none" stroke-width="1.0667"/>
        <rect x="213.33" y="759.85" width="42.667" height="42.667" fill="none" stroke-width="1.0667"/>
        <rect x="298.67" y="759.85" width="42.667" height="42.667" fill="none" stroke-width="1.0667"/>
        <rect x="170.67" y="759.85" width="42.667" height="42.667" fill="none" stroke-width="1.0667"/>
        <rect x="256" y="759.85" width="42.667" height="42.667" fill="none" stroke-width="1.0667"/>
        <rect x="341.33" y="589.19" width="42.667" height="42.667" fill="none" stroke-width="1.0667"/>
        <rect x="341.33" y="631.85" width="42.667" height="42.667" fill="none" stroke-width="1.0667"/>
        <rect x="341.33" y="717.19" width="42.667" height="42.667" fill="none" stroke-width="1.0667"/>
        <rect x="341.33" y="546.52" width="42.667" height="42.667" fill="none" stroke-width="1.0667"/>
        <rect x="341.33" y="674.52" width="42.667" height="42.667" fill="none" stroke-width="1.0667"/>
        <rect x="341.33" y="759.85" width="42.667" height="42.667" fill="none" stroke-width="1.0667"/>
        <rect x="160" y="578.52" width="192" height="192" fill="none" stroke-width="1.0667"/>
        <g transform="matrix(.37344 0 0 .37344 4.7333 1097.4)">
            <path d="m0 0h51.2v51.2h-51.2z" fill="none" stroke-width="1.0667"/>
        </g>
        <g transform="matrix(.36471 0 0 .36471 5.1356 1097.4)">
            <path d="m0 0h51.2v51.2h-51.2z" fill="none" stroke-width="1.0667"/>
        </g>
        <g transform="matrix(.41585 0 0 .41585 84.325 1055.9)">
            <g transform="matrix(.062269 0 0 .062269 -28.238 185.29)">
                <g transform="matrix(38.618 0 0 38.618 14724 -13542)">
                    <g transform="matrix(.71436 0 0 .71436 -400.52 188.34)">
                        <path d="m1293.2-120.67c-181.75 0.2763-511.18 0.13525-699.05 0.13998-2.3216 10.413-3.593 21.251-3.593 32.384v114c207.65 0.73695 494.72 0.38136 706.23 0.3733v-114.37c0-11.18-1.2522-22.07-3.593-32.523zm-458.69 295.56c-78.385-4e-3 -158.85 0.17892-243.95 0.55995v138.63c286.34-0.39317 421.73-0.13827 706.23-0.32664v-137.75c-163.2-0.53005-311.22-1.1113-462.28-1.1199z" opacity="0" stroke-width="1.4932"/>
                    </g>
                </g>
            </g>
        </g>
        <path d="m24.549 1119.5c0.66325 0 1.1979-0.5346 1.1979-1.1979v-0.3333c0 0.6632-0.53461 1.1978-1.1979 1.1978h-20.354c-0.66325 0-1.1979-0.5346-1.1979-1.1978v0.3333c0 0.6633 0.53461 1.1979 1.1979 1.1979z" fill="#232323" opacity=".2"/>
    </g>
    <flowRoot fill="#232323" font-family="Roboto" font-size="4px" letter-spacing="0px" stroke-width="1.0667px" word-spacing="0px" style="line-height:125%" xml:space="preserve"><flowRegion><rect x="11.375" y="11.984" width="4.7893" height="5.388" stroke-width="1.1378px"/></flowRegion><flowPara>your</flowPara></flowRoot>
    <g transform="matrix(.31589 0 0 .31589 10.062 11.394)">
        <g transform="matrix(.8172 0 0 .8172 1.9034 -2.3134)" fill="none" stroke="#fff" stroke-opacity=".93953" stroke-width="4.2379">
            <g fill="none" stroke="#fff" stroke-linecap="square" stroke-opacity=".93953" stroke-width="4.2379">
                <path d="m-9.6622 0.49721c-1.0825 1.8749-1.1352 4.1082-0.5513 6.24 0.58393 2.1319 1.7713 4.271 3.4112 6.4236 3.2798 4.3052 8.4168 8.6754 14.755 12.335 6.3379 3.6592 12.689 5.922 18.058 6.6097 2.6842 0.34388 5.1304 0.30261 7.2686-0.25762 2.1382-0.56023 4.0476-1.7216 5.1301-3.5965 1.0825-1.8749 1.1345-4.1109 0.55059-6.2427-0.58393-2.1319-1.7723-4.2693-3.4122-6.4219-3.2798-4.3052-8.4152-8.6744-14.753-12.334-6.3379-3.6592-12.691-5.9229-18.059-6.6107-2.6842-0.34388-5.1295-0.3043-7.2677 0.25593-2.1382 0.56023-4.0469 1.7242-5.1294 3.5992zm3.6688 2.1182c0.39806-0.68945 1.1434-1.2526 2.5349-1.6172s3.3514-0.44921 5.655-0.15409c4.6072 0.59025 10.557 2.6578 16.48 6.0775 5.9231 3.4197 10.687 7.5373 13.501 11.232 1.4074 1.8474 2.314 3.587 2.694 4.9744 0.38001 1.3874 0.26501 2.3144-0.13305 3.0039-0.39806 0.68945-1.1424 1.2509-2.5339 1.6155-1.3915 0.36459-3.3514 0.44921-5.655 0.15409-4.6072-0.59025-10.555-2.6568-16.478-6.0765-5.9231-3.4197-10.688-7.5383-13.503-11.233-1.4074-1.8474-2.314-3.587-2.694-4.9744-0.38001-1.3874-0.26598-2.3127 0.13207-3.0022zm44.403-2.119c-1.0825-1.8749-2.9928-3.038-5.1311-3.5982-2.1382-0.56023-4.5835-0.59981-7.2677-0.25593-5.3683 0.68777-11.72 2.9505-18.058 6.6097-6.3379 3.6592-11.475 8.0294-14.755 12.335-1.6399 2.1526-2.8283 4.2901-3.4122 6.4219-0.58393 2.1319-0.5302 4.3668 0.55228 6.2417 1.0825 1.8749 2.9902 3.0372 5.1284 3.5975 2.1382 0.56023 4.5845 0.6015 7.2686 0.25762 5.3683-0.68776 11.722-2.9515 18.059-6.6107 6.3379-3.6592 11.473-8.0284 14.753-12.334 1.6399-2.1526 2.8273-4.2918 3.4112-6.4236 0.58393-2.1319 0.53287-4.3661-0.54961-6.241zm-3.6705 2.1191c0.39806 0.68945 0.51208 1.6148 0.13207 3.0022-0.38001 1.3874-1.2867 3.127-2.694 4.9744-2.8147 3.6948-7.5783 7.8124-13.501 11.232-5.9231 3.4197-11.872 5.4872-16.48 6.0775-2.3036 0.29512-4.2635 0.2105-5.655-0.15409-1.3915-0.36459-2.1359-0.92602-2.5339-1.6155-0.39806-0.68946-0.51306-1.6165-0.13305-3.0039 0.38001-1.3874 1.2867-3.127 2.694-4.9744 2.8147-3.6948 7.58-7.8134 13.503-11.233 5.9231-3.4197 11.871-5.4863 16.478-6.0765 2.3036-0.29512 4.2635-0.21049 5.655 0.15409 1.3915 0.36459 2.1369 0.92771 2.5349 1.6172zm-20.366-15.996c-2.165 0-4.1254 1.071-5.6797 2.6426-1.5543 1.5716-2.8131 3.6695-3.8574 6.166-2.0886 4.993-3.3047 11.627-3.3047 18.945 0 7.3184 1.2161 13.95 3.3047 18.943 1.0443 2.4965 2.3031 4.5963 3.8574 6.168 1.5543 1.5716 3.5147 2.6426 5.6797 2.6426 2.165 0 4.1254-1.071 5.6797-2.6426 1.5543-1.5716 2.8131-3.6715 3.8574-6.168 2.0886-4.993 3.3047-11.625 3.3047-18.943 0-7.3184-1.2161-13.952-3.3047-18.945-1.0443-2.4965-2.3031-4.5944-3.8574-6.166-1.5543-1.5716-3.5147-2.6426-5.6797-2.6426zm0 4.2383c0.79611 0 1.6565 0.36199 2.668 1.3848 1.0115 1.0228 2.0628 2.6797 2.959 4.8223 1.7924 4.285 2.9766 10.469 2.9766 17.309 0 6.8394-1.1842 13.024-2.9766 17.309-0.89621 2.1425-1.9475 3.7995-2.959 4.8223-1.0115 1.0228-1.8719 1.3848-2.668 1.3848s-1.6565-0.36198-2.668-1.3848c-1.0115-1.0228-2.0628-2.6797-2.959-4.8223-1.7924-4.285-2.9766-10.469-2.9766-17.309 0-6.8394 1.1842-13.024 2.9766-17.309 0.89621-2.1425 1.9475-3.7995 2.959-4.8223s1.8719-1.3848 2.668-1.3848z" color="#000000" color-rendering="auto" dominant-baseline="auto" fill="#fff" image-rendering="auto" shape-rendering="auto" solid-color="#000000" stroke="none" style="font-feature-settings:normal;font-variant-alternates:normal;font-variant-caps:normal;font-variant-ligatures:normal;font-variant-numeric:normal;font-variant-position:normal;isolation:auto;mix-blend-mode:normal;shape-padding:0;text-decoration-color:#000000;text-decoration-line:none;text-decoration-style:solid;text-indent:0;text-orientation:mixed;text-transform:none;white-space:normal"/>
            </g>
        </g>
    </g>
    <g display="none" fill="none">
        <rect transform="rotate(90)" x="7.8232" y="-20.923" width="13.1" height="13.1" display="inline" stroke="#000" stroke-width=".070382"/>
        <rect x="7.2241" y="8.6528" width="14.298" height="11.441" stroke="#5261ff" stroke-linecap="round" stroke-linejoin="round" stroke-width=".06959"/>
        <rect transform="rotate(90)" x="7.2241" y="-20.094" width="14.298" height="11.441" display="inline" stroke="#0f0" stroke-linecap="round" stroke-linejoin="round" stroke-width=".06959"/>
    </g>
</svg>
