<?xml version="1.0" encoding="UTF-8"?>
<svg version="1.1" viewBox="0 0 28.747 28.747" xmlns="http://www.w3.org/2000/svg">
    <defs>
        <filter id="filter6206-7" color-interpolation-filters="sRGB">
            <feGaussianBlur stdDeviation="0.658125"/>
        </filter>
        <style>.cls-1{fill:#fff;}</style>
    </defs>
    <g transform="translate(0 -1093.8)">
        <path transform="matrix(1.0781 0 0 1.0641 -.093733 2.7509)" d="m4.4177 1028.2v1.6051h-1.6052v18.192h1.6052v2.1402h18.192v-2.1402h2.1402v-18.192h-2.1402v-1.6051z" fill="#232323" filter="url(#filter6206-7)" opacity=".2"/>
        <rect x="2.9987" y="1096.8" width="22.749" height="22.749" rx="1.1973" ry="1.1974" fill="#232323"/>
        <g transform="translate(-22.32 1056.5)">
            <path d="m0 0h51.2v51.2h-51.2z" fill="none" stroke-width="1.0667"/>
            <g transform="matrix(.33601 0 0 .33601 1.5296 73.043)">
                <path d="m0 0h51.2v51.2h-51.2z" fill="none" stroke-width="1.0667"/>
            </g>
            <g transform="matrix(.37187 0 0 .37187 38.802 63.239)">
                <path d="m0 0h51.2v51.2h-51.2z" fill="none" stroke-width="1.0667"/>
                <g transform="matrix(2.6891 0 0 2.6891 -82.906 -48.45)">
                    <path d="m0 0h51.2v51.2h-51.2z" fill="none" stroke-width="1.0667"/>
                </g>
            </g>
        </g>
        <path d="m4.1958 1096.8c-0.66332 0-1.1979 0.5346-1.1979 1.1979v0.3334c0-0.6634 0.53459-1.1979 1.1979-1.1979h20.354c0.66332 0 1.1979 0.5345 1.1979 1.1979v-0.3334c0-0.6633-0.5346-1.1979-1.1979-1.1979z" fill="#fff" opacity=".2"/>
        <rect x="128" y="546.52" width="42.667" height="42.667" fill="none" stroke-width="1.0667"/>
        <rect x="128" y="631.85" width="42.667" height="42.667" fill="none" stroke-width="1.0667"/>
        <rect x="128" y="674.52" width="42.667" height="42.667" fill="none" stroke-width="1.0667"/>
        <rect x="128" y="589.19" width="42.667" height="42.667" fill="none" stroke-width="1.0667"/>
        <rect x="128" y="717.19" width="42.667" height="42.667" fill="none" stroke-width="1.0667"/>
        <rect x="213.33" y="546.52" width="42.667" height="42.667" fill="none" stroke-width="1.0667"/>
        <rect x="213.33" y="631.85" width="42.667" height="42.667" fill="none" stroke-width="1.0667"/>
        <rect x="213.33" y="674.52" width="42.667" height="42.667" fill="none" stroke-width="1.0667"/>
        <rect x="213.33" y="589.19" width="42.667" height="42.667" fill="none" stroke-width="1.0667"/>
        <rect x="213.33" y="717.19" width="42.667" height="42.667" fill="none" stroke-width="1.0667"/>
        <rect x="298.67" y="546.52" width="42.667" height="42.667" fill="none" stroke-width="1.0667"/>
        <rect x="298.67" y="631.85" width="42.667" height="42.667" fill="none" stroke-width="1.0667"/>
        <rect x="298.67" y="674.52" width="42.667" height="42.667" fill="none" stroke-width="1.0667"/>
        <rect x="298.67" y="589.19" width="42.667" height="42.667" fill="none" stroke-width="1.0667"/>
        <rect x="298.67" y="717.19" width="42.667" height="42.667" fill="none" stroke-width="1.0667"/>
        <rect x="170.67" y="546.52" width="42.667" height="42.667" fill="none" stroke-width="1.0667"/>
        <rect x="170.67" y="631.85" width="42.667" height="42.667" fill="none" stroke-width="1.0667"/>
        <rect x="170.67" y="674.52" width="42.667" height="42.667" fill="none" stroke-width="1.0667"/>
        <rect x="170.67" y="589.19" width="42.667" height="42.667" fill="none" stroke-width="1.0667"/>
        <rect x="170.67" y="717.19" width="42.667" height="42.667" fill="none" stroke-width="1.0667"/>
        <rect x="256" y="546.52" width="42.667" height="42.667" fill="none" stroke-width="1.0667"/>
        <rect x="256" y="631.85" width="42.667" height="42.667" fill="none" stroke-width="1.0667"/>
        <rect x="256" y="674.52" width="42.667" height="42.667" fill="none" stroke-width="1.0667"/>
        <rect x="256" y="589.19" width="42.667" height="42.667" fill="none" stroke-width="1.0667"/>
        <rect x="256" y="717.19" width="42.667" height="42.667" fill="none" stroke-width="1.0667"/>
        <rect x="128" y="759.85" width="42.667" height="42.667" fill="none" stroke-width="1.0667"/>
        <rect x="213.33" y="759.85" width="42.667" height="42.667" fill="none" stroke-width="1.0667"/>
        <rect x="298.67" y="759.85" width="42.667" height="42.667" fill="none" stroke-width="1.0667"/>
        <rect x="170.67" y="759.85" width="42.667" height="42.667" fill="none" stroke-width="1.0667"/>
        <rect x="256" y="759.85" width="42.667" height="42.667" fill="none" stroke-width="1.0667"/>
        <rect x="341.33" y="589.19" width="42.667" height="42.667" fill="none" stroke-width="1.0667"/>
        <rect x="341.33" y="631.85" width="42.667" height="42.667" fill="none" stroke-width="1.0667"/>
        <rect x="341.33" y="717.19" width="42.667" height="42.667" fill="none" stroke-width="1.0667"/>
        <rect x="341.33" y="546.52" width="42.667" height="42.667" fill="none" stroke-width="1.0667"/>
        <rect x="341.33" y="674.52" width="42.667" height="42.667" fill="none" stroke-width="1.0667"/>
        <rect x="341.33" y="759.85" width="42.667" height="42.667" fill="none" stroke-width="1.0667"/>
        <rect x="160" y="578.52" width="192" height="192" fill="none" stroke-width="1.0667"/>
        <g transform="matrix(.37344 0 0 .37344 4.7333 1097.4)">
            <path d="m0 0h51.2v51.2h-51.2z" fill="none" stroke-width="1.0667"/>
        </g>
        <g transform="matrix(.36471 0 0 .36471 5.1356 1097.4)">
            <path d="m0 0h51.2v51.2h-51.2z" fill="none" stroke-width="1.0667"/>
        </g>
        <g transform="matrix(.41585 0 0 .41585 84.325 1055.9)">
            <g transform="matrix(.062269 0 0 .062269 -28.238 185.29)">
                <g transform="matrix(38.618 0 0 38.618 14724 -13542)">
                    <g transform="matrix(.71436 0 0 .71436 -400.52 188.34)">
                        <path d="m1293.2-120.67c-181.75 0.2763-511.18 0.13525-699.05 0.13998-2.3216 10.413-3.593 21.251-3.593 32.384v114c207.65 0.73695 494.72 0.38136 706.23 0.3733v-114.37c0-11.18-1.2522-22.07-3.593-32.523zm-458.69 295.56c-78.385-4e-3 -158.85 0.17892-243.95 0.55995v138.63c286.34-0.39317 421.73-0.13827 706.23-0.32664v-137.75c-163.2-0.53005-311.22-1.1113-462.28-1.1199z" opacity="0" stroke-width="1.4932"/>
                    </g>
                </g>
            </g>
        </g>
        <path d="m24.549 1119.5c0.66325 0 1.1979-0.5346 1.1979-1.1979v-0.3333c0 0.6632-0.53461 1.1978-1.1979 1.1978h-20.354c-0.66325 0-1.1979-0.5346-1.1979-1.1978v0.3333c0 0.6633 0.53461 1.1979 1.1979 1.1979z" fill="#232323" opacity=".2"/>
    </g>
    <g transform="matrix(.96664 0 0 .96664 9.6722 29.626)" fill="#fff" stroke-width="1.0345">
        <path d="m1.5385-21.457c-0.06455-0.0044-0.13077 0.0024-0.19141 0.02148-1.1452 0.36051-1.9824 1.2782-2.5684 2.1797-0.586 0.90148-0.92245 1.7896-1.041 2.2148-0.17933 0.64318-0.50289 1.8369-0.00586 2.9199 0.23489 0.51177 0.65078 0.89094 1.0469 1.166 0.3961 0.27508 0.76172 0.44156 1.002 0.51172 0.30655 0.08952 0.62111 0.02641 0.84961-0.12305 0.02915-0.01907 0.047329-0.04728 0.074219-0.06836-0.010213-0.15155-0.017614-0.31097-0.025391-0.46289 8.66e-4 -0.0011 0.00109-0.0028 0.00195-0.0039-0.0146-0.20456-0.02432-0.42255-0.039062-0.63281-0.00255-0.03632-0.00334-0.07294-0.00586-0.10938-0.033782-0.48826-0.072-0.9762-0.089843-1.4648-0.05548-1.5193-0.03384-2.9424 0.59766-3.8125a0.35 0.35 0 0 1 0.25391-0.14453 0.35 0.35 0 0 1 0.23438 0.06641 0.35 0.35 0 0 1 0.078125 0.48828c-0.39387 0.54268-0.51892 1.8962-0.46484 3.377 0.00467 0.128 0.014905 0.25903 0.023437 0.38867 0.00148 0.02995 0.0043 0.0599 0.00586 0.08984 0.00813 0.11945 0.014204 0.23751 0.021485 0.35742 0.016092 0.26622 0.03174 0.53231 0.050781 0.79883 0.22631 0.39968 0.46816 0.88931 0.42383 1.3848-0.06178 0.69048 0.45238 1.2452 1.0605 1.625 0.60464 0.37762 1.3508 0.60953 2.0312 0.58789 0.68042 0.02164 1.4262-0.21032 2.0312-0.58789 0.60862-0.37977 1.1243-0.93429 1.0625-1.625-0.03304-0.36922 0.10402-0.72211 0.26367-1.0508 0.022848-0.31503 0.040069-0.63456 0.058594-0.95312 0.011733-0.18296 0.021214-0.36321 0.033203-0.54492 0.010356-0.15698 0.023633-0.31568 0.029297-0.4707 0.05408-1.4808-0.07097-2.8343-0.46484-3.377a0.35 0.35 0 0 1 0.078125-0.48828 0.35 0.35 0 0 1 0.1875-0.06641 0.35 0.35 0 0 1 0.30078 0.14453c0.6315 0.87009 0.65314 2.2932 0.59766 3.8125-0.00638 0.17459-0.021773 0.34785-0.03125 0.52344-0.026948 0.49932-0.056997 1.0021-0.091797 1.4883 7.01e-4 0.0013 0.00125 0.0026 0.00195 0.0039-0.011195 0.17627-0.01934 0.36436-0.03125 0.53711 0.06469 0.06739 0.12745 0.13618 0.20898 0.18945 0.22862 0.14936 0.54303 0.21258 0.84961 0.12305 0.24023-0.07016 0.60586-0.23664 1.002-0.51172 0.3961-0.27508 0.81199-0.65424 1.0469-1.166 0.49724-1.0834 0.17133-2.2774-0.0078-2.9199-0.11857-0.42525-0.45501-1.3134-1.041-2.2148-0.586-0.90148-1.4232-1.8192-2.5684-2.1797-0.12122-0.03816-0.26654-0.02491-0.37109 0.02148-0.10455 0.0464-0.1752 0.11217-0.23047 0.17383-0.11054 0.12332-0.17541 0.24844-0.24024 0.35547-0.05757 0.09505-0.10631 0.15845-0.13476 0.18945-0.60593-0.2296-0.97708-0.39726-1.3203-0.50976-0.35793-0.11732-0.70262-0.16992-1.2188-0.16992s-0.85934 0.05258-1.2168 0.16992c-0.34279 0.11253-0.71448 0.28018-1.3203 0.50976-0.02864-0.03107-0.07693-0.09627-0.13477-0.19141-0.06507-0.10704-0.13148-0.23228-0.24219-0.35547-0.055349-0.06159-0.12596-0.12556-0.23047-0.17188-0.05225-0.02316-0.11514-0.03862-0.17969-0.04297zm1.334 3.8887a0.60231 0.60231 0 0 1 0.035156 0 0.60231 0.60231 0 0 1 0.60156 0.60352 0.60231 0.60231 0 0 1-0.60156 0.60156 0.60231 0.60231 0 0 1-0.60352-0.60156 0.60231 0.60231 0 0 1 0.56836-0.60352zm3.7734 0a0.60231 0.60231 0 0 1 0.033203 0 0.60231 0.60231 0 0 1 0.60352 0.60352 0.60231 0.60231 0 0 1-0.60352 0.60156 0.60231 0.60231 0 0 1-0.60156-0.60156 0.60231 0.60231 0 0 1 0.56836-0.60352zm-1.7852 2.7598c0.53504 0 0.90301 0.06042 1.1797 0.21094 0.13834 0.07526 0.26414 0.18306 0.32812 0.3457s0.033072 0.35658-0.042968 0.48828c-0.49291 0.85375-0.96795 1.121-1.3125 1.1797a0.35 0.35 0 0 1 0.017578 0.01758 0.35 0.35 0 0 1 0.00586 0.0078c0.30779 0.36674 0.56222 0.50131 0.85156 0.54492 0.28935 0.04361 0.64576-0.02168 1.1016-0.16797a0.35 0.35 0 0 1 0.25781 0.01758c-0.026209 0.23908-0.23878 0.53182-0.60352 0.79102-0.29076 0.0598-0.5771 0.09362-0.86133 0.05078-0.3591-0.05412-0.69969-0.22493-1.0137-0.50976-0.31425 0.28537-0.65616 0.45558-1.0156 0.50976-0.20096 0.03029-0.40189 0.02463-0.60547-2e-3 -0.42325-0.28049-0.66099-0.61253-0.67188-0.87109a0.35 0.35 0 0 1 0.070313 0.01367c0.4558 0.14629 0.81417 0.21158 1.1035 0.16797 0.28935-0.04361 0.54182-0.17818 0.84961-0.54492a0.35 0.35 0 0 1 0.00781-0.0078 0.35 0.35 0 0 1 0.029297-0.0293 0.35 0.35 0 0 1 0.00586-0.0059 0.35 0.35 0 0 1 0.013672-0.01172c-0.32691-0.11235-0.7414-0.4217-1.1621-1.1504-0.07621-0.132-0.10741-0.32769-0.042969-0.49023 0.06444-0.16254 0.19163-0.27058 0.33008-0.3457 0.2769-0.15024 0.64465-0.20898 1.1797-0.20898zm0 0.69922c-0.41477 0-0.62452 0.06216-0.74414 0.10938 0.40114 0.54668 0.79824 0.74414 0.74414 0.74414-0.05416 0 0.34267-0.19548 0.74414-0.74414-0.11858-0.04709-0.32844-0.10938-0.74414-0.10938z" color="#000000" color-rendering="auto" dominant-baseline="auto" fill="#fff" image-rendering="auto" shape-rendering="auto" solid-color="#000000" stop-color="#000000" style="font-feature-settings:normal;font-variant-alternates:normal;font-variant-caps:normal;font-variant-east-asian:normal;font-variant-ligatures:normal;font-variant-numeric:normal;font-variant-position:normal;font-variation-settings:normal;inline-size:0;isolation:auto;mix-blend-mode:normal;shape-margin:0;shape-padding:0;text-decoration-color:#000000;text-decoration-line:none;text-decoration-style:solid;text-indent:0;text-orientation:mixed;text-transform:none;white-space:normal"/>
    </g>
    <path d="m40.719-11.281c-1.1452 0.36051-1.9824 1.2782-2.5684 2.1797-0.586 0.90148-0.92245 1.7896-1.041 2.2148-0.17933 0.64318-0.50293 1.8369-0.0059 2.9199 0.23489 0.51177 0.65078 0.89094 1.0469 1.166 0.3961 0.27508 0.76172 0.44156 1.002 0.51172 0.30655 0.089525 0.62111 0.026413 0.84961-0.12305 0.22854-0.14946 0.38571-0.36444 0.50199-0.58789 0.09893-0.19011 0.15368-0.38779 0.19727-0.58008 0.23138 0.40526 0.48694 0.91106 0.44141 1.4199-0.06178 0.69048 0.45238 1.2452 1.0605 1.625 0.60464 0.37762 1.3508 0.60953 2.0312 0.58789 0.68042 0.021643 1.4262-0.21033 2.0312-0.58789 0.60862-0.37977 1.1243-0.93429 1.0625-1.625-0.04554-0.50899 0.21036-1.0146 0.44141-1.4199 0.04379 0.1923 0.0981 0.39 0.19727 0.58008 0.11656 0.22342 0.27333 0.43853 0.50195 0.58789 0.22862 0.14937 0.54303 0.21258 0.84961 0.12305 0.24023-0.070156 0.60586-0.23664 1.002-0.51172 0.3961-0.27508 0.81199-0.65424 1.0469-1.166 0.49724-1.0834 0.17134-2.2774-0.0078-2.9199-0.11857-0.42525-0.45501-1.3134-1.041-2.2148-0.58602-0.90148-1.4232-1.8192-2.5684-2.1797-0.12122-0.03816-0.26654-0.02491-0.37109 0.02148-0.10455 0.0464-0.1752 0.11217-0.23047 0.17383-0.11054 0.12332-0.17541 0.24844-0.24024 0.35547-0.05757 0.09505-0.10631 0.15845-0.13476 0.18945-0.60593-0.2296-0.97708-0.39726-1.3203-0.50976-0.35793-0.11732-0.70262-0.16992-1.2188-0.16992s-0.85934 0.05258-1.2168 0.16992c-0.34279 0.11253-0.71448 0.28018-1.3203 0.50976-0.02864-0.03107-0.07693-0.09627-0.13477-0.19141-0.06507-0.10704-0.13148-0.23228-0.24219-0.35547-0.05535-0.06159-0.12596-0.12556-0.23047-0.17188-0.10451-0.04631-0.24983-0.05966-0.37109-0.02148zm0.11914 0.72266c0.03412 0.04796 0.0712 0.1029 0.125 0.19141 0.07076 0.1164 0.14912 0.2504 0.28711 0.37305s0.40839 0.21648 0.63672 0.13086c0.67315-0.25243 1.0492-0.42352 1.3477-0.52148 0.29844-0.09797 0.52668-0.13672 1-0.13672s0.70106 0.03873 1 0.13672 0.67652 0.26908 1.3496 0.52148c0.22824 0.085591 0.49886-0.00805 0.63672-0.13086s0.21465-0.25859 0.28516-0.375c0.05352-0.08836 0.09104-0.14152 0.125-0.18945 0.86305 0.31012 1.583 1.0432 2.0996 1.8379 0.53647 0.82528 0.86115 1.6916 0.95312 2.0215 0.17369 0.62295 0.40824 1.6521 0.04687 2.4395-0.1556 0.33902-0.47658 0.65224-0.80859 0.88281s-0.68572 0.38298-0.79883 0.41602c-0.12407 0.036234-0.18472 0.019575-0.27148-0.037109s-0.18514-0.1737-0.26367-0.32422-0.13729-0.33069-0.16602-0.48633-0.01732-0.29742-0.01367-0.31055c0.04033-0.14501 0.08162-0.25813 0.01367-0.44727-0.03397-0.094569-0.13635-0.21547-0.25977-0.25586-0.12342-0.040389-0.22294-0.015926-0.29297 0.00977-0.14005 0.051383-0.21962 0.12544-0.31055 0.21484-0.09093 0.089404-0.18142 0.19748-0.27148 0.32422-0.36026 0.50697-0.73161 1.3117-0.6543 2.1758 0.02466 0.27562-0.24584 0.66148-0.73828 0.96875s-1.1576 0.50414-1.6484 0.48633h-0.02344c-0.4908 0.017812-1.1565-0.17911-1.6484-0.48633-0.49192-0.30722-0.76101-0.6929-0.73633-0.96875 0.07733-0.86424-0.29348-1.6688-0.6543-2.1758-0.0902-0.12674-0.18042-0.23483-0.27148-0.32422-0.09106-0.089393-0.17245-0.16355-0.3125-0.21484-0.07002-0.025645-0.16969-0.050021-0.29297-0.00977-0.12328 0.040256-0.2237 0.16123-0.25781 0.25586-0.06822 0.18925-0.02863 0.3022 0.01172 0.44727 0.0037 0.013359 0.01491 0.15488-0.01367 0.31055s-0.08575 0.33584-0.16406 0.48633c-0.07831 0.15048-0.17716 0.26763-0.26367 0.32422-0.08652 0.056589-0.14738 0.073353-0.27148 0.037109-0.11311-0.033031-0.46682-0.18545-0.79883-0.41602s-0.65299-0.54379-0.80859-0.88281c-0.36154-0.78772-0.12859-1.8171 0.04492-2.4395 0.09197-0.32985 0.41665-1.1962 0.95312-2.0215 0.51661-0.79473 1.2366-1.5278 2.0996-1.8379z" color="#000000" color-rendering="auto" dominant-baseline="auto" fill="none" image-rendering="auto" shape-rendering="auto" solid-color="#000000" stop-color="#000000" style="font-feature-settings:normal;font-variant-alternates:normal;font-variant-caps:normal;font-variant-east-asian:normal;font-variant-ligatures:normal;font-variant-numeric:normal;font-variant-position:normal;font-variation-settings:normal;inline-size:0;isolation:auto;mix-blend-mode:normal;shape-margin:0;shape-padding:0;text-decoration-color:#000000;text-decoration-line:none;text-decoration-style:solid;text-indent:0;text-orientation:mixed;text-transform:none;white-space:normal"/>
    <g display="none" fill="none">
        <rect transform="rotate(90)" x="7.8232" y="-20.923" width="13.1" height="13.1" display="inline" stroke="#000" stroke-width=".070382"/>
        <rect x="7.2241" y="8.6528" width="14.298" height="11.441" stroke="#5261ff" stroke-linecap="round" stroke-linejoin="round" stroke-width=".06959"/>
        <rect transform="rotate(90)" x="7.2241" y="-20.094" width="14.298" height="11.441" display="inline" stroke="#0f0" stroke-linecap="round" stroke-linejoin="round" stroke-width=".06959"/>
    </g>
</svg>
