<?xml version="1.0" encoding="UTF-8"?>
<svg version="1.1" viewBox="0 0 26.95 26.95" xmlns="http://www.w3.org/2000/svg">
    <defs>
        <filter id="filter6206-7" color-interpolation-filters="sRGB">
            <feGaussianBlur stdDeviation="0.658125"/>
        </filter>
    </defs>
    <g transform="translate(0 -1025.4)">
        <path transform="matrix(1.0107 0 0 .99762 -.087875 2.579)" d="m4.4177 1028.2v1.6051h-1.6052v18.192h1.6052v2.1402h18.192v-2.1402h2.1402v-18.192h-2.1402v-1.6051h-18.192z" fill="#232323" filter="url(#filter6206-7)" opacity=".2"/>
        <rect x="2.8113" y="1028.2" width="21.327" height="21.327" rx="1.1225" ry="1.1226" fill="#232323"/>
        <g transform="translate(-20.925 990.46)">
            <path d="m0 0h48v48h-48z" fill="none"/>
            <g transform="matrix(.33601 0 0 .33601 1.434 68.477)">
                <path d="m0 0h48v48h-48z" fill="none"/>
            </g>
            <g transform="matrix(.37187 0 0 .37187 36.377 59.287)">
                <path d="m0 0h48v48h-48z" fill="none"/>
                <g transform="matrix(2.6891 0 0 2.6891 -77.724 -45.422)">
                    <path d="m0 0h48v48h-48z" fill="none"/>
                </g>
            </g>
        </g>
        <path transform="translate(0 1025.4)" d="m3.9336 2.8105c-0.62186 0-1.123 0.50115-1.123 1.123v0.3125c0-0.6219 0.50118-1.123 1.123-1.123h19.082c0.62186 0 1.123 0.50115 1.123 1.123v-0.3125c0-0.6219-0.50118-1.123-1.123-1.123h-19.082z" fill="#fff" opacity=".2"/>
        <rect x="120" y="512.36" width="40" height="40" fill="none"/>
        <rect x="120" y="592.36" width="40" height="40" fill="none"/>
        <rect x="120" y="632.36" width="40" height="40" fill="none"/>
        <rect x="120" y="552.36" width="40" height="40" fill="none"/>
        <rect x="120" y="672.36" width="40" height="40" fill="none"/>
        <rect x="200" y="512.36" width="40" height="40" fill="none"/>
        <rect x="200" y="592.36" width="40" height="40" fill="none"/>
        <rect x="200" y="632.36" width="40" height="40" fill="none"/>
        <rect x="200" y="552.36" width="40" height="40" fill="none"/>
        <rect x="200" y="672.36" width="40" height="40" fill="none"/>
        <rect x="280" y="512.36" width="40" height="40" fill="none"/>
        <rect x="280" y="592.36" width="40" height="40" fill="none"/>
        <rect x="280" y="632.36" width="40" height="40" fill="none"/>
        <rect x="280" y="552.36" width="40" height="40" fill="none"/>
        <rect x="280" y="672.36" width="40" height="40" fill="none"/>
        <rect x="160" y="512.36" width="40" height="40" fill="none"/>
        <rect x="160" y="592.36" width="40" height="40" fill="none"/>
        <rect x="160" y="632.36" width="40" height="40" fill="none"/>
        <rect x="160" y="552.36" width="40" height="40" fill="none"/>
        <rect x="160" y="672.36" width="40" height="40" fill="none"/>
        <rect x="240" y="512.36" width="40" height="40" fill="none"/>
        <rect x="240" y="592.36" width="40" height="40" fill="none"/>
        <rect x="240" y="632.36" width="40" height="40" fill="none"/>
        <rect x="240" y="552.36" width="40" height="40" fill="none"/>
        <rect x="240" y="672.36" width="40" height="40" fill="none"/>
        <rect x="120" y="712.36" width="40" height="40" fill="none"/>
        <rect x="200" y="712.36" width="40" height="40" fill="none"/>
        <rect x="280" y="712.36" width="40" height="40" fill="none"/>
        <rect x="160" y="712.36" width="40" height="40" fill="none"/>
        <rect x="240" y="712.36" width="40" height="40" fill="none"/>
        <rect x="320" y="552.36" width="40" height="40" fill="none"/>
        <rect x="320" y="592.36" width="40" height="40" fill="none"/>
        <rect x="320" y="672.36" width="40" height="40" fill="none"/>
        <rect x="320" y="512.36" width="40" height="40" fill="none"/>
        <rect x="320" y="632.36" width="40" height="40" fill="none"/>
        <rect x="320" y="712.36" width="40" height="40" fill="none"/>
        <rect x="150" y="542.36" width="180" height="180" fill="none"/>
        <g transform="matrix(.37344 0 0 .37344 4.4375 1028.8)">
            <path d="m0 0h48v48h-48z" fill="none"/>
        </g>
        <g transform="matrix(.36471 0 0 .36471 4.8146 1028.8)">
            <path d="m0 0h48v48h-48z" fill="none"/>
        </g>
        <g transform="matrix(.41585 0 0 .41585 79.055 989.88)">
            <g transform="matrix(.062269 0 0 .062269 -26.473 173.71)">
                <g transform="matrix(38.618 0 0 38.618 13804 -12696)">
                    <g transform="matrix(.71436 0 0 .71436 -375.49 176.57)">
                        <path transform="matrix(1.3999 0 0 1.3999 525.63 -247.17)" d="m490.56 95.75c-121.72 0.18504-342.34 0.090577-468.16 0.09375-1.5548 6.9739-2.4062 14.232-2.4062 21.688v76.344c139.06 0.49354 331.32 0.2554 472.97 0.25v-76.594c0-7.4875-0.8386-14.78-2.4062-21.781zm-307.19 197.94c-52.495-3e-3 -106.38 0.11982-163.38 0.375v92.844c191.76-0.26331 282.43-0.0926 472.97-0.21875v-92.25c-109.29-0.35498-208.43-0.74426-309.59-0.75z" opacity="0"/>
                    </g>
                </g>
            </g>
        </g>
        <path d="m23.015 1049.6c0.6218 0 1.123-0.5012 1.123-1.123v-0.3125c0 0.6218-0.5012 1.123-1.123 1.123h-19.082c-0.6218 0-1.123-0.5012-1.123-1.123v0.3125c0 0.6218 0.5012 1.123 1.123 1.123h19.082z" fill="#232323" opacity=".2"/>
    </g>
    <path d="m12.777 6.5898c-0.3674 0.037268-0.58827 0.56783-0.94531 0.66211-0.35704 0.094282-0.81054-0.25835-1.1484-0.10938-0.3379 0.14898-0.38488 0.72187-0.69531 0.92188-0.31043 0.2-0.84968 0.0038995-1.125 0.25-0.27532 0.2461-0.14156 0.80566-0.375 1.0918s-0.80834 0.2668-0.99414 0.58594 0.11406 0.81003-0.019531 1.1543c-0.13359 0.34427-0.68558 0.5043-0.76367 0.86524s0.35856 0.73481 0.33789 1.1035c-0.020664 0.3687-0.49625 0.6912-0.45898 1.0586 0.037268 0.3674 0.56783 0.58827 0.66211 0.94531 0.094282 0.35704-0.25835 0.81054-0.10938 1.1484 0.14898 0.3379 0.72187 0.38293 0.92188 0.69336 0.2 0.31043 0.0038995 0.85163 0.25 1.127 0.2461 0.27532 0.80566 0.14156 1.0918 0.375s0.2668 0.80834 0.58594 0.99414 0.81003-0.11406 1.1543 0.019531c0.34427 0.13359 0.5043 0.68558 0.86524 0.76367s0.73481-0.35856 1.1035-0.33789c0.3687 0.020664 0.6912 0.49625 1.0586 0.45898 0.3674-0.037268 0.58827-0.56783 0.94531-0.66211 0.35704-0.094283 0.81054 0.25835 1.1484 0.10938 0.3379-0.14898 0.38293-0.72188 0.69336-0.92188s0.85163-0.005853 1.127-0.25195c0.27532-0.2461 0.14156-0.80566 0.375-1.0918s0.80834-0.2668 0.99414-0.58594-0.11406-0.81002 0.019531-1.1543c0.13359-0.34427 0.68558-0.50235 0.76367-0.86328s-0.35856-0.73481-0.33789-1.1035c0.020664-0.3687 0.49625-0.6912 0.45898-1.0586-0.037268-0.3674-0.56783-0.58827-0.66211-0.94531-0.094283-0.35704 0.25835-0.81054 0.10938-1.1484-0.14898-0.3379-0.72188-0.38488-0.92188-0.69531s-0.005853-0.84968-0.25195-1.125c-0.2461-0.27532-0.80566-0.14156-1.0918-0.375s-0.2668-0.80834-0.58594-0.99414-0.81002 0.11406-1.1543-0.019531c-0.34427-0.13359-0.50235-0.68558-0.86328-0.76367s-0.73481 0.35856-1.1035 0.33789c-0.3687-0.020664-0.6912-0.49625-1.0586-0.45898zm0.61719 1.6055c0.11188-0.020454-0.14188 0.61477-0.029297 0.63086 0.30518 0.043599 1.3605-0.43942 1.666-0.39844 0.11272 0.015119-0.32672 0.54171-0.22461 0.5918 0.27676 0.13577 1.4291 0.0033269 1.707 0.13672 0.10253 0.049212-0.47616 0.413-0.39453 0.49219 0.22126 0.21465 1.357 0.44546 1.5801 0.6582 0.082307 0.078488-0.58051 0.24516-0.52734 0.3457 0.1441 0.27252 1.1543 0.84396 1.3008 1.1152 0.054025 0.10008-0.62887 0.053967-0.60938 0.16602 0.052839 0.30371 0.83714 1.1577 0.89258 1.4609 0.020454 0.11188-0.61477-0.14188-0.63086-0.029297-0.043599 0.30518 0.43747 1.3605 0.39648 1.666-0.015119 0.11272-0.53975-0.32672-0.58984-0.22461-0.13577 0.27676-0.003327 1.4291-0.13672 1.707-0.049213 0.10253-0.41495-0.47616-0.49414-0.39453-0.21465 0.22126-0.4435 1.357-0.65625 1.5801-0.078488 0.082307-0.24712-0.58051-0.34766-0.52734-0.27252 0.1441-0.84201 1.1543-1.1133 1.3008-0.10008 0.054025-0.053967-0.62887-0.16602-0.60938-0.30371 0.052839-1.1596 0.83714-1.4629 0.89258-0.11188 0.020454 0.14384-0.61477 0.03125-0.63086-0.30518-0.043599-1.3605 0.43747-1.666 0.39648-0.11272-0.015119 0.32476-0.53975 0.22266-0.58984-0.27676-0.13577-1.4291-0.003327-1.707-0.13672-0.10253-0.049213 0.47812-0.41495 0.39648-0.49414-0.22126-0.21465-1.3589-0.4435-1.582-0.65625-0.082307-0.078488 0.58246-0.24712 0.5293-0.34766-0.1441-0.27252-1.1543-0.84201-1.3008-1.1133-0.054025-0.10008 0.62887-0.053967 0.60938-0.16602-0.052839-0.30371-0.83714-1.1596-0.89258-1.4629-0.020454-0.11188 0.61477 0.14384 0.63086 0.03125 0.043599-0.30518-0.43942-1.3605-0.39844-1.666 0.015119-0.11272 0.54171 0.32476 0.5918 0.22266 0.13577-0.27676 0.0033269-1.4291 0.13672-1.707 0.049212-0.10253 0.413 0.47812 0.49219 0.39648 0.21465-0.22126 0.44546-1.3589 0.6582-1.582 0.078488-0.082307 0.24516 0.58246 0.3457 0.5293 0.27252-0.1441 0.84396-1.1543 1.1152-1.3008 0.10008-0.054025 0.053967 0.62887 0.16602 0.60938 0.30371-0.052839 1.1577-0.83714 1.4609-0.89258zm0.097657 1.9395a0.56125 0.56125 0 0 0-0.5625 0.56055 0.56125 0.56125 0 0 0 0.5625 0.5625 0.56125 0.56125 0 0 0 0.56055-0.5625 0.56125 0.56125 0 0 0-0.56055-0.56055zm-0.017579 2.498a0.84188 0.84188 0 0 0-0.8418 0.8418 0.84188 0.84188 0 0 0 0.8418 0.8418 0.84188 0.84188 0 0 0 0.8418-0.8418 0.84188 0.84188 0 0 0-0.8418-0.8418zm-2.334 1.5898a0.56125 0.56125 0 0 0-0.56055 0.56055 0.56125 0.56125 0 0 0 0.56055 0.5625 0.56125 0.56125 0 0 0 0.56055-0.5625 0.56125 0.56125 0 0 0-0.56055-0.56055zm4.7207 0.066406a0.56125 0.56125 0 0 0-0.5625 0.56055 0.56125 0.56125 0 0 0 0.5625 0.5625 0.56125 0.56125 0 0 0 0.56055-0.5625 0.56125 0.56125 0 0 0-0.56055-0.56055z" fill="#fff"/>
    <g display="none" fill="none">
        <rect transform="rotate(90)" x="7.3342" y="-19.616" width="12.282" height="12.282" display="inline" stroke="#000" stroke-width=".065984"/>
        <rect x="6.7726" y="8.112" width="13.405" height="10.726" stroke="#5261ff" stroke-linecap="round" stroke-linejoin="round" stroke-width=".06524"/>
        <rect transform="rotate(90)" x="6.7726" y="-18.838" width="13.405" height="10.726" display="inline" stroke="#0f0" stroke-linecap="round" stroke-linejoin="round" stroke-width=".06524"/>
    </g>
</svg>
