<?xml version="1.0" encoding="UTF-8"?>
<svg version="1.1" viewBox="0 0 28.747 28.747" xmlns="http://www.w3.org/2000/svg">
    <defs>
        <filter id="filter6206-7" color-interpolation-filters="sRGB">
            <feGaussianBlur stdDeviation="0.658125"/>
        </filter>
    </defs>
    <g transform="translate(0 -1093.8)">
        <path transform="matrix(1.0781 0 0 1.0641 -.093733 2.7509)" d="m4.4177 1028.2v1.6051h-1.6052v18.192h1.6052v2.1402h18.192v-2.1402h2.1402v-18.192h-2.1402v-1.6051z" fill="#bf360c" filter="url(#filter6206-7)" opacity=".2"/>
        <rect x="2.9987" y="1096.8" width="22.749" height="22.749" rx="1.1973" ry="1.1974" fill="#424242"/>
        <g transform="translate(-22.32 1056.5)">
            <path d="m0 0h51.2v51.2h-51.2z" fill="none" stroke-width="1.0667"/>
            <g transform="matrix(.33601 0 0 .33601 1.5296 73.043)">
                <path d="m0 0h51.2v51.2h-51.2z" fill="none" stroke-width="1.0667"/>
            </g>
            <g transform="matrix(.37187 0 0 .37187 38.802 63.239)">
                <path d="m0 0h51.2v51.2h-51.2z" fill="none" stroke-width="1.0667"/>
                <g transform="matrix(2.6891 0 0 2.6891 -82.906 -48.45)">
                    <path d="m0 0h51.2v51.2h-51.2z" fill="none" stroke-width="1.0667"/>
                </g>
            </g>
        </g>
        <path d="m4.1958 1096.8c-0.66332 0-1.1979 0.5346-1.1979 1.1979v0.3334c0-0.6634 0.53459-1.1979 1.1979-1.1979h20.354c0.66332 0 1.1979 0.5345 1.1979 1.1979v-0.3334c0-0.6633-0.5346-1.1979-1.1979-1.1979z" fill="#fff" opacity=".2"/>
        <rect x="128" y="546.52" width="42.667" height="42.667" fill="none" stroke-width="1.0667"/>
        <rect x="128" y="631.85" width="42.667" height="42.667" fill="none" stroke-width="1.0667"/>
        <rect x="128" y="674.52" width="42.667" height="42.667" fill="none" stroke-width="1.0667"/>
        <rect x="128" y="589.19" width="42.667" height="42.667" fill="none" stroke-width="1.0667"/>
        <rect x="128" y="717.19" width="42.667" height="42.667" fill="none" stroke-width="1.0667"/>
        <rect x="213.33" y="546.52" width="42.667" height="42.667" fill="none" stroke-width="1.0667"/>
        <rect x="213.33" y="631.85" width="42.667" height="42.667" fill="none" stroke-width="1.0667"/>
        <rect x="213.33" y="674.52" width="42.667" height="42.667" fill="none" stroke-width="1.0667"/>
        <rect x="213.33" y="589.19" width="42.667" height="42.667" fill="none" stroke-width="1.0667"/>
        <rect x="213.33" y="717.19" width="42.667" height="42.667" fill="none" stroke-width="1.0667"/>
        <rect x="298.67" y="546.52" width="42.667" height="42.667" fill="none" stroke-width="1.0667"/>
        <rect x="298.67" y="631.85" width="42.667" height="42.667" fill="none" stroke-width="1.0667"/>
        <rect x="298.67" y="674.52" width="42.667" height="42.667" fill="none" stroke-width="1.0667"/>
        <rect x="298.67" y="589.19" width="42.667" height="42.667" fill="none" stroke-width="1.0667"/>
        <rect x="298.67" y="717.19" width="42.667" height="42.667" fill="none" stroke-width="1.0667"/>
        <rect x="170.67" y="546.52" width="42.667" height="42.667" fill="none" stroke-width="1.0667"/>
        <rect x="170.67" y="631.85" width="42.667" height="42.667" fill="none" stroke-width="1.0667"/>
        <rect x="170.67" y="674.52" width="42.667" height="42.667" fill="none" stroke-width="1.0667"/>
        <rect x="170.67" y="589.19" width="42.667" height="42.667" fill="none" stroke-width="1.0667"/>
        <rect x="170.67" y="717.19" width="42.667" height="42.667" fill="none" stroke-width="1.0667"/>
        <rect x="256" y="546.52" width="42.667" height="42.667" fill="none" stroke-width="1.0667"/>
        <rect x="256" y="631.85" width="42.667" height="42.667" fill="none" stroke-width="1.0667"/>
        <rect x="256" y="674.52" width="42.667" height="42.667" fill="none" stroke-width="1.0667"/>
        <rect x="256" y="589.19" width="42.667" height="42.667" fill="none" stroke-width="1.0667"/>
        <rect x="256" y="717.19" width="42.667" height="42.667" fill="none" stroke-width="1.0667"/>
        <rect x="128" y="759.85" width="42.667" height="42.667" fill="none" stroke-width="1.0667"/>
        <rect x="213.33" y="759.85" width="42.667" height="42.667" fill="none" stroke-width="1.0667"/>
        <rect x="298.67" y="759.85" width="42.667" height="42.667" fill="none" stroke-width="1.0667"/>
        <rect x="170.67" y="759.85" width="42.667" height="42.667" fill="none" stroke-width="1.0667"/>
        <rect x="256" y="759.85" width="42.667" height="42.667" fill="none" stroke-width="1.0667"/>
        <rect x="341.33" y="589.19" width="42.667" height="42.667" fill="none" stroke-width="1.0667"/>
        <rect x="341.33" y="631.85" width="42.667" height="42.667" fill="none" stroke-width="1.0667"/>
        <rect x="341.33" y="717.19" width="42.667" height="42.667" fill="none" stroke-width="1.0667"/>
        <rect x="341.33" y="546.52" width="42.667" height="42.667" fill="none" stroke-width="1.0667"/>
        <rect x="341.33" y="674.52" width="42.667" height="42.667" fill="none" stroke-width="1.0667"/>
        <rect x="341.33" y="759.85" width="42.667" height="42.667" fill="none" stroke-width="1.0667"/>
        <rect x="160" y="578.52" width="192" height="192" fill="none" stroke-width="1.0667"/>
        <g transform="matrix(.37344 0 0 .37344 4.7333 1097.4)">
            <path d="m0 0h51.2v51.2h-51.2z" fill="none" stroke-width="1.0667"/>
        </g>
        <g transform="matrix(.36471 0 0 .36471 5.1356 1097.4)">
            <path d="m0 0h51.2v51.2h-51.2z" fill="none" stroke-width="1.0667"/>
        </g>
        <g transform="matrix(.41585 0 0 .41585 84.325 1055.9)">
            <g transform="matrix(.062269 0 0 .062269 -28.238 185.29)">
                <g transform="matrix(38.618 0 0 38.618 14724 -13542)">
                    <g transform="matrix(.71436 0 0 .71436 -400.52 188.34)">
                        <path d="m1293.2-120.67c-181.75 0.2763-511.18 0.13525-699.05 0.13998-2.3216 10.413-3.593 21.251-3.593 32.384v114c207.65 0.73695 494.72 0.38136 706.23 0.3733v-114.37c0-11.18-1.2522-22.07-3.593-32.523zm-458.69 295.56c-78.385-4e-3 -158.85 0.17892-243.95 0.55995v138.63c286.34-0.39317 421.73-0.13827 706.23-0.32664v-137.75c-163.2-0.53005-311.22-1.1113-462.28-1.1199z" opacity="0" stroke-width="1.4932"/>
                    </g>
                </g>
            </g>
        </g>
        <path d="m24.549 1119.5c0.66325 0 1.1979-0.5346 1.1979-1.1979v-0.3333c0 0.6632-0.53461 1.1978-1.1979 1.1978h-20.354c-0.66325 0-1.1979-0.5346-1.1979-1.1978v0.3333c0 0.6633 0.53461 1.1979 1.1979 1.1979z" fill="#bf360c" opacity=".2"/>
    </g>
    <flowRoot fill="#000000" font-family="Roboto" font-size="12.8px" letter-spacing="0px" stroke-width="1.0667px" word-spacing="0px" style="line-height:0.01%" xml:space="preserve"><flowRegion><rect x="11.375" y="11.984" width="4.7893" height="5.388" stroke-width="1.1378px"/></flowRegion><flowPara font-size="4px" style="line-height:1.25">your</flowPara></flowRoot>
    <g transform="translate(-164.01 -163.6)">
        <path d="m252.07 130.26s5.4165 7.2331 13.636 26.101c0 0-11.055-9.0891-22.519-16.951z" fill="#fff" stroke-width="1.0667"/>
        <path d="m9.4667 118.38s-23.229-28.589 3.0869-63.097l9.4219 61.149z" fill="#fff" stroke-width="1.0667"/>
        <path d="m77.989 13.954c-10.839 13.934-13.841 26.255-13.979 26.843l-1.1925 5.0624 4.4043-2.768c10.58-6.6507 20.151-9.8827 29.263-9.8827 12.265 0 24.722 5.6651 40.396 18.369 11.219 9.0955 31.422 11.005 46.393 11.005 3.5243 0 6.5675-0.1088 8.8672-0.2272-8.624 10.83-16.879 11.745-19.383 11.745 0 0-0.22933-0.0032-0.33706-0.0075-1.7216-0.06187-3.5861-0.3424-5.9488-0.69653-4.8-0.72533-11.373-1.7152-22.378-1.7152-4.9237 0-10.374 0.2048-16.199 0.6048-23.284 1.6064-41.455 12.201-57.486 21.548-12.893 7.5189-24.028 14.009-35.017 14.238-0.23253 5e-3 -0.4608 7e-3 -0.69013 7e-3 -10.819 0-19.982-5.4144-23.914-14.131-5.3909-11.95-0.56533-27.771 13.239-43.406 18.941-21.453 42.409-32.251 53.962-36.587m18.963-13.954-21.213 7.9627c-12.656 4.7499-36.826 16.048-56.51 38.342-15.543 17.605-20.747 35.931-14.276 50.273 4.9813 11.041 16.38 17.9 29.748 17.9 0.2688 0 0.5344-2e-3 0.80427-7e-3 12.668-0.26453 24.466-7.1435 38.127-15.108 15.425-8.9946 32.909-19.188 54.701-20.692 5.6821-0.39147 10.985-0.59093 15.759-0.59093 10.53 0 16.826 0.9504 21.424 1.6427 2.4789 0.37333 4.5952 0.6912 6.6752 0.76587 0.1472 0.0064 0.50987 0.01173 0.50987 0.01173h0.0566c3.9445 0 14.217-1.3803 24.391-14.159l8.8459-11.11-14.183 0.7328c-2.8096 0.144-5.6821 0.21867-8.5387 0.21867-19.701 0-34.745-3.4016-42.364-9.5765-16.891-13.692-30.592-19.797-44.425-19.797-7.1989 0-14.558 1.7173-22.284 5.2224 1.9744-4.0576 4.8245-8.9867 8.8384-14.147z" fill="#fff" stroke-width="1.0667"/>
        <path d="m83.628 149.53c-31.839 0-51.727-12.601-62.806-23.171-3.7728-3.6-7.1957-7.584-10.172-11.843l4.3616-4.5195c5.6971 3.6875 12.239 5.5584 19.444 5.5584 17.599-2e-3 35.681-11.04 45.397-16.969 0.90667-0.55467 1.7472-1.0656 2.5131-1.5275 0.768-0.4608 1.5605-0.944 2.3819-1.4443l0.11413-0.06933c11.723-7.1605 27.782-16.969 59.072-16.969 9.2949 0 19.447 0.9088 30.179 2.7019 39.558 6.6101 64.378 34.959 75.65 51.268l-4.432 4.4651c-19.933-13.571-37.937-20.166-55.046-20.166-18.846 0-35.072 8.0139-50.764 15.763-16.843 8.3232-34.251 16.922-55.893 16.922" fill="#fff" stroke-width="1.0667"/>
        <path d="m143.93 81.78c9.1179 0 19.094 0.89493 29.652 2.6592 38.913 6.5035 63.281 35.084 73.545 49.933-20.458-13.93-39.13-20.723-56.847-20.723-19.597 0-36.165 8.1856-52.19 16.1-16.506 8.1557-33.573 16.586-54.466 16.586-30.779 0-49.94-12.117-60.597-22.286-4.1248-3.9339-7.3344-7.8923-9.7579-11.36 6.2347 4.0352 13.319 6.0704 21.183 6.0704h0.0043c18.497-2e-3 37.081-11.347 47.065-17.441 0.896-0.54613 1.728-1.0528 2.4896-1.5104 0.8096-0.48747 1.6459-0.99733 2.5141-1.5253 11.403-6.9664 27.02-16.502 57.406-16.502m0-6.4c-32.19 0-49.372 10.496-60.742 17.441l-0.097101 0.058667c-0.82027 0.50027-1.6107 0.98347-2.3776 1.4443-0.7712 0.46293-1.6171 0.9792-2.5269 1.5339-9.4507 5.7685-27.035 16.501-43.731 16.503-6.5813 0-12.539-1.6971-17.708-5.0443l-8.7243 9.04c3.0965 4.4331 6.6592 8.5803 10.587 12.326 11.501 10.973 32.116 24.054 65.014 24.054 22.39 0 40.139-8.768 57.301-17.248 15.37-7.5915 31.255-15.438 49.355-15.438 16.446 0 33.862 6.416 53.245 19.614l8.8672-8.9291c-11.561-16.726-37.036-45.801-77.756-52.606-10.903-1.8272-21.235-2.7509-30.706-2.7509" fill="#fff" stroke-width="1.0667"/>
        <path d="m83.628 146.33c-40.036 0-60.924-20.362-70.267-33.59 6.2123 3.9979 13.268 6.016 21.094 6.016h0.0043c18.497-2e-3 37.081-11.346 47.065-17.441 0.896-0.5472 1.728-1.0528 2.4896-1.5115 0.8096-0.4864 1.6459-0.9984 2.5141-1.5264 11.402-6.9643 27.019-16.501 57.406-16.501 9.1179 0 19.094 0.89387 29.652 2.6581 2.5387 0.42347 4.8288 1.2651 7.0219 2.3349-5.7963-1.0773-11.593-1.6171-17.349-1.6171-27.348 0-44.589 11.994-45.309 12.503l-7.968 5.6459 9.5957-1.808c12.346-2.3275 23.449-3.5083 33.002-3.5083 6.1579 0 10.885 0.4992 14.389 1.1243-28.774 5.7376-41.802 19.447-42.395 20.085l-5.8037 6.2485 8.0619-2.7787c16.962-5.8475 33.684-8.8811 51.001-9.2427-12.186 3.4027-23.978 9.0944-35.52 14.668-18.58 8.9675-37.793 18.241-58.685 18.241" fill="none" stroke-width="1.0667"/>
        <g transform="matrix(.058203 0 0 .080122 170.75 172.98)" fill="#fff" stroke="#fff" stroke-width="5.4914">
            <g transform="translate(22.465 -7.4719)" fill="#fff" stroke="none">
                <path d="m125.68-14.354-16.98 21.354c-18.131-7.6044-40.118-10.239-61.913-5.9967-41.547 8.0886-66.574 38.047-58.725 68.255h20.57c-8.2325-23.549 11.02-47.604 43.423-53.922 16.371-3.1865 32.811-1.0796 46.342 4.656l-23.255 29.228 69.027-13.432z"/>
                <path d="m126.95 58.04c-3.221 0.05741-6.4783 0.28519-9.7561 0.70692-38.687 6.408-47.1 35.383-108.81 26.035-10.24-2.0457-10.76-0.30029-11.758 5.8992 0.64229 24.589 65.982 60.801 111.35 31.958 49.366-23.394 75.67-32.006 128.77 4.4122-20.041-31.375-61.481-69.879-109.8-69.011zm65.797 39.351c-31.167-13.003-58.314 1.993-63.668 1.0955l3.2123-10.517-13.498-2.0964 2.4675-10.223-15.953-2.8139c43.474-8.7578 74.571 6.2295 87.439 24.555z" fill-rule="evenodd"/>
            </g>
        </g>
    </g>
    <g display="none" fill="none">
        <rect transform="rotate(90)" x="7.8232" y="-20.923" width="13.1" height="13.1" display="inline" stroke="#000" stroke-width=".070382"/>
        <rect x="7.2241" y="8.6528" width="14.298" height="11.441" stroke="#5261ff" stroke-linecap="round" stroke-linejoin="round" stroke-width=".069589"/>
        <rect transform="rotate(90)" x="7.2241" y="-20.094" width="14.298" height="11.441" display="inline" stroke="#0f0" stroke-linecap="round" stroke-linejoin="round" stroke-width=".069589"/>
    </g>
</svg>
