<?xml version="1.0" encoding="UTF-8"?>
<svg fill="none" viewBox="0 0 40 40" xmlns="http://www.w3.org/2000/svg">
    <g filter="url(#filter0_f)" opacity=".2">
        <path d="m6.4966 4.3023v2.3767h-2.408v26.937h2.408v3.1689h27.29v-3.1689h3.2106v-26.937h-3.2106v-2.3767h-27.29z" fill="#1A237E"/>
    </g>
    <path d="m34.161 4.1727h-28.323c-0.92013 0-1.666 0.74594-1.666 1.6661v28.323c0 0.9202 0.74591 1.6661 1.666 1.6661h28.323c0.9201 0 1.666-0.7459 1.666-1.6661v-28.323c0-0.92018-0.7459-1.6661-1.666-1.6661z" fill="#3F51B5"/>
    <path d="m5.8383 4.1715c-0.92299 0-1.6669 0.74384-1.6669 1.6668v0.46405c0-0.9231 0.74387-1.667 1.6669-1.667h28.322c0.923 0 1.6668 0.74387 1.6668 1.667v-0.46405c0-0.92296-0.7438-1.6668-1.6668-1.6668h-28.322z" fill="#fff" opacity=".2"/>
    <path d="m34.16 35.859c0.9229 0 1.6668-0.7438 1.6668-1.6668v-0.4639c0 0.9228-0.7439 1.6668-1.6668 1.6668h-28.322c-0.9229 0-1.6668-0.744-1.6668-1.6668v0.4639c0 0.923 0.7439 1.6668 1.6668 1.6668h28.322z" fill="#1A237E" opacity=".2"/>
    <path d="m10.826 15.493c0.4416-0.076 0.7353-0.076 0.9567 0 0.1103 0.0375 0.2936 0.2285 0.2936 0.419 0 0.1145 0.0739 0.4189 0.0739 0.6855v8.4924c0 0.229 0.147 1.409-1.2507 2.247v0.5335l4.4148-1.4475v-0.6475c-0.6989 0-1.1035-0.3045-1.1035-0.7225v-4.761c0.4781-0.1145 0.7718-0.191 1.0295-0.191 0.2209 0 0.4781 0.1145 0.6255 0.2285 0.1104 0.0765 0.2578 0.2666 0.2947 0.4196 0.036 0.114 0.1468 0.4179 0.1839 0.647l0.1468 0.7239h0.3307v-5.0649h-0.4406c-0.0369 0.38-0.074 0.7235-0.074 0.7995-0.0369 0.2669-0.1837 0.571-0.2578 0.7614-0.1102 0.2285-0.3675 0.4951-0.5883 0.6091-0.4412 0.2289-0.8458 0.3049-1.2873 0.457v-4.265c0-0.4569 0-0.7615 0.4415-1.0285l0.1465-0.076c0.7362-0.457 1.5454-0.1904 1.9502 0.038 0.4415 0.191 0.8461 1.1424 0.9935 1.9045l0.0734 0.3045h0.3677v-4.0749l-7.3207 2.5509v0.4575zm10.08 1.333c0.515 0 0.9196-0.4571 0.9196-0.99 0-0.5335-0.4046-0.9904-0.9196-0.9904-0.552 0-0.9562 0.4569-0.9562 0.9904 0 0.5329 0.4042 0.99 0.9562 0.99zm-1.7782 2.1226c-0.0174-0.0492-0.0508-0.2048 0 0zm1.7413 5.5693c0.2942-0.0376 0.7357-0.342 0.9201-0.5325 0.2937-0.3425 0.6248-0.9899 0.8092-1.7519-0.3682-0.1136 0.1099 0.0385-0.2947-0.076-0.0735 0.3044-0.2572 0.6479-0.3307 0.8-0.0735 0.1145-0.2578 0.3809-0.3682 0.4189l-0.1474 0.038c-0.1099-0.038-0.1099-0.6475-0.0733-0.838v-4.8364c-1.0301 0.457-1.2139 0.495-2.2809 0.9899 0.0406 0.2357 0.0369 0.2537 0.0246 0.2187 0.0118 0.0468 0.0273 0.111 0.0488 0.2009l0.1843-0.038c0.1469-0.039 0.3677-0.076 0.4041-0.076 0.2214-0.039 0.2214 0.266 0.2214 0.6465v3.5039c0 0.419-0.074 1.1425 0.2572 1.257 0 0 0.2942 0.1525 0.6255 0.075zm5.6292-2.0175c0.1099-0.0385 0.1832-0.0385 0.2567-0.0759 1.2878-0.5331 2.2075-2.0186 2.2444-3.5036v-0.2285c0-0.3814-0.073-0.724-0.2208-1.0664-0.3676-0.9525-1.3612-1.2951-2.2803-1.1045-0.1104 0.038-0.2214 0.076-0.3318 0.114-1.1034 0.4569-1.8762 1.6375-2.0601 2.8564-0.1468 0.914-0.0733 2.2091 0.7723 2.8181 0.4791 0.3429 1.0671 0.3429 1.6196 0.1904zm-0.074-5.6744h0.074c1.0665-0.1525 1.2873 1.9039 1.2873 2.5894 0 1.0285-0.111 2.4375-1.214 2.7801 0 0-0.0374 0-0.0733 0.038-1.2514 0.2669-1.2514-2.285-1.2514-3.0465 0-0.9525 0.2203-2.0946 1.1774-2.361z" clip-rule="evenodd" fill="#fff" fill-rule="evenodd"/>
    <defs>
        <filter id="filter0_f" x="3.3837" y="3.5974" width="34.319" height="33.893" color-interpolation-filters="sRGB" filterUnits="userSpaceOnUse">
            <feFlood flood-opacity="0" result="BackgroundImageFix"/>
            <feBlend in="SourceGraphic" in2="BackgroundImageFix" result="shape"/>
            <feGaussianBlur result="effect1_foregroundBlur" stdDeviation="0.352455"/>
        </filter>
    </defs>
</svg>
