<?xml version="1.0" encoding="UTF-8"?>
<svg version="1.1" viewBox="0 0 28.747 28.747" xmlns="http://www.w3.org/2000/svg" xmlns:osb="http://www.openswatchbook.org/uri/2009/osb" xmlns:xlink="http://www.w3.org/1999/xlink">
    <defs>
        <filter id="filter6206-7" color-interpolation-filters="sRGB">
            <feGaussianBlur stdDeviation="0.658125"/>
        </filter>
    </defs>
    <g transform="translate(0 -1093.8)">
        <path transform="matrix(1.0781 0 0 1.0641 -.093733 2.7509)" d="m4.4177 1028.2v1.6051h-1.6052v18.192h1.6052v2.1402h18.192v-2.1402h2.1402v-18.192h-2.1402v-1.6051z" fill="#424242" filter="url(#filter6206-7)" opacity=".2"/>
        <rect x="2.9987" y="1096.8" width="22.749" height="22.749" rx="1.1973" ry="1.1974" fill="#424242"/>
        <g transform="translate(-22.32 1056.5)">
            <path d="m0 0h51.2v51.2h-51.2z" fill="none" stroke-width="1.0667"/>
            <g transform="matrix(.33601 0 0 .33601 1.5296 73.043)">
                <path d="m0 0h51.2v51.2h-51.2z" fill="none" stroke-width="1.0667"/>
            </g>
            <g transform="matrix(.37187 0 0 .37187 38.802 63.239)">
                <path d="m0 0h51.2v51.2h-51.2z" fill="none" stroke-width="1.0667"/>
                <g transform="matrix(2.6891 0 0 2.6891 -82.906 -48.45)">
                    <path d="m0 0h51.2v51.2h-51.2z" fill="none" stroke-width="1.0667"/>
                </g>
            </g>
        </g>
        <path d="m4.1958 1096.8c-0.66332 0-1.1979 0.5346-1.1979 1.1979v0.3334c0-0.6634 0.53459-1.1979 1.1979-1.1979h20.354c0.66332 0 1.1979 0.5345 1.1979 1.1979v-0.3334c0-0.6633-0.5346-1.1979-1.1979-1.1979z" fill="#fff" opacity=".2"/>
        <rect x="128" y="546.52" width="42.667" height="42.667" fill="none" stroke-width="1.0667"/>
        <rect x="128" y="631.85" width="42.667" height="42.667" fill="none" stroke-width="1.0667"/>
        <rect x="128" y="674.52" width="42.667" height="42.667" fill="none" stroke-width="1.0667"/>
        <rect x="128" y="589.19" width="42.667" height="42.667" fill="none" stroke-width="1.0667"/>
        <rect x="128" y="717.19" width="42.667" height="42.667" fill="none" stroke-width="1.0667"/>
        <rect x="213.33" y="546.52" width="42.667" height="42.667" fill="none" stroke-width="1.0667"/>
        <rect x="213.33" y="631.85" width="42.667" height="42.667" fill="none" stroke-width="1.0667"/>
        <rect x="213.33" y="674.52" width="42.667" height="42.667" fill="none" stroke-width="1.0667"/>
        <rect x="213.33" y="589.19" width="42.667" height="42.667" fill="none" stroke-width="1.0667"/>
        <rect x="213.33" y="717.19" width="42.667" height="42.667" fill="none" stroke-width="1.0667"/>
        <rect x="298.67" y="546.52" width="42.667" height="42.667" fill="none" stroke-width="1.0667"/>
        <rect x="298.67" y="631.85" width="42.667" height="42.667" fill="none" stroke-width="1.0667"/>
        <rect x="298.67" y="674.52" width="42.667" height="42.667" fill="none" stroke-width="1.0667"/>
        <rect x="298.67" y="589.19" width="42.667" height="42.667" fill="none" stroke-width="1.0667"/>
        <rect x="298.67" y="717.19" width="42.667" height="42.667" fill="none" stroke-width="1.0667"/>
        <rect x="170.67" y="546.52" width="42.667" height="42.667" fill="none" stroke-width="1.0667"/>
        <rect x="170.67" y="631.85" width="42.667" height="42.667" fill="none" stroke-width="1.0667"/>
        <rect x="170.67" y="674.52" width="42.667" height="42.667" fill="none" stroke-width="1.0667"/>
        <rect x="170.67" y="589.19" width="42.667" height="42.667" fill="none" stroke-width="1.0667"/>
        <rect x="170.67" y="717.19" width="42.667" height="42.667" fill="none" stroke-width="1.0667"/>
        <rect x="256" y="546.52" width="42.667" height="42.667" fill="none" stroke-width="1.0667"/>
        <rect x="256" y="631.85" width="42.667" height="42.667" fill="none" stroke-width="1.0667"/>
        <rect x="256" y="674.52" width="42.667" height="42.667" fill="none" stroke-width="1.0667"/>
        <rect x="256" y="589.19" width="42.667" height="42.667" fill="none" stroke-width="1.0667"/>
        <rect x="256" y="717.19" width="42.667" height="42.667" fill="none" stroke-width="1.0667"/>
        <rect x="128" y="759.85" width="42.667" height="42.667" fill="none" stroke-width="1.0667"/>
        <rect x="213.33" y="759.85" width="42.667" height="42.667" fill="none" stroke-width="1.0667"/>
        <rect x="298.67" y="759.85" width="42.667" height="42.667" fill="none" stroke-width="1.0667"/>
        <rect x="170.67" y="759.85" width="42.667" height="42.667" fill="none" stroke-width="1.0667"/>
        <rect x="256" y="759.85" width="42.667" height="42.667" fill="none" stroke-width="1.0667"/>
        <rect x="341.33" y="589.19" width="42.667" height="42.667" fill="none" stroke-width="1.0667"/>
        <rect x="341.33" y="631.85" width="42.667" height="42.667" fill="none" stroke-width="1.0667"/>
        <rect x="341.33" y="717.19" width="42.667" height="42.667" fill="none" stroke-width="1.0667"/>
        <rect x="341.33" y="546.52" width="42.667" height="42.667" fill="none" stroke-width="1.0667"/>
        <rect x="341.33" y="674.52" width="42.667" height="42.667" fill="none" stroke-width="1.0667"/>
        <rect x="341.33" y="759.85" width="42.667" height="42.667" fill="none" stroke-width="1.0667"/>
        <rect x="160" y="578.52" width="192" height="192" fill="none" stroke-width="1.0667"/>
        <g transform="matrix(.37344 0 0 .37344 4.7333 1097.4)">
            <path d="m0 0h51.2v51.2h-51.2z" fill="none" stroke-width="1.0667"/>
        </g>
        <g transform="matrix(.36471 0 0 .36471 5.1356 1097.4)">
            <path d="m0 0h51.2v51.2h-51.2z" fill="none" stroke-width="1.0667"/>
        </g>
        <g transform="matrix(.41585 0 0 .41585 84.325 1055.9)">
            <g transform="matrix(.062269 0 0 .062269 -28.238 185.29)">
                <g transform="matrix(38.618 0 0 38.618 14724 -13542)">
                    <g transform="matrix(.71436 0 0 .71436 -400.52 188.34)">
                        <path d="m1293.2-120.67c-181.75 0.2763-511.18 0.13525-699.05 0.13998-2.3216 10.413-3.593 21.251-3.593 32.384v114c207.65 0.73695 494.72 0.38136 706.23 0.3733v-114.37c0-11.18-1.2522-22.07-3.593-32.523zm-458.69 295.56c-78.385-4e-3 -158.85 0.17892-243.95 0.55995v138.63c286.34-0.39317 421.73-0.13827 706.23-0.32664v-137.75c-163.2-0.53005-311.22-1.1113-462.28-1.1199z" opacity="0" stroke-width="1.4932"/>
                    </g>
                </g>
            </g>
        </g>
        <path d="m24.549 1119.5c0.66325 0 1.1979-0.5346 1.1979-1.1979v-0.3333c0 0.6632-0.53461 1.1978-1.1979 1.1978h-20.354c-0.66325 0-1.1979-0.5346-1.1979-1.1978v0.3333c0 0.6633 0.53461 1.1979 1.1979 1.1979z" fill="#424242" opacity=".2"/>
    </g>
    <g>
        <flowRoot fill="#000000" font-family="Roboto" font-size="12.8px" letter-spacing="0px" stroke-width="1.0667px" word-spacing="0px" style="line-height:0.01%" xml:space="preserve"><flowRegion><rect x="11.375" y="11.984" width="4.7893" height="5.388" stroke-width="1.1378px"/></flowRegion><flowPara font-size="4px" style="line-height:1.25">your</flowPara></flowRoot>
        <path d="m11.907 19.105c-0.5313-0.088832-1.0035-0.33298-1.3884-0.71788-0.61523-0.61523-0.85524-1.4476-0.65164-2.26 0.058989-0.23537 0.27734-0.70083 0.4098-0.87358 0.04954-0.0646 0.09006-0.12376 0.09006-0.13147 0-0.0077-0.03662-0.01419-0.08138-0.0144-0.1348-6.36e-4 -0.46514-0.094492-0.61594-0.175-0.40047-0.2138-0.70572-0.6544-0.81538-1.1769-0.02168-0.1033-0.056677-0.37376-0.077768-0.60103-0.1073-1.156-0.14419-1.3332-0.40657-1.9533-0.096156-0.22726-0.19458-0.49209-0.21871-0.5885-0.13153-0.52543 0.16881-0.99674 0.70816-1.1113 0.16292-0.034592 0.48431-0.035602 0.71875-0.00225 0.83911 0.11937 2.0737 0.6988 2.8859 1.3544 0.24879 0.20083 0.74762 0.70182 0.77047 0.77382 0.01093 0.03443 0.0048 0.06683-0.01636 0.08611-0.01863 0.017-0.41014 0.24883-0.87002 0.51517l-0.83614 0.48424 0.01573 0.49001c0.0085 0.26951 0.0243 0.92951 0.03477 1.4667 0.01045 0.53717 0.02212 0.91469 0.02589 0.83893 0.0084-0.1721 0.17548-2.2898 0.1959-2.4855 0.01811-0.1736 0.03561-0.17778 0.2356-0.05628 0.14103 0.08566 0.14473 0.09078 0.15894 0.21913 8e-3 0.07226 0.0221 0.66416 0.03132 1.3153 0.0093 0.65114 0.02413 1.1884 0.03311 1.194 0.01294 8e-3 0.20666-2.2892 0.20316-2.4092-0.0016-0.05416 0.0815-0.03148 0.23699 0.0647l0.15026 0.09293 0.01802 0.7382c0.0099 0.40601 0.02593 1.0368 0.03558 1.4018l0.01757 0.66363 0.09615-1.2271c0.10632-1.357 0.11003-1.3906 0.15311-1.3881 0.01659 9.76e-4 0.09778 0.04412 0.18042 0.09588l0.15026 0.09412 0.01581 0.23594c0.0086 0.12977 0.02559 0.81631 0.03756 1.5256 0.01196 0.70934 0.02479 1.2165 0.0285 1.1269 0.01124-0.2717 0.20593-2.6627 0.21778-2.6745 0.02231-0.02231 0.12925 0.02067 0.2513 0.10098l0.12521 0.08239 0.01872 1.0265c0.01032 0.56455 0.02639 1.1673 0.03577 1.3395l0.01704 0.31303 0.10197-1.2521c0.05609-0.68868 0.1103-1.2649 0.12048-1.2806 0.01021-0.01566 0.65554-0.39826 1.4341-0.85022 0.89005-0.51667 1.4038-0.82874 1.3839-0.84057-0.01744-0.01032-0.41479-0.24228-0.88298-0.51539-0.48922-0.28538-0.85459-0.51386-0.85909-0.53724-0.0099-0.05137 0.38278-0.46448 0.6728-0.70782 0.47248-0.39642 0.9492-0.68997 1.5744-0.96948 0.70412-0.31478 1.1438-0.43887 1.6418-0.4634 0.45946-0.022628 0.7342 0.057129 0.94503 0.27434 0.16634 0.17138 0.22949 0.31906 0.24038 0.56213 0.01094 0.24431-0.03033 0.40085-0.22412 0.84998-0.26292 0.60937-0.31886 0.85516-0.39791 1.7486-0.07378 0.83383-0.1458 1.1349-0.35415 1.4806-0.11075 0.18375-0.40435 0.46063-0.57912 0.54614-0.15836 0.07747-0.46638 0.16342-0.58799 0.16406-0.04477 2.25e-4 -0.08138 0.0059-0.08138 0.0127s0.05249 0.08846 0.11664 0.18156c0.14834 0.21531 0.28994 0.51519 0.36392 0.77076 0.05004 0.17287 0.05786 0.25574 0.05786 0.61309 0 0.35606-8e-3 0.44092-0.05749 0.61355-0.25211 0.87862-0.95162 1.5457-1.8583 1.772-0.30007 0.07492-0.82959 0.0751-1.1144 3.64e-4 -0.62736-0.1646-1.0595-0.46784-1.4029-0.98433l-0.11744-0.1767-0.12709 0.19516c-0.30175 0.46336-0.80185 0.81635-1.3584 0.95878-0.25914 0.06632-0.70943 0.08497-0.97596 0.04039zm0.94061-0.09213c-8.5648 6.4891-4.2824 3.2445 0 0z" fill="#fff" stroke-width="0"/>
    </g>
</svg>
