<?xml version="1.0" encoding="UTF-8"?>
<svg version="1.1" viewBox="0 0 26.95 26.95" xmlns="http://www.w3.org/2000/svg">
    <defs>
        <filter id="filter6206-7" color-interpolation-filters="sRGB">
            <feGaussianBlur stdDeviation="0.658125"/>
        </filter>
    </defs>
    <g transform="translate(0 -1025.4)">
        <path transform="matrix(1.0107 0 0 .99762 -.087875 2.579)" d="m4.4177 1028.2v1.6051h-1.6052v18.192h1.6052v2.1402h18.192v-2.1402h2.1402v-18.192h-2.1402v-1.6051h-18.192z" fill="#232323" filter="url(#filter6206-7)" opacity=".2"/>
        <rect x="2.8113" y="1028.2" width="21.327" height="21.327" rx="1.1225" ry="1.1226" fill="#232323"/>
        <g transform="translate(-20.925 990.46)">
            <path d="m0 0h48v48h-48z" fill="none"/>
            <g transform="matrix(.33601 0 0 .33601 1.434 68.477)">
                <path d="m0 0h48v48h-48z" fill="none"/>
            </g>
            <g transform="matrix(.37187 0 0 .37187 36.377 59.287)">
                <path d="m0 0h48v48h-48z" fill="none"/>
                <g transform="matrix(2.6891 0 0 2.6891 -77.724 -45.422)">
                    <path d="m0 0h48v48h-48z" fill="none"/>
                </g>
            </g>
        </g>
        <path transform="translate(0 1025.4)" d="m3.9336 2.8105c-0.62186 0-1.123 0.50115-1.123 1.123v0.3125c0-0.6219 0.50118-1.123 1.123-1.123h19.082c0.62186 0 1.123 0.50115 1.123 1.123v-0.3125c0-0.6219-0.50118-1.123-1.123-1.123h-19.082z" fill="#fff" opacity=".2"/>
        <rect x="120" y="512.36" width="40" height="40" fill="none"/>
        <rect x="120" y="592.36" width="40" height="40" fill="none"/>
        <rect x="120" y="632.36" width="40" height="40" fill="none"/>
        <rect x="120" y="552.36" width="40" height="40" fill="none"/>
        <rect x="120" y="672.36" width="40" height="40" fill="none"/>
        <rect x="200" y="512.36" width="40" height="40" fill="none"/>
        <rect x="200" y="592.36" width="40" height="40" fill="none"/>
        <rect x="200" y="632.36" width="40" height="40" fill="none"/>
        <rect x="200" y="552.36" width="40" height="40" fill="none"/>
        <rect x="200" y="672.36" width="40" height="40" fill="none"/>
        <rect x="280" y="512.36" width="40" height="40" fill="none"/>
        <rect x="280" y="592.36" width="40" height="40" fill="none"/>
        <rect x="280" y="632.36" width="40" height="40" fill="none"/>
        <rect x="280" y="552.36" width="40" height="40" fill="none"/>
        <rect x="280" y="672.36" width="40" height="40" fill="none"/>
        <rect x="160" y="512.36" width="40" height="40" fill="none"/>
        <rect x="160" y="592.36" width="40" height="40" fill="none"/>
        <rect x="160" y="632.36" width="40" height="40" fill="none"/>
        <rect x="160" y="552.36" width="40" height="40" fill="none"/>
        <rect x="160" y="672.36" width="40" height="40" fill="none"/>
        <rect x="240" y="512.36" width="40" height="40" fill="none"/>
        <rect x="240" y="592.36" width="40" height="40" fill="none"/>
        <rect x="240" y="632.36" width="40" height="40" fill="none"/>
        <rect x="240" y="552.36" width="40" height="40" fill="none"/>
        <rect x="240" y="672.36" width="40" height="40" fill="none"/>
        <rect x="120" y="712.36" width="40" height="40" fill="none"/>
        <rect x="200" y="712.36" width="40" height="40" fill="none"/>
        <rect x="280" y="712.36" width="40" height="40" fill="none"/>
        <rect x="160" y="712.36" width="40" height="40" fill="none"/>
        <rect x="240" y="712.36" width="40" height="40" fill="none"/>
        <rect x="320" y="552.36" width="40" height="40" fill="none"/>
        <rect x="320" y="592.36" width="40" height="40" fill="none"/>
        <rect x="320" y="672.36" width="40" height="40" fill="none"/>
        <rect x="320" y="512.36" width="40" height="40" fill="none"/>
        <rect x="320" y="632.36" width="40" height="40" fill="none"/>
        <rect x="320" y="712.36" width="40" height="40" fill="none"/>
        <rect x="150" y="542.36" width="180" height="180" fill="none"/>
        <g transform="matrix(.37344 0 0 .37344 4.4375 1028.8)">
            <path d="m0 0h48v48h-48z" fill="none"/>
        </g>
        <g transform="matrix(.36471 0 0 .36471 4.8146 1028.8)">
            <path d="m0 0h48v48h-48z" fill="none"/>
        </g>
        <g transform="matrix(.41585 0 0 .41585 79.055 989.88)">
            <g transform="matrix(.062269 0 0 .062269 -26.473 173.71)">
                <g transform="matrix(38.618 0 0 38.618 13804 -12696)">
                    <g transform="matrix(.71436 0 0 .71436 -375.49 176.57)">
                        <path transform="matrix(1.3999 0 0 1.3999 525.63 -247.17)" d="m490.56 95.75c-121.72 0.18504-342.34 0.090577-468.16 0.09375-1.5548 6.9739-2.4062 14.232-2.4062 21.688v76.344c139.06 0.49354 331.32 0.2554 472.97 0.25v-76.594c0-7.4875-0.8386-14.78-2.4062-21.781zm-307.19 197.94c-52.495-3e-3 -106.38 0.11982-163.38 0.375v92.844c191.76-0.26331 282.43-0.0926 472.97-0.21875v-92.25c-109.29-0.35498-208.43-0.74426-309.59-0.75z" opacity="0"/>
                    </g>
                </g>
            </g>
        </g>
        <path d="m23.015 1049.6c0.6218 0 1.123-0.5012 1.123-1.123v-0.3125c0 0.6218-0.5012 1.123-1.123 1.123h-19.082c-0.6218 0-1.123-0.5012-1.123-1.123v0.3125c0 0.6218 0.5012 1.123 1.123 1.123h19.082z" fill="#232323" opacity=".2"/>
    </g>
    <g transform="matrix(.98689 0 0 .98689 .1766 -1010.5)">
        <g transform="translate(11.374 -9.0992)">
            <path d="m-5.1562 1039.4h14.514v14.514h-14.514z" fill="none"/>
            <g transform="matrix(1.0103 0 0 1.0103 -11.37 1027.7)">
                <g transform="matrix(.046333 0 0 .046333 6.3769 11.648)">
                    <g fill="#fff">
                        <path d="m97.5 61.62c32.15-0.47 64.33-0.34 96.49-0.13 10.619 0.39819 22.47 0.21 33.51 2.24 4.6 0.87 6.16 5.8 9.29 8.55 7.33 1.66 14.89 2.32 22.29 3.72 8.09 1.46 14.99 6.58 20.56 12.41 3.03 3.24 5.65 6.98 6.72 11.34 6.85 22.75 8.13 46.71 9.27 70.3 0.03 9.63 0.62 19.37-1.13 28.89-1.79 4.42-6.11 7.04-9.49 10.15-15.33 11.62-34.33 16.39-52.51 21.61-5.96 1.71-9.36 7.94-15.65 8.99-16.12 2.53-32.48 3.52-48.78 3.71-9.35 1.07-18.71-0.36-28.07-0.18-14.71-0.61-29.41-1.44-44.07-2.65-4.66-0.42-9.47-0.08-13.96-1.64-5.18-1.42-8.49-6.38-13.83-7.45-11.52-2.81-23.18-5.44-34.01-10.38-10.15-4.44-19.71-10.77-26.65-19.52-3.05-3.47-2.41-8.39-2.86-12.65-0.48-20.37 1.02-40.77 3.89-60.94 1.91-11.49 4.01-23.14 8.78-33.84 5.28-7.65 12.52-14.26 21.27-17.65 8.35-2.2 16.94-3.26 25.44-4.68 4.68-2.12 6.94-7.86 12.04-9.42 7.13-0.72 14.34 0.1 21.46-0.78m-21.3 4.66c-2.3 1.56-4.16 3.66-6.15 5.58-12.048 11.353-40.7 21.798-46.95 22.12-2.79 0.6 0.65122 4.8728-0.25878 7.1428-2.15 6.46-8.0312 11.797-9.1112 18.527-0.75 0.94-0.63 2.25-0.91 3.36-2.29 15.52-3.96 31.18-4.36 46.87-0.52 8.98-0.54 18.03 0.49 26.97 2.29 4.19 6 7.41 9.56 10.49 14.3 11.49 32.53 16.09 50.04 20.17 4.77 0.81 8.25 4.34 12.24 6.71 3.2 1.98 7.12 1.52 10.7 1.99 19.47 1.8 39.01 2.71 58.54 3.54 21.72 0.22 43.53-0.59 65.03-3.82 6.44-0.56 9.81-7.25 15.86-8.8 17.26-5.16 35.36-9.4 50.29-19.98 3.5-2.74 5.1587-5.9857 7.5787-9.7657 1.44-6.21 1.2843-12.084 1.4243-18.394 0.15-9.7 1.3471-19.39 0.76706-29.06-1.33-11.56-1.82-23.24-4.3-34.64-1.47-6.05-2.73-12.1-5.08-17.88-19.371-27.712-42.85-11.729-51.61-20.63-2.06-2.92-10.18-2.3-14.14-2.45-24.43-1.91-40.37-8.9-64.86-9.2-24.93 0.4-49.9-0.23-74.79 1.15"/>
                        <path d="m90.34 101.4c3.79-1.12 7.81-0.53 11.7-0.64 32.65 0.02 65.31 0.05 97.97 0 3.54 0.14 7.61-0.73 10.65 1.59 2.62 2.03 2.83 5.61 2.78 8.65-0.12 24.99 0.04 49.98-0.09 74.97 0.21 4.04-3.23 7.79-7.32 7.66-37.34-0.02-73.58 1.82-112.02-0.01-2.39 1.16-5.01-1.09-6.48-3.17-1.95-2.35-1.34-5.61-1.51-8.42 0.15-24-0.26-48-0.04-72-0.14-3.36 1.2-7.08 4.36-8.63m-1.86 5.7c-0.39 3.19-0.1 6.42-0.21 9.63 0.02 4.36 0.09 8.71-0.01 13.06 0.05 3.4 0.09 6.81-0.02 10.21 0.07 4.57 0.13 9.15 0.03 13.72 0.02 3.68 0.07 7.36 0.04 11.04-0.03 3.3 0 6.6 0.01 9.89 0 2.7 0.02 5.4-0.11 8.1-0.28 3.24 0.57 8.13 4.72 8.08 37.03 0.17 74.06-0.01 111.09 0.09 1.86-0.14 4.21 0.32 5.53-1.35 2.15-2.24 1.44-5.66 1.65-8.48-0.04-2.38-0.04-4.76-0.04-7.13 0.01-3.38 0.02-6.75 0-10.12 0-3.96 0.02-7.91 0-11.86-0.01-4.97 0.01-9.94 0-14.91v-9.07c0-4.31 0-8.63 0.01-12.95-0.02-2.69 0.14-5.41-0.36-8.07-0.45-2.12-2.48-3.89-4.71-3.68-37.38-0.08-74.76-0.02-112.13-0.03-2.48-0.29-4.82 1.48-5.49 3.83z"/>
                    </g>
                    <path d="m233.34 178.42c10.85-3.22 21.92-5.75 32.88-8.57 0 0.57-0.01 1.72-0.01 2.29-10.76 3.19-21.75 5.68-32.63 8.48l-0.24-2.2z"/>
                    <path d="m233.13 186.96c0.14-0.55 0.44-1.65 0.58-2.2 31.12-10.103 34.563-4.0051-0.58 2.2z"/>
                    <path d="m233.35 205.72c-155.57 62.853-77.783 31.427 0 0z"/>
                    <path d="m75.94 66.03c22.99-3.4 133.67-0.79142 145.29 0.67858 6.4109 21.686 35.661-2.9871 59.804 29.041 4.3587 5.7823 9.826 24.765 10.937 54.321 0.58 9.67 0.0901 19.219-0.0599 28.919-0.14 6.31 0.44 12.75-1 18.96-2.42 3.78-4.2201 6.6014-7.7201 9.3414-14.93 10.58-32.747 14.961-50.007 20.121-6.05 1.55-10.834 8.3814-17.274 8.9414-21.5 3.23-41.613 5.3128-63.333 5.0928-19.53-0.83-39.07-1.74-58.54-3.54-3.58-0.47-10.046-0.85853-13.246-2.8385-3.99-2.37-7.1872-5.3343-11.957-6.1443-17.51-4.08-35.316-7.4072-49.616-18.897-3.56-3.08-8.8256-8.7042-11.116-12.894-1.03-8.94-2.1414-19.404-1.6214-28.384 0.4-15.69 3.2014-31.916 5.4914-47.436 1.5442-9.8469 6.6091-22.305 7.8375-27.546 8.2368-8.9234 5.0867-12.801 45.08-18.77m56.308 26.127c-9.52 0.9-16.573 0.15446-29.153 0.10446-6.53 3.15-5.074 7.9885-5.784 15.368 0.17825 31.312 1.7224 42.526 0.72762 70.3 1.0121 2.862 4.0128 4.6744 7.2994 6.0551 47.41-0.12023 76.888-0.4203 111.47-0.502 1.3832-0.11802 6.8346 0.0466 6.9488-7.2928-0.0238-32.283-0.2303-51.247-0.1151-76.364-0.39-2.06 2.4254-4.2735-4.9146-5.2635-29.71-3.32-28.962-2.8908-58.812-1.4308m-116.72 17.611c0.05 4.51 0.06 9.02 0.02 13.53-4.34 0.07-8.68 0.04-13.02 0.06-0.04 5.57-0.01 11.13-0.02 16.7 4.11 0.05 8.22-0.02 12.32 0.14 0.05 4.22-0.03 8.45 0.36 12.67 4.8-0.09 9.6-0.06 14.41-0.04 0.17-4.59 0.08-9.18 0.07-13.77 4.18-0.27 8.37-0.15 12.56-0.19 0.08-5.24 0.08-10.48 0-15.71-3.99-0.07-7.98-0.05-11.97-0.12-0.03-4.43-0.01-8.85 0.01-13.28-4.92-0.06-9.83-0.07-14.74 0.01m237.26 5.78c-4.34 0.37-7.78 4.08-8.75 8.18-1.64 5.84 2.22 12.97 8.44 13.83 6.06 1.08 11.69-4.53 11.64-10.47 0.59-6.17-4.94-12.49-11.33-11.54m-29.09 8.9c-3.87 1.09-6.71 4.64-7.39 8.53-1.34 5.9 2.84 12.59 8.99 13.3 6.6 0.8 12.14-5.95 11.2-12.28-0.29-6.18-6.66-11.43-12.8-9.55" fill="#fff"/>
                    <path d="m14.34 118.81c-9.56 120.79-4.78 60.397 0 0z" fill="#7d65bc"/>
                </g>
            </g>
        </g>
    </g>
    <g display="none" fill="none">
        <rect transform="rotate(90)" x="7.3342" y="-19.616" width="12.282" height="12.282" display="inline" stroke="#000" stroke-width=".065984"/>
        <rect x="6.7726" y="8.112" width="13.405" height="10.726" stroke="#5261ff" stroke-linecap="round" stroke-linejoin="round" stroke-width=".06524"/>
        <rect transform="rotate(90)" x="6.7726" y="-18.838" width="13.405" height="10.726" display="inline" stroke="#0f0" stroke-linecap="round" stroke-linejoin="round" stroke-width=".06524"/>
    </g>
</svg>
