<?xml version="1.0" encoding="UTF-8"?>
<svg fill="none" viewBox="0 0 40 40" xmlns="http://www.w3.org/2000/svg">
    <g filter="url(#filter0_f)" opacity=".2">
        <path d="m6.4966 4.3023v2.3767h-2.408v26.937h2.408v3.1689h27.29v-3.1689h3.2106v-26.937h-3.2106v-2.3767h-27.29z" fill="#3E2723"/>
    </g>
    <path d="m34.161 4.1727h-28.323c-0.92013 0-1.666 0.74594-1.666 1.6661v28.323c0 0.9201 0.74591 1.6661 1.666 1.6661h28.323c0.9201 0 1.6661-0.746 1.6661-1.6661v-28.323c0-0.92018-0.746-1.6661-1.6661-1.6661z" fill="#232323"/>
    <path d="m5.8384 4.1715c-0.92299 0-1.6669 0.74384-1.6669 1.6668v0.46405c0-0.9231 0.74387-1.667 1.6669-1.667h28.322c0.923 0 1.6669 0.74387 1.6669 1.667v-0.46405c0-0.92296-0.7439-1.6668-1.6669-1.6668h-28.322z" fill="#fff" opacity=".2"/>
    <path d="m34.16 35.859c0.9229 0 1.6668-0.7438 1.6668-1.6668v-0.4639c0 0.9228-0.7439 1.6668-1.6668 1.6668h-28.322c-0.9229 0-1.6668-0.744-1.6668-1.6668v0.4639c0 0.923 0.7439 1.6668 1.6668 1.6668h28.322z" fill="#3E2723" opacity=".2"/>
    <path d="m27 17.941c0 1.634-0.5695 3.1361-1.5224 4.3219-0.0373 0.0521-0.0787 0.1083-0.1247 0.1691-0.6176 0.8165-1.8529 2.4496-2.8823 4.0827-0.5491 0.871-1.2153 2.0905-1.7174 3.0389-0.3155 0.5957-1.1909 0.5957-1.5064 0-0.5021-0.9484-1.1683-2.1679-1.7174-3.0389-1.0294-1.6331-2.2647-3.2662-2.8823-4.0827-0.046-0.0608-0.0874-0.117-0.1247-0.1691-0.9529-1.1858-1.5224-2.6879-1.5224-4.3219 0-3.8332 3.134-6.9406 7-6.9406s7 3.1074 7 6.9406zm-7 2.4496c1.3645 0 2.4706-1.0967 2.4706-2.4496s-1.1061-2.4496-2.4706-2.4496-2.4706 1.0967-2.4706 2.4496 1.1061 2.4496 2.4706 2.4496z" clip-rule="evenodd" fill="#fff" fill-rule="evenodd"/>
    <defs>
        <filter id="filter0_f" x="3.3838" y="3.5974" width="34.319" height="33.893" color-interpolation-filters="sRGB" filterUnits="userSpaceOnUse">
            <feFlood flood-opacity="0" result="BackgroundImageFix"/>
            <feBlend in="SourceGraphic" in2="BackgroundImageFix" result="shape"/>
            <feGaussianBlur result="effect1_foregroundBlur" stdDeviation="0.352455"/>
        </filter>
    </defs>
</svg>
