<?xml version="1.0" encoding="UTF-8"?>
<svg version="1.1" viewBox="0 0 28.747 28.747" xmlns="http://www.w3.org/2000/svg">
    <defs>
        <filter id="filter6206-7" x="-.072" y="-.072" width="1.144" height="1.144" color-interpolation-filters="sRGB">
            <feGaussianBlur stdDeviation="0.658125"/>
        </filter>
    </defs>
    <g transform="translate(0 -1093.8)">
        <path transform="matrix(1.0781 0 0 1.0641 -.093733 2.7509)" d="m4.4177 1028.2v1.6051h-1.6052v18.192h1.6052v2.1402h18.192v-2.1402h2.1402v-18.192h-2.1402v-1.6051z" fill="#232323" filter="url(#filter6206-7)" opacity=".2"/>
        <rect x="2.9987" y="1096.8" width="22.749" height="22.749" rx="1.1973" ry="1.1974" fill="#232323"/>
        <g transform="translate(-22.32 1056.5)">
            <path d="m0 0h51.2v51.2h-51.2z" fill="none" stroke-width="1.0667"/>
            <g transform="matrix(.33601 0 0 .33601 1.5296 73.043)">
                <path d="m0 0h51.2v51.2h-51.2z" fill="none" stroke-width="1.0667"/>
            </g>
            <g transform="matrix(.37187 0 0 .37187 38.802 63.239)">
                <path d="m0 0h51.2v51.2h-51.2z" fill="none" stroke-width="1.0667"/>
                <g transform="matrix(2.6891 0 0 2.6891 -82.906 -48.45)">
                    <path d="m0 0h51.2v51.2h-51.2z" fill="none" stroke-width="1.0667"/>
                </g>
            </g>
        </g>
        <path d="m4.1958 1096.8c-0.66332 0-1.1979 0.5346-1.1979 1.1979v0.3334c0-0.6634 0.53459-1.1979 1.1979-1.1979h20.354c0.66332 0 1.1979 0.5345 1.1979 1.1979v-0.3334c0-0.6633-0.5346-1.1979-1.1979-1.1979z" fill="#fff" opacity=".2"/>
        <rect x="128" y="546.52" width="42.667" height="42.667" fill="none" stroke-width="1.0667"/>
        <rect x="128" y="631.85" width="42.667" height="42.667" fill="none" stroke-width="1.0667"/>
        <rect x="128" y="674.52" width="42.667" height="42.667" fill="none" stroke-width="1.0667"/>
        <rect x="128" y="589.19" width="42.667" height="42.667" fill="none" stroke-width="1.0667"/>
        <rect x="128" y="717.19" width="42.667" height="42.667" fill="none" stroke-width="1.0667"/>
        <rect x="213.33" y="546.52" width="42.667" height="42.667" fill="none" stroke-width="1.0667"/>
        <rect x="213.33" y="631.85" width="42.667" height="42.667" fill="none" stroke-width="1.0667"/>
        <rect x="213.33" y="674.52" width="42.667" height="42.667" fill="none" stroke-width="1.0667"/>
        <rect x="213.33" y="589.19" width="42.667" height="42.667" fill="none" stroke-width="1.0667"/>
        <rect x="213.33" y="717.19" width="42.667" height="42.667" fill="none" stroke-width="1.0667"/>
        <rect x="298.67" y="546.52" width="42.667" height="42.667" fill="none" stroke-width="1.0667"/>
        <rect x="298.67" y="631.85" width="42.667" height="42.667" fill="none" stroke-width="1.0667"/>
        <rect x="298.67" y="674.52" width="42.667" height="42.667" fill="none" stroke-width="1.0667"/>
        <rect x="298.67" y="589.19" width="42.667" height="42.667" fill="none" stroke-width="1.0667"/>
        <rect x="298.67" y="717.19" width="42.667" height="42.667" fill="none" stroke-width="1.0667"/>
        <rect x="170.67" y="546.52" width="42.667" height="42.667" fill="none" stroke-width="1.0667"/>
        <rect x="170.67" y="631.85" width="42.667" height="42.667" fill="none" stroke-width="1.0667"/>
        <rect x="170.67" y="674.52" width="42.667" height="42.667" fill="none" stroke-width="1.0667"/>
        <rect x="170.67" y="589.19" width="42.667" height="42.667" fill="none" stroke-width="1.0667"/>
        <rect x="170.67" y="717.19" width="42.667" height="42.667" fill="none" stroke-width="1.0667"/>
        <rect x="256" y="546.52" width="42.667" height="42.667" fill="none" stroke-width="1.0667"/>
        <rect x="256" y="631.85" width="42.667" height="42.667" fill="none" stroke-width="1.0667"/>
        <rect x="256" y="674.52" width="42.667" height="42.667" fill="none" stroke-width="1.0667"/>
        <rect x="256" y="589.19" width="42.667" height="42.667" fill="none" stroke-width="1.0667"/>
        <rect x="256" y="717.19" width="42.667" height="42.667" fill="none" stroke-width="1.0667"/>
        <rect x="128" y="759.85" width="42.667" height="42.667" fill="none" stroke-width="1.0667"/>
        <rect x="213.33" y="759.85" width="42.667" height="42.667" fill="none" stroke-width="1.0667"/>
        <rect x="298.67" y="759.85" width="42.667" height="42.667" fill="none" stroke-width="1.0667"/>
        <rect x="170.67" y="759.85" width="42.667" height="42.667" fill="none" stroke-width="1.0667"/>
        <rect x="256" y="759.85" width="42.667" height="42.667" fill="none" stroke-width="1.0667"/>
        <rect x="341.33" y="589.19" width="42.667" height="42.667" fill="none" stroke-width="1.0667"/>
        <rect x="341.33" y="631.85" width="42.667" height="42.667" fill="none" stroke-width="1.0667"/>
        <rect x="341.33" y="717.19" width="42.667" height="42.667" fill="none" stroke-width="1.0667"/>
        <rect x="341.33" y="546.52" width="42.667" height="42.667" fill="none" stroke-width="1.0667"/>
        <rect x="341.33" y="674.52" width="42.667" height="42.667" fill="none" stroke-width="1.0667"/>
        <rect x="341.33" y="759.85" width="42.667" height="42.667" fill="none" stroke-width="1.0667"/>
        <rect x="160" y="578.52" width="192" height="192" fill="none" stroke-width="1.0667"/>
        <g transform="matrix(.37344 0 0 .37344 4.7333 1097.4)">
            <path d="m0 0h51.2v51.2h-51.2z" fill="none" stroke-width="1.0667"/>
        </g>
        <g transform="matrix(.36471 0 0 .36471 5.1356 1097.4)">
            <path d="m0 0h51.2v51.2h-51.2z" fill="none" stroke-width="1.0667"/>
        </g>
        <g transform="matrix(.41585 0 0 .41585 84.325 1055.9)">
            <g transform="matrix(.062269 0 0 .062269 -28.238 185.29)">
                <g transform="matrix(38.618 0 0 38.618 14724 -13542)">
                    <g transform="matrix(.71436 0 0 .71436 -400.52 188.34)">
                        <path d="m1293.2-120.67c-181.75 0.2763-511.18 0.13525-699.05 0.13998-2.3216 10.413-3.593 21.251-3.593 32.384v114c207.65 0.73695 494.72 0.38136 706.23 0.3733v-114.37c0-11.18-1.2522-22.07-3.593-32.523zm-458.69 295.56c-78.385-4e-3 -158.85 0.17892-243.95 0.55995v138.63c286.34-0.39317 421.73-0.13827 706.23-0.32664v-137.75c-163.2-0.53005-311.22-1.1113-462.28-1.1199z" opacity="0" stroke-width="1.4932"/>
                    </g>
                </g>
            </g>
        </g>
        <path d="m24.549 1119.5c0.66325 0 1.1979-0.5346 1.1979-1.1979v-0.3333c0 0.6632-0.53461 1.1978-1.1979 1.1978h-20.354c-0.66325 0-1.1979-0.5346-1.1979-1.1978v0.3333c0 0.6633 0.53461 1.1979 1.1979 1.1979z" fill="#232323" opacity=".2"/>
    </g>
    <path d="m8.6398 20.585v-4.9494h-1.2932c-0.19148 0-0.3467-0.15522-0.3467-0.3467 0-0.09125 0.03598-0.17883 0.10013-0.24373l6.9635-7.0447c0.16826-0.17022 0.44265-0.17181 0.61287-0.00355 9.78e-4 9.327e-4 0.0019 0.00187 0.0028 0.00281l3.6363 3.661v-0.67693c0-0.15956 0.12935-0.28892 0.28892-0.28892h1.2085c0.15956 0 0.28892 0.12935 0.28892 0.28892v2.486l1.5457 1.5763c0.13406 0.13671 0.13192 0.35622-0.0048 0.49028-0.06481 0.06356-0.15197 0.09916-0.24274 0.09916h-1.2982v4.9494c0 0.15956-0.12935 0.28892-0.28892 0.28892h-10.884c-0.15956 0-0.28892-0.12935-0.28892-0.28892zm7.6862-6.0465c0.03487-0.07274 0.0544-0.15421 0.0544-0.24024 0-0.30774-0.24992-0.55722-0.55821-0.55722s-0.55822 0.24947-0.55822 0.55722c0 0.30774 0.24992 0.55722 0.55822 0.55722 0.08618 0 0.1678-0.0195 0.24067-0.05431l0.80133 0.7999v0.77482l-1.0048 1.003v-0.73488c0.21681-0.07649 0.37214-0.2829 0.37214-0.52551 0-0.30774-0.24992-0.55722-0.55821-0.55722s-0.55821 0.24947-0.55821 0.55722c0 0.24262 0.15533 0.44902 0.37214 0.52551v1.1064l-0.93036 0.9287v-5.4554l0.76412-0.76275c0.07287 0.03481 0.15449 0.0543 0.24067 0.0543 0.30829 0 0.55821-0.24948 0.55821-0.55722s-0.24992-0.55722-0.55821-0.55722-0.55822 0.24947-0.55822 0.55722c0 0.08602 0.01953 0.1675 0.0544 0.24024l-0.68705 0.68582-0.68704-0.68582c0.03488-0.07274 0.0544-0.15421 0.0544-0.24024 0-0.30774-0.24992-0.55722-0.55821-0.55722s-0.55821 0.24947-0.55821 0.55722c0 0.30774 0.24992 0.55722 0.55821 0.55722 0.08618 0 0.1678-0.01949 0.24067-0.0543l0.76412 0.76275v3.8952l-1.3397-1.3373v-1.0692c0.21681-0.07649 0.37214-0.28289 0.37214-0.52551 0-0.30774-0.24992-0.55722-0.55821-0.55722s-0.55821 0.24948-0.55821 0.55722c0 0.24262 0.15533 0.44902 0.37214 0.52551v0.69773l-1.042-1.0401v-1.0321c0.21681-0.07649 0.37214-0.2829 0.37214-0.52551 0-0.30774-0.24992-0.55722-0.55821-0.55722s-0.55821 0.24948-0.55821 0.55722c0 0.24262 0.15533 0.44902 0.37214 0.52551v1.1859l1.151 1.1489h-0.66176c-0.07663-0.21642-0.2834-0.37148-0.52645-0.37148-0.30829 0-0.55821 0.24947-0.55821 0.55722 0 0.30774 0.24992 0.55722 0.55821 0.55722 0.24305 0 0.44982-0.15506 0.52645-0.37148h1.0339l1.6029 1.6v2.7808l-0.85593-0.8544v-1.0692c0.21681-0.0765 0.37214-0.2829 0.37214-0.52551 0-0.30774-0.24992-0.55722-0.55821-0.55722s-0.55821 0.24948-0.55821 0.55722c0 0.24262 0.15533 0.44902 0.37214 0.52551v0.69773l-1.2453-1.243c0.03487-0.07274 0.0544-0.15421 0.0544-0.24024 0-0.30774-0.24992-0.55722-0.55821-0.55722s-0.55821 0.24948-0.55821 0.55722 0.24992 0.55722 0.55821 0.55722c0.08618 0 0.1678-0.0195 0.24067-0.05431l1.2453 1.243h-0.66176c-0.07663-0.21642-0.2834-0.37148-0.52645-0.37148-0.30829 0-0.55821 0.24947-0.55821 0.55722s0.24992 0.55722 0.55821 0.55722c0.24305 0 0.44982-0.15506 0.52645-0.37148h1.0339l1.042 1.0401h0.52629l1.0792-1.0773h0.99669c0.07663 0.21642 0.2834 0.37148 0.52645 0.37148 0.30829 0 0.55821-0.24947 0.55821-0.55722 0-0.30774-0.24992-0.55722-0.55821-0.55722-0.24305 0-0.44982 0.15506-0.52645 0.37148h-1.1508l-1.0021 1.0004v-1.2206l1.1935-1.1914h1.927c0.07663 0.21642 0.2834 0.37148 0.52645 0.37148 0.30829 0 0.55821-0.24948 0.55821-0.55722s-0.24992-0.55722-0.55821-0.55722c-0.24305 0-0.44982 0.15506-0.52645 0.37148h-1.5549l1.1138-1.1118v-0.9287l0.80133-0.7999c0.07287 0.03481 0.15449 0.05431 0.24067 0.05431 0.30829 0 0.55821-0.24947 0.55821-0.55722 0-0.30774-0.24992-0.55722-0.55821-0.55722s-0.55821 0.24947-0.55821 0.55722c0 0.08602 0.01953 0.1675 0.0544 0.24024l-0.53819 0.53723v-1.7007c0.21681-0.07649 0.37214-0.28289 0.37214-0.52551 0-0.30774-0.24992-0.55722-0.55821-0.55722s-0.55822 0.24947-0.55822 0.55722c0 0.24262 0.15533 0.44902 0.37214 0.52551v1.7007zm-4.8207 5.3319c-0.12332 0-0.22329-0.09979-0.22329-0.22289s0.09997-0.22289 0.22329-0.22289 0.22328 0.09979 0.22328 0.22289-0.09997 0.22289-0.22328 0.22289zm1.6374-1.6717c-0.12332 0-0.22329-0.09979-0.22329-0.22289s0.09997-0.22289 0.22329-0.22289 0.22328 0.09979 0.22328 0.22289-0.09997 0.22289-0.22328 0.22289zm-1.9351-0.26004c-0.12332 0-0.22329-0.09979-0.22329-0.22289s0.09997-0.22289 0.22329-0.22289 0.22328 0.09979 0.22328 0.22289-0.09997 0.22289-0.22328 0.22289zm-0.18607-1.8574c-0.12332 0-0.22329-0.09979-0.22329-0.22289s0.09997-0.22289 0.22329-0.22289 0.22329 0.09979 0.22329 0.22289-0.09997 0.22289-0.22329 0.22289zm4.6518 0.26004c-0.12332 0-0.22329-0.09979-0.22329-0.22289s0.09997-0.22289 0.22329-0.22289 0.22329 0.09979 0.22329 0.22289-0.09997 0.22289-0.22329 0.22289zm2.5306 1.7088c-0.12332 0-0.22329-0.09979-0.22329-0.22289s0.09997-0.22289 0.22329-0.22289 0.22328 0.09979 0.22328 0.22289-0.09997 0.22289-0.22328 0.22289zm-0.96757 1.7831c-0.12332 0-0.22329-0.09979-0.22329-0.22289s0.09997-0.22289 0.22329-0.22289 0.22328 0.09979 0.22328 0.22289-0.09997 0.22289-0.22328 0.22289zm1.042-5.3121c-0.12332 0-0.22329-0.09979-0.22329-0.22289s0.09997-0.22289 0.22329-0.22289 0.22329 0.09979 0.22329 0.22289-0.09997 0.22289-0.22329 0.22289zm-1.2281-1.4488c-0.12332 0-0.22329-0.09979-0.22329-0.22289s0.09997-0.22289 0.22329-0.22289 0.22328 0.09979 0.22328 0.22289-0.09997 0.22289-0.22328 0.22289zm-1.4886-0.89155c-0.12332 0-0.22329-0.09979-0.22329-0.22289s0.09997-0.22289 0.22329-0.22289 0.22328 0.09979 0.22328 0.22289-0.09997 0.22289-0.22328 0.22289zm-2.3817 0c-0.12332 0-0.22329-0.09979-0.22329-0.22289s0.09997-0.22289 0.22329-0.22289 0.22329 0.09979 0.22329 0.22289-0.09997 0.22289-0.22329 0.22289zm-1.9351 0.8544c-0.12332 0-0.22329-0.09979-0.22329-0.22289s0.09997-0.22289 0.22329-0.22289 0.22328 0.09979 0.22328 0.22289-0.09997 0.22289-0.22328 0.22289zm1.4141 1.3745c-0.12332 0-0.22328-0.09979-0.22328-0.22289s0.09997-0.22289 0.22328-0.22289c0.12332 0 0.22329 0.09979 0.22329 0.22289s-0.09997 0.22289-0.22329 0.22289zm3.1632 0.11144c-0.12332 0-0.22329-0.09979-0.22329-0.22289s0.09997-0.22289 0.22329-0.22289 0.22328 0.09979 0.22328 0.22289-0.09997 0.22289-0.22328 0.22289z" fill="#fff"/>
    <g display="none" fill="none">
        <rect transform="rotate(90)" x="7.8232" y="-20.923" width="13.1" height="13.1" display="inline" stroke="#000" stroke-width=".070382"/>
        <rect x="7.2241" y="8.6528" width="14.298" height="11.441" stroke="#5261ff" stroke-linecap="round" stroke-linejoin="round" stroke-width=".06959"/>
        <rect transform="rotate(90)" x="7.2241" y="-20.094" width="14.298" height="11.441" display="inline" stroke="#0f0" stroke-linecap="round" stroke-linejoin="round" stroke-width=".06959"/>
    </g>
</svg>
