<?xml version="1.0" encoding="UTF-8"?>
<svg version="1.1" viewBox="0 0 28.747 28.747" xmlns="http://www.w3.org/2000/svg">
    <defs>
        <filter id="filter6206-7" color-interpolation-filters="sRGB">
            <feGaussianBlur stdDeviation="0.658125"/>
        </filter>
    </defs>
    <g transform="translate(0 -1093.8)">
        <path transform="matrix(1.0781 0 0 1.0641 -.093733 2.7509)" d="m4.4177 1028.2v1.6051h-1.6052v18.192h1.6052v2.1402h18.192v-2.1402h2.1402v-18.192h-2.1402v-1.6051z" fill="#232323" filter="url(#filter6206-7)" opacity=".2"/>
        <rect x="2.9987" y="1096.8" width="22.749" height="22.749" rx="1.1973" ry="1.1974" fill="#232323"/>
        <g transform="translate(-22.32 1056.5)">
            <path d="m0 0h51.2v51.2h-51.2z" fill="none" stroke-width="1.0667"/>
            <g transform="matrix(.33601 0 0 .33601 1.5296 73.043)">
                <path d="m0 0h51.2v51.2h-51.2z" fill="none" stroke-width="1.0667"/>
            </g>
            <g transform="matrix(.37187 0 0 .37187 38.802 63.239)">
                <path d="m0 0h51.2v51.2h-51.2z" fill="none" stroke-width="1.0667"/>
                <g transform="matrix(2.6891 0 0 2.6891 -82.906 -48.45)">
                    <path d="m0 0h51.2v51.2h-51.2z" fill="none" stroke-width="1.0667"/>
                </g>
            </g>
        </g>
        <path d="m4.1958 1096.8c-0.66332 0-1.1979 0.5346-1.1979 1.1979v0.3334c0-0.6634 0.53459-1.1979 1.1979-1.1979h20.354c0.66332 0 1.1979 0.5345 1.1979 1.1979v-0.3334c0-0.6633-0.5346-1.1979-1.1979-1.1979z" fill="#fff" opacity=".2"/>
        <rect x="128" y="546.52" width="42.667" height="42.667" fill="none" stroke-width="1.0667"/>
        <rect x="128" y="631.85" width="42.667" height="42.667" fill="none" stroke-width="1.0667"/>
        <rect x="128" y="674.52" width="42.667" height="42.667" fill="none" stroke-width="1.0667"/>
        <rect x="128" y="589.19" width="42.667" height="42.667" fill="none" stroke-width="1.0667"/>
        <rect x="128" y="717.19" width="42.667" height="42.667" fill="none" stroke-width="1.0667"/>
        <rect x="213.33" y="546.52" width="42.667" height="42.667" fill="none" stroke-width="1.0667"/>
        <rect x="213.33" y="631.85" width="42.667" height="42.667" fill="none" stroke-width="1.0667"/>
        <rect x="213.33" y="674.52" width="42.667" height="42.667" fill="none" stroke-width="1.0667"/>
        <rect x="213.33" y="589.19" width="42.667" height="42.667" fill="none" stroke-width="1.0667"/>
        <rect x="213.33" y="717.19" width="42.667" height="42.667" fill="none" stroke-width="1.0667"/>
        <rect x="298.67" y="546.52" width="42.667" height="42.667" fill="none" stroke-width="1.0667"/>
        <rect x="298.67" y="631.85" width="42.667" height="42.667" fill="none" stroke-width="1.0667"/>
        <rect x="298.67" y="674.52" width="42.667" height="42.667" fill="none" stroke-width="1.0667"/>
        <rect x="298.67" y="589.19" width="42.667" height="42.667" fill="none" stroke-width="1.0667"/>
        <rect x="298.67" y="717.19" width="42.667" height="42.667" fill="none" stroke-width="1.0667"/>
        <rect x="170.67" y="546.52" width="42.667" height="42.667" fill="none" stroke-width="1.0667"/>
        <rect x="170.67" y="631.85" width="42.667" height="42.667" fill="none" stroke-width="1.0667"/>
        <rect x="170.67" y="674.52" width="42.667" height="42.667" fill="none" stroke-width="1.0667"/>
        <rect x="170.67" y="589.19" width="42.667" height="42.667" fill="none" stroke-width="1.0667"/>
        <rect x="170.67" y="717.19" width="42.667" height="42.667" fill="none" stroke-width="1.0667"/>
        <rect x="256" y="546.52" width="42.667" height="42.667" fill="none" stroke-width="1.0667"/>
        <rect x="256" y="631.85" width="42.667" height="42.667" fill="none" stroke-width="1.0667"/>
        <rect x="256" y="674.52" width="42.667" height="42.667" fill="none" stroke-width="1.0667"/>
        <rect x="256" y="589.19" width="42.667" height="42.667" fill="none" stroke-width="1.0667"/>
        <rect x="256" y="717.19" width="42.667" height="42.667" fill="none" stroke-width="1.0667"/>
        <rect x="128" y="759.85" width="42.667" height="42.667" fill="none" stroke-width="1.0667"/>
        <rect x="213.33" y="759.85" width="42.667" height="42.667" fill="none" stroke-width="1.0667"/>
        <rect x="298.67" y="759.85" width="42.667" height="42.667" fill="none" stroke-width="1.0667"/>
        <rect x="170.67" y="759.85" width="42.667" height="42.667" fill="none" stroke-width="1.0667"/>
        <rect x="256" y="759.85" width="42.667" height="42.667" fill="none" stroke-width="1.0667"/>
        <rect x="341.33" y="589.19" width="42.667" height="42.667" fill="none" stroke-width="1.0667"/>
        <rect x="341.33" y="631.85" width="42.667" height="42.667" fill="none" stroke-width="1.0667"/>
        <rect x="341.33" y="717.19" width="42.667" height="42.667" fill="none" stroke-width="1.0667"/>
        <rect x="341.33" y="546.52" width="42.667" height="42.667" fill="none" stroke-width="1.0667"/>
        <rect x="341.33" y="674.52" width="42.667" height="42.667" fill="none" stroke-width="1.0667"/>
        <rect x="341.33" y="759.85" width="42.667" height="42.667" fill="none" stroke-width="1.0667"/>
        <rect x="160" y="578.52" width="192" height="192" fill="none" stroke-width="1.0667"/>
        <g transform="matrix(.37344 0 0 .37344 4.7333 1097.4)">
            <path d="m0 0h51.2v51.2h-51.2z" fill="none" stroke-width="1.0667"/>
        </g>
        <g transform="matrix(.36471 0 0 .36471 5.1356 1097.4)">
            <path d="m0 0h51.2v51.2h-51.2z" fill="none" stroke-width="1.0667"/>
        </g>
        <g transform="matrix(.41585 0 0 .41585 84.325 1055.9)">
            <g transform="matrix(.062269 0 0 .062269 -28.238 185.29)">
                <g transform="matrix(38.618 0 0 38.618 14724 -13542)">
                    <g transform="matrix(.71436 0 0 .71436 -400.52 188.34)">
                        <path d="m1293.2-120.67c-181.75 0.2763-511.18 0.13525-699.05 0.13998-2.3216 10.413-3.593 21.251-3.593 32.384v114c207.65 0.73695 494.72 0.38136 706.23 0.3733v-114.37c0-11.18-1.2522-22.07-3.593-32.523zm-458.69 295.56c-78.385-4e-3 -158.85 0.17892-243.95 0.55995v138.63c286.34-0.39317 421.73-0.13827 706.23-0.32664v-137.75c-163.2-0.53005-311.22-1.1113-462.28-1.1199z" opacity="0" stroke-width="1.4932"/>
                    </g>
                </g>
            </g>
        </g>
        <path d="m24.549 1119.5c0.66325 0 1.1979-0.5346 1.1979-1.1979v-0.3333c0 0.6632-0.53461 1.1978-1.1979 1.1978h-20.354c-0.66325 0-1.1979-0.5346-1.1979-1.1978v0.3333c0 0.6633 0.53461 1.1979 1.1979 1.1979z" fill="#232323" opacity=".2"/>
    </g>
    <path d="m9.6168 20.363c-0.07254-0.34743-0.30543-1.091-0.51753-1.6524-0.50958-1.3487-0.5834-2.1518-0.27068-2.9445 0.18835-0.47745 0.23332-0.8066 0.22385-1.6384-0.00652-0.57248 0.039426-1.3619 0.1021-1.7543 0.25531-1.5984 0.96266-3.525 1.5663-4.2661 0.26546-0.3259 0.26546-0.3259 0.70687 0.13746 0.5633 0.59132 1.2432 1.8211 1.4971 2.708 0.19556 0.68294 0.20146 0.6899 0.52419 0.61752 0.33567-0.07528 1.7343-0.09268 1.9912-0.02478 0.09224 0.02438 0.21266-0.17701 0.3345-0.5594 0.38527-1.2092 1.2498-2.6381 1.8226-3.0125 0.22549-0.14739 0.25701-0.12588 0.62263 0.42487 0.8404 1.2659 1.4935 3.7797 1.4735 5.671-0.0094 0.89036 0.03307 1.2125 0.22386 1.6965 0.31965 0.81098 0.23933 1.5951-0.31278 3.0533-0.23512 0.62101-0.46438 1.3491-0.50946 1.618-0.08196 0.48886-0.08196 0.48886-0.21659 0.10308-0.25563-0.73251-0.29208-1.4387-0.11393-2.207 0.25693-1.108 0.22535-1.5896-0.137-2.0893-0.73091-1.008-1.6183-1.4925-2.628-1.435-0.5614 0.03201-0.60072 0.05408-0.83383 0.46813-0.13456 0.239-0.32306 0.80118-0.41889 1.2493-0.3026 1.415-0.32466 1.4479-0.47391 0.70612-0.20824-1.0349-0.42118-1.7098-0.66323-2.1022-0.22458-0.364-0.22458-0.364-1.1243-0.3259-0.7734 0.03275-0.97327 0.08386-1.4236 0.364-1.1901 0.74045-1.4624 1.4483-1.1277 2.9321 0.23234 1.0301 0.22001 1.7225-0.044273 2.486-0.14123 0.40798-0.14123 0.40798-0.27312-0.22371zm0.90015-6.8915c0.23896-0.24429 0.71478-0.66563 1.0574-0.93631 0.67513-0.5334 0.65127-0.44137 0.38705-1.4929-0.13521-0.53807-0.55606-1.3806-0.78425-1.57-0.14822-0.12303-0.19318-0.09011-0.33258 0.24358-0.41124 0.98439-0.92501 3.2722-0.92501 4.1191 0 0.17435 0.17611 0.06719 0.5974-0.36349zm8.2653 0.09475c-0.0296-0.19418-0.08135-0.60195-0.115-0.90616-0.12448-1.1255-0.85946-3.4668-1.0511-3.3483-0.34417 0.21274-1.0763 1.9005-1.0665 2.4585 0.0029 0.1639 0.18253 0.3884 0.53038 0.66278 0.28931 0.22821 0.76391 0.6537 1.0547 0.94554 0.29075 0.29184 0.56752 0.53287 0.61503 0.53562 0.04752 0.0028 0.06216-0.15387 0.03256-0.34805zm-5.1697 6.2407c0-0.17277 0.67376-0.99911 0.81463-0.99911 0.17641 0 0.82963 0.86556 0.75021 0.99408-0.0725 0.11733-1.5648 0.12213-1.5648 0.0051zm-1.7012-1.9801c-0.29066-0.11296-0.41219-0.46141-0.26007-0.74568 0.27893-0.52127 1.0205-0.34579 0.96288 0.22786-0.04073 0.40545-0.3692 0.64747-0.7028 0.51782zm4.466-0.15472c-0.30091-0.30095-0.24991-0.67383 0.11489-0.84007 0.47203-0.2151 0.95909 0.30538 0.71414 0.76314-0.1776 0.3319-0.54044 0.36556-0.82902 0.07693z" stroke="#000" stroke-linecap="round" stroke-linejoin="round" stroke-width=".2"/>
    <g fill="#fff">
        <path d="m11.028 7.781c-0.07786-0.01514-0.15531 0.021776-0.21094 0.070312s-0.10746 0.11188-0.17383 0.19336c-0.31654 0.38861-0.64331 1.0599-0.92969 1.8398-0.28638 0.77999-0.52731 1.6654-0.65625 2.4727-0.06477 0.40548-0.11011 1.1926-0.10352 1.7715 0.0094 0.82785-0.03221 1.1317-0.2168 1.5996-0.32315 0.81918-0.24356 1.6596 0.26953 3.0176 0.21034 0.55669 0.44405 1.3033 0.51367 1.6367 0.03297 0.15792 0.056425 0.27708 0.078125 0.36328 0.01085 0.0431 0.021883 0.07737 0.033203 0.10742 0.01133 0.03005 0.018521 0.05666 0.056641 0.08789 0.01906 0.01561 0.054141 0.03129 0.087891 0.02734 0.03375-0.0039 0.056012-0.02147 0.070312-0.03516 0.0286-0.02737 0.037681-0.05169 0.050781-0.08008 0.0262-0.05677 0.052581-0.13238 0.087891-0.23438 0.27008-0.78023 0.2815-1.5008 0.046875-2.541-0.1653-0.73286-0.17634-1.2575-0.01172-1.6855 0.16463-0.42803 0.50987-0.77419 1.0957-1.1387 0.44364-0.27601 0.60526-0.31702 1.375-0.34961 0.44986-0.01905 0.67407-0.0238 0.7832 0.0078 0.05457 0.01582 0.08297 0.03608 0.11914 0.07617s0.07667 0.10431 0.13281 0.19531c0.2289 0.37101 0.4431 1.0381 0.65039 2.0684 0.03743 0.18604 0.06521 0.32362 0.09766 0.41602 0.01622 0.0462 0.02282 0.08424 0.08008 0.12305 0.02863 0.0194 0.08226 0.02545 0.11719 0.0098 0.03493-0.01576 0.0511-0.03674 0.06445-0.05664 0.05343-0.07961 0.08134-0.18984 0.12891-0.38281s0.10596-0.46054 0.18164-0.81445c0.0938-0.43862 0.28695-1.0053 0.4082-1.2207 0.11575-0.20559 0.17343-0.29466 0.25391-0.33984 0.08047-0.04518 0.21852-0.06217 0.49805-0.07813 0.9745-0.05556 1.8237 0.40535 2.541 1.3945 0.17303 0.23862 0.26129 0.45929 0.28125 0.76367s-0.03261 0.69411-0.16016 1.2441c-0.18188 0.78438-0.14601 1.5131 0.11523 2.2617 0.03366 0.09644 0.05889 0.16928 0.08203 0.22266 0.01157 0.02669 0.02217 0.04818 0.04102 0.07227 0.0094 0.01204 0.02191 0.02686 0.04687 0.03906 0.02497 0.01221 0.06683 0.01374 0.0957 0 0.05774-0.02748 0.06082-0.06047 0.07031-0.08594 0.0095-0.02547 0.01613-0.05232 0.02344-0.08594 0.01461-0.06723 0.03029-0.15904 0.05078-0.28125 0.0408-0.24338 0.27033-0.98072 0.50391-1.5977 0.55517-1.4663 0.64231-2.2902 0.3125-3.127-0.1871-0.47467-0.22616-0.77127-0.2168-1.6582 0.02029-1.9153-0.6293-4.4297-1.4902-5.7266-0.18321-0.27598-0.27425-0.42254-0.39063-0.50195-0.05819-0.039706-0.13395-0.054908-0.19726-0.039063s-0.11368 0.04985-0.17188 0.087891c-0.31589 0.20647-0.67384 0.66291-1.0137 1.2246s-0.65387 1.2255-0.84961 1.8398c-0.05957 0.18695-0.12013 0.32884-0.16992 0.41211-0.02489 0.04163-0.04696 0.06858-0.05859 0.07812-0.01164 0.0095 5.94e-4 -5e-5 0.01563 0.0039-0.08692-0.02297-0.21959-0.03223-0.39453-0.03906-0.17494-0.0068-0.38635-0.0085-0.59961-0.0059-0.42652 0.0053-0.84976 0.02459-1.0449 0.06836-0.08029 0.018-0.13682 0.02803-0.16602 0.02734-0.0292-6.82e-4 -0.02919 0.0013-0.04687-0.01953-0.03542-0.04171-0.09563-0.21338-0.19336-0.55469-0.26026-0.90871-0.93815-2.1376-1.5215-2.75-0.11035-0.11584-0.19262-0.20313-0.26367-0.26758-0.07105-0.064449-0.13113-0.11181-0.20898-0.12695zm6.6055 1.6602c0.03107 0.045362 0.07318 0.12298 0.11914 0.22656 0.09505 0.21423 0.20941 0.52759 0.32031 0.88086 0.2218 0.70653 0.43539 1.5722 0.49609 2.1211 0.0338 0.30563 0.08511 0.71447 0.11524 0.91211 0.0108 0.07082 0.01067 0.12436 0.0098 0.17383-0.02862-0.02273-0.05582-0.04314-0.09375-0.07617-0.109-0.09492-0.25064-0.22666-0.39453-0.37109-0.29485-0.29595-0.76749-0.72237-1.0625-0.95508-0.17008-0.13416-0.2975-0.25373-0.37891-0.35547s-0.11246-0.18422-0.11328-0.23047c-0.0041-0.23353 0.1685-0.80437 0.39062-1.3164 0.11106-0.25602 0.23384-0.50166 0.34766-0.69336 0.0996-0.16776 0.18726-0.26675 0.24414-0.31641zm-6.5703 0.072266c0.0094 0.0049 0.02354 0.012541 0.05078 0.035156 0.08127 0.067463 0.25435 0.32677 0.40234 0.62305 0.148 0.29627 0.28498 0.63732 0.34961 0.89453 0.13245 0.52711 0.19159 0.76187 0.1582 0.89062-0.01669 0.06438-0.05285 0.11873-0.13477 0.19531-0.08192 0.07659-0.2073 0.17065-0.37695 0.30469-0.34687 0.27405-0.82124 0.69468-1.0664 0.94531-0.1964 0.20078-0.33075 0.31511-0.41211 0.36914 0.0154-0.83883 0.50902-3.0714 0.9043-4.0176 0.06612-0.15828 0.1172-0.23148 0.125-0.24023zm1.0215 7.1602c-0.20078 0.01906-0.40219 0.13644-0.52148 0.35938-0.17861 0.33378-0.0341 0.75202 0.3125 0.88672 0.19671 0.07645 0.4024 0.04333 0.55664-0.07031s0.25841-0.30389 0.28125-0.53125c0.03317-0.33028-0.17625-0.57042-0.43164-0.63086-0.06385-0.01511-0.13034-0.02003-0.19727-0.01367zm4.5742 0.01172c-0.06859 0.0063-0.13815 0.0233-0.20703 0.05469-0.20647 0.09409-0.3395 0.25908-0.36523 0.44727-0.02574 0.18819 0.05365 0.38761 0.2207 0.55469 0.16048 0.16051 0.35134 0.23971 0.53516 0.22266 0.18382-0.01706 0.35162-0.13258 0.45312-0.32227 0.14292-0.26709 0.07211-0.56232-0.10352-0.75-0.13172-0.14076-0.32743-0.22583-0.5332-0.20703zm-2.2305 2.0215c-0.06649 0-0.09645 0.02715-0.13476 0.05469s-0.07743 0.06328-0.12109 0.10547c-0.08733 0.08437-0.18823 0.19602-0.2832 0.3125-0.09498 0.11648-0.18361 0.23735-0.25195 0.34375-0.03417 0.0532-0.06444 0.10346-0.08594 0.14844-0.02149 0.04498-0.03906 0.08067-0.03906 0.13477 0 0.06045 0.04384 0.09317 0.06836 0.10742 0.02452 0.01426 0.04502 0.02065 0.07031 0.02734 0.05058 0.01339 0.11217 0.02192 0.18555 0.0293 0.14675 0.01475 0.33762 0.02211 0.53125 0.02148 0.19363-6.28e-4 0.38977-0.0078 0.54492-0.02344 0.07757-0.0078 0.14422-0.01843 0.19922-0.03125 0.0275-0.0064 0.0525-0.0132 0.07617-0.02344s0.04957-0.02065 0.07422-0.06055c0.03923-0.06349 0.02349-0.11337 0.0098-0.16016-0.01379-0.04678-0.03611-0.0952-0.06445-0.14844-0.05669-0.10647-0.13837-0.23016-0.22852-0.34961-0.09014-0.11944-0.18924-0.23396-0.2793-0.32226-0.04503-0.04415-0.08694-0.08036-0.12891-0.10938-0.04196-0.02902-0.07964-0.05664-0.14258-0.05664z" color="#000000" fill="#fff" stroke-linecap="round" stroke-linejoin="round" stroke-width=".2"/>
    </g>
    <g display="none" fill="none">
        <rect transform="rotate(90)" x="7.8232" y="-20.923" width="13.1" height="13.1" display="inline" stroke="#000" stroke-width=".070382"/>
        <rect x="7.2241" y="8.6528" width="14.298" height="11.441" stroke="#5261ff" stroke-linecap="round" stroke-linejoin="round" stroke-width=".06959"/>
        <rect transform="rotate(90)" x="7.2241" y="-20.094" width="14.298" height="11.441" display="inline" stroke="#0f0" stroke-linecap="round" stroke-linejoin="round" stroke-width=".06959"/>
    </g>
</svg>
