<?xml version="1.0" encoding="UTF-8"?>
<svg version="1.1" viewBox="0 0 28.747 28.747" xmlns="http://www.w3.org/2000/svg">
    <defs>
        <filter id="filter6206-7" color-interpolation-filters="sRGB">
            <feGaussianBlur stdDeviation="0.658125"/>
        </filter>
    </defs>
    <g transform="translate(0 -1093.8)">
        <path transform="matrix(1.0781 0 0 1.0641 -.093733 2.7509)" d="m4.4177 1028.2v1.6051h-1.6052v18.192h1.6052v2.1402h18.192v-2.1402h2.1402v-18.192h-2.1402v-1.6051z" fill="#232323" filter="url(#filter6206-7)" opacity=".2"/>
        <rect x="2.9987" y="1096.8" width="22.749" height="22.749" rx="1.1973" ry="1.1974" fill="#232323"/>
        <g transform="translate(-22.32 1056.5)">
            <path d="m0 0h51.2v51.2h-51.2z" fill="none" stroke-width="1.0667"/>
            <g transform="matrix(.33601 0 0 .33601 1.5296 73.043)">
                <path d="m0 0h51.2v51.2h-51.2z" fill="none" stroke-width="1.0667"/>
            </g>
            <g transform="matrix(.37187 0 0 .37187 38.802 63.239)">
                <path d="m0 0h51.2v51.2h-51.2z" fill="none" stroke-width="1.0667"/>
                <g transform="matrix(2.6891 0 0 2.6891 -82.906 -48.45)">
                    <path d="m0 0h51.2v51.2h-51.2z" fill="none" stroke-width="1.0667"/>
                </g>
            </g>
        </g>
        <path d="m4.1958 1096.8c-0.66332 0-1.1979 0.5346-1.1979 1.1979v0.3334c0-0.6634 0.53459-1.1979 1.1979-1.1979h20.354c0.66332 0 1.1979 0.5345 1.1979 1.1979v-0.3334c0-0.6633-0.5346-1.1979-1.1979-1.1979z" fill="#fff" opacity=".2"/>
        <rect x="128" y="546.52" width="42.667" height="42.667" fill="none" stroke-width="1.0667"/>
        <rect x="128" y="631.85" width="42.667" height="42.667" fill="none" stroke-width="1.0667"/>
        <rect x="128" y="674.52" width="42.667" height="42.667" fill="none" stroke-width="1.0667"/>
        <rect x="128" y="589.19" width="42.667" height="42.667" fill="none" stroke-width="1.0667"/>
        <rect x="128" y="717.19" width="42.667" height="42.667" fill="none" stroke-width="1.0667"/>
        <rect x="213.33" y="546.52" width="42.667" height="42.667" fill="none" stroke-width="1.0667"/>
        <rect x="213.33" y="631.85" width="42.667" height="42.667" fill="none" stroke-width="1.0667"/>
        <rect x="213.33" y="674.52" width="42.667" height="42.667" fill="none" stroke-width="1.0667"/>
        <rect x="213.33" y="589.19" width="42.667" height="42.667" fill="none" stroke-width="1.0667"/>
        <rect x="213.33" y="717.19" width="42.667" height="42.667" fill="none" stroke-width="1.0667"/>
        <rect x="298.67" y="546.52" width="42.667" height="42.667" fill="none" stroke-width="1.0667"/>
        <rect x="298.67" y="631.85" width="42.667" height="42.667" fill="none" stroke-width="1.0667"/>
        <rect x="298.67" y="674.52" width="42.667" height="42.667" fill="none" stroke-width="1.0667"/>
        <rect x="298.67" y="589.19" width="42.667" height="42.667" fill="none" stroke-width="1.0667"/>
        <rect x="298.67" y="717.19" width="42.667" height="42.667" fill="none" stroke-width="1.0667"/>
        <rect x="170.67" y="546.52" width="42.667" height="42.667" fill="none" stroke-width="1.0667"/>
        <rect x="170.67" y="631.85" width="42.667" height="42.667" fill="none" stroke-width="1.0667"/>
        <rect x="170.67" y="674.52" width="42.667" height="42.667" fill="none" stroke-width="1.0667"/>
        <rect x="170.67" y="589.19" width="42.667" height="42.667" fill="none" stroke-width="1.0667"/>
        <rect x="170.67" y="717.19" width="42.667" height="42.667" fill="none" stroke-width="1.0667"/>
        <rect x="256" y="546.52" width="42.667" height="42.667" fill="none" stroke-width="1.0667"/>
        <rect x="256" y="631.85" width="42.667" height="42.667" fill="none" stroke-width="1.0667"/>
        <rect x="256" y="674.52" width="42.667" height="42.667" fill="none" stroke-width="1.0667"/>
        <rect x="256" y="589.19" width="42.667" height="42.667" fill="none" stroke-width="1.0667"/>
        <rect x="256" y="717.19" width="42.667" height="42.667" fill="none" stroke-width="1.0667"/>
        <rect x="128" y="759.85" width="42.667" height="42.667" fill="none" stroke-width="1.0667"/>
        <rect x="213.33" y="759.85" width="42.667" height="42.667" fill="none" stroke-width="1.0667"/>
        <rect x="298.67" y="759.85" width="42.667" height="42.667" fill="none" stroke-width="1.0667"/>
        <rect x="170.67" y="759.85" width="42.667" height="42.667" fill="none" stroke-width="1.0667"/>
        <rect x="256" y="759.85" width="42.667" height="42.667" fill="none" stroke-width="1.0667"/>
        <rect x="341.33" y="589.19" width="42.667" height="42.667" fill="none" stroke-width="1.0667"/>
        <rect x="341.33" y="631.85" width="42.667" height="42.667" fill="none" stroke-width="1.0667"/>
        <rect x="341.33" y="717.19" width="42.667" height="42.667" fill="none" stroke-width="1.0667"/>
        <rect x="341.33" y="546.52" width="42.667" height="42.667" fill="none" stroke-width="1.0667"/>
        <rect x="341.33" y="674.52" width="42.667" height="42.667" fill="none" stroke-width="1.0667"/>
        <rect x="341.33" y="759.85" width="42.667" height="42.667" fill="none" stroke-width="1.0667"/>
        <rect x="160" y="578.52" width="192" height="192" fill="none" stroke-width="1.0667"/>
        <g transform="matrix(.37344 0 0 .37344 4.7333 1097.4)">
            <path d="m0 0h51.2v51.2h-51.2z" fill="none" stroke-width="1.0667"/>
        </g>
        <g transform="matrix(.36471 0 0 .36471 5.1356 1097.4)">
            <path d="m0 0h51.2v51.2h-51.2z" fill="none" stroke-width="1.0667"/>
        </g>
        <g transform="matrix(.41585 0 0 .41585 84.325 1055.9)">
            <g transform="matrix(.062269 0 0 .062269 -28.238 185.29)">
                <g transform="matrix(38.618 0 0 38.618 14724 -13542)">
                    <g transform="matrix(.71436 0 0 .71436 -400.52 188.34)">
                        <path d="m1293.2-120.67c-181.75 0.2763-511.18 0.13525-699.05 0.13998-2.3216 10.413-3.593 21.251-3.593 32.384v114c207.65 0.73695 494.72 0.38136 706.23 0.3733v-114.37c0-11.18-1.2522-22.07-3.593-32.523zm-458.69 295.56c-78.385-4e-3 -158.85 0.17892-243.95 0.55995v138.63c286.34-0.39317 421.73-0.13827 706.23-0.32664v-137.75c-163.2-0.53005-311.22-1.1113-462.28-1.1199z" opacity="0" stroke-width="1.4932"/>
                    </g>
                </g>
            </g>
        </g>
        <path d="m24.549 1119.5c0.66325 0 1.1979-0.5346 1.1979-1.1979v-0.3333c0 0.6632-0.53461 1.1978-1.1979 1.1978h-20.354c-0.66325 0-1.1979-0.5346-1.1979-1.1978v0.3333c0 0.6633 0.53461 1.1979 1.1979 1.1979z" fill="#232323" opacity=".2"/>
    </g>
    <path d="m14.461 9.6634c-0.55941 0.018642-1.1289 0.15921-1.6556 0.4195-0.38964 0.19258-0.73931 0.43145-1.0611 0.69992a0.72624 0.72624 0 0 0-0.64608-0.39482 0.72624 0.72624 0 0 0-0.72684 0.72459 0.72624 0.72624 0 0 0 0.45091 0.673c-0.60895 0.86022-1.002 1.9251-1.1396 3.1766-0.00957 0.08724-0.018309 0.13858-0.026923 0.20414 0.04839 0.03089 0.084329 0.06642 0.1346 0.09645 1.1551 0.69031 2.7826 1.1306 4.5831 1.1306 1.7899 0 3.4046-0.43615 4.5584-1.1194-0.02822-0.11352-0.05491-0.2335-0.07628-0.43296-0.12382-1.1562-0.45942-2.2036-0.94893-3.0487a0.72624 0.72624 0 0 0 0.46661-0.67973 0.72624 0.72624 0 0 0-0.72684-0.7246 0.72624 0.72624 0 0 0-0.58551 0.29836c-0.30828-0.3011-0.64686-0.54346-1.0095-0.71337-0.48368-0.22662-1.0311-0.32822-1.5905-0.30958zm-1.1777 2.6157a0.36184 0.36184 0 0 1 0.02693 0 0.36184 0.36184 0 0 1 0.36118 0.36342 0.36184 0.36184 0 0 1-0.36118 0.36118 0.36184 0.36184 0 0 1-0.36118-0.36118 0.36184 0.36184 0 0 1 0.33426-0.36342zm2.1222 0a0.36184 0.36184 0 0 1 0.0023 0 0.36184 0.36184 0 0 1 0.02692 0 0.36184 0.36184 0 0 1 0.36342 0.36342 0.36184 0.36184 0 0 1-0.36348 0.36118 0.36184 0.36184 0 0 1-0.36118-0.36118 0.36184 0.36184 0 0 1 0.33201-0.36342zm-1.7229 1.8687a0.17229 0.17229 0 0 1 0.17274 0.17274c0 0.08981 0.0637 0.22743 0.17049 0.33201 0.1068 0.10457 0.24673 0.16733 0.34099 0.16601 0.07621-0.0011 0.22461-0.06484 0.3365-0.17049 0.1119-0.10565 0.18171-0.24322 0.18171-0.32753a0.17229 0.17229 0 0 1 0.17274-0.17274 0.17229 0.17229 0 0 1 0.17274 0.17274c0 0.22972-0.12999 0.42603-0.28939 0.57654s-0.35596 0.26395-0.56981 0.26696c-0.22589 0.0032-0.42853-0.11099-0.58551-0.26471-0.15698-0.15373-0.27593-0.35456-0.27593-0.57878a0.17229 0.17229 0 0 1 0.17274-0.17274zm-4.296 1.5277c-0.083273 0.04572-0.18973 0.09249-0.34323 0.15479-1.148 0.46594-2.0844 1.238-1.752 1.4447 0.10729 0.06673 1.4264 0.39743 2.6292 0.65954 0.1274 0.02776 0.23106 0.11542 0.23106 0.19517-6e-6 0.53587 1.1615 0.76108 1.6107 0.31182 0.36763-0.36763 1.4235-0.28075 1.5255 0.12563 0.03803 0.15154 0.19536 0.3081 0.39483 0.39482 0.68084 0.29603 1.7206 0.02522 1.7206-0.44866 0-0.15998 0.10616-0.2039 0.62364-0.25798 0.58854-0.06151 0.6365-0.051 0.86368 0.21312 0.41219 0.4792 1.5269 0.28609 1.678-0.29163 0.02826-0.10811 0.14856-0.21846 0.2692-0.24452 1.202-0.2597 2.5143-0.59377 2.6382-0.67076 0.31142-0.19354-1.0001-1.1301-2.1334-1.5726-0.03324 0.0207-0.05812 0.04706-0.09198 0.0673-1.2655 0.7563-2.9837 1.2114-4.877 1.2114s-3.6115-0.4551-4.877-1.2114c-0.040534-0.02422-0.070294-0.05588-0.10992-0.08075z" fill="#fff"/>
    <g display="none" fill="none">
        <rect transform="rotate(90)" x="7.8232" y="-20.923" width="13.1" height="13.1" display="inline" stroke="#000" stroke-width=".070382"/>
        <rect x="7.2241" y="8.6528" width="14.298" height="11.441" stroke="#5261ff" stroke-linecap="round" stroke-linejoin="round" stroke-width=".06959"/>
        <rect transform="rotate(90)" x="7.2241" y="-20.094" width="14.298" height="11.441" display="inline" stroke="#0f0" stroke-linecap="round" stroke-linejoin="round" stroke-width=".06959"/>
    </g>
</svg>
