<?xml version="1.0" encoding="UTF-8"?>
<svg version="1.1" viewBox="0 0 28.747 28.747" xmlns="http://www.w3.org/2000/svg">
    <defs>
        <filter id="filter6206-7" color-interpolation-filters="sRGB">
            <feGaussianBlur stdDeviation="0.658125"/>
        </filter>
    </defs>
    <g transform="translate(0 -1093.8)">
        <path transform="matrix(1.0781 0 0 1.0641 -.093733 2.7509)" d="m4.4177 1028.2v1.6051h-1.6052v18.192h1.6052v2.1402h18.192v-2.1402h2.1402v-18.192h-2.1402v-1.6051z" fill="#3e2723" filter="url(#filter6206-7)" opacity=".2"/>
        <rect x="2.9987" y="1096.8" width="22.749" height="22.749" rx="1.1973" ry="1.1974" fill="#232323"/>
        <g transform="translate(-22.32 1056.5)">
            <path d="m0 0h51.2v51.2h-51.2z" fill="none" stroke-width="1.0667"/>
            <g transform="matrix(.33601 0 0 .33601 1.5296 73.043)">
                <path d="m0 0h51.2v51.2h-51.2z" fill="none" stroke-width="1.0667"/>
            </g>
            <g transform="matrix(.37187 0 0 .37187 38.802 63.239)">
                <path d="m0 0h51.2v51.2h-51.2z" fill="none" stroke-width="1.0667"/>
                <g transform="matrix(2.6891 0 0 2.6891 -82.906 -48.45)">
                    <path d="m0 0h51.2v51.2h-51.2z" fill="none" stroke-width="1.0667"/>
                </g>
            </g>
        </g>
        <path d="m4.1958 1096.8c-0.66332 0-1.1979 0.5346-1.1979 1.1979v0.3334c0-0.6634 0.53459-1.1979 1.1979-1.1979h20.354c0.66332 0 1.1979 0.5345 1.1979 1.1979v-0.3334c0-0.6633-0.5346-1.1979-1.1979-1.1979z" fill="#fff" opacity=".2"/>
        <rect x="128" y="546.52" width="42.667" height="42.667" fill="none" stroke-width="1.0667"/>
        <rect x="128" y="631.85" width="42.667" height="42.667" fill="none" stroke-width="1.0667"/>
        <rect x="128" y="674.52" width="42.667" height="42.667" fill="none" stroke-width="1.0667"/>
        <rect x="128" y="589.19" width="42.667" height="42.667" fill="none" stroke-width="1.0667"/>
        <rect x="128" y="717.19" width="42.667" height="42.667" fill="none" stroke-width="1.0667"/>
        <rect x="213.33" y="546.52" width="42.667" height="42.667" fill="none" stroke-width="1.0667"/>
        <rect x="213.33" y="631.85" width="42.667" height="42.667" fill="none" stroke-width="1.0667"/>
        <rect x="213.33" y="674.52" width="42.667" height="42.667" fill="none" stroke-width="1.0667"/>
        <rect x="213.33" y="589.19" width="42.667" height="42.667" fill="none" stroke-width="1.0667"/>
        <rect x="213.33" y="717.19" width="42.667" height="42.667" fill="none" stroke-width="1.0667"/>
        <rect x="298.67" y="546.52" width="42.667" height="42.667" fill="none" stroke-width="1.0667"/>
        <rect x="298.67" y="631.85" width="42.667" height="42.667" fill="none" stroke-width="1.0667"/>
        <rect x="298.67" y="674.52" width="42.667" height="42.667" fill="none" stroke-width="1.0667"/>
        <rect x="298.67" y="589.19" width="42.667" height="42.667" fill="none" stroke-width="1.0667"/>
        <rect x="298.67" y="717.19" width="42.667" height="42.667" fill="none" stroke-width="1.0667"/>
        <rect x="170.67" y="546.52" width="42.667" height="42.667" fill="none" stroke-width="1.0667"/>
        <rect x="170.67" y="631.85" width="42.667" height="42.667" fill="none" stroke-width="1.0667"/>
        <rect x="170.67" y="674.52" width="42.667" height="42.667" fill="none" stroke-width="1.0667"/>
        <rect x="170.67" y="589.19" width="42.667" height="42.667" fill="none" stroke-width="1.0667"/>
        <rect x="170.67" y="717.19" width="42.667" height="42.667" fill="none" stroke-width="1.0667"/>
        <rect x="256" y="546.52" width="42.667" height="42.667" fill="none" stroke-width="1.0667"/>
        <rect x="256" y="631.85" width="42.667" height="42.667" fill="none" stroke-width="1.0667"/>
        <rect x="256" y="674.52" width="42.667" height="42.667" fill="none" stroke-width="1.0667"/>
        <rect x="256" y="589.19" width="42.667" height="42.667" fill="none" stroke-width="1.0667"/>
        <rect x="256" y="717.19" width="42.667" height="42.667" fill="none" stroke-width="1.0667"/>
        <rect x="128" y="759.85" width="42.667" height="42.667" fill="none" stroke-width="1.0667"/>
        <rect x="213.33" y="759.85" width="42.667" height="42.667" fill="none" stroke-width="1.0667"/>
        <rect x="298.67" y="759.85" width="42.667" height="42.667" fill="none" stroke-width="1.0667"/>
        <rect x="170.67" y="759.85" width="42.667" height="42.667" fill="none" stroke-width="1.0667"/>
        <rect x="256" y="759.85" width="42.667" height="42.667" fill="none" stroke-width="1.0667"/>
        <rect x="341.33" y="589.19" width="42.667" height="42.667" fill="none" stroke-width="1.0667"/>
        <rect x="341.33" y="631.85" width="42.667" height="42.667" fill="none" stroke-width="1.0667"/>
        <rect x="341.33" y="717.19" width="42.667" height="42.667" fill="none" stroke-width="1.0667"/>
        <rect x="341.33" y="546.52" width="42.667" height="42.667" fill="none" stroke-width="1.0667"/>
        <rect x="341.33" y="674.52" width="42.667" height="42.667" fill="none" stroke-width="1.0667"/>
        <rect x="341.33" y="759.85" width="42.667" height="42.667" fill="none" stroke-width="1.0667"/>
        <rect x="160" y="578.52" width="192" height="192" fill="none" stroke-width="1.0667"/>
        <g transform="matrix(.37344 0 0 .37344 4.7333 1097.4)">
            <path d="m0 0h51.2v51.2h-51.2z" fill="none" stroke-width="1.0667"/>
        </g>
        <g transform="matrix(.36471 0 0 .36471 5.1356 1097.4)">
            <path d="m0 0h51.2v51.2h-51.2z" fill="none" stroke-width="1.0667"/>
        </g>
        <g transform="matrix(.41585 0 0 .41585 84.325 1055.9)">
            <g transform="matrix(.062269 0 0 .062269 -28.238 185.29)">
                <g transform="matrix(38.618 0 0 38.618 14724 -13542)">
                    <g transform="matrix(.71436 0 0 .71436 -400.52 188.34)">
                        <path d="m1293.2-120.67c-181.75 0.2763-511.18 0.13525-699.05 0.13998-2.3216 10.413-3.593 21.251-3.593 32.384v114c207.65 0.73695 494.72 0.38136 706.23 0.3733v-114.37c0-11.18-1.2522-22.07-3.593-32.523zm-458.69 295.56c-78.385-4e-3 -158.85 0.17892-243.95 0.55995v138.63c286.34-0.39317 421.73-0.13827 706.23-0.32664v-137.75c-163.2-0.53005-311.22-1.1113-462.28-1.1199z" opacity="0" stroke-width="1.4932"/>
                    </g>
                </g>
            </g>
        </g>
        <path d="m24.549 1119.5c0.66325 0 1.1979-0.5346 1.1979-1.1979v-0.3333c0 0.6632-0.53461 1.1978-1.1979 1.1978h-20.354c-0.66325 0-1.1979-0.5346-1.1979-1.1978v0.3333c0 0.6633 0.53461 1.1979 1.1979 1.1979z" fill="#3e2723" opacity=".2"/>
    </g>
    <g transform="translate(-2.9555 65.18)">
        <g transform="matrix(.60505 0 0 .60505 9.1756 -679.4)" fill="#0ff" stroke="#000" stroke-linecap="round" stroke-linejoin="round" stroke-width=".82638">
            <path d="m9.6858 1028c-3.9118 0-7.1054 3.1936-7.1054 7.1054v7.5791c0 3.9118 3.1936 7.1053 7.1054 7.1053h7.5791c3.9118 0 7.1054-3.1935 7.1054-7.1053v-7.5791c0-3.9118-3.1936-7.1054-7.1054-7.1054zm0 2.8422h7.5791c2.3864 0 4.2632 1.8768 4.2632 4.2632v7.5791c0 2.3864-1.8768 4.2632-4.2632 4.2632h-7.5791c-2.3864 0-4.2632-1.8768-4.2632-4.2632v-7.5791c0-2.3864 1.8768-4.2632 4.2632-4.2632zm1.5784 1.5487a0.23687 0.23687 0 0 0-0.23684 0.2369v4.1874h-2.7145a0.23687 0.23687 0 0 0-0.16653 0.4052l5.1625 5.1606a0.23687 0.23687 0 0 0 0.33492 0l5.1625-5.1606a0.23687 0.23687 0 0 0-0.16838-0.4052h-2.7126v-4.1874a0.23687 0.23687 0 0 0-0.23685-0.2369zm-2.9495 11.062a0.23687 0.23687 0 0 0-0.23685 0.2368v1.4748a0.23687 0.23687 0 0 0 0.23685 0.2368h10.323a0.23687 0.23687 0 0 0 0.23685-0.2368v-1.4748a0.23687 0.23687 0 0 0-0.23685-0.2368z" color="#000000" fill="#fff" stroke="none"/>
        </g>
        <g display="none" fill="none">
            <path transform="rotate(90)" d="m7.3342-19.616h12.282v12.282h-12.282z" display="inline" stroke="#000" stroke-width=".065984"/>
            <path d="m6.7726 8.112h13.405v10.726h-13.405z" stroke="#5261ff" stroke-linecap="round" stroke-linejoin="round" stroke-width=".06524"/>
            <path transform="rotate(90)" d="m6.7726-18.838h13.405v10.726h-13.405z" display="inline" stroke="#0f0" stroke-linecap="round" stroke-linejoin="round" stroke-width=".06524"/>
        </g>
    </g>
    <path d="m10.373 4.3733h8c3.324 0 6 2.676 6 6v8c0 3.324-2.676 6-6 6h-8c-3.324 0-6-2.676-6-6v-8c0-3.324 2.676-6 6-6z" color="#000000" fill="none" stroke-linecap="round" stroke-linejoin="round" stroke-width="3"/>
    <g display="none" fill="none">
        <rect transform="rotate(90)" x="7.8232" y="-20.923" width="13.1" height="13.1" display="inline" stroke="#000" stroke-width=".070382"/>
        <rect x="7.2241" y="8.6528" width="14.298" height="11.441" stroke="#5261ff" stroke-linecap="round" stroke-linejoin="round" stroke-width=".06959"/>
        <rect transform="rotate(90)" x="7.2241" y="-20.094" width="14.298" height="11.441" display="inline" stroke="#0f0" stroke-linecap="round" stroke-linejoin="round" stroke-width=".06959"/>
    </g>
</svg>
