<?xml version="1.0" encoding="UTF-8"?>
<svg version="1.1" viewBox="0 0 26.95 26.95" xmlns="http://www.w3.org/2000/svg">
    <defs>
        <filter id="filter6206-7" color-interpolation-filters="sRGB">
            <feGaussianBlur stdDeviation="0.658125"/>
        </filter>
    </defs>
    <g transform="translate(0 -1025.4)">
        <path transform="matrix(1.0107 0 0 .99762 -.087875 2.579)" d="m4.4177 1028.2v1.6051h-1.6052v18.192h1.6052v2.1402h18.192v-2.1402h2.1402v-18.192h-2.1402v-1.6051h-18.192z" fill="#1a237e" filter="url(#filter6206-7)" opacity=".2"/>
        <rect x="2.8113" y="1028.2" width="21.327" height="21.327" rx="1.1225" ry="1.1226" fill="#232323"/>
        <g transform="translate(-20.925 990.46)">
            <path d="m0 0h48v48h-48z" fill="none"/>
            <g transform="matrix(.33601 0 0 .33601 1.434 68.477)">
                <path d="m0 0h48v48h-48z" fill="none"/>
            </g>
            <g transform="matrix(.37187 0 0 .37187 36.377 59.287)">
                <path d="m0 0h48v48h-48z" fill="none"/>
                <g transform="matrix(2.6891 0 0 2.6891 -77.724 -45.422)">
                    <path d="m0 0h48v48h-48z" fill="none"/>
                </g>
            </g>
        </g>
        <path transform="translate(0 1025.4)" d="m3.9336 2.8105c-0.62186 0-1.123 0.50115-1.123 1.123v0.3125c0-0.6219 0.50118-1.123 1.123-1.123h19.082c0.62186 0 1.123 0.50115 1.123 1.123v-0.3125c0-0.6219-0.50118-1.123-1.123-1.123h-19.082z" fill="#fff" opacity=".2"/>
        <rect x="120" y="512.36" width="40" height="40" fill="none"/>
        <rect x="120" y="592.36" width="40" height="40" fill="none"/>
        <rect x="120" y="632.36" width="40" height="40" fill="none"/>
        <rect x="120" y="552.36" width="40" height="40" fill="none"/>
        <rect x="120" y="672.36" width="40" height="40" fill="none"/>
        <rect x="200" y="512.36" width="40" height="40" fill="none"/>
        <rect x="200" y="592.36" width="40" height="40" fill="none"/>
        <rect x="200" y="632.36" width="40" height="40" fill="none"/>
        <rect x="200" y="552.36" width="40" height="40" fill="none"/>
        <rect x="200" y="672.36" width="40" height="40" fill="none"/>
        <rect x="280" y="512.36" width="40" height="40" fill="none"/>
        <rect x="280" y="592.36" width="40" height="40" fill="none"/>
        <rect x="280" y="632.36" width="40" height="40" fill="none"/>
        <rect x="280" y="552.36" width="40" height="40" fill="none"/>
        <rect x="280" y="672.36" width="40" height="40" fill="none"/>
        <rect x="160" y="512.36" width="40" height="40" fill="none"/>
        <rect x="160" y="592.36" width="40" height="40" fill="none"/>
        <rect x="160" y="632.36" width="40" height="40" fill="none"/>
        <rect x="160" y="552.36" width="40" height="40" fill="none"/>
        <rect x="160" y="672.36" width="40" height="40" fill="none"/>
        <rect x="240" y="512.36" width="40" height="40" fill="none"/>
        <rect x="240" y="592.36" width="40" height="40" fill="none"/>
        <rect x="240" y="632.36" width="40" height="40" fill="none"/>
        <rect x="240" y="552.36" width="40" height="40" fill="none"/>
        <rect x="240" y="672.36" width="40" height="40" fill="none"/>
        <rect x="120" y="712.36" width="40" height="40" fill="none"/>
        <rect x="200" y="712.36" width="40" height="40" fill="none"/>
        <rect x="280" y="712.36" width="40" height="40" fill="none"/>
        <rect x="160" y="712.36" width="40" height="40" fill="none"/>
        <rect x="240" y="712.36" width="40" height="40" fill="none"/>
        <rect x="320" y="552.36" width="40" height="40" fill="none"/>
        <rect x="320" y="592.36" width="40" height="40" fill="none"/>
        <rect x="320" y="672.36" width="40" height="40" fill="none"/>
        <rect x="320" y="512.36" width="40" height="40" fill="none"/>
        <rect x="320" y="632.36" width="40" height="40" fill="none"/>
        <rect x="320" y="712.36" width="40" height="40" fill="none"/>
        <rect x="150" y="542.36" width="180" height="180" fill="none"/>
        <g transform="matrix(.37344 0 0 .37344 4.4375 1028.8)">
            <path d="m0 0h48v48h-48z" fill="none"/>
        </g>
        <g transform="matrix(.36471 0 0 .36471 4.8146 1028.8)">
            <path d="m0 0h48v48h-48z" fill="none"/>
        </g>
        <g transform="matrix(.41585 0 0 .41585 79.055 989.88)">
            <g transform="matrix(.062269 0 0 .062269 -26.473 173.71)">
                <g transform="matrix(38.618 0 0 38.618 13804 -12696)">
                    <g transform="matrix(.71436 0 0 .71436 -375.49 176.57)">
                        <path transform="matrix(1.3999 0 0 1.3999 525.63 -247.17)" d="m490.56 95.75c-121.72 0.18504-342.34 0.090577-468.16 0.09375-1.5548 6.9739-2.4062 14.232-2.4062 21.688v76.344c139.06 0.49354 331.32 0.2554 472.97 0.25v-76.594c0-7.4875-0.8386-14.78-2.4062-21.781zm-307.19 197.94c-52.495-3e-3 -106.38 0.11982-163.38 0.375v92.844c191.76-0.26331 282.43-0.0926 472.97-0.21875v-92.25c-109.29-0.35498-208.43-0.74426-309.59-0.75z" opacity="0"/>
                    </g>
                </g>
            </g>
        </g>
        <path d="m23.015 1049.6c0.6218 0 1.123-0.5012 1.123-1.123v-0.3125c0 0.6218-0.5012 1.123-1.123 1.123h-19.082c-0.6218 0-1.123-0.5012-1.123-1.123v0.3125c0 0.6218 0.5012 1.123 1.123 1.123h19.082z" fill="#1a237e" opacity=".2"/>
    </g>
    <g display="none" fill="none">
        <rect transform="rotate(90)" x="7.3342" y="-19.616" width="12.282" height="12.282" display="inline" stroke="#000" stroke-width=".065984"/>
        <rect x="6.7726" y="8.112" width="13.405" height="10.726" stroke="#5261ff" stroke-linecap="round" stroke-linejoin="round" stroke-width=".06524"/>
        <rect transform="rotate(90)" x="6.7726" y="-18.838" width="13.405" height="10.726" display="inline" stroke="#0f0" stroke-linecap="round" stroke-linejoin="round" stroke-width=".06524"/>
    </g>
    <path d="m18.091 7.318h-4.6508c-0.04396 0-0.07948 0.035551-0.07948 0.079444v1.4768c0 0.049708 0.04025 0.089983 0.08997 0.089983h0.63765c0.2579 0 0.46704 0.19838 0.48944 0.45046v6.9877h-1.77e-4c0.0017 0.05629-8.24e-4 0.11164-0.0062 0.16615-4.13e-4 8e-3 -0.0017 0.01582-0.0024 0.02368-0.0037 0.03185-0.0077 0.06354-0.01393 0.09455-0.0033 0.01767-0.0081 0.0349-0.0124 0.05232-0.0058 0.02315-0.01034 0.04669-0.01747 0.06935-0.04205 0.13461-0.10852 0.25945-0.20048 0.36935-0.0033 0.0037-0.0076 0.0076-0.01092 0.0114-0.02806 0.03251-0.05748 0.06414-0.09008 0.09379-0.03288 0.02991-0.06771 0.05772-0.10432 0.08356-0.26018 0.18431-0.61037 0.26539-1.0016 0.22796-0.4989-0.04689-0.99385-0.27315-1.3939-0.63715-0.4-0.36396-0.64871-0.81429-0.70018-1.2682-0.04631-0.40604 0.07537-0.76335 0.34234-1.0063 8.24e-4 -4.11e-4 0.0013-0.0013 0.0021-0.0017 0.01034-0.0093 0.02171-0.01739 0.03234-0.02633 0.19106-0.16007 0.4401-0.25707 0.72432-0.28381 0.0033-3.01e-4 0.0062-8.25e-4 0.0093-0.0013 0.02991-0.0024 0.0604-0.0037 0.09115-0.0049 0.01607-4.12e-4 0.03197-0.0017 0.04826-0.0017 0.0054-7.4e-5 0.01057-8.23e-4 0.01598-8.23e-4 0.0096 0 0.01977 0.0013 0.02945 0.0013 0.0448 8.24e-4 0.08992 0.0024 0.13594 0.0064 0.0058 4.12e-4 0.0114 2.68e-4 0.01734 8.24e-4 0.0042 4.12e-4 0.0085 0.0013 0.01269 0.0017 0.26071 0.02616 0.51885 0.10399 0.76382 0.22194 5e-3 2.25e-4 0.01105 0.0017 0.01841 0.0059 0.07468 0.04125 0.08898-3e-3 0.09119-0.03226v-2.223c0-0.06368-0.04429-0.11999-0.1064-0.13367-1.3195-0.29039-2.6141 0.01187-3.5276 0.84344-0.79802 0.72592-1.184 1.7735-1.059 2.8738 0.1116 0.98012 0.61472 1.9217 1.4168 2.6517 0.78177 0.71124 1.7772 1.156 2.8039 1.2528 0.14149 0.0131 0.28364 0.01985 0.42236 0.01985 0.98062 0 1.8905-0.33625 2.5621-0.94719 0.6362-0.57925 1.0173-1.3747 1.0732-2.24l0.0051-5.6752h4.12e-4v-1.5174h1.97e-4v-0.02649c0.0058-0.2678 0.22412-0.48326 0.49338-0.48326h0.63765c0.04966 0 0.08997-0.040284 0.08997-0.089983v-1.4768c0-0.043881-0.03552-0.079444-0.07948-0.079444" fill="#fff"/>
</svg>
