<?xml version="1.0" encoding="UTF-8"?>
<svg version="1.1" viewBox="0 0 28.747 28.747" xmlns="http://www.w3.org/2000/svg">
    <defs>
        <filter id="filter6206-7" color-interpolation-filters="sRGB">
            <feGaussianBlur stdDeviation="0.658125"/>
        </filter>
    </defs>
    <g transform="translate(0 -1093.8)">
        <path transform="matrix(1.0781 0 0 1.0641 -.093733 2.7509)" d="m4.4177 1028.2v1.6051h-1.6052v18.192h1.6052v2.1402h18.192v-2.1402h2.1402v-18.192h-2.1402v-1.6051z" fill="#3e2723" filter="url(#filter6206-7)" opacity=".2"/>
        <rect x="2.9987" y="1096.8" width="22.749" height="22.749" rx="1.1973" ry="1.1974" fill="#232323"/>
        <g transform="translate(-22.32 1056.5)">
            <path d="m0 0h51.2v51.2h-51.2z" fill="none" stroke-width="1.0667"/>
            <g transform="matrix(.33601 0 0 .33601 1.5296 73.043)">
                <path d="m0 0h51.2v51.2h-51.2z" fill="none" stroke-width="1.0667"/>
            </g>
            <g transform="matrix(.37187 0 0 .37187 38.802 63.239)">
                <path d="m0 0h51.2v51.2h-51.2z" fill="none" stroke-width="1.0667"/>
                <g transform="matrix(2.6891 0 0 2.6891 -82.906 -48.45)">
                    <path d="m0 0h51.2v51.2h-51.2z" fill="none" stroke-width="1.0667"/>
                </g>
            </g>
        </g>
        <path d="m4.1958 1096.8c-0.66332 0-1.1979 0.5346-1.1979 1.1979v0.3334c0-0.6634 0.53459-1.1979 1.1979-1.1979h20.354c0.66332 0 1.1979 0.5345 1.1979 1.1979v-0.3334c0-0.6633-0.5346-1.1979-1.1979-1.1979z" fill="#fff" opacity=".2"/>
        <rect x="128" y="546.52" width="42.667" height="42.667" fill="none" stroke-width="1.0667"/>
        <rect x="128" y="631.85" width="42.667" height="42.667" fill="none" stroke-width="1.0667"/>
        <rect x="128" y="674.52" width="42.667" height="42.667" fill="none" stroke-width="1.0667"/>
        <rect x="128" y="589.19" width="42.667" height="42.667" fill="none" stroke-width="1.0667"/>
        <rect x="128" y="717.19" width="42.667" height="42.667" fill="none" stroke-width="1.0667"/>
        <rect x="213.33" y="546.52" width="42.667" height="42.667" fill="none" stroke-width="1.0667"/>
        <rect x="213.33" y="631.85" width="42.667" height="42.667" fill="none" stroke-width="1.0667"/>
        <rect x="213.33" y="674.52" width="42.667" height="42.667" fill="none" stroke-width="1.0667"/>
        <rect x="213.33" y="589.19" width="42.667" height="42.667" fill="none" stroke-width="1.0667"/>
        <rect x="213.33" y="717.19" width="42.667" height="42.667" fill="none" stroke-width="1.0667"/>
        <rect x="298.67" y="546.52" width="42.667" height="42.667" fill="none" stroke-width="1.0667"/>
        <rect x="298.67" y="631.85" width="42.667" height="42.667" fill="none" stroke-width="1.0667"/>
        <rect x="298.67" y="674.52" width="42.667" height="42.667" fill="none" stroke-width="1.0667"/>
        <rect x="298.67" y="589.19" width="42.667" height="42.667" fill="none" stroke-width="1.0667"/>
        <rect x="298.67" y="717.19" width="42.667" height="42.667" fill="none" stroke-width="1.0667"/>
        <rect x="170.67" y="546.52" width="42.667" height="42.667" fill="none" stroke-width="1.0667"/>
        <rect x="170.67" y="631.85" width="42.667" height="42.667" fill="none" stroke-width="1.0667"/>
        <rect x="170.67" y="674.52" width="42.667" height="42.667" fill="none" stroke-width="1.0667"/>
        <rect x="170.67" y="589.19" width="42.667" height="42.667" fill="none" stroke-width="1.0667"/>
        <rect x="170.67" y="717.19" width="42.667" height="42.667" fill="none" stroke-width="1.0667"/>
        <rect x="256" y="546.52" width="42.667" height="42.667" fill="none" stroke-width="1.0667"/>
        <rect x="256" y="631.85" width="42.667" height="42.667" fill="none" stroke-width="1.0667"/>
        <rect x="256" y="674.52" width="42.667" height="42.667" fill="none" stroke-width="1.0667"/>
        <rect x="256" y="589.19" width="42.667" height="42.667" fill="none" stroke-width="1.0667"/>
        <rect x="256" y="717.19" width="42.667" height="42.667" fill="none" stroke-width="1.0667"/>
        <rect x="128" y="759.85" width="42.667" height="42.667" fill="none" stroke-width="1.0667"/>
        <rect x="213.33" y="759.85" width="42.667" height="42.667" fill="none" stroke-width="1.0667"/>
        <rect x="298.67" y="759.85" width="42.667" height="42.667" fill="none" stroke-width="1.0667"/>
        <rect x="170.67" y="759.85" width="42.667" height="42.667" fill="none" stroke-width="1.0667"/>
        <rect x="256" y="759.85" width="42.667" height="42.667" fill="none" stroke-width="1.0667"/>
        <rect x="341.33" y="589.19" width="42.667" height="42.667" fill="none" stroke-width="1.0667"/>
        <rect x="341.33" y="631.85" width="42.667" height="42.667" fill="none" stroke-width="1.0667"/>
        <rect x="341.33" y="717.19" width="42.667" height="42.667" fill="none" stroke-width="1.0667"/>
        <rect x="341.33" y="546.52" width="42.667" height="42.667" fill="none" stroke-width="1.0667"/>
        <rect x="341.33" y="674.52" width="42.667" height="42.667" fill="none" stroke-width="1.0667"/>
        <rect x="341.33" y="759.85" width="42.667" height="42.667" fill="none" stroke-width="1.0667"/>
        <rect x="160" y="578.52" width="192" height="192" fill="none" stroke-width="1.0667"/>
        <g transform="matrix(.37344 0 0 .37344 4.7333 1097.4)">
            <path d="m0 0h51.2v51.2h-51.2z" fill="none" stroke-width="1.0667"/>
        </g>
        <g transform="matrix(.36471 0 0 .36471 5.1356 1097.4)">
            <path d="m0 0h51.2v51.2h-51.2z" fill="none" stroke-width="1.0667"/>
        </g>
        <g transform="matrix(.41585 0 0 .41585 84.325 1055.9)">
            <g transform="matrix(.062269 0 0 .062269 -28.238 185.29)">
                <g transform="matrix(38.618 0 0 38.618 14724 -13542)">
                    <g transform="matrix(.71436 0 0 .71436 -400.52 188.34)">
                        <path d="m1293.2-120.67c-181.75 0.2763-511.18 0.13525-699.05 0.13998-2.3216 10.413-3.593 21.251-3.593 32.384v114c207.65 0.73695 494.72 0.38136 706.23 0.3733v-114.37c0-11.18-1.2522-22.07-3.593-32.523zm-458.69 295.56c-78.385-4e-3 -158.85 0.17892-243.95 0.55995v138.63c286.34-0.39317 421.73-0.13827 706.23-0.32664v-137.75c-163.2-0.53005-311.22-1.1113-462.28-1.1199z" opacity="0" stroke-width="1.4932"/>
                    </g>
                </g>
            </g>
        </g>
        <path d="m24.549 1119.5c0.66325 0 1.1979-0.5346 1.1979-1.1979v-0.3333c0 0.6632-0.53461 1.1978-1.1979 1.1978h-20.354c-0.66325 0-1.1979-0.5346-1.1979-1.1978v0.3333c0 0.6633 0.53461 1.1979 1.1979 1.1979z" fill="#3e2723" opacity=".2"/>
    </g>
    <g fill="#fff" shape-rendering="auto">
        <path d="m13.9 20.834c-0.10391-0.12522-0.26758-0.64883-0.34349-1.0989-0.37907-2.2476 1.4551-4.5954 4.3751-5.6003 0.65037-0.22383 0.66925-0.23494 0.68596-0.40387 0.02918-0.29495-0.10656-0.31637-0.83483-0.13175-2.4358 0.61748-4.5848 2.0287-6.1348 4.0285-0.43323 0.55896-0.67424 0.63455-0.85929 0.26951-0.11181-0.22056 0.42516-1.5689 1.0028-2.5181 0.35079-0.57641 0.33638-0.84195-0.05208-0.96001-0.20221-0.06146-1.2363 0.41627-2.1763 1.0054-0.31139 0.19515-0.62726 0.35483-0.70194 0.35483-0.16883 0-0.3203-0.16035-0.32005-0.3388 2.206e-4 -0.17745 0.87452-1.1617 1.6247-1.8291 0.56245-0.50038 0.56245-0.50038 0.84815-0.38664 2.1391 0.85162 2.3119 0.8826 2.733 0.48997 0.22781-0.21242 0.22781-0.21242 0.24457-1.5215 0.01676-1.3091 0.01676-1.3091 0.36704-1.4493 1.4881-0.59578 2.9801-0.40795 4.237 0.53338 1.4805 1.1088 2.0489 3.1645 1.3521 4.8898-0.53291 1.3195-1.6208 2.2798-3.5765 3.1569-0.95282 0.42737-1.4808 0.78912-1.7816 1.2207-0.24849 0.35653-0.53431 0.47647-0.68957 0.28937zm1.1598-1.2915c0.21139-0.14054 0.55529-0.33337 0.76424-0.42852l0.3799-0.17299-0.33439-0.09257c-0.53992-0.14946-0.86765-0.34178-1.2657-0.7427-0.42821-0.43133-0.42529-0.43231-0.57227 0.1912-0.10935 0.46388-0.10697 1.2364 0.0054 1.7302l0.09011 0.39622 0.27421-0.31264c0.15082-0.17195 0.44716-0.42763 0.65855-0.56817zm-3.3566-6.6083c-1.479-0.57645-1.8691-0.80598-2.5492-1.4998-0.57547-0.58707-0.71882-0.8238-0.62438-1.0311 0.16432-0.36068 1.1499-0.40121 1.9088-0.0785 0.25344 0.10776 0.25344 0.10776 0.67609-0.17374 0.42266-0.2815 0.42266-0.2815 0.44869-0.79625 0.03044-0.60189 0.17459-1.0316 0.45484-1.3558 0.32504-0.37604 0.58842-0.16143 1.0321 0.84105 0.39995 0.90356 0.41353 0.98963 0.43716 2.7691 0.02882 2.1709 0.15176 2.0796-1.7842 1.325zm-1.5537-1.8755c0.22232-0.29625 0.20084-0.33376-0.25207-0.44033-0.79025-0.18594-0.96626-0.087129-0.60277 0.33838 0.39307 0.46013 0.53956 0.567 0.6114 0.44604 0.030825-0.0519 0.14038-0.20675 0.24344-0.34409zm2.3762-1.5332c0.15326-0.03541 0.28735-0.07068 0.29798-0.078375 0.04979-0.036054-0.49622-1.0854-0.54809-1.0533-0.09304 0.057506-0.21889 0.40426-0.27644 0.76167-0.06426 0.39903-0.03213 0.51456 0.13018 0.4681 0.06474-0.01853 0.2431-0.062663 0.39636-0.098073z" color="#000000" color-rendering="auto" dominant-baseline="auto" image-rendering="auto" solid-color="#000000" stop-color="#000000" style="font-feature-settings:normal;font-variant-alternates:normal;font-variant-caps:normal;font-variant-east-asian:normal;font-variant-ligatures:normal;font-variant-numeric:normal;font-variant-position:normal;font-variation-settings:normal;inline-size:0;isolation:auto;mix-blend-mode:normal;shape-margin:0;shape-padding:0;text-decoration-color:#000000;text-decoration-line:none;text-decoration-style:solid;text-indent:0;text-orientation:mixed;text-transform:none;white-space:normal"/>
        <path d="m12.244 7.7812c-0.09338 0.020644-0.17869 0.087228-0.26367 0.18555-0.289 0.33435-0.43602 0.77612-0.4668 1.3848-0.01302 0.25738-0.02246 0.37993-0.07031 0.46484-0.04785 0.084914-0.14414 0.15222-0.35547 0.29297s-0.3177 0.20883-0.38672 0.22656c-0.03451 0.0089-0.06123 0.0073-0.09766-2e-3 -0.03642-0.0093-0.08117-0.02775-0.14453-0.05469-0.38735-0.1647-0.82929-0.23592-1.1992-0.2207-0.18497 0.0076-0.3517 0.03559-0.48633 0.08789s-0.24031 0.12932-0.28906 0.23633c-0.054155 0.11887-0.035898 0.2542 0.064453 0.41992 0.10035 0.16572 0.28168 0.37157 0.57031 0.66602 0.68293 0.6967 1.086 0.93472 2.5664 1.5117 0.4835 0.18845 0.83913 0.33594 1.1035 0.41797 0.13219 0.04101 0.23996 0.06594 0.33398 0.07031 0.09402 0.0044 0.17499-0.01354 0.23828-0.06055s0.10556-0.11919 0.13281-0.21289c0.02726-0.0937 0.04139-0.21104 0.04883-0.35547 0.01487-0.28886 0.0013-0.69018-0.0059-1.2324-0.01181-0.88983-0.02087-1.3561-0.07813-1.7188-0.057213-0.36263-0.16311-0.61618-0.36324-1.0683-0.22281-0.50338-0.39691-0.81255-0.57422-0.95703-0.088652-0.072239-0.18397-0.10268-0.27734-0.082031zm0.02148 0.097656c0.06129-0.01355 0.12007 0.00278 0.19336 0.0625 0.14658 0.11944 0.324 0.41887 0.54492 0.91797 0.19982 0.45144 0.30199 0.69382 0.35742 1.0449 0.05543 0.3511 0.06436 0.81548 0.07617 1.7051 0.0072 0.5432 0.02033 0.94556 0.0059 1.2266-0.0072 0.1405-0.02134 0.25096-0.04492 0.33203s-0.05517 0.13005-0.0957 0.16016c-0.04053 0.0301-0.09421 0.04471-0.17383 0.04102-0.07961-0.0037-0.18248-0.02667-0.31055-0.06641-0.25618-0.079468-0.61323-0.22719-1.0977-0.41602-1.4776-0.5759-1.854-0.79736-2.5312-1.4883-0.28683-0.29262-0.46506-0.4972-0.55664-0.64844-0.091583-0.15124-0.096927-0.23775-0.056641-0.32617 0.033409-0.07333 0.11232-0.13694 0.23242-0.18359 0.1201-0.04666 0.27824-0.07476 0.45508-0.08203 0.35367-0.01454 0.78463 0.05488 1.1563 0.21289 0.06336 0.02694 0.11209 0.04831 0.16016 0.06055s0.09648 0.01285 0.14648 0c0.1-0.0257 0.20469-0.09753 0.41602-0.23828s0.32435-0.21398 0.38867-0.32812c0.06432-0.11415 0.06901-0.25044 0.08203-0.50781 0.0301-0.59514 0.17185-1.0121 0.44336-1.3262 0.07754-0.089704 0.14769-0.13879 0.20898-0.15234zm0.01367 0.46484c-1e-3 -1.91e-5 -0.02849 0.00731-0.0293 0.00781-0.03809 0.023541-0.06409 0.061693-0.0918 0.11133-0.02771 0.049635-0.05428 0.11056-0.08008 0.18164-0.0516 0.14216-0.09962 0.32011-0.12891 0.50195-0.03246 0.20156-0.04285 0.33297-0.01758 0.42383 0.01263 0.045427 0.03927 0.084256 0.08008 0.10156 0.04081 0.017307 0.08459 0.013243 0.13086 0 0.06157-0.017624 0.24186-0.062382 0.39453-0.097656 0.07706-0.017805 0.14843-0.036396 0.20312-0.050781 0.02735-0.00719 0.05095-0.012352 0.06836-0.017578 0.0087-0.00261 0.01714-0.00557 0.02344-0.00781 0.0032-0.00112 0.0047-0.00255 0.0078-0.00391 0.0016-6.757e-4 0.0039-9.333e-4 0.0059-0.00195 2e-3 -0.00102 0.0075-0.00367 0.0078-0.00391 7.78e-4 -5.633e-4 0.01709-0.022387 0.01758-0.023437 4.91e-4 -0.00105 0.0051-0.012449 0.0059-0.017578 0.0014-0.010259 9.95e-4 -0.017862 0-0.025391-2e-3 -0.015058-0.0061-0.029298-0.01172-0.046875-0.01125-0.035153-0.02986-0.08049-0.05273-0.13281-0.04574-0.10465-0.11091-0.23892-0.17969-0.37109-0.06877-0.13217-0.14052-0.26136-0.19922-0.35742-0.02935-0.048032-0.0562-0.086783-0.07813-0.11523-0.01096-0.014226-0.01965-0.027041-0.03125-0.037109-0.0058-0.00503-0.01253-0.0092-0.02344-0.013672-0.0027-0.00112-0.0092-0.00377-0.0098-0.00391-5.82e-4 -1.366e-4 -0.0112 9.5e-6 -0.01172 0zm2e-3 0.12109c0.01745 0.023187 0.03961 0.057709 0.06641 0.10156 0.05671 0.092796 0.12733 0.22091 0.19531 0.35156 0.06799 0.13066 0.13348 0.26399 0.17773 0.36523 0.02213 0.050621 0.03955 0.092086 0.04883 0.12109 0.0012 0.00363 1e-3 0.00464 2e-3 0.00781-0.01503 0.0044-0.03319 0.00946-0.05664 0.015625-0.05332 0.014026-0.12302 0.031223-0.19922 0.048828-0.15385 0.035546-0.33248 0.080173-0.40039 0.099609-0.03489 0.00999-0.05559 0.00766-0.06445 0.00391-0.0089-0.00376-0.01578-0.00958-0.02344-0.037109-0.01531-0.055054-0.01032-0.18143 0.02148-0.37891 0.02827-0.17556 0.07407-0.34943 0.12305-0.48438 0.02449-0.067474 0.05037-0.12524 0.07422-0.16797 0.01472-0.026372 0.02381-0.033936 0.03516-0.046875zm4.2891 1.9199c-0.72493-0.09127-1.4794 0.01179-2.2305 0.3125-0.08757 0.03506-0.15682 0.0623-0.21484 0.10938-0.05803 0.04708-0.09844 0.11376-0.12305 0.21094-0.04922 0.19436-0.05217 0.51928-0.06055 1.1738-0.0084 0.65455-0.01371 0.98399-0.04297 1.166s-0.07164 0.2141-0.18555 0.32031c-0.10378 0.09677-0.18837 0.16383-0.28711 0.19922-0.09874 0.03538-0.21609 0.04141-0.39258 0.0098-0.35298-0.06328-0.93069-0.28327-2-0.70898-0.07142-0.02843-0.12849-0.05102-0.18555-0.06055-0.05705-0.0095-0.1136-0.0021-0.17383 0.02539-0.12047 0.05492-0.25979 0.18145-0.54102 0.43164-0.37698 0.33538-0.7839 0.74833-1.0977 1.1016-0.15688 0.17662-0.28955 0.33905-0.38477 0.46875-0.047607 0.06485-0.08628 0.12186-0.11328 0.16992-0.027001 0.04806-0.044869 0.08232-0.044922 0.125-2.89e-4 0.20679 0.16865 0.38867 0.36914 0.38867 0.036487 0 0.068158-0.01239 0.11523-0.03125 0.047077-0.01886 0.10543-0.04552 0.16992-0.07813 0.12898-0.0652 0.28642-0.1536 0.44336-0.25195 0.46815-0.2934 0.96048-0.55986 1.3594-0.74414 0.19945-0.09214 0.37469-0.16267 0.51172-0.20703 0.06851-0.02218 0.12805-0.03916 0.17383-0.04687 0.04578-0.0077 0.07886-0.0053 0.08984-2e-3 0.09221 0.02802 0.15884 0.06314 0.20117 0.10547s0.06281 0.09195 0.06641 0.1582c0.0072 0.1325-0.06873 0.33801-0.24219 0.62305-0.29072 0.4777-0.57205 1.053-0.76562 1.5391-0.09679 0.24304-0.17034 0.46302-0.21484 0.63867-0.02225 0.08782-0.03749 0.16444-0.04297 0.22852-0.0055 0.06407-0.0047 0.11622 0.01758 0.16016 0.04855 0.09578 0.10311 0.16615 0.16992 0.20898 0.06681 0.04284 0.14666 0.05241 0.22656 0.02734 0.15981-0.05012 0.32818-0.21588 0.54688-0.49805 1.5433-1.9912 3.6825-3.397 6.1074-4.0117 0.36297-0.09201 0.58015-0.12734 0.68164-0.11133 0.05075 8e-3 0.06734 0.02103 0.08008 0.04687 0.01273 0.02585 0.01863 0.07463 0.01172 0.14453-0.0041 0.04137-0.0084 0.06577-0.01758 0.08399-0.0092 0.01822-0.02521 0.03549-0.06445 0.05859-0.07848 0.0462-0.24523 0.10687-0.57031 0.21875-2.9366 1.0106-4.7926 3.377-4.4082 5.6562 0.03841 0.22772 0.09799 0.4726 0.16211 0.67773s0.12582 0.36432 0.19141 0.44336c0.09061 0.10919 0.23175 0.13106 0.36719 0.07422s0.27446-0.1837 0.40234-0.36719c0.29263-0.41986 0.81222-0.77724 1.7617-1.2031 1.9617-0.8799 3.063-1.85 3.6016-3.1836 0.70552-1.7469 0.13019-3.8263-1.3691-4.9492-0.63475-0.4754-1.3298-0.76029-2.0547-0.85156zm-7.1465 0.09766c-0.1261-0.01058-0.21862-0.0061-0.28516 0.03125-0.03327 0.01868-0.060233 0.04956-0.070312 0.08594-0.01008 0.03638-0.0034 0.07608 0.00977 0.11524 0.02634 0.0783 0.086899 0.16482 0.17969 0.27344 0.19728 0.23094 0.33082 0.37424 0.43359 0.44922 0.051389 0.03749 0.096596 0.06023 0.14453 0.06055 0.047935 3.17e-4 0.089863-0.03088 0.11328-0.07031 0.026562-0.04472 0.13779-0.20333 0.24023-0.33984 0.05612-0.07478 0.09765-0.13386 0.12305-0.1875 0.02539-0.05364 0.03514-0.11047 0.0078-0.1582-0.02733-0.04774-0.07605-0.07488-0.14258-0.09961s-0.15575-0.04549-0.26953-0.07227c-0.19893-0.04681-0.35828-0.07731-0.48438-0.08789zm7.1348 0c0.70733 0.08903 1.3857 0.36805 2.0078 0.83398 1.4617 1.0947 2.0241 3.1283 1.3359 4.832-0.52721 1.3054-1.6013 2.2545-3.5508 3.1289-0.95614 0.42886-1.4937 0.7949-1.8027 1.2383-0.12061 0.17304-0.24902 0.28654-0.35742 0.33203-0.10841 0.04549-0.1873 0.03299-0.25195-0.04492-0.03832-0.04618-0.11116-0.21161-0.17383-0.41211s-0.12265-0.44169-0.16016-0.66406c-0.37373-2.2159 1.4383-4.5457 4.3418-5.5449 0.32528-0.11195 0.49211-0.16902 0.58984-0.22656 0.04887-0.02877 0.08415-0.06124 0.10352-0.09961s0.02308-0.07604 0.02734-0.11914c0.0077-0.07757 0.0058-0.14387-0.02148-0.19922-0.02727-0.05535-0.08372-0.09042-0.1543-0.10156-0.14115-0.02228-0.35541 0.02263-0.7207 0.11523-2.4466 0.62022-4.6053 2.0383-6.1621 4.0469-0.21453 0.27679-0.38278 0.42674-0.49805 0.46289-0.05763 0.01808-0.10057 0.01256-0.14453-0.01563s-0.08884-0.08319-0.13281-0.16992c-0.0057-0.01121-0.01256-0.04988-0.0078-0.10547 0.0047-0.05559 0.01767-0.12846 0.03906-0.21289 0.04279-0.16887 0.1172-0.38668 0.21289-0.62695 0.19138-0.48055 0.46892-1.0539 0.75586-1.5254 0.17732-0.29138 0.2692-0.5058 0.25977-0.67969-0.0047-0.08694-0.03899-0.16398-0.09766-0.22266-0.05867-0.05867-0.14016-0.09985-0.24219-0.13086-0.03957-0.01203-0.08161-9e-3 -0.13476 0s-0.11594 0.02566-0.1875 0.04883c-0.14312 0.04634-0.32354 0.11964-0.52539 0.21289-0.40371 0.1865-0.89732 0.4543-1.3691 0.75-0.15445 0.0968-0.31008 0.18462-0.43555 0.24805-0.062734 0.03171-0.11923 0.05704-0.16211 0.07422-0.042882 0.01718-0.077275 0.02344-0.078125 0.02344-0.13717 0-0.26974-0.13894-0.26953-0.28906 2.1e-6 -0.0017 0.00942-0.03383 0.033203-0.07617 0.023784-0.04234 0.059358-0.09735 0.10547-0.16016 0.092221-0.12562 0.22341-0.28588 0.37891-0.46094 0.31099-0.35011 0.71669-0.76178 1.0898-1.0938 0.28123-0.25019 0.42405-0.37427 0.51562-0.41602 0.04579-0.02087 0.07631-0.02245 0.11719-0.01563 0.04088 0.0068 0.09264 0.02625 0.16406 0.05469 1.0698 0.4259 1.6461 0.64594 2.0195 0.71289 0.18673 0.03348 0.32638 0.02895 0.44531-0.01367 0.11894-0.04262 0.21355-0.1192 0.32031-0.21875 0.1139-0.10621 0.18491-0.18055 0.2168-0.37891 0.03188-0.19836 0.03459-0.52514 0.04297-1.1797 0.0084-0.65455 0.01605-0.98241 0.05859-1.1504 0.02127-0.08399 0.04688-0.12493 0.08789-0.1582s0.10188-0.05869 0.18945-0.09375c0.73701-0.29507 1.4743-0.39762 2.1816-0.30859zm-7.1445 0.09961c0.1178 0.0099 0.27646 0.03782 0.47266 0.08399 0.11268 0.02651 0.19792 0.04878 0.25586 0.07031 0.05794 0.02154 0.08493 0.04464 0.0918 0.05664 0.0069 0.012 0.0072 0.02441-0.01172 0.06445-0.01896 0.04004-0.05824 0.09853-0.11328 0.17188-0.10369 0.13817-0.21101 0.28858-0.24609 0.34766-0.012498 0.02105-0.015324 0.02156-0.027344 0.02149-0.01202-8e-5 -0.042589-0.0094-0.085937-0.04102-0.086696-0.06325-0.22219-0.20441-0.41797-0.43359-0.088958-0.10414-0.14196-0.1881-0.16016-0.24219-0.0091-0.02705-0.00869-0.04447-0.00586-0.05469s0.00608-0.01674 0.021484-0.02539c0.030807-0.01729 0.10876-0.02942 0.22656-0.01953zm4.7832 7.1758c-0.03214 0.01074-0.05602 0.0359-0.07422 0.06445s-0.03264 0.06298-0.04687 0.10547c-0.02847 0.08499-0.05701 0.20158-0.09375 0.35742-0.11223 0.47611-0.10898 1.2473 0.0059 1.752l0.11133 0.49219 0.33984-0.38672c0.14561-0.16602 0.44239-0.4216 0.64844-0.55859 0.20813-0.13837 0.55322-0.33067 0.75781-0.42383l0.50391-0.23047-0.4668-0.12891c-0.5343-0.14791-0.84821-0.33361-1.2422-0.73047-0.10702-0.10781-0.18788-0.19003-0.25391-0.24414-0.03301-0.02706-0.06337-0.04731-0.09375-0.06055-0.03038-0.01323-0.06356-0.01855-0.0957-0.0078zm0.03125 0.0957c0.0034-0.0012 0.0091-0.0032 0.02539 0.0039 0.01626 0.0071 0.03913 0.02293 0.06836 0.04687 0.05845 0.0479 0.13902 0.12847 0.24609 0.23633 0.40205 0.40499 0.74353 0.60484 1.2891 0.75586l0.20117 0.05469-0.25586 0.11719c-0.21334 0.097137-0.55492 0.28894-0.76957 0.43165l-0.14453 0.09766 0.0332-2e-3c-0.19761 0.14653-0.42846 0.33404-0.55859 0.48242l-0.20898 0.23828-0.06836-0.30078c-0.1099-0.48291-0.11233-1.2554-0.0059-1.707 0.03675-0.15591 0.06414-0.2729 0.08984-0.34961 0.01285-0.03836 0.02624-0.06693 0.03711-0.08398 0.01087-0.01706 0.01804-0.02033 0.02149-0.02148z" color="#000000" color-rendering="auto" dominant-baseline="auto" image-rendering="auto" solid-color="#000000" stop-color="#000000" style="font-feature-settings:normal;font-variant-alternates:normal;font-variant-caps:normal;font-variant-east-asian:normal;font-variant-ligatures:normal;font-variant-numeric:normal;font-variant-position:normal;font-variation-settings:normal;inline-size:0;isolation:auto;mix-blend-mode:normal;shape-margin:0;shape-padding:0;text-decoration-color:#000000;text-decoration-line:none;text-decoration-style:solid;text-indent:0;text-orientation:mixed;text-transform:none;white-space:normal"/>
    </g>
    <g display="none" fill="none">
        <rect transform="rotate(90)" x="7.8232" y="-20.923" width="13.1" height="13.1" display="inline" stroke="#000" stroke-width=".070382"/>
        <rect x="7.2241" y="8.6528" width="14.298" height="11.441" stroke="#5261ff" stroke-linecap="round" stroke-linejoin="round" stroke-width=".06959"/>
        <rect transform="rotate(90)" x="7.2241" y="-20.094" width="14.298" height="11.441" display="inline" stroke="#0f0" stroke-linecap="round" stroke-linejoin="round" stroke-width=".06959"/>
    </g>
</svg>
