<?xml version="1.0" encoding="UTF-8"?>
<svg version="1.1" viewBox="0 0 26.95 26.95" xmlns="http://www.w3.org/2000/svg">
    <defs>
        <filter id="filter6206-7" color-interpolation-filters="sRGB">
            <feGaussianBlur stdDeviation="0.658125"/>
        </filter>
    </defs>
    <g transform="translate(0 -1025.4)">
        <path transform="matrix(1.0107 0 0 .99762 -.087875 2.579)" d="m4.4177 1028.2v1.6051h-1.6052v18.192h1.6052v2.1402h18.192v-2.1402h2.1402v-18.192h-2.1402v-1.6051h-18.192z" fill="#232323" filter="url(#filter6206-7)" opacity=".2"/>
        <rect x="2.8113" y="1028.2" width="21.327" height="21.327" rx="1.1225" ry="1.1226" fill="#232323"/>
        <g transform="translate(-20.925 990.46)">
            <path d="m0 0h48v48h-48z" fill="none"/>
            <g transform="matrix(.33601 0 0 .33601 1.434 68.477)">
                <path d="m0 0h48v48h-48z" fill="none"/>
            </g>
            <g transform="matrix(.37187 0 0 .37187 36.377 59.287)">
                <path d="m0 0h48v48h-48z" fill="none"/>
                <g transform="matrix(2.6891 0 0 2.6891 -77.724 -45.422)">
                    <path d="m0 0h48v48h-48z" fill="none"/>
                </g>
            </g>
        </g>
        <path transform="translate(0 1025.4)" d="m3.9336 2.8105c-0.62186 0-1.123 0.50115-1.123 1.123v0.3125c0-0.6219 0.50118-1.123 1.123-1.123h19.082c0.62186 0 1.123 0.50115 1.123 1.123v-0.3125c0-0.6219-0.50118-1.123-1.123-1.123h-19.082z" fill="#fff" opacity=".2"/>
        <rect x="120" y="512.36" width="40" height="40" fill="none"/>
        <rect x="120" y="592.36" width="40" height="40" fill="none"/>
        <rect x="120" y="632.36" width="40" height="40" fill="none"/>
        <rect x="120" y="552.36" width="40" height="40" fill="none"/>
        <rect x="120" y="672.36" width="40" height="40" fill="none"/>
        <rect x="200" y="512.36" width="40" height="40" fill="none"/>
        <rect x="200" y="592.36" width="40" height="40" fill="none"/>
        <rect x="200" y="632.36" width="40" height="40" fill="none"/>
        <rect x="200" y="552.36" width="40" height="40" fill="none"/>
        <rect x="200" y="672.36" width="40" height="40" fill="none"/>
        <rect x="280" y="512.36" width="40" height="40" fill="none"/>
        <rect x="280" y="592.36" width="40" height="40" fill="none"/>
        <rect x="280" y="632.36" width="40" height="40" fill="none"/>
        <rect x="280" y="552.36" width="40" height="40" fill="none"/>
        <rect x="280" y="672.36" width="40" height="40" fill="none"/>
        <rect x="160" y="512.36" width="40" height="40" fill="none"/>
        <rect x="160" y="592.36" width="40" height="40" fill="none"/>
        <rect x="160" y="632.36" width="40" height="40" fill="none"/>
        <rect x="160" y="552.36" width="40" height="40" fill="none"/>
        <rect x="160" y="672.36" width="40" height="40" fill="none"/>
        <rect x="240" y="512.36" width="40" height="40" fill="none"/>
        <rect x="240" y="592.36" width="40" height="40" fill="none"/>
        <rect x="240" y="632.36" width="40" height="40" fill="none"/>
        <rect x="240" y="552.36" width="40" height="40" fill="none"/>
        <rect x="240" y="672.36" width="40" height="40" fill="none"/>
        <rect x="120" y="712.36" width="40" height="40" fill="none"/>
        <rect x="200" y="712.36" width="40" height="40" fill="none"/>
        <rect x="280" y="712.36" width="40" height="40" fill="none"/>
        <rect x="160" y="712.36" width="40" height="40" fill="none"/>
        <rect x="240" y="712.36" width="40" height="40" fill="none"/>
        <rect x="320" y="552.36" width="40" height="40" fill="none"/>
        <rect x="320" y="592.36" width="40" height="40" fill="none"/>
        <rect x="320" y="672.36" width="40" height="40" fill="none"/>
        <rect x="320" y="512.36" width="40" height="40" fill="none"/>
        <rect x="320" y="632.36" width="40" height="40" fill="none"/>
        <rect x="320" y="712.36" width="40" height="40" fill="none"/>
        <rect x="150" y="542.36" width="180" height="180" fill="none"/>
        <g transform="matrix(.37344 0 0 .37344 4.4375 1028.8)">
            <path d="m0 0h48v48h-48z" fill="none"/>
        </g>
        <g transform="matrix(.36471 0 0 .36471 4.8146 1028.8)">
            <path d="m0 0h48v48h-48z" fill="none"/>
        </g>
        <g transform="matrix(.41585 0 0 .41585 79.055 989.88)">
            <g transform="matrix(.062269 0 0 .062269 -26.473 173.71)">
                <g transform="matrix(38.618 0 0 38.618 13804 -12696)">
                    <g transform="matrix(.71436 0 0 .71436 -375.49 176.57)">
                        <path transform="matrix(1.3999 0 0 1.3999 525.63 -247.17)" d="m490.56 95.75c-121.72 0.18504-342.34 0.090577-468.16 0.09375-1.5548 6.9739-2.4062 14.232-2.4062 21.688v76.344c139.06 0.49354 331.32 0.2554 472.97 0.25v-76.594c0-7.4875-0.8386-14.78-2.4062-21.781zm-307.19 197.94c-52.495-3e-3 -106.38 0.11982-163.38 0.375v92.844c191.76-0.26331 282.43-0.0926 472.97-0.21875v-92.25c-109.29-0.35498-208.43-0.74426-309.59-0.75z" opacity="0"/>
                    </g>
                </g>
            </g>
        </g>
        <path d="m23.015 1049.6c0.6218 0 1.123-0.5012 1.123-1.123v-0.3125c0 0.6218-0.5012 1.123-1.123 1.123h-19.082c-0.6218 0-1.123-0.5012-1.123-1.123v0.3125c0 0.6218 0.5012 1.123 1.123 1.123h19.082z" fill="#232323" opacity=".2"/>
    </g>
    <g transform="matrix(1.2464 0 0 1.2464 -3.4662 -3.999)">
        <g transform="translate(743.74 3.2092)">
            <path d="m-422.54-36.546v-216.62h433.24v433.24h-433.24v-216.62z" fill="#232323"/>
            <path d="m-729.94 5.4082c-1.2035-0.00858-1.8534-0.00591-2.1074 0.023437-1.458 0.16837-2.6118 1.1519-2.9863 2.5488-0.06 0.22377-0.0618 0.50964-0.0723 2.6211-0.0107 2.1536-0.0102 2.4011 0.0488 2.6211 0.20089 0.7494 0.97952 1.2347 1.7559 1.1016 0.32318-0.05541 0.60928-0.19826 0.85546-0.42578 0.0273-0.0252 0.0482-0.04361 0.0723-0.06445 9e-3 0.0082 0.0159 0.01273 0.0254 0.02149 0.15811 0.14574 0.37099 0.24827 0.58008 0.31836-0.20494 0.20862-0.40579 0.54139-0.50586 0.8418l-4e-3 0.01563-0.0684 0.20312c-0.034 0.14665-0.0432 0.30516-0.0254 0.42387 0.0267 0.17806 0.0578 0.31933 0.27149 0.45898 0.18586 0.11422 1.4466 0.07668 2.1426 0.0918 1.0999 0.0132 1.6682 0.0095 2-0.0059 0.33182-0.01532 0.44687-0.04794 0.56836-0.08008 1.1384-0.3012 2.0049-1.2101 2.1758-2.3066v-2e-3c0.0108-0.06881 0.0118-0.14663 0.0156-0.28906 4e-3 -0.1434 6e-3 -0.33723 8e-3 -0.58203 4e-3 -0.4896 5e-3 -1.1804 2e-3 -2.0566 0.024-0.99974-0.0294-2.7882-0.0901-2.9922-0.10393-0.36476-0.3188-0.80678-0.53515-1.0918-0.38913-0.51269-0.9527-0.93594-1.541-1.1562-0.28446-0.10653-0.46167-0.16939-0.79297-0.19922-0.33129-0.029834-0.81697-0.032101-1.793-0.039063zm-0.1915 0.90234c1.1229 9e-5 1.6676-6.805e-4 1.9824 0.033203 0.31478 0.033884 0.4011 0.091055 0.71094 0.24609 0.54336 0.27192 0.87476 0.60275 1.1289 1.127 0.1321 0.2725 0.17848 0.33767 0.20703 0.69531 0.0286 0.35764 0.0247 0.99519 0.0195 2.3008l-0.01 2.2461-0.0684 0.13867c-0.0833 0.16966-0.15898 0.24404-0.33008 0.32031-6.5e-4 2.9e-4 -1e-3 -2.88e-4 -2e-3 0-0.3846 0.16952-0.81851-0.04153-0.92578-0.45508-3e-3 -0.01266-0.021-0.17484-0.0273-0.51758-6e-3 -0.34274-0.01-0.8807-0.01-1.7188 0-1.0494 6.8e-4 -1.5794-8e-3 -1.8652-4e-3 -0.14294-0.01-0.22304-0.0234-0.29297-0.0138-0.069933-0.0572-0.1439-0.0762-0.16797-0.15366-0.19538-0.43766-0.20439-0.625-0.052734l-0.14649 0.11719-0.0156 2.2988c-8e-3 1.1005-0.013 1.6537-0.0234 1.9395-5e-3 0.14287-0.0112 0.22007-0.0176 0.25391-6e-3 0.03383-4e-3 0.02271-0.0215 0.05469-0.0149 0.02782-0.11488 0.15344-0.17578 0.20703-0.34057 0.29979-0.82306 0.20184-1.0625-0.23633-9.7e-4 -0.0018-1e-3 0.0022-8e-3 -0.04687-6e-3 -0.04903-0.0128-0.14052-0.0176-0.29297-0.01-0.30489-0.0142-0.85588-0.0215-1.8672-4e-3 -0.60456-0.012-1.1597-0.0195-1.5684-4e-3 -0.20431-8e-3 -0.37267-0.0117-0.49219-2e-3 -0.059758-4e-3 -0.1068-6e-3 -0.14258-1e-3 -0.017888-3e-3 -0.032772-4e-3 -0.046875-7.1e-4 -0.00705-4.2e-4 -0.014013-2e-3 -0.023437-7.6e-4 -0.00471-2e-3 -0.00938-4e-3 -0.017578-2e-3 -0.0082-0.0154-0.042518-0.0156-0.042969-0.0338-0.068146-0.0666-0.090409-0.10156-0.11719-0.035-0.026779-0.073-0.048063-0.11719-0.066406-0.1054-0.043663-0.21139-0.040188-0.30664-0.011719-0.0952 0.028469-0.19045 0.082957-0.24609 0.19531-2.3e-4 4.501e-4 -0.0136 0.034765-0.0156 0.042969-2e-3 0.0082-3e-3 0.012863-4e-3 0.017578-2e-3 0.00943-1e-3 0.016402-2e-3 0.023437-1e-3 0.01407-3e-3 0.029085-4e-3 0.046875-2e-3 0.035579-4e-3 0.083218-6e-3 0.14258-4e-3 0.11872-8e-3 0.28345-0.0117 0.48633-8e-3 0.40576-0.015 0.9584-0.0195 1.5586-8e-3 1.0859-0.011 1.6313-0.0215 1.9141-5e-3 0.14136-0.0132 0.21633-0.0195 0.25-6e-3 0.03367-5e-3 0.02307-0.0215 0.05469-0.0964 0.18009-0.15465 0.24075-0.31446 0.32812-0.32247 0.17631-0.77231 0.02315-0.9375-0.33398-0.0149-0.03232-0.0165-0.03107-0.0234-0.07226-7e-3 -0.0412-0.0144-0.12141-0.0195-0.26562-0.0103-0.28844-0.0138-0.83373-0.0215-1.8984-7e-3 -1.0033-0.0138-1.5469-0.0234-1.8516-5e-3 -0.15235-9e-3 -0.24408-0.0195-0.31445-0.0102-0.070374-0.0362-0.14555-0.0859-0.19531-0.0951-0.095246-0.2032-0.11217-0.30468-0.11133-0.10148 8.374e-4 -0.20636 0.021987-0.30078 0.10742-0.0241 0.02175-0.0837 0.10763-0.0977 0.17773s-0.0187 0.15077-0.0234 0.29688c-9e-3 0.29221-0.0111 0.83783-0.0156 1.9102l-0.01 2.1426-0.0566 0.12695c-0.12489 0.27617-0.41747 0.44885-0.69336 0.42383-0.26162-0.02372-0.46726-0.16812-0.56445-0.38281-0.0137-0.03035-0.0148-0.02797-0.0215-0.07226-7e-3 -0.0443-0.0135-0.13061-0.0176-0.2832-8e-3 -0.30519-0.01-0.87979-0.01-1.998-2e-4 -1.0859 2e-3 -1.6619 0.01-1.9922 8e-3 -0.33025 0.019-0.39736 0.0469-0.51367 0.21676-0.90438 0.92355-1.5958 1.9043-1.8477 0.16415-0.042117 0.36071-0.049004 2.125-0.048828zm2.2539 7.5996 0.0332 0.0293c0.43388 0.38536 1.0123 0.469 1.5547 0.30664-5e-3 0.0091-5e-3 0.01207-0.01 0.02148-0.21615 0.41216-0.68103 0.78601-1.2402 0.97266-0.11032 0.03684-0.11861 0.04649-0.38476 0.05664s-0.75954 0.01278-1.7422 0.01758c-1.061 0.0052-1.5396 0.0071-1.7461-0.01172 0.13846-0.40478 0.48776-0.78433 0.91797-0.93359 0.0875-0.03035 0.12686-0.04158 0.26757-0.05274 0.14072-0.01116 0.3739-0.01728 0.79493-0.02539l0.95898-0.01758 0.2168-0.10742c0.12202-0.05992 0.26442-0.15354 0.36523-0.24219z" color="#000000" color-rendering="auto" dominant-baseline="auto" fill="#fff" image-rendering="auto" shape-rendering="auto" solid-color="#000000" style="font-feature-settings:normal;font-variant-alternates:normal;font-variant-caps:normal;font-variant-ligatures:normal;font-variant-numeric:normal;font-variant-position:normal;isolation:auto;mix-blend-mode:normal;shape-padding:0;text-decoration-color:#000000;text-decoration-line:none;text-decoration-style:solid;text-indent:0;text-orientation:mixed;text-transform:none;white-space:normal"/>
        </g>
    </g>
    <g display="none" fill="none">
        <rect transform="rotate(90)" x="7.3342" y="-19.616" width="12.282" height="12.282" display="inline" stroke="#000" stroke-width=".065984"/>
        <rect x="6.7726" y="8.112" width="13.405" height="10.726" stroke="#5261ff" stroke-linecap="round" stroke-linejoin="round" stroke-width=".06524"/>
        <rect transform="rotate(90)" x="6.7726" y="-18.838" width="13.405" height="10.726" display="inline" stroke="#0f0" stroke-linecap="round" stroke-linejoin="round" stroke-width=".06524"/>
    </g>
</svg>
