<?xml version="1.0" encoding="UTF-8"?>
<svg version="1.1" viewBox="0 0 26.95 26.95" xmlns="http://www.w3.org/2000/svg">
    <defs>
        <filter id="filter6206-7" color-interpolation-filters="sRGB">
            <feGaussianBlur stdDeviation="0.658125"/>
        </filter>
    </defs>
    <g transform="translate(0 -1025.4)">
        <path transform="matrix(1.0107 0 0 .99762 -.087875 2.579)" d="m4.4177 1028.2v1.6051h-1.6052v18.192h1.6052v2.1402h18.192v-2.1402h2.1402v-18.192h-2.1402v-1.6051h-18.192z" fill="#3e2723" filter="url(#filter6206-7)" opacity=".2"/>
        <rect x="2.8113" y="1028.2" width="21.327" height="21.327" rx="1.1225" ry="1.1226" fill="#424242"/>
        <g transform="translate(-20.925 990.46)">
            <path d="m0 0h48v48h-48z" fill="none"/>
            <g transform="matrix(.33601 0 0 .33601 1.434 68.477)">
                <path d="m0 0h48v48h-48z" fill="none"/>
            </g>
            <g transform="matrix(.37187 0 0 .37187 36.377 59.287)">
                <path d="m0 0h48v48h-48z" fill="none"/>
                <g transform="matrix(2.6891 0 0 2.6891 -77.724 -45.422)">
                    <path d="m0 0h48v48h-48z" fill="none"/>
                </g>
            </g>
        </g>
        <path transform="translate(0 1025.4)" d="m3.9336 2.8105c-0.62186 0-1.123 0.50115-1.123 1.123v0.3125c0-0.6219 0.50118-1.123 1.123-1.123h19.082c0.62186 0 1.123 0.50115 1.123 1.123v-0.3125c0-0.6219-0.50118-1.123-1.123-1.123h-19.082z" fill="#fff" opacity=".2"/>
        <rect x="120" y="512.36" width="40" height="40" fill="none"/>
        <rect x="120" y="592.36" width="40" height="40" fill="none"/>
        <rect x="120" y="632.36" width="40" height="40" fill="none"/>
        <rect x="120" y="552.36" width="40" height="40" fill="none"/>
        <rect x="120" y="672.36" width="40" height="40" fill="none"/>
        <rect x="200" y="512.36" width="40" height="40" fill="none"/>
        <rect x="200" y="592.36" width="40" height="40" fill="none"/>
        <rect x="200" y="632.36" width="40" height="40" fill="none"/>
        <rect x="200" y="552.36" width="40" height="40" fill="none"/>
        <rect x="200" y="672.36" width="40" height="40" fill="none"/>
        <rect x="280" y="512.36" width="40" height="40" fill="none"/>
        <rect x="280" y="592.36" width="40" height="40" fill="none"/>
        <rect x="280" y="632.36" width="40" height="40" fill="none"/>
        <rect x="280" y="552.36" width="40" height="40" fill="none"/>
        <rect x="280" y="672.36" width="40" height="40" fill="none"/>
        <rect x="160" y="512.36" width="40" height="40" fill="none"/>
        <rect x="160" y="592.36" width="40" height="40" fill="none"/>
        <rect x="160" y="632.36" width="40" height="40" fill="none"/>
        <rect x="160" y="552.36" width="40" height="40" fill="none"/>
        <rect x="160" y="672.36" width="40" height="40" fill="none"/>
        <rect x="240" y="512.36" width="40" height="40" fill="none"/>
        <rect x="240" y="592.36" width="40" height="40" fill="none"/>
        <rect x="240" y="632.36" width="40" height="40" fill="none"/>
        <rect x="240" y="552.36" width="40" height="40" fill="none"/>
        <rect x="240" y="672.36" width="40" height="40" fill="none"/>
        <rect x="120" y="712.36" width="40" height="40" fill="none"/>
        <rect x="200" y="712.36" width="40" height="40" fill="none"/>
        <rect x="280" y="712.36" width="40" height="40" fill="none"/>
        <rect x="160" y="712.36" width="40" height="40" fill="none"/>
        <rect x="240" y="712.36" width="40" height="40" fill="none"/>
        <rect x="320" y="552.36" width="40" height="40" fill="none"/>
        <rect x="320" y="592.36" width="40" height="40" fill="none"/>
        <rect x="320" y="672.36" width="40" height="40" fill="none"/>
        <rect x="320" y="512.36" width="40" height="40" fill="none"/>
        <rect x="320" y="632.36" width="40" height="40" fill="none"/>
        <rect x="320" y="712.36" width="40" height="40" fill="none"/>
        <rect x="150" y="542.36" width="180" height="180" fill="none"/>
        <g transform="matrix(.37344 0 0 .37344 4.4375 1028.8)">
            <path d="m0 0h48v48h-48z" fill="none"/>
        </g>
        <g transform="matrix(.36471 0 0 .36471 4.8146 1028.8)">
            <path d="m0 0h48v48h-48z" fill="none"/>
        </g>
        <g transform="matrix(.41585 0 0 .41585 79.055 989.88)">
            <g transform="matrix(.062269 0 0 .062269 -26.473 173.71)">
                <g transform="matrix(38.618 0 0 38.618 13804 -12696)">
                    <g transform="matrix(.71436 0 0 .71436 -375.49 176.57)">
                        <path transform="matrix(1.3999 0 0 1.3999 525.63 -247.17)" d="m490.56 95.75c-121.72 0.18504-342.34 0.090577-468.16 0.09375-1.5548 6.9739-2.4062 14.232-2.4062 21.688v76.344c139.06 0.49354 331.32 0.2554 472.97 0.25v-76.594c0-7.4875-0.8386-14.78-2.4062-21.781zm-307.19 197.94c-52.495-3e-3 -106.38 0.11982-163.38 0.375v92.844c191.76-0.26331 282.43-0.0926 472.97-0.21875v-92.25c-109.29-0.35498-208.43-0.74426-309.59-0.75z" opacity="0"/>
                    </g>
                </g>
            </g>
        </g>
        <path d="m23.015 1049.6c0.6218 0 1.123-0.5012 1.123-1.123v-0.3125c0 0.6218-0.5012 1.123-1.123 1.123h-19.082c-0.6218 0-1.123-0.5012-1.123-1.123v0.3125c0 0.6218 0.5012 1.123 1.123 1.123h19.082z" fill="#3e2723" opacity=".2"/>
    </g>
    <flowRoot fill="#000000" font-family="Roboto" font-size="3.75px" letter-spacing="0px" stroke-width="1px" word-spacing="0px" style="line-height:125%" xml:space="preserve"><flowRegion><rect x="10.664" y="11.235" width="4.49" height="5.0512"/></flowRegion><flowPara>your</flowPara></flowRoot>
    <g transform="matrix(1.2464 0 0 1.2464 -3.4662 -3.999)">
        <g transform="translate(743.74 3.2092)">
            <path d="m-422.54-36.546v-216.62h433.24v433.24h-433.24v-216.62z" fill="#fdfdfd"/>
            <path d="m-732.09 15.077c0.0926-0.27797 0.3148-0.64903 0.48333-0.8069 0.13914-0.13034 0.1296-0.19672-0.0347-0.24096-0.20121-0.05418-0.42482-0.17691-0.57569-0.31598-0.0742-0.06843-0.14571-0.12442-0.15881-0.12442s-0.10462 0.07465-0.20334 0.16589c-0.22204 0.20521-0.46699 0.32738-0.75563 0.37687-0.67573 0.11588-1.3627-0.31295-1.5358-0.95867-0.0488-0.18196-0.0526-0.41688-0.0419-2.5702 0.0105-2.1111 0.0177-2.3919 0.0658-2.5712 0.35469-1.3231 1.4365-2.2455 2.8212-2.4054 0.21235-0.024525 0.87989-0.032053 2.0821-0.023478 1.952 0.013923 1.9507 0.013809 2.5197 0.2269 0.54879 0.20551 1.0885 0.61097 1.4536 1.092 0.19326 0.2546 0.40828 0.69332 0.50333 1.0269l0.072 0.25279 0.01 2.6859c7e-3 1.7515-9.4e-4 2.7595-0.023 2.8977-0.15728 1.0141-0.9632 1.8664-2.0321 2.1492-0.25319 0.06698-0.31842 0.10628-2.5159 0.0799l-1.997-0.02398c-0.28163-0.32789-0.28163-0.32789-0.13711-0.91285zm4.6112 0.34878c0.60155-0.20078 1.105-0.59862 1.3509-1.0675 0.10766-0.20529 0.14981-0.35876 0.0985-0.35876-0.011 0-0.12053 0.0363-0.24357 0.08069-0.50363 0.18167-1.0351 0.07604-1.4438-0.28696l-0.1611-0.14308-0.14421 0.12694c-0.0794 0.06982-0.22415 0.1662-0.32184 0.21417l-0.17762 0.08723-0.91636 0.01766c-0.84288 0.01623-0.93282 0.02338-1.1217 0.08892-0.50841 0.1764-0.93042 0.60787-1.0756 1.0997-0.075 0.25398-0.23849 0.23532 1.9678 0.22448 1.9653-0.0096 1.9677-0.0097 2.1887-0.0835zm1.0641-1.8295c0.20376-0.09055 0.32867-0.21092 0.42734-0.41186l0.0885-0.18024 0.01-2.2909c0.0104-2.6109 0.0159-2.5408-0.24587-3.0808-0.26998-0.55687-0.64322-0.93026-1.2168-1.2173-0.61494-0.30771-0.53521-0.29913-2.7806-0.29931-1.7647-1.754e-4 -1.9805 0.00538-2.1749 0.055257-1.043 0.26788-1.8099 1.015-2.0439 1.9913-0.0591 0.24644-0.0623 0.37874-0.0619 2.5508 4.6e-4 2.2366 2e-3 2.2943 0.0648 2.4331 0.12704 0.28062 0.40016 0.46778 0.72577 0.4973 0.36507 0.03311 0.72928-0.18761 0.8877-0.53794l0.0745-0.16475 9e-3 -2.1842c9e-3 -2.1446 0.0101-2.1853 0.0727-2.2419 0.0812-0.073473 0.26534-0.075038 0.33754-0.00274 0.0506 0.050654 0.056 0.21967 0.0706 2.2261 0.0154 2.1295 0.0171 2.1741 0.0829 2.3163 0.21186 0.45805 0.78014 0.65761 1.2074 0.42401 0.18375-0.10047 0.28661-0.20686 0.39388-0.40735 0.0693-0.12957 0.0696-0.13853 0.0854-2.3104 9e-3 -1.1992 0.0275-2.2039 0.0418-2.2327 0.0444-0.089649 0.19645-0.13509 0.30354-0.090725 0.0508 0.021073 0.10421 0.061908 0.1185 0.090725 0.0143 0.028826 0.033 1.0406 0.0418 2.2485 0.0146 2.0229 0.0202 2.2042 0.0717 2.2984 0.29059 0.53175 0.9321 0.66808 1.3622 0.28948 0.0818-0.07198 0.18007-0.18956 0.21844-0.2613 0.0697-0.1301 0.0698-0.13623 0.0856-2.3372l0.0157-2.2068 0.0746-0.060389c0.1104-0.089367 0.2696-0.078962 0.34969 0.022875 0.0648 0.082358 0.0655 0.10634 0.0655 2.205 0 1.6768 9e-3 2.1562 0.0425 2.2859 0.13627 0.52533 0.70354 0.80246 1.1953 0.58395z" fill="#fff" stroke="#fff" stroke-width=".38966"/>
        </g>
    </g>
    <g display="none" fill="none">
        <rect transform="rotate(90)" x="7.3342" y="-19.616" width="12.282" height="12.282" display="inline" stroke="#000" stroke-width=".065984"/>
        <rect x="6.7726" y="8.112" width="13.405" height="10.726" stroke="#5261ff" stroke-linecap="round" stroke-linejoin="round" stroke-width=".06524"/>
        <rect transform="rotate(90)" x="6.7726" y="-18.838" width="13.405" height="10.726" display="inline" stroke="#0f0" stroke-linecap="round" stroke-linejoin="round" stroke-width=".06524"/>
    </g>
</svg>
