<?xml version="1.0" encoding="UTF-8"?>
<svg version="1.1" viewBox="0 0 28.747 28.747" xmlns="http://www.w3.org/2000/svg">
    <defs>
        <filter id="filter6206-7" x="-.072" y="-.072" width="1.144" height="1.144" color-interpolation-filters="sRGB">
            <feGaussianBlur stdDeviation="0.658125"/>
        </filter>
    </defs>
    <g transform="translate(0 -1093.8)">
        <path transform="matrix(1.0781 0 0 1.0641 -.093733 2.7509)" d="m4.4177 1028.2v1.6051h-1.6052v18.192h1.6052v2.1402h18.192v-2.1402h2.1402v-18.192h-2.1402v-1.6051z" fill="#232323" filter="url(#filter6206-7)" opacity=".2"/>
        <rect x="2.9987" y="1096.8" width="22.749" height="22.749" rx="1.1973" ry="1.1974" fill="#232323"/>
        <g transform="translate(-22.32 1056.5)">
            <path d="m0 0h51.2v51.2h-51.2z" fill="none" stroke-width="1.0667"/>
            <g transform="matrix(.33601 0 0 .33601 1.5296 73.043)">
                <path d="m0 0h51.2v51.2h-51.2z" fill="none" stroke-width="1.0667"/>
            </g>
            <g transform="matrix(.37187 0 0 .37187 38.802 63.239)">
                <path d="m0 0h51.2v51.2h-51.2z" fill="none" stroke-width="1.0667"/>
                <g transform="matrix(2.6891 0 0 2.6891 -82.906 -48.45)">
                    <path d="m0 0h51.2v51.2h-51.2z" fill="none" stroke-width="1.0667"/>
                </g>
            </g>
        </g>
        <path d="m4.1958 1096.8c-0.66332 0-1.1979 0.5346-1.1979 1.1979v0.3334c0-0.6634 0.53459-1.1979 1.1979-1.1979h20.354c0.66332 0 1.1979 0.5345 1.1979 1.1979v-0.3334c0-0.6633-0.5346-1.1979-1.1979-1.1979z" fill="#fff" opacity=".2"/>
        <rect x="128" y="546.52" width="42.667" height="42.667" fill="none" stroke-width="1.0667"/>
        <rect x="128" y="631.85" width="42.667" height="42.667" fill="none" stroke-width="1.0667"/>
        <rect x="128" y="674.52" width="42.667" height="42.667" fill="none" stroke-width="1.0667"/>
        <rect x="128" y="589.19" width="42.667" height="42.667" fill="none" stroke-width="1.0667"/>
        <rect x="128" y="717.19" width="42.667" height="42.667" fill="none" stroke-width="1.0667"/>
        <rect x="213.33" y="546.52" width="42.667" height="42.667" fill="none" stroke-width="1.0667"/>
        <rect x="213.33" y="631.85" width="42.667" height="42.667" fill="none" stroke-width="1.0667"/>
        <rect x="213.33" y="674.52" width="42.667" height="42.667" fill="none" stroke-width="1.0667"/>
        <rect x="213.33" y="589.19" width="42.667" height="42.667" fill="none" stroke-width="1.0667"/>
        <rect x="213.33" y="717.19" width="42.667" height="42.667" fill="none" stroke-width="1.0667"/>
        <rect x="298.67" y="546.52" width="42.667" height="42.667" fill="none" stroke-width="1.0667"/>
        <rect x="298.67" y="631.85" width="42.667" height="42.667" fill="none" stroke-width="1.0667"/>
        <rect x="298.67" y="674.52" width="42.667" height="42.667" fill="none" stroke-width="1.0667"/>
        <rect x="298.67" y="589.19" width="42.667" height="42.667" fill="none" stroke-width="1.0667"/>
        <rect x="298.67" y="717.19" width="42.667" height="42.667" fill="none" stroke-width="1.0667"/>
        <rect x="170.67" y="546.52" width="42.667" height="42.667" fill="none" stroke-width="1.0667"/>
        <rect x="170.67" y="631.85" width="42.667" height="42.667" fill="none" stroke-width="1.0667"/>
        <rect x="170.67" y="674.52" width="42.667" height="42.667" fill="none" stroke-width="1.0667"/>
        <rect x="170.67" y="589.19" width="42.667" height="42.667" fill="none" stroke-width="1.0667"/>
        <rect x="170.67" y="717.19" width="42.667" height="42.667" fill="none" stroke-width="1.0667"/>
        <rect x="256" y="546.52" width="42.667" height="42.667" fill="none" stroke-width="1.0667"/>
        <rect x="256" y="631.85" width="42.667" height="42.667" fill="none" stroke-width="1.0667"/>
        <rect x="256" y="674.52" width="42.667" height="42.667" fill="none" stroke-width="1.0667"/>
        <rect x="256" y="589.19" width="42.667" height="42.667" fill="none" stroke-width="1.0667"/>
        <rect x="256" y="717.19" width="42.667" height="42.667" fill="none" stroke-width="1.0667"/>
        <rect x="128" y="759.85" width="42.667" height="42.667" fill="none" stroke-width="1.0667"/>
        <rect x="213.33" y="759.85" width="42.667" height="42.667" fill="none" stroke-width="1.0667"/>
        <rect x="298.67" y="759.85" width="42.667" height="42.667" fill="none" stroke-width="1.0667"/>
        <rect x="170.67" y="759.85" width="42.667" height="42.667" fill="none" stroke-width="1.0667"/>
        <rect x="256" y="759.85" width="42.667" height="42.667" fill="none" stroke-width="1.0667"/>
        <rect x="341.33" y="589.19" width="42.667" height="42.667" fill="none" stroke-width="1.0667"/>
        <rect x="341.33" y="631.85" width="42.667" height="42.667" fill="none" stroke-width="1.0667"/>
        <rect x="341.33" y="717.19" width="42.667" height="42.667" fill="none" stroke-width="1.0667"/>
        <rect x="341.33" y="546.52" width="42.667" height="42.667" fill="none" stroke-width="1.0667"/>
        <rect x="341.33" y="674.52" width="42.667" height="42.667" fill="none" stroke-width="1.0667"/>
        <rect x="341.33" y="759.85" width="42.667" height="42.667" fill="none" stroke-width="1.0667"/>
        <rect x="160" y="578.52" width="192" height="192" fill="none" stroke-width="1.0667"/>
        <g transform="matrix(.37344 0 0 .37344 4.7333 1097.4)">
            <path d="m0 0h51.2v51.2h-51.2z" fill="none" stroke-width="1.0667"/>
        </g>
        <g transform="matrix(.36471 0 0 .36471 5.1356 1097.4)">
            <path d="m0 0h51.2v51.2h-51.2z" fill="none" stroke-width="1.0667"/>
        </g>
        <g transform="matrix(.41585 0 0 .41585 84.325 1055.9)">
            <g transform="matrix(.062269 0 0 .062269 -28.238 185.29)">
                <g transform="matrix(38.618 0 0 38.618 14724 -13542)">
                    <g transform="matrix(.71436 0 0 .71436 -400.52 188.34)">
                        <path d="m1293.2-120.67c-181.75 0.2763-511.18 0.13525-699.05 0.13998-2.3216 10.413-3.593 21.251-3.593 32.384v114c207.65 0.73695 494.72 0.38136 706.23 0.3733v-114.37c0-11.18-1.2522-22.07-3.593-32.523zm-458.69 295.56c-78.385-4e-3 -158.85 0.17892-243.95 0.55995v138.63c286.34-0.39317 421.73-0.13827 706.23-0.32664v-137.75c-163.2-0.53005-311.22-1.1113-462.28-1.1199z" opacity="0" stroke-width="1.4932"/>
                    </g>
                </g>
            </g>
        </g>
        <path d="m24.549 1119.5c0.66325 0 1.1979-0.5346 1.1979-1.1979v-0.3333c0 0.6632-0.53461 1.1978-1.1979 1.1978h-20.354c-0.66325 0-1.1979-0.5346-1.1979-1.1978v0.3333c0 0.6633 0.53461 1.1979 1.1979 1.1979z" fill="#232323" opacity=".2"/>
    </g>
    <path d="m15.626 8.5637c-0.33132-0.049842-0.866 0.00812-1.2119 0.00812-1.822 4e-7 -3.6271 0.61161-4.8521 1.8122-1.1521 1.1292-1.7797 2.797-1.7795 4.4236 1.633e-4 1.6838 0.78695 2.9972 1.5277 3.8993 0.67015 0.8162 1.9343 1.5152 2.8624 1.8668 0.77651 0.29417 1.4517 0.37974 2.4068 0.35309 1.0311-0.02877 2.0397-0.3088 2.9215-0.80073 0.52802-0.29457 0.85856-0.71716 1.3269-1.2367 0.0786-0.13552 0.05773-0.22409 0.05773-0.22409s-0.11279 0.01767-0.23784 0.11403c-0.74417 0.82542-1.4104 1.1374-2.4874 1.4981-0.51088 0.17109-1.0504 0.22564-1.6186 0.22898-0.70763 0.0042-1.4557-0.09124-2.2012-0.37366-0.88874-0.33668-1.9251-1.0251-2.5059-1.7989-0.85318-1.1367-1.3689-2.0814-1.3663-3.5081 0.00286-1.5564 0.65497-2.9327 1.6596-3.9282 0.98663-0.97768 2.3079-1.5886 3.9402-1.5886 0.3457 0 1.1878 0.049775 1.4405 0.13081 0.59795-0.41229 1.4649-0.76579 1.8476-0.8224-0.14819 0.42331-0.31928 0.96084-0.32634 1.2294 0.33272 0.63842 0.79515 1.3729 1.1968 2.057 0.45979 0.78306 0.95271 1.5471 1.3887 2.3437 0.1487 0.27168 0.35853 0.5845 0.52701 0.87851 0.1569 0.27379 0.23295 0.48744 0.23534 0.68015-0.04547 0.16132-0.08025 0.32957-0.14952 0.44374-0.15526 0.25588-0.35025 0.42126-0.57065 0.58933-0.06398 0.0488-0.1926 0.12499-0.29772 0.16966-0.09969 0.04235-0.18021 0.08409-0.31177 0.0916-0.1828-0.45413-0.75023-1.0657-1.1691-1.4634-0.52703-0.5232-1.0215-0.7933-1.5459-1.1714-0.31056-0.2239-0.64357-0.41639-0.94738-0.64936-0.40103-0.30751-0.80721-0.61607-1.1522-0.98532-0.39156-0.41905-0.6349-0.91714-0.65519-1.1153-0.01017-0.09925-0.02701-0.25707-0.03724-0.39728-0.0084-0.1143-0.0087-0.22356-0.02649-0.22515-0.02319-2e-3 -0.12652 0.28047-0.13663 0.4821-0.0092 0.18266 8e-3 0.42993 0.07367 0.63138 0.10296 0.31575 0.2849 0.59717 0.49003 0.86749 0.41543 0.54744 0.87223 0.98184 1.0985 1.1742 0.22062 0.18748 0.54316 0.47137 0.95005 0.78439 0.40105 0.30853 0.91869 0.6901 1.3277 1.0912 0.52551 0.51539 0.98334 1.018 1.435 1.6784 0.58498-0.12922 0.98783-0.33501 1.3999-0.64092 0.43706-0.32445 0.79049-0.77634 0.81085-1.2755 0.01305-0.68134-0.4876-1.3117-0.78889-1.9421-0.41054-0.85902-0.91988-1.6672-1.3839-2.4986-0.33812-0.60583-0.6707-1.2143-1.0203-1.8142 0 0 0.2643-1.1565 0.40919-1.8138-1.1801-0.032021-1.8879 0.33189-2.5538 0.7466z" color="#000000" fill="#fff" fill-opacity=".98475" stroke-linecap="round" stroke-linejoin="round" stroke-width="1.0256" style="-inkscape-stroke:none"/>
    <g display="none" fill="none">
        <rect transform="rotate(90)" x="7.8232" y="-20.923" width="13.1" height="13.1" display="inline" stroke="#000" stroke-width=".070382"/>
        <rect x="7.2241" y="8.6528" width="14.298" height="11.441" stroke="#5261ff" stroke-linecap="round" stroke-linejoin="round" stroke-width=".06959"/>
        <rect transform="rotate(90)" x="7.2241" y="-20.094" width="14.298" height="11.441" display="inline" stroke="#0f0" stroke-linecap="round" stroke-linejoin="round" stroke-width=".06959"/>
    </g>
</svg>
