<?xml version="1.0" encoding="UTF-8"?>
<svg version="1.1" viewBox="0 0 26.95 26.95" xmlns="http://www.w3.org/2000/svg">
    <defs>
        <filter id="filter6206-7" color-interpolation-filters="sRGB">
            <feGaussianBlur stdDeviation="0.658125"/>
        </filter>
    </defs>
    <g transform="translate(0 -1025.4)">
        <path transform="matrix(1.0107 0 0 .99762 -.087875 2.579)" d="m4.4177 1028.2v1.6051h-1.6052v18.192h1.6052v2.1402h18.192v-2.1402h2.1402v-18.192h-2.1402v-1.6051h-18.192z" fill="#1a237e" filter="url(#filter6206-7)" opacity=".2"/>
        <rect x="2.8113" y="1028.2" width="21.327" height="21.327" rx="1.1225" ry="1.1226" fill="#232323"/>
        <g transform="translate(-20.925 990.46)">
            <path d="m0 0h48v48h-48z" fill="none"/>
            <g transform="matrix(.33601 0 0 .33601 1.434 68.477)">
                <path d="m0 0h48v48h-48z" fill="none"/>
            </g>
            <g transform="matrix(.37187 0 0 .37187 36.377 59.287)">
                <path d="m0 0h48v48h-48z" fill="none"/>
                <g transform="matrix(2.6891 0 0 2.6891 -77.724 -45.422)">
                    <path d="m0 0h48v48h-48z" fill="none"/>
                </g>
            </g>
        </g>
        <path transform="translate(0 1025.4)" d="m3.9336 2.8105c-0.62186 0-1.123 0.50115-1.123 1.123v0.3125c0-0.6219 0.50118-1.123 1.123-1.123h19.082c0.62186 0 1.123 0.50115 1.123 1.123v-0.3125c0-0.6219-0.50118-1.123-1.123-1.123h-19.082z" fill="#fff" opacity=".2"/>
        <rect x="120" y="512.36" width="40" height="40" fill="none"/>
        <rect x="120" y="592.36" width="40" height="40" fill="none"/>
        <rect x="120" y="632.36" width="40" height="40" fill="none"/>
        <rect x="120" y="552.36" width="40" height="40" fill="none"/>
        <rect x="120" y="672.36" width="40" height="40" fill="none"/>
        <rect x="200" y="512.36" width="40" height="40" fill="none"/>
        <rect x="200" y="592.36" width="40" height="40" fill="none"/>
        <rect x="200" y="632.36" width="40" height="40" fill="none"/>
        <rect x="200" y="552.36" width="40" height="40" fill="none"/>
        <rect x="200" y="672.36" width="40" height="40" fill="none"/>
        <rect x="280" y="512.36" width="40" height="40" fill="none"/>
        <rect x="280" y="592.36" width="40" height="40" fill="none"/>
        <rect x="280" y="632.36" width="40" height="40" fill="none"/>
        <rect x="280" y="552.36" width="40" height="40" fill="none"/>
        <rect x="280" y="672.36" width="40" height="40" fill="none"/>
        <rect x="160" y="512.36" width="40" height="40" fill="none"/>
        <rect x="160" y="592.36" width="40" height="40" fill="none"/>
        <rect x="160" y="632.36" width="40" height="40" fill="none"/>
        <rect x="160" y="552.36" width="40" height="40" fill="none"/>
        <rect x="160" y="672.36" width="40" height="40" fill="none"/>
        <rect x="240" y="512.36" width="40" height="40" fill="none"/>
        <rect x="240" y="592.36" width="40" height="40" fill="none"/>
        <rect x="240" y="632.36" width="40" height="40" fill="none"/>
        <rect x="240" y="552.36" width="40" height="40" fill="none"/>
        <rect x="240" y="672.36" width="40" height="40" fill="none"/>
        <rect x="120" y="712.36" width="40" height="40" fill="none"/>
        <rect x="200" y="712.36" width="40" height="40" fill="none"/>
        <rect x="280" y="712.36" width="40" height="40" fill="none"/>
        <rect x="160" y="712.36" width="40" height="40" fill="none"/>
        <rect x="240" y="712.36" width="40" height="40" fill="none"/>
        <rect x="320" y="552.36" width="40" height="40" fill="none"/>
        <rect x="320" y="592.36" width="40" height="40" fill="none"/>
        <rect x="320" y="672.36" width="40" height="40" fill="none"/>
        <rect x="320" y="512.36" width="40" height="40" fill="none"/>
        <rect x="320" y="632.36" width="40" height="40" fill="none"/>
        <rect x="320" y="712.36" width="40" height="40" fill="none"/>
        <rect x="150" y="542.36" width="180" height="180" fill="none"/>
        <g transform="matrix(.37344 0 0 .37344 4.4375 1028.8)">
            <path d="m0 0h48v48h-48z" fill="none"/>
        </g>
        <g transform="matrix(.36471 0 0 .36471 4.8146 1028.8)">
            <path d="m0 0h48v48h-48z" fill="none"/>
        </g>
        <g transform="matrix(.41585 0 0 .41585 79.055 989.88)">
            <g transform="matrix(.062269 0 0 .062269 -26.473 173.71)">
                <g transform="matrix(38.618 0 0 38.618 13804 -12696)">
                    <g transform="matrix(.71436 0 0 .71436 -375.49 176.57)">
                        <path transform="matrix(1.3999 0 0 1.3999 525.63 -247.17)" d="m490.56 95.75c-121.72 0.18504-342.34 0.090577-468.16 0.09375-1.5548 6.9739-2.4062 14.232-2.4062 21.688v76.344c139.06 0.49354 331.32 0.2554 472.97 0.25v-76.594c0-7.4875-0.8386-14.78-2.4062-21.781zm-307.19 197.94c-52.495-3e-3 -106.38 0.11982-163.38 0.375v92.844c191.76-0.26331 282.43-0.0926 472.97-0.21875v-92.25c-109.29-0.35498-208.43-0.74426-309.59-0.75z" opacity="0"/>
                    </g>
                </g>
            </g>
        </g>
        <path d="m23.015 1049.6c0.6218 0 1.123-0.5012 1.123-1.123v-0.3125c0 0.6218-0.5012 1.123-1.123 1.123h-19.082c-0.6218 0-1.123-0.5012-1.123-1.123v0.3125c0 0.6218 0.5012 1.123 1.123 1.123h19.082z" fill="#1a237e" opacity=".2"/>
    </g>
    <flowRoot fill="#000000" font-family="Roboto" font-size="3.75px" letter-spacing="0px" stroke-width="1px" word-spacing="0px" style="line-height:125%" xml:space="preserve"><flowRegion><rect x="10.664" y="11.235" width="4.49" height="5.0512"/></flowRegion><flowPara>your</flowPara></flowRoot>
    <path d="m13.474 6.7672c-1.3114 0-2.0813 0.80003-2.2263 1.8788-0.14499 1.0788 0.08847 1.2764-0.27468 2.3811-0.36314 1.1047-1.9912 2.9983-1.9531 4.7455 0.011907 0.54397 0.074488 1.015 0.18363 1.4265 0.1338-0.2217 0.33205-0.37794 0.47653-0.44466 0.11279-0.05207 0.16731-0.07712 0.19274-0.0865 0.00364-0.02794 0.017987-0.09158 0.044007-0.21702 0.035752-0.17228 0.17273-0.44204 0.40672-0.61918-0.0024-0.05367-0.0051-0.10679-0.0061-0.16238-0.02703-1.3552 1.3736-2.8233 1.6314-3.6802 0.2578-0.8568 0.14565-0.94504 0.18818-1.1579 0.04251-0.21288 0.2067-0.46086 0.44314-0.65864 0.02252-0.01886 0.04445-0.02711 0.06678-0.02731 0.21555-2e-3 0.43126 0.78269 0.84833 0.78308 0.41707 5.4e-4 0.63404-0.9566 0.87413-0.75576 0.23643 0.19778 0.40062 0.44575 0.44314 0.65863 0.04253 0.21289-0.06961 0.30112 0.18818 1.1579 0.25781 0.85682 1.6569 2.325 1.6299 3.6802-9.95e-4 0.05509-0.0038 0.10767-0.0061 0.16086 0.23503 0.17711 0.37241 0.44799 0.40823 0.6207 0.02602 0.12544 0.04032 0.18907 0.044 0.21702 0.02535 0.0094 0.08009 0.03586 0.19273 0.08802 0.14453 0.06693 0.34158 0.22287 0.47501 0.44466 0.10943-0.412 0.17328-0.88331 0.18515-1.4281 0.03806-1.7472-1.5915-3.6409-1.9547-4.7455-0.36315-1.1047-0.12819-1.3024-0.27318-2.3811-0.14498-1.0788-0.91639-1.8788-2.2278-1.8788zm-2.5769 9.3514c-0.05631 0.0033-0.11853 0.01842-0.18818 0.04703-0.44575 0.18333-0.24994 0.56954-0.44466 0.81343-0.19471 0.24391-0.58569 0.12642-0.70871 0.62525s1.768 2.948 2.7848 2.5298c1.0168-0.41815 0.63869-3.4896 0.20032-3.7576-0.43836-0.26794-0.63245 0.09097-0.94242 0.05462-0.26154-0.03066-0.39705-0.33019-0.70113-0.31261zm5.1219 0c-0.28126 0.0049-0.41741 0.2831-0.66926 0.31263-0.30998 0.03634-0.50406-0.32258-0.94242-0.05462-0.43838 0.26795-0.81644 3.3394 0.20032 3.7576 1.0168 0.41816 2.9078-2.031 2.7848-2.5298-0.12303-0.49882-0.51248-0.38134-0.7072-0.62525-0.19472-0.2439 9.95e-4 -0.63011-0.44465-0.81343-0.08359-0.03436-0.15666-0.04816-0.22157-0.04703zm-2.5996 3.0033c-0.02222 0.14354-0.05206 0.2844-0.09106 0.42038-0.06359 0.22161-0.15639 0.4437-0.29442 0.63284 0.14306 0.0089 0.28967 0.01012 0.4401 0.0032 0.15045 7e-3 0.29701 0.0058 0.4401-0.0032-0.13803-0.18914-0.23083-0.41123-0.29442-0.63284-0.03901-0.13597-0.06884-0.27683-0.09106-0.42038-0.0182 5.39e-4 -0.03626 0.0015-0.05462 0.0015-0.01838 0-0.03643-0.0011-0.05462-0.0015z" color="#000000" fill="#fff"/>
    <g display="none" fill="none">
        <rect transform="rotate(90)" x="7.3342" y="-19.616" width="12.282" height="12.282" display="inline" stroke="#000" stroke-width=".065984"/>
        <rect x="6.7726" y="8.112" width="13.405" height="10.726" stroke="#5261ff" stroke-linecap="round" stroke-linejoin="round" stroke-width=".06524"/>
        <rect transform="rotate(90)" x="6.7726" y="-18.838" width="13.405" height="10.726" display="inline" stroke="#0f0" stroke-linecap="round" stroke-linejoin="round" stroke-width=".06524"/>
    </g>
</svg>
