<?xml version="1.0" encoding="UTF-8"?>
<svg version="1.1" viewBox="0 0 26.95 26.95" xmlns="http://www.w3.org/2000/svg">
    <defs>
        <filter id="filter6206-7" color-interpolation-filters="sRGB">
            <feGaussianBlur stdDeviation="0.658125"/>
        </filter>
    </defs>
    <g transform="translate(0 -1025.4)">
        <path transform="matrix(1.0107 0 0 .99762 -.087875 2.579)" d="m4.4177 1028.2v1.6051h-1.6052v18.192h1.6052v2.1402h18.192v-2.1402h2.1402v-18.192h-2.1402v-1.6051h-18.192z" fill="#1a237e" filter="url(#filter6206-7)" opacity=".2"/>
        <rect x="2.8113" y="1028.2" width="21.327" height="21.327" rx="1.1225" ry="1.1226" fill="#424242"/>
        <g transform="translate(-20.925 990.46)">
            <path d="m0 0h48v48h-48z" fill="none"/>
            <g transform="matrix(.33601 0 0 .33601 1.434 68.477)">
                <path d="m0 0h48v48h-48z" fill="none"/>
            </g>
            <g transform="matrix(.37187 0 0 .37187 36.377 59.287)">
                <path d="m0 0h48v48h-48z" fill="none"/>
                <g transform="matrix(2.6891 0 0 2.6891 -77.724 -45.422)">
                    <path d="m0 0h48v48h-48z" fill="none"/>
                </g>
            </g>
        </g>
        <path transform="translate(0 1025.4)" d="m3.9336 2.8105c-0.62186 0-1.123 0.50115-1.123 1.123v0.3125c0-0.6219 0.50118-1.123 1.123-1.123h19.082c0.62186 0 1.123 0.50115 1.123 1.123v-0.3125c0-0.6219-0.50118-1.123-1.123-1.123h-19.082z" fill="#fff" opacity=".2"/>
        <rect x="120" y="512.36" width="40" height="40" fill="none"/>
        <rect x="120" y="592.36" width="40" height="40" fill="none"/>
        <rect x="120" y="632.36" width="40" height="40" fill="none"/>
        <rect x="120" y="552.36" width="40" height="40" fill="none"/>
        <rect x="120" y="672.36" width="40" height="40" fill="none"/>
        <rect x="200" y="512.36" width="40" height="40" fill="none"/>
        <rect x="200" y="592.36" width="40" height="40" fill="none"/>
        <rect x="200" y="632.36" width="40" height="40" fill="none"/>
        <rect x="200" y="552.36" width="40" height="40" fill="none"/>
        <rect x="200" y="672.36" width="40" height="40" fill="none"/>
        <rect x="280" y="512.36" width="40" height="40" fill="none"/>
        <rect x="280" y="592.36" width="40" height="40" fill="none"/>
        <rect x="280" y="632.36" width="40" height="40" fill="none"/>
        <rect x="280" y="552.36" width="40" height="40" fill="none"/>
        <rect x="280" y="672.36" width="40" height="40" fill="none"/>
        <rect x="160" y="512.36" width="40" height="40" fill="none"/>
        <rect x="160" y="592.36" width="40" height="40" fill="none"/>
        <rect x="160" y="632.36" width="40" height="40" fill="none"/>
        <rect x="160" y="552.36" width="40" height="40" fill="none"/>
        <rect x="160" y="672.36" width="40" height="40" fill="none"/>
        <rect x="240" y="512.36" width="40" height="40" fill="none"/>
        <rect x="240" y="592.36" width="40" height="40" fill="none"/>
        <rect x="240" y="632.36" width="40" height="40" fill="none"/>
        <rect x="240" y="552.36" width="40" height="40" fill="none"/>
        <rect x="240" y="672.36" width="40" height="40" fill="none"/>
        <rect x="120" y="712.36" width="40" height="40" fill="none"/>
        <rect x="200" y="712.36" width="40" height="40" fill="none"/>
        <rect x="280" y="712.36" width="40" height="40" fill="none"/>
        <rect x="160" y="712.36" width="40" height="40" fill="none"/>
        <rect x="240" y="712.36" width="40" height="40" fill="none"/>
        <rect x="320" y="552.36" width="40" height="40" fill="none"/>
        <rect x="320" y="592.36" width="40" height="40" fill="none"/>
        <rect x="320" y="672.36" width="40" height="40" fill="none"/>
        <rect x="320" y="512.36" width="40" height="40" fill="none"/>
        <rect x="320" y="632.36" width="40" height="40" fill="none"/>
        <rect x="320" y="712.36" width="40" height="40" fill="none"/>
        <rect x="150" y="542.36" width="180" height="180" fill="none"/>
        <g transform="matrix(.37344 0 0 .37344 4.4375 1028.8)">
            <path d="m0 0h48v48h-48z" fill="none"/>
        </g>
        <g transform="matrix(.36471 0 0 .36471 4.8146 1028.8)">
            <path d="m0 0h48v48h-48z" fill="none"/>
        </g>
        <g transform="matrix(.41585 0 0 .41585 79.055 989.88)">
            <g transform="matrix(.062269 0 0 .062269 -26.473 173.71)">
                <g transform="matrix(38.618 0 0 38.618 13804 -12696)">
                    <g transform="matrix(.71436 0 0 .71436 -375.49 176.57)">
                        <path transform="matrix(1.3999 0 0 1.3999 525.63 -247.17)" d="m490.56 95.75c-121.72 0.18504-342.34 0.090577-468.16 0.09375-1.5548 6.9739-2.4062 14.232-2.4062 21.688v76.344c139.06 0.49354 331.32 0.2554 472.97 0.25v-76.594c0-7.4875-0.8386-14.78-2.4062-21.781zm-307.19 197.94c-52.495-3e-3 -106.38 0.11982-163.38 0.375v92.844c191.76-0.26331 282.43-0.0926 472.97-0.21875v-92.25c-109.29-0.35498-208.43-0.74426-309.59-0.75z" opacity="0"/>
                    </g>
                </g>
            </g>
        </g>
        <path d="m23.015 1049.6c0.6218 0 1.123-0.5012 1.123-1.123v-0.3125c0 0.6218-0.5012 1.123-1.123 1.123h-19.082c-0.6218 0-1.123-0.5012-1.123-1.123v0.3125c0 0.6218 0.5012 1.123 1.123 1.123h19.082z" fill="#1a237e" opacity=".2"/>
    </g>
    <flowRoot fill="#000000" font-family="Roboto" font-size="3.75px" letter-spacing="0px" stroke-width="1px" word-spacing="0px" style="line-height:125%" xml:space="preserve"><flowRegion><rect x="10.664" y="11.235" width="4.49" height="5.0512"/></flowRegion><flowPara>your</flowPara></flowRoot>
    <g transform="matrix(.10763 0 0 -.10763 4.9642 19.566)" fill="#fff">
        <path d="m92.594 48c-0.66667 1.7292-1.1979 2.7292-1.5938 3s-1.3958 0.40625-3 0.40625c-0.80208 0-4.6042-0.53646-11.406-1.6094l-0.59375-0.59375c2.2708-2.1354 4.6042-4.1354 7-6s4.625-3.5 6.6875-4.9062c2.0729-1.3958 4.3073-2.7292 6.7031-4 2.4062-1.2604 4.4427-2.3281 6.1094-3.2031 1.6667-0.86458 3.7344-1.7292 6.2031-2.5938s4.2656-1.5312 5.3906-2c1.1354-0.46875 2.901-0.96875 5.2969-1.5 2.4062-0.53125 3.9427-0.90104 4.6094-1.1094 0.66667-0.19792 2.1667-0.53125 4.5-1 2.3333-0.45833 3.5677-0.6875 3.7031-0.6875 0.80209-0.13542 1.5365-0.80208 2.2031-2-9.3333-2.4062-15.938-3.6094-19.812-3.6094h-2.1876c-1.6042 0-3.4062 0.43229-5.4062 1.2969-2 0.875-5.599 3.4792-10.797 7.8125-5.1979 4.3333-11.734 10.5-19.609 18.5-0.39583-0.40625-0.59375-0.67188-0.59375-0.79688v-20.609c0-0.66667 0.13021-2.2344 0.39062-4.7031 0.27083-2.4583 0.40625-4.0208 0.40625-4.6875 0-4.4062-1.1979-8.875-3.5938-13.406-3.8646 2.5312-5.7969 5.4635-5.7969 8.7969 0 0.27083 0.09896 0.77083 0.29688 1.5 0.19792 0.73958 0.53125 2.1719 1 4.2969 0.46875 2.1354 0.96875 4.8021 1.5 8l-0.20312 17.406c-1.4688-1.1979-3.6719-2.9635-6.6094-5.2969-2.9271-2.3333-5.2604-4.1667-7-5.5-1.7292-1.3333-3.8594-2.9688-6.3906-4.9062-2.5312-1.9271-4.6302-3.4583-6.2969-4.5938s-3.4688-2.2708-5.4062-3.4062c-1.9271-1.1354-3.5938-1.9688-5-2.5-1.3958-0.53125-2.5625-0.79688-3.5-0.79688h-5.2031c2.1354 1.4688 5.0365 3.4688 8.7031 6s6.2344 4.2969 7.7031 5.2969 3.5 2.4323 6.0938 4.2969c2.6042 1.875 4.4375 3.2448 5.5 4.1094 1.0729 0.86458 2.5052 2.0625 4.2969 3.5938 1.8021 1.5312 3.1719 2.8281 4.1094 3.8906 0.9375 1.0729 1.9375 2.3073 3 3.7031 1.0625 1.4062 2.0625 2.8438 3 4.3125-0.27083 0.26042-0.9375 0.39062-2 0.39062-2.6667 0-4.7344-0.23438-6.2031-0.70312-1.4688-0.45833-2.3021-0.89062-2.5-1.2969-0.19792-0.39583-0.43229-1.0625-0.70312-2-1.5938 0-3.026 1.4688-4.2969 4.4062-1.2604 2.9375-2.8906 6.8385-4.8906 11.703s-4.3333 8.8281-7 11.891v3.2031h5.3906l2.7969-1.3906c0.13542-0.13542 0.86979-0.20312 2.2031-0.20312 2.6667 0 9.6667 1.6667 21 5v7.7969c-0.80208 0-2.7344-0.23438-5.7969-0.70312s-4.9948-0.70312-5.7969-0.70312c-1.8646 0-4.5312 0.86979-8 2.6094l19.594 3.7969v8l-4 13.203c4.4062-1.0729 8.5417-2.8073 12.406-5.2031l-2.4062-11c0-0.80208 0.46875-1.4688 1.4062-2l13.203 2.7969c2.125-0.13542 4.5208-1 7.1875-2.5938-3.4583-1.8646-10.057-4.0677-19.797-6.6094-1.0625-0.26042-1.9948-0.98958-2.7969-2.1875v-6c0.13542-0.27083 0.60417-0.40625 1.4062-0.40625 0.53125 0 3.8958 0.63021 10.094 1.8906 6.1979 1.2708 9.5625 1.9062 10.094 1.9062 1.0729 0 3.375-0.76562 6.9062-2.2969s5.2969-3.1667 5.2969-4.9062c0-0.66667-0.46875-1.8021-1.4062-3.4062-0.92709-1.5938-1.9896-3.2917-3.1875-5.0938-1.1979-1.7917-1.9323-2.9583-2.2031-3.5l-7-16.594h-3.4062m-16.594 21c1.6042-0.39583 2.9375-0.59375 4-0.59375 0.66667 0 1.2969 0.09896 1.8906 0.29688 0.60417 0.19792 0.97396 0.29688 1.1094 0.29688 4 0 6.2656-0.93229 6.7969-2.7969-2-1.0729-6.599-2.5417-13.797-4.4062v-5.7969c0.66667-0.80208 2.1979-1.2031 4.5938-1.2031l12 1.2031c2.2708 8.9375 3.4062 14.339 3.4062 16.203 0 2.3958-0.33333 3.8594-1 4.3906h-12.203c-0.92708 0-3.1927-0.59896-6.7969-1.7969v-5.7969m-5.4062-2.5938v7.3906h-2.7969l-18-3.3906 6.2031-19 11 1.7969c0.9375-0.27083 2.0729-0.73958 3.4062-1.4062v8.2031c0 0.39583-0.20312 0.59375-0.60938 0.59375-3.5938-0.39583-5.724-0.59375-6.3906-0.59375h-1.2031c-1.4688 0-2.5365 0.16667-3.2031 0.5s-1.4688 1.099-2.4062 2.2969l14 3.6094" fill="#fff"/>
    </g>
    <g display="none" fill="none">
        <rect transform="rotate(90)" x="7.3342" y="-19.616" width="12.282" height="12.282" display="inline" stroke="#000" stroke-width=".065984"/>
        <rect x="6.7726" y="8.112" width="13.405" height="10.726" stroke="#5261ff" stroke-linecap="round" stroke-linejoin="round" stroke-width=".06524"/>
        <rect transform="rotate(90)" x="6.7726" y="-18.838" width="13.405" height="10.726" display="inline" stroke="#0f0" stroke-linecap="round" stroke-linejoin="round" stroke-width=".06524"/>
    </g>
</svg>
