<?xml version="1.0" encoding="UTF-8"?>
<svg fill="none" viewBox="0 0 40 40" xmlns="http://www.w3.org/2000/svg">
    <g filter="url(#filter0_f)" opacity=".2">
        <path d="m6.4966 4.3023v2.3767h-2.408v26.937h2.408v3.1689h27.29v-3.1689h3.2106v-26.937h-3.2106v-2.3767h-27.29z" fill="#232323"/>
    </g>
    <path d="m34.161 4.1727h-28.323c-0.92013 0-1.666 0.74594-1.666 1.6661v28.323c0 0.9201 0.74591 1.6661 1.666 1.6661h28.323c0.9201 0 1.6661-0.746 1.6661-1.6661v-28.323c0-0.92018-0.746-1.6661-1.6661-1.6661z" fill="#232323"/>
    <path d="m5.8384 4.1715c-0.92299 0-1.6669 0.74384-1.6669 1.6668v0.46405c0-0.9231 0.74387-1.667 1.6669-1.667h28.322c0.923 0 1.6669 0.74387 1.6669 1.667v-0.46405c0-0.92296-0.7439-1.6668-1.6669-1.6668h-28.322z" fill="#fff" opacity=".2"/>
    <path d="m34.16 35.859c0.9229 0 1.6668-0.7438 1.6668-1.6668v-0.4639c0 0.9228-0.7439 1.6668-1.6668 1.6668h-28.322c-0.9229 0-1.6668-0.744-1.6668-1.6668v0.4639c0 0.923 0.7439 1.6668 1.6668 1.6668h28.322z" fill="#232323" opacity=".2"/>
    <path d="m25.512 13.031c0.9826 0.5143 1.8968 0.9157 2.3622 2.053 0.4574 1.1178-0.4837 5.8178-0.4728 8.9563 5e-4 0.1492-4e-4 0.2991-0.0031 0.4487 0.0421 1.1232-0.3951 3.3146-1.3291 2.8009-0.303-0.1664-0.7455-1.1034-1.0972-2.1643-0.5703-1.72-0.0988-5.964-0.5726-6.0544-0.7402 0.8997-2.7238 2.4989-3.4775 2.9928-1.2891 0.8445-1.7012-0.3217-1.9289-1.0804-0.2782-0.9272-1.3488-2.9878-1.5632-3.1566-0.1628-0.1281-0.1761 0.0541-0.2079 0.1634-0.0777 0.2687-0.4873 3.1297-0.9293 4.6912-0.4747 1.6765-1.601 4.44-2.1252 5.0908-0.5241 0.651-2.7002 1.2065-3.1376 1.2265-0.2845 0.0682 1.5319-3.7054 1.9623-5.2998 0.6122-1.6392 1.5472-5.4197 1.6662-7.9524 0.0999-1.6683-0.0448-3.2263-0.065-3.6785 2e-4 -0.6043 0.6077-0.9356 0.9493-1.0064 0.3919-0.0814 1.2499-0.2409 2.127 0.7496 0.517 0.5837 1.3148 2.5243 1.5346 3.0052 0.2753 0.6018 1.4319 3.3177 1.6058 3.9547 0.5804-0.4228 1.4354-1.2689 2.3046-2.2276 0.9331-1.0293 1.9726-2.7546 2.0878-3.6091 0.1093-0.0388 0.2114 0.042 0.3096 0.0964-0.0982-0.0544 0 0 0 0z" clip-rule="evenodd" fill="#fff" fill-rule="evenodd"/>
    <defs>
        <filter id="filter0_f" x="3.3838" y="3.5974" width="34.319" height="33.893" color-interpolation-filters="sRGB" filterUnits="userSpaceOnUse">
            <feFlood flood-opacity="0" result="BackgroundImageFix"/>
            <feBlend in="SourceGraphic" in2="BackgroundImageFix" result="shape"/>
            <feGaussianBlur result="effect1_foregroundBlur" stdDeviation="0.352455"/>
        </filter>
    </defs>
</svg>
