<?xml version="1.0" encoding="UTF-8"?>
<svg version="1.1" viewBox="0 0 26.95 26.95" xmlns="http://www.w3.org/2000/svg">
    <defs>
        <filter id="filter6206-7" color-interpolation-filters="sRGB">
            <feGaussianBlur stdDeviation="0.658125"/>
        </filter>
    </defs>
    <g transform="translate(0 -1025.4)">
        <path transform="matrix(1.0107 0 0 .99762 -.087875 2.579)" d="m4.4177 1028.2v1.6051h-1.6052v18.192h1.6052v2.1402h18.192v-2.1402h2.1402v-18.192h-2.1402v-1.6051h-18.192z" fill="#232323" filter="url(#filter6206-7)" opacity=".2"/>
        <rect x="2.8113" y="1028.2" width="21.327" height="21.327" rx="1.1225" ry="1.1226" fill="#232323"/>
        <g transform="translate(-20.925 990.46)">
            <path d="m0 0h48v48h-48z" fill="none"/>
            <g transform="matrix(.33601 0 0 .33601 1.434 68.477)">
                <path d="m0 0h48v48h-48z" fill="none"/>
            </g>
            <g transform="matrix(.37187 0 0 .37187 36.377 59.287)">
                <path d="m0 0h48v48h-48z" fill="none"/>
                <g transform="matrix(2.6891 0 0 2.6891 -77.724 -45.422)">
                    <path d="m0 0h48v48h-48z" fill="none"/>
                </g>
            </g>
        </g>
        <path transform="translate(0 1025.4)" d="m3.9336 2.8105c-0.62186 0-1.123 0.50115-1.123 1.123v0.3125c0-0.6219 0.50118-1.123 1.123-1.123h19.082c0.62186 0 1.123 0.50115 1.123 1.123v-0.3125c0-0.6219-0.50118-1.123-1.123-1.123h-19.082z" fill="#fff" opacity=".2"/>
        <rect x="120" y="512.36" width="40" height="40" fill="none"/>
        <rect x="120" y="592.36" width="40" height="40" fill="none"/>
        <rect x="120" y="632.36" width="40" height="40" fill="none"/>
        <rect x="120" y="552.36" width="40" height="40" fill="none"/>
        <rect x="120" y="672.36" width="40" height="40" fill="none"/>
        <rect x="200" y="512.36" width="40" height="40" fill="none"/>
        <rect x="200" y="592.36" width="40" height="40" fill="none"/>
        <rect x="200" y="632.36" width="40" height="40" fill="none"/>
        <rect x="200" y="552.36" width="40" height="40" fill="none"/>
        <rect x="200" y="672.36" width="40" height="40" fill="none"/>
        <rect x="280" y="512.36" width="40" height="40" fill="none"/>
        <rect x="280" y="592.36" width="40" height="40" fill="none"/>
        <rect x="280" y="632.36" width="40" height="40" fill="none"/>
        <rect x="280" y="552.36" width="40" height="40" fill="none"/>
        <rect x="280" y="672.36" width="40" height="40" fill="none"/>
        <rect x="160" y="512.36" width="40" height="40" fill="none"/>
        <rect x="160" y="592.36" width="40" height="40" fill="none"/>
        <rect x="160" y="632.36" width="40" height="40" fill="none"/>
        <rect x="160" y="552.36" width="40" height="40" fill="none"/>
        <rect x="160" y="672.36" width="40" height="40" fill="none"/>
        <rect x="240" y="512.36" width="40" height="40" fill="none"/>
        <rect x="240" y="592.36" width="40" height="40" fill="none"/>
        <rect x="240" y="632.36" width="40" height="40" fill="none"/>
        <rect x="240" y="552.36" width="40" height="40" fill="none"/>
        <rect x="240" y="672.36" width="40" height="40" fill="none"/>
        <rect x="120" y="712.36" width="40" height="40" fill="none"/>
        <rect x="200" y="712.36" width="40" height="40" fill="none"/>
        <rect x="280" y="712.36" width="40" height="40" fill="none"/>
        <rect x="160" y="712.36" width="40" height="40" fill="none"/>
        <rect x="240" y="712.36" width="40" height="40" fill="none"/>
        <rect x="320" y="552.36" width="40" height="40" fill="none"/>
        <rect x="320" y="592.36" width="40" height="40" fill="none"/>
        <rect x="320" y="672.36" width="40" height="40" fill="none"/>
        <rect x="320" y="512.36" width="40" height="40" fill="none"/>
        <rect x="320" y="632.36" width="40" height="40" fill="none"/>
        <rect x="320" y="712.36" width="40" height="40" fill="none"/>
        <rect x="150" y="542.36" width="180" height="180" fill="none"/>
        <g transform="matrix(.37344 0 0 .37344 4.4375 1028.8)">
            <path d="m0 0h48v48h-48z" fill="none"/>
        </g>
        <g transform="matrix(.36471 0 0 .36471 4.8146 1028.8)">
            <path d="m0 0h48v48h-48z" fill="none"/>
        </g>
        <g transform="matrix(.41585 0 0 .41585 79.055 989.88)">
            <g transform="matrix(.062269 0 0 .062269 -26.473 173.71)">
                <g transform="matrix(38.618 0 0 38.618 13804 -12696)">
                    <g transform="matrix(.71436 0 0 .71436 -375.49 176.57)">
                        <path transform="matrix(1.3999 0 0 1.3999 525.63 -247.17)" d="m490.56 95.75c-121.72 0.18504-342.34 0.090577-468.16 0.09375-1.5548 6.9739-2.4062 14.232-2.4062 21.688v76.344c139.06 0.49354 331.32 0.2554 472.97 0.25v-76.594c0-7.4875-0.8386-14.78-2.4062-21.781zm-307.19 197.94c-52.495-3e-3 -106.38 0.11982-163.38 0.375v92.844c191.76-0.26331 282.43-0.0926 472.97-0.21875v-92.25c-109.29-0.35498-208.43-0.74426-309.59-0.75z" opacity="0"/>
                    </g>
                </g>
            </g>
        </g>
        <path d="m23.015 1049.6c0.6218 0 1.123-0.5012 1.123-1.123v-0.3125c0 0.6218-0.5012 1.123-1.123 1.123h-19.082c-0.6218 0-1.123-0.5012-1.123-1.123v0.3125c0 0.6218 0.5012 1.123 1.123 1.123h19.082z" fill="#232323" opacity=".2"/>
    </g>
    <g transform="translate(-327.22 -172.77)">
        <g transform="matrix(.097401 0 0 .097401 325.24 170.78)" fill="#fff">
            <path transform="matrix(10.267 0 0 10.267 20.328 20.431)" d="m13.479 6.5586c-3.81 0-6.9102 3.1-6.9102 6.9102 0 3.8101 3.1002 6.9102 6.9102 6.9102 3.8102 0 6.9082-3.1001 6.9082-6.9102 0-3.8102-3.098-6.9102-6.9082-6.9102zm0 1c3.2697 0 5.9082 2.6404 5.9082 5.9102 0 3.2696-2.6385 5.9082-5.9082 5.9082-3.2695 0-5.9102-2.6386-5.9102-5.9082 0-3.2697 2.6406-5.9102 5.9102-5.9102zm0.24219 1.7949c-0.014052 0-0.14195 0.11354-0.28516 0.25391l-0.26172 0.25586 0.25781 0.26953c0.14121 0.14835 0.27174 0.26785 0.29102 0.26563 0.037549-0.004147 0.53711-0.48173 0.53711-0.51367 0-0.028872-0.50988-0.53125-0.53906-0.53125zm-1.3066 0.84375-0.11914 0.09375c-0.065345 0.05183-0.11719 0.099666-0.11719 0.10742 0 0.022421 0.14608 0.2146 0.30664 0.40234 0.29186 0.34124 0.67576 0.58881 1.082 0.69531 0.43768 0.11472 0.8583 0.052941 1.2578-0.18164 0.23696-0.13914 0.61572-0.45901 0.60352-0.50976-0.00476-0.019888-0.1393-0.14531-0.30078-0.2793-0.16125-0.13399-0.31783-0.26338-0.3457-0.28711-0.045688-0.039161-0.061811-0.027721-0.18359 0.10742-0.38946 0.43307-0.89599 0.58192-1.3965 0.41406-0.25048-0.084081-0.35565-0.15056-0.58984-0.375l-0.19727-0.1875zm-0.88476 1.0449c-0.2025 2.2e-4 -0.41084 0.02378-0.58203 0.070312-0.28242 0.076402-0.41406 0.1375-0.41406 0.19141 0 0.047608 0.28644 0.75337 0.32422 0.79883 0.020655 0.024725 0.074201 0.012524 0.20312-0.048828 0.30845-0.14689 0.65179-0.23047 0.94726-0.23047 0.33087 0 0.47584 0.042086 0.61328 0.17969 0.19811 0.19803 0.21791 0.55511 0.048828 0.88867-0.12823 0.25301-0.47558 0.5022-0.92578 0.66406-0.10082 0.03632-0.18359 0.067625-0.18359 0.070313 0 0.026568 0.33174 0.79956 0.35547 0.82812 0.025032 0.030254 0.059163 0.021795 0.16797-0.041016 0.22875-0.13215 0.51279-0.37233 0.65039-0.55078l0.13086-0.16797 0.12109 0.13477c0.40528 0.44766 0.63085 0.99721 0.63477 1.5449 0.002687 0.41464-0.081738 0.65875-0.32031 0.91406-0.23934 0.256-0.52693 0.37638-0.88867 0.375-1.1354-0.004069-2.1495-1.1501-2.5117-2.8418-0.039314-0.18413-0.075735-0.33941-0.082031-0.3457-0.0061429-0.006296-0.074526 0.004395-0.15039 0.023438l-0.13672 0.033203 0.019531 0.17969c0.060968 0.56898 0.26465 1.2847 0.5 1.7539 0.54772 1.091 1.383 1.7762 2.3164 1.9004 0.11295 0.015127 0.30461 0.021504 0.42578 0.013672 0.7985-0.051293 1.3285-0.45324 1.5039-1.1406 0.14382-0.56346-0.039927-1.3025-0.48828-1.9688l-0.13672-0.20312 0.066406-0.054687c0.10996-0.090301 0.39548-0.22223 0.58008-0.26953 0.15127-0.0387 0.18621-0.038503 0.27344-0.001953 0.22107 0.092297 0.28508 0.30134 0.28516 0.93359 3.07e-4 1.1394 0.24546 1.5735 0.89453 1.584 0.41165 0.006604 0.71594-0.11624 0.99805-0.40234 0.3996-0.40558 0.60824-1.0104 0.65039-1.8906 0.046379-0.97319-0.15094-1.7504-0.54102-2.1406-0.20886-0.2087-0.41481-0.29609-0.75781-0.31836-0.64984-0.042386-1.095 0.28722-1.2988 0.96094-0.097058 0.32035-0.083325 0.30559-0.3457 0.32617-0.35867 0.028027-0.7093 0.19327-1.0723 0.50195-0.091606 0.077861-0.17869 0.14062-0.19336 0.14062-0.014436 0-0.057541-0.033599-0.095704-0.074219l-0.070312-0.072266 0.058594-0.1543c0.075173-0.20295 0.074866-0.69207 0-0.94531-0.15964-0.54019-0.52367-0.92233-1.0254-1.0781-0.14858-0.04611-0.34633-0.070533-0.54883-0.070312zm4.418 1.2441c0.5749-7.7e-5 0.98419 0.48814 1.0723 1.2773 0.053059 0.47408-0.044991 1.0067-0.24609 1.3438-0.11126 0.18682-0.33042 0.39789-0.49805 0.47852-0.17438 0.083927-0.45871 0.11769-0.59961 0.070312-0.052829-0.017738-0.14206-0.083333-0.19726-0.14453-0.17546-0.19404-0.1966-0.32018-0.2168-1.2578-0.019734-0.907-0.033361-0.98478-0.19922-1.1152l-0.070312-0.054688 0.080078-0.12891c0.19434-0.30576 0.49836-0.46875 0.875-0.46875z" color="#000000" color-rendering="auto" dominant-baseline="auto" image-rendering="auto" shape-rendering="auto" solid-color="#000000" style="font-feature-settings:normal;font-variant-alternates:normal;font-variant-caps:normal;font-variant-ligatures:normal;font-variant-numeric:normal;font-variant-position:normal;isolation:auto;mix-blend-mode:normal;shape-padding:0;text-decoration-color:#000000;text-decoration-line:none;text-decoration-style:solid;text-indent:0;text-orientation:mixed;text-transform:none;white-space:normal"/>
        </g>
    </g>
    <g display="none" fill="none">
        <rect transform="rotate(90)" x="7.3342" y="-19.616" width="12.282" height="12.282" display="inline" stroke="#000" stroke-width=".065984"/>
        <rect x="6.7726" y="8.112" width="13.405" height="10.726" stroke="#5261ff" stroke-linecap="round" stroke-linejoin="round" stroke-width=".06524"/>
        <rect transform="rotate(90)" x="6.7726" y="-18.838" width="13.405" height="10.726" display="inline" stroke="#0f0" stroke-linecap="round" stroke-linejoin="round" stroke-width=".06524"/>
    </g>
</svg>
