<?xml version="1.0" encoding="UTF-8"?>
<svg version="1.1" viewBox="0 0 26.95 26.95" xmlns="http://www.w3.org/2000/svg">
    <defs>
        <filter id="filter6206-7" color-interpolation-filters="sRGB">
            <feGaussianBlur stdDeviation="0.658125"/>
        </filter>
    </defs>
    <g transform="translate(0 -1025.4)">
        <path transform="matrix(1.0107 0 0 .99762 -.087875 2.579)" d="m4.4177 1028.2v1.6051h-1.6052v18.192h1.6052v2.1402h18.192v-2.1402h2.1402v-18.192h-2.1402v-1.6051h-18.192z" fill="#1a237e" filter="url(#filter6206-7)" opacity=".2"/>
        <rect x="2.8113" y="1028.2" width="21.327" height="21.327" rx="1.1225" ry="1.1226" fill="#232323"/>
        <g transform="translate(-20.925 990.46)">
            <path d="m0 0h48v48h-48z" fill="none"/>
            <g transform="matrix(.33601 0 0 .33601 1.434 68.477)">
                <path d="m0 0h48v48h-48z" fill="none"/>
            </g>
            <g transform="matrix(.37187 0 0 .37187 36.377 59.287)">
                <path d="m0 0h48v48h-48z" fill="none"/>
                <g transform="matrix(2.6891 0 0 2.6891 -77.724 -45.422)">
                    <path d="m0 0h48v48h-48z" fill="none"/>
                </g>
            </g>
        </g>
        <path transform="translate(0 1025.4)" d="m3.9336 2.8105c-0.62186 0-1.123 0.50115-1.123 1.123v0.3125c0-0.6219 0.50118-1.123 1.123-1.123h19.082c0.62186 0 1.123 0.50115 1.123 1.123v-0.3125c0-0.6219-0.50118-1.123-1.123-1.123h-19.082z" fill="#fff" opacity=".2"/>
        <rect x="120" y="512.36" width="40" height="40" fill="none"/>
        <rect x="120" y="592.36" width="40" height="40" fill="none"/>
        <rect x="120" y="632.36" width="40" height="40" fill="none"/>
        <rect x="120" y="552.36" width="40" height="40" fill="none"/>
        <rect x="120" y="672.36" width="40" height="40" fill="none"/>
        <rect x="200" y="512.36" width="40" height="40" fill="none"/>
        <rect x="200" y="592.36" width="40" height="40" fill="none"/>
        <rect x="200" y="632.36" width="40" height="40" fill="none"/>
        <rect x="200" y="552.36" width="40" height="40" fill="none"/>
        <rect x="200" y="672.36" width="40" height="40" fill="none"/>
        <rect x="280" y="512.36" width="40" height="40" fill="none"/>
        <rect x="280" y="592.36" width="40" height="40" fill="none"/>
        <rect x="280" y="632.36" width="40" height="40" fill="none"/>
        <rect x="280" y="552.36" width="40" height="40" fill="none"/>
        <rect x="280" y="672.36" width="40" height="40" fill="none"/>
        <rect x="160" y="512.36" width="40" height="40" fill="none"/>
        <rect x="160" y="592.36" width="40" height="40" fill="none"/>
        <rect x="160" y="632.36" width="40" height="40" fill="none"/>
        <rect x="160" y="552.36" width="40" height="40" fill="none"/>
        <rect x="160" y="672.36" width="40" height="40" fill="none"/>
        <rect x="240" y="512.36" width="40" height="40" fill="none"/>
        <rect x="240" y="592.36" width="40" height="40" fill="none"/>
        <rect x="240" y="632.36" width="40" height="40" fill="none"/>
        <rect x="240" y="552.36" width="40" height="40" fill="none"/>
        <rect x="240" y="672.36" width="40" height="40" fill="none"/>
        <rect x="120" y="712.36" width="40" height="40" fill="none"/>
        <rect x="200" y="712.36" width="40" height="40" fill="none"/>
        <rect x="280" y="712.36" width="40" height="40" fill="none"/>
        <rect x="160" y="712.36" width="40" height="40" fill="none"/>
        <rect x="240" y="712.36" width="40" height="40" fill="none"/>
        <rect x="320" y="552.36" width="40" height="40" fill="none"/>
        <rect x="320" y="592.36" width="40" height="40" fill="none"/>
        <rect x="320" y="672.36" width="40" height="40" fill="none"/>
        <rect x="320" y="512.36" width="40" height="40" fill="none"/>
        <rect x="320" y="632.36" width="40" height="40" fill="none"/>
        <rect x="320" y="712.36" width="40" height="40" fill="none"/>
        <rect x="150" y="542.36" width="180" height="180" fill="none"/>
        <g transform="matrix(.37344 0 0 .37344 4.4375 1028.8)">
            <path d="m0 0h48v48h-48z" fill="none"/>
        </g>
        <g transform="matrix(.36471 0 0 .36471 4.8146 1028.8)">
            <path d="m0 0h48v48h-48z" fill="none"/>
        </g>
        <g transform="matrix(.41585 0 0 .41585 79.055 989.88)">
            <g transform="matrix(.062269 0 0 .062269 -26.473 173.71)">
                <g transform="matrix(38.618 0 0 38.618 13804 -12696)">
                    <g transform="matrix(.71436 0 0 .71436 -375.49 176.57)">
                        <path transform="matrix(1.3999 0 0 1.3999 525.63 -247.17)" d="m490.56 95.75c-121.72 0.18504-342.34 0.090577-468.16 0.09375-1.5548 6.9739-2.4062 14.232-2.4062 21.688v76.344c139.06 0.49354 331.32 0.2554 472.97 0.25v-76.594c0-7.4875-0.8386-14.78-2.4062-21.781zm-307.19 197.94c-52.495-3e-3 -106.38 0.11982-163.38 0.375v92.844c191.76-0.26331 282.43-0.0926 472.97-0.21875v-92.25c-109.29-0.35498-208.43-0.74426-309.59-0.75z" opacity="0"/>
                    </g>
                </g>
            </g>
        </g>
        <path d="m23.015 1049.6c0.6218 0 1.123-0.5012 1.123-1.123v-0.3125c0 0.6218-0.5012 1.123-1.123 1.123h-19.082c-0.6218 0-1.123-0.5012-1.123-1.123v0.3125c0 0.6218 0.5012 1.123 1.123 1.123h19.082z" fill="#1a237e" opacity=".2"/>
    </g>
    <flowRoot fill="#000000" font-family="Roboto" font-size="3.75px" letter-spacing="0px" stroke-width="1px" word-spacing="0px" style="line-height:125%" xml:space="preserve"><flowRegion><rect x="10.664" y="11.235" width="4.49" height="5.0512"/></flowRegion><flowPara>your</flowPara></flowRoot>
    <g transform="translate(-327.22 -172.77)">
        <g transform="matrix(.097401 0 0 .097401 325.24 170.78)">
            <path d="m224.51 158.71c0 36.343-29.463 65.805-65.807 65.805-36.342 0-65.805-29.462-65.805-65.805 0-36.344 29.463-65.806 65.805-65.806 36.344 0 65.807 29.462 65.807 65.806z" fill="none" stroke="#fff" stroke-width="10.267"/>
            <g transform="matrix(.78835 0 0 .78835 33.848 34.729)" fill="#fff">
                <g fill="#fff">
                    <path d="m202.68 138.48c-2.72-2.718-5.424-3.853-9.891-4.143-8.463-0.552-14.262 3.737-16.917 12.511-1.264 4.172-1.063 3.982-4.48 4.25-4.671 0.365-9.248 2.5-13.975 6.52-1.193 1.014-2.324 1.842-2.515 1.842-0.188 0-0.752-0.432-1.249-0.961l-0.904-0.962 0.743-2c0.979-2.643 0.985-9.001 0.01-12.299-2.079-7.035-6.828-12.029-13.362-14.058-3.87-1.201-10.254-1.195-14.713 0.017-3.678 0.995-5.397 1.792-5.397 2.494 0 0.62 3.729 9.809 4.221 10.401 0.269 0.322 0.974 0.149 2.653-0.65 4.017-1.913 8.481-3.001 12.329-3.001 4.309 0 6.192 0.553 7.982 2.345 2.58 2.579 2.828 7.23 0.626 11.574-1.67 3.295-6.184 6.53-12.047 8.638-1.313 0.473-2.39 0.889-2.39 0.924 0 0.346 4.333 10.418 4.642 10.79 0.326 0.394 0.765 0.286 2.182-0.532 2.979-1.721 6.67-4.848 8.462-7.172l1.701-2.205 1.587 1.754c5.278 5.83 8.224 12.996 8.275 20.129 0.035 5.4-1.082 8.57-4.189 11.895-3.117 3.334-6.863 4.92-11.574 4.902-14.787-0.053-27.975-14.986-32.692-37.017-0.512-2.398-1-4.427-1.082-4.509-0.08-0.082-0.957 0.057-1.945 0.305l-1.799 0.453 0.253 2.336c0.794 7.41 3.459 16.725 6.524 22.836 7.133 14.208 18.011 23.133 30.167 24.751 1.471 0.197 3.963 0.273 5.541 0.171 10.399-0.668 17.295-5.898 19.579-14.85 1.873-7.338-0.508-16.953-6.347-25.63l-1.782-2.649 0.865-0.711c1.432-1.176 5.139-2.904 7.543-3.52 1.97-0.504 2.427-0.509 3.563-0.033 2.879 1.202 3.714 3.938 3.715 12.172 4e-3 14.838 3.199 20.495 11.652 20.631 5.361 0.086 9.32-1.51 12.994-5.236 5.204-5.282 7.917-13.179 8.466-24.643 0.604-12.674-1.945-22.778-7.025-27.86zm-1.381 40.137c-1.449 2.433-4.315 5.182-6.498 6.232-2.271 1.093-5.968 1.521-7.803 0.904-0.688-0.231-1.838-1.071-2.557-1.868-2.285-2.527-2.573-4.188-2.836-16.399-0.257-11.812-0.435-12.807-2.595-14.506l-0.924-0.727 1.066-1.68c2.531-3.982 6.481-6.097 11.386-6.097 7.487-1e-3 12.814 6.344 13.961 16.622 0.691 6.174-0.581 13.13-3.2 17.519z" fill="#fff"/>
                </g>
                <path d="m159.54 131.57c-5.291-1.387-10.299-4.599-14.1-9.043-2.091-2.445-4.002-4.947-4.002-5.239 0-0.101 0.693-0.734 1.544-1.409l1.545-1.224 2.563 2.454c3.05 2.923 4.43 3.798 7.692 4.893 6.518 2.186 13.101 0.224 18.173-5.416 1.586-1.76 1.81-1.89 2.405-1.38 0.363 0.309 2.381 1.987 4.481 3.732 2.103 1.745 3.876 3.386 3.938 3.645 0.159 0.661-4.773 4.83-7.859 6.642-5.203 3.055-10.68 3.839-16.38 2.345z"/>
                <path d="m157.77 113.82-3.345-3.512 3.387-3.321c1.865-1.828 3.538-3.322 3.721-3.322 0.38 0 7.034 6.544 7.034 6.92 0 0.416-6.507 6.642-6.996 6.696-0.251 0.029-1.962-1.529-3.801-3.461z"/>
            </g>
        </g>
    </g>
    <g display="none" fill="none">
        <rect transform="rotate(90)" x="7.3342" y="-19.616" width="12.282" height="12.282" display="inline" stroke="#000" stroke-width=".065984"/>
        <rect x="6.7726" y="8.112" width="13.405" height="10.726" stroke="#5261ff" stroke-linecap="round" stroke-linejoin="round" stroke-width=".06524"/>
        <rect transform="rotate(90)" x="6.7726" y="-18.838" width="13.405" height="10.726" display="inline" stroke="#0f0" stroke-linecap="round" stroke-linejoin="round" stroke-width=".06524"/>
    </g>
</svg>
