<?xml version="1.0" encoding="UTF-8"?>
<svg version="1.1" viewBox="0 0 28.747 28.747" xmlns="http://www.w3.org/2000/svg">
    <defs>
        <filter id="filter6206-7" color-interpolation-filters="sRGB">
            <feGaussianBlur stdDeviation="0.658125"/>
        </filter>
    </defs>
    <g transform="translate(0 -1093.8)">
        <path transform="matrix(1.0781 0 0 1.0641 -.093733 2.7509)" d="m4.4177 1028.2v1.6051h-1.6052v18.192h1.6052v2.1402h18.192v-2.1402h2.1402v-18.192h-2.1402v-1.6051z" fill="#3e2723" filter="url(#filter6206-7)" opacity=".2"/>
        <rect x="2.9987" y="1096.8" width="22.749" height="22.749" rx="1.1973" ry="1.1974" fill="#424242"/>
        <g transform="translate(-22.32 1056.5)">
            <path d="m0 0h51.2v51.2h-51.2z" fill="none" stroke-width="1.0667"/>
            <g transform="matrix(.33601 0 0 .33601 1.5296 73.043)">
                <path d="m0 0h51.2v51.2h-51.2z" fill="none" stroke-width="1.0667"/>
            </g>
            <g transform="matrix(.37187 0 0 .37187 38.802 63.239)">
                <path d="m0 0h51.2v51.2h-51.2z" fill="none" stroke-width="1.0667"/>
                <g transform="matrix(2.6891 0 0 2.6891 -82.906 -48.45)">
                    <path d="m0 0h51.2v51.2h-51.2z" fill="none" stroke-width="1.0667"/>
                </g>
            </g>
        </g>
        <path d="m4.1958 1096.8c-0.66332 0-1.1979 0.5346-1.1979 1.1979v0.3334c0-0.6634 0.53459-1.1979 1.1979-1.1979h20.354c0.66332 0 1.1979 0.5345 1.1979 1.1979v-0.3334c0-0.6633-0.5346-1.1979-1.1979-1.1979z" fill="#fff" opacity=".2"/>
        <rect x="128" y="546.52" width="42.667" height="42.667" fill="none" stroke-width="1.0667"/>
        <rect x="128" y="631.85" width="42.667" height="42.667" fill="none" stroke-width="1.0667"/>
        <rect x="128" y="674.52" width="42.667" height="42.667" fill="none" stroke-width="1.0667"/>
        <rect x="128" y="589.19" width="42.667" height="42.667" fill="none" stroke-width="1.0667"/>
        <rect x="128" y="717.19" width="42.667" height="42.667" fill="none" stroke-width="1.0667"/>
        <rect x="213.33" y="546.52" width="42.667" height="42.667" fill="none" stroke-width="1.0667"/>
        <rect x="213.33" y="631.85" width="42.667" height="42.667" fill="none" stroke-width="1.0667"/>
        <rect x="213.33" y="674.52" width="42.667" height="42.667" fill="none" stroke-width="1.0667"/>
        <rect x="213.33" y="589.19" width="42.667" height="42.667" fill="none" stroke-width="1.0667"/>
        <rect x="213.33" y="717.19" width="42.667" height="42.667" fill="none" stroke-width="1.0667"/>
        <rect x="298.67" y="546.52" width="42.667" height="42.667" fill="none" stroke-width="1.0667"/>
        <rect x="298.67" y="631.85" width="42.667" height="42.667" fill="none" stroke-width="1.0667"/>
        <rect x="298.67" y="674.52" width="42.667" height="42.667" fill="none" stroke-width="1.0667"/>
        <rect x="298.67" y="589.19" width="42.667" height="42.667" fill="none" stroke-width="1.0667"/>
        <rect x="298.67" y="717.19" width="42.667" height="42.667" fill="none" stroke-width="1.0667"/>
        <rect x="170.67" y="546.52" width="42.667" height="42.667" fill="none" stroke-width="1.0667"/>
        <rect x="170.67" y="631.85" width="42.667" height="42.667" fill="none" stroke-width="1.0667"/>
        <rect x="170.67" y="674.52" width="42.667" height="42.667" fill="none" stroke-width="1.0667"/>
        <rect x="170.67" y="589.19" width="42.667" height="42.667" fill="none" stroke-width="1.0667"/>
        <rect x="170.67" y="717.19" width="42.667" height="42.667" fill="none" stroke-width="1.0667"/>
        <rect x="256" y="546.52" width="42.667" height="42.667" fill="none" stroke-width="1.0667"/>
        <rect x="256" y="631.85" width="42.667" height="42.667" fill="none" stroke-width="1.0667"/>
        <rect x="256" y="674.52" width="42.667" height="42.667" fill="none" stroke-width="1.0667"/>
        <rect x="256" y="589.19" width="42.667" height="42.667" fill="none" stroke-width="1.0667"/>
        <rect x="256" y="717.19" width="42.667" height="42.667" fill="none" stroke-width="1.0667"/>
        <rect x="128" y="759.85" width="42.667" height="42.667" fill="none" stroke-width="1.0667"/>
        <rect x="213.33" y="759.85" width="42.667" height="42.667" fill="none" stroke-width="1.0667"/>
        <rect x="298.67" y="759.85" width="42.667" height="42.667" fill="none" stroke-width="1.0667"/>
        <rect x="170.67" y="759.85" width="42.667" height="42.667" fill="none" stroke-width="1.0667"/>
        <rect x="256" y="759.85" width="42.667" height="42.667" fill="none" stroke-width="1.0667"/>
        <rect x="341.33" y="589.19" width="42.667" height="42.667" fill="none" stroke-width="1.0667"/>
        <rect x="341.33" y="631.85" width="42.667" height="42.667" fill="none" stroke-width="1.0667"/>
        <rect x="341.33" y="717.19" width="42.667" height="42.667" fill="none" stroke-width="1.0667"/>
        <rect x="341.33" y="546.52" width="42.667" height="42.667" fill="none" stroke-width="1.0667"/>
        <rect x="341.33" y="674.52" width="42.667" height="42.667" fill="none" stroke-width="1.0667"/>
        <rect x="341.33" y="759.85" width="42.667" height="42.667" fill="none" stroke-width="1.0667"/>
        <rect x="160" y="578.52" width="192" height="192" fill="none" stroke-width="1.0667"/>
        <g transform="matrix(.37344 0 0 .37344 4.7333 1097.4)">
            <path d="m0 0h51.2v51.2h-51.2z" fill="none" stroke-width="1.0667"/>
        </g>
        <g transform="matrix(.36471 0 0 .36471 5.1356 1097.4)">
            <path d="m0 0h51.2v51.2h-51.2z" fill="none" stroke-width="1.0667"/>
        </g>
        <g transform="matrix(.41585 0 0 .41585 84.325 1055.9)">
            <g transform="matrix(.062269 0 0 .062269 -28.238 185.29)">
                <g transform="matrix(38.618 0 0 38.618 14724 -13542)">
                    <g transform="matrix(.71436 0 0 .71436 -400.52 188.34)">
                        <path d="m1293.2-120.67c-181.75 0.2763-511.18 0.13525-699.05 0.13998-2.3216 10.413-3.593 21.251-3.593 32.384v114c207.65 0.73695 494.72 0.38136 706.23 0.3733v-114.37c0-11.18-1.2522-22.07-3.593-32.523zm-458.69 295.56c-78.385-4e-3 -158.85 0.17892-243.95 0.55995v138.63c286.34-0.39317 421.73-0.13827 706.23-0.32664v-137.75c-163.2-0.53005-311.22-1.1113-462.28-1.1199z" opacity="0" stroke-width="1.4932"/>
                    </g>
                </g>
            </g>
        </g>
        <path d="m24.549 1119.5c0.66325 0 1.1979-0.5346 1.1979-1.1979v-0.3333c0 0.6632-0.53461 1.1978-1.1979 1.1978h-20.354c-0.66325 0-1.1979-0.5346-1.1979-1.1978v0.3333c0 0.6633 0.53461 1.1979 1.1979 1.1979z" fill="#3e2723" opacity=".2"/>
    </g>
    <flowRoot fill="#000000" font-family="Roboto" font-size="12.8px" letter-spacing="0px" stroke-width="1.0667px" word-spacing="0px" style="line-height:0.01%" xml:space="preserve"><flowRegion><rect x="11.375" y="11.984" width="4.7893" height="5.388" stroke-width="1.1378px"/></flowRegion><flowPara font-size="4px" style="line-height:1.25">your</flowPara></flowRoot>
    <path d="m15.475 7.793c-0.20776 0-0.38647 0.0062-0.40625 0.013672-0.074 0.028139-0.45779 0.10098-0.87695 0.16602-0.77259 0.11988-0.8615 0.14228-1.207 0.30859-0.14749 0.070989-0.30713 0.13806-0.35547 0.15039-0.04834 0.01228-0.203 0.037899-0.34375 0.056641-0.29573 0.039395-0.32228 0.045854-0.4707 0.10938-0.21937 0.093893-0.4291 0.23717-0.63867 0.43555-0.13768 0.13032-0.27347 0.28603-0.55664 0.63672-0.60178 0.74529-1.2033 1.437-1.6406 1.8848l-0.17578 0.17773-0.058594 0.09375c-0.1182 0.24071-0.21026 0.42275-0.24414 0.41602-0.16093 0.04152-0.22044 0.23542-0.51758 0.55275l-0.050781 0.02539-0.00391 1.9102-0.00391 1.9121 0.068359 0.33594c0.084129 0.41796 0.14375 0.77538 0.17969 1.0801 0.02211 0.18755 0.032267 0.23998 0.054687 0.26758 0.37427 0.46032 0.50964 0.77888 0.83008 1.9531 0.071217 0.26094 0.14349 0.51938 0.16016 0.57422l0.029297 0.09961h0.11523c0.063543 0 0.11719-0.0029 0.11719-0.0078 0-0.0048 0.31533 0.02838 0.28196-0.05944 0.2408-0.34399 0.45416 3e-3 0.71023 0.0047 0.02583 0.0054 0.03906 0.01652 0.03906 0.03516 0 0.02604 0.0084 0.02734 0.24023 0.02734 0.15952 0 0.24138-0.0043 0.23828-0.01367l8.7148 0.01172 0.14453-0.0039 0.07422-0.2207c0.08774-0.2611 0.15083-0.41041 0.38867-0.91406 0.23655-0.50092 0.35226-0.79258 0.42969-1.084 0.01117-0.04204 0.02484-0.06327 0.04883-0.07227l0.0332-0.01172v-0.77539l-0.08789-0.08203c-0.21304-0.19521-0.25574-0.45895-0.16406-1.0273 0.03563-0.22111 0.03727-0.24708 0.04297-0.9707 0.01132-1.4385-0.04071-1.828-0.31641-2.3789-0.10487-0.20957-0.20095-0.3684-0.43554-0.72068-0.48868-0.73385-0.57403-0.91587-0.68945-1.4922-0.12385-0.61838-0.16645-0.70201-0.60156-1.1543-0.13166-0.13686-0.34617-0.37828-0.47656-0.53711-0.33196-0.40435-0.50782-0.60143-0.74414-0.83203-0.23151-0.2259-0.37673-0.34591-0.58203-0.48242-0.26271-0.17468-0.53074-0.28584-0.76953-0.31836-0.11219-0.015285-0.1302-0.021558-0.14062-0.048828l-0.01172-0.03125zm1.2305 2.1719c0.16416 0.016358 0.32645 0.0561 0.44336 0.11328 0.25612 0.12527 0.62868 0.49078 1.1035 1.084 0.43377 0.54191 0.67598 1.0032 0.76367 1.4531 0.0341 0.17498 0.03218 0.44505-0.0059 0.58984-0.0948 0.36038-0.3382 0.63914-0.73828 0.8457l-0.10938 0.05469-0.28906 0.0059c-0.15883 0.0028-0.38069 6.21e-4 -0.49414-0.0059-0.88667-0.05093-1.4789-0.25729-1.8281-0.63477-0.2413-0.26083-0.55978-0.74504-0.66406-1.0098-0.03517-0.08926-0.0369-0.11001-0.03711-0.29492-3.3e-4 -0.23028 0.02225-0.33848 0.11328-0.51953 0.08537-0.1698 0.20476-0.31614 0.50976-0.62695 0.39334-0.40083 0.51331-0.57113 0.60742-0.86133 0.02098-0.06472 0.0485-0.12355 0.0625-0.13281 0.0139-0.0092 0.06122-0.025611 0.10547-0.03711 0.12666-0.032915 0.29287-0.039795 0.45703-0.023437zm-5.1934 1.8457c0.26015-0.0074 0.52246 0.02857 0.75781 0.10742 0.1694 0.05676 0.40273 0.17682 0.54102 0.2793 0.13772 0.10205 0.31055 0.27144 0.31055 0.30273 0 0.01002 0.01988 0.08481 0.03125 0.13086 0.11067 0.07989 0.20715 0.16793 0.22461 0.23242 0.03854 0.1424 0.01366 0.41898-0.05859 0.65039-0.14761 0.47217-1.0612 1.5983-1.5234 1.877-0.184 0.11094-0.53482 0.1758-0.78906 0.14453-0.16409-0.02018-0.30004-0.06288-0.47656-0.15039-0.19447-0.09638-0.35137-0.21281-0.51953-0.38281l-0.12305-0.12305 0.015625-0.13086c-0.015686-0.20433-0.20672-0.26609-0.15039-0.68359-0.12292-0.26062-0.13851-0.31406-0.14648-0.49023-0.03125-0.69177 0.41921-1.3205 1.1563-1.6133 0.23214-0.09222 0.48985-0.14295 0.75-0.15039zm0.06055 0.33203c-0.1922 1.6e-4 -0.06681 0.01734-0.17578 0.05078-0.21154 0.06493-0.70046 0.01899-0.91211 0.19727-0.13046 0.10988-0.3482 0.3388-0.33789 0.35547 0.0038 0.0061 0.02981 0.01172 0.05859 0.01172 0.17126 0 0.35705 0.0802 0.47266 0.20508 0.10576 0.11424 0.13993 0.20323 0.14062 0.37305 4.97e-4 0.12471-0.0015 0.13667-0.05078 0.23633-0.10417 0.21077-0.27401 0.30834-0.56055 0.32422l-0.05859 0.04297 2e-3 0.10352c-0.01164 0.12239 0.0119 0.37666 0.04297 0.49805 0.05814 0.22721 0.15021 0.24623 0.28711 0.38476 0.1054 0.10665 0.16992 0.08156 0.32226 0.13281 0.10384 0.03493 0.07957 0.02495 0.32617 0.02539 0.30137 4.97e-4 0.32725-0.0987 0.4707-0.19141 0.14917-0.09642 0.28339-0.04923 0.52148-0.28711 0.55446-0.55397 0.75493-0.86781 0.80078-1.168 0.0089-0.15017 0.02623-0.25446 0.04297-0.3457-0.0056-0.0028-0.01236-0.0051-0.01758-0.0078-0.04364 0.11157 0.118-0.32836-0.44727-0.63476-0.26725-0.32763-0.29768-0.14582-0.52734-0.22266-0.10054-0.03363-0.2056-0.08408-0.40039-0.08398zm5.1523 4.3398c0.10429 0.03125 0.16758 0.11774 0.21094 0.28516 0.04261 0.16447 0.05033 0.3184 0.04102 0.86328l-0.0078 0.53516-0.10352 0.13281c-0.29861 0.38548-0.57866 0.58009-0.91992 0.64062-0.11912 0.02112-0.57305 0.03683-0.73242 0.02539-0.17274-0.01233-0.42642-0.04836-0.5293-0.07422-0.23674-0.05951-0.51077-0.22753-0.70898-0.43555-0.22141-0.23236-0.33676-0.47688-0.33594-0.71875 3.3e-4 -0.11518 0.04428-0.27892 0.08789-0.33203l0.02539-0.0332 0.12109-0.0918c0.18267-0.13304 0.31854 0.20004 0.4082 0.48047 0.0502 0.28004 0.21099 0.1731 0.48438 0.39062 0.12084 0.06217 0.1171 0.03483 0.29492 0.07617 0.15414 0.1113 0.51057-0.0011 0.76367-0.07422 0.1739-0.02925 0.32871-0.05609 0.41602-0.10156 0.20854-0.06364 0.13625-0.18362 0.16211-0.24414 0.04428-0.4277 0.06224-0.65758 0.12891-1.2441 0.01025-0.02604 0.03492-0.04731 0.07813-0.06641 0.05435-0.02404 0.07186-0.02664 0.11523-0.01367z" fill="#fff" stroke-width=".013752"/>
    <path d="m18.044 13.714c0.40612-0.04653 0.34938-0.10822 0.48095-0.38561 0.07815-0.16475 0.0443-0.19454 0.03408-0.41068-0.01632-0.34753 0.0012-0.58009-0.21834-0.93356-0.07679-0.12364-0.14563-0.30346-0.20256-0.35621l0.0099 0.02349-0.04989-0.0738c-0.0063 0.18387-0.02539 0.31915-0.08999 0.34858-0.04794 0.02183-0.45436-0.05893-0.60903-0.08234-0.22129-0.0337-0.35726-0.09262-0.46068-0.19963l-0.05501-0.05692 0.0013-0.20206c0.0028-0.44354-0.02258-0.65781 0.29033-0.68326 0.10078-0.0082 0.25836 0.0127 0.25435-0.02072-0.0023-0.01892-0.18802-0.03892-0.2102-0.08497-0.07469-0.15511-0.14904-0.06501-0.36702-0.12542-0.09723 0.12349-0.03411-0.12787-0.13853-0.03576-0.05018 0.04426-0.18008 0.08505-0.3427 0.21217-0.38667 0.30226-0.52542 0.43265-0.69176 0.59932-0.34204 0.34273-0.32452 0.60994-0.32966 0.94611-0.0024 0.161-0.03134 0.11615 0.0779 0.33374 0.11439 0.29136 0.3221 0.60796 0.47749 0.70759 0.334 0.21413 0.59012 0.46513 1.1627 0.54608 0.10588 0.01494 0.23937-0.0026 0.26963 0 0.12376 0.01077 0.39795-0.04235 0.50787-0.05495z" fill="#fff" stroke-width=".013752"/>
    <g display="none" fill="none">
        <rect transform="rotate(90)" x="7.8232" y="-20.923" width="13.1" height="13.1" display="inline" stroke="#000" stroke-width=".070382"/>
        <rect x="7.2241" y="8.6528" width="14.298" height="11.441" stroke="#5261ff" stroke-linecap="round" stroke-linejoin="round" stroke-width=".069589"/>
        <rect transform="rotate(90)" x="7.2241" y="-20.094" width="14.298" height="11.441" display="inline" stroke="#0f0" stroke-linecap="round" stroke-linejoin="round" stroke-width=".069589"/>
    </g>
</svg>
