<?xml version="1.0" encoding="UTF-8"?>
<svg version="1.1" viewBox="0 0 28.747 28.747" xmlns="http://www.w3.org/2000/svg">
    <defs>
        <filter id="filter6206-7" color-interpolation-filters="sRGB">
            <feGaussianBlur stdDeviation="0.658125"/>
        </filter>
    </defs>
    <g transform="translate(0 -1093.8)">
        <path transform="matrix(1.0781 0 0 1.0641 -.093733 2.7509)" d="m4.4177 1028.2v1.6051h-1.6052v18.192h1.6052v2.1402h18.192v-2.1402h2.1402v-18.192h-2.1402v-1.6051z" fill="#232323" filter="url(#filter6206-7)" opacity=".2"/>
        <rect x="2.9987" y="1096.8" width="22.749" height="22.749" rx="1.1973" ry="1.1974" fill="#232323"/>
        <g transform="translate(-22.32 1056.5)">
            <path d="m0 0h51.2v51.2h-51.2z" fill="none" stroke-width="1.0667"/>
            <g transform="matrix(.33601 0 0 .33601 1.5296 73.043)">
                <path d="m0 0h51.2v51.2h-51.2z" fill="none" stroke-width="1.0667"/>
            </g>
            <g transform="matrix(.37187 0 0 .37187 38.802 63.239)">
                <path d="m0 0h51.2v51.2h-51.2z" fill="none" stroke-width="1.0667"/>
                <g transform="matrix(2.6891 0 0 2.6891 -82.906 -48.45)">
                    <path d="m0 0h51.2v51.2h-51.2z" fill="none" stroke-width="1.0667"/>
                </g>
            </g>
        </g>
        <path d="m4.1958 1096.8c-0.66332 0-1.1979 0.5346-1.1979 1.1979v0.3334c0-0.6634 0.53459-1.1979 1.1979-1.1979h20.354c0.66332 0 1.1979 0.5345 1.1979 1.1979v-0.3334c0-0.6633-0.5346-1.1979-1.1979-1.1979z" fill="#fff" opacity=".2"/>
        <rect x="128" y="546.52" width="42.667" height="42.667" fill="none" stroke-width="1.0667"/>
        <rect x="128" y="631.85" width="42.667" height="42.667" fill="none" stroke-width="1.0667"/>
        <rect x="128" y="674.52" width="42.667" height="42.667" fill="none" stroke-width="1.0667"/>
        <rect x="128" y="589.19" width="42.667" height="42.667" fill="none" stroke-width="1.0667"/>
        <rect x="128" y="717.19" width="42.667" height="42.667" fill="none" stroke-width="1.0667"/>
        <rect x="213.33" y="546.52" width="42.667" height="42.667" fill="none" stroke-width="1.0667"/>
        <rect x="213.33" y="631.85" width="42.667" height="42.667" fill="none" stroke-width="1.0667"/>
        <rect x="213.33" y="674.52" width="42.667" height="42.667" fill="none" stroke-width="1.0667"/>
        <rect x="213.33" y="589.19" width="42.667" height="42.667" fill="none" stroke-width="1.0667"/>
        <rect x="213.33" y="717.19" width="42.667" height="42.667" fill="none" stroke-width="1.0667"/>
        <rect x="298.67" y="546.52" width="42.667" height="42.667" fill="none" stroke-width="1.0667"/>
        <rect x="298.67" y="631.85" width="42.667" height="42.667" fill="none" stroke-width="1.0667"/>
        <rect x="298.67" y="674.52" width="42.667" height="42.667" fill="none" stroke-width="1.0667"/>
        <rect x="298.67" y="589.19" width="42.667" height="42.667" fill="none" stroke-width="1.0667"/>
        <rect x="298.67" y="717.19" width="42.667" height="42.667" fill="none" stroke-width="1.0667"/>
        <rect x="170.67" y="546.52" width="42.667" height="42.667" fill="none" stroke-width="1.0667"/>
        <rect x="170.67" y="631.85" width="42.667" height="42.667" fill="none" stroke-width="1.0667"/>
        <rect x="170.67" y="674.52" width="42.667" height="42.667" fill="none" stroke-width="1.0667"/>
        <rect x="170.67" y="589.19" width="42.667" height="42.667" fill="none" stroke-width="1.0667"/>
        <rect x="170.67" y="717.19" width="42.667" height="42.667" fill="none" stroke-width="1.0667"/>
        <rect x="256" y="546.52" width="42.667" height="42.667" fill="none" stroke-width="1.0667"/>
        <rect x="256" y="631.85" width="42.667" height="42.667" fill="none" stroke-width="1.0667"/>
        <rect x="256" y="674.52" width="42.667" height="42.667" fill="none" stroke-width="1.0667"/>
        <rect x="256" y="589.19" width="42.667" height="42.667" fill="none" stroke-width="1.0667"/>
        <rect x="256" y="717.19" width="42.667" height="42.667" fill="none" stroke-width="1.0667"/>
        <rect x="128" y="759.85" width="42.667" height="42.667" fill="none" stroke-width="1.0667"/>
        <rect x="213.33" y="759.85" width="42.667" height="42.667" fill="none" stroke-width="1.0667"/>
        <rect x="298.67" y="759.85" width="42.667" height="42.667" fill="none" stroke-width="1.0667"/>
        <rect x="170.67" y="759.85" width="42.667" height="42.667" fill="none" stroke-width="1.0667"/>
        <rect x="256" y="759.85" width="42.667" height="42.667" fill="none" stroke-width="1.0667"/>
        <rect x="341.33" y="589.19" width="42.667" height="42.667" fill="none" stroke-width="1.0667"/>
        <rect x="341.33" y="631.85" width="42.667" height="42.667" fill="none" stroke-width="1.0667"/>
        <rect x="341.33" y="717.19" width="42.667" height="42.667" fill="none" stroke-width="1.0667"/>
        <rect x="341.33" y="546.52" width="42.667" height="42.667" fill="none" stroke-width="1.0667"/>
        <rect x="341.33" y="674.52" width="42.667" height="42.667" fill="none" stroke-width="1.0667"/>
        <rect x="341.33" y="759.85" width="42.667" height="42.667" fill="none" stroke-width="1.0667"/>
        <rect x="160" y="578.52" width="192" height="192" fill="none" stroke-width="1.0667"/>
        <g transform="matrix(.37344 0 0 .37344 4.7333 1097.4)">
            <path d="m0 0h51.2v51.2h-51.2z" fill="none" stroke-width="1.0667"/>
        </g>
        <g transform="matrix(.36471 0 0 .36471 5.1356 1097.4)">
            <path d="m0 0h51.2v51.2h-51.2z" fill="none" stroke-width="1.0667"/>
        </g>
        <g transform="matrix(.41585 0 0 .41585 84.325 1055.9)">
            <g transform="matrix(.062269 0 0 .062269 -28.238 185.29)">
                <g transform="matrix(38.618 0 0 38.618 14724 -13542)">
                    <g transform="matrix(.71436 0 0 .71436 -400.52 188.34)">
                        <path d="m1293.2-120.67c-181.75 0.2763-511.18 0.13525-699.05 0.13998-2.3216 10.413-3.593 21.251-3.593 32.384v114c207.65 0.73695 494.72 0.38136 706.23 0.3733v-114.37c0-11.18-1.2522-22.07-3.593-32.523zm-458.69 295.56c-78.385-4e-3 -158.85 0.17892-243.95 0.55995v138.63c286.34-0.39317 421.73-0.13827 706.23-0.32664v-137.75c-163.2-0.53005-311.22-1.1113-462.28-1.1199z" opacity="0" stroke-width="1.4932"/>
                    </g>
                </g>
            </g>
        </g>
        <path d="m24.549 1119.5c0.66325 0 1.1979-0.5346 1.1979-1.1979v-0.3333c0 0.6632-0.53461 1.1978-1.1979 1.1978h-20.354c-0.66325 0-1.1979-0.5346-1.1979-1.1978v0.3333c0 0.6633 0.53461 1.1979 1.1979 1.1979z" fill="#232323" opacity=".2"/>
    </g>
    <path d="m15.215 96.757c-0.07818 0.0027-0.16615 0.0087-0.26635 0.01739-1.0872 0.52996-1.7264 1.3165-2.387 2.2881-0.32909 0.55694-0.73298 1.0496-1.1126 1.3886-0.37013 0.32143-0.63635 0.15819-0.89925 0.26531-0.2577 0.10499-0.53995 0.36419-0.77724 0.66328-0.56612 0.71579-0.6623 1.5382-0.34085 3.0199 0.10517 0.36506 0.15803 0.59694 0.21884 0.80579-0.08725 0.0673-0.20537 0.10813-0.45741-0.0431-0.63117-0.19096-1.0984-0.31121-1.575-0.4543-1.1319-0.33853-1.7004-0.38437-2.5376-0.62771-1.0492-0.22033-1.3888-0.1512-2.5467 4e-3 -0.68996 0.22162-0.79159 0.21293-0.97479 0.99634 0.16612 1.198 0.71506 2.05 1.4335 2.9797 0.42719 0.48578 0.76993 1.0226 0.97428 1.4888 0.19058 0.45165-0.04717 0.65398-0.027 0.93715 0.01977 0.27756 0.17854 0.62649 0.38914 0.94494 0.50458 0.76043 1.2564 1.107 2.7647 1.2616 0.38005 0.0134 0.61702 0.0353 0.83461 0.0423 0.04148 0.10619 0.05319 0.23327-0.17756 0.43431-0.37641 0.54143-0.63476 0.94901-0.91794 1.3582-0.67129 0.97217-0.89024 1.4986-1.38 2.2198-0.53335 0.93003-0.57242 1.2742-0.78243 2.4234-0.0022 0.72468-0.04198 0.8189 0.64666 1.2349 1.1908 0.21167 2.1707-0.0477 3.2767-0.44416 0.5939-0.25645 1.2105-0.41676 1.717-0.46729 0.48842-0.0419 0.60758 0.2467 0.88316 0.31491 0.27012 0.0669 0.65077 0.0236 1.0187-0.0785 0.87902-0.2453 1.4409-0.85361 2.0534-2.2406 0.13009-0.35749 0.22366-0.57627 0.2975-0.78113 0.11472-7e-3 0.24077 0.0185 0.36214 0.30269 0.39914 0.52492 0.707 0.89628 1.0091 1.2918 0.71807 0.93815 1.1516 1.3087 1.6869 1.9968 0.72048 0.79392 1.0361 0.93731 2.0646 1.4911 0.68878 0.22527 0.76586 0.29179 1.3738-0.23519 0.56823-1.0676 0.62369-2.0794 0.58721-3.2538-0.061-0.64403-0.0236-1.2801 0.08437-1.7775 0.1106-0.47758 0.4216-0.50208 0.57138-0.74324 0.14681-0.23638 0.2231-0.61179 0.23935-0.99322 0.03744-0.91184-0.36811-1.6337-1.4989-2.6438-0.30001-0.23389-0.4792-0.39051-0.65133-0.52388 0.02853-0.1107 0.09319-0.22135 0.399-0.24895 0.62242-0.2178 1.0706-0.39614 1.5399-0.56151 1.1139-0.39374 1.6-0.69189 2.4197-0.98881 0.97743-0.44052 1.211-0.69654 2.055-1.5041 0.4267-0.58574 0.51421-0.63843 0.20041-1.3792-0.84036-0.86979-1.7859-1.2345-2.9143-1.562-0.63144-0.14059-1.2249-0.37237-1.6648-0.62848-0.42019-0.25251-0.34741-0.55598-0.53062-0.77283-0.17958-0.21256-0.51338-0.40091-0.87121-0.534-0.85584-0.31683-1.6678-0.15362-2.9773 0.61058-0.31474 0.21307-0.51874 0.33516-0.69858 0.45767-0.09399-0.0617-0.1745-0.15887-0.10747-0.45222-0.0145-0.65927-0.04536-1.1408-0.05737-1.6383-0.02972-1.181-0.16289-1.7356-0.19158-2.6069-0.11642-1.0658-0.28735-1.3672-0.79411-2.4197-0.37182-0.51364-0.43636-0.65399-0.98362-0.63472zm-1.0355 10.059c0.06212-8e-3 0.12224 0.0125 0.18068 0.0709 0.50469 0.41329 0.26232 2.3787 0.75543 1.6251 0.25493-0.0684 0.67781-0.16553 1.0714 0.16433 0.36698 0.33541 1.221 0.43843 1.021 0.83124-0.2366 0.60722-2.177 0.98487-1.3141 1.2206 0.14359 0.22101 0.36904 0.59411 0.17575 1.0724-0.20588 0.45253-0.04025 1.2967-0.47559 1.2276-0.65037-0.0378-1.6076-1.7658-1.5664-0.87433-0.16588 0.20459-0.4515 0.53503-0.96701 0.49843-0.49395-0.0565-1.2459 0.36118-1.3143-0.0742-0.16449-0.63064 1.1859-2.0747 0.34838-1.7593-0.24595-0.0948-0.64726-0.26468-0.77127-0.76529-0.09873-0.48727-0.72796-1.0739-0.33488-1.2733 0.55011-0.35171 2.3461 0.49111 1.778-0.21521 0.01404-0.26399 0.05438-0.6937 0.48753-0.96441 0.35141-0.19921 0.65629-0.75154 0.92547-0.78451z" fill="#fff" stroke="#fff" stroke-width="1px"/>
    <path d="m14.797 8.0085c-0.03948 0.00137-0.08393 0.00443-0.13454 0.00878-0.54916 0.2677-0.87208 0.66499-1.2058 1.1558-0.16624 0.28133-0.37026 0.53018-0.56203 0.70143-0.18697 0.16236-0.32144 0.079909-0.45424 0.13402-0.13018 0.05304-0.27274 0.18396-0.39261 0.33504-0.28597 0.36157-0.33455 0.77698-0.17218 1.5255 0.05314 0.1844 0.07983 0.30153 0.11055 0.40703-0.04407 0.03401-0.10375 0.05463-0.23106-0.02175-0.31883-0.09647-0.55482-0.1572-0.79558-0.22948-0.57175-0.17101-0.85894-0.19416-1.2818-0.31708-0.53-0.11129-0.70155-0.07638-1.2864 2e-3 -0.34852 0.11195-0.39986 0.10755-0.4924 0.50328 0.083911 0.60514 0.3612 1.0355 0.72411 1.5051 0.21579 0.24539 0.38892 0.51656 0.49214 0.75205 0.096263 0.22814-0.023824 0.33034-0.013632 0.47338 0.00993 0.1402 0.090192 0.31646 0.19657 0.47732 0.25488 0.38412 0.63466 0.5592 1.3966 0.6373 0.19198 0.0069 0.31168 0.01782 0.42159 0.02136 0.02094 0.05363 0.02688 0.11783-0.0897 0.21939-0.19014 0.2735-0.32064 0.47937-0.46368 0.68608-0.33909 0.49108-0.44969 0.757-0.6971 1.1213-0.26941 0.46979-0.28915 0.64367-0.39523 1.2241-9.813e-4 0.36606-0.021186 0.41366 0.32665 0.6238 0.6015 0.10692 1.0965-0.02409 1.6551-0.22437 0.3-0.12954 0.61147-0.21052 0.86731-0.23604 0.24672-0.02116 0.30691 0.12462 0.44611 0.15906 0.13645 0.03376 0.32873 0.0119 0.51456-0.03962 0.44402-0.12391 0.72786-0.43119 1.0373-1.1318 0.06571-0.18058 0.11298-0.2911 0.15028-0.39458 0.05794-0.0038 0.12161 0.0092 0.18293 0.1529 0.20162 0.26516 0.35713 0.45274 0.50971 0.65251 0.36272 0.47389 0.58173 0.66106 0.8521 1.0087 0.36394 0.40104 0.52336 0.47347 1.0429 0.75322 0.34793 0.1138 0.38686 0.14739 0.69396-0.11881 0.28703-0.5393 0.31505-1.0504 0.29662-1.6436-0.0308-0.32532-0.01189-0.6466 0.04262-0.89786 0.05587-0.24124 0.21296-0.25361 0.28862-0.37543 0.07416-0.1194 0.11269-0.30903 0.1209-0.50171 0.01891-0.4606-0.18595-0.82525-0.75716-1.3355-0.15155-0.11815-0.24206-0.19726-0.32901-0.26462 0.01442-0.0559 0.04707-0.11182 0.20155-0.12576 0.31441-0.11001 0.54079-0.2001 0.77788-0.28364 0.56266-0.1989 0.80824-0.3495 1.2223-0.49948 0.49374-0.22252 0.6117-0.35184 1.038-0.75978 0.21554-0.29588 0.25975-0.32249 0.10124-0.6967-0.42451-0.43935-0.90213-0.62359-1.4721-0.78901-0.31896-0.07101-0.61876-0.1881-0.84095-0.31747-0.21225-0.12755-0.17549-0.28084-0.26803-0.39038-0.09072-0.10737-0.25932-0.20251-0.44008-0.26974-0.43232-0.16005-0.84246-0.0776-1.504 0.30842-0.15898 0.10763-0.26203 0.1693-0.35288 0.23119-0.04749-0.03114-0.08816-0.08026-0.05429-0.22843-0.0073-0.33302-0.02291-0.57627-0.02897-0.82758-0.015-0.59657-0.08227-0.87667-0.09677-1.3168-0.058806-0.5384-0.14515-0.69067-0.40113-1.2223-0.18782-0.25946-0.22042-0.33035-0.49686-0.32062zm-0.52308 5.0811c0.0314-0.0038 0.06175 0.0062 0.09126 0.03581 0.25494 0.20877 0.13251 1.2016 0.38159 0.82089 0.12878-0.03454 0.34238-0.08361 0.54118 0.08301 0.18538 0.16943 0.61675 0.22147 0.51575 0.41989-0.11952 0.30673-1.0997 0.4975-0.66379 0.61658 0.07253 0.11164 0.18641 0.30011 0.08877 0.54171-0.104 0.22859-0.02033 0.65501-0.24023 0.62012-0.32853-0.0191-0.81205-0.89196-0.79125-0.44165-0.08379 0.10334-0.22807 0.27026-0.48847 0.25177-0.24951-0.0285-0.62936 0.18245-0.66392-0.0375-0.08308-0.31855 0.59904-1.048 0.17598-0.88868-0.12424-0.04789-0.32695-0.1337-0.38959-0.38658-0.04987-0.24613-0.36772-0.54246-0.16916-0.6432 0.27788-0.17766 1.1851 0.24808 0.89813-0.1087 0.0071-0.13335 0.02746-0.35041 0.24627-0.48716 0.17751-0.10063 0.33151-0.37962 0.46749-0.39628z" fill="#fff" stroke="#fff" stroke-width=".06714px"/>
    <g display="none" fill="none">
        <rect transform="rotate(90)" x="7.8232" y="-20.923" width="13.1" height="13.1" display="inline" stroke="#000" stroke-width=".070382"/>
        <rect x="7.2241" y="8.6528" width="14.298" height="11.441" stroke="#5261ff" stroke-linecap="round" stroke-linejoin="round" stroke-width=".069589"/>
        <rect transform="rotate(90)" x="7.2241" y="-20.094" width="14.298" height="11.441" display="inline" stroke="#0f0" stroke-linecap="round" stroke-linejoin="round" stroke-width=".069589"/>
    </g>
</svg>
