<?xml version="1.0" encoding="UTF-8"?>
<svg version="1.1" viewBox="0 0 28.747 28.747" xmlns="http://www.w3.org/2000/svg">
    <defs>
        <filter id="filter6206-7" color-interpolation-filters="sRGB">
            <feGaussianBlur stdDeviation="0.658125"/>
        </filter>
    </defs>
    <g transform="translate(0 -1093.8)">
        <path transform="matrix(1.0781 0 0 1.0641 -.093733 2.7509)" d="m4.4177 1028.2v1.6051h-1.6052v18.192h1.6052v2.1402h18.192v-2.1402h2.1402v-18.192h-2.1402v-1.6051z" fill="#232323" filter="url(#filter6206-7)" opacity=".2"/>
        <rect x="2.9987" y="1096.8" width="22.749" height="22.749" rx="1.1973" ry="1.1974" fill="#232323"/>
        <g transform="translate(-22.32 1056.5)">
            <path d="m0 0h51.2v51.2h-51.2z" fill="none" stroke-width="1.0667"/>
            <g transform="matrix(.33601 0 0 .33601 1.5296 73.043)">
                <path d="m0 0h51.2v51.2h-51.2z" fill="none" stroke-width="1.0667"/>
            </g>
            <g transform="matrix(.37187 0 0 .37187 38.802 63.239)">
                <path d="m0 0h51.2v51.2h-51.2z" fill="none" stroke-width="1.0667"/>
                <g transform="matrix(2.6891 0 0 2.6891 -82.906 -48.45)">
                    <path d="m0 0h51.2v51.2h-51.2z" fill="none" stroke-width="1.0667"/>
                </g>
            </g>
        </g>
        <path d="m4.1958 1096.8c-0.66332 0-1.1979 0.5346-1.1979 1.1979v0.3334c0-0.6634 0.53459-1.1979 1.1979-1.1979h20.354c0.66332 0 1.1979 0.5345 1.1979 1.1979v-0.3334c0-0.6633-0.5346-1.1979-1.1979-1.1979z" fill="#fff" opacity=".2"/>
        <rect x="128" y="546.52" width="42.667" height="42.667" fill="none" stroke-width="1.0667"/>
        <rect x="128" y="631.85" width="42.667" height="42.667" fill="none" stroke-width="1.0667"/>
        <rect x="128" y="674.52" width="42.667" height="42.667" fill="none" stroke-width="1.0667"/>
        <rect x="128" y="589.19" width="42.667" height="42.667" fill="none" stroke-width="1.0667"/>
        <rect x="128" y="717.19" width="42.667" height="42.667" fill="none" stroke-width="1.0667"/>
        <rect x="213.33" y="546.52" width="42.667" height="42.667" fill="none" stroke-width="1.0667"/>
        <rect x="213.33" y="631.85" width="42.667" height="42.667" fill="none" stroke-width="1.0667"/>
        <rect x="213.33" y="674.52" width="42.667" height="42.667" fill="none" stroke-width="1.0667"/>
        <rect x="213.33" y="589.19" width="42.667" height="42.667" fill="none" stroke-width="1.0667"/>
        <rect x="213.33" y="717.19" width="42.667" height="42.667" fill="none" stroke-width="1.0667"/>
        <rect x="298.67" y="546.52" width="42.667" height="42.667" fill="none" stroke-width="1.0667"/>
        <rect x="298.67" y="631.85" width="42.667" height="42.667" fill="none" stroke-width="1.0667"/>
        <rect x="298.67" y="674.52" width="42.667" height="42.667" fill="none" stroke-width="1.0667"/>
        <rect x="298.67" y="589.19" width="42.667" height="42.667" fill="none" stroke-width="1.0667"/>
        <rect x="298.67" y="717.19" width="42.667" height="42.667" fill="none" stroke-width="1.0667"/>
        <rect x="170.67" y="546.52" width="42.667" height="42.667" fill="none" stroke-width="1.0667"/>
        <rect x="170.67" y="631.85" width="42.667" height="42.667" fill="none" stroke-width="1.0667"/>
        <rect x="170.67" y="674.52" width="42.667" height="42.667" fill="none" stroke-width="1.0667"/>
        <rect x="170.67" y="589.19" width="42.667" height="42.667" fill="none" stroke-width="1.0667"/>
        <rect x="170.67" y="717.19" width="42.667" height="42.667" fill="none" stroke-width="1.0667"/>
        <rect x="256" y="546.52" width="42.667" height="42.667" fill="none" stroke-width="1.0667"/>
        <rect x="256" y="631.85" width="42.667" height="42.667" fill="none" stroke-width="1.0667"/>
        <rect x="256" y="674.52" width="42.667" height="42.667" fill="none" stroke-width="1.0667"/>
        <rect x="256" y="589.19" width="42.667" height="42.667" fill="none" stroke-width="1.0667"/>
        <rect x="256" y="717.19" width="42.667" height="42.667" fill="none" stroke-width="1.0667"/>
        <rect x="128" y="759.85" width="42.667" height="42.667" fill="none" stroke-width="1.0667"/>
        <rect x="213.33" y="759.85" width="42.667" height="42.667" fill="none" stroke-width="1.0667"/>
        <rect x="298.67" y="759.85" width="42.667" height="42.667" fill="none" stroke-width="1.0667"/>
        <rect x="170.67" y="759.85" width="42.667" height="42.667" fill="none" stroke-width="1.0667"/>
        <rect x="256" y="759.85" width="42.667" height="42.667" fill="none" stroke-width="1.0667"/>
        <rect x="341.33" y="589.19" width="42.667" height="42.667" fill="none" stroke-width="1.0667"/>
        <rect x="341.33" y="631.85" width="42.667" height="42.667" fill="none" stroke-width="1.0667"/>
        <rect x="341.33" y="717.19" width="42.667" height="42.667" fill="none" stroke-width="1.0667"/>
        <rect x="341.33" y="546.52" width="42.667" height="42.667" fill="none" stroke-width="1.0667"/>
        <rect x="341.33" y="674.52" width="42.667" height="42.667" fill="none" stroke-width="1.0667"/>
        <rect x="341.33" y="759.85" width="42.667" height="42.667" fill="none" stroke-width="1.0667"/>
        <rect x="160" y="578.52" width="192" height="192" fill="none" stroke-width="1.0667"/>
        <g transform="matrix(.37344 0 0 .37344 4.7333 1097.4)">
            <path d="m0 0h51.2v51.2h-51.2z" fill="none" stroke-width="1.0667"/>
        </g>
        <g transform="matrix(.36471 0 0 .36471 5.1356 1097.4)">
            <path d="m0 0h51.2v51.2h-51.2z" fill="none" stroke-width="1.0667"/>
        </g>
        <g transform="matrix(.41585 0 0 .41585 84.325 1055.9)">
            <g transform="matrix(.062269 0 0 .062269 -28.238 185.29)">
                <g transform="matrix(38.618 0 0 38.618 14724 -13542)">
                    <g transform="matrix(.71436 0 0 .71436 -400.52 188.34)">
                        <path d="m1293.2-120.67c-181.75 0.2763-511.18 0.13525-699.05 0.13998-2.3216 10.413-3.593 21.251-3.593 32.384v114c207.65 0.73695 494.72 0.38136 706.23 0.3733v-114.37c0-11.18-1.2522-22.07-3.593-32.523zm-458.69 295.56c-78.385-4e-3 -158.85 0.17892-243.95 0.55995v138.63c286.34-0.39317 421.73-0.13827 706.23-0.32664v-137.75c-163.2-0.53005-311.22-1.1113-462.28-1.1199z" opacity="0" stroke-width="1.4932"/>
                    </g>
                </g>
            </g>
        </g>
        <path d="m24.549 1119.5c0.66325 0 1.1979-0.5346 1.1979-1.1979v-0.3333c0 0.6632-0.53461 1.1978-1.1979 1.1978h-20.354c-0.66325 0-1.1979-0.5346-1.1979-1.1978v0.3333c0 0.6633 0.53461 1.1979 1.1979 1.1979z" fill="#232323" opacity=".2"/>
    </g>
    <path d="m15.215 96.757c-0.07818 0.0027-0.16615 0.0087-0.26635 0.01739-1.0872 0.52996-1.7264 1.3165-2.387 2.2881-0.32909 0.55694-0.73298 1.0496-1.1126 1.3886-0.37013 0.32143-0.63635 0.15819-0.89925 0.26531-0.2577 0.10499-0.53995 0.36419-0.77724 0.66328-0.56612 0.71579-0.6623 1.5382-0.34085 3.0199 0.10517 0.36506 0.15803 0.59694 0.21884 0.80579-0.08725 0.0673-0.20537 0.10813-0.45741-0.0431-0.63117-0.19096-1.0984-0.31121-1.575-0.4543-1.1319-0.33853-1.7004-0.38437-2.5376-0.62771-1.0492-0.22033-1.3888-0.1512-2.5467 4e-3 -0.68996 0.22162-0.79159 0.21293-0.97479 0.99634 0.16612 1.198 0.71506 2.05 1.4335 2.9797 0.42719 0.48578 0.76993 1.0226 0.97428 1.4888 0.19058 0.45165-0.04717 0.65398-0.027 0.93715 0.01977 0.27756 0.17854 0.62649 0.38914 0.94494 0.50458 0.76043 1.2564 1.107 2.7647 1.2616 0.38005 0.0134 0.61702 0.0353 0.83461 0.0423 0.04148 0.10619 0.05319 0.23327-0.17756 0.43431-0.37641 0.54143-0.63476 0.94901-0.91794 1.3582-0.67129 0.97217-0.89024 1.4986-1.38 2.2198-0.53335 0.93003-0.57242 1.2742-0.78243 2.4234-0.0022 0.72468-0.04198 0.8189 0.64666 1.2349 1.1908 0.21167 2.1707-0.0477 3.2767-0.44416 0.5939-0.25645 1.2105-0.41676 1.717-0.46729 0.48842-0.0419 0.60758 0.2467 0.88316 0.31491 0.27012 0.0669 0.65077 0.0236 1.0187-0.0785 0.87902-0.2453 1.4409-0.85361 2.0534-2.2406 0.13009-0.35749 0.22366-0.57627 0.2975-0.78113 0.11472-7e-3 0.24077 0.0185 0.36214 0.30269 0.39914 0.52492 0.707 0.89628 1.0091 1.2918 0.71807 0.93815 1.1516 1.3087 1.6869 1.9968 0.72048 0.79392 1.0361 0.93731 2.0646 1.4911 0.68878 0.22527 0.76586 0.29179 1.3738-0.23519 0.56823-1.0676 0.62369-2.0794 0.58721-3.2538-0.061-0.64403-0.0236-1.2801 0.08437-1.7775 0.1106-0.47758 0.4216-0.50208 0.57138-0.74324 0.14681-0.23638 0.2231-0.61179 0.23935-0.99322 0.03744-0.91184-0.36811-1.6337-1.4989-2.6438-0.30001-0.23389-0.4792-0.39051-0.65133-0.52388 0.02853-0.1107 0.09319-0.22135 0.399-0.24895 0.62242-0.2178 1.0706-0.39614 1.5399-0.56151 1.1139-0.39374 1.6-0.69189 2.4197-0.98881 0.97743-0.44052 1.211-0.69654 2.055-1.5041 0.4267-0.58574 0.51421-0.63843 0.20041-1.3792-0.84036-0.86979-1.7859-1.2345-2.9143-1.562-0.63144-0.14059-1.2249-0.37237-1.6648-0.62848-0.42019-0.25251-0.34741-0.55598-0.53062-0.77283-0.17958-0.21256-0.51338-0.40091-0.87121-0.534-0.85584-0.31683-1.6678-0.15362-2.9773 0.61058-0.31474 0.21307-0.51874 0.33516-0.69858 0.45767-0.09399-0.0617-0.1745-0.15887-0.10747-0.45222-0.0145-0.65927-0.04536-1.1408-0.05737-1.6383-0.02972-1.181-0.16289-1.7356-0.19158-2.6069-0.11642-1.0658-0.28735-1.3672-0.79411-2.4197-0.37182-0.51364-0.43636-0.65399-0.98362-0.63472zm-1.0355 10.059c0.06212-8e-3 0.12224 0.0125 0.18068 0.0709 0.50469 0.41329 0.26232 2.3787 0.75543 1.6251 0.25493-0.0684 0.67781-0.16553 1.0714 0.16433 0.36698 0.33541 1.221 0.43843 1.021 0.83124-0.2366 0.60722-2.177 0.98487-1.3141 1.2206 0.14359 0.22101 0.36904 0.59411 0.17575 1.0724-0.20588 0.45253-0.04025 1.2967-0.47559 1.2276-0.65037-0.0378-1.6076-1.7658-1.5664-0.87433-0.16588 0.20459-0.4515 0.53503-0.96701 0.49843-0.49395-0.0565-1.2459 0.36118-1.3143-0.0742-0.16449-0.63064 1.1859-2.0747 0.34838-1.7593-0.24595-0.0948-0.64726-0.26468-0.77127-0.76529-0.09873-0.48727-0.72796-1.0739-0.33488-1.2733 0.55011-0.35171 2.3461 0.49111 1.778-0.21521 0.01404-0.26399 0.05438-0.6937 0.48753-0.96441 0.35141-0.19921 0.65629-0.75154 0.92547-0.78451z" fill="#fff" stroke="#fff" stroke-width="1px"/>
    <path d="m14.834 7.9727-0.03906 0.00195c-0.04034 0.0014-0.08382 0.00539-0.13477 0.00977h-0.0059l-0.0059 0.00195c-0.55626 0.27116-0.8841 0.6758-1.2188 1.168h-2e-3v0.00195c-0.16453 0.27844-0.36614 0.52499-0.55469 0.69336-0.08835 0.076723-0.15882 0.093504-0.22852 0.099609-0.0697 0.00611-0.14121-0.00345-0.2168 0.027344-0.14012 0.057092-0.28419 0.19187-0.40625 0.3457-0.14629 0.18496-0.23349 0.38658-0.26172 0.63476s0.0024 0.54373 0.08398 0.91992v2e-3c0.04934 0.17123 0.07299 0.27777 0.10156 0.37891-0.01296 0.0074-0.02388 0.0157-0.04297 0.01563-0.02787-1.09e-4 -0.07033-0.01252-0.13086-0.04883l-2e-3 -2e-3h-0.0039c-0.31931-0.096667-0.55677-0.15844-0.7967-0.23047-0.57391-0.17166-0.86122-0.19431-1.2812-0.31641h-0.00195c-0.53281-0.11188-0.71442-0.07832-1.2988 0l-0.00195 2e-3h-0.00391c-0.17368 0.05579-0.27701 0.08215-0.35352 0.15234-0.076508 0.0702-0.11357 0.17577-0.16016 0.375l-0.00195 0.0059v0.0059c0.084995 0.61296 0.36655 1.0506 0.73047 1.5215l0.00195 2e-3c0.21357 0.24287 0.38484 0.51261 0.48633 0.74414 0.04434 0.10642 0.039145 0.17848 0.023437 0.24609-0.015831 0.06814-0.044863 0.13344-0.039063 0.21484 0.01069 0.15094 0.092856 0.33035 0.20117 0.49414 0.13039 0.1965 0.29629 0.34143 0.52344 0.44531 0.22714 0.10388 0.5155 0.16778 0.89844 0.20703 0.13464 0.0043 0.27672 0.01363 0.39653 0.01953 0.0043 0.01603 0.0077 0.0314 2e-3 0.05078-0.0079 0.02686-0.0305 0.06303-0.08594 0.11133l-2e-3 0.0039-2e-3 2e-3c-0.19054 0.27407-0.3223 0.48151-0.46484 0.6875-0.34037 0.49293-0.45151 0.75923-0.69726 1.1211l-0.00195 2e-3c-0.27084 0.47202-0.29244 0.65413-0.39844 1.2341v0.0059c-4.89e-4 0.18242-0.00796 0.2903 0.035156 0.38477 0.043116 0.09446 0.13152 0.16178 0.30664 0.26758l0.00586 0.0039h0.00586c0.60928 0.1083 1.1117-0.02377 1.6719-0.22461h2e-3v-2e-3c0.29691-0.12821 0.60588-0.20733 0.85742-0.23242 0.11659-0.01 0.1842 0.0186 0.24414 0.05469s0.11218 0.08392 0.19141 0.10352c0.14687 0.03634 0.34203 0.0134 0.53125-0.03906 0.22715-0.06339 0.41701-0.17536 0.58594-0.35938s0.31714-0.44085 0.47266-0.79297h2e-3v-2e-3c0.06095-0.16749 0.10421-0.26863 0.14062-0.36719 0.01668 7.24e-4 0.03215 4.96e-4 0.04883 0.01172 0.0233 0.01567 0.05092 0.04886 0.08008 0.11719l0.0059 0.0059c0.20204 0.26571 0.35771 0.45326 0.50977 0.65234 0.36409 0.47568 0.583 0.66445 0.85156 1.0098l2e-3 2e-3c0.36587 0.40316 0.53164 0.48023 1.0508 0.75977l0.0039 2e-3h2e-3c0.17339 0.05671 0.27383 0.09793 0.37695 0.08594s0.195-0.07692 0.34961-0.21094l0.0039-0.0039 0.0039-0.0059c0.29074-0.54626 0.31926-1.0653 0.30078-1.6602v-2e-3c-0.03048-0.32197-0.01258-0.63968 0.04102-0.88672 0.0264-0.114 0.07418-0.16893 0.12695-0.21484s0.11515-0.08107 0.1582-0.15039c0.07982-0.12851 0.11664-0.32137 0.125-0.51758 0.0097-0.23563-0.03714-0.45057-0.16016-0.66797-0.12301-0.2174-0.32034-0.43887-0.60742-0.69531h-2e-3v-2e-3c-0.14098-0.10991-0.22387-0.18094-0.30664-0.24609 0.0059-0.01537 0.0096-0.03071 0.02539-0.04297 0.02218-0.0172 0.06327-0.03439 0.13672-0.04102h0.0039l0.0039-2e-3c0.31506-0.11024 0.54107-0.19995 0.77734-0.2832 0.56479-0.19965 0.81136-0.35102 1.2227-0.5h2e-3c0.49636-0.2237 0.62285-0.358 1.0488-0.76562l2e-3 -2e-3 2e-3 -0.0039c0.10741-0.14744 0.17484-0.23025 0.19531-0.33203s-0.01199-0.20808-0.0918-0.39648l-2e-3 -0.0059-0.0039-0.0039c-0.43025-0.44486-0.91502-0.63278-1.4866-0.79866h-2e-3c-0.31567-0.07028-0.61358-0.18726-0.83203-0.31445-0.1003-0.06028-0.13864-0.12118-0.16602-0.18555s-0.04108-0.13492-0.09375-0.19727c-0.09764-0.11556-0.26906-0.21084-0.45312-0.2793-0.22116-0.08188-0.44079-0.10272-0.68555-0.05274s-0.51518 0.16927-0.84766 0.36328l-2e-3 2e-3c-0.14776 0.10004-0.24268 0.1563-0.33008 0.21484-0.01182-0.01014-0.02302-0.01876-0.0293-0.03711-9e-3 -0.0264-0.0122-0.07017 0.0039-0.14062v-0.0078c-0.0073-0.33371-0.02131-0.57768-0.02734-0.82812-0.01506-0.59883-0.08325-0.87922-0.09766-1.3164v-0.00195c-0.059015-0.5413-0.14841-0.7032-0.4042-1.2344l-2e-3 -0.00195-2e-3 -0.00391c-0.0936-0.1293-0.14912-0.2132-0.22266-0.26758-0.06454-0.047724-0.15264-0.058125-0.26562-0.058594zm-0.55666 5.1504c0.02187-0.0026 0.0404 0.0013 0.06445 0.02539v2e-3l2e-3 2e-3c0.05263 0.04309 0.0935 0.13626 0.12109 0.25 0.0276 0.11374 0.04428 0.24555 0.06055 0.35938 0.01626 0.11383 0.02791 0.20686 0.06445 0.26367 0.0091 0.0142 0.02009 0.02784 0.03711 0.03516 0.01702 0.0073 0.03778 0.0072 0.05469 0 0.02894-0.01225 0.05354-0.04399 0.08008-0.08203 0.12758-0.03406 0.31877-0.079 0.50391 0.07617 0.101 0.09231 0.25757 0.14558 0.37305 0.20312 0.05774 0.02877 0.10386 0.05981 0.12695 0.08789s0.02841 0.04742 0.0078 0.08789v2e-3l-2e-3 2e-3c-0.02467 0.06332-0.10169 0.13001-0.20117 0.19141-0.09948 0.06139-0.2191 0.1173-0.32226 0.16797-0.10317 0.05067-0.18754 0.0924-0.23047 0.14453-0.01073 0.01303-0.01961 0.0285-0.02148 0.04687-0.0019 0.01838 0.0057 0.03682 0.01758 0.05078 0.01985 0.02327 0.05541 0.03564 0.09766 0.04883 0.07183 0.11072 0.17722 0.28193 0.08594 0.50781-0.05593 0.12435-0.05912 0.28899-0.07813 0.41602-0.0095 0.0638-0.02339 0.11781-0.04297 0.14844s-0.03718 0.04227-0.08203 0.03516l-2e-3 -2e-3h-2e-3c-0.06782-0.0039-0.15705-0.05521-0.24609-0.13086-0.08905-0.07565-0.17782-0.17337-0.25781-0.25586-0.08-0.08249-0.14619-0.15094-0.20898-0.17578-0.0157-0.0062-0.03272-0.0097-0.05078-0.0059s-0.03332 0.01565-0.04297 0.03125c-0.01644 0.02658-0.01827 0.06564-0.01758 0.11133-0.08322 0.10241-0.21268 0.25354-0.45508 0.23633-0.13553-0.01489-0.29324 0.03364-0.41992 0.05469-0.06363 0.01057-0.11914 0.0131-0.1543 0.0039s-0.05154-0.0235-0.05859-0.06836v-2e-3c-0.01715-0.06576 0.0043-0.16732 0.04883-0.27539 0.04458-0.10808 0.10826-0.22267 0.16211-0.32422s0.10129-0.18455 0.10547-0.25195c1e-3 -0.01685-0.0025-0.0348-0.01172-0.05078-0.53256-0.10523-0.58923-0.59101-0.70509-0.97851 0.0027 0.0013 0.0013-0.0013 2e-3 -2e-3 0.05736-0.03667 0.16052-0.04429 0.27734-0.03516 0.11683 0.0091 0.24607 0.03284 0.35938 0.05273 0.11331 0.0199 0.20617 0.03885 0.27148 0.02149 0.01633-0.0043 0.03278-0.01133 0.04492-0.02539s0.01732-0.03444 0.01563-0.05274c-0.0028-0.03066-0.02568-0.0635-0.05274-0.09961 0.0071-0.13122 0.02518-0.32733 0.22656-0.45508l2e-3 -2e-3c0.09574-0.05505 0.17922-0.1511 0.25586-0.23438 0.07725-0.08394 0.15021-0.15048 0.19727-0.15625z" color="#000000" color-rendering="auto" dominant-baseline="auto" fill="#fff" image-rendering="auto" shape-rendering="auto" solid-color="#000000" style="font-feature-settings:normal;font-variant-alternates:normal;font-variant-caps:normal;font-variant-ligatures:normal;font-variant-numeric:normal;font-variant-position:normal;isolation:auto;mix-blend-mode:normal;shape-padding:0;text-decoration-color:#000000;text-decoration-line:none;text-decoration-style:solid;text-indent:0;text-orientation:mixed;text-transform:none;white-space:normal"/>
    <g display="none" fill="none">
        <rect transform="rotate(90)" x="7.8232" y="-20.923" width="13.1" height="13.1" display="inline" stroke="#000" stroke-width=".070382"/>
        <rect x="7.2241" y="8.6528" width="14.298" height="11.441" stroke="#5261ff" stroke-linecap="round" stroke-linejoin="round" stroke-width=".069589"/>
        <rect transform="rotate(90)" x="7.2241" y="-20.094" width="14.298" height="11.441" display="inline" stroke="#0f0" stroke-linecap="round" stroke-linejoin="round" stroke-width=".069589"/>
    </g>
</svg>
