<?xml version="1.0" encoding="UTF-8"?>
<svg version="1.1" viewBox="0 0 26.95 26.95" xmlns="http://www.w3.org/2000/svg">
    <defs>
        <filter id="filter6206-7" color-interpolation-filters="sRGB">
            <feGaussianBlur stdDeviation="0.658125"/>
        </filter>
    </defs>
    <g transform="translate(0 -1025.4)">
        <path transform="matrix(1.0107 0 0 .99762 -.087875 2.579)" d="m4.4177 1028.2v1.6051h-1.6052v18.192h1.6052v2.1402h18.192v-2.1402h2.1402v-18.192h-2.1402v-1.6051h-18.192z" fill="#212121" filter="url(#filter6206-7)" opacity=".2"/>
        <rect x="2.8113" y="1028.2" width="21.327" height="21.327" rx="1.1225" ry="1.1226" fill="#232323"/>
        <g transform="translate(-20.925 990.46)">
            <path d="m0 0h48v48h-48z" fill="none"/>
            <g transform="matrix(.33601 0 0 .33601 1.434 68.477)">
                <path d="m0 0h48v48h-48z" fill="none"/>
            </g>
            <g transform="matrix(.37187 0 0 .37187 36.377 59.287)">
                <path d="m0 0h48v48h-48z" fill="none"/>
                <g transform="matrix(2.6891 0 0 2.6891 -77.724 -45.422)">
                    <path d="m0 0h48v48h-48z" fill="none"/>
                </g>
            </g>
        </g>
        <path transform="translate(0 1025.4)" d="m3.9336 2.8105c-0.62186 0-1.123 0.50115-1.123 1.123v0.3125c0-0.6219 0.50118-1.123 1.123-1.123h19.082c0.62186 0 1.123 0.50115 1.123 1.123v-0.3125c0-0.6219-0.50118-1.123-1.123-1.123h-19.082z" fill="#fff" opacity=".2"/>
        <rect x="120" y="512.36" width="40" height="40" fill="none"/>
        <rect x="120" y="592.36" width="40" height="40" fill="none"/>
        <rect x="120" y="632.36" width="40" height="40" fill="none"/>
        <rect x="120" y="552.36" width="40" height="40" fill="none"/>
        <rect x="120" y="672.36" width="40" height="40" fill="none"/>
        <rect x="200" y="512.36" width="40" height="40" fill="none"/>
        <rect x="200" y="592.36" width="40" height="40" fill="none"/>
        <rect x="200" y="632.36" width="40" height="40" fill="none"/>
        <rect x="200" y="552.36" width="40" height="40" fill="none"/>
        <rect x="200" y="672.36" width="40" height="40" fill="none"/>
        <rect x="280" y="512.36" width="40" height="40" fill="none"/>
        <rect x="280" y="592.36" width="40" height="40" fill="none"/>
        <rect x="280" y="632.36" width="40" height="40" fill="none"/>
        <rect x="280" y="552.36" width="40" height="40" fill="none"/>
        <rect x="280" y="672.36" width="40" height="40" fill="none"/>
        <rect x="160" y="512.36" width="40" height="40" fill="none"/>
        <rect x="160" y="592.36" width="40" height="40" fill="none"/>
        <rect x="160" y="632.36" width="40" height="40" fill="none"/>
        <rect x="160" y="552.36" width="40" height="40" fill="none"/>
        <rect x="160" y="672.36" width="40" height="40" fill="none"/>
        <rect x="240" y="512.36" width="40" height="40" fill="none"/>
        <rect x="240" y="592.36" width="40" height="40" fill="none"/>
        <rect x="240" y="632.36" width="40" height="40" fill="none"/>
        <rect x="240" y="552.36" width="40" height="40" fill="none"/>
        <rect x="240" y="672.36" width="40" height="40" fill="none"/>
        <rect x="120" y="712.36" width="40" height="40" fill="none"/>
        <rect x="200" y="712.36" width="40" height="40" fill="none"/>
        <rect x="280" y="712.36" width="40" height="40" fill="none"/>
        <rect x="160" y="712.36" width="40" height="40" fill="none"/>
        <rect x="240" y="712.36" width="40" height="40" fill="none"/>
        <rect x="320" y="552.36" width="40" height="40" fill="none"/>
        <rect x="320" y="592.36" width="40" height="40" fill="none"/>
        <rect x="320" y="672.36" width="40" height="40" fill="none"/>
        <rect x="320" y="512.36" width="40" height="40" fill="none"/>
        <rect x="320" y="632.36" width="40" height="40" fill="none"/>
        <rect x="320" y="712.36" width="40" height="40" fill="none"/>
        <rect x="150" y="542.36" width="180" height="180" fill="none"/>
        <g transform="matrix(.37344 0 0 .37344 4.4375 1028.8)">
            <path d="m0 0h48v48h-48z" fill="none"/>
        </g>
        <g transform="matrix(.36471 0 0 .36471 4.8146 1028.8)">
            <path d="m0 0h48v48h-48z" fill="none"/>
        </g>
        <g transform="matrix(.41585 0 0 .41585 79.055 989.88)">
            <g transform="matrix(.062269 0 0 .062269 -26.473 173.71)">
                <g transform="matrix(38.618 0 0 38.618 13804 -12696)">
                    <g transform="matrix(.71436 0 0 .71436 -375.49 176.57)">
                        <path transform="matrix(1.3999 0 0 1.3999 525.63 -247.17)" d="m490.56 95.75c-121.72 0.18504-342.34 0.090577-468.16 0.09375-1.5548 6.9739-2.4062 14.232-2.4062 21.688v76.344c139.06 0.49354 331.32 0.2554 472.97 0.25v-76.594c0-7.4875-0.8386-14.78-2.4062-21.781zm-307.19 197.94c-52.495-3e-3 -106.38 0.11982-163.38 0.375v92.844c191.76-0.26331 282.43-0.0926 472.97-0.21875v-92.25c-109.29-0.35498-208.43-0.74426-309.59-0.75z" opacity="0"/>
                    </g>
                </g>
            </g>
        </g>
        <path d="m23.015 1049.6c0.6218 0 1.123-0.5012 1.123-1.123v-0.3125c0 0.6218-0.5012 1.123-1.123 1.123h-19.082c-0.6218 0-1.123-0.5012-1.123-1.123v0.3125c0 0.6218 0.5012 1.123 1.123 1.123h19.082z" fill="#212121" opacity=".2"/>
    </g>
    <flowRoot fill="#000000" font-family="Roboto" letter-spacing="0px" stroke-width="1px" word-spacing="0px" style="line-height:0.01%" xml:space="preserve"><flowRegion><rect x="10.664" y="11.235" width="4.49" height="5.0512"/></flowRegion><flowPara font-size="3.75px" style="line-height:1.25">your</flowPara></flowRoot>
    <g transform="translate(-1.853e-8 .56125)">
        <g transform="matrix(.037977 0 0 .037977 -287.87 -47.639)" fill="#757575" fill-rule="evenodd">
            <g transform="translate(5000.3 277.13)"></g>
            <g transform="translate(5000.3 277.13)"></g>
        </g>
        <g transform="matrix(.2644 0 0 .2644 7.2351 6.4596)">
            <path d="m0 0h48v48h-48z" fill="none"/>
            <path transform="matrix(3.7822 0 0 3.7822 -27.364 -26.554)" d="m12.125 6.7324c-0.16857 0-0.30701 0.12475-0.33398 0.2832l-0.25195 1.7871c-0.4113 0.17194-0.79338 0.39436-1.1406 0.66406l-1.6777-0.67773c-0.15171-0.057312-0.32783-4.351e-4 -0.41211 0.14453l-1.3496 2.3359c-0.084283 0.14497-0.046079 0.32713 0.082031 0.43164l1.4219 1.1172c-0.026971 0.21576-0.046875 0.43374-0.046875 0.65625s0.019905 0.44244 0.046875 0.6582l-1.4219 1.1152c-0.12811 0.10114-0.16631 0.2833-0.082031 0.43164l1.3496 2.3359c0.084283 0.14497 0.2604 0.20522 0.41211 0.14453l1.6777-0.67578c0.34724 0.26633 0.72932 0.49213 1.1406 0.66406l0.25195 1.7852c0.02697 0.15845 0.16542 0.2832 0.33398 0.2832h2.6973c0.16856 0 0.30701-0.12475 0.33398-0.2832l0.25195-1.7852c0.4113-0.17194 0.79338-0.39436 1.1406-0.66406l1.6777 0.67578c0.15171 0.057313 0.32783 4.35e-4 0.41211-0.14453l1.3477-2.3359c0.084283-0.14497 0.048032-0.32713-0.080078-0.43164l-1.4238-1.1152c0.02697-0.21576 0.048828-0.4357 0.048828-0.6582 0-0.22251-0.021859-0.44049-0.048828-0.65625l1.4258-1.1172c0.12811-0.10114 0.16631-0.2833 0.082031-0.43164l-1.3496-2.3359c-0.084282-0.14497-0.25845-0.20521-0.41016-0.14453l-1.6797 0.67773c-0.34724-0.26633-0.72737-0.49213-1.1387-0.66406l-0.25391-1.7871c-0.030342-0.15845-0.16737-0.2832-0.33594-0.2832h-2.6973zm1.3496 3.5996c0.80714 0 1.6149 0.30634 2.2266 0.91797l-1.0273 1.0273c-0.66803-0.66803-1.7284-0.66803-2.3965 0s-0.66803 1.7284 0 2.3965 1.7284 0.66803 2.3965 0l1.0273 1.0273c-1.2233 1.2233-3.2279 1.2233-4.4512 0s-1.2233-3.2279 0-4.4512c0.61163-0.61163 1.4175-0.91797 2.2246-0.91797z" fill="#fff" stroke-width=".2644"/>
        </g>
    </g>
    <g display="none" fill="none">
        <rect transform="rotate(90)" x="7.3342" y="-19.616" width="12.282" height="12.282" display="inline" stroke="#000" stroke-width=".065984"/>
        <rect x="6.7726" y="8.112" width="13.405" height="10.726" stroke="#5261ff" stroke-linecap="round" stroke-linejoin="round" stroke-width=".06524"/>
        <rect transform="rotate(90)" x="6.7726" y="-18.838" width="13.405" height="10.726" display="inline" stroke="#0f0" stroke-linecap="round" stroke-linejoin="round" stroke-width=".06524"/>
    </g>
</svg>
