<?xml version="1.0" encoding="UTF-8"?>
<svg version="1.1" viewBox="0 0 28.747 28.747" xmlns="http://www.w3.org/2000/svg">
    <defs>
        <filter id="filter6206-7" x="-.072" y="-.072" width="1.144" height="1.144" color-interpolation-filters="sRGB">
            <feGaussianBlur stdDeviation="0.658125"/>
        </filter>
    </defs>
    <g transform="translate(0 -1093.8)">
        <path transform="matrix(1.0781 0 0 1.0641 -.093733 2.7509)" d="m4.4177 1028.2v1.6051h-1.6052v18.192h1.6052v2.1402h18.192v-2.1402h2.1402v-18.192h-2.1402v-1.6051z" fill="#232323" filter="url(#filter6206-7)" opacity=".2"/>
        <rect x="2.9987" y="1096.8" width="22.749" height="22.749" rx="1.1973" ry="1.1974" fill="#232323"/>
        <g transform="translate(-22.32 1056.5)">
            <path d="m0 0h51.2v51.2h-51.2z" fill="none" stroke-width="1.0667"/>
            <g transform="matrix(.33601 0 0 .33601 1.5296 73.043)">
                <path d="m0 0h51.2v51.2h-51.2z" fill="none" stroke-width="1.0667"/>
            </g>
            <g transform="matrix(.37187 0 0 .37187 38.802 63.239)">
                <path d="m0 0h51.2v51.2h-51.2z" fill="none" stroke-width="1.0667"/>
                <g transform="matrix(2.6891 0 0 2.6891 -82.906 -48.45)">
                    <path d="m0 0h51.2v51.2h-51.2z" fill="none" stroke-width="1.0667"/>
                </g>
            </g>
        </g>
        <path d="m4.1958 1096.8c-0.66332 0-1.1979 0.5346-1.1979 1.1979v0.3334c0-0.6634 0.53459-1.1979 1.1979-1.1979h20.354c0.66332 0 1.1979 0.5345 1.1979 1.1979v-0.3334c0-0.6633-0.5346-1.1979-1.1979-1.1979z" fill="#fff" opacity=".2"/>
        <rect x="128" y="546.52" width="42.667" height="42.667" fill="none" stroke-width="1.0667"/>
        <rect x="128" y="631.85" width="42.667" height="42.667" fill="none" stroke-width="1.0667"/>
        <rect x="128" y="674.52" width="42.667" height="42.667" fill="none" stroke-width="1.0667"/>
        <rect x="128" y="589.19" width="42.667" height="42.667" fill="none" stroke-width="1.0667"/>
        <rect x="128" y="717.19" width="42.667" height="42.667" fill="none" stroke-width="1.0667"/>
        <rect x="213.33" y="546.52" width="42.667" height="42.667" fill="none" stroke-width="1.0667"/>
        <rect x="213.33" y="631.85" width="42.667" height="42.667" fill="none" stroke-width="1.0667"/>
        <rect x="213.33" y="674.52" width="42.667" height="42.667" fill="none" stroke-width="1.0667"/>
        <rect x="213.33" y="589.19" width="42.667" height="42.667" fill="none" stroke-width="1.0667"/>
        <rect x="213.33" y="717.19" width="42.667" height="42.667" fill="none" stroke-width="1.0667"/>
        <rect x="298.67" y="546.52" width="42.667" height="42.667" fill="none" stroke-width="1.0667"/>
        <rect x="298.67" y="631.85" width="42.667" height="42.667" fill="none" stroke-width="1.0667"/>
        <rect x="298.67" y="674.52" width="42.667" height="42.667" fill="none" stroke-width="1.0667"/>
        <rect x="298.67" y="589.19" width="42.667" height="42.667" fill="none" stroke-width="1.0667"/>
        <rect x="298.67" y="717.19" width="42.667" height="42.667" fill="none" stroke-width="1.0667"/>
        <rect x="170.67" y="546.52" width="42.667" height="42.667" fill="none" stroke-width="1.0667"/>
        <rect x="170.67" y="631.85" width="42.667" height="42.667" fill="none" stroke-width="1.0667"/>
        <rect x="170.67" y="674.52" width="42.667" height="42.667" fill="none" stroke-width="1.0667"/>
        <rect x="170.67" y="589.19" width="42.667" height="42.667" fill="none" stroke-width="1.0667"/>
        <rect x="170.67" y="717.19" width="42.667" height="42.667" fill="none" stroke-width="1.0667"/>
        <rect x="256" y="546.52" width="42.667" height="42.667" fill="none" stroke-width="1.0667"/>
        <rect x="256" y="631.85" width="42.667" height="42.667" fill="none" stroke-width="1.0667"/>
        <rect x="256" y="674.52" width="42.667" height="42.667" fill="none" stroke-width="1.0667"/>
        <rect x="256" y="589.19" width="42.667" height="42.667" fill="none" stroke-width="1.0667"/>
        <rect x="256" y="717.19" width="42.667" height="42.667" fill="none" stroke-width="1.0667"/>
        <rect x="128" y="759.85" width="42.667" height="42.667" fill="none" stroke-width="1.0667"/>
        <rect x="213.33" y="759.85" width="42.667" height="42.667" fill="none" stroke-width="1.0667"/>
        <rect x="298.67" y="759.85" width="42.667" height="42.667" fill="none" stroke-width="1.0667"/>
        <rect x="170.67" y="759.85" width="42.667" height="42.667" fill="none" stroke-width="1.0667"/>
        <rect x="256" y="759.85" width="42.667" height="42.667" fill="none" stroke-width="1.0667"/>
        <rect x="341.33" y="589.19" width="42.667" height="42.667" fill="none" stroke-width="1.0667"/>
        <rect x="341.33" y="631.85" width="42.667" height="42.667" fill="none" stroke-width="1.0667"/>
        <rect x="341.33" y="717.19" width="42.667" height="42.667" fill="none" stroke-width="1.0667"/>
        <rect x="341.33" y="546.52" width="42.667" height="42.667" fill="none" stroke-width="1.0667"/>
        <rect x="341.33" y="674.52" width="42.667" height="42.667" fill="none" stroke-width="1.0667"/>
        <rect x="341.33" y="759.85" width="42.667" height="42.667" fill="none" stroke-width="1.0667"/>
        <rect x="160" y="578.52" width="192" height="192" fill="none" stroke-width="1.0667"/>
        <g transform="matrix(.37344 0 0 .37344 4.7333 1097.4)">
            <path d="m0 0h51.2v51.2h-51.2z" fill="none" stroke-width="1.0667"/>
        </g>
        <g transform="matrix(.36471 0 0 .36471 5.1356 1097.4)">
            <path d="m0 0h51.2v51.2h-51.2z" fill="none" stroke-width="1.0667"/>
        </g>
        <g transform="matrix(.41585 0 0 .41585 84.325 1055.9)">
            <g transform="matrix(.062269 0 0 .062269 -28.238 185.29)">
                <g transform="matrix(38.618 0 0 38.618 14724 -13542)">
                    <g transform="matrix(.71436 0 0 .71436 -400.52 188.34)">
                        <path d="m1293.2-120.67c-181.75 0.2763-511.18 0.13525-699.05 0.13998-2.3216 10.413-3.593 21.251-3.593 32.384v114c207.65 0.73695 494.72 0.38136 706.23 0.3733v-114.37c0-11.18-1.2522-22.07-3.593-32.523zm-458.69 295.56c-78.385-4e-3 -158.85 0.17892-243.95 0.55995v138.63c286.34-0.39317 421.73-0.13827 706.23-0.32664v-137.75c-163.2-0.53005-311.22-1.1113-462.28-1.1199z" opacity="0" stroke-width="1.4932"/>
                    </g>
                </g>
            </g>
        </g>
        <path d="m24.549 1119.5c0.66325 0 1.1979-0.5346 1.1979-1.1979v-0.3333c0 0.6632-0.53461 1.1978-1.1979 1.1978h-20.354c-0.66325 0-1.1979-0.5346-1.1979-1.1978v0.3333c0 0.6633 0.53461 1.1979 1.1979 1.1979z" fill="#232323" opacity=".2"/>
    </g>
    <path d="m18.207 10.776c-0.43234 0.02454-0.8754 0.13088-1.3097 0.32571-0.23951 0.10748-0.34655 0.38878-0.23906 0.62829 0.10748 0.23947 0.38872 0.3465 0.62821 0.23906 0.89205-0.40022 1.7353-0.30294 2.3731 0.12487 0.63783 0.4278 1.0844 1.1987 1.0844 2.2695 0 1.099-0.34159 1.6643-0.81644 2.0204s-1.149 0.49491-1.8164 0.49491c-0.56511 0-1.2666-0.31783-1.8856-0.83339-0.61906-0.51555-1.0402-1.1855-1.4187-1.8644-0.51333-0.99472-0.96109-1.6217-1.7113-2.2338-0.75025-0.61211-1.6404-1.0502-2.5634-1.0459-0.82266 0.0037-1.6882 0.15288-2.3742 0.69428-0.68601 0.5414-1.1162 1.4647-1.1162 2.7678 0 1.3296 0.53407 2.4708 1.483 3.0963 0.94896 0.62548 2.2629 0.69218 3.6675 0.07544 0.24036-0.10553 0.34967-0.38591 0.24417-0.62628-0.10553-0.2404-0.38597-0.34972-0.62636-0.24417-1.1894 0.52226-2.1175 0.42608-2.762 0.0013-0.64455-0.42487-1.0556-1.2214-1.0556-2.3025 0-1.1075 0.3141-1.674 0.75447-2.0216s1.0835-0.48659 1.7896-0.48988c0.60584-0.0029 1.3266 0.31666 1.9581 0.83184 0.63145 0.51518 1.0566 1.2162 1.4344 1.862 0.4987 0.79274 0.95349 1.6181 1.6882 2.23 0.73473 0.61188 1.5992 1.0536 2.4941 1.0536 0.79253 0 1.6725-0.14935 2.3867-0.685 0.71428-0.53565 1.1968-1.4657 1.1968-2.781 0-1.3435-0.5921-2.4465-1.5055-3.0591-0.57084-0.38288-1.2616-0.56929-1.9822-0.52841z" color="#000000" fill="#fff" style="-inkscape-stroke:none"/>
    <g display="none" fill="none">
        <rect transform="rotate(90)" x="7.8232" y="-20.923" width="13.1" height="13.1" display="inline" stroke="#000" stroke-width=".070382"/>
        <rect x="7.2241" y="8.6528" width="14.298" height="11.441" stroke="#5261ff" stroke-linecap="round" stroke-linejoin="round" stroke-width=".06959"/>
        <rect transform="rotate(90)" x="7.2241" y="-20.094" width="14.298" height="11.441" display="inline" stroke="#0f0" stroke-linecap="round" stroke-linejoin="round" stroke-width=".06959"/>
    </g>
</svg>
