<?xml version="1.0" encoding="UTF-8"?>
<svg fill="none" viewBox="0 0 40 40" xmlns="http://www.w3.org/2000/svg">
    <g filter="url(#filter0_f)" opacity=".2">
        <path d="m6.4966 4.3023v2.3767h-2.408v26.937h2.408v3.1689h27.29v-3.1689h3.2106v-26.937h-3.2106v-2.3767h-27.29z" fill="#3E2723"/>
    </g>
    <path d="m34.161 4.1727h-28.323c-0.92013 0-1.666 0.74594-1.666 1.6661v28.323c0 0.9202 0.74591 1.6661 1.666 1.6661h28.323c0.9201 0 1.6661-0.7459 1.6661-1.6661v-28.323c0-0.92018-0.746-1.6661-1.6661-1.6661z" fill="#232323"/>
    <path d="m5.8384 4.1715c-0.92299 0-1.6669 0.74384-1.6669 1.6668v0.46405c0-0.9231 0.74387-1.667 1.6669-1.667h28.322c0.923 0 1.6669 0.74387 1.6669 1.667v-0.46405c0-0.92296-0.7439-1.6668-1.6669-1.6668h-28.322z" fill="#fff" opacity=".2"/>
    <path d="m34.16 35.859c0.9229 0 1.6668-0.7438 1.6668-1.6668v-0.4639c0 0.9228-0.7439 1.6668-1.6668 1.6668h-28.322c-0.9229 0-1.6668-0.744-1.6668-1.6668v0.4639c0 0.923 0.7439 1.6668 1.6668 1.6668h28.322z" fill="#3E2723" opacity=".2"/>
    <path d="m11.01 18.53 0.9562-1.3349c0 0.01-0.0597 1.9226-0.0597 1.9226l0.2689-1.4444c0.7969 1.6137 2.7493 3.845 4.5324 5.0404 0.1893 0.1295 0.3486 0.2689 0.4582 0.4084 0.2291 0.0896 0.4582 0.1395 0.6873 0.1793 0.1196 0.0199 0.2491 0.0299 0.3686 0.0398 0.1195 0.01 0.249 0.01 0.3686 0.01 0.1195 0 0.239-0.01 0.3586-0.0199 0.1195-0.01 0.2391-0.0299 0.3586-0.0498s0.2391-0.0399 0.3486-0.0797c0.1196-0.0299 0.2291-0.0598 0.3487-0.0996 0.1096-0.0299 0.2291-0.0797 0.3387-0.1196 0.1095-0.0498 0.2191-0.0896 0.3287-0.1494 0.1096-0.0597 0.2191-0.1096 0.3187-0.1693 0.1096-0.0498 0.2092-0.1196 0.3188-0.1793 0.1096-0.0598 0.2092-0.1295 0.3188-0.1893 0.1095-0.0598 0.2092-0.1295 0.3088-0.1892 0.0996-0.0698 0.2092-0.1295 0.3088-0.1993 0.0996-0.0697 0.2091-0.1295 0.3187-0.1992l0.0996-0.0598 0.0498 0.0299 0.7173 0.4782-0.7272-0.1893c-0.0697 0.0797-0.1395 0.1594-0.2192 0.2391-0.0896 0.0896-0.1892 0.1793-0.2789 0.2689-0.0996 0.0797-0.1992 0.1694-0.3088 0.2391-0.1096 0.0797-0.2092 0.1494-0.3287 0.2191-0.2192 0.1395-0.4582 0.259-0.7073 0.3586-0.1195 0.0498-0.249 0.0997-0.3685 0.1395-0.1295 0.0398-0.249 0.0797-0.3785 0.1096s-0.259 0.0597-0.3885 0.0797c-0.1295 0.0199-0.259 0.0298-0.3885 0.0498-0.259 0.0099-0.528 0.0099-0.787-0.0299-0.1295-0.0199-0.259-0.0399-0.3885-0.0697-0.1294-0.0299-0.249-0.0698-0.3685-0.1096-0.2092-0.0797-0.4184-0.1793-0.6077-0.2989 0 0-0.6873 0.0997-0.4084 0.6176 0.2789 0.518 0.6973 0.4682 0.4981 1.0759-0.1395 0.3287-0.3387 0.6474-0.5578 0.9463-0.4583 0.6176-1.1755 1.1654-1.1057 1.4942 3.2573 4.0144 10.599 3.4565 13.388-0.1295-0.0398-0.518-0.8567-0.767-1.4245-2.0321 0.1594 0.0498 0.3985 0.1195 0.3985 0.1095 0-0.0099-0.6774-1.1057-0.7073-1.2152l0.4383 0.0299s-0.5777-0.7173-0.5976-0.787l0.5877-0.0797s-0.7372-0.8467-0.7471-0.9164l0.7471 0.1195-0.8168-0.9861h0.3884l-0.4582-0.6674c-0.0797-0.0299-0.1594-0.0499-0.2391-0.0698-0.0996-0.0299-0.1992-0.0597-0.2988-0.0896-1.1156-0.3487-2.1715-0.6674-3.1876-1.3049-1.4245-0.8866-2.6995-1.9724-3.6558-2.8191l-1.9225-0.9363c-1.8428-0.1395-3.5761-0.0897-4.632 0.1195l0.6774-1.1555-1.036 1.2451c-0.0697-0.0199-0.0896-0.0597-0.0896-0.0597l0.0697-1.5341-0.3287 1.3847c-0.0996-0.0499-0.2192-0.0698-0.3387-0.0698-0.4582 0-0.8268 0.3686-0.8268 0.8268 0 0.4184 0.3088 0.767 0.7172 0.8168l-0.7072 1.4345z" clip-rule="evenodd" fill="#fff" fill-rule="evenodd"/>
    <path d="m12.175 15.502c-0.0996-0.0399-0.2191-0.0698-0.3287-0.0698-0.4582 0-0.8268 0.3686-0.8268 0.8268 0 0.3985 0.2889 0.7371 0.6674 0.8168h0.0199c0.2491-0.0797 0.7471-0.7471 0.6674-1.1654-0.0398-0.1495-0.0996-0.2889-0.1992-0.4084z" clip-rule="evenodd" fill="#fff" fill-rule="evenodd"/>
    <path d="m19.527 13.001c-0.2091 0.498-0.249 1.026-0.0996 1.4344-0.5627 0.1226-1.6324 0.0467-2.3536-0.0045-0.2745-0.0195-0.4985-0.0354-0.6248-0.0354 0.0299 0.02 0.0697 0.0399 0.1096 0.0598l3.1976 1.5141 0.0298 0.0299c0.9464 0.8367 2.2114 1.9126 3.616 2.7892 0.8766 0.5578 4.0243 1.534 4.1737 1.5738-0.2635-0.6518 0.1488-1.4485 0.5178-2.1614 0.1611-0.3112 0.3139-0.6065 0.3987-0.8668 0.3387-1.0459 0.4582-2.1915 0.0597-3.2374-0.8267-2.1616-4.0442-3.7255-6.2457-2.8489-0.3984 0.1594-0.757 0.3885-1.0658 0.6674-0.0996-0.0399-0.1992-0.0598-0.3088-0.0598-0.5379 0-1.1057 0.4582-1.4046 1.1456zm1.6735-0.6675c-0.0597-0.0298-0.1195-0.0398-0.1793-0.0398-0.3586 0-0.7869 0.3686-1.0061 0.8766-0.1693 0.3984-0.1992 0.8367-0.0796 1.1356 0.0398 0.1096 0.1195 0.249 0.2689 0.3088 0.0498 0.0199 0.1096 0.0299 0.1693 0.0299 0.3586 0 0.787-0.3686 1.0061-0.8766 0.1495-0.3188 0.1893-0.6575 0.1395-0.9463-0.0399-0.2391-0.1594-0.4184-0.3188-0.4882zm-1.4643 0.7272c0.2789-0.6275 0.8069-1.0658 1.285-1.0658 0.0996 0 0.1993 0.0199 0.2889 0.0697 0.259 0.1096 0.4383 0.3586 0.4981 0.7072 0.0597 0.3487 0.0099 0.7471-0.1594 1.1257-0.269 0.6275-0.7969 1.0658-1.2751 1.0658-0.1095 0-0.2091-0.0199-0.2988-0.0597-0.1893-0.0897-0.3387-0.2491-0.4283-0.4782-0.1494-0.3885-0.1196-0.8965 0.0896-1.3647z" clip-rule="evenodd" fill="#fff" fill-rule="evenodd"/>
    <defs>
        <filter id="filter0_f" x="3.3838" y="3.5974" width="34.319" height="33.893" color-interpolation-filters="sRGB" filterUnits="userSpaceOnUse">
            <feFlood flood-opacity="0" result="BackgroundImageFix"/>
            <feBlend in="SourceGraphic" in2="BackgroundImageFix" result="shape"/>
            <feGaussianBlur result="effect1_foregroundBlur" stdDeviation="0.352455"/>
        </filter>
    </defs>
</svg>
