<?xml version="1.0" encoding="UTF-8"?>
<svg version="1.1" viewBox="0 0 26.95 26.95" xmlns="http://www.w3.org/2000/svg">
    <defs>
        <filter id="filter6206-7" color-interpolation-filters="sRGB">
            <feGaussianBlur stdDeviation="0.658125"/>
        </filter>
    </defs>
    <g transform="translate(0 -1025.4)">
        <path transform="matrix(1.0107 0 0 .99762 -.087875 2.579)" d="m4.4177 1028.2v1.6051h-1.6052v18.192h1.6052v2.1402h18.192v-2.1402h2.1402v-18.192h-2.1402v-1.6051h-18.192z" fill="#232323" filter="url(#filter6206-7)" opacity=".2"/>
        <rect x="2.8113" y="1028.2" width="21.327" height="21.327" rx="1.1225" ry="1.1226" fill="#232323"/>
        <g transform="translate(-20.925 990.46)">
            <path d="m0 0h48v48h-48z" fill="none"/>
            <g transform="matrix(.33601 0 0 .33601 1.434 68.477)">
                <path d="m0 0h48v48h-48z" fill="none"/>
            </g>
            <g transform="matrix(.37187 0 0 .37187 36.377 59.287)">
                <path d="m0 0h48v48h-48z" fill="none"/>
                <g transform="matrix(2.6891 0 0 2.6891 -77.724 -45.422)">
                    <path d="m0 0h48v48h-48z" fill="none"/>
                </g>
            </g>
        </g>
        <path transform="translate(0 1025.4)" d="m3.9336 2.8105c-0.62186 0-1.123 0.50115-1.123 1.123v0.3125c0-0.6219 0.50118-1.123 1.123-1.123h19.082c0.62186 0 1.123 0.50115 1.123 1.123v-0.3125c0-0.6219-0.50118-1.123-1.123-1.123h-19.082z" fill="#fff" opacity=".2"/>
        <rect x="120" y="512.36" width="40" height="40" fill="none"/>
        <rect x="120" y="592.36" width="40" height="40" fill="none"/>
        <rect x="120" y="632.36" width="40" height="40" fill="none"/>
        <rect x="120" y="552.36" width="40" height="40" fill="none"/>
        <rect x="120" y="672.36" width="40" height="40" fill="none"/>
        <rect x="200" y="512.36" width="40" height="40" fill="none"/>
        <rect x="200" y="592.36" width="40" height="40" fill="none"/>
        <rect x="200" y="632.36" width="40" height="40" fill="none"/>
        <rect x="200" y="552.36" width="40" height="40" fill="none"/>
        <rect x="200" y="672.36" width="40" height="40" fill="none"/>
        <rect x="280" y="512.36" width="40" height="40" fill="none"/>
        <rect x="280" y="592.36" width="40" height="40" fill="none"/>
        <rect x="280" y="632.36" width="40" height="40" fill="none"/>
        <rect x="280" y="552.36" width="40" height="40" fill="none"/>
        <rect x="280" y="672.36" width="40" height="40" fill="none"/>
        <rect x="160" y="512.36" width="40" height="40" fill="none"/>
        <rect x="160" y="592.36" width="40" height="40" fill="none"/>
        <rect x="160" y="632.36" width="40" height="40" fill="none"/>
        <rect x="160" y="552.36" width="40" height="40" fill="none"/>
        <rect x="160" y="672.36" width="40" height="40" fill="none"/>
        <rect x="240" y="512.36" width="40" height="40" fill="none"/>
        <rect x="240" y="592.36" width="40" height="40" fill="none"/>
        <rect x="240" y="632.36" width="40" height="40" fill="none"/>
        <rect x="240" y="552.36" width="40" height="40" fill="none"/>
        <rect x="240" y="672.36" width="40" height="40" fill="none"/>
        <rect x="120" y="712.36" width="40" height="40" fill="none"/>
        <rect x="200" y="712.36" width="40" height="40" fill="none"/>
        <rect x="280" y="712.36" width="40" height="40" fill="none"/>
        <rect x="160" y="712.36" width="40" height="40" fill="none"/>
        <rect x="240" y="712.36" width="40" height="40" fill="none"/>
        <rect x="320" y="552.36" width="40" height="40" fill="none"/>
        <rect x="320" y="592.36" width="40" height="40" fill="none"/>
        <rect x="320" y="672.36" width="40" height="40" fill="none"/>
        <rect x="320" y="512.36" width="40" height="40" fill="none"/>
        <rect x="320" y="632.36" width="40" height="40" fill="none"/>
        <rect x="320" y="712.36" width="40" height="40" fill="none"/>
        <rect x="150" y="542.36" width="180" height="180" fill="none"/>
        <g transform="matrix(.37344 0 0 .37344 4.4375 1028.8)">
            <path d="m0 0h48v48h-48z" fill="none"/>
        </g>
        <g transform="matrix(.36471 0 0 .36471 4.8146 1028.8)">
            <path d="m0 0h48v48h-48z" fill="none"/>
        </g>
        <g transform="matrix(.41585 0 0 .41585 79.055 989.88)">
            <g transform="matrix(.062269 0 0 .062269 -26.473 173.71)">
                <g transform="matrix(38.618 0 0 38.618 13804 -12696)">
                    <g transform="matrix(.71436 0 0 .71436 -375.49 176.57)">
                        <path transform="matrix(1.3999 0 0 1.3999 525.63 -247.17)" d="m490.56 95.75c-121.72 0.18504-342.34 0.090577-468.16 0.09375-1.5548 6.9739-2.4062 14.232-2.4062 21.688v76.344c139.06 0.49354 331.32 0.2554 472.97 0.25v-76.594c0-7.4875-0.8386-14.78-2.4062-21.781zm-307.19 197.94c-52.495-3e-3 -106.38 0.11982-163.38 0.375v92.844c191.76-0.26331 282.43-0.0926 472.97-0.21875v-92.25c-109.29-0.35498-208.43-0.74426-309.59-0.75z" opacity="0"/>
                    </g>
                </g>
            </g>
        </g>
        <path d="m23.015 1049.6c0.6218 0 1.123-0.5012 1.123-1.123v-0.3125c0 0.6218-0.5012 1.123-1.123 1.123h-19.082c-0.6218 0-1.123-0.5012-1.123-1.123v0.3125c0 0.6218 0.5012 1.123 1.123 1.123h19.082z" fill="#232323" opacity=".2"/>
    </g>
    <g transform="translate(-26.853 -3.1785)">
        <path d="m45.601 18.025c0.03482-0.1874 0.1085-0.45835 0.22047-0.80994 0.11023-0.35159 0.22859-0.72117 0.35159-1.1082 0.123-0.38698 0.23208-0.76004 0.3249-1.1186 0.09283-0.35856 0.14156-0.62486 0.14156-0.80066 0-0.59933-0.23208-1.0629-0.69622-1.3913-0.46299-0.32838-1.1058-0.49316-1.9274-0.49316-0.32839 0.21119-0.66605 0.58715-1.0124 1.1267-0.34811 0.53957-0.70202 1.2323-1.0664 2.0771l-0.123 0.0174c0.03597-0.1758 0.07658-0.34579 0.12358-0.51056 0.0232-0.14041 0.0499-0.28719 0.07948-0.43978 0.02902-0.15259 0.04409-0.28719 0.04409-0.40497 0-0.58599-0.22627-1.0443-0.67766-1.3733-0.45254-0.32838-1.0826-0.49316-1.8926-0.49316-0.32781 0.21235-0.66431 0.58773-1.0107 1.1273-0.34637 0.53957-0.70202 1.2323-1.0652 2.0771l-0.123 0.0174c0.04642-0.31678 0.10559-0.63356 0.17638-0.95034 0.06962-0.31678 0.13344-0.59875 0.19146-0.84533l0.21351-0.84417-0.24658-0.36958c-0.445 0.03482-0.90277 0.06962-1.3721 0.10443-0.39917 0.02437-0.82734 0.04758-1.2851 0.07137-0.45835 0.0232-0.88072 0.03482-1.2683 0.03482l-0.21235 1.4447h0.49316c0.23497 0 0.39627 0.05512 0.48387 0.16651 0.08819 0.11198 0.1143 0.3075 0.07948 0.59005-0.02322 0.12938-0.05222 0.3075-0.08703 0.53725-0.03482 0.22917-0.07659 0.48736-0.123 0.77455l-0.15027 0.9254c-0.05338 0.32838-0.10327 0.65155-0.15085 0.96891-0.1288 0.75076-0.2634 1.5607-0.40439 2.4292l0.35159 0.40613c0.32722 0 0.64749-0.02437 0.95847-0.07137 0.31098-0.04642 0.58367-0.11488 0.81806-0.20307 0.23498-0.08703 0.42586-0.1845 0.57264-0.29009 0.14505-0.10617 0.23207-0.22337 0.25528-0.35217l0.12184-1.0385c0.18798-0.55118 0.38176-1.0583 0.58019-1.5224 0.20074-0.46415 0.38872-0.86332 0.56452-1.1975 0.1758-0.33419 0.33651-0.59527 0.48388-0.78325 0.14621-0.18798 0.26688-0.28197 0.36088-0.28197 0.22221 0 0.33419 0.13518 0.33419 0.40497 0 0.08239-0.0174 0.21699-0.05222 0.40497-0.03597 0.1874-0.08006 0.40439-0.13344 0.65097s-0.11024 0.51404-0.17522 0.80066c-0.06382 0.28835-0.13228 0.57264-0.20307 0.85461-0.16419 0.66954-0.35159 1.4099-0.56278 2.2186l0.35217 0.40613c0.32897 0 0.64981-0.02437 0.96021-0.07137 0.31098-0.04641 0.58599-0.11372 0.82734-0.20306 0.24078-0.08703 0.43514-0.18334 0.58019-0.29009 0.14737-0.10443 0.22627-0.22221 0.23788-0.35101l0.08877-0.84417c0.22279-0.57438 0.44674-1.1064 0.66895-1.5932 0.22279-0.48736 0.43398-0.90741 0.63356-1.259 0.199-0.35275 0.38292-0.62834 0.55408-0.82851 0.16999-0.19958 0.3075-0.29938 0.41367-0.29938 0.21119 0 0.31678 0.16477 0.31678 0.49316 0 0.16477-0.05571 0.44326-0.16709 0.83547-0.1114 0.39453-0.23498 0.81342-0.36958 1.259-0.13576 0.44674-0.25876 0.86912-0.37016 1.2683-0.1114 0.39917-0.16825 0.69216-0.16825 0.88072 0 0.36378 0.09108 0.62776 0.27269 0.79195 0.18218 0.16361 0.47865 0.246 0.88943 0.246 0.24658 0 0.48968-0.04409 0.73103-0.13228 0.2402-0.08819 0.50128-0.23788 0.78325-0.44906 0.28139-0.21061 0.59759-0.48968 0.95034-0.83547s0.76352-0.78325 1.2329-1.3112l-0.33475-0.8459-0.4218-0.06962c-0.35159 0.3046-0.58018 0.50128-0.68636 0.58947-0.10617 0.08819-0.18218 0.13228-0.22917 0.13228l-0.05222-0.05455z" fill="#fff"/>
    </g>
    <g display="none" fill="none">
        <rect transform="rotate(90)" x="7.3342" y="-19.616" width="12.282" height="12.282" display="inline" stroke="#000" stroke-width=".065984"/>
        <rect x="6.7726" y="8.112" width="13.405" height="10.726" stroke="#5261ff" stroke-linecap="round" stroke-linejoin="round" stroke-width=".06524"/>
        <rect transform="rotate(90)" x="6.7726" y="-18.838" width="13.405" height="10.726" display="inline" stroke="#0f0" stroke-linecap="round" stroke-linejoin="round" stroke-width=".06524"/>
    </g>
</svg>
