<?xml version="1.0" encoding="UTF-8"?>
<svg fill="none" viewBox="0 0 40 40" xmlns="http://www.w3.org/2000/svg">
    <g filter="url(#filter0_f)" opacity=".2">
        <path d="m6.4966 4.3023v2.3767h-2.408v26.937h2.408v3.1689h27.29v-3.1689h3.2106v-26.937h-3.2106v-2.3767h-27.29z" fill="#232323"/>
    </g>
    <path d="m34.161 4.1727h-28.323c-0.92013 0-1.666 0.74594-1.666 1.6661v28.323c0 0.9202 0.74591 1.6661 1.666 1.6661h28.323c0.9201 0 1.666-0.7459 1.666-1.6661v-28.323c0-0.92018-0.7459-1.6661-1.666-1.6661z" fill="#8BC34A"/>
    <path d="m5.8383 4.1715c-0.92299 0-1.6669 0.74384-1.6669 1.6668v0.46405c0-0.9231 0.74387-1.667 1.6669-1.667h28.322c0.923 0 1.6668 0.74387 1.6668 1.667v-0.46405c0-0.92296-0.7438-1.6668-1.6668-1.6668h-28.322z" fill="#fff" opacity=".2"/>
    <path d="m34.16 35.859c0.9229 0 1.6668-0.7438 1.6668-1.6668v-0.4639c0 0.9228-0.7439 1.6668-1.6668 1.6668h-28.322c-0.9229 0-1.6668-0.744-1.6668-1.6668v0.4639c0 0.923 0.7439 1.6668 1.6668 1.6668h28.322z" fill="#232323" opacity=".2"/>
    <path d="m23.355 24.874c-0.0495-0.3053-0.0458-0.5299-0.0458-0.6779-0.5505 0.7957-1.2091 0.7957-1.4841 0.7957-0.7178 0-1.0418-0.2058-1.2389-0.3933-0.2947-0.2952-0.4331-0.6976-0.4331-1.0917 0-0.3938 0.1384-1.1188 1.0523-1.5433 0.611-0.2754 1.485-0.2754 1.9667-0.2754 0-0.3241-0.0091-0.4813-0.0687-0.6577-0.1284-0.3649-0.5111-0.4134-0.6481-0.4134-0.2076 0-0.4235 0.0884-0.5518 0.274-0.1082 0.1682-0.1082 0.3259-0.1082 0.4432h-1.4241c0.0088-0.2649 0.0385-0.7965 0.5606-1.1687 0.451-0.3241 1.0312-0.4033 1.5033-0.4033 0.4134 0 1.2774 0.0678 1.7692 0.6384 0.336 0.4024 0.3447 0.9932 0.3447 1.2201l0.01 1.9942c0 0.4226 0.0092 0.8461 0.0968 1.2591h-1.3008zm-1.7848-1.5341c0 0.3337 0.2251 0.7086 0.7073 0.7086 0.1176-9e-4 0.2337-0.0269 0.3405-0.0761s0.202-0.1206 0.2791-0.2094c0.2549-0.314 0.275-0.6981 0.275-1.2293-0.9336-0.0779-1.6019 0.2163-1.6019 0.8062zm3.917 1.524v-4.984h1.4566v4.984h-1.4566zm3.822-4.0164c0.1861-0.4226 0.5111-1.0226 1.6908-0.9634v1.3071c-1.4754-0.1375-1.5643 0.6202-1.5643 1.2403v2.4466h-1.4543v-3.7451c0-0.2374-0.0394-0.9542-0.0692-1.2384h1.3672l0.0298 0.9529z" fill="#fff"/>
    <path d="m19.436 19.215c-0.0174 0.0504 0.0087-0.0527-0.0078 0.0165 0.4616-0.4473 1.0849-0.8154 1.2146-0.8062 0 0.1659-0.3084 0.3791-0.6389 0.6444-0.4666 0.3745-0.7205 0.7256-0.7205 0.7256-0.7379 2.7894-1.045 5.005-2.2477 4.9207-0.5316-0.0385-0.8053-0.5312-0.8131-0.9493-0.0256-1.3534 1.1734-2.7289 2.4155-4.092 0.0861-0.3355 0.1466-0.462 0.2406-0.8048-0.5835 0.8502-1.26 1.5208-1.7499 1.5515-0.5166 0.032-0.583-0.1733-0.583-0.5147 0-0.1284 0.0091-0.2695 0.0252-0.4158-0.3433 0.3777-0.9048 0.8452-1.4144 0.8296-0.9204-0.0261-0.6949-1.0917-0.6513-1.4089 0.0871-0.6417 0.1801-0.9762 0.2411-1.3796 0.0256-0.1485 0.043-0.2269 0.0522-0.3249-0.357 0.3034-1.1211 1.1825-2.0428 3.0268l-0.0037 0.0087s-0.104 0.3199-0.4354 0.2796c-0.5041-0.0367-0.5486-0.3314-0.5486-0.4826 0.1306-0.8149 0.4822-2.0185 0.6912-2.8646-0.9758 0.7118-1.7005 2.0038-2.3192 2.8815-0.33964 0.4822-0.55047 0.8127-0.66231 0.8255-0.13933 0.0147-0.51333-0.1756-0.47529-0.3483 0.47942-1.0927 0.8768-2.7716 1.0597-3.6365-0.0353 0.0422-0.08711 0.0656-0.1224 0.0624-0.19984-0.0138-0.27821-0.1343-0.27821-0.2943 0-0.2924 0.33921-0.6884 0.66961-0.6646 0.2704 0.0184 0.5821 0.1705 0.5569 0.3818-0.1131 0.71-0.2907 1.4082-0.5308 2.0859 1.0267-1.3099 1.7619-2.2307 2.2926-2.3962 0.2704-0.0701 0.5835 0.1472 0.5042 0.6921-0.0513 0.341-0.0953 0.6036-0.1558 0.8479-0.0867 0.3667-0.1472 0.6119-0.3387 1.3173 0.4131-0.5826 0.8145-1.1733 1.204-1.7719 0.4606-0.7215 0.6463-1.035 0.907-1.1138 0.2613-0.0431 0.7054 0.0326 0.7054 0.6256 0 0.347-0.077 0.8182-0.1191 1.2834-0.0922 1.0014-0.21 1.6761 0.043 1.6931 0.2205 0.0155 0.8429-0.1595 1.2096-0.4423 0.1068-0.6884 0.3236-1.4415 0.4436-1.8755 0.0514-0.1623 0.0844-0.3002 0.1458-0.418-0.1563-0.039-0.269-0.2132-0.2718-0.3626-0.0073-0.3025 0.2878-0.5646 0.6137-0.5422 0.2058 0.0151 0.55 0.1132 0.55 0.4629 0 0.0179-0.0091 0.0871-0.0348 0.198-0.0949 0.5088-0.5578 2.2248-0.583 2.8701 0.489-0.0623 1.5354-1.6743 2.0849-2.5703 0.309-0.4859 0.5322-0.8447 0.644-0.8379 0.0596 0.0046 0.1948 0.023 0.1948 0.1444-0.2484 0.5867-0.6765 1.8874-0.9611 2.9425h4e-4zm-2.4814 4.9908c0.5239 0.0367 0.6623-0.8754 1.4438-3.6868-0.7435 0.8937-1.4346 2.2211-1.4346 3.206-0.0092 0.0954-0.0092 0.2342-0.0092 0.3392v0.1416z" fill="#fff"/>
    <defs>
        <filter id="filter0_f" x="3.3837" y="3.5974" width="34.319" height="33.893" color-interpolation-filters="sRGB" filterUnits="userSpaceOnUse">
            <feFlood flood-opacity="0" result="BackgroundImageFix"/>
            <feBlend in="SourceGraphic" in2="BackgroundImageFix" result="shape"/>
            <feGaussianBlur result="effect1_foregroundBlur" stdDeviation="0.352455"/>
        </filter>
    </defs>
</svg>
