<?xml version="1.0" encoding="UTF-8"?>
<svg version="1.1" viewBox="0 0 28.747 28.747" xmlns="http://www.w3.org/2000/svg">
    <defs>
        <filter id="filter6206-7" x="-.072" y="-.072" width="1.144" height="1.144" color-interpolation-filters="sRGB">
            <feGaussianBlur stdDeviation="0.658125"/>
        </filter>
    </defs>
    <g transform="translate(0 -1093.8)">
        <path transform="matrix(1.0781 0 0 1.0641 -.093733 2.7509)" d="m4.4177 1028.2v1.6051h-1.6052v18.192h1.6052v2.1402h18.192v-2.1402h2.1402v-18.192h-2.1402v-1.6051z" fill="#232323" filter="url(#filter6206-7)" opacity=".2"/>
        <rect x="2.9987" y="1096.8" width="22.749" height="22.749" rx="1.1973" ry="1.1974" fill="#232323"/>
        <g transform="translate(-22.32 1056.5)">
            <path d="m0 0h51.2v51.2h-51.2z" fill="none" stroke-width="1.0667"/>
            <g transform="matrix(.33601 0 0 .33601 1.5296 73.043)">
                <path d="m0 0h51.2v51.2h-51.2z" fill="none" stroke-width="1.0667"/>
            </g>
            <g transform="matrix(.37187 0 0 .37187 38.802 63.239)">
                <path d="m0 0h51.2v51.2h-51.2z" fill="none" stroke-width="1.0667"/>
                <g transform="matrix(2.6891 0 0 2.6891 -82.906 -48.45)">
                    <path d="m0 0h51.2v51.2h-51.2z" fill="none" stroke-width="1.0667"/>
                </g>
            </g>
        </g>
        <path d="m4.1958 1096.8c-0.66332 0-1.1979 0.5346-1.1979 1.1979v0.3334c0-0.6634 0.53459-1.1979 1.1979-1.1979h20.354c0.66332 0 1.1979 0.5345 1.1979 1.1979v-0.3334c0-0.6633-0.5346-1.1979-1.1979-1.1979z" fill="#fff" opacity=".2"/>
        <rect x="128" y="546.52" width="42.667" height="42.667" fill="none" stroke-width="1.0667"/>
        <rect x="128" y="631.85" width="42.667" height="42.667" fill="none" stroke-width="1.0667"/>
        <rect x="128" y="674.52" width="42.667" height="42.667" fill="none" stroke-width="1.0667"/>
        <rect x="128" y="589.19" width="42.667" height="42.667" fill="none" stroke-width="1.0667"/>
        <rect x="128" y="717.19" width="42.667" height="42.667" fill="none" stroke-width="1.0667"/>
        <rect x="213.33" y="546.52" width="42.667" height="42.667" fill="none" stroke-width="1.0667"/>
        <rect x="213.33" y="631.85" width="42.667" height="42.667" fill="none" stroke-width="1.0667"/>
        <rect x="213.33" y="674.52" width="42.667" height="42.667" fill="none" stroke-width="1.0667"/>
        <rect x="213.33" y="589.19" width="42.667" height="42.667" fill="none" stroke-width="1.0667"/>
        <rect x="213.33" y="717.19" width="42.667" height="42.667" fill="none" stroke-width="1.0667"/>
        <rect x="298.67" y="546.52" width="42.667" height="42.667" fill="none" stroke-width="1.0667"/>
        <rect x="298.67" y="631.85" width="42.667" height="42.667" fill="none" stroke-width="1.0667"/>
        <rect x="298.67" y="674.52" width="42.667" height="42.667" fill="none" stroke-width="1.0667"/>
        <rect x="298.67" y="589.19" width="42.667" height="42.667" fill="none" stroke-width="1.0667"/>
        <rect x="298.67" y="717.19" width="42.667" height="42.667" fill="none" stroke-width="1.0667"/>
        <rect x="170.67" y="546.52" width="42.667" height="42.667" fill="none" stroke-width="1.0667"/>
        <rect x="170.67" y="631.85" width="42.667" height="42.667" fill="none" stroke-width="1.0667"/>
        <rect x="170.67" y="674.52" width="42.667" height="42.667" fill="none" stroke-width="1.0667"/>
        <rect x="170.67" y="589.19" width="42.667" height="42.667" fill="none" stroke-width="1.0667"/>
        <rect x="170.67" y="717.19" width="42.667" height="42.667" fill="none" stroke-width="1.0667"/>
        <rect x="256" y="546.52" width="42.667" height="42.667" fill="none" stroke-width="1.0667"/>
        <rect x="256" y="631.85" width="42.667" height="42.667" fill="none" stroke-width="1.0667"/>
        <rect x="256" y="674.52" width="42.667" height="42.667" fill="none" stroke-width="1.0667"/>
        <rect x="256" y="589.19" width="42.667" height="42.667" fill="none" stroke-width="1.0667"/>
        <rect x="256" y="717.19" width="42.667" height="42.667" fill="none" stroke-width="1.0667"/>
        <rect x="128" y="759.85" width="42.667" height="42.667" fill="none" stroke-width="1.0667"/>
        <rect x="213.33" y="759.85" width="42.667" height="42.667" fill="none" stroke-width="1.0667"/>
        <rect x="298.67" y="759.85" width="42.667" height="42.667" fill="none" stroke-width="1.0667"/>
        <rect x="170.67" y="759.85" width="42.667" height="42.667" fill="none" stroke-width="1.0667"/>
        <rect x="256" y="759.85" width="42.667" height="42.667" fill="none" stroke-width="1.0667"/>
        <rect x="341.33" y="589.19" width="42.667" height="42.667" fill="none" stroke-width="1.0667"/>
        <rect x="341.33" y="631.85" width="42.667" height="42.667" fill="none" stroke-width="1.0667"/>
        <rect x="341.33" y="717.19" width="42.667" height="42.667" fill="none" stroke-width="1.0667"/>
        <rect x="341.33" y="546.52" width="42.667" height="42.667" fill="none" stroke-width="1.0667"/>
        <rect x="341.33" y="674.52" width="42.667" height="42.667" fill="none" stroke-width="1.0667"/>
        <rect x="341.33" y="759.85" width="42.667" height="42.667" fill="none" stroke-width="1.0667"/>
        <rect x="160" y="578.52" width="192" height="192" fill="none" stroke-width="1.0667"/>
        <g transform="matrix(.37344 0 0 .37344 4.7333 1097.4)">
            <path d="m0 0h51.2v51.2h-51.2z" fill="none" stroke-width="1.0667"/>
        </g>
        <g transform="matrix(.36471 0 0 .36471 5.1356 1097.4)">
            <path d="m0 0h51.2v51.2h-51.2z" fill="none" stroke-width="1.0667"/>
        </g>
        <g transform="matrix(.41585 0 0 .41585 84.325 1055.9)">
            <g transform="matrix(.062269 0 0 .062269 -28.238 185.29)">
                <g transform="matrix(38.618 0 0 38.618 14724 -13542)">
                    <g transform="matrix(.71436 0 0 .71436 -400.52 188.34)">
                        <path d="m1293.2-120.67c-181.75 0.2763-511.18 0.13525-699.05 0.13998-2.3216 10.413-3.593 21.251-3.593 32.384v114c207.65 0.73695 494.72 0.38136 706.23 0.3733v-114.37c0-11.18-1.2522-22.07-3.593-32.523zm-458.69 295.56c-78.385-4e-3 -158.85 0.17892-243.95 0.55995v138.63c286.34-0.39317 421.73-0.13827 706.23-0.32664v-137.75c-163.2-0.53005-311.22-1.1113-462.28-1.1199z" opacity="0" stroke-width="1.4932"/>
                    </g>
                </g>
            </g>
        </g>
        <path d="m24.549 1119.5c0.66325 0 1.1979-0.5346 1.1979-1.1979v-0.3333c0 0.6632-0.53461 1.1978-1.1979 1.1978h-20.354c-0.66325 0-1.1979-0.5346-1.1979-1.1978v0.3333c0 0.6633 0.53461 1.1979 1.1979 1.1979z" fill="#232323" opacity=".2"/>
    </g>
    <path d="m9.2524 7.2242c-0.2824 0-0.50971 0.22743-0.50971 0.50983v5.3714c0 0.49138 0.38488 0.92606 0.98291 1.2051v5.6775c0 0.84614 0.69841 1.5274 1.5659 1.5274 0.86748 0 1.5659-0.68123 1.5659-1.5274v-5.6775c0.59803-0.27903 0.98291-0.71371 0.98291-1.2051v-5.3714c0-0.2824-0.22743-0.50983-0.50983-0.50983s-0.50972 0.22743-0.50972 0.50983v3.3769c0 0.2824-0.22743 0.50971-0.50983 0.50971s-0.50971-0.22731-0.50971-0.50971v-3.3769c0-0.2824-0.22731-0.50983-0.50971-0.50983s-0.50983 0.22743-0.50983 0.50983v3.3769c0 0.2824-0.22731 0.50971-0.50972 0.50971-0.2824 0-0.50971-0.22731-0.50971-0.50971v-3.3769c0-0.2824-0.22743-0.50983-0.50983-0.50983zm8.1955 0c-1.416 0-2.5559 1.8632-2.5559 4.1777 0 0.02829 9.61e-4 0.05623 0.0012 0.08438l-0.0012 0.0012v3.7733c0 0.64153 0.6983 1.1581 1.5658 1.1581h0.47863v3.9458c0 0.64153 0.68407 1.1579 1.5338 1.1579 0.84968 0 1.5338-0.5164 1.5338-1.1579v-11.982c0-0.64153-0.68408-1.1581-1.5338-1.1581-0.0054 0-0.01062 5.446e-4 -0.01596 6.051e-4 -0.0055-4.06e-5 -0.01075-6.051e-4 -0.0162-6.051e-4h-0.94403l-1.21e-4 0.00189c-0.01536-4.235e-4 -0.03054-0.00189-0.04597-0.00189z" fill="#fff" stroke-linecap="round" stroke-linejoin="round" stroke-width=".6"/>
    <g display="none" fill="none">
        <rect transform="rotate(90)" x="7.8232" y="-20.923" width="13.1" height="13.1" display="inline" stroke="#000" stroke-width=".070382"/>
        <rect x="7.2241" y="8.6528" width="14.298" height="11.441" stroke="#5261ff" stroke-linecap="round" stroke-linejoin="round" stroke-width=".06959"/>
        <rect transform="rotate(90)" x="7.2241" y="-20.094" width="14.298" height="11.441" display="inline" stroke="#0f0" stroke-linecap="round" stroke-linejoin="round" stroke-width=".06959"/>
    </g>
</svg>
