<?xml version="1.0" encoding="UTF-8"?>
<svg version="1.1" viewBox="0 0 28.747 28.747" xmlns="http://www.w3.org/2000/svg">
    <defs>
        <filter id="filter6206-7" color-interpolation-filters="sRGB">
            <feGaussianBlur stdDeviation="0.658125"/>
        </filter>
    </defs>
    <g transform="translate(0 -1093.8)">
        <path transform="matrix(1.0781 0 0 1.0641 -.093733 2.7509)" d="m4.4177 1028.2v1.6051h-1.6052v18.192h1.6052v2.1402h18.192v-2.1402h2.1402v-18.192h-2.1402v-1.6051z" fill="#212121" filter="url(#filter6206-7)" opacity=".2"/>
        <rect x="2.9987" y="1096.8" width="22.749" height="22.749" rx="1.1973" ry="1.1974" fill="#232323"/>
        <g transform="translate(-22.32 1056.5)">
            <path d="m0 0h51.2v51.2h-51.2z" fill="none" stroke-width="1.0667"/>
            <g transform="matrix(.33601 0 0 .33601 1.5296 73.043)">
                <path d="m0 0h51.2v51.2h-51.2z" fill="none" stroke-width="1.0667"/>
            </g>
            <g transform="matrix(.37187 0 0 .37187 38.802 63.239)">
                <path d="m0 0h51.2v51.2h-51.2z" fill="none" stroke-width="1.0667"/>
                <g transform="matrix(2.6891 0 0 2.6891 -82.906 -48.45)">
                    <path d="m0 0h51.2v51.2h-51.2z" fill="none" stroke-width="1.0667"/>
                </g>
            </g>
        </g>
        <path d="m4.1958 1096.8c-0.66332 0-1.1979 0.5346-1.1979 1.1979v0.3334c0-0.6634 0.53459-1.1979 1.1979-1.1979h20.354c0.66332 0 1.1979 0.5345 1.1979 1.1979v-0.3334c0-0.6633-0.5346-1.1979-1.1979-1.1979z" fill="#fff" opacity=".2"/>
        <rect x="128" y="546.52" width="42.667" height="42.667" fill="none" stroke-width="1.0667"/>
        <rect x="128" y="631.85" width="42.667" height="42.667" fill="none" stroke-width="1.0667"/>
        <rect x="128" y="674.52" width="42.667" height="42.667" fill="none" stroke-width="1.0667"/>
        <rect x="128" y="589.19" width="42.667" height="42.667" fill="none" stroke-width="1.0667"/>
        <rect x="128" y="717.19" width="42.667" height="42.667" fill="none" stroke-width="1.0667"/>
        <rect x="213.33" y="546.52" width="42.667" height="42.667" fill="none" stroke-width="1.0667"/>
        <rect x="213.33" y="631.85" width="42.667" height="42.667" fill="none" stroke-width="1.0667"/>
        <rect x="213.33" y="674.52" width="42.667" height="42.667" fill="none" stroke-width="1.0667"/>
        <rect x="213.33" y="589.19" width="42.667" height="42.667" fill="none" stroke-width="1.0667"/>
        <rect x="213.33" y="717.19" width="42.667" height="42.667" fill="none" stroke-width="1.0667"/>
        <rect x="298.67" y="546.52" width="42.667" height="42.667" fill="none" stroke-width="1.0667"/>
        <rect x="298.67" y="631.85" width="42.667" height="42.667" fill="none" stroke-width="1.0667"/>
        <rect x="298.67" y="674.52" width="42.667" height="42.667" fill="none" stroke-width="1.0667"/>
        <rect x="298.67" y="589.19" width="42.667" height="42.667" fill="none" stroke-width="1.0667"/>
        <rect x="298.67" y="717.19" width="42.667" height="42.667" fill="none" stroke-width="1.0667"/>
        <rect x="170.67" y="546.52" width="42.667" height="42.667" fill="none" stroke-width="1.0667"/>
        <rect x="170.67" y="631.85" width="42.667" height="42.667" fill="none" stroke-width="1.0667"/>
        <rect x="170.67" y="674.52" width="42.667" height="42.667" fill="none" stroke-width="1.0667"/>
        <rect x="170.67" y="589.19" width="42.667" height="42.667" fill="none" stroke-width="1.0667"/>
        <rect x="170.67" y="717.19" width="42.667" height="42.667" fill="none" stroke-width="1.0667"/>
        <rect x="256" y="546.52" width="42.667" height="42.667" fill="none" stroke-width="1.0667"/>
        <rect x="256" y="631.85" width="42.667" height="42.667" fill="none" stroke-width="1.0667"/>
        <rect x="256" y="674.52" width="42.667" height="42.667" fill="none" stroke-width="1.0667"/>
        <rect x="256" y="589.19" width="42.667" height="42.667" fill="none" stroke-width="1.0667"/>
        <rect x="256" y="717.19" width="42.667" height="42.667" fill="none" stroke-width="1.0667"/>
        <rect x="128" y="759.85" width="42.667" height="42.667" fill="none" stroke-width="1.0667"/>
        <rect x="213.33" y="759.85" width="42.667" height="42.667" fill="none" stroke-width="1.0667"/>
        <rect x="298.67" y="759.85" width="42.667" height="42.667" fill="none" stroke-width="1.0667"/>
        <rect x="170.67" y="759.85" width="42.667" height="42.667" fill="none" stroke-width="1.0667"/>
        <rect x="256" y="759.85" width="42.667" height="42.667" fill="none" stroke-width="1.0667"/>
        <rect x="341.33" y="589.19" width="42.667" height="42.667" fill="none" stroke-width="1.0667"/>
        <rect x="341.33" y="631.85" width="42.667" height="42.667" fill="none" stroke-width="1.0667"/>
        <rect x="341.33" y="717.19" width="42.667" height="42.667" fill="none" stroke-width="1.0667"/>
        <rect x="341.33" y="546.52" width="42.667" height="42.667" fill="none" stroke-width="1.0667"/>
        <rect x="341.33" y="674.52" width="42.667" height="42.667" fill="none" stroke-width="1.0667"/>
        <rect x="341.33" y="759.85" width="42.667" height="42.667" fill="none" stroke-width="1.0667"/>
        <rect x="160" y="578.52" width="192" height="192" fill="none" stroke-width="1.0667"/>
        <g transform="matrix(.37344 0 0 .37344 4.7333 1097.4)">
            <path d="m0 0h51.2v51.2h-51.2z" fill="none" stroke-width="1.0667"/>
        </g>
        <g transform="matrix(.36471 0 0 .36471 5.1356 1097.4)">
            <path d="m0 0h51.2v51.2h-51.2z" fill="none" stroke-width="1.0667"/>
        </g>
        <g transform="matrix(.41585 0 0 .41585 84.325 1055.9)">
            <g transform="matrix(.062269 0 0 .062269 -28.238 185.29)">
                <g transform="matrix(38.618 0 0 38.618 14724 -13542)">
                    <g transform="matrix(.71436 0 0 .71436 -400.52 188.34)">
                        <path d="m1293.2-120.67c-181.75 0.2763-511.18 0.13525-699.05 0.13998-2.3216 10.413-3.593 21.251-3.593 32.384v114c207.65 0.73695 494.72 0.38136 706.23 0.3733v-114.37c0-11.18-1.2522-22.07-3.593-32.523zm-458.69 295.56c-78.385-4e-3 -158.85 0.17892-243.95 0.55995v138.63c286.34-0.39317 421.73-0.13827 706.23-0.32664v-137.75c-163.2-0.53005-311.22-1.1113-462.28-1.1199z" opacity="0" stroke-width="1.4932"/>
                    </g>
                </g>
            </g>
        </g>
        <path d="m24.549 1119.5c0.66325 0 1.1979-0.5346 1.1979-1.1979v-0.3333c0 0.6632-0.53461 1.1978-1.1979 1.1978h-20.354c-0.66325 0-1.1979-0.5346-1.1979-1.1978v0.3333c0 0.6633 0.53461 1.1979 1.1979 1.1979z" fill="#212121" opacity=".2"/>
    </g>
    <path d="m12.635 20.875c-0.19277-0.15163-0.19749-0.47802-0.0096-0.66588 0.2879-0.2879 0.77653-0.08481 0.77653 0.32275 0 0.39348-0.44805 0.59395-0.7669 0.34314zm1.4062-0.02428c-0.27651-0.29433-0.07784-0.77264 0.32093-0.77264 0.34582 0 0.55959 0.32258 0.42658 0.64371-0.12377 0.2988-0.5232 0.36769-0.74751 0.12893zm1.4137 0.0039c-0.28044-0.28044-0.07779-0.77653 0.31722-0.77653 0.41662 0 0.6307 0.47802 0.34857 0.77833-0.16838 0.17924-0.48561 0.17838-0.66579-0.0018zm-4.7757-1.2947c-0.4973-0.18179-0.39011-0.92326 0.13347-0.92326 0.35441 0 0.56863 0.37968 0.3961 0.70206-0.04576 0.08552-0.36667 0.27365-0.43443 0.25469-0.0083-0.0023-0.0511-0.01739-0.09515-0.03348zm1.3571-0.03805c-0.31348-0.1365-0.36255-0.56439-0.08936-0.77928 0.3962-0.31166 0.9158 0.13371 0.68245 0.58496-0.05799 0.11214-0.34948 0.29666-0.42333 0.26798-0.0029-0.0012-0.07935-0.0343-0.16975-0.07366zm1.419-0.01814c-0.20635-0.1033-0.30069-0.29827-0.24728-0.51109 0.13067-0.52064 0.89858-0.4411 0.89858 0.09308 0 0.36682-0.33019 0.57874-0.6513 0.418zm1.4948 0.05618c-0.4973-0.18179-0.39011-0.92326 0.13347-0.92326 0.35441 0 0.56863 0.37968 0.3961 0.70206-0.04578 0.08552-0.36667 0.27365-0.43443 0.25469-0.0083-0.0023-0.05109-0.01739-0.09514-0.03348zm1.3571-0.03805c-0.31348-0.1365-0.36255-0.56439-0.08936-0.77928 0.3962-0.31166 0.9158 0.13371 0.68245 0.58496-0.05799 0.11214-0.34948 0.29666-0.42333 0.26798-0.0029-0.0012-0.07934-0.0343-0.16975-0.07366zm1.419-0.01814c-0.20636-0.10329-0.30069-0.29827-0.24728-0.51108 0.13188-0.52544 0.8879-0.44679 0.8879 0.09237 0 0.3796-0.31173 0.58335-0.64062 0.41871zm-7.8538-1.4276c-0.41552-0.22583-0.24387-0.8809 0.23083-0.8809 0.18447 0 0.46917 0.25457 0.46917 0.41951 0 0.39688-0.36998 0.64075-0.7 0.46139zm1.4665 0.02712c-0.30736-0.12404-0.37373-0.50817-0.12994-0.75197 0.25726-0.25726 0.59072-0.19162 0.7309 0.14388 0.16187 0.38741-0.21153 0.76525-0.60096 0.60809zm1.3253-0.08055c-0.1382-0.11629-0.16988-0.18233-0.16988-0.35417 0-0.43198 0.46552-0.63387 0.76682-0.33256 0.40973 0.40973-0.1546 1.0589-0.59695 0.68673zm1.4791 0.05343c-0.41552-0.22583-0.24387-0.8809 0.23083-0.8809 0.18447 0 0.46917 0.25457 0.46917 0.41951 0 0.39688-0.36998 0.64075-0.7 0.46139zm1.4665 0.02712c-0.06292-0.0254-0.15301-0.10129-0.2002-0.16865-0.30702-0.43834 0.31389-0.98517 0.69074-0.60833 0.35653 0.35653-0.02701 0.96403-0.49054 0.77698zm1.4758 0.01635c-0.33169-0.12585-0.43283-0.54977-0.18928-0.79332 0.40986-0.40986 1.0429 0.20551 0.65641 0.63808-0.12487 0.13975-0.32909 0.20762-0.46713 0.15525zm1.3287-0.04346c-0.41552-0.22583-0.24387-0.8809 0.23083-0.8809 0.18446 0 0.46917 0.25457 0.46917 0.41951 0 0.39688-0.36998 0.64075-0.7 0.46139zm-3.2773-1.987c-0.36598-0.08891-0.67896-0.52359-0.96433-1.3393-0.26163-0.74787-0.40036-1.0781-0.45288-1.0781-0.0235 0-0.15799 0.17417-0.29888 0.38705-0.89132 1.3467-1.6717 1.5558-2.6435 0.70819-0.69144-0.60298-1.2479-0.61623-1.9455-0.04627-0.35374 0.28903-0.75905 0.20809-0.85409-0.17056-0.155-0.61757 1.3302-1.3672 2.2853-1.1535 0.38775 0.08677 0.63766 0.22708 1.0731 0.60249 0.54196 0.4672 0.70962 0.40712 1.2953-0.46414 0.5665-0.84267 1.0195-1.0673 1.5271-0.75718 0.338 0.20651 0.48112 0.44436 0.77234 1.2835 0.25614 0.73806 0.39645 1.0559 0.45117 1.0221 0.02519-0.01556 0.19196-0.24173 0.37064-0.5026 0.56369-0.82301 0.91075-1.0693 1.507-1.0693 0.36125 0 0.43631 0.03531 1.1913 0.56056 0.36092 0.25109 1.0018 0.30987 1.3306 0.12204 0.44719-0.25549 0.5003-0.26779 0.71058-0.16452 0.77444 0.38034-0.12987 1.2408-1.3064 1.243-0.56076 0.0011-0.90831-0.1404-1.6406-0.66785-0.39018-0.28103-0.5178-0.21186-1.0564 0.57258-0.37778 0.55023-0.6552 0.81535-0.93426 0.89284-0.2141 0.05945-0.2449 0.06084-0.41752 0.01891zm-5.3521-4.7798c-0.37904-0.40608 0.018437-0.95631 0.5449-0.75429 0.10313 0.03958 0.24263 0.29288 0.24263 0.44057 0 0.3557-0.54551 0.57301-0.78753 0.31372zm1.3989-0.02114c-0.28538-0.30793-0.0833-0.76631 0.33783-0.76631 0.27476 0 0.4495 0.17924 0.4495 0.46107 0 0.40798-0.50917 0.60538-0.78733 0.30524zm1.4416 0.01022c-0.17736-0.17736-0.18099-0.49745-0.0074-0.66045 0.29075-0.27314 0.78401-0.06068 0.78401 0.33771 0 0.13236-0.04057 0.23227-0.13104 0.32274s-0.19039 0.13104-0.32275 0.13104-0.23227-0.04057-0.32275-0.13104zm1.4304 0.01093c-0.37904-0.40608 0.01845-0.95631 0.5449-0.75429 0.10313 0.03958 0.24263 0.29288 0.24263 0.44057 0 0.3557-0.54551 0.57301-0.78753 0.31372zm1.3989-0.02114c-0.28538-0.30793-0.0833-0.76631 0.33783-0.76631 0.27476 0 0.4495 0.17924 0.4495 0.46107 0 0.40798-0.50917 0.60538-0.78733 0.30524zm1.4416 0.01023c-0.18786-0.18786-0.18314-0.51425 0.0096-0.66588 0.31885-0.25081 0.7669-0.05034 0.7669 0.34314 0 0.26034-0.19344 0.45378-0.45378 0.45378-0.13236 0-0.23227-0.04057-0.32275-0.13104zm1.4304 0.01093c-0.37904-0.40608 0.01845-0.95631 0.5449-0.75429 0.10313 0.03958 0.24263 0.29288 0.24263 0.44057 0 0.3557-0.54551 0.57301-0.78753 0.31372zm-7.8518-1.4449c-0.16379-0.17435-0.15676-0.48125 0.01496-0.65297 0.2879-0.2879 0.77653-0.084812 0.77653 0.32275 0 0.40375-0.519 0.62028-0.79149 0.33023zm1.4055-0.046313c-0.25196-0.29943-0.04626-0.73769 0.34624-0.73769 0.34582 0 0.5596 0.32258 0.42658 0.64371-0.13309 0.32131-0.5399 0.37078-0.77281 0.093982zm1.439 0.038833c-0.28044-0.28044-0.07779-0.77653 0.31722-0.77653 0.41662 0 0.6307 0.47802 0.34857 0.77833-0.16838 0.17924-0.48561 0.17838-0.66579-0.00183zm1.4265 0.00743c-0.16379-0.17435-0.15676-0.48125 0.01496-0.65297 0.2879-0.2879 0.77653-0.084812 0.77653 0.32275 0 0.40375-0.519 0.62028-0.79149 0.33022zm1.4055-0.046313c-0.25196-0.29941-0.04626-0.73766 0.34624-0.73766 0.34582 0 0.5596 0.32258 0.42658 0.64371-0.13309 0.32131-0.5399 0.37078-0.77281 0.093982zm1.439 0.038833c-0.41018-0.41018 0.17795-1.0261 0.63586-0.66588 0.19098 0.15022 0.19999 0.50903 0.0171 0.68084-0.17435 0.16379-0.48125 0.15676-0.65297-0.01496zm-4.7079-1.2947c-0.25251-0.048294-0.41356-0.4157-0.2663-0.6075 0.26877-0.35006 0.83914-0.21728 0.83914 0.19535 0 0.17419-0.14722 0.39652-0.26257 0.39652-0.02696 0-0.08101 0.00864-0.12012 0.019197-0.0391 0.010558-0.12467 0.00895-0.19016-0.00357zm1.3457-0.038057c-0.31055-0.13282-0.34765-0.49862-0.07027-0.6929 0.20486-0.14349 0.50844-0.087588 0.67047 0.12345 0.24172 0.31484-0.20484 0.73853-0.60019 0.56944zm1.4694 0.038116c-0.54131-0.19788-0.32429-0.89922 0.24519-0.79238 0.42158 0.079089 0.47045 0.63089 0.06829 0.77108-0.18368 0.06403-0.19456 0.064769-0.31348 0.021298z" fill="#fff" stroke-width=".99999"/>
    <g display="none" fill="none">
        <rect transform="rotate(90)" x="7.8232" y="-20.923" width="13.1" height="13.1" display="inline" stroke="#000" stroke-width=".070382"/>
        <rect x="7.2241" y="8.6528" width="14.298" height="11.441" stroke="#5261ff" stroke-linecap="round" stroke-linejoin="round" stroke-width=".06959"/>
        <rect transform="rotate(90)" x="7.2241" y="-20.094" width="14.298" height="11.441" display="inline" stroke="#0f0" stroke-linecap="round" stroke-linejoin="round" stroke-width=".06959"/>
    </g>
</svg>
