<?xml version="1.0" encoding="UTF-8"?>
<svg version="1.1" viewBox="0 0 28.747 28.747" xmlns="http://www.w3.org/2000/svg">
    <defs>
        <filter id="filter6206-7" color-interpolation-filters="sRGB">
            <feGaussianBlur stdDeviation="0.658125"/>
        </filter>
    </defs>
    <g transform="translate(0 -1093.8)">
        <path transform="matrix(1.0781 0 0 1.0641 -.093733 2.7509)" d="m4.4177 1028.2v1.6051h-1.6052v18.192h1.6052v2.1402h18.192v-2.1402h2.1402v-18.192h-2.1402v-1.6051z" fill="#232323" filter="url(#filter6206-7)" opacity=".2"/>
        <rect x="2.9987" y="1096.8" width="22.749" height="22.749" rx="1.1973" ry="1.1974" fill="#232323"/>
        <g transform="translate(-22.32 1056.5)">
            <path d="m0 0h51.2v51.2h-51.2z" fill="none" stroke-width="1.0667"/>
            <g transform="matrix(.33601 0 0 .33601 1.5296 73.043)">
                <path d="m0 0h51.2v51.2h-51.2z" fill="none" stroke-width="1.0667"/>
            </g>
            <g transform="matrix(.37187 0 0 .37187 38.802 63.239)">
                <path d="m0 0h51.2v51.2h-51.2z" fill="none" stroke-width="1.0667"/>
                <g transform="matrix(2.6891 0 0 2.6891 -82.906 -48.45)">
                    <path d="m0 0h51.2v51.2h-51.2z" fill="none" stroke-width="1.0667"/>
                </g>
            </g>
        </g>
        <path d="m4.1958 1096.8c-0.66332 0-1.1979 0.5346-1.1979 1.1979v0.3334c0-0.6634 0.53459-1.1979 1.1979-1.1979h20.354c0.66332 0 1.1979 0.5345 1.1979 1.1979v-0.3334c0-0.6633-0.5346-1.1979-1.1979-1.1979z" fill="#fff" opacity=".2"/>
        <rect x="128" y="546.52" width="42.667" height="42.667" fill="none" stroke-width="1.0667"/>
        <rect x="128" y="631.85" width="42.667" height="42.667" fill="none" stroke-width="1.0667"/>
        <rect x="128" y="674.52" width="42.667" height="42.667" fill="none" stroke-width="1.0667"/>
        <rect x="128" y="589.19" width="42.667" height="42.667" fill="none" stroke-width="1.0667"/>
        <rect x="128" y="717.19" width="42.667" height="42.667" fill="none" stroke-width="1.0667"/>
        <rect x="213.33" y="546.52" width="42.667" height="42.667" fill="none" stroke-width="1.0667"/>
        <rect x="213.33" y="631.85" width="42.667" height="42.667" fill="none" stroke-width="1.0667"/>
        <rect x="213.33" y="674.52" width="42.667" height="42.667" fill="none" stroke-width="1.0667"/>
        <rect x="213.33" y="589.19" width="42.667" height="42.667" fill="none" stroke-width="1.0667"/>
        <rect x="213.33" y="717.19" width="42.667" height="42.667" fill="none" stroke-width="1.0667"/>
        <rect x="298.67" y="546.52" width="42.667" height="42.667" fill="none" stroke-width="1.0667"/>
        <rect x="298.67" y="631.85" width="42.667" height="42.667" fill="none" stroke-width="1.0667"/>
        <rect x="298.67" y="674.52" width="42.667" height="42.667" fill="none" stroke-width="1.0667"/>
        <rect x="298.67" y="589.19" width="42.667" height="42.667" fill="none" stroke-width="1.0667"/>
        <rect x="298.67" y="717.19" width="42.667" height="42.667" fill="none" stroke-width="1.0667"/>
        <rect x="170.67" y="546.52" width="42.667" height="42.667" fill="none" stroke-width="1.0667"/>
        <rect x="170.67" y="631.85" width="42.667" height="42.667" fill="none" stroke-width="1.0667"/>
        <rect x="170.67" y="674.52" width="42.667" height="42.667" fill="none" stroke-width="1.0667"/>
        <rect x="170.67" y="589.19" width="42.667" height="42.667" fill="none" stroke-width="1.0667"/>
        <rect x="170.67" y="717.19" width="42.667" height="42.667" fill="none" stroke-width="1.0667"/>
        <rect x="256" y="546.52" width="42.667" height="42.667" fill="none" stroke-width="1.0667"/>
        <rect x="256" y="631.85" width="42.667" height="42.667" fill="none" stroke-width="1.0667"/>
        <rect x="256" y="674.52" width="42.667" height="42.667" fill="none" stroke-width="1.0667"/>
        <rect x="256" y="589.19" width="42.667" height="42.667" fill="none" stroke-width="1.0667"/>
        <rect x="256" y="717.19" width="42.667" height="42.667" fill="none" stroke-width="1.0667"/>
        <rect x="128" y="759.85" width="42.667" height="42.667" fill="none" stroke-width="1.0667"/>
        <rect x="213.33" y="759.85" width="42.667" height="42.667" fill="none" stroke-width="1.0667"/>
        <rect x="298.67" y="759.85" width="42.667" height="42.667" fill="none" stroke-width="1.0667"/>
        <rect x="170.67" y="759.85" width="42.667" height="42.667" fill="none" stroke-width="1.0667"/>
        <rect x="256" y="759.85" width="42.667" height="42.667" fill="none" stroke-width="1.0667"/>
        <rect x="341.33" y="589.19" width="42.667" height="42.667" fill="none" stroke-width="1.0667"/>
        <rect x="341.33" y="631.85" width="42.667" height="42.667" fill="none" stroke-width="1.0667"/>
        <rect x="341.33" y="717.19" width="42.667" height="42.667" fill="none" stroke-width="1.0667"/>
        <rect x="341.33" y="546.52" width="42.667" height="42.667" fill="none" stroke-width="1.0667"/>
        <rect x="341.33" y="674.52" width="42.667" height="42.667" fill="none" stroke-width="1.0667"/>
        <rect x="341.33" y="759.85" width="42.667" height="42.667" fill="none" stroke-width="1.0667"/>
        <rect x="160" y="578.52" width="192" height="192" fill="none" stroke-width="1.0667"/>
        <g transform="matrix(.37344 0 0 .37344 4.7333 1097.4)">
            <path d="m0 0h51.2v51.2h-51.2z" fill="none" stroke-width="1.0667"/>
        </g>
        <g transform="matrix(.36471 0 0 .36471 5.1356 1097.4)">
            <path d="m0 0h51.2v51.2h-51.2z" fill="none" stroke-width="1.0667"/>
        </g>
        <g transform="matrix(.41585 0 0 .41585 84.325 1055.9)">
            <g transform="matrix(.062269 0 0 .062269 -28.238 185.29)">
                <g transform="matrix(38.618 0 0 38.618 14724 -13542)">
                    <g transform="matrix(.71436 0 0 .71436 -400.52 188.34)">
                        <path d="m1293.2-120.67c-181.75 0.2763-511.18 0.13525-699.05 0.13998-2.3216 10.413-3.593 21.251-3.593 32.384v114c207.65 0.73695 494.72 0.38136 706.23 0.3733v-114.37c0-11.18-1.2522-22.07-3.593-32.523zm-458.69 295.56c-78.385-4e-3 -158.85 0.17892-243.95 0.55995v138.63c286.34-0.39317 421.73-0.13827 706.23-0.32664v-137.75c-163.2-0.53005-311.22-1.1113-462.28-1.1199z" opacity="0" stroke-width="1.4932"/>
                    </g>
                </g>
            </g>
        </g>
        <path d="m24.549 1119.5c0.66325 0 1.1979-0.5346 1.1979-1.1979v-0.3333c0 0.6632-0.53461 1.1978-1.1979 1.1978h-20.354c-0.66325 0-1.1979-0.5346-1.1979-1.1978v0.3333c0 0.6633 0.53461 1.1979 1.1979 1.1979z" fill="#232323" opacity=".2"/>
    </g>
    <g transform="matrix(2 0 0 2 70.4 -28.504)" fill="#fff">
        <path d="m-29.459 25.457c1.9195-0.36403 2.2444-2.6991 0.44862-3.2242-0.92375-0.27012-2.0031 0.20842-2.3959 1.0623-0.34315 0.74579-0.029 1.6259 0.7093 1.9871 0.42251 0.20672 0.79362 0.25913 1.238 0.17485zm0.36506-1.3892c-0.06652-0.04441-0.17023-0.234-0.17023-0.31117 0-0.0939 0.23976-0.30145 0.34823-0.30145 0.25409 0 0.40128 0.396 0.21114 0.56807-0.09492 0.0859-0.29321 0.1086-0.38914 0.04455zm4.0998 0.44816c1.0914-0.53727 1.4128-1.7345 0.68077-2.5354-0.73159-0.80048-2.0918-0.76215-2.8724 0.08092-0.54208 0.58551-0.62654 1.2793-0.23157 1.9021 0.17739 0.27971 0.4118 0.46434 0.79354 0.62503 0.25301 0.1065 0.35148 0.11974 0.79254 0.10657 0.4515-0.01349 0.53814-0.03204 0.83711-0.17922zm-1.7874-0.95622c-0.1217-0.13448-0.0829-0.34865 0.08591-0.47414 0.12909-0.09596 0.15049-0.09818 0.27474-0.02844 0.31085 0.17448 0.23457 0.5983-0.10769 0.5983-0.10018 0-0.20079-0.03807-0.25296-0.09572zm-1.0109-1.7113c0.19575-0.05751 0.38327-0.13074 0.41671-0.16274 0.04592-0.04394 0.0492-0.16846 0.01341-0.50883-0.06671-0.63427-0.06259-0.8262 0.01773-0.8262 0.0368 0 0.66034 0.22626 1.3857 0.5028 1.0651 0.40609 1.3303 0.49036 1.3786 0.43814 0.11291-0.12194 0.34332-0.79081 0.29058-0.84354-0.02739-0.02739-0.37485-0.17393-0.77211-0.32563-0.39727-0.1517-0.93073-0.35568-1.1855-0.45329-0.25474-0.09761-0.46317-0.19495-0.46317-0.21632s0.4535-0.23931 1.0078-0.48432c0.55428-0.24501 1.0171-0.46961 1.0284-0.49911 0.03316-0.08622-0.2728-0.72249-0.34742-0.72249-0.03738 0-0.59351 0.24786-1.2359 0.5508s-1.1981 0.5508-1.2351 0.5508c-0.08324 0-0.09876-0.07621-0.16814-0.82591-0.03057-0.33032-0.07148-0.61554-0.09092-0.63383-0.04297-0.04043-0.95682 0.13197-1.0124 0.191-0.02792 0.02963 0.40351 4.24 0.44685 4.3607 0.01275 0.03554 0.20586 0.0017 0.52486-0.09204zm-2.1441-0.07927c0.352-0.11938 0.81777-0.59402 0.97432-0.99287 0.09485-0.24166 0.11848-0.3984 0.1208-0.80116 0.0026-0.46055-0.0097-0.52734-0.15426-0.83238-0.20667-0.4362-0.45882-0.7071-0.83146-0.89331-0.35908-0.17943-0.76973-0.20346-1.1681-0.06834-0.35726 0.12117-0.82026 0.59571-0.96864 0.99281-0.29979 0.80229-0.12382 1.6728 0.45138 2.2331 0.42162 0.41067 1.0245 0.54922 1.576 0.36218z" fill="#fff" stroke-width=".050073"/>
    </g>
</svg>
