<?xml version="1.0" encoding="UTF-8"?>
<svg version="1.1" viewBox="0 0 28.747 28.747" xmlns="http://www.w3.org/2000/svg">
    <defs>
        <filter id="filter6206-7" color-interpolation-filters="sRGB">
            <feGaussianBlur stdDeviation="0.658125"/>
        </filter>
    </defs>
    <g transform="translate(0 -1093.8)">
        <path transform="matrix(1.0781 0 0 1.0641 -.093733 2.7509)" d="m4.4177 1028.2v1.6051h-1.6052v18.192h1.6052v2.1402h18.192v-2.1402h2.1402v-18.192h-2.1402v-1.6051z" fill="#232323" filter="url(#filter6206-7)" opacity=".2"/>
        <rect x="2.9987" y="1096.8" width="22.749" height="22.749" rx="1.1973" ry="1.1974" fill="#232323"/>
        <g transform="translate(-22.32 1056.5)">
            <path d="m0 0h51.2v51.2h-51.2z" fill="none" stroke-width="1.0667"/>
            <g transform="matrix(.33601 0 0 .33601 1.5296 73.043)">
                <path d="m0 0h51.2v51.2h-51.2z" fill="none" stroke-width="1.0667"/>
            </g>
            <g transform="matrix(.37187 0 0 .37187 38.802 63.239)">
                <path d="m0 0h51.2v51.2h-51.2z" fill="none" stroke-width="1.0667"/>
                <g transform="matrix(2.6891 0 0 2.6891 -82.906 -48.45)">
                    <path d="m0 0h51.2v51.2h-51.2z" fill="none" stroke-width="1.0667"/>
                </g>
            </g>
        </g>
        <path d="m4.1958 1096.8c-0.66332 0-1.1979 0.5346-1.1979 1.1979v0.3334c0-0.6634 0.53459-1.1979 1.1979-1.1979h20.354c0.66332 0 1.1979 0.5345 1.1979 1.1979v-0.3334c0-0.6633-0.5346-1.1979-1.1979-1.1979z" fill="#fff" opacity=".2"/>
        <rect x="128" y="546.52" width="42.667" height="42.667" fill="none" stroke-width="1.0667"/>
        <rect x="128" y="631.85" width="42.667" height="42.667" fill="none" stroke-width="1.0667"/>
        <rect x="128" y="674.52" width="42.667" height="42.667" fill="none" stroke-width="1.0667"/>
        <rect x="128" y="589.19" width="42.667" height="42.667" fill="none" stroke-width="1.0667"/>
        <rect x="128" y="717.19" width="42.667" height="42.667" fill="none" stroke-width="1.0667"/>
        <rect x="213.33" y="546.52" width="42.667" height="42.667" fill="none" stroke-width="1.0667"/>
        <rect x="213.33" y="631.85" width="42.667" height="42.667" fill="none" stroke-width="1.0667"/>
        <rect x="213.33" y="674.52" width="42.667" height="42.667" fill="none" stroke-width="1.0667"/>
        <rect x="213.33" y="589.19" width="42.667" height="42.667" fill="none" stroke-width="1.0667"/>
        <rect x="213.33" y="717.19" width="42.667" height="42.667" fill="none" stroke-width="1.0667"/>
        <rect x="298.67" y="546.52" width="42.667" height="42.667" fill="none" stroke-width="1.0667"/>
        <rect x="298.67" y="631.85" width="42.667" height="42.667" fill="none" stroke-width="1.0667"/>
        <rect x="298.67" y="674.52" width="42.667" height="42.667" fill="none" stroke-width="1.0667"/>
        <rect x="298.67" y="589.19" width="42.667" height="42.667" fill="none" stroke-width="1.0667"/>
        <rect x="298.67" y="717.19" width="42.667" height="42.667" fill="none" stroke-width="1.0667"/>
        <rect x="170.67" y="546.52" width="42.667" height="42.667" fill="none" stroke-width="1.0667"/>
        <rect x="170.67" y="631.85" width="42.667" height="42.667" fill="none" stroke-width="1.0667"/>
        <rect x="170.67" y="674.52" width="42.667" height="42.667" fill="none" stroke-width="1.0667"/>
        <rect x="170.67" y="589.19" width="42.667" height="42.667" fill="none" stroke-width="1.0667"/>
        <rect x="170.67" y="717.19" width="42.667" height="42.667" fill="none" stroke-width="1.0667"/>
        <rect x="256" y="546.52" width="42.667" height="42.667" fill="none" stroke-width="1.0667"/>
        <rect x="256" y="631.85" width="42.667" height="42.667" fill="none" stroke-width="1.0667"/>
        <rect x="256" y="674.52" width="42.667" height="42.667" fill="none" stroke-width="1.0667"/>
        <rect x="256" y="589.19" width="42.667" height="42.667" fill="none" stroke-width="1.0667"/>
        <rect x="256" y="717.19" width="42.667" height="42.667" fill="none" stroke-width="1.0667"/>
        <rect x="128" y="759.85" width="42.667" height="42.667" fill="none" stroke-width="1.0667"/>
        <rect x="213.33" y="759.85" width="42.667" height="42.667" fill="none" stroke-width="1.0667"/>
        <rect x="298.67" y="759.85" width="42.667" height="42.667" fill="none" stroke-width="1.0667"/>
        <rect x="170.67" y="759.85" width="42.667" height="42.667" fill="none" stroke-width="1.0667"/>
        <rect x="256" y="759.85" width="42.667" height="42.667" fill="none" stroke-width="1.0667"/>
        <rect x="341.33" y="589.19" width="42.667" height="42.667" fill="none" stroke-width="1.0667"/>
        <rect x="341.33" y="631.85" width="42.667" height="42.667" fill="none" stroke-width="1.0667"/>
        <rect x="341.33" y="717.19" width="42.667" height="42.667" fill="none" stroke-width="1.0667"/>
        <rect x="341.33" y="546.52" width="42.667" height="42.667" fill="none" stroke-width="1.0667"/>
        <rect x="341.33" y="674.52" width="42.667" height="42.667" fill="none" stroke-width="1.0667"/>
        <rect x="341.33" y="759.85" width="42.667" height="42.667" fill="none" stroke-width="1.0667"/>
        <rect x="160" y="578.52" width="192" height="192" fill="none" stroke-width="1.0667"/>
        <g transform="matrix(.37344 0 0 .37344 4.7333 1097.4)">
            <path d="m0 0h51.2v51.2h-51.2z" fill="none" stroke-width="1.0667"/>
        </g>
        <g transform="matrix(.36471 0 0 .36471 5.1356 1097.4)">
            <path d="m0 0h51.2v51.2h-51.2z" fill="none" stroke-width="1.0667"/>
        </g>
        <g transform="matrix(.41585 0 0 .41585 84.325 1055.9)">
            <g transform="matrix(.062269 0 0 .062269 -28.238 185.29)">
                <g transform="matrix(38.618 0 0 38.618 14724 -13542)">
                    <g transform="matrix(.71436 0 0 .71436 -400.52 188.34)">
                        <path d="m1293.2-120.67c-181.75 0.2763-511.18 0.13525-699.05 0.13998-2.3216 10.413-3.593 21.251-3.593 32.384v114c207.65 0.73695 494.72 0.38136 706.23 0.3733v-114.37c0-11.18-1.2522-22.07-3.593-32.523zm-458.69 295.56c-78.385-4e-3 -158.85 0.17892-243.95 0.55995v138.63c286.34-0.39317 421.73-0.13827 706.23-0.32664v-137.75c-163.2-0.53005-311.22-1.1113-462.28-1.1199z" opacity="0" stroke-width="1.4932"/>
                    </g>
                </g>
            </g>
        </g>
        <path d="m24.549 1119.5c0.66325 0 1.1979-0.5346 1.1979-1.1979v-0.3333c0 0.6632-0.53461 1.1978-1.1979 1.1978h-20.354c-0.66325 0-1.1979-0.5346-1.1979-1.1978v0.3333c0 0.6633 0.53461 1.1979 1.1979 1.1979z" fill="#232323" opacity=".2"/>
    </g>
    <path d="m21.541 18.278c-1.1733-0.31725-1.3113-1.1632-1.2822-1.6746 0.18911-0.53726 0.30785-1.1079 0.34257-1.7011 0.08846 0.02883 0.18167 0.04888 0.28026 0.04888 0.49582 0 0.89761-0.40158 0.89761-0.8973 0-0.49531-0.40168-0.89751-0.89761-0.89751-0.12938 0-0.25174 0.02862-0.36283 0.07813-0.51009-3.4396-3.0664-5.2549-6.145-5.2549-0.98225 0-1.9107 0.18601-2.7371 0.54936-0.01013 0.00238-0.02253 0.00734-0.03772 0.015088-0.0094 0.00486-0.01839 0.00868-0.0278 0.013434-0.05239 0.023768-0.10396 0.04888-0.15553 0.074095-0.78724 0.3497-1.3294 0.22362-1.4461 0.17485-0.89699-0.37492-0.64846-0.94763-0.84646-0.80957-0.20957 0.14602-0.51071 1.2645 0.45573 2.0733-0.62242 0.74942-1.0742 1.6948-1.2932 2.8305-0.12597-0.067067-0.26724-0.10871-0.41987-0.10871-0.49531 0-0.89761 0.40158-0.89761 0.89699 0 0.49582 0.4023 0.89751 0.89761 0.89751 0.094453 0 0.18343-0.0186 0.2691-0.04578 0.00527 3.4422 2.7964 6.2302 6.239 6.2302 1.78 0 3.3851-0.74612 4.5215-1.9418 0.26713 0.13527 0.57292 0.2011 0.86795 0.2011 0.10737 0 0.21505-0.0082 0.32025-0.02439 0.85121-0.13104 1.4611-0.53075 1.4866-0.5477 0.03255-0.02181 0.0496-0.06076 0.0433-0.09962-0.0063-0.03896-0.03462-0.07027-0.07254-0.0804zm-3.7497-2.4464c-0.065 0.58201-0.91218 3.003-3.7359 2.6945-2.34-0.25587-2.6837-2.1776-2.6958-2.2091-0.1394-0.36024 0.06231-0.59772 0.31012-0.57602 3.2425 0.28398 5.4038-0.33007 5.6469-0.37936 0.36675-0.07358 0.50058 0.23872 0.47474 0.46999zm-6.5241-2.6186c0-0.27602 0.22363-0.49954 0.49996-0.49954 0.27592 0 0.49965 0.22363 0.49965 0.49954 0 0.27561-0.22373 0.49934-0.49965 0.49934-0.27644 0-0.49996-0.22373-0.49996-0.49934zm2.233 1.0189c0.0066-0.26713 0.27395-0.47826 0.59772-0.47113 0.32387 0.0082 0.58118 0.23169 0.57447 0.49954zm2.6706-0.99775c0-0.27623 0.22373-0.50017 0.49996-0.50017 0.27582 0 0.49955 0.22394 0.49955 0.50017s-0.22373 0.49934-0.49955 0.49934c-0.27623 0-0.49996-0.22311-0.49996-0.49934zm1.7167-1.1694c-1.0984-0.41832-1.7408-1.3055-2.0222-1.7872-2.1101 1.3946-4.9697 0.91022-5.0958 0.88759-0.16317-0.02852-0.27178-0.18394-0.24285-0.34691 0.02842-0.16286 0.18333-0.27147 0.34702-0.24326 0.02976 0.0052 2.9994 0.50502 4.9137-0.97832 0.07316-0.05694 0.16844-0.076678 0.25887-0.05322 0.0896 0.022838 0.16359 0.086289 0.20048 0.17144 0.0053 0.012504 0.57922 1.3036 1.8543 1.79 0.1547 0.0588 0.23231 0.23241 0.1732 0.38701-0.04547 0.11967-0.15935 0.19294-0.27984 0.19294-0.03565 0-0.07203-0.0061-0.10696-0.02005z" fill="#fff" stroke-width=".10334"/>
</svg>
