<?xml version="1.0" encoding="UTF-8"?>
<svg version="1.1" viewBox="0 0 28.747 28.747" xmlns="http://www.w3.org/2000/svg">
    <defs>
        <filter id="filter6206-7" color-interpolation-filters="sRGB">
            <feGaussianBlur stdDeviation="0.658125"/>
        </filter>
    </defs>
    <g transform="translate(0 -1093.8)">
        <path transform="matrix(1.0781 0 0 1.0641 -.093733 2.7509)" d="m4.4177 1028.2v1.6051h-1.6052v18.192h1.6052v2.1402h18.192v-2.1402h2.1402v-18.192h-2.1402v-1.6051z" fill="#232323" filter="url(#filter6206-7)" opacity=".2"/>
        <rect x="2.9987" y="1096.8" width="22.749" height="22.749" rx="1.1973" ry="1.1974" fill="#232323"/>
        <g transform="translate(-22.32 1056.5)">
            <path d="m0 0h51.2v51.2h-51.2z" fill="none" stroke-width="1.0667"/>
            <g transform="matrix(.33601 0 0 .33601 1.5296 73.043)">
                <path d="m0 0h51.2v51.2h-51.2z" fill="none" stroke-width="1.0667"/>
            </g>
            <g transform="matrix(.37187 0 0 .37187 38.802 63.239)">
                <path d="m0 0h51.2v51.2h-51.2z" fill="none" stroke-width="1.0667"/>
                <g transform="matrix(2.6891 0 0 2.6891 -82.906 -48.45)">
                    <path d="m0 0h51.2v51.2h-51.2z" fill="none" stroke-width="1.0667"/>
                </g>
            </g>
        </g>
        <path d="m4.1958 1096.8c-0.66332 0-1.1979 0.5346-1.1979 1.1979v0.3334c0-0.6634 0.53459-1.1979 1.1979-1.1979h20.354c0.66332 0 1.1979 0.5345 1.1979 1.1979v-0.3334c0-0.6633-0.5346-1.1979-1.1979-1.1979z" fill="#fff" opacity=".2"/>
        <rect x="128" y="546.52" width="42.667" height="42.667" fill="none" stroke-width="1.0667"/>
        <rect x="128" y="631.85" width="42.667" height="42.667" fill="none" stroke-width="1.0667"/>
        <rect x="128" y="674.52" width="42.667" height="42.667" fill="none" stroke-width="1.0667"/>
        <rect x="128" y="589.19" width="42.667" height="42.667" fill="none" stroke-width="1.0667"/>
        <rect x="128" y="717.19" width="42.667" height="42.667" fill="none" stroke-width="1.0667"/>
        <rect x="213.33" y="546.52" width="42.667" height="42.667" fill="none" stroke-width="1.0667"/>
        <rect x="213.33" y="631.85" width="42.667" height="42.667" fill="none" stroke-width="1.0667"/>
        <rect x="213.33" y="674.52" width="42.667" height="42.667" fill="none" stroke-width="1.0667"/>
        <rect x="213.33" y="589.19" width="42.667" height="42.667" fill="none" stroke-width="1.0667"/>
        <rect x="213.33" y="717.19" width="42.667" height="42.667" fill="none" stroke-width="1.0667"/>
        <rect x="298.67" y="546.52" width="42.667" height="42.667" fill="none" stroke-width="1.0667"/>
        <rect x="298.67" y="631.85" width="42.667" height="42.667" fill="none" stroke-width="1.0667"/>
        <rect x="298.67" y="674.52" width="42.667" height="42.667" fill="none" stroke-width="1.0667"/>
        <rect x="298.67" y="589.19" width="42.667" height="42.667" fill="none" stroke-width="1.0667"/>
        <rect x="298.67" y="717.19" width="42.667" height="42.667" fill="none" stroke-width="1.0667"/>
        <rect x="170.67" y="546.52" width="42.667" height="42.667" fill="none" stroke-width="1.0667"/>
        <rect x="170.67" y="631.85" width="42.667" height="42.667" fill="none" stroke-width="1.0667"/>
        <rect x="170.67" y="674.52" width="42.667" height="42.667" fill="none" stroke-width="1.0667"/>
        <rect x="170.67" y="589.19" width="42.667" height="42.667" fill="none" stroke-width="1.0667"/>
        <rect x="170.67" y="717.19" width="42.667" height="42.667" fill="none" stroke-width="1.0667"/>
        <rect x="256" y="546.52" width="42.667" height="42.667" fill="none" stroke-width="1.0667"/>
        <rect x="256" y="631.85" width="42.667" height="42.667" fill="none" stroke-width="1.0667"/>
        <rect x="256" y="674.52" width="42.667" height="42.667" fill="none" stroke-width="1.0667"/>
        <rect x="256" y="589.19" width="42.667" height="42.667" fill="none" stroke-width="1.0667"/>
        <rect x="256" y="717.19" width="42.667" height="42.667" fill="none" stroke-width="1.0667"/>
        <rect x="128" y="759.85" width="42.667" height="42.667" fill="none" stroke-width="1.0667"/>
        <rect x="213.33" y="759.85" width="42.667" height="42.667" fill="none" stroke-width="1.0667"/>
        <rect x="298.67" y="759.85" width="42.667" height="42.667" fill="none" stroke-width="1.0667"/>
        <rect x="170.67" y="759.85" width="42.667" height="42.667" fill="none" stroke-width="1.0667"/>
        <rect x="256" y="759.85" width="42.667" height="42.667" fill="none" stroke-width="1.0667"/>
        <rect x="341.33" y="589.19" width="42.667" height="42.667" fill="none" stroke-width="1.0667"/>
        <rect x="341.33" y="631.85" width="42.667" height="42.667" fill="none" stroke-width="1.0667"/>
        <rect x="341.33" y="717.19" width="42.667" height="42.667" fill="none" stroke-width="1.0667"/>
        <rect x="341.33" y="546.52" width="42.667" height="42.667" fill="none" stroke-width="1.0667"/>
        <rect x="341.33" y="674.52" width="42.667" height="42.667" fill="none" stroke-width="1.0667"/>
        <rect x="341.33" y="759.85" width="42.667" height="42.667" fill="none" stroke-width="1.0667"/>
        <rect x="160" y="578.52" width="192" height="192" fill="none" stroke-width="1.0667"/>
        <g transform="matrix(.37344 0 0 .37344 4.7333 1097.4)">
            <path d="m0 0h51.2v51.2h-51.2z" fill="none" stroke-width="1.0667"/>
        </g>
        <g transform="matrix(.36471 0 0 .36471 5.1356 1097.4)">
            <path d="m0 0h51.2v51.2h-51.2z" fill="none" stroke-width="1.0667"/>
        </g>
        <g transform="matrix(.41585 0 0 .41585 84.325 1055.9)">
            <g transform="matrix(.062269 0 0 .062269 -28.238 185.29)">
                <g transform="matrix(38.618 0 0 38.618 14724 -13542)">
                    <g transform="matrix(.71436 0 0 .71436 -400.52 188.34)">
                        <path d="m1293.2-120.67c-181.75 0.2763-511.18 0.13525-699.05 0.13998-2.3216 10.413-3.593 21.251-3.593 32.384v114c207.65 0.73695 494.72 0.38136 706.23 0.3733v-114.37c0-11.18-1.2522-22.07-3.593-32.523zm-458.69 295.56c-78.385-4e-3 -158.85 0.17892-243.95 0.55995v138.63c286.34-0.39317 421.73-0.13827 706.23-0.32664v-137.75c-163.2-0.53005-311.22-1.1113-462.28-1.1199z" opacity="0" stroke-width="1.4932"/>
                    </g>
                </g>
            </g>
        </g>
        <path d="m24.549 1119.5c0.66325 0 1.1979-0.5346 1.1979-1.1979v-0.3333c0 0.6632-0.53461 1.1978-1.1979 1.1978h-20.354c-0.66325 0-1.1979-0.5346-1.1979-1.1978v0.3333c0 0.6633 0.53461 1.1979 1.1979 1.1979z" fill="#232323" opacity=".2"/>
    </g>
    <path d="m10.726 6.8158c-0.05796-6.024e-4 -0.11592 1.141e-4 -0.17383 0.00211-0.94591 0.03272-1.8816 0.40965-2.603 1.131-0.72141 0.72126-1.0984 1.657-1.1311 2.603-0.032037 0.9267 0.26746 1.8631 0.8981 2.6166-0.032995 0.18328-0.058803 0.37058-0.076967 0.56162-0.020537 0.21543-0.03101 0.43003-0.03101 0.64309 0 1.8682 0.75731 3.5596 1.9816 4.7839 1.2244 1.2244 2.9158 1.9816 4.7839 1.9816 0.21315 0 0.42778-0.0105 0.64333-0.03099 0.19106-0.01825 0.37843-0.04395 0.56186-0.07694 0.75336 0.63057 1.6896 0.93001 2.6164 0.89798 0.94591-0.0327 1.8817-0.40961 2.6031-1.1309 0.72127-0.72129 1.0982-1.6571 1.1309-2.6031 0.03201-0.92671-0.26739-1.8631-0.89792-2.6165 0.03297-0.18335 0.05878-0.37067 0.07694-0.5617 0.02054-0.21552 0.03101-0.43015 0.03101-0.64329 0-1.8681-0.7573-3.5594-1.9816-4.7837v-2.05e-5c-1.2244-1.2243-2.9158-1.9816-4.7839-1.9816-0.21301 0-0.42756 0.010497-0.64298 0.030965-0.1911 0.018027-0.37851 0.04388-0.56194 0.076807-0.70642-0.59108-1.5736-0.89118-2.4428-0.89996zm3.4327 3.3287c0.88542 0 1.7775 0.18513 2.4283 0.50901 0.62558 0.31136 1.0373 0.75487 1.0373 1.2967l-1e-4 -2.1e-5c0 0.29048-0.09994 0.56582-0.28235 0.76999-0.18474 0.20676-0.45157 0.3388-0.78238 0.33881v6.39e-4c-0.43351 0-0.66923-0.21223-0.933-0.44969-0.28259-0.25439-0.60338-0.54317-1.3047-0.54317-0.36468 0-0.65795 0.04888-0.85067 0.15213-0.14939 0.08002-0.23337 0.19692-0.23337 0.35389 0 0.18141 0.09068 0.29486 0.24315 0.37725 0.18791 0.10152 0.46576 0.16555 0.78677 0.23696h0.0012l0.90374 0.20758c0.62963 0.14403 1.3219 0.34999 1.8638 0.71834 0.56222 0.38211 0.95842 0.93121 0.95842 1.75 0 0.86532-0.38443 1.5171-0.96898 1.9691-0.67338 0.52066-1.6127 0.76997-2.5264 0.76997-1.0065 0-1.9318-0.22691-2.6064-0.59201-0.70209-0.38003-1.1407-0.91387-1.1407-1.51 0-0.29272 0.09057-0.57352 0.28508-0.77474 0.17196-0.17785 0.41952-0.29026 0.74994-0.29026 0.47109 0 0.73938 0.27278 1.0435 0.58208 0.34305 0.34884 0.73918 0.75163 1.5799 0.75163 0.34685 0 0.62758-0.07272 0.82105-0.19336 0.17789-0.11092 0.27766-0.26267 0.27766-0.43114 0-0.3957-0.38185-0.49042-1.0095-0.64608l-0.11348-0.02804 1.01e-4 -2.9e-4 -1.2732-0.31082h-6.41e-4c-0.65244-0.16121-1.2342-0.37811-1.6587-0.74782-0.43634-0.38002-0.70175-0.91127-0.70175-1.6901 0-1.8811 1.8352-2.5765 3.4062-2.5765z" clip-rule="evenodd" fill="#fff" fill-rule="evenodd" image-rendering="optimizeQuality" shape-rendering="geometricPrecision" stroke-width=".010051"/>
</svg>
