<?xml version="1.0" encoding="UTF-8"?>
<svg version="1.1" viewBox="0 0 28.747 28.747" xmlns="http://www.w3.org/2000/svg">
    <defs>
        <filter id="filter6206-7" color-interpolation-filters="sRGB">
            <feGaussianBlur stdDeviation="0.658125"/>
        </filter>
    </defs>
    <g transform="translate(0 -1093.8)">
        <path transform="matrix(1.0781 0 0 1.0641 -.093733 2.7509)" d="m4.4177 1028.2v1.6051h-1.6052v18.192h1.6052v2.1402h18.192v-2.1402h2.1402v-18.192h-2.1402v-1.6051z" fill="#3e2723" filter="url(#filter6206-7)" opacity=".2"/>
        <rect x="2.9987" y="1096.8" width="22.749" height="22.749" rx="1.1973" ry="1.1974" fill="#232323"/>
        <g transform="translate(-22.32 1056.5)">
            <path d="m0 0h51.2v51.2h-51.2z" fill="none" stroke-width="1.0667"/>
            <g transform="matrix(.33601 0 0 .33601 1.5296 73.043)">
                <path d="m0 0h51.2v51.2h-51.2z" fill="none" stroke-width="1.0667"/>
            </g>
            <g transform="matrix(.37187 0 0 .37187 38.802 63.239)">
                <path d="m0 0h51.2v51.2h-51.2z" fill="none" stroke-width="1.0667"/>
                <g transform="matrix(2.6891 0 0 2.6891 -82.906 -48.45)">
                    <path d="m0 0h51.2v51.2h-51.2z" fill="none" stroke-width="1.0667"/>
                </g>
            </g>
        </g>
        <path d="m4.1958 1096.8c-0.66332 0-1.1979 0.5346-1.1979 1.1979v0.3334c0-0.6634 0.53459-1.1979 1.1979-1.1979h20.354c0.66332 0 1.1979 0.5345 1.1979 1.1979v-0.3334c0-0.6633-0.5346-1.1979-1.1979-1.1979z" fill="#fff" opacity=".2"/>
        <rect x="128" y="546.52" width="42.667" height="42.667" fill="none" stroke-width="1.0667"/>
        <rect x="128" y="631.85" width="42.667" height="42.667" fill="none" stroke-width="1.0667"/>
        <rect x="128" y="674.52" width="42.667" height="42.667" fill="none" stroke-width="1.0667"/>
        <rect x="128" y="589.19" width="42.667" height="42.667" fill="none" stroke-width="1.0667"/>
        <rect x="128" y="717.19" width="42.667" height="42.667" fill="none" stroke-width="1.0667"/>
        <rect x="213.33" y="546.52" width="42.667" height="42.667" fill="none" stroke-width="1.0667"/>
        <rect x="213.33" y="631.85" width="42.667" height="42.667" fill="none" stroke-width="1.0667"/>
        <rect x="213.33" y="674.52" width="42.667" height="42.667" fill="none" stroke-width="1.0667"/>
        <rect x="213.33" y="589.19" width="42.667" height="42.667" fill="none" stroke-width="1.0667"/>
        <rect x="213.33" y="717.19" width="42.667" height="42.667" fill="none" stroke-width="1.0667"/>
        <rect x="298.67" y="546.52" width="42.667" height="42.667" fill="none" stroke-width="1.0667"/>
        <rect x="298.67" y="631.85" width="42.667" height="42.667" fill="none" stroke-width="1.0667"/>
        <rect x="298.67" y="674.52" width="42.667" height="42.667" fill="none" stroke-width="1.0667"/>
        <rect x="298.67" y="589.19" width="42.667" height="42.667" fill="none" stroke-width="1.0667"/>
        <rect x="298.67" y="717.19" width="42.667" height="42.667" fill="none" stroke-width="1.0667"/>
        <rect x="170.67" y="546.52" width="42.667" height="42.667" fill="none" stroke-width="1.0667"/>
        <rect x="170.67" y="631.85" width="42.667" height="42.667" fill="none" stroke-width="1.0667"/>
        <rect x="170.67" y="674.52" width="42.667" height="42.667" fill="none" stroke-width="1.0667"/>
        <rect x="170.67" y="589.19" width="42.667" height="42.667" fill="none" stroke-width="1.0667"/>
        <rect x="170.67" y="717.19" width="42.667" height="42.667" fill="none" stroke-width="1.0667"/>
        <rect x="256" y="546.52" width="42.667" height="42.667" fill="none" stroke-width="1.0667"/>
        <rect x="256" y="631.85" width="42.667" height="42.667" fill="none" stroke-width="1.0667"/>
        <rect x="256" y="674.52" width="42.667" height="42.667" fill="none" stroke-width="1.0667"/>
        <rect x="256" y="589.19" width="42.667" height="42.667" fill="none" stroke-width="1.0667"/>
        <rect x="256" y="717.19" width="42.667" height="42.667" fill="none" stroke-width="1.0667"/>
        <rect x="128" y="759.85" width="42.667" height="42.667" fill="none" stroke-width="1.0667"/>
        <rect x="213.33" y="759.85" width="42.667" height="42.667" fill="none" stroke-width="1.0667"/>
        <rect x="298.67" y="759.85" width="42.667" height="42.667" fill="none" stroke-width="1.0667"/>
        <rect x="170.67" y="759.85" width="42.667" height="42.667" fill="none" stroke-width="1.0667"/>
        <rect x="256" y="759.85" width="42.667" height="42.667" fill="none" stroke-width="1.0667"/>
        <rect x="341.33" y="589.19" width="42.667" height="42.667" fill="none" stroke-width="1.0667"/>
        <rect x="341.33" y="631.85" width="42.667" height="42.667" fill="none" stroke-width="1.0667"/>
        <rect x="341.33" y="717.19" width="42.667" height="42.667" fill="none" stroke-width="1.0667"/>
        <rect x="341.33" y="546.52" width="42.667" height="42.667" fill="none" stroke-width="1.0667"/>
        <rect x="341.33" y="674.52" width="42.667" height="42.667" fill="none" stroke-width="1.0667"/>
        <rect x="341.33" y="759.85" width="42.667" height="42.667" fill="none" stroke-width="1.0667"/>
        <rect x="160" y="578.52" width="192" height="192" fill="none" stroke-width="1.0667"/>
        <g transform="matrix(.37344 0 0 .37344 4.7333 1097.4)">
            <path d="m0 0h51.2v51.2h-51.2z" fill="none" stroke-width="1.0667"/>
        </g>
        <g transform="matrix(.36471 0 0 .36471 5.1356 1097.4)">
            <path d="m0 0h51.2v51.2h-51.2z" fill="none" stroke-width="1.0667"/>
        </g>
        <g transform="matrix(.41585 0 0 .41585 84.325 1055.9)">
            <g transform="matrix(.062269 0 0 .062269 -28.238 185.29)">
                <g transform="matrix(38.618 0 0 38.618 14724 -13542)">
                    <g transform="matrix(.71436 0 0 .71436 -400.52 188.34)">
                        <path d="m1293.2-120.67c-181.75 0.2763-511.18 0.13525-699.05 0.13998-2.3216 10.413-3.593 21.251-3.593 32.384v114c207.65 0.73695 494.72 0.38136 706.23 0.3733v-114.37c0-11.18-1.2522-22.07-3.593-32.523zm-458.69 295.56c-78.385-4e-3 -158.85 0.17892-243.95 0.55995v138.63c286.34-0.39317 421.73-0.13827 706.23-0.32664v-137.75c-163.2-0.53005-311.22-1.1113-462.28-1.1199z" opacity="0" stroke-width="1.4932"/>
                    </g>
                </g>
            </g>
        </g>
        <path d="m24.549 1119.5c0.66325 0 1.1979-0.5346 1.1979-1.1979v-0.3333c0 0.6632-0.53461 1.1978-1.1979 1.1978h-20.354c-0.66325 0-1.1979-0.5346-1.1979-1.1978v0.3333c0 0.6633 0.53461 1.1979 1.1979 1.1979z" fill="#3e2723" opacity=".2"/>
    </g>
    <path d="m15.534 8.3841c-0.14864-0.00502-0.30133 0.050523-0.41236 0.16157-0.15922 0.15922-0.16646 0.2774-0.16646 2.7268 0 2.3329 0.01373 2.5859 0.1541 2.8477 0.33214 0.61931 0.99248 0.85111 1.9159 0.67276 0.37108-0.07167 0.50648-0.18778 0.50875-0.43658 0.0025-0.27824-0.23641-0.40131-0.77938-0.40131-0.84443 0-0.7928 0.17736-0.8192-2.8118-0.01953-2.2066-0.04213-2.6157-0.1479-2.6826-0.07652-0.048332-0.16421-0.073435-0.2534-0.076576zm-2.1244 0.00792c-0.39471-1.056e-4 -0.6426 0.35115-0.41984 0.69112 0.19372 0.29564 0.67974 0.30139 0.8127 0.0095 0.13119-0.28793 0.0264-0.61736-0.21568-0.67812-0.06142-0.01531-0.12079-0.022701-0.17717-0.022701zm5.2978 0.070373c-0.54012 0-0.76237 0.032019-0.83562 0.12029-0.15188 0.18303-0.07013 0.48735 0.16255 0.60465 0.25504 0.12858 0.88522 0.13824 1.2277 0.018741 0.27846-0.097059 0.3915-0.351 0.26314-0.59083-0.07-0.13079-0.18863-0.15294-0.81774-0.15294zm-5.2684 1.286c-0.11857-0.00581-0.24124 0.04783-0.35482 0.16139-0.20811 0.20811-0.20951 0.21893-0.20951 1.6927 0 1.6943 0.04654 1.8531 0.54272 1.8531 0.19523 0 0.31047-0.0501 0.36978-0.16091 0.12961-0.24216 0.1139-3.1839-0.01795-3.3516-0.09732-0.12383-0.21172-0.18897-0.33028-0.19473zm5.2525 0.011086c-0.34851-0.00475-0.69709 0.10968-1.0034 0.33564-0.49824 0.36759-0.65146 0.72738-0.65146 1.5297 0 0.82216 0.17205 1.2041 0.71892 1.595 0.27767 0.1985 0.40134 0.22949 0.92713 0.23242 0.45196 0.0026 0.69174-0.03996 0.94029-0.16677 0.44536-0.22722 0.58789-0.64397 0.28997-0.84797-0.14639-0.10023-0.49417-0.06705-0.66706 0.06372-0.25903 0.19594-0.83315 0.15635-1.0824-0.07462-0.37624-0.34868-0.29433-0.38571 0.85284-0.38571 0.71754 0 1.0978-0.03252 1.1651-0.0998 0.05604-0.05601 0.0998-0.32453 0.0998-0.61164 0-0.43013-0.03753-0.56366-0.23569-0.83643-0.30904-0.4254-0.39446-0.48865-0.88291-0.65293-0.15442-0.051948-0.31279-0.078529-0.4712-0.080614zm-0.048094 0.86666c0.31761 0 0.67901 0.241 0.74606 0.49737 0.04178 0.1598 0.0061 0.16838-0.69713 0.16838-0.56783 0-0.74118-0.0264-0.74118-0.11263 0-0.23464 0.39862-0.55312 0.69226-0.55312zm-5.2107 3.2469c-0.16263-0.0014-0.558 0.35148-0.558 0.49802 0 0.11873 0.38198 0.49932 0.50111 0.49932 0.05087 0 0.16395-0.03835 0.25145-0.08515 0.25377-0.13581 0.35134-0.38362 0.23667-0.6014-0.11952-0.22696-0.23355-0.30909-0.43122-0.31078zm5.2024 0.03479c-0.26771 0.0074-0.48029 0.26858-0.39725 0.59945 0.08048 0.3206 0.47115 0.40819 0.77434 0.17358 0.18227-0.14104 0.12406-0.54255-0.09996-0.68933-0.0926-0.06066-0.18789-0.08621-0.27713-0.0837zm-5.2195 1.3787c-0.06866 0-0.19974 0.07489-0.29127 0.16643-0.15487 0.15487-0.16643 0.27745-0.16643 1.7619 0 1.3678 0.0198 1.6172 0.13784 1.7476 0.18726 0.20692 0.49092 0.1915 0.64805-0.03281 0.10609-0.15146 0.12955-0.46798 0.12955-1.7476 0-1.4517-0.01188-1.5745-0.16646-1.7291-0.09154-0.09154-0.2226-0.16643-0.29127-0.16643zm-4.4503 0.01082c-0.085814-0.0069-0.17957 0.03181-0.28981 0.10403-0.24543 0.16083-0.27542 0.45774-0.095423 0.94452 0.063826 0.17258 0.21484 0.63202 0.33548 1.0211 0.34387 1.1088 0.45636 1.3175 0.83204 1.5427 0.4445 0.26647 0.7644 0.25776 1.2231-0.03315 0.41394-0.26251 0.42953-0.29588 1.0266-2.2005 0.32278-1.0296 0.3202-1.1147-0.03851-1.3067-0.38283-0.20489-0.56472 0.04699-0.96224 1.3319-0.36569 1.182-0.4901 1.4564-0.66007 1.4564-0.16263 0-0.29884-0.29184-0.58287-1.2483-0.345-1.1618-0.53092-1.5915-0.78832-1.6119zm7.561 0.02164c-0.48959 0.02708-0.97166 0.40086-1.1396 0.93509-0.05572 0.17733-0.23179 0.7319-0.39123 1.2324-0.15943 0.50048-0.28997 1.0322-0.28997 1.1817 0 0.38787 0.36962 0.57515 0.6708 0.33987 0.07138-0.05578 0.18887-0.25121 0.26103-0.43431l0.13116-0.33288 0.7823-0.02349 0.78247-0.02349 0.17538 0.41513c0.22672 0.5366 0.53442 0.65096 0.82928 0.30818l0.19164-0.22302-0.15117-0.43463c-0.08318-0.23904-0.21788-0.65932-0.29924-0.93396-0.40957-1.3825-0.67004-1.8038-1.2166-1.9675-0.11002-0.03297-0.22331-0.04508-0.33629-0.03886zm0.04976 0.92453c0.16009 0 0.3441 0.36647 0.49103 0.97784l0.05509 0.22886h-1.0926l0.05673-0.31208c0.0912-0.50203 0.30607-0.89462 0.48973-0.89462zm1.4422 3.2872c-0.71705 0-0.98255 0.11432-0.98255 0.42309 0 0.313 0.22587 0.40912 0.9611 0.40912 0.65431 0 0.70827-0.01346 0.83578-0.20806 0.12628-0.19272 0.12628-0.22337 0-0.4161-0.12694-0.19375-0.18285-0.20806-0.81432-0.20806z" fill="#fff" style="paint-order:normal"/>
</svg>
