<?xml version="1.0" encoding="UTF-8"?>
<svg version="1.1" viewBox="0 0 26.95 26.95" xmlns="http://www.w3.org/2000/svg">
    <defs>
        <filter id="filter6206-7" color-interpolation-filters="sRGB">
            <feGaussianBlur stdDeviation="0.658125"/>
        </filter>
    </defs>
    <g transform="translate(0 -1025.4)">
        <path transform="matrix(1.0107 0 0 .99762 -.087875 2.579)" d="m4.4177 1028.2v1.6051h-1.6052v18.192h1.6052v2.1402h18.192v-2.1402h2.1402v-18.192h-2.1402v-1.6051h-18.192z" fill="#3e2723" filter="url(#filter6206-7)" opacity=".2"/>
        <rect x="2.8113" y="1028.2" width="21.327" height="21.327" rx="1.1225" ry="1.1226" fill="#424242"/>
        <g transform="translate(-20.925 990.46)">
            <path d="m0 0h48v48h-48z" fill="none"/>
            <g transform="matrix(.33601 0 0 .33601 1.434 68.477)">
                <path d="m0 0h48v48h-48z" fill="none"/>
            </g>
            <g transform="matrix(.37187 0 0 .37187 36.377 59.287)">
                <path d="m0 0h48v48h-48z" fill="none"/>
                <g transform="matrix(2.6891 0 0 2.6891 -77.724 -45.422)">
                    <path d="m0 0h48v48h-48z" fill="none"/>
                </g>
            </g>
        </g>
        <path transform="translate(0 1025.4)" d="m3.9336 2.8105c-0.62186 0-1.123 0.50115-1.123 1.123v0.3125c0-0.6219 0.50118-1.123 1.123-1.123h19.082c0.62186 0 1.123 0.50115 1.123 1.123v-0.3125c0-0.6219-0.50118-1.123-1.123-1.123h-19.082z" fill="#fff" opacity=".2"/>
        <rect x="120" y="512.36" width="40" height="40" fill="none"/>
        <rect x="120" y="592.36" width="40" height="40" fill="none"/>
        <rect x="120" y="632.36" width="40" height="40" fill="none"/>
        <rect x="120" y="552.36" width="40" height="40" fill="none"/>
        <rect x="120" y="672.36" width="40" height="40" fill="none"/>
        <rect x="200" y="512.36" width="40" height="40" fill="none"/>
        <rect x="200" y="592.36" width="40" height="40" fill="none"/>
        <rect x="200" y="632.36" width="40" height="40" fill="none"/>
        <rect x="200" y="552.36" width="40" height="40" fill="none"/>
        <rect x="200" y="672.36" width="40" height="40" fill="none"/>
        <rect x="280" y="512.36" width="40" height="40" fill="none"/>
        <rect x="280" y="592.36" width="40" height="40" fill="none"/>
        <rect x="280" y="632.36" width="40" height="40" fill="none"/>
        <rect x="280" y="552.36" width="40" height="40" fill="none"/>
        <rect x="280" y="672.36" width="40" height="40" fill="none"/>
        <rect x="160" y="512.36" width="40" height="40" fill="none"/>
        <rect x="160" y="592.36" width="40" height="40" fill="none"/>
        <rect x="160" y="632.36" width="40" height="40" fill="none"/>
        <rect x="160" y="552.36" width="40" height="40" fill="none"/>
        <rect x="160" y="672.36" width="40" height="40" fill="none"/>
        <rect x="240" y="512.36" width="40" height="40" fill="none"/>
        <rect x="240" y="592.36" width="40" height="40" fill="none"/>
        <rect x="240" y="632.36" width="40" height="40" fill="none"/>
        <rect x="240" y="552.36" width="40" height="40" fill="none"/>
        <rect x="240" y="672.36" width="40" height="40" fill="none"/>
        <rect x="120" y="712.36" width="40" height="40" fill="none"/>
        <rect x="200" y="712.36" width="40" height="40" fill="none"/>
        <rect x="280" y="712.36" width="40" height="40" fill="none"/>
        <rect x="160" y="712.36" width="40" height="40" fill="none"/>
        <rect x="240" y="712.36" width="40" height="40" fill="none"/>
        <rect x="320" y="552.36" width="40" height="40" fill="none"/>
        <rect x="320" y="592.36" width="40" height="40" fill="none"/>
        <rect x="320" y="672.36" width="40" height="40" fill="none"/>
        <rect x="320" y="512.36" width="40" height="40" fill="none"/>
        <rect x="320" y="632.36" width="40" height="40" fill="none"/>
        <rect x="320" y="712.36" width="40" height="40" fill="none"/>
        <rect x="150" y="542.36" width="180" height="180" fill="none"/>
        <g transform="matrix(.37344 0 0 .37344 4.4375 1028.8)">
            <path d="m0 0h48v48h-48z" fill="none"/>
        </g>
        <g transform="matrix(.36471 0 0 .36471 4.8146 1028.8)">
            <path d="m0 0h48v48h-48z" fill="none"/>
        </g>
        <g transform="matrix(.41585 0 0 .41585 79.055 989.88)">
            <g transform="matrix(.062269 0 0 .062269 -26.473 173.71)">
                <g transform="matrix(38.618 0 0 38.618 13804 -12696)">
                    <g transform="matrix(.71436 0 0 .71436 -375.49 176.57)">
                        <path transform="matrix(1.3999 0 0 1.3999 525.63 -247.17)" d="m490.56 95.75c-121.72 0.18504-342.34 0.090577-468.16 0.09375-1.5548 6.9739-2.4062 14.232-2.4062 21.688v76.344c139.06 0.49354 331.32 0.2554 472.97 0.25v-76.594c0-7.4875-0.8386-14.78-2.4062-21.781zm-307.19 197.94c-52.495-3e-3 -106.38 0.11982-163.38 0.375v92.844c191.76-0.26331 282.43-0.0926 472.97-0.21875v-92.25c-109.29-0.35498-208.43-0.74426-309.59-0.75z" opacity="0"/>
                    </g>
                </g>
            </g>
        </g>
        <path d="m23.015 1049.6c0.6218 0 1.123-0.5012 1.123-1.123v-0.3125c0 0.6218-0.5012 1.123-1.123 1.123h-19.082c-0.6218 0-1.123-0.5012-1.123-1.123v0.3125c0 0.6218 0.5012 1.123 1.123 1.123h19.082z" fill="#3e2723" opacity=".2"/>
    </g>
    <flowRoot fill="#000000" font-family="Roboto" font-size="3.75px" letter-spacing="0px" stroke-width="1px" word-spacing="0px" style="line-height:125%" xml:space="preserve"><flowRegion><rect x="10.664" y="11.235" width="4.49" height="5.0512"/></flowRegion><flowPara>your</flowPara></flowRoot>
    <g transform="matrix(.036115 0 0 .036115 6.7647 6.7647)" fill="#fff">
        <g fill="#fff">
            <path d="m69.556 236.04c-20.234 13.75-32.604 36.797-32.604 61.379 0 40.907 33.277 74.19 74.187 74.19 16.13 0 31.789-5.298 44.634-15.003 20.228 5.967 41.288 6.533 62.033 1.473 12.446 8.757 27.42 13.53 42.667 13.53 40.907 0 74.185-33.283 74.185-74.19 0-21.422-9.061-41.369-25.021-55.472v-0.524c0-40.688-20.466-78.206-54.071-100.32 8.445-12.83 13.006-27.876 13.006-43.346 0-3.337-0.231-6.723-0.688-10.132 16.97-6.774 28.527-23.246 28.527-42.134 0-25.079-20.406-45.486-45.487-45.486-16.045 0-30.677 8.549-38.788 22-14.613-4.372-30.595-4.372-45.203 0-8.114-13.451-22.74-22-38.791-22-25.079 0-45.48 20.401-45.48 45.485 0 18.889 11.554 35.36 28.527 42.134-0.462 3.41-0.694 6.795-0.694 10.132 0 15.47 4.563 30.516 13.012 43.346-32.115 21.139-52.237 56.349-53.951 94.942zm72.163-84.023c2.518-1.352 4.284-3.772 4.786-6.589 0.512-2.813-0.298-5.699-2.186-7.84-9.74-11.055-15.11-25.203-15.11-39.829 0-4.697 0.618-9.578 1.839-14.51 0.624-2.518 0.17-5.188-1.245-7.359-1.416-2.168-3.678-3.659-6.235-4.101-12.857-2.226-22.192-13.29-22.192-26.296 0-14.763 12.011-26.78 26.774-26.78 11.292 0 21.406 7.252 25.16 18.045 0.853 2.451 2.68 4.433 5.057 5.48 2.369 1.053 5.076 1.068 7.457 0.045 15.046-6.442 32.388-6.442 47.435 0 2.381 1.023 5.084 1.008 7.453-0.045 2.374-1.048 4.201-3.029 5.06-5.48 3.757-10.793 13.865-18.045 25.154-18.045 14.772 0 26.786 12.017 26.786 26.78 0 13.006-9.334 24.064-22.194 26.296-2.558 0.441-4.811 1.933-6.235 4.101-1.419 2.171-1.87 4.841-1.242 7.359 1.218 4.932 1.839 9.813 1.839 14.51 0 14.632-5.365 28.774-15.113 39.829-1.888 2.141-2.697 5.033-2.187 7.84 0.506 2.811 2.271 5.237 4.792 6.583 33.04 17.722 53.573 51.977 53.573 89.413 0 0.78-0.062 1.541-0.116 2.309l-0.115 2.021c-0.135 3.026 1.218 5.937 3.616 7.794 13.75 10.626 21.623 26.616 21.623 43.872 0 30.592-24.893 55.484-55.479 55.484-12.793 0-24.819-4.256-34.793-12.306-1.687-1.358-3.764-2.077-5.876-2.077-0.859 0-1.711 0.122-2.558 0.354-20.24 5.748-40.81 5.133-60.438-1.559-3.157-1.084-6.659-0.39-9.186 1.814-10.139 8.878-23.102 13.762-36.496 13.762-30.589 0-55.481-24.893-55.481-55.479 0-19.723 10.656-38.124 27.809-48.037 2.886-1.668 4.67-4.75 4.676-8.086 0.058-37.369 20.584-71.585 53.588-89.273z"/>
            <path d="m112.32 265.24c9.347 1.698 17.467 6.923 22.871 14.729 5.407 7.807 7.453 17.25 5.751 26.592-0.922 5.084 2.451 9.955 7.532 10.875 0.566 0.098 1.126 0.152 1.684 0.152 4.433 0 8.367-3.173 9.188-7.685 2.588-14.261-0.53-28.668-8.777-40.578-8.251-11.917-20.651-19.899-34.906-22.493-5.063-0.901-9.953 2.447-10.875 7.531-0.922 5.086 2.451 9.957 7.532 10.877z"/>
            <path d="m226.96 317.59c0.548 0 1.108-0.049 1.681-0.146 5.078-0.926 8.452-5.797 7.532-10.875-3.501-19.285 9.341-37.814 28.619-41.321 5.084-0.926 8.458-5.797 7.532-10.875-0.926-5.079-5.797-8.439-10.875-7.532-29.429 5.34-49.03 33.643-43.684 63.071 0.816 4.511 4.762 7.678 9.195 7.678z"/>
            <path d="m184.77 116.9h13.512c12.068 0 12.068-18.706 0-18.706h-13.512c-12.059 0-12.059 18.706 0 18.706z"/>
        </g>
    </g>
    <g display="none" fill="none">
        <rect transform="rotate(90)" x="7.3342" y="-19.616" width="12.282" height="12.282" display="inline" stroke="#000" stroke-width=".065984"/>
        <rect x="6.7726" y="8.112" width="13.405" height="10.726" stroke="#5261ff" stroke-linecap="round" stroke-linejoin="round" stroke-width=".06524"/>
        <rect transform="rotate(90)" x="6.7726" y="-18.838" width="13.405" height="10.726" display="inline" stroke="#0f0" stroke-linecap="round" stroke-linejoin="round" stroke-width=".06524"/>
    </g>
</svg>
