<?xml version="1.0" encoding="UTF-8"?>
<svg version="1.1" viewBox="0 0 26.95 26.95" xmlns="http://www.w3.org/2000/svg">
    <defs>
        <filter id="filter6206-7" color-interpolation-filters="sRGB">
            <feGaussianBlur stdDeviation="0.658125"/>
        </filter>
    </defs>
    <g transform="translate(0 -1025.4)">
        <path transform="matrix(1.0107 0 0 .99762 -.087875 2.579)" d="m4.4177 1028.2v1.6051h-1.6052v18.192h1.6052v2.1402h18.192v-2.1402h2.1402v-18.192h-2.1402v-1.6051h-18.192z" fill="#212121" filter="url(#filter6206-7)" opacity=".2"/>
        <rect x="2.8113" y="1028.2" width="21.327" height="21.327" rx="1.1225" ry="1.1226" fill="#232323"/>
        <g transform="translate(-20.925 990.46)">
            <path d="m0 0h48v48h-48z" fill="none"/>
            <g transform="matrix(.33601 0 0 .33601 1.434 68.477)">
                <path d="m0 0h48v48h-48z" fill="none"/>
            </g>
            <g transform="matrix(.37187 0 0 .37187 36.377 59.287)">
                <path d="m0 0h48v48h-48z" fill="none"/>
                <g transform="matrix(2.6891 0 0 2.6891 -77.724 -45.422)">
                    <path d="m0 0h48v48h-48z" fill="none"/>
                </g>
            </g>
        </g>
        <path transform="translate(0 1025.4)" d="m3.9336 2.8105c-0.62186 0-1.123 0.50115-1.123 1.123v0.3125c0-0.6219 0.50118-1.123 1.123-1.123h19.082c0.62186 0 1.123 0.50115 1.123 1.123v-0.3125c0-0.6219-0.50118-1.123-1.123-1.123h-19.082z" fill="#fff" opacity=".2"/>
        <rect x="120" y="512.36" width="40" height="40" fill="none"/>
        <rect x="120" y="592.36" width="40" height="40" fill="none"/>
        <rect x="120" y="632.36" width="40" height="40" fill="none"/>
        <rect x="120" y="552.36" width="40" height="40" fill="none"/>
        <rect x="120" y="672.36" width="40" height="40" fill="none"/>
        <rect x="200" y="512.36" width="40" height="40" fill="none"/>
        <rect x="200" y="592.36" width="40" height="40" fill="none"/>
        <rect x="200" y="632.36" width="40" height="40" fill="none"/>
        <rect x="200" y="552.36" width="40" height="40" fill="none"/>
        <rect x="200" y="672.36" width="40" height="40" fill="none"/>
        <rect x="280" y="512.36" width="40" height="40" fill="none"/>
        <rect x="280" y="592.36" width="40" height="40" fill="none"/>
        <rect x="280" y="632.36" width="40" height="40" fill="none"/>
        <rect x="280" y="552.36" width="40" height="40" fill="none"/>
        <rect x="280" y="672.36" width="40" height="40" fill="none"/>
        <rect x="160" y="512.36" width="40" height="40" fill="none"/>
        <rect x="160" y="592.36" width="40" height="40" fill="none"/>
        <rect x="160" y="632.36" width="40" height="40" fill="none"/>
        <rect x="160" y="552.36" width="40" height="40" fill="none"/>
        <rect x="160" y="672.36" width="40" height="40" fill="none"/>
        <rect x="240" y="512.36" width="40" height="40" fill="none"/>
        <rect x="240" y="592.36" width="40" height="40" fill="none"/>
        <rect x="240" y="632.36" width="40" height="40" fill="none"/>
        <rect x="240" y="552.36" width="40" height="40" fill="none"/>
        <rect x="240" y="672.36" width="40" height="40" fill="none"/>
        <rect x="120" y="712.36" width="40" height="40" fill="none"/>
        <rect x="200" y="712.36" width="40" height="40" fill="none"/>
        <rect x="280" y="712.36" width="40" height="40" fill="none"/>
        <rect x="160" y="712.36" width="40" height="40" fill="none"/>
        <rect x="240" y="712.36" width="40" height="40" fill="none"/>
        <rect x="320" y="552.36" width="40" height="40" fill="none"/>
        <rect x="320" y="592.36" width="40" height="40" fill="none"/>
        <rect x="320" y="672.36" width="40" height="40" fill="none"/>
        <rect x="320" y="512.36" width="40" height="40" fill="none"/>
        <rect x="320" y="632.36" width="40" height="40" fill="none"/>
        <rect x="320" y="712.36" width="40" height="40" fill="none"/>
        <rect x="150" y="542.36" width="180" height="180" fill="none"/>
        <g transform="matrix(.37344 0 0 .37344 4.4375 1028.8)">
            <path d="m0 0h48v48h-48z" fill="none"/>
        </g>
        <g transform="matrix(.36471 0 0 .36471 4.8146 1028.8)">
            <path d="m0 0h48v48h-48z" fill="none"/>
        </g>
        <g transform="matrix(.41585 0 0 .41585 79.055 989.88)">
            <g transform="matrix(.062269 0 0 .062269 -26.473 173.71)">
                <g transform="matrix(38.618 0 0 38.618 13804 -12696)">
                    <g transform="matrix(.71436 0 0 .71436 -375.49 176.57)">
                        <path transform="matrix(1.3999 0 0 1.3999 525.63 -247.17)" d="m490.56 95.75c-121.72 0.18504-342.34 0.090577-468.16 0.09375-1.5548 6.9739-2.4062 14.232-2.4062 21.688v76.344c139.06 0.49354 331.32 0.2554 472.97 0.25v-76.594c0-7.4875-0.8386-14.78-2.4062-21.781zm-307.19 197.94c-52.495-3e-3 -106.38 0.11982-163.38 0.375v92.844c191.76-0.26331 282.43-0.0926 472.97-0.21875v-92.25c-109.29-0.35498-208.43-0.74426-309.59-0.75z" opacity="0"/>
                    </g>
                </g>
            </g>
        </g>
        <path d="m23.015 1049.6c0.6218 0 1.123-0.5012 1.123-1.123v-0.3125c0 0.6218-0.5012 1.123-1.123 1.123h-19.082c-0.6218 0-1.123-0.5012-1.123-1.123v0.3125c0 0.6218 0.5012 1.123 1.123 1.123h19.082z" fill="#212121" opacity=".2"/>
    </g>
    <g transform="translate(-1.853e-8 .56125)">
        <path transform="translate(1.853e-8 -.56125)" d="m9.4453 6.7598c-0.74532 0-1.3418 0.59845-1.3418 1.3438v10.744c0 0.7385 0.59647 1.3418 1.3418 1.3418h8.0586c0.70315 0 1.3437-0.6387 1.3438-1.3418v-8.0586l-4.0293-4.0293h-5.373zm4.7012 1.0078 3.6934 3.6934h-3.6934v-3.6934zm1.3477 7.4961 0.29102 0.009766 0.30469 0.033203 0.31641 0.058593 0.32812 0.085938 0.33789 0.11328 0.3457 0.14844-0.13477-0.017579-0.16602-0.011718h-0.19141l-0.21094 0.013672-0.48047 0.054687-0.52148 0.10547-0.54102 0.16016-0.26953 0.10156-0.26367 0.11523-0.25195 0.13281-0.24024 0.14844-0.22266 0.16406-0.20117 0.18359-0.18945-0.14648-0.20117-0.13086-0.20508-0.11524-0.2168-0.097656-0.22656-0.080078-0.23633-0.06836-0.24609-0.048828-0.25391-0.033203-0.26562-0.019531-0.27539-0.001953-0.28516 0.015625-0.29492 0.027343-0.625 0.10938-0.66992 0.16992 0.066406-0.080078 0.074219-0.078125 0.17773-0.14258 0.20898-0.12891 0.23828-0.11133 0.25977-0.095703 0.2793-0.078125 0.29102-0.0625 0.30469-0.044922 0.30664-0.029297 0.30469-0.011719 0.30273 0.00586 0.29297 0.02539 0.2793 0.041016 0.25781 0.058594 0.23828 0.076171 0.20703 0.097657 0.082031-0.085938 0.10938-0.08789 0.13672-0.085938 0.1582-0.080078 0.18164-0.078125 0.20313-0.066406 0.22266-0.056641 0.24414-0.042969 0.25781-0.027343 0.27734-0.009766z" fill="#fff"/>
    </g>
    <g display="none" fill="none">
        <rect transform="rotate(90)" x="7.3342" y="-19.616" width="12.282" height="12.282" display="inline" stroke="#000" stroke-width=".065984"/>
        <rect x="6.7726" y="8.112" width="13.405" height="10.726" stroke="#5261ff" stroke-linecap="round" stroke-linejoin="round" stroke-width=".06524"/>
        <rect transform="rotate(90)" x="6.7726" y="-18.838" width="13.405" height="10.726" display="inline" stroke="#0f0" stroke-linecap="round" stroke-linejoin="round" stroke-width=".06524"/>
    </g>
</svg>
