<?xml version="1.0" encoding="UTF-8"?>
<svg version="1.1" viewBox="0 0 26.95 26.95" xmlns="http://www.w3.org/2000/svg">
    <defs>
        <filter id="filter6206-7" color-interpolation-filters="sRGB">
            <feGaussianBlur stdDeviation="0.658125"/>
        </filter>
    </defs>
    <g transform="translate(0 -1025.4)">
        <path transform="matrix(1.0107 0 0 .99762 -.087875 2.579)" d="m4.4177 1028.2v1.6051h-1.6052v18.192h1.6052v2.1402h18.192v-2.1402h2.1402v-18.192h-2.1402v-1.6051h-18.192z" fill="#1a237e" filter="url(#filter6206-7)" opacity=".2"/>
        <rect x="2.8113" y="1028.2" width="21.327" height="21.327" rx="1.1225" ry="1.1226" fill="#232323"/>
        <g transform="translate(-20.925 990.46)">
            <path d="m0 0h48v48h-48z" fill="none"/>
            <g transform="matrix(.33601 0 0 .33601 1.434 68.477)">
                <path d="m0 0h48v48h-48z" fill="none"/>
            </g>
            <g transform="matrix(.37187 0 0 .37187 36.377 59.287)">
                <path d="m0 0h48v48h-48z" fill="none"/>
                <g transform="matrix(2.6891 0 0 2.6891 -77.724 -45.422)">
                    <path d="m0 0h48v48h-48z" fill="none"/>
                </g>
            </g>
        </g>
        <path transform="translate(0 1025.4)" d="m3.9336 2.8105c-0.62186 0-1.123 0.50115-1.123 1.123v0.3125c0-0.6219 0.50118-1.123 1.123-1.123h19.082c0.62186 0 1.123 0.50115 1.123 1.123v-0.3125c0-0.6219-0.50118-1.123-1.123-1.123h-19.082z" fill="#fff" opacity=".2"/>
        <rect x="120" y="512.36" width="40" height="40" fill="none"/>
        <rect x="120" y="592.36" width="40" height="40" fill="none"/>
        <rect x="120" y="632.36" width="40" height="40" fill="none"/>
        <rect x="120" y="552.36" width="40" height="40" fill="none"/>
        <rect x="120" y="672.36" width="40" height="40" fill="none"/>
        <rect x="200" y="512.36" width="40" height="40" fill="none"/>
        <rect x="200" y="592.36" width="40" height="40" fill="none"/>
        <rect x="200" y="632.36" width="40" height="40" fill="none"/>
        <rect x="200" y="552.36" width="40" height="40" fill="none"/>
        <rect x="200" y="672.36" width="40" height="40" fill="none"/>
        <rect x="280" y="512.36" width="40" height="40" fill="none"/>
        <rect x="280" y="592.36" width="40" height="40" fill="none"/>
        <rect x="280" y="632.36" width="40" height="40" fill="none"/>
        <rect x="280" y="552.36" width="40" height="40" fill="none"/>
        <rect x="280" y="672.36" width="40" height="40" fill="none"/>
        <rect x="160" y="512.36" width="40" height="40" fill="none"/>
        <rect x="160" y="592.36" width="40" height="40" fill="none"/>
        <rect x="160" y="632.36" width="40" height="40" fill="none"/>
        <rect x="160" y="552.36" width="40" height="40" fill="none"/>
        <rect x="160" y="672.36" width="40" height="40" fill="none"/>
        <rect x="240" y="512.36" width="40" height="40" fill="none"/>
        <rect x="240" y="592.36" width="40" height="40" fill="none"/>
        <rect x="240" y="632.36" width="40" height="40" fill="none"/>
        <rect x="240" y="552.36" width="40" height="40" fill="none"/>
        <rect x="240" y="672.36" width="40" height="40" fill="none"/>
        <rect x="120" y="712.36" width="40" height="40" fill="none"/>
        <rect x="200" y="712.36" width="40" height="40" fill="none"/>
        <rect x="280" y="712.36" width="40" height="40" fill="none"/>
        <rect x="160" y="712.36" width="40" height="40" fill="none"/>
        <rect x="240" y="712.36" width="40" height="40" fill="none"/>
        <rect x="320" y="552.36" width="40" height="40" fill="none"/>
        <rect x="320" y="592.36" width="40" height="40" fill="none"/>
        <rect x="320" y="672.36" width="40" height="40" fill="none"/>
        <rect x="320" y="512.36" width="40" height="40" fill="none"/>
        <rect x="320" y="632.36" width="40" height="40" fill="none"/>
        <rect x="320" y="712.36" width="40" height="40" fill="none"/>
        <rect x="150" y="542.36" width="180" height="180" fill="none"/>
        <g transform="matrix(.37344 0 0 .37344 4.4375 1028.8)">
            <path d="m0 0h48v48h-48z" fill="none"/>
        </g>
        <g transform="matrix(.36471 0 0 .36471 4.8146 1028.8)">
            <path d="m0 0h48v48h-48z" fill="none"/>
        </g>
        <g transform="matrix(.41585 0 0 .41585 79.055 989.88)">
            <g transform="matrix(.062269 0 0 .062269 -26.473 173.71)">
                <g transform="matrix(38.618 0 0 38.618 13804 -12696)">
                    <g transform="matrix(.71436 0 0 .71436 -375.49 176.57)">
                        <path transform="matrix(1.3999 0 0 1.3999 525.63 -247.17)" d="m490.56 95.75c-121.72 0.18504-342.34 0.090577-468.16 0.09375-1.5548 6.9739-2.4062 14.232-2.4062 21.688v76.344c139.06 0.49354 331.32 0.2554 472.97 0.25v-76.594c0-7.4875-0.8386-14.78-2.4062-21.781zm-307.19 197.94c-52.495-3e-3 -106.38 0.11982-163.38 0.375v92.844c191.76-0.26331 282.43-0.0926 472.97-0.21875v-92.25c-109.29-0.35498-208.43-0.74426-309.59-0.75z" opacity="0"/>
                    </g>
                </g>
            </g>
        </g>
        <path d="m23.015 1049.6c0.6218 0 1.123-0.5012 1.123-1.123v-0.3125c0 0.6218-0.5012 1.123-1.123 1.123h-19.082c-0.6218 0-1.123-0.5012-1.123-1.123v0.3125c0 0.6218 0.5012 1.123 1.123 1.123h19.082z" fill="#1a237e" opacity=".2"/>
    </g>
    <g transform="matrix(1.1115 0 0 1.1115 -829.65 -108.15)">
        <g transform="matrix(.037568 0 0 .037568 758.52 72.357)" fill="#33691e">
            <path transform="translate(-255.74 730.36)" d="m255.81 96.75c-13.173 0.01796-22.259 0.97533-34.125 3.5938-43.416 9.5805-80.742 36.696-103.34 75.094-12.494 21.225-19.704 44.744-21.562 70.406-2.5113 34.667 7.4477 71.075 27.438 100.31 12.514 18.304 29.509 34.521 47.875 45.719 2.1191 1.292 3.9443 2.3538 4.0625 2.3438 0.11816-6e-3 1.4185-2.1146 2.875-4.6875 1.4565-2.573 4.311-7.5504 6.3438-11.062 5.9846-10.34 21.451-37.118 25.375-43.938 1.4025-2.4374 2.5312-4.6035 2.5312-4.8125s-1.7063-1.5134-3.8125-2.9062c-5.179-3.4249-7.6089-5.4062-12.469-10.156-4.9119-4.8011-7.8212-8.2476-11.375-13.531-19.038-28.305-18.947-65.684 0.21875-94.25 4.2248-6.297 11.16-13.856 17.281-18.844 8.3144-6.775 20.372-12.799 31.281-15.656 8.0982-2.1209 12.149-2.625 21.594-2.625s13.496 0.50414 21.594 2.625c10.933 2.8632 22.764 8.7845 31.281 15.656 3.0656 2.4734 9.9963 9.323 12.562 12.438 7.6658 9.3038 13.603 21.113 16.531 32.812 2.0794 8.3075 2.4375 11.337 2.4375 20.875s-0.35806 12.568-2.4375 20.875c-2.9285 11.7-8.8655 23.509-16.531 32.812-2.7206 3.3019-9.6216 10.088-12.812 12.625-1.2412 0.987-3.9875 2.9508-6.0938 4.3438-2.1062 1.3928-3.8125 2.703-3.8125 2.9062 0 0.3436 16.539 29.215 27.125 47.344 4.2417 7.2638 9.598 16.61 9.7188 16.969 0.19547 0.5813 1.5725-0.19585 8.5312-4.8438 10.422-6.9614 15.509-11.154 24.5-20.094 13.647-13.57 23.818-27.945 31.625-44.656 10.551-22.586 15.219-43.464 15.219-68.281 0-16.93-2.0494-30.995-6.7812-46.5-5.8038-19.017-15.525-37.489-27.781-52.844-21.61-27.074-51.516-46.545-84.562-55.031-14.56-3.7392-25.227-5.052-40.5-5.0312zm0.375 106.72c-10.346 0-20.89 3.2129-29.688 9.0625-4.4134 2.9345-11.159 9.7116-14.094 14.125-12.023 18.082-12.023 40.918 0 59 2.9387 4.4197 9.6984 11.182 14.125 14.125 1.8953 1.2602 5.3336 3.1856 7.6562 4.2812 2.6558 1.2528 4.1477 2.1566 4.0312 2.4688-0.10187 0.273-1.1595 6.2572-2.375 13.281-1.2155 7.024-3.0364 17.449-4.0312 23.156-0.99487 5.707-2.3128 13.316-2.9375 16.938-2.1671 12.565-4.387 25.411-6.5312 37.719-1.1855 6.8046-2.0452 12.502-1.9062 12.656 0.13899 0.1541 3.1134 0.97975 6.625 1.8438 6.4738 1.5929 12.874 2.6334 19.75 3.2188 8.3186 0.7081 17.12 0.40485 26.938-0.96875 5.0719-0.7097 14.569-2.8192 15.094-3.3438 0.20988-0.2099-0.37615-4.9324-1.4375-11.469-0.99281-6.1142-2.4832-15.233-3.2812-20.281-0.79809-5.0485-1.7693-11.257-2.1875-13.781-0.41824-2.5242-1.3135-7.9858-1.9688-12.156-0.65525-4.1706-2.2016-13.88-3.4375-21.562s-2.6302-16.558-3.125-19.719l-0.90625-5.75 1.2188-0.4375c2.7484-0.9826 9.2189-4.3298 12.125-6.2812 3.9361-2.6432 10.92-9.6416 13.531-13.531 4.0036-5.963 6.9242-12.969 8.5625-20.531 0.68954-3.183 0.68954-15.567 0-18.75-1.6383-7.5628-4.5589-14.6-8.5625-20.562-2.5871-3.8532-9.5843-10.85-13.438-13.438-8.8387-5.9344-19.619-9.3125-29.75-9.3125z" fill="#fff"/>
        </g>
    </g>
    <g display="none" fill="none">
        <rect transform="rotate(90)" x="7.3342" y="-19.616" width="12.282" height="12.282" display="inline" stroke="#000" stroke-width=".065984"/>
        <rect x="6.7726" y="8.112" width="13.405" height="10.726" stroke="#5261ff" stroke-linecap="round" stroke-linejoin="round" stroke-width=".06524"/>
        <rect transform="rotate(90)" x="6.7726" y="-18.838" width="13.405" height="10.726" display="inline" stroke="#0f0" stroke-linecap="round" stroke-linejoin="round" stroke-width=".06524"/>
    </g>
</svg>
