<?xml version="1.0" encoding="UTF-8"?>
<svg version="1.1" viewBox="0 0 28.747 28.747" xmlns="http://www.w3.org/2000/svg">
    <defs>
        <filter id="filter6206-7" color-interpolation-filters="sRGB">
            <feGaussianBlur stdDeviation="0.658125"/>
        </filter>
    </defs>
    <g transform="translate(0 -1093.8)">
        <path transform="matrix(1.0781 0 0 1.0641 -.093733 2.7509)" d="m4.4177 1028.2v1.6051h-1.6052v18.192h1.6052v2.1402h18.192v-2.1402h2.1402v-18.192h-2.1402v-1.6051z" fill="#232323" filter="url(#filter6206-7)" opacity=".2"/>
        <rect x="2.9987" y="1096.8" width="22.749" height="22.749" rx="1.1973" ry="1.1974" fill="#232323"/>
        <g transform="translate(-22.32 1056.5)">
            <path d="m0 0h51.2v51.2h-51.2z" fill="none" stroke-width="1.0667"/>
            <g transform="matrix(.33601 0 0 .33601 1.5296 73.043)">
                <path d="m0 0h51.2v51.2h-51.2z" fill="none" stroke-width="1.0667"/>
            </g>
            <g transform="matrix(.37187 0 0 .37187 38.802 63.239)">
                <path d="m0 0h51.2v51.2h-51.2z" fill="none" stroke-width="1.0667"/>
                <g transform="matrix(2.6891 0 0 2.6891 -82.906 -48.45)">
                    <path d="m0 0h51.2v51.2h-51.2z" fill="none" stroke-width="1.0667"/>
                </g>
            </g>
        </g>
        <path d="m4.1958 1096.8c-0.66332 0-1.1979 0.5346-1.1979 1.1979v0.3334c0-0.6634 0.53459-1.1979 1.1979-1.1979h20.354c0.66332 0 1.1979 0.5345 1.1979 1.1979v-0.3334c0-0.6633-0.5346-1.1979-1.1979-1.1979z" fill="#fff" opacity=".2"/>
        <rect x="128" y="546.52" width="42.667" height="42.667" fill="none" stroke-width="1.0667"/>
        <rect x="128" y="631.85" width="42.667" height="42.667" fill="none" stroke-width="1.0667"/>
        <rect x="128" y="674.52" width="42.667" height="42.667" fill="none" stroke-width="1.0667"/>
        <rect x="128" y="589.19" width="42.667" height="42.667" fill="none" stroke-width="1.0667"/>
        <rect x="128" y="717.19" width="42.667" height="42.667" fill="none" stroke-width="1.0667"/>
        <rect x="213.33" y="546.52" width="42.667" height="42.667" fill="none" stroke-width="1.0667"/>
        <rect x="213.33" y="631.85" width="42.667" height="42.667" fill="none" stroke-width="1.0667"/>
        <rect x="213.33" y="674.52" width="42.667" height="42.667" fill="none" stroke-width="1.0667"/>
        <rect x="213.33" y="589.19" width="42.667" height="42.667" fill="none" stroke-width="1.0667"/>
        <rect x="213.33" y="717.19" width="42.667" height="42.667" fill="none" stroke-width="1.0667"/>
        <rect x="298.67" y="546.52" width="42.667" height="42.667" fill="none" stroke-width="1.0667"/>
        <rect x="298.67" y="631.85" width="42.667" height="42.667" fill="none" stroke-width="1.0667"/>
        <rect x="298.67" y="674.52" width="42.667" height="42.667" fill="none" stroke-width="1.0667"/>
        <rect x="298.67" y="589.19" width="42.667" height="42.667" fill="none" stroke-width="1.0667"/>
        <rect x="298.67" y="717.19" width="42.667" height="42.667" fill="none" stroke-width="1.0667"/>
        <rect x="170.67" y="546.52" width="42.667" height="42.667" fill="none" stroke-width="1.0667"/>
        <rect x="170.67" y="631.85" width="42.667" height="42.667" fill="none" stroke-width="1.0667"/>
        <rect x="170.67" y="674.52" width="42.667" height="42.667" fill="none" stroke-width="1.0667"/>
        <rect x="170.67" y="589.19" width="42.667" height="42.667" fill="none" stroke-width="1.0667"/>
        <rect x="170.67" y="717.19" width="42.667" height="42.667" fill="none" stroke-width="1.0667"/>
        <rect x="256" y="546.52" width="42.667" height="42.667" fill="none" stroke-width="1.0667"/>
        <rect x="256" y="631.85" width="42.667" height="42.667" fill="none" stroke-width="1.0667"/>
        <rect x="256" y="674.52" width="42.667" height="42.667" fill="none" stroke-width="1.0667"/>
        <rect x="256" y="589.19" width="42.667" height="42.667" fill="none" stroke-width="1.0667"/>
        <rect x="256" y="717.19" width="42.667" height="42.667" fill="none" stroke-width="1.0667"/>
        <rect x="128" y="759.85" width="42.667" height="42.667" fill="none" stroke-width="1.0667"/>
        <rect x="213.33" y="759.85" width="42.667" height="42.667" fill="none" stroke-width="1.0667"/>
        <rect x="298.67" y="759.85" width="42.667" height="42.667" fill="none" stroke-width="1.0667"/>
        <rect x="170.67" y="759.85" width="42.667" height="42.667" fill="none" stroke-width="1.0667"/>
        <rect x="256" y="759.85" width="42.667" height="42.667" fill="none" stroke-width="1.0667"/>
        <rect x="341.33" y="589.19" width="42.667" height="42.667" fill="none" stroke-width="1.0667"/>
        <rect x="341.33" y="631.85" width="42.667" height="42.667" fill="none" stroke-width="1.0667"/>
        <rect x="341.33" y="717.19" width="42.667" height="42.667" fill="none" stroke-width="1.0667"/>
        <rect x="341.33" y="546.52" width="42.667" height="42.667" fill="none" stroke-width="1.0667"/>
        <rect x="341.33" y="674.52" width="42.667" height="42.667" fill="none" stroke-width="1.0667"/>
        <rect x="341.33" y="759.85" width="42.667" height="42.667" fill="none" stroke-width="1.0667"/>
        <rect x="160" y="578.52" width="192" height="192" fill="none" stroke-width="1.0667"/>
        <g transform="matrix(.37344 0 0 .37344 4.7333 1097.4)">
            <path d="m0 0h51.2v51.2h-51.2z" fill="none" stroke-width="1.0667"/>
        </g>
        <g transform="matrix(.36471 0 0 .36471 5.1356 1097.4)">
            <path d="m0 0h51.2v51.2h-51.2z" fill="none" stroke-width="1.0667"/>
        </g>
        <g transform="matrix(.41585 0 0 .41585 84.325 1055.9)">
            <g transform="matrix(.062269 0 0 .062269 -28.238 185.29)">
                <g transform="matrix(38.618 0 0 38.618 14724 -13542)">
                    <g transform="matrix(.71436 0 0 .71436 -400.52 188.34)">
                        <path d="m1293.2-120.67c-181.75 0.2763-511.18 0.13525-699.05 0.13998-2.3216 10.413-3.593 21.251-3.593 32.384v114c207.65 0.73695 494.72 0.38136 706.23 0.3733v-114.37c0-11.18-1.2522-22.07-3.593-32.523zm-458.69 295.56c-78.385-4e-3 -158.85 0.17892-243.95 0.55995v138.63c286.34-0.39317 421.73-0.13827 706.23-0.32664v-137.75c-163.2-0.53005-311.22-1.1113-462.28-1.1199z" opacity="0" stroke-width="1.4932"/>
                    </g>
                </g>
            </g>
        </g>
        <path d="m24.549 1119.5c0.66325 0 1.1979-0.5346 1.1979-1.1979v-0.3333c0 0.6632-0.53461 1.1978-1.1979 1.1978h-20.354c-0.66325 0-1.1979-0.5346-1.1979-1.1978v0.3333c0 0.6633 0.53461 1.1979 1.1979 1.1979z" fill="#232323" opacity=".2"/>
    </g>
    <path d="m14.348 7.698c-0.6226-6.13e-5 -0.78123 0.035107-1.2969 0.28635-1.0312 0.50242-1.6121 1.4085-1.6121 2.5146 0 0.7502 0.26095 1.3707 0.85452 2.0322 0.61154 0.68147 0.72291 1.2104 0.36879 1.7523-0.30257 0.463-1.5941 0.77632-2.2787 0.5527-0.81718-0.26692-1.1067-1.208-0.5892-1.9151 0.3166-0.43256 0.61367-0.5299 1.025-0.33576 0.33285 0.15709 0.4405 0.42235 0.36309 0.89444-0.02721 0.16588-0.01569 0.30157 0.02557 0.30157 0.15261 0 0.52776-0.54021 0.58505-0.84248 0.07165-0.37795-0.24046-1.0832-0.47934-1.0832-0.08217 0-0.19946-0.07927-0.26066-0.17626-0.08277-0.13117-0.16783-0.16233-0.332-0.12155-0.12823 0.03185-0.27774 0.0079-0.35687-0.05711-0.11568-0.09502-0.21642-0.03384-0.66883 0.40602-0.77342 0.75198-1.0074 1.1812-0.99823 1.8308 0.012777 0.90349 0.46284 1.5137 1.4299 1.9385 0.25551 0.11223 0.61428 0.22766 0.79717 0.25661 0.50504 0.07993 1.444-0.25416 2.0205-0.71887 0.44249-0.3567 0.47657-0.36983 0.47657-0.18378 0 0.32939-0.22719 0.55384-0.95021 0.93907-0.97702 0.52055-1.4077 0.8647-1.6239 1.2972-0.37167 0.74353-0.04793 1.355 1.0292 1.9434 0.74934 0.40939 0.96311 0.65276 0.87576 0.99719-0.072 0.28392-0.43436 0.57681-0.71357 0.57681-0.22166 0-0.28451 0.1304-0.09863 0.20464 0.32598 0.13018 0.81304 0.04539 1.2133-0.2113 0.36833-0.23621 0.43352-0.32525 0.5303-0.72452 0.0938-0.38695 0.0898-0.50414-0.02712-0.7811-0.07565-0.1792-0.19798-0.32584-0.27171-0.32584s-0.17664-0.07878-0.2287-0.17506c-0.0746-0.13795-0.18514-0.17506-0.52166-0.17506-0.34347 0-0.47266-0.04519-0.66019-0.23079-0.12824-0.12692-0.23319-0.31856-0.23319-0.42585 0-0.28974 0.31264-0.6299 0.68679-0.74725 0.56079-0.17588 1.388-0.69655 1.6054-1.0105 0.11386-0.16446 0.23316-0.299 0.26515-0.299s0.20783 0.19844 0.39072 0.4409c0.19361 0.25667 0.58016 0.59817 0.92534 0.81752 1.1781 0.74864 1.547 1.4376 1.039 1.9404-0.17223 0.17046-0.30775 0.21489-0.65639 0.21489-0.53449 0-0.93276-0.28471-1.0659-0.76212-0.12256-0.43929 0.0027-0.63835 0.40144-0.63835 0.25027 0 0.30701-0.03067 0.28346-0.15318-0.02326-0.12094-0.13681-0.15873-0.53945-0.1795-0.46862-0.02418-0.53215-0.0046-0.78283 0.24361-0.26156 0.25886-0.2715 0.2951-0.2382 0.87838 0.03259 0.57097 0.05635 0.63033 0.38572 0.96505 0.30507 0.31003 0.38765 0.34985 0.63152 0.30499 0.15597-0.02869 0.30551-0.01153 0.33683 0.03864 0.03099 0.04961 0.22314 0.08936 0.427 0.08821 1.2219-0.0068 2.0994-0.71232 1.9802-1.5919-0.0669-0.49357-0.41599-0.96189-1.1454-1.5366-0.35041-0.27607-0.76402-0.62922-0.91912-0.78486-0.26531-0.26624-0.4643-0.76213-0.35082-0.87444 0.0282-0.0279 0.24921 0.13253 0.49108 0.35644 0.24188 0.22392 0.5132 0.40705 0.60284 0.40705s0.20381 0.0405 0.25375 0.08993c0.18267 0.18079 0.98908 0.20313 1.5833 0.04394 0.75652-0.20267 1.2001-0.53216 1.489-1.1059 0.38564-0.76591 0.30459-1.2276-0.41405-2.3604-0.50584-0.79737-0.67981-1.1972-0.67902-1.5603 9.71e-4 -0.45173 0.1966-0.90983 0.5512-1.2906 0.4461-0.47898 0.37646-0.59633-0.30401-0.51219-0.43307 0.053555-0.51199 0.0983-0.80615 0.45731-0.17932 0.21885-0.32595 0.4582-0.32595 0.53202s-0.05432 0.1965-0.12074 0.27251c-0.06641 0.07601-0.145 0.32336-0.17464 0.5498-0.04571 0.34928-0.02258 0.44882 0.15252 0.65647 0.11352 0.13463 0.27577 0.38267 0.3605 0.55116 0.08473 0.1685 0.28931 0.43238 0.45464 0.58638s0.30056 0.35851 0.30056 0.4544 0.0398 0.19864 0.08845 0.2284c0.13446 0.08224 0.10553 0.71992-0.04579 1.0095-0.28481 0.5451-1.1749 0.71338-1.8828 0.35593-0.49737-0.25113-0.83282-0.7666-0.88215-1.3553-0.04307-0.51387 0.10034-0.853 0.64568-1.5258 0.8485-1.0468 0.69795-2.7357-0.32544-3.6508-0.61091-0.54624-1.24-0.78546-2.0661-0.78555zm-0.49488 1.5926c0.88613-0.013228 1.5096 0.59671 1.5125 1.4798 0.0016 0.51756-0.22658 0.92112-0.69923 1.2364-0.64964 0.43329-1.7512 0.13931-2.0847-0.55629-0.48705-1.0158 0.17685-2.1435 1.2715-2.1599zm-0.14855 1.3247a0.34627 0.3427 0 0 0-0.34616 0.34277 0.34627 0.3427 0 0 0 0.34616 0.3426 0.34627 0.3427 0 0 0 0.34633-0.3426 0.34627 0.3427 0 0 0-0.34633-0.34277z" fill="#fff"/>
    <g display="none" fill="none">
        <rect transform="rotate(90)" x="7.8232" y="-20.923" width="13.1" height="13.1" display="inline" stroke="#000" stroke-width=".070382"/>
        <rect x="7.2241" y="8.6528" width="14.298" height="11.441" stroke="#5261ff" stroke-linecap="round" stroke-linejoin="round" stroke-width=".069589"/>
        <rect transform="rotate(90)" x="7.2241" y="-20.094" width="14.298" height="11.441" display="inline" stroke="#0f0" stroke-linecap="round" stroke-linejoin="round" stroke-width=".069589"/>
    </g>
</svg>
