<?xml version="1.0" encoding="UTF-8"?>
<svg version="1.1" viewBox="0 0 28.747 28.747" xmlns="http://www.w3.org/2000/svg">
    <defs>
        <filter id="filter6206-7" color-interpolation-filters="sRGB">
            <feGaussianBlur stdDeviation="0.658125"/>
        </filter>
    </defs>
    <g transform="translate(0 -1093.8)">
        <path transform="matrix(1.0781 0 0 1.0641 -.093733 2.7509)" d="m4.4177 1028.2v1.6051h-1.6052v18.192h1.6052v2.1402h18.192v-2.1402h2.1402v-18.192h-2.1402v-1.6051z" fill="#232323" filter="url(#filter6206-7)" opacity=".2"/>
        <rect x="2.9987" y="1096.8" width="22.749" height="22.749" rx="1.1973" ry="1.1974" fill="#232323"/>
        <g transform="translate(-22.32 1056.5)">
            <path d="m0 0h51.2v51.2h-51.2z" fill="none" stroke-width="1.0667"/>
            <g transform="matrix(.33601 0 0 .33601 1.5296 73.043)">
                <path d="m0 0h51.2v51.2h-51.2z" fill="none" stroke-width="1.0667"/>
            </g>
            <g transform="matrix(.37187 0 0 .37187 38.802 63.239)">
                <path d="m0 0h51.2v51.2h-51.2z" fill="none" stroke-width="1.0667"/>
                <g transform="matrix(2.6891 0 0 2.6891 -82.906 -48.45)">
                    <path d="m0 0h51.2v51.2h-51.2z" fill="none" stroke-width="1.0667"/>
                </g>
            </g>
        </g>
        <path d="m4.1958 1096.8c-0.66332 0-1.1979 0.5346-1.1979 1.1979v0.3334c0-0.6634 0.53459-1.1979 1.1979-1.1979h20.354c0.66332 0 1.1979 0.5345 1.1979 1.1979v-0.3334c0-0.6633-0.5346-1.1979-1.1979-1.1979z" fill="#fff" opacity=".2"/>
        <rect x="128" y="546.52" width="42.667" height="42.667" fill="none" stroke-width="1.0667"/>
        <rect x="128" y="631.85" width="42.667" height="42.667" fill="none" stroke-width="1.0667"/>
        <rect x="128" y="674.52" width="42.667" height="42.667" fill="none" stroke-width="1.0667"/>
        <rect x="128" y="589.19" width="42.667" height="42.667" fill="none" stroke-width="1.0667"/>
        <rect x="128" y="717.19" width="42.667" height="42.667" fill="none" stroke-width="1.0667"/>
        <rect x="213.33" y="546.52" width="42.667" height="42.667" fill="none" stroke-width="1.0667"/>
        <rect x="213.33" y="631.85" width="42.667" height="42.667" fill="none" stroke-width="1.0667"/>
        <rect x="213.33" y="674.52" width="42.667" height="42.667" fill="none" stroke-width="1.0667"/>
        <rect x="213.33" y="589.19" width="42.667" height="42.667" fill="none" stroke-width="1.0667"/>
        <rect x="213.33" y="717.19" width="42.667" height="42.667" fill="none" stroke-width="1.0667"/>
        <rect x="298.67" y="546.52" width="42.667" height="42.667" fill="none" stroke-width="1.0667"/>
        <rect x="298.67" y="631.85" width="42.667" height="42.667" fill="none" stroke-width="1.0667"/>
        <rect x="298.67" y="674.52" width="42.667" height="42.667" fill="none" stroke-width="1.0667"/>
        <rect x="298.67" y="589.19" width="42.667" height="42.667" fill="none" stroke-width="1.0667"/>
        <rect x="298.67" y="717.19" width="42.667" height="42.667" fill="none" stroke-width="1.0667"/>
        <rect x="170.67" y="546.52" width="42.667" height="42.667" fill="none" stroke-width="1.0667"/>
        <rect x="170.67" y="631.85" width="42.667" height="42.667" fill="none" stroke-width="1.0667"/>
        <rect x="170.67" y="674.52" width="42.667" height="42.667" fill="none" stroke-width="1.0667"/>
        <rect x="170.67" y="589.19" width="42.667" height="42.667" fill="none" stroke-width="1.0667"/>
        <rect x="170.67" y="717.19" width="42.667" height="42.667" fill="none" stroke-width="1.0667"/>
        <rect x="256" y="546.52" width="42.667" height="42.667" fill="none" stroke-width="1.0667"/>
        <rect x="256" y="631.85" width="42.667" height="42.667" fill="none" stroke-width="1.0667"/>
        <rect x="256" y="674.52" width="42.667" height="42.667" fill="none" stroke-width="1.0667"/>
        <rect x="256" y="589.19" width="42.667" height="42.667" fill="none" stroke-width="1.0667"/>
        <rect x="256" y="717.19" width="42.667" height="42.667" fill="none" stroke-width="1.0667"/>
        <rect x="128" y="759.85" width="42.667" height="42.667" fill="none" stroke-width="1.0667"/>
        <rect x="213.33" y="759.85" width="42.667" height="42.667" fill="none" stroke-width="1.0667"/>
        <rect x="298.67" y="759.85" width="42.667" height="42.667" fill="none" stroke-width="1.0667"/>
        <rect x="170.67" y="759.85" width="42.667" height="42.667" fill="none" stroke-width="1.0667"/>
        <rect x="256" y="759.85" width="42.667" height="42.667" fill="none" stroke-width="1.0667"/>
        <rect x="341.33" y="589.19" width="42.667" height="42.667" fill="none" stroke-width="1.0667"/>
        <rect x="341.33" y="631.85" width="42.667" height="42.667" fill="none" stroke-width="1.0667"/>
        <rect x="341.33" y="717.19" width="42.667" height="42.667" fill="none" stroke-width="1.0667"/>
        <rect x="341.33" y="546.52" width="42.667" height="42.667" fill="none" stroke-width="1.0667"/>
        <rect x="341.33" y="674.52" width="42.667" height="42.667" fill="none" stroke-width="1.0667"/>
        <rect x="341.33" y="759.85" width="42.667" height="42.667" fill="none" stroke-width="1.0667"/>
        <rect x="160" y="578.52" width="192" height="192" fill="none" stroke-width="1.0667"/>
        <g transform="matrix(.37344 0 0 .37344 4.7333 1097.4)">
            <path d="m0 0h51.2v51.2h-51.2z" fill="none" stroke-width="1.0667"/>
        </g>
        <g transform="matrix(.36471 0 0 .36471 5.1356 1097.4)">
            <path d="m0 0h51.2v51.2h-51.2z" fill="none" stroke-width="1.0667"/>
        </g>
        <g transform="matrix(.41585 0 0 .41585 84.325 1055.9)">
            <g transform="matrix(.062269 0 0 .062269 -28.238 185.29)">
                <g transform="matrix(38.618 0 0 38.618 14724 -13542)">
                    <g transform="matrix(.71436 0 0 .71436 -400.52 188.34)">
                        <path d="m1293.2-120.67c-181.75 0.2763-511.18 0.13525-699.05 0.13998-2.3216 10.413-3.593 21.251-3.593 32.384v114c207.65 0.73695 494.72 0.38136 706.23 0.3733v-114.37c0-11.18-1.2522-22.07-3.593-32.523zm-458.69 295.56c-78.385-4e-3 -158.85 0.17892-243.95 0.55995v138.63c286.34-0.39317 421.73-0.13827 706.23-0.32664v-137.75c-163.2-0.53005-311.22-1.1113-462.28-1.1199z" opacity="0" stroke-width="1.4932"/>
                    </g>
                </g>
            </g>
        </g>
        <path d="m24.549 1119.5c0.66325 0 1.1979-0.5346 1.1979-1.1979v-0.3333c0 0.6632-0.53461 1.1978-1.1979 1.1978h-20.354c-0.66325 0-1.1979-0.5346-1.1979-1.1978v0.3333c0 0.6633 0.53461 1.1979 1.1979 1.1979z" fill="#232323" opacity=".2"/>
    </g>
    <path d="m13.291 7.7832c-0.08582-0.00364-0.17243 0.00616-0.26172 0.033203-0.35715 0.10817-0.53918 0.43011-0.68164 0.77734-0.14246 0.34724-0.24281 0.76278-0.33594 1.1855-0.09313 0.42276-0.177 0.85041-0.26562 1.207-0.08862 0.35662-0.19884 0.64755-0.26758 0.73828s-0.31742 0.27522-0.63672 0.45703-0.71005 0.37799-1.0918 0.58203-0.75312 0.41342-1.0488 0.64453c-0.2957 0.23111-0.55696 0.49405-0.56445 0.86719-0.0075 0.37314 0.24312 0.64196 0.5293 0.88476 0.28618 0.24281 0.64824 0.47023 1.0215 0.68945 0.37325 0.21922 0.75662 0.42855 1.0684 0.62305 0.31174 0.1945 0.55215 0.39096 0.61719 0.48438s0.16601 0.3862 0.24023 0.74609c0.07423 0.3599 0.13877 0.79259 0.21484 1.2188 0.07607 0.42616 0.16066 0.84458 0.28906 1.1973 0.1284 0.35268 0.29592 0.68029 0.64844 0.80273s0.68653-0.03134 1.0059-0.22852c0.31933-0.19717 0.6469-0.47249 0.9707-0.75976 0.3238-0.28728 0.64449-0.58585 0.92578-0.82227s0.5395-0.40451 0.64844-0.4375 0.41802-0.03671 0.7832 0.0039 0.7978 0.11254 1.2266 0.17188c0.42876 0.05934 0.8515 0.10689 1.2266 0.09375 0.37506-0.01314 0.73948-0.07167 0.96484-0.36914s0.18257-0.66267 0.09375-1.0273c-0.08882-0.36467-0.24875-0.76144-0.42188-1.1582-0.17312-0.39677-0.3582-0.7922-0.49609-1.1328-0.1379-0.34061-0.21908-0.64009-0.2168-0.75391 0.0023-0.11381 0.09268-0.40934 0.24414-0.74414s0.356-0.72379 0.54492-1.1133 0.3634-0.77786 0.4668-1.1387c0.1034-0.36081 0.16246-0.72301-0.05078-1.0293-0.21324-0.30628-0.57499-0.38-0.94922-0.4082s-0.80162 0.0029-1.2324 0.04492c-0.4308 0.04206-0.86395 0.09714-1.2305 0.12305-0.36652 0.0259-0.67568 8e-3 -0.7832-0.0293-0.10752-0.037334-0.36124-0.2173-0.63281-0.46483s-0.57667-0.55737-0.88867-0.85742c-0.312-0.30006-0.6283-0.58898-0.93945-0.79883-0.23337-0.15739-0.47693-0.29183-0.73438-0.30273zm-0.08789 0.60742c0.04974-0.015066 0.23515 0.022645 0.48828 0.19336 0.25313 0.17071 0.55161 0.44019 0.85547 0.73242s0.61422 0.6067 0.9043 0.87109c0.29008 0.2644 0.54575 0.48379 0.83984 0.58594 0.2941 0.10215 0.62999 0.08822 1.0215 0.06055s0.82653-0.08208 1.2461-0.12305c0.41956-0.04096 0.82446-0.06592 1.1289-0.04297 0.30444 0.02294 0.4703 0.10773 0.5 0.15039s0.05287 0.22992-0.03125 0.52344-0.24765 0.66364-0.43164 1.043c-0.18399 0.37933-0.38704 0.76738-0.54883 1.125s-0.29257 0.66917-0.29883 0.98047c-0.0063 0.3113 0.11052 0.62641 0.25781 0.99024s0.3353 0.76202 0.50391 1.1484c0.1686 0.38642 0.31837 0.76388 0.39062 1.0605 0.07226 0.29667 0.04115 0.48005 0.0098 0.52148-0.03139 0.04143-0.20074 0.12212-0.50586 0.13281s-0.70742-0.0301-1.125-0.08789-0.85017-0.1324-1.2402-0.17578c-0.39007-0.04338-0.72743-0.07071-1.0254 0.01953-0.29796 0.09025-0.56282 0.30021-0.86328 0.55274s-0.62019 0.55225-0.93555 0.83203-0.62694 0.53882-0.88672 0.69922-0.44504 0.18893-0.49414 0.17188-0.1768-0.15449-0.28125-0.44141c-0.10446-0.28691-0.18959-0.68261-0.26367-1.0977-0.07409-0.41504-0.13946-0.84995-0.21875-1.2344-0.07929-0.38442-0.15609-0.71322-0.33398-0.96875-0.17793-0.25553-0.46001-0.44068-0.793-0.64844s-0.71852-0.42126-1.082-0.63477c-0.36351-0.2135-0.70273-0.42942-0.93555-0.62695-0.23281-0.19753-0.3194-0.36404-0.31836-0.41602 0.00104-0.05197 0.091471-0.21824 0.33203-0.40625 0.24056-0.18802 0.5911-0.38917 0.96289-0.58789s0.76636-0.39564 1.1074-0.58984c0.34107-0.19421 0.63034-0.36706 0.81836-0.61523s0.27643-0.57415 0.37109-0.95508c0.09467-0.38093 0.17884-0.81288 0.26953-1.2246 0.0907-0.41173 0.18879-0.80541 0.30469-1.0879s0.25104-0.41462 0.30078-0.42969zm3.2207 3.5859 0.2207 3.1992h0.49024l0.2207-3.1992zm-2.0566 1.0625c-0.86576 0-1.6758 0.7554-1.6758 1.7285 0 0.97311 0.81002 1.7266 1.6758 1.7266 0.86576 0 1.6738-0.75345 1.6738-1.7266 0-0.97311-0.80807-1.7285-1.6738-1.7285zm0 0.73047c0.39488 0 0.77734 0.411 0.77734 0.99805s-0.38246 0.99609-0.77734 0.99609-0.77539-0.40905-0.77539-0.99609c0-0.58705 0.38051-0.99805 0.77539-0.99805zm2.0918 1.7734v0.77734h0.85938v-0.77734z" color="#000000" color-rendering="auto" dominant-baseline="auto" fill="#fff" image-rendering="auto" shape-rendering="auto" solid-color="#000000" stop-color="#000000" style="font-feature-settings:normal;font-variant-alternates:normal;font-variant-caps:normal;font-variant-east-asian:normal;font-variant-ligatures:normal;font-variant-numeric:normal;font-variant-position:normal;font-variation-settings:normal;inline-size:0;isolation:auto;mix-blend-mode:normal;shape-margin:0;shape-padding:0;text-decoration-color:#000000;text-decoration-line:none;text-decoration-style:solid;text-indent:0;text-orientation:mixed;text-transform:none;white-space:normal"/>
    <rect x="4.8055" y="9.5855" width=".58272" height=".59186" fill="none"/>
    <g display="none" fill="none">
        <rect transform="rotate(90)" x="7.8232" y="-20.923" width="13.1" height="13.1" display="inline" stroke="#000" stroke-width=".070382"/>
        <rect x="7.2241" y="8.6528" width="14.298" height="11.441" stroke="#5261ff" stroke-linecap="round" stroke-linejoin="round" stroke-width=".06959"/>
        <rect transform="rotate(90)" x="7.2241" y="-20.094" width="14.298" height="11.441" display="inline" stroke="#0f0" stroke-linecap="round" stroke-linejoin="round" stroke-width=".06959"/>
    </g>
</svg>
