<?xml version="1.0" encoding="UTF-8"?>
<svg version="1.1" viewBox="0 0 28.747 28.747" xmlns="http://www.w3.org/2000/svg">
    <defs>
        <filter id="filter6206-7" x="-.072" y="-.072" width="1.144" height="1.144" color-interpolation-filters="sRGB">
            <feGaussianBlur stdDeviation="0.658125"/>
        </filter>
    </defs>
    <g transform="translate(0 -1093.8)">
        <path transform="matrix(1.0781 0 0 1.0641 -.093733 2.7509)" d="m4.4177 1028.2v1.6051h-1.6052v18.192h1.6052v2.1402h18.192v-2.1402h2.1402v-18.192h-2.1402v-1.6051z" fill="#232323" filter="url(#filter6206-7)" opacity=".2"/>
        <rect x="2.9987" y="1096.8" width="22.749" height="22.749" rx="1.1973" ry="1.1974" fill="#232323"/>
        <g transform="translate(-22.32 1056.5)">
            <path d="m0 0h51.2v51.2h-51.2z" fill="none" stroke-width="1.0667"/>
            <g transform="matrix(.33601 0 0 .33601 1.5296 73.043)">
                <path d="m0 0h51.2v51.2h-51.2z" fill="none" stroke-width="1.0667"/>
            </g>
            <g transform="matrix(.37187 0 0 .37187 38.802 63.239)">
                <path d="m0 0h51.2v51.2h-51.2z" fill="none" stroke-width="1.0667"/>
                <g transform="matrix(2.6891 0 0 2.6891 -82.906 -48.45)">
                    <path d="m0 0h51.2v51.2h-51.2z" fill="none" stroke-width="1.0667"/>
                </g>
            </g>
        </g>
        <path d="m4.1958 1096.8c-0.66332 0-1.1979 0.5346-1.1979 1.1979v0.3334c0-0.6634 0.53459-1.1979 1.1979-1.1979h20.354c0.66332 0 1.1979 0.5345 1.1979 1.1979v-0.3334c0-0.6633-0.5346-1.1979-1.1979-1.1979z" fill="#fff" opacity=".2"/>
        <rect x="128" y="546.52" width="42.667" height="42.667" fill="none" stroke-width="1.0667"/>
        <rect x="128" y="631.85" width="42.667" height="42.667" fill="none" stroke-width="1.0667"/>
        <rect x="128" y="674.52" width="42.667" height="42.667" fill="none" stroke-width="1.0667"/>
        <rect x="128" y="589.19" width="42.667" height="42.667" fill="none" stroke-width="1.0667"/>
        <rect x="128" y="717.19" width="42.667" height="42.667" fill="none" stroke-width="1.0667"/>
        <rect x="213.33" y="546.52" width="42.667" height="42.667" fill="none" stroke-width="1.0667"/>
        <rect x="213.33" y="631.85" width="42.667" height="42.667" fill="none" stroke-width="1.0667"/>
        <rect x="213.33" y="674.52" width="42.667" height="42.667" fill="none" stroke-width="1.0667"/>
        <rect x="213.33" y="589.19" width="42.667" height="42.667" fill="none" stroke-width="1.0667"/>
        <rect x="213.33" y="717.19" width="42.667" height="42.667" fill="none" stroke-width="1.0667"/>
        <rect x="298.67" y="546.52" width="42.667" height="42.667" fill="none" stroke-width="1.0667"/>
        <rect x="298.67" y="631.85" width="42.667" height="42.667" fill="none" stroke-width="1.0667"/>
        <rect x="298.67" y="674.52" width="42.667" height="42.667" fill="none" stroke-width="1.0667"/>
        <rect x="298.67" y="589.19" width="42.667" height="42.667" fill="none" stroke-width="1.0667"/>
        <rect x="298.67" y="717.19" width="42.667" height="42.667" fill="none" stroke-width="1.0667"/>
        <rect x="170.67" y="546.52" width="42.667" height="42.667" fill="none" stroke-width="1.0667"/>
        <rect x="170.67" y="631.85" width="42.667" height="42.667" fill="none" stroke-width="1.0667"/>
        <rect x="170.67" y="674.52" width="42.667" height="42.667" fill="none" stroke-width="1.0667"/>
        <rect x="170.67" y="589.19" width="42.667" height="42.667" fill="none" stroke-width="1.0667"/>
        <rect x="170.67" y="717.19" width="42.667" height="42.667" fill="none" stroke-width="1.0667"/>
        <rect x="256" y="546.52" width="42.667" height="42.667" fill="none" stroke-width="1.0667"/>
        <rect x="256" y="631.85" width="42.667" height="42.667" fill="none" stroke-width="1.0667"/>
        <rect x="256" y="674.52" width="42.667" height="42.667" fill="none" stroke-width="1.0667"/>
        <rect x="256" y="589.19" width="42.667" height="42.667" fill="none" stroke-width="1.0667"/>
        <rect x="256" y="717.19" width="42.667" height="42.667" fill="none" stroke-width="1.0667"/>
        <rect x="128" y="759.85" width="42.667" height="42.667" fill="none" stroke-width="1.0667"/>
        <rect x="213.33" y="759.85" width="42.667" height="42.667" fill="none" stroke-width="1.0667"/>
        <rect x="298.67" y="759.85" width="42.667" height="42.667" fill="none" stroke-width="1.0667"/>
        <rect x="170.67" y="759.85" width="42.667" height="42.667" fill="none" stroke-width="1.0667"/>
        <rect x="256" y="759.85" width="42.667" height="42.667" fill="none" stroke-width="1.0667"/>
        <rect x="341.33" y="589.19" width="42.667" height="42.667" fill="none" stroke-width="1.0667"/>
        <rect x="341.33" y="631.85" width="42.667" height="42.667" fill="none" stroke-width="1.0667"/>
        <rect x="341.33" y="717.19" width="42.667" height="42.667" fill="none" stroke-width="1.0667"/>
        <rect x="341.33" y="546.52" width="42.667" height="42.667" fill="none" stroke-width="1.0667"/>
        <rect x="341.33" y="674.52" width="42.667" height="42.667" fill="none" stroke-width="1.0667"/>
        <rect x="341.33" y="759.85" width="42.667" height="42.667" fill="none" stroke-width="1.0667"/>
        <rect x="160" y="578.52" width="192" height="192" fill="none" stroke-width="1.0667"/>
        <g transform="matrix(.37344 0 0 .37344 4.7333 1097.4)">
            <path d="m0 0h51.2v51.2h-51.2z" fill="none" stroke-width="1.0667"/>
        </g>
        <g transform="matrix(.36471 0 0 .36471 5.1356 1097.4)">
            <path d="m0 0h51.2v51.2h-51.2z" fill="none" stroke-width="1.0667"/>
        </g>
        <g transform="matrix(.41585 0 0 .41585 84.325 1055.9)">
            <g transform="matrix(.062269 0 0 .062269 -28.238 185.29)">
                <g transform="matrix(38.618 0 0 38.618 14724 -13542)">
                    <g transform="matrix(.71436 0 0 .71436 -400.52 188.34)">
                        <path d="m1293.2-120.67c-181.75 0.2763-511.18 0.13525-699.05 0.13998-2.3216 10.413-3.593 21.251-3.593 32.384v114c207.65 0.73695 494.72 0.38136 706.23 0.3733v-114.37c0-11.18-1.2522-22.07-3.593-32.523zm-458.69 295.56c-78.385-4e-3 -158.85 0.17892-243.95 0.55995v138.63c286.34-0.39317 421.73-0.13827 706.23-0.32664v-137.75c-163.2-0.53005-311.22-1.1113-462.28-1.1199z" opacity="0" stroke-width="1.4932"/>
                    </g>
                </g>
            </g>
        </g>
        <path d="m24.549 1119.5c0.66325 0 1.1979-0.5346 1.1979-1.1979v-0.3333c0 0.6632-0.53461 1.1978-1.1979 1.1978h-20.354c-0.66325 0-1.1979-0.5346-1.1979-1.1978v0.3333c0 0.6633 0.53461 1.1979 1.1979 1.1979z" fill="#232323" opacity=".2"/>
    </g>
    <path d="m13.105 7.8203c-0.04501 0.00275-0.09218 0.01191-0.14258 0.029297-0.17984 0.062042-0.25022 0.19759-0.29883 0.25391-0.08223 0.095264-0.15421 0.20025-0.21289 0.31055-0.08881 0.16692-0.14395 0.33555-0.19727 0.49023-0.06374 0.18496-0.11448 0.37129-0.16211 0.55469-0.1078 0.41506-0.16215 0.826-0.27148 1.2031-0.11732 0.40467-0.16729 0.79686-0.36328 1.0508-0.19331 0.25044-0.55977 0.39855-0.91797 0.61328-0.33701 0.20202-0.71848 0.36092-1.0918 0.57227-0.16634 0.09417-0.3348 0.19208-0.49805 0.30273-0.13842 0.09383-0.29155 0.19266-0.43164 0.32422-0.1011 0.09494-0.18709 0.20026-0.26367 0.31055-0.044011 0.06338-0.19042 0.17753-0.19727 0.39844-0.0069 0.22252 0.13305 0.3448 0.17383 0.41211 0.069974 0.11549 0.15138 0.22781 0.24805 0.33008 0.13268 0.14038 0.27913 0.24815 0.41211 0.34961 0.15696 0.11975 0.31944 0.22682 0.48047 0.33008 0.36116 0.23159 0.7329 0.41089 1.0586 0.63086 0.34603 0.23371 0.70566 0.39816 0.88476 0.6582 0.18212 0.26442 0.20956 0.66305 0.30469 1.0742 0.08852 0.38259 0.12198 0.79453 0.20703 1.2148 0.03754 0.18553 0.07722 0.37447 0.13086 0.5625 0.04467 0.1566 0.08942 0.32647 0.16992 0.49805 0.05274 0.11241 0.11795 0.22229 0.19531 0.32031 0.04685 0.05936 0.11185 0.19178 0.2832 0.26172 0.19387 0.07914 0.35906 0.02129 0.45508 0.0098 0.13442-0.01612 0.27911-0.0425 0.42188-0.09961 0.18843-0.07537 0.33852-0.18636 0.47461-0.27734 0.16492-0.11026 0.31819-0.23091 0.4668-0.35156 0.33336-0.27066 0.61856-0.56816 0.92773-0.8125 0.33035-0.26108 0.59315-0.55909 0.89258-0.64844 0.30676-0.09154 0.69739 0.01348 1.123 0.05273 0.39191 0.03614 0.79419 0.13226 1.2207 0.17969 0.18735 0.02083 0.37669 0.03851 0.57226 0.04297h2e-3c0.15605 0.0035 0.33874 0.02116 0.53516-0.01758 0.12941-0.02553 0.24526-0.07348 0.35156-0.13086 0.08578-0.04629 0.20033-0.10462 0.29297-0.2207 0.1017-0.12746 0.13604-0.2651 0.16602-0.36914 0.03493-0.12124 0.06496-0.25766 0.06055-0.40625-0.0061-0.20682-0.06936-0.38197-0.11133-0.5332-0.05276-0.19009-0.11948-0.37376-0.1875-0.55078-0.15409-0.40088-0.35084-0.76518-0.48828-1.1348-0.14881-0.40017-0.35635-0.74519-0.34766-1.0605 0.0087-0.3148 0.23397-0.64613 0.4043-1.0371 0.1575-0.36153 0.3732-0.71549 0.54883-1.1074 0.07764-0.17327 0.15378-0.34997 0.2168-0.53711 0.05029-0.14933 0.12506-0.32107 0.14258-0.52734 0.01271-0.14963-0.01103-0.28992-0.03906-0.41406-0.02379-0.10539-0.04658-0.24854-0.14453-0.38476-0.08775-0.12203-0.20158-0.18404-0.2832-0.23242-0.10385-0.06156-0.21951-0.11155-0.3457-0.14258-0.19305-0.04746-0.37278-0.04217-0.5293-0.04687-0.19546-0.0059-0.38802 1e-3 -0.57617 0.01172-0.42841 0.02432-0.83532 0.09886-1.2285 0.11328-0.42682 0.01565-0.82136 0.0966-1.123-0.01172-0.2942-0.10564-0.54024-0.41335-0.85552-0.69144-0.29546-0.2606-0.56486-0.57473-0.88281-0.86328-0.14183-0.12871-0.28879-0.25762-0.44726-0.37695-0.13132-0.098879-0.27446-0.21826-0.45703-0.30469-0.13836-0.065496-0.28046-0.10162-0.41406-0.12695-0.069767-0.013231-0.17943-0.057074-0.31445-0.048828zm3.1849 4.09h0.93164l-0.2207 3.1992h-0.49024zm-2.0566 1.0645c0.86576 0 1.6758 0.7554 1.6758 1.7285 0 0.97311-0.81002 1.7266-1.6758 1.7266-0.86576 0-1.6758-0.75345-1.6758-1.7266 0-0.97311 0.81002-1.7285 1.6758-1.7285zm0 0.73047c-0.39488 0-0.77539 0.411-0.77539 0.99805s0.38051 0.99609 0.77539 0.99609c0.39488-1e-6 0.77734-0.40905 0.77734-0.99609 0-0.58705-0.38246-0.99805-0.77734-0.99805zm2.0938 1.7734h0.85742v0.77734h-0.85742z" color="#000000" color-rendering="auto" dominant-baseline="auto" fill="#fff" image-rendering="auto" shape-rendering="auto" solid-color="#000000" style="font-feature-settings:normal;font-variant-alternates:normal;font-variant-caps:normal;font-variant-ligatures:normal;font-variant-numeric:normal;font-variant-position:normal;isolation:auto;mix-blend-mode:normal;paint-order:stroke markers fill;shape-padding:0;text-decoration-color:#000000;text-decoration-line:none;text-decoration-style:solid;text-indent:0;text-orientation:mixed;text-transform:none;white-space:normal"/>
</svg>
