<?xml version="1.0" encoding="UTF-8"?>
<svg version="1.1" viewBox="0 0 28.747 28.747" xmlns="http://www.w3.org/2000/svg">
    <defs>
        <filter id="filter6206-7" x="-.072" y="-.072" width="1.144" height="1.144" color-interpolation-filters="sRGB">
            <feGaussianBlur stdDeviation="0.658125"/>
        </filter>
    </defs>
    <g transform="translate(0 -1093.8)">
        <path transform="matrix(1.0781 0 0 1.0641 -.093733 2.7509)" d="m4.4177 1028.2v1.6051h-1.6052v18.192h1.6052v2.1402h18.192v-2.1402h2.1402v-18.192h-2.1402v-1.6051z" fill="#232323" filter="url(#filter6206-7)" opacity=".2"/>
        <rect x="2.9987" y="1096.8" width="22.749" height="22.749" rx="1.1973" ry="1.1974" fill="#232323"/>
        <g transform="translate(-22.32 1056.5)">
            <path d="m0 0h51.2v51.2h-51.2z" fill="none" stroke-width="1.0667"/>
            <g transform="matrix(.33601 0 0 .33601 1.5296 73.043)">
                <path d="m0 0h51.2v51.2h-51.2z" fill="none" stroke-width="1.0667"/>
            </g>
            <g transform="matrix(.37187 0 0 .37187 38.802 63.239)">
                <path d="m0 0h51.2v51.2h-51.2z" fill="none" stroke-width="1.0667"/>
                <g transform="matrix(2.6891 0 0 2.6891 -82.906 -48.45)">
                    <path d="m0 0h51.2v51.2h-51.2z" fill="none" stroke-width="1.0667"/>
                </g>
            </g>
        </g>
        <path d="m4.1958 1096.8c-0.66332 0-1.1979 0.5346-1.1979 1.1979v0.3334c0-0.6634 0.53459-1.1979 1.1979-1.1979h20.354c0.66332 0 1.1979 0.5345 1.1979 1.1979v-0.3334c0-0.6633-0.5346-1.1979-1.1979-1.1979z" fill="#fff" opacity=".2"/>
        <rect x="128" y="546.52" width="42.667" height="42.667" fill="none" stroke-width="1.0667"/>
        <rect x="128" y="631.85" width="42.667" height="42.667" fill="none" stroke-width="1.0667"/>
        <rect x="128" y="674.52" width="42.667" height="42.667" fill="none" stroke-width="1.0667"/>
        <rect x="128" y="589.19" width="42.667" height="42.667" fill="none" stroke-width="1.0667"/>
        <rect x="128" y="717.19" width="42.667" height="42.667" fill="none" stroke-width="1.0667"/>
        <rect x="213.33" y="546.52" width="42.667" height="42.667" fill="none" stroke-width="1.0667"/>
        <rect x="213.33" y="631.85" width="42.667" height="42.667" fill="none" stroke-width="1.0667"/>
        <rect x="213.33" y="674.52" width="42.667" height="42.667" fill="none" stroke-width="1.0667"/>
        <rect x="213.33" y="589.19" width="42.667" height="42.667" fill="none" stroke-width="1.0667"/>
        <rect x="213.33" y="717.19" width="42.667" height="42.667" fill="none" stroke-width="1.0667"/>
        <rect x="298.67" y="546.52" width="42.667" height="42.667" fill="none" stroke-width="1.0667"/>
        <rect x="298.67" y="631.85" width="42.667" height="42.667" fill="none" stroke-width="1.0667"/>
        <rect x="298.67" y="674.52" width="42.667" height="42.667" fill="none" stroke-width="1.0667"/>
        <rect x="298.67" y="589.19" width="42.667" height="42.667" fill="none" stroke-width="1.0667"/>
        <rect x="298.67" y="717.19" width="42.667" height="42.667" fill="none" stroke-width="1.0667"/>
        <rect x="170.67" y="546.52" width="42.667" height="42.667" fill="none" stroke-width="1.0667"/>
        <rect x="170.67" y="631.85" width="42.667" height="42.667" fill="none" stroke-width="1.0667"/>
        <rect x="170.67" y="674.52" width="42.667" height="42.667" fill="none" stroke-width="1.0667"/>
        <rect x="170.67" y="589.19" width="42.667" height="42.667" fill="none" stroke-width="1.0667"/>
        <rect x="170.67" y="717.19" width="42.667" height="42.667" fill="none" stroke-width="1.0667"/>
        <rect x="256" y="546.52" width="42.667" height="42.667" fill="none" stroke-width="1.0667"/>
        <rect x="256" y="631.85" width="42.667" height="42.667" fill="none" stroke-width="1.0667"/>
        <rect x="256" y="674.52" width="42.667" height="42.667" fill="none" stroke-width="1.0667"/>
        <rect x="256" y="589.19" width="42.667" height="42.667" fill="none" stroke-width="1.0667"/>
        <rect x="256" y="717.19" width="42.667" height="42.667" fill="none" stroke-width="1.0667"/>
        <rect x="128" y="759.85" width="42.667" height="42.667" fill="none" stroke-width="1.0667"/>
        <rect x="213.33" y="759.85" width="42.667" height="42.667" fill="none" stroke-width="1.0667"/>
        <rect x="298.67" y="759.85" width="42.667" height="42.667" fill="none" stroke-width="1.0667"/>
        <rect x="170.67" y="759.85" width="42.667" height="42.667" fill="none" stroke-width="1.0667"/>
        <rect x="256" y="759.85" width="42.667" height="42.667" fill="none" stroke-width="1.0667"/>
        <rect x="341.33" y="589.19" width="42.667" height="42.667" fill="none" stroke-width="1.0667"/>
        <rect x="341.33" y="631.85" width="42.667" height="42.667" fill="none" stroke-width="1.0667"/>
        <rect x="341.33" y="717.19" width="42.667" height="42.667" fill="none" stroke-width="1.0667"/>
        <rect x="341.33" y="546.52" width="42.667" height="42.667" fill="none" stroke-width="1.0667"/>
        <rect x="341.33" y="674.52" width="42.667" height="42.667" fill="none" stroke-width="1.0667"/>
        <rect x="341.33" y="759.85" width="42.667" height="42.667" fill="none" stroke-width="1.0667"/>
        <rect x="160" y="578.52" width="192" height="192" fill="none" stroke-width="1.0667"/>
        <g transform="matrix(.37344 0 0 .37344 4.7333 1097.4)">
            <path d="m0 0h51.2v51.2h-51.2z" fill="none" stroke-width="1.0667"/>
        </g>
        <g transform="matrix(.36471 0 0 .36471 5.1356 1097.4)">
            <path d="m0 0h51.2v51.2h-51.2z" fill="none" stroke-width="1.0667"/>
        </g>
        <g transform="matrix(.41585 0 0 .41585 84.325 1055.9)">
            <g transform="matrix(.062269 0 0 .062269 -28.238 185.29)">
                <g transform="matrix(38.618 0 0 38.618 14724 -13542)">
                    <g transform="matrix(.71436 0 0 .71436 -400.52 188.34)">
                        <path d="m1293.2-120.67c-181.75 0.2763-511.18 0.13525-699.05 0.13998-2.3216 10.413-3.593 21.251-3.593 32.384v114c207.65 0.73695 494.72 0.38136 706.23 0.3733v-114.37c0-11.18-1.2522-22.07-3.593-32.523zm-458.69 295.56c-78.385-4e-3 -158.85 0.17892-243.95 0.55995v138.63c286.34-0.39317 421.73-0.13827 706.23-0.32664v-137.75c-163.2-0.53005-311.22-1.1113-462.28-1.1199z" opacity="0" stroke-width="1.4932"/>
                    </g>
                </g>
            </g>
        </g>
        <path d="m24.549 1119.5c0.66325 0 1.1979-0.5346 1.1979-1.1979v-0.3333c0 0.6632-0.53461 1.1978-1.1979 1.1978h-20.354c-0.66325 0-1.1979-0.5346-1.1979-1.1978v0.3333c0 0.6633 0.53461 1.1979 1.1979 1.1979z" fill="#232323" opacity=".2"/>
    </g>
    <path d="m14.346 7.935c-2.679 0-4.8496 2.1724-4.8496 4.8514 0 0.06868 0.00672 0.20806 0.00672 0.20806 0.34036-0.33062 1.1432-0.87138 1.8781-1.3066 0.48269-0.28585 0.95885-0.59771 1.4692-0.83696 0.7602-0.3564 1.8794-0.6622 2.3582-0.88489-0.51299 0.04034-1.0751 0.13821-1.5929 0.29045-0.77859 0.22892-1.8211 0.70902-2.2504 0.92912-0.01821-1.1487 0.65781-1.5522 1.3453-1.9286 0.63708-0.34886 1.6431-0.19172 2.071-0.1388 1.012 0.12517 1.8297 0.72435 1.8297 0.72435s-0.19656 0.085365-0.39022 0.26879c-0.2722 0.25781-0.60724 0.67839-0.98209 1.0573-0.57779 0.58407-1.0932 0.88527-1.6074 1.0768-0.63298 0.23574-1.1076 0.09757-1.7301-0.15443-0.16634-0.06363-0.3033-0.08345-0.49185 0.02524-0.90898 0.57591-1.5104 1.1641-1.8027 1.4923-0.20881 0.23449-0.4869 0.59659-0.68029 0.92049-0.099429 0.16653-0.18109 0.33214-0.22859 0.49586-0.047497 0.16372-0.069289 0.34057 0.026376 0.50641 0.16374 0.28386 0.50427 0.37253 0.8915 0.37278 0.24666 1.58e-4 0.53264-0.03967 0.84754-0.10726 1.4148 2.573 3.8825 5.0149 3.8825 5.0149s4.8514-4.7914 4.8514-8.0252c0-0.0292-0.56677 0.59005-2.1365 1.3854-0.71598 0.36279-0.77291 0.43213-1.6199 0.76891-0.59558 0.23682-1.2836 0.43915-1.8858 0.55012-0.07693 0.01418-0.10001 0.04557-0.02597 0.04827 0.30984 0.01131 0.70893 0.08198 1.8398-0.28385 0.20685-0.06692 1.3498-0.50386 2.1503-1.0251 0.0181-0.01178 0.03038 0.01813 0.02686 0.06338-0.0035 0.0449-0.05765 0.52958-0.29198 0.91515-0.3239 0.53296-0.66623 0.78339-1.0209 0.94944-0.4534 0.21227-1.0007 0.35088-1.4109 0.36572-0.98708 0.0357-1.2481-0.15431-1.8258-0.38487-0.29112-0.11619-0.8008-0.49292-0.8008-0.49292s0.76679-0.55947 0.88159-0.65624c0.27532-0.23208 0.9324-0.85866 1.1251-1.0875 0.69404-0.82402 1.6647-0.75532 1.9245-0.74543 0.54472 0.02073 0.81836 0.36875 1.072 0.31435 0.3667-0.07864 0.40318-0.13957 0.5779-0.27062 0.70073-0.5256 1.0776-0.82931 1.3677-1.1299 0.3503-0.33981 0.6143-0.66508 0.77369-0.96535 0.16905-0.31849 0.23874-0.64153 0.0844-0.90908-0.16374-0.28386-0.50251-0.37077-0.88974-0.37102-0.24612-1.57e-4 -0.5317 0.038197-0.84578 0.1055-0.88213-1.2094-2.3097-1.9958-3.9212-1.9958zm4.767 2.3404c0.31605 2.02e-4 0.46026 0.07812 0.49938 0.14594 0.03762 0.06522 0.0385 0.22159-0.09495 0.473-0.09798 0.1846-0.26228 0.40509-0.48355 0.64357-0.11324-0.42651-0.28314-0.82916-0.50114-1.201 0.2223-0.0403 0.41897-0.06165 0.58026-0.06154zm-9.3722 3.8931c0.12783 0.39866 0.29914 0.80596 0.5029 1.2133-0.24188 0.04609-0.45517 0.0722-0.62774 0.0721-0.31605-2.02e-4 -0.46201-0.07988-0.50114-0.1477 4.499e-4 7.8e-4 -0.014451-0.05214 0.015825-0.1565 0.030274-0.10436 0.097517-0.2427 0.18463-0.3886 0.11875-0.1989 0.27409-0.40963 0.42553-0.59257z" fill="#fff" fill-opacity=".97908" stroke-linecap="round" stroke-linejoin="round" stroke-width=".501"/>
    <g display="none" fill="none">
        <rect transform="rotate(90)" x="7.8232" y="-20.923" width="13.1" height="13.1" display="inline" stroke="#000" stroke-width=".070382"/>
        <rect x="7.2241" y="8.6528" width="14.298" height="11.441" stroke="#5261ff" stroke-linecap="round" stroke-linejoin="round" stroke-width=".06959"/>
        <rect transform="rotate(90)" x="7.2241" y="-20.094" width="14.298" height="11.441" display="inline" stroke="#0f0" stroke-linecap="round" stroke-linejoin="round" stroke-width=".06959"/>
    </g>
</svg>
