<?xml version="1.0" encoding="UTF-8"?>
<svg version="1.1" viewBox="0 0 26.95 26.95" xmlns="http://www.w3.org/2000/svg">
    <defs>
        <filter id="filter6206-7" color-interpolation-filters="sRGB">
            <feGaussianBlur stdDeviation="0.658125"/>
        </filter>
    </defs>
    <g transform="translate(0 -1025.4)">
        <path transform="matrix(1.0107 0 0 .99762 -.087875 2.579)" d="m4.4177 1028.2v1.6051h-1.6052v18.192h1.6052v2.1402h18.192v-2.1402h2.1402v-18.192h-2.1402v-1.6051h-18.192z" fill="#232323" filter="url(#filter6206-7)" opacity=".2"/>
        <rect x="2.8113" y="1028.2" width="21.327" height="21.327" rx="1.1225" ry="1.1226" fill="#232323"/>
        <g transform="translate(-20.925 990.46)">
            <path d="m0 0h48v48h-48z" fill="none"/>
            <g transform="matrix(.33601 0 0 .33601 1.434 68.477)">
                <path d="m0 0h48v48h-48z" fill="none"/>
            </g>
            <g transform="matrix(.37187 0 0 .37187 36.377 59.287)">
                <path d="m0 0h48v48h-48z" fill="none"/>
                <g transform="matrix(2.6891 0 0 2.6891 -77.724 -45.422)">
                    <path d="m0 0h48v48h-48z" fill="none"/>
                </g>
            </g>
        </g>
        <path transform="translate(0 1025.4)" d="m3.9336 2.8105c-0.62186 0-1.123 0.50115-1.123 1.123v0.3125c0-0.6219 0.50118-1.123 1.123-1.123h19.082c0.62186 0 1.123 0.50115 1.123 1.123v-0.3125c0-0.6219-0.50118-1.123-1.123-1.123h-19.082z" fill="#fff" opacity=".2"/>
        <rect x="120" y="512.36" width="40" height="40" fill="none"/>
        <rect x="120" y="592.36" width="40" height="40" fill="none"/>
        <rect x="120" y="632.36" width="40" height="40" fill="none"/>
        <rect x="120" y="552.36" width="40" height="40" fill="none"/>
        <rect x="120" y="672.36" width="40" height="40" fill="none"/>
        <rect x="200" y="512.36" width="40" height="40" fill="none"/>
        <rect x="200" y="592.36" width="40" height="40" fill="none"/>
        <rect x="200" y="632.36" width="40" height="40" fill="none"/>
        <rect x="200" y="552.36" width="40" height="40" fill="none"/>
        <rect x="200" y="672.36" width="40" height="40" fill="none"/>
        <rect x="280" y="512.36" width="40" height="40" fill="none"/>
        <rect x="280" y="592.36" width="40" height="40" fill="none"/>
        <rect x="280" y="632.36" width="40" height="40" fill="none"/>
        <rect x="280" y="552.36" width="40" height="40" fill="none"/>
        <rect x="280" y="672.36" width="40" height="40" fill="none"/>
        <rect x="160" y="512.36" width="40" height="40" fill="none"/>
        <rect x="160" y="592.36" width="40" height="40" fill="none"/>
        <rect x="160" y="632.36" width="40" height="40" fill="none"/>
        <rect x="160" y="552.36" width="40" height="40" fill="none"/>
        <rect x="160" y="672.36" width="40" height="40" fill="none"/>
        <rect x="240" y="512.36" width="40" height="40" fill="none"/>
        <rect x="240" y="592.36" width="40" height="40" fill="none"/>
        <rect x="240" y="632.36" width="40" height="40" fill="none"/>
        <rect x="240" y="552.36" width="40" height="40" fill="none"/>
        <rect x="240" y="672.36" width="40" height="40" fill="none"/>
        <rect x="120" y="712.36" width="40" height="40" fill="none"/>
        <rect x="200" y="712.36" width="40" height="40" fill="none"/>
        <rect x="280" y="712.36" width="40" height="40" fill="none"/>
        <rect x="160" y="712.36" width="40" height="40" fill="none"/>
        <rect x="240" y="712.36" width="40" height="40" fill="none"/>
        <rect x="320" y="552.36" width="40" height="40" fill="none"/>
        <rect x="320" y="592.36" width="40" height="40" fill="none"/>
        <rect x="320" y="672.36" width="40" height="40" fill="none"/>
        <rect x="320" y="512.36" width="40" height="40" fill="none"/>
        <rect x="320" y="632.36" width="40" height="40" fill="none"/>
        <rect x="320" y="712.36" width="40" height="40" fill="none"/>
        <rect x="150" y="542.36" width="180" height="180" fill="none"/>
        <g transform="matrix(.37344 0 0 .37344 4.4375 1028.8)">
            <path d="m0 0h48v48h-48z" fill="none"/>
        </g>
        <g transform="matrix(.36471 0 0 .36471 4.8146 1028.8)">
            <path d="m0 0h48v48h-48z" fill="none"/>
        </g>
        <g transform="matrix(.41585 0 0 .41585 79.055 989.88)">
            <g transform="matrix(.062269 0 0 .062269 -26.473 173.71)">
                <g transform="matrix(38.618 0 0 38.618 13804 -12696)">
                    <g transform="matrix(.71436 0 0 .71436 -375.49 176.57)">
                        <path transform="matrix(1.3999 0 0 1.3999 525.63 -247.17)" d="m490.56 95.75c-121.72 0.18504-342.34 0.090577-468.16 0.09375-1.5548 6.9739-2.4062 14.232-2.4062 21.688v76.344c139.06 0.49354 331.32 0.2554 472.97 0.25v-76.594c0-7.4875-0.8386-14.78-2.4062-21.781zm-307.19 197.94c-52.495-3e-3 -106.38 0.11982-163.38 0.375v92.844c191.76-0.26331 282.43-0.0926 472.97-0.21875v-92.25c-109.29-0.35498-208.43-0.74426-309.59-0.75z" opacity="0"/>
                    </g>
                </g>
            </g>
        </g>
        <path d="m23.015 1049.6c0.6218 0 1.123-0.5012 1.123-1.123v-0.3125c0 0.6218-0.5012 1.123-1.123 1.123h-19.082c-0.6218 0-1.123-0.5012-1.123-1.123v0.3125c0 0.6218 0.5012 1.123 1.123 1.123h19.082z" fill="#232323" opacity=".2"/>
    </g>
    <g transform="matrix(.1262 0 0 .1262 -1.0257 27.419)">
        <flowRoot transform="matrix(.58635 0 0 .58635 107 -118.39)" fill="#000000" font-family="Roboto" font-size="3.75px" letter-spacing="0px" stroke-width="1px" word-spacing="0px" style="line-height:125%" xml:space="preserve"><flowRegion><rect x="10.664" y="11.235" width="4.49" height="5.0512"/></flowRegion><flowPara>your</flowPara></flowRoot>
        <path transform="matrix(7.9242 0 0 7.9242 8.1281 -217.27)" d="m13.475 6.9629-5.3281 2.3691v3.5508c0 3.2854 2.2736 6.3517 5.3281 7.1035 3.0545-0.75179 5.3281-3.8181 5.3281-7.1035v-3.5508l-5.3281-2.3691zm0 2.8301c1.0945 0 1.9863 0.89191 1.9863 1.9863 0 0.025261-0.006942 0.047351-0.007813 0.072265 8.83e-4 0.016043 0.003906 0.03065 0.003906 0.046876l0.00586 2.1113c0 0.002397-0.003907 0.005465-0.003907 0.007812l0.003907 2.1113-1.9941 1.1348-1.9727-1.1348-0.009766-3.9434c0-0.002524 0.003906-0.005566 0.003906-0.007813l-0.001953-0.27148c0-0.025542 0.00531-0.048675 0.007813-0.074219-2.53e-4 -0.018447-0.00586-0.034065-0.00586-0.052734 0-1.0944 0.88993-1.9863 1.9844-1.9863zm0 0.27734c-0.67152 0-1.2481 0.39302-1.5254 0.95898 0.16983-0.11753 0.37506-0.18731 0.5957-0.1875h0.001953c0.40132 0 0.74726 0.23091 0.92578 0.56445 0.047899-0.091327 0.10528-0.17865 0.17969-0.25391 0.19988-0.20182 0.46563-0.31377 0.74805-0.31445h0.001953c0.21864 0 0.42563 0.067751 0.60156 0.19141-0.27845-0.56575-0.85787-0.95898-1.5293-0.95898zm0.92578 1.0449c-0.2071 3.79e-4 -0.40408 0.082177-0.55078 0.23047-0.14764 0.14898-0.2275 0.34886-0.22656 0.55859v0.57617c0 0.076163-0.062041 0.13836-0.13867 0.13867-0.004228 0-0.005349-0.003149-0.009766-0.003907-0.004442 7.58e-4 -0.005323 0.003907-0.009765 0.003907-0.076132 0-0.13864-0.062228-0.13867-0.13867l-0.001953-0.57617c-7.57e-4 -0.43296-0.35071-0.78516-0.7793-0.78516-0.41214 7.57e-4 -0.74352 0.32914-0.76953 0.73828 0.041896 0.90438 0.7842 1.6289 1.6992 1.6289 0.91114 0 1.6512-0.71758 1.6992-1.6172-0.008909-0.19735-0.082962-0.38318-0.22266-0.52344-0.14648-0.14773-0.34268-0.23047-0.55078-0.23047zm-5.7988 0.12695h2.6367v0.39844h-2.6367v-0.39844zm7.1094 0.009765h2.6367v0.39844h-2.6367v-0.39844zm-3.1602 0.29492c0.14644 2.52e-4 0.26599 0.11919 0.26562 0.26562-2.52e-4 0.14599-0.11963 0.2634-0.26562 0.26367-0.14644 3.78e-4 -0.26535-0.11723-0.26562-0.26367-3.78e-4 -0.14689 0.11874-0.26599 0.26562-0.26562zm1.8496 0c0.14644 2.52e-4 0.26599 0.11919 0.26562 0.26562-2.53e-4 0.14599-0.11963 0.2634-0.26562 0.26367-0.14644 3.78e-4 -0.26535-0.11723-0.26562-0.26367-3.79e-4 -0.14689 0.11874-0.26599 0.26562-0.26562zm1.3105 0.2207h1.9746v0.40039h-1.9746v-0.40039zm-6.4688 0.044922h1.9727v0.39844h-1.9727v-0.39844zm6.4688 0.54883h1.6641v0.39844h-1.6641v-0.39844zm-6.1602 0.021484h1.6641v0.39844h-1.6641v-0.39844zm2.2168 0.39063 0.003906 1.2441c0 0.002108-0.003906 0.005453-0.003906 0.007813l0.003906 1.748 1.4238-2.0391c-0.61086-0.087199-1.128-0.44897-1.4277-0.96094zm3.4121 0.005859c-0.30471 0.5173-0.83262 0.87862-1.4551 0.95703l1.4609 2.0957-0.005859-3.0527zm0.55859 0.15039h1.2227v0.40039h-1.2227v-0.40039zm-5.7461 0.009765h1.2227v0.39844h-1.2227v-0.39844zm3.4668 0.90234-1.5 2.1484 1.5098 0.87305 1.4844-0.87891-1.4941-2.1426z" fill="#fff"/>
    </g>
    <g display="none" fill="none">
        <rect transform="rotate(90)" x="7.3342" y="-19.616" width="12.282" height="12.282" display="inline" stroke="#000" stroke-width=".065984"/>
        <rect x="6.7726" y="8.112" width="13.405" height="10.726" stroke="#5261ff" stroke-linecap="round" stroke-linejoin="round" stroke-width=".06524"/>
        <rect transform="rotate(90)" x="6.7726" y="-18.838" width="13.405" height="10.726" display="inline" stroke="#0f0" stroke-linecap="round" stroke-linejoin="round" stroke-width=".06524"/>
    </g>
</svg>
