<?xml version="1.0" encoding="UTF-8"?>
<svg version="1.1" viewBox="0 0 28.747 28.747" xmlns="http://www.w3.org/2000/svg">
    <defs>
        <filter id="filter6206-7" color-interpolation-filters="sRGB">
            <feGaussianBlur stdDeviation="0.658125"/>
        </filter>
    </defs>
    <g transform="translate(0 -1093.8)">
        <path transform="matrix(1.0781 0 0 1.0641 -.093733 2.7509)" d="m4.4177 1028.2v1.6051h-1.6052v18.192h1.6052v2.1402h18.192v-2.1402h2.1402v-18.192h-2.1402v-1.6051z" fill="#3e2723" filter="url(#filter6206-7)" opacity=".2"/>
        <rect x="2.9987" y="1096.8" width="22.749" height="22.749" rx="1.1973" ry="1.1974" fill="#232323"/>
        <g transform="translate(-22.32 1056.5)">
            <path d="m0 0h51.2v51.2h-51.2z" fill="none" stroke-width="1.0667"/>
            <g transform="matrix(.33601 0 0 .33601 1.5296 73.043)">
                <path d="m0 0h51.2v51.2h-51.2z" fill="none" stroke-width="1.0667"/>
            </g>
            <g transform="matrix(.37187 0 0 .37187 38.802 63.239)">
                <path d="m0 0h51.2v51.2h-51.2z" fill="none" stroke-width="1.0667"/>
                <g transform="matrix(2.6891 0 0 2.6891 -82.906 -48.45)">
                    <path d="m0 0h51.2v51.2h-51.2z" fill="none" stroke-width="1.0667"/>
                </g>
            </g>
        </g>
        <path d="m4.1958 1096.8c-0.66332 0-1.1979 0.5346-1.1979 1.1979v0.3334c0-0.6634 0.53459-1.1979 1.1979-1.1979h20.354c0.66332 0 1.1979 0.5345 1.1979 1.1979v-0.3334c0-0.6633-0.5346-1.1979-1.1979-1.1979z" fill="#fff" opacity=".2"/>
        <rect x="128" y="546.52" width="42.667" height="42.667" fill="none" stroke-width="1.0667"/>
        <rect x="128" y="631.85" width="42.667" height="42.667" fill="none" stroke-width="1.0667"/>
        <rect x="128" y="674.52" width="42.667" height="42.667" fill="none" stroke-width="1.0667"/>
        <rect x="128" y="589.19" width="42.667" height="42.667" fill="none" stroke-width="1.0667"/>
        <rect x="128" y="717.19" width="42.667" height="42.667" fill="none" stroke-width="1.0667"/>
        <rect x="213.33" y="546.52" width="42.667" height="42.667" fill="none" stroke-width="1.0667"/>
        <rect x="213.33" y="631.85" width="42.667" height="42.667" fill="none" stroke-width="1.0667"/>
        <rect x="213.33" y="674.52" width="42.667" height="42.667" fill="none" stroke-width="1.0667"/>
        <rect x="213.33" y="589.19" width="42.667" height="42.667" fill="none" stroke-width="1.0667"/>
        <rect x="213.33" y="717.19" width="42.667" height="42.667" fill="none" stroke-width="1.0667"/>
        <rect x="298.67" y="546.52" width="42.667" height="42.667" fill="none" stroke-width="1.0667"/>
        <rect x="298.67" y="631.85" width="42.667" height="42.667" fill="none" stroke-width="1.0667"/>
        <rect x="298.67" y="674.52" width="42.667" height="42.667" fill="none" stroke-width="1.0667"/>
        <rect x="298.67" y="589.19" width="42.667" height="42.667" fill="none" stroke-width="1.0667"/>
        <rect x="298.67" y="717.19" width="42.667" height="42.667" fill="none" stroke-width="1.0667"/>
        <rect x="170.67" y="546.52" width="42.667" height="42.667" fill="none" stroke-width="1.0667"/>
        <rect x="170.67" y="631.85" width="42.667" height="42.667" fill="none" stroke-width="1.0667"/>
        <rect x="170.67" y="674.52" width="42.667" height="42.667" fill="none" stroke-width="1.0667"/>
        <rect x="170.67" y="589.19" width="42.667" height="42.667" fill="none" stroke-width="1.0667"/>
        <rect x="170.67" y="717.19" width="42.667" height="42.667" fill="none" stroke-width="1.0667"/>
        <rect x="256" y="546.52" width="42.667" height="42.667" fill="none" stroke-width="1.0667"/>
        <rect x="256" y="631.85" width="42.667" height="42.667" fill="none" stroke-width="1.0667"/>
        <rect x="256" y="674.52" width="42.667" height="42.667" fill="none" stroke-width="1.0667"/>
        <rect x="256" y="589.19" width="42.667" height="42.667" fill="none" stroke-width="1.0667"/>
        <rect x="256" y="717.19" width="42.667" height="42.667" fill="none" stroke-width="1.0667"/>
        <rect x="128" y="759.85" width="42.667" height="42.667" fill="none" stroke-width="1.0667"/>
        <rect x="213.33" y="759.85" width="42.667" height="42.667" fill="none" stroke-width="1.0667"/>
        <rect x="298.67" y="759.85" width="42.667" height="42.667" fill="none" stroke-width="1.0667"/>
        <rect x="170.67" y="759.85" width="42.667" height="42.667" fill="none" stroke-width="1.0667"/>
        <rect x="256" y="759.85" width="42.667" height="42.667" fill="none" stroke-width="1.0667"/>
        <rect x="341.33" y="589.19" width="42.667" height="42.667" fill="none" stroke-width="1.0667"/>
        <rect x="341.33" y="631.85" width="42.667" height="42.667" fill="none" stroke-width="1.0667"/>
        <rect x="341.33" y="717.19" width="42.667" height="42.667" fill="none" stroke-width="1.0667"/>
        <rect x="341.33" y="546.52" width="42.667" height="42.667" fill="none" stroke-width="1.0667"/>
        <rect x="341.33" y="674.52" width="42.667" height="42.667" fill="none" stroke-width="1.0667"/>
        <rect x="341.33" y="759.85" width="42.667" height="42.667" fill="none" stroke-width="1.0667"/>
        <rect x="160" y="578.52" width="192" height="192" fill="none" stroke-width="1.0667"/>
        <g transform="matrix(.37344 0 0 .37344 4.7333 1097.4)">
            <path d="m0 0h51.2v51.2h-51.2z" fill="none" stroke-width="1.0667"/>
        </g>
        <g transform="matrix(.36471 0 0 .36471 5.1356 1097.4)">
            <path d="m0 0h51.2v51.2h-51.2z" fill="none" stroke-width="1.0667"/>
        </g>
        <g transform="matrix(.41585 0 0 .41585 84.325 1055.9)">
            <g transform="matrix(.062269 0 0 .062269 -28.238 185.29)">
                <g transform="matrix(38.618 0 0 38.618 14724 -13542)">
                    <g transform="matrix(.71436 0 0 .71436 -400.52 188.34)">
                        <path d="m1293.2-120.67c-181.75 0.2763-511.18 0.13525-699.05 0.13998-2.3216 10.413-3.593 21.251-3.593 32.384v114c207.65 0.73695 494.72 0.38136 706.23 0.3733v-114.37c0-11.18-1.2522-22.07-3.593-32.523zm-458.69 295.56c-78.385-4e-3 -158.85 0.17892-243.95 0.55995v138.63c286.34-0.39317 421.73-0.13827 706.23-0.32664v-137.75c-163.2-0.53005-311.22-1.1113-462.28-1.1199z" opacity="0" stroke-width="1.4932"/>
                    </g>
                </g>
            </g>
        </g>
        <path d="m24.549 1119.5c0.66325 0 1.1979-0.5346 1.1979-1.1979v-0.3333c0 0.6632-0.53461 1.1978-1.1979 1.1978h-20.354c-0.66325 0-1.1979-0.5346-1.1979-1.1978v0.3333c0 0.6633 0.53461 1.1979 1.1979 1.1979z" fill="#3e2723" opacity=".2"/>
    </g>
    <g transform="matrix(3.595 0 0 3.595 7.2045 9.2284)" fill="#fefefe" stroke-width="26.704">
        <path d="m1.0497 2.2061 0.56091-1.2192c0.12606-0.26235 0.37752-0.34865 0.64513-0.32234 0.15786 0.015516 0.18963 0.0010984 0.26106-0.15387l0.21096-0.45763c0.020996-0.045555 0.075386-0.065705 0.12095-0.04474l0.13731 0.06315 0.00354 0.001626 0.13731 0.063158c0.045567 0.020957 0.06572 0.075402 0.04474 0.12095l-0.21764 0.47212c-0.075236 0.16322-0.065563 0.17608 0.058665 0.30387 0.19011 0.19555 0.27966 0.44128 0.1514 0.66924l-0.24186 0.52572c-0.048697 0.055835-0.10397 0.10652-0.1707 0.15107-0.023744 0.015866-0.049102 0.02948-0.075693 0.040488-0.025335 0.010484-0.05285 0.018799-0.082268 0.024638-0.00623 0.00124-0.012528 0.00233-0.01889 0.0033l0.36097-0.7848c0.00326-0.00615 0.00519-0.00989 0.00588-0.011382v-8.504e-4c0.081185-0.17654 2e-3 -0.33472-0.12282-0.45925-0.082982-0.0828-0.19119-0.15135-0.25469-0.18527-0.013909-0.0074488-0.02622-0.013591-0.036284-0.018209-0.026654-0.01226-0.04926-0.021996-0.067925-0.029287-0.020516-0.0080236-0.043894-0.016256-0.069756-0.024591l-0.018071-0.0051535c-0.037154-0.0084921-0.075374-0.014516-0.11373-0.01815-0.039677-0.0037795-0.077638-0.0046968-0.11303-0.0029331-0.28398 0.014126-0.32331 0.18443-0.42473 0.40492l-0.40737 0.88568c-0.00326 0.00708-0.029598 0.063591-0.081823 0.17589-0.07076-0.048413-0.12995-0.1057-0.18155-0.16814zm1.2951 0.21613-0.0063-0.00254c-0.026587-0.011016-0.051933-0.024622-0.075685-0.04048-0.069051-0.046122-0.12794-0.10124-0.17918-0.16096 0.047567-0.10342 0.094126-0.20461 0.14165-0.30796l0.14364-0.31229 0.041091-0.089315-0.08874-0.043024c-0.097905-0.04748-0.18546-0.11138-0.23842-0.17981-0.078047-0.10087-0.055067-0.15237 0.072646-0.15873 0.19764-0.00983 0.42015 0.10763 0.54174 0.25665 0.047811 0.058598 0.073146 0.12283 0.041276 0.18245l-0.39372 0.85602zm-0.52306-0.11635c-0.029 0.026012-0.060295 0.05052-0.094445 0.073319-0.023744 0.015866-0.049102 0.02948-0.075693 0.040488-0.025335 0.010484-0.05285 0.018799-0.082268 0.024638-0.027508 0.00545-0.056394 0.00832-0.086382 0.00832-0.015216 0-0.030138-7.401e-4 -0.044756-0.00218 0.029591-0.063705 0.055618-0.11992 0.074476-0.16093l0.40737-0.88568 0.00369 0.00484c0.055071 0.071173 0.13402 0.13704 0.22328 0.19099l-0.10444 0.22711c-0.07361 0.16002-0.14679 0.31869-0.22083 0.47908z"/>
        <path d="m0.71025 2.8244c0.037634-0.011661 0.07426-0.025945 0.1096-0.042583 0.053087-0.025004 0.093996-0.051405 0.14087-0.08365l0.009764-0.00671 0.009728 0.00671 0.02098 0.014468c0.034913 0.024091 0.071823 0.045665 0.11042 0.064441h6.7e-5c0.038236 0.018606 0.077941 0.034409 0.11876 0.047098l0.00793 0.00247c0.037571 0.01126 0.076449 0.019996 0.11641 0.02602 0.041673 0.00628 0.084461 0.00954 0.12812 0.00954 0.043555 0 0.086236-0.00324 0.1278-0.00949 0.042693-0.00641 0.08413-0.015945 0.12405-0.028311 0.037642-0.011661 0.07426-0.025945 0.1096-0.042583 0.035669-0.016803 0.070059-0.036075 0.10291-0.057567l7.8e-6 7.9e-6 0.046689-0.033287 0.00992 0.00684 0.021823 0.015035c0.034937 0.024079 0.07185 0.045657 0.11042 0.064421 0.038114 0.018531 0.077732 0.034283 0.11856 0.046965 0.040008 0.012421 0.081543 0.021996 0.12432 0.028433 0.041665 0.00628 0.084453 0.00954 0.12809 0.00954 0.043551 0 0.086236-0.00324 0.1278-0.00949 0.042693-0.00641 0.08413-0.015945 0.12405-0.028311 0.037634-0.011661 0.07426-0.025945 0.1096-0.042583 0.035441-0.016697 0.069622-0.035831 0.10228-0.057161l0.034795-0.027791 0.00992-0.00792 0.01052 0.00725 0.023831 0.016437c0.034847 0.024043 0.071791 0.045642 0.11052 0.0645 0.038161 0.018571 0.077748 0.034343 0.11843 0.046988l2.992e-4 5.12e-5c0.040043 0.012433 0.081595 0.022028 0.12437 0.028472 0.041673 0.00628 0.084465 0.00955 0.12808 0.00955 0.043551 0 0.086232-0.00324 0.1278-0.00949 0.042689-0.00641 0.084138-0.015945 0.12405-0.028311 0.037642-0.011661 0.074264-0.025945 0.10961-0.042583 0.032854-0.015476 0.06463-0.033043 0.09511-0.05252v-0.27883c-0.00315 0.00329-0.00629 0.0065-0.00941 0.00962-0.029091 0.029091-0.06124 0.055476-0.095933 0.078657-0.034236 0.022866-0.070929 0.042543-0.10956 0.058539-0.037894 0.015697-0.077528 0.027819-0.11841 0.035929-0.039969 0.00793-0.081213 0.012094-0.12326 0.012094-0.042051 0-0.083287-0.00417-0.12326-0.012094-0.040886-0.00811-0.08052-0.020232-0.11841-0.035929-0.038642-0.015996-0.075335-0.035681-0.10956-0.058547-0.034555-0.023079-0.066705-0.04948-0.095909-0.078685l-3.15e-5 3.54e-5c-0.011185-0.011185-0.02224-0.023169-0.033067-0.035839-0.010634-0.012429-0.020835-0.025315-0.030531-0.038587l-9.84e-5 -2.953e-4 -0.00133-0.00183-0.00309 0.00422c-0.00953 0.012933-0.019516 0.025461-0.029854 0.037508-0.010591 0.012346-0.021346 0.023968-0.032197 0.034823l-3.15e-5 -3.55e-5c-0.029209 0.029205-0.061354 0.055606-0.095909 0.078685-0.034228 0.022866-0.070921 0.042551-0.10956 0.058547-0.037898 0.015697-0.077531 0.027819-0.11841 0.035929-0.039969 0.00793-0.081213 0.012094-0.12326 0.012094s-0.083283-0.00417-0.12325-0.012094c-0.040886-0.00811-0.08052-0.020232-0.11841-0.035929-0.038638-0.015996-0.075327-0.035673-0.10955-0.058539-0.034709-0.023181-0.066847-0.049559-0.095945-0.078658-0.011055-0.011055-0.022039-0.022965-0.032866-0.035654-0.00684-0.00802-0.013524-0.016256-0.020035-0.024685l-2.598e-4 2.008e-4 -0.010437-0.014287-0.00135-0.00186-0.0032 0.00437-6.7e-5 7.08e-5c-0.00953 0.012902-0.019441 0.025354-0.029677 0.03728-0.010535 0.012272-0.021224 0.023823-0.031969 0.034571l-3.14e-5 -3.54e-5c-0.029209 0.029205-0.061354 0.055606-0.095902 0.078685-0.034236 0.022866-0.070929 0.042551-0.10957 0.058547-0.037894 0.015697-0.077532 0.027819-0.11841 0.035929-0.039965 0.00793-0.081209 0.012094-0.12326 0.012094-0.042047 0-0.083291-0.00416-0.12324-0.012094-0.040886-0.00811-0.08052-0.020232-0.11841-0.035929-0.038646-0.015996-0.075335-0.035673-0.10956-0.058539-0.034701-0.023181-0.06685-0.049559-0.095941-0.078658-0.011055-0.011055-0.022039-0.022965-0.032866-0.035654-0.006835-0.00802-0.013524-0.016248-0.020035-0.024685l-2.3622e-4 1.85e-4 -0.010461-0.014339-0.001472-0.00202-0.003063 0.0042c-0.00952 0.012913-0.019484 0.025425-0.029831 0.037468-0.010602 0.012358-0.021362 0.023988-0.032213 0.034842-0.029094 0.029091-0.06124 0.055476-0.095941 0.078658-0.034228 0.022866-0.070921 0.042543-0.10957 0.058539-0.037894 0.015697-0.077528 0.027819-0.11841 0.035929-0.039968 0.00793-0.081205 0.012094-0.12325 0.012094-0.042047 0-0.083284-0.00417-0.12325-0.012094-0.040896-0.0081124-0.08053-0.020234-0.11843-0.035931-0.038642-0.015996-0.075335-0.035673-0.10956-0.058539-0.034701-0.023181-0.066839-0.049559-0.095941-0.078658-0.0037795-0.0037834-0.0075197-0.0076259-0.011224-0.011528v0.27962c0.030394 0.019508 0.06228 0.037213 0.095468 0.052917 0.035425 0.01676 0.072248 0.031165 0.11021 0.042984 0.040134 0.012484 0.081709 0.022102 0.12446 0.028547 0.041724 0.0063 0.084571 0.00957 0.12826 0.00957 0.043551 0 0.086236-0.00324 0.1278-0.00949 0.042693-0.00641 0.08413-0.015945 0.12405-0.028311z"/>
    </g>
    <g display="none" fill="none">
        <rect transform="rotate(90)" x="7.8232" y="-20.923" width="13.1" height="13.1" display="inline" stroke="#000" stroke-width=".070382"/>
        <rect x="7.2241" y="8.6528" width="14.298" height="11.441" stroke="#5261ff" stroke-linecap="round" stroke-linejoin="round" stroke-width=".06959"/>
        <rect transform="rotate(90)" x="7.2241" y="-20.094" width="14.298" height="11.441" display="inline" stroke="#0f0" stroke-linecap="round" stroke-linejoin="round" stroke-width=".06959"/>
    </g>
</svg>
