<?xml version="1.0" encoding="UTF-8"?>
<svg version="1.1" viewBox="0 0 28.747 28.747" xmlns="http://www.w3.org/2000/svg">
    <defs>
        <filter id="filter6206-7" color-interpolation-filters="sRGB">
            <feGaussianBlur stdDeviation="0.658125"/>
        </filter>
    </defs>
    <g transform="translate(0 -1093.8)">
        <path transform="matrix(1.0781 0 0 1.0641 -.093733 2.7509)" d="m4.4177 1028.2v1.6051h-1.6052v18.192h1.6052v2.1402h18.192v-2.1402h2.1402v-18.192h-2.1402v-1.6051z" fill="#232323" filter="url(#filter6206-7)" opacity=".2"/>
        <rect x="2.9987" y="1096.8" width="22.749" height="22.749" rx="1.1973" ry="1.1974" fill="#232323"/>
        <g transform="translate(-22.32 1056.5)">
            <path d="m0 0h51.2v51.2h-51.2z" fill="none" stroke-width="1.0667"/>
            <g transform="matrix(.33601 0 0 .33601 1.5296 73.043)">
                <path d="m0 0h51.2v51.2h-51.2z" fill="none" stroke-width="1.0667"/>
            </g>
            <g transform="matrix(.37187 0 0 .37187 38.802 63.239)">
                <path d="m0 0h51.2v51.2h-51.2z" fill="none" stroke-width="1.0667"/>
                <g transform="matrix(2.6891 0 0 2.6891 -82.906 -48.45)">
                    <path d="m0 0h51.2v51.2h-51.2z" fill="none" stroke-width="1.0667"/>
                </g>
            </g>
        </g>
        <path d="m4.1958 1096.8c-0.66332 0-1.1979 0.5346-1.1979 1.1979v0.3334c0-0.6634 0.53459-1.1979 1.1979-1.1979h20.354c0.66332 0 1.1979 0.5345 1.1979 1.1979v-0.3334c0-0.6633-0.5346-1.1979-1.1979-1.1979z" fill="#fff" opacity=".2"/>
        <rect x="128" y="546.52" width="42.667" height="42.667" fill="none" stroke-width="1.0667"/>
        <rect x="128" y="631.85" width="42.667" height="42.667" fill="none" stroke-width="1.0667"/>
        <rect x="128" y="674.52" width="42.667" height="42.667" fill="none" stroke-width="1.0667"/>
        <rect x="128" y="589.19" width="42.667" height="42.667" fill="none" stroke-width="1.0667"/>
        <rect x="128" y="717.19" width="42.667" height="42.667" fill="none" stroke-width="1.0667"/>
        <rect x="213.33" y="546.52" width="42.667" height="42.667" fill="none" stroke-width="1.0667"/>
        <rect x="213.33" y="631.85" width="42.667" height="42.667" fill="none" stroke-width="1.0667"/>
        <rect x="213.33" y="674.52" width="42.667" height="42.667" fill="none" stroke-width="1.0667"/>
        <rect x="213.33" y="589.19" width="42.667" height="42.667" fill="none" stroke-width="1.0667"/>
        <rect x="213.33" y="717.19" width="42.667" height="42.667" fill="none" stroke-width="1.0667"/>
        <rect x="298.67" y="546.52" width="42.667" height="42.667" fill="none" stroke-width="1.0667"/>
        <rect x="298.67" y="631.85" width="42.667" height="42.667" fill="none" stroke-width="1.0667"/>
        <rect x="298.67" y="674.52" width="42.667" height="42.667" fill="none" stroke-width="1.0667"/>
        <rect x="298.67" y="589.19" width="42.667" height="42.667" fill="none" stroke-width="1.0667"/>
        <rect x="298.67" y="717.19" width="42.667" height="42.667" fill="none" stroke-width="1.0667"/>
        <rect x="170.67" y="546.52" width="42.667" height="42.667" fill="none" stroke-width="1.0667"/>
        <rect x="170.67" y="631.85" width="42.667" height="42.667" fill="none" stroke-width="1.0667"/>
        <rect x="170.67" y="674.52" width="42.667" height="42.667" fill="none" stroke-width="1.0667"/>
        <rect x="170.67" y="589.19" width="42.667" height="42.667" fill="none" stroke-width="1.0667"/>
        <rect x="170.67" y="717.19" width="42.667" height="42.667" fill="none" stroke-width="1.0667"/>
        <rect x="256" y="546.52" width="42.667" height="42.667" fill="none" stroke-width="1.0667"/>
        <rect x="256" y="631.85" width="42.667" height="42.667" fill="none" stroke-width="1.0667"/>
        <rect x="256" y="674.52" width="42.667" height="42.667" fill="none" stroke-width="1.0667"/>
        <rect x="256" y="589.19" width="42.667" height="42.667" fill="none" stroke-width="1.0667"/>
        <rect x="256" y="717.19" width="42.667" height="42.667" fill="none" stroke-width="1.0667"/>
        <rect x="128" y="759.85" width="42.667" height="42.667" fill="none" stroke-width="1.0667"/>
        <rect x="213.33" y="759.85" width="42.667" height="42.667" fill="none" stroke-width="1.0667"/>
        <rect x="298.67" y="759.85" width="42.667" height="42.667" fill="none" stroke-width="1.0667"/>
        <rect x="170.67" y="759.85" width="42.667" height="42.667" fill="none" stroke-width="1.0667"/>
        <rect x="256" y="759.85" width="42.667" height="42.667" fill="none" stroke-width="1.0667"/>
        <rect x="341.33" y="589.19" width="42.667" height="42.667" fill="none" stroke-width="1.0667"/>
        <rect x="341.33" y="631.85" width="42.667" height="42.667" fill="none" stroke-width="1.0667"/>
        <rect x="341.33" y="717.19" width="42.667" height="42.667" fill="none" stroke-width="1.0667"/>
        <rect x="341.33" y="546.52" width="42.667" height="42.667" fill="none" stroke-width="1.0667"/>
        <rect x="341.33" y="674.52" width="42.667" height="42.667" fill="none" stroke-width="1.0667"/>
        <rect x="341.33" y="759.85" width="42.667" height="42.667" fill="none" stroke-width="1.0667"/>
        <rect x="160" y="578.52" width="192" height="192" fill="none" stroke-width="1.0667"/>
        <g transform="matrix(.37344 0 0 .37344 4.7333 1097.4)">
            <path d="m0 0h51.2v51.2h-51.2z" fill="none" stroke-width="1.0667"/>
        </g>
        <g transform="matrix(.36471 0 0 .36471 5.1356 1097.4)">
            <path d="m0 0h51.2v51.2h-51.2z" fill="none" stroke-width="1.0667"/>
        </g>
        <g transform="matrix(.41585 0 0 .41585 84.325 1055.9)">
            <g transform="matrix(.062269 0 0 .062269 -28.238 185.29)">
                <g transform="matrix(38.618 0 0 38.618 14724 -13542)">
                    <g transform="matrix(.71436 0 0 .71436 -400.52 188.34)">
                        <path d="m1293.2-120.67c-181.75 0.2763-511.18 0.13525-699.05 0.13998-2.3216 10.413-3.593 21.251-3.593 32.384v114c207.65 0.73695 494.72 0.38136 706.23 0.3733v-114.37c0-11.18-1.2522-22.07-3.593-32.523zm-458.69 295.56c-78.385-4e-3 -158.85 0.17892-243.95 0.55995v138.63c286.34-0.39317 421.73-0.13827 706.23-0.32664v-137.75c-163.2-0.53005-311.22-1.1113-462.28-1.1199z" opacity="0" stroke-width="1.4932"/>
                    </g>
                </g>
            </g>
        </g>
        <path d="m24.549 1119.5c0.66325 0 1.1979-0.5346 1.1979-1.1979v-0.3333c0 0.6632-0.53461 1.1978-1.1979 1.1978h-20.354c-0.66325 0-1.1979-0.5346-1.1979-1.1978v0.3333c0 0.6633 0.53461 1.1979 1.1979 1.1979z" fill="#3e2723" opacity=".2"/>
    </g>
    <path d="m14.5 7.862-0.04724 0.00567-0.01701 0.00378-0.0359 0.00756-0.0359 0.011336-0.07558 0.032119-0.0359 0.018894-0.03779 0.026452-0.01512 0.013225-0.04346 0.037788-0.01701 0.015115-0.03779 0.041567-0.0057 0.00756-0.02456 0.03023-0.01322 0.017004-0.04157 0.064238-0.0038 0.00756-0.01322 0.022672-0.0076 0.013226-0.04346 0.088801-0.0038 0.00567-0.0076 0.017004-0.0019 0.00945-0.04346 0.11147-0.0038 0.00945-0.0038 0.011336-0.04912 0.14926-0.0038 0.011336-0.0019 0.00756-0.05291 0.18516-0.0019 0.00567-0.0019 0.00756v0.00189l-0.05291 0.21539-0.0057 0.020783-0.05668 0.26829-0.0038 0.039678v-0.015115l-0.06235 0.30986-0.0019 0.024563-0.06046 0.35142 0.01134-0.02267-0.01889 0.05857-0.06613 0.42511 0.04346-0.04157-0.05479 0.10769-0.08502 0.5876-0.0019 0.01701-0.09824 0.72174v0.02645l-0.41188 3.348-0.1247 1.0165-0.09824 0.75386-0.08314 0.61027-0.07558 0.50824-0.06802 0.41566-0.06235 0.34764-0.05858 0.29852-0.02645 0.12281-0.02078-0.08881-0.06046-0.30797-0.06613-0.36087-0.07369-0.45156-0.08124-0.54603-0.09258-0.6745-0.10958-0.87289-0.21917-1.8043-0.16816-1.3736v-0.01512l-0.11147-0.87856-0.0019-0.01512-0.09257-0.69907-0.05479-0.11147 0.04534 0.04346-0.0718-0.49879-0.0019-0.01889-0.07368-0.4799-0.05479-0.1058 0.04157 0.04157-0.05291-0.31553-0.0019-0.022668-0.06235-0.34009-0.0057-0.020783-0.0019-0.00567-0.05291-0.26073-0.0057-0.018894v-0.00378l-0.05046-0.22293-0.0019-0.00378-0.0019-0.00756v-0.00189l-0.04912-0.18705-0.0019-0.00567-0.0019-0.00945-0.04346-0.13981v-0.00189l-0.0094-0.034008-0.04346-0.11525-0.0019-0.00567-0.0076-0.024563-0.04157-0.096357-0.0094-0.017004-0.0076-0.013225-0.03753-0.075573-0.0076-0.013225-0.01512-0.024563-0.0057-0.00756-0.03779-0.054792-0.01322-0.018894-0.02834-0.032119-0.0095-0.00756-0.03779-0.037788-0.02268-0.020783-0.04912-0.035898-0.01323-0.00756-0.03401-0.020783-0.0359-0.018894-0.07936-0.02834-0.03401-0.00756-0.0359-0.00567-0.037788-0.00189-0.092574 0.00378-0.041568 0.00567-0.035898 0.00945-0.028338 0.00945-0.073686 0.032119-0.034008 0.018894-0.037788 0.026452-0.015115 0.013226-0.043456 0.037788-0.017004 0.017004-0.037787 0.041567-0.00567 0.00567-0.024563 0.03023-0.015115 0.020783-0.039678 0.064238-0.00189 0.00378-0.013226 0.022672-0.00756 0.015115-0.043455 0.088801-0.00756 0.013226-0.00567 0.017004-0.043455 0.10769-0.00378 0.011336-0.00567 0.013225-0.047234 0.13981-0.00567 0.024563-0.00189 0.00189-0.049123 0.1776-0.00189 0.00567-0.00189 0.00756v0.00189l-0.054792 0.22106-0.00378 0.01512-0.051013 0.24184-0.00945 0.032119-0.062349 0.32875-0.00189 0.022672-0.068017 0.37787-0.00189 0.02267-0.071796 0.45156-0.00189 0.02078-0.083132 0.57059-0.00189 0.01701-0.088801 0.6575 0.043455-0.04346-0.054792 0.11147-0.41755 3.433-0.1247 0.99381-0.098247 0.75575-0.081242 0.60649-0.077465 0.50824-0.052902 0.32497-0.00189 0.03023v2.1577l0.38169 0.04533 0.22484-0.91257v-0.0019l0.035898-0.13981-0.00189 0.0019 0.00567-0.01889 0.054792-0.24751 0.00378-0.04157v0.01323l0.056682-0.28718 0.00378-0.03779v0.01322l0.062349-0.3382 0.00189-0.02078 0.056682-0.34764-0.041567 0.04157 0.052902-0.1058 0.075575-0.51391 0.00189-0.01701 0.083132-0.59893 0.00189-0.01512 0.10014-0.7463 0.12281-0.99759v-0.0019l0.41944-3.4292 0.096357-0.7293 0.083132-0.58004 0.073686-0.46101 0.068016-0.38921 0.060456-0.31741 0.039678-0.1776 0.00378 0.018894 0.056676 0.27018 0.06046 0.33253 0.06424 0.38354 0.07369 0.47423 0.08123 0.57059 0.09258 0.69529 0.11147 0.88989 0.16626 1.383 0.21917 1.7968v0.01512l0.11336 0.86344 0.0019 0.01512 0.09257 0.67828 0.05479 0.10958-0.04346-0.04346 0.06992 0.47801 0.0019 0.01889 0.07368 0.45534 0.01889 0.05858-0.01134-0.02268 0.05858 0.32308v-0.01134l0.0038 0.03779 0.06235 0.31552 0.0057 0.02456 0.05291 0.24184 0.0038 0.0152 0.05479 0.2135 0.0038 0.0152 0.04724 0.15493 0.0094 0.03212 0.04724 0.13226 0.0038 0.01134 0.0057 0.01134 0.04346 0.10391 0.0094 0.01889 0.0076 0.01322 0.03779 0.07558 0.01322 0.02078 0.01701 0.02456 0.03779 0.05858 0.01322 0.01511 0.02835 0.03401 0.01701 0.01889 0.03968 0.0359 0.06803 0.05102 0.02268 0.01512 0.03779 0.02078 0.03968 0.01512 0.08502 0.02456 0.03212 0.0076 0.0359 0.0038h0.04157l0.0907-0.0094 0.03779-0.0076 0.0359-0.01134 0.02456-0.0094 0.06802-0.03212 0.03212-0.01889 0.0359-0.02645 0.01512-0.01323 0.03968-0.0359 0.01512-0.01701 0.03779-0.04346 0.01134-0.01134 0.02078-0.02834 0.0057-0.0095 0.03968-0.06046 0.01134-0.01889 0.05291-0.10582 0.0076-0.01512 0.0057-0.01512 0.04346-0.10958 0.0076-0.01889 0.0019-0.0076 0.04534-0.13415v-0.0019l0.0038-0.01134 0.0038-0.0076 0.04912-0.17193v-0.0038l0.0019-0.0076 0.0019-0.0038 0.04912-0.20027-0.0019 0.0019 0.0057-0.02078 0.04912-0.22484-0.0094 0.01889 0.01889-0.05101 0.06046-0.30608 0.0038-0.03779v0.01148l0.05291-0.30797-0.01134 0.02268 0.01889-0.05858 0.06802-0.42322 0.0019-0.01701 0.07558-0.50068 0.0019-0.01701 0.08314-0.59893 0.0019-0.01512 0.09824-0.7463v-0.01512l0.12659-1.007v-0.0019l0.40999-3.365 0.09635-0.7293 0.08502-0.58382 0.07558-0.4799 0.06802-0.3911 0.06046-0.3193 0.04157-0.18516 0.0076 0.035898 0.05479 0.27018 0.06235 0.33631 0.06802 0.40244 0.07369 0.47801 0.08123 0.57437 0.0907 0.69907 0.11525 0.91257 0.17571 1.4548 0.20151 1.6589v0.01512l0.11147 0.87289 0.02079 0.06424-0.01323-0.02645 0.0869 0.63105 0.0019 0.01889 0.08124 0.53847 0.0019 0.01889 0.0718 0.44022 0.0019 0.02268 0.06425 0.35142v-0.01322l0.0038 0.03779 0.06046 0.29852v-0.01322l0.0038 0.04346 0.05858 0.25506 0.0019 0.0038 0.0019 0.0076 0.05479 0.2135 0.0038 0.0152 0.04912 0.16626 0.0057 0.01701 0.0019 0.0057 0.04346 0.12092 0.0019 0.0057 0.0094 0.03212 0.04534 0.09824 0.0057 0.01512 0.0095 0.02078 0.04157 0.07558 0.0019 0.0038 0.01512 0.02645 0.01134 0.01889 0.04157 0.05668 0.0076 0.0076 0.02834 0.03401 0.01889 0.02078 0.03968 0.0359 0.06803 0.05102 0.03212 0.01889 0.03968 0.01889 0.03023 0.01134 0.08503 0.02456 0.03212 0.0076 0.0359 0.0038h0.04157l0.0901-0.0095 0.03779-0.0076 0.0359-0.01134 0.03023-0.01322 0.06613-0.03401 0.02645-0.01701 0.0359-0.02645 0.01134-0.0076 0.03968-0.03401 0.02268-0.02456 0.03779-0.04534 0.0076-0.0094 0.02078-0.02834 0.0076-0.01134 0.03779-0.05858 0.01134-0.02078 0.01323-0.02268 0.03779-0.08313 0.0076-0.01134 0.0057-0.01512 0.04346-0.10769 0.0038-0.0094 0.0057-0.01512 0.04724-0.13981 0.0057-0.02456 0.0019-0.0019 0.04724-0.16626v-0.0057l0.0019-0.0076 0.05101-0.20027v-0.0019l0.0057-0.01889 0.05479-0.2494 0.0057-0.04157v0.01511l0.05668-0.28907 0.0038-0.03779v0.01322l0.06046-0.3382 0.0038-0.03401v0.01134l0.05479-0.34576-0.04157 0.04157 0.05291-0.10769 0.07747-0.51391 0.0019-0.01701 0.08124-0.60082 0.0019-0.01512 0.10013-0.7463v-0.01512l0.12439-1.0087 0.4081-3.3423 0.09635-0.73119 0.08502-0.58381 0.07558-0.48179 0.06802-0.3911 0.06046-0.32119 0.04346-0.19272 0.05479 0.26829 0.05858 0.31553 0.06613 0.38165 0.07369 0.46856 0.07935 0.54981 0.08691 0.66884 0.10958 0.86344 0.15304 1.264 0.25318 2.0689v0.01512l0.11147 0.86155 0.0019 0.01512 0.09258 0.66317 0.0019 0.01701 0.04913 0.33442v0.0019l0.22672 1.4813 0.38354-0.03023 0.0038-1.2791v-1.9801l-0.02456-0.19272-0.25129-2.0764-0.15304-1.2678v-0.0019l-0.10958-0.85211-0.0019-0.01701-0.08881-0.66128-0.0019-0.01701-0.07936-0.53658-0.0019-0.02079-0.0718-0.46101-0.0019-0.01889-0.06425-0.37221-0.0019-0.022668-0.06046-0.32308-0.01889-0.052902 0.01134 0.020783-0.05291-0.25129-0.0038-0.020783-0.0019-0.00378-0.04724-0.20972-0.0019-0.00378-0.0019-0.00756v-0.00189l-0.04883-0.18516-0.0076-0.022673v-0.00189l-0.04346-0.14359-0.0057-0.017004-0.0019-0.00567-0.04346-0.11903-0.0038-0.013226-0.0057-0.013225-0.04157-0.096357v-0.00189l-0.0076-0.017004-0.0076-0.011336-0.04157-0.077464-0.0057-0.011336-0.01512-0.024563-0.0076-0.011336-0.03779-0.052902-0.0076-0.00945-0.02645-0.032119-0.01512-0.017004-0.03968-0.037787-0.01701-0.013225-0.04912-0.037788-0.02078-0.015115-0.0359-0.020783-0.0359-0.015115-0.07936-0.026452-0.03023-0.00756-0.0359-0.00567-0.04157-0.00189-0.09258 0.00567-0.03779 0.00567-0.0359 0.00945-0.03023 0.011336-0.0718 0.032119-0.03212 0.017004-0.03779 0.026452-0.01512 0.013225-0.04346 0.037788-0.01701 0.015115-0.03779 0.041567-0.03402 0.045345-0.0094 0.011336-0.04157 0.066127-0.0038 0.00756-0.01322 0.022672-0.0057 0.011336-0.04346 0.088801-0.0038 0.00567-0.0076 0.017004-0.0019 0.00945-0.04346 0.11147-0.0038 0.00945-0.0038 0.011336-0.04534 0.13603-0.0019 0.00378-0.0076 0.020783-0.05101 0.18516v0.00378l-0.0019 0.00756v0.00189l-0.05291 0.21539-0.0057 0.018894-0.06046 0.28152-0.0038 0.041567v-0.015115l-0.06235 0.31175-0.0019 0.024563-0.06046 0.35142 0.01134-0.02267-0.01889 0.05857-0.0718 0.45723 0.01322-0.02456-0.01889 0.06235-0.07558 0.52336 0.04346-0.04346-0.0548 0.10958-0.09824 0.73686-0.0019 0.01701-0.40621 3.3347-0.12659 1.0184-0.09824 0.75575-0.08123 0.60649-0.07747 0.51013-0.06802 0.41755-0.06235 0.34764-0.05668 0.29852-0.03023 0.12848-0.01889-0.0869-0.06046-0.30797-0.06424-0.35898-0.07369-0.44967-0.08123-0.54792-0.09257-0.67451-0.11147-0.871-0.20216-1.6664-0.17571-1.4435v-0.01512l-0.11519-0.91856h-0.0019l-0.09069-0.69151-0.0019-0.01701-0.08123-0.56492-0.0019-0.01889-0.07179-0.46668-0.0019-0.02078-0.06802-0.39488-0.0019-0.020779-0.06235-0.34198-0.01889-0.054792 0.0094 0.020783-0.05101-0.25506-0.0057-0.020783v-0.00378l-0.05102-0.22484-0.0019-0.00378-0.0019-0.00756v-0.00189l-0.046995-0.18165-0.0019-0.00567-0.0038-0.017004-0.04534-0.14548v-0.00189l-0.0076-0.026451-0.04157-0.11714-0.0038-0.00756-0.0076-0.022673-0.04157-0.098247v-0.00378l-0.0076-0.017004-0.0057-0.011336-0.04157-0.079353-0.0057-0.00756-0.01322-0.022672-0.0076-0.013226-0.03967-0.056682-0.0094-0.011336-0.02456-0.03023-0.0094-0.011336-0.03779-0.039677-0.01512-0.015115-0.04534-0.037788-0.02835-0.018894-0.0359-0.020783-0.02268-0.011336-0.07369-0.03023-0.03401-0.00945-0.0359-0.00756-0.02645-0.00378-0.05291-0.00378h-0.01702z" color="#000000" color-rendering="auto" dominant-baseline="auto" fill="#fff" image-rendering="auto" shape-rendering="auto" solid-color="#000000" style="font-feature-settings:normal;font-variant-alternates:normal;font-variant-caps:normal;font-variant-ligatures:normal;font-variant-numeric:normal;font-variant-position:normal;isolation:auto;mix-blend-mode:normal;shape-padding:0;text-decoration-color:#000000;text-decoration-line:none;text-decoration-style:solid;text-indent:0;text-orientation:mixed;text-transform:none;white-space:normal"/>
    <g display="none" fill="none">
        <rect transform="rotate(90)" x="7.8232" y="-20.923" width="13.1" height="13.1" display="inline" stroke="#000" stroke-width=".070382"/>
        <rect x="7.2241" y="8.6528" width="14.298" height="11.441" stroke="#5261ff" stroke-linecap="round" stroke-linejoin="round" stroke-width=".069589"/>
        <rect transform="rotate(90)" x="7.2241" y="-20.094" width="14.298" height="11.441" display="inline" stroke="#0f0" stroke-linecap="round" stroke-linejoin="round" stroke-width=".069589"/>
    </g>
</svg>
