<?xml version="1.0" encoding="UTF-8"?>
<svg fill="none" viewBox="0 0 40 40" xmlns="http://www.w3.org/2000/svg">
    <g filter="url(#filter0_f)" opacity=".2">
        <path d="m6.4966 4.3023v2.3767h-2.408v26.937h2.408v3.1689h27.29v-3.1689h3.2106v-26.937h-3.2106v-2.3767h-27.29z" fill="#232323"/>
    </g>
    <path d="m34.161 4.1727h-28.323c-0.92013 0-1.666 0.74594-1.666 1.6661v28.323c0 0.9202 0.74591 1.6661 1.666 1.6661h28.323c0.9201 0 1.6661-0.7459 1.6661-1.6661v-28.323c0-0.92018-0.746-1.6661-1.6661-1.6661z" fill="#8BC34A"/>
    <path d="m5.8384 4.1715c-0.92299 0-1.6669 0.74384-1.6669 1.6668v0.46405c0-0.9231 0.74387-1.667 1.6669-1.667h28.322c0.923 0 1.6668 0.74387 1.6668 1.667v-0.46405c0-0.92296-0.7438-1.6668-1.6668-1.6668h-28.322z" fill="#fff" opacity=".2"/>
    <path d="m34.16 35.859c0.9229 0 1.6668-0.7438 1.6668-1.6668v-0.4639c0 0.9228-0.7439 1.6668-1.6668 1.6668h-28.322c-0.92289 0-1.6668-0.744-1.6668-1.6668v0.4639c0 0.923 0.7439 1.6668 1.6668 1.6668h28.322z" fill="#232323" opacity=".2"/>
    <path d="m18.229 29.684-0.1877-0.0355-0.1876-0.0355-0.1995-0.0473-0.1876-0.0355-0.176-0.0473-0.1525-0.0355 0.0587-0.1893 0.0938-0.3312 0.0469-0.1419 0.0352-0.142 0.0352-0.1301 0.0704-0.2366 0.2346 0.0592 0.2229 0.0473 0.4692 0.0946 0.2229 0.0355 0.2228 0.0237 0.2346 0.0236 0.2229 0.0237 0.2229 0.0118h0.2229l0.2228 0.0118 0.2112-0.0118h0.2229l0.2111-0.0118 0.2229-0.0237 0.2111-0.0236 0.2112-0.0237 0.2111-0.0355 0.2112-0.0355 0.2111-0.0473 0.1994-0.0473 0.2112-0.0473 0.1994-0.0592 0.1994-0.0591 0.2111-0.071 0.1995-0.071 0.1994-0.0709 0.1877-0.0829 0.1994-0.0828 0.1877-0.0946 0.1994-0.0946 0.1877-0.0947 0.2111-0.1419 0.1994-0.1301 0.1877-0.142 0.1994-0.1419 0.1877-0.1538 0.176-0.142 0.1759-0.1538 0.176-0.1656 0.1642-0.1537 0.1642-0.1656 0.1642-0.1775 0.1525-0.1656 0.1408-0.1774 0.1408-0.1775 0.1407-0.1892 0.129-0.1893 0.1291-0.1893 0.1056-0.2011 0.1173-0.1892 0.1055-0.213 0.0939-0.2011 0.0938-0.2129 0.0939-0.2129 0.0703-0.213 0.0704-0.2247 0.0704-0.2248 0.0587-0.2365 0.0469-0.2248 0.0469-0.2484 0.0352-0.2366 0.0234-0.2484 0.0235-0.2484v-0.556l-0.0117-0.142v-0.1301l-0.0118-0.1301-0.0234-0.142-0.0117-0.1301-0.0118-0.1301-0.0234-0.1301-0.0235-0.1301-0.0235-0.1302-0.0351-0.1301-0.0235-0.1301-0.0704-0.2602-0.0352-0.1183-0.0469-0.1302-0.0469-0.1183-0.0469-0.1301-0.047-0.1183-0.0469-0.1301-0.0586-0.1301-0.047-0.1183-0.0703-0.1183-0.0587-0.1301-0.0704-0.1183-0.0586-0.1183-0.0704-0.1301-0.0821-0.1183-0.0704-0.1183-0.1525-0.2129-0.1642-0.2011-0.1525-0.2011-0.176-0.2011-0.1642-0.1893-0.3519-0.3549-0.5631-0.4968-0.1994-0.1538-0.1877-0.1419-0.2111-0.142-0.1994-0.1301-0.2112-0.1301-0.2111-0.1183-0.2229-0.1183-0.2111-0.1065-0.2346-0.1064-0.2229-0.0947-0.2346-0.0946-0.2229-0.0828-0.2346-0.071-0.2463-0.071-0.2346-0.0591-0.2464-0.0592-0.2463-0.0591-0.2463-0.0355-0.5162-0.071-0.258-0.0236-0.2581-0.0119h-0.3754l-0.3636 0.0119-0.3754 0.0236-0.3636 0.0355-0.3519 0.0473-0.3519 0.071-0.3519 0.0828-0.3402 0.0947-0.3285 0.1064-0.3284 0.1183-0.3285 0.1301-0.3167 0.142-0.305 0.1538-0.2932 0.1774-0.2933 0.1774-0.2815 0.2011-0.2698 0.2011-0.2698 0.213-0.2581 0.2365-0.2463 0.2366-0.2346 0.2484-0.2229 0.2721-0.2111 0.2721-0.1994 0.2839-0.1877 0.2957-0.176 0.3076-0.1642 0.3075-0.1525 0.3313-0.1408 0.3312-0.129 0.343-0.1056 0.3549-0.0938 0.3667-0.0235-0.1419-0.0117-0.1302-0.0117-0.1301-0.0118-0.1301-0.0117-0.1419-0.0117-0.1302v-0.6742l0.0117-0.142 0.0117-0.1301 0.0118-0.142 0.0234-0.1301 0.0118-0.1419 0.0234-0.1302 0.0235-0.1301 0.0234-0.1419 0.0235-0.1302 0.1408-0.5204 0.0469-0.1183 0.0469-0.1302 0.0469-0.1183 0.0469-0.1301 0.0587-0.1183 0.0469-0.1183 0.0587-0.1182 0.0704-0.1183 0.0938-0.1183 0.1056-0.1183 0.1173-0.1301 0.1173-0.1183 0.1407-0.1302 0.1291-0.1301 0.305-0.2602 0.1759-0.142 0.176-0.1301 0.1877-0.1301 0.1994-0.1301 0.2111-0.1302 0.2229-0.1301 0.2346-0.1419 0.2581-0.1302 0.2815-0.1419 0.2815-0.1301 0.2933-0.1183 0.2932-0.1183 0.305-0.1065 0.2933-0.0946 0.305-0.0828 0.3049-0.071 0.305-0.071 0.3167-0.0591 0.305-0.0473 0.3168-0.0355 0.3049-0.0237 0.3168-0.0236 0.3167-0.0119 0.3167 0.0119 0.6334 0.0236 0.6335 0.071 0.3049 0.0473 0.3168 0.0592 0.305 0.0709 0.3049 0.071 0.3168 0.0946 0.3049 0.0947 0.2933 0.1064 0.305 0.1183 0.2932 0.1183 0.2933 0.142 0.2815 0.1419 0.2933 0.1538 0.2932 0.1893 0.2933 0.1892 0.2815 0.2011 0.2698 0.213 0.2698 0.2129 0.2581 0.2248 0.2346 0.2247 0.2463 0.2366 0.4458 0.4968 0.2111 0.2603 0.1877 0.2602 0.1877 0.2603 0.1759 0.272 0.1643 0.2839 0.1525 0.2839 0.1407 0.2958 0.1291 0.2957 0.129 0.2957 0.1056 0.3076 0.0938 0.3194 0.0821 0.3194 0.0704 0.3194 0.0469 0.3193 0.0469 0.3313 0.0235 0.343 0.0235 0.3312v0.3431l-0.0235 0.3549-0.0235 0.3548-0.0469 0.3549-0.0586 0.3549-0.0587 0.2247-0.0586 0.2248-0.0704 0.2248-0.0704 0.2129-0.1642 0.4258-0.0821 0.213-0.0939 0.2011-0.0938 0.2011-0.1056 0.2011-0.1056 0.1892-0.1055 0.1893-0.1173 0.1893-0.1173 0.1892-0.1291 0.1775-0.258 0.3548-0.1408 0.1775-0.1408 0.1774-0.1525 0.1656-0.1407 0.1538-0.3167 0.3194-0.176 0.1538-0.1642 0.1538-0.176 0.1537-0.1759 0.142-0.176 0.1419-0.1877 0.142-0.1876 0.1419-0.1995 0.1302-0.1994 0.1301-0.1759 0.1065-0.1877 0.1064-0.1877 0.0947-0.3754 0.1892-0.1994 0.0828-0.1877 0.0828-0.1994 0.0828-0.2111 0.071-0.1994 0.071-0.1995 0.0591-0.2111 0.0592-0.2111 0.0591-0.2112 0.0473-0.2111 0.0474-0.2112 0.0354-0.2111 0.0474-0.2112 0.0354-0.2228 0.0237-0.2112 0.0237-0.2229 0.0236-0.2111 0.0119-0.2229 0.0118-0.2111 0.0118-0.2229 0.0118h-0.2229l-0.2111-0.0118-0.2229-0.0118-0.2111-0.0118-0.2229-0.0119-0.2112-0.0236-0.2228-0.0237-0.1291-0.0237-0.1525-0.0236z" fill="#fff"/>
    <path d="m28.106 20.043 0.0118 0.1182 0.0234 0.1183 0.0117 0.1183 0.0118 0.1183 0.0117 0.1183v0.1183l0.0117 0.1183v0.485l-0.0117 0.1183v0.1301l-0.0117 0.1183-0.0118 0.1183-0.0117 0.1301-0.0234 0.1183-0.0118 0.1301-0.0352 0.1183-0.0117 0.1302-0.0352 0.1182-0.0234 0.1302-0.0704 0.2366-0.0352 0.1301-0.0352 0.1183-0.0469 0.1183-0.047 0.1182-0.0469 0.1302-0.0586 0.1183-0.1173 0.1419-0.1173 0.1538-0.1291 0.142-0.129 0.1537-0.129 0.142-0.1291 0.1419-0.1407 0.142-0.1408 0.1419-0.129 0.1302-0.1408 0.1301-0.1407 0.1301-0.1525 0.1183-0.1408 0.1183-0.1525 0.1183-0.1408 0.1064-0.1525 0.1065-0.1642 0.0946-0.1525 0.0947-0.3284 0.1892-0.1642 0.0828-0.1525 0.0829-0.1643 0.0828-0.1642 0.0709-0.1525 0.071-0.3284 0.142-0.1643 0.0591-0.1642 0.0591-0.1642 0.0592-0.1642 0.0591-0.1643 0.0474-0.1642 0.0473-0.1759 0.0473-0.1643 0.0355-0.1759 0.0473-0.176 0.0355-0.1759 0.0355-0.176 0.0236-0.1877 0.0237-0.1759 0.0355-0.1877 0.0118-0.1877 0.0237-0.1877 0.0118-0.1994 0.0236-0.1994 0.0119h-0.1994l-0.1994 0.0118-0.1994-0.0118h-0.3754l-0.1994-0.0119-0.1877-0.0236-0.1877-0.0118-0.1877-0.0237-0.1877-0.0236-0.1994-0.0237-0.1877-0.0355-0.1759-0.0237-0.1877-0.0354-0.1877-0.0474-0.1877-0.0473-0.1876-0.0355-0.176-0.0473-0.1877-0.0591-0.1759-0.0592-0.1877-0.0591-0.176-0.0592-0.1759-0.0709-0.176-0.071-0.1759-0.071-0.176-0.071-0.1642-0.0828-0.176-0.0828-0.3284-0.1892-0.1642-0.0947-0.1643-0.0946-0.1642-0.1065-0.1642-0.1064 0.0469-0.1538 0.0469-0.1656 0.0469-0.1538 0.047-0.1656 0.0469-0.1538 0.0938-0.3312 0.047-0.1538 0.1055 0.0828 0.2112 0.1656 0.1173 0.071 0.1055 0.0828 0.1056 0.071 0.1173 0.0709 0.1056 0.071 0.1173 0.0592 0.1056 0.0591 0.1173 0.071 0.1055 0.0473 0.1173 0.0591 0.1173 0.0592 0.1056 0.0473 0.1173 0.0473 0.1173 0.0592 0.1173 0.0473 0.1173 0.0355 0.1173 0.0473 0.2346 0.0828 0.2346 0.071 0.2464 0.071 0.2346 0.0591 0.2463 0.0591 0.2464 0.0474 0.2111 0.0355 0.2111 0.0354 0.2112 0.0237 0.2229 0.0237 0.6686 0.0354h0.2229l0.2228-0.0118 0.4458-0.0236 0.2346-0.0237 0.2229-0.0355 0.2346-0.0236 0.2229-0.0474 0.2228-0.0473 0.2346-0.0473 0.2229-0.0591 0.2229-0.071 0.2346-0.071 0.2111-0.071 0.2229-0.0828 0.2229-0.0946 0.2229-0.1065 0.2111-0.0946 0.2229-0.1183 0.2111-0.1183 0.2112-0.1183 0.2111-0.1419 0.1994-0.1302 0.1995-0.1537 0.1994-0.1538 0.1994-0.1656 0.1877-0.1656 0.3519-0.3313 0.1642-0.1656 0.1642-0.1774 0.0704-0.0828 0.0821-0.0946 0.0704-0.0947 0.0704-0.0828 0.0704-0.0946 0.0703-0.0947 0.1408-0.1892 0.0704-0.0947 0.0586-0.0946 0.0587-0.1065 0.0704-0.0946 0.0586-0.1065 0.0587-0.1064 0.0586-0.1065 0.0469-0.1064 0.0587-0.1065 0.0469-0.1065 0.0587-0.1183 0.0469-0.1064 0.0821-0.2011 0.0704-0.2011 0.0704-0.1893 0.0586-0.2011 0.0587-0.2011 0.0938-0.4022 0.0352-0.2129 0.0235 0.1183 0.0234 0.1065z" fill="#fff"/>
    <path d="m13.326 19.463h2.3695l0.0469-0.0118 0.0352-0.0237 0.0469-0.0118 0.0352-0.0236 0.0352-0.0237 0.0938-0.0946 0.0235-0.0237 0.0235-0.0473 0.0234-0.0355 0.0118-0.0355 0.0351-0.1065 0.0118-0.0354v-0.0829l-0.0118-0.0354-0.0234-0.071-0.0117-0.0237-0.0235-0.0236-0.0117-0.0355-0.0352-0.0119-0.0235-0.0236-0.0352-0.0118-0.0469-0.0119-0.0352-0.0118-0.0469-0.0118h-2.5689l0.0469-0.2011 0.0586-0.1893 0.0587-0.2011 0.0586-0.2011 0.047-0.1892 0.0586-0.2011 0.0587-0.1893 0.0586-0.1893h3.1437l0.1173 0.0118 0.1291 0.0119 0.1055 0.0118 0.1173 0.0237 0.1056 0.0236 0.0469 0.0118 0.0587 0.0237 0.0469 0.0118 0.0938 0.0474 0.047 0.0236 0.0352 0.0355 0.0469 0.0237 0.0469 0.0236 0.1056 0.1065 0.0352 0.0473 0.0234 0.0355 0.0352 0.0473 0.0235 0.0473 0.0234 0.0473 0.0235 0.0474 0.0235 0.0591 0.0117 0.0591 0.0352 0.0828 0.0117 0.0947 0.0117 0.0946 0.0118 0.0947v0.2011l-0.0118 0.0946-0.0117 0.0946-0.0117 0.1065-0.0118 0.0946-0.0351 0.0946-0.0235 0.0947-0.0235 0.1064-0.0352 0.0947-0.0469 0.0946-0.0352 0.0947-0.0938 0.1892-0.0469 0.0828-0.0587 0.0947-0.0586 0.0828-0.047 0.0828-0.0703 0.0828-0.0587 0.0709-0.0586 0.0829-0.0704 0.0709-0.1408 0.142-0.0704 0.0591-0.0703 0.0592-0.0704 0.0591-0.0821 0.0473-0.1056 0.0592-0.1056 0.0473-0.1056 0.0591-0.1173 0.0355-0.1055 0.0473-0.1173 0.0237-0.1056 0.0355-0.1173 0.0237-0.1173 0.0236-0.1056 0.0237-0.1173 0.0118-0.1056 0.0118-0.1173 0.0119h-1.0674l-0.1408 0.5204-0.0704 0.2485-0.0821 0.2484-0.0704 0.2602-0.0703 0.2484-0.0704 0.2484-0.0704 0.2485-0.0704 0.2484-0.0704 0.2602-0.0703 0.2484-0.0704 0.2484-0.0821 0.2603-0.0704 0.2602-0.0704 0.2485-0.0704 0.2602-0.0821-0.071-0.0821-0.0828-0.0939-0.0828-0.1055-0.0946-0.0939-0.1065-0.1055-0.1065-0.0939-0.1064-0.1056-0.1183-0.0938-0.1183-0.1056-0.1183-0.0938-0.1183-0.0821-0.1183-0.0939-0.1064-0.0703-0.1065-0.0704-0.1065-0.0587-0.0828 0.0821-0.2839 0.0821-0.2721 0.0704-0.272 0.0821-0.2603 0.1408-0.4968 0.0704-0.2366 0.0704-0.2484 0.0586-0.2366 0.0704-0.2366 0.0704-0.2365 0.0586-0.2248 0.2112-0.7098 0.0586-0.2484h0.3285z" fill="#fff"/>
    <path d="m18.663 23.45h-1.4428l0.0821-0.2484 0.0704-0.2603 0.2112-0.7452 0.0703-0.2484 0.0704-0.2484 0.0704-0.2603 0.2112-0.7452 0.0821-0.2484 0.0703-0.2485 0.0587-0.2484 0.0821-0.2484 0.0704-0.2484h1.912l-0.0704 0.2484-0.0703 0.2484-0.0704 0.2484-0.0704 0.2485-0.1408 0.4968-0.0703 0.2484-0.0822 0.2484-0.0703 0.2603-0.2816 0.9936-0.0703 0.2484-0.0704 0.2603-0.0704 0.2484h-0.481z" fill="#fff"/>
    <path d="m22.428 23.438h-2.2053l0.0704-0.2365 0.0703-0.2603 0.2816-0.9936 0.0703-0.2485 0.0822-0.2484 0.0703-0.2602 0.1408-0.4968 0.0704-0.2485 0.1408-0.4968 0.0703-0.2484 0.0704-0.2484h1.9121l-0.0939 0.2957-0.0821 0.3076-0.0938 0.3194-0.0939 0.3194-0.0821 0.3075-0.0938 0.3076-0.0822 0.3075-0.0821 0.2958 0.176-0.0119h0.1642l0.1642-0.0236 0.1525-0.0119 0.0821-0.0118 0.0704-0.0118 0.0821-0.0118 0.0704-0.0237 0.0704-0.0118 0.0704-0.0237 0.0704-0.0236 0.0703-0.0237 0.0704-0.0355 0.0587-0.0237 0.0704-0.0354 0.0703-0.0355 0.0704-0.0355 0.0587-0.0473 0.0704-0.0355 0.0586-0.0473 0.0587-0.0592 0.0586-0.0473 0.0704-0.0591 0.0586-0.0592 0.0587-0.0591 0.0704-0.071 0.0586-0.071 0.0587-0.0828 0.0704-0.1065 0.0703-0.1182 0.0822-0.1183 0.0586-0.142 0.0352-0.0591 0.0352-0.071 0.0234-0.071 0.0235-0.071 0.0235-0.0828 0.0234-0.0709 0.0235-0.071 0.0117-0.071 0.0117-0.0828 0.0118-0.071v-0.2129l-0.0118-0.071-0.0117-0.071-0.0117-0.0709-0.0235-0.071-0.0352-0.0591-0.0234-0.071-0.0469-0.0592-0.0352-0.0591-0.0587-0.0592-0.0586-0.0473-0.0587-0.0591-0.0352-0.0237-0.0352-0.0118-0.0469-0.0237-0.0352-0.0118-0.0469-0.0118-0.0352-0.0119-0.0938-0.0236-0.0821-0.0119-0.0822-0.0118h-2.8856l0.0586-0.2011 0.0587-0.2011 0.0586-0.2011 0.0587-0.1892 0.0469-0.2011 0.0587-0.2011 0.0586-0.1893 0.0587-0.2011h0.8915l0.1759-0.0118h1.7948l0.1994 0.0118 0.1759 0.0237 0.176 0.0236 0.1759 0.0355 0.1525 0.0473 0.1525 0.0592 0.1408 0.0591 0.129 0.0828 0.1291 0.0828 0.1173 0.0828 0.1055 0.0947 0.1056 0.1064 0.1642 0.2366 0.0704 0.1183 0.0704 0.1301 0.0586 0.142 0.047 0.1301 0.0352 0.1538 0.0351 0.1419 0.0118 0.1538 0.0234 0.1538v0.3312l-0.0117 0.1538-0.0235 0.1656-0.0234 0.1774-0.0352 0.1656-0.0469 0.1775-0.0587 0.1656-0.0586 0.1774-0.0704 0.1656-0.0587 0.142-0.0703 0.1301-0.0704 0.1301-0.0704 0.1183-0.0821 0.1183-0.0704 0.1183-0.0821 0.1183-0.0821 0.1065-0.0939 0.1064-0.0821 0.1065-0.0938 0.0946-0.0939 0.0947-0.0938 0.0828-0.1056 0.0946-0.1056 0.0828-0.0938 0.0828-0.1173 0.071-0.1056 0.0828-0.1173 0.071-0.1055 0.0591-0.1174 0.071-0.129 0.0591-0.129 0.0474-0.1173 0.0591-0.1291 0.0473-0.129 0.0473-0.1407 0.0474-0.1408 0.0473-0.129 0.0355-0.1408 0.0354-0.1525 0.0355-0.1408 0.0237-0.0938 0.0118-0.0938 0.0119-0.0822 0.0118-0.0938 0.0118-0.0821 0.0118h-0.1877l-0.0821 0.0119-0.1642-0.0119h-0.1525z" fill="#fff"/>
    <path d="m19.648 10.024-0.3636 0.0236-0.352 0.0355-0.3636 0.0473-0.7038 0.142-0.3519 0.0828-0.3402 0.0946-0.3519 0.1065-0.3402 0.1183-0.3284 0.1183-0.3285 0.1419-0.3167 0.142-0.3167 0.1537-0.305 0.1657-0.305 0.1774-0.2932 0.1774-0.2816 0.2011-0.2815 0.2011-0.2581 0.213-0.258 0.2129-0.2464 0.2247-0.2346 0.2366-0.2228 0.2484-0.2112 0.2485-0.1994 0.2602-0.1877 0.2721-0.1759 0.272-0.1643 0.2839-0.1055 0.2011-0.1056 0.213-0.0939 0.2129-0.0938 0.2129-0.0821 0.2129-0.0821 0.213-0.0704 0.2247-0.0704 0.213-0.0586 0.2129-0.0587 0.2247-0.0469 0.213-0.0469 0.2247-0.0352 0.2248-0.0235 0.2129-0.0352 0.2248-0.0117 0.2247-0.0117 0.2248-0.0118 0.2247v0.4495l0.0118 0.2248 0.0117 0.2247 0.0235 0.2248 0.0351 0.2248 0.0352 0.2247 0.0352 0.2248 0.047 0.2247 0.0586 0.2366 0.0587 0.2248 0.0586 0.2247 0.0821 0.2248 0.0704 0.2247 0.0352 0.0828 0.0352 0.0947 0.0352 0.0828 0.0469 0.0828 0.0821-0.2839 0.0821-0.2957 0.0821-0.284 0.0821-0.2839 0.0822-0.2957 0.2463-0.8517-0.0235-0.1656-0.0234-0.1656-0.0118-0.1656-0.0117-0.1656v-0.1656l-0.0117-0.1656 0.0117-0.1657v-0.1774l0.0117-0.1656 0.0118-0.1656 0.0117-0.1656 0.0235-0.1656 0.0117-0.1656 0.0352-0.1657 0.0234-0.1656 0.0352-0.1537 0.047-0.1657 0.0351-0.1656 0.047-0.1537 0.0469-0.1657 0.0586-0.1537 0.0587-0.1538 0.0586-0.1538 0.1408-0.3076 0.0704-0.1537 0.0704-0.142 0.0938-0.1419 0.0821-0.142 0.0821-0.1419 0.1056-0.142 0.0938-0.1301 0.1643-0.2248 0.1642-0.2129 0.1642-0.2011 0.1877-0.2011 0.176-0.1893 0.1876-0.1774 0.1995-0.1774 0.1876-0.1656 0.2112-0.1657 0.1994-0.1537 0.2111-0.142 0.2229-0.1419 0.2229-0.1302 0.2229-0.1301 0.2228-0.1183 0.2346-0.1183 0.2347-0.1064 0.2346-0.0947 0.2463-0.0946 0.2463-0.0828 0.2464-0.071 0.2463-0.071 0.2581-0.0709 0.2463-0.0592 0.2581-0.0473 0.258-0.0355 0.2698-0.0473 0.2581-0.0237 0.2581-0.0236 0.2698-0.0237h0.2698l0.2698-0.0118h0.1524l0.1408 0.0118h0.1408l0.129 0.0119 0.129 0.0118 0.1291 0.0118 0.1173 0.0118 0.1173 0.0119 0.1056 0.0236 0.1173 0.0237 0.1055 0.0236 0.2346 0.0474 0.1173 0.0355 0.1173 0.0354 0.1291 0.0355 0.0586-0.2011 0.0352-0.1656 0.0352-0.1301 0.0352-0.1065 0.0352-0.1064 0.0352-0.1183 0.0352-0.142 0.0586-0.1892-0.1759-0.0592-0.176-0.0355-0.1642-0.0473-0.176-0.0236-0.1759-0.0355-0.1994-0.0237-0.2112-0.0237-0.2346-0.0354-0.3636-0.0119-0.3637-0.0118h-0.3519l-0.3636 0.0237z" fill="#fff"/>
    <path d="m19.519 17.074h1.4428l-0.0587 0.1893-0.0586 0.2011-0.0469 0.2011-0.0587 0.2011-0.0586 0.2011-0.0587 0.2011-0.0586 0.1892-0.0587 0.2011h-1.912l0.0469-0.1774 0.0586-0.2011 0.0704-0.2248 0.0587-0.2365 0.0704-0.2248 0.0586-0.2129 0.0469-0.1775 0.0469-0.1301h0.4693z" fill="#fff"/>
    <defs>
        <filter id="filter0_f" x="3.3838" y="3.5974" width="34.319" height="33.893" color-interpolation-filters="sRGB" filterUnits="userSpaceOnUse">
            <feFlood flood-opacity="0" result="BackgroundImageFix"/>
            <feBlend in="SourceGraphic" in2="BackgroundImageFix" result="shape"/>
            <feGaussianBlur result="effect1_foregroundBlur" stdDeviation="0.352455"/>
        </filter>
    </defs>
</svg>
