<?xml version="1.0" encoding="UTF-8"?>
<svg version="1.1" viewBox="0 0 28.747 28.747" xmlns="http://www.w3.org/2000/svg">
    <defs>
        <filter id="filter6206-7" color-interpolation-filters="sRGB">
            <feGaussianBlur stdDeviation="0.658125"/>
        </filter>
    </defs>
    <g transform="translate(0 -1093.8)">
        <path transform="matrix(1.0781 0 0 1.0641 -.093733 2.7509)" d="m4.4177 1028.2v1.6051h-1.6052v18.192h1.6052v2.1402h18.192v-2.1402h2.1402v-18.192h-2.1402v-1.6051z" fill="#232323" filter="url(#filter6206-7)" opacity=".2"/>
        <rect x="2.9987" y="1096.8" width="22.749" height="22.749" rx="1.1973" ry="1.1974" fill="#232323"/>
        <g transform="translate(-22.32 1056.5)">
            <path d="m0 0h51.2v51.2h-51.2z" fill="none" stroke-width="1.0667"/>
            <g transform="matrix(.33601 0 0 .33601 1.5296 73.043)">
                <path d="m0 0h51.2v51.2h-51.2z" fill="none" stroke-width="1.0667"/>
            </g>
            <g transform="matrix(.37187 0 0 .37187 38.802 63.239)">
                <path d="m0 0h51.2v51.2h-51.2z" fill="none" stroke-width="1.0667"/>
                <g transform="matrix(2.6891 0 0 2.6891 -82.906 -48.45)">
                    <path d="m0 0h51.2v51.2h-51.2z" fill="none" stroke-width="1.0667"/>
                </g>
            </g>
        </g>
        <path d="m4.1958 1096.8c-0.66332 0-1.1979 0.5346-1.1979 1.1979v0.3334c0-0.6634 0.53459-1.1979 1.1979-1.1979h20.354c0.66332 0 1.1979 0.5345 1.1979 1.1979v-0.3334c0-0.6633-0.5346-1.1979-1.1979-1.1979z" fill="#fff" opacity=".2"/>
        <rect x="128" y="546.52" width="42.667" height="42.667" fill="none" stroke-width="1.0667"/>
        <rect x="128" y="631.85" width="42.667" height="42.667" fill="none" stroke-width="1.0667"/>
        <rect x="128" y="674.52" width="42.667" height="42.667" fill="none" stroke-width="1.0667"/>
        <rect x="128" y="589.19" width="42.667" height="42.667" fill="none" stroke-width="1.0667"/>
        <rect x="128" y="717.19" width="42.667" height="42.667" fill="none" stroke-width="1.0667"/>
        <rect x="213.33" y="546.52" width="42.667" height="42.667" fill="none" stroke-width="1.0667"/>
        <rect x="213.33" y="631.85" width="42.667" height="42.667" fill="none" stroke-width="1.0667"/>
        <rect x="213.33" y="674.52" width="42.667" height="42.667" fill="none" stroke-width="1.0667"/>
        <rect x="213.33" y="589.19" width="42.667" height="42.667" fill="none" stroke-width="1.0667"/>
        <rect x="213.33" y="717.19" width="42.667" height="42.667" fill="none" stroke-width="1.0667"/>
        <rect x="298.67" y="546.52" width="42.667" height="42.667" fill="none" stroke-width="1.0667"/>
        <rect x="298.67" y="631.85" width="42.667" height="42.667" fill="none" stroke-width="1.0667"/>
        <rect x="298.67" y="674.52" width="42.667" height="42.667" fill="none" stroke-width="1.0667"/>
        <rect x="298.67" y="589.19" width="42.667" height="42.667" fill="none" stroke-width="1.0667"/>
        <rect x="298.67" y="717.19" width="42.667" height="42.667" fill="none" stroke-width="1.0667"/>
        <rect x="170.67" y="546.52" width="42.667" height="42.667" fill="none" stroke-width="1.0667"/>
        <rect x="170.67" y="631.85" width="42.667" height="42.667" fill="none" stroke-width="1.0667"/>
        <rect x="170.67" y="674.52" width="42.667" height="42.667" fill="none" stroke-width="1.0667"/>
        <rect x="170.67" y="589.19" width="42.667" height="42.667" fill="none" stroke-width="1.0667"/>
        <rect x="170.67" y="717.19" width="42.667" height="42.667" fill="none" stroke-width="1.0667"/>
        <rect x="256" y="546.52" width="42.667" height="42.667" fill="none" stroke-width="1.0667"/>
        <rect x="256" y="631.85" width="42.667" height="42.667" fill="none" stroke-width="1.0667"/>
        <rect x="256" y="674.52" width="42.667" height="42.667" fill="none" stroke-width="1.0667"/>
        <rect x="256" y="589.19" width="42.667" height="42.667" fill="none" stroke-width="1.0667"/>
        <rect x="256" y="717.19" width="42.667" height="42.667" fill="none" stroke-width="1.0667"/>
        <rect x="128" y="759.85" width="42.667" height="42.667" fill="none" stroke-width="1.0667"/>
        <rect x="213.33" y="759.85" width="42.667" height="42.667" fill="none" stroke-width="1.0667"/>
        <rect x="298.67" y="759.85" width="42.667" height="42.667" fill="none" stroke-width="1.0667"/>
        <rect x="170.67" y="759.85" width="42.667" height="42.667" fill="none" stroke-width="1.0667"/>
        <rect x="256" y="759.85" width="42.667" height="42.667" fill="none" stroke-width="1.0667"/>
        <rect x="341.33" y="589.19" width="42.667" height="42.667" fill="none" stroke-width="1.0667"/>
        <rect x="341.33" y="631.85" width="42.667" height="42.667" fill="none" stroke-width="1.0667"/>
        <rect x="341.33" y="717.19" width="42.667" height="42.667" fill="none" stroke-width="1.0667"/>
        <rect x="341.33" y="546.52" width="42.667" height="42.667" fill="none" stroke-width="1.0667"/>
        <rect x="341.33" y="674.52" width="42.667" height="42.667" fill="none" stroke-width="1.0667"/>
        <rect x="341.33" y="759.85" width="42.667" height="42.667" fill="none" stroke-width="1.0667"/>
        <rect x="160" y="578.52" width="192" height="192" fill="none" stroke-width="1.0667"/>
        <g transform="matrix(.37344 0 0 .37344 4.7333 1097.4)">
            <path d="m0 0h51.2v51.2h-51.2z" fill="none" stroke-width="1.0667"/>
        </g>
        <g transform="matrix(.36471 0 0 .36471 5.1356 1097.4)">
            <path d="m0 0h51.2v51.2h-51.2z" fill="none" stroke-width="1.0667"/>
        </g>
        <g transform="matrix(.41585 0 0 .41585 84.325 1055.9)">
            <g transform="matrix(.062269 0 0 .062269 -28.238 185.29)">
                <g transform="matrix(38.618 0 0 38.618 14724 -13542)">
                    <g transform="matrix(.71436 0 0 .71436 -400.52 188.34)">
                        <path d="m1293.2-120.67c-181.75 0.2763-511.18 0.13525-699.05 0.13998-2.3216 10.413-3.593 21.251-3.593 32.384v114c207.65 0.73695 494.72 0.38136 706.23 0.3733v-114.37c0-11.18-1.2522-22.07-3.593-32.523zm-458.69 295.56c-78.385-4e-3 -158.85 0.17892-243.95 0.55995v138.63c286.34-0.39317 421.73-0.13827 706.23-0.32664v-137.75c-163.2-0.53005-311.22-1.1113-462.28-1.1199z" opacity="0" stroke-width="1.4932"/>
                    </g>
                </g>
            </g>
        </g>
        <path d="m24.549 1119.5c0.66325 0 1.1979-0.5346 1.1979-1.1979v-0.3333c0 0.6632-0.53461 1.1978-1.1979 1.1978h-20.354c-0.66325 0-1.1979-0.5346-1.1979-1.1978v0.3333c0 0.6633 0.53461 1.1979 1.1979 1.1979z" fill="#232323" opacity=".2"/>
    </g>
    <flowRoot fill="#232323" font-family="Roboto" font-size="12.8px" letter-spacing="0px" stroke-width="1.0667px" word-spacing="0px" style="line-height:0.01%" xml:space="preserve"><flowRegion><rect x="11.375" y="11.984" width="4.7893" height="5.388" stroke-width="1.1378px"/></flowRegion><flowPara font-size="4px" style="line-height:1.25">your</flowPara></flowRoot>
    <g transform="matrix(1.0721 0 0 1.0721 -.10033 -.075198)" fill="#fff">
        <path d="m9.3203 6.8203c1.207 0.03125 2.1445 0.38672 2.7891 1.0312 0.57422 0.57422 0.82031 1.4688 0.95703 2.4492-0.10938-0.13672-0.16406-0.25-0.30078-0.40234-0.3125-0.34375-0.68359-0.71484-1.0391-1.0586-0.71094-0.68359-1.3633-1.2422-1.3672-1.2461-0.0039 0-0.04297-0.03125-0.04687-0.03125 0 0-0.04297-0.00781-0.04297-0.00781s-0.04297 0.00781-0.04297 0.00781l-0.04297 0.03125c-0.0039 0-0.03125 0.046875-0.03125 0.050781-0.0039 0-0.0078 0.046875-0.0078 0.050781 0 0 0.01172 0.035157 0.01172 0.035157s0.02344 0.035156 0.02344 0.035156l0.0039 0.00781s0.63281 0.55078 1.25 1.2148c0.30859 0.33203 0.61328 0.69531 0.83203 1.0273 0.16406 0.25 0.20312 0.4375 0.24219 0.61719-1.5313-0.25781-3.0078-1.3867-3.1875-3.8125z"/>
        <path d="m16 8.2305c0.0039 0.72656-0.22656 1.3398-0.69531 1.7578-0.46875 0.42578-1.1367 0.64453-1.8359 0.71094 0.24609-1.4258 0.91406-2.0352 1.5234-2.3047 0.53125-0.23438 0.89062-0.17578 1.0078-0.16406z"/>
        <path d="m10.609 13.973c0.41016-0.01563 0.82031 0.10156 1.1406 0.375 0.31641 0.26953 0.54688 0.69141 0.59375 1.293-0.0039 0.47266-0.19531 0.90234-0.39062 1.3516-0.19922 0.45312-0.39844 0.92969-0.35938 1.4844 0.01953 0.34375 0.13281 0.58203 0.24609 0.81641l-2.2617-2.2617c-0.36719-0.37109-0.57422-0.87109-0.57422-1.3945 0-1.0469 0.78906-1.625 1.6055-1.6641z"/>
        <path d="m13.504 16.797c0.47266 0 0.89844 0.19141 1.3477 0.39062 0.45313 0.19922 0.92578 0.39453 1.4805 0.35547 0.34766-0.01953 0.58594-0.12891 0.82031-0.24219l-2.2617 2.2578c-0.36719 0.37109-0.87109 0.57422-1.3945 0.57422-1.0469 0-1.625-0.78906-1.6602-1.6055-0.01953-0.40625 0.10156-0.82031 0.375-1.1367 0.26953-0.32031 0.6875-0.54688 1.293-0.59375z"/>
        <path d="m15.16 11.984 2.2578 2.2617c0.37109 0.37109 0.57812 0.87109 0.57812 1.3945 0 1.0508-0.78906 1.625-1.6055 1.6602-0.41016 0.01953-0.82031-0.10156-1.1406-0.37109-0.31641-0.26953-0.54688-0.69141-0.59375-1.293 0-0.47266 0.19531-0.90234 0.39062-1.3516 0.19922-0.45312 0.39844-0.92578 0.35938-1.4805-0.01953-0.34766-0.13281-0.58594-0.24609-0.82031z"/>
        <path d="m13.512 11.145c1.0469 0 1.625 0.78516 1.6641 1.6016 0.01563 0.41016-0.10547 0.82031-0.375 1.1406-0.26953 0.31641-0.69141 0.54688-1.293 0.59375-0.47266 0-0.90234-0.19531-1.3516-0.39062-0.44922-0.19922-0.92578-0.39844-1.4805-0.35938-0.34375 0.01953-0.58203 0.13281-0.81641 0.24609l2.2578-2.2578c0.36719-0.37109 0.87109-0.57812 1.3945-0.57422z"/>
    </g>
</svg>
