<?xml version="1.0" encoding="UTF-8"?>
<svg version="1.1" viewBox="0 0 26.95 26.95" xmlns="http://www.w3.org/2000/svg">
    <defs>
        <filter id="filter6206-7" color-interpolation-filters="sRGB">
            <feGaussianBlur stdDeviation="0.658125"/>
        </filter>
    </defs>
    <g transform="translate(0 -1025.4)">
        <path transform="matrix(1.0107 0 0 .99762 -.087875 2.579)" d="m4.4177 1028.2v1.6051h-1.6052v18.192h1.6052v2.1402h18.192v-2.1402h2.1402v-18.192h-2.1402v-1.6051h-18.192z" fill="#1a237e" filter="url(#filter6206-7)" opacity=".2"/>
        <rect x="2.8113" y="1028.2" width="21.327" height="21.327" rx="1.1225" ry="1.1226" fill="#232323"/>
        <g transform="translate(-20.925 990.46)">
            <path d="m0 0h48v48h-48z" fill="none"/>
            <g transform="matrix(.33601 0 0 .33601 1.434 68.477)">
                <path d="m0 0h48v48h-48z" fill="none"/>
            </g>
            <g transform="matrix(.37187 0 0 .37187 36.377 59.287)">
                <path d="m0 0h48v48h-48z" fill="none"/>
                <g transform="matrix(2.6891 0 0 2.6891 -77.724 -45.422)">
                    <path d="m0 0h48v48h-48z" fill="none"/>
                </g>
            </g>
        </g>
        <path transform="translate(0 1025.4)" d="m3.9336 2.8105c-0.62186 0-1.123 0.50115-1.123 1.123v0.3125c0-0.6219 0.50118-1.123 1.123-1.123h19.082c0.62186 0 1.123 0.50115 1.123 1.123v-0.3125c0-0.6219-0.50118-1.123-1.123-1.123h-19.082z" fill="#fff" opacity=".2"/>
        <rect x="120" y="512.36" width="40" height="40" fill="none"/>
        <rect x="120" y="592.36" width="40" height="40" fill="none"/>
        <rect x="120" y="632.36" width="40" height="40" fill="none"/>
        <rect x="120" y="552.36" width="40" height="40" fill="none"/>
        <rect x="120" y="672.36" width="40" height="40" fill="none"/>
        <rect x="200" y="512.36" width="40" height="40" fill="none"/>
        <rect x="200" y="592.36" width="40" height="40" fill="none"/>
        <rect x="200" y="632.36" width="40" height="40" fill="none"/>
        <rect x="200" y="552.36" width="40" height="40" fill="none"/>
        <rect x="200" y="672.36" width="40" height="40" fill="none"/>
        <rect x="280" y="512.36" width="40" height="40" fill="none"/>
        <rect x="280" y="592.36" width="40" height="40" fill="none"/>
        <rect x="280" y="632.36" width="40" height="40" fill="none"/>
        <rect x="280" y="552.36" width="40" height="40" fill="none"/>
        <rect x="280" y="672.36" width="40" height="40" fill="none"/>
        <rect x="160" y="512.36" width="40" height="40" fill="none"/>
        <rect x="160" y="592.36" width="40" height="40" fill="none"/>
        <rect x="160" y="632.36" width="40" height="40" fill="none"/>
        <rect x="160" y="552.36" width="40" height="40" fill="none"/>
        <rect x="160" y="672.36" width="40" height="40" fill="none"/>
        <rect x="240" y="512.36" width="40" height="40" fill="none"/>
        <rect x="240" y="592.36" width="40" height="40" fill="none"/>
        <rect x="240" y="632.36" width="40" height="40" fill="none"/>
        <rect x="240" y="552.36" width="40" height="40" fill="none"/>
        <rect x="240" y="672.36" width="40" height="40" fill="none"/>
        <rect x="120" y="712.36" width="40" height="40" fill="none"/>
        <rect x="200" y="712.36" width="40" height="40" fill="none"/>
        <rect x="280" y="712.36" width="40" height="40" fill="none"/>
        <rect x="160" y="712.36" width="40" height="40" fill="none"/>
        <rect x="240" y="712.36" width="40" height="40" fill="none"/>
        <rect x="320" y="552.36" width="40" height="40" fill="none"/>
        <rect x="320" y="592.36" width="40" height="40" fill="none"/>
        <rect x="320" y="672.36" width="40" height="40" fill="none"/>
        <rect x="320" y="512.36" width="40" height="40" fill="none"/>
        <rect x="320" y="632.36" width="40" height="40" fill="none"/>
        <rect x="320" y="712.36" width="40" height="40" fill="none"/>
        <rect x="150" y="542.36" width="180" height="180" fill="none"/>
        <g transform="matrix(.37344 0 0 .37344 4.4375 1028.8)">
            <path d="m0 0h48v48h-48z" fill="none"/>
        </g>
        <g transform="matrix(.36471 0 0 .36471 4.8146 1028.8)">
            <path d="m0 0h48v48h-48z" fill="none"/>
        </g>
        <g transform="matrix(.41585 0 0 .41585 79.055 989.88)">
            <g transform="matrix(.062269 0 0 .062269 -26.473 173.71)">
                <g transform="matrix(38.618 0 0 38.618 13804 -12696)">
                    <g transform="matrix(.71436 0 0 .71436 -375.49 176.57)">
                        <path transform="matrix(1.3999 0 0 1.3999 525.63 -247.17)" d="m490.56 95.75c-121.72 0.18504-342.34 0.090577-468.16 0.09375-1.5548 6.9739-2.4062 14.232-2.4062 21.688v76.344c139.06 0.49354 331.32 0.2554 472.97 0.25v-76.594c0-7.4875-0.8386-14.78-2.4062-21.781zm-307.19 197.94c-52.495-3e-3 -106.38 0.11982-163.38 0.375v92.844c191.76-0.26331 282.43-0.0926 472.97-0.21875v-92.25c-109.29-0.35498-208.43-0.74426-309.59-0.75z" opacity="0"/>
                    </g>
                </g>
            </g>
        </g>
        <path d="m23.015 1049.6c0.6218 0 1.123-0.5012 1.123-1.123v-0.3125c0 0.6218-0.5012 1.123-1.123 1.123h-19.082c-0.6218 0-1.123-0.5012-1.123-1.123v0.3125c0 0.6218 0.5012 1.123 1.123 1.123h19.082z" fill="#1a237e" opacity=".2"/>
    </g>
    <g transform="matrix(.60505 0 0 .60505 5.322 -615.1)" fill="#fff">
        <g transform="matrix(.55053 0 0 .55053 16.959 1039.6)">
            <path d="m0 0h48v48h-48z" fill="none"/>
            <g transform="matrix(1.0604 0 0 1.0347 173.67 -50.628)" fill="#fff">
                <g transform="matrix(.1192 0 0 .10457 -193.87 26.662)" fill="#fff">
                    <g transform="translate(11.889)">
                        <g transform="matrix(1.0473 0 0 1 -2.1075 0)">
                            <path d="m107.27 156.26v177.84c-35.128-3.8535-62.737-42.188-62.737-88.922s27.609-85.068 62.737-88.922z" fill="#fff" fill-rule="evenodd" opacity=".9666"/>
                        </g>
                        <path d="m111.32 154.54h5.6789c2.2023 0 3.9752 1.6579 3.9752 3.7174v173.12c0 2.0594-1.7729 3.7174-3.9752 3.7174h-5.6789c-2.2023 0-3.9752-1.6579-3.9752-3.7174v-173.12c0-2.0594 1.773-3.7174 3.9752-3.7174z" fill-rule="evenodd" opacity=".9666"/>
                    </g>
                    <path d="m233.64 352.01c0 9.2784-12.928 16.8-28.875 16.8s-28.875-7.5216-28.875-16.8 12.928-16.8 28.875-16.8 28.875 7.5216 28.875 16.8z" fill-rule="evenodd" opacity=".9666"/>
                    <g transform="translate(-11.866 .016492)" fill-rule="evenodd">
                        <path d="m289.49 153.49h10.743c4.1661 0 7.52 1.6578 7.52 3.7171v173.11c0 2.0593-3.3539 3.7171-7.52 3.7171h-10.743c-4.1661 0-7.52-1.6578-7.52-3.7171v-173.11c0-2.0593 3.3539-3.7171 7.52-3.7171z" opacity=".9666"/>
                        <path d="m297.31 156.37v177.84c35.128-3.8535 62.738-42.188 62.738-88.922s-27.609-85.068-62.738-88.922z" opacity=".9666"/>
                    </g>
                    <path d="m299.59 329.32c-0.73411-7e-3 -3.476-0.60382-4.1374-0.17532 0 0-1.0874 3.1676-4.8344 5.9562-3.2894 2.4479-6.413 4.7945-9.7594 6.9957-3.0046 1.9764-6.2294 4.1136-9.2503 5.5676-2.3772 1.1441-4.3197 1.3106-4.3197 1.3106h-33.831c-2.1134 0-3.8449 1.6665-3.8449 3.7406v0.91875c0 2.0741 1.7315 3.7734 3.8449 3.7734h35.573c0.81868 0 3.777-0.86124 5.5361-1.633 4.3857-1.9242 7.2439-4.3743 12.295-7.3788 5.3701-3.4347 15.301-11.43 15.301-11.43 1.7637-1.1427 2.2342-3.4534 1.0699-5.1844l-0.50151-0.7875c-0.7277-1.0818-1.9192-1.6615-3.1428-1.6734z" fill-rule="evenodd" opacity=".9666"/>
                    <path d="m154.67 33.7c-25.884-0.64618-52.104 16.49-58.645 42.133-1.5237 6.2165-2.1451 12.11-2.2549 18.114l-0.0019 91.071h26.25c0.0926-23.501-0.13114-71.143 0.18048-94.693 0.80701-14.955 12.362-30.721 28.401-30.539 0.11764 23.802-0.24063 47.619 0.18904 71.412 1.368 19.347 19.7 35.36 39.106 33.72 12.123-0.29421 24.336 0.70678 36.38-0.76099 18.339-3.4381 31.031-22.116 29.326-40.372v-63.9c16.682-1.2183 29.334 14.976 30.074 30.539 0.30977 23.549 0.0866 67.731 0.17861 91.23h26.25v-91.679c-0.85887-7.6399-2.0704-16.989-6.2106-24.358-10.74-21.789-35.861-33.545-59.553-31.774-6.9206-0.87899-14.366 3.8007-16.261 10.36 0.11421 28.075 0.19507 56.161-0.0158 84.231-0.79111 11.76-12.38 20.752-23.945 19.259-8.1817 0.35548-17.423 0.0143-23.004-7.0158-7.5204-7.949-5.0013-19.326-5.4428-29.202 0.0202-22.805-0.0749-45.589 0.13115-68.355-3.4223-6.9208-11.028-10.493-18.563-9.3575l-1.2471-0.01723-1.3212-0.04244z" fill-rule="evenodd" opacity=".9666"/>
                </g>
            </g>
        </g>
    </g>
    <g display="none" fill="none">
        <rect transform="rotate(90)" x="7.3342" y="-19.616" width="12.282" height="12.282" display="inline" stroke="#000" stroke-width=".065984"/>
        <rect x="6.7726" y="8.112" width="13.405" height="10.726" stroke="#5261ff" stroke-linecap="round" stroke-linejoin="round" stroke-width=".06524"/>
        <rect transform="rotate(90)" x="6.7726" y="-18.838" width="13.405" height="10.726" display="inline" stroke="#0f0" stroke-linecap="round" stroke-linejoin="round" stroke-width=".06524"/>
    </g>
</svg>
