<?xml version="1.0" encoding="UTF-8"?>
<svg version="1.1" viewBox="0 0 28.747 28.747" xmlns="http://www.w3.org/2000/svg">
    <defs>
        <filter id="filter6206-7" x="-.072" y="-.072" width="1.144" height="1.144" color-interpolation-filters="sRGB">
            <feGaussianBlur stdDeviation="0.658125"/>
        </filter>
    </defs>
    <g transform="translate(0 -1093.8)">
        <path transform="matrix(1.0781 0 0 1.0641 -.093733 2.7509)" d="m4.4177 1028.2v1.6051h-1.6052v18.192h1.6052v2.1402h18.192v-2.1402h2.1402v-18.192h-2.1402v-1.6051z" fill="#232323" filter="url(#filter6206-7)" opacity=".2"/>
        <rect x="2.9987" y="1096.8" width="22.749" height="22.749" rx="1.1973" ry="1.1974" fill="#232323"/>
        <g transform="translate(-22.32 1056.5)">
            <path d="m0 0h51.2v51.2h-51.2z" fill="none" stroke-width="1.0667"/>
            <g transform="matrix(.33601 0 0 .33601 1.5296 73.043)">
                <path d="m0 0h51.2v51.2h-51.2z" fill="none" stroke-width="1.0667"/>
            </g>
            <g transform="matrix(.37187 0 0 .37187 38.802 63.239)">
                <path d="m0 0h51.2v51.2h-51.2z" fill="none" stroke-width="1.0667"/>
                <g transform="matrix(2.6891 0 0 2.6891 -82.906 -48.45)">
                    <path d="m0 0h51.2v51.2h-51.2z" fill="none" stroke-width="1.0667"/>
                </g>
            </g>
        </g>
        <path d="m4.1958 1096.8c-0.66332 0-1.1979 0.5346-1.1979 1.1979v0.3334c0-0.6634 0.53459-1.1979 1.1979-1.1979h20.354c0.66332 0 1.1979 0.5345 1.1979 1.1979v-0.3334c0-0.6633-0.5346-1.1979-1.1979-1.1979z" fill="#fff" opacity=".2"/>
        <rect x="128" y="546.52" width="42.667" height="42.667" fill="none" stroke-width="1.0667"/>
        <rect x="128" y="631.85" width="42.667" height="42.667" fill="none" stroke-width="1.0667"/>
        <rect x="128" y="674.52" width="42.667" height="42.667" fill="none" stroke-width="1.0667"/>
        <rect x="128" y="589.19" width="42.667" height="42.667" fill="none" stroke-width="1.0667"/>
        <rect x="128" y="717.19" width="42.667" height="42.667" fill="none" stroke-width="1.0667"/>
        <rect x="213.33" y="546.52" width="42.667" height="42.667" fill="none" stroke-width="1.0667"/>
        <rect x="213.33" y="631.85" width="42.667" height="42.667" fill="none" stroke-width="1.0667"/>
        <rect x="213.33" y="674.52" width="42.667" height="42.667" fill="none" stroke-width="1.0667"/>
        <rect x="213.33" y="589.19" width="42.667" height="42.667" fill="none" stroke-width="1.0667"/>
        <rect x="213.33" y="717.19" width="42.667" height="42.667" fill="none" stroke-width="1.0667"/>
        <rect x="298.67" y="546.52" width="42.667" height="42.667" fill="none" stroke-width="1.0667"/>
        <rect x="298.67" y="631.85" width="42.667" height="42.667" fill="none" stroke-width="1.0667"/>
        <rect x="298.67" y="674.52" width="42.667" height="42.667" fill="none" stroke-width="1.0667"/>
        <rect x="298.67" y="589.19" width="42.667" height="42.667" fill="none" stroke-width="1.0667"/>
        <rect x="298.67" y="717.19" width="42.667" height="42.667" fill="none" stroke-width="1.0667"/>
        <rect x="170.67" y="546.52" width="42.667" height="42.667" fill="none" stroke-width="1.0667"/>
        <rect x="170.67" y="631.85" width="42.667" height="42.667" fill="none" stroke-width="1.0667"/>
        <rect x="170.67" y="674.52" width="42.667" height="42.667" fill="none" stroke-width="1.0667"/>
        <rect x="170.67" y="589.19" width="42.667" height="42.667" fill="none" stroke-width="1.0667"/>
        <rect x="170.67" y="717.19" width="42.667" height="42.667" fill="none" stroke-width="1.0667"/>
        <rect x="256" y="546.52" width="42.667" height="42.667" fill="none" stroke-width="1.0667"/>
        <rect x="256" y="631.85" width="42.667" height="42.667" fill="none" stroke-width="1.0667"/>
        <rect x="256" y="674.52" width="42.667" height="42.667" fill="none" stroke-width="1.0667"/>
        <rect x="256" y="589.19" width="42.667" height="42.667" fill="none" stroke-width="1.0667"/>
        <rect x="256" y="717.19" width="42.667" height="42.667" fill="none" stroke-width="1.0667"/>
        <rect x="128" y="759.85" width="42.667" height="42.667" fill="none" stroke-width="1.0667"/>
        <rect x="213.33" y="759.85" width="42.667" height="42.667" fill="none" stroke-width="1.0667"/>
        <rect x="298.67" y="759.85" width="42.667" height="42.667" fill="none" stroke-width="1.0667"/>
        <rect x="170.67" y="759.85" width="42.667" height="42.667" fill="none" stroke-width="1.0667"/>
        <rect x="256" y="759.85" width="42.667" height="42.667" fill="none" stroke-width="1.0667"/>
        <rect x="341.33" y="589.19" width="42.667" height="42.667" fill="none" stroke-width="1.0667"/>
        <rect x="341.33" y="631.85" width="42.667" height="42.667" fill="none" stroke-width="1.0667"/>
        <rect x="341.33" y="717.19" width="42.667" height="42.667" fill="none" stroke-width="1.0667"/>
        <rect x="341.33" y="546.52" width="42.667" height="42.667" fill="none" stroke-width="1.0667"/>
        <rect x="341.33" y="674.52" width="42.667" height="42.667" fill="none" stroke-width="1.0667"/>
        <rect x="341.33" y="759.85" width="42.667" height="42.667" fill="none" stroke-width="1.0667"/>
        <rect x="160" y="578.52" width="192" height="192" fill="none" stroke-width="1.0667"/>
        <g transform="matrix(.37344 0 0 .37344 4.7333 1097.4)">
            <path d="m0 0h51.2v51.2h-51.2z" fill="none" stroke-width="1.0667"/>
        </g>
        <g transform="matrix(.36471 0 0 .36471 5.1356 1097.4)">
            <path d="m0 0h51.2v51.2h-51.2z" fill="none" stroke-width="1.0667"/>
        </g>
        <g transform="matrix(.41585 0 0 .41585 84.325 1055.9)">
            <g transform="matrix(.062269 0 0 .062269 -28.238 185.29)">
                <g transform="matrix(38.618 0 0 38.618 14724 -13542)">
                    <g transform="matrix(.71436 0 0 .71436 -400.52 188.34)">
                        <path d="m1293.2-120.67c-181.75 0.2763-511.18 0.13525-699.05 0.13998-2.3216 10.413-3.593 21.251-3.593 32.384v114c207.65 0.73695 494.72 0.38136 706.23 0.3733v-114.37c0-11.18-1.2522-22.07-3.593-32.523zm-458.69 295.56c-78.385-4e-3 -158.85 0.17892-243.95 0.55995v138.63c286.34-0.39317 421.73-0.13827 706.23-0.32664v-137.75c-163.2-0.53005-311.22-1.1113-462.28-1.1199z" opacity="0" stroke-width="1.4932"/>
                    </g>
                </g>
            </g>
        </g>
        <path d="m24.549 1119.5c0.66325 0 1.1979-0.5346 1.1979-1.1979v-0.3333c0 0.6632-0.53461 1.1978-1.1979 1.1978h-20.354c-0.66325 0-1.1979-0.5346-1.1979-1.1978v0.3333c0 0.6633 0.53461 1.1979 1.1979 1.1979z" fill="#232323" opacity=".2"/>
    </g>
    <path d="m17.201 7.788c-1.1904 0.00113-2.3726 0.73352-2.7042 2.0643-0.0775 0.31107-0.11748 0.63828-0.07173 0.95771 0.10759 0.75132 0.41395 1.4838 0.79504 2.1364 0.56151 0.96176 1.2444 1.8056 1.915 2.689 0.52389-0.2801 1.1533-1.4963 1.5965-2.0259 0.43815-0.67327 0.83987-1.397 1.0608-2.1733 0.13938-0.48961 0.173-0.96938 0.09438-1.4734-0.052811-0.33847-0.2066-0.67445-0.39438-0.95771-0.54981-0.82945-1.4228-1.2179-2.2914-1.2171zm-8.3538 1.696-1.6928 10.549 5.1921 0.89008 4.4202-1.4433 4.8254 0.98059-1.4399-8.8772-0.52396 1.2524 0.74828 6.2988-3.7572-0.60907-4.4202 1.4467-3.7528-0.81663 1.1744-8.4562 3.1515 0.70022 1.2309-0.46626 0.1482-1.0443-1.3997 0.55878zm8.3627 0.031358c1.0601-0.00242 1.3525 1.7256 0.1831 1.9754-1.2643 0.27015-1.6859-1.6778-0.40518-1.9509 0.07729-0.016486 0.15141-0.024367 0.22209-0.024533zm-7.2349 4.0334c-0.020947 4.27e-4 -0.040799 0.0029-0.058994 0.0075-0.35439 0.09142-0.32282 0.86132 0.036832 0.80058 0.14749-0.02493 0.49805-0.25592 0.51375-0.41641 0.02006-0.20523-0.28902-0.39511-0.49159-0.39166zm0.7813 0.65778c-0.02218-1.42e-4 -0.04467 0.0015-0.06734 0.0051-0.8447 0.13021-0.39078 1.2769 0.36835 1.1581 0.62471-0.09774 0.24459-1.1597-0.30101-1.1631zm0.15158 1.6938c-0.0235-1.09e-4 -0.04723 0.0024-0.071 0.0076-0.23861 0.0529-0.43132 0.50799-0.23108 0.69835 0.10578 0.10061 0.40072 0.0095 0.52504-0.02201 0.42727-0.10846 0.12949-0.68218-0.22295-0.68396zm5.5204 0.129c-0.09239 3.5e-5 -0.18317 0.01132-0.25094 0.02338-0.73872 0.1322-0.57551 1.204 0.14734 1.0847 0.36662-0.06052 0.75894-0.68063 0.45296-1.0042-0.07569-0.08005-0.2143-0.10393-0.34936-0.10389zm-1.1576 0.70907c-0.31949 0.0073-0.53734 0.63216-0.16 0.78512 0.28935 0.11728 0.56139 0.1003 0.56627-0.0918 0.0039-0.15715-0.24599-0.43908-0.31382-0.67807-0.03143-0.01109-0.06241-0.01594-0.09244-0.01525zm-3.9987 0.04237c-0.03338-7.3e-5 -0.06813 0.0034-0.10424 0.0112-0.84518 0.17968-0.39656 1.4154 0.32993 1.2261 0.51308-0.13364 0.3513-1.2356-0.22569-1.2372zm2.5287 0.54648c-0.06005 7.13e-4 -0.11658 0.0059-0.16497 0.01468-0.74046 0.13367-0.47819 1.1938 0.22101 1.0417 0.29722-0.06466 0.69521-0.50534 0.51468-0.82886-0.09659-0.17309-0.35626-0.22996-0.57073-0.22756zm-1.091 0.42979c-0.48861 0.0037-0.58366 0.75474 0.0053 0.81397 0.12477 0.01255 0.29072 0.03096 0.33907-0.051 0.12956-0.21967-0.06909-0.73008-0.26936-0.75792-0.02591-0.0036-0.05086-0.0053-0.07489-0.0051z" fill="#fff"/>
    <g display="none" fill="none">
        <rect transform="rotate(90)" x="7.8232" y="-20.923" width="13.1" height="13.1" display="inline" stroke="#000" stroke-width=".070382"/>
        <rect x="7.2241" y="8.6528" width="14.298" height="11.441" stroke="#5261ff" stroke-linecap="round" stroke-linejoin="round" stroke-width=".06959"/>
        <rect transform="rotate(90)" x="7.2241" y="-20.094" width="14.298" height="11.441" display="inline" stroke="#0f0" stroke-linecap="round" stroke-linejoin="round" stroke-width=".06959"/>
    </g>
</svg>
