<?xml version="1.0" encoding="UTF-8"?>
<svg fill="none" viewBox="0 0 40 40" xmlns="http://www.w3.org/2000/svg">
    <g filter="url(#filter0_f)" opacity=".2">
        <path d="m6.4966 4.3023v2.3767h-2.408v26.937h2.408v3.1689h27.29v-3.1689h3.2106v-26.937h-3.2106v-2.3767h-27.29z" fill="#232323"/>
    </g>
    <path d="m34.161 4.1727h-28.323c-0.92013 0-1.666 0.74594-1.666 1.6661v28.323c0 0.9202 0.74591 1.6661 1.666 1.6661h28.323c0.9201 0 1.6661-0.7459 1.6661-1.6661v-28.323c0-0.92018-0.746-1.6661-1.6661-1.6661z" fill="#232323"/>
    <path d="m5.8384 4.1715c-0.92299 0-1.6669 0.74384-1.6669 1.6668v0.46405c0-0.9231 0.74387-1.667 1.6669-1.667h28.322c0.923 0 1.6668 0.74387 1.6668 1.667v-0.46405c0-0.92296-0.7438-1.6668-1.6668-1.6668h-28.322z" fill="#fff" opacity=".2"/>
    <path d="m34.16 35.859c0.9229 0 1.6668-0.7438 1.6668-1.6668v-0.4639c0 0.9228-0.7439 1.6668-1.6668 1.6668h-28.322c-0.92289 0-1.6668-0.744-1.6668-1.6668v0.4639c0 0.923 0.7439 1.6668 1.6668 1.6668h28.322z" fill="#232323" opacity=".2"/>
    <path d="m10.384 14.533c-0.2115 0-0.3839 0.1715-0.3839 0.3821 0.1933 5.4843 4.5356 9.9157 9.9977 10.278 0.239 0.0158 0.4798 0.0055 0.7228 0.0055 0.7764 0 1.5832-0.136 2.3118-0.2955 2.3591-0.5161 4.1064-2.6015 4.1064-5.123 0-0.1735-0.0087-0.3451-0.0252-0.5144-0.0309-0.3141-0.0898-0.6201-0.1734-0.9157-0.6252-2.2026-2.6582-3.8167-5.0701-3.8167-2.412 0-4.4449 1.6141-5.0701 3.8167 0.432 1.5193 1.5338 2.7579 2.9676 3.3801-0.4784-0.5111-0.7714-1.1964-0.7714-1.95 0-1.5805 1.2868-2.8619 2.8739-2.8619s2.8738 1.2814 2.8738 2.8619c0 0.7536-0.2931 1.4389-0.7712 1.95-0.5247 0.561-1.2723 0.912-2.1026 0.912-2.3343 0-4.3435-1.386-5.2435-3.3764-0.1325-0.2933-0.2412-0.5995-0.3231-0.9167-0.1181-0.4572-0.1811-0.9366-0.1811-1.4308 0-0.6877 0.1221-1.347 0.3455-1.9577 0.0102-0.028 0.021-0.0559 0.0316-0.0837 0.0039-0.0185 0.0062-0.0377 0.0062-0.0575 0-0.158-0.1288-0.286-0.2875-0.286h-5.8334" clip-rule="evenodd" fill="#fff" fill-rule="evenodd"/>
    <path d="m29.737 14.822c0.1793 0.6688 0.2752 1.3714 0.2752 2.0964 0 2.4522-1.0932 4.6501-2.8206 6.1369-0.4315 0.3255-0.7999 0.6477-1.5206 1.0292 1.3067-1.2285 1.9465-2.6691 1.9465-4.3041 0-0.4942-0.063-0.9737-0.1812-1.4311 0.1182-0.4574 0.1812-0.9367 0.1812-1.4309 0-0.7049-0.1282-1.3797-0.3624-2.0034-0.0106-0.03-0.0153-0.0619-0.0153-0.0954 0-0.158 0.1287-0.2861 0.2873-0.2862h1.8388c0.1761 1e-4 0.3264 0.1276 0.3711 0.2886z" clip-rule="evenodd" fill="#fff" fill-rule="evenodd"/>
    <defs>
        <filter id="filter0_f" x="3.3838" y="3.5974" width="34.319" height="33.893" color-interpolation-filters="sRGB" filterUnits="userSpaceOnUse">
            <feFlood flood-opacity="0" result="BackgroundImageFix"/>
            <feBlend in="SourceGraphic" in2="BackgroundImageFix" result="shape"/>
            <feGaussianBlur result="effect1_foregroundBlur" stdDeviation="0.352455"/>
        </filter>
    </defs>
</svg>
