<?xml version="1.0" encoding="UTF-8"?>
<svg fill="none" viewBox="0 0 40 40" xmlns="http://www.w3.org/2000/svg">
    <g filter="url(#filter0_f)" opacity=".2">
        <path d="m6.4966 4.3023v2.3767h-2.408v26.937h2.408v3.1689h27.29v-3.1689h3.2106v-26.937h-3.2106v-2.3767h-27.29z" fill="#232323"/>
    </g>
    <path d="m34.161 4.1727h-28.323c-0.92013 0-1.666 0.74594-1.666 1.6661v28.323c0 0.9201 0.74591 1.6661 1.666 1.6661h28.323c0.9201 0 1.666-0.746 1.666-1.6661v-28.323c0-0.92018-0.7459-1.6661-1.666-1.6661z" fill="#4CAF50"/>
    <path d="m5.8383 4.1715c-0.92299 0-1.6669 0.74384-1.6669 1.6668v0.46405c0-0.9231 0.74387-1.667 1.6669-1.667h28.322c0.923 0 1.6668 0.74387 1.6668 1.667v-0.46405c0-0.92296-0.7438-1.6668-1.6668-1.6668h-28.322z" fill="#fff" opacity=".2"/>
    <path d="m34.16 35.859c0.9229 0 1.6668-0.7438 1.6668-1.6668v-0.4639c0 0.9228-0.7439 1.6668-1.6668 1.6668h-28.322c-0.9229 0-1.6668-0.744-1.6668-1.6668v0.4639c0 0.923 0.7439 1.6668 1.6668 1.6668h28.322z" fill="#232323" opacity=".2"/>
    <path d="m11.918 16.857h-0.1837c-0.4058 0-0.7347-0.3411-0.7347-0.7619v-1.7142c0-0.4208 0.3289-0.762 0.7347-0.762h0.2473c0.3478-2.0563 2.0783-3.619 4.1609-3.619h7.7142c2.0826 0 3.8131 1.5627 4.1609 3.619h0.2473c0.4058 0 0.7347 0.3412 0.7347 0.762v1.7142c0 0.4208-0.3289 0.7619-0.7347 0.7619h-0.1837v8c0 0.8716-0.3528 1.6577-0.9183 2.2132v1.9773c0 0.526-0.4112 0.9524-0.9184 0.9524h-1.2857c-0.5072 0-0.9184-0.4264-0.9184-0.9524v-1.1428h-8.0816v1.1428c0 0.526-0.4112 0.9524-0.9184 0.9524h-1.2857c-0.5072 0-0.9184-0.4264-0.9184-0.9524v-1.9773c-0.5655-0.5555-0.9183-1.3416-0.9183-2.2132v-8zm13.959-2.4761h-11.939v5.1428h11.939v-5.1428zm-10.469 11.428c0.8115 0 1.4694-0.6822 1.4694-1.5238s-0.6579-1.5238-1.4694-1.5238c-0.8116 0-1.4694 0.6822-1.4694 1.5238s0.6578 1.5238 1.4694 1.5238zm10.653-1.5238c0 0.8416-0.6578 1.5238-1.4694 1.5238-0.8115 0-1.4694-0.6822-1.4694-1.5238s0.6579-1.5238 1.4694-1.5238c0.8116 0 1.4694 0.6822 1.4694 1.5238z" clip-rule="evenodd" fill="#fff" fill-rule="evenodd"/>
    <defs>
        <filter id="filter0_f" x="3.3837" y="3.5974" width="34.319" height="33.893" color-interpolation-filters="sRGB" filterUnits="userSpaceOnUse">
            <feFlood flood-opacity="0" result="BackgroundImageFix"/>
            <feBlend in="SourceGraphic" in2="BackgroundImageFix" result="shape"/>
            <feGaussianBlur result="effect1_foregroundBlur" stdDeviation="0.352455"/>
        </filter>
    </defs>
</svg>
