<?xml version="1.0" encoding="UTF-8"?>
<svg version="1.1" viewBox="0 0 28.747 28.747" xmlns="http://www.w3.org/2000/svg">
    <defs>
        <filter id="filter6206-7" color-interpolation-filters="sRGB">
            <feGaussianBlur stdDeviation="0.658125"/>
        </filter>
    </defs>
    <g transform="translate(0 -1093.8)">
        <path transform="matrix(1.0781 0 0 1.0641 -.093733 2.7509)" d="m4.4177 1028.2v1.6051h-1.6052v18.192h1.6052v2.1402h18.192v-2.1402h2.1402v-18.192h-2.1402v-1.6051z" fill="#424242" filter="url(#filter6206-7)" opacity=".2"/>
        <rect x="2.9987" y="1096.8" width="22.749" height="22.749" rx="1.1973" ry="1.1974" fill="#424242"/>
        <g transform="translate(-22.32 1056.5)">
            <path d="m0 0h51.2v51.2h-51.2z" fill="none" stroke-width="1.0667"/>
            <g transform="matrix(.33601 0 0 .33601 1.5296 73.043)">
                <path d="m0 0h51.2v51.2h-51.2z" fill="none" stroke-width="1.0667"/>
            </g>
            <g transform="matrix(.37187 0 0 .37187 38.802 63.239)">
                <path d="m0 0h51.2v51.2h-51.2z" fill="none" stroke-width="1.0667"/>
                <g transform="matrix(2.6891 0 0 2.6891 -82.906 -48.45)">
                    <path d="m0 0h51.2v51.2h-51.2z" fill="none" stroke-width="1.0667"/>
                </g>
            </g>
        </g>
        <path d="m4.1958 1096.8c-0.66332 0-1.1979 0.5346-1.1979 1.1979v0.3334c0-0.6634 0.53459-1.1979 1.1979-1.1979h20.354c0.66332 0 1.1979 0.5345 1.1979 1.1979v-0.3334c0-0.6633-0.5346-1.1979-1.1979-1.1979z" fill="#fff" opacity=".2"/>
        <rect x="128" y="546.52" width="42.667" height="42.667" fill="none" stroke-width="1.0667"/>
        <rect x="128" y="631.85" width="42.667" height="42.667" fill="none" stroke-width="1.0667"/>
        <rect x="128" y="674.52" width="42.667" height="42.667" fill="none" stroke-width="1.0667"/>
        <rect x="128" y="589.19" width="42.667" height="42.667" fill="none" stroke-width="1.0667"/>
        <rect x="128" y="717.19" width="42.667" height="42.667" fill="none" stroke-width="1.0667"/>
        <rect x="213.33" y="546.52" width="42.667" height="42.667" fill="none" stroke-width="1.0667"/>
        <rect x="213.33" y="631.85" width="42.667" height="42.667" fill="none" stroke-width="1.0667"/>
        <rect x="213.33" y="674.52" width="42.667" height="42.667" fill="none" stroke-width="1.0667"/>
        <rect x="213.33" y="589.19" width="42.667" height="42.667" fill="none" stroke-width="1.0667"/>
        <rect x="213.33" y="717.19" width="42.667" height="42.667" fill="none" stroke-width="1.0667"/>
        <rect x="298.67" y="546.52" width="42.667" height="42.667" fill="none" stroke-width="1.0667"/>
        <rect x="298.67" y="631.85" width="42.667" height="42.667" fill="none" stroke-width="1.0667"/>
        <rect x="298.67" y="674.52" width="42.667" height="42.667" fill="none" stroke-width="1.0667"/>
        <rect x="298.67" y="589.19" width="42.667" height="42.667" fill="none" stroke-width="1.0667"/>
        <rect x="298.67" y="717.19" width="42.667" height="42.667" fill="none" stroke-width="1.0667"/>
        <rect x="170.67" y="546.52" width="42.667" height="42.667" fill="none" stroke-width="1.0667"/>
        <rect x="170.67" y="631.85" width="42.667" height="42.667" fill="none" stroke-width="1.0667"/>
        <rect x="170.67" y="674.52" width="42.667" height="42.667" fill="none" stroke-width="1.0667"/>
        <rect x="170.67" y="589.19" width="42.667" height="42.667" fill="none" stroke-width="1.0667"/>
        <rect x="170.67" y="717.19" width="42.667" height="42.667" fill="none" stroke-width="1.0667"/>
        <rect x="256" y="546.52" width="42.667" height="42.667" fill="none" stroke-width="1.0667"/>
        <rect x="256" y="631.85" width="42.667" height="42.667" fill="none" stroke-width="1.0667"/>
        <rect x="256" y="674.52" width="42.667" height="42.667" fill="none" stroke-width="1.0667"/>
        <rect x="256" y="589.19" width="42.667" height="42.667" fill="none" stroke-width="1.0667"/>
        <rect x="256" y="717.19" width="42.667" height="42.667" fill="none" stroke-width="1.0667"/>
        <rect x="128" y="759.85" width="42.667" height="42.667" fill="none" stroke-width="1.0667"/>
        <rect x="213.33" y="759.85" width="42.667" height="42.667" fill="none" stroke-width="1.0667"/>
        <rect x="298.67" y="759.85" width="42.667" height="42.667" fill="none" stroke-width="1.0667"/>
        <rect x="170.67" y="759.85" width="42.667" height="42.667" fill="none" stroke-width="1.0667"/>
        <rect x="256" y="759.85" width="42.667" height="42.667" fill="none" stroke-width="1.0667"/>
        <rect x="341.33" y="589.19" width="42.667" height="42.667" fill="none" stroke-width="1.0667"/>
        <rect x="341.33" y="631.85" width="42.667" height="42.667" fill="none" stroke-width="1.0667"/>
        <rect x="341.33" y="717.19" width="42.667" height="42.667" fill="none" stroke-width="1.0667"/>
        <rect x="341.33" y="546.52" width="42.667" height="42.667" fill="none" stroke-width="1.0667"/>
        <rect x="341.33" y="674.52" width="42.667" height="42.667" fill="none" stroke-width="1.0667"/>
        <rect x="341.33" y="759.85" width="42.667" height="42.667" fill="none" stroke-width="1.0667"/>
        <rect x="160" y="578.52" width="192" height="192" fill="none" stroke-width="1.0667"/>
        <g transform="matrix(.37344 0 0 .37344 4.7333 1097.4)">
            <path d="m0 0h51.2v51.2h-51.2z" fill="none" stroke-width="1.0667"/>
        </g>
        <g transform="matrix(.36471 0 0 .36471 5.1356 1097.4)">
            <path d="m0 0h51.2v51.2h-51.2z" fill="none" stroke-width="1.0667"/>
        </g>
        <g transform="matrix(.41585 0 0 .41585 84.325 1055.9)">
            <g transform="matrix(.062269 0 0 .062269 -28.238 185.29)">
                <g transform="matrix(38.618 0 0 38.618 14724 -13542)">
                    <g transform="matrix(.71436 0 0 .71436 -400.52 188.34)">
                        <path d="m1293.2-120.67c-181.75 0.2763-511.18 0.13525-699.05 0.13998-2.3216 10.413-3.593 21.251-3.593 32.384v114c207.65 0.73695 494.72 0.38136 706.23 0.3733v-114.37c0-11.18-1.2522-22.07-3.593-32.523zm-458.69 295.56c-78.385-4e-3 -158.85 0.17892-243.95 0.55995v138.63c286.34-0.39317 421.73-0.13827 706.23-0.32664v-137.75c-163.2-0.53005-311.22-1.1113-462.28-1.1199z" opacity="0" stroke-width="1.4932"/>
                    </g>
                </g>
            </g>
        </g>
        <path d="m24.549 1119.5c0.66325 0 1.1979-0.5346 1.1979-1.1979v-0.3333c0 0.6632-0.53461 1.1978-1.1979 1.1978h-20.354c-0.66325 0-1.1979-0.5346-1.1979-1.1978v0.3333c0 0.6633 0.53461 1.1979 1.1979 1.1979z" fill="#424242" opacity=".2"/>
    </g>
    <flowRoot fill="#000000" font-family="Roboto" font-size="12.8px" letter-spacing="0px" stroke-width="1.0667px" word-spacing="0px" style="line-height:0.01%" xml:space="preserve"><flowRegion><rect x="11.375" y="11.984" width="4.7893" height="5.388" stroke-width="1.1378px"/></flowRegion><flowPara font-size="4px" style="line-height:1.25">your</flowPara></flowRoot>
    <g transform="translate(71.106 42.658)">
        <path d="m-58.67-22.575c0.0977-0.22196 0.14522-0.25143 0.38425-0.23823 0.15002 0.0083 0.75381 0.01876 1.3418 0.02326l1.069 0.0082 0.35595 0.49903 0.07794-0.61436 0.74912-0.28237c0.41201-0.1553 1.0231-0.46483 1.358-0.68784l0.60886-0.40548 0.30356 0.20088c0.40033 0.26492 0.48576 0.21942 0.29404-0.15663-0.20932-0.41056-0.20265-0.45895 0.12179-0.88385 0.15343-0.20094 0.37262-0.56798 0.48709-0.81564 0.1388-0.3003 0.26546-0.46515 0.38027-0.4949 0.16041-0.04157 0.16415-0.05681 0.05489-0.22355-0.07263-0.11085-0.09812-0.25515-0.06698-0.37921 0.02764-0.11015 0.07308-0.45504 0.10097-0.76642 0.04783-0.53396 0.06338-0.5706 0.27361-0.64436 0.20756-0.07282 0.24434-0.0528 0.53417 0.29056 0.1712 0.20282 0.35292 0.36877 0.40383 0.36877 0.17894 0 0.74289-0.66748 0.95478-1.1301 0.27598-0.60248 0.28621-1.2735 0.02955-1.9391-0.2262-0.5866-0.6027-1.0004-1.1585-1.2734-0.3741-0.18371-0.53592-0.21606-1.0646-0.21282-0.62654 0.0038-0.98161 0.11318-1.5285 0.4707-0.20114 0.13149-0.20987 0.12866-0.71386-0.23098-0.64924-0.46329-1.4852-0.84958-2.322-1.073-0.51048-0.13629-0.87695-0.17639-1.6412-0.17959l-0.98401-0.0042-0.1462-0.27277c-0.18397-0.34324-0.29514-0.32176-0.32506 0.0628-0.02252 0.28951-0.03637 0.30271-0.42077 0.40123-0.63352 0.16237-1.3038 0.45995-1.8898 0.83904-0.37846 0.24483-0.55403 0.32069-0.57771 0.24965-0.01872-0.05614-0.11492-0.18297-0.21381-0.28185-0.25719-0.25719-0.72196-0.2469-0.99081 0.02194-0.19021 0.19021-0.24503 0.38362-0.30602 1.0797-0.01675 0.19116-0.06546 0.24036-0.29286 0.2958-0.7805 0.19028-0.83441 1.2603-0.0712 1.4129 0.2105 0.0421 0.23785 0.07396 0.19275 0.22454-0.13511 0.45112-0.17578 1.1606-0.1031 1.7988 0.0568 0.49869 0.05431 0.71212-9e-3 0.77545-0.13909 0.13909-0.10248 0.21208 0.10633 0.21208 0.15932 0 0.23712 0.08598 0.43814 0.48421 0.13443 0.26631 0.33003 0.61981 0.43466 0.78555 0.17743 0.28107 0.18204 0.31386 0.06843 0.48723-0.06699 0.10224-0.1218 0.24063-0.1218 0.30753 0 0.10962 0.02273 0.10989 0.22993 0.0028 0.32668-0.16893 0.42948-0.15102 0.75041 0.13076 0.27664 0.2429 0.28304 0.26085 0.23584 0.66245-0.02669 0.22703-0.02356 0.41278 7e-3 0.41278 0.03049 0 0.16675-0.1079 0.30281-0.23978l0.24739-0.23978 0.45773 0.22907c0.25176 0.12599 0.59802 0.27353 0.76948 0.32787 0.42553 0.13486 0.47956 0.18999 0.53674 0.54757 0.06021 0.3765 0.13944 0.39223 0.287 0.05698zm2.4998-2.4998c-0.10922-0.1316-0.04762-0.33374 0.12149-0.39863 0.16754-0.0643 0.34703 0.10461 0.31908 0.30024-0.02785 0.19492-0.30845 0.25759-0.44057 0.0984zm-2.9681-1.7625c-0.19274-0.19274-0.20357-0.37629-0.03628-0.61512 0.18669-0.26654 0.65376-0.21204 0.79941 0.09328 0.09505 0.19926 0.0901 0.24535-0.04612 0.42864-0.19596 0.26367-0.50621 0.304-0.71701 0.0932zm2.8773-0.78702c-0.11777-0.22006-0.02479-0.45508 0.20262-0.51215 0.232-0.05823 0.42244 0.08342 0.42244 0.31422 0 0.35329-0.46338 0.50003-0.62506 0.19794zm-1.5831-1.3739c-0.10355-0.10355-0.04852-0.33406 0.09851-0.41276 0.11358-0.06079 0.18044-0.05053 0.27277 0.04179 0.14683 0.14683 0.15202 0.20617 0.02881 0.3294-0.10189 0.1019-0.31735 0.12428-0.40007 0.04156zm-1.6813-1.2968c-0.79-0.27681-0.8109-1.4152-0.03196-1.7406 0.39688-0.16583 0.73974-0.08279 1.0319 0.24993 0.44291 0.50444 0.27088 1.2234-0.35534 1.4851-0.30172 0.12606-0.3009 0.12606-0.64456 0.0056zm0.65868-0.55709c0.10522-0.10522 0.1913-0.24076 0.1913-0.30123 0-0.19963-0.31582-0.52063-0.51223-0.52063-0.24515 0-0.50092 0.25866-0.50092 0.50658 0 0.23558 0.25205 0.50658 0.47115 0.50658 0.08768 0 0.2455-0.08608 0.35071-0.1913z" fill="#fff" stroke-width=".077935"/>
    </g>
    <g display="none" fill="none">
        <rect transform="rotate(90)" x="7.8232" y="-20.923" width="13.1" height="13.1" display="inline" stroke="#000" stroke-width=".070382"/>
        <rect x="7.2241" y="8.6528" width="14.298" height="11.441" stroke="#5261ff" stroke-linecap="round" stroke-linejoin="round" stroke-width=".069589"/>
        <rect transform="rotate(90)" x="7.2241" y="-20.094" width="14.298" height="11.441" display="inline" stroke="#0f0" stroke-linecap="round" stroke-linejoin="round" stroke-width=".069589"/>
    </g>
</svg>
