<?xml version="1.0" encoding="UTF-8"?>
<svg version="1.1" viewBox="0 0 28.747 28.747" xmlns="http://www.w3.org/2000/svg">
    <defs>
        <filter id="filter6206-7" color-interpolation-filters="sRGB">
            <feGaussianBlur stdDeviation="0.658125"/>
        </filter>
    </defs>
    <g transform="translate(0 -1093.8)">
        <path transform="matrix(1.0781 0 0 1.0641 -.093733 2.7509)" d="m4.4177 1028.2v1.6051h-1.6052v18.192h1.6052v2.1402h18.192v-2.1402h2.1402v-18.192h-2.1402v-1.6051z" fill="#232323" filter="url(#filter6206-7)" opacity=".2"/>
        <rect x="2.9987" y="1096.8" width="22.749" height="22.749" rx="1.1973" ry="1.1974" fill="#232323"/>
        <g transform="translate(-22.32 1056.5)">
            <path d="m0 0h51.2v51.2h-51.2z" fill="none" stroke-width="1.0667"/>
            <g transform="matrix(.33601 0 0 .33601 1.5296 73.043)">
                <path d="m0 0h51.2v51.2h-51.2z" fill="none" stroke-width="1.0667"/>
            </g>
            <g transform="matrix(.37187 0 0 .37187 38.802 63.239)">
                <path d="m0 0h51.2v51.2h-51.2z" fill="none" stroke-width="1.0667"/>
                <g transform="matrix(2.6891 0 0 2.6891 -82.906 -48.45)">
                    <path d="m0 0h51.2v51.2h-51.2z" fill="none" stroke-width="1.0667"/>
                </g>
            </g>
        </g>
        <path d="m4.1958 1096.8c-0.66332 0-1.1979 0.5346-1.1979 1.1979v0.3334c0-0.6634 0.53459-1.1979 1.1979-1.1979h20.354c0.66332 0 1.1979 0.5345 1.1979 1.1979v-0.3334c0-0.6633-0.5346-1.1979-1.1979-1.1979z" fill="#fff" opacity=".2"/>
        <rect x="128" y="546.52" width="42.667" height="42.667" fill="none" stroke-width="1.0667"/>
        <rect x="128" y="631.85" width="42.667" height="42.667" fill="none" stroke-width="1.0667"/>
        <rect x="128" y="674.52" width="42.667" height="42.667" fill="none" stroke-width="1.0667"/>
        <rect x="128" y="589.19" width="42.667" height="42.667" fill="none" stroke-width="1.0667"/>
        <rect x="128" y="717.19" width="42.667" height="42.667" fill="none" stroke-width="1.0667"/>
        <rect x="213.33" y="546.52" width="42.667" height="42.667" fill="none" stroke-width="1.0667"/>
        <rect x="213.33" y="631.85" width="42.667" height="42.667" fill="none" stroke-width="1.0667"/>
        <rect x="213.33" y="674.52" width="42.667" height="42.667" fill="none" stroke-width="1.0667"/>
        <rect x="213.33" y="589.19" width="42.667" height="42.667" fill="none" stroke-width="1.0667"/>
        <rect x="213.33" y="717.19" width="42.667" height="42.667" fill="none" stroke-width="1.0667"/>
        <rect x="298.67" y="546.52" width="42.667" height="42.667" fill="none" stroke-width="1.0667"/>
        <rect x="298.67" y="631.85" width="42.667" height="42.667" fill="none" stroke-width="1.0667"/>
        <rect x="298.67" y="674.52" width="42.667" height="42.667" fill="none" stroke-width="1.0667"/>
        <rect x="298.67" y="589.19" width="42.667" height="42.667" fill="none" stroke-width="1.0667"/>
        <rect x="298.67" y="717.19" width="42.667" height="42.667" fill="none" stroke-width="1.0667"/>
        <rect x="170.67" y="546.52" width="42.667" height="42.667" fill="none" stroke-width="1.0667"/>
        <rect x="170.67" y="631.85" width="42.667" height="42.667" fill="none" stroke-width="1.0667"/>
        <rect x="170.67" y="674.52" width="42.667" height="42.667" fill="none" stroke-width="1.0667"/>
        <rect x="170.67" y="589.19" width="42.667" height="42.667" fill="none" stroke-width="1.0667"/>
        <rect x="170.67" y="717.19" width="42.667" height="42.667" fill="none" stroke-width="1.0667"/>
        <rect x="256" y="546.52" width="42.667" height="42.667" fill="none" stroke-width="1.0667"/>
        <rect x="256" y="631.85" width="42.667" height="42.667" fill="none" stroke-width="1.0667"/>
        <rect x="256" y="674.52" width="42.667" height="42.667" fill="none" stroke-width="1.0667"/>
        <rect x="256" y="589.19" width="42.667" height="42.667" fill="none" stroke-width="1.0667"/>
        <rect x="256" y="717.19" width="42.667" height="42.667" fill="none" stroke-width="1.0667"/>
        <rect x="128" y="759.85" width="42.667" height="42.667" fill="none" stroke-width="1.0667"/>
        <rect x="213.33" y="759.85" width="42.667" height="42.667" fill="none" stroke-width="1.0667"/>
        <rect x="298.67" y="759.85" width="42.667" height="42.667" fill="none" stroke-width="1.0667"/>
        <rect x="170.67" y="759.85" width="42.667" height="42.667" fill="none" stroke-width="1.0667"/>
        <rect x="256" y="759.85" width="42.667" height="42.667" fill="none" stroke-width="1.0667"/>
        <rect x="341.33" y="589.19" width="42.667" height="42.667" fill="none" stroke-width="1.0667"/>
        <rect x="341.33" y="631.85" width="42.667" height="42.667" fill="none" stroke-width="1.0667"/>
        <rect x="341.33" y="717.19" width="42.667" height="42.667" fill="none" stroke-width="1.0667"/>
        <rect x="341.33" y="546.52" width="42.667" height="42.667" fill="none" stroke-width="1.0667"/>
        <rect x="341.33" y="674.52" width="42.667" height="42.667" fill="none" stroke-width="1.0667"/>
        <rect x="341.33" y="759.85" width="42.667" height="42.667" fill="none" stroke-width="1.0667"/>
        <rect x="160" y="578.52" width="192" height="192" fill="none" stroke-width="1.0667"/>
        <g transform="matrix(.37344 0 0 .37344 4.7333 1097.4)">
            <path d="m0 0h51.2v51.2h-51.2z" fill="none" stroke-width="1.0667"/>
        </g>
        <g transform="matrix(.36471 0 0 .36471 5.1356 1097.4)">
            <path d="m0 0h51.2v51.2h-51.2z" fill="none" stroke-width="1.0667"/>
        </g>
        <g transform="matrix(.41585 0 0 .41585 84.325 1055.9)">
            <g transform="matrix(.062269 0 0 .062269 -28.238 185.29)">
                <g transform="matrix(38.618 0 0 38.618 14724 -13542)">
                    <g transform="matrix(.71436 0 0 .71436 -400.52 188.34)">
                        <path d="m1293.2-120.67c-181.75 0.2763-511.18 0.13525-699.05 0.13998-2.3216 10.413-3.593 21.251-3.593 32.384v114c207.65 0.73695 494.72 0.38136 706.23 0.3733v-114.37c0-11.18-1.2522-22.07-3.593-32.523zm-458.69 295.56c-78.385-4e-3 -158.85 0.17892-243.95 0.55995v138.63c286.34-0.39317 421.73-0.13827 706.23-0.32664v-137.75c-163.2-0.53005-311.22-1.1113-462.28-1.1199z" opacity="0" stroke-width="1.4932"/>
                    </g>
                </g>
            </g>
        </g>
        <path d="m24.549 1119.5c0.66325 0 1.1979-0.5346 1.1979-1.1979v-0.3333c0 0.6632-0.53461 1.1978-1.1979 1.1978h-20.354c-0.66325 0-1.1979-0.5346-1.1979-1.1978v0.3333c0 0.6633 0.53461 1.1979 1.1979 1.1979z" fill="#232323" opacity=".2"/>
    </g>
    <path d="m11.661 6.8227 2.87e-4 4.18e-5c-0.07638 0.00238-0.15865 0.030592-0.25191 0.10417-0.22852-0.088121-0.45003-0.11874-0.64816 0.060662-0.30595-0.039701-0.40539 0.042207-0.48072 0.13779-0.067161-0.0014461-0.50256-0.06904-0.70223 0.22881-0.50178-0.059382-0.66036 0.29515-0.48068 0.62574-0.10248 0.15865-0.20866 0.31538 0.030983 0.61783-0.08478 0.16844-0.032236 0.35118 0.16747 0.57233-0.0527 0.2368 0.050899 0.40388 0.23672 0.53409-0.034742 0.32405 0.29718 0.51245 0.39628 0.57959 0.038057 0.18882 0.11738 0.36696 0.49651 0.46547 0.06251 0.28138 0.29037 0.33001 0.51101 0.38907-0.72925 0.42389-1.3546 0.9816-1.3504 2.3501l-0.10681 0.19055c-0.83618 0.50851-1.5885 2.1429-0.41207 3.4714 0.076845 0.41583 0.20571 0.71448 0.32045 1.0451 0.17162 1.3321 1.2917 1.9558 1.5871 2.0296 0.4329 0.32975 0.89394 0.64263 1.5179 0.86179 0.58816 0.6066 1.2254 0.83778 1.8661 0.8374 0.0094-5e-6 0.01905 1.04e-4 0.02835 0 0.64068 4.05e-4 1.2778-0.23077 1.866-0.8374 0.6239-0.21915 1.085-0.53205 1.5179-0.86179 0.29542-0.07377 1.4155-0.69753 1.5871-2.0296 0.11474-0.33057 0.24364-0.62922 0.32049-1.0451 1.1764-1.3285 0.4241-2.9631-0.4121-3.4716l-0.10699-0.19052c0.0042-1.3684-0.62114-1.9261-1.3504-2.3501 0.22064-0.05904 0.44849-0.10762 0.51101-0.38903 0.37912-0.09854 0.45846-0.27671 0.4965-0.46551 0.09911-0.06711 0.43103-0.25554 0.39628-0.57958 0.18582-0.13022 0.28942-0.29731 0.23672-0.53409 0.19971-0.22114 0.25228-0.40387 0.16747-0.57233 0.2397-0.30232 0.13333-0.45901 0.03098-0.61766 0.17956-0.33059 0.02114-0.68512-0.48084-0.62574-0.1996-0.29784-0.63488-0.2302-0.70219-0.22881-0.075331-0.095612-0.17473-0.1775-0.48068-0.13779-0.19814-0.1794-0.41965-0.14878-0.64816-0.060662-0.27134-0.21412-0.4509-0.042468-0.65599 0.022448-0.32852-0.10736-0.40366 0.039675-0.56508 0.099554-0.35827-0.075722-0.46714 0.089113-0.63889 0.26309l-0.19979-0.00392c-0.54039 0.31846-0.80883 0.96692-0.90399 1.3003-0.0952-0.33342-0.36305-0.98188-0.90334-1.3003l-0.19979 0.00392c-0.17196-0.17397-0.28086-0.33879-0.63913-0.26309-0.16142-0.059878-0.2363-0.20691-0.56504-0.099554-0.13461-0.042599-0.25841-0.13111-0.40419-0.1266zm5.4368 0.38256c-0.07504 0.092767-0.17984 0.18334-0.06865 0.28992 0.15325-0.097152 0.30745-0.19415 0.6714-0.26321-0.08201 0.09282-0.25157 0.18564-0.14878 0.27846 0.1924-0.0746 0.40529-0.12876 0.64086-0.16022-0.11281 0.094177-0.20689 0.18647-0.11443 0.25943 0.20592-0.064316 0.48956-0.15095 0.76676-0.076323l-0.17548 0.1793c-0.01958 0.024014 0.41048 0.018794 0.69427 0.02297-0.10357 0.14604-0.20918 0.28698-0.27083 0.53784 0.02811 0.028921 0.16878 0.01279 0.30137 0-0.13597 0.29059-0.37215 0.36395-0.42727 0.4883 0.08308 0.063846 0.19832 0.047245 0.32429 0.00392-0.09788 0.20472-0.30318 0.34499-0.46539 0.51113 0.04101 0.029548 0.11266 0.047167 0.28229 0.026703-0.14988 0.1617-0.33096 0.30957-0.54554 0.44252 0.03801 0.044583 0.1687 0.042808 0.28992 0.045783-0.19438 0.19313-0.44452 0.29326-0.67899 0.41961 0.11686 0.08105 0.20039 0.06212 0.28988 0.06103-0.16583 0.13829-0.44776 0.21025-0.70952 0.29375 0.04978 0.07854 0.09958 0.10002 0.206 0.12205-0.27706 0.15565-0.67392 0.08447-0.78584 0.16403 0.02702 0.07823 0.10323 0.12918 0.19457 0.17168-0.44605 0.02628-1.6659-0.01644-1.8998-0.95369 0.45658-0.50932 1.29-1.1071 2.7234-1.8462-1.1153 0.37896-2.1215 0.88409-2.9637 1.5792-0.9902-0.46804-0.3076-1.6485 0.17548-2.1171 0.02454 0.12375 0.05223 0.20198 0.08389 0.22505 0.15729-0.17115 0.28582-0.34642 0.4883-0.51113 6.6e-4 0.096735-0.04805 0.20169 0.07249 0.27846 0.10856-0.14826 0.25531-0.28059 0.45014-0.3929-0.09384 0.16429-0.01618 0.21419 0.03432 0.28229 0.14881-0.12955 0.29016-0.26076 0.56458-0.36241zm-5.4174 1.279e-4c0.27442 0.10164 0.41577 0.23283 0.56458 0.36236 0.05046-0.068101 0.12821-0.11801 0.03438-0.28229 0.19485 0.11232 0.34158 0.24468 0.45014 0.39294 0.12054-0.076767 0.07178-0.18175 0.07246-0.2785 0.20248 0.1647 0.331 0.34001 0.4883 0.51118 0.03169-0.02297 0.05946-0.10133 0.08394-0.22508 0.48308 0.46867 1.1657 1.6491 0.17548 2.1171-0.84227-0.69465-1.8481-1.1997-2.9627-1.5786 1.4327 0.73878 2.2658 1.3365 2.7222 1.8455-0.23382 0.93721-1.4537 0.97998-1.8998 0.95369 0.09133-0.04252 0.16752-0.09345 0.19456-0.17167-0.11193-0.07953-0.50878-0.0084-0.78584-0.16403 0.10642-0.02193 0.15622-0.04351 0.206-0.12205-0.26176-0.08347-0.54374-0.15544-0.70956-0.29375 0.0895 0.0011 0.17306 0.0201 0.28992-0.06103-0.23448-0.12636-0.48462-0.22649-0.67899-0.4196 0.12122-0.0028713 0.25186-0.0012059 0.28988-0.045783-0.21459-0.13294-0.39563-0.28081-0.5455-0.44252 0.16964 0.02036 0.24129 0.0028712 0.28229-0.026703-0.1622-0.16614-0.36751-0.3064-0.46539-0.51113 0.12597 0.043408 0.24118 0.060009 0.32424-0.0039154-0.055128-0.12435-0.29126-0.1977-0.42723-0.4883 0.1326 0.01279 0.27325 0.028921 0.30137 0-0.061549-0.25074-0.16718-0.3917-0.27075-0.53776 0.28379-0.00418 0.71379 0.00113 0.69431-0.02297l-0.17549-0.17927c0.27721-0.074626 0.56085 0.012007 0.76676 0.076271 0.09245-0.072956-0.0016-0.1652-0.11443-0.25938 0.23557 0.031453 0.44845 0.085615 0.64086 0.16024 0.10282-0.092819-0.06674-0.18569-0.14876-0.2785 0.36395 0.06904 0.51815 0.16606 0.6714 0.26321 0.11117-0.10658 0.0063-0.1971-0.0687-0.28987zm2.6127 3.8605c0.02454-5.56e-4 0.04933-5.19e-4 0.07405 1.28e-4 0.70216-0.0078 1.5715 0.52391 1.5681 1.0248-0.0031 0.44212-0.61058 0.80004-1.5627 0.79322-0.93231-0.01122-1.5602-0.44975-1.558-0.87815 0.0018-0.34156 0.71455-0.92274 1.4785-0.94001zm-2.2562 0.29778c0.13847 7.54e-4 0.2808 0.01305 0.42583 0.03761 0.48846 0.08209-2.3409 2.5526-2.3845 2.0015-0.03965-1.2803 0.83103-2.0453 1.9587-2.0391zm4.5148 0.04221c1.1276-0.0063 1.9983 0.75868 1.9587 2.0391-0.04362 0.55115-2.8729-1.9194-2.3845-2.0015 0.14502-0.02454 0.28736-0.03686 0.42583-0.03761zm-0.47648 1.5343a1.8173 1.5403 55.966 0 1 0.06721 8.85e-4 1.8173 1.5403 55.966 0 1 1.1962 3.2505 1.8173 1.5403 55.966 1 1-2.0038-3.0323 1.8173 1.5403 55.966 0 1 0.74035-0.21908zm-3.4686 0.0853a1.5403 1.8173 34.034 0 1 8.7e-5 0 1.5403 1.8173 34.034 0 1 0.80756 0.21816 1.5403 1.8173 34.034 0 1-2.0038 3.0323 1.5403 1.8173 34.034 0 1 1.1962-3.2505zm6.0611 0.92917c0.02167-3.52e-4 0.04432 0.0026 0.06834 0.0089 1.2748 0.72794 1.0533 2.3477 0.36574 2.9008-0.60555 0.269-1.1022-2.8987-0.43407-2.9098zm-8.7415 0.04215c0.668 0.01096 0.17147 3.1786-0.43407 2.9096-0.68758-0.55302-0.90902-2.1727 0.36574-2.9006 0.024014-0.0065 0.046775-0.0094 0.068336-0.0091zm4.5228 2.179a1.7173 1.5836 0 0 1 1.6762 1.5915 1.7173 1.5836 0 1 1-3.4346 0 1.7173 1.5836 0 0 1 1.7584-1.5915zm3.7546 0.59731c0.13414-0.0037 0.25969 0.03417 0.37291 0.12174 0.30487 0.30379 0.48371 1.4478-0.05004 2.1328-0.73505 1.0199-1.7301 1.0596-2.1008 0.77554-0.38769-0.36566-0.09178-1.501 0.43968-2.1235v-2.11e-4c0.4561-0.51499 0.93585-0.89589 1.3383-0.90638zm-7.7627 0.24244c0.44264-0.0091 0.98594 0.34072 1.4263 0.8517 0.49118 0.59177 0.71507 1.6314 0.30516 1.9379-0.38779 0.23395-1.3295 0.13764-1.9989-0.82396-0.45143-0.8069-0.39324-1.628-0.07627-1.8692 0.10368-0.06317 0.21975-0.09384 0.3437-0.09639zm4.1064 2.8331c0.67017 0.0042 1.4839 0.24552 1.4856 0.55931 0.01149 0.32504-0.83956 1.0595-1.6632 1.0453-0.853 0.0368-1.6894-0.69874-1.6785-0.95369-0.01279-0.3738 1.0387-0.66568 1.7242-0.64853 0.04312-0.0019 0.08716-0.0026 0.13184-0.0023z" fill="#fff"/>
</svg>
