<?xml version="1.0" encoding="UTF-8"?>
<svg fill="none" viewBox="0 0 40 40" xmlns="http://www.w3.org/2000/svg">
    <g filter="url(#filter0_f)" opacity=".2">
        <path d="m6.4966 4.1308v2.3767h-2.408v26.937h2.408v3.1689h27.29v-3.1689h3.2106v-26.937h-3.2106v-2.3767h-27.29z" fill="#3E2723"/>
    </g>
    <path d="m34.161 4.0012h-28.323c-0.92014 0-1.666 0.74594-1.666 1.6661v28.323c0 0.9202 0.74591 1.6661 1.666 1.6661h28.323c0.9201 0 1.6661-0.7459 1.6661-1.6661v-28.323c0-0.92018-0.746-1.6661-1.6661-1.6661z" fill="#E91E63"/>
    <path d="m5.8384 4c-0.92299 0-1.6669 0.74384-1.6669 1.6668v0.46405c0-0.9231 0.74387-1.667 1.6669-1.667h28.322c0.923 0 1.6669 0.74387 1.6669 1.667v-0.46405c0-0.92296-0.7439-1.6668-1.6669-1.6668h-28.322z" fill="#fff" opacity=".2"/>
    <path d="m34.16 35.688c0.9229 0 1.6668-0.7438 1.6668-1.6668v-0.4639c0 0.9228-0.7439 1.6668-1.6668 1.6668h-28.322c-0.9229 0-1.6668-0.744-1.6668-1.6668v0.4639c0 0.923 0.7439 1.6668 1.6668 1.6668h28.322z" fill="#3E2723" opacity=".2"/>
    <path d="m20.65 22.698c-0.0684-0.1647-1.5286-3.535-4.2994-4.4437-0.2317-0.0759-0.4726-0.1347-0.7225-0.1729-0.2176-0.0333-0.4421-0.0511-0.6734-0.0511-2.4506 0-4.488 1.7751-4.8868 4.0999l0.6647 0.6289 0.7079-0.6684c0.1982-0.7817 0.6514-1.475 1.2879-1.9703 0.6364-0.4952 1.4198-0.7641 2.2263-0.7642 0.1228 0 0.2434 0.0075 0.3618 0.0217 0.2508 0.03 0.4915 0.0905 0.7219 0.1751 1.7482 0.6424 2.8958 2.6784 3.2569 3.4037-0.4312 0.8624-1.9834 3.5968-4.3406 3.5968-1.9152 0-3.4819-1.484-3.6112-3.3525l-0.6109 0.5785-0.733-0.6935c0.0683 2.6554 2.2637 4.7934 4.9551 4.7934 3.6759 0 5.6162-4.4772 5.6953-4.6676l0.0036-0.2551-0.0036-0.2587zm8.6094 0.5857-0.7546 0.715c-0.4491 1.4768-1.8325 2.5548-3.4639 2.5548-2.3607 0-3.913-2.7344-4.3442-3.5968 0.4312-0.866 1.9835-3.6005 4.3442-3.6005 1.9583 0 3.5537 1.5523 3.6148 3.4819l0.6037-0.5749 0.7402 0.7043v-0.0108c0-2.7165-2.2242-4.9264-4.9587-4.9264-3.6795 0-5.6198 4.4772-5.6989 4.6677l0.0144 0.2587-0.0144 0.2551c0.0791 0.1904 2.0194 4.6676 5.6989 4.6676 2.4075 0 4.4197-1.714 4.8653-3.9813l-0.6468-0.6144zm-4.1754 0.0143c-0.1329 0-0.2623-0.0718-0.3305-0.1976-0.0288-0.0539-2.907-5.4114-8.534-5.4114l-0.1006 0.0036c-0.2012 0-0.3665-0.1653-0.3701-0.3665-0.0036-0.2048 0.1617-0.3701 0.3665-0.3737h0.1078c6.0834 0 9.1592 5.7492 9.1915 5.8067 0.0934 0.1832 0.0216 0.4024-0.1581 0.4994-0.0539 0.0252-0.115 0.0395-0.1725 0.0395zm-10.234-0.0143-0.0863-0.0108c-0.2012-0.0467-0.3233-0.248-0.2766-0.4456l0.8289-3.4494 0.3116-1.2965 1.0442-4.345h-1.5308c-0.2443 0-0.4455 0.2012-0.4455 0.4456 0 0.2443 0.2012 0.4419 0.4455 0.4419 0.0982 0 0.1923 0.039 0.2617 0.1084 0.0694 0.0695 0.1084 0.1636 0.1084 0.2618 0 0.0981-0.039 0.1922-0.1084 0.2617-0.0694 0.0694-0.1635 0.1084-0.2617 0.1084-0.6539 0-1.1893-0.5318-1.1893-1.1822s0.5354-1.1822 1.1893-1.1822h2.4722l-1.2631 5.2545-0.3122 1.2987-0.8286 3.4468c-0.0395 0.1689-0.194 0.2839-0.3593 0.2839z" fill="#fff"/>
    <path d="m16.468 16.252h5.3997l0.3818-0.7366h-5.7815v0.7366zm4.9731 2.4362-0.6612-0.3378 2.5872-4.991 0.6611 0.3378-2.5871 4.991zm2.9716-4.6568h-2.3931c-0.2875 0-0.521-0.23-0.521-0.5139 0-0.2874 0.2335-0.5174 0.521-0.5174h2.3931c0.2839 0 0.5174 0.23 0.5174 0.5174 0 0.2839-0.2335 0.5139-0.5174 0.5139z" fill="#fff"/>
    <defs>
        <filter id="filter0_f" x="3.3838" y="3.4259" width="34.319" height="33.893" color-interpolation-filters="sRGB" filterUnits="userSpaceOnUse">
            <feFlood flood-opacity="0" result="BackgroundImageFix"/>
            <feBlend in="SourceGraphic" in2="BackgroundImageFix" result="shape"/>
            <feGaussianBlur result="effect1_foregroundBlur" stdDeviation="0.352455"/>
        </filter>
    </defs>
</svg>
