<?xml version="1.0" encoding="UTF-8"?>
<svg fill="none" viewBox="0 0 40 40" xmlns="http://www.w3.org/2000/svg">
    <g filter="url(#filter0_f)" opacity=".2">
        <path d="m6.4966 4.3023v2.3767h-2.408v26.937h2.408v3.1689h27.29v-3.1689h3.2106v-26.937h-3.2106v-2.3767h-27.29z" fill="#212121"/>
    </g>
    <path d="m34.161 4.1727h-28.323c-0.92014 0-1.666 0.74594-1.666 1.6661v28.323c0 0.9202 0.74591 1.6661 1.666 1.6661h28.323c0.9201 0 1.6661-0.7459 1.6661-1.6661v-28.323c0-0.92018-0.746-1.6661-1.6661-1.6661z" fill="#9E9E9E"/>
    <path d="m5.8384 4.1715c-0.92299 0-1.6669 0.74384-1.6669 1.6668v0.46405c0-0.9231 0.74387-1.667 1.6669-1.667h28.322c0.923 0 1.6669 0.74387 1.6669 1.667v-0.46405c0-0.92296-0.7439-1.6668-1.6669-1.6668h-28.322z" fill="#fff" opacity=".2"/>
    <path d="m34.16 35.859c0.9229 0 1.6668-0.7438 1.6668-1.6668v-0.4639c0 0.9228-0.7439 1.6668-1.6668 1.6668h-28.322c-0.9229 0-1.6668-0.744-1.6668-1.6668v0.4639c0 0.923 0.7439 1.6668 1.6668 1.6668h28.322z" fill="#212121" opacity=".2"/>
    <path d="m19.534 14.728c-0.2391 1.6834-0.4303 3.1006-0.7747 5.3078 0.9305-0.0202 3.0425 0.3503 3.5074-2.6661 0.3848-2.5095-1.3306-2.7419-2.7327-2.6417z" clip-rule="evenodd" fill="#fff" fill-rule="evenodd"/>
    <path d="m27.592 26.924c0.3621 0.7905-0.0026 1.7901-0.7579 2.1924-0.4337 0.2313-0.9289 0.4461-1.4232 0.5667-0.8161 0.1912-1.6504 0.2975-2.4892 0.3172-1.3415 0-2.6863-0.7534-3.2657-1.6703-0.1499 0.3163-0.6905 0.9524-1.6379 1.2515-0.5987 0.19-1.3204 0.4188-2.8269 0.4171-1.3499-8e-4 -2.1196-0.6013-2.5263-1.1053-0.6485-0.8013-0.7436-1.819-0.6173-2.5046l0.0067-0.0331c0.5095-2.5072 1.2059-7.0655 1.5268-9.3496l0.0033-0.0223c0.0876-0.6336 0.1769-1.2672 0.2299-1.905 0.0261-0.3213 0.0438-0.6443 0.0472-0.9665 0.0033-0.3048-0.0253-0.6088-0.0228-0.9137 0.0034-0.2874 0.0506-0.5782 0.1878-0.8327 0.2232-0.4105 0.6316-0.7343 1.0636-0.8756 0.4741-0.1553 0.9693-0.2173 1.4619-0.2734 0.5037-0.0592 1.0085-0.1088 1.5141-0.1487 0.6165-0.0445 1.2345-0.0671 1.8526-0.0678 1.0577-8e-4 2.1221 0.0165 3.1646 0.2272 1.0619 0.2148 2.1348 0.6253 2.9727 1.3449 0.5743 0.4931 1.0299 1.1152 1.3726 1.7959 0.2998 0.5997 0.4219 1.2308 0.4943 1.7133 0.1289 0.8658 0.0949 1.7475-0.1002 2.6013-0.1541 0.6226-0.414 1.2152-0.7688 1.753-0.3992 0.608-0.9112 1.1598-1.5638 1.6852 0.3974 1.1317 1.4332 3.3423 2.1019 4.8029zm-11.879-13.611c0.0252 0.4196 0.0286 0.8426 0.0101 1.2639-0.0186 0.4304-0.0565 0.8591-0.1053 1.287-0.048 0.4263-0.1061 0.8509-0.165 1.2755l-0.0194 0.1388c-0.1853 1.3275-0.3806 2.6534-0.5853 3.9768-0.2156 1.3911-0.4572 2.7748-0.6989 4.1601-0.112 0.646-0.3638 1.4738-0.0194 2.09 0.3065 0.5502 1.0931 0.6171 1.6413 0.5618 1.9966-0.2 2.3141-0.6353 2.3141-0.6353-0.3983-0.4329-0.0522-2.4056 0.3486-5.0573h1.4189l1.4855 4.4072s0.4379 1.3655 1.6547 1.2994c1.5588-0.0843 2.7057-0.4337 2.8708-0.6278-0.48-0.2627-1.8527-3.6298-2.6004-6.1023 0.3621-0.2165 0.7132-0.4519 1.0442-0.7154 0.4522-0.3618 0.8715-0.779 1.1924-1.2689 0.2307-0.3519 0.4067-0.7393 0.5078-1.1507 0.053-0.2173 0.0825-0.4444 0.101-0.6667 0.0337-0.3915 0.0211-0.7881-0.037-1.1763-0.0556-0.3734-0.139-0.7889-0.3091-1.126-0.3158-0.6303-0.7629-1.1804-1.3726-1.5324-1.0291-0.5931-2.2147-0.7063-3.3709-0.7682-1.254-0.0684-2.5116-0.0281-3.7584 0.1206-0.1397 0.0165-1.5536 0.1388-1.5477 0.2462z" clip-rule="evenodd" fill="#fff" fill-rule="evenodd"/>
    <defs>
        <filter id="filter0_f" x="3.3838" y="3.5974" width="34.319" height="33.893" color-interpolation-filters="sRGB" filterUnits="userSpaceOnUse">
            <feFlood flood-opacity="0" result="BackgroundImageFix"/>
            <feBlend in="SourceGraphic" in2="BackgroundImageFix" result="shape"/>
            <feGaussianBlur result="effect1_foregroundBlur" stdDeviation="0.352455"/>
        </filter>
    </defs>
</svg>
