<?xml version="1.0" encoding="UTF-8"?>
<svg version="1.1" viewBox="0 0 26.95 26.95" xmlns="http://www.w3.org/2000/svg">
    <defs>
        <filter id="filter6206-7" color-interpolation-filters="sRGB">
            <feGaussianBlur stdDeviation="0.658125"/>
        </filter>
    </defs>
    <g transform="translate(0 -1025.4)">
        <path transform="matrix(1.0107 0 0 .99762 -.087875 2.579)" d="m4.4177 1028.2v1.6051h-1.6052v18.192h1.6052v2.1402h18.192v-2.1402h2.1402v-18.192h-2.1402v-1.6051h-18.192z" fill="#232323" filter="url(#filter6206-7)" opacity=".2"/>
        <rect x="2.8113" y="1028.2" width="21.327" height="21.327" rx="1.1225" ry="1.1226" fill="#232323"/>
        <g transform="translate(-20.925 990.46)">
            <path d="m0 0h48v48h-48z" fill="none"/>
            <g transform="matrix(.33601 0 0 .33601 1.434 68.477)">
                <path d="m0 0h48v48h-48z" fill="none"/>
            </g>
            <g transform="matrix(.37187 0 0 .37187 36.377 59.287)">
                <path d="m0 0h48v48h-48z" fill="none"/>
                <g transform="matrix(2.6891 0 0 2.6891 -77.724 -45.422)">
                    <path d="m0 0h48v48h-48z" fill="none"/>
                </g>
            </g>
        </g>
        <path transform="translate(0 1025.4)" d="m3.9336 2.8105c-0.62186 0-1.123 0.50115-1.123 1.123v0.3125c0-0.6219 0.50118-1.123 1.123-1.123h19.082c0.62186 0 1.123 0.50115 1.123 1.123v-0.3125c0-0.6219-0.50118-1.123-1.123-1.123h-19.082z" fill="#fff" opacity=".2"/>
        <rect x="120" y="512.36" width="40" height="40" fill="none"/>
        <rect x="120" y="592.36" width="40" height="40" fill="none"/>
        <rect x="120" y="632.36" width="40" height="40" fill="none"/>
        <rect x="120" y="552.36" width="40" height="40" fill="none"/>
        <rect x="120" y="672.36" width="40" height="40" fill="none"/>
        <rect x="200" y="512.36" width="40" height="40" fill="none"/>
        <rect x="200" y="592.36" width="40" height="40" fill="none"/>
        <rect x="200" y="632.36" width="40" height="40" fill="none"/>
        <rect x="200" y="552.36" width="40" height="40" fill="none"/>
        <rect x="200" y="672.36" width="40" height="40" fill="none"/>
        <rect x="280" y="512.36" width="40" height="40" fill="none"/>
        <rect x="280" y="592.36" width="40" height="40" fill="none"/>
        <rect x="280" y="632.36" width="40" height="40" fill="none"/>
        <rect x="280" y="552.36" width="40" height="40" fill="none"/>
        <rect x="280" y="672.36" width="40" height="40" fill="none"/>
        <rect x="160" y="512.36" width="40" height="40" fill="none"/>
        <rect x="160" y="592.36" width="40" height="40" fill="none"/>
        <rect x="160" y="632.36" width="40" height="40" fill="none"/>
        <rect x="160" y="552.36" width="40" height="40" fill="none"/>
        <rect x="160" y="672.36" width="40" height="40" fill="none"/>
        <rect x="240" y="512.36" width="40" height="40" fill="none"/>
        <rect x="240" y="592.36" width="40" height="40" fill="none"/>
        <rect x="240" y="632.36" width="40" height="40" fill="none"/>
        <rect x="240" y="552.36" width="40" height="40" fill="none"/>
        <rect x="240" y="672.36" width="40" height="40" fill="none"/>
        <rect x="120" y="712.36" width="40" height="40" fill="none"/>
        <rect x="200" y="712.36" width="40" height="40" fill="none"/>
        <rect x="280" y="712.36" width="40" height="40" fill="none"/>
        <rect x="160" y="712.36" width="40" height="40" fill="none"/>
        <rect x="240" y="712.36" width="40" height="40" fill="none"/>
        <rect x="320" y="552.36" width="40" height="40" fill="none"/>
        <rect x="320" y="592.36" width="40" height="40" fill="none"/>
        <rect x="320" y="672.36" width="40" height="40" fill="none"/>
        <rect x="320" y="512.36" width="40" height="40" fill="none"/>
        <rect x="320" y="632.36" width="40" height="40" fill="none"/>
        <rect x="320" y="712.36" width="40" height="40" fill="none"/>
        <rect x="150" y="542.36" width="180" height="180" fill="none"/>
        <g transform="matrix(.37344 0 0 .37344 4.4375 1028.8)">
            <path d="m0 0h48v48h-48z" fill="none"/>
        </g>
        <g transform="matrix(.36471 0 0 .36471 4.8146 1028.8)">
            <path d="m0 0h48v48h-48z" fill="none"/>
        </g>
        <g transform="matrix(.41585 0 0 .41585 79.055 989.88)">
            <g transform="matrix(.062269 0 0 .062269 -26.473 173.71)">
                <g transform="matrix(38.618 0 0 38.618 13804 -12696)">
                    <g transform="matrix(.71436 0 0 .71436 -375.49 176.57)">
                        <path transform="matrix(1.3999 0 0 1.3999 525.63 -247.17)" d="m490.56 95.75c-121.72 0.18504-342.34 0.090577-468.16 0.09375-1.5548 6.9739-2.4062 14.232-2.4062 21.688v76.344c139.06 0.49354 331.32 0.2554 472.97 0.25v-76.594c0-7.4875-0.8386-14.78-2.4062-21.781zm-307.19 197.94c-52.495-3e-3 -106.38 0.11982-163.38 0.375v92.844c191.76-0.26331 282.43-0.0926 472.97-0.21875v-92.25c-109.29-0.35498-208.43-0.74426-309.59-0.75z" opacity="0"/>
                    </g>
                </g>
            </g>
        </g>
        <path d="m23.015 1049.6c0.6218 0 1.123-0.5012 1.123-1.123v-0.3125c0 0.6218-0.5012 1.123-1.123 1.123h-19.082c-0.6218 0-1.123-0.5012-1.123-1.123v0.3125c0 0.6218 0.5012 1.123 1.123 1.123h19.082z" fill="#232323" opacity=".2"/>
    </g>
    <g transform="matrix(.12059 0 0 .12059 32.437 14.081)">
        <g transform="matrix(.73032 0 0 .75402 -1299.1 -1759.6)">
            <path transform="matrix(11.355 0 0 10.998 1410.5 2178.8)" d="m11.256 6.4043a0.51314 0.52979 0 0 0-0.51367 0.5293 0.51314 0.52979 0 0 0 0.09375 0.30469l-1.2598 1.5098a0.62404 0.64429 0 0 0-0.17773-0.027344 0.62404 0.64429 0 0 0-0.62305 0.64453 0.62404 0.64429 0 0 0 0.0039063 0.058594l-1.1113 0.75391a0.51314 0.52979 0 0 0-0.29688-0.099609 0.51314 0.52979 0 0 0-0.51367 0.5293 0.51314 0.52979 0 0 0 0.22852 0.43945l-0.20312 3.9492a0.40224 0.4153 0 0 0-0.21289 0.36719 0.40224 0.4153 0 0 0 0.40234 0.41602 0.40224 0.4153 0 0 0 0.054688-0.005859l2.7891 2.9531a0.40224 0.4153 0 0 0-0.0019531 0.027344 0.40224 0.4153 0 0 0 0.40234 0.41602 0.40224 0.4153 0 0 0 0.21289-0.064453l1.5195 0.84375a0.51314 0.52979 0 0 0-0.003906 0.064453 0.51314 0.52979 0 0 0 0.51367 0.5293 0.51314 0.52979 0 0 0 0.50976-0.48242l4.0977-1.2363a0.51314 0.52979 0 0 0 0.41211 0.21289 0.51314 0.52979 0 0 0 0.51172-0.5293 0.51314 0.52979 0 0 0-0.10938-0.33008l1.7715-4.0293a0.51314 0.52979 0 0 1 0.001953 0 0.51314 0.52979 0 0 0 0.51172-0.53125 0.51314 0.52979 0 0 0-0.4082-0.51953l-0.55664-1.9199a0.40224 0.4153 0 0 0 0.14258-0.31641 0.40224 0.4153 0 0 0-0.40234-0.41406 0.40224 0.4153 0 0 0-0.070313 0.005859l-2.5547-3.2324a0.40224 0.4153 0 0 0 0.003906-0.058594 0.40224 0.4153 0 0 0-0.40234-0.41602 0.40224 0.4153 0 0 0-0.3125 0.15625l-3.9648-0.14258a0.51314 0.52979 0 0 0-0.48438-0.35547zm0.47852 0.71875 3.8945 0.13867a0.40224 0.4153 0 0 0 0.16016 0.24023l-0.089843 0.44336a0.62404 0.64429 0 0 0-0.43164 0.35742l-5.3887 0.64844a0.62404 0.64429 0 0 0-0.0058593-0.0039063l1.2559-1.5a0.51314 0.52979 0 0 0 0.12695 0.015625 0.51314 0.52979 0 0 0 0.47852-0.33984zm4.4688 0.40625 2.4844 3.1406a0.40224 0.4153 0 0 0-0.048828 0.19141 0.40224 0.4153 0 0 0 0.32227 0.4082l0.4707 1.6309-3.0469-4.0254a0.62404 0.64429 0 0 0 0.072265-0.30078 0.62404 0.64429 0 0 0-0.4043-0.60156l0.083985-0.41406a0.40224 0.4153 0 0 0 0.066406-0.029297zm-0.9043 1.502-1.2656 5.0996a0.77768 0.80291 0 0 0-0.09375 0.029297l-3.8535-4.502 5.2129-0.62695zm0.67969 0.19336 3.2109 4.2402-4.3125 1.0371a0.77768 0.80291 0 0 0-0.16016-0.19922l1.2617-5.0781zm-7.0664 0.54297a0.62404 0.64429 0 0 0 0.11914 0.11719l-0.97461 5.2637a0.51314 0.52979 0 0 0-0.33984 0.24805l-0.24219-0.046875a0.40224 0.4153 0 0 0-0.23633-0.36523l0.19531-3.8516a0.51314 0.52979 0 0 0 0.45117-0.52539 0.51314 0.52979 0 0 0-0.017578-0.13086l1.0449-0.70898zm0.45508 0.24023a0.62404 0.64429 0 0 0 0.03125 0.001954 0.62404 0.64429 0 0 0 0.044922-0.001954l4.0176 4.6914a0.77768 0.80291 0 0 0-0.013672 0.050781l-4.9238 0.54688a0.51314 0.52979 0 0 0-0.11914-0.09375l0.96289-5.1953zm9.8633 4.0059-1.748 3.9746a0.51314 0.52979 0 0 0-0.36328 0.2832l-4.082 1.2305 1.1836-3.7871a0.77768 0.80291 0 0 0 0.75391-0.67578l4.2559-1.0254zm-5.7051 1.2773a0.77768 0.80291 0 0 0 0.19726 0.24414l-1.2383 3.9551a0.51314 0.52979 0 0 0-0.097656 0.025391l-3.7539-3.6465a0.51314 0.52979 0 0 0 0.011719-0.03711l4.8809-0.54102zm-5.9355 0.45117 0.0625 0.011718a0.51314 0.52979 0 0 0 0.017578 0.072266l-0.080078-0.083984zm0.40234 0.42773a0.51314 0.52979 0 0 0 0.16602 0.027344 0.51314 0.52979 0 0 0 0.039062-0.001954l2.2227 2.1582a0.40224 0.4153 0 0 0-0.10352-0.013672 0.40224 0.4153 0 0 0-0.21484 0.064453l-2.1094-2.2344zm2.7051 2.4531 0.39453 0.38281-0.375-0.20898a0.40224 0.4153 0 0 0 0.001953-0.042969 0.40224 0.4153 0 0 0-0.021484-0.13086z" fill="#fff" opacity=".99" stroke-width=".086557"/>
        </g>
    </g>
    <g display="none" fill="none">
        <rect transform="rotate(90)" x="7.3342" y="-19.616" width="12.282" height="12.282" display="inline" stroke="#000" stroke-width=".065984"/>
        <rect x="6.7726" y="8.112" width="13.405" height="10.726" stroke="#5261ff" stroke-linecap="round" stroke-linejoin="round" stroke-width=".06524"/>
        <rect transform="rotate(90)" x="6.7726" y="-18.838" width="13.405" height="10.726" display="inline" stroke="#0f0" stroke-linecap="round" stroke-linejoin="round" stroke-width=".06524"/>
    </g>
</svg>
