<?xml version="1.0" encoding="UTF-8"?>
<svg version="1.1" viewBox="0 0 28.747 28.747" xmlns="http://www.w3.org/2000/svg">
    <defs>
        <filter id="filter6206-7" x="-.072" y="-.072" width="1.144" height="1.144" color-interpolation-filters="sRGB">
            <feGaussianBlur stdDeviation="0.658125"/>
        </filter>
    </defs>
    <g transform="translate(0 -1093.8)">
        <path transform="matrix(1.0781 0 0 1.0641 -.093733 2.7509)" d="m4.4177 1028.2v1.6051h-1.6052v18.192h1.6052v2.1402h18.192v-2.1402h2.1402v-18.192h-2.1402v-1.6051z" fill="#232323" filter="url(#filter6206-7)" opacity=".2"/>
        <rect x="2.9987" y="1096.8" width="22.749" height="22.749" rx="1.1973" ry="1.1974" fill="#232323"/>
        <g transform="translate(-22.32 1056.5)">
            <path d="m0 0h51.2v51.2h-51.2z" fill="none" stroke-width="1.0667"/>
            <g transform="matrix(.33601 0 0 .33601 1.5296 73.043)">
                <path d="m0 0h51.2v51.2h-51.2z" fill="none" stroke-width="1.0667"/>
            </g>
            <g transform="matrix(.37187 0 0 .37187 38.802 63.239)">
                <path d="m0 0h51.2v51.2h-51.2z" fill="none" stroke-width="1.0667"/>
                <g transform="matrix(2.6891 0 0 2.6891 -82.906 -48.45)">
                    <path d="m0 0h51.2v51.2h-51.2z" fill="none" stroke-width="1.0667"/>
                </g>
            </g>
        </g>
        <path d="m4.1958 1096.8c-0.66332 0-1.1979 0.5346-1.1979 1.1979v0.3334c0-0.6634 0.53459-1.1979 1.1979-1.1979h20.354c0.66332 0 1.1979 0.5345 1.1979 1.1979v-0.3334c0-0.6633-0.5346-1.1979-1.1979-1.1979z" fill="#fff" opacity=".2"/>
        <rect x="128" y="546.52" width="42.667" height="42.667" fill="none" stroke-width="1.0667"/>
        <rect x="128" y="631.85" width="42.667" height="42.667" fill="none" stroke-width="1.0667"/>
        <rect x="128" y="674.52" width="42.667" height="42.667" fill="none" stroke-width="1.0667"/>
        <rect x="128" y="589.19" width="42.667" height="42.667" fill="none" stroke-width="1.0667"/>
        <rect x="128" y="717.19" width="42.667" height="42.667" fill="none" stroke-width="1.0667"/>
        <rect x="213.33" y="546.52" width="42.667" height="42.667" fill="none" stroke-width="1.0667"/>
        <rect x="213.33" y="631.85" width="42.667" height="42.667" fill="none" stroke-width="1.0667"/>
        <rect x="213.33" y="674.52" width="42.667" height="42.667" fill="none" stroke-width="1.0667"/>
        <rect x="213.33" y="589.19" width="42.667" height="42.667" fill="none" stroke-width="1.0667"/>
        <rect x="213.33" y="717.19" width="42.667" height="42.667" fill="none" stroke-width="1.0667"/>
        <rect x="298.67" y="546.52" width="42.667" height="42.667" fill="none" stroke-width="1.0667"/>
        <rect x="298.67" y="631.85" width="42.667" height="42.667" fill="none" stroke-width="1.0667"/>
        <rect x="298.67" y="674.52" width="42.667" height="42.667" fill="none" stroke-width="1.0667"/>
        <rect x="298.67" y="589.19" width="42.667" height="42.667" fill="none" stroke-width="1.0667"/>
        <rect x="298.67" y="717.19" width="42.667" height="42.667" fill="none" stroke-width="1.0667"/>
        <rect x="170.67" y="546.52" width="42.667" height="42.667" fill="none" stroke-width="1.0667"/>
        <rect x="170.67" y="631.85" width="42.667" height="42.667" fill="none" stroke-width="1.0667"/>
        <rect x="170.67" y="674.52" width="42.667" height="42.667" fill="none" stroke-width="1.0667"/>
        <rect x="170.67" y="589.19" width="42.667" height="42.667" fill="none" stroke-width="1.0667"/>
        <rect x="170.67" y="717.19" width="42.667" height="42.667" fill="none" stroke-width="1.0667"/>
        <rect x="256" y="546.52" width="42.667" height="42.667" fill="none" stroke-width="1.0667"/>
        <rect x="256" y="631.85" width="42.667" height="42.667" fill="none" stroke-width="1.0667"/>
        <rect x="256" y="674.52" width="42.667" height="42.667" fill="none" stroke-width="1.0667"/>
        <rect x="256" y="589.19" width="42.667" height="42.667" fill="none" stroke-width="1.0667"/>
        <rect x="256" y="717.19" width="42.667" height="42.667" fill="none" stroke-width="1.0667"/>
        <rect x="128" y="759.85" width="42.667" height="42.667" fill="none" stroke-width="1.0667"/>
        <rect x="213.33" y="759.85" width="42.667" height="42.667" fill="none" stroke-width="1.0667"/>
        <rect x="298.67" y="759.85" width="42.667" height="42.667" fill="none" stroke-width="1.0667"/>
        <rect x="170.67" y="759.85" width="42.667" height="42.667" fill="none" stroke-width="1.0667"/>
        <rect x="256" y="759.85" width="42.667" height="42.667" fill="none" stroke-width="1.0667"/>
        <rect x="341.33" y="589.19" width="42.667" height="42.667" fill="none" stroke-width="1.0667"/>
        <rect x="341.33" y="631.85" width="42.667" height="42.667" fill="none" stroke-width="1.0667"/>
        <rect x="341.33" y="717.19" width="42.667" height="42.667" fill="none" stroke-width="1.0667"/>
        <rect x="341.33" y="546.52" width="42.667" height="42.667" fill="none" stroke-width="1.0667"/>
        <rect x="341.33" y="674.52" width="42.667" height="42.667" fill="none" stroke-width="1.0667"/>
        <rect x="341.33" y="759.85" width="42.667" height="42.667" fill="none" stroke-width="1.0667"/>
        <rect x="160" y="578.52" width="192" height="192" fill="none" stroke-width="1.0667"/>
        <g transform="matrix(.37344 0 0 .37344 4.7333 1097.4)">
            <path d="m0 0h51.2v51.2h-51.2z" fill="none" stroke-width="1.0667"/>
        </g>
        <g transform="matrix(.36471 0 0 .36471 5.1356 1097.4)">
            <path d="m0 0h51.2v51.2h-51.2z" fill="none" stroke-width="1.0667"/>
        </g>
        <g transform="matrix(.41585 0 0 .41585 84.325 1055.9)">
            <g transform="matrix(.062269 0 0 .062269 -28.238 185.29)">
                <g transform="matrix(38.618 0 0 38.618 14724 -13542)">
                    <g transform="matrix(.71436 0 0 .71436 -400.52 188.34)">
                        <path d="m1293.2-120.67c-181.75 0.2763-511.18 0.13525-699.05 0.13998-2.3216 10.413-3.593 21.251-3.593 32.384v114c207.65 0.73695 494.72 0.38136 706.23 0.3733v-114.37c0-11.18-1.2522-22.07-3.593-32.523zm-458.69 295.56c-78.385-4e-3 -158.85 0.17892-243.95 0.55995v138.63c286.34-0.39317 421.73-0.13827 706.23-0.32664v-137.75c-163.2-0.53005-311.22-1.1113-462.28-1.1199z" opacity="0" stroke-width="1.4932"/>
                    </g>
                </g>
            </g>
        </g>
        <path d="m24.549 1119.5c0.66325 0 1.1979-0.5346 1.1979-1.1979v-0.3333c0 0.6632-0.53461 1.1978-1.1979 1.1978h-20.354c-0.66325 0-1.1979-0.5346-1.1979-1.1978v0.3333c0 0.6633 0.53461 1.1979 1.1979 1.1979z" fill="#232323" opacity=".2"/>
    </g>
    <path d="m8.556 7.8283s0.88974 1.1054 1.1787 1.7456c0.055425 0.12278 0.088074 0.25838 0.10258 0.39231 0.07452 0.68827-0.14613 1.3857-0.080981 2.0749 0.045814 0.4847 0.14806 0.82756 0.23035 1.0438 0.17824-0.24232 0.40419-0.546 0.58306-0.75582 0.2558-0.30007 0.53437-0.57986 0.81701-0.8548 0.07033-0.06842 0.17678-0.16732 0.26994-0.25014-3.38e-4 -0.0032-0.0016-0.0077-0.0018-0.0108-0.0099-0.14707 0.01964-0.29757 0.06658-0.4373 0.0851-0.25327 0.2176-0.49405 0.38331-0.70364 0.19406-0.24544 0.44469-0.44471 0.69824-0.62805 0.36285-0.26239 1.1661-0.66764 1.1661-0.66764zm5.8612 3.0593c-0.56443-3e-3 -1.141-3.66e-4 -1.6862 0.14576-0.35263 0.09452-0.58899 0.2276-0.99157 0.46429 0 0-0.0048-0.0113-0.0054-0.0126-0.23696 0.20384-0.6904 0.61026-0.91599 0.92498 0.38451 0.25455 0.84481 0.53603 1.1949 0.79541 0.34276 0.25394 0.98797 0.81341 0.98797 0.81341l2.7642 0.02519s0.70128-0.56209 1.0743-0.81161c0.39016-0.26095 1.0857-0.64742 1.2489-0.73783-0.18112-0.28692-0.36507-0.57105-0.56147-0.8674 0 0-0.98937-0.45997-1.517-0.58486-0.51864-0.12276-1.0597-0.15189-1.5926-0.15476zm-3.7593 1.7528s-0.14901 0.1978-0.22315 0.29693c-0.11907 0.15921-0.29911 0.40162-0.35632 0.47869-0.0518 0.09599-0.56696 1.0541-0.78462 1.598-0.3624 0.9056-0.58584 1.8594-0.87459 2.7911-0.10959 0.35362-0.32572 1.0618-0.32572 1.0618l0.4247-0.18536c0.053699-0.04377 0.11907-0.09575 0.16736-0.12777 0.10224-0.06779 0.16348-0.126 0.34912-0.07738 0.13897 0.0364 0.4157 0.10977 0.4157 0.10977 0.13495 0.03535 0.26516 0.06473 0.4139 0.05938l1.0779-0.03959s0.58415-1.8223 0.96277-2.6994c0.25391-0.58818 0.8746-1.7114 0.8746-1.7114 0-1e-6 -0.60895-0.52709-0.93218-0.76662-0.3462-0.25654-1.1895-0.78821-1.1895-0.78821zm7.5762 0.08818c-0.15656 0.0867-0.85336 0.47427-1.2417 0.73423-0.3619 0.24225-1.042 0.78822-1.042 0.78822s0.65834 1.1884 0.93758 1.8068c0.37515 0.83079 0.98797 2.55 0.98797 2.55s0.70871 0.14712 1.0618 0.10437c0.28393-0.03438 0.80981-0.28613 0.80981-0.28613 0.09293-0.03193 0.22844-0.05178 0.36711 0.10438l0.21775 0.22135 0.48229 0.21055s-0.15849-0.73333-0.25914-1.0941c-0.18482-0.66257-0.38167-1.3232-0.63345-1.9633-0.22289-0.56667-0.48793-1.1162-0.77382-1.6538-0.26855-0.50504-0.58017-0.98604-0.88179-1.4721-0.01061-0.01709-0.02179-0.03335-0.0324-0.05038zm-5.1972 1.5674c0 1e-6 -0.62326 1.1292-0.87819 1.7204-0.37088 0.86016-0.94298 2.6472-0.94298 2.6472s0.57926 0.22258 0.853 0.36712c0.47047 0.24841 1.3479 0.8548 1.3479 0.8548l2.0317-0.0036s0.62499-0.45651 0.95558-0.64065c0.38627-0.21516 1.1949-0.57586 1.1949-0.57586s-0.5965-1.6818-0.96277-2.4942c-0.28581-0.63398-0.96098-1.8518-0.96098-1.8518zm6.8546 4.409c-0.05563 3.74e-4 -0.12242 0.01471-0.21595 0.04679 0 0-0.45839 0.21426-0.70544 0.24294-0.21385 0.02483-0.53663-0.01302-0.80261-0.05219-0.19478-0.02868-0.38988-0.05561-0.68024 0.08458 0 0-0.64185 0.28634-0.94838 0.45709-0.2805 0.15626-0.69359 0.43949-0.87459 0.56507 0.02664 0.0063 0.94651 0.22613 1.3803 0.4265 0.19296 0.08914 0.53807 0.34192 0.53807 0.34192l2.3862 0.08278s0.12884-0.2025 0.22855-0.26274c0.06243-0.03772 0.14123-0.04865 0.21415-0.05038 0.16952-4e-3 0.50028 0.09178 0.50028 0.09178s0.03317-0.07627 0.03959-0.11697c0.01768-0.11197 0.0135-0.22867-0.0072-0.34012-0.04628-0.24926-0.15352-0.48395-0.25914-0.71443-0.08922-0.19469-0.21152-0.37115-0.31313-0.55967-0.0083-0.01549-0.01473-0.02675-0.02519-0.04679l-0.30593-0.15656c-0.04969-0.02528-0.09373-0.03997-0.14937-0.03959zm-11.103 0.04679c-0.086193 0.0016-0.17713 0.01823-0.28253 0.05398-0.063465 0.12178-0.14349 0.27828-0.19615 0.39411-0.13972 0.30731-0.25237 0.62567-0.38151 0.93758-0.047141 0.11386-0.14397 0.34012-0.14397 0.34012l0.16376 0.17996s0.38154-0.04659 0.56507 0c0.13476 0.0342 0.32572 0.26094 0.32572 0.26094l2.0929-0.10438s0.71847-0.30214 1.0869-0.4265c0.37686-0.12719 1.0994-0.31566 1.1589-0.33112-0.21155-0.1449-0.8258-0.56255-1.2381-0.78102-0.19269-0.1021-0.51919-0.26041-0.73423-0.32392-0.12673-0.03743-0.29275-0.06884-0.49128-0.06119l-0.72703 0.02699c-0.15569 6e-3 -0.30604 0.01634-0.46429-0.02519l-0.4373-0.11516c-0.1066-0.01424-0.19994-0.02702-0.29693-0.02519z" fill="#fff"/>
    <g display="none" fill="none">
        <rect transform="rotate(90)" x="7.8232" y="-20.923" width="13.1" height="13.1" display="inline" stroke="#000" stroke-width=".070382"/>
        <rect x="7.2241" y="8.6528" width="14.298" height="11.441" stroke="#5261ff" stroke-linecap="round" stroke-linejoin="round" stroke-width=".06959"/>
        <rect transform="rotate(90)" x="7.2241" y="-20.094" width="14.298" height="11.441" display="inline" stroke="#0f0" stroke-linecap="round" stroke-linejoin="round" stroke-width=".06959"/>
    </g>
</svg>
