<?xml version="1.0" encoding="UTF-8"?>
<svg version="1.1" viewBox="0 0 26.95 26.95" xmlns="http://www.w3.org/2000/svg">
    <defs>
        <filter id="filter6206-7" color-interpolation-filters="sRGB">
            <feGaussianBlur stdDeviation="0.658125"/>
        </filter>
    </defs>
    <g transform="translate(0 -1025.4)">
        <path transform="matrix(1.0107 0 0 .99762 -.087875 2.579)" d="m4.4177 1028.2v1.6051h-1.6052v18.192h1.6052v2.1402h18.192v-2.1402h2.1402v-18.192h-2.1402v-1.6051h-18.192z" fill="#232323" filter="url(#filter6206-7)" opacity=".2"/>
        <rect x="2.8113" y="1028.2" width="21.327" height="21.327" rx="1.1225" ry="1.1226" fill="#232323"/>
        <g transform="translate(-20.925 990.46)">
            <path d="m0 0h48v48h-48z" fill="none"/>
            <g transform="matrix(.33601 0 0 .33601 1.434 68.477)">
                <path d="m0 0h48v48h-48z" fill="none"/>
            </g>
            <g transform="matrix(.37187 0 0 .37187 36.377 59.287)">
                <path d="m0 0h48v48h-48z" fill="none"/>
                <g transform="matrix(2.6891 0 0 2.6891 -77.724 -45.422)">
                    <path d="m0 0h48v48h-48z" fill="none"/>
                </g>
            </g>
        </g>
        <path transform="translate(0 1025.4)" d="m3.9336 2.8105c-0.62186 0-1.123 0.50115-1.123 1.123v0.3125c0-0.6219 0.50118-1.123 1.123-1.123h19.082c0.62186 0 1.123 0.50115 1.123 1.123v-0.3125c0-0.6219-0.50118-1.123-1.123-1.123h-19.082z" fill="#fff" opacity=".2"/>
        <rect x="120" y="512.36" width="40" height="40" fill="none"/>
        <rect x="120" y="592.36" width="40" height="40" fill="none"/>
        <rect x="120" y="632.36" width="40" height="40" fill="none"/>
        <rect x="120" y="552.36" width="40" height="40" fill="none"/>
        <rect x="120" y="672.36" width="40" height="40" fill="none"/>
        <rect x="200" y="512.36" width="40" height="40" fill="none"/>
        <rect x="200" y="592.36" width="40" height="40" fill="none"/>
        <rect x="200" y="632.36" width="40" height="40" fill="none"/>
        <rect x="200" y="552.36" width="40" height="40" fill="none"/>
        <rect x="200" y="672.36" width="40" height="40" fill="none"/>
        <rect x="280" y="512.36" width="40" height="40" fill="none"/>
        <rect x="280" y="592.36" width="40" height="40" fill="none"/>
        <rect x="280" y="632.36" width="40" height="40" fill="none"/>
        <rect x="280" y="552.36" width="40" height="40" fill="none"/>
        <rect x="280" y="672.36" width="40" height="40" fill="none"/>
        <rect x="160" y="512.36" width="40" height="40" fill="none"/>
        <rect x="160" y="592.36" width="40" height="40" fill="none"/>
        <rect x="160" y="632.36" width="40" height="40" fill="none"/>
        <rect x="160" y="552.36" width="40" height="40" fill="none"/>
        <rect x="160" y="672.36" width="40" height="40" fill="none"/>
        <rect x="240" y="512.36" width="40" height="40" fill="none"/>
        <rect x="240" y="592.36" width="40" height="40" fill="none"/>
        <rect x="240" y="632.36" width="40" height="40" fill="none"/>
        <rect x="240" y="552.36" width="40" height="40" fill="none"/>
        <rect x="240" y="672.36" width="40" height="40" fill="none"/>
        <rect x="120" y="712.36" width="40" height="40" fill="none"/>
        <rect x="200" y="712.36" width="40" height="40" fill="none"/>
        <rect x="280" y="712.36" width="40" height="40" fill="none"/>
        <rect x="160" y="712.36" width="40" height="40" fill="none"/>
        <rect x="240" y="712.36" width="40" height="40" fill="none"/>
        <rect x="320" y="552.36" width="40" height="40" fill="none"/>
        <rect x="320" y="592.36" width="40" height="40" fill="none"/>
        <rect x="320" y="672.36" width="40" height="40" fill="none"/>
        <rect x="320" y="512.36" width="40" height="40" fill="none"/>
        <rect x="320" y="632.36" width="40" height="40" fill="none"/>
        <rect x="320" y="712.36" width="40" height="40" fill="none"/>
        <rect x="150" y="542.36" width="180" height="180" fill="none"/>
        <g transform="matrix(.37344 0 0 .37344 4.4375 1028.8)">
            <path d="m0 0h48v48h-48z" fill="none"/>
        </g>
        <g transform="matrix(.36471 0 0 .36471 4.8146 1028.8)">
            <path d="m0 0h48v48h-48z" fill="none"/>
        </g>
        <g transform="matrix(.41585 0 0 .41585 79.055 989.88)">
            <g transform="matrix(.062269 0 0 .062269 -26.473 173.71)">
                <g transform="matrix(38.618 0 0 38.618 13804 -12696)">
                    <g transform="matrix(.71436 0 0 .71436 -375.49 176.57)">
                        <path transform="matrix(1.3999 0 0 1.3999 525.63 -247.17)" d="m490.56 95.75c-121.72 0.18504-342.34 0.090577-468.16 0.09375-1.5548 6.9739-2.4062 14.232-2.4062 21.688v76.344c139.06 0.49354 331.32 0.2554 472.97 0.25v-76.594c0-7.4875-0.8386-14.78-2.4062-21.781zm-307.19 197.94c-52.495-3e-3 -106.38 0.11982-163.38 0.375v92.844c191.76-0.26331 282.43-0.0926 472.97-0.21875v-92.25c-109.29-0.35498-208.43-0.74426-309.59-0.75z" opacity="0"/>
                    </g>
                </g>
            </g>
        </g>
        <path d="m23.015 1049.6c0.6218 0 1.123-0.5012 1.123-1.123v-0.3125c0 0.6218-0.5012 1.123-1.123 1.123h-19.082c-0.6218 0-1.123-0.5012-1.123-1.123v0.3125c0 0.6218 0.5012 1.123 1.123 1.123h19.082z" fill="#232323" opacity=".2"/>
    </g>
    <flowRoot fill="#000000" font-family="Roboto" font-size="3.75px" letter-spacing="0px" stroke-width="1px" word-spacing="0px" style="line-height:125%" xml:space="preserve"><flowRegion><rect x="10.664" y="11.235" width="4.49" height="5.0512"/></flowRegion><flowPara>your</flowPara></flowRoot>
    <g transform="matrix(.059046 0 0 .059046 -23.038 10.718)">
        <path transform="matrix(16.936 0 0 16.936 390.17 -181.51)" d="m9.2715 7.3301c-0.082316 0-0.16113 0.013451-0.24023 0.025391-0.26403 0.055571-0.50731 0.15993-0.72656 0.30078-0.40732 0.30358-0.67578 0.79042-0.67578 1.3418v0.6875c-0.17201 0.0074603-0.30859 0.1497-0.30859 0.32617v2.1348c0 0.17658 0.13658 0.3167 0.30859 0.32422v1.7578c-0.17201 0.007621-0.30859 0.14986-0.30859 0.32617v2.1328c0 0.17658 0.13853 0.31882 0.31055 0.32617v0.9082c0 0.91907 0.73547 1.666 1.6406 1.666h8.7852c0.90489 0 1.6426-0.74646 1.6426-1.666v-8.9238c0-0.91902-0.73769-1.668-1.6426-1.668h-8.7852zm4.2031 3.5137c0.13218 0 0.24024 0.10817 0.24024 0.24023v0.73633c0.13347 0.018772 0.26111 0.052251 0.38281 0.09961l0.36524-0.63477c0.065971-0.11446 0.2135-0.15414 0.32812-0.08789 0.11458 0.06609 0.15382 0.21182 0.08789 0.32617l-0.36523 0.63086c0.10645 0.081616 0.20404 0.1734 0.28906 0.27734l0.625-0.35938c0.11443-0.06613 0.26008-0.026614 0.32617 0.08789 0.065973 0.11451 0.026694 0.26004-0.08789 0.32617l-0.61524 0.35547c0.053419 0.1244 0.090443 0.25684 0.11328 0.39453h0.70313c0.13206 0 0.23828 0.10633 0.23828 0.23828 0 0.13218-0.10622 0.24024-0.23828 0.24024h-0.69141c-0.016704 0.14247-0.050412 0.27833-0.099609 0.4082l0.58984 0.3418c0.11438 0.06613 0.15386 0.21178 0.08789 0.32617-0.044077 0.076649-0.1244 0.11914-0.20703 0.11914-0.040511 0-0.08164-0.009819-0.11914-0.03125l-0.58203-0.33594c-0.086584 0.11536-0.18644 0.2188-0.29883 0.30859l0.33203 0.57617c0.065972 0.11462 0.026497 0.26024-0.08789 0.32617-0.037738 0.021862-0.078822 0.033203-0.11914 0.033203-0.082789 0-0.16448-0.044444-0.20898-0.12109l-0.32812-0.56836c-0.13226 0.055181-0.27319 0.092632-0.41992 0.11328v0.65625c0 0.13206-0.10798 0.24023-0.24024 0.24023-0.13214 0-0.23828-0.10817-0.23828-0.24023v-0.65625c-0.14704-0.02065-0.2895-0.057867-0.42188-0.11328l-0.32812 0.56836c-0.044386 0.076845-0.12432 0.12109-0.20703 0.12109-0.04071 0-0.083434-0.011381-0.12109-0.033203-0.11446-0.065972-0.15175-0.21159-0.085937-0.32617l0.33008-0.57617c-0.1122-0.089984-0.21029-0.19323-0.29688-0.30859l-0.58203 0.33594c-0.037622 0.02147-0.08058 0.03125-0.12109 0.03125-0.082477 0-0.16264-0.042491-0.20703-0.11914-0.066012-0.11439-0.026613-0.26 0.087891-0.32617l0.58984-0.3418c-0.049353-0.12987-0.083224-0.26574-0.099609-0.4082h-0.69141c-0.13226 0-0.23828-0.10805-0.23828-0.24024 2.36e-4 -0.1321 0.10602-0.23828 0.23828-0.23828h0.70312c0.022643-0.1377 0.060057-0.27013 0.11328-0.39453l-0.61524-0.35547c-0.11446-0.066129-0.15371-0.21167-0.087891-0.32617 0.066131-0.11447 0.21296-0.15402 0.32813-0.08789l0.62305 0.35938c0.084784-0.10398 0.1825-0.19553 0.28906-0.27734l-0.36328-0.63086c-0.06613-0.11439-0.028567-0.26008 0.085937-0.32617 0.11431-0.066247 0.262-0.026809 0.32812 0.08789l0.36523 0.63477c0.12162-0.047358 0.25133-0.080838 0.38477-0.09961v-0.73633c0-0.13206 0.10614-0.24023 0.23828-0.24023zm0 1.6016c-0.56817 0-1.0273 0.46113-1.0273 1.0293 0 0.56821 0.45918 1.0293 1.0273 1.0293 0.56828 0 1.0293-0.46109 1.0293-1.0293 0-0.56817-0.46102-1.0293-1.0293-1.0293z" fill="#fff"/>
    </g>
    <g display="none" fill="none">
        <rect transform="rotate(90)" x="7.3342" y="-19.616" width="12.282" height="12.282" display="inline" stroke="#000" stroke-width=".065984"/>
        <rect x="6.7726" y="8.112" width="13.405" height="10.726" stroke="#5261ff" stroke-linecap="round" stroke-linejoin="round" stroke-width=".06524"/>
        <rect transform="rotate(90)" x="6.7726" y="-18.838" width="13.405" height="10.726" display="inline" stroke="#0f0" stroke-linecap="round" stroke-linejoin="round" stroke-width=".06524"/>
    </g>
</svg>
