<?xml version="1.0" encoding="UTF-8"?>
<svg version="1.1" viewBox="0 0 28.747 28.747" xmlns="http://www.w3.org/2000/svg" xmlns:osb="http://www.openswatchbook.org/uri/2009/osb" xmlns:xlink="http://www.w3.org/1999/xlink">
    <defs>
        <filter id="filter6206-7" color-interpolation-filters="sRGB">
            <feGaussianBlur stdDeviation="0.658125"/>
        </filter>
    </defs>
    <g transform="translate(0 -1093.8)">
        <path transform="matrix(1.0781 0 0 1.0641 -.093733 2.7509)" d="m4.4177 1028.2v1.6051h-1.6052v18.192h1.6052v2.1402h18.192v-2.1402h2.1402v-18.192h-2.1402v-1.6051z" fill="#1a237e" filter="url(#filter6206-7)" opacity=".2"/>
        <rect x="2.9987" y="1096.8" width="22.749" height="22.749" rx="1.1973" ry="1.1974" fill="#424242"/>
        <g transform="translate(-22.32 1056.5)">
            <path d="m0 0h51.2v51.2h-51.2z" fill="none" stroke-width="1.0667"/>
            <g transform="matrix(.33601 0 0 .33601 1.5296 73.043)">
                <path d="m0 0h51.2v51.2h-51.2z" fill="none" stroke-width="1.0667"/>
            </g>
            <g transform="matrix(.37187 0 0 .37187 38.802 63.239)">
                <path d="m0 0h51.2v51.2h-51.2z" fill="none" stroke-width="1.0667"/>
                <g transform="matrix(2.6891 0 0 2.6891 -82.906 -48.45)">
                    <path d="m0 0h51.2v51.2h-51.2z" fill="none" stroke-width="1.0667"/>
                </g>
            </g>
        </g>
        <path d="m4.1958 1096.8c-0.66332 0-1.1979 0.5346-1.1979 1.1979v0.3334c0-0.6634 0.53459-1.1979 1.1979-1.1979h20.354c0.66332 0 1.1979 0.5345 1.1979 1.1979v-0.3334c0-0.6633-0.5346-1.1979-1.1979-1.1979z" fill="#fff" opacity=".2"/>
        <rect x="128" y="546.52" width="42.667" height="42.667" fill="none" stroke-width="1.0667"/>
        <rect x="128" y="631.85" width="42.667" height="42.667" fill="none" stroke-width="1.0667"/>
        <rect x="128" y="674.52" width="42.667" height="42.667" fill="none" stroke-width="1.0667"/>
        <rect x="128" y="589.19" width="42.667" height="42.667" fill="none" stroke-width="1.0667"/>
        <rect x="128" y="717.19" width="42.667" height="42.667" fill="none" stroke-width="1.0667"/>
        <rect x="213.33" y="546.52" width="42.667" height="42.667" fill="none" stroke-width="1.0667"/>
        <rect x="213.33" y="631.85" width="42.667" height="42.667" fill="none" stroke-width="1.0667"/>
        <rect x="213.33" y="674.52" width="42.667" height="42.667" fill="none" stroke-width="1.0667"/>
        <rect x="213.33" y="589.19" width="42.667" height="42.667" fill="none" stroke-width="1.0667"/>
        <rect x="213.33" y="717.19" width="42.667" height="42.667" fill="none" stroke-width="1.0667"/>
        <rect x="298.67" y="546.52" width="42.667" height="42.667" fill="none" stroke-width="1.0667"/>
        <rect x="298.67" y="631.85" width="42.667" height="42.667" fill="none" stroke-width="1.0667"/>
        <rect x="298.67" y="674.52" width="42.667" height="42.667" fill="none" stroke-width="1.0667"/>
        <rect x="298.67" y="589.19" width="42.667" height="42.667" fill="none" stroke-width="1.0667"/>
        <rect x="298.67" y="717.19" width="42.667" height="42.667" fill="none" stroke-width="1.0667"/>
        <rect x="170.67" y="546.52" width="42.667" height="42.667" fill="none" stroke-width="1.0667"/>
        <rect x="170.67" y="631.85" width="42.667" height="42.667" fill="none" stroke-width="1.0667"/>
        <rect x="170.67" y="674.52" width="42.667" height="42.667" fill="none" stroke-width="1.0667"/>
        <rect x="170.67" y="589.19" width="42.667" height="42.667" fill="none" stroke-width="1.0667"/>
        <rect x="170.67" y="717.19" width="42.667" height="42.667" fill="none" stroke-width="1.0667"/>
        <rect x="256" y="546.52" width="42.667" height="42.667" fill="none" stroke-width="1.0667"/>
        <rect x="256" y="631.85" width="42.667" height="42.667" fill="none" stroke-width="1.0667"/>
        <rect x="256" y="674.52" width="42.667" height="42.667" fill="none" stroke-width="1.0667"/>
        <rect x="256" y="589.19" width="42.667" height="42.667" fill="none" stroke-width="1.0667"/>
        <rect x="256" y="717.19" width="42.667" height="42.667" fill="none" stroke-width="1.0667"/>
        <rect x="128" y="759.85" width="42.667" height="42.667" fill="none" stroke-width="1.0667"/>
        <rect x="213.33" y="759.85" width="42.667" height="42.667" fill="none" stroke-width="1.0667"/>
        <rect x="298.67" y="759.85" width="42.667" height="42.667" fill="none" stroke-width="1.0667"/>
        <rect x="170.67" y="759.85" width="42.667" height="42.667" fill="none" stroke-width="1.0667"/>
        <rect x="256" y="759.85" width="42.667" height="42.667" fill="none" stroke-width="1.0667"/>
        <rect x="341.33" y="589.19" width="42.667" height="42.667" fill="none" stroke-width="1.0667"/>
        <rect x="341.33" y="631.85" width="42.667" height="42.667" fill="none" stroke-width="1.0667"/>
        <rect x="341.33" y="717.19" width="42.667" height="42.667" fill="none" stroke-width="1.0667"/>
        <rect x="341.33" y="546.52" width="42.667" height="42.667" fill="none" stroke-width="1.0667"/>
        <rect x="341.33" y="674.52" width="42.667" height="42.667" fill="none" stroke-width="1.0667"/>
        <rect x="341.33" y="759.85" width="42.667" height="42.667" fill="none" stroke-width="1.0667"/>
        <rect x="160" y="578.52" width="192" height="192" fill="none" stroke-width="1.0667"/>
        <g transform="matrix(.37344 0 0 .37344 4.7333 1097.4)">
            <path d="m0 0h51.2v51.2h-51.2z" fill="none" stroke-width="1.0667"/>
        </g>
        <g transform="matrix(.36471 0 0 .36471 5.1356 1097.4)">
            <path d="m0 0h51.2v51.2h-51.2z" fill="none" stroke-width="1.0667"/>
        </g>
        <g transform="matrix(.41585 0 0 .41585 84.325 1055.9)">
            <g transform="matrix(.062269 0 0 .062269 -28.238 185.29)">
                <g transform="matrix(38.618 0 0 38.618 14724 -13542)">
                    <g transform="matrix(.71436 0 0 .71436 -400.52 188.34)">
                        <path d="m1293.2-120.67c-181.75 0.2763-511.18 0.13525-699.05 0.13998-2.3216 10.413-3.593 21.251-3.593 32.384v114c207.65 0.73695 494.72 0.38136 706.23 0.3733v-114.37c0-11.18-1.2522-22.07-3.593-32.523zm-458.69 295.56c-78.385-4e-3 -158.85 0.17892-243.95 0.55995v138.63c286.34-0.39317 421.73-0.13827 706.23-0.32664v-137.75c-163.2-0.53005-311.22-1.1113-462.28-1.1199z" opacity="0" stroke-width="1.4932"/>
                    </g>
                </g>
            </g>
        </g>
        <path d="m24.549 1119.5c0.66325 0 1.1979-0.5346 1.1979-1.1979v-0.3333c0 0.6632-0.53461 1.1978-1.1979 1.1978h-20.354c-0.66325 0-1.1979-0.5346-1.1979-1.1978v0.3333c0 0.6633 0.53461 1.1979 1.1979 1.1979z" fill="#1a237e" opacity=".2"/>
    </g>
    <g>
        <flowRoot fill="#000000" font-family="Roboto" font-size="12.8px" letter-spacing="0px" stroke-width="1.0667px" word-spacing="0px" style="line-height:0.01%" xml:space="preserve"><flowRegion><rect x="11.375" y="11.984" width="4.7893" height="5.388" stroke-width="1.1378px"/></flowRegion><flowPara font-size="4px" style="line-height:1.25">your</flowPara></flowRoot>
        <path d="m7.8216 18.578c-0.032081 0.03208-0.03209 0.0838-2.6e-6 0.11588l2.2316 2.2316c0.03209 0.03209 0.08381 0.03207 0.11588-1e-6l10.756-10.756c0.03209-0.03209 0.03208-0.08379-6e-6 -0.11588l-2.2316-2.2316c-0.03209-0.032093-0.0838-0.032087-0.11587-6.5e-6zm0.61769-0.12354 0.1313-0.1313c0.032082-0.03208 0.083691-0.03198 0.11578 1.03e-4l0.87253 0.87253c0.032081 0.03208 0.032193 0.0837 1.1e-4 0.11578l-0.1313 0.1313c-0.032082 0.03208-0.083798 0.03209-0.11589-3e-6l-0.87252-0.87252c-0.032093-0.03209-0.032087-0.0838 3.3e-6 -0.11588zm0.49415-0.49415 0.1313-0.1313c0.032082-0.03208 0.083795-0.03208 0.11588 0l0.37837 0.37837c0.032081 0.03208 0.032074 0.0838-6.5e-6 0.11588l-0.1313 0.1313c-0.032083 0.03208-0.083792 0.03208-0.11587 4e-6l-0.37837-0.37837c-0.032093-0.03209-0.032087-0.0838-1.9e-6 -0.11588zm0.49416-0.49416 0.1313-0.1313c0.032083-0.03208 0.083794-0.03208 0.11588 0l0.37837 0.37838c0.03208 0.03208 0.03207 0.0838-6e-6 0.11587l-0.1313 0.1313c-0.032085 0.03208-0.083693 0.03198-0.11577-9.4e-5l-0.37837-0.37837c-0.032093-0.03209-0.032184-0.08371-1.01e-4 -0.11578zm0.49425-0.49425 0.1312-0.1312c0.03208-0.03207 0.0838-0.03209 0.11588-1e-6l0.37837 0.37837c0.03207 0.03208 0.03208 0.08379-1e-5 0.11588l-0.1312 0.1312c-0.03208 0.03208-0.0838 0.03208-0.11588 9e-6l-0.37837-0.37837c-0.032093-0.03209-0.032083-0.08381 2.5e-6 -0.11588zm0.49415-0.49416 0.1313-0.1313c0.03208-0.03208 0.0837-0.03198 0.11578 1.05e-4l0.37837 0.37837c0.03207 0.03208 0.03217 0.08369 9.7e-5 0.11577l-0.1313 0.1313c-0.03208 0.03208-0.0838 0.03208-0.11588 6e-6l-0.37837-0.37837c-0.03209-0.03209-0.03208-0.0838 0-0.11588zm0.49415-0.49415 0.1313-0.1313c0.03208-0.03208 0.0838-0.03208 0.11588 8e-6l0.62545 0.62545c0.03209 0.03209 0.03209 0.08381 1.2e-5 0.11588l-0.1313 0.1313c-0.03209 0.03208-0.0837 0.03198-0.11579-1.11e-4l-0.62545-0.62545c-0.03209-0.03209-0.03218-0.08371-1.04e-4 -0.11578zm0.49425-0.49425 0.1312-0.1312c0.03209-0.03208 0.0838-0.03208 0.11588 7e-6l0.37837 0.37837c0.03208 0.03207 0.03208 0.0838 0 0.11587l-0.1312 0.1312c-0.03208 0.03208-0.08379 0.03208-0.11587 0l-0.37837-0.37837c-0.03209-0.03209-0.03208-0.0838-6e-6 -0.11588zm0.49416-0.49416 0.1312-0.1312c0.03207-0.03208 0.0838-0.03208 0.11588 7e-6l0.37837 0.37837c0.03207 0.03207 0.03207 0.0838 0 0.11587l-0.1312 0.1312c-0.03208 0.03207-0.08381 0.03209-0.11588 1.3e-5l-0.37837-0.37837c-0.03209-0.03209-0.03208-0.0838 6e-6 -0.11589zm0.49415-0.49415 0.1313-0.1313c0.03208-0.03208 0.08369-0.03198 0.11578 1.04e-4l0.37838 0.37837c0.03207 0.03208 0.03218 0.0837 9.7e-5 0.11577l-0.1313 0.1313c-0.03208 0.03208-0.0838 0.03208-0.11588 7e-6l-0.37837-0.37837c-0.03209-0.03209-0.03208-0.0838 0-0.11588zm0.49415-0.49415 0.1313-0.1313c0.03207-0.03208 0.08379-0.03208 0.11588 0l0.37837 0.37837c0.03208 0.03209 0.03208 0.0838-7e-6 0.11588l-0.1313 0.1313c-0.03207 0.03208-0.08369 0.03198-0.11577-9.9e-5l-0.37837-0.37837c-0.03209-0.03209-0.03218-0.0837-1.05e-4 -0.11578zm0.49425-0.49425 0.1312-0.1312c0.03208-0.03208 0.0838-0.03208 0.11588 6e-6l0.87253 0.87253c0.03207 0.03207 0.03209 0.08381 1.3e-5 0.11588l-0.1312 0.1312c-0.03208 0.03208-0.08379 0.03208-0.11588-1.3e-5l-0.87252-0.87252c-0.03209-0.03209-0.03208-0.0838-6e-6 -0.11588zm0.49415-0.49415 0.1313-0.1313c0.03207-0.03207 0.08369-0.03198 0.11578 1.04e-4l0.37837 0.37837c0.03208 0.03208 0.03218 0.0837 9.7e-5 0.11577l-0.1313 0.1313c-0.03207 0.03207-0.0838 0.03207-0.11587 0l-0.37837-0.37837c-0.03209-0.03209-0.03208-0.08379-6e-6 -0.11588zm0.49415-0.49415 0.1313-0.1313c0.03208-0.03208 0.0838-0.03208 0.11588 0l0.37837 0.37837c0.03207 0.03207 0.03207 0.0838-6e-6 0.11588l-0.1313 0.1313c-0.03208 0.03208-0.0838 0.03208-0.11587 0l-0.37837-0.37837c-0.03209-0.03209-0.03208-0.0838-6e-6 -0.11588zm0.49415-0.49415 0.1313-0.1313c0.03208-0.03208 0.0838-0.03208 0.11588 0l0.37838 0.37837c0.03208 0.03208 0.03208 0.0838-7e-6 0.11588l-0.1313 0.1313c-0.03208 0.03208-0.0837 0.03198-0.11577-9.7e-5l-0.37837-0.37837c-0.03209-0.03209-0.03219-0.08371-1.04e-4 -0.11578zm0.49426-0.49426 0.1312-0.1312c0.03207-0.03208 0.0838-0.03208 0.11588 0l0.37837 0.37837c0.03208 0.03208 0.03208 0.0838-6e-6 0.11588l-0.1312 0.1312c-0.03207 0.03208-0.0838 0.03209-0.11588 7e-6l-0.37837-0.37837c-0.03209-0.03209-0.03208-0.0838 0-0.11588zm0.49415-0.49415 0.1313-0.1313c0.03208-0.03208 0.0837-0.03198 0.11578 1.04e-4l0.62545 0.62545c0.03209 0.03209 0.03219 0.08371 1.1e-4 0.11578l-0.1313 0.1313c-0.03208 0.03208-0.08381 0.03209-0.1159 0l-0.62545-0.62545c-0.03209-0.03209-0.03208-0.08381 7e-6 -0.11589zm0.49415-0.49415 0.1313-0.1313c0.03207-0.03208 0.0838-0.03208 0.11588 0l0.37837 0.37837c0.03207 0.03207 0.03207 0.08379-6e-6 0.11587l-0.1313 0.1313c-0.01601 0.01601-0.0369 0.02399-0.05785 0.02398-0.01041 0-0.02093-2e-3 -0.03084-0.0061-0.0099-4e-3 -0.01912-0.01002-0.02713-0.01801l-0.37837-0.37837c-8e-3 -8e-3 -0.01395-0.01734-0.01801-0.02713-4e-3 -0.0099-0.0061-0.02027-0.0061-0.03084 1.9e-5 -0.02089 0.0079-0.04183 0.02398-0.05784zm0.49425-0.49425 0.1312-0.1312c0.03208-0.032081 0.0838-0.032081 0.11588 6e-6l0.37837 0.37837c0.03207 0.03208 0.03207 0.08378 0 0.11587l-0.1312 0.1312c-0.03208 0.03207-0.08378 0.03207-0.11587 0l-0.37837-0.37837c-0.03209-0.03209-0.03209-0.0838-8e-6 -0.11588zm0.49415-0.49415 0.1313-0.1313c0.03207-0.032071 0.08369-0.03198 0.11578 1.042e-4l0.37837 0.37837c0.03208 0.032081 0.03218 0.083694 9.8e-5 0.11577l-0.1313 0.1313c-0.03207 0.03208-0.08379 0.03209-0.11587 6e-6l-0.37837-0.37837c-0.03209-0.032091-0.03208-0.083796 0-0.11588zm0.49416-0.49416 0.1313-0.1313c0.03208-0.032087 0.0838-0.032087 0.11588 0l0.37837 0.37837c0.03208 0.032081 0.03208 0.083785-6e-6 0.11587l-0.1313 0.1313c-0.03208 0.032081-0.08379 0.032091-0.11588 7.1e-6l-0.37837-0.37837c-0.03209-0.032093-0.03208-0.083794 0-0.11588zm0.49415-0.49415 0.1313-0.1313c0.03207-0.032081 0.0838-0.032087 0.11588 0l0.87253 0.87253c0.03208 0.032081 0.03209 0.083795 7e-6 0.11589l-0.1313 0.1313c-0.03208 0.032081-0.08369 0.03198-0.11578-1.103e-4l-0.87252-0.87252c-0.03209-0.032093-0.03218-0.083696-1.04e-4 -0.11578z" fill="#fff" style="paint-order:normal"/>
    </g>
    <g display="none" fill="none">
        <rect transform="rotate(90)" x="7.8232" y="-20.923" width="13.1" height="13.1" display="inline" stroke="#000" stroke-width=".070382"/>
        <rect x="7.2241" y="8.6528" width="14.298" height="11.441" stroke="#5261ff" stroke-linecap="round" stroke-linejoin="round" stroke-width=".069589"/>
        <rect transform="rotate(90)" x="7.2241" y="-20.094" width="14.298" height="11.441" display="inline" stroke="#0f0" stroke-linecap="round" stroke-linejoin="round" stroke-width=".069589"/>
    </g>
</svg>
