<?xml version="1.0" encoding="UTF-8"?>
<svg version="1.1" viewBox="0 0 28.747 28.747" xmlns="http://www.w3.org/2000/svg" xmlns:osb="http://www.openswatchbook.org/uri/2009/osb" xmlns:xlink="http://www.w3.org/1999/xlink">
    <defs>
        <filter id="filter6206-7" color-interpolation-filters="sRGB">
            <feGaussianBlur stdDeviation="0.658125"/>
        </filter>
    </defs>
    <g transform="translate(0 -1093.8)">
        <path transform="matrix(1.0781 0 0 1.0641 -.093733 2.7509)" d="m4.4177 1028.2v1.6051h-1.6052v18.192h1.6052v2.1402h18.192v-2.1402h2.1402v-18.192h-2.1402v-1.6051z" fill="#1a237e" filter="url(#filter6206-7)" opacity=".2"/>
        <rect x="2.9987" y="1096.8" width="22.749" height="22.749" rx="1.1973" ry="1.1974" fill="#424242"/>
        <g transform="translate(-22.32 1056.5)">
            <path d="m0 0h51.2v51.2h-51.2z" fill="none" stroke-width="1.0667"/>
            <g transform="matrix(.33601 0 0 .33601 1.5296 73.043)">
                <path d="m0 0h51.2v51.2h-51.2z" fill="none" stroke-width="1.0667"/>
            </g>
            <g transform="matrix(.37187 0 0 .37187 38.802 63.239)">
                <path d="m0 0h51.2v51.2h-51.2z" fill="none" stroke-width="1.0667"/>
                <g transform="matrix(2.6891 0 0 2.6891 -82.906 -48.45)">
                    <path d="m0 0h51.2v51.2h-51.2z" fill="none" stroke-width="1.0667"/>
                </g>
            </g>
        </g>
        <path d="m4.1958 1096.8c-0.66332 0-1.1979 0.5346-1.1979 1.1979v0.3334c0-0.6634 0.53459-1.1979 1.1979-1.1979h20.354c0.66332 0 1.1979 0.5345 1.1979 1.1979v-0.3334c0-0.6633-0.5346-1.1979-1.1979-1.1979z" fill="#fff" opacity=".2"/>
        <rect x="128" y="546.52" width="42.667" height="42.667" fill="none" stroke-width="1.0667"/>
        <rect x="128" y="631.85" width="42.667" height="42.667" fill="none" stroke-width="1.0667"/>
        <rect x="128" y="674.52" width="42.667" height="42.667" fill="none" stroke-width="1.0667"/>
        <rect x="128" y="589.19" width="42.667" height="42.667" fill="none" stroke-width="1.0667"/>
        <rect x="128" y="717.19" width="42.667" height="42.667" fill="none" stroke-width="1.0667"/>
        <rect x="213.33" y="546.52" width="42.667" height="42.667" fill="none" stroke-width="1.0667"/>
        <rect x="213.33" y="631.85" width="42.667" height="42.667" fill="none" stroke-width="1.0667"/>
        <rect x="213.33" y="674.52" width="42.667" height="42.667" fill="none" stroke-width="1.0667"/>
        <rect x="213.33" y="589.19" width="42.667" height="42.667" fill="none" stroke-width="1.0667"/>
        <rect x="213.33" y="717.19" width="42.667" height="42.667" fill="none" stroke-width="1.0667"/>
        <rect x="298.67" y="546.52" width="42.667" height="42.667" fill="none" stroke-width="1.0667"/>
        <rect x="298.67" y="631.85" width="42.667" height="42.667" fill="none" stroke-width="1.0667"/>
        <rect x="298.67" y="674.52" width="42.667" height="42.667" fill="none" stroke-width="1.0667"/>
        <rect x="298.67" y="589.19" width="42.667" height="42.667" fill="none" stroke-width="1.0667"/>
        <rect x="298.67" y="717.19" width="42.667" height="42.667" fill="none" stroke-width="1.0667"/>
        <rect x="170.67" y="546.52" width="42.667" height="42.667" fill="none" stroke-width="1.0667"/>
        <rect x="170.67" y="631.85" width="42.667" height="42.667" fill="none" stroke-width="1.0667"/>
        <rect x="170.67" y="674.52" width="42.667" height="42.667" fill="none" stroke-width="1.0667"/>
        <rect x="170.67" y="589.19" width="42.667" height="42.667" fill="none" stroke-width="1.0667"/>
        <rect x="170.67" y="717.19" width="42.667" height="42.667" fill="none" stroke-width="1.0667"/>
        <rect x="256" y="546.52" width="42.667" height="42.667" fill="none" stroke-width="1.0667"/>
        <rect x="256" y="631.85" width="42.667" height="42.667" fill="none" stroke-width="1.0667"/>
        <rect x="256" y="674.52" width="42.667" height="42.667" fill="none" stroke-width="1.0667"/>
        <rect x="256" y="589.19" width="42.667" height="42.667" fill="none" stroke-width="1.0667"/>
        <rect x="256" y="717.19" width="42.667" height="42.667" fill="none" stroke-width="1.0667"/>
        <rect x="128" y="759.85" width="42.667" height="42.667" fill="none" stroke-width="1.0667"/>
        <rect x="213.33" y="759.85" width="42.667" height="42.667" fill="none" stroke-width="1.0667"/>
        <rect x="298.67" y="759.85" width="42.667" height="42.667" fill="none" stroke-width="1.0667"/>
        <rect x="170.67" y="759.85" width="42.667" height="42.667" fill="none" stroke-width="1.0667"/>
        <rect x="256" y="759.85" width="42.667" height="42.667" fill="none" stroke-width="1.0667"/>
        <rect x="341.33" y="589.19" width="42.667" height="42.667" fill="none" stroke-width="1.0667"/>
        <rect x="341.33" y="631.85" width="42.667" height="42.667" fill="none" stroke-width="1.0667"/>
        <rect x="341.33" y="717.19" width="42.667" height="42.667" fill="none" stroke-width="1.0667"/>
        <rect x="341.33" y="546.52" width="42.667" height="42.667" fill="none" stroke-width="1.0667"/>
        <rect x="341.33" y="674.52" width="42.667" height="42.667" fill="none" stroke-width="1.0667"/>
        <rect x="341.33" y="759.85" width="42.667" height="42.667" fill="none" stroke-width="1.0667"/>
        <rect x="160" y="578.52" width="192" height="192" fill="none" stroke-width="1.0667"/>
        <g transform="matrix(.37344 0 0 .37344 4.7333 1097.4)">
            <path d="m0 0h51.2v51.2h-51.2z" fill="none" stroke-width="1.0667"/>
        </g>
        <g transform="matrix(.36471 0 0 .36471 5.1356 1097.4)">
            <path d="m0 0h51.2v51.2h-51.2z" fill="none" stroke-width="1.0667"/>
        </g>
        <g transform="matrix(.41585 0 0 .41585 84.325 1055.9)">
            <g transform="matrix(.062269 0 0 .062269 -28.238 185.29)">
                <g transform="matrix(38.618 0 0 38.618 14724 -13542)">
                    <g transform="matrix(.71436 0 0 .71436 -400.52 188.34)">
                        <path d="m1293.2-120.67c-181.75 0.2763-511.18 0.13525-699.05 0.13998-2.3216 10.413-3.593 21.251-3.593 32.384v114c207.65 0.73695 494.72 0.38136 706.23 0.3733v-114.37c0-11.18-1.2522-22.07-3.593-32.523zm-458.69 295.56c-78.385-4e-3 -158.85 0.17892-243.95 0.55995v138.63c286.34-0.39317 421.73-0.13827 706.23-0.32664v-137.75c-163.2-0.53005-311.22-1.1113-462.28-1.1199z" opacity="0" stroke-width="1.4932"/>
                    </g>
                </g>
            </g>
        </g>
        <path d="m24.549 1119.5c0.66325 0 1.1979-0.5346 1.1979-1.1979v-0.3333c0 0.6632-0.53461 1.1978-1.1979 1.1978h-20.354c-0.66325 0-1.1979-0.5346-1.1979-1.1978v0.3333c0 0.6633 0.53461 1.1979 1.1979 1.1979z" fill="#1a237e" opacity=".2"/>
    </g>
    <g>
        <flowRoot fill="#000000" font-family="Roboto" font-size="12.8px" letter-spacing="0px" stroke-width="1.0667px" word-spacing="0px" style="line-height:0.01%" xml:space="preserve"><flowRegion><rect x="11.375" y="11.984" width="4.7893" height="5.388" stroke-width="1.1378px"/></flowRegion><flowPara font-size="4px" style="line-height:1.25">your</flowPara></flowRoot>
        <g transform="matrix(9.4559 0 0 9.4559 -4299.6 1701.3)" display="none" fill="#f00" fill-opacity=".46715">
            <rect transform="rotate(90)" x="7.3342" y="-19.616" width="12.282" height="12.282" display="inline" stroke="#000" stroke-width=".006978"/>
            <rect x="6.7726" y="8.112" width="13.405" height="10.726" stroke="#5261ff" stroke-linecap="round" stroke-linejoin="round" stroke-width=".0068994"/>
            <rect transform="rotate(90)" x="6.7726" y="-18.838" width="13.405" height="10.726" display="inline" stroke="#0f0" stroke-linecap="round" stroke-linejoin="round" stroke-width=".0068994"/>
        </g>
        <path d="m14.153 8.055c-0.15492 0.00201-0.30971 0.00979-0.46406 0.023217-0.10498 0.0076-0.20976 0.017802-0.31423 0.03063-0.10439 0.013119-0.20842 0.028848-0.31202 0.047166-0.10364 0.018026-0.20681 0.038633-0.30942 0.061813-0.10258 0.023478-0.20454 0.049515-0.30581 0.078089-0.10135 0.028289-0.20197 0.059113-0.30178 0.09243-0.09967 0.033584-0.19849 0.069659-0.29636 0.10818-0.09803 0.038267-0.19509 0.078983-0.29108 0.1221-0.09587 0.043399-0.19066 0.089181-0.28425 0.13731-0.09362 0.047822-0.18604 0.097976-0.27716 0.15041-0.09112 0.052781-0.18092 0.10783-0.2693 0.1651-0.08839 0.056935-0.17534 0.11607-0.26078 0.17734-0.08537 0.06159-0.16919 0.12531-0.25138 0.19109-0.08227 0.065475-0.16289 0.133-0.24178 0.2025-0.07879 0.069812-0.15583 0.14157-0.23103 0.21522-0.075356 0.073401-0.14888 0.14868-0.22048 0.22575-0.071377 0.07728-0.14081 0.15632-0.20825 0.23706-0.067671 0.08057-0.13332 0.16282-0.19688 0.24668-0.063323 0.08404-0.12454 0.16963-0.18359 0.25672-0.088817 0.12698-0.17293 0.25717-0.25218 0.39033-0.075703 0.13522-0.14641 0.27318-0.21197 0.4136-0.045891 0.09467-0.089411 0.19048-0.13052 0.28733-0.040828 0.09694-0.079228 0.1949-0.11516 0.29377-0.036216 0.09879-0.069959 0.19846-0.1012 0.29893-0.030958 0.10059-0.0594 0.20193-0.085295 0.30394-0.026159 0.10187-0.049771 0.20438-0.070812 0.30744-0.020757 0.10314-0.038936 0.20679-0.054517 0.31084-0.015871 0.10402-0.02914 0.20843-0.039795 0.31311-0.010358 0.10472-0.01809 0.20967-0.023201 0.31477-0.0054 0.10506-0.00817 0.21023-0.00833 0.31543 1.478e-4 0.10519 0.00293 0.21038 0.00833 0.31544 0.00511 0.10509 0.012847 0.21005 0.023201 0.31477 0.010656 0.10468 0.023925 0.20909 0.039795 0.31311 0.015581 0.10404 0.033759 0.2077 0.054517 0.31084 0.021041 0.10305 0.044652 0.20556 0.070812 0.30744 0.025896 0.10201 0.054336 0.20336 0.085295 0.30394 0.031239 0.10047 0.064981 0.20014 0.1012 0.29893 0.035937 0.09887 0.074336 0.19682 0.11516 0.29377 0.041107 0.09684 0.084627 0.19265 0.13052 0.28733 0.06556 0.14042 0.13626 0.27838 0.21197 0.4136 0.079244 0.13316 0.16336 0.26336 0.25218 0.39033 0.059049 0.0871 0.12026 0.17269 0.18359 0.25672 0.063563 0.08385 0.12921 0.1661 0.19688 0.24668 0.06743 0.08075 0.13687 0.15979 0.20825 0.23706 0.071601 0.07708 0.14512 0.15235 0.22048 0.22575 0.075201 0.07365 0.15224 0.14542 0.23103 0.21522 0.0789 0.0695 0.15952 0.13702 0.24178 0.2025 0.08219 0.06578 0.16601 0.1295 0.25138 0.19109 0.08544 0.06128 0.17239 0.12041 0.26078 0.17734 0.08837 0.05727 0.17817 0.11232 0.2693 0.1651 0.09112 0.05243 0.18354 0.10259 0.27716 0.15041 0.09359 0.04812 0.18837 0.09392 0.28425 0.13731 0.09599 0.04312 0.19305 0.08384 0.29108 0.1221 0.09787 0.03852 0.19669 0.07459 0.29636 0.10817 0.0998 0.03332 0.20043 0.06414 0.30178 0.09243 0.10127 0.02857 0.20324 0.05461 0.30581 0.07809 0.10261 0.02318 0.20578 0.04379 0.30942 0.06182 0.10359 0.01832 0.20764 0.03404 0.31202 0.04716 0.10448 0.01283 0.20925 0.02304 0.31423 0.03063 0.15435 0.01343 0.30914 0.02117 0.46406 0.02322v-0.0019c0.03029-4.35e-4 0.05463-0.04747 0.05463-0.10584v-0.41533c0-0.05865-0.02455-0.10587-0.05504-0.10587-1.29e-4 0-2.7e-4 8e-6 -3.88e-4 2.2e-5 -0.13901-0.0019-0.2779-0.0088-0.4164-0.0208-0.09497-0.0068-0.18974-0.0161-0.28424-0.02772-0.09354-0.01177-0.18678-0.02586-0.27962-0.04226-0.09374-0.0163-0.18706-0.03494-0.27987-0.05591-0.09202-0.02107-0.18349-0.04443-0.27434-0.07005-0.09154-0.02554-0.18243-0.05338-0.27258-0.08347-0.08952-0.03018-0.17829-0.06258-0.2662-0.09718-0.0885-0.03454-0.17611-0.0713-0.26276-0.11023-0.08608-0.03897-0.17117-0.08007-0.2552-0.12327-0.08459-0.04319-0.16808-0.0885-0.2504-0.13587-0.0818-0.04738-0.16242-0.09681-0.24176-0.14823-0.07981-0.05139-0.15831-0.10477-0.23544-0.1601-0.07668-0.05534-0.15197-0.11257-0.2258-0.17166-0.07426-0.05909-0.14703-0.12004-0.21824-0.18277-0.07081-0.06273-0.14004-0.12724-0.20762-0.19343-0.06796-0.06616-0.13425-0.13404-0.19881-0.20355-0.064214-0.069514-0.12668-0.14062-0.18734-0.21325-0.060978-0.072606-0.12013-0.14672-0.1774-0.22227-0.057003-0.075643-0.11211-0.15271-0.16527-0.23111-0.079982-0.11434-0.15573-0.23159-0.22709-0.3515-0.068175-0.12177-0.13185-0.24601-0.19089-0.37246-0.041311-0.08522-0.080486-0.17146-0.11749-0.25864-0.036786-0.08735-0.071385-0.17561-0.10376-0.26468-0.0326-0.08893-0.062976-0.17866-0.091096-0.2691-0.027866-0.09054-0.053466-0.18177-0.076776-0.27359-0.023575-0.0918-0.044852-0.18418-0.063811-0.27704-0.018679-0.09284-0.035036-0.18612-0.049058-0.27978-0.01429-0.09366-0.026239-0.18768-0.035834-0.28194-0.00933-0.09429-0.016298-0.18881-0.020905-0.28345-0.00486-0.09461-0.00737-0.18933-0.0075-0.28406 1.333e-4 -0.09474 0.00263-0.18944 0.0075-0.28405 0.0046-0.09465 0.011577-0.18916 0.020905-0.28345 0.0096-0.09426 0.021543-0.18827 0.035834-0.28194 0.014022-0.09365 0.03038-0.18694 0.049058-0.27978 0.018959-0.09287 0.040236-0.18524 0.063811-0.27704 0.02331-0.09182 0.04891-0.18304 0.076776-0.27359 0.02812-0.09044 0.058496-0.18017 0.091096-0.2691 0.032376-0.08908 0.066974-0.17733 0.10376-0.26468 0.037005-0.08717 0.076182-0.17342 0.11749-0.25864 0.05904-0.12645 0.12271-0.25069 0.19089-0.37246 0.071361-0.11991 0.14711-0.23716 0.22709-0.3515 0.053157-0.07839 0.10827-0.15546 0.16527-0.2311 0.057279-0.07555 0.11643-0.14967 0.1774-0.22228 0.060669-0.07263 0.12313-0.14374 0.18734-0.21325 0.064567-0.0695 0.13086-0.13738 0.19882-0.20357 0.06759-0.06619 0.13682-0.13069 0.20762-0.19343 0.07122-0.06273 0.14398-0.12368 0.21824-0.18277 0.07383-0.059079 0.14912-0.11632 0.2258-0.17166 0.07713-0.055324 0.15564-0.1087 0.23544-0.1601 0.07934-0.051415 0.15996-0.10084 0.24176-0.14824 0.08231-0.047375 0.16581-0.09268 0.2504-0.13587 0.08402-0.043205 0.16912-0.084306 0.2552-0.12327 0.08665-0.038931 0.17427-0.075688 0.26276-0.11023 0.08791-0.034598 0.17668-0.066996 0.2662-0.097175 0.09015-0.030094 0.18104-0.057927 0.27258-0.083475 0.09087-0.025626 0.18236-0.048992 0.27438-0.07007 0.09275-0.020957 0.186-0.039588 0.27968-0.055868 0.09295-0.016423 0.18629-0.030533 0.27994-0.04231 0.09443-0.011605 0.18914-0.020845 0.28403-0.0277 0.13852-0.01203 0.27742-0.018981 0.41645-0.020831h3.89e-4c0.03049 0 0.05504-0.047218 0.05504-0.10587v-0.41535c0-0.058382-0.02433-0.10541-0.05463-0.10585zm1.6623 0.094788c-0.08739 0.00141-0.18348 0.039603-0.24705 0.10316-0.13449 0.13449-0.13393 0.17257 0.0056 0.38552 0.08515 0.12996 0.55199 0.60048 1.0374 1.0456 0.88262 0.80932 0.88263 0.80932 0.82196 1.2929-0.03337 0.266-0.08213 0.57068-0.10835 0.67708-0.03069 0.1245-0.36678 0.36249-0.94298 0.66773-0.85505 0.45296-0.92251 0.51295-1.5007 1.3349-0.33296 0.47332-0.59173 0.92808-0.57505 1.0106 0.01806 0.0893 0.3769 0.28029 0.88665 0.4719 0.47097 0.17703 0.91713 0.29855 0.99145 0.27003 0.07432-0.02852 0.13512-0.1507 0.13512-0.27152 0-0.17989-0.1051-0.25898-0.58035-0.43671-0.3192-0.11937-0.58035-0.24643-0.58035-0.28234 0-0.03592 0.16741-0.22878 0.37204-0.42859 0.37204-0.36329 0.37204-0.36329 0.61939 0.198 0.13605 0.30871 0.3595 0.81084 0.49656 1.1158 0.2492 0.55454 0.2492 0.55454-0.46764 1.0382-0.39426 0.26604-0.74781 0.53383-0.78567 0.5951-0.03787 0.06126-0.10402 0.84746-0.14701 1.7471-0.04299 0.89964-0.05388 1.699-0.02421 1.7763 0.02967 0.07733 0.13103 0.14061 0.22522 0.14061 0.09419 0 0.2134-0.05441 0.26491-0.1209 0.05151-0.0665 0.16952-0.75204 0.26221-1.5234 0.09269-0.77139 0.21053-1.4533 0.26184-1.5153 0.05132-0.06204 0.48303-0.2688 0.95938-0.45945 0.47634-0.19066 0.89926-0.34664 0.93982-0.34664 0.04055 0 0.22137 0.27204 0.40181 0.60453 0.18044 0.33249 0.4117 0.72509 0.5139 0.87244 0.03871 0.0855 0.78755 1.4947 1.2275 2.1624 0.30549 0.46367 0.39156 0.35703 0.49156 0.31785 0.15542-0.0609 0.26684-0.09004-0.18824-1.3793-0.1592-0.45102-0.62024-1.5009-0.66439-1.5954-0.20688-0.31638-0.46278-0.97498-0.85468-1.9414-0.5035-1.2417-0.95846-2.4806-1.011-2.7531-0.0666-0.34517-0.05989-0.81263 0.02213-1.5406 0.11773-1.0451 0.11772-1.0451-0.93864-2.1047-0.581-0.58281-1.1377-1.0855-1.2372-1.117-0.02566-0.00815-0.05383-0.011776-0.08296-0.011307zm-1.8272 1.0563c-0.14663 0-0.26467 0.11804-0.26467 0.26467v0.91146c0 0.14663 0.11804 0.26468 0.26467 0.26468h0.06732c0.14663 0 0.26467-0.11804 0.26467-0.26468v-0.91146c0-0.14663-0.11804-0.26467-0.26467-0.26467zm1.8089 1.4236c-0.45022 0-0.8152 0.36498-0.8152 0.8152 0 0.45022 0.36498 0.8152 0.8152 0.8152s0.8152-0.36498 0.8152-0.8152c0-0.45022-0.36498-0.8152-0.8152-0.8152zm-6.6777 3.4453c-0.14663 0-0.26468 0.11804-0.26468 0.26467v0.06732c0 0.14663 0.11804 0.26468 0.26468 0.26468h0.91145c0.14663 0 0.26468-0.11805 0.26468-0.26468v-0.06732c0-0.14663-0.11804-0.26467-0.26468-0.26467zm4.8688 4.0247c-0.14663 0-0.26467 0.11804-0.26467 0.26468v0.91147c0 0.14663 0.11804 0.26467 0.26467 0.26467h0.06732c0.14663 0 0.26467-0.11804 0.26467-0.26467v-0.91147c0-0.14663-0.11804-0.26468-0.26467-0.26468z" fill="#fff" style="paint-order:normal"/>
        <g transform="translate(48)"></g>
        <g transform="rotate(-90 3164.3 -1268)"></g>
    </g>
    <g display="none" fill="none">
        <rect transform="rotate(90)" x="7.8232" y="-20.923" width="13.1" height="13.1" display="inline" stroke="#000" stroke-width=".070382"/>
        <rect x="7.2241" y="8.6528" width="14.298" height="11.441" stroke="#5261ff" stroke-linecap="round" stroke-linejoin="round" stroke-width=".069589"/>
        <rect transform="rotate(90)" x="7.2241" y="-20.094" width="14.298" height="11.441" display="inline" stroke="#0f0" stroke-linecap="round" stroke-linejoin="round" stroke-width=".069589"/>
    </g>
</svg>
