<?xml version="1.0" encoding="UTF-8"?>
<svg version="1.1" viewBox="0 0 28.747 28.747" xmlns="http://www.w3.org/2000/svg" xmlns:osb="http://www.openswatchbook.org/uri/2009/osb" xmlns:xlink="http://www.w3.org/1999/xlink">
    <defs>
        <filter id="filter6206-7" color-interpolation-filters="sRGB">
            <feGaussianBlur stdDeviation="0.658125"/>
        </filter>
    </defs>
    <g transform="translate(0 -1093.8)">
        <path transform="matrix(1.0781 0 0 1.0641 -.093733 2.7509)" d="m4.4177 1028.2v1.6051h-1.6052v18.192h1.6052v2.1402h18.192v-2.1402h2.1402v-18.192h-2.1402v-1.6051z" fill="#1a237e" filter="url(#filter6206-7)" opacity=".2"/>
        <rect x="2.9987" y="1096.8" width="22.749" height="22.749" rx="1.1973" ry="1.1974" fill="#232323"/>
        <g transform="translate(-22.32 1056.5)">
            <path d="m0 0h51.2v51.2h-51.2z" fill="none" stroke-width="1.0667"/>
            <g transform="matrix(.33601 0 0 .33601 1.5296 73.043)">
                <path d="m0 0h51.2v51.2h-51.2z" fill="none" stroke-width="1.0667"/>
            </g>
            <g transform="matrix(.37187 0 0 .37187 38.802 63.239)">
                <path d="m0 0h51.2v51.2h-51.2z" fill="none" stroke-width="1.0667"/>
                <g transform="matrix(2.6891 0 0 2.6891 -82.906 -48.45)">
                    <path d="m0 0h51.2v51.2h-51.2z" fill="none" stroke-width="1.0667"/>
                </g>
            </g>
        </g>
        <path d="m4.1958 1096.8c-0.66332 0-1.1979 0.5346-1.1979 1.1979v0.3334c0-0.6634 0.53459-1.1979 1.1979-1.1979h20.354c0.66332 0 1.1979 0.5345 1.1979 1.1979v-0.3334c0-0.6633-0.5346-1.1979-1.1979-1.1979z" fill="#fff" opacity=".2"/>
        <rect x="128" y="546.52" width="42.667" height="42.667" fill="none" stroke-width="1.0667"/>
        <rect x="128" y="631.85" width="42.667" height="42.667" fill="none" stroke-width="1.0667"/>
        <rect x="128" y="674.52" width="42.667" height="42.667" fill="none" stroke-width="1.0667"/>
        <rect x="128" y="589.19" width="42.667" height="42.667" fill="none" stroke-width="1.0667"/>
        <rect x="128" y="717.19" width="42.667" height="42.667" fill="none" stroke-width="1.0667"/>
        <rect x="213.33" y="546.52" width="42.667" height="42.667" fill="none" stroke-width="1.0667"/>
        <rect x="213.33" y="631.85" width="42.667" height="42.667" fill="none" stroke-width="1.0667"/>
        <rect x="213.33" y="674.52" width="42.667" height="42.667" fill="none" stroke-width="1.0667"/>
        <rect x="213.33" y="589.19" width="42.667" height="42.667" fill="none" stroke-width="1.0667"/>
        <rect x="213.33" y="717.19" width="42.667" height="42.667" fill="none" stroke-width="1.0667"/>
        <rect x="298.67" y="546.52" width="42.667" height="42.667" fill="none" stroke-width="1.0667"/>
        <rect x="298.67" y="631.85" width="42.667" height="42.667" fill="none" stroke-width="1.0667"/>
        <rect x="298.67" y="674.52" width="42.667" height="42.667" fill="none" stroke-width="1.0667"/>
        <rect x="298.67" y="589.19" width="42.667" height="42.667" fill="none" stroke-width="1.0667"/>
        <rect x="298.67" y="717.19" width="42.667" height="42.667" fill="none" stroke-width="1.0667"/>
        <rect x="170.67" y="546.52" width="42.667" height="42.667" fill="none" stroke-width="1.0667"/>
        <rect x="170.67" y="631.85" width="42.667" height="42.667" fill="none" stroke-width="1.0667"/>
        <rect x="170.67" y="674.52" width="42.667" height="42.667" fill="none" stroke-width="1.0667"/>
        <rect x="170.67" y="589.19" width="42.667" height="42.667" fill="none" stroke-width="1.0667"/>
        <rect x="170.67" y="717.19" width="42.667" height="42.667" fill="none" stroke-width="1.0667"/>
        <rect x="256" y="546.52" width="42.667" height="42.667" fill="none" stroke-width="1.0667"/>
        <rect x="256" y="631.85" width="42.667" height="42.667" fill="none" stroke-width="1.0667"/>
        <rect x="256" y="674.52" width="42.667" height="42.667" fill="none" stroke-width="1.0667"/>
        <rect x="256" y="589.19" width="42.667" height="42.667" fill="none" stroke-width="1.0667"/>
        <rect x="256" y="717.19" width="42.667" height="42.667" fill="none" stroke-width="1.0667"/>
        <rect x="128" y="759.85" width="42.667" height="42.667" fill="none" stroke-width="1.0667"/>
        <rect x="213.33" y="759.85" width="42.667" height="42.667" fill="none" stroke-width="1.0667"/>
        <rect x="298.67" y="759.85" width="42.667" height="42.667" fill="none" stroke-width="1.0667"/>
        <rect x="170.67" y="759.85" width="42.667" height="42.667" fill="none" stroke-width="1.0667"/>
        <rect x="256" y="759.85" width="42.667" height="42.667" fill="none" stroke-width="1.0667"/>
        <rect x="341.33" y="589.19" width="42.667" height="42.667" fill="none" stroke-width="1.0667"/>
        <rect x="341.33" y="631.85" width="42.667" height="42.667" fill="none" stroke-width="1.0667"/>
        <rect x="341.33" y="717.19" width="42.667" height="42.667" fill="none" stroke-width="1.0667"/>
        <rect x="341.33" y="546.52" width="42.667" height="42.667" fill="none" stroke-width="1.0667"/>
        <rect x="341.33" y="674.52" width="42.667" height="42.667" fill="none" stroke-width="1.0667"/>
        <rect x="341.33" y="759.85" width="42.667" height="42.667" fill="none" stroke-width="1.0667"/>
        <rect x="160" y="578.52" width="192" height="192" fill="none" stroke-width="1.0667"/>
        <g transform="matrix(.37344 0 0 .37344 4.7333 1097.4)">
            <path d="m0 0h51.2v51.2h-51.2z" fill="none" stroke-width="1.0667"/>
        </g>
        <g transform="matrix(.36471 0 0 .36471 5.1356 1097.4)">
            <path d="m0 0h51.2v51.2h-51.2z" fill="none" stroke-width="1.0667"/>
        </g>
        <g transform="matrix(.41585 0 0 .41585 84.325 1055.9)">
            <g transform="matrix(.062269 0 0 .062269 -28.238 185.29)">
                <g transform="matrix(38.618 0 0 38.618 14724 -13542)">
                    <g transform="matrix(.71436 0 0 .71436 -400.52 188.34)">
                        <path d="m1293.2-120.67c-181.75 0.2763-511.18 0.13525-699.05 0.13998-2.3216 10.413-3.593 21.251-3.593 32.384v114c207.65 0.73695 494.72 0.38136 706.23 0.3733v-114.37c0-11.18-1.2522-22.07-3.593-32.523zm-458.69 295.56c-78.385-4e-3 -158.85 0.17892-243.95 0.55995v138.63c286.34-0.39317 421.73-0.13827 706.23-0.32664v-137.75c-163.2-0.53005-311.22-1.1113-462.28-1.1199z" opacity="0" stroke-width="1.4932"/>
                    </g>
                </g>
            </g>
        </g>
        <path d="m24.549 1119.5c0.66325 0 1.1979-0.5346 1.1979-1.1979v-0.3333c0 0.6632-0.53461 1.1978-1.1979 1.1978h-20.354c-0.66325 0-1.1979-0.5346-1.1979-1.1978v0.3333c0 0.6633 0.53461 1.1979 1.1979 1.1979z" fill="#1a237e" opacity=".2"/>
    </g>
    <g>
        <flowRoot fill="#000000" font-family="Roboto" font-size="12.8px" letter-spacing="0px" stroke-width="1.0667px" word-spacing="0px" style="line-height:0.01%" xml:space="preserve"><flowRegion><rect x="11.375" y="11.984" width="4.7893" height="5.388" stroke-width="1.1378px"/></flowRegion><flowPara font-size="4px" style="line-height:1.25">your</flowPara></flowRoot>
        <g transform="matrix(.0035261 0 0 .0035261 21.297 9.7325)" fill="#fff" stroke-width="283.6">
            <ellipse cx="-1963.6" cy="-452.08" rx="258.62" ry="296.94" style="paint-order:normal"/>
            <path d="m-2109-145.52c100.86 20.436 194.41 29.492 296.94 0 92.725-26.671-82.043 126.62-142.97 122.72-90.066-5.7651-257.51-143.7-153.97-122.72z"/>
            <g stroke-width="283.6">
                <path d="m-1590.1 2365.9c0 249.05-5.6224 517.16-57.472 727.98h-191.57c-48.92-340.27-38.315-536.41-38.315-727.98z"/>
                <path d="m-1628.4 3381.3c61.646-60.674 18.175-130.76-28.736-201.15h-181.99c-69.35 80.561-94.849 150.65-38.315 201.15z"/>
                <path d="m-1877.4 2097.7h287.36v172.42h-287.36c37.703-40.004 9.8238-110.39 0-172.42z"/>
                <path d="m-1590.1 2021.1 19.157-574.72c-122.84 33.9-242.71 26.236-363.99 38.315l38.315 536.41z"/>
                <path d="m-1934.9 1024.9c124.68-34.936 242.98-15.472 363.99-19.157 31.588 129.57 17.453 244.19 19.157 363.99-111.58 35.437-217.27 4.9725-383.15 38.315z"/>
                <path d="m-1934.9 584.31h325.67c7.2226 78.337 33.978 231.83 38.315 363.99-121.68 4.9989-250.69-18.893-363.99 19.157z"/>
                <path d="m-1934.9 507.68 316.1-9.5787-28.736-373.57 229.89-57.472c5.4919-55.841-23.071-101.54-95.787-134.1-40.632-33.444-152.82-38.487-229.89-57.472-48.895 63.968-127.73 113.29-191.57 143.68z"/>
                <path d="m-1609.2 191.58c67.194-18.888 140.06-27.158 201.15-57.472l95.787 488.51c-72.113 7.4153-159.37-2.6937-210.73 28.736l-86.208-459.78"/>
                <path d="m-1513.4 718.41 191.57-38.315 38.315 498.09-172.42 19.157z"/>
                <path d="m-1436.8 1274 172.42-19.157s58.292 180.13 38.315 268.2c-10.186 44.908-0.3869 91.912-76.629 114.94-51.746 16.6-77.218-39.608-95.787-114.94l-19.157-114.94c-21.206 47.545-41.079 115.99-76.629 95.787-47.436-26.956 57.472-153.26 57.472-153.26z"/>
                <g transform="matrix(-1 0 0 1 -3927.3 0)">
                    <path d="m-1590.1 2365.9c0 249.05-5.6224 517.16-57.472 727.98h-191.57c-48.92-340.27-38.315-536.41-38.315-727.98z"/>
                    <path d="m-1628.4 3381.3c61.646-60.674 18.175-130.76-28.736-201.15h-181.99c-69.35 80.561-94.849 150.65-38.315 201.15z"/>
                    <path d="m-1877.4 2097.7h287.36v172.42h-287.36c37.703-40.004 9.8238-110.39 0-172.42z"/>
                    <path d="m-1590.1 2021.1 19.157-574.72c-122.84 33.9-242.71 26.236-363.99 38.315l38.315 536.41z"/>
                    <path d="m-1934.9 1024.9c124.68-34.936 242.98-15.472 363.99-19.157 31.588 129.57 17.453 244.19 19.157 363.99-111.58 35.437-217.27 4.9725-383.15 38.315z"/>
                    <path d="m-1934.9 584.31h325.67c7.2226 78.337 33.978 231.83 38.315 363.99-121.68 4.9989-250.69-18.893-363.99 19.157z"/>
                    <path d="m-1934.9 507.68 316.1-9.5787-28.736-373.57 229.89-57.472c5.4919-55.841-23.071-101.54-95.787-134.1-40.632-33.444-152.82-38.487-229.89-57.472-48.895 63.968-127.73 113.29-191.57 143.68z"/>
                    <path d="m-1609.2 191.58c67.194-18.888 140.06-27.158 201.15-57.472l95.787 488.51c-72.113 7.4153-159.37-2.6937-210.73 28.736l-86.208-459.78"/>
                    <path d="m-1513.4 718.41 191.57-38.315 38.315 498.09-172.42 19.157z"/>
                    <path d="m-1436.8 1274 172.42-19.157s58.292 180.13 38.315 268.2c-10.186 44.908-0.3869 91.912-76.629 114.94-51.746 16.6-77.218-39.608-95.787-114.94l-19.157-114.94c-21.206 47.545-41.079 115.99-76.629 95.787-47.436-26.956 57.472-153.26 57.472-153.26z"/>
                </g>
            </g>
        </g>
    </g>
    <g display="none" fill="none">
        <rect transform="rotate(90)" x="7.8232" y="-20.923" width="13.1" height="13.1" display="inline" stroke="#000" stroke-width=".070382"/>
        <rect x="7.2241" y="8.6528" width="14.298" height="11.441" stroke="#5261ff" stroke-linecap="round" stroke-linejoin="round" stroke-width=".069589"/>
        <rect transform="rotate(90)" x="7.2241" y="-20.094" width="14.298" height="11.441" display="inline" stroke="#0f0" stroke-linecap="round" stroke-linejoin="round" stroke-width=".069589"/>
    </g>
</svg>
