<?xml version="1.0" encoding="UTF-8"?>
<svg version="1.1" viewBox="0 0 28.747 28.747" xmlns="http://www.w3.org/2000/svg">
    <defs>
        <filter id="filter6206-7" color-interpolation-filters="sRGB">
            <feGaussianBlur stdDeviation="0.658125"/>
        </filter>
    </defs>
    <g transform="translate(0 -1093.8)">
        <path transform="matrix(1.0781 0 0 1.0641 -.093733 2.7509)" d="m4.4177 1028.2v1.6051h-1.6052v18.192h1.6052v2.1402h18.192v-2.1402h2.1402v-18.192h-2.1402v-1.6051z" fill="#1a237e" filter="url(#filter6206-7)" opacity=".2"/>
        <rect x="2.9987" y="1096.8" width="22.749" height="22.749" rx="1.1973" ry="1.1974" fill="#232323"/>
        <g transform="translate(-22.32 1056.5)">
            <path d="m0 0h51.2v51.2h-51.2z" fill="none" stroke-width="1.0667"/>
            <g transform="matrix(.33601 0 0 .33601 1.5296 73.043)">
                <path d="m0 0h51.2v51.2h-51.2z" fill="none" stroke-width="1.0667"/>
            </g>
            <g transform="matrix(.37187 0 0 .37187 38.802 63.239)">
                <path d="m0 0h51.2v51.2h-51.2z" fill="none" stroke-width="1.0667"/>
                <g transform="matrix(2.6891 0 0 2.6891 -82.906 -48.45)">
                    <path d="m0 0h51.2v51.2h-51.2z" fill="none" stroke-width="1.0667"/>
                </g>
            </g>
        </g>
        <path d="m4.1958 1096.8c-0.66332 0-1.1979 0.5346-1.1979 1.1979v0.3334c0-0.6634 0.53459-1.1979 1.1979-1.1979h20.354c0.66332 0 1.1979 0.5345 1.1979 1.1979v-0.3334c0-0.6633-0.5346-1.1979-1.1979-1.1979z" fill="#fff" opacity=".2"/>
        <rect x="128" y="546.52" width="42.667" height="42.667" fill="none" stroke-width="1.0667"/>
        <rect x="128" y="631.85" width="42.667" height="42.667" fill="none" stroke-width="1.0667"/>
        <rect x="128" y="674.52" width="42.667" height="42.667" fill="none" stroke-width="1.0667"/>
        <rect x="128" y="589.19" width="42.667" height="42.667" fill="none" stroke-width="1.0667"/>
        <rect x="128" y="717.19" width="42.667" height="42.667" fill="none" stroke-width="1.0667"/>
        <rect x="213.33" y="546.52" width="42.667" height="42.667" fill="none" stroke-width="1.0667"/>
        <rect x="213.33" y="631.85" width="42.667" height="42.667" fill="none" stroke-width="1.0667"/>
        <rect x="213.33" y="674.52" width="42.667" height="42.667" fill="none" stroke-width="1.0667"/>
        <rect x="213.33" y="589.19" width="42.667" height="42.667" fill="none" stroke-width="1.0667"/>
        <rect x="213.33" y="717.19" width="42.667" height="42.667" fill="none" stroke-width="1.0667"/>
        <rect x="298.67" y="546.52" width="42.667" height="42.667" fill="none" stroke-width="1.0667"/>
        <rect x="298.67" y="631.85" width="42.667" height="42.667" fill="none" stroke-width="1.0667"/>
        <rect x="298.67" y="674.52" width="42.667" height="42.667" fill="none" stroke-width="1.0667"/>
        <rect x="298.67" y="589.19" width="42.667" height="42.667" fill="none" stroke-width="1.0667"/>
        <rect x="298.67" y="717.19" width="42.667" height="42.667" fill="none" stroke-width="1.0667"/>
        <rect x="170.67" y="546.52" width="42.667" height="42.667" fill="none" stroke-width="1.0667"/>
        <rect x="170.67" y="631.85" width="42.667" height="42.667" fill="none" stroke-width="1.0667"/>
        <rect x="170.67" y="674.52" width="42.667" height="42.667" fill="none" stroke-width="1.0667"/>
        <rect x="170.67" y="589.19" width="42.667" height="42.667" fill="none" stroke-width="1.0667"/>
        <rect x="170.67" y="717.19" width="42.667" height="42.667" fill="none" stroke-width="1.0667"/>
        <rect x="256" y="546.52" width="42.667" height="42.667" fill="none" stroke-width="1.0667"/>
        <rect x="256" y="631.85" width="42.667" height="42.667" fill="none" stroke-width="1.0667"/>
        <rect x="256" y="674.52" width="42.667" height="42.667" fill="none" stroke-width="1.0667"/>
        <rect x="256" y="589.19" width="42.667" height="42.667" fill="none" stroke-width="1.0667"/>
        <rect x="256" y="717.19" width="42.667" height="42.667" fill="none" stroke-width="1.0667"/>
        <rect x="128" y="759.85" width="42.667" height="42.667" fill="none" stroke-width="1.0667"/>
        <rect x="213.33" y="759.85" width="42.667" height="42.667" fill="none" stroke-width="1.0667"/>
        <rect x="298.67" y="759.85" width="42.667" height="42.667" fill="none" stroke-width="1.0667"/>
        <rect x="170.67" y="759.85" width="42.667" height="42.667" fill="none" stroke-width="1.0667"/>
        <rect x="256" y="759.85" width="42.667" height="42.667" fill="none" stroke-width="1.0667"/>
        <rect x="341.33" y="589.19" width="42.667" height="42.667" fill="none" stroke-width="1.0667"/>
        <rect x="341.33" y="631.85" width="42.667" height="42.667" fill="none" stroke-width="1.0667"/>
        <rect x="341.33" y="717.19" width="42.667" height="42.667" fill="none" stroke-width="1.0667"/>
        <rect x="341.33" y="546.52" width="42.667" height="42.667" fill="none" stroke-width="1.0667"/>
        <rect x="341.33" y="674.52" width="42.667" height="42.667" fill="none" stroke-width="1.0667"/>
        <rect x="341.33" y="759.85" width="42.667" height="42.667" fill="none" stroke-width="1.0667"/>
        <rect x="160" y="578.52" width="192" height="192" fill="none" stroke-width="1.0667"/>
        <g transform="matrix(.37344 0 0 .37344 4.7333 1097.4)">
            <path d="m0 0h51.2v51.2h-51.2z" fill="none" stroke-width="1.0667"/>
        </g>
        <g transform="matrix(.36471 0 0 .36471 5.1356 1097.4)">
            <path d="m0 0h51.2v51.2h-51.2z" fill="none" stroke-width="1.0667"/>
        </g>
        <g transform="matrix(.41585 0 0 .41585 84.325 1055.9)">
            <g transform="matrix(.062269 0 0 .062269 -28.238 185.29)">
                <g transform="matrix(38.618 0 0 38.618 14724 -13542)">
                    <g transform="matrix(.71436 0 0 .71436 -400.52 188.34)">
                        <path d="m1293.2-120.67c-181.75 0.2763-511.18 0.13525-699.05 0.13998-2.3216 10.413-3.593 21.251-3.593 32.384v114c207.65 0.73695 494.72 0.38136 706.23 0.3733v-114.37c0-11.18-1.2522-22.07-3.593-32.523zm-458.69 295.56c-78.385-4e-3 -158.85 0.17892-243.95 0.55995v138.63c286.34-0.39317 421.73-0.13827 706.23-0.32664v-137.75c-163.2-0.53005-311.22-1.1113-462.28-1.1199z" opacity="0" stroke-width="1.4932"/>
                    </g>
                </g>
            </g>
        </g>
        <path d="m24.549 1119.5c0.66325 0 1.1979-0.5346 1.1979-1.1979v-0.3333c0 0.6632-0.53461 1.1978-1.1979 1.1978h-20.354c-0.66325 0-1.1979-0.5346-1.1979-1.1978v0.3333c0 0.6633 0.53461 1.1979 1.1979 1.1979z" fill="#1a237e" opacity=".2"/>
    </g>
    <text x="50.287998" y="-76.618668" fill="#000000" font-family="'Fira Sans'" font-size="16px" letter-spacing="0px" word-spacing="0px" style="line-height:1.25" xml:space="preserve"><tspan x="50.287998" y="-63.779957"/></text>
    <g transform="matrix(.091782 0 0 .091782 -1.7015 18.219)" fill="#fff">
        <g fill="#fff">
            <g transform="translate(118)">
                <path transform="rotate(120)" d="m-104.98-90.858h5.184c0.554 0 1 0.3568 1 0.8v30.129c0 0.4432-0.446 0.8-1 0.8h-5.184c-0.554 0-1-0.3568-1-0.8v-30.129c0-0.4432 0.446-0.8 1-0.8zm-12.443 10.177 2.592-4.4895c0.277-0.47978 0.809-0.68762 1.1928-0.46602l26.093 15.065c0.38382 0.2216 0.46982 0.78625 0.19282 1.266l-2.592 4.4895c-0.277 0.47978-0.809 0.68763-1.1928 0.46603l-26.093-15.065c-0.38382-0.2216-0.46982-0.78625-0.19282-1.266zm2.592 15.865-2.592-4.4895c-0.277-0.47978-0.191-1.0444 0.19282-1.266l26.093-15.065c0.38382-0.2216 0.91582-0.01375 1.1928 0.46602l2.592 4.4895c0.277 0.47978 0.191 1.0444-0.19282 1.266l-26.093 15.065c-0.38382 0.2216-0.91582 0.01375-1.1928-0.46603zm29.518 8.0219h5.184c0.554 0 1 0.3568 1 0.8v30.129c0 0.4432-0.446 0.8-1 0.8h-5.184c-0.554 0-1-0.3568-1-0.8v-30.129c0-0.4432 0.446-0.8 1-0.8zm-12.443 10.177 2.592-4.4895c0.277-0.47978 0.809-0.68763 1.1928-0.46603l26.093 15.065c0.38382 0.2216 0.46982 0.78625 0.19282 1.266l-2.592 4.4895c-0.277 0.47978-0.809 0.68763-1.1928 0.46603l-26.093-15.065c-0.38382-0.2216-0.46982-0.78625-0.19282-1.266zm2.592 15.865-2.592-4.4895c-0.277-0.47978-0.191-1.0444 0.19282-1.266l26.093-15.065c0.38382-0.2216 0.91582-0.01375 1.1928 0.46603l2.592 4.4895c0.277 0.47978 0.191 1.0444-0.19282 1.266l-26.093 15.065c-0.38382 0.2216-0.91582 0.01375-1.1928-0.46603zm29.518 8.0219h5.184c0.554 0 1 0.3568 1 0.8v30.129c0 0.4432-0.446 0.8-1 0.8h-5.184c-0.554 0-1-0.3568-1-0.8v-30.129c0-0.4432 0.446-0.8 1-0.8zm-12.443 10.177 2.592-4.4895c0.277-0.47978 0.809-0.68763 1.1928-0.46603l26.093 15.065c0.38382 0.2216 0.46982 0.78625 0.19282 1.266l-2.592 4.4895c-0.277 0.47978-0.809 0.68763-1.1928 0.46603l-26.093-15.065c-0.38382-0.2216-0.46982-0.78625-0.19282-1.266zm2.592 15.865-2.592-4.4895c-0.277-0.47978-0.191-1.0444 0.19282-1.266l26.093-15.065c0.38382-0.2216 0.91582-0.01375 1.1928 0.46603l2.592 4.4895c0.277 0.47978 0.191 1.0444-0.19282 1.266l-26.093 15.065c-0.38382 0.2216-0.91582 0.013753-1.1928-0.46603zm29.518 8.0219h5.184c0.554 0 1 0.3568 1 0.8v30.129c0 0.4432-0.446 0.8-1 0.8h-5.184c-0.554 0-1-0.3568-1-0.8v-30.129c0-0.4432 0.446-0.8 1-0.8zm-12.443 10.177 2.592-4.4895c0.277-0.47978 0.809-0.68762 1.1928-0.46602l26.093 15.065c0.38382 0.2216 0.46982 0.78625 0.19282 1.266l-2.592 4.4895c-0.277 0.47978-0.809 0.68763-1.1928 0.46603l-26.093-15.065c-0.38382-0.2216-0.46982-0.78625-0.19282-1.266zm2.592 15.865-2.592-4.4895c-0.277-0.47978-0.191-1.0444 0.19282-1.266l26.093-15.065c0.38382-0.2216 0.91582-0.01375 1.1928 0.46602l2.592 4.4895c0.277 0.47978 0.191 1.0444-0.19282 1.266l-26.093 15.065c-0.38382 0.2216-0.91582 0.01375-1.1928-0.46603zm-31.664-143.05 4.4895-2.592c0.47978-0.277 1.0444-0.191 1.266 0.19282l77.326 133.93c0.2216 0.38382 0.013753 0.91582-0.46603 1.1928l-4.4895 2.592c-0.47978 0.277-1.0444 0.191-1.266-0.19282l-77.326-133.93c-0.2216-0.38382-0.01375-0.91582 0.46602-1.1928z" fill="#fff" style="paint-order:normal"/>
            </g>
        </g>
    </g>
    <g display="none" fill="none">
        <rect transform="rotate(90)" x="7.8232" y="-20.923" width="13.1" height="13.1" display="inline" stroke="#000" stroke-width=".070382"/>
        <rect x="7.2241" y="8.6528" width="14.298" height="11.441" stroke="#5261ff" stroke-linecap="round" stroke-linejoin="round" stroke-width=".069589"/>
        <rect transform="rotate(90)" x="7.2241" y="-20.094" width="14.298" height="11.441" display="inline" stroke="#0f0" stroke-linecap="round" stroke-linejoin="round" stroke-width=".069589"/>
    </g>
</svg>
