<?xml version="1.0" encoding="UTF-8"?>
<svg version="1.1" viewBox="0 0 28.747 28.747" xmlns="http://www.w3.org/2000/svg">
    <defs>
        <filter id="filter6206-7" color-interpolation-filters="sRGB">
            <feGaussianBlur stdDeviation="0.658125"/>
        </filter>
    </defs>
    <g transform="translate(0 -1093.8)">
        <path transform="matrix(1.0781 0 0 1.0641 -.093733 2.7509)" d="m4.4177 1028.2v1.6051h-1.6052v18.192h1.6052v2.1402h18.192v-2.1402h2.1402v-18.192h-2.1402v-1.6051z" fill="#232323" filter="url(#filter6206-7)" opacity=".2"/>
        <rect x="2.9987" y="1096.8" width="22.749" height="22.749" rx="1.1973" ry="1.1974" fill="#232323"/>
        <g transform="translate(-22.32 1056.5)">
            <path d="m0 0h51.2v51.2h-51.2z" fill="none" stroke-width="1.0667"/>
            <g transform="matrix(.33601 0 0 .33601 1.5296 73.043)">
                <path d="m0 0h51.2v51.2h-51.2z" fill="none" stroke-width="1.0667"/>
            </g>
            <g transform="matrix(.37187 0 0 .37187 38.802 63.239)">
                <path d="m0 0h51.2v51.2h-51.2z" fill="none" stroke-width="1.0667"/>
                <g transform="matrix(2.6891 0 0 2.6891 -82.906 -48.45)">
                    <path d="m0 0h51.2v51.2h-51.2z" fill="none" stroke-width="1.0667"/>
                </g>
            </g>
        </g>
        <path d="m4.1958 1096.8c-0.66332 0-1.1979 0.5346-1.1979 1.1979v0.3334c0-0.6634 0.53459-1.1979 1.1979-1.1979h20.354c0.66332 0 1.1979 0.5345 1.1979 1.1979v-0.3334c0-0.6633-0.5346-1.1979-1.1979-1.1979z" fill="#fff" opacity=".2"/>
        <rect x="128" y="546.52" width="42.667" height="42.667" fill="none" stroke-width="1.0667"/>
        <rect x="128" y="631.85" width="42.667" height="42.667" fill="none" stroke-width="1.0667"/>
        <rect x="128" y="674.52" width="42.667" height="42.667" fill="none" stroke-width="1.0667"/>
        <rect x="128" y="589.19" width="42.667" height="42.667" fill="none" stroke-width="1.0667"/>
        <rect x="128" y="717.19" width="42.667" height="42.667" fill="none" stroke-width="1.0667"/>
        <rect x="213.33" y="546.52" width="42.667" height="42.667" fill="none" stroke-width="1.0667"/>
        <rect x="213.33" y="631.85" width="42.667" height="42.667" fill="none" stroke-width="1.0667"/>
        <rect x="213.33" y="674.52" width="42.667" height="42.667" fill="none" stroke-width="1.0667"/>
        <rect x="213.33" y="589.19" width="42.667" height="42.667" fill="none" stroke-width="1.0667"/>
        <rect x="213.33" y="717.19" width="42.667" height="42.667" fill="none" stroke-width="1.0667"/>
        <rect x="298.67" y="546.52" width="42.667" height="42.667" fill="none" stroke-width="1.0667"/>
        <rect x="298.67" y="631.85" width="42.667" height="42.667" fill="none" stroke-width="1.0667"/>
        <rect x="298.67" y="674.52" width="42.667" height="42.667" fill="none" stroke-width="1.0667"/>
        <rect x="298.67" y="589.19" width="42.667" height="42.667" fill="none" stroke-width="1.0667"/>
        <rect x="298.67" y="717.19" width="42.667" height="42.667" fill="none" stroke-width="1.0667"/>
        <rect x="170.67" y="546.52" width="42.667" height="42.667" fill="none" stroke-width="1.0667"/>
        <rect x="170.67" y="631.85" width="42.667" height="42.667" fill="none" stroke-width="1.0667"/>
        <rect x="170.67" y="674.52" width="42.667" height="42.667" fill="none" stroke-width="1.0667"/>
        <rect x="170.67" y="589.19" width="42.667" height="42.667" fill="none" stroke-width="1.0667"/>
        <rect x="170.67" y="717.19" width="42.667" height="42.667" fill="none" stroke-width="1.0667"/>
        <rect x="256" y="546.52" width="42.667" height="42.667" fill="none" stroke-width="1.0667"/>
        <rect x="256" y="631.85" width="42.667" height="42.667" fill="none" stroke-width="1.0667"/>
        <rect x="256" y="674.52" width="42.667" height="42.667" fill="none" stroke-width="1.0667"/>
        <rect x="256" y="589.19" width="42.667" height="42.667" fill="none" stroke-width="1.0667"/>
        <rect x="256" y="717.19" width="42.667" height="42.667" fill="none" stroke-width="1.0667"/>
        <rect x="128" y="759.85" width="42.667" height="42.667" fill="none" stroke-width="1.0667"/>
        <rect x="213.33" y="759.85" width="42.667" height="42.667" fill="none" stroke-width="1.0667"/>
        <rect x="298.67" y="759.85" width="42.667" height="42.667" fill="none" stroke-width="1.0667"/>
        <rect x="170.67" y="759.85" width="42.667" height="42.667" fill="none" stroke-width="1.0667"/>
        <rect x="256" y="759.85" width="42.667" height="42.667" fill="none" stroke-width="1.0667"/>
        <rect x="341.33" y="589.19" width="42.667" height="42.667" fill="none" stroke-width="1.0667"/>
        <rect x="341.33" y="631.85" width="42.667" height="42.667" fill="none" stroke-width="1.0667"/>
        <rect x="341.33" y="717.19" width="42.667" height="42.667" fill="none" stroke-width="1.0667"/>
        <rect x="341.33" y="546.52" width="42.667" height="42.667" fill="none" stroke-width="1.0667"/>
        <rect x="341.33" y="674.52" width="42.667" height="42.667" fill="none" stroke-width="1.0667"/>
        <rect x="341.33" y="759.85" width="42.667" height="42.667" fill="none" stroke-width="1.0667"/>
        <rect x="160" y="578.52" width="192" height="192" fill="none" stroke-width="1.0667"/>
        <g transform="matrix(.37344 0 0 .37344 4.7333 1097.4)">
            <path d="m0 0h51.2v51.2h-51.2z" fill="none" stroke-width="1.0667"/>
        </g>
        <g transform="matrix(.36471 0 0 .36471 5.1356 1097.4)">
            <path d="m0 0h51.2v51.2h-51.2z" fill="none" stroke-width="1.0667"/>
        </g>
        <g transform="matrix(.41585 0 0 .41585 84.325 1055.9)">
            <g transform="matrix(.062269 0 0 .062269 -28.238 185.29)">
                <g transform="matrix(38.618 0 0 38.618 14724 -13542)">
                    <g transform="matrix(.71436 0 0 .71436 -400.52 188.34)">
                        <path d="m1293.2-120.67c-181.75 0.2763-511.18 0.13525-699.05 0.13998-2.3216 10.413-3.593 21.251-3.593 32.384v114c207.65 0.73695 494.72 0.38136 706.23 0.3733v-114.37c0-11.18-1.2522-22.07-3.593-32.523zm-458.69 295.56c-78.385-4e-3 -158.85 0.17892-243.95 0.55995v138.63c286.34-0.39317 421.73-0.13827 706.23-0.32664v-137.75c-163.2-0.53005-311.22-1.1113-462.28-1.1199z" opacity="0" stroke-width="1.4932"/>
                    </g>
                </g>
            </g>
        </g>
        <path d="m24.549 1119.5c0.66325 0 1.1979-0.5346 1.1979-1.1979v-0.3333c0 0.6632-0.53461 1.1978-1.1979 1.1978h-20.354c-0.66325 0-1.1979-0.5346-1.1979-1.1978v0.3333c0 0.6633 0.53461 1.1979 1.1979 1.1979z" fill="#232323" opacity=".2"/>
    </g>
    <g transform="translate(-309.72 205.96)" fill="#ff0">
        <g transform="translate(424.17 -200.77)">
            <flowRoot fill="#ffff00" font-family="Roboto" font-size="3.75px" letter-spacing="0px" stroke-width="1px" word-spacing="0px" style="line-height:125%" xml:space="preserve"><flowRegion fill="#ffff00"><rect x="10.664" y="11.235" width="4.49" height="5.0512" fill="#ff0"/></flowRegion><flowPara>your</flowPara></flowRoot>
            <g transform="translate(-.093745 .09375)" fill="#fff">
                <g transform="scale(1.0608 .9427)" aria-label="K">
                    <path d="m-99.091 15.205-0.30065 0.32988v0.80173h-0.73283v-3.0399h0.73283v1.3404l0.25472-0.38625 0.65558-0.95414h0.90612l-1.0272 1.3446 1.0272 1.6953h-0.86854zm6.0318-1.9292v1.9897q0 0.33823-0.14406 0.58668-0.14406 0.24636-0.41339 0.37581-0.26933 0.12945-0.63679 0.12945-0.55537 0-0.87481-0.28812-0.31944-0.28812-0.3257-0.7892v-2.0043h0.73701v2.0189q0.01253 0.49899 0.4635 0.49899 0.22758 0 0.34449-0.12527 0.11692-0.12527 0.11692-0.40713v-1.9855zm4.7258-3.5651q0 0.44471-0.16494 0.78712-0.16494 0.34241-0.46976 0.52822-0.30274 0.18373-0.69108 0.18373-0.38834 0-0.68899-0.17747-0.30065-0.17956-0.46976-0.51152-0.16703-0.33197-0.17538-0.76206v-0.1712q0-0.4468 0.16285-0.78712 0.16494-0.34241 0.46976-0.52822 0.30691-0.18582 0.69734-0.18582 0.38625 0 0.68899 0.18373t0.46976 0.52405q0.16912 0.33823 0.1712 0.77668zm-0.74536-0.12736q0-0.45306-0.15241-0.6869-0.15032-0.23593-0.43218-0.23593-0.55119 0-0.58251 0.82679l-0.0021 0.2234q0 0.4468 0.14824 0.6869t0.44054 0.2401q0.27768 0 0.42801-0.23593 0.15032-0.23593 0.15241-0.67855zm-6.3721 1.5847v-3.0399h0.9792q0.40295 0 0.72448 0.18373 0.32153 0.18164 0.50108 0.5157 0.18164 0.33197 0.18373 0.74536v0.13989q0 0.41757-0.17747 0.74954-0.17538 0.32988-0.49691 0.51778-0.31944 0.18582-0.71404 0.1879zm0.73283-2.4741v1.9104h0.25472q0.31526 0 0.48438-0.2234 0.16912-0.22549 0.16912-0.66811v-0.13153q0-0.44053-0.16912-0.66393-0.16912-0.2234-0.49273-0.2234zm1.6588-5.7552v1.9897q0 0.33823-0.14406 0.58668-0.14406 0.24637-0.41339 0.37581-0.26933 0.12945-0.63679 0.12945-0.55537 0-0.87481-0.28812-0.31944-0.28812-0.3257-0.7892v-2.0043h0.73701v2.0189q0.01253 0.49899 0.4635 0.49899 0.22758 0 0.34449-0.12527t0.11692-0.40713v-1.9855zm-5.325 2.2528q0-0.16076-0.11483-0.25054-0.11274-0.089777-0.39878-0.18582-0.28603-0.096041-0.46768-0.18582-0.59086-0.29021-0.59086-0.79756 0-0.25263 0.14615-0.44471 0.14824-0.19417 0.41757-0.30065 0.26933-0.10857 0.60548-0.10857 0.32779 0 0.58668 0.11692 0.26098 0.11692 0.40504 0.33405 0.14406 0.21505 0.14406 0.49273h-0.73074q0-0.18582-0.11483-0.28812-0.11274-0.1023-0.30691-0.1023-0.19626 0-0.31109 0.087689-0.11274 0.085602-0.11274 0.21922 0 0.11692 0.12527 0.21296 0.12527 0.093953 0.44054 0.19626 0.31526 0.10022 0.51778 0.21714 0.49273 0.28395 0.49273 0.78294 0 0.39878-0.30065 0.62635-0.30065 0.22757-0.8247 0.22757-0.36955 0-0.6702-0.13153-0.29856-0.13362-0.45097-0.36328-0.15032-0.23175-0.15032-0.5324h0.73492q0 0.24428 0.12527 0.3612 0.12736 0.11483 0.4113 0.11483 0.18164 0 0.28603-0.07725 0.10648-0.079338 0.10648-0.22131zm10.282 1.3574v1.0298c0 0.071696-0.05171 0.12942-0.11595 0.12942h-12.073c-0.0642 0-0.11595-0.057719-0.11595-0.12942v-1.0298c0-0.071696 0.0517-0.12942 0.11595-0.12942h12.073c0.06424 0 0.11595 0.057719 0.11595 0.12942zm0 5.1683v1.0298c0 0.0717-0.05171 0.12942-0.11595 0.12942h-12.073c-0.0642 0-0.11595-0.05772-0.11595-0.12942v-1.0298c0-0.0717 0.0517-0.12942 0.11595-0.12942h12.073c0.06424 0 0.11595 0.05772 0.11595 0.12942zm-8.9074-8.9923h0.91516c0.06373 0 0.11501 0.058192 0.11501 0.13048v13.585c0 0.07228-0.05128 0.13048-0.11501 0.13048h-0.91516c-0.06372 0-0.11501-0.05819-0.11501-0.13048v-13.585c0-0.072284 0.05128-0.13048 0.11501-0.13048zm4.5946 0h0.91516c0.06372 0 0.11501 0.058192 0.11501 0.13048v13.585c0 0.07228-0.05129 0.13048-0.11501 0.13048h-0.91516c-0.06372 0-0.11501-0.05819-0.11501-0.13048v-13.585c0-0.072284 0.05129-0.13048 0.11501-0.13048z" fill="#fff"/>
                </g>
            </g>
        </g>
        <g display="none">
            <rect transform="rotate(90)" x="7.3342" y="-19.616" width="12.282" height="12.282" display="inline" stroke="#000" stroke-width=".065984"/>
            <rect x="6.7726" y="8.112" width="13.405" height="10.726" stroke="#5261ff" stroke-linecap="round" stroke-linejoin="round" stroke-width=".06524"/>
            <rect transform="rotate(90)" x="6.7726" y="-18.838" width="13.405" height="10.726" display="inline" stroke="#0f0" stroke-linecap="round" stroke-linejoin="round" stroke-width=".06524"/>
        </g>
    </g>
    <g display="none" fill="none">
        <rect transform="rotate(90)" x="7.8232" y="-20.923" width="13.1" height="13.1" display="inline" stroke="#000" stroke-width=".070382"/>
        <rect x="7.2241" y="8.6528" width="14.298" height="11.441" stroke="#5261ff" stroke-linecap="round" stroke-linejoin="round" stroke-width=".069589"/>
        <rect transform="rotate(90)" x="7.2241" y="-20.094" width="14.298" height="11.441" display="inline" stroke="#0f0" stroke-linecap="round" stroke-linejoin="round" stroke-width=".069589"/>
    </g>
</svg>
