<?xml version="1.0" encoding="UTF-8"?>
<svg version="1.1" viewBox="0 0 26.95 26.95" xmlns="http://www.w3.org/2000/svg">
    <defs>
        <filter id="filter6206-7" color-interpolation-filters="sRGB">
            <feGaussianBlur stdDeviation="0.658125"/>
        </filter>
    </defs>
    <g transform="translate(0 -1025.4)">
        <path transform="matrix(1.0107 0 0 .99762 -.087875 2.579)" d="m4.4177 1028.2v1.6051h-1.6052v18.192h1.6052v2.1402h18.192v-2.1402h2.1402v-18.192h-2.1402v-1.6051h-18.192z" fill="#232323" filter="url(#filter6206-7)" opacity=".2"/>
        <rect x="2.8113" y="1028.2" width="21.327" height="21.327" rx="1.1225" ry="1.1226" fill="#232323"/>
        <g transform="translate(-20.925 990.46)">
            <path d="m0 0h48v48h-48z" fill="none"/>
            <g transform="matrix(.33601 0 0 .33601 1.434 68.477)">
                <path d="m0 0h48v48h-48z" fill="none"/>
            </g>
            <g transform="matrix(.37187 0 0 .37187 36.377 59.287)">
                <path d="m0 0h48v48h-48z" fill="none"/>
                <g transform="matrix(2.6891 0 0 2.6891 -77.724 -45.422)">
                    <path d="m0 0h48v48h-48z" fill="none"/>
                </g>
            </g>
        </g>
        <path transform="translate(0 1025.4)" d="m3.9336 2.8105c-0.62186 0-1.123 0.50115-1.123 1.123v0.3125c0-0.6219 0.50118-1.123 1.123-1.123h19.082c0.62186 0 1.123 0.50115 1.123 1.123v-0.3125c0-0.6219-0.50118-1.123-1.123-1.123h-19.082z" fill="#fff" opacity=".2"/>
        <rect x="120" y="512.36" width="40" height="40" fill="none"/>
        <rect x="120" y="592.36" width="40" height="40" fill="none"/>
        <rect x="120" y="632.36" width="40" height="40" fill="none"/>
        <rect x="120" y="552.36" width="40" height="40" fill="none"/>
        <rect x="120" y="672.36" width="40" height="40" fill="none"/>
        <rect x="200" y="512.36" width="40" height="40" fill="none"/>
        <rect x="200" y="592.36" width="40" height="40" fill="none"/>
        <rect x="200" y="632.36" width="40" height="40" fill="none"/>
        <rect x="200" y="552.36" width="40" height="40" fill="none"/>
        <rect x="200" y="672.36" width="40" height="40" fill="none"/>
        <rect x="280" y="512.36" width="40" height="40" fill="none"/>
        <rect x="280" y="592.36" width="40" height="40" fill="none"/>
        <rect x="280" y="632.36" width="40" height="40" fill="none"/>
        <rect x="280" y="552.36" width="40" height="40" fill="none"/>
        <rect x="280" y="672.36" width="40" height="40" fill="none"/>
        <rect x="160" y="512.36" width="40" height="40" fill="none"/>
        <rect x="160" y="592.36" width="40" height="40" fill="none"/>
        <rect x="160" y="632.36" width="40" height="40" fill="none"/>
        <rect x="160" y="552.36" width="40" height="40" fill="none"/>
        <rect x="160" y="672.36" width="40" height="40" fill="none"/>
        <rect x="240" y="512.36" width="40" height="40" fill="none"/>
        <rect x="240" y="592.36" width="40" height="40" fill="none"/>
        <rect x="240" y="632.36" width="40" height="40" fill="none"/>
        <rect x="240" y="552.36" width="40" height="40" fill="none"/>
        <rect x="240" y="672.36" width="40" height="40" fill="none"/>
        <rect x="120" y="712.36" width="40" height="40" fill="none"/>
        <rect x="200" y="712.36" width="40" height="40" fill="none"/>
        <rect x="280" y="712.36" width="40" height="40" fill="none"/>
        <rect x="160" y="712.36" width="40" height="40" fill="none"/>
        <rect x="240" y="712.36" width="40" height="40" fill="none"/>
        <rect x="320" y="552.36" width="40" height="40" fill="none"/>
        <rect x="320" y="592.36" width="40" height="40" fill="none"/>
        <rect x="320" y="672.36" width="40" height="40" fill="none"/>
        <rect x="320" y="512.36" width="40" height="40" fill="none"/>
        <rect x="320" y="632.36" width="40" height="40" fill="none"/>
        <rect x="320" y="712.36" width="40" height="40" fill="none"/>
        <rect x="150" y="542.36" width="180" height="180" fill="none"/>
        <g transform="matrix(.37344 0 0 .37344 4.4375 1028.8)">
            <path d="m0 0h48v48h-48z" fill="none"/>
        </g>
        <g transform="matrix(.36471 0 0 .36471 4.8146 1028.8)">
            <path d="m0 0h48v48h-48z" fill="none"/>
        </g>
        <g transform="matrix(.41585 0 0 .41585 79.055 989.88)">
            <g transform="matrix(.062269 0 0 .062269 -26.473 173.71)">
                <g transform="matrix(38.618 0 0 38.618 13804 -12696)">
                    <g transform="matrix(.71436 0 0 .71436 -375.49 176.57)">
                        <path transform="matrix(1.3999 0 0 1.3999 525.63 -247.17)" d="m490.56 95.75c-121.72 0.18504-342.34 0.090577-468.16 0.09375-1.5548 6.9739-2.4062 14.232-2.4062 21.688v76.344c139.06 0.49354 331.32 0.2554 472.97 0.25v-76.594c0-7.4875-0.8386-14.78-2.4062-21.781zm-307.19 197.94c-52.495-3e-3 -106.38 0.11982-163.38 0.375v92.844c191.76-0.26331 282.43-0.0926 472.97-0.21875v-92.25c-109.29-0.35498-208.43-0.74426-309.59-0.75z" opacity="0"/>
                    </g>
                </g>
            </g>
        </g>
        <path d="m23.015 1049.6c0.6218 0 1.123-0.5012 1.123-1.123v-0.3125c0 0.6218-0.5012 1.123-1.123 1.123h-19.082c-0.6218 0-1.123-0.5012-1.123-1.123v0.3125c0 0.6218 0.5012 1.123 1.123 1.123h19.082z" fill="#232323" opacity=".2"/>
    </g>
    <g transform="translate(5.0512 -1023.5)">
        <g transform="matrix(.99017 0 0 .99017 -4.9188 9.6488)">
            <g transform="translate(-19.227 -1.6991)">
                <g transform="matrix(.056585 0 0 .056585 28.623 1035.1)" fill="#fff">
                    <g transform="translate(-.44767 28.161)">
                        <path transform="matrix(17.848 0 0 17.848 -167.97 -195.78)" d="m14.234 7.8594c-0.31226 0.027131-0.59105 0.16059-0.83594 0.32812-0.16511-0.071842-0.31873-0.1273-0.45898-0.14844-0.20059-0.030233-0.40647 0.0034159-0.55859 0.097656-0.12678 0.078541-0.19775 0.17472-0.25 0.25586-0.21351-0.067251-0.40122-0.1139-0.56641-0.11523-0.11834-9.525e-4 -0.2405 0.017807-0.35742 0.083984-0.11693 0.066177-0.20844 0.18445-0.24805 0.29102-0.045801 0.12324-0.050574 0.22153-0.044922 0.30859-0.086409-0.015137-0.17316-0.030642-0.25195-0.037109-0.21483-0.017634-0.43403-0.0044323-0.62695 0.12891-0.19292 0.13334-0.28356 0.35083-0.32227 0.55078-0.010794 0.05576-0.013501 0.11675-0.019531 0.17578-0.64953-0.043341-1.3618-0.049453-2.2637 0.42969-0.28647 0.21194-0.30663 0.9503 0.23242 1.4727l0.88867-0.45312c0.006544 0.083501 0.016868 0.16742 0.039063 0.25195-0.10987 0.054837-0.20455 0.11775-0.28906 0.19726-0.16567 0.15587-0.24064 0.46848-0.16602 0.66797 0.074629 0.19949 0.1939 0.31422 0.31641 0.4375 0.032501 0.032706 0.069565 0.066734 0.10352 0.099609-0.069276 0.040191-0.14673 0.090127-0.23242 0.17969-0.13099 0.1369-0.22076 0.37801-0.20117 0.61133 0.015092 0.17975 0.08364 0.37628 0.18164 0.59961-0.055432 0.068105-0.14022 0.17333-0.20117 0.32617-0.11377 0.28529-0.087415 0.67283 0.12891 1.1836-0.064767 0.18542-0.14769 0.37499-0.20117 0.60352-0.047729 0.20394-0.03586 0.46938 0.080078 0.70312-0.080123 0.22252-0.09495 0.45075-0.052734 0.6543 0.05649 0.27238 0.1985 0.49609 0.35938 0.67383s0.34351 0.31368 0.51562 0.41406 0.31324 0.16839 0.49609 0.19141l0.023438 0.001953h8.3242l0.10547-0.095703c0.20357-0.18265 0.53799-0.41063 0.76953-0.76172 0.11577-0.17555 0.20492-0.39901 0.19726-0.64844-0.003944-0.12843-0.033981-0.25635-0.08789-0.38281 0.040799-0.034534 0.083777-0.067376 0.11914-0.10742 0.11845-0.13413 0.198-0.32164 0.19727-0.5-8.8e-4 -0.21478-0.080447-0.38269-0.17969-0.54102 0.10755-0.11658 0.18338-0.25251 0.21289-0.39258 0.057225-0.27161-0.010467-0.51229-0.09375-0.7168-0.060365-0.14823-0.13406-0.27597-0.20508-0.38867 0.20495-0.19246 0.34674-0.4399 0.38281-0.71484 0.0346-0.2637-0.056758-0.54441-0.23633-0.77539 0.024362-0.036402 0.048631-0.071669 0.066407-0.11133 0.095165-0.21233 0.094911-0.4485 0.029296-0.66406-0.097384-0.31993-0.33201-0.60971-0.67578-0.82422 0.021052-0.046741 0.03533-0.10374 0.050781-0.1582l0.85938 0.46875c0.53905-0.52236 0.52084-1.2607 0.23438-1.4727-0.78849-0.41889-1.4334-0.46665-2.0176-0.44336-0.01295-0.19713-0.058761-0.38956-0.19726-0.55273-0.14526-0.17113-0.36598-0.28244-0.60547-0.31055-0.096683-0.011348-0.19905-0.0028105-0.30273 0.0078125-0.019535-0.081667-0.044503-0.16758-0.089844-0.25391-0.10496-0.19983-0.32724-0.39214-0.61328-0.45312-0.19592-0.041773-0.41571-0.031074-0.66602 0.023438-0.047843-0.085475-0.10428-0.16295-0.17969-0.22461-0.1848-0.1511-0.41744-0.18906-0.61523-0.17188zm0.064453 0.74805c0.06756-0.0058701 0.077332 0.0048549 0.076172 0.0039062-0.00116-9.485e-4 0.025949 0.015079 0.039062 0.14062l0.048829 0.46875 0.44726-0.1543c0.33673-0.11669 0.53957-0.11866 0.62891-0.099609 0.089339 0.019048 0.085935 0.031169 0.10547 0.068359 0.039068 0.07438 0.025391 0.28711 0.025391 0.28711l-0.13672 0.65234 0.62695-0.2207c0.21364-0.074818 0.36686-0.088251 0.45312-0.078125s0.10564 0.030274 0.12305 0.050781c0.034814 0.041014 0.072673 0.21182-0.017578 0.44531l-0.15625 0.4043 0.42383 0.095703c0.35005 0.079335 0.55714 0.17283 0.65234 0.23828s0.077748 0.071108 0.078125 0.074219c7.56e-4 0.006222-0.078983 0.16893-0.19922 0.39648l-0.19922 0.37695 0.40039 0.15039c0.38618 0.14432 0.56987 0.38417 0.61523 0.5332 0.022683 0.074519 0.015035 0.12015 0.00586 0.14062-0.009177 0.020474-0.014328 0.035182-0.078125 0.056641l-0.89453 0.30078 0.85547 0.39453c0.22834 0.10556 0.2446 0.20627 0.22656 0.34375s-0.13218 0.30254-0.30664 0.375l-0.47656 0.19922 0.33594 0.39258s0.21682 0.26148 0.32031 0.51562c0.051748 0.12707 0.061627 0.23904 0.052734 0.28125-0.008894 0.042213 0.005273 0.056403-0.13086 0.10938l-0.45703 0.17774 0.29297 0.39453c0.17969 0.2426 0.23955 0.40287 0.24219 0.4043-0.002029 0.001764-2.33e-4 -5.15e-4 -0.00586 0.005859-0.024302 0.027519-0.098756 0.089408-0.23438 0.16016l-0.40625 0.21094 0.28906 0.35742c0.11141 0.13724 0.13095 0.2205 0.13281 0.28125 0.001866 0.060749-0.015918 0.12253-0.074218 0.21094-0.099486 0.15086-0.31672 0.3327-0.5332 0.52148h-7.9746c0.012444 5.6e-4 -0.097182-0.027732-0.20703-0.091797-0.11336-0.066112-0.23924-0.1627-0.33594-0.26953-0.096693-0.10683-0.16045-0.22009-0.18164-0.32226-0.021191-0.10218-0.01588-0.19966 0.070312-0.34766l0.14258-0.24414-0.19727-0.20508c-0.09478-0.098208-0.080698-0.0918-0.046875-0.23633 0.033824-0.14453 0.14374-0.38056 0.23047-0.67969l0.041016-0.13672-0.0625-0.12891c-0.23805-0.49655-0.20213-0.6585-0.17188-0.73438 0.015129-0.037937 0.041502-0.074434 0.09375-0.13867s0.14247-0.15694 0.19336-0.32422l0.042969-0.14258-0.066406-0.13477c-0.13856-0.27897-0.18535-0.45525-0.19141-0.52734-0.0060529-0.072091-0.01245-0.022409-0.0058594-0.029297s0.073173-0.050122 0.18555-0.11914c0.11237-0.069019 0.27071-0.17817 0.38281-0.36719l0.14648-0.24609-0.19922-0.20703c-0.15187-0.1572-0.29295-0.28645-0.39453-0.38867-0.051388-0.051711-0.049591-0.055949-0.074219-0.08789 0.064543-0.034649 0.154-0.077289 0.29102-0.125l0.43164-0.15039-0.23047-0.39258c-0.17894-0.3058-0.13681-0.49698-0.03125-0.63867 0.062093-0.083346 0.16596-0.14987 0.29883-0.18555v0.09375l0.46875-0.12109-0.033203-0.60547 0.31445 0.24219c9.5e-5 -0.25079 0.009593-0.43532 0.029297-0.53711 0.019703-0.10179 0.030617-0.089233 0.011719-0.076172-0.018899 0.013061 0.008414-0.0088985 0.14062 0.0019531 0.13221 0.010852 0.34316 0.052498 0.625 0.12305l0.39258 0.097656 0.068359-0.39648c0.033093-0.18989 0.003843-0.33662-0.009766-0.44727 0.10302 0.019027 0.24945 0.054748 0.47852 0.14062l0.24023 0.089844 0.16992-0.19336c0.096445-0.1084 0.13902-0.20144 0.17188-0.25586 0.032853-0.05442 0.048526-0.062503 0.039063-0.056641-0.009464 0.0058625-0.02426-0.0034976 0.050781 0.0078125 0.075041 0.01131 0.22333 0.05649 0.44336 0.16992l0.2168 0.11328 0.18945-0.1543c0.19995-0.16113 0.48598-0.29099 0.62109-0.30273zm0.55469 2.2051c-0.65919-0.033024-1.2347 0.25577-1.418 1h-0.064453c-0.18691-0.73422-0.75885-1.0191-1.4141-0.98633-0.30076 1.28e-4 -0.59436 0.10162-0.8418 0.29102-0.40525 0.43105-0.76938 0.88581-0.79883 1.4434-6.2e-5 0.385 0.12347 0.73371 0.32227 1.0098v2.7441c0 0.79881 0.65237 1.4512 1.4512 1.4512h2.7422c0.79881 0 1.4512-0.65237 1.4512-1.4512v-2.9297c0.13235-0.24412 0.21101-0.52985 0.21094-0.83789-0.029494-0.5575-0.39358-1.0123-0.79883-1.4434-0.24744-0.18939-0.54104-0.2909-0.8418-0.29102zm-2.6953 1.6602h0.24805a0.32482 0.32482 0 0 1 0.20312 0.29883 0.32482 0.32482 0 0 1-0.32422 0.32422 0.32482 0.32482 0 0 1-0.32617-0.32422 0.32482 0.32482 0 0 1 0.19922-0.29883zm2.2383 0h0.31055a0.32482 0.32482 0 0 1 0.16992 0.28516 0.32482 0.32482 0 0 1-0.32617 0.32422 0.32482 0.32482 0 0 1-0.32422-0.32422 0.32482 0.32482 0 0 1 0.16992-0.28516zm-0.99023 0.32617c0.1332 0.6873 0.65344 1.2211 1.3086 1.2891h0.001953c0.1221 0.03874 0.24825 0.058483 0.375 0.058593 0.18877-1.2e-4 0.36884-0.043941 0.5332-0.12109v2.2891c0 0.4449-0.34807 0.79297-0.79297 0.79297h-2.7422c-0.4449 0-0.79297-0.34807-0.79297-0.79297v-2.2344c0.13369 0.048321 0.27417 0.079983 0.42188 0.080078 0.12675-1.36e-4 0.2529-0.019853 0.375-0.058594h0.001953c0.65945-0.068386 1.1816-0.60886 1.3105-1.3027zm-1.8984 3.3086 1.9414 0.98047 1.9414-0.98047h-3.8828z" color="#000000" color-rendering="auto" dominant-baseline="auto" fill="#fff" image-rendering="auto" shape-rendering="auto" solid-color="#000000" style="font-feature-settings:normal;font-variant-alternates:normal;font-variant-caps:normal;font-variant-ligatures:normal;font-variant-numeric:normal;font-variant-position:normal;isolation:auto;mix-blend-mode:normal;shape-padding:0;text-decoration-color:#000000;text-decoration-line:none;text-decoration-style:solid;text-indent:0;text-orientation:mixed;text-transform:none;white-space:normal"/>
                    </g>
                </g>
            </g>
        </g>
    </g>
    <g display="none" fill="none">
        <rect transform="rotate(90)" x="7.3342" y="-19.616" width="12.282" height="12.282" display="inline" stroke="#000" stroke-width=".065984"/>
        <rect x="6.7726" y="8.112" width="13.405" height="10.726" stroke="#5261ff" stroke-linecap="round" stroke-linejoin="round" stroke-width=".06524"/>
        <rect transform="rotate(90)" x="6.7726" y="-18.838" width="13.405" height="10.726" display="inline" stroke="#0f0" stroke-linecap="round" stroke-linejoin="round" stroke-width=".06524"/>
    </g>
</svg>
