<?xml version="1.0" encoding="UTF-8"?>
<svg version="1.1" viewBox="0 0 28.747 28.747" xmlns="http://www.w3.org/2000/svg" xmlns:osb="http://www.openswatchbook.org/uri/2009/osb" xmlns:xlink="http://www.w3.org/1999/xlink">
    <defs>
        <filter id="filter6206-7" color-interpolation-filters="sRGB">
            <feGaussianBlur stdDeviation="0.658125"/>
        </filter>
    </defs>
    <g transform="translate(0 -1093.8)">
        <path transform="matrix(1.0781 0 0 1.0641 -.093733 2.7509)" d="m4.4177 1028.2v1.6051h-1.6052v18.192h1.6052v2.1402h18.192v-2.1402h2.1402v-18.192h-2.1402v-1.6051z" fill="#3e2723" filter="url(#filter6206-7)" opacity=".2"/>
        <rect x="2.9987" y="1096.8" width="22.749" height="22.749" rx="1.1973" ry="1.1974" fill="#232323"/>
        <g transform="translate(-22.32 1056.5)">
            <path d="m0 0h51.2v51.2h-51.2z" fill="none" stroke-width="1.0667"/>
            <g transform="matrix(.33601 0 0 .33601 1.5296 73.043)">
                <path d="m0 0h51.2v51.2h-51.2z" fill="none" stroke-width="1.0667"/>
            </g>
            <g transform="matrix(.37187 0 0 .37187 38.802 63.239)">
                <path d="m0 0h51.2v51.2h-51.2z" fill="none" stroke-width="1.0667"/>
                <g transform="matrix(2.6891 0 0 2.6891 -82.906 -48.45)">
                    <path d="m0 0h51.2v51.2h-51.2z" fill="none" stroke-width="1.0667"/>
                </g>
            </g>
        </g>
        <path d="m4.1958 1096.8c-0.66332 0-1.1979 0.5346-1.1979 1.1979v0.3334c0-0.6634 0.53459-1.1979 1.1979-1.1979h20.354c0.66332 0 1.1979 0.5345 1.1979 1.1979v-0.3334c0-0.6633-0.5346-1.1979-1.1979-1.1979z" fill="#fff" opacity=".2"/>
        <rect x="128" y="546.52" width="42.667" height="42.667" fill="none" stroke-width="1.0667"/>
        <rect x="128" y="631.85" width="42.667" height="42.667" fill="none" stroke-width="1.0667"/>
        <rect x="128" y="674.52" width="42.667" height="42.667" fill="none" stroke-width="1.0667"/>
        <rect x="128" y="589.19" width="42.667" height="42.667" fill="none" stroke-width="1.0667"/>
        <rect x="128" y="717.19" width="42.667" height="42.667" fill="none" stroke-width="1.0667"/>
        <rect x="213.33" y="546.52" width="42.667" height="42.667" fill="none" stroke-width="1.0667"/>
        <rect x="213.33" y="631.85" width="42.667" height="42.667" fill="none" stroke-width="1.0667"/>
        <rect x="213.33" y="674.52" width="42.667" height="42.667" fill="none" stroke-width="1.0667"/>
        <rect x="213.33" y="589.19" width="42.667" height="42.667" fill="none" stroke-width="1.0667"/>
        <rect x="213.33" y="717.19" width="42.667" height="42.667" fill="none" stroke-width="1.0667"/>
        <rect x="298.67" y="546.52" width="42.667" height="42.667" fill="none" stroke-width="1.0667"/>
        <rect x="298.67" y="631.85" width="42.667" height="42.667" fill="none" stroke-width="1.0667"/>
        <rect x="298.67" y="674.52" width="42.667" height="42.667" fill="none" stroke-width="1.0667"/>
        <rect x="298.67" y="589.19" width="42.667" height="42.667" fill="none" stroke-width="1.0667"/>
        <rect x="298.67" y="717.19" width="42.667" height="42.667" fill="none" stroke-width="1.0667"/>
        <rect x="170.67" y="546.52" width="42.667" height="42.667" fill="none" stroke-width="1.0667"/>
        <rect x="170.67" y="631.85" width="42.667" height="42.667" fill="none" stroke-width="1.0667"/>
        <rect x="170.67" y="674.52" width="42.667" height="42.667" fill="none" stroke-width="1.0667"/>
        <rect x="170.67" y="589.19" width="42.667" height="42.667" fill="none" stroke-width="1.0667"/>
        <rect x="170.67" y="717.19" width="42.667" height="42.667" fill="none" stroke-width="1.0667"/>
        <rect x="256" y="546.52" width="42.667" height="42.667" fill="none" stroke-width="1.0667"/>
        <rect x="256" y="631.85" width="42.667" height="42.667" fill="none" stroke-width="1.0667"/>
        <rect x="256" y="674.52" width="42.667" height="42.667" fill="none" stroke-width="1.0667"/>
        <rect x="256" y="589.19" width="42.667" height="42.667" fill="none" stroke-width="1.0667"/>
        <rect x="256" y="717.19" width="42.667" height="42.667" fill="none" stroke-width="1.0667"/>
        <rect x="128" y="759.85" width="42.667" height="42.667" fill="none" stroke-width="1.0667"/>
        <rect x="213.33" y="759.85" width="42.667" height="42.667" fill="none" stroke-width="1.0667"/>
        <rect x="298.67" y="759.85" width="42.667" height="42.667" fill="none" stroke-width="1.0667"/>
        <rect x="170.67" y="759.85" width="42.667" height="42.667" fill="none" stroke-width="1.0667"/>
        <rect x="256" y="759.85" width="42.667" height="42.667" fill="none" stroke-width="1.0667"/>
        <rect x="341.33" y="589.19" width="42.667" height="42.667" fill="none" stroke-width="1.0667"/>
        <rect x="341.33" y="631.85" width="42.667" height="42.667" fill="none" stroke-width="1.0667"/>
        <rect x="341.33" y="717.19" width="42.667" height="42.667" fill="none" stroke-width="1.0667"/>
        <rect x="341.33" y="546.52" width="42.667" height="42.667" fill="none" stroke-width="1.0667"/>
        <rect x="341.33" y="674.52" width="42.667" height="42.667" fill="none" stroke-width="1.0667"/>
        <rect x="341.33" y="759.85" width="42.667" height="42.667" fill="none" stroke-width="1.0667"/>
        <rect x="160" y="578.52" width="192" height="192" fill="none" stroke-width="1.0667"/>
        <g transform="matrix(.37344 0 0 .37344 4.7333 1097.4)">
            <path d="m0 0h51.2v51.2h-51.2z" fill="none" stroke-width="1.0667"/>
        </g>
        <g transform="matrix(.36471 0 0 .36471 5.1356 1097.4)">
            <path d="m0 0h51.2v51.2h-51.2z" fill="none" stroke-width="1.0667"/>
        </g>
        <g transform="matrix(.41585 0 0 .41585 84.325 1055.9)">
            <g transform="matrix(.062269 0 0 .062269 -28.238 185.29)">
                <g transform="matrix(38.618 0 0 38.618 14724 -13542)">
                    <g transform="matrix(.71436 0 0 .71436 -400.52 188.34)">
                        <path d="m1293.2-120.67c-181.75 0.2763-511.18 0.13525-699.05 0.13998-2.3216 10.413-3.593 21.251-3.593 32.384v114c207.65 0.73695 494.72 0.38136 706.23 0.3733v-114.37c0-11.18-1.2522-22.07-3.593-32.523zm-458.69 295.56c-78.385-4e-3 -158.85 0.17892-243.95 0.55995v138.63c286.34-0.39317 421.73-0.13827 706.23-0.32664v-137.75c-163.2-0.53005-311.22-1.1113-462.28-1.1199z" opacity="0" stroke-width="1.4932"/>
                    </g>
                </g>
            </g>
        </g>
        <path d="m24.549 1119.5c0.66325 0 1.1979-0.5346 1.1979-1.1979v-0.3333c0 0.6632-0.53461 1.1978-1.1979 1.1978h-20.354c-0.66325 0-1.1979-0.5346-1.1979-1.1978v0.3333c0 0.6633 0.53461 1.1979 1.1979 1.1979z" fill="#3e2723" opacity=".2"/>
    </g>
    <g>
        <path d="m11.868 6.6921-0.84078 0.67431 0.33505 0.42144 2.3137 2.8932-7.4806 9.3497-0.26972 0.33715h1.3823l7.0591-8.825 7.0613 8.825h1.3802l-0.26762-0.33715-7.4827-9.3518 2.3137-2.8911 0.33715-0.42144-0.84078-0.67431-0.33715 0.42144-2.1641 2.7035-2.162-2.7035zm2.4992 5.1795-6.7957 8.4963h13.594zm0 4.029a2.9903 2.9903 0 0 1 1.7974 0.60477l0.40037-0.40037a0.41629 0.41629 0 0 1 0.28658-0.12643 0.41629 0.41629 0 0 1 0.30344 0.71434l-0.40037 0.40037a2.9903 2.9903 0 0 1 0.60477 1.7974v0.99671h-5.9824v-0.99671a2.9903 2.9903 0 0 1 0.60477-1.7974l-0.40037-0.40037a0.41629 0.41629 0 0 1 0.2908-0.71434 0.41629 0.41629 0 0 1 0.29922 0.12643l0.40037 0.40037a2.9903 2.9903 0 0 1 1.7953-0.60477zm-1.2454 1.494a0.24919 0.24919 0 0 0-0.24865 0.25076 0.24919 0.24919 0 0 0 0.06533 0.16858 0.24919 0.24919 0 0 0 0.0042 0.0042 0.24919 0.24919 0 0 0 0.0064 0.0064 0.24919 0.24919 0 0 0 0.01686 0.01475 0.24919 0.24919 0 0 1 0.0022 0.0022 0.24919 0.24919 0 0 0 0.01475 0.01057 0.24919 0.24919 0 0 0 0.01686 0.01057 0.24919 0.24919 0 0 0 0.0042 0.0022 0.24919 0.24919 0 0 0 0.0064 0.0022 0.24919 0.24919 0 0 0 0.01897 0.01057 0.24919 0.24919 0 0 0 0.02739 0.0084 0.24919 0.24919 0 0 0 0.01686 0.0042 0.24919 0.24919 0 0 0 0.0064 0.0022 0.24919 0.24919 0 0 0 0.01686 0.0022 0.24919 0.24919 0 0 0 0.02529 0 0.24919 0.24919 0 0 0 0.02529 0 0.24919 0.24919 0 0 0 0.02318-0.0042 0.24919 0.24919 0 0 0 0.02529-0.0064 0.24919 0.24919 0 0 0 0.01475-0.0042 0.24919 0.24919 0 0 0 0.0042-0.0022 0.24919 0.24919 0 0 0 0.0295-0.01475 0.24919 0.24919 0 0 0 0.03371-0.02318 0.24919 0.24919 0 0 0 0.01686-0.01475 0.24919 0.24919 0 0 0 0.01686-0.01686 0.24919 0.24919 0 0 0 0.0064-0.0064 0.24919 0.24919 0 0 0 0.0084-0.01475 0.24919 0.24919 0 0 0 0.0042-0.0064 0.24919 0.24919 0 0 0 0.0084-0.01475 0.24919 0.24919 0 0 0 0.0042-0.0064 0.24919 0.24919 0 0 0 0.0084-0.01475 0.24919 0.24919 0 0 0 0.0042-0.01686 0.24919 0.24919 0 0 0 0.0042-0.0084 0.24919 0.24919 0 0 0 0-0.0084 0.24919 0.24919 0 0 0 0.0064-0.01686 0.24919 0.24919 0 0 0 0.0022-0.0064 0.24919 0.24919 0 0 0 0-0.01686 0.24919 0.24919 0 0 0 0.0022-0.02529 0.24919 0.24919 0 0 0 0-0.0064 0.24919 0.24919 0 0 0-0.0022-0.01686 0.24919 0.24919 0 0 0 0-0.0064 0.24919 0.24919 0 0 0-0.0022-0.01897 0.24919 0.24919 0 0 0-0.0022-0.0064 0.24919 0.24919 0 0 0-0.0042-0.01686 0.24919 0.24919 0 0 0-0.0022-0.0064 0.24919 0.24919 0 0 0-0.0064-0.01897 0.24919 0.24919 0 0 0-0.0022-0.0064 0.24919 0.24919 0 0 0-0.0084-0.01686 0.24919 0.24919 0 0 0-0.0022-0.0042 0.24919 0.24919 0 0 0-0.01475-0.02107 0.24919 0.24919 0 0 0-0.0064-0.01057 0.24919 0.24919 0 0 0-0.0084-0.0084 0.24919 0.24919 0 0 0-0.01264-0.01475 0.24919 0.24919 0 0 0-0.0064-0.0042 0.24919 0.24919 0 0 0-0.16858-0.06533zm2.4823 0.0022a0.24919 0.24919 0 0 0-0.15804 0.06321 0.24919 0.24919 0 0 0-0.0064 0.0084 0.24919 0.24919 0 0 1-0.0022 0 0.24919 0.24919 0 0 0-0.02107 0.02317 0.24919 0.24919 0 0 0-0.02529 0.04004 0.24919 0.24919 0 0 0-0.02317 0.06533 0.24919 0.24919 0 0 0-0.0042 0.04846 0.24919 0.24919 0 0 0 0.0022 0.02529 0.24919 0.24919 0 0 0 0.0022 0.02529 0.24919 0.24919 0 0 0 0.0064 0.01686 0.24919 0.24919 0 0 0 0 0.0064 0.24919 0.24919 0 0 0 0.0084 0.01897 0.24919 0.24919 0 0 0 0.0064 0.01475 0.24919 0.24919 0 0 0 0.01686 0.03161 0.24919 0.24919 0 0 1 0.0022 0.0022 0.24919 0.24919 0 0 0 0.01057 0.01475 0.24919 0.24919 0 0 0 0.0042 0.0064 0.24919 0.24919 0 0 0 0.01686 0.01686 0.24919 0.24919 0 0 0 0.01264 0.01264 0.24919 0.24919 0 0 0 0.0064 0.0042 0.24919 0.24919 0 0 0 0.0064 0.0042 0.24919 0.24919 0 0 0 0.01475 0.01057 0.24919 0.24919 0 0 0 0.02107 0.01057 0.24919 0.24919 0 0 0 0.01686 0.0084 0.24919 0.24919 0 0 0 0.0064 0.0042 0.24919 0.24919 0 0 0 0.02319 0.0064 0.24919 0.24919 0 0 0 0.0064 0.0022 0.24919 0.24919 0 0 0 0.01264 0.0022 0.24919 0.24919 0 0 0 0.02318 0.0042 0.24919 0.24919 0 0 0 0.02529 0 0.24919 0.24919 0 0 0 0.02318 0 0.24919 0.24919 0 0 0 0.02529-0.0042 0.24919 0.24919 0 0 0 0.02529-0.0064 0.24919 0.24919 0 0 0 0.0064-0.0022 0.24919 0.24919 0 0 0 0.02107-0.0084 0.24919 0.24919 0 0 1 0.0022 0 0.24919 0.24919 0 0 0 0.01475-0.0084 0.24919 0.24919 0 0 0 0.0064-0.0042 0.24919 0.24919 0 0 0 0.01475-0.0084 0.24919 0.24919 0 0 0 0.0064-0.0064 0.24919 0.24919 0 0 0 0.03371-0.02739 0.24919 0.24919 0 0 0 0.0042-0.0042 0.24919 0.24919 0 0 0 0.06533-0.16858 0.24919 0.24919 0 0 0-0.24865-0.24865 0.24919 0.24919 0 0 0-0.01057 0z" color="#000000" color-rendering="auto" dominant-baseline="auto" fill="#fff" image-rendering="auto" shape-rendering="auto" solid-color="#000000" style="font-feature-settings:normal;font-variant-alternates:normal;font-variant-caps:normal;font-variant-ligatures:normal;font-variant-numeric:normal;font-variant-position:normal;isolation:auto;mix-blend-mode:normal;shape-padding:0;text-decoration-color:#000000;text-decoration-line:none;text-decoration-style:solid;text-indent:0;text-orientation:mixed;text-transform:none;white-space:normal"/>
        <flowRoot fill="#000000" font-family="Roboto" font-size="12.8px" letter-spacing="0px" stroke-width="1.0667px" word-spacing="0px" style="line-height:0.01%" xml:space="preserve"><flowRegion><rect x="11.375" y="11.984" width="4.7893" height="5.388" stroke-width="1.1378px"/></flowRegion><flowPara font-size="4px" style="line-height:1.25">your</flowPara></flowRoot>
    </g>
    <g display="none" fill="none">
        <rect transform="rotate(90)" x="7.8232" y="-20.923" width="13.1" height="13.1" display="inline" stroke="#000" stroke-width=".070382"/>
        <rect x="7.2241" y="8.6528" width="14.298" height="11.441" stroke="#5261ff" stroke-linecap="round" stroke-linejoin="round" stroke-width=".069589"/>
        <rect transform="rotate(90)" x="7.2241" y="-20.094" width="14.298" height="11.441" display="inline" stroke="#0f0" stroke-linecap="round" stroke-linejoin="round" stroke-width=".069589"/>
    </g>
</svg>
