<?xml version="1.0" encoding="UTF-8"?>
<svg version="1.1" viewBox="0 0 26.95 26.95" xmlns="http://www.w3.org/2000/svg">
    <defs>
        <filter id="filter6206-7" color-interpolation-filters="sRGB">
            <feGaussianBlur stdDeviation="0.658125"/>
        </filter>
    </defs>
    <g transform="translate(0 -1025.4)">
        <path transform="matrix(1.0107 0 0 .99762 -.087875 2.579)" d="m4.4177 1028.2v1.6051h-1.6052v18.192h1.6052v2.1402h18.192v-2.1402h2.1402v-18.192h-2.1402v-1.6051h-18.192z" fill="#232323" filter="url(#filter6206-7)" opacity=".2"/>
        <rect x="2.8113" y="1028.2" width="21.327" height="21.327" rx="1.1225" ry="1.1226" fill="#232323"/>
        <g transform="translate(-20.925 990.46)">
            <path d="m0 0h48v48h-48z" fill="none"/>
            <g transform="matrix(.33601 0 0 .33601 1.434 68.477)">
                <path d="m0 0h48v48h-48z" fill="none"/>
            </g>
            <g transform="matrix(.37187 0 0 .37187 36.377 59.287)">
                <path d="m0 0h48v48h-48z" fill="none"/>
                <g transform="matrix(2.6891 0 0 2.6891 -77.724 -45.422)">
                    <path d="m0 0h48v48h-48z" fill="none"/>
                </g>
            </g>
        </g>
        <path transform="translate(0 1025.4)" d="m3.9336 2.8105c-0.62186 0-1.123 0.50115-1.123 1.123v0.3125c0-0.6219 0.50118-1.123 1.123-1.123h19.082c0.62186 0 1.123 0.50115 1.123 1.123v-0.3125c0-0.6219-0.50118-1.123-1.123-1.123h-19.082z" fill="#fff" opacity=".2"/>
        <rect x="120" y="512.36" width="40" height="40" fill="none"/>
        <rect x="120" y="592.36" width="40" height="40" fill="none"/>
        <rect x="120" y="632.36" width="40" height="40" fill="none"/>
        <rect x="120" y="552.36" width="40" height="40" fill="none"/>
        <rect x="120" y="672.36" width="40" height="40" fill="none"/>
        <rect x="200" y="512.36" width="40" height="40" fill="none"/>
        <rect x="200" y="592.36" width="40" height="40" fill="none"/>
        <rect x="200" y="632.36" width="40" height="40" fill="none"/>
        <rect x="200" y="552.36" width="40" height="40" fill="none"/>
        <rect x="200" y="672.36" width="40" height="40" fill="none"/>
        <rect x="280" y="512.36" width="40" height="40" fill="none"/>
        <rect x="280" y="592.36" width="40" height="40" fill="none"/>
        <rect x="280" y="632.36" width="40" height="40" fill="none"/>
        <rect x="280" y="552.36" width="40" height="40" fill="none"/>
        <rect x="280" y="672.36" width="40" height="40" fill="none"/>
        <rect x="160" y="512.36" width="40" height="40" fill="none"/>
        <rect x="160" y="592.36" width="40" height="40" fill="none"/>
        <rect x="160" y="632.36" width="40" height="40" fill="none"/>
        <rect x="160" y="552.36" width="40" height="40" fill="none"/>
        <rect x="160" y="672.36" width="40" height="40" fill="none"/>
        <rect x="240" y="512.36" width="40" height="40" fill="none"/>
        <rect x="240" y="592.36" width="40" height="40" fill="none"/>
        <rect x="240" y="632.36" width="40" height="40" fill="none"/>
        <rect x="240" y="552.36" width="40" height="40" fill="none"/>
        <rect x="240" y="672.36" width="40" height="40" fill="none"/>
        <rect x="120" y="712.36" width="40" height="40" fill="none"/>
        <rect x="200" y="712.36" width="40" height="40" fill="none"/>
        <rect x="280" y="712.36" width="40" height="40" fill="none"/>
        <rect x="160" y="712.36" width="40" height="40" fill="none"/>
        <rect x="240" y="712.36" width="40" height="40" fill="none"/>
        <rect x="320" y="552.36" width="40" height="40" fill="none"/>
        <rect x="320" y="592.36" width="40" height="40" fill="none"/>
        <rect x="320" y="672.36" width="40" height="40" fill="none"/>
        <rect x="320" y="512.36" width="40" height="40" fill="none"/>
        <rect x="320" y="632.36" width="40" height="40" fill="none"/>
        <rect x="320" y="712.36" width="40" height="40" fill="none"/>
        <rect x="150" y="542.36" width="180" height="180" fill="none"/>
        <g transform="matrix(.37344 0 0 .37344 4.4375 1028.8)">
            <path d="m0 0h48v48h-48z" fill="none"/>
        </g>
        <g transform="matrix(.36471 0 0 .36471 4.8146 1028.8)">
            <path d="m0 0h48v48h-48z" fill="none"/>
        </g>
        <g transform="matrix(.41585 0 0 .41585 79.055 989.88)">
            <g transform="matrix(.062269 0 0 .062269 -26.473 173.71)">
                <g transform="matrix(38.618 0 0 38.618 13804 -12696)">
                    <g transform="matrix(.71436 0 0 .71436 -375.49 176.57)">
                        <path transform="matrix(1.3999 0 0 1.3999 525.63 -247.17)" d="m490.56 95.75c-121.72 0.18504-342.34 0.090577-468.16 0.09375-1.5548 6.9739-2.4062 14.232-2.4062 21.688v76.344c139.06 0.49354 331.32 0.2554 472.97 0.25v-76.594c0-7.4875-0.8386-14.78-2.4062-21.781zm-307.19 197.94c-52.495-3e-3 -106.38 0.11982-163.38 0.375v92.844c191.76-0.26331 282.43-0.0926 472.97-0.21875v-92.25c-109.29-0.35498-208.43-0.74426-309.59-0.75z" opacity="0"/>
                    </g>
                </g>
            </g>
        </g>
        <path d="m23.015 1049.6c0.6218 0 1.123-0.5012 1.123-1.123v-0.3125c0 0.6218-0.5012 1.123-1.123 1.123h-19.082c-0.6218 0-1.123-0.5012-1.123-1.123v0.3125c0 0.6218 0.5012 1.123 1.123 1.123h19.082z" fill="#232323" opacity=".2"/>
    </g>
    <path d="m9.5645 6.7891c-0.28301 0-0.46277 0.19154-0.62305 0.39453-0.16027 0.20299-0.30197 0.45312-0.42578 0.70117-0.24763 0.49609-0.41992 0.98633-0.41992 0.98633a0.25092 0.25092 0 1 0 0.47266 0.16602s0.16622-0.46643 0.39648-0.92773c0.11513-0.23065 0.2479-0.4592 0.37109-0.61523 0.10674-0.13519 0.19017-0.17955 0.21094-0.19141 0.015111 0.0093246 0.043568 0.025478 0.078125 0.0625 0.07291 0.078105 0.16876 0.20811 0.27148 0.36914 0.20545 0.32207 0.44424 0.76698 0.68359 1.2148 0.23936 0.44786 0.48003 0.89832 0.70312 1.248 0.11155 0.17486 0.21617 0.32357 0.32617 0.44141 0.11001 0.11784 0.22351 0.23438 0.42773 0.23438 0.20422 0 0.31538-0.1134 0.42774-0.23047s0.22193-0.26679 0.33789-0.44141c0.23192-0.34924 0.48331-0.80018 0.73438-1.248 0.25107-0.44786 0.50065-0.89229 0.71484-1.2148 0.1071-0.16128 0.20752-0.29223 0.2832-0.37109 0.030167-0.031437 0.050886-0.043833 0.06836-0.054688 0.017999 0.010926 0.037931 0.023799 0.068359 0.054688 0.07746 0.078583 0.17908 0.20917 0.28906 0.36914 0.21996 0.31994 0.47744 0.76113 0.73633 1.2051 0.25889 0.44395 0.51994 0.89034 0.75781 1.2363 0.11894 0.17299 0.22976 0.32186 0.34375 0.4375s0.22663 0.22656 0.42969 0.22656c0.2621 0 0.45067-0.15516 0.62695-0.32812 0.17628-0.17297 0.3399-0.38697 0.48438-0.59961 0.28895-0.42528 0.50195-0.8457 0.50195-0.8457a0.25113 0.25113 0 0 0-0.44727-0.22852s-0.2036 0.39789-0.4707 0.79102c-0.13355 0.19656-0.28343 0.39146-0.41992 0.52539-0.13649 0.13393-0.25948 0.18359-0.27539 0.18359 0.06405 0 0.005204 4.63e-4 -0.072266-0.078125-0.07746-0.07858-0.17908-0.20722-0.28906-0.36719-0.21996-0.31993-0.47744-0.76113-0.73633-1.2051-0.25889-0.44395-0.51799-0.89229-0.75586-1.2383-0.11894-0.17299-0.23171-0.3199-0.3457-0.43555s-0.22468-0.22656-0.42774-0.22656c-0.20423 0-0.31734 0.1134-0.42969 0.23047-0.11234 0.11707-0.22194 0.26679-0.33789 0.44141-0.2319 0.34924-0.48331 0.80019-0.73438 1.248-0.25107 0.44786-0.50064 0.89229-0.71484 1.2148-0.1071 0.16128-0.20751 0.29223-0.2832 0.37109-0.028278 0.029467-0.047322 0.039692-0.064453 0.050781-0.016514-0.010811-0.033676-0.020041-0.060547-0.048828-0.072919-0.0781-0.16876-0.20811-0.27148-0.36914-0.20545-0.32207-0.44424-0.76698-0.68359-1.2148-0.23935-0.44786-0.47809-0.89832-0.70117-1.248-0.11154-0.17486-0.21813-0.32552-0.32812-0.44336-0.11-0.11783-0.2235-0.23242-0.42773-0.23242zm-1.4844 4.5488v1.9648a0.25065 0.25065 0 1 0 0.5 0v-1.4648h1.7852v3.4316h3.3613v-3.4316h1.7852v3.4316h3.3594v-1.9668a0.25098 0.25098 0 0 0-0.50195 0v1.4648h-2.3574v-3.4297h-2.7871v3.4297h-2.3574v-3.4297h-2.7871zm2.5859 4.4355-2.5098 2.4082a0.24519 0.24519 0 0 0 0.33984 0.35352l1.6816-1.6133v3.2383l5.0078-3.3535v3.3516l3.5371-1.5762a0.24481 0.24481 0 1 0-0.19922-0.44726l-2.8477 1.2695v-3.5156l-5.0098 3.3555v-3.4707z" color="#000000" color-rendering="auto" dominant-baseline="auto" fill="#fff" image-rendering="auto" shape-rendering="auto" solid-color="#000000" style="font-feature-settings:normal;font-variant-alternates:normal;font-variant-caps:normal;font-variant-ligatures:normal;font-variant-numeric:normal;font-variant-position:normal;isolation:auto;mix-blend-mode:normal;shape-padding:0;text-decoration-color:#000000;text-decoration-line:none;text-decoration-style:solid;text-indent:0;text-orientation:mixed;text-transform:none;white-space:normal"/>
    <g display="none" fill="none">
        <rect transform="rotate(90)" x="7.3342" y="-19.616" width="12.282" height="12.282" display="inline" stroke="#000" stroke-width=".065984"/>
        <rect x="6.7726" y="8.112" width="13.405" height="10.726" stroke="#5261ff" stroke-linecap="round" stroke-linejoin="round" stroke-width=".06524"/>
        <rect transform="rotate(90)" x="6.7726" y="-18.838" width="13.405" height="10.726" display="inline" stroke="#0f0" stroke-linecap="round" stroke-linejoin="round" stroke-width=".06524"/>
    </g>
</svg>
