<?xml version="1.0" encoding="UTF-8"?>
<svg version="1.1" viewBox="0 0 26.95 26.95" xmlns="http://www.w3.org/2000/svg">
    <defs>
        <filter id="filter6206-7" color-interpolation-filters="sRGB">
            <feGaussianBlur stdDeviation="0.658125"/>
        </filter>
    </defs>
    <g transform="translate(0 -1025.4)">
        <path transform="matrix(1.0107 0 0 .99762 -.087875 2.579)" d="m4.4177 1028.2v1.6051h-1.6052v18.192h1.6052v2.1402h18.192v-2.1402h2.1402v-18.192h-2.1402v-1.6051h-18.192z" fill="#232323" filter="url(#filter6206-7)" opacity=".2"/>
        <rect x="2.8113" y="1028.2" width="21.327" height="21.327" rx="1.1225" ry="1.1226" fill="#232323"/>
        <g transform="translate(-20.925 990.46)">
            <path d="m0 0h48v48h-48z" fill="none"/>
            <g transform="matrix(.33601 0 0 .33601 1.434 68.477)">
                <path d="m0 0h48v48h-48z" fill="none"/>
            </g>
            <g transform="matrix(.37187 0 0 .37187 36.377 59.287)">
                <path d="m0 0h48v48h-48z" fill="none"/>
                <g transform="matrix(2.6891 0 0 2.6891 -77.724 -45.422)">
                    <path d="m0 0h48v48h-48z" fill="none"/>
                </g>
            </g>
        </g>
        <path transform="translate(0 1025.4)" d="m3.9336 2.8105c-0.62186 0-1.123 0.50115-1.123 1.123v0.3125c0-0.6219 0.50118-1.123 1.123-1.123h19.082c0.62186 0 1.123 0.50115 1.123 1.123v-0.3125c0-0.6219-0.50118-1.123-1.123-1.123h-19.082z" fill="#fff" opacity=".2"/>
        <rect x="120" y="512.36" width="40" height="40" fill="none"/>
        <rect x="120" y="592.36" width="40" height="40" fill="none"/>
        <rect x="120" y="632.36" width="40" height="40" fill="none"/>
        <rect x="120" y="552.36" width="40" height="40" fill="none"/>
        <rect x="120" y="672.36" width="40" height="40" fill="none"/>
        <rect x="200" y="512.36" width="40" height="40" fill="none"/>
        <rect x="200" y="592.36" width="40" height="40" fill="none"/>
        <rect x="200" y="632.36" width="40" height="40" fill="none"/>
        <rect x="200" y="552.36" width="40" height="40" fill="none"/>
        <rect x="200" y="672.36" width="40" height="40" fill="none"/>
        <rect x="280" y="512.36" width="40" height="40" fill="none"/>
        <rect x="280" y="592.36" width="40" height="40" fill="none"/>
        <rect x="280" y="632.36" width="40" height="40" fill="none"/>
        <rect x="280" y="552.36" width="40" height="40" fill="none"/>
        <rect x="280" y="672.36" width="40" height="40" fill="none"/>
        <rect x="160" y="512.36" width="40" height="40" fill="none"/>
        <rect x="160" y="592.36" width="40" height="40" fill="none"/>
        <rect x="160" y="632.36" width="40" height="40" fill="none"/>
        <rect x="160" y="552.36" width="40" height="40" fill="none"/>
        <rect x="160" y="672.36" width="40" height="40" fill="none"/>
        <rect x="240" y="512.36" width="40" height="40" fill="none"/>
        <rect x="240" y="592.36" width="40" height="40" fill="none"/>
        <rect x="240" y="632.36" width="40" height="40" fill="none"/>
        <rect x="240" y="552.36" width="40" height="40" fill="none"/>
        <rect x="240" y="672.36" width="40" height="40" fill="none"/>
        <rect x="120" y="712.36" width="40" height="40" fill="none"/>
        <rect x="200" y="712.36" width="40" height="40" fill="none"/>
        <rect x="280" y="712.36" width="40" height="40" fill="none"/>
        <rect x="160" y="712.36" width="40" height="40" fill="none"/>
        <rect x="240" y="712.36" width="40" height="40" fill="none"/>
        <rect x="320" y="552.36" width="40" height="40" fill="none"/>
        <rect x="320" y="592.36" width="40" height="40" fill="none"/>
        <rect x="320" y="672.36" width="40" height="40" fill="none"/>
        <rect x="320" y="512.36" width="40" height="40" fill="none"/>
        <rect x="320" y="632.36" width="40" height="40" fill="none"/>
        <rect x="320" y="712.36" width="40" height="40" fill="none"/>
        <rect x="150" y="542.36" width="180" height="180" fill="none"/>
        <g transform="matrix(.37344 0 0 .37344 4.4375 1028.8)">
            <path d="m0 0h48v48h-48z" fill="none"/>
        </g>
        <g transform="matrix(.36471 0 0 .36471 4.8146 1028.8)">
            <path d="m0 0h48v48h-48z" fill="none"/>
        </g>
        <g transform="matrix(.41585 0 0 .41585 79.055 989.88)">
            <g transform="matrix(.062269 0 0 .062269 -26.473 173.71)">
                <g transform="matrix(38.618 0 0 38.618 13804 -12696)">
                    <g transform="matrix(.71436 0 0 .71436 -375.49 176.57)">
                        <path transform="matrix(1.3999 0 0 1.3999 525.63 -247.17)" d="m490.56 95.75c-121.72 0.18504-342.34 0.090577-468.16 0.09375-1.5548 6.9739-2.4062 14.232-2.4062 21.688v76.344c139.06 0.49354 331.32 0.2554 472.97 0.25v-76.594c0-7.4875-0.8386-14.78-2.4062-21.781zm-307.19 197.94c-52.495-3e-3 -106.38 0.11982-163.38 0.375v92.844c191.76-0.26331 282.43-0.0926 472.97-0.21875v-92.25c-109.29-0.35498-208.43-0.74426-309.59-0.75z" opacity="0"/>
                    </g>
                </g>
            </g>
        </g>
        <path d="m23.015 1049.6c0.6218 0 1.123-0.5012 1.123-1.123v-0.3125c0 0.6218-0.5012 1.123-1.123 1.123h-19.082c-0.6218 0-1.123-0.5012-1.123-1.123v0.3125c0 0.6218 0.5012 1.123 1.123 1.123h19.082z" fill="#232323" opacity=".2"/>
    </g>
    <flowRoot fill="#000000" font-family="Roboto" font-size="3.75px" letter-spacing="0px" stroke-width="1px" word-spacing="0px" style="line-height:125%" xml:space="preserve"><flowRegion><rect x="10.664" y="11.235" width="4.49" height="5.0512"/></flowRegion><flowPara>your</flowPara></flowRoot>
    <g transform="matrix(.021492 0 0 .021492 23.912 12.704)" fill="#fff" fill-rule="evenodd">
        <path transform="translate(-203.92 139.97)" d="m-473.45 39.953c-25.443-0.63724-46.675-1.5735-47.182-2.0805-0.93292-0.93293 0.54893-8.942 4.5162-24.409 4.324-16.858 5.142-19.9 7.0356-26.163 1.0582-3.5002 3.2781-11.137 4.933-16.971 4.4404-15.653 14.478-47.758 18.349-58.69 0.82632-2.3335 3.3467-9.652 5.6008-16.263 2.2541-6.6114 6.0642-17.43 8.4669-24.042 2.4026-6.6114 5.5752-15.521 7.05-19.799 5.8711-17.03 9.6337-27.062 10.46-27.888 0.47724-0.47723 0.86771-1.7792 0.86771-2.8931 0-1.114 0.91168-4.0308 2.026-6.4818 1.1143-2.451 3.0016-7.3202 4.1941-10.82 1.1925-3.5002 4.0906-11.773 6.4404-18.385 4.2619-11.992 4.2723-12.097 4.2912-43.46l0.0189-31.439 3.182-0.58632c17.041-3.14 21.148-3.6955 26.602-3.5985 3.4534 0.0614 10.734 0.89218 16.178 1.8461l9.8995 1.7344 0.37296 45.386c0.33493 40.759 0.61215 45.478 2.719 46.286 1.2903 0.49514 12.21 1.8823 24.266 3.0826 35.811 3.5654 148.64 1.5225 162.72-2.9462 2.862-0.90836 2.9288-1.8498 3.2943-46.402l0.37303-45.474 13.219-2.0652c13.018-2.0338 19.079-1.6979 38.753 2.1473l3.8891 0.76011v31.897c0 29.737 1.0454 40.464 4.3828 44.968 1.0196 1.3763 4.3761 10.688 11.974 33.219 1.9673 5.8336 4.4245 12.516 5.4604 14.849 1.0359 2.3334 2.9682 7.4246 4.2941 11.314 1.3258 3.8891 4.9449 14.071 8.0423 22.627 3.0975 8.556 6.1718 17.466 6.8319 19.799 1.2674 4.4806 11.871 36.143 14.919 44.548 1.6157 4.4557 7.1467 22.388 10.905 35.355 0.789 2.7224 2.0316 6.5039 2.7614 8.4034 0.72975 1.8995 1.8639 6.0361 2.5204 9.1924 0.65646 3.1563 3.8025 15.862 6.9911 28.235s5.4527 22.841 5.0312 23.262c-0.42151 0.42149-22.861 1.2493-49.865 1.8396-132.66 4.1733-251.63 3.5205-376.79 0.10461z"/>
        <path transform="translate(-203.92 139.97)" d="m-517.7 117.17c-0.82912-0.82912-3.2028-22.67-4.2626-39.221l-0.94192-14.711 10.109 0.93954c5.56 0.51674 55.39 1.5894 110.73 2.3837 96.34 1.3827 301.02-0.03674 341.16-2.3659l15.556-0.90276-0.34193 8.3194c-0.28148 6.8489-3.5016 45.621-3.8096 45.87-163.5 2.8264-282.54 3.1027-468.2-0.3117z"/>
        <path transform="translate(-203.92 139.97)" d="m-590.18-194.1-15.91-1.4733v-15.227c0-14.87 0.88257-21.48 5.1777-38.777 2.3777-9.5754 13.151-32.821 18.68-40.305 5.2528-7.1108 23.072-25.456 24.726-25.456 0.76941 0 2.4036-0.87294 3.6316-1.9399 2.9851-2.5937 17.2-7.7238 27.689-9.9926 169.69 0.82353 321.23-3.5317 504.17 3.7361 19.39 7.1733 37.99 26.41 50.314 52.037 9.3386 19.418 16.111 53.219 13.898 69.364l-0.88166 6.4318-19.999 1.714c-26.913 2.3065-68.635 2.0927-97.074-0.49733-33.283-3.0312-33.847-3.1743-35.983-9.1306-0.97633-2.7224-3.2928-8.7681-5.1477-13.435-3.1895-8.0247-3.3954-10.416-3.7942-44.059-0.30647-25.857-0.89193-35.935-2.1434-36.897-3.1388-2.4128-26.084-6.0175-38.304-6.0175-11.497 0-28.235 2.8814-33.687 5.7992-2.3709 1.2688-2.5625 4.0645-2.5625 37.384v36.013h-172.4l-0.42159-36.116c-0.34805-29.817-0.78173-36.338-2.4868-37.39-7.5197-4.6412-43.218-7.5787-53.232-4.3802-2.2551 0.72033-7.1154 1.7128-10.801 2.2054-11.202 1.4975-10.977 0.70151-10.977 38.843v33.671l-4.4338 13.697c-3.0033 9.2779-5.4332 14.352-7.5313 15.727-1.7554 1.1502-10.098 2.692-19.254 3.5584-22.423 2.1218-92.041 2.6933-111.26 0.91331z"/>
    </g>
    <g display="none" fill="none">
        <rect transform="rotate(90)" x="7.3342" y="-19.616" width="12.282" height="12.282" display="inline" stroke="#000" stroke-width=".065984"/>
        <rect x="6.7726" y="8.112" width="13.405" height="10.726" stroke="#5261ff" stroke-linecap="round" stroke-linejoin="round" stroke-width=".06524"/>
        <rect transform="rotate(90)" x="6.7726" y="-18.838" width="13.405" height="10.726" display="inline" stroke="#0f0" stroke-linecap="round" stroke-linejoin="round" stroke-width=".06524"/>
    </g>
</svg>
