<?xml version="1.0" encoding="UTF-8"?>
<svg version="1.1" viewBox="0 0 28.747 28.747" xmlns="http://www.w3.org/2000/svg">
    <defs>
        <filter id="filter6206-7" color-interpolation-filters="sRGB">
            <feGaussianBlur stdDeviation="0.658125"/>
        </filter>
    </defs>
    <g transform="translate(0 -1093.8)">
        <path transform="matrix(1.0781 0 0 1.0641 -.093733 2.7509)" d="m4.4177 1028.2v1.6051h-1.6052v18.192h1.6052v2.1402h18.192v-2.1402h2.1402v-18.192h-2.1402v-1.6051z" fill="#232323" filter="url(#filter6206-7)" opacity=".2"/>
        <rect x="2.9987" y="1096.8" width="22.749" height="22.749" rx="1.1973" ry="1.1974" fill="#232323"/>
        <g transform="translate(-22.32 1056.5)">
            <path d="m0 0h51.2v51.2h-51.2z" fill="none" stroke-width="1.0667"/>
            <g transform="matrix(.33601 0 0 .33601 1.5296 73.043)">
                <path d="m0 0h51.2v51.2h-51.2z" fill="none" stroke-width="1.0667"/>
            </g>
            <g transform="matrix(.37187 0 0 .37187 38.802 63.239)">
                <path d="m0 0h51.2v51.2h-51.2z" fill="none" stroke-width="1.0667"/>
                <g transform="matrix(2.6891 0 0 2.6891 -82.906 -48.45)">
                    <path d="m0 0h51.2v51.2h-51.2z" fill="none" stroke-width="1.0667"/>
                </g>
            </g>
        </g>
        <path d="m4.1958 1096.8c-0.66332 0-1.1979 0.5346-1.1979 1.1979v0.3334c0-0.6634 0.53459-1.1979 1.1979-1.1979h20.354c0.66332 0 1.1979 0.5345 1.1979 1.1979v-0.3334c0-0.6633-0.5346-1.1979-1.1979-1.1979z" fill="#fff" opacity=".2"/>
        <rect x="128" y="546.52" width="42.667" height="42.667" fill="none" stroke-width="1.0667"/>
        <rect x="128" y="631.85" width="42.667" height="42.667" fill="none" stroke-width="1.0667"/>
        <rect x="128" y="674.52" width="42.667" height="42.667" fill="none" stroke-width="1.0667"/>
        <rect x="128" y="589.19" width="42.667" height="42.667" fill="none" stroke-width="1.0667"/>
        <rect x="128" y="717.19" width="42.667" height="42.667" fill="none" stroke-width="1.0667"/>
        <rect x="213.33" y="546.52" width="42.667" height="42.667" fill="none" stroke-width="1.0667"/>
        <rect x="213.33" y="631.85" width="42.667" height="42.667" fill="none" stroke-width="1.0667"/>
        <rect x="213.33" y="674.52" width="42.667" height="42.667" fill="none" stroke-width="1.0667"/>
        <rect x="213.33" y="589.19" width="42.667" height="42.667" fill="none" stroke-width="1.0667"/>
        <rect x="213.33" y="717.19" width="42.667" height="42.667" fill="none" stroke-width="1.0667"/>
        <rect x="298.67" y="546.52" width="42.667" height="42.667" fill="none" stroke-width="1.0667"/>
        <rect x="298.67" y="631.85" width="42.667" height="42.667" fill="none" stroke-width="1.0667"/>
        <rect x="298.67" y="674.52" width="42.667" height="42.667" fill="none" stroke-width="1.0667"/>
        <rect x="298.67" y="589.19" width="42.667" height="42.667" fill="none" stroke-width="1.0667"/>
        <rect x="298.67" y="717.19" width="42.667" height="42.667" fill="none" stroke-width="1.0667"/>
        <rect x="170.67" y="546.52" width="42.667" height="42.667" fill="none" stroke-width="1.0667"/>
        <rect x="170.67" y="631.85" width="42.667" height="42.667" fill="none" stroke-width="1.0667"/>
        <rect x="170.67" y="674.52" width="42.667" height="42.667" fill="none" stroke-width="1.0667"/>
        <rect x="170.67" y="589.19" width="42.667" height="42.667" fill="none" stroke-width="1.0667"/>
        <rect x="170.67" y="717.19" width="42.667" height="42.667" fill="none" stroke-width="1.0667"/>
        <rect x="256" y="546.52" width="42.667" height="42.667" fill="none" stroke-width="1.0667"/>
        <rect x="256" y="631.85" width="42.667" height="42.667" fill="none" stroke-width="1.0667"/>
        <rect x="256" y="674.52" width="42.667" height="42.667" fill="none" stroke-width="1.0667"/>
        <rect x="256" y="589.19" width="42.667" height="42.667" fill="none" stroke-width="1.0667"/>
        <rect x="256" y="717.19" width="42.667" height="42.667" fill="none" stroke-width="1.0667"/>
        <rect x="128" y="759.85" width="42.667" height="42.667" fill="none" stroke-width="1.0667"/>
        <rect x="213.33" y="759.85" width="42.667" height="42.667" fill="none" stroke-width="1.0667"/>
        <rect x="298.67" y="759.85" width="42.667" height="42.667" fill="none" stroke-width="1.0667"/>
        <rect x="170.67" y="759.85" width="42.667" height="42.667" fill="none" stroke-width="1.0667"/>
        <rect x="256" y="759.85" width="42.667" height="42.667" fill="none" stroke-width="1.0667"/>
        <rect x="341.33" y="589.19" width="42.667" height="42.667" fill="none" stroke-width="1.0667"/>
        <rect x="341.33" y="631.85" width="42.667" height="42.667" fill="none" stroke-width="1.0667"/>
        <rect x="341.33" y="717.19" width="42.667" height="42.667" fill="none" stroke-width="1.0667"/>
        <rect x="341.33" y="546.52" width="42.667" height="42.667" fill="none" stroke-width="1.0667"/>
        <rect x="341.33" y="674.52" width="42.667" height="42.667" fill="none" stroke-width="1.0667"/>
        <rect x="341.33" y="759.85" width="42.667" height="42.667" fill="none" stroke-width="1.0667"/>
        <rect x="160" y="578.52" width="192" height="192" fill="none" stroke-width="1.0667"/>
        <g transform="matrix(.37344 0 0 .37344 4.7333 1097.4)">
            <path d="m0 0h51.2v51.2h-51.2z" fill="none" stroke-width="1.0667"/>
        </g>
        <g transform="matrix(.36471 0 0 .36471 5.1356 1097.4)">
            <path d="m0 0h51.2v51.2h-51.2z" fill="none" stroke-width="1.0667"/>
        </g>
        <g transform="matrix(.41585 0 0 .41585 84.325 1055.9)">
            <g transform="matrix(.062269 0 0 .062269 -28.238 185.29)">
                <g transform="matrix(38.618 0 0 38.618 14724 -13542)">
                    <g transform="matrix(.71436 0 0 .71436 -400.52 188.34)">
                        <path d="m1293.2-120.67c-181.75 0.2763-511.18 0.13525-699.05 0.13998-2.3216 10.413-3.593 21.251-3.593 32.384v114c207.65 0.73695 494.72 0.38136 706.23 0.3733v-114.37c0-11.18-1.2522-22.07-3.593-32.523zm-458.69 295.56c-78.385-4e-3 -158.85 0.17892-243.95 0.55995v138.63c286.34-0.39317 421.73-0.13827 706.23-0.32664v-137.75c-163.2-0.53005-311.22-1.1113-462.28-1.1199z" opacity="0" stroke-width="1.4932"/>
                    </g>
                </g>
            </g>
        </g>
        <path d="m24.549 1119.5c0.66325 0 1.1979-0.5346 1.1979-1.1979v-0.3333c0 0.6632-0.53461 1.1978-1.1979 1.1978h-20.354c-0.66325 0-1.1979-0.5346-1.1979-1.1978v0.3333c0 0.6633 0.53461 1.1979 1.1979 1.1979z" fill="#232323" opacity=".2"/>
    </g>
    <flowRoot fill="#000000" font-family="Roboto" font-size="12.8px" letter-spacing="0px" stroke-width="1.0667px" word-spacing="0px" style="line-height:0.01%" xml:space="preserve"><flowRegion><rect x="11.375" y="11.984" width="4.7893" height="5.388" stroke-width="1.1378px"/></flowRegion><flowPara font-size="4px" style="line-height:1.25">your</flowPara></flowRoot>
    <path d="m14.716 7.8544c-0.05838-0.00164-0.11689-0.00151-0.17559 1.928e-4 -1.2076 0.035459-2.4692 0.77737-3.1095 2.119-0.23533 0.49309-0.3522 1.0896-0.35871 1.6998-0.54098-0.30465-1.2979-0.29449-1.9682 0.13061-2.0049 1.2715-1.5154 4.3734 0.86968 5.5117 0.50676 0.24186 1.0988 0.3557 1.7036 0.3525-0.30839 0.5414-0.29995 1.3016 0.12685 1.9746 1.2715 2.0049 4.3734 1.5154 5.5117-0.86968 0.23533-0.49309 0.35216-1.0896 0.35871-1.6998 0.54098 0.30466 1.2981 0.2943 1.9684-0.1308 0.87714-0.55626 1.2769-1.4629 1.2493-2.4022-0.03546-1.2076-0.77736-2.4692-2.119-3.1095-0.49297-0.23528-1.0892-0.35328-1.6993-0.35984 0.3039-0.5409 0.29339-1.2973-0.13137-1.9671-0.5215-0.82232-1.351-1.2251-2.2266-1.2495zm-0.05796 1.3807c0.18186 4e-3 0.37611 0.03541 0.58117 0.10295 0.33981 0.123 0.76253 0.5313 0.66624 0.95945-0.09119 0.34033-0.40727 0.08784-0.48932-0.1707-0.12378-0.38999-1.1695 0.27727-1.1695 0.69484 0 0.37561 0.47612 0.70837 0.99314 0.8693-0.02348 0.20125-0.0478 0.47975-0.07396 1.3349-0.0136 0.05648-0.01182 0.14648 0.0047 0.27459 0.06468 0.50107 0.08123 0.53822 0.24052 1.3408 0.59104 0.80516 0.86439 1.8934 0.80626 2.6552-0.05559 0.72842-0.19243 1.2139-0.86347 1.7621-0.37984 0.31016-1.0259 0.62039-1.8461 0.35024-0.33981-0.123-0.76272-0.53149-0.66642-0.95964 0.09119-0.34033 0.40746-0.08765 0.48951 0.17089 0.12378 0.38999 1.1693-0.27727 1.1693-0.69484 0-0.39876-0.53643-0.74981-1.0889-0.89754 0.04086-0.32044 0.07291-0.54729 0.14755-1.1876 0.19211 0.11209 0.38696 0.21057 0.58098 0.2904 0.63404 0.26086 0.963 0.10656 1.164-0.09448 0.31083-0.31083 0.29044-0.9019-0.45902-1.1781-0.64478-0.23766-1.1561-0.59323-1.5685-1.155-0.59104-0.80516-0.80474-1.4907-0.7466-2.2524 0.0556-0.72842 0.19224-1.2139 0.86328-1.7621 0.28488-0.23262 0.71952-0.46537 1.2651-0.45319zm2.5189 3.2896c0.04094 7.54e-4 0.08088 0.0024 0.11951 0.0049 0.72842 0.0556 1.2139 0.19224 1.7621 0.86328 0.31016 0.37984 0.62039 1.026 0.35024 1.8463-0.123 0.33981-0.5313 0.76253-0.95945 0.66624-0.34033-0.09119-0.08784-0.40727 0.1707-0.48932 0.38999-0.12378-0.27727-1.1695-0.69484-1.1695-0.29075 0-0.55623 0.28534-0.73606 0.654-0.03468-0.06657-0.07048-0.13214-0.10878-0.19516-0.38758-0.63765-1.0346-1.2622-1.7367-1.704 0.54045-0.33616 1.2834-0.48679 1.8333-0.47672zm-7.0384 0.30357c0.05238-3e-3 0.1057 9.83e-4 0.15922 0.01298 0.34033 0.09119 0.08765 0.40746-0.17089 0.48951-0.38999 0.12378 0.27727 1.1693 0.69484 1.1693 0.29075 0 0.55604-0.28534 0.73587-0.654 0.03472 0.06665 0.07062 0.13226 0.10897 0.19535 0.41152 0.67703 1.1152 1.3396 1.8672 1.7838-0.68175 0.32033-1.514 0.43547-2.0832 0.39203-0.72843-0.05559-1.2139-0.19243-1.7621-0.86347-0.31016-0.37984-0.6204-1.0259-0.35024-1.8461 0.10762-0.29733 0.43372-0.65832 0.80042-0.67941z" fill="#fff"/>
    <g display="none" fill="none">
        <rect transform="rotate(90)" x="7.8232" y="-20.923" width="13.1" height="13.1" display="inline" stroke="#000" stroke-width=".070382"/>
        <rect x="7.2241" y="8.6528" width="14.298" height="11.441" stroke="#5261ff" stroke-linecap="round" stroke-linejoin="round" stroke-width=".069589"/>
        <rect transform="rotate(90)" x="7.2241" y="-20.094" width="14.298" height="11.441" display="inline" stroke="#0f0" stroke-linecap="round" stroke-linejoin="round" stroke-width=".069589"/>
    </g>
</svg>
