<?xml version="1.0" encoding="UTF-8"?>
<svg version="1.1" viewBox="0 0 28.747 28.747" xmlns="http://www.w3.org/2000/svg" xmlns:osb="http://www.openswatchbook.org/uri/2009/osb" xmlns:xlink="http://www.w3.org/1999/xlink">
    <defs>
        <filter id="filter6206-7" color-interpolation-filters="sRGB">
            <feGaussianBlur stdDeviation="0.658125"/>
        </filter>
    </defs>
    <g transform="translate(0 -1093.8)">
        <path transform="matrix(1.0781 0 0 1.0641 -.093733 2.7509)" d="m4.4177 1028.2v1.6051h-1.6052v18.192h1.6052v2.1402h18.192v-2.1402h2.1402v-18.192h-2.1402v-1.6051z" fill="#424242" filter="url(#filter6206-7)" opacity=".2"/>
        <rect x="2.9987" y="1096.8" width="22.749" height="22.749" rx="1.1973" ry="1.1974" fill="#424242"/>
        <g transform="translate(-22.32 1056.5)">
            <path d="m0 0h51.2v51.2h-51.2z" fill="none" stroke-width="1.0667"/>
            <g transform="matrix(.33601 0 0 .33601 1.5296 73.043)">
                <path d="m0 0h51.2v51.2h-51.2z" fill="none" stroke-width="1.0667"/>
            </g>
            <g transform="matrix(.37187 0 0 .37187 38.802 63.239)">
                <path d="m0 0h51.2v51.2h-51.2z" fill="none" stroke-width="1.0667"/>
                <g transform="matrix(2.6891 0 0 2.6891 -82.906 -48.45)">
                    <path d="m0 0h51.2v51.2h-51.2z" fill="none" stroke-width="1.0667"/>
                </g>
            </g>
        </g>
        <path d="m4.1958 1096.8c-0.66332 0-1.1979 0.5346-1.1979 1.1979v0.3334c0-0.6634 0.53459-1.1979 1.1979-1.1979h20.354c0.66332 0 1.1979 0.5345 1.1979 1.1979v-0.3334c0-0.6633-0.5346-1.1979-1.1979-1.1979z" fill="#fff" opacity=".2"/>
        <rect x="128" y="546.52" width="42.667" height="42.667" fill="none" stroke-width="1.0667"/>
        <rect x="128" y="631.85" width="42.667" height="42.667" fill="none" stroke-width="1.0667"/>
        <rect x="128" y="674.52" width="42.667" height="42.667" fill="none" stroke-width="1.0667"/>
        <rect x="128" y="589.19" width="42.667" height="42.667" fill="none" stroke-width="1.0667"/>
        <rect x="128" y="717.19" width="42.667" height="42.667" fill="none" stroke-width="1.0667"/>
        <rect x="213.33" y="546.52" width="42.667" height="42.667" fill="none" stroke-width="1.0667"/>
        <rect x="213.33" y="631.85" width="42.667" height="42.667" fill="none" stroke-width="1.0667"/>
        <rect x="213.33" y="674.52" width="42.667" height="42.667" fill="none" stroke-width="1.0667"/>
        <rect x="213.33" y="589.19" width="42.667" height="42.667" fill="none" stroke-width="1.0667"/>
        <rect x="213.33" y="717.19" width="42.667" height="42.667" fill="none" stroke-width="1.0667"/>
        <rect x="298.67" y="546.52" width="42.667" height="42.667" fill="none" stroke-width="1.0667"/>
        <rect x="298.67" y="631.85" width="42.667" height="42.667" fill="none" stroke-width="1.0667"/>
        <rect x="298.67" y="674.52" width="42.667" height="42.667" fill="none" stroke-width="1.0667"/>
        <rect x="298.67" y="589.19" width="42.667" height="42.667" fill="none" stroke-width="1.0667"/>
        <rect x="298.67" y="717.19" width="42.667" height="42.667" fill="none" stroke-width="1.0667"/>
        <rect x="170.67" y="546.52" width="42.667" height="42.667" fill="none" stroke-width="1.0667"/>
        <rect x="170.67" y="631.85" width="42.667" height="42.667" fill="none" stroke-width="1.0667"/>
        <rect x="170.67" y="674.52" width="42.667" height="42.667" fill="none" stroke-width="1.0667"/>
        <rect x="170.67" y="589.19" width="42.667" height="42.667" fill="none" stroke-width="1.0667"/>
        <rect x="170.67" y="717.19" width="42.667" height="42.667" fill="none" stroke-width="1.0667"/>
        <rect x="256" y="546.52" width="42.667" height="42.667" fill="none" stroke-width="1.0667"/>
        <rect x="256" y="631.85" width="42.667" height="42.667" fill="none" stroke-width="1.0667"/>
        <rect x="256" y="674.52" width="42.667" height="42.667" fill="none" stroke-width="1.0667"/>
        <rect x="256" y="589.19" width="42.667" height="42.667" fill="none" stroke-width="1.0667"/>
        <rect x="256" y="717.19" width="42.667" height="42.667" fill="none" stroke-width="1.0667"/>
        <rect x="128" y="759.85" width="42.667" height="42.667" fill="none" stroke-width="1.0667"/>
        <rect x="213.33" y="759.85" width="42.667" height="42.667" fill="none" stroke-width="1.0667"/>
        <rect x="298.67" y="759.85" width="42.667" height="42.667" fill="none" stroke-width="1.0667"/>
        <rect x="170.67" y="759.85" width="42.667" height="42.667" fill="none" stroke-width="1.0667"/>
        <rect x="256" y="759.85" width="42.667" height="42.667" fill="none" stroke-width="1.0667"/>
        <rect x="341.33" y="589.19" width="42.667" height="42.667" fill="none" stroke-width="1.0667"/>
        <rect x="341.33" y="631.85" width="42.667" height="42.667" fill="none" stroke-width="1.0667"/>
        <rect x="341.33" y="717.19" width="42.667" height="42.667" fill="none" stroke-width="1.0667"/>
        <rect x="341.33" y="546.52" width="42.667" height="42.667" fill="none" stroke-width="1.0667"/>
        <rect x="341.33" y="674.52" width="42.667" height="42.667" fill="none" stroke-width="1.0667"/>
        <rect x="341.33" y="759.85" width="42.667" height="42.667" fill="none" stroke-width="1.0667"/>
        <rect x="160" y="578.52" width="192" height="192" fill="none" stroke-width="1.0667"/>
        <g transform="matrix(.37344 0 0 .37344 4.7333 1097.4)">
            <path d="m0 0h51.2v51.2h-51.2z" fill="none" stroke-width="1.0667"/>
        </g>
        <g transform="matrix(.36471 0 0 .36471 5.1356 1097.4)">
            <path d="m0 0h51.2v51.2h-51.2z" fill="none" stroke-width="1.0667"/>
        </g>
        <g transform="matrix(.41585 0 0 .41585 84.325 1055.9)">
            <g transform="matrix(.062269 0 0 .062269 -28.238 185.29)">
                <g transform="matrix(38.618 0 0 38.618 14724 -13542)">
                    <g transform="matrix(.71436 0 0 .71436 -400.52 188.34)">
                        <path d="m1293.2-120.67c-181.75 0.2763-511.18 0.13525-699.05 0.13998-2.3216 10.413-3.593 21.251-3.593 32.384v114c207.65 0.73695 494.72 0.38136 706.23 0.3733v-114.37c0-11.18-1.2522-22.07-3.593-32.523zm-458.69 295.56c-78.385-4e-3 -158.85 0.17892-243.95 0.55995v138.63c286.34-0.39317 421.73-0.13827 706.23-0.32664v-137.75c-163.2-0.53005-311.22-1.1113-462.28-1.1199z" opacity="0" stroke-width="1.4932"/>
                    </g>
                </g>
            </g>
        </g>
        <path d="m24.549 1119.5c0.66325 0 1.1979-0.5346 1.1979-1.1979v-0.3333c0 0.6632-0.53461 1.1978-1.1979 1.1978h-20.354c-0.66325 0-1.1979-0.5346-1.1979-1.1978v0.3333c0 0.6633 0.53461 1.1979 1.1979 1.1979z" fill="#424242" opacity=".2"/>
    </g>
    <g>
        <flowRoot fill="#ffffff" font-family="Roboto" font-size="12.8px" letter-spacing="0px" stroke-width="1.0667px" word-spacing="0px" style="line-height:0.01%" xml:space="preserve"><flowRegion><rect x="11.375" y="11.984" width="4.7893" height="5.388" fill="#fff" stroke-width="1.1378px"/></flowRegion><flowPara font-size="4px" style="line-height:1.25">your</flowPara></flowRoot>
        <path d="m8.1274 7.2465c-0.49391 0-0.89294 0.39612-0.89294 0.89003v10.698c0 1.4817 1.1942 2.6759 2.6759 2.6759 1.4817 0 2.673-1.1942 2.673-2.6759v-10.698c0-0.49391-0.39612-0.89003-0.89003-0.89003h-1.783zm5.695 0.54682c-0.34494-0.043634-0.69621 0.11832-0.8813 0.4392l-0.11053 0.19197v10.704l2.9639-5.1337 0.89003-1.5445 0.89003-1.5445c0.24679-0.42783 0.10207-0.969-0.32576-1.2158l-1.5445-0.89003-1.5445-0.89294c-0.10695-0.061698-0.22242-0.09889-0.3374-0.11344zm4.3513 3.2605c-0.11486 0.0143-0.23048 0.05166-0.3374 0.11343l-0.17452 0.1018-0.55263 0.95984-0.9802 1.6986-3.8132 6.6112 5.1104-2.9551 1.5445-0.89294 1.5416-0.89003c0.42764-0.24712 0.57288-0.78815 0.32576-1.2158l-0.89003-1.5445-0.89294-1.5445c-0.18534-0.32073-0.5367-0.48488-0.8813-0.44211zm2.2483 5.1046-0.99183 0.57299-1.6899 0.97438-6.5792 3.8044 5.8841-3e-3h3.5659c0.49391-1.9e-4 0.89022-0.39612 0.89003-0.89003v-1.783l-3e-3 -1.783c-1.88e-4 -0.49391-0.39612-0.89313-0.89003-0.89294zm-10.512 0.89294a1.7831 1.7831 0 0 1 1.719 1.306 1.7831 1.7831 0 0 1 0.03781 0.17452 1.7831 1.7831 0 0 1 0.02618 0.30249 1.7831 1.7831 0 0 1-0.13961 0.69516 1.7831 1.7831 0 0 1 0 3e-3 1.7831 1.7831 0 0 1-0.17161 0.30831 1.7831 1.7831 0 0 1-0.10761 0.14252 1.7831 1.7831 0 0 1-0.12216 0.13089 1.7831 1.7831 0 0 1-3e-3 3e-3 1.7831 1.7831 0 0 1-0.13089 0.11343 1.7831 1.7831 0 0 1-0.12798 0.09307 1.7831 1.7831 0 0 1-0.01745 0.01162 1.7831 1.7831 0 0 1-0.0088 3e-3 1.7831 1.7831 0 0 1-0.14544 0.08435 1.7831 1.7831 0 0 1-0.31122 0.12506 1.7831 1.7831 0 0 1-0.01459 3e-3 1.7831 1.7831 0 0 1-0.0058 3e-3 1.7831 1.7831 0 0 1-0.01161 3e-3 1.7831 1.7831 0 0 1-0.14252 0.03199 1.7831 1.7831 0 0 1-0.02036 3e-3 1.7831 1.7831 0 0 1-0.17742 0.02036 1.7831 1.7831 0 0 1-0.12508 0.0058 1.7831 1.7831 0 0 1-0.1687-0.0088 1.7831 1.7831 0 0 1-0.00879 0 1.7831 1.7831 0 0 1-0.011616-3e-3 1.7831 1.7831 0 0 1-0.15416-0.02036 1.7831 1.7831 0 0 1-0.040715-0.01162 1.7831 1.7831 0 0 1-0.090171-0.02326 1.7831 1.7831 0 0 1-0.10471-0.03199 1.7831 1.7831 0 0 1-0.023276-0.0058 1.7831 1.7831 0 0 1-0.061072-0.02328 1.7831 1.7831 0 0 1-0.063991-0.02908 1.7831 1.7831 0 0 1-0.049442-0.02036 1.7831 1.7831 0 0 1-0.020357-0.01162 1.7831 1.7831 0 0 1-0.058168-0.02908 1.7831 1.7831 0 0 1-0.020357-0.01162 1.7831 1.7831 0 0 1-0.011616-0.0058 1.7831 1.7831 0 0 1-0.055264-0.03491 1.7831 1.7831 0 0 1-0.07854-0.04944 1.7831 1.7831 0 0 1-0.046538-0.03781 1.7831 1.7831 0 0 1-0.10761-0.08725 1.7831 1.7831 0 0 1-0.11635-0.11053 1.7831 1.7831 0 0 1-0.00581-0.0058 1.7831 1.7831 0 0 1-0.00298-3e-3 1.7831 1.7831 0 0 1-0.00581-0.0058 1.7831 1.7831 0 0 1-0.00298-0.0058 1.7831 1.7831 0 0 1-0.00298-3e-3 1.7831 1.7831 0 0 1-0.1018-0.12216 1.7831 1.7831 0 0 1-0.00298-3e-3 1.7831 1.7831 0 0 1-0.023276-0.03199 1.7831 1.7831 0 0 1-0.07519-0.11075 1.7831 1.7831 0 0 1-0.014594-0.02618 1.7831 1.7831 0 0 1-0.069814-0.13089 1.7831 1.7831 0 0 1-0.014594-0.03199 1.7831 1.7831 0 0 1-0.043634-0.0989 1.7831 1.7831 0 0 1-0.00298-0.01162 1.7831 1.7831 0 0 1-0.00581-0.01162 1.7831 1.7831 0 0 1-0.00581-0.01459 1.7831 1.7831 0 0 1-0.017454-0.05526 1.7831 1.7831 0 0 1-0.069799-0.29086 1.7831 1.7831 0 0 1 0-0.0088 1.7831 1.7831 0 0 1 0-0.0058 1.7831 1.7831 0 0 1-0.014594-0.12216 1.7831 1.7831 0 0 1 0-0.01459 1.7831 1.7831 0 0 1 0.063991-0.59335 1.7831 1.7831 0 0 1 0.020357-0.0669 1.7831 1.7831 0 0 1 0.00581-0.02036 1.7831 1.7831 0 0 1 0.072718-0.18033 1.7831 1.7831 0 0 1 0.046538-0.09017 1.7831 1.7831 0 0 1 1.0558-0.86385 1.9513 1.9513 0 0 0-0.02618 3e-3 1.7831 1.7831 0 0 1 0.53518-0.08435zm0 0.44792a1.3373 1.3373 0 0 0-1.338 1.335 1.3373 1.3373 0 0 0 1.338 1.338 1.3373 1.3373 0 0 0 1.338-1.338 1.3373 1.3373 0 0 0-1.338-1.335z" fill="#fff"/>
    </g>
    <g display="none" fill="none">
        <rect transform="rotate(90)" x="7.8232" y="-20.923" width="13.1" height="13.1" display="inline" stroke="#000" stroke-width=".070382"/>
        <rect x="7.2241" y="8.6528" width="14.298" height="11.441" stroke="#5261ff" stroke-linecap="round" stroke-linejoin="round" stroke-width=".069589"/>
        <rect transform="rotate(90)" x="7.2241" y="-20.094" width="14.298" height="11.441" display="inline" stroke="#0f0" stroke-linecap="round" stroke-linejoin="round" stroke-width=".069589"/>
    </g>
</svg>
