<?xml version="1.0" encoding="UTF-8"?>
<svg version="1.1" viewBox="0 0 26.95 26.95" xmlns="http://www.w3.org/2000/svg">
    <defs>
        <filter id="filter6206-7" color-interpolation-filters="sRGB">
            <feGaussianBlur stdDeviation="0.658125"/>
        </filter>
    </defs>
    <g transform="translate(0 -1025.4)">
        <path transform="matrix(1.0107 0 0 .99762 -.087875 2.579)" d="m4.4177 1028.2v1.6051h-1.6052v18.192h1.6052v2.1402h18.192v-2.1402h2.1402v-18.192h-2.1402v-1.6051h-18.192z" fill="#3e2723" filter="url(#filter6206-7)" opacity=".2"/>
        <rect x="2.8113" y="1028.2" width="21.327" height="21.327" rx="1.1225" ry="1.1226" fill="#232323"/>
        <g transform="translate(-20.925 990.46)">
            <path d="m0 0h48v48h-48z" fill="none"/>
            <g transform="matrix(.33601 0 0 .33601 1.434 68.477)">
                <path d="m0 0h48v48h-48z" fill="none"/>
            </g>
            <g transform="matrix(.37187 0 0 .37187 36.377 59.287)">
                <path d="m0 0h48v48h-48z" fill="none"/>
                <g transform="matrix(2.6891 0 0 2.6891 -77.724 -45.422)">
                    <path d="m0 0h48v48h-48z" fill="none"/>
                </g>
            </g>
        </g>
        <path transform="translate(0 1025.4)" d="m3.9336 2.8105c-0.62186 0-1.123 0.50115-1.123 1.123v0.3125c0-0.6219 0.50118-1.123 1.123-1.123h19.082c0.62186 0 1.123 0.50115 1.123 1.123v-0.3125c0-0.6219-0.50118-1.123-1.123-1.123h-19.082z" fill="#fff" opacity=".2"/>
        <rect x="120" y="512.36" width="40" height="40" fill="none"/>
        <rect x="120" y="592.36" width="40" height="40" fill="none"/>
        <rect x="120" y="632.36" width="40" height="40" fill="none"/>
        <rect x="120" y="552.36" width="40" height="40" fill="none"/>
        <rect x="120" y="672.36" width="40" height="40" fill="none"/>
        <rect x="200" y="512.36" width="40" height="40" fill="none"/>
        <rect x="200" y="592.36" width="40" height="40" fill="none"/>
        <rect x="200" y="632.36" width="40" height="40" fill="none"/>
        <rect x="200" y="552.36" width="40" height="40" fill="none"/>
        <rect x="200" y="672.36" width="40" height="40" fill="none"/>
        <rect x="280" y="512.36" width="40" height="40" fill="none"/>
        <rect x="280" y="592.36" width="40" height="40" fill="none"/>
        <rect x="280" y="632.36" width="40" height="40" fill="none"/>
        <rect x="280" y="552.36" width="40" height="40" fill="none"/>
        <rect x="280" y="672.36" width="40" height="40" fill="none"/>
        <rect x="160" y="512.36" width="40" height="40" fill="none"/>
        <rect x="160" y="592.36" width="40" height="40" fill="none"/>
        <rect x="160" y="632.36" width="40" height="40" fill="none"/>
        <rect x="160" y="552.36" width="40" height="40" fill="none"/>
        <rect x="160" y="672.36" width="40" height="40" fill="none"/>
        <rect x="240" y="512.36" width="40" height="40" fill="none"/>
        <rect x="240" y="592.36" width="40" height="40" fill="none"/>
        <rect x="240" y="632.36" width="40" height="40" fill="none"/>
        <rect x="240" y="552.36" width="40" height="40" fill="none"/>
        <rect x="240" y="672.36" width="40" height="40" fill="none"/>
        <rect x="120" y="712.36" width="40" height="40" fill="none"/>
        <rect x="200" y="712.36" width="40" height="40" fill="none"/>
        <rect x="280" y="712.36" width="40" height="40" fill="none"/>
        <rect x="160" y="712.36" width="40" height="40" fill="none"/>
        <rect x="240" y="712.36" width="40" height="40" fill="none"/>
        <rect x="320" y="552.36" width="40" height="40" fill="none"/>
        <rect x="320" y="592.36" width="40" height="40" fill="none"/>
        <rect x="320" y="672.36" width="40" height="40" fill="none"/>
        <rect x="320" y="512.36" width="40" height="40" fill="none"/>
        <rect x="320" y="632.36" width="40" height="40" fill="none"/>
        <rect x="320" y="712.36" width="40" height="40" fill="none"/>
        <rect x="150" y="542.36" width="180" height="180" fill="none"/>
        <g transform="matrix(.37344 0 0 .37344 4.4375 1028.8)">
            <path d="m0 0h48v48h-48z" fill="none"/>
        </g>
        <g transform="matrix(.36471 0 0 .36471 4.8146 1028.8)">
            <path d="m0 0h48v48h-48z" fill="none"/>
        </g>
        <g transform="matrix(.41585 0 0 .41585 79.055 989.88)">
            <g transform="matrix(.062269 0 0 .062269 -26.473 173.71)">
                <g transform="matrix(38.618 0 0 38.618 13804 -12696)">
                    <g transform="matrix(.71436 0 0 .71436 -375.49 176.57)">
                        <path transform="matrix(1.3999 0 0 1.3999 525.63 -247.17)" d="m490.56 95.75c-121.72 0.18504-342.34 0.090577-468.16 0.09375-1.5548 6.9739-2.4062 14.232-2.4062 21.688v76.344c139.06 0.49354 331.32 0.2554 472.97 0.25v-76.594c0-7.4875-0.8386-14.78-2.4062-21.781zm-307.19 197.94c-52.495-3e-3 -106.38 0.11982-163.38 0.375v92.844c191.76-0.26331 282.43-0.0926 472.97-0.21875v-92.25c-109.29-0.35498-208.43-0.74426-309.59-0.75z" opacity="0"/>
                    </g>
                </g>
            </g>
        </g>
        <path d="m23.015 1049.6c0.6218 0 1.123-0.5012 1.123-1.123v-0.3125c0 0.6218-0.5012 1.123-1.123 1.123h-19.082c-0.6218 0-1.123-0.5012-1.123-1.123v0.3125c0 0.6218 0.5012 1.123 1.123 1.123h19.082z" fill="#3e2723" opacity=".2"/>
    </g>
    <path d="m18.921 19.474-0.37824-0.1386-0.87624-0.8746c-0.48193-0.4811-0.89073-0.8746-0.90844-0.8746s-0.0941 0.048-0.16975 0.1049c-0.1335 0.1018-0.13991 0.1029-0.2173 0.034-0.07933-0.072-0.07913-0.073 0.04068-0.1965 0.06622-0.069 0.12042-0.142 0.12042-0.1638 0-0.022-0.08073-0.1189-0.17939-0.2157l-0.17938-0.1761-0.1889 0.073c-0.60401 0.2348-1.1691 0.2626-1.8125 0.089-0.47336-0.1276-0.94664-0.3523-1.151-0.5466-0.14092-0.1341-0.15178-0.1605-0.15178-0.3696 0-0.2435-0.02553-0.2646-0.19907-0.1653-0.05474 0.03-0.13084 0.058-0.1691 0.059-0.27026 0-0.95185-1.0454-2.1682-3.343-0.6206-1.1724-2.7362-5.4111-2.7125-5.4347 0.0184-0.018 0.17022 0.072 1.5111 0.9008 3.5126 2.1706 5.7423 3.8187 6.0909 4.5019 0.07669 0.1504 0.07667 0.1525-0.0033 0.3091-0.12334 0.2417-0.11439 0.2533 0.17168 0.2227 0.24966-0.026 0.25404-0.025 0.45061 0.1299 0.41152 0.3252 0.8629 1.0014 1.0352 1.5506 0.08734 0.2783 0.10064 0.383 0.08644 0.68-0.01893 0.3961-0.12146 0.6593-0.36979 0.9494-0.07738 0.091-0.1407 0.1828-0.1407 0.2053 0 0.046 0.32737 0.3248 0.38083 0.3248 0.01882 0 0.11052-0.075 0.2038-0.1666 0.16714-0.164 0.17078-0.1653 0.2516-0.091l0.08202 0.074-0.19028 0.1933-0.19028 0.1931 0.45777 0.4473c0.25177 0.2459 0.78481 0.7649 1.1845 1.1532 0.39972 0.3882 0.71326 0.705 0.69676 0.7039-0.01651 0-0.20023-0.064-0.40826-0.1407h2e-6zm-3.2946-2.6661c0.12591-0.04 0.22893-0.086 0.22893-0.1029 0-0.016-0.76968-0.8773-1.7104-1.912s-1.7029-1.8888-1.6938-1.8979c9e-3 -0.011 0.83285 0.7873 1.8305 1.7699 0.99768 0.9828 1.8419 1.7928 1.8759 1.8002 0.14746 0.033 0.39819-0.3461 0.45305-0.6832 0.04338-0.2665-7.9e-5 -0.602-0.11873-0.9167-0.10982-0.2912-0.49241-0.865-0.73306-1.0994l-0.18232-0.1775-0.52635 0.086c-0.28949 0.048-0.53244 0.079-0.53988 0.072-0.0074-0.011 0.08487-0.2097 0.20516-0.4496l0.21871-0.436-0.07114-0.1156c-0.15077-0.2449-0.84389-0.8239-1.8544-1.5493-0.89111-0.6395-2.7837-1.8908-2.8598-1.8908-0.05798 0-0.06653 0.054-0.06653 0.4226v0.4228l-0.26875-0.027c-0.14781-0.015-0.30906-0.038-0.35833-0.049-0.05214-0.012-0.08958 0-0.08958 0.023 0 0.1107 1.4265 2.8579 2.0975 4.0393 0.64381 1.1337 0.94606 1.5785 1.0727 1.5785 0.03102 0 0.21844-0.081 0.41651-0.1808l0.36011-0.1809-0.03213 0.2903c-0.01767 0.1598-0.03226 0.3885-0.03245 0.5086l-3.19e-4 0.2183 0.20974 0.1256c0.22543 0.1351 0.74136 0.316 1.0643 0.3736 0.29228 0.052 0.84258 0.021 1.1049-0.062h1.9e-5zm-5.7518-7.3135-0.01134-0.4075-0.63703-0.4055c-0.55531-0.3537-0.77638-0.4653-0.77638-0.3923 0 0.011 0.17406 0.3684 0.3868 0.7946l0.3868 0.7748 0.18055 0.014c0.0993 0.011 0.24837 0.017 0.33125 0.022l0.1507 0.011-0.01134-0.4076z" fill="#fff" fill-rule="evenodd" stroke="#fff" stroke-width=".415"/>
    <g display="none" fill="none">
        <rect transform="rotate(90)" x="7.3342" y="-19.616" width="12.282" height="12.282" display="inline" stroke="#000" stroke-width=".065984"/>
        <rect x="6.7726" y="8.112" width="13.405" height="10.726" stroke="#5261ff" stroke-linecap="round" stroke-linejoin="round" stroke-width=".06524"/>
        <rect transform="rotate(90)" x="6.7726" y="-18.838" width="13.405" height="10.726" display="inline" stroke="#0f0" stroke-linecap="round" stroke-linejoin="round" stroke-width=".06524"/>
    </g>
</svg>
