<?xml version="1.0" encoding="UTF-8"?>
<svg fill="none" viewBox="0 0 40 40" xmlns="http://www.w3.org/2000/svg">
    <g filter="url(#filter0_f)" opacity=".2">
        <path d="m6.4966 4.3023v2.3767h-2.408v26.937h2.408v3.1689h27.29v-3.1689h3.2106v-26.937h-3.2106v-2.3767h-27.29z" fill="#232323"/>
    </g>
    <path d="m34.161 4.1727h-28.323c-0.92013 0-1.666 0.74594-1.666 1.6661v28.323c0 0.9202 0.74591 1.6661 1.666 1.6661h28.323c0.9201 0 1.6661-0.7459 1.6661-1.6661v-28.323c0-0.92018-0.746-1.6661-1.6661-1.6661z" fill="#232323"/>
    <path d="m5.8384 4.1715c-0.92299 0-1.6669 0.74384-1.6669 1.6668v0.46405c0-0.9231 0.74387-1.667 1.6669-1.667h28.322c0.923 0 1.6668 0.74387 1.6668 1.667v-0.46405c0-0.92296-0.7438-1.6668-1.6668-1.6668h-28.322z" fill="#fff" opacity=".2"/>
    <path d="m34.16 35.859c0.9229 0 1.6668-0.7438 1.6668-1.6668v-0.4639c0 0.9228-0.7439 1.6668-1.6668 1.6668h-28.322c-0.92289 0-1.6668-0.744-1.6668-1.6668v0.4639c0 0.923 0.7439 1.6668 1.6668 1.6668h28.322z" fill="#232323" opacity=".2"/>
    <path d="m25.513 14.487-0.7411-0.1152-0.1575 1.0138 1.0138-0.1575-0.1152-0.7411zm-4.282 4.282h-0.75v0.75h0.75v-0.75zm5.0231-4.1669c0.0228-0.1466 0.0346-0.2964 0.0346-0.4485h-1.5c0 0.0747-0.0058 0.1476-0.0168 0.2182l1.4822 0.2303zm-0.4077-0.8908c-0.1521 0-0.3019 0.0118-0.4485 0.0346l0.2303 1.4822c0.0707-0.011 0.1435-0.0168 0.2182-0.0168v-1.5zm2.9038 2.9039c0-1.6038-1.3001-2.9039-2.9038-2.9039v1.5c0.7753 0 1.4038 0.6286 1.4038 1.4039h1.5zm-2.9038 2.9038c1.6037 0 2.9038-1.3001 2.9038-2.9038h-1.5c0 0.7753-0.6285 1.4038-1.4038 1.4038v1.5zm0-1.5h-4.6154v1.5h4.6154v-1.5zm-3.8654 0.75v-4.6154h-1.5v4.6154h1.5zm1.4038-7.5192c-1.6037 0-2.9038 1.3001-2.9038 2.9038h1.5c0-0.7753 0.6285-1.4038 1.4038-1.4038v-1.5zm2.9039 2.9038c0-1.6037-1.3001-2.9038-2.9039-2.9038v1.5c0.7753 0 1.4039 0.6285 1.4039 1.4038h1.5z" fill="#fff"/>
    <path d="m14.487 14.487 0.7411-0.1152 0.1575 1.0138-1.0138-0.1575 0.1152-0.7411zm4.282 4.282h0.75v0.75h-0.75v-0.75zm-5.0231-4.1669c-0.0228-0.1466-0.0346-0.2964-0.0346-0.4485h1.5c0 0.0747 0.0058 0.1476 0.0168 0.2182l-1.4822 0.2303zm0.4077-0.8908c0.1521 0 0.3019 0.0118 0.4485 0.0346l-0.2303 1.4822c-0.0707-0.011-0.1435-0.0168-0.2182-0.0168v-1.5zm-2.9038 2.9039c0-1.6038 1.3001-2.9039 2.9038-2.9039v1.5c-0.7753 0-1.4038 0.6286-1.4038 1.4039h-1.5zm2.9038 2.9038c-1.6037 0-2.9038-1.3001-2.9038-2.9038h1.5c0 0.7753 0.6285 1.4038 1.4038 1.4038v1.5zm0-1.5h4.6154v1.5h-4.6154v-1.5zm3.8654 0.75v-4.6154h1.5v4.6154h-1.5zm-1.4038-7.5192c1.6037 0 2.9038 1.3001 2.9038 2.9038h-1.5c0-0.7753-0.6285-1.4038-1.4038-1.4038v-1.5zm-2.9039 2.9038c0-1.6037 1.3001-2.9038 2.9039-2.9038v1.5c-0.7753 0-1.4039 0.6285-1.4039 1.4038h-1.5z" fill="#fff"/>
    <path d="m25.513 25.513-0.7411 0.1152-0.1575-1.0138 1.0138 0.1575-0.1152 0.7411zm-4.282-4.282h-0.75v-0.75h0.75v0.75zm5.0231 4.1669c0.0228 0.1466 0.0346 0.2964 0.0346 0.4485h-1.5c0-0.0747-0.0058-0.1476-0.0168-0.2182l1.4822-0.2303zm-0.4077 0.8908c-0.1521 0-0.3019-0.0118-0.4485-0.0346l0.2303-1.4822c0.0707 0.011 0.1435 0.0168 0.2182 0.0168v1.5zm2.9038-2.9039c0 1.6038-1.3001 2.9039-2.9038 2.9039v-1.5c0.7753 0 1.4038-0.6286 1.4038-1.4039h1.5zm-2.9038-2.9038c1.6037 0 2.9038 1.3001 2.9038 2.9038h-1.5c0-0.7753-0.6285-1.4038-1.4038-1.4038v-1.5zm0 1.5h-4.6154v-1.5h4.6154v1.5zm-3.8654-0.75v4.6154h-1.5v-4.6154h1.5zm1.4038 7.5192c-1.6037 0-2.9038-1.3001-2.9038-2.9038h1.5c0 0.7753 0.6285 1.4038 1.4038 1.4038v1.5zm2.9039-2.9038c0 1.6037-1.3001 2.9038-2.9039 2.9038v-1.5c0.7753 0 1.4039-0.6285 1.4039-1.4038h1.5z" fill="#fff"/>
    <path d="m14.487 25.513 0.7411 0.1152 0.1575-1.0138-1.0138 0.1575 0.1152 0.7411zm4.282-4.282h0.75v-0.75h-0.75v0.75zm-5.0231 4.1669c-0.0228 0.1466-0.0346 0.2964-0.0346 0.4485h1.5c0-0.0747 0.0058-0.1476 0.0168-0.2182l-1.4822-0.2303zm0.4077 0.8908c0.1521 0 0.3019-0.0118 0.4485-0.0346l-0.2303-1.4822c-0.0707 0.011-0.1435 0.0168-0.2182 0.0168v1.5zm-2.9038-2.9039c0 1.6038 1.3001 2.9039 2.9038 2.9039v-1.5c-0.7753 0-1.4038-0.6286-1.4038-1.4039h-1.5zm2.9038-2.9038c-1.6037 0-2.9038 1.3001-2.9038 2.9038h1.5c0-0.7753 0.6285-1.4038 1.4038-1.4038v-1.5zm0 1.5h4.6154v-1.5h-4.6154v1.5zm3.8654-0.75v4.6154h1.5v-4.6154h-1.5zm-1.4038 7.5192c1.6037 0 2.9038-1.3001 2.9038-2.9038h-1.5c0 0.7753-0.6285 1.4038-1.4038 1.4038v1.5zm-2.9039-2.9038c0 1.6037 1.3001 2.9038 2.9039 2.9038v-1.5c-0.7753 0-1.4039-0.6285-1.4039-1.4038h-1.5z" fill="#fff"/>
    <path d="m25.538 14.462-4.3077 4.3077" stroke="#fff"/>
    <path d="m14.462 14.462 4.3077 4.3077" stroke="#fff"/>
    <path d="m25.538 25.538-4.3077-4.3077" stroke="#fff"/>
    <path d="m14.462 25.538 4.3077-4.3077" stroke="#fff"/>
    <defs>
        <filter id="filter0_f" x="3.3838" y="3.5974" width="34.319" height="33.893" color-interpolation-filters="sRGB" filterUnits="userSpaceOnUse">
            <feFlood flood-opacity="0" result="BackgroundImageFix"/>
            <feBlend in="SourceGraphic" in2="BackgroundImageFix" result="shape"/>
            <feGaussianBlur result="effect1_foregroundBlur" stdDeviation="0.352455"/>
        </filter>
    </defs>
</svg>
