<?xml version="1.0" encoding="UTF-8"?>
<svg fill="none" viewBox="0 0 40 40" xmlns="http://www.w3.org/2000/svg">
    <g filter="url(#filter0_f)" opacity=".2">
        <path d="m6.4966 4.3023v2.3767h-2.408v26.937h2.408v3.1689h27.29v-3.1689h3.2106v-26.937h-3.2106v-2.3767h-27.29z" fill="#232323"/>
    </g>
    <path d="m34.161 4.1727h-28.323c-0.92013 0-1.666 0.74594-1.666 1.6661v28.323c0 0.9202 0.74591 1.6661 1.666 1.6661h28.323c0.9201 0 1.6661-0.7459 1.6661-1.6661v-28.323c0-0.92018-0.746-1.6661-1.6661-1.6661z" fill="#607D8B"/>
    <path d="m5.8384 4.1715c-0.92299 0-1.6669 0.74384-1.6669 1.6668v0.46405c0-0.9231 0.74387-1.667 1.6669-1.667h28.322c0.923 0 1.6669 0.74387 1.6669 1.667v-0.46405c0-0.92296-0.7439-1.6668-1.6669-1.6668h-28.322z" fill="#fff" opacity=".2"/>
    <path d="m34.16 35.859c0.9229 0 1.6668-0.7438 1.6668-1.6668v-0.4639c0 0.9228-0.7439 1.6668-1.6668 1.6668h-28.322c-0.9229 0-1.6668-0.744-1.6668-1.6668v0.4639c0 0.923 0.7439 1.6668 1.6668 1.6668h28.322z" fill="#232323" opacity=".2"/>
    <path d="m27.434 11.416c-0.1704 0-0.3289 0.0223-0.4822 0.0772-0.0383 0.0137-0.0788 0.0218-0.1157 0.0386l-14.621 5.1308-0.135 0.0386c-0.6342 0.2061-1.0802 0.8327-1.0802 1.5817 0 0.633 0.3251 1.167 0.8101 1.4467v0.0192c0.0386 0.0219 0.0754 0.0395 0.1158 0.0578l5.5166 2.8741 3.2406 6.2303c0.0223 0.0567 0.0493 0.101 0.0771 0.1543 0.2643 0.5061 0.772 0.8487 1.3503 0.8487 0.6861 0 1.2654-0.4722 1.466-1.138l5.2852-15.065c0.0049-0.013 0.0144-0.0253 0.0192-0.0385 0.0687-0.1878 0.0965-0.384 0.0965-0.598 0-0.9161-0.6909-1.6588-1.5432-1.6588z" fill="#fff"/>
    <defs>
        <filter id="filter0_f" x="3.3838" y="3.5974" width="34.319" height="33.893" color-interpolation-filters="sRGB" filterUnits="userSpaceOnUse">
            <feFlood flood-opacity="0" result="BackgroundImageFix"/>
            <feBlend in="SourceGraphic" in2="BackgroundImageFix" result="shape"/>
            <feGaussianBlur result="effect1_foregroundBlur" stdDeviation="0.352455"/>
        </filter>
    </defs>
</svg>
