<?xml version="1.0" encoding="UTF-8"?>
<svg fill="none" viewBox="0 0 40 40" xmlns="http://www.w3.org/2000/svg">
    <g filter="url(#filter0_f)" opacity=".2">
        <path d="m6.4966 4.3023v2.3767h-2.408v26.937h2.408v3.1689h27.29v-3.1689h3.2106v-26.937h-3.2106v-2.3767h-27.29z" fill="#232323"/>
    </g>
    <path d="m34.161 4.1727h-28.323c-0.92013 0-1.666 0.74594-1.666 1.6661v28.323c0 0.9202 0.74591 1.6661 1.666 1.6661h28.323c0.9201 0 1.6661-0.7459 1.6661-1.6661v-28.323c0-0.92018-0.746-1.6661-1.6661-1.6661z" fill="#232323"/>
    <path d="m5.8384 4.1715c-0.92299 0-1.6669 0.74384-1.6669 1.6668v0.46405c0-0.9231 0.74387-1.667 1.6669-1.667h28.322c0.923 0 1.6669 0.74387 1.6669 1.667v-0.46405c0-0.92296-0.7439-1.6668-1.6669-1.6668h-28.322z" fill="#fff" opacity=".2"/>
    <path d="m34.16 35.859c0.9229 0 1.6668-0.7438 1.6668-1.6668v-0.4639c0 0.9228-0.7439 1.6668-1.6668 1.6668h-28.322c-0.9229 0-1.6668-0.744-1.6668-1.6668v0.4639c0 0.923 0.7439 1.6668 1.6668 1.6668h28.322z" fill="#232323" opacity=".2"/>
    <path d="m16.492 24.363-4.0061 1.0015 0.8562-3.4247c-0.8479-1.1169-1.3423-2.4594-1.3423-3.9034 0-3.8862 3.5802-7.0365 7.9965-7.0365 4.4164 0 7.9966 3.1503 7.9966 7.0365 0 3.8861-3.5802 7.0364-7.9966 7.0364-1.2569 0-2.4461-0.2552-3.5043-0.7098zm1.2358-6.9108h-0.0891c-0.2014 0-0.3646 0.1633-0.3646 0.3646v3.197c0 0.2013 0.1632 0.3646 0.3646 0.3646h4.7153c0.2013 0 0.3646-0.1633 0.3646-0.3646v-3.197c0-0.2013-0.1633-0.3646-0.3646-0.3646h-0.0892v-0.906c0-1.2498-1.0149-2.2651-2.2695-2.2651-1.2526 0-2.2675 1.0153-2.2675 2.2651v0.906zm3.6296 0h-2.7222v-0.9058c0-0.7499 0.609-1.3592 1.3605-1.3592 0.7528 0 1.3617 0.6093 1.3617 1.3592v0.9058z" clip-rule="evenodd" fill="#fff" fill-rule="evenodd"/>
    <path d="m21.356 28.232c0 0.7522-0.6087 1.3613-1.3612 1.3613-0.7512 0-1.3599-0.6091-1.3599-1.3613 0-0.7508 0.6087-1.3609 1.3599-1.3609 0.7525 0 1.3612 0.6101 1.3612 1.3609zm-4.9086 0c0 0.7522-0.6087 1.3613-1.3611 1.3613-0.7512 0-1.3599-0.6091-1.3599-1.3613 0-0.7508 0.6087-1.3609 1.3599-1.3609 0.7524 0 1.3611 0.6101 1.3611 1.3609zm9.8171 0c0 0.7522-0.6087 1.3613-1.3612 1.3613-0.7511 0-1.3598-0.6091-1.3598-1.3613 0-0.7508 0.6087-1.3609 1.3598-1.3609 0.7525 0 1.3612 0.6101 1.3612 1.3609z" clip-rule="evenodd" fill="#fff" fill-rule="evenodd"/>
    <defs>
        <filter id="filter0_f" x="3.3838" y="3.5974" width="34.319" height="33.893" color-interpolation-filters="sRGB" filterUnits="userSpaceOnUse">
            <feFlood flood-opacity="0" result="BackgroundImageFix"/>
            <feBlend in="SourceGraphic" in2="BackgroundImageFix" result="shape"/>
            <feGaussianBlur result="effect1_foregroundBlur" stdDeviation="0.352455"/>
        </filter>
    </defs>
</svg>
