<?xml version="1.0" encoding="UTF-8"?>
<svg version="1.1" viewBox="0 0 28.747 28.747" xmlns="http://www.w3.org/2000/svg">
    <defs>
        <filter id="filter6206-7" color-interpolation-filters="sRGB">
            <feGaussianBlur stdDeviation="0.658125"/>
        </filter>
    </defs>
    <g transform="translate(0 -1093.8)">
        <path transform="matrix(1.0781 0 0 1.0641 -.093733 2.7509)" d="m4.4177 1028.2v1.6051h-1.6052v18.192h1.6052v2.1402h18.192v-2.1402h2.1402v-18.192h-2.1402v-1.6051z" fill="#232323" filter="url(#filter6206-7)" opacity=".2"/>
        <rect x="2.9987" y="1096.8" width="22.749" height="22.749" rx="1.1973" ry="1.1974" fill="#232323"/>
        <g transform="translate(-22.32 1056.5)">
            <path d="m0 0h51.2v51.2h-51.2z" fill="none" stroke-width="1.0667"/>
            <g transform="matrix(.33601 0 0 .33601 1.5296 73.043)">
                <path d="m0 0h51.2v51.2h-51.2z" fill="none" stroke-width="1.0667"/>
            </g>
            <g transform="matrix(.37187 0 0 .37187 38.802 63.239)">
                <path d="m0 0h51.2v51.2h-51.2z" fill="none" stroke-width="1.0667"/>
                <g transform="matrix(2.6891 0 0 2.6891 -82.906 -48.45)">
                    <path d="m0 0h51.2v51.2h-51.2z" fill="none" stroke-width="1.0667"/>
                </g>
            </g>
        </g>
        <path d="m4.1958 1096.8c-0.66332 0-1.1979 0.5346-1.1979 1.1979v0.3334c0-0.6634 0.53459-1.1979 1.1979-1.1979h20.354c0.66332 0 1.1979 0.5345 1.1979 1.1979v-0.3334c0-0.6633-0.5346-1.1979-1.1979-1.1979z" fill="#fff" opacity=".2"/>
        <rect x="128" y="546.52" width="42.667" height="42.667" fill="none" stroke-width="1.0667"/>
        <rect x="128" y="631.85" width="42.667" height="42.667" fill="none" stroke-width="1.0667"/>
        <rect x="128" y="674.52" width="42.667" height="42.667" fill="none" stroke-width="1.0667"/>
        <rect x="128" y="589.19" width="42.667" height="42.667" fill="none" stroke-width="1.0667"/>
        <rect x="128" y="717.19" width="42.667" height="42.667" fill="none" stroke-width="1.0667"/>
        <rect x="213.33" y="546.52" width="42.667" height="42.667" fill="none" stroke-width="1.0667"/>
        <rect x="213.33" y="631.85" width="42.667" height="42.667" fill="none" stroke-width="1.0667"/>
        <rect x="213.33" y="674.52" width="42.667" height="42.667" fill="none" stroke-width="1.0667"/>
        <rect x="213.33" y="589.19" width="42.667" height="42.667" fill="none" stroke-width="1.0667"/>
        <rect x="213.33" y="717.19" width="42.667" height="42.667" fill="none" stroke-width="1.0667"/>
        <rect x="298.67" y="546.52" width="42.667" height="42.667" fill="none" stroke-width="1.0667"/>
        <rect x="298.67" y="631.85" width="42.667" height="42.667" fill="none" stroke-width="1.0667"/>
        <rect x="298.67" y="674.52" width="42.667" height="42.667" fill="none" stroke-width="1.0667"/>
        <rect x="298.67" y="589.19" width="42.667" height="42.667" fill="none" stroke-width="1.0667"/>
        <rect x="298.67" y="717.19" width="42.667" height="42.667" fill="none" stroke-width="1.0667"/>
        <rect x="170.67" y="546.52" width="42.667" height="42.667" fill="none" stroke-width="1.0667"/>
        <rect x="170.67" y="631.85" width="42.667" height="42.667" fill="none" stroke-width="1.0667"/>
        <rect x="170.67" y="674.52" width="42.667" height="42.667" fill="none" stroke-width="1.0667"/>
        <rect x="170.67" y="589.19" width="42.667" height="42.667" fill="none" stroke-width="1.0667"/>
        <rect x="170.67" y="717.19" width="42.667" height="42.667" fill="none" stroke-width="1.0667"/>
        <rect x="256" y="546.52" width="42.667" height="42.667" fill="none" stroke-width="1.0667"/>
        <rect x="256" y="631.85" width="42.667" height="42.667" fill="none" stroke-width="1.0667"/>
        <rect x="256" y="674.52" width="42.667" height="42.667" fill="none" stroke-width="1.0667"/>
        <rect x="256" y="589.19" width="42.667" height="42.667" fill="none" stroke-width="1.0667"/>
        <rect x="256" y="717.19" width="42.667" height="42.667" fill="none" stroke-width="1.0667"/>
        <rect x="128" y="759.85" width="42.667" height="42.667" fill="none" stroke-width="1.0667"/>
        <rect x="213.33" y="759.85" width="42.667" height="42.667" fill="none" stroke-width="1.0667"/>
        <rect x="298.67" y="759.85" width="42.667" height="42.667" fill="none" stroke-width="1.0667"/>
        <rect x="170.67" y="759.85" width="42.667" height="42.667" fill="none" stroke-width="1.0667"/>
        <rect x="256" y="759.85" width="42.667" height="42.667" fill="none" stroke-width="1.0667"/>
        <rect x="341.33" y="589.19" width="42.667" height="42.667" fill="none" stroke-width="1.0667"/>
        <rect x="341.33" y="631.85" width="42.667" height="42.667" fill="none" stroke-width="1.0667"/>
        <rect x="341.33" y="717.19" width="42.667" height="42.667" fill="none" stroke-width="1.0667"/>
        <rect x="341.33" y="546.52" width="42.667" height="42.667" fill="none" stroke-width="1.0667"/>
        <rect x="341.33" y="674.52" width="42.667" height="42.667" fill="none" stroke-width="1.0667"/>
        <rect x="341.33" y="759.85" width="42.667" height="42.667" fill="none" stroke-width="1.0667"/>
        <rect x="160" y="578.52" width="192" height="192" fill="none" stroke-width="1.0667"/>
        <g transform="matrix(.37344 0 0 .37344 4.7333 1097.4)">
            <path d="m0 0h51.2v51.2h-51.2z" fill="none" stroke-width="1.0667"/>
        </g>
        <g transform="matrix(.36471 0 0 .36471 5.1356 1097.4)">
            <path d="m0 0h51.2v51.2h-51.2z" fill="none" stroke-width="1.0667"/>
        </g>
        <g transform="matrix(.41585 0 0 .41585 84.325 1055.9)">
            <g transform="matrix(.062269 0 0 .062269 -28.238 185.29)">
                <g transform="matrix(38.618 0 0 38.618 14724 -13542)">
                    <g transform="matrix(.71436 0 0 .71436 -400.52 188.34)">
                        <path d="m1293.2-120.67c-181.75 0.2763-511.18 0.13525-699.05 0.13998-2.3216 10.413-3.593 21.251-3.593 32.384v114c207.65 0.73695 494.72 0.38136 706.23 0.3733v-114.37c0-11.18-1.2522-22.07-3.593-32.523zm-458.69 295.56c-78.385-4e-3 -158.85 0.17892-243.95 0.55995v138.63c286.34-0.39317 421.73-0.13827 706.23-0.32664v-137.75c-163.2-0.53005-311.22-1.1113-462.28-1.1199z" opacity="0" stroke-width="1.4932"/>
                    </g>
                </g>
            </g>
        </g>
        <path d="m24.549 1119.5c0.66325 0 1.1979-0.5346 1.1979-1.1979v-0.3333c0 0.6632-0.53461 1.1978-1.1979 1.1978h-20.354c-0.66325 0-1.1979-0.5346-1.1979-1.1978v0.3333c0 0.6633 0.53461 1.1979 1.1979 1.1979z" fill="#232323" opacity=".2"/>
    </g>
    <flowRoot fill="#000000" font-family="Roboto" font-size="12.8px" letter-spacing="0px" stroke-width="1.0667px" word-spacing="0px" style="line-height:0.01%" xml:space="preserve"><flowRegion><rect x="11.375" y="11.984" width="4.7893" height="5.388" stroke-width="1.1378px"/></flowRegion><flowPara font-size="4px" style="line-height:1.25">your</flowPara></flowRoot>
    <path d="m15.402 7.778c-0.22182-0.00379-0.44934 0.00223-0.68251 0.018365-3.6404 0.25182-5.9828 1.8814-6.6258 4.6096-0.19115 0.81096-0.19332 2.3364-0.0045 3.1375 0.63511 2.6937 2.6888 4.8379 5.1458 5.3727 0.21772 0.04739 0.80744 0.06713 1.3105 0.04368 2.3621-0.11014 4.3631-1.4544 5.4058-3.6315 0.57909-1.2092 0.76055-1.9557 0.82574-3.3967 0.04517-0.99817 0.02091-1.3209-0.14999-1.9967-0.29939-1.1842-0.66603-1.8663-1.4028-2.61-0.99506-1.0044-2.2694-1.5201-3.8221-1.5469zm-1.609 0.97554h3.95e-4c2.4204 0.034054 4.7653 1.435 5.7906 3.5094 0.31331 0.63394 0.37412 0.86597 0.41113 1.5711 0.0077 0.14588 0.0067 0.28961 0.0015 0.4322-0.0022 0.31443-0.04399 0.62925-0.12699 0.93997-1.98e-4 6.15e-4 -1.98e-4 0.0013-3.95e-4 0.0019-0.0038 0.01523-0.0075 0.03045-0.01141 0.04561-0.0025 0.0094-0.0051 0.01868-0.0078 0.02801-0.11439 0.43111-0.29254 0.84006-0.53445 1.2206-0.01909 0.03004-0.04521 0.07588-0.06764 0.11346-2.97e-4 4.83e-4 -7.03e-4 9.97e-4 -9.98e-4 0.0014-2.96e-4 4.84e-4 -6.15e-4 8.61e-4 -7.91e-4 0.0014-0.18276 0.35368-0.36413 0.70359-0.54102 1.0511-0.04713 0.09258-0.09463 0.1804-0.14226 0.26616-0.01218 0.02193-0.0245 0.04366-0.03673 0.06514-0.04786 0.08414-0.09573 0.16614-0.14439 0.24374-9.9e-5 1.99e-4 -2.97e-4 3.96e-4 -3.96e-4 6.15e-4 -6.16e-4 9.98e-4 -0.0011 2e-3 -0.0017 3e-3 -0.03555 0.05895-0.07232 0.11562-0.1096 0.17145-0.0015 0.0024-0.0031 5e-3 -0.0047 0.0073-0.0043 0.0065-0.0086 0.01311-0.01295 0.01952-7.02e-4 0.0011-0.0014 0.0022-0.0021 0.0033-0.04051 0.05955-0.08232 0.11685-0.12486 0.1728-2.98e-4 3.97e-4 -4.84e-4 7.91e-4 -7.91e-4 0.0011-0.0015 0.0021-0.0031 0.0043-0.0047 0.0063-7.91e-4 9.98e-4 -0.0015 0.0019-0.0023 3e-3 -0.09044 0.1181-0.1858 0.22786-0.28568 0.32995-0.0032 0.0034-0.0065 0.0066-0.0096 0.0098-0.01618 0.01687-0.03233 0.03374-0.04872 0.05006-0.26816 0.29206-0.55141 0.47558-0.91736 0.62897-0.02697 0.01176-0.05487 0.02237-0.08234 0.03344-0.01349 0.0054-0.0261 0.01096-0.03982 0.01623-0.01182 0.0046-0.02327 0.0096-0.03519 0.01412-0.0012 4.82e-4 -0.0026 8.59e-4 -0.0038 0.0014-4.83e-4 1.97e-4 -9.97e-4 3.96e-4 -0.0015 6.14e-4 -0.0024 8.6e-4 -5e-3 0.0016-0.0073 0.0025-0.04196 0.01546-0.08549 0.03026-0.13028 0.04446-0.0019 6.15e-4 -0.0036 0.0011-0.0055 0.0018-6.15e-4 1.98e-4 -0.0011 3.96e-4 -0.0018 6.16e-4 -0.03058 0.01026-0.06244 0.01873-0.09355 0.02821-4e-3 0.0011-0.0079 0.0025-0.01198 0.0037-3.98e-4 9.8e-5 -7.91e-4 8.8e-5 -0.0011 1.97e-4 -1e-4 0-2.98e-4 3.96e-4 -3.96e-4 3.96e-4 -0.11473 0.0345-0.23238 0.06492-0.3545 0.0893-0.0062 0.0013-0.01224 0.0031-0.01856 0.0043-3.98e-4 9.9e-5 -8.6e-4 9.4e-5 -0.0011 1.98e-4 -0.08073 0.0157-0.1632 0.02903-0.24722 0.0404-0.0035 4.84e-4 -0.0067 0.0012-0.01026 0.0018h-1.98e-4c-0.0879 0.01166-0.17754 0.02105-0.26906 0.02802-0.06804 0.0051-0.14148 0.0075-0.21629 0.0091-0.03735 8.6e-4 -0.07294 0.0019-0.11095 0.0019-0.0037 5e-6 -0.0074-7.5e-5 -0.01121 0-0.18599 0.0037-0.36357-0.0024-0.52072-0.02222-6.15e-4 -9.9e-5 -0.0013-9.5e-5 -2e-3 -1.98e-4 -0.0092-0.0011-0.01825-0.0023-0.02726-0.0035h-1.98e-4c-0.01465-2e-3 -0.02778-0.0051-0.04214-0.0073-0.03821-0.0054-0.07356-0.01095-0.10399-0.0174-0.06832-0.01446-0.14976-0.03536-0.23659-0.05876-9.9e-5 -3.1e-5 -2.86e-4 3.3e-5 -3.86e-4 0-9.98e-4 -2.95e-4 -0.0021-4.82e-4 -0.0031-7.9e-4 -0.0014-3.96e-4 -0.0034-9.98e-4 -0.0048-0.0014-5.71e-4 -1.97e-4 -0.0011-3.95e-4 -0.0018-6.14e-4 -0.04775-0.01294-0.09966-0.02806-0.15193-0.0433-0.11098-0.03207-0.22764-0.06729-0.35524-0.10854h-1.99e-4c-2.97e-4 -9.8e-5 -5.71e-4 -9.5e-5 -7.9e-4 -1.98e-4 -0.08342-0.02697-0.1726-0.05799-0.26056-0.08814-0.04528-0.01536-0.08883-0.02964-0.13492-0.04561-0.11621-0.0403-0.23278-0.08213-0.35121-0.12525-0.0017-7.03e-4 -0.0035-0.0012-0.0053-0.0019-0.0023-8.6e-4 -0.0047-0.0016-7e-3 -0.0025-5e-3 -0.0019-0.01015-0.0037-0.01528-0.0056-0.0073-0.0026-0.01454-0.0053-0.02184-0.0079-0.05539-0.02029-0.11055-0.03949-0.16565-0.06011-0.16264-0.06089-0.32314-0.12274-0.47608-0.18382-4.83e-4 -1.97e-4 -8.6e-4 -3.97e-4 -0.0014-6.15e-4 -0.15277-0.06104-0.2979-0.12102-0.43027-0.17821-5.7e-4 -2.98e-4 -9.45e-4 -4.83e-4 -0.0015-7.91e-4 -0.0042-0.0019-0.0073-0.0033-0.0114-5e-3 -0.07293-0.03161-0.13278-0.05995-0.19561-0.0891-0.03428-0.01577-0.07367-0.03295-0.10495-0.04794-0.06566-0.03146-0.12907-0.06223-0.17957-0.08949-0.03983-0.02147-0.07425-0.04134-0.10342-0.05972-3.95e-4 -1.97e-4 -5.71e-4 -6.14e-4 -9.47e-4 -7.9e-4 -1.98e-4 -9.9e-5 -3.85e-4 -2.97e-4 -5.71e-4 -3.96e-4 -3.96e-4 -1.97e-4 -7.9e-4 -1.97e-4 -9.44e-4 -3.95e-4 -0.0014-9.98e-4 -0.0034-0.0023-0.0048-0.0033-1.99e-4 -1e-4 -2.88e-4 -2.98e-4 -3.86e-4 -3.95e-4 -0.16973-0.10813-0.32934-0.22778-0.47878-0.35856-0.01222-0.01069-0.02406-0.02169-0.03615-0.03247-0.02713-0.02434-0.05398-0.04894-0.0804-0.07404-0.02184-0.02065-0.04341-0.04166-0.06476-0.06282-0.01661-0.0165-0.03297-0.03325-0.0493-0.05006-0.02238-0.02302-0.04487-0.04598-0.06669-0.06959-0.02138-0.02312-0.04215-0.04689-0.06301-0.07055-0.0255-0.02899-0.05069-0.05829-0.07539-0.08814-0.02726-0.03277-0.0541-0.066-0.0804-0.09974-0.0066-0.0084-0.01306-0.01684-0.01953-0.02532-0.28973-0.37778-0.51905-0.81642-0.6885-1.308-1.98e-4 -4.84e-4 -5.72e-4 -9.98e-4 -7.9e-4 -0.0015-0.0018-0.0048-0.0034-0.0098-5e-3 -0.0147-0.0015-0.0044-0.0032-0.0088-0.0046-0.01315-0.0149-0.04406-0.03053-0.08747-0.04446-0.1324-9.9e-5 -1.99e-4 -1.29e-4 -3.96e-4 -1.98e-4 -6.16e-4 -0.02092-0.06376-0.04059-0.12809-0.05914-0.1929-3e-3 -0.01026-0.0058-0.02062-0.0087-0.03093-0.01593-0.05693-0.03137-0.11399-0.04543-0.17164-0.0074-0.03018-0.01397-0.06069-0.02088-0.09104-0.0093-0.04139-0.01912-0.08257-0.02745-0.12429-0.0155-0.07686-0.02945-0.1541-0.04137-0.23195-0.0097-0.06324-0.01759-0.12866-0.02474-0.19522-0.04747-0.29849-0.08405-0.61279-0.10708-0.94809-0.1607-2.3398 0.8061-4.2812 2.5648-5.1504 0.60462-0.29882 0.86092-0.36627 1.5583-0.40978 0.16166-0.010042 0.32342-0.013873 0.48477-0.011602zm0.28317 1.8164c-0.99172 0-1.1919 0.02869-1.556 0.22325-1.0073 0.53823-1.5881 1.402-1.8065 2.7192-0.0683 0.28842-0.09979 0.71571-0.10051 1.3097-4e-6 0.0038-1.97e-4 0.0068-1.97e-4 0.01059-2.1e-5 0.01015-5.71e-4 0.01959-5.71e-4 0.02976 0 0.41989 0.03433 0.80173 0.10844 1.1735 0.0044 0.02209 0.0083 0.04431 0.01294 0.0663 7.91e-4 0.0037 0.0018 0.0075 0.0025 0.0112 0.01126 0.05271 0.02341 0.10516 0.03633 0.15753 0.08278 0.33508 0.20024 0.66535 0.35855 1.0146 0.05252 0.1161 0.10951 0.23404 0.17106 0.35469 0.01947 0.03815 0.04099 0.07708 0.06417 0.11636 0.0067 0.01125 0.01434 0.02269 0.02126 0.03402 0.01626 0.0266 0.03251 0.0531 0.05026 0.08002 0.01509 0.02295 0.03147 0.04608 0.04756 0.0692 0.01091 0.0156 0.02135 0.03112 0.03266 0.04678 0.02012 0.0279 0.04124 0.0559 0.06262 0.08388 0.0078 0.01015 0.01529 0.02021 0.0232 0.03034 0.02588 0.03321 0.05262 0.06628 0.08002 0.09936 0.0036 0.0044 0.0071 0.0088 0.0108 0.01315 0.02842 0.03404 0.05758 0.06782 0.08737 0.10147 0.0036 0.0042 0.0072 0.0081 0.0108 0.01218 0.0665 0.07462 0.13574 0.14759 0.20701 0.21842 2.96e-4 2.98e-4 5.71e-4 7.03e-4 9.45e-4 9.98e-4 0.32666 0.3366 0.6837 0.60114 0.98926 0.70899 0.0067 0.0023 0.01367 0.0042 0.02029 0.0063 0.0016 6.14e-4 0.0035 0.0015 0.0053 0.0022 0.01965 7e-3 0.04213 0.01308 0.0634 0.01951 0.0094 0.0027 0.01804 0.0057 0.02764 0.0083 0.01037 0.0031 0.01952 0.0065 0.03016 0.0093 3.96e-4 9.9e-5 7.91e-4 8.3e-5 0.0011 1.97e-4 0.04954 0.01426 0.10027 0.02685 0.15173 0.03866 0.01026 0.0024 0.02038 0.0049 0.03074 0.0071 0.05084 0.0111 0.10267 0.02081 0.15521 0.02957 0.0092 0.0015 0.01825 0.0032 0.02745 0.0047 0.05447 0.0086 0.10971 0.01606 0.16584 0.02222 0.0072 7.91e-4 0.01444 0.0014 0.02165 0.0022 0.05931 0.0061 0.11919 0.01125 0.18015 0.01469 4.82e-4 2.9e-5 9.97e-4 -2.9e-5 0.0015 0 0.27557 0.01544 0.56664 0.0044 0.8671-0.03441 0.23983-0.02198 0.47208-0.05667 0.67652-0.10863 0.23489-0.05971 0.50229-0.15485 0.77684-0.26848 0.17639-0.06843 0.35193-0.14448 0.52517-0.22905 0.10822-0.05283 0.21033-0.1057 0.30946-0.15869 0.01335-0.0071 0.02701-0.01429 0.04021-0.02146 0.10147-0.05496 0.19816-0.11026 0.29013-0.16565 0.2775-0.16713 0.51343-0.33652 0.7086-0.51144 0.40513-0.35462 0.66413-0.75378 0.79365-1.2504 0.12551-0.45468 0.13792-0.97717 0.05548-1.5993-0.10516-0.7936-0.24478-1.3309-0.44148-1.6609-0.46079-1.0636-1.2486-1.8586-2.3925-2.418-0.83595-0.40557-1.2353-0.42408-2.0054-0.42408zm0.31487 0.88933c0.4384-0.0092 0.87972 0.07941 1.2879 0.27911 1.0796 0.52822 1.6926 1.4994 1.6982 2.6912 0.0056 1.1688-0.61328 2.1604-1.6714 2.678-1.5194 0.74336-3.3081 0.08047-4.022-1.4905-0.3123-0.6872-0.30925-1.6861 0.0073-2.3976 0.47855-1.0755 1.5795-1.737 2.6999-1.7603z" fill="#fff"/>
    <g display="none" fill="none">
        <rect transform="rotate(90)" x="7.8232" y="-20.923" width="13.1" height="13.1" display="inline" stroke="#000" stroke-width=".070382"/>
        <rect x="7.2241" y="8.6528" width="14.298" height="11.441" stroke="#5261ff" stroke-linecap="round" stroke-linejoin="round" stroke-width=".069589"/>
        <rect transform="rotate(90)" x="7.2241" y="-20.094" width="14.298" height="11.441" display="inline" stroke="#0f0" stroke-linecap="round" stroke-linejoin="round" stroke-width=".069589"/>
    </g>
</svg>
