<?xml version="1.0" encoding="UTF-8"?>
<svg version="1.1" viewBox="0 0 26.95 26.95" xmlns="http://www.w3.org/2000/svg">
    <defs>
        <filter id="filter6206-7" color-interpolation-filters="sRGB">
            <feGaussianBlur stdDeviation="0.658125"/>
        </filter>
        <clipPath id="clipPath4719-2">
            <rect x="-490.56" y="-358.5" width="1352.3" height="1135.8" color="#000000"/>
        </clipPath>
        <filter id="filter4731-8" color-interpolation-filters="sRGB">
            <feGaussianBlur stdDeviation="16.169858"/>
        </filter>
    </defs>
    <g transform="translate(0 -1025.4)">
        <path transform="matrix(1.0107 0 0 .99762 -.087875 2.579)" d="m4.4177 1028.2v1.6051h-1.6052v18.192h1.6052v2.1402h18.192v-2.1402h2.1402v-18.192h-2.1402v-1.6051h-18.192z" fill="#232323" filter="url(#filter6206-7)" opacity=".2"/>
        <rect x="2.8113" y="1028.2" width="21.327" height="21.327" rx="1.1225" ry="1.1226" fill="#232323"/>
        <g transform="translate(-20.925 990.46)">
            <path d="m0 0h48v48h-48z" fill="none"/>
            <g transform="matrix(.33601 0 0 .33601 1.434 68.477)">
                <path d="m0 0h48v48h-48z" fill="none"/>
            </g>
            <g transform="matrix(.37187 0 0 .37187 36.377 59.287)">
                <path d="m0 0h48v48h-48z" fill="none"/>
                <g transform="matrix(2.6891 0 0 2.6891 -77.724 -45.422)">
                    <path d="m0 0h48v48h-48z" fill="none"/>
                </g>
            </g>
        </g>
        <path transform="translate(0 1025.4)" d="m3.9336 2.8105c-0.62186 0-1.123 0.50115-1.123 1.123v0.3125c0-0.6219 0.50118-1.123 1.123-1.123h19.082c0.62186 0 1.123 0.50115 1.123 1.123v-0.3125c0-0.6219-0.50118-1.123-1.123-1.123h-19.082z" fill="#fff" opacity=".2"/>
        <rect x="120" y="512.36" width="40" height="40" fill="none"/>
        <rect x="120" y="592.36" width="40" height="40" fill="none"/>
        <rect x="120" y="632.36" width="40" height="40" fill="none"/>
        <rect x="120" y="552.36" width="40" height="40" fill="none"/>
        <rect x="120" y="672.36" width="40" height="40" fill="none"/>
        <rect x="200" y="512.36" width="40" height="40" fill="none"/>
        <rect x="200" y="592.36" width="40" height="40" fill="none"/>
        <rect x="200" y="632.36" width="40" height="40" fill="none"/>
        <rect x="200" y="552.36" width="40" height="40" fill="none"/>
        <rect x="200" y="672.36" width="40" height="40" fill="none"/>
        <rect x="280" y="512.36" width="40" height="40" fill="none"/>
        <rect x="280" y="592.36" width="40" height="40" fill="none"/>
        <rect x="280" y="632.36" width="40" height="40" fill="none"/>
        <rect x="280" y="552.36" width="40" height="40" fill="none"/>
        <rect x="280" y="672.36" width="40" height="40" fill="none"/>
        <rect x="160" y="512.36" width="40" height="40" fill="none"/>
        <rect x="160" y="592.36" width="40" height="40" fill="none"/>
        <rect x="160" y="632.36" width="40" height="40" fill="none"/>
        <rect x="160" y="552.36" width="40" height="40" fill="none"/>
        <rect x="160" y="672.36" width="40" height="40" fill="none"/>
        <rect x="240" y="512.36" width="40" height="40" fill="none"/>
        <rect x="240" y="592.36" width="40" height="40" fill="none"/>
        <rect x="240" y="632.36" width="40" height="40" fill="none"/>
        <rect x="240" y="552.36" width="40" height="40" fill="none"/>
        <rect x="240" y="672.36" width="40" height="40" fill="none"/>
        <rect x="120" y="712.36" width="40" height="40" fill="none"/>
        <rect x="200" y="712.36" width="40" height="40" fill="none"/>
        <rect x="280" y="712.36" width="40" height="40" fill="none"/>
        <rect x="160" y="712.36" width="40" height="40" fill="none"/>
        <rect x="240" y="712.36" width="40" height="40" fill="none"/>
        <rect x="320" y="552.36" width="40" height="40" fill="none"/>
        <rect x="320" y="592.36" width="40" height="40" fill="none"/>
        <rect x="320" y="672.36" width="40" height="40" fill="none"/>
        <rect x="320" y="512.36" width="40" height="40" fill="none"/>
        <rect x="320" y="632.36" width="40" height="40" fill="none"/>
        <rect x="320" y="712.36" width="40" height="40" fill="none"/>
        <rect x="150" y="542.36" width="180" height="180" fill="none"/>
        <g transform="matrix(.37344 0 0 .37344 4.4375 1028.8)">
            <path d="m0 0h48v48h-48z" fill="none"/>
        </g>
        <g transform="matrix(.36471 0 0 .36471 4.8146 1028.8)">
            <path d="m0 0h48v48h-48z" fill="none"/>
        </g>
        <g transform="matrix(.41585 0 0 .41585 79.055 989.88)">
            <g transform="matrix(.062269 0 0 .062269 -26.473 173.71)">
                <g transform="matrix(38.618 0 0 38.618 13804 -12696)">
                    <g transform="matrix(.71436 0 0 .71436 -375.49 176.57)">
                        <path transform="matrix(1.3999 0 0 1.3999 525.63 -247.17)" d="m490.56 95.75c-121.72 0.18504-342.34 0.090577-468.16 0.09375-1.5548 6.9739-2.4062 14.232-2.4062 21.688v76.344c139.06 0.49354 331.32 0.2554 472.97 0.25v-76.594c0-7.4875-0.8386-14.78-2.4062-21.781zm-307.19 197.94c-52.495-3e-3 -106.38 0.11982-163.38 0.375v92.844c191.76-0.26331 282.43-0.0926 472.97-0.21875v-92.25c-109.29-0.35498-208.43-0.74426-309.59-0.75z" opacity="0"/>
                    </g>
                </g>
            </g>
        </g>
        <path d="m23.015 1049.6c0.6218 0 1.123-0.5012 1.123-1.123v-0.3125c0 0.6218-0.5012 1.123-1.123 1.123h-19.082c-0.6218 0-1.123-0.5012-1.123-1.123v0.3125c0 0.6218 0.5012 1.123 1.123 1.123h19.082z" fill="#232323" opacity=".2"/>
    </g>
    <g transform="matrix(.017577 0 0 .017577 8.9375 6.6443)" fill="#fff">
        <g display="none">
            <rect x="-781.35" y="-255.11" width="2079" height="1314" color="#000000" display="inline"/>
            <ellipse transform="translate(-106.45 -243.07)" cx="369.02" cy="1265.6" rx="1173.4" ry="391.12" color="#000000" display="inline" opacity=".5"/>
            <path d="m258.11 1554.6c-75.983 0-120.59-46.353-128.99-108.86-8.4009-62.502 5.1251-73.956-15.915-137.96-21.04-64.003-115.37-173.72-113.16-274.95 0.68683-31.517 4.3162-58.806 10.639-82.653 7.7523 12.845 19.238 21.897 27.609 25.763 6.5351 3.0168 9.6938 4.4676 11.167 5.0118 0.21384 1.6192 1.0422 5.3058 2.5498 12.574 2.0709 9.9819 10.008 25.611 23.565 35.875-0.13787 3.1094-0.28756 6.1868-0.35171 9.4082-1.5658 78.518 79.586 163.58 94.523 213.23 14.937 49.642 8.4392 54.755 10.903 67.089 2.4637 12.334 11.976 26.702 25.675 38.161 1.305 1.0923 2.5751 1.5706 3.8689 1.5827 12.489 0.1182 24.987-45.348 49.152-45.371 24.165-0.028 36.736 55.425 50.647 43.788 13.699-11.459 23.211-25.826 25.675-38.161 2.464-12.334-4.0343-17.447 10.903-67.089 14.937-49.644 96.001-134.71 94.435-213.23-0.065-3.1913-0.2167-6.2386-0.3518-9.3204 13.617-10.262 21.577-25.956 23.653-35.963 1.5076-7.2681 2.3362-10.955 2.5501-12.574 1.4687-0.5434 4.6406-2.0782 11.167-5.0999 8.3739-3.8773 19.791-12.913 27.522-25.763 6.3402 23.871 10.04 51.178 10.727 82.741 2.2057 101.23-92.212 210.95-113.25 274.95-21.04 64.004-7.4262 75.457-15.827 137.96-8.4009 62.502-53.096 108.86-129.08 108.86zm-149.3-541.81c-3.2625-0.1885-6.8677-1.0664-10.903-2.7256-25.826-10.622-14.481-32.999-25.763-47.13-11.282-14.132-33.934-7.3249-41.062-36.226-7.1277-28.902 102.44-170.8 161.35-146.58 58.91 24.228 37.006 202.19 11.606 217.71-25.398 15.525-36.644-5.2709-54.603-3.1654-15.153 1.7766-23.005 19.132-40.623 18.113zm296.76 0c-16.296-0.2814-24.184-16.403-38.776-18.113-17.96-2.1055-29.205 18.69-54.603 3.1654-25.399-15.525-47.304-193.48 11.606-217.71 58.91-24.228 168.48 117.67 161.35 146.58-7.128 28.902-29.693 22.095-40.975 36.226s0.065 36.508-25.763 47.13c-4.8426 1.991-9.077 2.7903-12.838 2.7256zm-150.62-174.01c-1.2872-8.3167-3.0154-16.478-5.2757-24.356-3.684-12.84-9.0609-25.708-17.058-36.666 8.2881-0.5138 16.783-0.5813 25.499-0.1745 8.7163-0.406 17.208-0.3382 25.499 0.1745-7.9972 10.958-13.374 23.826-17.058 36.666-2.2603 7.8781-3.9885 16.04-5.2757 24.356-1.0549-0.028-2.1007-0.087-3.1654-0.087-1.0648 0-2.1106 0.068-3.1655 0.087z" color="#000000" display="inline"/>
            <path transform="translate(4.375e-6 3.832e-5)" d="m258.11-1.6797e-6c-75.983 0-120.59 46.353-128.99 108.86-8.4009 62.502 5.1252 73.955-15.915 137.96-21.04 64.003-115.37 173.72-113.16 274.95 0.68683 31.517 4.3162 58.806 10.639 82.653 7.7523-12.845 19.238-21.897 27.609-25.763 6.5351-3.0169 9.6938-4.4676 11.167-5.0118 0.21384-1.6193 1.0422-5.3058 2.5498-12.574 2.0709-9.9819 10.008-25.611 23.565-35.875-0.13787-3.1094-0.28756-6.1868-0.35171-9.4082-1.5658-78.518 79.586-163.58 94.523-213.23 14.937-49.642 8.4391-54.755 10.903-67.089 2.4637-12.334 11.976-26.702 25.675-38.161 1.305-1.0923 2.5751-1.5706 3.8688-1.5827 12.489-0.11817 24.987 45.348 49.152 45.371 24.165 0.0281 36.736-55.425 50.647-43.788 13.699 11.459 23.211 25.826 25.675 38.161 2.464 12.334-4.0343 17.447 10.903 67.089 14.937 49.644 96.001 134.71 94.435 213.23-0.0647 3.1913-0.21666 6.2386-0.35172 9.3204 13.617 10.262 21.577 25.956 23.653 35.963 1.5076 7.2681 2.3362 10.955 2.5501 12.574 1.4688 0.54332 4.6406 2.0782 11.167 5.0998 8.3739 3.8773 19.791 12.913 27.522 25.763 6.3401-23.871 10.04-51.178 10.727-82.741 2.2057-101.23-92.212-210.95-113.25-274.95-21.04-64.004-7.4262-75.457-15.827-137.96-8.4009-62.502-53.096-108.86-129.08-108.86zm-149.3 541.81c-3.2625 0.18852-6.8677 1.0664-10.903 2.7256-25.826 10.622-14.481 32.999-25.763 47.13-11.282 14.132-33.934 7.3249-41.062 36.226-7.1277 28.902 102.44 170.8 161.35 146.58 58.911-24.228 37.006-202.19 11.607-217.71-25.398-15.525-36.643 5.2709-54.603 3.1654-15.153-1.7766-23.005-19.132-40.623-18.113zm296.76 0c-16.296 0.28137-24.184 16.402-38.776 18.113-17.96 2.1055-29.205-18.69-54.603-3.1654-25.399 15.525-47.304 193.48 11.607 217.71 58.91 24.228 168.48-117.67 161.35-146.58-7.128-28.902-29.693-22.095-40.975-36.226s0.0647-36.508-25.763-47.13c-4.8427-1.991-9.077-2.7904-12.838-2.7256zm-150.62 174.01c-1.2873 8.3168-3.0154 16.478-5.2757 24.356-3.684 12.84-9.061 25.708-17.058 36.666 8.2881 0.51378 16.783 0.58131 25.499 0.17445 8.7163 0.40601 17.208 0.3382 25.499-0.17445-7.9971-10.959-13.374-23.826-17.058-36.666-2.2602-7.8781-3.9884-16.04-5.2757-24.356-1.0549 0.0281-2.1007 0.0872-3.1654 0.0872s-2.1106-0.0675-3.1654-0.0872z" clip-path="url(#clipPath4719-2)" color="#000000" display="inline" filter="url(#filter4731-8)"/>
            <path d="m258.11-1.6797e-6c-75.983 0-120.59 46.353-128.99 108.86-8.4009 62.502 5.1252 73.955-15.915 137.96-21.04 64.003-115.37 173.72-113.16 274.95 0.68683 31.517 4.3162 58.806 10.639 82.653 7.7523-12.845 19.238-21.897 27.609-25.763 6.5351-3.0168 9.6938-4.4676 11.167-5.0118 0.21384-1.6193 1.0422-5.3058 2.5498-12.574 2.0709-9.9819 10.008-25.611 23.565-35.875-0.13787-3.1094-0.28756-6.1868-0.35171-9.4082-1.5658-78.518 79.586-163.58 94.523-213.23 14.937-49.642 8.4391-54.755 10.903-67.089 2.4637-12.334 11.976-26.702 25.675-38.161 1.305-1.0923 2.5751-1.5706 3.8688-1.5827 12.489-0.11817 24.987 45.348 49.152 45.371 24.165 0.0281 36.736-55.425 50.647-43.788 13.699 11.459 23.211 25.826 25.675 38.161 2.464 12.334-4.0343 17.447 10.903 67.089 14.937 49.644 96.001 134.71 94.435 213.23-0.0647 3.1913-0.21666 6.2386-0.35172 9.3204 13.617 10.262 21.577 25.956 23.653 35.963 1.5076 7.2681 2.3362 10.955 2.5501 12.574 1.4688 0.54332 4.6406 2.0782 11.167 5.0998 8.3739 3.8773 19.791 12.913 27.522 25.763 6.3401-23.871 10.04-51.178 10.727-82.741 2.2057-101.23-92.212-210.95-113.25-274.95-21.04-64.004-7.4262-75.457-15.827-137.96-8.4009-62.502-53.096-108.86-129.08-108.86zm-149.3 541.81c-3.2625 0.18851-6.8677 1.0664-10.903 2.7256-25.826 10.622-14.481 32.999-25.763 47.13-11.282 14.132-33.934 7.3249-41.062 36.226-7.1277 28.902 102.44 170.8 161.35 146.58 58.911-24.228 37.006-202.19 11.607-217.71-25.398-15.525-36.643 5.2709-54.603 3.1654-15.153-1.7766-23.005-19.132-40.623-18.113zm296.76 0c-16.296 0.28137-24.184 16.402-38.776 18.113-17.96 2.1055-29.205-18.69-54.603-3.1654-25.399 15.525-47.304 193.48 11.607 217.71 58.91 24.228 168.48-117.67 161.35-146.58-7.128-28.902-29.693-22.095-40.975-36.226s0.0647-36.508-25.763-47.13c-4.8427-1.991-9.077-2.7904-12.838-2.7256zm-150.62 174.01c-1.2873 8.3168-3.0154 16.478-5.2757 24.356-3.684 12.84-9.061 25.708-17.058 36.666 8.2881 0.51378 16.783 0.58131 25.499 0.17445 8.7163 0.40602 17.208 0.33821 25.499-0.17445-7.9971-10.959-13.374-23.826-17.058-36.666-2.2602-7.8781-3.9884-16.04-5.2757-24.356-1.0549 0.0281-2.1007 0.0872-3.1654 0.0872s-2.1106-0.0675-3.1654-0.0872z" color="#000000" display="inline" fill="#fff"/>
            <path d="m258.11-1.6797e-6c-75.983 0-120.59 46.353-128.99 108.86-8.4009 62.502 5.1252 73.955-15.915 137.96-21.04 64.003-115.37 173.72-113.16 274.95 0.68683 31.517 4.3162 58.806 10.639 82.653 7.7523-12.845 19.238-21.897 27.609-25.763 6.5351-3.0168 9.6938-4.4676 11.167-5.0118 0.21384-1.6193 1.0422-5.3058 2.5498-12.574 2.0709-9.9819 10.008-25.611 23.565-35.875-0.13787-3.1094-0.28756-6.1868-0.35171-9.4082-1.5658-78.518 79.586-163.58 94.523-213.23 14.937-49.642 8.4391-54.755 10.903-67.089 2.4637-12.334 11.976-26.702 25.675-38.161 1.305-1.0923 2.5751-1.5706 3.8688-1.5827 12.489-0.11817 24.987 45.348 49.152 45.371 24.165 0.0281 36.736-55.425 50.647-43.788 13.699 11.459 23.211 25.826 25.675 38.161 2.464 12.334-4.0343 17.447 10.903 67.089 14.937 49.644 96.001 134.71 94.435 213.23-0.0647 3.1913-0.21666 6.2386-0.35172 9.3204 13.617 10.262 21.577 25.956 23.653 35.963 1.5076 7.2681 2.3362 10.955 2.5501 12.574 1.4688 0.54332 4.6406 2.0782 11.167 5.0998 8.3739 3.8773 19.791 12.913 27.522 25.763 6.3401-23.871 10.04-51.178 10.727-82.741 2.2057-101.23-92.212-210.95-113.25-274.95-21.04-64.004-7.4262-75.457-15.827-137.96-8.4009-62.502-53.096-108.86-129.08-108.86zm-149.3 541.81c-3.2625 0.18851-6.8677 1.0664-10.903 2.7256-25.826 10.622-14.481 32.999-25.763 47.13-11.282 14.132-33.934 7.3249-41.062 36.226-7.1277 28.902 102.44 170.8 161.35 146.58 58.911-24.228 37.006-202.19 11.607-217.71-25.398-15.525-36.643 5.2709-54.603 3.1654-15.153-1.7766-23.005-19.132-40.623-18.113zm296.76 0c-16.296 0.28137-24.184 16.402-38.776 18.113-17.96 2.1055-29.205-18.69-54.603-3.1654-25.399 15.525-47.304 193.48 11.607 217.71 58.91 24.228 168.48-117.67 161.35-146.58-7.128-28.902-29.693-22.095-40.975-36.226s0.0647-36.508-25.763-47.13c-4.8427-1.991-9.077-2.7904-12.838-2.7256zm-150.62 174.01c-1.2873 8.3168-3.0154 16.478-5.2757 24.356-3.684 12.84-9.061 25.708-17.058 36.666 8.2881 0.51378 16.783 0.58131 25.499 0.17445 8.7163 0.40602 17.208 0.33821 25.499-0.17445-7.9971-10.959-13.374-23.826-17.058-36.666-2.2602-7.8781-3.9884-16.04-5.2757-24.356-1.0549 0.0281-2.1007 0.0872-3.1654 0.0872s-2.1106-0.0675-3.1654-0.0872z" color="#000000" display="inline" fill="#fff"/>
            <path d="m258.11-1.6797e-6c-75.983 0-120.59 46.353-128.99 108.86-8.4009 62.502 5.1252 73.955-15.915 137.96-21.04 64.003-115.37 173.72-113.16 274.95 0.68683 31.517 4.3162 58.806 10.639 82.653 7.7523-12.845 19.238-21.897 27.609-25.763 6.5351-3.0169 9.6938-4.4676 11.167-5.0118 0.21384-1.6193 1.0422-5.3058 2.5498-12.574 2.0709-9.9819 10.008-25.611 23.565-35.875-0.13787-3.1094-0.28756-6.1868-0.35171-9.4082-1.5658-78.518 79.586-163.58 94.523-213.23 14.937-49.642 8.4391-54.755 10.903-67.089 2.4637-12.334 11.976-26.702 25.675-38.161 1.305-1.0923 2.5751-1.5706 3.8688-1.5827 12.489-0.11817 24.987 45.348 49.152 45.371 24.165 0.0281 36.736-55.425 50.647-43.788 13.699 11.459 23.211 25.826 25.675 38.161 2.464 12.334-4.0343 17.447 10.903 67.089 14.937 49.644 96.001 134.71 94.435 213.23-0.0647 3.1913-0.21666 6.2386-0.35172 9.3204 13.617 10.262 21.577 25.956 23.653 35.963 1.5076 7.2681 2.3362 10.955 2.5501 12.574 1.4688 0.54332 4.6406 2.0782 11.167 5.0998 8.3739 3.8773 19.791 12.913 27.522 25.763 6.3401-23.871 10.04-51.178 10.727-82.741 2.2057-101.23-92.212-210.95-113.25-274.95-21.04-64.004-7.4262-75.457-15.827-137.96-8.4009-62.502-53.096-108.86-129.08-108.86zm-149.3 541.81c-3.2625 0.18852-6.8677 1.0664-10.903 2.7256-25.826 10.622-14.481 32.999-25.763 47.13-11.282 14.132-33.934 7.3249-41.062 36.226-7.1277 28.902 102.44 170.8 161.35 146.58 58.911-24.228 37.006-202.19 11.607-217.71-25.398-15.525-36.643 5.2709-54.603 3.1654-15.153-1.7766-23.005-19.132-40.623-18.113zm296.76 0c-16.296 0.28137-24.184 16.402-38.776 18.113-17.96 2.1055-29.205-18.69-54.603-3.1654-25.399 15.525-47.304 193.48 11.607 217.71 58.91 24.228 168.48-117.67 161.35-146.58-7.128-28.902-29.693-22.095-40.975-36.226s0.0647-36.508-25.763-47.13c-4.8427-1.991-9.077-2.7904-12.838-2.7256zm-150.62 174.01c-1.2873 8.3168-3.0154 16.478-5.2757 24.356-3.684 12.84-9.061 25.708-17.058 36.666 8.2881 0.51378 16.783 0.58131 25.499 0.17445 8.7163 0.40601 17.208 0.3382 25.499-0.17445-7.9971-10.959-13.374-23.826-17.058-36.666-2.2602-7.8781-3.9884-16.04-5.2757-24.356-1.0549 0.0281-2.1007 0.0872-3.1654 0.0872s-2.1106-0.0675-3.1654-0.0872z" color="#000000" display="inline" fill="#fff"/>
        </g>
        <path d="m258.11-1.6797e-6c-75.983 0-120.59 46.353-128.99 108.86-8.4009 62.502 5.1252 73.955-15.915 137.96-21.04 64.003-115.37 173.72-113.16 274.95 0.68683 31.517 4.3162 58.806 10.639 82.653 7.7523-12.845 19.238-21.897 27.609-25.763 6.5351-3.0169 9.6938-4.4676 11.167-5.0118 0.21384-1.6193 1.0422-5.3058 2.5498-12.574 2.0709-9.9819 10.008-25.611 23.565-35.875-0.13787-3.1094-0.28756-6.1868-0.35171-9.4082-1.5658-78.518 79.586-163.58 94.523-213.23 14.937-49.642 8.4391-54.755 10.903-67.089 2.4637-12.334 11.976-26.702 25.675-38.161 1.305-1.0923 2.5751-1.5706 3.8688-1.5827 12.489-0.11817 24.987 45.348 49.152 45.371 24.165 0.0281 36.736-55.425 50.647-43.788 13.699 11.459 23.211 25.826 25.675 38.161 2.464 12.334-4.0343 17.447 10.903 67.089 14.937 49.644 96.001 134.71 94.435 213.23-0.0647 3.1913-0.21666 6.2386-0.35172 9.3204 13.617 10.262 21.577 25.956 23.653 35.963 1.5076 7.2681 2.3362 10.955 2.5501 12.574 1.4688 0.54332 4.6406 2.0782 11.167 5.0998 8.3739 3.8773 19.791 12.913 27.522 25.763 6.3401-23.871 10.04-51.178 10.727-82.741 2.2057-101.23-92.212-210.95-113.25-274.95-21.04-64.004-7.4262-75.457-15.827-137.96-8.4009-62.502-53.096-108.86-129.08-108.86zm-149.3 541.81c-3.2625 0.18852-6.8677 1.0664-10.903 2.7256-25.826 10.622-14.481 32.999-25.763 47.13-11.282 14.132-33.934 7.3249-41.062 36.226-7.1277 28.902 102.44 170.8 161.35 146.58 58.911-24.228 37.006-202.19 11.607-217.71-25.398-15.525-36.643 5.2709-54.603 3.1654-15.153-1.7766-23.005-19.132-40.623-18.113zm296.76 0c-16.296 0.28137-24.184 16.402-38.776 18.113-17.96 2.1055-29.205-18.69-54.603-3.1654-25.399 15.525-47.304 193.48 11.607 217.71 58.91 24.228 168.48-117.67 161.35-146.58-7.128-28.902-29.693-22.095-40.975-36.226s0.0647-36.508-25.763-47.13c-4.8427-1.991-9.077-2.7904-12.838-2.7256z" color="#000000" fill="#fff"/>
    </g>
    <g display="none" fill="none">
        <rect transform="rotate(90)" x="7.3342" y="-19.616" width="12.282" height="12.282" display="inline" stroke="#000" stroke-width=".065984"/>
        <rect x="6.7726" y="8.112" width="13.405" height="10.726" stroke="#5261ff" stroke-linecap="round" stroke-linejoin="round" stroke-width=".06524"/>
        <rect transform="rotate(90)" x="6.7726" y="-18.838" width="13.405" height="10.726" display="inline" stroke="#0f0" stroke-linecap="round" stroke-linejoin="round" stroke-width=".06524"/>
    </g>
</svg>
