<?xml version="1.0" encoding="UTF-8"?>
<svg fill="none" viewBox="0 0 40 40" xmlns="http://www.w3.org/2000/svg">
    <g filter="url(#filter0_f)" opacity=".2">
        <path d="m6.4966 4.3023v2.3767h-2.408v26.937h2.408v3.1689h27.29v-3.1689h3.2106v-26.937h-3.2106v-2.3767h-27.29z" fill="#232323"/>
    </g>
    <path d="m34.161 4.1727h-28.323c-0.92013 0-1.666 0.74594-1.666 1.6661v28.323c0 0.9202 0.74591 1.6661 1.666 1.6661h28.323c0.9201 0 1.6661-0.7459 1.6661-1.6661v-28.323c0-0.92018-0.746-1.6661-1.6661-1.6661z" fill="#232323"/>
    <path d="m5.8384 4.1715c-0.92299 0-1.6669 0.74384-1.6669 1.6668v0.46405c0-0.9231 0.74387-1.667 1.6669-1.667h28.322c0.923 0 1.6669 0.74387 1.6669 1.667v-0.46405c0-0.92296-0.7439-1.6668-1.6669-1.6668h-28.322z" fill="#fff" opacity=".2"/>
    <path d="m34.16 35.859c0.9229 0 1.6668-0.7438 1.6668-1.6668v-0.4639c0 0.9228-0.7439 1.6668-1.6668 1.6668h-28.322c-0.9229 0-1.6668-0.744-1.6668-1.6668v0.4639c0 0.923 0.7439 1.6668 1.6668 1.6668h28.322z" fill="#232323" opacity=".2"/>
    <path d="m13.317 13.434h13.518c0.6399 0 1.1587 0.5187 1.1587 1.1587v2.7036h-3.6692c-1.5998 0-2.8966 1.2968-2.8966 2.8966s1.2968 2.8967 2.8966 2.8967h3.6692v2.3173c0 0.64-0.5188 1.1587-1.1587 1.1587h-13.518c-0.6399 0-1.1586-0.5187-1.1586-1.1587v-10.814c0-0.64 0.5187-1.1587 1.1586-1.1587zm15.835 9.6556v2.3173c0 1.2799-1.0375 2.3174-2.3173 2.3174h-13.518c-1.2798 0-2.3173-1.0375-2.3173-2.3174v-10.814c0-1.2799 1.0375-2.3174 2.3173-2.3174h13.518c1.2798 0 2.3173 1.0375 2.3173 2.3174v2.7036c0.4267 0 0.7725 0.3458 0.7725 0.7724v4.2485c0 0.4266-0.3458 0.7724-0.7725 0.7724zm-3.476-2.8967c0 0.7466-0.6052 1.3518-1.3518 1.3518-0.7465 0-1.3517-0.6052-1.3517-1.3518 0-0.7465 0.6052-1.3517 1.3517-1.3517 0.7466 0 1.3518 0.6052 1.3518 1.3517z" clip-rule="evenodd" fill="#fff" fill-rule="evenodd"/>
    <defs>
        <filter id="filter0_f" x="3.3838" y="3.5974" width="34.319" height="33.893" color-interpolation-filters="sRGB" filterUnits="userSpaceOnUse">
            <feFlood flood-opacity="0" result="BackgroundImageFix"/>
            <feBlend in="SourceGraphic" in2="BackgroundImageFix" result="shape"/>
            <feGaussianBlur result="effect1_foregroundBlur" stdDeviation="0.352455"/>
        </filter>
    </defs>
</svg>
