<?xml version="1.0" encoding="UTF-8"?>
<svg version="1.1" viewBox="0 0 26.95 26.95" xmlns="http://www.w3.org/2000/svg" xmlns:xlink="http://www.w3.org/1999/xlink">
    <defs>
        <filter id="filter6206-7" color-interpolation-filters="sRGB">
            <feGaussianBlur stdDeviation="0.658125"/>
        </filter>
        <clipPath id="boundary">
            <circle r="298"/>
        </clipPath>
    </defs>
    <g transform="translate(0 -1025.4)">
        <path transform="matrix(1.0107 0 0 .99762 -.087875 2.579)" d="m4.4177 1028.2v1.6051h-1.6052v18.192h1.6052v2.1402h18.192v-2.1402h2.1402v-18.192h-2.1402v-1.6051h-18.192z" fill="#232323" filter="url(#filter6206-7)" opacity=".2"/>
        <rect x="2.8113" y="1028.2" width="21.327" height="21.327" rx="1.1225" ry="1.1226" fill="#232323"/>
        <g transform="translate(-20.925 990.46)">
            <path d="m0 0h48v48h-48z" fill="none"/>
            <g transform="matrix(.33601 0 0 .33601 1.434 68.477)">
                <path d="m0 0h48v48h-48z" fill="none"/>
            </g>
            <g transform="matrix(.37187 0 0 .37187 36.377 59.287)">
                <path d="m0 0h48v48h-48z" fill="none"/>
                <g transform="matrix(2.6891 0 0 2.6891 -77.724 -45.422)">
                    <path d="m0 0h48v48h-48z" fill="none"/>
                </g>
            </g>
        </g>
        <path transform="translate(0 1025.4)" d="m3.9336 2.8105c-0.62186 0-1.123 0.50115-1.123 1.123v0.3125c0-0.6219 0.50118-1.123 1.123-1.123h19.082c0.62186 0 1.123 0.50115 1.123 1.123v-0.3125c0-0.6219-0.50118-1.123-1.123-1.123h-19.082z" fill="#fff" opacity=".2"/>
        <rect x="120" y="512.36" width="40" height="40" fill="none"/>
        <rect x="120" y="592.36" width="40" height="40" fill="none"/>
        <rect x="120" y="632.36" width="40" height="40" fill="none"/>
        <rect x="120" y="552.36" width="40" height="40" fill="none"/>
        <rect x="120" y="672.36" width="40" height="40" fill="none"/>
        <rect x="200" y="512.36" width="40" height="40" fill="none"/>
        <rect x="200" y="592.36" width="40" height="40" fill="none"/>
        <rect x="200" y="632.36" width="40" height="40" fill="none"/>
        <rect x="200" y="552.36" width="40" height="40" fill="none"/>
        <rect x="200" y="672.36" width="40" height="40" fill="none"/>
        <rect x="280" y="512.36" width="40" height="40" fill="none"/>
        <rect x="280" y="592.36" width="40" height="40" fill="none"/>
        <rect x="280" y="632.36" width="40" height="40" fill="none"/>
        <rect x="280" y="552.36" width="40" height="40" fill="none"/>
        <rect x="280" y="672.36" width="40" height="40" fill="none"/>
        <rect x="160" y="512.36" width="40" height="40" fill="none"/>
        <rect x="160" y="592.36" width="40" height="40" fill="none"/>
        <rect x="160" y="632.36" width="40" height="40" fill="none"/>
        <rect x="160" y="552.36" width="40" height="40" fill="none"/>
        <rect x="160" y="672.36" width="40" height="40" fill="none"/>
        <rect x="240" y="512.36" width="40" height="40" fill="none"/>
        <rect x="240" y="592.36" width="40" height="40" fill="none"/>
        <rect x="240" y="632.36" width="40" height="40" fill="none"/>
        <rect x="240" y="552.36" width="40" height="40" fill="none"/>
        <rect x="240" y="672.36" width="40" height="40" fill="none"/>
        <rect x="120" y="712.36" width="40" height="40" fill="none"/>
        <rect x="200" y="712.36" width="40" height="40" fill="none"/>
        <rect x="280" y="712.36" width="40" height="40" fill="none"/>
        <rect x="160" y="712.36" width="40" height="40" fill="none"/>
        <rect x="240" y="712.36" width="40" height="40" fill="none"/>
        <rect x="320" y="552.36" width="40" height="40" fill="none"/>
        <rect x="320" y="592.36" width="40" height="40" fill="none"/>
        <rect x="320" y="672.36" width="40" height="40" fill="none"/>
        <rect x="320" y="512.36" width="40" height="40" fill="none"/>
        <rect x="320" y="632.36" width="40" height="40" fill="none"/>
        <rect x="320" y="712.36" width="40" height="40" fill="none"/>
        <rect x="150" y="542.36" width="180" height="180" fill="none"/>
        <g transform="matrix(.37344 0 0 .37344 4.4375 1028.8)">
            <path d="m0 0h48v48h-48z" fill="none"/>
        </g>
        <g transform="matrix(.36471 0 0 .36471 4.8146 1028.8)">
            <path d="m0 0h48v48h-48z" fill="none"/>
        </g>
        <g transform="matrix(.41585 0 0 .41585 79.055 989.88)">
            <g transform="matrix(.062269 0 0 .062269 -26.473 173.71)">
                <g transform="matrix(38.618 0 0 38.618 13804 -12696)">
                    <g transform="matrix(.71436 0 0 .71436 -375.49 176.57)">
                        <path transform="matrix(1.3999 0 0 1.3999 525.63 -247.17)" d="m490.56 95.75c-121.72 0.18504-342.34 0.090577-468.16 0.09375-1.5548 6.9739-2.4062 14.232-2.4062 21.688v76.344c139.06 0.49354 331.32 0.2554 472.97 0.25v-76.594c0-7.4875-0.8386-14.78-2.4062-21.781zm-307.19 197.94c-52.495-3e-3 -106.38 0.11982-163.38 0.375v92.844c191.76-0.26331 282.43-0.0926 472.97-0.21875v-92.25c-109.29-0.35498-208.43-0.74426-309.59-0.75z" opacity="0"/>
                    </g>
                </g>
            </g>
        </g>
        <path d="m23.015 1049.6c0.6218 0 1.123-0.5012 1.123-1.123v-0.3125c0 0.6218-0.5012 1.123-1.123 1.123h-19.082c-0.6218 0-1.123-0.5012-1.123-1.123v0.3125c0 0.6218 0.5012 1.123 1.123 1.123h19.082z" fill="#232323" opacity=".2"/>
    </g>
    <g transform="matrix(.96522 0 0 .96522 -26.832 .8099)">
        <circle cx="41.759" cy="14.972" r="1.7057" fill="#fff"/>
        <g transform="matrix(.017057 0 0 .017057 41.759 14.972)" fill="#006499" stroke="#006499">
            <g clip-path="url(#boundary)">
                <g id="arrow" stroke="none">
                    <line y1="300" y2="180" fill="#fff"/>
                    <path d="m-43 185 43-75 43 75z" fill="#fff"/>
                </g>
                <g id="three_arrows_lhs">
                    <use transform="matrix(.70711 .70711 -.70711 .70711 0 0)" width="100%" height="100%" stroke="none" xlink:href="#arrow"/>
                    <use transform="rotate(90)" width="100%" height="100%" fill="#ffffff" stroke="none" xlink:href="#arrow"/>
                    <use transform="matrix(-.70711 .70711 -.70711 -.70711 0 0)" width="100%" height="100%" fill="#ffffff" stroke="none" xlink:href="#arrow"/>
                </g>
                <use transform="scale(-1,1)" width="100%" height="100%" fill="#ffffff" stroke="none" xlink:href="#three_arrows_lhs"/>
            </g>
            <path transform="matrix(.70711 -.70711 .70711 .70711 0 0)" d="m0-256a256 256 0 1 0 256 256c0-100-101-150-6-275" fill="none" stroke="#fff" stroke-width="84"/>
            <path d="m-23-515s-36 135-80 185 116-62 170-5-90-180-90-180z" fill="#fff" stroke="none"/>
        </g>
    </g>
    <rect x="13.213" y="18.393" width=".52479" height="1.0798" fill="#fff" stroke="#fff" stroke-miterlimit="3.2" stroke-width=".38021"/>
    <rect transform="rotate(90)" x="14.985" y="-10.375" width=".52479" height="1.0798" fill="#fff" stroke="#fff" stroke-miterlimit="3.2" stroke-width=".38021"/>
    <rect transform="rotate(90)" x="14.985" y="-17.656" width=".52479" height="1.0798" fill="#fff" stroke="#fff" stroke-miterlimit="3.2" stroke-width=".38021"/>
    <rect transform="matrix(-.70711 .70711 .70711 .70711 0 0)" x="1.0219" y="23.462" width=".52479" height="1.0798" fill="#fff" stroke="#fff" stroke-miterlimit="3.2" stroke-width=".38021"/>
    <rect transform="matrix(.70711 .70711 -.70711 .70711 0 0)" x="20.044" y="-2.7744" width=".52479" height="1.0798" fill="#fff" stroke="#fff" stroke-miterlimit="3.2" stroke-width=".38021"/>
    <rect transform="matrix(.70711 .70711 -.70711 .70711 0 0)" x="20.06" y="4.3604" width=".52479" height="1.0798" fill="#fff" stroke="#fff" stroke-miterlimit="3.2" stroke-width=".38021"/>
    <rect transform="matrix(-.70711 .70711 .70711 .70711 0 0)" x="1.0239" y="15.658" width=".45627" height="1.73" fill="#fff" stroke="#fff" stroke-miterlimit="3.2" stroke-width=".44873"/>
    <g display="none" fill="none">
        <rect transform="rotate(90)" x="7.3342" y="-19.616" width="12.282" height="12.282" display="inline" stroke="#000" stroke-width=".065984"/>
        <rect x="6.7726" y="8.112" width="13.405" height="10.726" stroke="#5261ff" stroke-linecap="round" stroke-linejoin="round" stroke-width=".06524"/>
        <rect transform="rotate(90)" x="6.7726" y="-18.838" width="13.405" height="10.726" display="inline" stroke="#0f0" stroke-linecap="round" stroke-linejoin="round" stroke-width=".06524"/>
    </g>
</svg>
