<?xml version="1.0" encoding="UTF-8"?>
<svg version="1.1" viewBox="0 0 26.95 26.95" xmlns="http://www.w3.org/2000/svg">
    <defs>
        <filter id="filter6206-7" color-interpolation-filters="sRGB">
            <feGaussianBlur stdDeviation="0.658125"/>
        </filter>
    </defs>
    <g transform="translate(0 -1025.4)">
        <path transform="matrix(1.0107 0 0 .99762 -.087875 2.579)" d="m4.4177 1028.2v1.6051h-1.6052v18.192h1.6052v2.1402h18.192v-2.1402h2.1402v-18.192h-2.1402v-1.6051h-18.192z" fill="#232323" filter="url(#filter6206-7)" opacity=".2"/>
        <rect x="2.8113" y="1028.2" width="21.327" height="21.327" rx="1.1225" ry="1.1226" fill="#232323"/>
        <g transform="translate(-20.925 990.46)">
            <path d="m0 0h48v48h-48z" fill="none"/>
            <g transform="matrix(.33601 0 0 .33601 1.434 68.477)">
                <path d="m0 0h48v48h-48z" fill="none"/>
            </g>
            <g transform="matrix(.37187 0 0 .37187 36.377 59.287)">
                <path d="m0 0h48v48h-48z" fill="none"/>
                <g transform="matrix(2.6891 0 0 2.6891 -77.724 -45.422)">
                    <path d="m0 0h48v48h-48z" fill="none"/>
                </g>
            </g>
        </g>
        <path transform="translate(0 1025.4)" d="m3.9336 2.8105c-0.62186 0-1.123 0.50115-1.123 1.123v0.3125c0-0.6219 0.50118-1.123 1.123-1.123h19.082c0.62186 0 1.123 0.50115 1.123 1.123v-0.3125c0-0.6219-0.50118-1.123-1.123-1.123h-19.082z" fill="#fff" opacity=".2"/>
        <rect x="120" y="512.36" width="40" height="40" fill="none"/>
        <rect x="120" y="592.36" width="40" height="40" fill="none"/>
        <rect x="120" y="632.36" width="40" height="40" fill="none"/>
        <rect x="120" y="552.36" width="40" height="40" fill="none"/>
        <rect x="120" y="672.36" width="40" height="40" fill="none"/>
        <rect x="200" y="512.36" width="40" height="40" fill="none"/>
        <rect x="200" y="592.36" width="40" height="40" fill="none"/>
        <rect x="200" y="632.36" width="40" height="40" fill="none"/>
        <rect x="200" y="552.36" width="40" height="40" fill="none"/>
        <rect x="200" y="672.36" width="40" height="40" fill="none"/>
        <rect x="280" y="512.36" width="40" height="40" fill="none"/>
        <rect x="280" y="592.36" width="40" height="40" fill="none"/>
        <rect x="280" y="632.36" width="40" height="40" fill="none"/>
        <rect x="280" y="552.36" width="40" height="40" fill="none"/>
        <rect x="280" y="672.36" width="40" height="40" fill="none"/>
        <rect x="160" y="512.36" width="40" height="40" fill="none"/>
        <rect x="160" y="592.36" width="40" height="40" fill="none"/>
        <rect x="160" y="632.36" width="40" height="40" fill="none"/>
        <rect x="160" y="552.36" width="40" height="40" fill="none"/>
        <rect x="160" y="672.36" width="40" height="40" fill="none"/>
        <rect x="240" y="512.36" width="40" height="40" fill="none"/>
        <rect x="240" y="592.36" width="40" height="40" fill="none"/>
        <rect x="240" y="632.36" width="40" height="40" fill="none"/>
        <rect x="240" y="552.36" width="40" height="40" fill="none"/>
        <rect x="240" y="672.36" width="40" height="40" fill="none"/>
        <rect x="120" y="712.36" width="40" height="40" fill="none"/>
        <rect x="200" y="712.36" width="40" height="40" fill="none"/>
        <rect x="280" y="712.36" width="40" height="40" fill="none"/>
        <rect x="160" y="712.36" width="40" height="40" fill="none"/>
        <rect x="240" y="712.36" width="40" height="40" fill="none"/>
        <rect x="320" y="552.36" width="40" height="40" fill="none"/>
        <rect x="320" y="592.36" width="40" height="40" fill="none"/>
        <rect x="320" y="672.36" width="40" height="40" fill="none"/>
        <rect x="320" y="512.36" width="40" height="40" fill="none"/>
        <rect x="320" y="632.36" width="40" height="40" fill="none"/>
        <rect x="320" y="712.36" width="40" height="40" fill="none"/>
        <rect x="150" y="542.36" width="180" height="180" fill="none"/>
        <g transform="matrix(.37344 0 0 .37344 4.4375 1028.8)">
            <path d="m0 0h48v48h-48z" fill="none"/>
        </g>
        <g transform="matrix(.36471 0 0 .36471 4.8146 1028.8)">
            <path d="m0 0h48v48h-48z" fill="none"/>
        </g>
        <g transform="matrix(.41585 0 0 .41585 79.055 989.88)">
            <g transform="matrix(.062269 0 0 .062269 -26.473 173.71)">
                <g transform="matrix(38.618 0 0 38.618 13804 -12696)">
                    <g transform="matrix(.71436 0 0 .71436 -375.49 176.57)">
                        <path transform="matrix(1.3999 0 0 1.3999 525.63 -247.17)" d="m490.56 95.75c-121.72 0.18504-342.34 0.090577-468.16 0.09375-1.5548 6.9739-2.4062 14.232-2.4062 21.688v76.344c139.06 0.49354 331.32 0.2554 472.97 0.25v-76.594c0-7.4875-0.8386-14.78-2.4062-21.781zm-307.19 197.94c-52.495-3e-3 -106.38 0.11982-163.38 0.375v92.844c191.76-0.26331 282.43-0.0926 472.97-0.21875v-92.25c-109.29-0.35498-208.43-0.74426-309.59-0.75z" opacity="0"/>
                    </g>
                </g>
            </g>
        </g>
        <path d="m23.015 1049.6c0.6218 0 1.123-0.5012 1.123-1.123v-0.3125c0 0.6218-0.5012 1.123-1.123 1.123h-19.082c-0.6218 0-1.123-0.5012-1.123-1.123v0.3125c0 0.6218 0.5012 1.123 1.123 1.123h19.082z" fill="#232323" opacity=".2"/>
    </g>
    <flowRoot fill="#000000" font-family="Roboto" font-size="3.75px" letter-spacing="0px" stroke-width="1px" word-spacing="0px" style="line-height:125%" xml:space="preserve"><flowRegion><rect x="10.664" y="11.235" width="4.49" height="5.0512"/></flowRegion><flowPara>your</flowPara></flowRoot>
    <g transform="matrix(1.0583 0 0 1.0583 -.85657 -.35501)" fill="#fff">
        <g transform="matrix(.013772 0 0 .013772 8.0889 7.2608)" fill="#fff">
            <path d="m367.5 836.86c-45.743-3.9398-97.393-17.873-137.5-37.094-75.177-36.027-142.76-103.62-178.75-178.77-28.053-58.576-42.307-132.32-37.209-192.5 6.927-81.782 38.025-159.1 85.198-211.83 7.2958-8.1546 15.218-16.438 17.606-18.408l4.3406-3.5816 103 103-7.1859 8.9068c-20.768 25.741-37.589 58.378-45.307 87.907-7.2198 27.621-9.2073 65.851-4.8349 93 7.9893 49.607 29.861 92.938 64.417 127.62 34.783 34.912 78.263 56.962 128.23 65.025 10.233 1.6515 17.47 2.0981 34 2.0981s23.767-0.4466 34-2.0981c49.963-8.0637 93.444-30.113 128.23-65.025 34.554-34.683 56.41-77.98 64.422-127.62 1.6515-10.233 2.0981-17.47 2.0981-34 0-24.102-1.8568-38.539-7.6525-59.5-8.5168-30.802-20.446-55.19-38.632-78.979l-7.1383-9.3378 100.57-100.59 4.552 4.2146c2.5036 2.318 8.1039 7.1338 12.445 10.702 4.3595 3.5829 10.579 10.069 13.893 14.487 3.2998 4.4 8.5685 10.7 11.708 14 7.7226 8.1169 21.587 28.677 27.985 41.5 2.8813 5.775 5.8296 11.175 6.5518 12 2.4448 2.7929 15.344 40.396 19.896 58 4.9168 19.014 9.8032 48.035 11.501 68.304 5.1705 61.738-9.322 135.46-38.3 194.83-31.285 64.094-84.82 122.26-147.63 160.39-48.041 29.167-108.32 48.165-169.5 53.426-13.926 1.1972-40.598 1.1566-55-0.0839zm10.584-231.07c-18.675-2.075-43.739-10.311-59.532-19.564-29.612-17.347-53.948-45.186-65.649-75.096-9.303-23.78-13.112-47.881-10.962-69.355 3.7404-37.35 18.669-69.18 44.652-95.205 24.328-24.367 53.374-38.719 89.151-44.051 12.861-1.9168 21.142-1.9247 35.455-0.0337 48.761 6.4419 88.969 32.868 114.68 75.37 14.727 24.346 22.976 60.457 20.182 88.355-3.7404 37.35-18.669 69.18-44.652 95.205-20.393 20.426-43.433 33.451-71.755 40.566-18.42 4.6272-33.91 5.7713-51.57 3.8092zm135.42-348.37c-19.234-11.884-36.989-19.52-60.5-26.021-20.961-5.7957-35.398-7.6525-59.5-7.6525-16.53 0-23.767 0.4466-34 2.0981-24.763 3.9965-51.081 12.559-71.394 23.228l-11.489 6.0343-106.31-106.31c-58.47-58.468-106.31-106.77-106.31-107.35 0-2.241 27.739-16.463 32.11-16.463 1.0831 0 3.6598-0.86243 5.7259-1.9165 2.0662-1.0541 5.5358-2.2383 7.7102-2.6316 2.1744-0.39331 4.8535-1.1847 5.9535-1.7586 2.2081-1.152 6.2452-2.1222 17.5-4.2053 4.125-0.7635 9.075-1.9062 11-2.5393s7.325-1.5129 12-1.9552c4.675-0.44224 12.55-1.6117 17.5-2.5989 7.8551-1.5665 14.724-1.7948 54-1.7948 39.335 0 46.133 0.22663 54 1.8001 4.95 0.99006 13.05 2.1571 18 2.5935s10.575 1.3347 12.5 1.9963c1.925 0.66162 6.65 1.7831 10.5 2.4923 3.85 0.70913 9.475 2.0377 12.5 2.9524s8.1076 2.2645 11.295 2.9997 6.5974 2.0632 7.5787 2.9513c0.9813 0.88806 2.7069 1.6147 3.8346 1.6147 2.0512 0 11.143 3.6341 16.792 6.7123 1.65 0.89902 6.7197 3.5183 11.266 5.8206 4.5462 2.3023 9.0817 4.9242 10.079 5.8266 0.99705 0.90232 2.285 1.6406 2.8621 1.6406s1.7144 1.0017 2.5274 2.2261c1.3094 1.972 1.7513 2.0816 3.872 0.96041 4.4874-2.3725 6.8785-3.8626 8.637-5.3825 0.96629-0.83514 4.2717-2.6865 7.3453-4.1141s6.1662-3.2918 6.8724-4.1428 1.8674-1.5471 2.5805-1.5471c0.71308 0 2.5705-0.66188 4.1276-1.4709 1.5571-0.80897 5.756-2.6533 9.331-4.0986s8.525-3.4621 11-4.4818 6.075-2.1245 8-2.455 5.075-1.1928 7-1.9162c6.2566-2.351 10.399-3.4063 16-4.076 3.025-0.36166 7.8794-1.5225 10.788-2.5796s7.4759-1.9221 10.151-1.9221 10.195-0.97955 16.712-2.1768c11.089-2.037 14.898-2.1778 59.349-2.1926 41.427-0.0138 48.779 0.21442 57.5 1.785 5.5 0.99048 13.825 2.1514 18.5 2.5799 4.675 0.42846 10.525 1.4699 13 2.3143s7.2 1.9949 10.5 2.5568c9.3442 1.5909 15.607 3.2913 28.5 7.7371 2.475 0.85347 6.2004 1.9087 8.2787 2.345 2.0783 0.43628 4.5533 1.4731 5.5 2.304 0.94673 0.83091 2.8463 1.8534 4.2213 2.2722 4.7795 1.4557 16.742 7.2494 17.5 8.4755 0.50622 0.81907-36.835 38.832-111.12 113.12-61.534 61.536-112.11 111.88-112.38 111.88-0.27592-3e-3 -4.5517-2.5084-9.5017-5.5668z"/>
            <path d="m367.5 836.86c-45.743-3.9398-97.393-17.873-137.5-37.094-75.177-36.027-142.76-103.62-178.75-178.77-28.053-58.576-42.307-132.32-37.209-192.5 6.927-81.782 38.025-159.1 85.198-211.83 7.2958-8.1546 15.218-16.438 17.606-18.408l4.3406-3.5816 103 103-7.1859 8.9068c-20.765 25.738-37.578 58.357-45.31 87.907-5.1534 19.695-6.9474 34.93-6.9474 59 0 17.643 0.41917 24.574 2.1167 35 7.9602 48.888 29.862 91.941 64.416 126.62 34.778 34.908 78.023 57.008 127.23 65.02 10.426 1.6975 17.357 2.1167 35 2.1167s24.574-0.41917 35-2.1167c49.204-8.0115 92.448-30.112 127.23-65.02 34.554-34.683 56.456-77.735 64.416-126.62 3.0161-18.524 3.0161-51.476 0-70-6.2923-38.645-21.061-73.236-44.18-103.48l-7.1383-9.3378 100.57-100.59 4.552 4.2146c2.5036 2.318 8.1039 7.1338 12.445 10.702 4.3595 3.5829 10.579 10.069 13.893 14.487 3.2998 4.4 8.5685 10.7 11.708 14 7.7226 8.1169 21.587 28.677 27.985 41.5 2.8813 5.775 5.8296 11.175 6.5518 12 2.4448 2.7929 15.344 40.396 19.896 58 4.9168 19.014 9.8032 48.035 11.501 68.304 5.1705 61.738-9.322 135.46-38.3 194.83-31.285 64.094-84.82 122.26-147.63 160.39-48.041 29.167-108.32 48.165-169.5 53.426-13.926 1.1972-40.598 1.1566-55-0.0839zm8-232.02c-46.504-5.2077-87.796-32.415-113.38-74.706-14.668-24.249-22.106-58.656-19.323-89.387 3.4055-37.606 17.433-67.77 43.793-94.172 33.968-34.023 79.595-49.428 127.61-43.085 47.104 6.223 86.209 32.264 111.68 74.37 14.668 24.249 22.106 58.656 19.323 89.387-3.4055 37.606-17.433 67.77-43.793 94.172-33.365 33.419-77.943 48.792-125.91 43.42z"/>
            <path d="m375.5 604.84c-46.504-5.2077-87.796-32.415-113.38-74.706-14.668-24.249-22.106-58.656-19.323-89.387 3.4055-37.606 17.433-67.77 43.793-94.172 33.968-34.023 79.595-49.428 127.61-43.085 47.104 6.223 86.209 32.264 111.68 74.37 14.668 24.249 22.106 58.656 19.323 89.387-3.4055 37.606-17.433 67.77-43.793 94.172-33.365 33.419-77.943 48.792-125.91 43.42z"/>
        </g>
    </g>
    <g display="none" fill="none">
        <rect transform="rotate(90)" x="7.3342" y="-19.616" width="12.282" height="12.282" display="inline" stroke="#000" stroke-width=".065984"/>
        <rect x="6.7726" y="8.112" width="13.405" height="10.726" stroke="#5261ff" stroke-linecap="round" stroke-linejoin="round" stroke-width=".06524"/>
        <rect transform="rotate(90)" x="6.7726" y="-18.838" width="13.405" height="10.726" display="inline" stroke="#0f0" stroke-linecap="round" stroke-linejoin="round" stroke-width=".06524"/>
    </g>
</svg>
