<?xml version="1.0" encoding="UTF-8"?>
<svg version="1.1" viewBox="0 0 28.747 28.747" xmlns="http://www.w3.org/2000/svg">
    <defs>
        <filter id="filter6206-7" color-interpolation-filters="sRGB">
            <feGaussianBlur stdDeviation="0.658125"/>
        </filter>
    </defs>
    <g transform="translate(0 -1093.8)">
        <path transform="matrix(1.0781 0 0 1.0641 -.093733 2.7509)" d="m4.4177 1028.2v1.6051h-1.6052v18.192h1.6052v2.1402h18.192v-2.1402h2.1402v-18.192h-2.1402v-1.6051z" fill="#232323" filter="url(#filter6206-7)" opacity=".2"/>
        <rect x="2.9987" y="1096.8" width="22.749" height="22.749" rx="1.1973" ry="1.1974" fill="#232323"/>
        <g transform="translate(-22.32 1056.5)">
            <path d="m0 0h51.2v51.2h-51.2z" fill="none" stroke-width="1.0667"/>
            <g transform="matrix(.33601 0 0 .33601 1.5296 73.043)">
                <path d="m0 0h51.2v51.2h-51.2z" fill="none" stroke-width="1.0667"/>
            </g>
            <g transform="matrix(.37187 0 0 .37187 38.802 63.239)">
                <path d="m0 0h51.2v51.2h-51.2z" fill="none" stroke-width="1.0667"/>
                <g transform="matrix(2.6891 0 0 2.6891 -82.906 -48.45)">
                    <path d="m0 0h51.2v51.2h-51.2z" fill="none" stroke-width="1.0667"/>
                </g>
            </g>
        </g>
        <path d="m4.1958 1096.8c-0.66332 0-1.1979 0.5346-1.1979 1.1979v0.3334c0-0.6634 0.53459-1.1979 1.1979-1.1979h20.354c0.66332 0 1.1979 0.5345 1.1979 1.1979v-0.3334c0-0.6633-0.5346-1.1979-1.1979-1.1979z" fill="#fff" opacity=".2"/>
        <rect x="128" y="546.52" width="42.667" height="42.667" fill="none" stroke-width="1.0667"/>
        <rect x="128" y="631.85" width="42.667" height="42.667" fill="none" stroke-width="1.0667"/>
        <rect x="128" y="674.52" width="42.667" height="42.667" fill="none" stroke-width="1.0667"/>
        <rect x="128" y="589.19" width="42.667" height="42.667" fill="none" stroke-width="1.0667"/>
        <rect x="128" y="717.19" width="42.667" height="42.667" fill="none" stroke-width="1.0667"/>
        <rect x="213.33" y="546.52" width="42.667" height="42.667" fill="none" stroke-width="1.0667"/>
        <rect x="213.33" y="631.85" width="42.667" height="42.667" fill="none" stroke-width="1.0667"/>
        <rect x="213.33" y="674.52" width="42.667" height="42.667" fill="none" stroke-width="1.0667"/>
        <rect x="213.33" y="589.19" width="42.667" height="42.667" fill="none" stroke-width="1.0667"/>
        <rect x="213.33" y="717.19" width="42.667" height="42.667" fill="none" stroke-width="1.0667"/>
        <rect x="298.67" y="546.52" width="42.667" height="42.667" fill="none" stroke-width="1.0667"/>
        <rect x="298.67" y="631.85" width="42.667" height="42.667" fill="none" stroke-width="1.0667"/>
        <rect x="298.67" y="674.52" width="42.667" height="42.667" fill="none" stroke-width="1.0667"/>
        <rect x="298.67" y="589.19" width="42.667" height="42.667" fill="none" stroke-width="1.0667"/>
        <rect x="298.67" y="717.19" width="42.667" height="42.667" fill="none" stroke-width="1.0667"/>
        <rect x="170.67" y="546.52" width="42.667" height="42.667" fill="none" stroke-width="1.0667"/>
        <rect x="170.67" y="631.85" width="42.667" height="42.667" fill="none" stroke-width="1.0667"/>
        <rect x="170.67" y="674.52" width="42.667" height="42.667" fill="none" stroke-width="1.0667"/>
        <rect x="170.67" y="589.19" width="42.667" height="42.667" fill="none" stroke-width="1.0667"/>
        <rect x="170.67" y="717.19" width="42.667" height="42.667" fill="none" stroke-width="1.0667"/>
        <rect x="256" y="546.52" width="42.667" height="42.667" fill="none" stroke-width="1.0667"/>
        <rect x="256" y="631.85" width="42.667" height="42.667" fill="none" stroke-width="1.0667"/>
        <rect x="256" y="674.52" width="42.667" height="42.667" fill="none" stroke-width="1.0667"/>
        <rect x="256" y="589.19" width="42.667" height="42.667" fill="none" stroke-width="1.0667"/>
        <rect x="256" y="717.19" width="42.667" height="42.667" fill="none" stroke-width="1.0667"/>
        <rect x="128" y="759.85" width="42.667" height="42.667" fill="none" stroke-width="1.0667"/>
        <rect x="213.33" y="759.85" width="42.667" height="42.667" fill="none" stroke-width="1.0667"/>
        <rect x="298.67" y="759.85" width="42.667" height="42.667" fill="none" stroke-width="1.0667"/>
        <rect x="170.67" y="759.85" width="42.667" height="42.667" fill="none" stroke-width="1.0667"/>
        <rect x="256" y="759.85" width="42.667" height="42.667" fill="none" stroke-width="1.0667"/>
        <rect x="341.33" y="589.19" width="42.667" height="42.667" fill="none" stroke-width="1.0667"/>
        <rect x="341.33" y="631.85" width="42.667" height="42.667" fill="none" stroke-width="1.0667"/>
        <rect x="341.33" y="717.19" width="42.667" height="42.667" fill="none" stroke-width="1.0667"/>
        <rect x="341.33" y="546.52" width="42.667" height="42.667" fill="none" stroke-width="1.0667"/>
        <rect x="341.33" y="674.52" width="42.667" height="42.667" fill="none" stroke-width="1.0667"/>
        <rect x="341.33" y="759.85" width="42.667" height="42.667" fill="none" stroke-width="1.0667"/>
        <rect x="160" y="578.52" width="192" height="192" fill="none" stroke-width="1.0667"/>
        <g transform="matrix(.37344 0 0 .37344 4.7333 1097.4)">
            <path d="m0 0h51.2v51.2h-51.2z" fill="none" stroke-width="1.0667"/>
        </g>
        <g transform="matrix(.36471 0 0 .36471 5.1356 1097.4)">
            <path d="m0 0h51.2v51.2h-51.2z" fill="none" stroke-width="1.0667"/>
        </g>
        <g transform="matrix(.41585 0 0 .41585 84.325 1055.9)">
            <g transform="matrix(.062269 0 0 .062269 -28.238 185.29)">
                <g transform="matrix(38.618 0 0 38.618 14724 -13542)">
                    <g transform="matrix(.71436 0 0 .71436 -400.52 188.34)">
                        <path d="m1293.2-120.67c-181.75 0.2763-511.18 0.13525-699.05 0.13998-2.3216 10.413-3.593 21.251-3.593 32.384v114c207.65 0.73695 494.72 0.38136 706.23 0.3733v-114.37c0-11.18-1.2522-22.07-3.593-32.523zm-458.69 295.56c-78.385-4e-3 -158.85 0.17892-243.95 0.55995v138.63c286.34-0.39317 421.73-0.13827 706.23-0.32664v-137.75c-163.2-0.53005-311.22-1.1113-462.28-1.1199z" opacity="0" stroke-width="1.4932"/>
                    </g>
                </g>
            </g>
        </g>
        <path d="m24.549 1119.5c0.66325 0 1.1979-0.5346 1.1979-1.1979v-0.3333c0 0.6632-0.53461 1.1978-1.1979 1.1978h-20.354c-0.66325 0-1.1979-0.5346-1.1979-1.1978v0.3333c0 0.6633 0.53461 1.1979 1.1979 1.1979z" fill="#232323" opacity=".2"/>
    </g>
    <path d="m14.355 5.1621c-0.28156 0.011127-0.54813 0.034744-0.71484 0.064453 0.30328 0.10239 0.95835 0.28724 1.4023 0.32422 0.07291 0.091667-0.01172-0.015625 0.06641 0.14062-0.60938-0.078125-1.4571-0.2087-1.9375-0.25781 0.4493 0.34151 1.1267 0.54515 1.3984 0.75781-0.35325 0.1736-0.64062 0.15625-1.0625 0.14844-0.82812-0.085938-1.006-0.086935-1.3672 0.20312 0.32631 0.24319 0.50765 0.33384 0.78906 0.49219 0.07047 0.33022 0.10938 0.42969 0.10937 0.70312-0.67187 0.17188-1.0635 0.47021-1.1016 0.72656 0.39296 0.016074 0.55469 0.023437 0.92969 0.054687s0.5545 0.086998 0.78906 0.23438c-0.19512 0.163-0.20103 0.093102-0.71875 0.49219 0.34983 0.014865 0.71313 0.03978 1.0938 0.03125 0.28687 0.23365 0.42187 0.34375 0.80469 0.625s1.1011 0.85689 1.4219 1.1816c0.32074 0.32476 0.7307 0.98993 0.79297 1.3691 0.06227 0.37921 0.07326 0.80109-0.13476 1.2676-0.20803 0.46649-0.46486 0.72066-0.8457 1.0352-0.38084 0.3145-0.93005 0.57656-1.4531 0.7832-0.52308 0.20664-1.023 0.2922-1.4531 0.52344-0.43011 0.23124-0.9681 0.79121-1.2891 1.1758-0.32096 0.38457-0.51356 0.91465-0.60156 1.3848-0.088 0.47012-0.0409 1.0769 0.02539 1.668s0.39734 1.1547 0.70117 1.5469c0.30384 0.39222 0.73591 0.82334 1.2441 1.0664 0.50823 0.24307 1.1314 0.45374 1.8164 0.43164 0.68501-0.0221 1.1448-0.07273 1.6973-0.33789 0.55243-0.26516 1.0761-0.64534 1.4297-1.1094 0.35355-0.46404 0.62914-1.0451 0.76172-1.5312 0.13258-0.48614 0.07539-1.1706-0.0332-1.8066-0.09479-0.55525-0.46949-1.2583-0.70703-1.5566-0.23754-0.29831-0.77734-0.69141-0.77734-0.69141-0.09738 0.15537-0.55527 0.42581-0.91016 0.61719s-0.86279 0.41945-1.1934 0.56055c0.26607 0.09534 0.67083 0.23356 0.98438 0.47656s0.49926 0.56817 0.63281 0.95312c0.13356 0.38496 0.07813 0.85938-0.03125 1.2188-0.10937 0.35938-0.44531 0.75-0.80469 0.96094s-0.76562 0.27344-1.2109 0.24219-0.82032-0.23438-1.1484-0.53125c-0.32811-0.29688-0.50781-0.85156-0.52344-1.2344-0.01563-0.38281 0.05469-0.80469 0.33594-1.2344 0.28125-0.42969 0.89844-0.67187 1.4297-0.90625 0.53125-0.23438 1.2305-0.49219 1.6406-0.75391 0.41016-0.26172 0.77344-0.55078 1.0742-0.83203s0.61719-0.79297 0.82422-1.1406c0.20703-0.34766 0.40168-0.98125 0.45312-1.5273 0.05145-0.54609 0.04163-0.90497-0.0625-1.3574-0.10278-0.44661-0.39213-0.96622-0.68555-1.3418s-0.75391-0.71484-1.0195-0.93359c-0.26562-0.21875-0.69531-0.51172-0.88281-0.65234-0.1875-0.14063-0.33399-0.19922-0.43555-0.42188-0.10157-0.22266-0.10343-0.31671 0.0078-0.5625 0.40813-0.015319 1.4509-0.064407 1.8594-0.054688 0.40844 0.00972 0.39628 0.043907 0.45312 0.21875 0.33029-0.18844 0.47375-0.3251 0.54297-0.58984-0.32922-0.018654-1.1885 0.00497-1.4336 0 9.7e-4 -0.24715-0.0037-0.013656 0.01172-0.17578 0.3357-0.15822 1.5273-0.011718 1.9531-0.08203-0.1875-0.59375-0.64495-0.82155-0.85547-0.88281-0.0035 0.16139-0.01793 0.084698-0.01563 0.21094-0.10316 0.00905-0.23002-0.00771-0.4375-0.00781-0.21318-0.036353-0.41196-0.089746-0.62109-0.1875-0.15445-0.17979-0.15625-0.38672-0.46875-0.57422s-1.2812-0.55469-1.7344-0.60156c-0.22656-0.023437-0.52312-0.024799-0.80469-0.013672zm2.4414 1.2949c0.09277-1e-7 0.16797 0.075202 0.16797 0.16797 0 0.092767-0.0752 0.16797-0.16797 0.16797-0.09277 1e-7 -0.16797-0.075202-0.16797-0.16797 0-0.092767 0.0752-0.16797 0.16797-0.16797zm-3.5137 3.791c-0.54861 0.01925-1.1041 0.14542-1.5645 0.37695-0.46038 0.23153-0.93415 0.61902-1.2852 1.1152-0.35101 0.49621-0.56735 0.94196-0.62891 1.6367-0.061552 0.69476 0.02249 1.2906 0.11719 1.6562 0.094698 0.36568 0.45022 1.0901 0.7793 1.3887 0.32907 0.29861 0.63387 0.5149 0.97461 0.72266 0.31312-0.43858 0.66981-0.74228 0.96289-0.9668s0.56263-0.35185 0.88281-0.56055c-0.35378-0.04309-0.72321-0.14922-1.0273-0.38092-0.30413-0.2317-0.55006-0.58063-0.61334-1.0281-0.06328-0.44744 0.07209-1.0719 0.45624-1.4639 0.38415-0.39204 0.83923-0.5029 1.4071-0.43566 0.56786 0.06724 1.0123 0.44876 1.207 0.82422 0.19476 0.37546 0.1899 0.89296 0.08985 1.3008-0.10006 0.40782-0.46181 0.71743-0.68164 0.9375 0.27183-0.02853 0.39062-0.0625 0.73438-0.1875s0.97627-0.59955 1.248-0.94141c0.27178-0.34185 0.48727-0.70357 0.5332-1.1133s-0.03515-0.67432-0.11328-0.96094c-0.07813-0.28661-0.42349-0.6673-0.76172-1s-0.76518-0.53699-1.209-0.70508c-0.44381-0.16808-0.9592-0.23409-1.5078-0.21484zm-1.709 7.0566c-0.34075-0.01296-0.6875 0.0586-1 0.16406-0.3125 0.10547-0.71484 0.33984-1.0273 0.68359s-0.46484 0.62109-0.53906 0.76953c-0.074219 0.14844-0.17363 0.29892-0.14062 0.54688 0.2166-0.11533 0.44922-0.14453 0.66797-0.20703s0.53906-0.14062 0.84375-0.21094c0.30469-0.07031 0.49148-0.08218 0.63672-0.12109 0.02414-0.24204 0.04687-0.42969 0.14062-0.75781s0.27825-0.60032 0.41797-0.86719z" fill="#fff"/>
    <g display="none" fill="none">
        <rect transform="rotate(90)" x="7.8232" y="-20.923" width="13.1" height="13.1" display="inline" stroke="#000" stroke-width=".070382"/>
        <rect x="7.2241" y="8.6528" width="14.298" height="11.441" stroke="#5261ff" stroke-linecap="round" stroke-linejoin="round" stroke-width=".069589"/>
        <rect transform="rotate(90)" x="7.2241" y="-20.094" width="14.298" height="11.441" display="inline" stroke="#0f0" stroke-linecap="round" stroke-linejoin="round" stroke-width=".069589"/>
    </g>
</svg>
