<?xml version="1.0" encoding="UTF-8"?>
<svg version="1.1" viewBox="0 0 26.95 26.95" xmlns="http://www.w3.org/2000/svg">
    <defs>
        <filter id="filter6206-7" color-interpolation-filters="sRGB">
            <feGaussianBlur stdDeviation="0.658125"/>
        </filter>
    </defs>
    <g transform="translate(0 -1025.4)">
        <path transform="matrix(1.0107 0 0 .99762 -.087875 2.579)" d="m4.4177 1028.2v1.6051h-1.6052v18.192h1.6052v2.1402h18.192v-2.1402h2.1402v-18.192h-2.1402v-1.6051h-18.192z" fill="#424242" filter="url(#filter6206-7)" opacity=".2"/>
        <rect x="2.8113" y="1028.2" width="21.327" height="21.327" rx="1.1225" ry="1.1226" fill="#424242"/>
        <g transform="translate(-20.925 990.46)">
            <path d="m0 0h48v48h-48z" fill="none"/>
            <g transform="matrix(.33601 0 0 .33601 1.434 68.477)">
                <path d="m0 0h48v48h-48z" fill="none"/>
            </g>
            <g transform="matrix(.37187 0 0 .37187 36.377 59.287)">
                <path d="m0 0h48v48h-48z" fill="none"/>
                <g transform="matrix(2.6891 0 0 2.6891 -77.724 -45.422)">
                    <path d="m0 0h48v48h-48z" fill="none"/>
                </g>
            </g>
        </g>
        <path transform="translate(0 1025.4)" d="m3.9336 2.8105c-0.62186 0-1.123 0.50115-1.123 1.123v0.3125c0-0.6219 0.50118-1.123 1.123-1.123h19.082c0.62186 0 1.123 0.50115 1.123 1.123v-0.3125c0-0.6219-0.50118-1.123-1.123-1.123h-19.082z" fill="#fff" opacity=".2"/>
        <rect x="120" y="512.36" width="40" height="40" fill="none"/>
        <rect x="120" y="592.36" width="40" height="40" fill="none"/>
        <rect x="120" y="632.36" width="40" height="40" fill="none"/>
        <rect x="120" y="552.36" width="40" height="40" fill="none"/>
        <rect x="120" y="672.36" width="40" height="40" fill="none"/>
        <rect x="200" y="512.36" width="40" height="40" fill="none"/>
        <rect x="200" y="592.36" width="40" height="40" fill="none"/>
        <rect x="200" y="632.36" width="40" height="40" fill="none"/>
        <rect x="200" y="552.36" width="40" height="40" fill="none"/>
        <rect x="200" y="672.36" width="40" height="40" fill="none"/>
        <rect x="280" y="512.36" width="40" height="40" fill="none"/>
        <rect x="280" y="592.36" width="40" height="40" fill="none"/>
        <rect x="280" y="632.36" width="40" height="40" fill="none"/>
        <rect x="280" y="552.36" width="40" height="40" fill="none"/>
        <rect x="280" y="672.36" width="40" height="40" fill="none"/>
        <rect x="160" y="512.36" width="40" height="40" fill="none"/>
        <rect x="160" y="592.36" width="40" height="40" fill="none"/>
        <rect x="160" y="632.36" width="40" height="40" fill="none"/>
        <rect x="160" y="552.36" width="40" height="40" fill="none"/>
        <rect x="160" y="672.36" width="40" height="40" fill="none"/>
        <rect x="240" y="512.36" width="40" height="40" fill="none"/>
        <rect x="240" y="592.36" width="40" height="40" fill="none"/>
        <rect x="240" y="632.36" width="40" height="40" fill="none"/>
        <rect x="240" y="552.36" width="40" height="40" fill="none"/>
        <rect x="240" y="672.36" width="40" height="40" fill="none"/>
        <rect x="120" y="712.36" width="40" height="40" fill="none"/>
        <rect x="200" y="712.36" width="40" height="40" fill="none"/>
        <rect x="280" y="712.36" width="40" height="40" fill="none"/>
        <rect x="160" y="712.36" width="40" height="40" fill="none"/>
        <rect x="240" y="712.36" width="40" height="40" fill="none"/>
        <rect x="320" y="552.36" width="40" height="40" fill="none"/>
        <rect x="320" y="592.36" width="40" height="40" fill="none"/>
        <rect x="320" y="672.36" width="40" height="40" fill="none"/>
        <rect x="320" y="512.36" width="40" height="40" fill="none"/>
        <rect x="320" y="632.36" width="40" height="40" fill="none"/>
        <rect x="320" y="712.36" width="40" height="40" fill="none"/>
        <rect x="150" y="542.36" width="180" height="180" fill="none"/>
        <g transform="matrix(.37344 0 0 .37344 4.4375 1028.8)">
            <path d="m0 0h48v48h-48z" fill="none"/>
        </g>
        <g transform="matrix(.36471 0 0 .36471 4.8146 1028.8)">
            <path d="m0 0h48v48h-48z" fill="none"/>
        </g>
        <g transform="matrix(.41585 0 0 .41585 79.055 989.88)">
            <g transform="matrix(.062269 0 0 .062269 -26.473 173.71)">
                <g transform="matrix(38.618 0 0 38.618 13804 -12696)">
                    <g transform="matrix(.71436 0 0 .71436 -375.49 176.57)">
                        <path transform="matrix(1.3999 0 0 1.3999 525.63 -247.17)" d="m490.56 95.75c-121.72 0.18504-342.34 0.090577-468.16 0.09375-1.5548 6.9739-2.4062 14.232-2.4062 21.688v76.344c139.06 0.49354 331.32 0.2554 472.97 0.25v-76.594c0-7.4875-0.8386-14.78-2.4062-21.781zm-307.19 197.94c-52.495-3e-3 -106.38 0.11982-163.38 0.375v92.844c191.76-0.26331 282.43-0.0926 472.97-0.21875v-92.25c-109.29-0.35498-208.43-0.74426-309.59-0.75z" opacity="0"/>
                    </g>
                </g>
            </g>
        </g>
        <path d="m23.015 1049.6c0.6218 0 1.123-0.5012 1.123-1.123v-0.3125c0 0.6218-0.5012 1.123-1.123 1.123h-19.082c-0.6218 0-1.123-0.5012-1.123-1.123v0.3125c0 0.6218 0.5012 1.123 1.123 1.123h19.082z" fill="#424242" opacity=".2"/>
    </g>
    <g transform="translate(2.8062 -1.6838)">
        <path transform="translate(-2.8062 1.6838)" d="m13.75 7.8301 0.001953 0.0019531c-6.1033 0.028933 1.1199-0.01462-8.9062 0.039063l0.25195 0.64648c0.051486 0.11327 0.14082 0.32052 0.26953 0.61914 0.13386 0.29347 0.28784 0.63409 0.46289 1.0254 0.17505 0.38615 0.35833 0.79603 0.54883 1.2285 0.19565 0.43248 0.37892 0.8397 0.54883 1.2207 0.14838 0.33273 0.27196 0.60915 0.38477 0.86328v0.001953c-0.1128 0.25413-0.23639 0.53056-0.38477 0.86328-0.16991 0.381-0.35318 0.78626-0.54883 1.2188-0.1905 0.43249-0.37377 0.84237-0.54883 1.2285-0.17505 0.3913-0.32903 0.73387-0.46289 1.0273-0.12872 0.29862-0.21804 0.50392-0.26953 0.61719l-0.25195 0.64648c10.026 0.05369 2.8029 0.012076 8.9062 0.041016l-0.001953 0.001953h4.4863c0.44793 0 0.85249-0.047959 1.2129-0.14062 0.36556-0.09267 0.68344-0.22001 0.95117-0.38477 0.26258-0.16476 0.4899-0.37006 0.68555-0.61719 0.2008-0.24199 0.36809-0.50589 0.50195-0.78906 0.12357-0.26258 0.21818-0.55383 0.28516-0.87305 0.07208-0.31407 0.12536-0.63462 0.15625-0.95898 0.03089-0.29862 0.047574-0.61189 0.052734-0.94141 0.0096-0.30409 0.016435-0.61728 0.021485-0.93945v-0.001953c-0.0051-0.32217-0.011835-0.63732-0.021485-0.94141-0.0052-0.32952-0.021844-0.64279-0.052734-0.94141-0.03089-0.32436-0.084165-0.64296-0.15625-0.95703-0.06694-0.31922-0.16159-0.61047-0.28516-0.87305-0.13391-0.28318-0.30116-0.54708-0.50195-0.78906-0.19565-0.24713-0.42297-0.45243-0.68555-0.61719-0.26773-0.16476-0.58562-0.29404-0.95117-0.38672-0.3604-0.092676-0.76496-0.13867-1.2129-0.13867h-4.4863zm-6.9082 0.6875h2.9355l0.83398 2.9043h0.007813c0.13901-0.47882 0.277-0.95939 0.41602-1.4434 0.14416-0.48912 0.2841-0.97697 0.41797-1.4609h2.9492l0.011718 0.011719 0.001954 0.0019531-0.009766 0.021484 0.005859-0.019531-0.4375 0.98047-1.7754 3.9609v0.001953l1.7754 3.959 0.4375 0.98047-0.005859-0.017578 0.009766 0.019531-0.001954 0.001953-0.011718 0.011719h-2.9492c-0.13386-0.48384-0.2738-0.96986-0.41797-1.459-0.13901-0.48397-0.277-0.96454-0.41602-1.4434h-0.007813l-0.83398 2.9023h-2.9355c0.15961-0.35525 0.33489-0.74454 0.52539-1.1719 0.1905-0.42734 0.38443-0.86386 0.58008-1.3066 0.19565-0.43764 0.38958-0.8722 0.58008-1.3047 0.19024-0.42676 0.364-0.817 0.52344-1.1719v-0.001953c-0.15943-0.35501-0.33319-0.74707-0.52344-1.1738-0.1905-0.43249-0.38443-0.86705-0.58008-1.3047-0.19565-0.44278-0.38958-0.87735-0.58008-1.3047-0.1905-0.42734-0.36578-0.81857-0.52539-1.1738zm7.5957 0h3.7988c0.37585 0 0.70777 0.037296 0.99609 0.10938 0.29347 0.06694 0.54938 0.16692 0.76562 0.30078 0.22139 0.12872 0.41 0.28802 0.56445 0.47852 0.15961 0.1905 0.29227 0.40378 0.40039 0.64062 0.09783 0.22139 0.17846 0.47268 0.24023 0.75586 0.06694 0.27803 0.11293 0.56129 0.13867 0.84961 0.02574 0.29862 0.044387 0.60852 0.054687 0.92773 0.01446 0.29346 0.020585 0.59224 0.021485 0.89453v0.001953c-8.93e-4 0.30229-0.006975 0.59912-0.021485 0.89258-0.0103 0.31922-0.028937 0.62911-0.054687 0.92773-0.02575 0.28832-0.071736 0.57158-0.13867 0.84961-0.06178 0.28317-0.14241 0.53642-0.24023 0.75781-0.10812 0.23684-0.24078 0.45012-0.40039 0.64062-0.15446 0.1905-0.34306 0.3498-0.56445 0.47852-0.21624 0.13386-0.47216 0.23384-0.76562 0.30078-0.28833 0.07208-0.62024 0.10742-0.99609 0.10742h-3.7988l0.041016-3.3926c0.81835-0.001193 1.5625-0.74599 1.5625-1.5645-1e-6 -0.81847-0.74415-1.5633-1.5625-1.5645l-0.041016-3.3926zm2.627 1.8926v6.131h0.51758c0.25228 0 0.45225-0.037306 0.60156-0.10938 0.14931-0.07208 0.26066-0.22002 0.33789-0.44141 0.08238-0.22139 0.13565-0.53537 0.15625-0.94726 0.02475-0.39603 0.03621-0.92762 0.03711-1.5664v-0.001953c-9.05e-4 -0.63878-0.01236-1.1704-0.03711-1.5664-0.0206-0.41189-0.073875-0.72783-0.15625-0.94922-0.07723-0.22139-0.18858-0.36932-0.33789-0.44141-0.14931-0.07207-0.34928-0.10742-0.60156-0.10742h-0.51758z" fill="#fff"/>
    </g>
    <g display="none" fill="none">
        <rect transform="rotate(90)" x="7.3342" y="-19.616" width="12.282" height="12.282" display="inline" stroke="#000" stroke-width=".065984"/>
        <rect x="6.7726" y="8.112" width="13.405" height="10.726" stroke="#5261ff" stroke-linecap="round" stroke-linejoin="round" stroke-width=".06524"/>
        <rect transform="rotate(90)" x="6.7726" y="-18.838" width="13.405" height="10.726" display="inline" stroke="#0f0" stroke-linecap="round" stroke-linejoin="round" stroke-width=".06524"/>
    </g>
</svg>
