<?xml version="1.0" encoding="UTF-8"?>
<svg version="1.1" viewBox="0 0 28.747 28.747" xmlns="http://www.w3.org/2000/svg">
    <defs>
        <filter id="filter6206-7" color-interpolation-filters="sRGB">
            <feGaussianBlur stdDeviation="0.658125"/>
        </filter>
    </defs>
    <g transform="translate(0 -1093.8)">
        <path transform="matrix(1.0781 0 0 1.0641 -.093733 2.7509)" d="m4.4177 1028.2v1.6051h-1.6052v18.192h1.6052v2.1402h18.192v-2.1402h2.1402v-18.192h-2.1402v-1.6051z" fill="#232323" filter="url(#filter6206-7)" opacity=".2"/>
        <rect x="2.9987" y="1096.8" width="22.749" height="22.749" rx="1.1973" ry="1.1974" fill="#232323"/>
        <g transform="translate(-22.32 1056.5)">
            <path d="m0 0h51.2v51.2h-51.2z" fill="none" stroke-width="1.0667"/>
            <g transform="matrix(.33601 0 0 .33601 1.5296 73.043)">
                <path d="m0 0h51.2v51.2h-51.2z" fill="none" stroke-width="1.0667"/>
            </g>
            <g transform="matrix(.37187 0 0 .37187 38.802 63.239)">
                <path d="m0 0h51.2v51.2h-51.2z" fill="none" stroke-width="1.0667"/>
                <g transform="matrix(2.6891 0 0 2.6891 -82.906 -48.45)">
                    <path d="m0 0h51.2v51.2h-51.2z" fill="none" stroke-width="1.0667"/>
                </g>
            </g>
        </g>
        <path d="m4.1958 1096.8c-0.66332 0-1.1979 0.5346-1.1979 1.1979v0.3334c0-0.6634 0.53459-1.1979 1.1979-1.1979h20.354c0.66332 0 1.1979 0.5345 1.1979 1.1979v-0.3334c0-0.6633-0.5346-1.1979-1.1979-1.1979z" fill="#fff" opacity=".2"/>
        <rect x="128" y="546.52" width="42.667" height="42.667" fill="none" stroke-width="1.0667"/>
        <rect x="128" y="631.85" width="42.667" height="42.667" fill="none" stroke-width="1.0667"/>
        <rect x="128" y="674.52" width="42.667" height="42.667" fill="none" stroke-width="1.0667"/>
        <rect x="128" y="589.19" width="42.667" height="42.667" fill="none" stroke-width="1.0667"/>
        <rect x="128" y="717.19" width="42.667" height="42.667" fill="none" stroke-width="1.0667"/>
        <rect x="213.33" y="546.52" width="42.667" height="42.667" fill="none" stroke-width="1.0667"/>
        <rect x="213.33" y="631.85" width="42.667" height="42.667" fill="none" stroke-width="1.0667"/>
        <rect x="213.33" y="674.52" width="42.667" height="42.667" fill="none" stroke-width="1.0667"/>
        <rect x="213.33" y="589.19" width="42.667" height="42.667" fill="none" stroke-width="1.0667"/>
        <rect x="213.33" y="717.19" width="42.667" height="42.667" fill="none" stroke-width="1.0667"/>
        <rect x="298.67" y="546.52" width="42.667" height="42.667" fill="none" stroke-width="1.0667"/>
        <rect x="298.67" y="631.85" width="42.667" height="42.667" fill="none" stroke-width="1.0667"/>
        <rect x="298.67" y="674.52" width="42.667" height="42.667" fill="none" stroke-width="1.0667"/>
        <rect x="298.67" y="589.19" width="42.667" height="42.667" fill="none" stroke-width="1.0667"/>
        <rect x="298.67" y="717.19" width="42.667" height="42.667" fill="none" stroke-width="1.0667"/>
        <rect x="170.67" y="546.52" width="42.667" height="42.667" fill="none" stroke-width="1.0667"/>
        <rect x="170.67" y="631.85" width="42.667" height="42.667" fill="none" stroke-width="1.0667"/>
        <rect x="170.67" y="674.52" width="42.667" height="42.667" fill="none" stroke-width="1.0667"/>
        <rect x="170.67" y="589.19" width="42.667" height="42.667" fill="none" stroke-width="1.0667"/>
        <rect x="170.67" y="717.19" width="42.667" height="42.667" fill="none" stroke-width="1.0667"/>
        <rect x="256" y="546.52" width="42.667" height="42.667" fill="none" stroke-width="1.0667"/>
        <rect x="256" y="631.85" width="42.667" height="42.667" fill="none" stroke-width="1.0667"/>
        <rect x="256" y="674.52" width="42.667" height="42.667" fill="none" stroke-width="1.0667"/>
        <rect x="256" y="589.19" width="42.667" height="42.667" fill="none" stroke-width="1.0667"/>
        <rect x="256" y="717.19" width="42.667" height="42.667" fill="none" stroke-width="1.0667"/>
        <rect x="128" y="759.85" width="42.667" height="42.667" fill="none" stroke-width="1.0667"/>
        <rect x="213.33" y="759.85" width="42.667" height="42.667" fill="none" stroke-width="1.0667"/>
        <rect x="298.67" y="759.85" width="42.667" height="42.667" fill="none" stroke-width="1.0667"/>
        <rect x="170.67" y="759.85" width="42.667" height="42.667" fill="none" stroke-width="1.0667"/>
        <rect x="256" y="759.85" width="42.667" height="42.667" fill="none" stroke-width="1.0667"/>
        <rect x="341.33" y="589.19" width="42.667" height="42.667" fill="none" stroke-width="1.0667"/>
        <rect x="341.33" y="631.85" width="42.667" height="42.667" fill="none" stroke-width="1.0667"/>
        <rect x="341.33" y="717.19" width="42.667" height="42.667" fill="none" stroke-width="1.0667"/>
        <rect x="341.33" y="546.52" width="42.667" height="42.667" fill="none" stroke-width="1.0667"/>
        <rect x="341.33" y="674.52" width="42.667" height="42.667" fill="none" stroke-width="1.0667"/>
        <rect x="341.33" y="759.85" width="42.667" height="42.667" fill="none" stroke-width="1.0667"/>
        <rect x="160" y="578.52" width="192" height="192" fill="none" stroke-width="1.0667"/>
        <g transform="matrix(.37344 0 0 .37344 4.7333 1097.4)">
            <path d="m0 0h51.2v51.2h-51.2z" fill="none" stroke-width="1.0667"/>
        </g>
        <g transform="matrix(.36471 0 0 .36471 5.1356 1097.4)">
            <path d="m0 0h51.2v51.2h-51.2z" fill="none" stroke-width="1.0667"/>
        </g>
        <g transform="matrix(.41585 0 0 .41585 84.325 1055.9)">
            <g transform="matrix(.062269 0 0 .062269 -28.238 185.29)">
                <g transform="matrix(38.618 0 0 38.618 14724 -13542)">
                    <g transform="matrix(.71436 0 0 .71436 -400.52 188.34)">
                        <path d="m1293.2-120.67c-181.75 0.2763-511.18 0.13525-699.05 0.13998-2.3216 10.413-3.593 21.251-3.593 32.384v114c207.65 0.73695 494.72 0.38136 706.23 0.3733v-114.37c0-11.18-1.2522-22.07-3.593-32.523zm-458.69 295.56c-78.385-4e-3 -158.85 0.17892-243.95 0.55995v138.63c286.34-0.39317 421.73-0.13827 706.23-0.32664v-137.75c-163.2-0.53005-311.22-1.1113-462.28-1.1199z" opacity="0" stroke-width="1.4932"/>
                    </g>
                </g>
            </g>
        </g>
        <path d="m24.549 1119.5c0.66325 0 1.1979-0.5346 1.1979-1.1979v-0.3333c0 0.6632-0.53461 1.1978-1.1979 1.1978h-20.354c-0.66325 0-1.1979-0.5346-1.1979-1.1978v0.3333c0 0.6633 0.53461 1.1979 1.1979 1.1979z" fill="#232323" opacity=".2"/>
    </g>
    <path d="m14.298 8.9033 0.2271-0.44619c0.35984-0.70696 0.70005-1.2295 0.80047-1.2295 0.0591 0 0.04513 0.060372-0.0783 0.33843-0.11094 0.24994-0.14092 0.40538-0.04963 0.25744 0.0239-0.038731 0.1286-0.20222 0.23266-0.36331 0.1814-0.28081 0.19299-0.29252 0.281-0.28402 0.12924 0.012447 0.13166 0.10167 0.01004 0.36867-0.05421 0.11895-0.12406 0.30394-0.15523 0.41108-0.06412 0.22041-0.11639 0.54676-0.13195 0.91943-0.02665 0.25777-3e-3 0.49045 0.02003 0.62446 0.0097 0.12772 0.13207 0.91066 0.18926 1.058l0.03033 0.0781 2.2232 1.69e-4c1.4637 1.15e-4 2.2598 0.01027 2.3305 0.02995 0.12682 0.03521 0.27683 0.16001 0.36736 0.3056l0.06499 0.10451v8.7195l-0.07967 0.13555c-0.04382 0.07455-0.13235 0.17041-0.19672 0.21302l-0.11705 0.07748-2.0258 0.0076c-2.3152 0.0087-2.1025-0.0232-1.9192 0.28831 0.21192 0.36026 0.6039 0.68017 1.07 0.87322 0.12619 0.05227 0.24542 0.11658 0.26495 0.14291 0.0496 0.06688 0.04422 0.1791-0.01151 0.24069-0.045 0.04973-0.18357 0.05193-3.2663 0.05193-3.1814 0-3.2199-6.85e-4 -3.2761-0.0568-0.03125-0.03124-0.05681-0.08298-0.05681-0.11496 0-0.07622 0.12105-0.1863 0.25127-0.22849 0.3143-0.10185 0.70408-0.35356 0.93435-0.6034 0.15184-0.16475 0.3178-0.42242 0.32693-0.50759l7e-3 -0.06507-2.0876-0.01421c-1.9087-0.012925-2.0953-0.01835-2.1773-0.063265-0.11854-0.064872-0.25964-0.23889-0.2941-0.36272-0.017384-0.062477-0.027719-1.6939-0.027813-4.3902l-1.578e-4 -4.2908 0.078106-0.15181c0.049328-0.09588 0.12359-0.18408 0.20155-0.23941l0.12345-0.0876 1.8454-0.0176 0.04734-0.08349c0.07836-0.13814 0.20356-0.14572 0.20356-0.01231 0 0.10779 0.05441 0.11287 0.15582 0.01458 0.10736-0.10406 0.18508-0.09934 0.23689 0.01436 0.02646 0.05806 0.05226 0.07046 0.14677 0.07046 0.114 0 0.11573-0.0016 0.29704-0.28194 0.10031-0.15506 0.29821-0.4255 0.43979-0.60096s0.25742-0.33617 0.25742-0.35711c0 0 0.17076-0.21328 0.24944-0.46247 0.07867-0.24919 0.05657-0.22238 0.0812-0.36079 0.12283-0.69036-0.10975-1.9456-0.54063-2.9179-0.04067-0.091769-0.07394-0.18443-0.07394-0.20592 0-0.073046 0.08049-0.0394 0.17786 0.074344 0.0534 0.06238 0.10445 0.10604 0.11348 0.097029 9e-3 -0.00896-0.0081-0.087621-0.03806-0.17467-0.06941-0.20179-0.07007-0.19665 0.03159-0.24922 0.10689-0.055274 0.12479-0.044231 0.2143 0.13243 0.10033 0.19799 0.27472 0.46578 0.57766 0.88705 0.85604 1.1904 1.1386 1.6748 1.1386 1.9519 0 0.066742-0.04787 0.20986-0.12781 0.38208-0.07028 0.15146-0.10651 0.31168-0.12781 0.31443-0.07345 0.1734 0.0076 0.00131-0.23952 0.50767l-0.12326 0.31242c-0.14834 0.37602-0.29991 0.88485-0.27539 0.92453 0.01083 0.01747 0.15234 0.02555 0.36242 0.02071l0.3447-0.0079 0.02447-0.11366c0.05475-0.25431 0.19655-0.74942 0.26242-0.91627 0.0386-0.097792 0.07019-0.19087 0.07019-0.20682m0.79889 10.818c0.09229-0.04919 0.16149-0.09574 0.15378-0.10345-0.02104-0.02103-0.61185 0.08509-0.61185 0.1099 0 0.02804 0.13783 0.07789 0.22324 0.08074 0.03687 0.0012 0.14254-0.03801 0.23483-0.0872zm-0.29914-0.14906c0.84086-0.15612 1.567-0.6066 2.1513-1.3346 0.35349-0.44041 0.55462-0.81075 0.70366-1.2956 0.19005-0.61828-0.02851-2.1062-0.48987-3.3351-0.18473-0.49206-0.33382-0.76319-0.68063-1.2378-0.66378-0.90837-1.0546-1.7927-1.2766-2.8886-0.1297-0.64037-0.14407-1.4558-0.0359-2.0373 0.01138-0.061375 0.0072-0.078654-0.01439-0.058618-0.08059 0.074853-0.48809 0.9114-0.68487 1.4059-0.34375 0.86385-0.47778 1.4113-0.50412 2.0592-0.01403 0.34506-0.0078 0.43707 0.04778 0.69586 0.0832 0.38806 0.18174 0.6222 0.65143 1.5479 0.39381 0.77617 0.4747 0.97084 0.50427 1.2137 0.02858 0.23476-0.1115 0.29206-0.32893 0.13456-0.14288-0.1035-0.20328-0.19732-0.31856-0.4948-0.21479-0.55429-0.39285-0.8407-0.88983-1.4313-0.47786-0.56787-0.71122-0.88782-0.85255-1.1689-0.15764-0.31349-0.1997-0.54004-0.17618-0.9489 0.03024-0.5259 0.1941-0.99427 0.70635-2.0191 0.33278-0.66579 0.3264-0.64015 0.23485-0.94361-0.08509-0.28203-0.25396-0.612-0.50532-0.98731-0.2203-0.32895-0.82563-1.1049-0.8365-1.0723-0.0045 0.013718 0.02257 0.10712 0.06032 0.20758 0.35046 0.9327 0.47819 2.2107 0.28719 2.8733-0.06979 0.24213-0.26516 0.56945-0.55195 0.92472-0.45524 0.56394-0.67331 0.95044-0.82081 1.4548-0.26629 0.91047-0.18136 1.2881 0.72903 3.242 0.39514 0.84804 0.50546 1.1809 0.54928 1.6571 0.03837 0.41714 0.01989 0.49702-0.11504 0.49702-0.10302 0-0.20535-0.1214-0.35717-0.42374-0.13245-0.26376-0.18429-0.34355-0.56005-0.86193-0.57684-0.79578-0.8761-1.3789-1.0456-2.0374-0.07394-0.28728-0.09425-0.43101-0.10639-0.75321-0.01808-0.4793 0.01525-0.78816 0.14984-1.3889 0.11611-0.51818 0.12072-0.63182 0.01864-0.45908-0.21676 0.3668-0.66776 1.6519-0.85572 2.4383-0.22297 0.93289-0.27545 1.5198-0.1772 1.9818 0.18676 0.87809 1.0406 2.423 1.82 3.2932 0.81085 0.90529 1.2254 1.2224 1.8775 1.4364 0.56376 0.185 1.1135 0.22226 1.6927 0.11474zm0.58486-0.0081c-0.0205-0.0081-0.045-0.0072-0.05444 0.0023-0.0095 0.0094 0.0073 0.01616 0.03727 0.01493 0.03308-0.0014 0.03982-0.0081 0.01716-0.01716zm-4.2538-1.4537c0.0085-0.01353-0.01038-0.04777-0.04166-0.07607-0.12355-0.11182-0.60328-0.78864-0.84965-1.1987-0.14312-0.23822-0.27332-0.43313-0.28933-0.43313-0.019388 0-0.025899 0.2404-0.019512 0.71846 0.00869 0.65078 0.014749 0.72637 0.064144 0.80236 0.060386 0.09289 0.14164 0.15949 0.22891 0.18758 0.08718 0.02804 0.88973 0.02764 0.90711-4.73e-4zm7.8749-0.04841c0.04407-0.03234 0.10247-0.10265 0.12978-0.15621 0.04628-0.09076 0.04967-0.28747 0.0497-2.8907 5.8e-5 -3.1112 0.01219-2.9214-0.19469-3.05-0.10186-0.06334-0.11966-0.06448-1.1375-0.07279-0.5687-0.0047-1.0526-0.0014-1.0754 0.0076-0.0302 0.01164 0.0082 0.0714 0.14259 0.22146 0.2012 0.22486 0.37007 0.53177 0.50951 0.92596 0.13737 0.38835 0.38558 1.436 0.50894 2.1483 0.12119 0.69961 0.28089 1.7671 0.28089 1.8774 0 0.04362-0.13351 0.23376-0.3811 0.54276-0.2096 0.26159-0.37463 0.48609-0.36672 0.49889 0.0079 0.01285 0.33826 0.01946 0.73412 0.01482 0.67599-0.0079 0.7246-0.01204 0.79985-0.06728zm-1.1083-0.95263c0.07289-0.10852 0.07275-0.12111-0.0059-0.58697-0.0253-0.14998-0.06328-0.07968-0.08492 0.15719-0.01106 0.12096-0.05687 0.33045-0.10182 0.46554-0.04495 0.13508-0.08118 0.2565-0.08054 0.26982 0.0016 0.03128 0.1839-0.17279 0.27309-0.30558zm-5.5437-1.5235c-0.04981-0.30129-0.24689-0.82555-0.59524-1.5834-0.56867-1.2372-0.67678-1.5125-0.76414-1.9456-0.02983-0.14784-0.03646-0.15669-0.12382-0.16511-0.085-0.0081-0.09231-0.0025-0.09231 0.07359 0 0.38472 0.19888 1.127 0.43866 1.6374 0.0821 0.17472 0.2773 0.53424 0.4338 0.79893 0.40412 0.68354 0.56388 0.97576 0.60469 1.1061 0.0611 0.19513 0.12625 0.24687 0.09834 0.0781zm-0.67492-0.60859c-0.05436-0.09877-0.19731-0.34573-0.31765-0.5488-0.49257-0.83121-0.71808-1.4562-0.81723-2.265-0.03399-0.27732-0.07067-0.50422-0.08151-0.50422-0.03849 0-0.11022 0.26802-0.10968 0.40979 0.0021 0.56088 0.29194 1.4554 0.67127 2.0723 0.25528 0.41518 0.71415 1.055 0.73889 1.0302 0.0081-0.0081-0.02974-0.09556-0.0841-0.19432zm3.1762-0.78312c-0.07201-0.19672-0.1908-0.47325-0.27121-0.63133-0.07186-0.14131-0.35709-0.56867-0.37952-0.56867-5e-3 0 0.07977 0.18213 0.1884 0.40473s0.22331 0.47503 0.25485 0.56094c0.05916 0.16115 0.17554 0.34083 0.22077 0.34083 0.01414 0 0.0081-0.04793-0.01325-0.10651zm2.3396-1.017c-0.16789-0.48012-0.2535-0.63501-0.50764-0.91845-0.75361-0.84051-1.2658-2.1986-1.3186-3.4965-0.01027-0.25226-0.0059-0.5126 0.01027-0.60971 0.04016-0.24162-0.0047-0.2576-0.11435-0.040618l-0.09103 0.18033 0.01989 0.34006c0.01095 0.18703 0.0574 0.52521 0.10322 0.7515 0.08157 0.40271 0.29402 1.1267 0.39684 1.3524 0.02848 0.06249 0.08562 0.19669 0.12698 0.29822 0.1371 0.33653 0.38069 0.74742 0.69876 1.1787 0.29995 0.40671 0.63032 0.9922 0.73722 1.3065 0.02872 0.08446 0.04101 0.09861 0.04786 0.05516 0.0051-0.03215-0.04416-0.21108-0.1094-0.39763zm-3.0224-0.85298c-0.20576-0.45153-0.18317-0.42236-0.33457-0.43214-0.10014-0.0064-0.13399 0.0015-0.13399 0.03117 0 0.04262 0.5657 0.71355 0.5852 0.69405 0.0064-0.0064-0.04611-0.13828-0.11665-0.29308zm-0.83694-0.4077c-0.01626-0.03037-0.04425-0.06429-0.06219-0.07538-0.02187-0.01352-0.02504-7e-3 -0.0096 0.01971 0.06092 0.10559 0.12521 0.15544 0.07182 0.05567zm-0.23977-0.42191c-0.16107-0.36828-0.19966-0.58411-0.17833-0.99738 0.02867-0.55588 0.1856-1.0514 0.69235-2.1861 0.26844-0.60113 0.27088-0.60859 0.23629-0.72426-0.04411-0.14751-0.14697-0.35184-0.22341-0.44377l-0.05881-0.07073 0.05925 0.19882c0.03259 0.10935 0.06543 0.28299 0.07296 0.38587l0.01371 0.18706-0.23066 0.44484c-0.46909 0.90467-0.7475 1.6553-0.78688 2.1213-0.03071 0.36348 0.08126 0.76845 0.30388 1.099 0.08483 0.12596 0.19651 0.26362 0.21389 0.26362 0.0042 0-0.04733-0.12524-0.11427-0.27832z" fill="#fff" stroke-width=".028402"/>
</svg>
