<svg enable-background="new 0 0 1266 559" version="1.1" viewBox="0 0 1266 559" xml:space="preserve" xmlns="http://www.w3.org/2000/svg">
<style type="text/css">
	.st0{fill:#FAFAFA;}
	.st1{fill:#F0F0F0;}
	.st2{fill:#FFFFFF;}
	.st3{fill:#E24329;}
	.st4{fill:#FCA326;}
	.st5{fill:#FC6D26;}
	.st6{fill:#8C929D;}
	.st7{fill:#2E2E2E;}
	.st8{fill:none;stroke:#FCA326;stroke-width:16;stroke-linecap:round;stroke-linejoin:round;stroke-miterlimit:10;}
	.st9{fill:none;stroke:#FC6D26;stroke-width:16;stroke-linecap:round;stroke-linejoin:round;stroke-miterlimit:10;}
	.st10{fill:none;stroke:#E24329;stroke-width:16;stroke-linecap:round;stroke-linejoin:round;stroke-miterlimit:10;}
	.st11{fill:none;stroke:#F0F0F0;stroke-miterlimit:10;}
	.st12{fill:#231F20;}
	.st13{fill:none;stroke:#231F20;stroke-width:16;stroke-linecap:round;stroke-linejoin:round;stroke-miterlimit:10;}
	.st14{display:none;}
	.st15{display:inline;opacity:0.1;fill:#E828E3;}
	.st16{display:inline;}
	.st17{font-family:'SourceSansPro-Semibold';}
	.st18{font-size:24px;}
	.st19{opacity:0.1;fill:#E828E3;}
	.st20{display:inline;fill:#DB3B21;}
	.st21{display:inline;fill:#FC6D26;}
	.st22{display:inline;fill:#2E2E2E;}
	.st23{display:inline;fill:#6E49CB;}
	.st24{display:inline;fill:#380D75;}
	.st25{display:inline;fill:#FCA121;}
	.st26{opacity:0.6;fill:none;stroke:#231F20;stroke-width:2;stroke-miterlimit:10;stroke-dasharray:12,6;}
	.st27{fill:none;stroke:#444444;stroke-width:1.5339;stroke-miterlimit:10;}
</style>
<g id="logo_art">
	
		<path class="st12" d="m461.5 297.62-18.047-55.583c8e-3 0.025 0.011 0.051 0.019 0.076-9e-3 -0.029-0.014-0.058-0.022-0.087-1e-3 -2e-3 -1e-3 -3e-3 -1e-3 -5e-3v-2e-3l-35.828-110.3c-1.959-5.811-7.353-9.711-13.535-9.662-6.2 0.032-11.445 3.856-13.363 9.747l-34.008 104.7h-107.3l-34.071-104.7c-1.916-5.885-7.161-9.709-13.361-9.741h-0.075c-6.105 0-11.508 3.876-13.489 9.752l-35.729 110.2-5e-3 0.014v3e-3c-9e-3 0.028-0.013 0.056-0.022 0.084 8e-3 -0.025 0.011-0.051 0.019-0.076l-18.114 55.587c-2.725 8.391 0.232 17.511 7.36 22.695l156.4 113.64c0.023 0.017 0.049 0.027 0.072 0.044 0.067 0.048 0.132 0.097 0.2 0.142-0.064-0.043-0.124-0.09-0.187-0.134 0 0 0-1e-3 -1e-3 -1e-3 0.01 8e-3 0.022 0.013 0.033 0.02 9e-3 6e-3 0.018 0.01 0.027 0.016 1e-3 1e-3 2e-3 2e-3 4e-3 3e-3 0.242 0.168 0.493 0.322 0.753 0.463 0.036 0.02 0.068 0.045 0.104 0.064 1e-3 0 1e-3 1e-3 2e-3 1e-3 0.022 0.011 0.042 0.025 0.064 0.036 0.017 8e-3 0.035 0.013 0.051 0.021 0.012 6e-3 0.025 0.01 0.037 0.015 0.029 0.014 0.061 0.023 0.09 0.038 0.136 0.065 0.279 0.118 0.419 0.175 0.131 0.054 0.258 0.117 0.392 0.164 6e-3 2e-3 0.011 5e-3 0.017 7e-3 0.022 8e-3 0.042 0.019 0.065 0.027 0.028 0.01 0.055 0.021 0.083 0.03 0.011 3e-3 0.022 5e-3 0.033 8e-3 0.035 0.011 0.073 0.016 0.108 0.026 0.013 4e-3 0.028 6e-3 0.042 0.01 0.188 0.057 0.383 0.098 0.577 0.141 0.076 0.017 0.149 0.041 0.226 0.055 0.011 2e-3 0.021 6e-3 0.033 8e-3 0.025 5e-3 0.048 0.014 0.074 0.018 0.041 7e-3 0.081 0.02 0.123 0.026 0.033 5e-3 0.067 3e-3 0.1 8e-3 6e-3 1e-3 0.011 0 0.017 1e-3h5e-3c0.369 0.053 0.743 0.09 1.124 0.09h7e-3 2e-3 1e-3 3e-3c0.382 0 0.756-0.037 1.126-0.09h4e-3c6e-3 -1e-3 0.012 0 0.018-1e-3 0.033-5e-3 0.068-3e-3 0.101-8e-3 0.042-7e-3 0.082-0.019 0.124-0.026 0.025-4e-3 0.048-0.013 0.073-0.018 0.011-2e-3 0.021-6e-3 0.032-8e-3 0.078-0.015 0.153-0.039 0.231-0.056 0.191-0.042 0.383-0.083 0.57-0.139 0.013-4e-3 0.026-5e-3 0.039-9e-3 0.037-0.011 0.075-0.016 0.112-0.027 0.011-4e-3 0.023-5e-3 0.034-8e-3 0.029-9e-3 0.057-0.021 0.085-0.031 0.022-8e-3 0.042-0.019 0.064-0.027 6e-3 -2e-3 0.011-5e-3 0.017-7e-3 0.142-0.05 0.276-0.116 0.415-0.173 0.129-0.054 0.261-0.102 0.387-0.162 0.031-0.015 0.064-0.024 0.094-0.039 0.012-6e-3 0.026-0.01 0.038-0.016 0.017-8e-3 0.035-0.013 0.052-0.022 0.023-0.012 0.045-0.026 0.067-0.037 0 0 1e-3 0 1e-3 -1e-3 0.037-0.019 0.07-0.046 0.107-0.066 0.258-0.14 0.508-0.293 0.749-0.46 0.019-0.013 0.041-0.023 0.061-0.037 5e-3 -4e-3 0.011-6e-3 0.016-0.01 0.023-0.017 0.05-0.028 0.073-0.045l156.43-113.64c7.125-5.182 10.081-14.301 7.357-22.693zm-67.316-155.57 30.678 94.449h-61.355l30.677-94.449zm25.306 110.42-104.85 134.34 43.674-134.34h61.172zm-134.06 177.49v0c8e-3 0.024 0.021 0.046 0.029 0.071-8e-3 -0.025-0.021-0.047-0.029-0.071zm-14.007-43.146-104.79-134.35h61.176l43.612 134.35zm-79.539-244.77 30.734 94.45h-61.356l30.622-94.45zm-50.568 165.35c-1.516-1.103-2.144-3.05-1.563-4.837l13.465-41.322 98.663 126.49-110.56-80.334zm146.74 126.35c-0.031-0.025-0.061-0.052-0.091-0.078-6e-3 -5e-3 -0.012-0.012-0.019-0.017-0.06-0.05-0.119-0.101-0.177-0.153-0.114-0.099-0.226-0.2-0.333-0.306 9e-3 8e-3 0.019 0.015 0.028 0.023 0.012 0.011 0.025 0.02 0.037 0.031 0.229 0.219 0.47 0.425 0.722 0.615 3e-3 2e-3 5e-3 5e-3 8e-3 7e-3 0.012 9e-3 0.022 0.02 0.034 0.03-0.07-0.05-0.142-0.099-0.209-0.152zm4.974-32.096-48.428-149.18h96.926l-48.498 149.18zm5.252 31.847c-0.06 0.052-0.118 0.104-0.179 0.154-7e-3 6e-3 -0.014 0.013-0.021 0.019-0.031 0.025-0.06 0.052-0.09 0.077-0.066 0.053-0.138 0.101-0.207 0.152 0.012-9e-3 0.022-0.021 0.035-0.029l6e-3 -6e-3c0.252-0.19 0.492-0.394 0.719-0.613 9e-3 -9e-3 0.02-0.016 0.029-0.024 0.012-0.011 0.025-0.02 0.036-0.031-0.106 0.104-0.216 0.203-0.328 0.301zm146.48-126.1-110.55 80.311 98.695-126.46 13.411 41.304c0.582 1.795-0.044 3.743-1.557 4.843z"/>
		
			<path id="path14_9_" class="st12" d="m839.7 198.19h-21.8l0.1 162.5h88.3v-20.1h-66.5l-0.1-142.4z"/>
			<g id="g24_9_" transform="translate(977.33 143.28)">
				<path id="path26_9_" class="st12" d="m13 188.89c-5.5 5.7-14.6 11.4-27 11.4-16.6 0-23.3-8.2-23.3-18.9 0-16.1 11.2-23.8 35-23.8 4.5 0 11.7 0.5 15.4 1.2v30.1h-0.1zm-22.6-98.5c-17.6 0-33.8 6.2-46.4 16.7l7.7 13.4c8.9-5.2 19.8-10.4 35.5-10.4 17.9 0 25.8 9.2 25.8 24.6v7.9c-3.5-0.7-10.7-1.2-15.1-1.2-38.2 0-57.6 13.4-57.6 41.4 0 25.1 15.4 37.7 38.7 37.7 15.7 0 30.8-7.2 36-18.9l4 15.9h15.4v-83.2c-0.1-26.3-11.5-43.9-44-43.9z"/>
			</g>
			<g id="g28_9_" transform="translate(1099.8 143.13)">
				<path id="path30_9_" class="st12" d="m-17.7 201.19c-8.2 0-15.4-1-20.8-3.5v-75.1c7.4-6.2 16.6-10.7 28.3-10.7 21.1 0 29.2 14.9 29.2 39 0 34.2-13.1 50.3-36.7 50.3m9.2-110.6c-19.5 0-30 13.3-30 13.3v-21l-0.1-27.8h-21.3l0.1 158.5c10.7 4.5 25.3 6.9 41.2 6.9 40.7 0 60.3-26 60.3-70.9-0.1-35.5-18.2-59-50.2-59"/>
			</g>
			<g id="g32_9_" transform="translate(584.04 143.63)">
				<path id="path34_9_" class="st12" d="m18.3 72.192c19.3 0 31.8 6.4 39.9 12.9l9.4-16.3c-12.7-11.2-29.9-17.2-48.3-17.2-46.4 0-78.9 28.3-78.9 85.4 0 59.8 35.1 83.1 75.2 83.1 20.1 0 37.2-4.7 48.4-9.4l-0.5-63.9v-20.1h-59.5v20.1h38l0.5 48.5c-5 2.5-13.6 4.5-25.3 4.5-32.2 0-53.8-20.3-53.8-63-0.1-43.5 22.2-64.6 54.9-64.6"/>
			</g>
			<g id="g36_9_" transform="translate(793.57 142.58)">
				<path id="path38_9_" class="st12" d="m-37.7 55.592h-21.3l0.1 27.3v94.3c0 26.3 11.4 43.9 43.9 43.9 4.5 0 8.9-0.4 13.1-1.2v-19.1c-3.1 0.5-6.4 0.7-9.9 0.7-17.9 0-25.8-9.2-25.8-24.6v-65h35.7v-17.8h-35.7l-0.1-38.5z"/>
			</g>
			<path id="path40_28_" class="st12" d="m680.4 360.69h21.3v-124h-21.3v124z"/>
			<path id="path42_9_" class="st12" d="m680.4 219.59h21.3v-21.3h-21.3v21.3z"/>
		
	
</g>
<g id="spacing_guides" class="st14">
	<path id="path40_111_" class="st15" d="M-1,0v124h1268V0H-1L-1,0z"/>
	<path id="path40_110_" class="st15" d="m-1 435v124h1268v-124h-1268z"/>
	<path id="path40_104_" class="st15" d="m261.69 434.55h62v-310h-62v310z"/>
	<path id="path40_103_" class="st15" d="m462.2 560h62v-561h-62v561z"/>
	<text class="st16 st17 st18" transform="translate(256.25 195)">H: 2.5 x</text>
	<text class="st16 st17 st18" transform="translate(468.47 282.83)">1/2 x</text>
	<text class="st16 st17 st18" transform="translate(621.29 500.5)">1x</text>
	<text class="st16 st17 st18" transform="translate(621.29 65.499)">1x</text>
	<path id="path40_102_" class="st15" d="m0 560h124v-561h-124v561z"/>
	<text class="st16 st17 st18" transform="translate(51.288 282.83)">1x</text>
	<path id="path40_101_" class="st15" d="m1142 560h124v-561h-124v561z"/>
	<text class="st16 st17 st18" transform="translate(1191.3 282.83)">1x</text>
</g>
</svg>
