<?xml version="1.0" encoding="UTF-8" standalone="no"?>
<!-- Created with Inkscape (http://www.inkscape.org/) -->

<svg
   width="1024"
   height="500"
   viewBox="0 0 1024 500"
   version="1.1"
   id="svg5"
   xml:space="preserve"
   inkscape:version="1.2 (dc2aedaf03, 2022-05-15)"
   sodipodi:docname="featureGraphic.svg"
   inkscape:export-filename="featureGraphic.png"
   inkscape:export-xdpi="96"
   inkscape:export-ydpi="96"
   xmlns:inkscape="http://www.inkscape.org/namespaces/inkscape"
   xmlns:sodipodi="http://sodipodi.sourceforge.net/DTD/sodipodi-0.dtd"
   xmlns:xlink="http://www.w3.org/1999/xlink"
   xmlns="http://www.w3.org/2000/svg"
   xmlns:svg="http://www.w3.org/2000/svg"><sodipodi:namedview
     id="namedview7"
     pagecolor="#ffffff"
     bordercolor="#000000"
     borderopacity="0.25"
     inkscape:showpageshadow="false"
     inkscape:pageopacity="0.0"
     inkscape:pagecheckerboard="true"
     inkscape:deskcolor="#d1d1d1"
     inkscape:document-units="px"
     showgrid="false"
     showborder="true"
     inkscape:zoom="0.76095916"
     inkscape:cx="449.43279"
     inkscape:cy="257.56967"
     inkscape:window-width="1366"
     inkscape:window-height="705"
     inkscape:window-x="-8"
     inkscape:window-y="-8"
     inkscape:window-maximized="1"
     inkscape:current-layer="layer2"
     showguides="true"><sodipodi:guide
       position="0,480"
       orientation="0,1"
       id="guide3709"
       inkscape:locked="false"
       inkscape:label=""
       inkscape:color="rgb(0,134,229)" /><sodipodi:guide
       position="0,380"
       orientation="0,1"
       id="guide3761"
       inkscape:locked="false"
       inkscape:label=""
       inkscape:color="rgb(0,134,229)" /><sodipodi:guide
       position="0,360"
       orientation="0,1"
       id="guide3763"
       inkscape:locked="false"
       inkscape:label=""
       inkscape:color="rgb(0,134,229)" /><sodipodi:guide
       position="0,260"
       orientation="0,1"
       id="guide3765"
       inkscape:locked="false"
       inkscape:label=""
       inkscape:color="rgb(0,134,229)" /><sodipodi:guide
       position="0,240"
       orientation="0,1"
       id="guide3767"
       inkscape:locked="false"
       inkscape:label=""
       inkscape:color="rgb(0,134,229)" /><sodipodi:guide
       position="0,140"
       orientation="0,1"
       id="guide3769"
       inkscape:locked="false"
       inkscape:label=""
       inkscape:color="rgb(0,134,229)" /><sodipodi:guide
       position="0,120"
       orientation="0,1"
       id="guide3771"
       inkscape:locked="false"
       inkscape:label=""
       inkscape:color="rgb(0,134,229)" /><sodipodi:guide
       position="0,20"
       orientation="0,1"
       id="guide3773"
       inkscape:locked="false"
       inkscape:label=""
       inkscape:color="rgb(0,134,229)" /><sodipodi:guide
       position="14,480"
       orientation="-1,0"
       id="guide464"
       inkscape:locked="false"
       inkscape:label=""
       inkscape:color="rgb(0,134,229)" /><sodipodi:guide
       position="114,480"
       orientation="-1,0"
       id="guide466"
       inkscape:locked="false"
       inkscape:label=""
       inkscape:color="rgb(0,134,229)" /><sodipodi:guide
       position="126,480"
       orientation="-1,0"
       id="guide468"
       inkscape:locked="false"
       inkscape:label=""
       inkscape:color="rgb(0,134,229)" /><sodipodi:guide
       position="226,480"
       orientation="-1,0"
       id="guide470"
       inkscape:locked="false"
       inkscape:label=""
       inkscape:color="rgb(0,134,229)" /><sodipodi:guide
       position="238,480"
       orientation="-1,0"
       id="guide472"
       inkscape:locked="false"
       inkscape:label=""
       inkscape:color="rgb(0,134,229)" /><sodipodi:guide
       position="338,480"
       orientation="-1,0"
       id="guide474"
       inkscape:locked="false"
       inkscape:label=""
       inkscape:color="rgb(0,134,229)" /><sodipodi:guide
       position="350,480"
       orientation="-1,0"
       id="guide476"
       inkscape:locked="false"
       inkscape:label=""
       inkscape:color="rgb(0,134,229)" /><sodipodi:guide
       position="1024,480"
       orientation="-1,0"
       id="guide478"
       inkscape:locked="false"
       inkscape:label=""
       inkscape:color="rgb(0,134,229)" /><sodipodi:guide
       position="450,480"
       orientation="-1,0"
       id="guide480"
       inkscape:locked="false"
       inkscape:label=""
       inkscape:color="rgb(0,134,229)" /><sodipodi:guide
       position="462,480"
       orientation="-1,0"
       id="guide482"
       inkscape:locked="false"
       inkscape:label=""
       inkscape:color="rgb(0,134,229)" /><sodipodi:guide
       position="562,480"
       orientation="-1,0"
       id="guide35772"
       inkscape:locked="false"
       inkscape:label=""
       inkscape:color="rgb(0,134,229)" /><sodipodi:guide
       position="574,480"
       orientation="-1,0"
       id="guide35774"
       inkscape:locked="false"
       inkscape:label=""
       inkscape:color="rgb(0,134,229)" /><sodipodi:guide
       position="674,480"
       orientation="-1,0"
       id="guide35776"
       inkscape:locked="false"
       inkscape:label=""
       inkscape:color="rgb(0,134,229)" /><sodipodi:guide
       position="686,480"
       orientation="-1,0"
       id="guide35778"
       inkscape:locked="false"
       inkscape:label=""
       inkscape:color="rgb(0,134,229)" /><sodipodi:guide
       position="786,480"
       orientation="-1,0"
       id="guide35780"
       inkscape:locked="false"
       inkscape:label=""
       inkscape:color="rgb(0,134,229)" /><sodipodi:guide
       position="798,480"
       orientation="-1,0"
       id="guide35782"
       inkscape:locked="false"
       inkscape:label=""
       inkscape:color="rgb(0,134,229)" /><sodipodi:guide
       position="898,183.33966"
       orientation="-1,0"
       id="guide35784"
       inkscape:locked="false"
       inkscape:label=""
       inkscape:color="rgb(0,134,229)" /><sodipodi:guide
       position="910,181.71576"
       orientation="-1,0"
       id="guide35786"
       inkscape:locked="false"
       inkscape:label=""
       inkscape:color="rgb(0,134,229)" /><sodipodi:guide
       position="1010,480"
       orientation="-1,0"
       id="guide35788"
       inkscape:locked="false"
       inkscape:label=""
       inkscape:color="rgb(0,134,229)" /></sodipodi:namedview><defs
     id="defs2"><pattern
       patternUnits="userSpaceOnUse"
       width="56"
       height="28"
       patternTransform="translate(196.50393,255.40447)"
       id="hp"><path
         id="bg"
         style="fill:#e91e63"
         d="M 0,0 H 56 V 28 H 0 Z" /><path
         fill="#a61747"
         d="m 56,26.00051 v 2 h -7.75 c 2.3,-1.27 4.94,-2 7.75,-2 z m -26,2 a 2,2 0 1 0 -4,0 h -4.09 a 25.98,25.98 0 0 0 -21.91,-12 v -2 c 0.67,0 1.34,0.02 2,0.07 v -0.07 a 2,2 0 0 0 -2,-2 v -2 a 4,4 0 0 1 3.98,3.6 28.09,28.09 0 0 1 2.8,-3.8599999 8,8 0 0 0 -6.78,-3.74 v -2 a 9.99,9.99 0 0 1 8.17,4.23 c 0.94,-0.95 1.96,-1.83 3.03,-2.63 A 13.98,13.98 0 0 0 0,5.100646e-4 H 7.75 C 9.75,1.1005101 11.48,2.6305101 12.85,4.4505101 c 1.12,-0.72 2.3,-1.37 3.53,-1.93 A 20.1,20.1 0 0 0 14.28,5.100646e-4 h 2.7 C 17.43,0.56051006 17.86,1.1405101 18.27,1.7405101 c 1.3,-0.48 2.63,-0.87000004 4,-1.15000004 -0.11,-0.2 -0.23,-0.4 -0.36,-0.5899999954 H 26 V 0.07051006 a 28.4,28.4 0 0 1 4,0 V 5.100646e-4 h 4.09 L 33.72,0.59051006 c 1.38,0.28 2.72,0.67000004 4.01,1.15000004 0.4,-0.6 0.84,-1.18000004 1.3,-1.7400000354 h 2.69 A 20.1,20.1 0 0 0 39.62,2.5205101 c 1.23,0.56 2.41,1.2 3.54,1.93 A 16.08,16.08 0 0 1 48.25,5.100646e-4 H 56 c -4.58,0 -8.65,2.2000000354 -11.2,5.6000000354 1.07,0.8 2.09,1.68 3.03,2.63 a 9.99,9.99 0 0 1 8.17,-4.23 v 2 a 8,8 0 0 0 -6.77,3.74 C 50.26,10.94051 51.2,12.24051 52.02,13.60051 a 4,4 0 0 1 3.98,-3.6 v 2 a 2,2 0 0 0 -2,2.07 28.4,28.4 0 0 1 2,-0.07 v 2 c -9.2,0 -17.3,4.78 -21.91,12 z m -22.25,0 H 0 v -2 c 2.81,0 5.46,0.73 7.75,2 z m 48.25,-8 v 2 c -5.6,0 -10.65,2.3 -14.28,6 h -2.7 c 4.04,-4.89 10.15,-8 16.98,-8 z m -39.03,8 h -2.69 c -3.63,-3.7 -8.68,-6 -14.28,-6 v -2 c 6.83,0 12.94,3.11 16.97,8 z m 15.01,-0.4 a 28.09,28.09 0 0 1 2.8,-3.86 8,8 0 0 0 -13.55,0 c 1.03,1.2 1.97,2.5 2.79,3.86 a 4,4 0 0 1 7.96,0 z m 14.29,-11.86 c 1.3,-0.48 2.63,-0.87 4,-1.15 a 25.99,25.99 0 0 0 -44.55,0 c 1.38,0.28 2.72,0.67 4.01,1.15 a 21.98,21.98 0 0 1 36.54,0 z m -5.43,2.71 c 1.13,-0.72 2.3,-1.37 3.54,-1.93 a 19.98,19.98 0 0 0 -32.76,0 c 1.23,0.56 2.41,1.2 3.54,1.93 a 15.98,15.98 0 0 1 25.68,0 z m -4.67,3.78 c 0.94,-0.95 1.96,-1.83 3.03,-2.63 a 13.98,13.98 0 0 0 -22.4,0 c 1.07,0.8 2.09,1.68 3.03,2.63 a 9.99,9.99 0 0 1 16.34,0 z"
         fill-opacity="0.4"
         id="path2941" /></pattern></defs><g
     inkscape:label="Fondo"
     inkscape:groupmode="layer"
     id="layer1"
     sodipodi:insensitive="true"><rect
       id="rect299"
       width="1024"
       height="500"
       x="0"
       style="fill:url(#hp);fill-opacity:1"
       y="0" /></g><g
     inkscape:groupmode="layer"
     id="layer2"
     inkscape:label="Iconos"><image
       inkscape:svg-dpi="300"
       width="100"
       height="100"
       xlink:href="../../../../../icons/chromatic/adobelr.svg"
       id="image3123"
       x="14"
       y="20"
       preserveAspectRatio="xMidYMid meet"
       style="image-rendering:optimizeQuality" /><image
       inkscape:svg-dpi="300"
       width="100"
       height="100"
       style="image-rendering:optimizeQuality"
       xlink:href="../../../../../icons/chromatic/discord.svg"
       id="image3123-6"
       x="14"
       y="140"
       preserveAspectRatio="xMidYMid" /><image
       inkscape:svg-dpi="300"
       width="100"
       height="100"
       style="image-rendering:optimizeQuality"
       xlink:href="../../../../../icons/chromatic/lcamera.svg"
       id="image3123-6-4"
       x="14"
       y="260"
       preserveAspectRatio="xMidYMid" /><image
       inkscape:svg-dpi="300"
       width="100"
       height="100"
       style="image-rendering:optimizeQuality"
       xlink:href="../../../../../icons/chromatic/alogcatroot.svg"
       id="image3123-9"
       x="126"
       y="20.000002"
       preserveAspectRatio="xMidYMid" /><image
       inkscape:svg-dpi="300"
       width="100"
       height="100"
       style="image-rendering:optimizeQuality"
       xlink:href="../../../../../icons/chromatic/duckduckgo.svg"
       id="image3123-6-5"
       x="126"
       y="140"
       preserveAspectRatio="xMidYMid" /><image
       inkscape:svg-dpi="300"
       width="100"
       height="100"
       style="image-rendering:optimizeQuality"
       xlink:href="../../../../../icons/chromatic/miuisecuritycenter.svg"
       id="image3123-6-4-9"
       x="126"
       y="260"
       preserveAspectRatio="xMidYMid" /><image
       inkscape:svg-dpi="300"
       width="100"
       height="100"
       style="image-rendering:optimizeQuality"
       xlink:href="../../../../../icons/chromatic/pocketpaint.svg"
       id="image3123-6-4-7-9"
       x="126"
       y="380"
       preserveAspectRatio="xMidYMid" /><image
       inkscape:svg-dpi="300"
       width="100"
       height="100"
       style="image-rendering:optimizeQuality"
       xlink:href="../../../../../icons/chromatic/antennapod.svg"
       id="image3123-9-8"
       x="238"
       y="19.999992"
       preserveAspectRatio="xMidYMid" /><image
       inkscape:svg-dpi="300"
       width="100"
       height="100"
       style="image-rendering:optimizeQuality"
       xlink:href="../../../../../icons/chromatic/ensichat.svg"
       id="image3123-6-5-1"
       x="238"
       y="140"
       preserveAspectRatio="xMidYMid" /><image
       inkscape:svg-dpi="300"
       width="100"
       height="100"
       style="image-rendering:optimizeQuality"
       xlink:href="../../../../../icons/chromatic/miuithemes.svg"
       id="image3123-6-4-9-6"
       x="238"
       y="260"
       preserveAspectRatio="xMidYMid" /><image
       inkscape:svg-dpi="300"
       width="100"
       height="100"
       style="image-rendering:optimizeQuality"
       xlink:href="../../../../../icons/chromatic/settings2.svg"
       id="image3123-6-4-7-9-9"
       x="238"
       y="380"
       preserveAspectRatio="xMidYMid" /><image
       inkscape:svg-dpi="300"
       width="100"
       height="100"
       style="image-rendering:optimizeQuality"
       xlink:href="../../../../../icons/chromatic/authenticator.svg"
       id="image3123-7"
       x="350"
       y="20"
       preserveAspectRatio="xMidYMid" /><image
       inkscape:svg-dpi="300"
       width="100"
       height="100"
       style="image-rendering:optimizeQuality"
       xlink:href="../../../../../icons/chromatic/fastshopping.svg"
       id="image3123-6-1"
       x="350"
       y="140"
       preserveAspectRatio="xMidYMid" /><image
       inkscape:svg-dpi="300"
       width="100"
       height="100"
       style="image-rendering:optimizeQuality"
       xlink:href="../../../../../icons/chromatic/nextcloud.svg"
       id="image3123-6-4-78"
       x="350"
       y="260"
       preserveAspectRatio="xMidYMid" /><image
       inkscape:svg-dpi="300"
       width="100"
       height="100"
       style="image-rendering:optimizeQuality"
       xlink:href="../../../../../icons/chromatic/sparserss.svg"
       id="image3123-6-4-7-4"
       x="350"
       y="380"
       preserveAspectRatio="xMidYMid" /><image
       inkscape:svg-dpi="300"
       width="100"
       height="100"
       style="image-rendering:optimizeQuality"
       xlink:href="../../../../../icons/chromatic/barcodescanner2.svg"
       id="image3123-9-0"
       x="462"
       y="20"
       preserveAspectRatio="xMidYMid" /><image
       inkscape:svg-dpi="300"
       width="100"
       height="100"
       style="image-rendering:optimizeQuality"
       xlink:href="../../../../../icons/chromatic/firefoxfocus.svg"
       id="image3123-6-5-7"
       x="462"
       y="140"
       preserveAspectRatio="xMidYMid" /><image
       inkscape:svg-dpi="300"
       width="100"
       height="100"
       style="image-rendering:optimizeQuality"
       xlink:href="../../../../../icons/chromatic/nonfree_googleplaygames.svg"
       id="image3123-6-4-9-5"
       x="462"
       y="260"
       preserveAspectRatio="xMidYMid" /><image
       inkscape:svg-dpi="300"
       width="100"
       height="100"
       style="image-rendering:optimizeQuality"
       xlink:href="../../../../../icons/chromatic/visualbitcoin.svg"
       id="image3123-6-4-7-9-8"
       x="462"
       y="380"
       preserveAspectRatio="xMidYMid" /><image
       inkscape:svg-dpi="300"
       width="100"
       height="100"
       style="image-rendering:optimizeQuality"
       xlink:href="../../../../../icons/chromatic/bluetooth.svg"
       id="image3123-9-8-8"
       x="574"
       y="19.999969"
       preserveAspectRatio="xMidYMid" /><image
       inkscape:svg-dpi="300"
       width="100"
       height="100"
       style="image-rendering:optimizeQuality"
       xlink:href="../../../../../icons/chromatic/firewall.svg"
       id="image3123-6-5-1-5"
       x="574"
       y="140"
       preserveAspectRatio="xMidYMid" /><image
       inkscape:svg-dpi="300"
       width="100"
       height="100"
       style="image-rendering:optimizeQuality"
       xlink:href="../../../../../icons/chromatic/nonfree_instagram.svg"
       id="image3123-6-4-9-6-2"
       x="574"
       y="260"
       preserveAspectRatio="xMidYMid" /><image
       inkscape:svg-dpi="300"
       width="100"
       height="100"
       style="image-rendering:optimizeQuality"
       xlink:href="../../../../../icons/chromatic/webtube.svg"
       id="image3123-6-4-7-9-9-3"
       x="574"
       y="380"
       preserveAspectRatio="xMidYMid" /><image
       inkscape:svg-dpi="300"
       width="100"
       height="100"
       style="image-rendering:optimizeQuality"
       xlink:href="../../../../../icons/chromatic/brave.svg"
       id="image3123-4"
       x="686"
       y="20"
       preserveAspectRatio="xMidYMid" /><image
       inkscape:svg-dpi="300"
       width="100"
       height="100"
       style="image-rendering:optimizeQuality"
       xlink:href="../../../../../icons/chromatic/fossmoodle.svg"
       id="image3123-6-3"
       x="686"
       y="140"
       preserveAspectRatio="xMidYMid" /><image
       inkscape:svg-dpi="300"
       width="100"
       height="100"
       style="image-rendering:optimizeQuality"
       xlink:href="../../../../../icons/chromatic/nonfree_shazam.svg"
       id="image3123-6-4-98"
       x="686"
       y="260"
       preserveAspectRatio="xMidYMid" /><image
       inkscape:svg-dpi="300"
       width="100"
       height="100"
       style="image-rendering:optimizeQuality"
       xlink:href="../../../../../icons/chromatic/wikipedia.svg"
       id="image3123-6-4-7-8"
       x="686"
       y="380"
       preserveAspectRatio="xMidYMid" /><image
       inkscape:svg-dpi="300"
       width="100"
       height="100"
       style="image-rendering:optimizeQuality"
       xlink:href="../../../../../icons/chromatic/calculator.svg"
       id="image3123-9-80"
       x="798"
       y="20"
       preserveAspectRatio="xMidYMid" /><image
       inkscape:svg-dpi="300"
       width="100"
       height="100"
       style="image-rendering:optimizeQuality"
       xlink:href="../../../../../icons/chromatic/gallery.svg"
       id="image3123-6-5-5"
       x="798"
       y="140"
       preserveAspectRatio="xMidYMid" /><image
       inkscape:svg-dpi="300"
       width="100"
       height="100"
       style="image-rendering:optimizeQuality"
       xlink:href="../../../../../icons/chromatic/orgzly.svg"
       id="image3123-6-4-9-4"
       x="798"
       y="260"
       preserveAspectRatio="xMidYMid" /><image
       inkscape:svg-dpi="300"
       width="100"
       height="100"
       style="image-rendering:optimizeQuality"
       xlink:href="../../../../../icons/chromatic/xclipper.svg"
       id="image3123-6-4-7-9-2"
       x="798"
       y="380"
       preserveAspectRatio="xMidYMid" /><image
       inkscape:svg-dpi="300"
       width="100"
       height="100"
       style="image-rendering:optimizeQuality"
       xlink:href="../../../../../icons/chromatic/camcorder.svg"
       id="image3123-9-8-9"
       x="910"
       y="20"
       preserveAspectRatio="xMidYMid" /><image
       inkscape:svg-dpi="300"
       width="100"
       height="100"
       style="image-rendering:optimizeQuality"
       xlink:href="../../../../../icons/chromatic/generic.svg"
       id="image3123-6-5-1-8"
       x="910"
       y="140"
       preserveAspectRatio="xMidYMid" /><image
       inkscape:svg-dpi="300"
       width="100"
       height="100"
       style="image-rendering:optimizeQuality"
       xlink:href="../../../../../icons/chromatic/pocketmaps.svg"
       id="image3123-6-4-9-6-7"
       x="14"
       y="380"
       preserveAspectRatio="xMidYMid" /><image
       inkscape:svg-dpi="300"
       width="100"
       height="100"
       style="image-rendering:optimizeQuality"
       xlink:href="../../../../../icons/chromatic/pinterest.svg"
       id="image3123-6-4-9-6-7-9"
       x="910"
       y="260"
       preserveAspectRatio="xMidYMid" /><image
       inkscape:svg-dpi="300"
       width="100"
       height="100"
       style="image-rendering:optimizeQuality"
       xlink:href="../../../../../icons/chromatic/xkcdviewer.svg"
       id="image3123-6-4-7-9-9-1"
       x="910"
       y="380"
       preserveAspectRatio="xMidYMid" /></g></svg>
